<?xml version="1.0" encoding="utf-8" standalone="no"?>
<!DOCTYPE svg PUBLIC "-//W3C//DTD SVG 1.1//EN"
  "http://www.w3.org/Graphics/SVG/1.1/DTD/svg11.dtd">
<svg xmlns:xlink="http://www.w3.org/1999/xlink" width="208.8pt" height="203.250985pt" viewBox="0 0 208.8 203.250985" xmlns="http://www.w3.org/2000/svg" version="1.1">
 <metadata>
  <rdf:RDF xmlns:dc="http://purl.org/dc/elements/1.1/" xmlns:cc="http://creativecommons.org/ns#" xmlns:rdf="http://www.w3.org/1999/02/22-rdf-syntax-ns#">
   <cc:Work>
    <dc:type rdf:resource="http://purl.org/dc/dcmitype/StillImage"/>
    <dc:date>2026-02-21T07:19:33.507199</dc:date>
    <dc:format>image/svg+xml</dc:format>
    <dc:creator>
     <cc:Agent>
      <dc:title>Matplotlib v3.10.7, https://matplotlib.org/</dc:title>
     </cc:Agent>
    </dc:creator>
   </cc:Work>
  </rdf:RDF>
 </metadata>
 <defs>
  <style type="text/css">*{stroke-linejoin: round; stroke-linecap: butt}</style>
 </defs>
 <g id="figure_1">
  <g id="patch_1">
   <path d="M 0 203.250985 
L 208.8 203.250985 
L 208.8 0 
L 0 0 
z
" style="fill: #ffffff"/>
  </g>
  <g id="axes_1">
   <g id="PolyCollection_1">
    <path d="M 101.586897 80.216651 
L 101.543515 80.234754 
L 101.458446 80.316467 
L 101.338583 80.455169 
L 101.193634 80.639624 
L 101.035345 80.854887 
L 100.876537 81.083521 
L 100.730078 81.307002 
L 100.607831 81.507225 
L 100.519702 81.667969 
L 100.472829 81.776213 
L 100.471009 81.823185 
L 122.999481 97.471231 
L 123.043678 97.453697 
L 123.129493 97.372512 
L 123.249973 97.234253 
L 123.395358 97.050122 
L 123.553869 96.835035 
L 123.712666 96.606417 
L 123.858882 96.382789 
L 123.980674 96.18227 
L 124.068173 96.021103 
L 124.114291 95.912345 
L 124.115292 95.864807 
z
" clip-path="url(#pa6e5698174)" style="fill: #262626; stroke: #262626"/>
    <path d="M 118.970521 131.48984 
L 119.000844 131.52921 
L 119.105507 131.587158 
L 119.276029 131.658991 
L 119.498596 131.738887 
L 119.755177 131.820375 
L 120.024986 131.896853 
L 120.286163 131.962125 
L 120.517551 132.010904 
L 120.700403 132.039236 
L 120.819906 132.044828 
L 120.866378 132.027226 
L 128.08589 106.530532 
L 128.06956 106.442879 
L 127.978328 106.340721 
L 127.819584 106.232334 
L 127.606189 106.126499 
L 127.355432 106.03179 
L 127.087626 105.95588 
L 126.824467 105.904918 
L 126.587277 105.883033 
L 126.395269 105.891999 
L 126.264 105.931088 
L 126.204104 105.997134 
z
" clip-path="url(#pa6e5698174)" style="fill: #262626; stroke: #262626"/>
    <path d="M 95.756798 77.357914 
L 128.827378 100.328521 
L 118.157532 137.970913 
L 78.00998 138.272391 
L 64.245151 100.528785 
z
" clip-path="url(#pa6e5698174)" style="fill: #7d7d7d; fill-opacity: 0.05; stroke: #262626"/>
    <path d="M 91.367636 81.799285 
L 91.408796 81.719845 
L 91.399683 81.583006 
L 91.341036 81.399855 
L 91.237606 81.185228 
L 91.097771 80.956515 
L 90.932862 80.732243 
L 90.756236 80.530582 
L 90.582205 80.367869 
L 90.424866 80.257287 
L 90.296967 80.207793 
L 90.208869 80.223399 
L 68.863446 95.909799 
L 68.862959 95.959702 
L 68.909802 96.069876 
L 69.000182 96.231396 
L 69.126775 96.431177 
L 69.279326 96.653034 
L 69.445476 96.878993 
L 69.611765 97.090748 
L 69.76472 97.271144 
L 69.891951 97.405567 
L 69.98315 97.483126 
L 70.030928 97.497538 
z
" clip-path="url(#pa6e5698174)" style="fill: #262626; stroke: #262626"/>
    <path d="M 84.523916 137.233531 
L 84.515444 137.273695 
L 84.508261 137.390799 
L 84.502948 137.575358 
L 84.499936 137.812418 
L 84.499469 138.082776 
L 84.501585 138.364528 
L 84.506112 138.634848 
L 84.512684 138.871837 
L 84.520768 139.056295 
L 84.529709 139.173279 
L 84.538783 139.21331 
L 111.837741 139.003671 
L 111.899949 138.963293 
L 111.956518 138.846366 
L 112.002865 138.662365 
L 112.035235 138.426196 
L 112.051007 138.156991 
L 112.048901 137.876561 
L 112.029089 137.607624 
L 111.993175 137.371967 
L 111.94407 137.188683 
L 111.885751 137.072619 
L 111.822944 137.033179 
z
" clip-path="url(#pa6e5698174)" style="fill: #262626; stroke: #262626"/>
    <path d="M 74.845355 132.484149 
L 74.885732 132.477829 
L 74.998181 132.444543 
L 75.173593 132.38699 
L 75.397755 132.30983 
L 75.652509 132.219316 
L 75.917215 132.122779 
L 76.170429 132.028042 
L 76.391636 131.942778 
L 76.562916 131.873896 
L 76.670393 131.826975 
L 76.705359 131.805818 
L 67.340517 106.140347 
L 67.281877 106.096055 
L 67.15299 106.082702 
L 66.964297 106.10137 
L 66.731085 106.150548 
L 66.472247 106.22625 
L 66.208753 106.322345 
L 65.961949 106.431046 
L 65.751831 106.543548 
L 65.59542 106.650737 
L 65.505389 106.743927 
L 65.48903 106.815571 
z
" clip-path="url(#pa6e5698174)" style="fill: #262626; stroke: #262626"/>
    <path d="M 150.315249 89.598974 
L 150.416017 89.497127 
L 150.469528 89.332758 
L 150.471446 89.119183 
L 150.421615 88.873706 
L 150.324074 88.616213 
L 150.186723 88.367565 
L 150.02069 88.147905 
L 149.839427 87.97503 
L 149.657618 87.862945 
L 149.489992 87.82073 
L 149.350129 87.851804 
L 132.760054 97.038902 
L 132.628527 97.156812 
L 132.545964 97.334522 
L 132.519054 97.557633 
L 132.549978 97.808071 
L 132.63623 98.065547 
L 132.770822 98.309201 
L 132.942851 98.519295 
L 133.13838 98.678807 
L 133.341567 98.774814 
L 133.535953 98.79954 
L 133.70579 98.750981 
z
" clip-path="url(#pa6e5698174)" style="fill: #262626; stroke: #262626"/>
    <path d="M 154.855775 85.950685 
L 128.827378 100.328521 
L 95.756798 77.357914 
L 100.251904 48.019507 
L 137.304987 53.023983 
z
" clip-path="url(#pa6e5698174)" style="fill: #676767; fill-opacity: 0.05; stroke: #262626"/>
    <path d="M 154.855775 85.950685 
L 128.827378 100.328521 
L 118.157532 137.970913 
L 137.474672 148.229328 
L 160.780493 115.499364 
z
" clip-path="url(#pa6e5698174)" style="fill: #5a5a5a; fill-opacity: 0.05; stroke: #262626"/>
    <path d="M 48.019507 86.102162 
L 64.245151 100.528785 
L 95.756798 77.357914 
L 100.251904 48.019507 
L 70.601544 52.860343 
z
" clip-path="url(#pa6e5698174)" style="fill: #5a5a5a; fill-opacity: 0.05; stroke: #262626"/>
    <path d="M 135.347118 100.328521 
L 135.322309 99.760288 
L 135.248069 99.19638 
L 135.124963 98.641088 
L 134.95393 98.098638 
L 134.736269 97.57316 
L 134.473639 97.068651 
L 134.168037 96.588952 
L 133.821789 96.137713 
L 133.437531 95.718369 
L 133.018186 95.33411 
L 132.566948 94.987863 
L 132.087248 94.682261 
L 131.58274 94.41963 
L 131.057261 94.20197 
L 130.514811 94.030936 
L 129.959519 93.907831 
L 129.395611 93.833591 
L 128.827378 93.808781 
L 128.259146 93.833591 
L 127.695238 93.907831 
L 127.139946 94.030936 
L 126.597496 94.20197 
L 126.072017 94.41963 
L 125.567509 94.682261 
L 125.087809 94.987863 
L 124.636571 95.33411 
L 124.217226 95.718369 
L 123.832968 96.137713 
L 123.48672 96.588952 
L 123.181118 97.068651 
L 122.918488 97.57316 
L 122.700827 98.098638 
L 122.529794 98.641088 
L 122.406688 99.19638 
L 122.332448 99.760288 
L 122.307639 100.328521 
L 122.332448 100.896754 
L 122.406688 101.460662 
L 122.529794 102.015954 
L 122.700827 102.558403 
L 122.918488 103.083882 
L 123.181118 103.588391 
L 123.48672 104.06809 
L 123.832968 104.519329 
L 124.217226 104.938673 
L 124.636571 105.322931 
L 125.087809 105.669179 
L 125.567509 105.974781 
L 126.072017 106.237412 
L 126.597496 106.455072 
L 127.139946 106.626106 
L 127.695238 106.749211 
L 128.259146 106.823451 
L 128.827378 106.84826 
L 129.395611 106.823451 
L 129.959519 106.749211 
L 130.514811 106.626106 
L 131.057261 106.455072 
L 131.58274 106.237412 
L 132.087248 105.974781 
L 132.566948 105.669179 
L 133.018186 105.322931 
L 133.437531 104.938673 
L 133.821789 104.519329 
L 134.168037 104.06809 
L 134.473639 103.588391 
L 134.736269 103.083882 
L 134.95393 102.558403 
L 135.124963 102.015954 
L 135.248069 101.460662 
L 135.322309 100.896754 
L 135.347118 100.328521 
z
" clip-path="url(#pa6e5698174)" style="fill: #5f136e; stroke: #262626"/>
    <path d="M 102.276987 77.357914 
L 102.252176 76.789642 
L 102.177931 76.225695 
L 102.054817 75.670365 
L 101.883771 75.127878 
L 101.666096 74.602363 
L 101.403447 74.097819 
L 101.097824 73.618087 
L 100.751552 73.166817 
L 100.367268 72.747444 
L 99.947895 72.363159 
L 99.496625 72.016887 
L 99.016892 71.711264 
L 98.512349 71.448616 
L 97.986834 71.23094 
L 97.444347 71.059895 
L 96.889017 70.936781 
L 96.32507 70.862536 
L 95.756798 70.837725 
L 95.188526 70.862536 
L 94.624579 70.936781 
L 94.069249 71.059895 
L 93.526762 71.23094 
L 93.001247 71.448616 
L 92.496703 71.711264 
L 92.016971 72.016887 
L 91.565701 72.363159 
L 91.146328 72.747444 
L 90.762043 73.166817 
L 90.415772 73.618087 
L 90.110148 74.097819 
L 89.8475 74.602363 
L 89.629824 75.127878 
L 89.458779 75.670365 
L 89.335665 76.225695 
L 89.26142 76.789642 
L 89.236609 77.357914 
L 89.26142 77.926186 
L 89.335665 78.490133 
L 89.458779 79.045463 
L 89.629824 79.58795 
L 89.8475 80.113465 
L 90.110148 80.618008 
L 90.415772 81.097741 
L 90.762043 81.54901 
L 91.146328 81.968384 
L 91.565701 82.352668 
L 92.016971 82.69894 
L 92.496703 83.004563 
L 93.001247 83.267212 
L 93.526762 83.484887 
L 94.069249 83.655933 
L 94.624579 83.779046 
L 95.188526 83.853292 
L 95.756798 83.878103 
L 96.32507 83.853292 
L 96.889017 83.779046 
L 97.444347 83.655933 
L 97.986834 83.484887 
L 98.512349 83.267212 
L 99.016892 83.004563 
L 99.496625 82.69894 
L 99.947895 82.352668 
L 100.367268 81.968384 
L 100.751552 81.54901 
L 101.097824 81.097741 
L 101.403447 80.618008 
L 101.666096 80.113465 
L 101.883771 79.58795 
L 102.054817 79.045463 
L 102.177931 78.490133 
L 102.252176 77.926186 
L 102.276987 77.357914 
z
" clip-path="url(#pa6e5698174)" style="fill: #d54a41; stroke: #262626"/>
    <path d="M 95.551295 72.241349 
L 95.564326 72.417882 
L 95.654622 72.592114 
L 95.814867 72.749929 
L 96.032079 72.878542 
L 96.288661 72.967532 
L 96.563826 73.009692 
L 96.835282 73.001605 
L 97.081037 72.943926 
L 97.281181 72.841329 
L 97.4195 72.702124 
L 97.484789 72.53759 
L 100.370218 53.837791 
L 100.35114 53.695342 
L 100.25368 53.552187 
L 100.085731 53.419924 
L 99.860901 53.309267 
L 99.597404 53.229182 
L 99.316587 53.186156 
L 99.0412 53.183676 
L 98.793552 53.221942 
L 98.593708 53.297853 
L 98.457857 53.405261 
L 98.397006 53.535463 
z
" clip-path="url(#pa6e5698174)" style="fill: #262626; stroke: #262626"/>
    <path d="M 132.669962 146.821799 
L 132.859271 146.875991 
L 133.071636 146.853499 
L 133.289851 146.756145 
L 133.496238 146.591816 
L 133.674077 146.373825 
L 133.808961 146.119832 
L 133.889962 145.850414 
L 133.910517 145.587398 
L 133.868962 145.352092 
L 133.768663 145.163559 
L 133.617745 145.037073 
L 122.243391 139.02513 
L 122.034642 138.959463 
L 121.805368 138.969613 
L 121.574141 139.054757 
L 121.359696 139.207998 
L 121.179405 139.416921 
L 121.047874 139.664601 
L 120.975759 139.930971 
L 120.968903 140.194453 
L 121.02786 140.4337 
L 121.147855 140.62933 
L 121.319166 140.765494 
z
" clip-path="url(#pa6e5698174)" style="fill: #262626; stroke: #262626"/>
    <path d="M 137.474672 148.229328 
L 118.157532 137.970913 
L 78.00998 138.272391 
L 70.805324 148.811449 
L 108.233061 155.231477 
z
" clip-path="url(#pa6e5698174)" style="fill: #454545; fill-opacity: 0.05; stroke: #262626"/>
    <path d="M 78.00998 138.272391 
L 70.805324 148.811449 
L 51.788228 116.0334 
L 48.019507 86.102162 
L 64.245151 100.528785 
z
" clip-path="url(#pa6e5698174)" style="fill: #454545; fill-opacity: 0.05; stroke: #262626"/>
    <path d="M 124.726024 137.970913 
L 124.701029 137.398431 
L 124.626234 136.830306 
L 124.502208 136.270862 
L 124.329896 135.724356 
L 124.110608 135.194948 
L 123.846013 134.686667 
L 123.538126 134.203381 
L 123.189289 133.748768 
L 122.802157 133.326288 
L 122.379678 132.939156 
L 121.925064 132.590319 
L 121.441778 132.282432 
L 120.933497 132.017837 
L 120.404089 131.798549 
L 119.857583 131.626237 
L 119.298139 131.502211 
L 118.730014 131.427416 
L 118.157532 131.402421 
L 117.585051 131.427416 
L 117.016926 131.502211 
L 116.457482 131.626237 
L 115.910976 131.798549 
L 115.381568 132.017837 
L 114.873286 132.282432 
L 114.39 132.590319 
L 113.935387 132.939156 
L 113.512907 133.326288 
L 113.125776 133.748768 
L 112.776939 134.203381 
L 112.469052 134.686667 
L 112.204457 135.194948 
L 111.985169 135.724356 
L 111.812856 136.270862 
L 111.688831 136.830306 
L 111.614036 137.398431 
L 111.58904 137.970913 
L 111.614036 138.543395 
L 111.688831 139.111519 
L 111.812856 139.670964 
L 111.985169 140.217469 
L 112.204457 140.746877 
L 112.469052 141.255159 
L 112.776939 141.738445 
L 113.125776 142.193058 
L 113.512907 142.615538 
L 113.935387 143.002669 
L 114.39 143.351506 
L 114.873286 143.659394 
L 115.381568 143.923988 
L 115.910976 144.143276 
L 116.457482 144.315589 
L 117.016926 144.439614 
L 117.585051 144.514409 
L 118.157532 144.539405 
L 118.730014 144.514409 
L 119.298139 144.439614 
L 119.857583 144.315589 
L 120.404089 144.143276 
L 120.933497 143.923988 
L 121.441778 143.659394 
L 121.925064 143.351506 
L 122.379678 143.002669 
L 122.802157 142.615538 
L 123.189289 142.193058 
L 123.538126 141.738445 
L 123.846013 141.255159 
L 124.110608 140.746877 
L 124.329896 140.217469 
L 124.502208 139.670964 
L 124.626234 139.111519 
L 124.701029 138.543395 
L 124.726024 137.970913 
z
" clip-path="url(#pa6e5698174)" style="fill: #88226a; stroke: #262626"/>
    <path d="M 70.814382 100.528785 
L 70.789384 99.956238 
L 70.71458 99.38805 
L 70.59054 98.828543 
L 70.418209 98.281976 
L 70.198896 97.752508 
L 69.934272 97.24417 
L 69.62635 96.760829 
L 69.277474 96.306165 
L 68.890299 95.883637 
L 68.467771 95.496462 
L 68.013107 95.147586 
L 67.529767 94.839664 
L 67.021428 94.57504 
L 66.49196 94.355728 
L 65.945393 94.183396 
L 65.385886 94.059356 
L 64.817698 93.984552 
L 64.245151 93.959555 
L 63.672605 93.984552 
L 63.104417 94.059356 
L 62.54491 94.183396 
L 61.998342 94.355728 
L 61.468875 94.57504 
L 60.960536 94.839664 
L 60.477196 95.147586 
L 60.022532 95.496462 
L 59.600004 95.883637 
L 59.212829 96.306165 
L 58.863953 96.760829 
L 58.556031 97.24417 
L 58.291407 97.752508 
L 58.072094 98.281976 
L 57.899762 98.828543 
L 57.775723 99.38805 
L 57.700919 99.956238 
L 57.675921 100.528785 
L 57.700919 101.101331 
L 57.775723 101.669519 
L 57.899762 102.229026 
L 58.072094 102.775594 
L 58.291407 103.305061 
L 58.556031 103.8134 
L 58.863953 104.29674 
L 59.212829 104.751404 
L 59.600004 105.173932 
L 60.022532 105.561107 
L 60.477196 105.909983 
L 60.960536 106.217905 
L 61.468875 106.482529 
L 61.998342 106.701842 
L 62.54491 106.874174 
L 63.104417 106.998213 
L 63.672605 107.073017 
L 64.245151 107.098015 
L 64.817698 107.073017 
L 65.385886 106.998213 
L 65.945393 106.874174 
L 66.49196 106.701842 
L 67.021428 106.482529 
L 67.529767 106.217905 
L 68.013107 105.909983 
L 68.467771 105.561107 
L 68.890299 105.173932 
L 69.277474 104.751404 
L 69.62635 104.29674 
L 69.934272 103.8134 
L 70.198896 103.305061 
L 70.418209 102.775594 
L 70.59054 102.229026 
L 70.71458 101.669519 
L 70.789384 101.101331 
L 70.814382 100.528785 
z
" clip-path="url(#pa6e5698174)" style="fill: #fac62d; stroke: #262626"/>
    <path d="M 84.609429 138.272391 
L 84.584316 137.697211 
L 84.509168 137.126409 
L 84.384558 136.564328 
L 84.211433 136.015247 
L 83.991112 135.483344 
L 83.72527 134.972667 
L 83.415932 134.487103 
L 83.065451 134.030347 
L 82.676495 133.605876 
L 82.252024 133.21692 
L 81.795268 132.866439 
L 81.309704 132.557101 
L 80.799027 132.291259 
L 80.267124 132.070937 
L 79.718043 131.897813 
L 79.155962 131.773202 
L 78.585159 131.698055 
L 78.00998 131.672942 
L 77.4348 131.698055 
L 76.863997 131.773202 
L 76.301916 131.897813 
L 75.752835 132.070937 
L 75.220932 132.291259 
L 74.710255 132.557101 
L 74.224691 132.866439 
L 73.767935 133.21692 
L 73.343464 133.605876 
L 72.954508 134.030347 
L 72.604027 134.487103 
L 72.294689 134.972667 
L 72.028847 135.483344 
L 71.808526 136.015247 
L 71.635401 136.564328 
L 71.510791 137.126409 
L 71.435643 137.697211 
L 71.41053 138.272391 
L 71.435643 138.847571 
L 71.510791 139.418374 
L 71.635401 139.980455 
L 71.808526 140.529536 
L 72.028847 141.061439 
L 72.294689 141.572116 
L 72.604027 142.05768 
L 72.954508 142.514436 
L 73.343464 142.938907 
L 73.767935 143.327863 
L 74.224691 143.678344 
L 74.710255 143.987682 
L 75.220932 144.253524 
L 75.752835 144.473845 
L 76.301916 144.64697 
L 76.863997 144.77158 
L 77.4348 144.846728 
L 78.00998 144.871841 
L 78.585159 144.846728 
L 79.155962 144.77158 
L 79.718043 144.64697 
L 80.267124 144.473845 
L 80.799027 144.253524 
L 81.309704 143.987682 
L 81.795268 143.678344 
L 82.252024 143.327863 
L 82.676495 142.938907 
L 83.065451 142.514436 
L 83.415932 142.05768 
L 83.72527 141.572116 
L 83.991112 141.061439 
L 84.211433 140.529536 
L 84.384558 139.980455 
L 84.509168 139.418374 
L 84.584316 138.847571 
L 84.609429 138.272391 
z
" clip-path="url(#pa6e5698174)" style="fill: #f8870e; stroke: #262626"/>
    <path d="M 52.342029 88.593158 
L 52.170199 88.495156 
L 51.957889 88.466277 
L 51.7223 88.508862 
L 51.482518 88.619459 
L 51.257968 88.78911 
L 51.066842 89.00407 
L 50.924623 89.246924 
L 50.842835 89.497998 
L 50.828102 89.736951 
L 50.881618 89.944425 
L 50.999048 90.103611 
L 60.537867 98.5511 
L 60.725692 98.66469 
L 60.951345 98.709419 
L 61.196545 98.681663 
L 61.441426 98.58367 
L 61.666151 98.423381 
L 61.852512 98.21378 
L 61.985413 97.971848 
L 62.054086 97.717185 
L 62.052968 97.470422 
L 61.98215 97.25155 
L 61.847368 97.078302 
z
" clip-path="url(#pa6e5698174)" style="fill: #262626; stroke: #262626"/>
    <path d="M 151.249585 81.306894 
L 151.347871 81.405343 
L 151.509545 81.457785 
L 151.721507 81.459972 
L 151.966587 81.411726 
L 152.224929 81.316956 
L 152.475604 81.18334 
L 152.698303 81.021702 
L 152.874986 80.845138 
L 152.991338 80.667951 
L 153.037933 80.504496 
L 153.010996 80.368016 
L 141.199023 58.180421 
L 141.124399 58.127475 
L 140.983551 58.117339 
L 140.787889 58.150836 
L 140.553265 58.225252 
L 140.298686 58.334557 
L 140.044777 58.469898 
L 139.812108 58.620308 
L 139.619528 58.773603 
L 139.48264 58.917364 
L 139.412532 59.039944 
L 139.414886 59.131413 
z
" clip-path="url(#pa6e5698174)" style="fill: #262626; stroke: #262626"/>
    <path d="M 130.838014 53.170599 
L 130.923572 53.140835 
L 131.01316 53.032324 
L 131.09952 52.853856 
L 131.175656 52.61989 
L 131.2354 52.34938 
L 131.273911 52.064242 
L 131.288071 51.787576 
L 131.27673 51.541795 
L 131.240809 51.346811 
L 131.183218 51.218421 
L 131.108622 51.167027 
L 106.13864 47.807402 
L 106.00213 47.829762 
L 105.865856 47.930446 
L 105.740858 48.101294 
L 105.637263 48.328468 
L 105.563463 48.593562 
L 105.525438 48.8751 
L 105.526268 49.150274 
L 105.565885 49.39679 
L 105.641081 49.594677 
L 105.745763 49.727904 
L 105.87145 49.785678 
z
" clip-path="url(#pa6e5698174)" style="fill: #262626; stroke: #262626"/>
    <path d="M 77.053072 141.426255 
L 77.157889 141.201875 
L 77.188008 140.950414 
L 77.14099 140.692243 
L 77.020644 140.448278 
L 76.836719 140.238284 
L 76.604116 140.079273 
L 76.341679 139.984128 
L 76.070669 139.960555 
L 75.813042 140.010466 
L 75.589669 140.129817 
L 75.418646 140.308938 
L 72.161588 145.023083 
L 72.063746 145.239299 
L 72.041936 145.484555 
L 72.097924 145.738983 
L 72.227175 145.981971 
L 72.419217 146.193833 
L 72.658493 146.357405 
L 72.925617 146.459436 
L 73.19895 146.49166 
L 73.456346 146.451466 
L 73.676953 146.342111 
L 73.8429 146.172453 
z
" clip-path="url(#pa6e5698174)" style="fill: #262626; stroke: #262626"/>
    <path d="M 156.7695 90.418636 
L 156.691684 90.236173 
L 156.540897 90.084388 
L 156.329356 89.975576 
L 156.074198 89.918553 
L 155.796095 89.91794 
L 155.517577 89.973784 
L 155.261207 90.081564 
L 155.047755 90.232546 
L 154.894515 90.414499 
L 154.8139 90.612682 
L 154.812441 90.81104 
L 158.683062 110.22009 
L 158.754786 110.36792 
L 158.901611 110.487551 
L 159.111644 110.56929 
L 159.367868 110.606516 
L 159.649525 110.596212 
L 159.933798 110.539213 
L 160.197656 110.440137 
L 160.419724 110.307011 
L 160.582009 110.15062 
L 160.671366 109.983633 
L 160.680555 109.819578 
z
" clip-path="url(#pa6e5698174)" style="fill: #262626; stroke: #262626"/>
    <path d="M 140.249613 142.590356 
L 140.222862 142.698485 
L 140.264956 142.845334 
L 140.372486 143.019005 
L 140.536741 143.20543 
L 140.744413 143.389504 
L 140.978677 143.556315 
L 141.220556 143.69235 
L 141.450454 143.786587 
L 141.649745 143.831392 
L 141.802285 143.823135 
L 141.895715 143.762485 
L 157.757463 121.500944 
L 157.748115 121.442936 
L 157.672302 121.341761 
L 157.536166 121.205616 
L 157.350737 121.04553 
L 157.131035 120.874472 
L 156.894861 120.706301 
L 156.661347 120.55464 
L 156.449412 120.431777 
L 156.276225 120.347665 
L 156.155817 120.309118 
L 156.097942 120.31926 
z
" clip-path="url(#pa6e5698174)" style="fill: #262626; stroke: #262626"/>
    <path d="M 75.939943 50.956469 
L 75.788697 51.022978 
L 75.663004 51.165558 
L 75.573047 51.372659 
L 75.526112 51.627503 
L 75.526003 51.909444 
L 75.572729 52.19564 
L 75.662503 52.462906 
L 75.788054 52.689589 
L 75.939209 52.857325 
L 76.103723 52.952525 
L 76.268268 52.967476 
L 95.733021 49.768612 
L 95.918889 49.6973 
L 96.07667 49.551961 
L 96.193581 49.344368 
L 96.260151 49.09134 
L 96.270987 48.813375 
L 96.22521 48.532993 
L 96.12653 48.272909 
L 95.982942 48.054192 
L 95.806076 47.894562 
L 95.610263 47.806952 
L 95.411366 47.798459 
z
" clip-path="url(#pa6e5698174)" style="fill: #262626; stroke: #262626"/>
    <path d="M 67.711216 58.928111 
L 67.700623 58.870262 
L 67.622615 58.770718 
L 67.483509 58.637545 
L 67.294576 58.481531 
L 67.071123 58.315315 
L 66.831251 58.152364 
L 66.594394 58.005878 
L 66.379741 57.887726 
L 66.204681 57.807479 
L 66.083398 57.771638 
L 66.025715 57.783107 
L 50.669177 80.403316 
L 50.644737 80.512142 
L 50.689999 80.658157 
L 50.801296 80.829532 
L 50.969613 81.012383 
L 51.181312 81.191897 
L 51.419244 81.35353 
L 51.664132 81.484188 
L 51.896138 81.573286 
L 52.096465 81.613606 
L 52.248884 81.601881 
L 52.341047 81.53906 
z
" clip-path="url(#pa6e5698174)" style="fill: #262626; stroke: #262626"/>
    <path d="M 133.431137 150.236539 
L 133.629421 150.146974 
L 133.792579 149.985059 
L 133.907393 149.763912 
L 133.964561 149.50145 
L 133.959453 149.218935 
L 133.892481 148.939255 
L 133.769072 148.685068 
L 133.599223 148.476967 
L 133.396695 148.331811 
L 133.177895 148.261359 
L 132.960548 148.27132 
L 113.173744 152.987622 
L 113.007838 153.070318 
L 112.874835 153.227591 
L 112.785511 153.4467 
L 112.747101 153.709894 
L 112.762717 153.99585 
L 112.831095 154.281402 
L 112.946695 154.543417 
L 113.100151 154.760667 
L 113.279031 154.915552 
L 113.468845 154.995524 
L 113.654213 154.994105 
z
" clip-path="url(#pa6e5698174)" style="fill: #262626; stroke: #262626"/>
    <path d="M 101.744981 155.165239 
L 101.848099 155.140529 
L 101.956992 155.03545 
L 102.062839 154.858514 
L 102.157064 154.624056 
L 102.232033 154.35107 
L 102.281674 154.061672 
L 102.301965 153.779306 
L 102.291261 153.52685 
L 102.25043 153.324754 
L 102.18278 153.189392 
L 102.093792 153.131731 
L 76.5461 148.762985 
L 76.386482 148.777457 
L 76.225848 148.872066 
L 76.077212 149.039149 
L 75.952615 149.265169 
L 75.862151 149.531816 
L 75.813149 149.817486 
L 75.80958 150.099037 
L 75.851732 150.35366 
L 75.93619 150.560726 
L 76.056112 150.70346 
L 76.201783 150.770298 
z
" clip-path="url(#pa6e5698174)" style="fill: #262626; stroke: #262626"/>
    <path d="M 154.855775 85.950685 
L 160.780493 115.499364 
L 146.543299 100.969376 
L 131.678778 61.297647 
L 137.304987 53.023983 
z
" clip-path="url(#pa6e5698174)" style="fill: #454545; fill-opacity: 0.05; stroke: #262626"/>
    <path d="M 131.678778 61.297647 
L 89.340029 61.234973 
L 70.601544 52.860343 
L 100.251904 48.019507 
L 137.304987 53.023983 
z
" clip-path="url(#pa6e5698174)" style="fill: #454545; fill-opacity: 0.05; stroke: #262626"/>
    <path d="M 161.509144 85.950685 
L 161.483826 85.370806 
L 161.408065 84.79534 
L 161.282436 84.228666 
L 161.107897 83.675099 
L 160.885775 83.13885 
L 160.617762 82.624 
L 160.305896 82.134469 
L 159.952552 81.673981 
L 159.560418 81.246042 
L 159.132478 80.853908 
L 158.671991 80.500564 
L 158.18246 80.188698 
L 157.66761 79.920684 
L 157.131361 79.698563 
L 156.577793 79.524023 
L 156.01112 79.398395 
L 155.435654 79.322633 
L 154.855775 79.297315 
L 154.275895 79.322633 
L 153.700429 79.398395 
L 153.133756 79.524023 
L 152.580188 79.698563 
L 152.043939 79.920684 
L 151.52909 80.188698 
L 151.039559 80.500564 
L 150.579071 80.853908 
L 150.151132 81.246042 
L 149.758998 81.673981 
L 149.405653 82.134469 
L 149.093787 82.624 
L 148.825774 83.13885 
L 148.603652 83.675099 
L 148.429113 84.228666 
L 148.303485 84.79534 
L 148.227723 85.370806 
L 148.202405 85.950685 
L 148.227723 86.530564 
L 148.303485 87.106031 
L 148.429113 87.672704 
L 148.603652 88.226272 
L 148.825774 88.762521 
L 149.093787 89.27737 
L 149.405653 89.766901 
L 149.758998 90.227389 
L 150.151132 90.655328 
L 150.579071 91.047462 
L 151.039559 91.400807 
L 151.52909 91.712672 
L 152.043939 91.980686 
L 152.580188 92.202808 
L 153.133756 92.377347 
L 153.700429 92.502975 
L 154.275895 92.578737 
L 154.855775 92.604055 
L 155.435654 92.578737 
L 156.01112 92.502975 
L 156.577793 92.377347 
L 157.131361 92.202808 
L 157.66761 91.980686 
L 158.18246 91.712672 
L 158.671991 91.400807 
L 159.132478 91.047462 
L 159.560418 90.655328 
L 159.952552 90.227389 
L 160.305896 89.766901 
L 160.617762 89.27737 
L 160.885775 88.762521 
L 161.107897 88.226272 
L 161.282436 87.672704 
L 161.408065 87.106031 
L 161.483826 86.530564 
L 161.509144 85.950685 
z
" clip-path="url(#pa6e5698174)" style="fill: #060419; stroke: #262626"/>
    <path d="M 106.906031 48.019507 
L 106.88071 47.439562 
L 106.80494 46.86403 
L 106.679297 46.297292 
L 106.504738 45.743662 
L 106.282591 45.207352 
L 106.014547 44.692444 
L 105.702646 44.202857 
L 105.349261 43.742317 
L 104.957082 43.314329 
L 104.529094 42.92215 
L 104.068554 42.568765 
L 103.578967 42.256864 
L 103.064059 41.98882 
L 102.527749 41.766673 
L 101.974119 41.592114 
L 101.407381 41.466471 
L 100.831849 41.390701 
L 100.251904 41.36538 
L 99.671958 41.390701 
L 99.096427 41.466471 
L 98.529689 41.592114 
L 97.976058 41.766673 
L 97.439748 41.98882 
L 96.92484 42.256864 
L 96.435253 42.568765 
L 95.974713 42.92215 
L 95.546725 43.314329 
L 95.154547 43.742317 
L 94.801162 44.202857 
L 94.489261 44.692444 
L 94.221216 45.207352 
L 93.999069 45.743662 
L 93.82451 46.297292 
L 93.698868 46.86403 
L 93.623097 47.439562 
L 93.597777 48.019507 
L 93.623097 48.599453 
L 93.698868 49.174984 
L 93.82451 49.741722 
L 93.999069 50.295353 
L 94.221216 50.831663 
L 94.489261 51.346571 
L 94.801162 51.836158 
L 95.154547 52.296698 
L 95.546725 52.724686 
L 95.974713 53.116864 
L 96.435253 53.470249 
L 96.92484 53.78215 
L 97.439748 54.050195 
L 97.976058 54.272341 
L 98.529689 54.446901 
L 99.096427 54.572543 
L 99.671958 54.648313 
L 100.251904 54.673634 
L 100.831849 54.648313 
L 101.407381 54.572543 
L 101.974119 54.446901 
L 102.527749 54.272341 
L 103.064059 54.050195 
L 103.578967 53.78215 
L 104.068554 53.470249 
L 104.529094 53.116864 
L 104.957082 52.724686 
L 105.349261 52.296698 
L 105.702646 51.836158 
L 106.014547 51.346571 
L 106.282591 50.831663 
L 106.504738 50.295353 
L 106.679297 49.741722 
L 106.80494 49.174984 
L 106.88071 48.599453 
L 106.906031 48.019507 
z
" clip-path="url(#pa6e5698174)" style="fill: #c83f4b; stroke: #262626"/>
    <path d="M 144.044201 53.023983 
L 144.018556 52.436622 
L 143.941817 51.853731 
L 143.814568 51.279746 
L 143.637777 50.719036 
L 143.412789 50.175868 
L 143.141318 49.654376 
L 142.825428 49.158528 
L 142.467525 48.6921 
L 142.070331 48.258639 
L 141.63687 47.861445 
L 141.170442 47.503542 
L 140.674594 47.187652 
L 140.153102 46.916181 
L 139.609934 46.691193 
L 139.049224 46.514402 
L 138.475239 46.387153 
L 137.892348 46.310413 
L 137.304987 46.284769 
L 136.717626 46.310413 
L 136.134735 46.387153 
L 135.56075 46.514402 
L 135.00004 46.691193 
L 134.456872 46.916181 
L 133.93538 47.187652 
L 133.439533 47.503542 
L 132.973104 47.861445 
L 132.539643 48.258639 
L 132.14245 48.6921 
L 131.784546 49.158528 
L 131.468656 49.654376 
L 131.197185 50.175868 
L 130.972197 50.719036 
L 130.795406 51.279746 
L 130.668157 51.853731 
L 130.591418 52.436622 
L 130.565773 53.023983 
L 130.591418 53.611344 
L 130.668157 54.194235 
L 130.795406 54.76822 
L 130.972197 55.32893 
L 131.197185 55.872098 
L 131.468656 56.39359 
L 131.784546 56.889437 
L 132.14245 57.355866 
L 132.539643 57.789327 
L 132.973104 58.18652 
L 133.439533 58.544424 
L 133.93538 58.860313 
L 134.456872 59.131785 
L 135.00004 59.356773 
L 135.56075 59.533564 
L 136.134735 59.660813 
L 136.717626 59.737552 
L 137.304987 59.763197 
L 137.892348 59.737552 
L 138.475239 59.660813 
L 139.049224 59.533564 
L 139.609934 59.356773 
L 140.153102 59.131785 
L 140.674594 58.860313 
L 141.170442 58.544424 
L 141.63687 58.18652 
L 142.070331 57.789327 
L 142.467525 57.355866 
L 142.825428 56.889437 
L 143.141318 56.39359 
L 143.412789 55.872098 
L 143.637777 55.32893 
L 143.814568 54.76822 
L 143.941817 54.194235 
L 144.018556 53.611344 
L 144.044201 53.023983 
z
" clip-path="url(#pa6e5698174)" style="fill: #440a68; stroke: #262626"/>
    <path d="M 50.097692 110.865812 
L 50.161652 111.039248 
L 50.30336 111.188192 
L 50.511335 111.300576 
L 50.768729 111.367297 
L 51.054688 111.382948 
L 51.346047 111.346262 
L 51.619202 111.260212 
L 51.852022 111.131767 
L 52.025646 110.971334 
L 52.126008 110.791911 
L 52.144977 110.608033 
L 49.573076 90.351236 
L 49.505804 90.14464 
L 49.362753 89.965009 
L 49.155511 89.826896 
L 48.900868 89.74149 
L 48.619454 89.715709 
L 48.334067 89.751643 
L 48.067828 89.84638 
L 47.842305 89.992245 
L 47.67577 90.177422 
L 47.581713 90.386907 
L 47.567755 90.603731 
z
" clip-path="url(#pa6e5698174)" style="fill: #262626; stroke: #262626"/>
    <path d="M 55.890038 121.047407 
L 55.804303 120.982911 
L 55.653216 120.965586 
L 55.449017 120.996835 
L 55.20825 121.074126 
L 54.95042 121.191198 
L 54.696415 121.338566 
L 54.466813 121.504291 
L 54.280214 121.674948 
L 54.151737 121.83671 
L 54.091789 121.976473 
L 54.105227 122.082914 
L 67.097403 144.449632 
L 67.211348 144.563831 
L 67.387419 144.627379 
L 67.611352 144.635126 
L 67.865006 144.586446 
L 68.127831 144.485281 
L 68.378535 144.339828 
L 68.596807 144.161871 
L 68.764963 143.965827 
L 68.869382 143.767577 
L 68.901603 143.583183 
L 68.859016 143.427584 
z
" clip-path="url(#pa6e5698174)" style="fill: #262626; stroke: #262626"/>
    <path d="M 131.049846 60.372126 
L 130.920155 60.637799 
L 130.870677 60.92935 
L 130.90542 61.223159 
L 131.02157 61.495424 
L 131.209718 61.724087 
L 131.45462 61.890624 
L 131.736436 61.981542 
L 132.032335 61.989477 
L 132.318345 61.913784 
L 132.571295 61.760597 
L 132.770692 61.542326 
L 137.967098 53.848016 
L 138.093212 53.589738 
L 138.141388 53.306332 
L 138.107723 53.02076 
L 137.994944 52.756155 
L 137.812188 52.533955 
L 137.57426 52.372161 
L 137.300437 52.28388 
L 137.012901 52.276265 
L 136.734948 52.349933 
L 136.489094 52.498915 
L 136.295259 52.711141 
z
" clip-path="url(#pa6e5698174)" style="fill: #262626; stroke: #262626"/>
    <path d="M 137.474672 148.229328 
L 160.780493 115.499364 
L 146.543299 100.969376 
L 113.249525 125.940261 
L 108.233061 155.231477 
z
" clip-path="url(#pa6e5698174)" style="fill: #5a5a5a; fill-opacity: 0.05; stroke: #262626"/>
    <path d="M 70.601544 52.860343 
L 48.019507 86.102162 
L 51.788228 116.0334 
L 77.611128 101.188769 
L 89.340029 61.234973 
z
" clip-path="url(#pa6e5698174)" style="fill: #5a5a5a; fill-opacity: 0.05; stroke: #262626"/>
    <path d="M 51.788228 116.0334 
L 70.805324 148.811449 
L 108.233061 155.231477 
L 113.249525 125.940261 
L 77.611128 101.188769 
z
" clip-path="url(#pa6e5698174)" style="fill: #676767; fill-opacity: 0.05; stroke: #262626"/>
    <path d="M 144.210596 148.229328 
L 144.184964 147.642254 
L 144.108262 147.059647 
L 143.981075 146.485943 
L 143.80437 145.925506 
L 143.579492 145.382603 
L 143.308153 144.861366 
L 142.992418 144.365761 
L 142.634689 143.899559 
L 142.237689 143.46631 
L 141.80444 143.069311 
L 141.338239 142.711582 
L 140.842634 142.395847 
L 140.321396 142.124508 
L 139.778493 141.89963 
L 139.218057 141.722925 
L 138.644353 141.595738 
L 138.061746 141.519036 
L 137.474672 141.493404 
L 136.887597 141.519036 
L 136.304991 141.595738 
L 135.731286 141.722925 
L 135.17085 141.89963 
L 134.627947 142.124508 
L 134.10671 142.395847 
L 133.611104 142.711582 
L 133.144903 143.069311 
L 132.711654 143.46631 
L 132.314655 143.899559 
L 131.956926 144.365761 
L 131.64119 144.861366 
L 131.369851 145.382603 
L 131.144974 145.925506 
L 130.968269 146.485943 
L 130.841081 147.059647 
L 130.76438 147.642254 
L 130.738748 148.229328 
L 130.76438 148.816402 
L 130.841081 149.399009 
L 130.968269 149.972713 
L 131.144974 150.53315 
L 131.369851 151.076053 
L 131.64119 151.59729 
L 131.956926 152.092895 
L 132.314655 152.559097 
L 132.711654 152.992346 
L 133.144903 153.389345 
L 133.611104 153.747074 
L 134.10671 154.062809 
L 134.627947 154.334148 
L 135.17085 154.559026 
L 135.731286 154.735731 
L 136.304991 154.862918 
L 136.887597 154.93962 
L 137.474672 154.965252 
L 138.061746 154.93962 
L 138.644353 154.862918 
L 139.218057 154.735731 
L 139.778493 154.559026 
L 140.321396 154.334148 
L 140.842634 154.062809 
L 141.338239 153.747074 
L 141.80444 153.389345 
L 142.237689 152.992346 
L 142.634689 152.559097 
L 142.992418 152.092895 
L 143.308153 151.59729 
L 143.579492 151.076053 
L 143.80437 150.53315 
L 143.981075 149.972713 
L 144.108262 149.399009 
L 144.184964 148.816402 
L 144.210596 148.229328 
z
" clip-path="url(#pa6e5698174)" style="fill: #440a68; stroke: #262626"/>
    <path d="M 54.756688 86.102162 
L 54.731051 85.514978 
L 54.654335 84.932263 
L 54.527124 84.358452 
L 54.350386 83.797911 
L 54.125466 83.254907 
L 53.854077 82.733572 
L 53.538282 82.237874 
L 53.180487 81.771586 
L 52.783413 81.338256 
L 52.350083 80.941183 
L 51.883795 80.583387 
L 51.388097 80.267593 
L 50.866763 79.996203 
L 50.323759 79.771283 
L 49.763218 79.594546 
L 49.189406 79.467335 
L 48.606691 79.390619 
L 48.019507 79.364982 
L 47.432323 79.390619 
L 46.849608 79.467335 
L 46.275797 79.594546 
L 45.715256 79.771283 
L 45.172252 79.996203 
L 44.650917 80.267593 
L 44.155219 80.583387 
L 43.688931 80.941183 
L 43.255601 81.338256 
L 42.858528 81.771586 
L 42.500732 82.237874 
L 42.184938 82.733572 
L 41.913548 83.254907 
L 41.688629 83.797911 
L 41.511891 84.358452 
L 41.38468 84.932263 
L 41.307964 85.514978 
L 41.282327 86.102162 
L 41.307964 86.689346 
L 41.38468 87.272061 
L 41.511891 87.845873 
L 41.688629 88.406414 
L 41.913548 88.949418 
L 42.184938 89.470752 
L 42.500732 89.96645 
L 42.858528 90.432738 
L 43.255601 90.866068 
L 43.688931 91.263142 
L 44.155219 91.620937 
L 44.650917 91.936732 
L 45.172252 92.208121 
L 45.715256 92.433041 
L 46.275797 92.609779 
L 46.849608 92.73699 
L 47.432323 92.813706 
L 48.019507 92.839343 
L 48.606691 92.813706 
L 49.189406 92.73699 
L 49.763218 92.609779 
L 50.323759 92.433041 
L 50.866763 92.208121 
L 51.388097 91.936732 
L 51.883795 91.620937 
L 52.350083 91.263142 
L 52.783413 90.866068 
L 53.180487 90.432738 
L 53.538282 89.96645 
L 53.854077 89.470752 
L 54.125466 88.949418 
L 54.350386 88.406414 
L 54.527124 87.845873 
L 54.654335 87.272061 
L 54.731051 86.689346 
L 54.756688 86.102162 
z
" clip-path="url(#pa6e5698174)" style="fill: #fcffa4; stroke: #262626"/>
    <path d="M 77.594091 148.811449 
L 77.568258 148.219769 
L 77.490954 147.632592 
L 77.362769 147.054387 
L 77.184678 146.489554 
L 76.958037 145.942393 
L 76.684569 145.417066 
L 76.366356 144.917573 
L 76.005821 144.447714 
L 75.605707 144.011066 
L 75.169059 143.610952 
L 74.699201 143.250417 
L 74.199708 142.932205 
L 73.674381 142.658737 
L 73.127219 142.432095 
L 72.562386 142.254004 
L 71.984181 142.125819 
L 71.397004 142.048516 
L 70.805324 142.022682 
L 70.213644 142.048516 
L 69.626467 142.125819 
L 69.048262 142.254004 
L 68.483429 142.432095 
L 67.936267 142.658737 
L 67.410941 142.932205 
L 66.911447 143.250417 
L 66.441589 143.610952 
L 66.004941 144.011066 
L 65.604827 144.447714 
L 65.244292 144.917573 
L 64.926079 145.417066 
L 64.652612 145.942393 
L 64.42597 146.489554 
L 64.247879 147.054387 
L 64.119694 147.632592 
L 64.04239 148.219769 
L 64.016557 148.811449 
L 64.04239 149.40313 
L 64.119694 149.990306 
L 64.247879 150.568512 
L 64.42597 151.133345 
L 64.652612 151.680506 
L 64.926079 152.205833 
L 65.244292 152.705326 
L 65.604827 153.175185 
L 66.004941 153.611833 
L 66.441589 154.011947 
L 66.911447 154.372482 
L 67.410941 154.690694 
L 67.936267 154.964162 
L 68.483429 155.190804 
L 69.048262 155.368895 
L 69.626467 155.49708 
L 70.213644 155.574383 
L 70.805324 155.600216 
L 71.397004 155.574383 
L 71.984181 155.49708 
L 72.562386 155.368895 
L 73.127219 155.190804 
L 73.674381 154.964162 
L 74.199708 154.690694 
L 74.699201 154.372482 
L 75.169059 154.011947 
L 75.605707 153.611833 
L 76.005821 153.175185 
L 76.366356 152.705326 
L 76.684569 152.205833 
L 76.958037 151.680506 
L 77.184678 151.133345 
L 77.362769 150.568512 
L 77.490954 149.990306 
L 77.568258 149.40313 
L 77.594091 148.811449 
z
" clip-path="url(#pa6e5698174)" style="fill: #fca309; stroke: #262626"/>
    <path d="M 167.571325 115.499364 
L 167.545484 114.907504 
L 167.468157 114.320149 
L 167.339933 113.741768 
L 167.161787 113.176763 
L 166.935077 112.629435 
L 166.661526 112.103948 
L 166.343217 111.604303 
L 165.982572 111.134302 
L 165.582336 110.697521 
L 165.145555 110.297285 
L 164.675554 109.936641 
L 164.175909 109.618331 
L 163.650422 109.344781 
L 163.103094 109.11807 
L 162.538089 108.939924 
L 161.959708 108.8117 
L 161.372353 108.734374 
L 160.780493 108.708532 
L 160.188633 108.734374 
L 159.601277 108.8117 
L 159.022896 108.939924 
L 158.457891 109.11807 
L 157.910563 109.344781 
L 157.385077 109.618331 
L 156.885432 109.936641 
L 156.41543 110.297285 
L 155.978649 110.697521 
L 155.578414 111.134302 
L 155.217769 111.604303 
L 154.89946 112.103948 
L 154.625909 112.629435 
L 154.399198 113.176763 
L 154.221053 113.741768 
L 154.092829 114.320149 
L 154.015502 114.907504 
L 153.989661 115.499364 
L 154.015502 116.091224 
L 154.092829 116.67858 
L 154.221053 117.256961 
L 154.399198 117.821966 
L 154.625909 118.369294 
L 154.89946 118.89478 
L 155.217769 119.394426 
L 155.578414 119.864427 
L 155.978649 120.301208 
L 156.41543 120.701444 
L 156.885432 121.062088 
L 157.385077 121.380398 
L 157.910563 121.653948 
L 158.457891 121.880659 
L 159.022896 122.058805 
L 159.601277 122.187029 
L 160.188633 122.264355 
L 160.780493 122.290197 
L 161.372353 122.264355 
L 161.959708 122.187029 
L 162.538089 122.058805 
L 163.103094 121.880659 
L 163.650422 121.653948 
L 164.175909 121.380398 
L 164.675554 121.062088 
L 165.145555 120.701444 
L 165.582336 120.301208 
L 165.982572 119.864427 
L 166.343217 119.394426 
L 166.661526 118.89478 
L 166.935077 118.369294 
L 167.161787 117.821966 
L 167.339933 117.256961 
L 167.468157 116.67858 
L 167.545484 116.091224 
L 167.571325 115.499364 
z
" clip-path="url(#pa6e5698174)" style="fill: #000004; stroke: #262626"/>
    <path d="M 77.393652 52.860343 
L 77.367806 52.268372 
L 77.290465 51.680906 
L 77.162217 51.102416 
L 76.984038 50.537305 
L 76.757285 49.989874 
L 76.483682 49.464288 
L 76.165313 48.964549 
L 75.804601 48.494459 
L 75.40429 48.057597 
L 74.967427 47.657286 
L 74.497337 47.296573 
L 73.997598 46.978204 
L 73.472013 46.704602 
L 72.924582 46.477848 
L 72.359471 46.299669 
L 71.780981 46.171421 
L 71.193515 46.09408 
L 70.601544 46.068234 
L 70.009572 46.09408 
L 69.422106 46.171421 
L 68.843616 46.299669 
L 68.278505 46.477848 
L 67.731074 46.704602 
L 67.205489 46.978204 
L 66.70575 47.296573 
L 66.23566 47.657286 
L 65.798797 48.057597 
L 65.398486 48.494459 
L 65.037774 48.964549 
L 64.719405 49.464288 
L 64.445802 49.989874 
L 64.219049 50.537305 
L 64.04087 51.102416 
L 63.912622 51.680906 
L 63.835281 52.268372 
L 63.809435 52.860343 
L 63.835281 53.452314 
L 63.912622 54.03978 
L 64.04087 54.61827 
L 64.219049 55.183381 
L 64.445802 55.730812 
L 64.719405 56.256397 
L 65.037774 56.756136 
L 65.398486 57.226226 
L 65.798797 57.663089 
L 66.23566 58.0634 
L 66.70575 58.424113 
L 67.205489 58.742482 
L 67.731074 59.016084 
L 68.278505 59.242837 
L 68.843616 59.421016 
L 69.422106 59.549264 
L 70.009572 59.626606 
L 70.601544 59.652452 
L 71.193515 59.626606 
L 71.780981 59.549264 
L 72.359471 59.421016 
L 72.924582 59.242837 
L 73.472013 59.016084 
L 73.997598 58.742482 
L 74.497337 58.424113 
L 74.967427 58.0634 
L 75.40429 57.663089 
L 75.804601 57.226226 
L 76.165313 56.756136 
L 76.483682 56.256397 
L 76.757285 55.730812 
L 76.984038 55.183381 
L 77.162217 54.61827 
L 77.290465 54.03978 
L 77.367806 53.452314 
L 77.393652 52.860343 
z
" clip-path="url(#pa6e5698174)" style="fill: #fca309; stroke: #262626"/>
    <path d="M 115.110419 155.231477 
L 115.084249 154.632076 
L 115.005937 154.037237 
L 114.876079 153.451486 
L 114.695664 152.879282 
L 114.466064 152.32498 
L 114.189028 151.792798 
L 113.866663 151.286787 
L 113.501423 150.810797 
L 113.096088 150.368451 
L 112.653742 149.963116 
L 112.177752 149.597876 
L 111.67174 149.275511 
L 111.139558 148.998474 
L 110.585256 148.768875 
L 110.013052 148.58846 
L 109.427302 148.458602 
L 108.832462 148.38029 
L 108.233061 148.35412 
L 107.63366 148.38029 
L 107.03882 148.458602 
L 106.45307 148.58846 
L 105.880866 148.768875 
L 105.326564 148.998474 
L 104.794382 149.275511 
L 104.288371 149.597876 
L 103.812381 149.963116 
L 103.370035 150.368451 
L 102.964699 150.810797 
L 102.599459 151.286787 
L 102.277094 151.792798 
L 102.000058 152.32498 
L 101.770459 152.879282 
L 101.590043 153.451486 
L 101.460186 154.037237 
L 101.381874 154.632076 
L 101.355703 155.231477 
L 101.381874 155.830879 
L 101.460186 156.425718 
L 101.590043 157.011469 
L 101.770459 157.583672 
L 102.000058 158.137974 
L 102.277094 158.670156 
L 102.599459 159.176168 
L 102.964699 159.652158 
L 103.370035 160.094504 
L 103.812381 160.499839 
L 104.288371 160.865079 
L 104.794382 161.187444 
L 105.326564 161.46448 
L 105.880866 161.69408 
L 106.45307 161.874495 
L 107.03882 162.004353 
L 107.63366 162.082665 
L 108.233061 162.108835 
L 108.832462 162.082665 
L 109.427302 162.004353 
L 110.013052 161.874495 
L 110.585256 161.69408 
L 111.139558 161.46448 
L 111.67174 161.187444 
L 112.177752 160.865079 
L 112.653742 160.499839 
L 113.096088 160.094504 
L 113.501423 159.652158 
L 113.866663 159.176168 
L 114.189028 158.670156 
L 114.466064 158.137974 
L 114.695664 157.583672 
L 114.876079 157.011469 
L 115.005937 156.425718 
L 115.084249 155.830879 
L 115.110419 155.231477 
z
" clip-path="url(#pa6e5698174)" style="fill: #ad305d; stroke: #262626"/>
    <path d="M 58.666395 116.0334 
L 58.640222 115.433928 
L 58.561901 114.839019 
L 58.432027 114.253199 
L 58.251591 113.680928 
L 58.021965 113.126561 
L 57.744896 112.594316 
L 57.422493 112.088245 
L 57.05721 111.612199 
L 56.651827 111.169801 
L 56.209429 110.764418 
L 55.733383 110.399135 
L 55.227312 110.076732 
L 54.695067 109.799663 
L 54.1407 109.570037 
L 53.568429 109.389601 
L 52.982609 109.259727 
L 52.3877 109.181406 
L 51.788228 109.155233 
L 51.188756 109.181406 
L 50.593847 109.259727 
L 50.008027 109.389601 
L 49.435756 109.570037 
L 48.881389 109.799663 
L 48.349144 110.076732 
L 47.843073 110.399135 
L 47.367027 110.764418 
L 46.924629 111.169801 
L 46.519246 111.612199 
L 46.153963 112.088245 
L 45.83156 112.594316 
L 45.554491 113.126561 
L 45.324865 113.680928 
L 45.144429 114.253199 
L 45.014556 114.839019 
L 44.936234 115.433928 
L 44.910061 116.0334 
L 44.936234 116.632872 
L 45.014556 117.227781 
L 45.144429 117.813601 
L 45.324865 118.385872 
L 45.554491 118.940239 
L 45.83156 119.472484 
L 46.153963 119.978555 
L 46.519246 120.454601 
L 46.924629 120.896999 
L 47.367027 121.302382 
L 47.843073 121.667665 
L 48.349144 121.990068 
L 48.881389 122.267136 
L 49.435756 122.496763 
L 50.008027 122.677199 
L 50.593847 122.807072 
L 51.188756 122.885394 
L 51.788228 122.911567 
L 52.3877 122.885394 
L 52.982609 122.807072 
L 53.568429 122.677199 
L 54.1407 122.496763 
L 54.695067 122.267136 
L 55.227312 121.990068 
L 55.733383 121.667665 
L 56.209429 121.302382 
L 56.651827 120.896999 
L 57.05721 120.454601 
L 57.422493 119.978555 
L 57.744896 119.472484 
L 58.021965 118.940239 
L 58.251591 118.385872 
L 58.432027 117.813601 
L 58.561901 117.227781 
L 58.640222 116.632872 
L 58.666395 116.0334 
z
" clip-path="url(#pa6e5698174)" style="fill: #f1f179; stroke: #262626"/>
    <path d="M 149.001238 101.983922 
L 148.778234 101.816847 
L 148.512794 101.722591 
L 148.226422 101.70879 
L 147.942318 101.776561 
L 147.683499 101.920416 
L 147.470933 102.128698 
L 147.321841 102.384535 
L 147.248301 102.667201 
L 147.25627 102.953794 
L 147.345104 103.221098 
L 147.507606 103.447457 
L 158.767296 114.900206 
L 158.989953 115.068487 
L 159.253516 115.16538 
L 159.536631 115.183033 
L 159.816363 115.120019 
L 160.070049 114.981441 
L 160.277137 114.778526 
L 160.42085 114.527713 
L 160.489545 114.249322 
L 160.477657 113.965906 
L 160.386149 113.700426 
L 160.222435 113.474389 
z
" clip-path="url(#pa6e5698174)" style="fill: #262626; stroke: #262626"/>
    <path d="M 134.919485 66.981179 
L 134.845444 66.903699 
L 134.698465 66.862073 
L 134.490454 66.859673 
L 134.238264 66.896693 
L 133.962325 66.970135 
L 133.684992 67.074048 
L 133.428733 67.200015 
L 133.214309 67.337829 
L 133.059091 67.476327 
L 132.975654 67.604287 
L 132.970757 67.711344 
L 143.148535 94.889095 
L 143.192774 94.886455 
L 143.31275 94.854308 
L 143.498743 94.795259 
L 143.735685 94.714091 
L 144.00438 94.617381 
L 144.28306 94.512963 
L 144.549149 94.409296 
L 144.781089 94.314779 
L 144.96009 94.23707 
L 145.07165 94.182463 
L 145.106732 94.155382 
z
" clip-path="url(#pa6e5698174)" style="fill: #262626; stroke: #262626"/>
    <path d="M 72.714409 52.688692 
L 72.445758 52.613829 
L 72.165193 52.620386 
L 71.895445 52.707832 
L 71.658366 52.869083 
L 71.473164 53.091075 
L 71.354843 53.355823 
L 71.312987 53.641879 
L 71.350989 53.926069 
L 71.465769 54.185369 
L 71.648028 54.398772 
L 71.883002 54.54899 
L 86.654521 61.180139 
L 86.922845 61.253663 
L 87.203996 61.243887 
L 87.475199 61.151603 
L 87.714482 60.984288 
L 87.902459 60.755497 
L 88.023902 60.483764 
L 88.068973 60.191104 
L 88.034019 59.901227 
L 87.921873 59.637617 
L 87.74162 59.421629 
L 87.507863 59.270762 
z
" clip-path="url(#pa6e5698174)" style="fill: #262626; stroke: #262626"/>
    <path d="M 125.229424 62.328616 
L 125.329378 62.286616 
L 125.421359 62.163722 
L 125.497915 61.96989 
L 125.552845 61.720825 
L 125.581698 61.436703 
L 125.582136 61.140542 
L 125.554125 60.856335 
L 125.499933 60.607108 
L 125.42395 60.413051 
L 125.332333 60.289885 
L 125.232504 60.247589 
L 96.225617 60.19947 
L 96.211032 60.241806 
L 96.197503 60.365429 
L 96.186126 60.560322 
L 96.177823 60.810697 
L 96.173266 61.096271 
L 96.172826 61.393906 
L 96.176537 61.679491 
L 96.184098 61.92989 
L 96.194898 62.124816 
L 96.208061 62.248478 
L 96.222521 62.290858 
z
" clip-path="url(#pa6e5698174)" style="fill: #262626; stroke: #262626"/>
    <path d="M 113.618361 130.030442 
L 113.617418 129.783031 
L 113.532389 129.541251 
L 113.370163 129.324688 
L 113.143882 129.150887 
L 112.871879 129.033929 
L 112.576189 128.983288 
L 112.280768 129.003068 
L 112.009549 129.091666 
L 111.784503 129.241905 
L 111.623864 129.441612 
L 111.540646 129.674609 
L 107.719571 152.118506 
L 107.716666 152.383015 
L 107.796372 152.640203 
L 107.952231 152.869233 
L 108.171616 153.051552 
L 108.436754 153.172389 
L 108.726165 153.221954 
L 109.016404 153.196232 
L 109.283955 153.097307 
L 109.507145 152.933193 
L 109.667891 152.717185 
L 109.75317 152.466784 
z
" clip-path="url(#pa6e5698174)" style="fill: #262626; stroke: #262626"/>
    <path d="M 118.068928 121.008139 
L 118.048414 121.076893 
L 118.080796 121.208385 
L 118.163449 121.391965 
L 118.289677 121.612758 
L 118.449255 121.852878 
L 118.629255 122.092872 
L 118.815093 122.313297 
L 118.991715 122.496295 
L 119.144811 122.627041 
L 119.261979 122.694942 
L 119.333726 122.694498 
L 142.350211 105.421235 
L 142.439167 105.301575 
L 142.470091 105.123846 
L 142.440479 104.902445 
L 142.35273 104.655309 
L 142.213953 104.402459 
L 142.03539 104.164381 
L 141.831508 103.960361 
L 141.618824 103.806928 
L 141.414568 103.716513 
L 141.235289 103.69644 
L 141.095509 103.748335 
z
" clip-path="url(#pa6e5698174)" style="fill: #262626; stroke: #262626"/>
    <path d="M 131.678778 61.297647 
L 146.543299 100.969376 
L 113.249525 125.940261 
L 77.611128 101.188769 
L 89.340029 61.234973 
z
" clip-path="url(#pa6e5698174)" style="fill: #7d7d7d; fill-opacity: 0.05; stroke: #262626"/>
    <path d="M 138.61554 61.297647 
L 138.589144 60.693069 
L 138.510155 60.093091 
L 138.379176 59.502281 
L 138.197202 58.925135 
L 137.96562 58.366045 
L 137.68619 57.829266 
L 137.361041 57.318884 
L 136.992646 56.838782 
L 136.58381 56.392615 
L 136.137643 55.983779 
L 135.657541 55.615384 
L 135.147159 55.290235 
L 134.61038 55.010805 
L 134.05129 54.779223 
L 133.474144 54.597249 
L 132.883334 54.46627 
L 132.283357 54.387281 
L 131.678778 54.360885 
L 131.074199 54.387281 
L 130.474222 54.46627 
L 129.883412 54.597249 
L 129.306265 54.779223 
L 128.747175 55.010805 
L 128.210397 55.290235 
L 127.700014 55.615384 
L 127.219913 55.983779 
L 126.773746 56.392615 
L 126.36491 56.838782 
L 125.996515 57.318884 
L 125.671365 57.829266 
L 125.391936 58.366045 
L 125.160353 58.925135 
L 124.97838 59.502281 
L 124.8474 60.093091 
L 124.768412 60.693069 
L 124.742015 61.297647 
L 124.768412 61.902226 
L 124.8474 62.502203 
L 124.97838 63.093013 
L 125.160353 63.67016 
L 125.391936 64.22925 
L 125.671365 64.766028 
L 125.996515 65.276411 
L 126.36491 65.756512 
L 126.773746 66.202679 
L 127.219913 66.611516 
L 127.700014 66.97991 
L 128.210397 67.30506 
L 128.747175 67.584489 
L 129.306265 67.816072 
L 129.883412 67.998045 
L 130.474222 68.129025 
L 131.074199 68.208013 
L 131.678778 68.23441 
L 132.283357 68.208013 
L 132.883334 68.129025 
L 133.474144 67.998045 
L 134.05129 67.816072 
L 134.61038 67.584489 
L 135.147159 67.30506 
L 135.657541 66.97991 
L 136.137643 66.611516 
L 136.58381 66.202679 
L 136.992646 65.756512 
L 137.361041 65.276411 
L 137.68619 64.766028 
L 137.96562 64.22925 
L 138.197202 63.67016 
L 138.379176 63.093013 
L 138.510155 62.502203 
L 138.589144 61.902226 
L 138.61554 61.297647 
z
" clip-path="url(#pa6e5698174)" style="fill: #5c126e; stroke: #262626"/>
    <path d="M 153.513768 100.969376 
L 153.487243 100.36186 
L 153.407871 99.758967 
L 153.276255 99.165286 
L 153.093397 98.585335 
L 152.860689 98.023528 
L 152.579902 97.484141 
L 152.253173 96.971279 
L 151.882988 96.488845 
L 151.472165 96.04051 
L 151.02383 95.629687 
L 150.541395 95.259502 
L 150.028533 94.932772 
L 149.489146 94.651985 
L 148.927339 94.419277 
L 148.347389 94.23642 
L 147.753708 94.104804 
L 147.150815 94.025431 
L 146.543299 93.998907 
L 145.935782 94.025431 
L 145.332889 94.104804 
L 144.739208 94.23642 
L 144.159258 94.419277 
L 143.597451 94.651985 
L 143.058064 94.932772 
L 142.545202 95.259502 
L 142.062767 95.629687 
L 141.614432 96.04051 
L 141.203609 96.488845 
L 140.833424 96.971279 
L 140.506695 97.484141 
L 140.225908 98.023528 
L 139.9932 98.585335 
L 139.810342 99.165286 
L 139.678726 99.758967 
L 139.599354 100.36186 
L 139.572829 100.969376 
L 139.599354 101.576892 
L 139.678726 102.179785 
L 139.810342 102.773466 
L 139.9932 103.353417 
L 140.225908 103.915224 
L 140.506695 104.454611 
L 140.833424 104.967473 
L 141.203609 105.449907 
L 141.614432 105.898242 
L 142.062767 106.309065 
L 142.545202 106.67925 
L 143.058064 107.005979 
L 143.597451 107.286767 
L 144.159258 107.519475 
L 144.739208 107.702332 
L 145.332889 107.833948 
L 145.935782 107.913321 
L 146.543299 107.939845 
L 147.150815 107.913321 
L 147.753708 107.833948 
L 148.347389 107.702332 
L 148.927339 107.519475 
L 149.489146 107.286767 
L 150.028533 107.005979 
L 150.541395 106.67925 
L 151.02383 106.309065 
L 151.472165 105.898242 
L 151.882988 105.449907 
L 152.253173 104.967473 
L 152.579902 104.454611 
L 152.860689 103.915224 
L 153.093397 103.353417 
L 153.276255 102.773466 
L 153.407871 102.179785 
L 153.487243 101.576892 
L 153.513768 100.969376 
z
" clip-path="url(#pa6e5698174)" style="fill: #240c4f; stroke: #262626"/>
    <path d="M 96.31133 61.234973 
L 96.284802 60.627385 
L 96.20542 60.02442 
L 96.073788 59.430668 
L 95.890909 58.850648 
L 95.658173 58.288774 
L 95.377353 57.749323 
L 95.050584 57.2364 
L 94.680355 56.753908 
L 94.269483 56.305519 
L 93.821095 55.894647 
L 93.338603 55.524418 
L 92.825679 55.19765 
L 92.286228 54.916829 
L 91.724354 54.684094 
L 91.144334 54.501214 
L 90.550583 54.369582 
L 89.947618 54.290201 
L 89.340029 54.263673 
L 88.73244 54.290201 
L 88.129475 54.369582 
L 87.535724 54.501214 
L 86.955704 54.684094 
L 86.39383 54.916829 
L 85.854379 55.19765 
L 85.341455 55.524418 
L 84.858963 55.894647 
L 84.410575 56.305519 
L 83.999703 56.753908 
L 83.629474 57.2364 
L 83.302705 57.749323 
L 83.021885 58.288774 
L 82.789149 58.850648 
L 82.60627 59.430668 
L 82.474638 60.02442 
L 82.395256 60.627385 
L 82.368728 61.234973 
L 82.395256 61.842562 
L 82.474638 62.445527 
L 82.60627 63.039279 
L 82.789149 63.619299 
L 83.021885 64.181172 
L 83.302705 64.720624 
L 83.629474 65.233547 
L 83.999703 65.716039 
L 84.410575 66.164427 
L 84.858963 66.5753 
L 85.341455 66.945529 
L 85.854379 67.272297 
L 86.39383 67.553118 
L 86.955704 67.785853 
L 87.535724 67.968733 
L 88.129475 68.100364 
L 88.73244 68.179746 
L 89.340029 68.206274 
L 89.947618 68.179746 
L 90.550583 68.100364 
L 91.144334 67.968733 
L 91.724354 67.785853 
L 92.286228 67.553118 
L 92.825679 67.272297 
L 93.338603 66.945529 
L 93.821095 66.5753 
L 94.269483 66.164427 
L 94.680355 65.716039 
L 95.050584 65.233547 
L 95.377353 64.720624 
L 95.658173 64.181172 
L 95.890909 63.619299 
L 96.073788 63.039279 
L 96.20542 62.445527 
L 96.284802 61.842562 
L 96.31133 61.234973 
z
" clip-path="url(#pa6e5698174)" style="fill: #e45a31; stroke: #262626"/>
    <path d="M 120.276077 125.940261 
L 120.249339 125.327857 
L 120.169328 124.720113 
L 120.036653 124.121656 
L 119.852324 123.537039 
L 119.617744 122.970712 
L 119.334698 122.426985 
L 119.00534 121.909996 
L 118.632176 121.42368 
L 118.218048 120.971738 
L 117.766106 120.55761 
L 117.27979 120.184446 
L 116.762801 119.855088 
L 116.219074 119.572042 
L 115.652747 119.337462 
L 115.06813 119.153133 
L 114.469673 119.020458 
L 113.861929 118.940447 
L 113.249525 118.913709 
L 112.63712 118.940447 
L 112.029376 119.020458 
L 111.430919 119.153133 
L 110.846302 119.337462 
L 110.279975 119.572042 
L 109.736248 119.855088 
L 109.219259 120.184446 
L 108.732943 120.55761 
L 108.281001 120.971738 
L 107.866873 121.42368 
L 107.493709 121.909996 
L 107.164351 122.426985 
L 106.881305 122.970712 
L 106.646725 123.537039 
L 106.462396 124.121656 
L 106.329721 124.720113 
L 106.24971 125.327857 
L 106.222972 125.940261 
L 106.24971 126.552666 
L 106.329721 127.16041 
L 106.462396 127.758867 
L 106.646725 128.343484 
L 106.881305 128.909811 
L 107.164351 129.453538 
L 107.493709 129.970527 
L 107.866873 130.456843 
L 108.281001 130.908785 
L 108.732943 131.322913 
L 109.219259 131.696077 
L 109.736248 132.025435 
L 110.279975 132.308481 
L 110.846302 132.543061 
L 111.430919 132.72739 
L 112.029376 132.860065 
L 112.63712 132.940076 
L 113.249525 132.966814 
L 113.861929 132.940076 
L 114.469673 132.860065 
L 115.06813 132.72739 
L 115.652747 132.543061 
L 116.219074 132.308481 
L 116.762801 132.025435 
L 117.27979 131.696077 
L 117.766106 131.322913 
L 118.218048 130.908785 
L 118.632176 130.456843 
L 119.00534 129.970527 
L 119.334698 129.453538 
L 119.617744 128.909811 
L 119.852324 128.343484 
L 120.036653 127.758867 
L 120.169328 127.16041 
L 120.249339 126.552666 
L 120.276077 125.940261 
z
" clip-path="url(#pa6e5698174)" style="fill: #9d2964; stroke: #262626"/>
    <path d="M 53.866449 113.648655 
L 53.660948 113.814995 
L 53.513753 114.040324 
L 53.436787 114.306386 
L 53.436288 114.591626 
L 53.512294 114.872936 
L 53.658648 115.127527 
L 53.863495 115.334772 
L 54.110237 115.477881 
L 54.378886 115.545262 
L 54.647677 115.531455 
L 54.894835 115.437579 
L 74.685309 104.086531 
L 74.875033 103.928217 
L 75.006828 103.708695 
L 75.070017 103.445751 
L 75.05948 103.160686 
L 74.976072 102.876594 
L 74.826549 102.616492 
L 74.623025 102.401451 
L 74.381988 102.248893 
L 74.122965 102.171176 
L 73.866942 102.174597 
L 73.634659 102.258878 
z
" clip-path="url(#pa6e5698174)" style="fill: #262626; stroke: #262626"/>
    <path d="M 78.520175 94.35004 
L 78.545057 94.416864 
L 78.649859 94.502328 
L 78.826091 94.599508 
L 79.059476 94.70053 
L 79.331106 94.797212 
L 79.618975 94.881719 
L 79.899762 94.947206 
L 80.15072 94.988368 
L 80.351517 95.001869 
L 80.485885 94.986617 
L 80.54294 94.943846 
L 88.644699 67.315987 
L 88.644235 67.167188 
L 88.562523 67.006582 
L 88.406183 66.847179 
L 88.187879 66.701895 
L 87.925299 66.582497 
L 87.639715 66.498661 
L 87.354262 66.457177 
L 87.092067 66.461406 
L 86.874372 66.511006 
L 86.718812 66.601958 
L 86.63799 66.726894 
z
" clip-path="url(#pa6e5698174)" style="fill: #262626; stroke: #262626"/>
    <path d="M 107.034093 122.90678 
L 107.101997 122.901961 
L 107.213109 122.827399 
L 107.358425 122.689136 
L 107.526175 122.498374 
L 107.702766 122.270565 
L 107.873894 122.024167 
L 108.025695 121.779141 
L 108.145869 121.555336 
L 108.224683 121.370886 
L 108.25575 121.240732 
L 108.236553 121.17542 
L 83.833743 104.227144 
L 83.767447 104.233084 
L 83.65781 104.308681 
L 83.513715 104.44781 
L 83.346835 104.639199 
L 83.170689 104.867343 
L 82.999549 105.11376 
L 82.847278 105.358486 
L 82.726212 105.581694 
L 82.646161 105.765303 
L 82.613609 105.894436 
L 82.631193 105.958633 
z
" clip-path="url(#pa6e5698174)" style="fill: #262626; stroke: #262626"/>
    <path d="M 84.638203 101.188769 
L 84.611463 100.576319 
L 84.531446 99.96853 
L 84.398762 99.370028 
L 84.214419 98.785368 
L 83.979821 98.218999 
L 83.696754 97.675232 
L 83.367371 97.158205 
L 82.99418 96.671852 
L 82.580021 96.219877 
L 82.128045 95.805717 
L 81.641693 95.432526 
L 81.124666 95.103144 
L 80.580899 94.820076 
L 80.01453 94.585479 
L 79.429869 94.401136 
L 78.831367 94.268451 
L 78.223578 94.188434 
L 77.611128 94.161694 
L 76.998678 94.188434 
L 76.39089 94.268451 
L 75.792388 94.401136 
L 75.207727 94.585479 
L 74.641358 94.820076 
L 74.097591 95.103144 
L 73.580564 95.432526 
L 73.094212 95.805717 
L 72.642236 96.219877 
L 72.228077 96.671852 
L 71.854886 97.158205 
L 71.525503 97.675232 
L 71.242436 98.218999 
L 71.007838 98.785368 
L 70.823495 99.370028 
L 70.69081 99.96853 
L 70.610794 100.576319 
L 70.584053 101.188769 
L 70.610794 101.801219 
L 70.69081 102.409008 
L 70.823495 103.00751 
L 71.007838 103.59217 
L 71.242436 104.158539 
L 71.525503 104.702307 
L 71.854886 105.219334 
L 72.228077 105.705686 
L 72.642236 106.157662 
L 73.094212 106.571821 
L 73.580564 106.945012 
L 74.097591 107.274395 
L 74.641358 107.557462 
L 75.207727 107.79206 
L 75.792388 107.976402 
L 76.39089 108.109087 
L 76.998678 108.189104 
L 77.611128 108.215844 
L 78.223578 108.189104 
L 78.831367 108.109087 
L 79.429869 107.976402 
L 80.01453 107.79206 
L 80.580899 107.557462 
L 81.124666 107.274395 
L 81.641693 106.945012 
L 82.128045 106.571821 
L 82.580021 106.157662 
L 82.99418 105.705686 
L 83.367371 105.219334 
L 83.696754 104.702307 
L 83.979821 104.158539 
L 84.214419 103.59217 
L 84.398762 103.00751 
L 84.531446 102.409008 
L 84.611463 101.801219 
L 84.638203 101.188769 
z
" clip-path="url(#pa6e5698174)" style="fill: #f78410; stroke: #262626"/>
   </g>
  </g>
 </g>
 <defs>
  <clipPath id="pa6e5698174">
   <rect x="7.2" y="7.2" width="194.4" height="188.850985"/>
  </clipPath>
 </defs>
</svg>
