<?xml version="1.0" encoding="utf-8" standalone="no"?>
<!DOCTYPE svg PUBLIC "-//W3C//DTD SVG 1.1//EN"
  "http://www.w3.org/Graphics/SVG/1.1/DTD/svg11.dtd">
<svg xmlns:xlink="http://www.w3.org/1999/xlink" width="280.8pt" height="280.8pt" viewBox="0 0 280.8 280.8" xmlns="http://www.w3.org/2000/svg" version="1.1">
 <metadata>
  <rdf:RDF xmlns:dc="http://purl.org/dc/elements/1.1/" xmlns:cc="http://creativecommons.org/ns#" xmlns:rdf="http://www.w3.org/1999/02/22-rdf-syntax-ns#">
   <cc:Work>
    <dc:type rdf:resource="http://purl.org/dc/dcmitype/StillImage"/>
    <dc:date>2026-02-18T12:13:58.976538</dc:date>
    <dc:format>image/svg+xml</dc:format>
    <dc:creator>
     <cc:Agent>
      <dc:title>Matplotlib v3.10.7, https://matplotlib.org/</dc:title>
     </cc:Agent>
    </dc:creator>
   </cc:Work>
  </rdf:RDF>
 </metadata>
 <defs>
  <style type="text/css">*{stroke-linejoin: round; stroke-linecap: butt}</style>
 </defs>
 <g id="figure_1">
  <g id="patch_1">
   <path d="M 0 280.8 
L 280.8 280.8 
L 280.8 0 
L 0 0 
z
" style="fill: #ffffff"/>
  </g>
  <g id="axes_1">
   <g id="PolyCollection_1">
    <path d="M 215.905085 198.345763 
L 215.838266 196.815367 
L 215.638319 195.296618 
L 215.306765 193.801076 
L 214.846128 192.340121 
L 214.259913 190.924873 
L 213.552582 189.566102 
L 212.729517 188.274149 
L 211.796984 187.058848 
L 210.762078 185.929447 
L 209.632677 184.894542 
L 208.417376 183.962008 
L 207.125424 183.138944 
L 205.766653 182.431612 
L 204.351405 181.845397 
L 202.89045 181.38476 
L 201.394907 181.053206 
L 199.876158 180.853259 
L 198.345763 180.786441 
L 196.815367 180.853259 
L 195.296618 181.053206 
L 193.801076 181.38476 
L 192.340121 181.845397 
L 190.924873 182.431612 
L 189.566102 183.138944 
L 188.274149 183.962008 
L 187.058848 184.894542 
L 185.929447 185.929447 
L 184.894542 187.058848 
L 183.962008 188.274149 
L 183.138944 189.566102 
L 182.431612 190.924873 
L 181.845397 192.340121 
L 181.38476 193.801076 
L 181.053206 195.296618 
L 180.853259 196.815367 
L 180.786441 198.345763 
L 180.853259 199.876158 
L 181.053206 201.394907 
L 181.38476 202.89045 
L 181.845397 204.351405 
L 182.431612 205.766653 
L 183.138944 207.125424 
L 183.962008 208.417376 
L 184.894542 209.632677 
L 185.929447 210.762078 
L 187.058848 211.796984 
L 188.274149 212.729517 
L 189.566102 213.552582 
L 190.924873 214.259913 
L 192.340121 214.846128 
L 193.801076 215.306765 
L 195.296618 215.638319 
L 196.815367 215.838266 
L 198.345763 215.905085 
L 199.876158 215.838266 
L 201.394907 215.638319 
L 202.89045 215.306765 
L 204.351405 214.846128 
L 205.766653 214.259913 
L 207.125424 213.552582 
L 208.417376 212.729517 
L 209.632677 211.796984 
L 210.762078 210.762078 
L 211.796984 209.632677 
L 212.729517 208.417376 
L 213.552582 207.125424 
L 214.259913 205.766653 
L 214.846128 204.351405 
L 215.306765 202.89045 
L 215.638319 201.394907 
L 215.838266 199.876158 
L 215.905085 198.345763 
z
" clip-path="url(#pc68bcee411)" style="fill: #ffffff; stroke: #262626"/>
    <path d="M 100.013559 82.454237 
L 99.946741 80.923842 
L 99.746794 79.405093 
L 99.41524 77.90955 
L 98.954603 76.448595 
L 98.368388 75.033347 
L 97.661056 73.674576 
L 96.837992 72.382624 
L 95.905458 71.167323 
L 94.870553 70.037922 
L 93.741152 69.003016 
L 92.525851 68.070483 
L 91.233898 67.247418 
L 89.875127 66.540087 
L 88.459879 65.953872 
L 86.998924 65.493235 
L 85.503382 65.161681 
L 83.984633 64.961734 
L 82.454237 64.894915 
L 80.923842 64.961734 
L 79.405093 65.161681 
L 77.90955 65.493235 
L 76.448595 65.953872 
L 75.033347 66.540087 
L 73.674576 67.247418 
L 72.382624 68.070483 
L 71.167323 69.003016 
L 70.037922 70.037922 
L 69.003016 71.167323 
L 68.070483 72.382624 
L 67.247418 73.674576 
L 66.540087 75.033347 
L 65.953872 76.448595 
L 65.493235 77.90955 
L 65.161681 79.405093 
L 64.961734 80.923842 
L 64.894915 82.454237 
L 64.961734 83.984633 
L 65.161681 85.503382 
L 65.493235 86.998924 
L 65.953872 88.459879 
L 66.540087 89.875127 
L 67.247418 91.233898 
L 68.070483 92.525851 
L 69.003016 93.741152 
L 70.037922 94.870553 
L 71.167323 95.905458 
L 72.382624 96.837992 
L 73.674576 97.661056 
L 75.033347 98.368388 
L 76.448595 98.954603 
L 77.90955 99.41524 
L 79.405093 99.746794 
L 80.923842 99.946741 
L 82.454237 100.013559 
L 83.984633 99.946741 
L 85.503382 99.746794 
L 86.998924 99.41524 
L 88.459879 98.954603 
L 89.875127 98.368388 
L 91.233898 97.661056 
L 92.525851 96.837992 
L 93.741152 95.905458 
L 94.870553 94.870553 
L 95.905458 93.741152 
L 96.837992 92.525851 
L 97.661056 91.233898 
L 98.368388 89.875127 
L 98.954603 88.459879 
L 99.41524 86.998924 
L 99.746794 85.503382 
L 99.946741 83.984633 
L 100.013559 82.454237 
z
" clip-path="url(#pc68bcee411)" style="fill: #ffffff; stroke: #262626"/>
    <path d="M 158.401154 150.667563 
L 157.615555 150.195229 
L 156.580336 150.074425 
L 155.379363 150.314938 
L 154.109934 150.897284 
L 152.874889 151.774284 
L 151.774284 152.874889 
L 150.897284 154.109934 
L 150.314938 155.379363 
L 150.074425 156.580336 
L 150.195229 157.615555 
L 150.667563 158.401154 
L 167.756412 175.490002 
L 175.490002 167.756412 
z
" clip-path="url(#pc68bcee411)" style="fill: #b2b2b2; stroke: #262626"/>
    <path d="M 175.490002 167.756412 
L 167.756412 175.490002 
L 184.84526 192.578851 
L 185.630861 193.051187 
L 186.666081 193.171992 
L 187.867055 192.93148 
L 189.136485 192.349135 
L 190.37153 191.472135 
L 191.472135 190.37153 
L 192.349135 189.136485 
L 192.93148 187.867055 
L 193.171992 186.666081 
L 193.051187 185.630861 
L 192.578851 184.84526 
z
" clip-path="url(#pc68bcee411)" style="fill: #ffffff; stroke: #262626"/>
    <path d="M 122.398846 130.132437 
L 123.184445 130.604771 
L 124.219664 130.725575 
L 125.420637 130.485062 
L 126.690066 129.902716 
L 127.925111 129.025716 
L 129.025716 127.925111 
L 129.902716 126.690066 
L 130.485062 125.420637 
L 130.725575 124.219664 
L 130.604771 123.184445 
L 130.132437 122.398846 
L 113.043588 105.309998 
L 105.309998 113.043588 
z
" clip-path="url(#pc68bcee411)" style="fill: #b2b2b2; stroke: #262626"/>
    <path d="M 105.309998 113.043588 
L 113.043588 105.309998 
L 95.95474 88.221149 
L 95.169139 87.748813 
L 94.133919 87.628008 
L 92.932945 87.86852 
L 91.663515 88.450865 
L 90.42847 89.327865 
L 89.327865 90.42847 
L 88.450865 91.663515 
L 87.86852 92.932945 
L 87.628008 94.133919 
L 87.748813 95.169139 
L 88.221149 95.95474 
z
" clip-path="url(#pc68bcee411)" style="fill: #ffffff; stroke: #262626"/>
    <path d="M 165.484746 140.4 
L 165.389291 138.21372 
L 165.103652 136.04408 
L 164.630004 133.90759 
L 163.97195 131.820512 
L 163.1345 129.798728 
L 162.124027 127.857627 
L 160.948221 126.011981 
L 159.61603 124.275836 
L 158.137594 122.662406 
L 156.524164 121.18397 
L 154.788019 119.851779 
L 152.942373 118.675973 
L 151.001272 117.6655 
L 148.979488 116.82805 
L 146.89241 116.169996 
L 144.75592 115.696348 
L 142.58628 115.410709 
L 140.4 115.315254 
L 138.21372 115.410709 
L 136.04408 115.696348 
L 133.90759 116.169996 
L 131.820512 116.82805 
L 129.798728 117.6655 
L 127.857627 118.675973 
L 126.011981 119.851779 
L 124.275836 121.18397 
L 122.662406 122.662406 
L 121.18397 124.275836 
L 119.851779 126.011981 
L 118.675973 127.857627 
L 117.6655 129.798728 
L 116.82805 131.820512 
L 116.169996 133.90759 
L 115.696348 136.04408 
L 115.410709 138.21372 
L 115.315254 140.4 
L 115.410709 142.58628 
L 115.696348 144.75592 
L 116.169996 146.89241 
L 116.82805 148.979488 
L 117.6655 151.001272 
L 118.675973 152.942373 
L 119.851779 154.788019 
L 121.18397 156.524164 
L 122.662406 158.137594 
L 124.275836 159.61603 
L 126.011981 160.948221 
L 127.857627 162.124027 
L 129.798728 163.1345 
L 131.820512 163.97195 
L 133.90759 164.630004 
L 136.04408 165.103652 
L 138.21372 165.389291 
L 140.4 165.484746 
L 142.58628 165.389291 
L 144.75592 165.103652 
L 146.89241 164.630004 
L 148.979488 163.97195 
L 151.001272 163.1345 
L 152.942373 162.124027 
L 154.788019 160.948221 
L 156.524164 159.61603 
L 158.137594 158.137594 
L 159.61603 156.524164 
L 160.948221 154.788019 
L 162.124027 152.942373 
L 163.1345 151.001272 
L 163.97195 148.979488 
L 164.630004 146.89241 
L 165.103652 144.75592 
L 165.389291 142.58628 
L 165.484746 140.4 
z
" clip-path="url(#pc68bcee411)" style="fill: #b2b2b2; stroke: #262626"/>
    <path d="M 150.667563 122.398846 
L 150.195229 123.184445 
L 150.074425 124.219664 
L 150.314938 125.420637 
L 150.897284 126.690066 
L 151.774284 127.925111 
L 152.874889 129.025716 
L 154.109934 129.902716 
L 155.379363 130.485062 
L 156.580336 130.725575 
L 157.615555 130.604771 
L 158.401154 130.132437 
L 175.489991 113.0436 
L 167.7564 105.310009 
z
" clip-path="url(#pc68bcee411)" style="fill: #b2b2b2; stroke: #262626"/>
    <path d="M 167.7564 105.310009 
L 175.489991 113.0436 
L 192.578829 95.954762 
L 193.051162 95.169164 
L 193.171964 94.133947 
L 192.931449 92.932976 
L 192.349103 91.663547 
L 191.472103 90.428502 
L 190.371498 89.327897 
L 189.136453 88.450897 
L 187.867024 87.868551 
L 186.666053 87.628036 
L 185.630836 87.748838 
L 184.845238 88.221171 
z
" clip-path="url(#pc68bcee411)" style="fill: #ffffff; stroke: #262626"/>
    <path d="M 215.905085 82.454237 
L 215.838266 80.923842 
L 215.638319 79.405093 
L 215.306765 77.90955 
L 214.846128 76.448595 
L 214.259913 75.033347 
L 213.552582 73.674576 
L 212.729517 72.382624 
L 211.796984 71.167323 
L 210.762078 70.037922 
L 209.632677 69.003016 
L 208.417376 68.070483 
L 207.125424 67.247418 
L 205.766653 66.540087 
L 204.351405 65.953872 
L 202.89045 65.493235 
L 201.394907 65.161681 
L 199.876158 64.961734 
L 198.345763 64.894915 
L 196.815367 64.961734 
L 195.296618 65.161681 
L 193.801076 65.493235 
L 192.340121 65.953872 
L 190.924873 66.540087 
L 189.566102 67.247418 
L 188.274149 68.070483 
L 187.058848 69.003016 
L 185.929447 70.037922 
L 184.894542 71.167323 
L 183.962008 72.382624 
L 183.138944 73.674576 
L 182.431612 75.033347 
L 181.845397 76.448595 
L 181.38476 77.90955 
L 181.053206 79.405093 
L 180.853259 80.923842 
L 180.786441 82.454237 
L 180.853259 83.984633 
L 181.053206 85.503382 
L 181.38476 86.998924 
L 181.845397 88.459879 
L 182.431612 89.875127 
L 183.138944 91.233898 
L 183.962008 92.525851 
L 184.894542 93.741152 
L 185.929447 94.870553 
L 187.058848 95.905458 
L 188.274149 96.837992 
L 189.566102 97.661056 
L 190.924873 98.368388 
L 192.340121 98.954603 
L 193.801076 99.41524 
L 195.296618 99.746794 
L 196.815367 99.946741 
L 198.345763 100.013559 
L 199.876158 99.946741 
L 201.394907 99.746794 
L 202.89045 99.41524 
L 204.351405 98.954603 
L 205.766653 98.368388 
L 207.125424 97.661056 
L 208.417376 96.837992 
L 209.632677 95.905458 
L 210.762078 94.870553 
L 211.796984 93.741152 
L 212.729517 92.525851 
L 213.552582 91.233898 
L 214.259913 89.875127 
L 214.846128 88.459879 
L 215.306765 86.998924 
L 215.638319 85.503382 
L 215.838266 83.984633 
L 215.905085 82.454237 
z
" clip-path="url(#pc68bcee411)" style="fill: #ffffff; stroke: #262626"/>
    <path d="M 130.132437 158.401154 
L 130.604771 157.615555 
L 130.725575 156.580336 
L 130.485062 155.379363 
L 129.902716 154.109934 
L 129.025716 152.874889 
L 127.925111 151.774284 
L 126.690066 150.897284 
L 125.420637 150.314938 
L 124.219664 150.074425 
L 123.184445 150.195229 
L 122.398846 150.667563 
L 105.310009 167.7564 
L 113.0436 175.489991 
z
" clip-path="url(#pc68bcee411)" style="fill: #b2b2b2; stroke: #262626"/>
    <path d="M 113.0436 175.489991 
L 105.310009 167.7564 
L 88.221171 184.845238 
L 87.748838 185.630836 
L 87.628036 186.666053 
L 87.868551 187.867024 
L 88.450897 189.136453 
L 89.327897 190.371498 
L 90.428502 191.472103 
L 91.663547 192.349103 
L 92.932976 192.931449 
L 94.133947 193.171964 
L 95.169164 193.051162 
L 95.954762 192.578829 
z
" clip-path="url(#pc68bcee411)" style="fill: #ffffff; stroke: #262626"/>
    <path d="M 100.013559 198.345763 
L 99.946741 196.815367 
L 99.746794 195.296618 
L 99.41524 193.801076 
L 98.954603 192.340121 
L 98.368388 190.924873 
L 97.661056 189.566102 
L 96.837992 188.274149 
L 95.905458 187.058848 
L 94.870553 185.929447 
L 93.741152 184.894542 
L 92.525851 183.962008 
L 91.233898 183.138944 
L 89.875127 182.431612 
L 88.459879 181.845397 
L 86.998924 181.38476 
L 85.503382 181.053206 
L 83.984633 180.853259 
L 82.454237 180.786441 
L 80.923842 180.853259 
L 79.405093 181.053206 
L 77.90955 181.38476 
L 76.448595 181.845397 
L 75.033347 182.431612 
L 73.674576 183.138944 
L 72.382624 183.962008 
L 71.167323 184.894542 
L 70.037922 185.929447 
L 69.003016 187.058848 
L 68.070483 188.274149 
L 67.247418 189.566102 
L 66.540087 190.924873 
L 65.953872 192.340121 
L 65.493235 193.801076 
L 65.161681 195.296618 
L 64.961734 196.815367 
L 64.894915 198.345763 
L 64.961734 199.876158 
L 65.161681 201.394907 
L 65.493235 202.89045 
L 65.953872 204.351405 
L 66.540087 205.766653 
L 67.247418 207.125424 
L 68.070483 208.417376 
L 69.003016 209.632677 
L 70.037922 210.762078 
L 71.167323 211.796984 
L 72.382624 212.729517 
L 73.674576 213.552582 
L 75.033347 214.259913 
L 76.448595 214.846128 
L 77.90955 215.306765 
L 79.405093 215.638319 
L 80.923842 215.838266 
L 82.454237 215.905085 
L 83.984633 215.838266 
L 85.503382 215.638319 
L 86.998924 215.306765 
L 88.459879 214.846128 
L 89.875127 214.259913 
L 91.233898 213.552582 
L 92.525851 212.729517 
L 93.741152 211.796984 
L 94.870553 210.762078 
L 95.905458 209.632677 
L 96.837992 208.417376 
L 97.661056 207.125424 
L 98.368388 205.766653 
L 98.954603 204.351405 
L 99.41524 202.89045 
L 99.746794 201.394907 
L 99.946741 199.876158 
L 100.013559 198.345763 
z
" clip-path="url(#pc68bcee411)" style="fill: #ffffff; stroke: #262626"/>
   </g>
   <g id="text_1">
    <path d="M 135.486562 19.5495 
L 136.542187 19.5495 
Q 136.482187 18.996375 136.253437 18.595125 
Q 136.026562 18.192 135.672187 17.9295 
Q 135.317812 17.665125 134.856562 17.5395 
Q 134.395312 17.412 133.866562 17.412 
Q 133.135312 17.412 132.582187 17.67075 
Q 132.030937 17.9295 131.663437 18.3795 
Q 131.297812 18.8295 131.117812 19.435125 
Q 130.937812 20.04075 130.937812 20.736375 
Q 130.937812 21.432 131.123437 22.015125 
Q 131.310937 22.596375 131.676562 23.016375 
Q 132.042187 23.436375 132.587812 23.665125 
Q 133.135312 23.892 133.842187 23.892 
Q 135.030937 23.892 135.720937 23.2695 
Q 136.410937 22.645125 136.577812 21.492 
L 135.535312 21.492 
Q 135.437812 22.212 135.012187 22.6095 
Q 134.586562 23.005125 133.830937 23.005125 
Q 133.350937 23.005125 133.002187 22.813875 
Q 132.655312 22.62075 132.437812 22.303875 
Q 132.222187 21.985125 132.119062 21.57825 
Q 132.017812 21.1695 132.017812 20.736375 
Q 132.017812 20.2695 132.113437 19.83075 
Q 132.210937 19.392 132.432187 19.056375 
Q 132.655312 18.72075 133.026562 18.516375 
Q 133.397812 18.312 133.950937 18.312 
Q 134.597812 18.312 134.982187 18.636375 
Q 135.366562 18.96075 135.486562 19.5495 
z
M 137.719312 15.192 
L 137.719312 23.76075 
L 138.739312 23.76075 
L 138.739312 20.256375 
Q 138.739312 19.836375 138.851812 19.483875 
Q 138.966187 19.1295 139.193062 18.865125 
Q 139.421812 18.60075 139.763062 18.456375 
Q 140.106187 18.312 140.574937 18.312 
Q 141.161812 18.312 141.497437 18.6495 
Q 141.834937 18.985125 141.834937 19.56075 
L 141.834937 23.76075 
L 142.854937 23.76075 
L 142.854937 19.68075 
Q 142.854937 19.176375 142.751812 18.763875 
Q 142.650562 18.3495 142.397437 18.0495 
Q 142.146187 17.7495 141.737437 17.58075 
Q 141.330562 17.412 140.719312 17.412 
Q 140.441812 17.412 140.147437 17.472 
Q 139.854937 17.532 139.584937 17.6595 
Q 139.314937 17.785125 139.097437 17.983875 
Q 138.881812 18.18075 138.761812 18.4695 
L 138.739312 18.4695 
L 138.739312 15.192 
L 137.719312 15.192 
z
M 147.691311 20.8695 
L 144.833811 20.8695 
L 147.666936 16.705125 
L 147.691311 16.705125 
L 147.691311 20.8695 
z
M 148.651311 20.8695 
L 148.651311 15.252 
L 147.833811 15.252 
L 143.958186 20.785125 
L 143.958186 21.7695 
L 147.691311 21.7695 
L 147.691311 23.76075 
L 148.651311 23.76075 
L 148.651311 21.7695 
L 149.802561 21.7695 
L 149.802561 20.8695 
L 148.651311 20.8695 
z
" style="stroke: #ffffff; stroke-width: 3"/>
    <path d="M 135.486562 19.5495 
L 136.542187 19.5495 
Q 136.482187 18.996375 136.253437 18.595125 
Q 136.026562 18.192 135.672187 17.9295 
Q 135.317812 17.665125 134.856562 17.5395 
Q 134.395312 17.412 133.866562 17.412 
Q 133.135312 17.412 132.582187 17.67075 
Q 132.030937 17.9295 131.663437 18.3795 
Q 131.297812 18.8295 131.117812 19.435125 
Q 130.937812 20.04075 130.937812 20.736375 
Q 130.937812 21.432 131.123437 22.015125 
Q 131.310937 22.596375 131.676562 23.016375 
Q 132.042187 23.436375 132.587812 23.665125 
Q 133.135312 23.892 133.842187 23.892 
Q 135.030937 23.892 135.720937 23.2695 
Q 136.410937 22.645125 136.577812 21.492 
L 135.535312 21.492 
Q 135.437812 22.212 135.012187 22.6095 
Q 134.586562 23.005125 133.830937 23.005125 
Q 133.350937 23.005125 133.002187 22.813875 
Q 132.655312 22.62075 132.437812 22.303875 
Q 132.222187 21.985125 132.119062 21.57825 
Q 132.017812 21.1695 132.017812 20.736375 
Q 132.017812 20.2695 132.113437 19.83075 
Q 132.210937 19.392 132.432187 19.056375 
Q 132.655312 18.72075 133.026562 18.516375 
Q 133.397812 18.312 133.950937 18.312 
Q 134.597812 18.312 134.982187 18.636375 
Q 135.366562 18.96075 135.486562 19.5495 
z
M 137.719312 15.192 
L 137.719312 23.76075 
L 138.739312 23.76075 
L 138.739312 20.256375 
Q 138.739312 19.836375 138.851812 19.483875 
Q 138.966187 19.1295 139.193062 18.865125 
Q 139.421812 18.60075 139.763062 18.456375 
Q 140.106187 18.312 140.574937 18.312 
Q 141.161812 18.312 141.497437 18.6495 
Q 141.834937 18.985125 141.834937 19.56075 
L 141.834937 23.76075 
L 142.854937 23.76075 
L 142.854937 19.68075 
Q 142.854937 19.176375 142.751812 18.763875 
Q 142.650562 18.3495 142.397437 18.0495 
Q 142.146187 17.7495 141.737437 17.58075 
Q 141.330562 17.412 140.719312 17.412 
Q 140.441812 17.412 140.147437 17.472 
Q 139.854937 17.532 139.584937 17.6595 
Q 139.314937 17.785125 139.097437 17.983875 
Q 138.881812 18.18075 138.761812 18.4695 
L 138.739312 18.4695 
L 138.739312 15.192 
L 137.719312 15.192 
z
M 147.691311 20.8695 
L 144.833811 20.8695 
L 147.666936 16.705125 
L 147.691311 16.705125 
L 147.691311 20.8695 
z
M 148.651311 20.8695 
L 148.651311 15.252 
L 147.833811 15.252 
L 143.958186 20.785125 
L 143.958186 21.7695 
L 147.691311 21.7695 
L 147.691311 23.76075 
L 148.651311 23.76075 
L 148.651311 21.7695 
L 149.802561 21.7695 
L 149.802561 20.8695 
L 148.651311 20.8695 
z
"/>
   </g>
  </g>
 </g>
 <defs>
  <clipPath id="pc68bcee411">
   <rect x="7.2" y="7.2" width="266.4" height="266.4"/>
  </clipPath>
 </defs>
</svg>
