<?xml version="1.0" encoding="utf-8" standalone="no"?>
<!DOCTYPE svg PUBLIC "-//W3C//DTD SVG 1.1//EN"
  "http://www.w3.org/Graphics/SVG/1.1/DTD/svg11.dtd">
<svg xmlns:xlink="http://www.w3.org/1999/xlink" width="266.16pt" height="280.72875pt" viewBox="0 0 266.16 280.72875" xmlns="http://www.w3.org/2000/svg" version="1.1">
 <metadata>
  <rdf:RDF xmlns:dc="http://purl.org/dc/elements/1.1/" xmlns:cc="http://creativecommons.org/ns#" xmlns:rdf="http://www.w3.org/1999/02/22-rdf-syntax-ns#">
   <cc:Work>
    <dc:type rdf:resource="http://purl.org/dc/dcmitype/StillImage"/>
    <dc:date>2026-02-16T06:27:52.450950</dc:date>
    <dc:format>image/svg+xml</dc:format>
    <dc:creator>
     <cc:Agent>
      <dc:title>Matplotlib v3.10.7, https://matplotlib.org/</dc:title>
     </cc:Agent>
    </dc:creator>
   </cc:Work>
  </rdf:RDF>
 </metadata>
 <defs>
  <style type="text/css">*{stroke-linejoin: round; stroke-linecap: butt}</style>
 </defs>
 <g id="figure_1">
  <g id="patch_1">
   <path d="M 0 280.72875 
L 266.16 280.72875 
L 266.16 0 
L 0 0 
z
" style="fill: #ffffff"/>
  </g>
  <g id="axes_1">
   <g id="PolyCollection_1">
    <path d="M 204.435706 202.410106 
L 203.870267 198.115172 
L 202.212485 194.112931 
L 199.575334 190.676128 
L 196.138531 188.038977 
L 192.13629 186.381194 
L 187.841356 185.815756 
L 183.546422 186.381194 
L 179.544181 188.038977 
L 176.107378 190.676128 
L 173.470227 194.112931 
L 171.812444 198.115172 
L 171.247006 202.410106 
L 171.812444 206.70504 
L 173.470227 210.707281 
L 176.107378 214.144084 
L 179.544181 216.781235 
L 183.546422 218.439017 
L 187.841356 219.004456 
L 192.13629 218.439017 
L 196.138531 216.781235 
L 199.575334 214.144084 
L 202.212485 210.707281 
L 203.870267 206.70504 
L 204.435706 202.410106 
z
" clip-path="url(#pacca3cf336)" style="fill: #ffffff; stroke: #262626; stroke-width: 1.5"/>
    <path d="M 94.912994 92.887394 
L 94.347556 88.59246 
L 92.689773 84.590219 
L 90.052622 81.153416 
L 86.615819 78.516265 
L 82.613578 76.858483 
L 78.318644 76.293044 
L 74.02371 76.858483 
L 70.021469 78.516265 
L 66.584666 81.153416 
L 63.947515 84.590219 
L 62.289733 88.59246 
L 61.724294 92.887394 
L 62.289733 97.182328 
L 63.947515 101.184569 
L 66.584666 104.621372 
L 70.021469 107.258523 
L 74.02371 108.916306 
L 78.318644 109.481744 
L 82.613578 108.916306 
L 86.615819 107.258523 
L 90.052622 104.621372 
L 92.689773 101.184569 
L 94.347556 97.182328 
L 94.912994 92.887394 
z
" clip-path="url(#pacca3cf336)" style="fill: #ffffff; stroke: #262626; stroke-width: 1.5"/>
    <path d="M 150.091901 157.352059 
L 147.529723 156.930518 
L 144.327797 158.896547 
L 142.361768 162.098473 
L 142.783309 164.660651 
L 158.933041 180.810383 
L 166.241633 173.501791 
z
" clip-path="url(#pacca3cf336)" style="fill: #b2b2b2; stroke: #262626"/>
    <path d="M 166.241633 173.501791 
L 158.933041 180.810383 
L 175.082773 196.960115 
L 177.644955 197.38166 
L 180.846882 195.415632 
L 182.81291 192.213705 
L 182.391365 189.651523 
z
" clip-path="url(#pacca3cf336)" style="fill: #ffffff; stroke: #262626"/>
    <path d="M 116.068099 137.945441 
L 118.630277 138.366982 
L 121.832203 136.400953 
L 123.798232 133.199027 
L 123.376691 130.636849 
L 107.226959 114.487117 
L 99.918367 121.795709 
z
" clip-path="url(#pacca3cf336)" style="fill: #b2b2b2; stroke: #262626"/>
    <path d="M 99.918367 121.795709 
L 107.226959 114.487117 
L 91.077227 98.337385 
L 88.515045 97.91584 
L 85.313118 99.881868 
L 83.34709 103.083795 
L 83.768635 105.645977 
z
" clip-path="url(#pacca3cf336)" style="fill: #ffffff; stroke: #262626"/>
    <path d="M 156.786215 147.64875 
L 155.978445 141.51313 
L 153.610184 135.795643 
L 149.842825 130.885925 
L 144.933107 127.118566 
L 139.21562 124.750305 
L 133.08 123.942535 
L 126.94438 124.750305 
L 121.226893 127.118566 
L 116.317175 130.885925 
L 112.549816 135.795643 
L 110.181555 141.51313 
L 109.373785 147.64875 
L 110.181555 153.78437 
L 112.549816 159.501857 
L 116.317175 164.411575 
L 121.226893 168.178934 
L 126.94438 170.547195 
L 133.08 171.354965 
L 139.21562 170.547195 
L 144.933107 168.178934 
L 149.842825 164.411575 
L 153.610184 159.501857 
L 155.978445 153.78437 
L 156.786215 147.64875 
z
" clip-path="url(#pacca3cf336)" style="fill: #b2b2b2; stroke: #262626; stroke-width: 1.5"/>
    <path d="M 142.783309 130.636849 
L 142.361768 133.199027 
L 144.327797 136.400953 
L 147.529723 138.366982 
L 150.091901 137.945441 
L 166.241622 121.795719 
L 158.933031 114.487128 
z
" clip-path="url(#pacca3cf336)" style="fill: #b2b2b2; stroke: #262626"/>
    <path d="M 158.933031 114.487128 
L 166.241622 121.795719 
L 182.391344 105.645998 
L 182.812882 103.083823 
L 180.846852 99.881898 
L 177.644927 97.915868 
L 175.082752 98.337406 
z
" clip-path="url(#pacca3cf336)" style="fill: #ffffff; stroke: #262626"/>
    <path d="M 204.435706 92.887394 
L 203.870267 88.59246 
L 202.212485 84.590219 
L 199.575334 81.153416 
L 196.138531 78.516265 
L 192.13629 76.858483 
L 187.841356 76.293044 
L 183.546422 76.858483 
L 179.544181 78.516265 
L 176.107378 81.153416 
L 173.470227 84.590219 
L 171.812444 88.59246 
L 171.247006 92.887394 
L 171.812444 97.182328 
L 173.470227 101.184569 
L 176.107378 104.621372 
L 179.544181 107.258523 
L 183.546422 108.916306 
L 187.841356 109.481744 
L 192.13629 108.916306 
L 196.138531 107.258523 
L 199.575334 104.621372 
L 202.212485 101.184569 
L 203.870267 97.182328 
L 204.435706 92.887394 
z
" clip-path="url(#pacca3cf336)" style="fill: #ffffff; stroke: #262626; stroke-width: 1.5"/>
    <path d="M 123.376691 164.660651 
L 123.798232 162.098473 
L 121.832203 158.896547 
L 118.630277 156.930518 
L 116.068099 157.352059 
L 99.918378 173.501781 
L 107.226969 180.810372 
z
" clip-path="url(#pacca3cf336)" style="fill: #b2b2b2; stroke: #262626"/>
    <path d="M 107.226969 180.810372 
L 99.918378 173.501781 
L 83.768656 189.651502 
L 83.347118 192.213677 
L 85.313148 195.415602 
L 88.515073 197.381632 
L 91.077248 196.960094 
z
" clip-path="url(#pacca3cf336)" style="fill: #ffffff; stroke: #262626"/>
    <path d="M 94.912994 202.410106 
L 94.347556 198.115172 
L 92.689773 194.112931 
L 90.052622 190.676128 
L 86.615819 188.038977 
L 82.613578 186.381194 
L 78.318644 185.815756 
L 74.02371 186.381194 
L 70.021469 188.038977 
L 66.584666 190.676128 
L 63.947515 194.112931 
L 62.289733 198.115172 
L 61.724294 202.410106 
L 62.289733 206.70504 
L 63.947515 210.707281 
L 66.584666 214.144084 
L 70.021469 216.781235 
L 74.02371 218.439017 
L 78.318644 219.004456 
L 82.613578 218.439017 
L 86.615819 216.781235 
L 90.052622 214.144084 
L 92.689773 210.707281 
L 94.347556 206.70504 
L 94.912994 202.410106 
z
" clip-path="url(#pacca3cf336)" style="fill: #ffffff; stroke: #262626; stroke-width: 1.5"/>
   </g>
   <g id="text_1">
    <!-- ch4 -->
    <g transform="translate(123.186562 15.76875) scale(0.12 -0.12)">
     <defs>
      <path id="HelveticaNeue-63" d="M 2656 2246 
L 3219 2246 
Q 3187 2541 3065 2755 
Q 2944 2970 2755 3110 
Q 2566 3251 2320 3318 
Q 2074 3386 1792 3386 
Q 1402 3386 1107 3248 
Q 813 3110 617 2870 
Q 422 2630 326 2307 
Q 230 1984 230 1613 
Q 230 1242 329 931 
Q 429 621 624 397 
Q 819 173 1110 51 
Q 1402 -70 1779 -70 
Q 2413 -70 2781 262 
Q 3149 595 3238 1210 
L 2682 1210 
Q 2630 826 2403 614 
Q 2176 403 1773 403 
Q 1517 403 1331 505 
Q 1146 608 1030 777 
Q 915 947 860 1164 
Q 806 1382 806 1613 
Q 806 1862 857 2096 
Q 909 2330 1027 2509 
Q 1146 2688 1344 2797 
Q 1542 2906 1837 2906 
Q 2182 2906 2387 2733 
Q 2592 2560 2656 2246 
z
" transform="scale(0.015625)"/>
      <path id="HelveticaNeue-68" d="M 410 4570 
L 410 0 
L 954 0 
L 954 1869 
Q 954 2093 1014 2281 
Q 1075 2470 1196 2611 
Q 1318 2752 1500 2829 
Q 1683 2906 1933 2906 
Q 2246 2906 2425 2726 
Q 2605 2547 2605 2240 
L 2605 0 
L 3149 0 
L 3149 2176 
Q 3149 2445 3094 2665 
Q 3040 2886 2905 3046 
Q 2771 3206 2553 3296 
Q 2336 3386 2010 3386 
Q 1862 3386 1705 3354 
Q 1549 3322 1405 3254 
Q 1261 3187 1145 3081 
Q 1030 2976 966 2822 
L 954 2822 
L 954 4570 
L 410 4570 
z
" transform="scale(0.015625)"/>
      <path id="HelveticaNeue-34" d="M 2170 1542 
L 646 1542 
L 2157 3763 
L 2170 3763 
L 2170 1542 
z
M 2682 1542 
L 2682 4538 
L 2246 4538 
L 179 1587 
L 179 1062 
L 2170 1062 
L 2170 0 
L 2682 0 
L 2682 1062 
L 3296 1062 
L 3296 1542 
L 2682 1542 
z
" transform="scale(0.015625)"/>
     </defs>
     <use xlink:href="#HelveticaNeue-63"/>
     <use xlink:href="#HelveticaNeue-68" transform="translate(53.699997 0)"/>
     <use xlink:href="#HelveticaNeue-34" transform="translate(109.299988 0)"/>
    </g>
   </g>
  </g>
 </g>
 <defs>
  <clipPath id="pacca3cf336">
   <rect x="7.2" y="21.76875" width="251.76" height="251.76"/>
  </clipPath>
 </defs>
</svg>
