<?xml version="1.0" encoding="utf-8" standalone="no"?>
<!DOCTYPE svg PUBLIC "-//W3C//DTD SVG 1.1//EN"
  "http://www.w3.org/Graphics/SVG/1.1/DTD/svg11.dtd">
<svg xmlns:xlink="http://www.w3.org/1999/xlink" width="266.16pt" height="280.72875pt" viewBox="0 0 266.16 280.72875" xmlns="http://www.w3.org/2000/svg" version="1.1">
 <metadata>
  <rdf:RDF xmlns:dc="http://purl.org/dc/elements/1.1/" xmlns:cc="http://creativecommons.org/ns#" xmlns:rdf="http://www.w3.org/1999/02/22-rdf-syntax-ns#">
   <cc:Work>
    <dc:type rdf:resource="http://purl.org/dc/dcmitype/StillImage"/>
    <dc:date>2026-02-16T14:30:30.371040</dc:date>
    <dc:format>image/svg+xml</dc:format>
    <dc:creator>
     <cc:Agent>
      <dc:title>Matplotlib v3.10.7, https://matplotlib.org/</dc:title>
     </cc:Agent>
    </dc:creator>
   </cc:Work>
  </rdf:RDF>
 </metadata>
 <defs>
  <style type="text/css">*{stroke-linejoin: round; stroke-linecap: butt}</style>
 </defs>
 <g id="figure_1">
  <g id="patch_1">
   <path d="M 0 280.72875 
L 266.16 280.72875 
L 266.16 0 
L 0 0 
z
" style="fill: #ffffff"/>
  </g>
  <g id="axes_1">
   <g id="PolyCollection_1">
    <path d="M 204.435706 202.410106 
L 204.37256 200.963813 
L 204.183601 199.528527 
L 203.870267 198.115172 
L 203.434944 196.734504 
L 202.880945 195.39703 
L 202.212485 194.112931 
L 201.434652 192.891978 
L 200.553366 191.743463 
L 199.575334 190.676128 
L 198.507999 189.698096 
L 197.359484 188.81681 
L 196.138531 188.038977 
L 194.854431 187.370517 
L 193.516958 186.816517 
L 192.13629 186.381194 
L 190.722935 186.067861 
L 189.287649 185.878902 
L 187.841356 185.815756 
L 186.395063 185.878902 
L 184.959777 186.067861 
L 183.546422 186.381194 
L 182.165754 186.816517 
L 180.82828 187.370517 
L 179.544181 188.038977 
L 178.323228 188.81681 
L 177.174713 189.698096 
L 176.107378 190.676128 
L 175.129346 191.743463 
L 174.24806 192.891978 
L 173.470227 194.112931 
L 172.801767 195.39703 
L 172.247767 196.734504 
L 171.812444 198.115172 
L 171.499111 199.528527 
L 171.310152 200.963813 
L 171.247006 202.410106 
L 171.310152 203.856399 
L 171.499111 205.291685 
L 171.812444 206.70504 
L 172.247767 208.085708 
L 172.801767 209.423181 
L 173.470227 210.707281 
L 174.24806 211.928234 
L 175.129346 213.076749 
L 176.107378 214.144084 
L 177.174713 215.122116 
L 178.323228 216.003402 
L 179.544181 216.781235 
L 180.82828 217.449695 
L 182.165754 218.003694 
L 183.546422 218.439017 
L 184.959777 218.752351 
L 186.395063 218.94131 
L 187.841356 219.004456 
L 189.287649 218.94131 
L 190.722935 218.752351 
L 192.13629 218.439017 
L 193.516958 218.003694 
L 194.854431 217.449695 
L 196.138531 216.781235 
L 197.359484 216.003402 
L 198.507999 215.122116 
L 199.575334 214.144084 
L 200.553366 213.076749 
L 201.434652 211.928234 
L 202.212485 210.707281 
L 202.880945 209.423181 
L 203.434944 208.085708 
L 203.870267 206.70504 
L 204.183601 205.291685 
L 204.37256 203.856399 
L 204.435706 202.410106 
z
" clip-path="url(#p04f7b19188)" style="fill: #ffffff; stroke: #262626"/>
    <path d="M 94.912994 92.887394 
L 94.849848 91.441101 
L 94.660889 90.005815 
L 94.347556 88.59246 
L 93.912233 87.211792 
L 93.358233 85.874319 
L 92.689773 84.590219 
L 91.91194 83.369266 
L 91.030654 82.220751 
L 90.052622 81.153416 
L 88.985287 80.175384 
L 87.836772 79.294098 
L 86.615819 78.516265 
L 85.33172 77.847805 
L 83.994246 77.293806 
L 82.613578 76.858483 
L 81.200223 76.545149 
L 79.764937 76.35619 
L 78.318644 76.293044 
L 76.872351 76.35619 
L 75.437065 76.545149 
L 74.02371 76.858483 
L 72.643042 77.293806 
L 71.305569 77.847805 
L 70.021469 78.516265 
L 68.800516 79.294098 
L 67.652001 80.175384 
L 66.584666 81.153416 
L 65.606634 82.220751 
L 64.725348 83.369266 
L 63.947515 84.590219 
L 63.279055 85.874319 
L 62.725056 87.211792 
L 62.289733 88.59246 
L 61.976399 90.005815 
L 61.78744 91.441101 
L 61.724294 92.887394 
L 61.78744 94.333687 
L 61.976399 95.768973 
L 62.289733 97.182328 
L 62.725056 98.562996 
L 63.279055 99.90047 
L 63.947515 101.184569 
L 64.725348 102.405522 
L 65.606634 103.554037 
L 66.584666 104.621372 
L 67.652001 105.599404 
L 68.800516 106.48069 
L 70.021469 107.258523 
L 71.305569 107.926983 
L 72.643042 108.480983 
L 74.02371 108.916306 
L 75.437065 109.229639 
L 76.872351 109.418598 
L 78.318644 109.481744 
L 79.764937 109.418598 
L 81.200223 109.229639 
L 82.613578 108.916306 
L 83.994246 108.480983 
L 85.33172 107.926983 
L 86.615819 107.258523 
L 87.836772 106.48069 
L 88.985287 105.599404 
L 90.052622 104.621372 
L 91.030654 103.554037 
L 91.91194 102.405522 
L 92.689773 101.184569 
L 93.358233 99.90047 
L 93.912233 98.562996 
L 94.347556 97.182328 
L 94.660889 95.768973 
L 94.849848 94.333687 
L 94.912994 92.887394 
z
" clip-path="url(#p04f7b19188)" style="fill: #ffffff; stroke: #262626"/>
    <path d="M 150.091901 157.352059 
L 149.349475 156.905682 
L 148.371146 156.791517 
L 147.236173 157.018813 
L 146.036505 157.569156 
L 144.869332 158.397961 
L 143.829211 159.438082 
L 143.000406 160.605255 
L 142.450063 161.804923 
L 142.222767 162.939896 
L 142.336932 163.918225 
L 142.783309 164.660651 
L 158.933041 180.810383 
L 166.241633 173.501791 
z
" clip-path="url(#p04f7b19188)" style="fill: #b2b2b2; stroke: #262626"/>
    <path d="M 166.241633 173.501791 
L 158.933041 180.810383 
L 175.082773 196.960115 
L 175.825201 197.406493 
L 176.803531 197.52066 
L 177.938505 197.293364 
L 179.138173 196.743022 
L 180.305347 195.914218 
L 181.345468 194.874097 
L 182.174272 193.706923 
L 182.724614 192.507255 
L 182.95191 191.372281 
L 182.837743 190.393951 
L 182.391365 189.651523 
z
" clip-path="url(#p04f7b19188)" style="fill: #ffffff; stroke: #262626"/>
    <path d="M 116.068099 137.945441 
L 116.810525 138.391818 
L 117.788854 138.505983 
L 118.923827 138.278687 
L 120.123495 137.728344 
L 121.290668 136.899539 
L 122.330789 135.859418 
L 123.159594 134.692245 
L 123.709937 133.492577 
L 123.937233 132.357604 
L 123.823068 131.379275 
L 123.376691 130.636849 
L 107.226959 114.487117 
L 99.918367 121.795709 
z
" clip-path="url(#p04f7b19188)" style="fill: #b2b2b2; stroke: #262626"/>
    <path d="M 99.918367 121.795709 
L 107.226959 114.487117 
L 91.077227 98.337385 
L 90.334799 97.891007 
L 89.356469 97.77684 
L 88.221495 98.004136 
L 87.021827 98.554478 
L 85.854653 99.383282 
L 84.814532 100.423403 
L 83.985728 101.590577 
L 83.435386 102.790245 
L 83.20809 103.925219 
L 83.322257 104.903549 
L 83.768635 105.645977 
z
" clip-path="url(#p04f7b19188)" style="fill: #ffffff; stroke: #262626"/>
    <path d="M 156.786215 147.64875 
L 156.696005 145.582617 
L 156.426064 143.532209 
L 155.978445 141.51313 
L 155.356555 139.540747 
L 154.565127 137.630071 
L 153.610184 135.795643 
L 152.498994 134.051424 
L 151.240014 132.410689 
L 149.842825 130.885925 
L 148.318061 129.488736 
L 146.677326 128.229756 
L 144.933107 127.118566 
L 143.098679 126.163623 
L 141.188003 125.372195 
L 139.21562 124.750305 
L 137.196541 124.302686 
L 135.146133 124.032745 
L 133.08 123.942535 
L 131.013867 124.032745 
L 128.963459 124.302686 
L 126.94438 124.750305 
L 124.971997 125.372195 
L 123.061321 126.163623 
L 121.226893 127.118566 
L 119.482674 128.229756 
L 117.841939 129.488736 
L 116.317175 130.885925 
L 114.919986 132.410689 
L 113.661006 134.051424 
L 112.549816 135.795643 
L 111.594873 137.630071 
L 110.803445 139.540747 
L 110.181555 141.51313 
L 109.733936 143.532209 
L 109.463995 145.582617 
L 109.373785 147.64875 
L 109.463995 149.714883 
L 109.733936 151.765291 
L 110.181555 153.78437 
L 110.803445 155.756753 
L 111.594873 157.667429 
L 112.549816 159.501857 
L 113.661006 161.246076 
L 114.919986 162.886811 
L 116.317175 164.411575 
L 117.841939 165.808764 
L 119.482674 167.067744 
L 121.226893 168.178934 
L 123.061321 169.133877 
L 124.971997 169.925305 
L 126.94438 170.547195 
L 128.963459 170.994814 
L 131.013867 171.264755 
L 133.08 171.354965 
L 135.146133 171.264755 
L 137.196541 170.994814 
L 139.21562 170.547195 
L 141.188003 169.925305 
L 143.098679 169.133877 
L 144.933107 168.178934 
L 146.677326 167.067744 
L 148.318061 165.808764 
L 149.842825 164.411575 
L 151.240014 162.886811 
L 152.498994 161.246076 
L 153.610184 159.501857 
L 154.565127 157.667429 
L 155.356555 155.756753 
L 155.978445 153.78437 
L 156.426064 151.765291 
L 156.696005 149.714883 
L 156.786215 147.64875 
z
" clip-path="url(#p04f7b19188)" style="fill: #b2b2b2; stroke: #262626"/>
    <path d="M 142.783309 130.636849 
L 142.336932 131.379275 
L 142.222767 132.357604 
L 142.450063 133.492577 
L 143.000406 134.692245 
L 143.829211 135.859418 
L 144.869332 136.899539 
L 146.036505 137.728344 
L 147.236173 138.278687 
L 148.371146 138.505983 
L 149.349475 138.391818 
L 150.091901 137.945441 
L 166.241622 121.795719 
L 158.933031 114.487128 
z
" clip-path="url(#p04f7b19188)" style="fill: #b2b2b2; stroke: #262626"/>
    <path d="M 158.933031 114.487128 
L 166.241622 121.795719 
L 182.391344 105.645998 
L 182.837719 104.903573 
L 182.951883 103.925245 
L 182.724586 102.790274 
L 182.174242 101.590606 
L 181.345437 100.423434 
L 180.305316 99.383313 
L 179.138144 98.554508 
L 177.938476 98.004164 
L 176.803505 97.776867 
L 175.825177 97.891031 
L 175.082752 98.337406 
z
" clip-path="url(#p04f7b19188)" style="fill: #ffffff; stroke: #262626"/>
    <path d="M 204.435706 92.887394 
L 204.37256 91.441101 
L 204.183601 90.005815 
L 203.870267 88.59246 
L 203.434944 87.211792 
L 202.880945 85.874319 
L 202.212485 84.590219 
L 201.434652 83.369266 
L 200.553366 82.220751 
L 199.575334 81.153416 
L 198.507999 80.175384 
L 197.359484 79.294098 
L 196.138531 78.516265 
L 194.854431 77.847805 
L 193.516958 77.293806 
L 192.13629 76.858483 
L 190.722935 76.545149 
L 189.287649 76.35619 
L 187.841356 76.293044 
L 186.395063 76.35619 
L 184.959777 76.545149 
L 183.546422 76.858483 
L 182.165754 77.293806 
L 180.82828 77.847805 
L 179.544181 78.516265 
L 178.323228 79.294098 
L 177.174713 80.175384 
L 176.107378 81.153416 
L 175.129346 82.220751 
L 174.24806 83.369266 
L 173.470227 84.590219 
L 172.801767 85.874319 
L 172.247767 87.211792 
L 171.812444 88.59246 
L 171.499111 90.005815 
L 171.310152 91.441101 
L 171.247006 92.887394 
L 171.310152 94.333687 
L 171.499111 95.768973 
L 171.812444 97.182328 
L 172.247767 98.562996 
L 172.801767 99.90047 
L 173.470227 101.184569 
L 174.24806 102.405522 
L 175.129346 103.554037 
L 176.107378 104.621372 
L 177.174713 105.599404 
L 178.323228 106.48069 
L 179.544181 107.258523 
L 180.82828 107.926983 
L 182.165754 108.480983 
L 183.546422 108.916306 
L 184.959777 109.229639 
L 186.395063 109.418598 
L 187.841356 109.481744 
L 189.287649 109.418598 
L 190.722935 109.229639 
L 192.13629 108.916306 
L 193.516958 108.480983 
L 194.854431 107.926983 
L 196.138531 107.258523 
L 197.359484 106.48069 
L 198.507999 105.599404 
L 199.575334 104.621372 
L 200.553366 103.554037 
L 201.434652 102.405522 
L 202.212485 101.184569 
L 202.880945 99.90047 
L 203.434944 98.562996 
L 203.870267 97.182328 
L 204.183601 95.768973 
L 204.37256 94.333687 
L 204.435706 92.887394 
z
" clip-path="url(#p04f7b19188)" style="fill: #ffffff; stroke: #262626"/>
    <path d="M 123.376691 164.660651 
L 123.823068 163.918225 
L 123.937233 162.939896 
L 123.709937 161.804923 
L 123.159594 160.605255 
L 122.330789 159.438082 
L 121.290668 158.397961 
L 120.123495 157.569156 
L 118.923827 157.018813 
L 117.788854 156.791517 
L 116.810525 156.905682 
L 116.068099 157.352059 
L 99.918378 173.501781 
L 107.226969 180.810372 
z
" clip-path="url(#p04f7b19188)" style="fill: #b2b2b2; stroke: #262626"/>
    <path d="M 107.226969 180.810372 
L 99.918378 173.501781 
L 83.768656 189.651502 
L 83.322281 190.393927 
L 83.208117 191.372255 
L 83.435414 192.507226 
L 83.985758 193.706894 
L 84.814563 194.874066 
L 85.854684 195.914187 
L 87.021856 196.742992 
L 88.221524 197.293336 
L 89.356495 197.520633 
L 90.334823 197.406469 
L 91.077248 196.960094 
z
" clip-path="url(#p04f7b19188)" style="fill: #ffffff; stroke: #262626"/>
    <path d="M 94.912994 202.410106 
L 94.849848 200.963813 
L 94.660889 199.528527 
L 94.347556 198.115172 
L 93.912233 196.734504 
L 93.358233 195.39703 
L 92.689773 194.112931 
L 91.91194 192.891978 
L 91.030654 191.743463 
L 90.052622 190.676128 
L 88.985287 189.698096 
L 87.836772 188.81681 
L 86.615819 188.038977 
L 85.33172 187.370517 
L 83.994246 186.816517 
L 82.613578 186.381194 
L 81.200223 186.067861 
L 79.764937 185.878902 
L 78.318644 185.815756 
L 76.872351 185.878902 
L 75.437065 186.067861 
L 74.02371 186.381194 
L 72.643042 186.816517 
L 71.305569 187.370517 
L 70.021469 188.038977 
L 68.800516 188.81681 
L 67.652001 189.698096 
L 66.584666 190.676128 
L 65.606634 191.743463 
L 64.725348 192.891978 
L 63.947515 194.112931 
L 63.279055 195.39703 
L 62.725056 196.734504 
L 62.289733 198.115172 
L 61.976399 199.528527 
L 61.78744 200.963813 
L 61.724294 202.410106 
L 61.78744 203.856399 
L 61.976399 205.291685 
L 62.289733 206.70504 
L 62.725056 208.085708 
L 63.279055 209.423181 
L 63.947515 210.707281 
L 64.725348 211.928234 
L 65.606634 213.076749 
L 66.584666 214.144084 
L 67.652001 215.122116 
L 68.800516 216.003402 
L 70.021469 216.781235 
L 71.305569 217.449695 
L 72.643042 218.003694 
L 74.02371 218.439017 
L 75.437065 218.752351 
L 76.872351 218.94131 
L 78.318644 219.004456 
L 79.764937 218.94131 
L 81.200223 218.752351 
L 82.613578 218.439017 
L 83.994246 218.003694 
L 85.33172 217.449695 
L 86.615819 216.781235 
L 87.836772 216.003402 
L 88.985287 215.122116 
L 90.052622 214.144084 
L 91.030654 213.076749 
L 91.91194 211.928234 
L 92.689773 210.707281 
L 93.358233 209.423181 
L 93.912233 208.085708 
L 94.347556 206.70504 
L 94.660889 205.291685 
L 94.849848 203.856399 
L 94.912994 202.410106 
z
" clip-path="url(#p04f7b19188)" style="fill: #ffffff; stroke: #262626"/>
   </g>
   <g id="text_1">
    <!-- ch4 -->
    <g transform="translate(123.186562 15.76875) scale(0.12 -0.12)">
     <defs>
      <path id="HelveticaNeue-63" d="M 2656 2246 
L 3219 2246 
Q 3187 2541 3065 2755 
Q 2944 2970 2755 3110 
Q 2566 3251 2320 3318 
Q 2074 3386 1792 3386 
Q 1402 3386 1107 3248 
Q 813 3110 617 2870 
Q 422 2630 326 2307 
Q 230 1984 230 1613 
Q 230 1242 329 931 
Q 429 621 624 397 
Q 819 173 1110 51 
Q 1402 -70 1779 -70 
Q 2413 -70 2781 262 
Q 3149 595 3238 1210 
L 2682 1210 
Q 2630 826 2403 614 
Q 2176 403 1773 403 
Q 1517 403 1331 505 
Q 1146 608 1030 777 
Q 915 947 860 1164 
Q 806 1382 806 1613 
Q 806 1862 857 2096 
Q 909 2330 1027 2509 
Q 1146 2688 1344 2797 
Q 1542 2906 1837 2906 
Q 2182 2906 2387 2733 
Q 2592 2560 2656 2246 
z
" transform="scale(0.015625)"/>
      <path id="HelveticaNeue-68" d="M 410 4570 
L 410 0 
L 954 0 
L 954 1869 
Q 954 2093 1014 2281 
Q 1075 2470 1196 2611 
Q 1318 2752 1500 2829 
Q 1683 2906 1933 2906 
Q 2246 2906 2425 2726 
Q 2605 2547 2605 2240 
L 2605 0 
L 3149 0 
L 3149 2176 
Q 3149 2445 3094 2665 
Q 3040 2886 2905 3046 
Q 2771 3206 2553 3296 
Q 2336 3386 2010 3386 
Q 1862 3386 1705 3354 
Q 1549 3322 1405 3254 
Q 1261 3187 1145 3081 
Q 1030 2976 966 2822 
L 954 2822 
L 954 4570 
L 410 4570 
z
" transform="scale(0.015625)"/>
      <path id="HelveticaNeue-34" d="M 2170 1542 
L 646 1542 
L 2157 3763 
L 2170 3763 
L 2170 1542 
z
M 2682 1542 
L 2682 4538 
L 2246 4538 
L 179 1587 
L 179 1062 
L 2170 1062 
L 2170 0 
L 2682 0 
L 2682 1062 
L 3296 1062 
L 3296 1542 
L 2682 1542 
z
" transform="scale(0.015625)"/>
     </defs>
     <use xlink:href="#HelveticaNeue-63"/>
     <use xlink:href="#HelveticaNeue-68" transform="translate(53.699997 0)"/>
     <use xlink:href="#HelveticaNeue-34" transform="translate(109.299988 0)"/>
    </g>
   </g>
  </g>
 </g>
 <defs>
  <clipPath id="p04f7b19188">
   <rect x="7.2" y="21.76875" width="251.76" height="251.76"/>
  </clipPath>
 </defs>
</svg>
