<?xml version="1.0" encoding="utf-8" standalone="no"?>
<!DOCTYPE svg PUBLIC "-//W3C//DTD SVG 1.1//EN"
  "http://www.w3.org/Graphics/SVG/1.1/DTD/svg11.dtd">
<svg xmlns:xlink="http://www.w3.org/1999/xlink" width="208.8pt" height="208.8pt" viewBox="0 0 208.8 208.8" xmlns="http://www.w3.org/2000/svg" version="1.1">
 <metadata>
  <rdf:RDF xmlns:dc="http://purl.org/dc/elements/1.1/" xmlns:cc="http://creativecommons.org/ns#" xmlns:rdf="http://www.w3.org/1999/02/22-rdf-syntax-ns#">
   <cc:Work>
    <dc:type rdf:resource="http://purl.org/dc/dcmitype/StillImage"/>
    <dc:date>2026-02-25T16:16:42.061002</dc:date>
    <dc:format>image/svg+xml</dc:format>
    <dc:creator>
     <cc:Agent>
      <dc:title>Matplotlib v3.10.7, https://matplotlib.org/</dc:title>
     </cc:Agent>
    </dc:creator>
   </cc:Work>
  </rdf:RDF>
 </metadata>
 <defs>
  <style type="text/css">*{stroke-linejoin: round; stroke-linecap: butt}</style>
 </defs>
 <g id="figure_1">
  <g id="patch_1">
   <path d="M 0 208.8 
L 208.8 208.8 
L 208.8 0 
L 0 0 
z
" style="fill: #ffffff"/>
  </g>
  <g id="axes_1">
   <g id="PolyCollection_1">
    <path d="M 171.228254 98.218907 
L 171.290986 98.202099 
L 171.4741 98.153034 
L 171.76276 98.075688 
L 172.133582 97.976326 
L 172.556524 97.863 
L 172.99732 97.744889 
L 173.420262 97.631562 
L 173.791084 97.5322 
L 174.079744 97.454853 
L 174.262858 97.405788 
L 174.32559 97.388978 
L 168.462848 75.508928 
L 168.400116 75.525737 
L 168.217002 75.574801 
L 167.928341 75.652147 
L 167.557519 75.751509 
L 167.134578 75.864835 
L 166.693781 75.982946 
L 166.27084 76.096273 
L 165.900018 76.195635 
L 165.611357 76.272982 
L 165.428244 76.322047 
L 165.365512 76.338857 
z
" clip-path="url(#pc60e6f0d8f)" style="fill: #808080; stroke: #262626"/>
    <path d="M 174.32559 111.411022 
L 174.262858 111.394212 
L 174.079744 111.345147 
L 173.791084 111.2678 
L 173.420262 111.168438 
L 172.99732 111.055111 
L 172.556524 110.937 
L 172.133582 110.823674 
L 171.76276 110.724312 
L 171.4741 110.646966 
L 171.290986 110.597901 
L 171.228254 110.581093 
L 165.365512 132.461143 
L 165.428244 132.477953 
L 165.611357 132.527018 
L 165.900018 132.604365 
L 166.27084 132.703727 
L 166.693781 132.817054 
L 167.134578 132.935165 
L 167.557519 133.048491 
L 167.928341 133.147853 
L 168.217002 133.225199 
L 168.400116 133.274263 
L 168.462848 133.291072 
z
" clip-path="url(#pc60e6f0d8f)" style="fill: #808080; stroke: #262626"/>
    <path d="M 181.558763 104.4 
L 181.532071 103.788652 
L 181.452198 103.181956 
L 181.319752 102.584531 
L 181.135741 102.000923 
L 180.901565 101.435573 
L 180.619007 100.892784 
L 180.290217 100.376687 
L 179.917697 99.891209 
L 179.504283 99.440047 
L 179.053121 99.026633 
L 178.567643 98.654113 
L 178.051546 98.325323 
L 177.508757 98.042765 
L 176.943407 97.808589 
L 176.359799 97.624578 
L 175.762373 97.492132 
L 175.155678 97.412259 
L 174.54433 97.385567 
L 173.932982 97.412259 
L 173.326286 97.492132 
L 172.728861 97.624578 
L 172.145253 97.808589 
L 171.579902 98.042765 
L 171.037113 98.325323 
L 170.521016 98.654113 
L 170.035539 99.026633 
L 169.584377 99.440047 
L 169.170962 99.891209 
L 168.798443 100.376687 
L 168.469653 100.892784 
L 168.187095 101.435573 
L 167.952919 102.000923 
L 167.768908 102.584531 
L 167.636462 103.181956 
L 167.556589 103.788652 
L 167.529897 104.4 
L 167.556589 105.011348 
L 167.636462 105.618044 
L 167.768908 106.215469 
L 167.952919 106.799077 
L 168.187095 107.364427 
L 168.469653 107.907216 
L 168.798443 108.423313 
L 169.170962 108.908791 
L 169.584377 109.359953 
L 170.035539 109.773367 
L 170.521016 110.145887 
L 171.037113 110.474677 
L 171.579902 110.757235 
L 172.145253 110.991411 
L 172.728861 111.175422 
L 173.326286 111.307868 
L 173.932982 111.387741 
L 174.54433 111.414433 
L 175.155678 111.387741 
L 175.762373 111.307868 
L 176.359799 111.175422 
L 176.943407 110.991411 
L 177.508757 110.757235 
L 178.051546 110.474677 
L 178.567643 110.145887 
L 179.053121 109.773367 
L 179.504283 109.359953 
L 179.917697 108.908791 
L 180.290217 108.423313 
L 180.619007 107.907216 
L 180.901565 107.364427 
L 181.135741 106.799077 
L 181.319752 106.215469 
L 181.452198 105.618044 
L 181.532071 105.011348 
L 181.558763 104.4 
z
" clip-path="url(#pc60e6f0d8f)" style="fill: #66c2a5; stroke: #262626"/>
    <path d="M 85.81416 131.040321 
L 85.789306 131.100322 
L 85.716759 131.275465 
L 85.602397 131.55156 
L 85.455483 131.90624 
L 85.287921 132.310771 
L 85.113284 132.732381 
L 84.945722 133.136912 
L 84.798809 133.491592 
L 84.684447 133.767687 
L 84.611901 133.94283 
L 84.587048 134.002832 
L 97.47751 139.342236 
L 97.502364 139.282235 
L 97.57491 139.107092 
L 97.689273 138.830997 
L 97.836187 138.476317 
L 98.003749 138.071786 
L 98.178385 137.650177 
L 98.345947 137.245646 
L 98.492861 136.890965 
L 98.607223 136.61487 
L 98.679769 136.439727 
L 98.704622 136.379726 
z
" clip-path="url(#pc60e6f0d8f)" style="fill: #808080; stroke: #262626"/>
    <path d="M 85.906103 129.90833 
L 85.879411 129.296982 
L 85.799538 128.690287 
L 85.667092 128.092862 
L 85.483081 127.509253 
L 85.248905 126.943903 
L 84.966347 126.401114 
L 84.637557 125.885017 
L 84.265037 125.39954 
L 83.851623 124.948377 
L 83.40046 124.534963 
L 82.914983 124.162443 
L 82.398886 123.833653 
L 81.856097 123.551095 
L 81.290747 123.316919 
L 80.707138 123.132908 
L 80.109713 123.000462 
L 79.503018 122.920589 
L 78.89167 122.893897 
L 78.280321 122.920589 
L 77.673626 123.000462 
L 77.076201 123.132908 
L 76.492592 123.316919 
L 75.927242 123.551095 
L 75.384453 123.833653 
L 74.868356 124.162443 
L 74.382879 124.534963 
L 73.931716 124.948377 
L 73.518302 125.39954 
L 73.145782 125.885017 
L 72.816992 126.401114 
L 72.534434 126.943903 
L 72.300259 127.509253 
L 72.116248 128.092862 
L 71.983802 128.690287 
L 71.903929 129.296982 
L 71.877237 129.90833 
L 71.903929 130.519679 
L 71.983802 131.126374 
L 72.116248 131.723799 
L 72.300259 132.307408 
L 72.534434 132.872758 
L 72.816992 133.415547 
L 73.145782 133.931644 
L 73.518302 134.417121 
L 73.931716 134.868284 
L 74.382879 135.281698 
L 74.868356 135.654218 
L 75.384453 135.983008 
L 75.927242 136.265566 
L 76.492592 136.499741 
L 77.076201 136.683752 
L 77.673626 136.816198 
L 78.280321 136.896071 
L 78.89167 136.922763 
L 79.503018 136.896071 
L 80.109713 136.816198 
L 80.707138 136.683752 
L 81.290747 136.499741 
L 81.856097 136.265566 
L 82.398886 135.983008 
L 82.914983 135.654218 
L 83.40046 135.281698 
L 83.851623 134.868284 
L 84.265037 134.417121 
L 84.637557 133.931644 
L 84.966347 133.415547 
L 85.248905 132.872758 
L 85.483081 132.307408 
L 85.667092 131.723799 
L 85.799538 131.126374 
L 85.879411 130.519679 
L 85.906103 129.90833 
z
" clip-path="url(#pc60e6f0d8f)" style="fill: #ea2920; stroke: #262626"/>
    <path d="M 72.420274 110.095378 
L 72.360273 110.120231 
L 72.18513 110.192777 
L 71.909035 110.307139 
L 71.554354 110.454053 
L 71.149823 110.621615 
L 70.728214 110.796251 
L 70.323683 110.963813 
L 69.969003 111.110727 
L 69.692908 111.22509 
L 69.517765 111.297636 
L 69.457764 111.32249 
L 74.797168 124.212952 
L 74.85717 124.188099 
L 75.032313 124.115553 
L 75.308408 124.001191 
L 75.663088 123.854278 
L 76.067619 123.686716 
L 76.489229 123.512079 
L 76.89376 123.344517 
L 77.24844 123.197603 
L 77.524535 123.083241 
L 77.699678 123.010694 
L 77.759679 122.98584 
z
" clip-path="url(#pc60e6f0d8f)" style="fill: #808080; stroke: #262626"/>
    <path d="M 75.340206 104.4 
L 75.313514 103.788652 
L 75.233641 103.181956 
L 75.101195 102.584531 
L 74.917184 102.000923 
L 74.683008 101.435573 
L 74.40045 100.892784 
L 74.07166 100.376687 
L 73.699141 99.891209 
L 73.285726 99.440047 
L 72.834564 99.026633 
L 72.349087 98.654113 
L 71.83299 98.325323 
L 71.290201 98.042765 
L 70.724851 97.808589 
L 70.141242 97.624578 
L 69.543817 97.492132 
L 68.937121 97.412259 
L 68.325773 97.385567 
L 67.714425 97.412259 
L 67.10773 97.492132 
L 66.510304 97.624578 
L 65.926696 97.808589 
L 65.361346 98.042765 
L 64.818557 98.325323 
L 64.30246 98.654113 
L 63.816983 99.026633 
L 63.36582 99.440047 
L 62.952406 99.891209 
L 62.579886 100.376687 
L 62.251096 100.892784 
L 61.968538 101.435573 
L 61.734362 102.000923 
L 61.550351 102.584531 
L 61.417905 103.181956 
L 61.338032 103.788652 
L 61.31134 104.4 
L 61.338032 105.011348 
L 61.417905 105.618044 
L 61.550351 106.215469 
L 61.734362 106.799077 
L 61.968538 107.364427 
L 62.251096 107.907216 
L 62.579886 108.423313 
L 62.952406 108.908791 
L 63.36582 109.359953 
L 63.816983 109.773367 
L 64.30246 110.145887 
L 64.818557 110.474677 
L 65.361346 110.757235 
L 65.926696 110.991411 
L 66.510304 111.175422 
L 67.10773 111.307868 
L 67.714425 111.387741 
L 68.325773 111.414433 
L 68.937121 111.387741 
L 69.543817 111.307868 
L 70.141242 111.175422 
L 70.724851 110.991411 
L 71.290201 110.757235 
L 71.83299 110.474677 
L 72.349087 110.145887 
L 72.834564 109.773367 
L 73.285726 109.359953 
L 73.699141 108.908791 
L 74.07166 108.423313 
L 74.40045 107.907216 
L 74.683008 107.364427 
L 74.917184 106.799077 
L 75.101195 106.215469 
L 75.233641 105.618044 
L 75.313514 105.011348 
L 75.340206 104.4 
z
" clip-path="url(#pc60e6f0d8f)" style="fill: #fc6832; stroke: #262626"/>
    <path d="M 77.759679 85.81416 
L 77.699678 85.789306 
L 77.524535 85.716759 
L 77.24844 85.602397 
L 76.89376 85.455483 
L 76.489229 85.287921 
L 76.067619 85.113284 
L 75.663088 84.945722 
L 75.308408 84.798809 
L 75.032313 84.684447 
L 74.85717 84.611901 
L 74.797168 84.587048 
L 69.457764 97.47751 
L 69.517765 97.502364 
L 69.692908 97.57491 
L 69.969003 97.689273 
L 70.323683 97.836187 
L 70.728214 98.003749 
L 71.149823 98.178385 
L 71.554354 98.345947 
L 71.909035 98.492861 
L 72.18513 98.607223 
L 72.360273 98.679769 
L 72.420274 98.704622 
z
" clip-path="url(#pc60e6f0d8f)" style="fill: #808080; stroke: #262626"/>
    <path d="M 85.906103 78.89167 
L 85.879411 78.280321 
L 85.799538 77.673626 
L 85.667092 77.076201 
L 85.483081 76.492592 
L 85.248905 75.927242 
L 84.966347 75.384453 
L 84.637557 74.868356 
L 84.265037 74.382879 
L 83.851623 73.931716 
L 83.40046 73.518302 
L 82.914983 73.145782 
L 82.398886 72.816992 
L 81.856097 72.534434 
L 81.290747 72.300259 
L 80.707138 72.116248 
L 80.109713 71.983802 
L 79.503018 71.903929 
L 78.89167 71.877237 
L 78.280321 71.903929 
L 77.673626 71.983802 
L 77.076201 72.116248 
L 76.492592 72.300259 
L 75.927242 72.534434 
L 75.384453 72.816992 
L 74.868356 73.145782 
L 74.382879 73.518302 
L 73.931716 73.931716 
L 73.518302 74.382879 
L 73.145782 74.868356 
L 72.816992 75.384453 
L 72.534434 75.927242 
L 72.300259 76.492592 
L 72.116248 77.076201 
L 71.983802 77.673626 
L 71.903929 78.280321 
L 71.877237 78.89167 
L 71.903929 79.503018 
L 71.983802 80.109713 
L 72.116248 80.707138 
L 72.300259 81.290747 
L 72.534434 81.856097 
L 72.816992 82.398886 
L 73.145782 82.914983 
L 73.518302 83.40046 
L 73.931716 83.851623 
L 74.382879 84.265037 
L 74.868356 84.637557 
L 75.384453 84.966347 
L 75.927242 85.248905 
L 76.492592 85.483081 
L 77.076201 85.667092 
L 77.673626 85.799538 
L 78.280321 85.879411 
L 78.89167 85.906103 
L 79.503018 85.879411 
L 80.109713 85.799538 
L 80.707138 85.667092 
L 81.290747 85.483081 
L 81.856097 85.248905 
L 82.398886 84.966347 
L 82.914983 84.637557 
L 83.40046 84.265037 
L 83.851623 83.851623 
L 84.265037 83.40046 
L 84.637557 82.914983 
L 84.966347 82.398886 
L 85.248905 81.856097 
L 85.483081 81.290747 
L 85.667092 80.707138 
L 85.799538 80.109713 
L 85.879411 79.503018 
L 85.906103 78.89167 
z
" clip-path="url(#pc60e6f0d8f)" style="fill: #fea245; stroke: #262626"/>
    <path d="M 98.704622 72.420274 
L 98.679769 72.360273 
L 98.607223 72.18513 
L 98.492861 71.909035 
L 98.345947 71.554354 
L 98.178385 71.149823 
L 98.003749 70.728214 
L 97.836187 70.323683 
L 97.689273 69.969003 
L 97.57491 69.692908 
L 97.502364 69.517765 
L 97.47751 69.457764 
L 84.587048 74.797168 
L 84.611901 74.85717 
L 84.684447 75.032313 
L 84.798809 75.308408 
L 84.945722 75.663088 
L 85.113284 76.067619 
L 85.287921 76.489229 
L 85.455483 76.89376 
L 85.602397 77.24844 
L 85.716759 77.524535 
L 85.789306 77.699678 
L 85.81416 77.759679 
z
" clip-path="url(#pc60e6f0d8f)" style="fill: #808080; stroke: #262626"/>
    <path d="M 111.414433 68.325773 
L 111.387741 67.714425 
L 111.307868 67.10773 
L 111.175422 66.510304 
L 110.991411 65.926696 
L 110.757235 65.361346 
L 110.474677 64.818557 
L 110.145887 64.30246 
L 109.773367 63.816983 
L 109.359953 63.36582 
L 108.908791 62.952406 
L 108.423313 62.579886 
L 107.907216 62.251096 
L 107.364427 61.968538 
L 106.799077 61.734362 
L 106.215469 61.550351 
L 105.618044 61.417905 
L 105.011348 61.338032 
L 104.4 61.31134 
L 103.788652 61.338032 
L 103.181956 61.417905 
L 102.584531 61.550351 
L 102.000923 61.734362 
L 101.435573 61.968538 
L 100.892784 62.251096 
L 100.376687 62.579886 
L 99.891209 62.952406 
L 99.440047 63.36582 
L 99.026633 63.816983 
L 98.654113 64.30246 
L 98.325323 64.818557 
L 98.042765 65.361346 
L 97.808589 65.926696 
L 97.624578 66.510304 
L 97.492132 67.10773 
L 97.412259 67.714425 
L 97.385567 68.325773 
L 97.412259 68.937121 
L 97.492132 69.543817 
L 97.624578 70.141242 
L 97.808589 70.724851 
L 98.042765 71.290201 
L 98.325323 71.83299 
L 98.654113 72.349087 
L 99.026633 72.834564 
L 99.440047 73.285726 
L 99.891209 73.699141 
L 100.376687 74.07166 
L 100.892784 74.40045 
L 101.435573 74.683008 
L 102.000923 74.917184 
L 102.584531 75.101195 
L 103.181956 75.233641 
L 103.788652 75.313514 
L 104.4 75.340206 
L 105.011348 75.313514 
L 105.618044 75.233641 
L 106.215469 75.101195 
L 106.799077 74.917184 
L 107.364427 74.683008 
L 107.907216 74.40045 
L 108.423313 74.07166 
L 108.908791 73.699141 
L 109.359953 73.285726 
L 109.773367 72.834564 
L 110.145887 72.349087 
L 110.474677 71.83299 
L 110.757235 71.290201 
L 110.991411 70.724851 
L 111.175422 70.141242 
L 111.307868 69.543817 
L 111.387741 68.937121 
L 111.414433 68.325773 
z
" clip-path="url(#pc60e6f0d8f)" style="fill: #fece6a; stroke: #262626"/>
    <path d="M 122.98584 77.759679 
L 123.010694 77.699678 
L 123.083241 77.524535 
L 123.197603 77.24844 
L 123.344517 76.89376 
L 123.512079 76.489229 
L 123.686716 76.067619 
L 123.854278 75.663088 
L 124.001191 75.308408 
L 124.115553 75.032313 
L 124.188099 74.85717 
L 124.212952 74.797168 
L 111.32249 69.457764 
L 111.297636 69.517765 
L 111.22509 69.692908 
L 111.110727 69.969003 
L 110.963813 70.323683 
L 110.796251 70.728214 
L 110.621615 71.149823 
L 110.454053 71.554354 
L 110.307139 71.909035 
L 110.192777 72.18513 
L 110.120231 72.360273 
L 110.095378 72.420274 
z
" clip-path="url(#pc60e6f0d8f)" style="fill: #808080; stroke: #262626"/>
    <path d="M 136.922763 78.89167 
L 136.896071 78.280321 
L 136.816198 77.673626 
L 136.683752 77.076201 
L 136.499741 76.492592 
L 136.265566 75.927242 
L 135.983008 75.384453 
L 135.654218 74.868356 
L 135.281698 74.382879 
L 134.868284 73.931716 
L 134.417121 73.518302 
L 133.931644 73.145782 
L 133.415547 72.816992 
L 132.872758 72.534434 
L 132.307408 72.300259 
L 131.723799 72.116248 
L 131.126374 71.983802 
L 130.519679 71.903929 
L 129.90833 71.877237 
L 129.296982 71.903929 
L 128.690287 71.983802 
L 128.092862 72.116248 
L 127.509253 72.300259 
L 126.943903 72.534434 
L 126.401114 72.816992 
L 125.885017 73.145782 
L 125.39954 73.518302 
L 124.948377 73.931716 
L 124.534963 74.382879 
L 124.162443 74.868356 
L 123.833653 75.384453 
L 123.551095 75.927242 
L 123.316919 76.492592 
L 123.132908 77.076201 
L 123.000462 77.673626 
L 122.920589 78.280321 
L 122.893897 78.89167 
L 122.920589 79.503018 
L 123.000462 80.109713 
L 123.132908 80.707138 
L 123.316919 81.290747 
L 123.551095 81.856097 
L 123.833653 82.398886 
L 124.162443 82.914983 
L 124.534963 83.40046 
L 124.948377 83.851623 
L 125.39954 84.265037 
L 125.885017 84.637557 
L 126.401114 84.966347 
L 126.943903 85.248905 
L 127.509253 85.483081 
L 128.092862 85.667092 
L 128.690287 85.799538 
L 129.296982 85.879411 
L 129.90833 85.906103 
L 130.519679 85.879411 
L 131.126374 85.799538 
L 131.723799 85.667092 
L 132.307408 85.483081 
L 132.872758 85.248905 
L 133.415547 84.966347 
L 133.931644 84.637557 
L 134.417121 84.265037 
L 134.868284 83.851623 
L 135.281698 83.40046 
L 135.654218 82.914983 
L 135.983008 82.398886 
L 136.265566 81.856097 
L 136.499741 81.290747 
L 136.683752 80.707138 
L 136.816198 80.109713 
L 136.896071 79.503018 
L 136.922763 78.89167 
z
" clip-path="url(#pc60e6f0d8f)" style="fill: #ffea9b; stroke: #262626"/>
    <path d="M 136.379726 98.704622 
L 136.439727 98.679769 
L 136.61487 98.607223 
L 136.890965 98.492861 
L 137.245646 98.345947 
L 137.650177 98.178385 
L 138.071786 98.003749 
L 138.476317 97.836187 
L 138.830997 97.689273 
L 139.107092 97.57491 
L 139.282235 97.502364 
L 139.342236 97.47751 
L 134.002832 84.587048 
L 133.94283 84.611901 
L 133.767687 84.684447 
L 133.491592 84.798809 
L 133.136912 84.945722 
L 132.732381 85.113284 
L 132.310771 85.287921 
L 131.90624 85.455483 
L 131.55156 85.602397 
L 131.275465 85.716759 
L 131.100322 85.789306 
L 131.040321 85.81416 
z
" clip-path="url(#pc60e6f0d8f)" style="fill: #808080; stroke: #262626"/>
    <path d="M 139.342236 111.32249 
L 139.282235 111.297636 
L 139.107092 111.22509 
L 138.830997 111.110727 
L 138.476317 110.963813 
L 138.071786 110.796251 
L 137.650177 110.621615 
L 137.245646 110.454053 
L 136.890965 110.307139 
L 136.61487 110.192777 
L 136.439727 110.120231 
L 136.379726 110.095378 
L 131.040321 122.98584 
L 131.100322 123.010694 
L 131.275465 123.083241 
L 131.55156 123.197603 
L 131.90624 123.344517 
L 132.310771 123.512079 
L 132.732381 123.686716 
L 133.136912 123.854278 
L 133.491592 124.001191 
L 133.767687 124.115553 
L 133.94283 124.188099 
L 134.002832 124.212952 
z
" clip-path="url(#pc60e6f0d8f)" style="fill: #808080; stroke: #262626"/>
    <path d="M 147.48866 104.4 
L 147.461968 103.788652 
L 147.382095 103.181956 
L 147.249649 102.584531 
L 147.065638 102.000923 
L 146.831462 101.435573 
L 146.548904 100.892784 
L 146.220114 100.376687 
L 145.847594 99.891209 
L 145.43418 99.440047 
L 144.983017 99.026633 
L 144.49754 98.654113 
L 143.981443 98.325323 
L 143.438654 98.042765 
L 142.873304 97.808589 
L 142.289696 97.624578 
L 141.69227 97.492132 
L 141.085575 97.412259 
L 140.474227 97.385567 
L 139.862879 97.412259 
L 139.256183 97.492132 
L 138.658758 97.624578 
L 138.075149 97.808589 
L 137.509799 98.042765 
L 136.96701 98.325323 
L 136.450913 98.654113 
L 135.965436 99.026633 
L 135.514274 99.440047 
L 135.100859 99.891209 
L 134.72834 100.376687 
L 134.39955 100.892784 
L 134.116992 101.435573 
L 133.882816 102.000923 
L 133.698805 102.584531 
L 133.566359 103.181956 
L 133.486486 103.788652 
L 133.459794 104.4 
L 133.486486 105.011348 
L 133.566359 105.618044 
L 133.698805 106.215469 
L 133.882816 106.799077 
L 134.116992 107.364427 
L 134.39955 107.907216 
L 134.72834 108.423313 
L 135.100859 108.908791 
L 135.514274 109.359953 
L 135.965436 109.773367 
L 136.450913 110.145887 
L 136.96701 110.474677 
L 137.509799 110.757235 
L 138.075149 110.991411 
L 138.658758 111.175422 
L 139.256183 111.307868 
L 139.862879 111.387741 
L 140.474227 111.414433 
L 141.085575 111.387741 
L 141.69227 111.307868 
L 142.289696 111.175422 
L 142.873304 110.991411 
L 143.438654 110.757235 
L 143.981443 110.474677 
L 144.49754 110.145887 
L 144.983017 109.773367 
L 145.43418 109.359953 
L 145.847594 108.908791 
L 146.220114 108.423313 
L 146.548904 107.907216 
L 146.831462 107.364427 
L 147.065638 106.799077 
L 147.249649 106.215469 
L 147.382095 105.618044 
L 147.461968 105.011348 
L 147.48866 104.4 
z
" clip-path="url(#pc60e6f0d8f)" style="fill: #ffffcc; stroke: #262626"/>
    <path d="M 172.161205 139.472165 
L 172.134513 138.860817 
L 172.05464 138.254121 
L 171.922194 137.656696 
L 171.738183 137.073088 
L 171.504007 136.507737 
L 171.221449 135.964948 
L 170.892659 135.448851 
L 170.520139 134.963374 
L 170.106725 134.512212 
L 169.655562 134.098798 
L 169.170085 133.726278 
L 168.653988 133.397488 
L 168.111199 133.11493 
L 167.545849 132.880754 
L 166.96224 132.696743 
L 166.364815 132.564297 
L 165.75812 132.484424 
L 165.146772 132.457732 
L 164.535424 132.484424 
L 163.928728 132.564297 
L 163.331303 132.696743 
L 162.747694 132.880754 
L 162.182344 133.11493 
L 161.639555 133.397488 
L 161.123458 133.726278 
L 160.637981 134.098798 
L 160.186818 134.512212 
L 159.773404 134.963374 
L 159.400884 135.448851 
L 159.072094 135.964948 
L 158.789536 136.507737 
L 158.555361 137.073088 
L 158.37135 137.656696 
L 158.238904 138.254121 
L 158.159031 138.860817 
L 158.132339 139.472165 
L 158.159031 140.083513 
L 158.238904 140.690208 
L 158.37135 141.287634 
L 158.555361 141.871242 
L 158.789536 142.436592 
L 159.072094 142.979381 
L 159.400884 143.495478 
L 159.773404 143.980956 
L 160.186818 144.432118 
L 160.637981 144.845532 
L 161.123458 145.218052 
L 161.639555 145.546842 
L 162.182344 145.8294 
L 162.747694 146.063576 
L 163.331303 146.247587 
L 163.928728 146.380033 
L 164.535424 146.459906 
L 165.146772 146.486598 
L 165.75812 146.459906 
L 166.364815 146.380033 
L 166.96224 146.247587 
L 167.545849 146.063576 
L 168.111199 145.8294 
L 168.653988 145.546842 
L 169.170085 145.218052 
L 169.655562 144.845532 
L 170.106725 144.432118 
L 170.520139 143.980956 
L 170.892659 143.495478 
L 171.221449 142.979381 
L 171.504007 142.436592 
L 171.738183 141.871242 
L 171.922194 141.287634 
L 172.05464 140.690208 
L 172.134513 140.083513 
L 172.161205 139.472165 
z
" clip-path="url(#pc60e6f0d8f)" style="fill: #b3b3b3; stroke: #262626"/>
    <path d="M 143.16711 159.184419 
L 143.213033 159.230342 
L 143.347081 159.364391 
L 143.558395 159.575705 
L 143.829856 159.847166 
L 144.13947 160.156781 
L 144.462156 160.479466 
L 144.771771 160.789081 
L 145.043231 161.060541 
L 145.254546 161.271855 
L 145.388594 161.405904 
L 145.434518 161.451826 
L 161.451826 145.434518 
L 161.405904 145.388594 
L 161.271855 145.254546 
L 161.060541 145.043231 
L 160.789081 144.771771 
L 160.479466 144.462156 
L 160.156781 144.13947 
L 159.847166 143.829856 
L 159.575705 143.558395 
L 159.364391 143.347081 
L 159.230342 143.213033 
L 159.184419 143.16711 
z
" clip-path="url(#pc60e6f0d8f)" style="fill: #808080; stroke: #262626"/>
    <path d="M 146.486598 165.146772 
L 146.459906 164.535424 
L 146.380033 163.928728 
L 146.247587 163.331303 
L 146.063576 162.747694 
L 145.8294 162.182344 
L 145.546842 161.639555 
L 145.218052 161.123458 
L 144.845532 160.637981 
L 144.432118 160.186818 
L 143.980956 159.773404 
L 143.495478 159.400884 
L 142.979381 159.072094 
L 142.436592 158.789536 
L 141.871242 158.555361 
L 141.287634 158.37135 
L 140.690208 158.238904 
L 140.083513 158.159031 
L 139.472165 158.132339 
L 138.860817 158.159031 
L 138.254121 158.238904 
L 137.656696 158.37135 
L 137.073088 158.555361 
L 136.507737 158.789536 
L 135.964948 159.072094 
L 135.448851 159.400884 
L 134.963374 159.773404 
L 134.512212 160.186818 
L 134.098798 160.637981 
L 133.726278 161.123458 
L 133.397488 161.639555 
L 133.11493 162.182344 
L 132.880754 162.747694 
L 132.696743 163.331303 
L 132.564297 163.928728 
L 132.484424 164.535424 
L 132.457732 165.146772 
L 132.484424 165.75812 
L 132.564297 166.364815 
L 132.696743 166.96224 
L 132.880754 167.545849 
L 133.11493 168.111199 
L 133.397488 168.653988 
L 133.726278 169.170085 
L 134.098798 169.655562 
L 134.512212 170.106725 
L 134.963374 170.520139 
L 135.448851 170.892659 
L 135.964948 171.221449 
L 136.507737 171.504007 
L 137.073088 171.738183 
L 137.656696 171.922194 
L 138.254121 172.05464 
L 138.860817 172.134513 
L 139.472165 172.161205 
L 140.083513 172.134513 
L 140.690208 172.05464 
L 141.287634 171.922194 
L 141.871242 171.738183 
L 142.436592 171.504007 
L 142.979381 171.221449 
L 143.495478 170.892659 
L 143.980956 170.520139 
L 144.432118 170.106725 
L 144.845532 169.655562 
L 145.218052 169.170085 
L 145.546842 168.653988 
L 145.8294 168.111199 
L 146.063576 167.545849 
L 146.247587 166.96224 
L 146.380033 166.364815 
L 146.459906 165.75812 
L 146.486598 165.146772 
z
" clip-path="url(#pc60e6f0d8f)" style="fill: #a6d854; stroke: #262626"/>
    <path d="M 110.581093 171.228254 
L 110.597901 171.290986 
L 110.646966 171.4741 
L 110.724312 171.76276 
L 110.823674 172.133582 
L 110.937 172.556524 
L 111.055111 172.99732 
L 111.168438 173.420262 
L 111.2678 173.791084 
L 111.345147 174.079744 
L 111.394212 174.262858 
L 111.411022 174.32559 
L 133.291072 168.462848 
L 133.274263 168.400116 
L 133.225199 168.217002 
L 133.147853 167.928341 
L 133.048491 167.557519 
L 132.935165 167.134578 
L 132.817054 166.693781 
L 132.703727 166.27084 
L 132.604365 165.900018 
L 132.527018 165.611357 
L 132.477953 165.428244 
L 132.461143 165.365512 
z
" clip-path="url(#pc60e6f0d8f)" style="fill: #808080; stroke: #262626"/>
    <path d="M 111.414433 174.54433 
L 111.387741 173.932982 
L 111.307868 173.326286 
L 111.175422 172.728861 
L 110.991411 172.145253 
L 110.757235 171.579902 
L 110.474677 171.037113 
L 110.145887 170.521016 
L 109.773367 170.035539 
L 109.359953 169.584377 
L 108.908791 169.170962 
L 108.423313 168.798443 
L 107.907216 168.469653 
L 107.364427 168.187095 
L 106.799077 167.952919 
L 106.215469 167.768908 
L 105.618044 167.636462 
L 105.011348 167.556589 
L 104.4 167.529897 
L 103.788652 167.556589 
L 103.181956 167.636462 
L 102.584531 167.768908 
L 102.000923 167.952919 
L 101.435573 168.187095 
L 100.892784 168.469653 
L 100.376687 168.798443 
L 99.891209 169.170962 
L 99.440047 169.584377 
L 99.026633 170.035539 
L 98.654113 170.521016 
L 98.325323 171.037113 
L 98.042765 171.579902 
L 97.808589 172.145253 
L 97.624578 172.728861 
L 97.492132 173.326286 
L 97.412259 173.932982 
L 97.385567 174.54433 
L 97.412259 175.155678 
L 97.492132 175.762373 
L 97.624578 176.359799 
L 97.808589 176.943407 
L 98.042765 177.508757 
L 98.325323 178.051546 
L 98.654113 178.567643 
L 99.026633 179.053121 
L 99.440047 179.504283 
L 99.891209 179.917697 
L 100.376687 180.290217 
L 100.892784 180.619007 
L 101.435573 180.901565 
L 102.000923 181.135741 
L 102.584531 181.319752 
L 103.181956 181.452198 
L 103.788652 181.532071 
L 104.4 181.558763 
L 105.011348 181.532071 
L 105.618044 181.452198 
L 106.215469 181.319752 
L 106.799077 181.135741 
L 107.364427 180.901565 
L 107.907216 180.619007 
L 108.423313 180.290217 
L 108.908791 179.917697 
L 109.359953 179.504283 
L 109.773367 179.053121 
L 110.145887 178.567643 
L 110.474677 178.051546 
L 110.757235 177.508757 
L 110.991411 176.943407 
L 111.175422 176.359799 
L 111.307868 175.762373 
L 111.387741 175.155678 
L 111.414433 174.54433 
z
" clip-path="url(#pc60e6f0d8f)" style="fill: #66c2a5; stroke: #262626"/>
    <path d="M 76.338857 165.365512 
L 76.322047 165.428244 
L 76.272982 165.611357 
L 76.195635 165.900018 
L 76.096273 166.27084 
L 75.982946 166.693781 
L 75.864835 167.134578 
L 75.751509 167.557519 
L 75.652147 167.928341 
L 75.574801 168.217002 
L 75.525737 168.400116 
L 75.508928 168.462848 
L 97.388978 174.32559 
L 97.405788 174.262858 
L 97.454853 174.079744 
L 97.5322 173.791084 
L 97.631562 173.420262 
L 97.744889 172.99732 
L 97.863 172.556524 
L 97.976326 172.133582 
L 98.075688 171.76276 
L 98.153034 171.4741 
L 98.202099 171.290986 
L 98.218907 171.228254 
z
" clip-path="url(#pc60e6f0d8f)" style="fill: #808080; stroke: #262626"/>
    <path d="M 76.342268 165.146772 
L 76.315576 164.535424 
L 76.235703 163.928728 
L 76.103257 163.331303 
L 75.919246 162.747694 
L 75.68507 162.182344 
L 75.402512 161.639555 
L 75.073722 161.123458 
L 74.701202 160.637981 
L 74.287788 160.186818 
L 73.836626 159.773404 
L 73.351149 159.400884 
L 72.835052 159.072094 
L 72.292263 158.789536 
L 71.726912 158.555361 
L 71.143304 158.37135 
L 70.545879 158.238904 
L 69.939183 158.159031 
L 69.327835 158.132339 
L 68.716487 158.159031 
L 68.109792 158.238904 
L 67.512366 158.37135 
L 66.928758 158.555361 
L 66.363408 158.789536 
L 65.820619 159.072094 
L 65.304522 159.400884 
L 64.819044 159.773404 
L 64.367882 160.186818 
L 63.954468 160.637981 
L 63.581948 161.123458 
L 63.253158 161.639555 
L 62.9706 162.182344 
L 62.736424 162.747694 
L 62.552413 163.331303 
L 62.419967 163.928728 
L 62.340094 164.535424 
L 62.313402 165.146772 
L 62.340094 165.75812 
L 62.419967 166.364815 
L 62.552413 166.96224 
L 62.736424 167.545849 
L 62.9706 168.111199 
L 63.253158 168.653988 
L 63.581948 169.170085 
L 63.954468 169.655562 
L 64.367882 170.106725 
L 64.819044 170.520139 
L 65.304522 170.892659 
L 65.820619 171.221449 
L 66.363408 171.504007 
L 66.928758 171.738183 
L 67.512366 171.922194 
L 68.109792 172.05464 
L 68.716487 172.134513 
L 69.327835 172.161205 
L 69.939183 172.134513 
L 70.545879 172.05464 
L 71.143304 171.922194 
L 71.726912 171.738183 
L 72.292263 171.504007 
L 72.835052 171.221449 
L 73.351149 170.892659 
L 73.836626 170.520139 
L 74.287788 170.106725 
L 74.701202 169.655562 
L 75.073722 169.170085 
L 75.402512 168.653988 
L 75.68507 168.111199 
L 75.919246 167.545849 
L 76.103257 166.96224 
L 76.235703 166.364815 
L 76.315576 165.75812 
L 76.342268 165.146772 
z
" clip-path="url(#pc60e6f0d8f)" style="fill: #b3b3b3; stroke: #262626"/>
    <path d="M 49.615581 143.16711 
L 49.569658 143.213033 
L 49.435609 143.347081 
L 49.224295 143.558395 
L 48.952834 143.829856 
L 48.643219 144.13947 
L 48.320534 144.462156 
L 48.010919 144.771771 
L 47.739459 145.043231 
L 47.528145 145.254546 
L 47.394096 145.388594 
L 47.348174 145.434518 
L 63.365482 161.451826 
L 63.411406 161.405904 
L 63.545454 161.271855 
L 63.756769 161.060541 
L 64.028229 160.789081 
L 64.337844 160.479466 
L 64.66053 160.156781 
L 64.970144 159.847166 
L 65.241605 159.575705 
L 65.452919 159.364391 
L 65.586967 159.230342 
L 65.63289 159.184419 
z
" clip-path="url(#pc60e6f0d8f)" style="fill: #808080; stroke: #262626"/>
    <path d="M 50.667661 139.472165 
L 50.640969 138.860817 
L 50.561096 138.254121 
L 50.42865 137.656696 
L 50.244639 137.073088 
L 50.010464 136.507737 
L 49.727906 135.964948 
L 49.399116 135.448851 
L 49.026596 134.963374 
L 48.613182 134.512212 
L 48.162019 134.098798 
L 47.676542 133.726278 
L 47.160445 133.397488 
L 46.617656 133.11493 
L 46.052306 132.880754 
L 45.468697 132.696743 
L 44.871272 132.564297 
L 44.264576 132.484424 
L 43.653228 132.457732 
L 43.04188 132.484424 
L 42.435185 132.564297 
L 41.83776 132.696743 
L 41.254151 132.880754 
L 40.688801 133.11493 
L 40.146012 133.397488 
L 39.629915 133.726278 
L 39.144438 134.098798 
L 38.693275 134.512212 
L 38.279861 134.963374 
L 37.907341 135.448851 
L 37.578551 135.964948 
L 37.295993 136.507737 
L 37.061817 137.073088 
L 36.877806 137.656696 
L 36.74536 138.254121 
L 36.665487 138.860817 
L 36.638795 139.472165 
L 36.665487 140.083513 
L 36.74536 140.690208 
L 36.877806 141.287634 
L 37.061817 141.871242 
L 37.295993 142.436592 
L 37.578551 142.979381 
L 37.907341 143.495478 
L 38.279861 143.980956 
L 38.693275 144.432118 
L 39.144438 144.845532 
L 39.629915 145.218052 
L 40.146012 145.546842 
L 40.688801 145.8294 
L 41.254151 146.063576 
L 41.83776 146.247587 
L 42.435185 146.380033 
L 43.04188 146.459906 
L 43.653228 146.486598 
L 44.264576 146.459906 
L 44.871272 146.380033 
L 45.468697 146.247587 
L 46.052306 146.063576 
L 46.617656 145.8294 
L 47.160445 145.546842 
L 47.676542 145.218052 
L 48.162019 144.845532 
L 48.613182 144.432118 
L 49.026596 143.980956 
L 49.399116 143.495478 
L 49.727906 142.979381 
L 50.010464 142.436592 
L 50.244639 141.871242 
L 50.42865 141.287634 
L 50.561096 140.690208 
L 50.640969 140.083513 
L 50.667661 139.472165 
z
" clip-path="url(#pc60e6f0d8f)" style="fill: #a6d854; stroke: #262626"/>
    <path d="M 37.571746 110.581093 
L 37.509014 110.597901 
L 37.3259 110.646966 
L 37.03724 110.724312 
L 36.666418 110.823674 
L 36.243476 110.937 
L 35.80268 111.055111 
L 35.379738 111.168438 
L 35.008916 111.2678 
L 34.720256 111.345147 
L 34.537142 111.394212 
L 34.47441 111.411022 
L 40.337152 133.291072 
L 40.399884 133.274263 
L 40.582998 133.225199 
L 40.871659 133.147853 
L 41.242481 133.048491 
L 41.665422 132.935165 
L 42.106219 132.817054 
L 42.52916 132.703727 
L 42.899982 132.604365 
L 43.188643 132.527018 
L 43.371756 132.477953 
L 43.434488 132.461143 
z
" clip-path="url(#pc60e6f0d8f)" style="fill: #808080; stroke: #262626"/>
    <path d="M 41.270103 104.4 
L 41.243411 103.788652 
L 41.163538 103.181956 
L 41.031092 102.584531 
L 40.847081 102.000923 
L 40.612905 101.435573 
L 40.330347 100.892784 
L 40.001557 100.376687 
L 39.629038 99.891209 
L 39.215623 99.440047 
L 38.764461 99.026633 
L 38.278984 98.654113 
L 37.762887 98.325323 
L 37.220098 98.042765 
L 36.654747 97.808589 
L 36.071139 97.624578 
L 35.473714 97.492132 
L 34.867018 97.412259 
L 34.25567 97.385567 
L 33.644322 97.412259 
L 33.037627 97.492132 
L 32.440201 97.624578 
L 31.856593 97.808589 
L 31.291243 98.042765 
L 30.748454 98.325323 
L 30.232357 98.654113 
L 29.746879 99.026633 
L 29.295717 99.440047 
L 28.882303 99.891209 
L 28.509783 100.376687 
L 28.180993 100.892784 
L 27.898435 101.435573 
L 27.664259 102.000923 
L 27.480248 102.584531 
L 27.347802 103.181956 
L 27.267929 103.788652 
L 27.241237 104.4 
L 27.267929 105.011348 
L 27.347802 105.618044 
L 27.480248 106.215469 
L 27.664259 106.799077 
L 27.898435 107.364427 
L 28.180993 107.907216 
L 28.509783 108.423313 
L 28.882303 108.908791 
L 29.295717 109.359953 
L 29.746879 109.773367 
L 30.232357 110.145887 
L 30.748454 110.474677 
L 31.291243 110.757235 
L 31.856593 110.991411 
L 32.440201 111.175422 
L 33.037627 111.307868 
L 33.644322 111.387741 
L 34.25567 111.414433 
L 34.867018 111.387741 
L 35.473714 111.307868 
L 36.071139 111.175422 
L 36.654747 110.991411 
L 37.220098 110.757235 
L 37.762887 110.474677 
L 38.278984 110.145887 
L 38.764461 109.773367 
L 39.215623 109.359953 
L 39.629038 108.908791 
L 40.001557 108.423313 
L 40.330347 107.907216 
L 40.612905 107.364427 
L 40.847081 106.799077 
L 41.031092 106.215469 
L 41.163538 105.618044 
L 41.243411 105.011348 
L 41.270103 104.4 
z
" clip-path="url(#pc60e6f0d8f)" style="fill: #66c2a5; stroke: #262626"/>
    <path d="M 43.434488 76.338857 
L 43.371756 76.322047 
L 43.188643 76.272982 
L 42.899982 76.195635 
L 42.52916 76.096273 
L 42.106219 75.982946 
L 41.665422 75.864835 
L 41.242481 75.751509 
L 40.871659 75.652147 
L 40.582998 75.574801 
L 40.399884 75.525737 
L 40.337152 75.508928 
L 34.47441 97.388978 
L 34.537142 97.405788 
L 34.720256 97.454853 
L 35.008916 97.5322 
L 35.379738 97.631562 
L 35.80268 97.744889 
L 36.243476 97.863 
L 36.666418 97.976326 
L 37.03724 98.075688 
L 37.3259 98.153034 
L 37.509014 98.202099 
L 37.571746 98.218907 
z
" clip-path="url(#pc60e6f0d8f)" style="fill: #808080; stroke: #262626"/>
    <path d="M 50.667661 69.327835 
L 50.640969 68.716487 
L 50.561096 68.109792 
L 50.42865 67.512366 
L 50.244639 66.928758 
L 50.010464 66.363408 
L 49.727906 65.820619 
L 49.399116 65.304522 
L 49.026596 64.819044 
L 48.613182 64.367882 
L 48.162019 63.954468 
L 47.676542 63.581948 
L 47.160445 63.253158 
L 46.617656 62.9706 
L 46.052306 62.736424 
L 45.468697 62.552413 
L 44.871272 62.419967 
L 44.264576 62.340094 
L 43.653228 62.313402 
L 43.04188 62.340094 
L 42.435185 62.419967 
L 41.83776 62.552413 
L 41.254151 62.736424 
L 40.688801 62.9706 
L 40.146012 63.253158 
L 39.629915 63.581948 
L 39.144438 63.954468 
L 38.693275 64.367882 
L 38.279861 64.819044 
L 37.907341 65.304522 
L 37.578551 65.820619 
L 37.295993 66.363408 
L 37.061817 66.928758 
L 36.877806 67.512366 
L 36.74536 68.109792 
L 36.665487 68.716487 
L 36.638795 69.327835 
L 36.665487 69.939183 
L 36.74536 70.545879 
L 36.877806 71.143304 
L 37.061817 71.726912 
L 37.295993 72.292263 
L 37.578551 72.835052 
L 37.907341 73.351149 
L 38.279861 73.836626 
L 38.693275 74.287788 
L 39.144438 74.701202 
L 39.629915 75.073722 
L 40.146012 75.402512 
L 40.688801 75.68507 
L 41.254151 75.919246 
L 41.83776 76.103257 
L 42.435185 76.235703 
L 43.04188 76.315576 
L 43.653228 76.342268 
L 44.264576 76.315576 
L 44.871272 76.235703 
L 45.468697 76.103257 
L 46.052306 75.919246 
L 46.617656 75.68507 
L 47.160445 75.402512 
L 47.676542 75.073722 
L 48.162019 74.701202 
L 48.613182 74.287788 
L 49.026596 73.836626 
L 49.399116 73.351149 
L 49.727906 72.835052 
L 50.010464 72.292263 
L 50.244639 71.726912 
L 50.42865 71.143304 
L 50.561096 70.545879 
L 50.640969 69.939183 
L 50.667661 69.327835 
z
" clip-path="url(#pc60e6f0d8f)" style="fill: #b3b3b3; stroke: #262626"/>
    <path d="M 65.63289 49.615581 
L 65.586967 49.569658 
L 65.452919 49.435609 
L 65.241605 49.224295 
L 64.970144 48.952834 
L 64.66053 48.643219 
L 64.337844 48.320534 
L 64.028229 48.010919 
L 63.756769 47.739459 
L 63.545454 47.528145 
L 63.411406 47.394096 
L 63.365482 47.348174 
L 47.348174 63.365482 
L 47.394096 63.411406 
L 47.528145 63.545454 
L 47.739459 63.756769 
L 48.010919 64.028229 
L 48.320534 64.337844 
L 48.643219 64.66053 
L 48.952834 64.970144 
L 49.224295 65.241605 
L 49.435609 65.452919 
L 49.569658 65.586967 
L 49.615581 65.63289 
z
" clip-path="url(#pc60e6f0d8f)" style="fill: #808080; stroke: #262626"/>
    <path d="M 76.342268 43.653228 
L 76.315576 43.04188 
L 76.235703 42.435185 
L 76.103257 41.83776 
L 75.919246 41.254151 
L 75.68507 40.688801 
L 75.402512 40.146012 
L 75.073722 39.629915 
L 74.701202 39.144438 
L 74.287788 38.693275 
L 73.836626 38.279861 
L 73.351149 37.907341 
L 72.835052 37.578551 
L 72.292263 37.295993 
L 71.726912 37.061817 
L 71.143304 36.877806 
L 70.545879 36.74536 
L 69.939183 36.665487 
L 69.327835 36.638795 
L 68.716487 36.665487 
L 68.109792 36.74536 
L 67.512366 36.877806 
L 66.928758 37.061817 
L 66.363408 37.295993 
L 65.820619 37.578551 
L 65.304522 37.907341 
L 64.819044 38.279861 
L 64.367882 38.693275 
L 63.954468 39.144438 
L 63.581948 39.629915 
L 63.253158 40.146012 
L 62.9706 40.688801 
L 62.736424 41.254151 
L 62.552413 41.83776 
L 62.419967 42.435185 
L 62.340094 43.04188 
L 62.313402 43.653228 
L 62.340094 44.264576 
L 62.419967 44.871272 
L 62.552413 45.468697 
L 62.736424 46.052306 
L 62.9706 46.617656 
L 63.253158 47.160445 
L 63.581948 47.676542 
L 63.954468 48.162019 
L 64.367882 48.613182 
L 64.819044 49.026596 
L 65.304522 49.399116 
L 65.820619 49.727906 
L 66.363408 50.010464 
L 66.928758 50.244639 
L 67.512366 50.42865 
L 68.109792 50.561096 
L 68.716487 50.640969 
L 69.327835 50.667661 
L 69.939183 50.640969 
L 70.545879 50.561096 
L 71.143304 50.42865 
L 71.726912 50.244639 
L 72.292263 50.010464 
L 72.835052 49.727906 
L 73.351149 49.399116 
L 73.836626 49.026596 
L 74.287788 48.613182 
L 74.701202 48.162019 
L 75.073722 47.676542 
L 75.402512 47.160445 
L 75.68507 46.617656 
L 75.919246 46.052306 
L 76.103257 45.468697 
L 76.235703 44.871272 
L 76.315576 44.264576 
L 76.342268 43.653228 
z
" clip-path="url(#pc60e6f0d8f)" style="fill: #a6d854; stroke: #262626"/>
    <path d="M 98.218907 37.571746 
L 98.202099 37.509014 
L 98.153034 37.3259 
L 98.075688 37.03724 
L 97.976326 36.666418 
L 97.863 36.243476 
L 97.744889 35.80268 
L 97.631562 35.379738 
L 97.5322 35.008916 
L 97.454853 34.720256 
L 97.405788 34.537142 
L 97.388978 34.47441 
L 75.508928 40.337152 
L 75.525737 40.399884 
L 75.574801 40.582998 
L 75.652147 40.871659 
L 75.751509 41.242481 
L 75.864835 41.665422 
L 75.982946 42.106219 
L 76.096273 42.52916 
L 76.195635 42.899982 
L 76.272982 43.188643 
L 76.322047 43.371756 
L 76.338857 43.434488 
z
" clip-path="url(#pc60e6f0d8f)" style="fill: #808080; stroke: #262626"/>
    <path d="M 111.414433 34.25567 
L 111.387741 33.644322 
L 111.307868 33.037627 
L 111.175422 32.440201 
L 110.991411 31.856593 
L 110.757235 31.291243 
L 110.474677 30.748454 
L 110.145887 30.232357 
L 109.773367 29.746879 
L 109.359953 29.295717 
L 108.908791 28.882303 
L 108.423313 28.509783 
L 107.907216 28.180993 
L 107.364427 27.898435 
L 106.799077 27.664259 
L 106.215469 27.480248 
L 105.618044 27.347802 
L 105.011348 27.267929 
L 104.4 27.241237 
L 103.788652 27.267929 
L 103.181956 27.347802 
L 102.584531 27.480248 
L 102.000923 27.664259 
L 101.435573 27.898435 
L 100.892784 28.180993 
L 100.376687 28.509783 
L 99.891209 28.882303 
L 99.440047 29.295717 
L 99.026633 29.746879 
L 98.654113 30.232357 
L 98.325323 30.748454 
L 98.042765 31.291243 
L 97.808589 31.856593 
L 97.624578 32.440201 
L 97.492132 33.037627 
L 97.412259 33.644322 
L 97.385567 34.25567 
L 97.412259 34.867018 
L 97.492132 35.473714 
L 97.624578 36.071139 
L 97.808589 36.654747 
L 98.042765 37.220098 
L 98.325323 37.762887 
L 98.654113 38.278984 
L 99.026633 38.764461 
L 99.440047 39.215623 
L 99.891209 39.629038 
L 100.376687 40.001557 
L 100.892784 40.330347 
L 101.435573 40.612905 
L 102.000923 40.847081 
L 102.584531 41.031092 
L 103.181956 41.163538 
L 103.788652 41.243411 
L 104.4 41.270103 
L 105.011348 41.243411 
L 105.618044 41.163538 
L 106.215469 41.031092 
L 106.799077 40.847081 
L 107.364427 40.612905 
L 107.907216 40.330347 
L 108.423313 40.001557 
L 108.908791 39.629038 
L 109.359953 39.215623 
L 109.773367 38.764461 
L 110.145887 38.278984 
L 110.474677 37.762887 
L 110.757235 37.220098 
L 110.991411 36.654747 
L 111.175422 36.071139 
L 111.307868 35.473714 
L 111.387741 34.867018 
L 111.414433 34.25567 
z
" clip-path="url(#pc60e6f0d8f)" style="fill: #66c2a5; stroke: #262626"/>
    <path d="M 132.461143 43.434488 
L 132.477953 43.371756 
L 132.527018 43.188643 
L 132.604365 42.899982 
L 132.703727 42.52916 
L 132.817054 42.106219 
L 132.935165 41.665422 
L 133.048491 41.242481 
L 133.147853 40.871659 
L 133.225199 40.582998 
L 133.274263 40.399884 
L 133.291072 40.337152 
L 111.411022 34.47441 
L 111.394212 34.537142 
L 111.345147 34.720256 
L 111.2678 35.008916 
L 111.168438 35.379738 
L 111.055111 35.80268 
L 110.937 36.243476 
L 110.823674 36.666418 
L 110.724312 37.03724 
L 110.646966 37.3259 
L 110.597901 37.509014 
L 110.581093 37.571746 
z
" clip-path="url(#pc60e6f0d8f)" style="fill: #808080; stroke: #262626"/>
    <path d="M 146.486598 43.653228 
L 146.459906 43.04188 
L 146.380033 42.435185 
L 146.247587 41.83776 
L 146.063576 41.254151 
L 145.8294 40.688801 
L 145.546842 40.146012 
L 145.218052 39.629915 
L 144.845532 39.144438 
L 144.432118 38.693275 
L 143.980956 38.279861 
L 143.495478 37.907341 
L 142.979381 37.578551 
L 142.436592 37.295993 
L 141.871242 37.061817 
L 141.287634 36.877806 
L 140.690208 36.74536 
L 140.083513 36.665487 
L 139.472165 36.638795 
L 138.860817 36.665487 
L 138.254121 36.74536 
L 137.656696 36.877806 
L 137.073088 37.061817 
L 136.507737 37.295993 
L 135.964948 37.578551 
L 135.448851 37.907341 
L 134.963374 38.279861 
L 134.512212 38.693275 
L 134.098798 39.144438 
L 133.726278 39.629915 
L 133.397488 40.146012 
L 133.11493 40.688801 
L 132.880754 41.254151 
L 132.696743 41.83776 
L 132.564297 42.435185 
L 132.484424 43.04188 
L 132.457732 43.653228 
L 132.484424 44.264576 
L 132.564297 44.871272 
L 132.696743 45.468697 
L 132.880754 46.052306 
L 133.11493 46.617656 
L 133.397488 47.160445 
L 133.726278 47.676542 
L 134.098798 48.162019 
L 134.512212 48.613182 
L 134.963374 49.026596 
L 135.448851 49.399116 
L 135.964948 49.727906 
L 136.507737 50.010464 
L 137.073088 50.244639 
L 137.656696 50.42865 
L 138.254121 50.561096 
L 138.860817 50.640969 
L 139.472165 50.667661 
L 140.083513 50.640969 
L 140.690208 50.561096 
L 141.287634 50.42865 
L 141.871242 50.244639 
L 142.436592 50.010464 
L 142.979381 49.727906 
L 143.495478 49.399116 
L 143.980956 49.026596 
L 144.432118 48.613182 
L 144.845532 48.162019 
L 145.218052 47.676542 
L 145.546842 47.160445 
L 145.8294 46.617656 
L 146.063576 46.052306 
L 146.247587 45.468697 
L 146.380033 44.871272 
L 146.459906 44.264576 
L 146.486598 43.653228 
z
" clip-path="url(#pc60e6f0d8f)" style="fill: #b3b3b3; stroke: #262626"/>
    <path d="M 159.184419 65.63289 
L 159.230342 65.586967 
L 159.364391 65.452919 
L 159.575705 65.241605 
L 159.847166 64.970144 
L 160.156781 64.66053 
L 160.479466 64.337844 
L 160.789081 64.028229 
L 161.060541 63.756769 
L 161.271855 63.545454 
L 161.405904 63.411406 
L 161.451826 63.365482 
L 145.434518 47.348174 
L 145.388594 47.394096 
L 145.254546 47.528145 
L 145.043231 47.739459 
L 144.771771 48.010919 
L 144.462156 48.320534 
L 144.13947 48.643219 
L 143.829856 48.952834 
L 143.558395 49.224295 
L 143.347081 49.435609 
L 143.213033 49.569658 
L 143.16711 49.615581 
z
" clip-path="url(#pc60e6f0d8f)" style="fill: #808080; stroke: #262626"/>
    <path d="M 172.161205 69.327835 
L 172.134513 68.716487 
L 172.05464 68.109792 
L 171.922194 67.512366 
L 171.738183 66.928758 
L 171.504007 66.363408 
L 171.221449 65.820619 
L 170.892659 65.304522 
L 170.520139 64.819044 
L 170.106725 64.367882 
L 169.655562 63.954468 
L 169.170085 63.581948 
L 168.653988 63.253158 
L 168.111199 62.9706 
L 167.545849 62.736424 
L 166.96224 62.552413 
L 166.364815 62.419967 
L 165.75812 62.340094 
L 165.146772 62.313402 
L 164.535424 62.340094 
L 163.928728 62.419967 
L 163.331303 62.552413 
L 162.747694 62.736424 
L 162.182344 62.9706 
L 161.639555 63.253158 
L 161.123458 63.581948 
L 160.637981 63.954468 
L 160.186818 64.367882 
L 159.773404 64.819044 
L 159.400884 65.304522 
L 159.072094 65.820619 
L 158.789536 66.363408 
L 158.555361 66.928758 
L 158.37135 67.512366 
L 158.238904 68.109792 
L 158.159031 68.716487 
L 158.132339 69.327835 
L 158.159031 69.939183 
L 158.238904 70.545879 
L 158.37135 71.143304 
L 158.555361 71.726912 
L 158.789536 72.292263 
L 159.072094 72.835052 
L 159.400884 73.351149 
L 159.773404 73.836626 
L 160.186818 74.287788 
L 160.637981 74.701202 
L 161.123458 75.073722 
L 161.639555 75.402512 
L 162.182344 75.68507 
L 162.747694 75.919246 
L 163.331303 76.103257 
L 163.928728 76.235703 
L 164.535424 76.315576 
L 165.146772 76.342268 
L 165.75812 76.315576 
L 166.364815 76.235703 
L 166.96224 76.103257 
L 167.545849 75.919246 
L 168.111199 75.68507 
L 168.653988 75.402512 
L 169.170085 75.073722 
L 169.655562 74.701202 
L 170.106725 74.287788 
L 170.520139 73.836626 
L 170.892659 73.351149 
L 171.221449 72.835052 
L 171.504007 72.292263 
L 171.738183 71.726912 
L 171.922194 71.143304 
L 172.05464 70.545879 
L 172.134513 69.939183 
L 172.161205 69.327835 
z
" clip-path="url(#pc60e6f0d8f)" style="fill: #a6d854; stroke: #262626"/>
    <path d="M 110.095378 136.379726 
L 110.120231 136.439727 
L 110.192777 136.61487 
L 110.307139 136.890965 
L 110.454053 137.245646 
L 110.621615 137.650177 
L 110.796251 138.071786 
L 110.963813 138.476317 
L 111.110727 138.830997 
L 111.22509 139.107092 
L 111.297636 139.282235 
L 111.32249 139.342236 
L 124.212952 134.002832 
L 124.188099 133.94283 
L 124.115553 133.767687 
L 124.001191 133.491592 
L 123.854278 133.136912 
L 123.686716 132.732381 
L 123.512079 132.310771 
L 123.344517 131.90624 
L 123.197603 131.55156 
L 123.083241 131.275465 
L 123.010694 131.100322 
L 122.98584 131.040321 
z
" clip-path="url(#pc60e6f0d8f)" style="fill: #808080; stroke: #262626"/>
    <path d="M 111.414433 140.474227 
L 111.387741 139.862879 
L 111.307868 139.256183 
L 111.175422 138.658758 
L 110.991411 138.075149 
L 110.757235 137.509799 
L 110.474677 136.96701 
L 110.145887 136.450913 
L 109.773367 135.965436 
L 109.359953 135.514274 
L 108.908791 135.100859 
L 108.423313 134.72834 
L 107.907216 134.39955 
L 107.364427 134.116992 
L 106.799077 133.882816 
L 106.215469 133.698805 
L 105.618044 133.566359 
L 105.011348 133.486486 
L 104.4 133.459794 
L 103.788652 133.486486 
L 103.181956 133.566359 
L 102.584531 133.698805 
L 102.000923 133.882816 
L 101.435573 134.116992 
L 100.892784 134.39955 
L 100.376687 134.72834 
L 99.891209 135.100859 
L 99.440047 135.514274 
L 99.026633 135.965436 
L 98.654113 136.450913 
L 98.325323 136.96701 
L 98.042765 137.509799 
L 97.808589 138.075149 
L 97.624578 138.658758 
L 97.492132 139.256183 
L 97.412259 139.862879 
L 97.385567 140.474227 
L 97.412259 141.085575 
L 97.492132 141.69227 
L 97.624578 142.289696 
L 97.808589 142.873304 
L 98.042765 143.438654 
L 98.325323 143.981443 
L 98.654113 144.49754 
L 99.026633 144.983017 
L 99.440047 145.43418 
L 99.891209 145.847594 
L 100.376687 146.220114 
L 100.892784 146.548904 
L 101.435573 146.831462 
L 102.000923 147.065638 
L 102.584531 147.249649 
L 103.181956 147.382095 
L 103.788652 147.461968 
L 104.4 147.48866 
L 105.011348 147.461968 
L 105.618044 147.382095 
L 106.215469 147.249649 
L 106.799077 147.065638 
L 107.364427 146.831462 
L 107.907216 146.548904 
L 108.423313 146.220114 
L 108.908791 145.847594 
L 109.359953 145.43418 
L 109.773367 144.983017 
L 110.145887 144.49754 
L 110.474677 143.981443 
L 110.757235 143.438654 
L 110.991411 142.873304 
L 111.175422 142.289696 
L 111.307868 141.69227 
L 111.387741 141.085575 
L 111.414433 140.474227 
z
" clip-path="url(#pc60e6f0d8f)" style="fill: #c20325; stroke: #262626"/>
    <path d="M 136.922763 129.90833 
L 136.896071 129.296982 
L 136.816198 128.690287 
L 136.683752 128.092862 
L 136.499741 127.509253 
L 136.265566 126.943903 
L 135.983008 126.401114 
L 135.654218 125.885017 
L 135.281698 125.39954 
L 134.868284 124.948377 
L 134.417121 124.534963 
L 133.931644 124.162443 
L 133.415547 123.833653 
L 132.872758 123.551095 
L 132.307408 123.316919 
L 131.723799 123.132908 
L 131.126374 123.000462 
L 130.519679 122.920589 
L 129.90833 122.893897 
L 129.296982 122.920589 
L 128.690287 123.000462 
L 128.092862 123.132908 
L 127.509253 123.316919 
L 126.943903 123.551095 
L 126.401114 123.833653 
L 125.885017 124.162443 
L 125.39954 124.534963 
L 124.948377 124.948377 
L 124.534963 125.39954 
L 124.162443 125.885017 
L 123.833653 126.401114 
L 123.551095 126.943903 
L 123.316919 127.509253 
L 123.132908 128.092862 
L 123.000462 128.690287 
L 122.920589 129.296982 
L 122.893897 129.90833 
L 122.920589 130.519679 
L 123.000462 131.126374 
L 123.132908 131.723799 
L 123.316919 132.307408 
L 123.551095 132.872758 
L 123.833653 133.415547 
L 124.162443 133.931644 
L 124.534963 134.417121 
L 124.948377 134.868284 
L 125.39954 135.281698 
L 125.885017 135.654218 
L 126.401114 135.983008 
L 126.943903 136.265566 
L 127.509253 136.499741 
L 128.092862 136.683752 
L 128.690287 136.816198 
L 129.296982 136.896071 
L 129.90833 136.922763 
L 130.519679 136.896071 
L 131.126374 136.816198 
L 131.723799 136.683752 
L 132.307408 136.499741 
L 132.872758 136.265566 
L 133.415547 135.983008 
L 133.931644 135.654218 
L 134.417121 135.281698 
L 134.868284 134.868284 
L 135.281698 134.417121 
L 135.654218 133.931644 
L 135.983008 133.415547 
L 136.265566 132.872758 
L 136.499741 132.307408 
L 136.683752 131.723799 
L 136.816198 131.126374 
L 136.896071 130.519679 
L 136.922763 129.90833 
z
" clip-path="url(#pc60e6f0d8f)" style="fill: #800026; stroke: #262626"/>
   </g>
  </g>
 </g>
 <defs>
  <clipPath id="pc60e6f0d8f">
   <rect x="7.2" y="7.2" width="194.4" height="194.4"/>
  </clipPath>
 </defs>
</svg>
