<?xml version="1.0" encoding="utf-8" standalone="no"?>
<!DOCTYPE svg PUBLIC "-//W3C//DTD SVG 1.1//EN"
  "http://www.w3.org/Graphics/SVG/1.1/DTD/svg11.dtd">
<svg xmlns:xlink="http://www.w3.org/1999/xlink" width="208.8pt" height="208.8pt" viewBox="0 0 208.8 208.8" xmlns="http://www.w3.org/2000/svg" version="1.1">
 <metadata>
  <rdf:RDF xmlns:dc="http://purl.org/dc/elements/1.1/" xmlns:cc="http://creativecommons.org/ns#" xmlns:rdf="http://www.w3.org/1999/02/22-rdf-syntax-ns#">
   <cc:Work>
    <dc:type rdf:resource="http://purl.org/dc/dcmitype/StillImage"/>
    <dc:date>2026-02-21T07:19:36.375981</dc:date>
    <dc:format>image/svg+xml</dc:format>
    <dc:creator>
     <cc:Agent>
      <dc:title>Matplotlib v3.10.7, https://matplotlib.org/</dc:title>
     </cc:Agent>
    </dc:creator>
   </cc:Work>
  </rdf:RDF>
 </metadata>
 <defs>
  <style type="text/css">*{stroke-linejoin: round; stroke-linecap: butt}</style>
 </defs>
 <g id="figure_1">
  <g id="patch_1">
   <path d="M 0 208.8 
L 208.8 208.8 
L 208.8 0 
L 0 0 
z
" style="fill: #ffffff"/>
  </g>
  <g id="axes_1">
   <g id="PolyCollection_1">
    <path d="M 168.195894 97.281381 
L 168.266913 97.267255 
L 168.474215 97.226021 
L 168.801006 97.161018 
L 169.220811 97.077514 
L 169.699621 96.982273 
L 170.198645 96.883011 
L 170.677454 96.787769 
L 171.09726 96.704265 
L 171.424051 96.639262 
L 171.631352 96.598027 
L 171.702371 96.5839 
L 169.570375 85.865633 
L 169.499356 85.879759 
L 169.292054 85.920994 
L 168.965263 85.985996 
L 168.545458 86.0695 
L 168.066648 86.164742 
L 167.567625 86.264003 
L 167.088815 86.359245 
L 166.66901 86.442749 
L 166.342219 86.507752 
L 166.134917 86.548988 
L 166.063899 86.563114 
z
" clip-path="url(#pbf4d55e4bb)" style="fill: #808080; stroke: #262626"/>
    <path d="M 171.702371 112.2161 
L 171.631352 112.201973 
L 171.424051 112.160738 
L 171.09726 112.095735 
L 170.677454 112.012231 
L 170.198645 111.916989 
L 169.699621 111.817727 
L 169.220811 111.722486 
L 168.801006 111.638982 
L 168.474215 111.573979 
L 168.266913 111.532745 
L 168.195894 111.518619 
L 166.063899 122.236886 
L 166.134917 122.251012 
L 166.342219 122.292248 
L 166.66901 122.357251 
L 167.088815 122.440755 
L 167.567625 122.535997 
L 168.066648 122.635258 
L 168.545458 122.7305 
L 168.965263 122.814004 
L 169.292054 122.879006 
L 169.499356 122.920241 
L 169.570375 122.934367 
z
" clip-path="url(#pbf4d55e4bb)" style="fill: #808080; stroke: #262626"/>
    <path d="M 179.255172 104.4 
L 179.225412 103.718382 
L 179.136359 103.041951 
L 178.988689 102.375857 
L 178.783527 101.725167 
L 178.522435 101.094834 
L 178.207399 100.489655 
L 177.840817 99.914237 
L 177.425479 99.372958 
L 176.964545 98.869937 
L 176.461525 98.409004 
L 175.920246 97.993666 
L 175.344828 97.627084 
L 174.739649 97.312048 
L 174.109316 97.050956 
L 173.458626 96.845794 
L 172.792531 96.698124 
L 172.116101 96.60907 
L 171.434483 96.57931 
L 170.752865 96.60907 
L 170.076434 96.698124 
L 169.410339 96.845794 
L 168.759649 97.050956 
L 168.129316 97.312048 
L 167.524138 97.627084 
L 166.948719 97.993666 
L 166.40744 98.409004 
L 165.90442 98.869937 
L 165.443487 99.372958 
L 165.028149 99.914237 
L 164.661567 100.489655 
L 164.346531 101.094834 
L 164.085438 101.725167 
L 163.880277 102.375857 
L 163.732607 103.041951 
L 163.643553 103.718382 
L 163.613793 104.4 
L 163.643553 105.081618 
L 163.732607 105.758049 
L 163.880277 106.424143 
L 164.085438 107.074833 
L 164.346531 107.705166 
L 164.661567 108.310345 
L 165.028149 108.885763 
L 165.443487 109.427042 
L 165.90442 109.930063 
L 166.40744 110.390996 
L 166.948719 110.806334 
L 167.524138 111.172916 
L 168.129316 111.487952 
L 168.759649 111.749044 
L 169.410339 111.954206 
L 170.076434 112.101876 
L 170.752865 112.19093 
L 171.434483 112.22069 
L 172.116101 112.19093 
L 172.792531 112.101876 
L 173.458626 111.954206 
L 174.109316 111.749044 
L 174.739649 111.487952 
L 175.344828 111.172916 
L 175.920246 110.806334 
L 176.461525 110.390996 
L 176.964545 109.930063 
L 177.425479 109.427042 
L 177.840817 108.885763 
L 178.207399 108.310345 
L 178.522435 107.705166 
L 178.783527 107.074833 
L 178.988689 106.424143 
L 179.136359 105.758049 
L 179.225412 105.081618 
L 179.255172 104.4 
z
" clip-path="url(#pbf4d55e4bb)" style="fill: #ff0000; stroke: #262626"/>
    <path d="M 160.615544 73.409622 
L 160.67575 73.369394 
L 160.851493 73.251967 
L 161.128533 73.066855 
L 161.484427 72.829054 
L 161.890342 72.55783 
L 162.313394 72.275156 
L 162.719309 72.003932 
L 163.075203 71.766131 
L 163.352243 71.581019 
L 163.527984 71.463592 
L 163.588191 71.423363 
L 157.51678 62.336855 
L 157.456574 62.377083 
L 157.280831 62.49451 
L 157.003791 62.679622 
L 156.647897 62.917423 
L 156.241982 63.188646 
L 155.81893 63.471321 
L 155.413015 63.742545 
L 155.057121 63.980345 
L 154.780081 64.165458 
L 154.604339 64.282885 
L 154.544133 64.323114 
z
" clip-path="url(#pbf4d55e4bb)" style="fill: #808080; stroke: #262626"/>
    <path d="M 174.152476 78.747014 
L 174.122716 78.065396 
L 174.033662 77.388966 
L 173.885993 76.722871 
L 173.680831 76.072181 
L 173.419739 75.441848 
L 173.104703 74.836669 
L 172.738121 74.261251 
L 172.322782 73.719972 
L 171.861849 73.216951 
L 171.358829 72.756018 
L 170.81755 72.34068 
L 170.242131 71.974098 
L 169.636953 71.659062 
L 169.00662 71.39797 
L 168.35593 71.192808 
L 167.689835 71.045138 
L 167.013405 70.956084 
L 166.331787 70.926324 
L 165.650169 70.956084 
L 164.973738 71.045138 
L 164.307643 71.192808 
L 163.656953 71.39797 
L 163.02662 71.659062 
L 162.421442 71.974098 
L 161.846023 72.34068 
L 161.304744 72.756018 
L 160.801724 73.216951 
L 160.340791 73.719972 
L 159.925453 74.261251 
L 159.558871 74.836669 
L 159.243835 75.441848 
L 158.982742 76.072181 
L 158.77758 76.722871 
L 158.629911 77.388966 
L 158.540857 78.065396 
L 158.511097 78.747014 
L 158.540857 79.428632 
L 158.629911 80.105063 
L 158.77758 80.771157 
L 158.982742 81.421847 
L 159.243835 82.05218 
L 159.558871 82.657359 
L 159.925453 83.232777 
L 160.340791 83.774056 
L 160.801724 84.277077 
L 161.304744 84.73801 
L 161.846023 85.153348 
L 162.421442 85.51993 
L 163.02662 85.834966 
L 163.656953 86.096058 
L 164.307643 86.30122 
L 164.973738 86.44889 
L 165.650169 86.537944 
L 166.331787 86.567704 
L 167.013405 86.537944 
L 167.689835 86.44889 
L 168.35593 86.30122 
L 169.00662 86.096058 
L 169.636953 85.834966 
L 170.242131 85.51993 
L 170.81755 85.153348 
L 171.358829 84.73801 
L 171.861849 84.277077 
L 172.322782 83.774056 
L 172.738121 83.232777 
L 173.104703 82.657359 
L 173.419739 82.05218 
L 173.680831 81.421847 
L 173.885993 80.771157 
L 174.033662 80.105063 
L 174.122716 79.428632 
L 174.152476 78.747014 
z
" clip-path="url(#pbf4d55e4bb)" style="fill: #ee0011; stroke: #262626"/>
    <path d="M 144.476886 54.255867 
L 144.517115 54.195661 
L 144.634542 54.019919 
L 144.819655 53.742879 
L 145.057455 53.386985 
L 145.328679 52.98107 
L 145.611354 52.558018 
L 145.882577 52.152103 
L 146.120378 51.796209 
L 146.30549 51.519169 
L 146.422917 51.343426 
L 146.463145 51.28322 
L 137.376637 45.211809 
L 137.336408 45.272016 
L 137.218981 45.447757 
L 137.033869 45.724797 
L 136.796068 46.080691 
L 136.524844 46.486606 
L 136.24217 46.909658 
L 135.970946 47.315573 
L 135.733145 47.671467 
L 135.548033 47.948507 
L 135.430606 48.12425 
L 135.390378 48.184456 
z
" clip-path="url(#pbf4d55e4bb)" style="fill: #808080; stroke: #262626"/>
    <path d="M 159.621227 56.999463 
L 159.591467 56.317845 
L 159.502413 55.641414 
L 159.354743 54.975319 
L 159.149582 54.324629 
L 158.888489 53.694296 
L 158.573453 53.089118 
L 158.206871 52.513699 
L 157.791533 51.97242 
L 157.3306 51.4694 
L 156.82758 51.008467 
L 156.286301 50.593129 
L 155.710882 50.226547 
L 155.105704 49.911511 
L 154.475371 49.650418 
L 153.824681 49.445257 
L 153.158586 49.297587 
L 152.482155 49.208533 
L 151.800537 49.178773 
L 151.118919 49.208533 
L 150.442489 49.297587 
L 149.776394 49.445257 
L 149.125704 49.650418 
L 148.495371 49.911511 
L 147.890193 50.226547 
L 147.314774 50.593129 
L 146.773495 51.008467 
L 146.270475 51.4694 
L 145.809541 51.97242 
L 145.394203 52.513699 
L 145.027621 53.089118 
L 144.712585 53.694296 
L 144.451493 54.324629 
L 144.246331 54.975319 
L 144.098662 55.641414 
L 144.009608 56.317845 
L 143.979848 56.999463 
L 144.009608 57.681081 
L 144.098662 58.357511 
L 144.246331 59.023606 
L 144.451493 59.674296 
L 144.712585 60.304629 
L 145.027621 60.909807 
L 145.394203 61.485226 
L 145.809541 62.026505 
L 146.270475 62.529525 
L 146.773495 62.990459 
L 147.314774 63.405797 
L 147.890193 63.772379 
L 148.495371 64.087415 
L 149.125704 64.348507 
L 149.776394 64.553669 
L 150.442489 64.701338 
L 151.118919 64.790392 
L 151.800537 64.820152 
L 152.482155 64.790392 
L 153.158586 64.701338 
L 153.824681 64.553669 
L 154.475371 64.348507 
L 155.105704 64.087415 
L 155.710882 63.772379 
L 156.286301 63.405797 
L 156.82758 62.990459 
L 157.3306 62.529525 
L 157.791533 62.026505 
L 158.206871 61.485226 
L 158.573453 60.909807 
L 158.888489 60.304629 
L 159.149582 59.674296 
L 159.354743 59.023606 
L 159.502413 58.357511 
L 159.591467 57.681081 
L 159.621227 56.999463 
z
" clip-path="url(#pbf4d55e4bb)" style="fill: #dd0022; stroke: #262626"/>
    <path d="M 122.236886 42.736101 
L 122.251012 42.665083 
L 122.292248 42.457781 
L 122.357251 42.13099 
L 122.440755 41.711185 
L 122.535997 41.232375 
L 122.635258 40.733352 
L 122.7305 40.254542 
L 122.814004 39.834737 
L 122.879006 39.507946 
L 122.920241 39.300644 
L 122.934367 39.229625 
L 112.2161 37.097629 
L 112.201973 37.168648 
L 112.160738 37.375949 
L 112.095735 37.70274 
L 112.012231 38.122546 
L 111.916989 38.601355 
L 111.817727 39.100379 
L 111.722486 39.579189 
L 111.638982 39.998994 
L 111.573979 40.325785 
L 111.532745 40.533087 
L 111.518619 40.604106 
z
" clip-path="url(#pbf4d55e4bb)" style="fill: #808080; stroke: #262626"/>
    <path d="M 137.873676 42.468213 
L 137.843916 41.786595 
L 137.754862 41.110165 
L 137.607192 40.44407 
L 137.40203 39.79338 
L 137.140938 39.163047 
L 136.825902 38.557869 
L 136.45932 37.98245 
L 136.043982 37.441171 
L 135.583049 36.938151 
L 135.080028 36.477218 
L 134.538749 36.061879 
L 133.963331 35.695297 
L 133.358152 35.380261 
L 132.727819 35.119169 
L 132.077129 34.914007 
L 131.411034 34.766338 
L 130.734604 34.677284 
L 130.052986 34.647524 
L 129.371368 34.677284 
L 128.694937 34.766338 
L 128.028843 34.914007 
L 127.378153 35.119169 
L 126.74782 35.380261 
L 126.142641 35.695297 
L 125.567223 36.061879 
L 125.025944 36.477218 
L 124.522923 36.938151 
L 124.06199 37.441171 
L 123.646652 37.98245 
L 123.28007 38.557869 
L 122.965034 39.163047 
L 122.703942 39.79338 
L 122.49878 40.44407 
L 122.35111 41.110165 
L 122.262056 41.786595 
L 122.232296 42.468213 
L 122.262056 43.149831 
L 122.35111 43.826262 
L 122.49878 44.492357 
L 122.703942 45.143047 
L 122.965034 45.77338 
L 123.28007 46.378558 
L 123.646652 46.953977 
L 124.06199 47.495256 
L 124.522923 47.998276 
L 125.025944 48.459209 
L 125.567223 48.874547 
L 126.142641 49.241129 
L 126.74782 49.556165 
L 127.378153 49.817258 
L 128.028843 50.02242 
L 128.694937 50.170089 
L 129.371368 50.259143 
L 130.052986 50.288903 
L 130.734604 50.259143 
L 131.411034 50.170089 
L 132.077129 50.02242 
L 132.727819 49.817258 
L 133.358152 49.556165 
L 133.963331 49.241129 
L 134.538749 48.874547 
L 135.080028 48.459209 
L 135.583049 47.998276 
L 136.043982 47.495256 
L 136.45932 46.953977 
L 136.825902 46.378558 
L 137.140938 45.77338 
L 137.40203 45.143047 
L 137.607192 44.492357 
L 137.754862 43.826262 
L 137.843916 43.149831 
L 137.873676 42.468213 
z
" clip-path="url(#pbf4d55e4bb)" style="fill: #cc0033; stroke: #262626"/>
    <path d="M 97.281381 40.604106 
L 97.267255 40.533087 
L 97.226021 40.325785 
L 97.161018 39.998994 
L 97.077514 39.579189 
L 96.982273 39.100379 
L 96.883011 38.601355 
L 96.787769 38.122546 
L 96.704265 37.70274 
L 96.639262 37.375949 
L 96.598027 37.168648 
L 96.5839 37.097629 
L 85.865633 39.229625 
L 85.879759 39.300644 
L 85.920994 39.507946 
L 85.985996 39.834737 
L 86.0695 40.254542 
L 86.164742 40.733352 
L 86.264003 41.232375 
L 86.359245 41.711185 
L 86.442749 42.13099 
L 86.507752 42.457781 
L 86.548988 42.665083 
L 86.563114 42.736101 
z
" clip-path="url(#pbf4d55e4bb)" style="fill: #808080; stroke: #262626"/>
    <path d="M 112.22069 37.365517 
L 112.19093 36.683899 
L 112.101876 36.007469 
L 111.954206 35.341374 
L 111.749044 34.690684 
L 111.487952 34.060351 
L 111.172916 33.455172 
L 110.806334 32.879754 
L 110.390996 32.338475 
L 109.930063 31.835455 
L 109.427042 31.374521 
L 108.885763 30.959183 
L 108.310345 30.592601 
L 107.705166 30.277565 
L 107.074833 30.016473 
L 106.424143 29.811311 
L 105.758049 29.663641 
L 105.081618 29.574588 
L 104.4 29.544828 
L 103.718382 29.574588 
L 103.041951 29.663641 
L 102.375857 29.811311 
L 101.725167 30.016473 
L 101.094834 30.277565 
L 100.489655 30.592601 
L 99.914237 30.959183 
L 99.372958 31.374521 
L 98.869937 31.835455 
L 98.409004 32.338475 
L 97.993666 32.879754 
L 97.627084 33.455172 
L 97.312048 34.060351 
L 97.050956 34.690684 
L 96.845794 35.341374 
L 96.698124 36.007469 
L 96.60907 36.683899 
L 96.57931 37.365517 
L 96.60907 38.047135 
L 96.698124 38.723566 
L 96.845794 39.389661 
L 97.050956 40.040351 
L 97.312048 40.670684 
L 97.627084 41.275862 
L 97.993666 41.851281 
L 98.409004 42.39256 
L 98.869937 42.89558 
L 99.372958 43.356513 
L 99.914237 43.771851 
L 100.489655 44.138433 
L 101.094834 44.453469 
L 101.725167 44.714562 
L 102.375857 44.919723 
L 103.041951 45.067393 
L 103.718382 45.156447 
L 104.4 45.186207 
L 105.081618 45.156447 
L 105.758049 45.067393 
L 106.424143 44.919723 
L 107.074833 44.714562 
L 107.705166 44.453469 
L 108.310345 44.138433 
L 108.885763 43.771851 
L 109.427042 43.356513 
L 109.930063 42.89558 
L 110.390996 42.39256 
L 110.806334 41.851281 
L 111.172916 41.275862 
L 111.487952 40.670684 
L 111.749044 40.040351 
L 111.954206 39.389661 
L 112.101876 38.723566 
L 112.19093 38.047135 
L 112.22069 37.365517 
z
" clip-path="url(#pbf4d55e4bb)" style="fill: #bb0044; stroke: #262626"/>
    <path d="M 73.409622 48.184456 
L 73.369394 48.12425 
L 73.251967 47.948507 
L 73.066855 47.671467 
L 72.829054 47.315573 
L 72.55783 46.909658 
L 72.275156 46.486606 
L 72.003932 46.080691 
L 71.766131 45.724797 
L 71.581019 45.447757 
L 71.463592 45.272016 
L 71.423363 45.211809 
L 62.336855 51.28322 
L 62.377083 51.343426 
L 62.49451 51.519169 
L 62.679622 51.796209 
L 62.917423 52.152103 
L 63.188646 52.558018 
L 63.471321 52.98107 
L 63.742545 53.386985 
L 63.980345 53.742879 
L 64.165458 54.019919 
L 64.282885 54.195661 
L 64.323114 54.255867 
z
" clip-path="url(#pbf4d55e4bb)" style="fill: #808080; stroke: #262626"/>
    <path d="M 86.567704 42.468213 
L 86.537944 41.786595 
L 86.44889 41.110165 
L 86.30122 40.44407 
L 86.096058 39.79338 
L 85.834966 39.163047 
L 85.51993 38.557869 
L 85.153348 37.98245 
L 84.73801 37.441171 
L 84.277077 36.938151 
L 83.774056 36.477218 
L 83.232777 36.061879 
L 82.657359 35.695297 
L 82.05218 35.380261 
L 81.421847 35.119169 
L 80.771157 34.914007 
L 80.105063 34.766338 
L 79.428632 34.677284 
L 78.747014 34.647524 
L 78.065396 34.677284 
L 77.388966 34.766338 
L 76.722871 34.914007 
L 76.072181 35.119169 
L 75.441848 35.380261 
L 74.836669 35.695297 
L 74.261251 36.061879 
L 73.719972 36.477218 
L 73.216951 36.938151 
L 72.756018 37.441171 
L 72.34068 37.98245 
L 71.974098 38.557869 
L 71.659062 39.163047 
L 71.39797 39.79338 
L 71.192808 40.44407 
L 71.045138 41.110165 
L 70.956084 41.786595 
L 70.926324 42.468213 
L 70.956084 43.149831 
L 71.045138 43.826262 
L 71.192808 44.492357 
L 71.39797 45.143047 
L 71.659062 45.77338 
L 71.974098 46.378558 
L 72.34068 46.953977 
L 72.756018 47.495256 
L 73.216951 47.998276 
L 73.719972 48.459209 
L 74.261251 48.874547 
L 74.836669 49.241129 
L 75.441848 49.556165 
L 76.072181 49.817258 
L 76.722871 50.02242 
L 77.388966 50.170089 
L 78.065396 50.259143 
L 78.747014 50.288903 
L 79.428632 50.259143 
L 80.105063 50.170089 
L 80.771157 50.02242 
L 81.421847 49.817258 
L 82.05218 49.556165 
L 82.657359 49.241129 
L 83.232777 48.874547 
L 83.774056 48.459209 
L 84.277077 47.998276 
L 84.73801 47.495256 
L 85.153348 46.953977 
L 85.51993 46.378558 
L 85.834966 45.77338 
L 86.096058 45.143047 
L 86.30122 44.492357 
L 86.44889 43.826262 
L 86.537944 43.149831 
L 86.567704 42.468213 
z
" clip-path="url(#pbf4d55e4bb)" style="fill: #aa0055; stroke: #262626"/>
    <path d="M 54.255867 64.323114 
L 54.195661 64.282885 
L 54.019919 64.165458 
L 53.742879 63.980345 
L 53.386985 63.742545 
L 52.98107 63.471321 
L 52.558018 63.188646 
L 52.152103 62.917423 
L 51.796209 62.679622 
L 51.519169 62.49451 
L 51.343426 62.377083 
L 51.28322 62.336855 
L 45.211809 71.423363 
L 45.272016 71.463592 
L 45.447757 71.581019 
L 45.724797 71.766131 
L 46.080691 72.003932 
L 46.486606 72.275156 
L 46.909658 72.55783 
L 47.315573 72.829054 
L 47.671467 73.066855 
L 47.948507 73.251967 
L 48.12425 73.369394 
L 48.184456 73.409622 
z
" clip-path="url(#pbf4d55e4bb)" style="fill: #808080; stroke: #262626"/>
    <path d="M 64.820152 56.999463 
L 64.790392 56.317845 
L 64.701338 55.641414 
L 64.553669 54.975319 
L 64.348507 54.324629 
L 64.087415 53.694296 
L 63.772379 53.089118 
L 63.405797 52.513699 
L 62.990459 51.97242 
L 62.529525 51.4694 
L 62.026505 51.008467 
L 61.485226 50.593129 
L 60.909807 50.226547 
L 60.304629 49.911511 
L 59.674296 49.650418 
L 59.023606 49.445257 
L 58.357511 49.297587 
L 57.681081 49.208533 
L 56.999463 49.178773 
L 56.317845 49.208533 
L 55.641414 49.297587 
L 54.975319 49.445257 
L 54.324629 49.650418 
L 53.694296 49.911511 
L 53.089118 50.226547 
L 52.513699 50.593129 
L 51.97242 51.008467 
L 51.4694 51.4694 
L 51.008467 51.97242 
L 50.593129 52.513699 
L 50.226547 53.089118 
L 49.911511 53.694296 
L 49.650418 54.324629 
L 49.445257 54.975319 
L 49.297587 55.641414 
L 49.208533 56.317845 
L 49.178773 56.999463 
L 49.208533 57.681081 
L 49.297587 58.357511 
L 49.445257 59.023606 
L 49.650418 59.674296 
L 49.911511 60.304629 
L 50.226547 60.909807 
L 50.593129 61.485226 
L 51.008467 62.026505 
L 51.4694 62.529525 
L 51.97242 62.990459 
L 52.513699 63.405797 
L 53.089118 63.772379 
L 53.694296 64.087415 
L 54.324629 64.348507 
L 54.975319 64.553669 
L 55.641414 64.701338 
L 56.317845 64.790392 
L 56.999463 64.820152 
L 57.681081 64.790392 
L 58.357511 64.701338 
L 59.023606 64.553669 
L 59.674296 64.348507 
L 60.304629 64.087415 
L 60.909807 63.772379 
L 61.485226 63.405797 
L 62.026505 62.990459 
L 62.529525 62.529525 
L 62.990459 62.026505 
L 63.405797 61.485226 
L 63.772379 60.909807 
L 64.087415 60.304629 
L 64.348507 59.674296 
L 64.553669 59.023606 
L 64.701338 58.357511 
L 64.790392 57.681081 
L 64.820152 56.999463 
z
" clip-path="url(#pbf4d55e4bb)" style="fill: #990066; stroke: #262626"/>
    <path d="M 42.736101 86.563114 
L 42.665083 86.548988 
L 42.457781 86.507752 
L 42.13099 86.442749 
L 41.711185 86.359245 
L 41.232375 86.264003 
L 40.733352 86.164742 
L 40.254542 86.0695 
L 39.834737 85.985996 
L 39.507946 85.920994 
L 39.300644 85.879759 
L 39.229625 85.865633 
L 37.097629 96.5839 
L 37.168648 96.598027 
L 37.375949 96.639262 
L 37.70274 96.704265 
L 38.122546 96.787769 
L 38.601355 96.883011 
L 39.100379 96.982273 
L 39.579189 97.077514 
L 39.998994 97.161018 
L 40.325785 97.226021 
L 40.533087 97.267255 
L 40.604106 97.281381 
z
" clip-path="url(#pbf4d55e4bb)" style="fill: #808080; stroke: #262626"/>
    <path d="M 50.288903 78.747014 
L 50.259143 78.065396 
L 50.170089 77.388966 
L 50.02242 76.722871 
L 49.817258 76.072181 
L 49.556165 75.441848 
L 49.241129 74.836669 
L 48.874547 74.261251 
L 48.459209 73.719972 
L 47.998276 73.216951 
L 47.495256 72.756018 
L 46.953977 72.34068 
L 46.378558 71.974098 
L 45.77338 71.659062 
L 45.143047 71.39797 
L 44.492357 71.192808 
L 43.826262 71.045138 
L 43.149831 70.956084 
L 42.468213 70.926324 
L 41.786595 70.956084 
L 41.110165 71.045138 
L 40.44407 71.192808 
L 39.79338 71.39797 
L 39.163047 71.659062 
L 38.557869 71.974098 
L 37.98245 72.34068 
L 37.441171 72.756018 
L 36.938151 73.216951 
L 36.477218 73.719972 
L 36.061879 74.261251 
L 35.695297 74.836669 
L 35.380261 75.441848 
L 35.119169 76.072181 
L 34.914007 76.722871 
L 34.766338 77.388966 
L 34.677284 78.065396 
L 34.647524 78.747014 
L 34.677284 79.428632 
L 34.766338 80.105063 
L 34.914007 80.771157 
L 35.119169 81.421847 
L 35.380261 82.05218 
L 35.695297 82.657359 
L 36.061879 83.232777 
L 36.477218 83.774056 
L 36.938151 84.277077 
L 37.441171 84.73801 
L 37.98245 85.153348 
L 38.557869 85.51993 
L 39.163047 85.834966 
L 39.79338 86.096058 
L 40.44407 86.30122 
L 41.110165 86.44889 
L 41.786595 86.537944 
L 42.468213 86.567704 
L 43.149831 86.537944 
L 43.826262 86.44889 
L 44.492357 86.30122 
L 45.143047 86.096058 
L 45.77338 85.834966 
L 46.378558 85.51993 
L 46.953977 85.153348 
L 47.495256 84.73801 
L 47.998276 84.277077 
L 48.459209 83.774056 
L 48.874547 83.232777 
L 49.241129 82.657359 
L 49.556165 82.05218 
L 49.817258 81.421847 
L 50.02242 80.771157 
L 50.170089 80.105063 
L 50.259143 79.428632 
L 50.288903 78.747014 
z
" clip-path="url(#pbf4d55e4bb)" style="fill: #880077; stroke: #262626"/>
    <path d="M 40.604106 111.518619 
L 40.533087 111.532745 
L 40.325785 111.573979 
L 39.998994 111.638982 
L 39.579189 111.722486 
L 39.100379 111.817727 
L 38.601355 111.916989 
L 38.122546 112.012231 
L 37.70274 112.095735 
L 37.375949 112.160738 
L 37.168648 112.201973 
L 37.097629 112.2161 
L 39.229625 122.934367 
L 39.300644 122.920241 
L 39.507946 122.879006 
L 39.834737 122.814004 
L 40.254542 122.7305 
L 40.733352 122.635258 
L 41.232375 122.535997 
L 41.711185 122.440755 
L 42.13099 122.357251 
L 42.457781 122.292248 
L 42.665083 122.251012 
L 42.736101 122.236886 
z
" clip-path="url(#pbf4d55e4bb)" style="fill: #808080; stroke: #262626"/>
    <path d="M 45.186207 104.4 
L 45.156447 103.718382 
L 45.067393 103.041951 
L 44.919723 102.375857 
L 44.714562 101.725167 
L 44.453469 101.094834 
L 44.138433 100.489655 
L 43.771851 99.914237 
L 43.356513 99.372958 
L 42.89558 98.869937 
L 42.39256 98.409004 
L 41.851281 97.993666 
L 41.275862 97.627084 
L 40.670684 97.312048 
L 40.040351 97.050956 
L 39.389661 96.845794 
L 38.723566 96.698124 
L 38.047135 96.60907 
L 37.365517 96.57931 
L 36.683899 96.60907 
L 36.007469 96.698124 
L 35.341374 96.845794 
L 34.690684 97.050956 
L 34.060351 97.312048 
L 33.455172 97.627084 
L 32.879754 97.993666 
L 32.338475 98.409004 
L 31.835455 98.869937 
L 31.374521 99.372958 
L 30.959183 99.914237 
L 30.592601 100.489655 
L 30.277565 101.094834 
L 30.016473 101.725167 
L 29.811311 102.375857 
L 29.663641 103.041951 
L 29.574588 103.718382 
L 29.544828 104.4 
L 29.574588 105.081618 
L 29.663641 105.758049 
L 29.811311 106.424143 
L 30.016473 107.074833 
L 30.277565 107.705166 
L 30.592601 108.310345 
L 30.959183 108.885763 
L 31.374521 109.427042 
L 31.835455 109.930063 
L 32.338475 110.390996 
L 32.879754 110.806334 
L 33.455172 111.172916 
L 34.060351 111.487952 
L 34.690684 111.749044 
L 35.341374 111.954206 
L 36.007469 112.101876 
L 36.683899 112.19093 
L 37.365517 112.22069 
L 38.047135 112.19093 
L 38.723566 112.101876 
L 39.389661 111.954206 
L 40.040351 111.749044 
L 40.670684 111.487952 
L 41.275862 111.172916 
L 41.851281 110.806334 
L 42.39256 110.390996 
L 42.89558 109.930063 
L 43.356513 109.427042 
L 43.771851 108.885763 
L 44.138433 108.310345 
L 44.453469 107.705166 
L 44.714562 107.074833 
L 44.919723 106.424143 
L 45.067393 105.758049 
L 45.156447 105.081618 
L 45.186207 104.4 
z
" clip-path="url(#pbf4d55e4bb)" style="fill: #770088; stroke: #262626"/>
    <path d="M 48.184456 135.390378 
L 48.12425 135.430606 
L 47.948507 135.548033 
L 47.671467 135.733145 
L 47.315573 135.970946 
L 46.909658 136.24217 
L 46.486606 136.524844 
L 46.080691 136.796068 
L 45.724797 137.033869 
L 45.447757 137.218981 
L 45.272016 137.336408 
L 45.211809 137.376637 
L 51.28322 146.463145 
L 51.343426 146.422917 
L 51.519169 146.30549 
L 51.796209 146.120378 
L 52.152103 145.882577 
L 52.558018 145.611354 
L 52.98107 145.328679 
L 53.386985 145.057455 
L 53.742879 144.819655 
L 54.019919 144.634542 
L 54.195661 144.517115 
L 54.255867 144.476886 
z
" clip-path="url(#pbf4d55e4bb)" style="fill: #808080; stroke: #262626"/>
    <path d="M 50.288903 130.052986 
L 50.259143 129.371368 
L 50.170089 128.694937 
L 50.02242 128.028843 
L 49.817258 127.378153 
L 49.556165 126.74782 
L 49.241129 126.142641 
L 48.874547 125.567223 
L 48.459209 125.025944 
L 47.998276 124.522923 
L 47.495256 124.06199 
L 46.953977 123.646652 
L 46.378558 123.28007 
L 45.77338 122.965034 
L 45.143047 122.703942 
L 44.492357 122.49878 
L 43.826262 122.35111 
L 43.149831 122.262056 
L 42.468213 122.232296 
L 41.786595 122.262056 
L 41.110165 122.35111 
L 40.44407 122.49878 
L 39.79338 122.703942 
L 39.163047 122.965034 
L 38.557869 123.28007 
L 37.98245 123.646652 
L 37.441171 124.06199 
L 36.938151 124.522923 
L 36.477218 125.025944 
L 36.061879 125.567223 
L 35.695297 126.142641 
L 35.380261 126.74782 
L 35.119169 127.378153 
L 34.914007 128.028843 
L 34.766338 128.694937 
L 34.677284 129.371368 
L 34.647524 130.052986 
L 34.677284 130.734604 
L 34.766338 131.411034 
L 34.914007 132.077129 
L 35.119169 132.727819 
L 35.380261 133.358152 
L 35.695297 133.963331 
L 36.061879 134.538749 
L 36.477218 135.080028 
L 36.938151 135.583049 
L 37.441171 136.043982 
L 37.98245 136.45932 
L 38.557869 136.825902 
L 39.163047 137.140938 
L 39.79338 137.40203 
L 40.44407 137.607192 
L 41.110165 137.754862 
L 41.786595 137.843916 
L 42.468213 137.873676 
L 43.149831 137.843916 
L 43.826262 137.754862 
L 44.492357 137.607192 
L 45.143047 137.40203 
L 45.77338 137.140938 
L 46.378558 136.825902 
L 46.953977 136.45932 
L 47.495256 136.043982 
L 47.998276 135.583049 
L 48.459209 135.080028 
L 48.874547 134.538749 
L 49.241129 133.963331 
L 49.556165 133.358152 
L 49.817258 132.727819 
L 50.02242 132.077129 
L 50.170089 131.411034 
L 50.259143 130.734604 
L 50.288903 130.052986 
z
" clip-path="url(#pbf4d55e4bb)" style="fill: #660099; stroke: #262626"/>
    <path d="M 64.323114 154.544133 
L 64.282885 154.604339 
L 64.165458 154.780081 
L 63.980345 155.057121 
L 63.742545 155.413015 
L 63.471321 155.81893 
L 63.188646 156.241982 
L 62.917423 156.647897 
L 62.679622 157.003791 
L 62.49451 157.280831 
L 62.377083 157.456574 
L 62.336855 157.51678 
L 71.423363 163.588191 
L 71.463592 163.527984 
L 71.581019 163.352243 
L 71.766131 163.075203 
L 72.003932 162.719309 
L 72.275156 162.313394 
L 72.55783 161.890342 
L 72.829054 161.484427 
L 73.066855 161.128533 
L 73.251967 160.851493 
L 73.369394 160.67575 
L 73.409622 160.615544 
z
" clip-path="url(#pbf4d55e4bb)" style="fill: #808080; stroke: #262626"/>
    <path d="M 64.820152 151.800537 
L 64.790392 151.118919 
L 64.701338 150.442489 
L 64.553669 149.776394 
L 64.348507 149.125704 
L 64.087415 148.495371 
L 63.772379 147.890193 
L 63.405797 147.314774 
L 62.990459 146.773495 
L 62.529525 146.270475 
L 62.026505 145.809541 
L 61.485226 145.394203 
L 60.909807 145.027621 
L 60.304629 144.712585 
L 59.674296 144.451493 
L 59.023606 144.246331 
L 58.357511 144.098662 
L 57.681081 144.009608 
L 56.999463 143.979848 
L 56.317845 144.009608 
L 55.641414 144.098662 
L 54.975319 144.246331 
L 54.324629 144.451493 
L 53.694296 144.712585 
L 53.089118 145.027621 
L 52.513699 145.394203 
L 51.97242 145.809541 
L 51.4694 146.270475 
L 51.008467 146.773495 
L 50.593129 147.314774 
L 50.226547 147.890193 
L 49.911511 148.495371 
L 49.650418 149.125704 
L 49.445257 149.776394 
L 49.297587 150.442489 
L 49.208533 151.118919 
L 49.178773 151.800537 
L 49.208533 152.482155 
L 49.297587 153.158586 
L 49.445257 153.824681 
L 49.650418 154.475371 
L 49.911511 155.105704 
L 50.226547 155.710882 
L 50.593129 156.286301 
L 51.008467 156.82758 
L 51.4694 157.3306 
L 51.97242 157.791533 
L 52.513699 158.206871 
L 53.089118 158.573453 
L 53.694296 158.888489 
L 54.324629 159.149582 
L 54.975319 159.354743 
L 55.641414 159.502413 
L 56.317845 159.591467 
L 56.999463 159.621227 
L 57.681081 159.591467 
L 58.357511 159.502413 
L 59.023606 159.354743 
L 59.674296 159.149582 
L 60.304629 158.888489 
L 60.909807 158.573453 
L 61.485226 158.206871 
L 62.026505 157.791533 
L 62.529525 157.3306 
L 62.990459 156.82758 
L 63.405797 156.286301 
L 63.772379 155.710882 
L 64.087415 155.105704 
L 64.348507 154.475371 
L 64.553669 153.824681 
L 64.701338 153.158586 
L 64.790392 152.482155 
L 64.820152 151.800537 
z
" clip-path="url(#pbf4d55e4bb)" style="fill: #5500aa; stroke: #262626"/>
    <path d="M 86.563114 166.063899 
L 86.548988 166.134917 
L 86.507752 166.342219 
L 86.442749 166.66901 
L 86.359245 167.088815 
L 86.264003 167.567625 
L 86.164742 168.066648 
L 86.0695 168.545458 
L 85.985996 168.965263 
L 85.920994 169.292054 
L 85.879759 169.499356 
L 85.865633 169.570375 
L 96.5839 171.702371 
L 96.598027 171.631352 
L 96.639262 171.424051 
L 96.704265 171.09726 
L 96.787769 170.677454 
L 96.883011 170.198645 
L 96.982273 169.699621 
L 97.077514 169.220811 
L 97.161018 168.801006 
L 97.226021 168.474215 
L 97.267255 168.266913 
L 97.281381 168.195894 
z
" clip-path="url(#pbf4d55e4bb)" style="fill: #808080; stroke: #262626"/>
    <path d="M 86.567704 166.331787 
L 86.537944 165.650169 
L 86.44889 164.973738 
L 86.30122 164.307643 
L 86.096058 163.656953 
L 85.834966 163.02662 
L 85.51993 162.421442 
L 85.153348 161.846023 
L 84.73801 161.304744 
L 84.277077 160.801724 
L 83.774056 160.340791 
L 83.232777 159.925453 
L 82.657359 159.558871 
L 82.05218 159.243835 
L 81.421847 158.982742 
L 80.771157 158.77758 
L 80.105063 158.629911 
L 79.428632 158.540857 
L 78.747014 158.511097 
L 78.065396 158.540857 
L 77.388966 158.629911 
L 76.722871 158.77758 
L 76.072181 158.982742 
L 75.441848 159.243835 
L 74.836669 159.558871 
L 74.261251 159.925453 
L 73.719972 160.340791 
L 73.216951 160.801724 
L 72.756018 161.304744 
L 72.34068 161.846023 
L 71.974098 162.421442 
L 71.659062 163.02662 
L 71.39797 163.656953 
L 71.192808 164.307643 
L 71.045138 164.973738 
L 70.956084 165.650169 
L 70.926324 166.331787 
L 70.956084 167.013405 
L 71.045138 167.689835 
L 71.192808 168.35593 
L 71.39797 169.00662 
L 71.659062 169.636953 
L 71.974098 170.242131 
L 72.34068 170.81755 
L 72.756018 171.358829 
L 73.216951 171.861849 
L 73.719972 172.322782 
L 74.261251 172.738121 
L 74.836669 173.104703 
L 75.441848 173.419739 
L 76.072181 173.680831 
L 76.722871 173.885993 
L 77.388966 174.033662 
L 78.065396 174.122716 
L 78.747014 174.152476 
L 79.428632 174.122716 
L 80.105063 174.033662 
L 80.771157 173.885993 
L 81.421847 173.680831 
L 82.05218 173.419739 
L 82.657359 173.104703 
L 83.232777 172.738121 
L 83.774056 172.322782 
L 84.277077 171.861849 
L 84.73801 171.358829 
L 85.153348 170.81755 
L 85.51993 170.242131 
L 85.834966 169.636953 
L 86.096058 169.00662 
L 86.30122 168.35593 
L 86.44889 167.689835 
L 86.537944 167.013405 
L 86.567704 166.331787 
z
" clip-path="url(#pbf4d55e4bb)" style="fill: #4400bb; stroke: #262626"/>
    <path d="M 111.518619 168.195894 
L 111.532745 168.266913 
L 111.573979 168.474215 
L 111.638982 168.801006 
L 111.722486 169.220811 
L 111.817727 169.699621 
L 111.916989 170.198645 
L 112.012231 170.677454 
L 112.095735 171.09726 
L 112.160738 171.424051 
L 112.201973 171.631352 
L 112.2161 171.702371 
L 122.934367 169.570375 
L 122.920241 169.499356 
L 122.879006 169.292054 
L 122.814004 168.965263 
L 122.7305 168.545458 
L 122.635258 168.066648 
L 122.535997 167.567625 
L 122.440755 167.088815 
L 122.357251 166.66901 
L 122.292248 166.342219 
L 122.251012 166.134917 
L 122.236886 166.063899 
z
" clip-path="url(#pbf4d55e4bb)" style="fill: #808080; stroke: #262626"/>
    <path d="M 112.22069 171.434483 
L 112.19093 170.752865 
L 112.101876 170.076434 
L 111.954206 169.410339 
L 111.749044 168.759649 
L 111.487952 168.129316 
L 111.172916 167.524138 
L 110.806334 166.948719 
L 110.390996 166.40744 
L 109.930063 165.90442 
L 109.427042 165.443487 
L 108.885763 165.028149 
L 108.310345 164.661567 
L 107.705166 164.346531 
L 107.074833 164.085438 
L 106.424143 163.880277 
L 105.758049 163.732607 
L 105.081618 163.643553 
L 104.4 163.613793 
L 103.718382 163.643553 
L 103.041951 163.732607 
L 102.375857 163.880277 
L 101.725167 164.085438 
L 101.094834 164.346531 
L 100.489655 164.661567 
L 99.914237 165.028149 
L 99.372958 165.443487 
L 98.869937 165.90442 
L 98.409004 166.40744 
L 97.993666 166.948719 
L 97.627084 167.524138 
L 97.312048 168.129316 
L 97.050956 168.759649 
L 96.845794 169.410339 
L 96.698124 170.076434 
L 96.60907 170.752865 
L 96.57931 171.434483 
L 96.60907 172.116101 
L 96.698124 172.792531 
L 96.845794 173.458626 
L 97.050956 174.109316 
L 97.312048 174.739649 
L 97.627084 175.344828 
L 97.993666 175.920246 
L 98.409004 176.461525 
L 98.869937 176.964545 
L 99.372958 177.425479 
L 99.914237 177.840817 
L 100.489655 178.207399 
L 101.094834 178.522435 
L 101.725167 178.783527 
L 102.375857 178.988689 
L 103.041951 179.136359 
L 103.718382 179.225412 
L 104.4 179.255172 
L 105.081618 179.225412 
L 105.758049 179.136359 
L 106.424143 178.988689 
L 107.074833 178.783527 
L 107.705166 178.522435 
L 108.310345 178.207399 
L 108.885763 177.840817 
L 109.427042 177.425479 
L 109.930063 176.964545 
L 110.390996 176.461525 
L 110.806334 175.920246 
L 111.172916 175.344828 
L 111.487952 174.739649 
L 111.749044 174.109316 
L 111.954206 173.458626 
L 112.101876 172.792531 
L 112.19093 172.116101 
L 112.22069 171.434483 
z
" clip-path="url(#pbf4d55e4bb)" style="fill: #3300cc; stroke: #262626"/>
    <path d="M 135.390378 160.615544 
L 135.430606 160.67575 
L 135.548033 160.851493 
L 135.733145 161.128533 
L 135.970946 161.484427 
L 136.24217 161.890342 
L 136.524844 162.313394 
L 136.796068 162.719309 
L 137.033869 163.075203 
L 137.218981 163.352243 
L 137.336408 163.527984 
L 137.376637 163.588191 
L 146.463145 157.51678 
L 146.422917 157.456574 
L 146.30549 157.280831 
L 146.120378 157.003791 
L 145.882577 156.647897 
L 145.611354 156.241982 
L 145.328679 155.81893 
L 145.057455 155.413015 
L 144.819655 155.057121 
L 144.634542 154.780081 
L 144.517115 154.604339 
L 144.476886 154.544133 
z
" clip-path="url(#pbf4d55e4bb)" style="fill: #808080; stroke: #262626"/>
    <path d="M 137.873676 166.331787 
L 137.843916 165.650169 
L 137.754862 164.973738 
L 137.607192 164.307643 
L 137.40203 163.656953 
L 137.140938 163.02662 
L 136.825902 162.421442 
L 136.45932 161.846023 
L 136.043982 161.304744 
L 135.583049 160.801724 
L 135.080028 160.340791 
L 134.538749 159.925453 
L 133.963331 159.558871 
L 133.358152 159.243835 
L 132.727819 158.982742 
L 132.077129 158.77758 
L 131.411034 158.629911 
L 130.734604 158.540857 
L 130.052986 158.511097 
L 129.371368 158.540857 
L 128.694937 158.629911 
L 128.028843 158.77758 
L 127.378153 158.982742 
L 126.74782 159.243835 
L 126.142641 159.558871 
L 125.567223 159.925453 
L 125.025944 160.340791 
L 124.522923 160.801724 
L 124.06199 161.304744 
L 123.646652 161.846023 
L 123.28007 162.421442 
L 122.965034 163.02662 
L 122.703942 163.656953 
L 122.49878 164.307643 
L 122.35111 164.973738 
L 122.262056 165.650169 
L 122.232296 166.331787 
L 122.262056 167.013405 
L 122.35111 167.689835 
L 122.49878 168.35593 
L 122.703942 169.00662 
L 122.965034 169.636953 
L 123.28007 170.242131 
L 123.646652 170.81755 
L 124.06199 171.358829 
L 124.522923 171.861849 
L 125.025944 172.322782 
L 125.567223 172.738121 
L 126.142641 173.104703 
L 126.74782 173.419739 
L 127.378153 173.680831 
L 128.028843 173.885993 
L 128.694937 174.033662 
L 129.371368 174.122716 
L 130.052986 174.152476 
L 130.734604 174.122716 
L 131.411034 174.033662 
L 132.077129 173.885993 
L 132.727819 173.680831 
L 133.358152 173.419739 
L 133.963331 173.104703 
L 134.538749 172.738121 
L 135.080028 172.322782 
L 135.583049 171.861849 
L 136.043982 171.358829 
L 136.45932 170.81755 
L 136.825902 170.242131 
L 137.140938 169.636953 
L 137.40203 169.00662 
L 137.607192 168.35593 
L 137.754862 167.689835 
L 137.843916 167.013405 
L 137.873676 166.331787 
z
" clip-path="url(#pbf4d55e4bb)" style="fill: #2200dd; stroke: #262626"/>
    <path d="M 154.544133 144.476886 
L 154.604339 144.517115 
L 154.780081 144.634542 
L 155.057121 144.819655 
L 155.413015 145.057455 
L 155.81893 145.328679 
L 156.241982 145.611354 
L 156.647897 145.882577 
L 157.003791 146.120378 
L 157.280831 146.30549 
L 157.456574 146.422917 
L 157.51678 146.463145 
L 163.588191 137.376637 
L 163.527984 137.336408 
L 163.352243 137.218981 
L 163.075203 137.033869 
L 162.719309 136.796068 
L 162.313394 136.524844 
L 161.890342 136.24217 
L 161.484427 135.970946 
L 161.128533 135.733145 
L 160.851493 135.548033 
L 160.67575 135.430606 
L 160.615544 135.390378 
z
" clip-path="url(#pbf4d55e4bb)" style="fill: #808080; stroke: #262626"/>
    <path d="M 159.621227 151.800537 
L 159.591467 151.118919 
L 159.502413 150.442489 
L 159.354743 149.776394 
L 159.149582 149.125704 
L 158.888489 148.495371 
L 158.573453 147.890193 
L 158.206871 147.314774 
L 157.791533 146.773495 
L 157.3306 146.270475 
L 156.82758 145.809541 
L 156.286301 145.394203 
L 155.710882 145.027621 
L 155.105704 144.712585 
L 154.475371 144.451493 
L 153.824681 144.246331 
L 153.158586 144.098662 
L 152.482155 144.009608 
L 151.800537 143.979848 
L 151.118919 144.009608 
L 150.442489 144.098662 
L 149.776394 144.246331 
L 149.125704 144.451493 
L 148.495371 144.712585 
L 147.890193 145.027621 
L 147.314774 145.394203 
L 146.773495 145.809541 
L 146.270475 146.270475 
L 145.809541 146.773495 
L 145.394203 147.314774 
L 145.027621 147.890193 
L 144.712585 148.495371 
L 144.451493 149.125704 
L 144.246331 149.776394 
L 144.098662 150.442489 
L 144.009608 151.118919 
L 143.979848 151.800537 
L 144.009608 152.482155 
L 144.098662 153.158586 
L 144.246331 153.824681 
L 144.451493 154.475371 
L 144.712585 155.105704 
L 145.027621 155.710882 
L 145.394203 156.286301 
L 145.809541 156.82758 
L 146.270475 157.3306 
L 146.773495 157.791533 
L 147.314774 158.206871 
L 147.890193 158.573453 
L 148.495371 158.888489 
L 149.125704 159.149582 
L 149.776394 159.354743 
L 150.442489 159.502413 
L 151.118919 159.591467 
L 151.800537 159.621227 
L 152.482155 159.591467 
L 153.158586 159.502413 
L 153.824681 159.354743 
L 154.475371 159.149582 
L 155.105704 158.888489 
L 155.710882 158.573453 
L 156.286301 158.206871 
L 156.82758 157.791533 
L 157.3306 157.3306 
L 157.791533 156.82758 
L 158.206871 156.286301 
L 158.573453 155.710882 
L 158.888489 155.105704 
L 159.149582 154.475371 
L 159.354743 153.824681 
L 159.502413 153.158586 
L 159.591467 152.482155 
L 159.621227 151.800537 
z
" clip-path="url(#pbf4d55e4bb)" style="fill: #1100ee; stroke: #262626"/>
    <path d="M 174.152476 130.052986 
L 174.122716 129.371368 
L 174.033662 128.694937 
L 173.885993 128.028843 
L 173.680831 127.378153 
L 173.419739 126.74782 
L 173.104703 126.142641 
L 172.738121 125.567223 
L 172.322782 125.025944 
L 171.861849 124.522923 
L 171.358829 124.06199 
L 170.81755 123.646652 
L 170.242131 123.28007 
L 169.636953 122.965034 
L 169.00662 122.703942 
L 168.35593 122.49878 
L 167.689835 122.35111 
L 167.013405 122.262056 
L 166.331787 122.232296 
L 165.650169 122.262056 
L 164.973738 122.35111 
L 164.307643 122.49878 
L 163.656953 122.703942 
L 163.02662 122.965034 
L 162.421442 123.28007 
L 161.846023 123.646652 
L 161.304744 124.06199 
L 160.801724 124.522923 
L 160.340791 125.025944 
L 159.925453 125.567223 
L 159.558871 126.142641 
L 159.243835 126.74782 
L 158.982742 127.378153 
L 158.77758 128.028843 
L 158.629911 128.694937 
L 158.540857 129.371368 
L 158.511097 130.052986 
L 158.540857 130.734604 
L 158.629911 131.411034 
L 158.77758 132.077129 
L 158.982742 132.727819 
L 159.243835 133.358152 
L 159.558871 133.963331 
L 159.925453 134.538749 
L 160.340791 135.080028 
L 160.801724 135.583049 
L 161.304744 136.043982 
L 161.846023 136.45932 
L 162.421442 136.825902 
L 163.02662 137.140938 
L 163.656953 137.40203 
L 164.307643 137.607192 
L 164.973738 137.754862 
L 165.650169 137.843916 
L 166.331787 137.873676 
L 167.013405 137.843916 
L 167.689835 137.754862 
L 168.35593 137.607192 
L 169.00662 137.40203 
L 169.636953 137.140938 
L 170.242131 136.825902 
L 170.81755 136.45932 
L 171.358829 136.043982 
L 171.861849 135.583049 
L 172.322782 135.080028 
L 172.738121 134.538749 
L 173.104703 133.963331 
L 173.419739 133.358152 
L 173.680831 132.727819 
L 173.885993 132.077129 
L 174.033662 131.411034 
L 174.122716 130.734604 
L 174.152476 130.052986 
z
" clip-path="url(#pbf4d55e4bb)" style="fill: #0000ff; stroke: #262626"/>
   </g>
  </g>
 </g>
 <defs>
  <clipPath id="pbf4d55e4bb">
   <rect x="7.2" y="7.2" width="194.4" height="194.4"/>
  </clipPath>
 </defs>
</svg>
