<?xml version="1.0" encoding="utf-8" standalone="no"?>
<!DOCTYPE svg PUBLIC "-//W3C//DTD SVG 1.1//EN"
  "http://www.w3.org/Graphics/SVG/1.1/DTD/svg11.dtd">
<svg xmlns:xlink="http://www.w3.org/1999/xlink" width="208.8pt" height="206.5329pt" viewBox="0 0 208.8 206.5329" xmlns="http://www.w3.org/2000/svg" version="1.1">
 <metadata>
  <rdf:RDF xmlns:dc="http://purl.org/dc/elements/1.1/" xmlns:cc="http://creativecommons.org/ns#" xmlns:rdf="http://www.w3.org/1999/02/22-rdf-syntax-ns#">
   <cc:Work>
    <dc:type rdf:resource="http://purl.org/dc/dcmitype/StillImage"/>
    <dc:date>2026-02-25T16:16:42.186710</dc:date>
    <dc:format>image/svg+xml</dc:format>
    <dc:creator>
     <cc:Agent>
      <dc:title>Matplotlib v3.10.7, https://matplotlib.org/</dc:title>
     </cc:Agent>
    </dc:creator>
   </cc:Work>
  </rdf:RDF>
 </metadata>
 <defs>
  <style type="text/css">*{stroke-linejoin: round; stroke-linecap: butt}</style>
 </defs>
 <g id="figure_1">
  <g id="patch_1">
   <path d="M 0 206.5329 
L 208.8 206.5329 
L 208.8 0 
L 0 0 
z
" style="fill: #ffffff"/>
  </g>
  <g id="axes_1">
   <g id="PolyCollection_1">
    <path d="M 50.103823 102.864225 
L 66.006805 141.757376 
L 34.023963 132.440559 
z
" clip-path="url(#p6503e1d7b1)" style="fill: #c5ada1; fill-opacity: 0.4; stroke: #262626"/>
    <path d="M 50.103823 102.864225 
L 66.006805 64.206692 
L 34.023963 70.951147 
z
" clip-path="url(#p6503e1d7b1)" style="fill: #a9b6ca; fill-opacity: 0.4; stroke: #262626"/>
    <path d="M 77.075033 176.23906 
L 104.4 158.103065 
L 66.006805 141.757376 
z
" clip-path="url(#p6503e1d7b1)" style="fill: #d18e74; fill-opacity: 0.4; stroke: #262626"/>
    <path d="M 27.790488 134.492888 
L 50.103823 102.864225 
L 34.023963 132.440559 
z
" clip-path="url(#p6503e1d7b1)" style="fill: #6d6059; fill-opacity: 0.4; stroke: #262626"/>
    <path d="M 27.790488 134.492888 
L 66.006805 141.757376 
L 34.023963 132.440559 
z
" clip-path="url(#p6503e1d7b1)" style="fill: #6a5e57; fill-opacity: 0.4; stroke: #262626"/>
    <path d="M 27.790488 73.003476 
L 50.103823 102.864225 
L 34.023963 70.951147 
z
" clip-path="url(#p6503e1d7b1)" style="fill: #636a76; fill-opacity: 0.4; stroke: #262626"/>
    <path d="M 70.841559 178.291389 
L 77.075033 176.23906 
L 66.006805 141.757376 
z
" clip-path="url(#p6503e1d7b1)" style="fill: #7a5344; fill-opacity: 0.4; stroke: #262626"/>
    <path d="M 27.790488 73.003476 
L 66.006805 64.206692 
L 34.023963 70.951147 
z
" clip-path="url(#p6503e1d7b1)" style="fill: #525862; fill-opacity: 0.4; stroke: #262626"/>
    <path d="M 77.075033 27.790488 
L 104.4 48.429835 
L 66.006805 64.206692 
z
" clip-path="url(#p6503e1d7b1)" style="fill: #87a4e0; fill-opacity: 0.4; stroke: #262626"/>
    <path d="M 70.841559 178.291389 
L 77.075033 176.23906 
L 104.4 158.103065 
z
" clip-path="url(#p6503e1d7b1)" style="fill: #68473a; fill-opacity: 0.4; stroke: #262626"/>
    <path d="M 137.958441 176.690083 
L 142.793195 142.326208 
L 104.4 158.103065 
z
" clip-path="url(#p6503e1d7b1)" style="fill: #c85d49; fill-opacity: 0.4; stroke: #262626"/>
    <path d="M 27.790488 134.492888 
L 50.103823 102.864225 
L 66.006805 141.757376 
z
" clip-path="url(#p6503e1d7b1)" style="fill: #dfc4b6; fill-opacity: 0.4; stroke: #262626"/>
    <path d="M 70.841559 29.842817 
L 77.075033 27.790488 
L 66.006805 64.206692 
z
" clip-path="url(#p6503e1d7b1)" style="fill: #4a5a7a; fill-opacity: 0.4; stroke: #262626"/>
    <path d="M 137.958441 28.241511 
L 142.793195 64.775524 
L 104.4 48.429835 
z
" clip-path="url(#p6503e1d7b1)" style="fill: #5f7dda; fill-opacity: 0.4; stroke: #262626"/>
    <path d="M 131.724967 178.742412 
L 137.958441 176.690083 
L 104.4 158.103065 
z
" clip-path="url(#p6503e1d7b1)" style="fill: #6b3127; fill-opacity: 0.4; stroke: #262626"/>
    <path d="M 27.790488 73.003476 
L 50.103823 102.864225 
L 66.006805 64.206692 
z
" clip-path="url(#p6503e1d7b1)" style="fill: #bac7de; fill-opacity: 0.4; stroke: #262626"/>
    <path d="M 158.696177 103.668674 
L 181.009512 133.529424 
L 142.793195 142.326208 
z
" clip-path="url(#p6503e1d7b1)" style="fill: #a60423; fill-opacity: 0.4; stroke: #262626"/>
    <path d="M 70.841559 29.842817 
L 77.075033 27.790488 
L 104.4 48.429835 
z
" clip-path="url(#p6503e1d7b1)" style="fill: #495878; fill-opacity: 0.4; stroke: #262626"/>
    <path d="M 70.841559 178.291389 
L 104.4 158.103065 
L 66.006805 141.757376 
z
" clip-path="url(#p6503e1d7b1)" style="fill: #e39a7e; fill-opacity: 0.4; stroke: #262626"/>
    <path d="M 131.724967 178.742412 
L 137.958441 176.690083 
L 142.793195 142.326208 
z
" clip-path="url(#p6503e1d7b1)" style="fill: #6c3227; fill-opacity: 0.4; stroke: #262626"/>
    <path d="M 158.696177 103.668674 
L 181.009512 72.040012 
L 142.793195 64.775524 
z
" clip-path="url(#p6503e1d7b1)" style="fill: #3747b4; fill-opacity: 0.4; stroke: #262626"/>
    <path d="M 70.841559 29.842817 
L 104.4 48.429835 
L 66.006805 64.206692 
z
" clip-path="url(#p6503e1d7b1)" style="fill: #89a6e2; fill-opacity: 0.4; stroke: #262626"/>
    <path d="M 131.724967 30.29384 
L 137.958441 28.241511 
L 104.4 48.429835 
z
" clip-path="url(#p6503e1d7b1)" style="fill: #2c3a64; fill-opacity: 0.4; stroke: #262626"/>
    <path d="M 131.724967 178.742412 
L 142.793195 142.326208 
L 104.4 158.103065 
z
" clip-path="url(#p6503e1d7b1)" style="fill: #c75c48; fill-opacity: 0.4; stroke: #262626"/>
    <path d="M 174.776037 135.581753 
L 181.009512 133.529424 
L 142.793195 142.326208 
z
" clip-path="url(#p6503e1d7b1)" style="fill: #4a0210; fill-opacity: 0.4; stroke: #262626"/>
    <path d="M 131.724967 30.29384 
L 137.958441 28.241511 
L 142.793195 64.775524 
z
" clip-path="url(#p6503e1d7b1)" style="fill: #334375; fill-opacity: 0.4; stroke: #262626"/>
    <path d="M 174.776037 135.581753 
L 158.696177 103.668674 
L 181.009512 133.529424 
z
" clip-path="url(#p6503e1d7b1)" style="fill: #580213; fill-opacity: 0.4; stroke: #262626"/>
    <path d="M 174.776037 74.092341 
L 181.009512 72.040012 
L 142.793195 64.775524 
z
" clip-path="url(#p6503e1d7b1)" style="fill: #1a2256; fill-opacity: 0.4; stroke: #262626"/>
    <path d="M 174.776037 74.092341 
L 158.696177 103.668674 
L 181.009512 72.040012 
z
" clip-path="url(#p6503e1d7b1)" style="fill: #1b2358; fill-opacity: 0.4; stroke: #262626"/>
    <path d="M 131.724967 30.29384 
L 142.793195 64.775524 
L 104.4 48.429835 
z
" clip-path="url(#p6503e1d7b1)" style="fill: #5774ca; fill-opacity: 0.4; stroke: #262626"/>
    <path d="M 174.776037 135.581753 
L 158.696177 103.668674 
L 142.793195 142.326208 
z
" clip-path="url(#p6503e1d7b1)" style="fill: #980320; fill-opacity: 0.4; stroke: #262626"/>
    <path d="M 174.776037 74.092341 
L 158.696177 103.668674 
L 142.793195 64.775524 
z
" clip-path="url(#p6503e1d7b1)" style="fill: #313fa0; fill-opacity: 0.4; stroke: #262626"/>
   </g>
  </g>
 </g>
 <defs>
  <clipPath id="p6503e1d7b1">
   <rect x="7.2" y="7.2" width="194.4" height="192.1329"/>
  </clipPath>
 </defs>
</svg>
