<?xml version="1.0" encoding="utf-8" standalone="no"?>
<!DOCTYPE svg PUBLIC "-//W3C//DTD SVG 1.1//EN"
  "http://www.w3.org/Graphics/SVG/1.1/DTD/svg11.dtd">
<svg xmlns:xlink="http://www.w3.org/1999/xlink" width="208.8pt" height="208.8pt" viewBox="0 0 208.8 208.8" xmlns="http://www.w3.org/2000/svg" version="1.1">
 <metadata>
  <rdf:RDF xmlns:dc="http://purl.org/dc/elements/1.1/" xmlns:cc="http://creativecommons.org/ns#" xmlns:rdf="http://www.w3.org/1999/02/22-rdf-syntax-ns#">
   <cc:Work>
    <dc:type rdf:resource="http://purl.org/dc/dcmitype/StillImage"/>
    <dc:date>2026-02-17T11:06:57.022128</dc:date>
    <dc:format>image/svg+xml</dc:format>
    <dc:creator>
     <cc:Agent>
      <dc:title>Matplotlib v3.10.7, https://matplotlib.org/</dc:title>
     </cc:Agent>
    </dc:creator>
   </cc:Work>
  </rdf:RDF>
 </metadata>
 <defs>
  <style type="text/css">*{stroke-linejoin: round; stroke-linecap: butt}</style>
 </defs>
 <g id="figure_1">
  <g id="patch_1">
   <path d="M 0 208.8 
L 208.8 208.8 
L 208.8 0 
L 0 0 
z
" style="fill: #ffffff"/>
  </g>
  <g id="axes_1">
   <g id="PolyCollection_1">
    <path d="M 50.103823 103.997775 
L 66.006805 142.890926 
L 34.023963 133.574109 
z
" clip-path="url(#p3a7bddb525)" style="fill: #c5ada1; fill-opacity: 0.4; stroke: #262626"/>
    <path d="M 50.103823 103.997775 
L 66.006805 65.340242 
L 34.023963 72.084697 
z
" clip-path="url(#p3a7bddb525)" style="fill: #a9b6ca; fill-opacity: 0.4; stroke: #262626"/>
    <path d="M 77.075033 177.37261 
L 104.4 159.236615 
L 66.006805 142.890926 
z
" clip-path="url(#p3a7bddb525)" style="fill: #d18e74; fill-opacity: 0.4; stroke: #262626"/>
    <path d="M 27.790488 135.626438 
L 50.103823 103.997775 
L 34.023963 133.574109 
z
" clip-path="url(#p3a7bddb525)" style="fill: #6d6059; fill-opacity: 0.4; stroke: #262626"/>
    <path d="M 27.790488 135.626438 
L 66.006805 142.890926 
L 34.023963 133.574109 
z
" clip-path="url(#p3a7bddb525)" style="fill: #6a5e57; fill-opacity: 0.4; stroke: #262626"/>
    <path d="M 36.545247 133.574109 
L 36.535653 133.354365 
L 36.506943 133.136293 
L 36.459336 132.921553 
L 36.393195 132.711779 
L 36.309022 132.508568 
L 36.207459 132.313467 
L 36.089278 132.12796 
L 35.955378 131.953459 
L 35.80678 131.791292 
L 35.644613 131.642693 
L 35.470112 131.508794 
L 35.284605 131.390613 
L 35.089503 131.289049 
L 34.886293 131.204877 
L 34.676519 131.138735 
L 34.461779 131.091129 
L 34.243707 131.062419 
L 34.023963 131.052825 
L 33.804218 131.062419 
L 33.586146 131.091129 
L 33.371406 131.138735 
L 33.161633 131.204877 
L 32.958422 131.289049 
L 32.76332 131.390613 
L 32.577813 131.508794 
L 32.403312 131.642693 
L 32.241145 131.791292 
L 32.092547 131.953459 
L 31.958647 132.12796 
L 31.840466 132.313467 
L 31.738903 132.508568 
L 31.65473 132.711779 
L 31.588589 132.921553 
L 31.540982 133.136293 
L 31.512273 133.354365 
L 31.502678 133.574109 
L 31.512273 133.793853 
L 31.540982 134.011925 
L 31.588589 134.226665 
L 31.65473 134.436439 
L 31.738903 134.63965 
L 31.840466 134.834751 
L 31.958647 135.020258 
L 32.092547 135.194759 
L 32.241145 135.356926 
L 32.403312 135.505525 
L 32.577813 135.639424 
L 32.76332 135.757605 
L 32.958422 135.859169 
L 33.161633 135.943341 
L 33.371406 136.009483 
L 33.586146 136.057089 
L 33.804218 136.085799 
L 34.023963 136.095393 
L 34.243707 136.085799 
L 34.461779 136.057089 
L 34.676519 136.009483 
L 34.886293 135.943341 
L 35.089503 135.859169 
L 35.284605 135.757605 
L 35.470112 135.639424 
L 35.644613 135.505525 
L 35.80678 135.356926 
L 35.955378 135.194759 
L 36.089278 135.020258 
L 36.207459 134.834751 
L 36.309022 134.63965 
L 36.393195 134.436439 
L 36.459336 134.226665 
L 36.506943 134.011925 
L 36.535653 133.793853 
L 36.545247 133.574109 
z
" clip-path="url(#p3a7bddb525)" style="fill: #999999; stroke: #262626"/>
    <path d="M 48.263196 129.022312 
L 48.248805 128.692696 
L 48.20574 128.365588 
L 48.13433 128.043478 
L 48.035118 127.728817 
L 47.908859 127.424001 
L 47.756514 127.131349 
L 47.579242 126.853088 
L 47.378393 126.591337 
L 47.155496 126.348086 
L 46.912245 126.125188 
L 46.650494 125.924339 
L 46.372233 125.747068 
L 46.079581 125.594723 
L 45.774765 125.468464 
L 45.460104 125.369252 
L 45.137994 125.297842 
L 44.810886 125.254777 
L 44.48127 125.240386 
L 44.151653 125.254777 
L 43.824545 125.297842 
L 43.502435 125.369252 
L 43.187775 125.468464 
L 42.882959 125.594723 
L 42.590307 125.747068 
L 42.312046 125.924339 
L 42.050294 126.125188 
L 41.807044 126.348086 
L 41.584146 126.591337 
L 41.383297 126.853088 
L 41.206025 127.131349 
L 41.05368 127.424001 
L 40.927421 127.728817 
L 40.828209 128.043478 
L 40.756799 128.365588 
L 40.713735 128.692696 
L 40.699343 129.022312 
L 40.713735 129.351929 
L 40.756799 129.679037 
L 40.828209 130.001147 
L 40.927421 130.315807 
L 41.05368 130.620623 
L 41.206025 130.913275 
L 41.383297 131.191536 
L 41.584146 131.453288 
L 41.807044 131.696538 
L 42.050294 131.919436 
L 42.312046 132.120285 
L 42.590307 132.297557 
L 42.882959 132.449902 
L 43.187775 132.576161 
L 43.502435 132.675373 
L 43.824545 132.746783 
L 44.151653 132.789847 
L 44.48127 132.804239 
L 44.810886 132.789847 
L 45.137994 132.746783 
L 45.460104 132.675373 
L 45.774765 132.576161 
L 46.079581 132.449902 
L 46.372233 132.297557 
L 46.650494 132.120285 
L 46.912245 131.919436 
L 47.155496 131.696538 
L 47.378393 131.453288 
L 47.579242 131.191536 
L 47.756514 130.913275 
L 47.908859 130.620623 
L 48.035118 130.315807 
L 48.13433 130.001147 
L 48.20574 129.679037 
L 48.248805 129.351929 
L 48.263196 129.022312 
z
" clip-path="url(#p3a7bddb525)" style="fill: #edd1c2; stroke: #262626"/>
    <path d="M 27.790488 74.137026 
L 50.103823 103.997775 
L 34.023963 72.084697 
z
" clip-path="url(#p3a7bddb525)" style="fill: #636a76; fill-opacity: 0.4; stroke: #262626"/>
    <path d="M 70.841559 179.424939 
L 77.075033 177.37261 
L 66.006805 142.890926 
z
" clip-path="url(#p3a7bddb525)" style="fill: #7a5344; fill-opacity: 0.4; stroke: #262626"/>
    <path d="M 48.263196 78.889935 
L 48.248805 78.560319 
L 48.20574 78.233211 
L 48.13433 77.911101 
L 48.035118 77.59644 
L 47.908859 77.291624 
L 47.756514 76.998972 
L 47.579242 76.720711 
L 47.378393 76.45896 
L 47.155496 76.215709 
L 46.912245 75.992812 
L 46.650494 75.791963 
L 46.372233 75.614691 
L 46.079581 75.462346 
L 45.774765 75.336087 
L 45.460104 75.236875 
L 45.137994 75.165465 
L 44.810886 75.1224 
L 44.48127 75.108009 
L 44.151653 75.1224 
L 43.824545 75.165465 
L 43.502435 75.236875 
L 43.187775 75.336087 
L 42.882959 75.462346 
L 42.590307 75.614691 
L 42.312046 75.791963 
L 42.050294 75.992812 
L 41.807044 76.215709 
L 41.584146 76.45896 
L 41.383297 76.720711 
L 41.206025 76.998972 
L 41.05368 77.291624 
L 40.927421 77.59644 
L 40.828209 77.911101 
L 40.756799 78.233211 
L 40.713735 78.560319 
L 40.699343 78.889935 
L 40.713735 79.219552 
L 40.756799 79.54666 
L 40.828209 79.86877 
L 40.927421 80.18343 
L 41.05368 80.488246 
L 41.206025 80.780898 
L 41.383297 81.059159 
L 41.584146 81.320911 
L 41.807044 81.564161 
L 42.050294 81.787059 
L 42.312046 81.987908 
L 42.590307 82.16518 
L 42.882959 82.317525 
L 43.187775 82.443784 
L 43.502435 82.542996 
L 43.824545 82.614406 
L 44.151653 82.65747 
L 44.48127 82.671862 
L 44.810886 82.65747 
L 45.137994 82.614406 
L 45.460104 82.542996 
L 45.774765 82.443784 
L 46.079581 82.317525 
L 46.372233 82.16518 
L 46.650494 81.987908 
L 46.912245 81.787059 
L 47.155496 81.564161 
L 47.378393 81.320911 
L 47.579242 81.059159 
L 47.756514 80.780898 
L 47.908859 80.488246 
L 48.035118 80.18343 
L 48.13433 79.86877 
L 48.20574 79.54666 
L 48.248805 79.219552 
L 48.263196 78.889935 
z
" clip-path="url(#p3a7bddb525)" style="fill: #c9d7f0; stroke: #262626"/>
    <path d="M 27.790488 74.137026 
L 66.006805 65.340242 
L 34.023963 72.084697 
z
" clip-path="url(#p3a7bddb525)" style="fill: #525862; fill-opacity: 0.4; stroke: #262626"/>
    <path d="M 77.075033 28.924038 
L 104.4 49.563385 
L 66.006805 65.340242 
z
" clip-path="url(#p3a7bddb525)" style="fill: #87a4e0; fill-opacity: 0.4; stroke: #262626"/>
    <path d="M 36.545247 72.084697 
L 36.535653 71.864953 
L 36.506943 71.646881 
L 36.459336 71.432141 
L 36.393195 71.222367 
L 36.309022 71.019156 
L 36.207459 70.824055 
L 36.089278 70.638548 
L 35.955378 70.464047 
L 35.80678 70.30188 
L 35.644613 70.153281 
L 35.470112 70.019382 
L 35.284605 69.901201 
L 35.089503 69.799638 
L 34.886293 69.715465 
L 34.676519 69.649324 
L 34.461779 69.601717 
L 34.243707 69.573007 
L 34.023963 69.563413 
L 33.804218 69.573007 
L 33.586146 69.601717 
L 33.371406 69.649324 
L 33.161633 69.715465 
L 32.958422 69.799638 
L 32.76332 69.901201 
L 32.577813 70.019382 
L 32.403312 70.153281 
L 32.241145 70.30188 
L 32.092547 70.464047 
L 31.958647 70.638548 
L 31.840466 70.824055 
L 31.738903 71.019156 
L 31.65473 71.222367 
L 31.588589 71.432141 
L 31.540982 71.646881 
L 31.512273 71.864953 
L 31.502678 72.084697 
L 31.512273 72.304442 
L 31.540982 72.522514 
L 31.588589 72.737254 
L 31.65473 72.947027 
L 31.738903 73.150238 
L 31.840466 73.345339 
L 31.958647 73.530847 
L 32.092547 73.705348 
L 32.241145 73.867514 
L 32.403312 74.016113 
L 32.577813 74.150012 
L 32.76332 74.268193 
L 32.958422 74.369757 
L 33.161633 74.453929 
L 33.371406 74.520071 
L 33.586146 74.567678 
L 33.804218 74.596387 
L 34.023963 74.605982 
L 34.243707 74.596387 
L 34.461779 74.567678 
L 34.676519 74.520071 
L 34.886293 74.453929 
L 35.089503 74.369757 
L 35.284605 74.268193 
L 35.470112 74.150012 
L 35.644613 74.016113 
L 35.80678 73.867514 
L 35.955378 73.705348 
L 36.089278 73.530847 
L 36.207459 73.345339 
L 36.309022 73.150238 
L 36.393195 72.947027 
L 36.459336 72.737254 
L 36.506943 72.522514 
L 36.535653 72.304442 
L 36.545247 72.084697 
z
" clip-path="url(#p3a7bddb525)" style="fill: #999999; stroke: #262626"/>
    <path d="M 83.362776 164.731273 
L 83.348384 164.401656 
L 83.30532 164.074548 
L 83.23391 163.752438 
L 83.134698 163.437778 
L 83.008439 163.132961 
L 82.856094 162.840309 
L 82.678822 162.562049 
L 82.477973 162.300297 
L 82.255075 162.057047 
L 82.011825 161.834149 
L 81.750073 161.6333 
L 81.471812 161.456028 
L 81.17916 161.303683 
L 80.874344 161.177424 
L 80.559684 161.078212 
L 80.237574 161.006802 
L 79.910466 160.963737 
L 79.580849 160.949346 
L 79.251233 160.963737 
L 78.924125 161.006802 
L 78.602015 161.078212 
L 78.287354 161.177424 
L 77.982538 161.303683 
L 77.689886 161.456028 
L 77.411625 161.6333 
L 77.149874 161.834149 
L 76.906623 162.057047 
L 76.683726 162.300297 
L 76.482877 162.562049 
L 76.305605 162.840309 
L 76.15326 163.132961 
L 76.027001 163.437778 
L 75.927789 163.752438 
L 75.856379 164.074548 
L 75.813314 164.401656 
L 75.798923 164.731273 
L 75.813314 165.060889 
L 75.856379 165.387997 
L 75.927789 165.710107 
L 76.027001 166.024768 
L 76.15326 166.329584 
L 76.305605 166.622236 
L 76.482877 166.900496 
L 76.683726 167.162248 
L 76.906623 167.405498 
L 77.149874 167.628396 
L 77.411625 167.829245 
L 77.689886 168.006517 
L 77.982538 168.158862 
L 78.287354 168.285121 
L 78.602015 168.384333 
L 78.924125 168.455743 
L 79.251233 168.498808 
L 79.580849 168.513199 
L 79.910466 168.498808 
L 80.237574 168.455743 
L 80.559684 168.384333 
L 80.874344 168.285121 
L 81.17916 168.158862 
L 81.471812 168.006517 
L 81.750073 167.829245 
L 82.011825 167.628396 
L 82.255075 167.405498 
L 82.477973 167.162248 
L 82.678822 166.900496 
L 82.856094 166.622236 
L 83.008439 166.329584 
L 83.134698 166.024768 
L 83.23391 165.710107 
L 83.30532 165.387997 
L 83.348384 165.060889 
L 83.362776 164.731273 
z
" clip-path="url(#p3a7bddb525)" style="fill: #f7a889; stroke: #262626"/>
    <path d="M 70.841559 179.424939 
L 77.075033 177.37261 
L 104.4 159.236615 
z
" clip-path="url(#p3a7bddb525)" style="fill: #68473a; fill-opacity: 0.4; stroke: #262626"/>
    <path d="M 137.958441 177.823633 
L 142.793195 143.459758 
L 104.4 159.236615 
z
" clip-path="url(#p3a7bddb525)" style="fill: #c85d49; fill-opacity: 0.4; stroke: #262626"/>
    <path d="M 79.596317 177.37261 
L 79.586723 177.152866 
L 79.558013 176.934794 
L 79.510407 176.720054 
L 79.444265 176.51028 
L 79.360093 176.307069 
L 79.258529 176.111968 
L 79.140348 175.926461 
L 79.006449 175.75196 
L 78.85785 175.589793 
L 78.695683 175.441194 
L 78.521182 175.307295 
L 78.335675 175.189114 
L 78.140574 175.08755 
L 77.937363 175.003378 
L 77.72759 174.937236 
L 77.51285 174.88963 
L 77.294778 174.86092 
L 77.075033 174.851326 
L 76.855289 174.86092 
L 76.637217 174.88963 
L 76.422477 174.937236 
L 76.212703 175.003378 
L 76.009492 175.08755 
L 75.814391 175.189114 
L 75.628884 175.307295 
L 75.454383 175.441194 
L 75.292216 175.589793 
L 75.143617 175.75196 
L 75.009718 175.926461 
L 74.891537 176.111968 
L 74.789974 176.307069 
L 74.705801 176.51028 
L 74.63966 176.720054 
L 74.592053 176.934794 
L 74.563343 177.152866 
L 74.553749 177.37261 
L 74.563343 177.592354 
L 74.592053 177.810426 
L 74.63966 178.025166 
L 74.705801 178.23494 
L 74.789974 178.438151 
L 74.891537 178.633252 
L 75.009718 178.818759 
L 75.143617 178.99326 
L 75.292216 179.155427 
L 75.454383 179.304026 
L 75.628884 179.437925 
L 75.814391 179.556106 
L 76.009492 179.65767 
L 76.212703 179.741842 
L 76.422477 179.807984 
L 76.637217 179.85559 
L 76.855289 179.8843 
L 77.075033 179.893894 
L 77.294778 179.8843 
L 77.51285 179.85559 
L 77.72759 179.807984 
L 77.937363 179.741842 
L 78.140574 179.65767 
L 78.335675 179.556106 
L 78.521182 179.437925 
L 78.695683 179.304026 
L 78.85785 179.155427 
L 79.006449 178.99326 
L 79.140348 178.818759 
L 79.258529 178.633252 
L 79.360093 178.438151 
L 79.444265 178.23494 
L 79.510407 178.025166 
L 79.558013 177.810426 
L 79.586723 177.592354 
L 79.596317 177.37261 
z
" clip-path="url(#p3a7bddb525)" style="fill: #999999; stroke: #262626"/>
    <path d="M 27.790488 135.626438 
L 50.103823 103.997775 
L 66.006805 142.890926 
z
" clip-path="url(#p3a7bddb525)" style="fill: #dfc4b6; fill-opacity: 0.4; stroke: #262626"/>
    <path d="M 70.841559 30.976367 
L 77.075033 28.924038 
L 66.006805 65.340242 
z
" clip-path="url(#p3a7bddb525)" style="fill: #4a5a7a; fill-opacity: 0.4; stroke: #262626"/>
    <path d="M 83.362776 43.701008 
L 83.348384 43.371392 
L 83.30532 43.044284 
L 83.23391 42.722174 
L 83.134698 42.407513 
L 83.008439 42.102697 
L 82.856094 41.810045 
L 82.678822 41.531784 
L 82.477973 41.270033 
L 82.255075 41.026782 
L 82.011825 40.803885 
L 81.750073 40.603036 
L 81.471812 40.425764 
L 81.17916 40.273419 
L 80.874344 40.14716 
L 80.559684 40.047948 
L 80.237574 39.976538 
L 79.910466 39.933473 
L 79.580849 39.919082 
L 79.251233 39.933473 
L 78.924125 39.976538 
L 78.602015 40.047948 
L 78.287354 40.14716 
L 77.982538 40.273419 
L 77.689886 40.425764 
L 77.411625 40.603036 
L 77.149874 40.803885 
L 76.906623 41.026782 
L 76.683726 41.270033 
L 76.482877 41.531784 
L 76.305605 41.810045 
L 76.15326 42.102697 
L 76.027001 42.407513 
L 75.927789 42.722174 
L 75.856379 43.044284 
L 75.813314 43.371392 
L 75.798923 43.701008 
L 75.813314 44.030625 
L 75.856379 44.357733 
L 75.927789 44.679843 
L 76.027001 44.994503 
L 76.15326 45.299319 
L 76.305605 45.591972 
L 76.482877 45.870232 
L 76.683726 46.131984 
L 76.906623 46.375234 
L 77.149874 46.598132 
L 77.411625 46.798981 
L 77.689886 46.976253 
L 77.982538 47.128598 
L 78.287354 47.254857 
L 78.602015 47.354069 
L 78.924125 47.425479 
L 79.251233 47.468543 
L 79.580849 47.482935 
L 79.910466 47.468543 
L 80.237574 47.425479 
L 80.559684 47.354069 
L 80.874344 47.254857 
L 81.17916 47.128598 
L 81.471812 46.976253 
L 81.750073 46.798981 
L 82.011825 46.598132 
L 82.255075 46.375234 
L 82.477973 46.131984 
L 82.678822 45.870232 
L 82.856094 45.591972 
L 83.008439 45.299319 
L 83.134698 44.994503 
L 83.23391 44.679843 
L 83.30532 44.357733 
L 83.348384 44.030625 
L 83.362776 43.701008 
z
" clip-path="url(#p3a7bddb525)" style="fill: #9abbff; stroke: #262626"/>
    <path d="M 137.958441 29.375061 
L 142.793195 65.909074 
L 104.4 49.563385 
z
" clip-path="url(#p3a7bddb525)" style="fill: #5f7dda; fill-opacity: 0.4; stroke: #262626"/>
    <path d="M 131.724967 179.875962 
L 137.958441 177.823633 
L 104.4 159.236615 
z
" clip-path="url(#p3a7bddb525)" style="fill: #6b3127; fill-opacity: 0.4; stroke: #262626"/>
    <path d="M 27.790488 74.137026 
L 50.103823 103.997775 
L 66.006805 65.340242 
z
" clip-path="url(#p3a7bddb525)" style="fill: #bac7de; fill-opacity: 0.4; stroke: #262626"/>
    <path d="M 158.696177 104.802225 
L 181.009512 134.662974 
L 142.793195 143.459758 
z
" clip-path="url(#p3a7bddb525)" style="fill: #a60423; fill-opacity: 0.4; stroke: #262626"/>
    <path d="M 70.841559 30.976367 
L 77.075033 28.924038 
L 104.4 49.563385 
z
" clip-path="url(#p3a7bddb525)" style="fill: #495878; fill-opacity: 0.4; stroke: #262626"/>
    <path d="M 70.841559 179.424939 
L 104.4 159.236615 
L 66.006805 142.890926 
z
" clip-path="url(#p3a7bddb525)" style="fill: #e39a7e; fill-opacity: 0.4; stroke: #262626"/>
    <path d="M 79.596317 28.924038 
L 79.586723 28.704294 
L 79.558013 28.486222 
L 79.510407 28.271482 
L 79.444265 28.061708 
L 79.360093 27.858498 
L 79.258529 27.663396 
L 79.140348 27.477889 
L 79.006449 27.303388 
L 78.85785 27.141221 
L 78.695683 26.992623 
L 78.521182 26.858723 
L 78.335675 26.740542 
L 78.140574 26.638979 
L 77.937363 26.554806 
L 77.72759 26.488665 
L 77.51285 26.441058 
L 77.294778 26.412348 
L 77.075033 26.402754 
L 76.855289 26.412348 
L 76.637217 26.441058 
L 76.422477 26.488665 
L 76.212703 26.554806 
L 76.009492 26.638979 
L 75.814391 26.740542 
L 75.628884 26.858723 
L 75.454383 26.992623 
L 75.292216 27.141221 
L 75.143617 27.303388 
L 75.009718 27.477889 
L 74.891537 27.663396 
L 74.789974 27.858498 
L 74.705801 28.061708 
L 74.63966 28.271482 
L 74.592053 28.486222 
L 74.563343 28.704294 
L 74.553749 28.924038 
L 74.563343 29.143783 
L 74.592053 29.361855 
L 74.63966 29.576595 
L 74.705801 29.786368 
L 74.789974 29.989579 
L 74.891537 30.184681 
L 75.009718 30.370188 
L 75.143617 30.544689 
L 75.292216 30.706856 
L 75.454383 30.855454 
L 75.628884 30.989354 
L 75.814391 31.107535 
L 76.009492 31.209098 
L 76.212703 31.293271 
L 76.422477 31.359412 
L 76.637217 31.407019 
L 76.855289 31.435728 
L 77.075033 31.445323 
L 77.294778 31.435728 
L 77.51285 31.407019 
L 77.72759 31.359412 
L 77.937363 31.293271 
L 78.140574 31.209098 
L 78.335675 31.107535 
L 78.521182 30.989354 
L 78.695683 30.855454 
L 78.85785 30.706856 
L 79.006449 30.544689 
L 79.140348 30.370188 
L 79.258529 30.184681 
L 79.360093 29.989579 
L 79.444265 29.786368 
L 79.510407 29.576595 
L 79.558013 29.361855 
L 79.586723 29.143783 
L 79.596317 28.924038 
z
" clip-path="url(#p3a7bddb525)" style="fill: #999999; stroke: #262626"/>
    <path d="M 52.625107 103.997775 
L 52.615513 103.778031 
L 52.586803 103.559959 
L 52.539197 103.345219 
L 52.473055 103.135445 
L 52.388883 102.932235 
L 52.287319 102.737133 
L 52.169138 102.551626 
L 52.035239 102.377125 
L 51.88664 102.214958 
L 51.724473 102.06636 
L 51.549972 101.93246 
L 51.364465 101.814279 
L 51.169364 101.712716 
L 50.966153 101.628543 
L 50.756379 101.562402 
L 50.541639 101.514795 
L 50.323567 101.486085 
L 50.103823 101.476491 
L 49.884079 101.486085 
L 49.666007 101.514795 
L 49.451267 101.562402 
L 49.241493 101.628543 
L 49.038282 101.712716 
L 48.843181 101.814279 
L 48.657674 101.93246 
L 48.483173 102.06636 
L 48.321006 102.214958 
L 48.172407 102.377125 
L 48.038508 102.551626 
L 47.920327 102.737133 
L 47.818763 102.932235 
L 47.734591 103.135445 
L 47.668449 103.345219 
L 47.620843 103.559959 
L 47.592133 103.778031 
L 47.582539 103.997775 
L 47.592133 104.21752 
L 47.620843 104.435592 
L 47.668449 104.650332 
L 47.734591 104.860105 
L 47.818763 105.063316 
L 47.920327 105.258418 
L 48.038508 105.443925 
L 48.172407 105.618426 
L 48.321006 105.780593 
L 48.483173 105.929191 
L 48.657674 106.063091 
L 48.843181 106.181272 
L 49.038282 106.282835 
L 49.241493 106.367008 
L 49.451267 106.433149 
L 49.666007 106.480756 
L 49.884079 106.509465 
L 50.103823 106.51906 
L 50.323567 106.509465 
L 50.541639 106.480756 
L 50.756379 106.433149 
L 50.966153 106.367008 
L 51.169364 106.282835 
L 51.364465 106.181272 
L 51.549972 106.063091 
L 51.724473 105.929191 
L 51.88664 105.780593 
L 52.035239 105.618426 
L 52.169138 105.443925 
L 52.287319 105.258418 
L 52.388883 105.063316 
L 52.473055 104.860105 
L 52.539197 104.650332 
L 52.586803 104.435592 
L 52.615513 104.21752 
L 52.625107 103.997775 
z
" clip-path="url(#p3a7bddb525)" style="fill: #999999; stroke: #262626"/>
    <path d="M 68.528089 142.890926 
L 68.518495 142.671182 
L 68.489785 142.45311 
L 68.442179 142.23837 
L 68.376037 142.028596 
L 68.291865 141.825386 
L 68.190301 141.630284 
L 68.07212 141.444777 
L 67.938221 141.270276 
L 67.789622 141.108109 
L 67.627455 140.959511 
L 67.452954 140.825611 
L 67.267447 140.70743 
L 67.072346 140.605867 
L 66.869135 140.521694 
L 66.659361 140.455553 
L 66.444621 140.407946 
L 66.226549 140.379236 
L 66.006805 140.369642 
L 65.787061 140.379236 
L 65.568989 140.407946 
L 65.354249 140.455553 
L 65.144475 140.521694 
L 64.941264 140.605867 
L 64.746163 140.70743 
L 64.560656 140.825611 
L 64.386155 140.959511 
L 64.223988 141.108109 
L 64.075389 141.270276 
L 63.94149 141.444777 
L 63.823309 141.630284 
L 63.721745 141.825386 
L 63.637573 142.028596 
L 63.571431 142.23837 
L 63.523825 142.45311 
L 63.495115 142.671182 
L 63.485521 142.890926 
L 63.495115 143.110671 
L 63.523825 143.328743 
L 63.571431 143.543483 
L 63.637573 143.753256 
L 63.721745 143.956467 
L 63.823309 144.151569 
L 63.94149 144.337076 
L 64.075389 144.511577 
L 64.223988 144.673744 
L 64.386155 144.822342 
L 64.560656 144.956242 
L 64.746163 145.074423 
L 64.941264 145.175986 
L 65.144475 145.260159 
L 65.354249 145.3263 
L 65.568989 145.373907 
L 65.787061 145.402616 
L 66.006805 145.412211 
L 66.226549 145.402616 
L 66.444621 145.373907 
L 66.659361 145.3263 
L 66.869135 145.260159 
L 67.072346 145.175986 
L 67.267447 145.074423 
L 67.452954 144.956242 
L 67.627455 144.822342 
L 67.789622 144.673744 
L 67.938221 144.511577 
L 68.07212 144.337076 
L 68.190301 144.151569 
L 68.291865 143.956467 
L 68.376037 143.753256 
L 68.442179 143.543483 
L 68.489785 143.328743 
L 68.518495 143.110671 
L 68.528089 142.890926 
z
" clip-path="url(#p3a7bddb525)" style="fill: #999999; stroke: #262626"/>
    <path d="M 133.001077 165.098992 
L 132.986686 164.769375 
L 132.943621 164.442267 
L 132.872211 164.120157 
L 132.772999 163.805497 
L 132.64674 163.500681 
L 132.494395 163.208028 
L 132.317123 162.929768 
L 132.116274 162.668016 
L 131.893377 162.424766 
L 131.650126 162.201868 
L 131.388375 162.001019 
L 131.110114 161.823747 
L 130.817462 161.671402 
L 130.512646 161.545143 
L 130.197985 161.445931 
L 129.875875 161.374521 
L 129.548767 161.331457 
L 129.219151 161.317065 
L 128.889534 161.331457 
L 128.562426 161.374521 
L 128.240316 161.445931 
L 127.925656 161.545143 
L 127.62084 161.671402 
L 127.328188 161.823747 
L 127.049927 162.001019 
L 126.788175 162.201868 
L 126.544925 162.424766 
L 126.322027 162.668016 
L 126.121178 162.929768 
L 125.943906 163.208028 
L 125.791561 163.500681 
L 125.665302 163.805497 
L 125.56609 164.120157 
L 125.49468 164.442267 
L 125.451616 164.769375 
L 125.437224 165.098992 
L 125.451616 165.428608 
L 125.49468 165.755716 
L 125.56609 166.077826 
L 125.665302 166.392487 
L 125.791561 166.697303 
L 125.943906 166.989955 
L 126.121178 167.268216 
L 126.322027 167.529967 
L 126.544925 167.773218 
L 126.788175 167.996115 
L 127.049927 168.196964 
L 127.328188 168.374236 
L 127.62084 168.526581 
L 127.925656 168.65284 
L 128.240316 168.752052 
L 128.562426 168.823462 
L 128.889534 168.866527 
L 129.219151 168.880918 
L 129.548767 168.866527 
L 129.875875 168.823462 
L 130.197985 168.752052 
L 130.512646 168.65284 
L 130.817462 168.526581 
L 131.110114 168.374236 
L 131.388375 168.196964 
L 131.650126 167.996115 
L 131.893377 167.773218 
L 132.116274 167.529967 
L 132.317123 167.268216 
L 132.494395 166.989955 
L 132.64674 166.697303 
L 132.772999 166.392487 
L 132.872211 166.077826 
L 132.943621 165.755716 
L 132.986686 165.428608 
L 133.001077 165.098992 
z
" clip-path="url(#p3a7bddb525)" style="fill: #e26952; stroke: #262626"/>
    <path d="M 131.724967 179.875962 
L 137.958441 177.823633 
L 142.793195 143.459758 
z
" clip-path="url(#p3a7bddb525)" style="fill: #6c3227; fill-opacity: 0.4; stroke: #262626"/>
    <path d="M 158.696177 104.802225 
L 181.009512 73.173562 
L 142.793195 65.909074 
z
" clip-path="url(#p3a7bddb525)" style="fill: #3747b4; fill-opacity: 0.4; stroke: #262626"/>
    <path d="M 140.479725 177.823633 
L 140.470131 177.603888 
L 140.441421 177.385816 
L 140.393815 177.171076 
L 140.327673 176.961303 
L 140.243501 176.758092 
L 140.141937 176.56299 
L 140.023756 176.377483 
L 139.889857 176.202982 
L 139.741258 176.040815 
L 139.579091 175.892217 
L 139.40459 175.758317 
L 139.219083 175.640136 
L 139.023982 175.538573 
L 138.820771 175.4544 
L 138.610997 175.388259 
L 138.396257 175.340652 
L 138.178185 175.311943 
L 137.958441 175.302348 
L 137.738697 175.311943 
L 137.520625 175.340652 
L 137.305885 175.388259 
L 137.096111 175.4544 
L 136.8929 175.538573 
L 136.697799 175.640136 
L 136.512292 175.758317 
L 136.337791 175.892217 
L 136.175624 176.040815 
L 136.027025 176.202982 
L 135.893126 176.377483 
L 135.774945 176.56299 
L 135.673381 176.758092 
L 135.589209 176.961303 
L 135.523067 177.171076 
L 135.475461 177.385816 
L 135.446751 177.603888 
L 135.437157 177.823633 
L 135.446751 178.043377 
L 135.475461 178.261449 
L 135.523067 178.476189 
L 135.589209 178.685963 
L 135.673381 178.889173 
L 135.774945 179.084275 
L 135.893126 179.269782 
L 136.027025 179.444283 
L 136.175624 179.60645 
L 136.337791 179.755048 
L 136.512292 179.888948 
L 136.697799 180.007129 
L 136.8929 180.108692 
L 137.096111 180.192865 
L 137.305885 180.259006 
L 137.520625 180.306613 
L 137.738697 180.335323 
L 137.958441 180.344917 
L 138.178185 180.335323 
L 138.396257 180.306613 
L 138.610997 180.259006 
L 138.820771 180.192865 
L 139.023982 180.108692 
L 139.219083 180.007129 
L 139.40459 179.888948 
L 139.579091 179.755048 
L 139.741258 179.60645 
L 139.889857 179.444283 
L 140.023756 179.269782 
L 140.141937 179.084275 
L 140.243501 178.889173 
L 140.327673 178.685963 
L 140.393815 178.476189 
L 140.441421 178.261449 
L 140.470131 178.043377 
L 140.479725 177.823633 
z
" clip-path="url(#p3a7bddb525)" style="fill: #999999; stroke: #262626"/>
    <path d="M 70.841559 30.976367 
L 104.4 49.563385 
L 66.006805 65.340242 
z
" clip-path="url(#p3a7bddb525)" style="fill: #89a6e2; fill-opacity: 0.4; stroke: #262626"/>
    <path d="M 131.724967 31.42739 
L 137.958441 29.375061 
L 104.4 49.563385 
z
" clip-path="url(#p3a7bddb525)" style="fill: #2c3a64; fill-opacity: 0.4; stroke: #262626"/>
    <path d="M 68.528089 65.340242 
L 68.518495 65.120498 
L 68.489785 64.902426 
L 68.442179 64.687686 
L 68.376037 64.477912 
L 68.291865 64.274701 
L 68.190301 64.0796 
L 68.07212 63.894093 
L 67.938221 63.719592 
L 67.789622 63.557425 
L 67.627455 63.408826 
L 67.452954 63.274927 
L 67.267447 63.156746 
L 67.072346 63.055183 
L 66.869135 62.97101 
L 66.659361 62.904869 
L 66.444621 62.857262 
L 66.226549 62.828552 
L 66.006805 62.818958 
L 65.787061 62.828552 
L 65.568989 62.857262 
L 65.354249 62.904869 
L 65.144475 62.97101 
L 64.941264 63.055183 
L 64.746163 63.156746 
L 64.560656 63.274927 
L 64.386155 63.408826 
L 64.223988 63.557425 
L 64.075389 63.719592 
L 63.94149 63.894093 
L 63.823309 64.0796 
L 63.721745 64.274701 
L 63.637573 64.477912 
L 63.571431 64.687686 
L 63.523825 64.902426 
L 63.495115 65.120498 
L 63.485521 65.340242 
L 63.495115 65.559987 
L 63.523825 65.778059 
L 63.571431 65.992799 
L 63.637573 66.202572 
L 63.721745 66.405783 
L 63.823309 66.600884 
L 63.94149 66.786391 
L 64.075389 66.960892 
L 64.223988 67.123059 
L 64.386155 67.271658 
L 64.560656 67.405557 
L 64.746163 67.523738 
L 64.941264 67.625302 
L 65.144475 67.709474 
L 65.354249 67.775616 
L 65.568989 67.823222 
L 65.787061 67.851932 
L 66.006805 67.861526 
L 66.226549 67.851932 
L 66.444621 67.823222 
L 66.659361 67.775616 
L 66.869135 67.709474 
L 67.072346 67.625302 
L 67.267447 67.523738 
L 67.452954 67.405557 
L 67.627455 67.271658 
L 67.789622 67.123059 
L 67.938221 66.960892 
L 68.07212 66.786391 
L 68.190301 66.600884 
L 68.291865 66.405783 
L 68.376037 66.202572 
L 68.442179 65.992799 
L 68.489785 65.778059 
L 68.518495 65.559987 
L 68.528089 65.340242 
z
" clip-path="url(#p3a7bddb525)" style="fill: #999999; stroke: #262626"/>
    <path d="M 133.001077 44.068727 
L 132.986686 43.739111 
L 132.943621 43.412003 
L 132.872211 43.089893 
L 132.772999 42.775232 
L 132.64674 42.470416 
L 132.494395 42.177764 
L 132.317123 41.899504 
L 132.116274 41.637752 
L 131.893377 41.394502 
L 131.650126 41.171604 
L 131.388375 40.970755 
L 131.110114 40.793483 
L 130.817462 40.641138 
L 130.512646 40.514879 
L 130.197985 40.415667 
L 129.875875 40.344257 
L 129.548767 40.301192 
L 129.219151 40.286801 
L 128.889534 40.301192 
L 128.562426 40.344257 
L 128.240316 40.415667 
L 127.925656 40.514879 
L 127.62084 40.641138 
L 127.328188 40.793483 
L 127.049927 40.970755 
L 126.788175 41.171604 
L 126.544925 41.394502 
L 126.322027 41.637752 
L 126.121178 41.899504 
L 125.943906 42.177764 
L 125.791561 42.470416 
L 125.665302 42.775232 
L 125.56609 43.089893 
L 125.49468 43.412003 
L 125.451616 43.739111 
L 125.437224 44.068727 
L 125.451616 44.398344 
L 125.49468 44.725452 
L 125.56609 45.047562 
L 125.665302 45.362222 
L 125.791561 45.667039 
L 125.943906 45.959691 
L 126.121178 46.237951 
L 126.322027 46.499703 
L 126.544925 46.742953 
L 126.788175 46.965851 
L 127.049927 47.1667 
L 127.328188 47.343972 
L 127.62084 47.496317 
L 127.925656 47.622576 
L 128.240316 47.721788 
L 128.562426 47.793198 
L 128.889534 47.836263 
L 129.219151 47.850654 
L 129.548767 47.836263 
L 129.875875 47.793198 
L 130.197985 47.721788 
L 130.512646 47.622576 
L 130.817462 47.496317 
L 131.110114 47.343972 
L 131.388375 47.1667 
L 131.650126 46.965851 
L 131.893377 46.742953 
L 132.116274 46.499703 
L 132.317123 46.237951 
L 132.494395 45.959691 
L 132.64674 45.667039 
L 132.772999 45.362222 
L 132.872211 45.047562 
L 132.943621 44.725452 
L 132.986686 44.398344 
L 133.001077 44.068727 
z
" clip-path="url(#p3a7bddb525)" style="fill: #6788ee; stroke: #262626"/>
    <path d="M 131.724967 179.875962 
L 142.793195 143.459758 
L 104.4 159.236615 
z
" clip-path="url(#p3a7bddb525)" style="fill: #c75c48; fill-opacity: 0.4; stroke: #262626"/>
    <path d="M 174.776037 136.715303 
L 181.009512 134.662974 
L 142.793195 143.459758 
z
" clip-path="url(#p3a7bddb525)" style="fill: #4a0210; fill-opacity: 0.4; stroke: #262626"/>
    <path d="M 106.921284 159.236615 
L 106.91169 159.01687 
L 106.88298 158.798798 
L 106.835374 158.584058 
L 106.769232 158.374285 
L 106.68506 158.171074 
L 106.583496 157.975973 
L 106.465315 157.790465 
L 106.331416 157.615964 
L 106.182817 157.453798 
L 106.02065 157.305199 
L 105.846149 157.1713 
L 105.660642 157.053118 
L 105.465541 156.951555 
L 105.26233 156.867382 
L 105.052556 156.801241 
L 104.837816 156.753634 
L 104.619744 156.724925 
L 104.4 156.71533 
L 104.180256 156.724925 
L 103.962184 156.753634 
L 103.747444 156.801241 
L 103.53767 156.867382 
L 103.334459 156.951555 
L 103.139358 157.053118 
L 102.953851 157.1713 
L 102.77935 157.305199 
L 102.617183 157.453798 
L 102.468584 157.615964 
L 102.334685 157.790465 
L 102.216504 157.975973 
L 102.11494 158.171074 
L 102.030768 158.374285 
L 101.964626 158.584058 
L 101.91702 158.798798 
L 101.88831 159.01687 
L 101.878716 159.236615 
L 101.88831 159.456359 
L 101.91702 159.674431 
L 101.964626 159.889171 
L 102.030768 160.098945 
L 102.11494 160.302156 
L 102.216504 160.497257 
L 102.334685 160.682764 
L 102.468584 160.857265 
L 102.617183 161.019432 
L 102.77935 161.168031 
L 102.953851 161.30193 
L 103.139358 161.420111 
L 103.334459 161.521674 
L 103.53767 161.605847 
L 103.747444 161.671988 
L 103.962184 161.719595 
L 104.180256 161.748305 
L 104.4 161.757899 
L 104.619744 161.748305 
L 104.837816 161.719595 
L 105.052556 161.671988 
L 105.26233 161.605847 
L 105.465541 161.521674 
L 105.660642 161.420111 
L 105.846149 161.30193 
L 106.02065 161.168031 
L 106.182817 161.019432 
L 106.331416 160.857265 
L 106.465315 160.682764 
L 106.583496 160.497257 
L 106.68506 160.302156 
L 106.769232 160.098945 
L 106.835374 159.889171 
L 106.88298 159.674431 
L 106.91169 159.456359 
L 106.921284 159.236615 
z
" clip-path="url(#p3a7bddb525)" style="fill: #999999; stroke: #262626"/>
    <path d="M 168.100657 129.910065 
L 168.086265 129.580448 
L 168.043201 129.25334 
L 167.971791 128.93123 
L 167.872579 128.61657 
L 167.74632 128.311754 
L 167.593975 128.019102 
L 167.416703 127.740841 
L 167.215854 127.479089 
L 166.992956 127.235839 
L 166.749706 127.012941 
L 166.487954 126.812092 
L 166.209693 126.63482 
L 165.917041 126.482475 
L 165.612225 126.356216 
L 165.297565 126.257004 
L 164.975455 126.185594 
L 164.648347 126.14253 
L 164.31873 126.128138 
L 163.989114 126.14253 
L 163.662006 126.185594 
L 163.339896 126.257004 
L 163.025235 126.356216 
L 162.720419 126.482475 
L 162.427767 126.63482 
L 162.149506 126.812092 
L 161.887755 127.012941 
L 161.644504 127.235839 
L 161.421607 127.479089 
L 161.220758 127.740841 
L 161.043486 128.019102 
L 160.891141 128.311754 
L 160.764882 128.61657 
L 160.66567 128.93123 
L 160.59426 129.25334 
L 160.551195 129.580448 
L 160.536804 129.910065 
L 160.551195 130.239681 
L 160.59426 130.566789 
L 160.66567 130.888899 
L 160.764882 131.20356 
L 160.891141 131.508376 
L 161.043486 131.801028 
L 161.220758 132.079289 
L 161.421607 132.34104 
L 161.644504 132.584291 
L 161.887755 132.807188 
L 162.149506 133.008037 
L 162.427767 133.185309 
L 162.720419 133.337654 
L 163.025235 133.463913 
L 163.339896 133.563125 
L 163.662006 133.634535 
L 163.989114 133.6776 
L 164.31873 133.691991 
L 164.648347 133.6776 
L 164.975455 133.634535 
L 165.297565 133.563125 
L 165.612225 133.463913 
L 165.917041 133.337654 
L 166.209693 133.185309 
L 166.487954 133.008037 
L 166.749706 132.807188 
L 166.992956 132.584291 
L 167.215854 132.34104 
L 167.416703 132.079289 
L 167.593975 131.801028 
L 167.74632 131.508376 
L 167.872579 131.20356 
L 167.971791 130.888899 
L 168.043201 130.566789 
L 168.086265 130.239681 
L 168.100657 129.910065 
z
" clip-path="url(#p3a7bddb525)" style="fill: #b40426; stroke: #262626"/>
    <path d="M 131.724967 31.42739 
L 137.958441 29.375061 
L 142.793195 65.909074 
z
" clip-path="url(#p3a7bddb525)" style="fill: #334375; fill-opacity: 0.4; stroke: #262626"/>
    <path d="M 140.479725 29.375061 
L 140.470131 29.155317 
L 140.441421 28.937245 
L 140.393815 28.722505 
L 140.327673 28.512731 
L 140.243501 28.30952 
L 140.141937 28.114419 
L 140.023756 27.928912 
L 139.889857 27.754411 
L 139.741258 27.592244 
L 139.579091 27.443645 
L 139.40459 27.309746 
L 139.219083 27.191565 
L 139.023982 27.090001 
L 138.820771 27.005829 
L 138.610997 26.939687 
L 138.396257 26.892081 
L 138.178185 26.863371 
L 137.958441 26.853777 
L 137.738697 26.863371 
L 137.520625 26.892081 
L 137.305885 26.939687 
L 137.096111 27.005829 
L 136.8929 27.090001 
L 136.697799 27.191565 
L 136.512292 27.309746 
L 136.337791 27.443645 
L 136.175624 27.592244 
L 136.027025 27.754411 
L 135.893126 27.928912 
L 135.774945 28.114419 
L 135.673381 28.30952 
L 135.589209 28.512731 
L 135.523067 28.722505 
L 135.475461 28.937245 
L 135.446751 29.155317 
L 135.437157 29.375061 
L 135.446751 29.594805 
L 135.475461 29.812877 
L 135.523067 30.027617 
L 135.589209 30.237391 
L 135.673381 30.440602 
L 135.774945 30.635703 
L 135.893126 30.82121 
L 136.027025 30.995711 
L 136.175624 31.157878 
L 136.337791 31.306477 
L 136.512292 31.440376 
L 136.697799 31.558557 
L 136.8929 31.660121 
L 137.096111 31.744293 
L 137.305885 31.810435 
L 137.520625 31.858041 
L 137.738697 31.886751 
L 137.958441 31.896345 
L 138.178185 31.886751 
L 138.396257 31.858041 
L 138.610997 31.810435 
L 138.820771 31.744293 
L 139.023982 31.660121 
L 139.219083 31.558557 
L 139.40459 31.440376 
L 139.579091 31.306477 
L 139.741258 31.157878 
L 139.889857 30.995711 
L 140.023756 30.82121 
L 140.141937 30.635703 
L 140.243501 30.440602 
L 140.327673 30.237391 
L 140.393815 30.027617 
L 140.441421 29.812877 
L 140.470131 29.594805 
L 140.479725 29.375061 
z
" clip-path="url(#p3a7bddb525)" style="fill: #999999; stroke: #262626"/>
    <path d="M 30.311773 135.626438 
L 30.302178 135.406694 
L 30.273469 135.188621 
L 30.225862 134.973882 
L 30.159721 134.764108 
L 30.075548 134.560897 
L 29.973985 134.365796 
L 29.855804 134.180289 
L 29.721904 134.005788 
L 29.573306 133.843621 
L 29.411139 133.695022 
L 29.236638 133.561123 
L 29.05113 133.442942 
L 28.856029 133.341378 
L 28.652818 133.257206 
L 28.443045 133.191064 
L 28.228305 133.143458 
L 28.010233 133.114748 
L 27.790488 133.105154 
L 27.570744 133.114748 
L 27.352672 133.143458 
L 27.137932 133.191064 
L 26.928158 133.257206 
L 26.724948 133.341378 
L 26.529846 133.442942 
L 26.344339 133.561123 
L 26.169838 133.695022 
L 26.007671 133.843621 
L 25.859073 134.005788 
L 25.725173 134.180289 
L 25.606992 134.365796 
L 25.505429 134.560897 
L 25.421256 134.764108 
L 25.355115 134.973882 
L 25.307508 135.188621 
L 25.278798 135.406694 
L 25.269204 135.626438 
L 25.278798 135.846182 
L 25.307508 136.064254 
L 25.355115 136.278994 
L 25.421256 136.488768 
L 25.505429 136.691979 
L 25.606992 136.88708 
L 25.725173 137.072587 
L 25.859073 137.247088 
L 26.007671 137.409255 
L 26.169838 137.557854 
L 26.344339 137.691753 
L 26.529846 137.809934 
L 26.724948 137.911498 
L 26.928158 137.99567 
L 27.137932 138.061812 
L 27.352672 138.109418 
L 27.570744 138.138128 
L 27.790488 138.147722 
L 28.010233 138.138128 
L 28.228305 138.109418 
L 28.443045 138.061812 
L 28.652818 137.99567 
L 28.856029 137.911498 
L 29.05113 137.809934 
L 29.236638 137.691753 
L 29.411139 137.557854 
L 29.573306 137.409255 
L 29.721904 137.247088 
L 29.855804 137.072587 
L 29.973985 136.88708 
L 30.075548 136.691979 
L 30.159721 136.488768 
L 30.225862 136.278994 
L 30.273469 136.064254 
L 30.302178 135.846182 
L 30.311773 135.626438 
z
" clip-path="url(#p3a7bddb525)" style="fill: #999999; stroke: #262626"/>
    <path d="M 174.776037 136.715303 
L 158.696177 104.802225 
L 181.009512 134.662974 
z
" clip-path="url(#p3a7bddb525)" style="fill: #580213; fill-opacity: 0.4; stroke: #262626"/>
    <path d="M 183.530796 134.662974 
L 183.521202 134.443229 
L 183.492492 134.225157 
L 183.444885 134.010417 
L 183.378744 133.800644 
L 183.294571 133.597433 
L 183.193008 133.402332 
L 183.074827 133.216824 
L 182.940927 133.042323 
L 182.792329 132.880157 
L 182.630162 132.731558 
L 182.455661 132.597659 
L 182.270154 132.479478 
L 182.075052 132.377914 
L 181.871842 132.293742 
L 181.662068 132.2276 
L 181.447328 132.179993 
L 181.229256 132.151284 
L 181.009512 132.141689 
L 180.789767 132.151284 
L 180.571695 132.179993 
L 180.356955 132.2276 
L 180.147182 132.293742 
L 179.943971 132.377914 
L 179.74887 132.479478 
L 179.563362 132.597659 
L 179.388861 132.731558 
L 179.226694 132.880157 
L 179.078096 133.042323 
L 178.944196 133.216824 
L 178.826015 133.402332 
L 178.724452 133.597433 
L 178.640279 133.800644 
L 178.574138 134.010417 
L 178.526531 134.225157 
L 178.497822 134.443229 
L 178.488227 134.662974 
L 178.497822 134.882718 
L 178.526531 135.10079 
L 178.574138 135.31553 
L 178.640279 135.525304 
L 178.724452 135.728515 
L 178.826015 135.923616 
L 178.944196 136.109123 
L 179.078096 136.283624 
L 179.226694 136.445791 
L 179.388861 136.59439 
L 179.563362 136.728289 
L 179.74887 136.84647 
L 179.943971 136.948033 
L 180.147182 137.032206 
L 180.356955 137.098347 
L 180.571695 137.145954 
L 180.789767 137.174664 
L 181.009512 137.184258 
L 181.229256 137.174664 
L 181.447328 137.145954 
L 181.662068 137.098347 
L 181.871842 137.032206 
L 182.075052 136.948033 
L 182.270154 136.84647 
L 182.455661 136.728289 
L 182.630162 136.59439 
L 182.792329 136.445791 
L 182.940927 136.283624 
L 183.074827 136.109123 
L 183.193008 135.923616 
L 183.294571 135.728515 
L 183.378744 135.525304 
L 183.444885 135.31553 
L 183.492492 135.10079 
L 183.521202 134.882718 
L 183.530796 134.662974 
z
" clip-path="url(#p3a7bddb525)" style="fill: #999999; stroke: #262626"/>
    <path d="M 168.100657 79.777688 
L 168.086265 79.448071 
L 168.043201 79.120963 
L 167.971791 78.798853 
L 167.872579 78.484193 
L 167.74632 78.179377 
L 167.593975 77.886725 
L 167.416703 77.608464 
L 167.215854 77.346712 
L 166.992956 77.103462 
L 166.749706 76.880564 
L 166.487954 76.679715 
L 166.209693 76.502443 
L 165.917041 76.350098 
L 165.612225 76.223839 
L 165.297565 76.124627 
L 164.975455 76.053217 
L 164.648347 76.010153 
L 164.31873 75.995761 
L 163.989114 76.010153 
L 163.662006 76.053217 
L 163.339896 76.124627 
L 163.025235 76.223839 
L 162.720419 76.350098 
L 162.427767 76.502443 
L 162.149506 76.679715 
L 161.887755 76.880564 
L 161.644504 77.103462 
L 161.421607 77.346712 
L 161.220758 77.608464 
L 161.043486 77.886725 
L 160.891141 78.179377 
L 160.764882 78.484193 
L 160.66567 78.798853 
L 160.59426 79.120963 
L 160.551195 79.448071 
L 160.536804 79.777688 
L 160.551195 80.107304 
L 160.59426 80.434412 
L 160.66567 80.756522 
L 160.764882 81.071183 
L 160.891141 81.375999 
L 161.043486 81.668651 
L 161.220758 81.946912 
L 161.421607 82.208663 
L 161.644504 82.451914 
L 161.887755 82.674812 
L 162.149506 82.875661 
L 162.427767 83.052932 
L 162.720419 83.205277 
L 163.025235 83.331536 
L 163.339896 83.430748 
L 163.662006 83.502158 
L 163.989114 83.545223 
L 164.31873 83.559614 
L 164.648347 83.545223 
L 164.975455 83.502158 
L 165.297565 83.430748 
L 165.612225 83.331536 
L 165.917041 83.205277 
L 166.209693 83.052932 
L 166.487954 82.875661 
L 166.749706 82.674812 
L 166.992956 82.451914 
L 167.215854 82.208663 
L 167.416703 81.946912 
L 167.593975 81.668651 
L 167.74632 81.375999 
L 167.872579 81.071183 
L 167.971791 80.756522 
L 168.043201 80.434412 
L 168.086265 80.107304 
L 168.100657 79.777688 
z
" clip-path="url(#p3a7bddb525)" style="fill: #3b4cc0; stroke: #262626"/>
    <path d="M 174.776037 75.225891 
L 181.009512 73.173562 
L 142.793195 65.909074 
z
" clip-path="url(#p3a7bddb525)" style="fill: #1a2256; fill-opacity: 0.4; stroke: #262626"/>
    <path d="M 174.776037 75.225891 
L 158.696177 104.802225 
L 181.009512 73.173562 
z
" clip-path="url(#p3a7bddb525)" style="fill: #1b2358; fill-opacity: 0.4; stroke: #262626"/>
    <path d="M 183.530796 73.173562 
L 183.521202 72.953818 
L 183.492492 72.735746 
L 183.444885 72.521006 
L 183.378744 72.311232 
L 183.294571 72.108021 
L 183.193008 71.91292 
L 183.074827 71.727413 
L 182.940927 71.552912 
L 182.792329 71.390745 
L 182.630162 71.242146 
L 182.455661 71.108247 
L 182.270154 70.990066 
L 182.075052 70.888502 
L 181.871842 70.80433 
L 181.662068 70.738188 
L 181.447328 70.690582 
L 181.229256 70.661872 
L 181.009512 70.652278 
L 180.789767 70.661872 
L 180.571695 70.690582 
L 180.356955 70.738188 
L 180.147182 70.80433 
L 179.943971 70.888502 
L 179.74887 70.990066 
L 179.563362 71.108247 
L 179.388861 71.242146 
L 179.226694 71.390745 
L 179.078096 71.552912 
L 178.944196 71.727413 
L 178.826015 71.91292 
L 178.724452 72.108021 
L 178.640279 72.311232 
L 178.574138 72.521006 
L 178.526531 72.735746 
L 178.497822 72.953818 
L 178.488227 73.173562 
L 178.497822 73.393306 
L 178.526531 73.611379 
L 178.574138 73.826118 
L 178.640279 74.035892 
L 178.724452 74.239103 
L 178.826015 74.434204 
L 178.944196 74.619711 
L 179.078096 74.794212 
L 179.226694 74.956379 
L 179.388861 75.104978 
L 179.563362 75.238877 
L 179.74887 75.357058 
L 179.943971 75.458622 
L 180.147182 75.542794 
L 180.356955 75.608936 
L 180.571695 75.656542 
L 180.789767 75.685252 
L 181.009512 75.694846 
L 181.229256 75.685252 
L 181.447328 75.656542 
L 181.662068 75.608936 
L 181.871842 75.542794 
L 182.075052 75.458622 
L 182.270154 75.357058 
L 182.455661 75.238877 
L 182.630162 75.104978 
L 182.792329 74.956379 
L 182.940927 74.794212 
L 183.074827 74.619711 
L 183.193008 74.434204 
L 183.294571 74.239103 
L 183.378744 74.035892 
L 183.444885 73.826118 
L 183.492492 73.611379 
L 183.521202 73.393306 
L 183.530796 73.173562 
z
" clip-path="url(#p3a7bddb525)" style="fill: #999999; stroke: #262626"/>
    <path d="M 30.311773 74.137026 
L 30.302178 73.917282 
L 30.273469 73.69921 
L 30.225862 73.48447 
L 30.159721 73.274696 
L 30.075548 73.071485 
L 29.973985 72.876384 
L 29.855804 72.690877 
L 29.721904 72.516376 
L 29.573306 72.354209 
L 29.411139 72.20561 
L 29.236638 72.071711 
L 29.05113 71.95353 
L 28.856029 71.851967 
L 28.652818 71.767794 
L 28.443045 71.701653 
L 28.228305 71.654046 
L 28.010233 71.625336 
L 27.790488 71.615742 
L 27.570744 71.625336 
L 27.352672 71.654046 
L 27.137932 71.701653 
L 26.928158 71.767794 
L 26.724948 71.851967 
L 26.529846 71.95353 
L 26.344339 72.071711 
L 26.169838 72.20561 
L 26.007671 72.354209 
L 25.859073 72.516376 
L 25.725173 72.690877 
L 25.606992 72.876384 
L 25.505429 73.071485 
L 25.421256 73.274696 
L 25.355115 73.48447 
L 25.307508 73.69921 
L 25.278798 73.917282 
L 25.269204 74.137026 
L 25.278798 74.356771 
L 25.307508 74.574843 
L 25.355115 74.789583 
L 25.421256 74.999356 
L 25.505429 75.202567 
L 25.606992 75.397668 
L 25.725173 75.583176 
L 25.859073 75.757677 
L 26.007671 75.919843 
L 26.169838 76.068442 
L 26.344339 76.202341 
L 26.529846 76.320522 
L 26.724948 76.422086 
L 26.928158 76.506258 
L 27.137932 76.5724 
L 27.352672 76.620007 
L 27.570744 76.648716 
L 27.790488 76.658311 
L 28.010233 76.648716 
L 28.228305 76.620007 
L 28.443045 76.5724 
L 28.652818 76.506258 
L 28.856029 76.422086 
L 29.05113 76.320522 
L 29.236638 76.202341 
L 29.411139 76.068442 
L 29.573306 75.919843 
L 29.721904 75.757677 
L 29.855804 75.583176 
L 29.973985 75.397668 
L 30.075548 75.202567 
L 30.159721 74.999356 
L 30.225862 74.789583 
L 30.273469 74.574843 
L 30.302178 74.356771 
L 30.311773 74.137026 
z
" clip-path="url(#p3a7bddb525)" style="fill: #999999; stroke: #262626"/>
    <path d="M 73.362843 179.424939 
L 73.353249 179.205195 
L 73.324539 178.987123 
L 73.276933 178.772383 
L 73.210791 178.562609 
L 73.126619 178.359398 
L 73.025055 178.164297 
L 72.906874 177.97879 
L 72.772975 177.804289 
L 72.624376 177.642122 
L 72.462209 177.493523 
L 72.287708 177.359624 
L 72.102201 177.241443 
L 71.9071 177.139879 
L 71.703889 177.055707 
L 71.494115 176.989565 
L 71.279375 176.941959 
L 71.061303 176.913249 
L 70.841559 176.903655 
L 70.621815 176.913249 
L 70.403743 176.941959 
L 70.189003 176.989565 
L 69.979229 177.055707 
L 69.776018 177.139879 
L 69.580917 177.241443 
L 69.39541 177.359624 
L 69.220909 177.493523 
L 69.058742 177.642122 
L 68.910143 177.804289 
L 68.776244 177.97879 
L 68.658063 178.164297 
L 68.556499 178.359398 
L 68.472327 178.562609 
L 68.406185 178.772383 
L 68.358579 178.987123 
L 68.329869 179.205195 
L 68.320275 179.424939 
L 68.329869 179.644683 
L 68.358579 179.862755 
L 68.406185 180.077495 
L 68.472327 180.287269 
L 68.556499 180.49048 
L 68.658063 180.685581 
L 68.776244 180.871088 
L 68.910143 181.045589 
L 69.058742 181.207756 
L 69.220909 181.356355 
L 69.39541 181.490254 
L 69.580917 181.608435 
L 69.776018 181.709999 
L 69.979229 181.794171 
L 70.189003 181.860313 
L 70.403743 181.907919 
L 70.621815 181.936629 
L 70.841559 181.946223 
L 71.061303 181.936629 
L 71.279375 181.907919 
L 71.494115 181.860313 
L 71.703889 181.794171 
L 71.9071 181.709999 
L 72.102201 181.608435 
L 72.287708 181.490254 
L 72.462209 181.356355 
L 72.624376 181.207756 
L 72.772975 181.045589 
L 72.906874 180.871088 
L 73.025055 180.685581 
L 73.126619 180.49048 
L 73.210791 180.287269 
L 73.276933 180.077495 
L 73.324539 179.862755 
L 73.353249 179.644683 
L 73.362843 179.424939 
z
" clip-path="url(#p3a7bddb525)" style="fill: #999999; stroke: #262626"/>
    <path d="M 131.724967 31.42739 
L 142.793195 65.909074 
L 104.4 49.563385 
z
" clip-path="url(#p3a7bddb525)" style="fill: #5774ca; fill-opacity: 0.4; stroke: #262626"/>
    <path d="M 174.776037 136.715303 
L 158.696177 104.802225 
L 142.793195 143.459758 
z
" clip-path="url(#p3a7bddb525)" style="fill: #980320; fill-opacity: 0.4; stroke: #262626"/>
    <path d="M 174.776037 75.225891 
L 158.696177 104.802225 
L 142.793195 65.909074 
z
" clip-path="url(#p3a7bddb525)" style="fill: #313fa0; fill-opacity: 0.4; stroke: #262626"/>
    <path d="M 106.921284 49.563385 
L 106.91169 49.343641 
L 106.88298 49.125569 
L 106.835374 48.910829 
L 106.769232 48.701055 
L 106.68506 48.497844 
L 106.583496 48.302743 
L 106.465315 48.117236 
L 106.331416 47.942735 
L 106.182817 47.780568 
L 106.02065 47.631969 
L 105.846149 47.49807 
L 105.660642 47.379889 
L 105.465541 47.278326 
L 105.26233 47.194153 
L 105.052556 47.128012 
L 104.837816 47.080405 
L 104.619744 47.051695 
L 104.4 47.042101 
L 104.180256 47.051695 
L 103.962184 47.080405 
L 103.747444 47.128012 
L 103.53767 47.194153 
L 103.334459 47.278326 
L 103.139358 47.379889 
L 102.953851 47.49807 
L 102.77935 47.631969 
L 102.617183 47.780568 
L 102.468584 47.942735 
L 102.334685 48.117236 
L 102.216504 48.302743 
L 102.11494 48.497844 
L 102.030768 48.701055 
L 101.964626 48.910829 
L 101.91702 49.125569 
L 101.88831 49.343641 
L 101.878716 49.563385 
L 101.88831 49.78313 
L 101.91702 50.001202 
L 101.964626 50.215942 
L 102.030768 50.425715 
L 102.11494 50.628926 
L 102.216504 50.824027 
L 102.334685 51.009535 
L 102.468584 51.184036 
L 102.617183 51.346202 
L 102.77935 51.494801 
L 102.953851 51.6287 
L 103.139358 51.746882 
L 103.334459 51.848445 
L 103.53767 51.932618 
L 103.747444 51.998759 
L 103.962184 52.046366 
L 104.180256 52.075075 
L 104.4 52.08467 
L 104.619744 52.075075 
L 104.837816 52.046366 
L 105.052556 51.998759 
L 105.26233 51.932618 
L 105.465541 51.848445 
L 105.660642 51.746882 
L 105.846149 51.6287 
L 106.02065 51.494801 
L 106.182817 51.346202 
L 106.331416 51.184036 
L 106.465315 51.009535 
L 106.583496 50.824027 
L 106.68506 50.628926 
L 106.769232 50.425715 
L 106.835374 50.215942 
L 106.88298 50.001202 
L 106.91169 49.78313 
L 106.921284 49.563385 
z
" clip-path="url(#p3a7bddb525)" style="fill: #999999; stroke: #262626"/>
    <path d="M 145.314479 143.459758 
L 145.304885 143.240013 
L 145.276175 143.021941 
L 145.228569 142.807201 
L 145.162427 142.597428 
L 145.078255 142.394217 
L 144.976691 142.199116 
L 144.85851 142.013609 
L 144.724611 141.839108 
L 144.576012 141.676941 
L 144.413845 141.528342 
L 144.239344 141.394443 
L 144.053837 141.276262 
L 143.858736 141.174698 
L 143.655525 141.090526 
L 143.445751 141.024384 
L 143.231011 140.976778 
L 143.012939 140.948068 
L 142.793195 140.938474 
L 142.573451 140.948068 
L 142.355379 140.976778 
L 142.140639 141.024384 
L 141.930865 141.090526 
L 141.727654 141.174698 
L 141.532553 141.276262 
L 141.347046 141.394443 
L 141.172545 141.528342 
L 141.010378 141.676941 
L 140.861779 141.839108 
L 140.72788 142.013609 
L 140.609699 142.199116 
L 140.508135 142.394217 
L 140.423963 142.597428 
L 140.357821 142.807201 
L 140.310215 143.021941 
L 140.281505 143.240013 
L 140.271911 143.459758 
L 140.281505 143.679502 
L 140.310215 143.897574 
L 140.357821 144.112314 
L 140.423963 144.322088 
L 140.508135 144.525299 
L 140.609699 144.7204 
L 140.72788 144.905907 
L 140.861779 145.080408 
L 141.010378 145.242575 
L 141.172545 145.391174 
L 141.347046 145.525073 
L 141.532553 145.643254 
L 141.727654 145.744817 
L 141.930865 145.82899 
L 142.140639 145.895131 
L 142.355379 145.942738 
L 142.573451 145.971448 
L 142.793195 145.981042 
L 143.012939 145.971448 
L 143.231011 145.942738 
L 143.445751 145.895131 
L 143.655525 145.82899 
L 143.858736 145.744817 
L 144.053837 145.643254 
L 144.239344 145.525073 
L 144.413845 145.391174 
L 144.576012 145.242575 
L 144.724611 145.080408 
L 144.85851 144.905907 
L 144.976691 144.7204 
L 145.078255 144.525299 
L 145.162427 144.322088 
L 145.228569 144.112314 
L 145.276175 143.897574 
L 145.304885 143.679502 
L 145.314479 143.459758 
z
" clip-path="url(#p3a7bddb525)" style="fill: #999999; stroke: #262626"/>
    <path d="M 145.314479 65.909074 
L 145.304885 65.689329 
L 145.276175 65.471257 
L 145.228569 65.256517 
L 145.162427 65.046744 
L 145.078255 64.843533 
L 144.976691 64.648431 
L 144.85851 64.462924 
L 144.724611 64.288423 
L 144.576012 64.126256 
L 144.413845 63.977658 
L 144.239344 63.843758 
L 144.053837 63.725577 
L 143.858736 63.624014 
L 143.655525 63.539841 
L 143.445751 63.4737 
L 143.231011 63.426093 
L 143.012939 63.397384 
L 142.793195 63.387789 
L 142.573451 63.397384 
L 142.355379 63.426093 
L 142.140639 63.4737 
L 141.930865 63.539841 
L 141.727654 63.624014 
L 141.532553 63.725577 
L 141.347046 63.843758 
L 141.172545 63.977658 
L 141.010378 64.126256 
L 140.861779 64.288423 
L 140.72788 64.462924 
L 140.609699 64.648431 
L 140.508135 64.843533 
L 140.423963 65.046744 
L 140.357821 65.256517 
L 140.310215 65.471257 
L 140.281505 65.689329 
L 140.271911 65.909074 
L 140.281505 66.128818 
L 140.310215 66.34689 
L 140.357821 66.56163 
L 140.423963 66.771404 
L 140.508135 66.974614 
L 140.609699 67.169716 
L 140.72788 67.355223 
L 140.861779 67.529724 
L 141.010378 67.691891 
L 141.172545 67.840489 
L 141.347046 67.974389 
L 141.532553 68.09257 
L 141.727654 68.194133 
L 141.930865 68.278306 
L 142.140639 68.344447 
L 142.355379 68.392054 
L 142.573451 68.420764 
L 142.793195 68.430358 
L 143.012939 68.420764 
L 143.231011 68.392054 
L 143.445751 68.344447 
L 143.655525 68.278306 
L 143.858736 68.194133 
L 144.053837 68.09257 
L 144.239344 67.974389 
L 144.413845 67.840489 
L 144.576012 67.691891 
L 144.724611 67.529724 
L 144.85851 67.355223 
L 144.976691 67.169716 
L 145.078255 66.974614 
L 145.162427 66.771404 
L 145.228569 66.56163 
L 145.276175 66.34689 
L 145.304885 66.128818 
L 145.314479 65.909074 
z
" clip-path="url(#p3a7bddb525)" style="fill: #999999; stroke: #262626"/>
    <path d="M 161.217461 104.802225 
L 161.207867 104.58248 
L 161.179157 104.364408 
L 161.131551 104.149668 
L 161.065409 103.939895 
L 160.981237 103.736684 
L 160.879673 103.541582 
L 160.761492 103.356075 
L 160.627593 103.181574 
L 160.478994 103.019407 
L 160.316827 102.870809 
L 160.142326 102.736909 
L 159.956819 102.618728 
L 159.761718 102.517165 
L 159.558507 102.432992 
L 159.348733 102.366851 
L 159.133993 102.319244 
L 158.915921 102.290535 
L 158.696177 102.28094 
L 158.476433 102.290535 
L 158.258361 102.319244 
L 158.043621 102.366851 
L 157.833847 102.432992 
L 157.630636 102.517165 
L 157.435535 102.618728 
L 157.250028 102.736909 
L 157.075527 102.870809 
L 156.91336 103.019407 
L 156.764761 103.181574 
L 156.630862 103.356075 
L 156.512681 103.541582 
L 156.411117 103.736684 
L 156.326945 103.939895 
L 156.260803 104.149668 
L 156.213197 104.364408 
L 156.184487 104.58248 
L 156.174893 104.802225 
L 156.184487 105.021969 
L 156.213197 105.240041 
L 156.260803 105.454781 
L 156.326945 105.664555 
L 156.411117 105.867765 
L 156.512681 106.062867 
L 156.630862 106.248374 
L 156.764761 106.422875 
L 156.91336 106.585042 
L 157.075527 106.73364 
L 157.250028 106.86754 
L 157.435535 106.985721 
L 157.630636 107.087284 
L 157.833847 107.171457 
L 158.043621 107.237598 
L 158.258361 107.285205 
L 158.476433 107.313915 
L 158.696177 107.323509 
L 158.915921 107.313915 
L 159.133993 107.285205 
L 159.348733 107.237598 
L 159.558507 107.171457 
L 159.761718 107.087284 
L 159.956819 106.985721 
L 160.142326 106.86754 
L 160.316827 106.73364 
L 160.478994 106.585042 
L 160.627593 106.422875 
L 160.761492 106.248374 
L 160.879673 106.062867 
L 160.981237 105.867765 
L 161.065409 105.664555 
L 161.131551 105.454781 
L 161.179157 105.240041 
L 161.207867 105.021969 
L 161.217461 104.802225 
z
" clip-path="url(#p3a7bddb525)" style="fill: #999999; stroke: #262626"/>
    <path d="M 73.362843 30.976367 
L 73.353249 30.756623 
L 73.324539 30.538551 
L 73.276933 30.323811 
L 73.210791 30.114037 
L 73.126619 29.910827 
L 73.025055 29.715725 
L 72.906874 29.530218 
L 72.772975 29.355717 
L 72.624376 29.19355 
L 72.462209 29.044952 
L 72.287708 28.911052 
L 72.102201 28.792871 
L 71.9071 28.691308 
L 71.703889 28.607135 
L 71.494115 28.540994 
L 71.279375 28.493387 
L 71.061303 28.464677 
L 70.841559 28.455083 
L 70.621815 28.464677 
L 70.403743 28.493387 
L 70.189003 28.540994 
L 69.979229 28.607135 
L 69.776018 28.691308 
L 69.580917 28.792871 
L 69.39541 28.911052 
L 69.220909 29.044952 
L 69.058742 29.19355 
L 68.910143 29.355717 
L 68.776244 29.530218 
L 68.658063 29.715725 
L 68.556499 29.910827 
L 68.472327 30.114037 
L 68.406185 30.323811 
L 68.358579 30.538551 
L 68.329869 30.756623 
L 68.320275 30.976367 
L 68.329869 31.196112 
L 68.358579 31.414184 
L 68.406185 31.628924 
L 68.472327 31.838697 
L 68.556499 32.041908 
L 68.658063 32.23701 
L 68.776244 32.422517 
L 68.910143 32.597018 
L 69.058742 32.759185 
L 69.220909 32.907783 
L 69.39541 33.041683 
L 69.580917 33.159864 
L 69.776018 33.261427 
L 69.979229 33.3456 
L 70.189003 33.411741 
L 70.403743 33.459348 
L 70.621815 33.488057 
L 70.841559 33.497652 
L 71.061303 33.488057 
L 71.279375 33.459348 
L 71.494115 33.411741 
L 71.703889 33.3456 
L 71.9071 33.261427 
L 72.102201 33.159864 
L 72.287708 33.041683 
L 72.462209 32.907783 
L 72.624376 32.759185 
L 72.772975 32.597018 
L 72.906874 32.422517 
L 73.025055 32.23701 
L 73.126619 32.041908 
L 73.210791 31.838697 
L 73.276933 31.628924 
L 73.324539 31.414184 
L 73.353249 31.196112 
L 73.362843 30.976367 
z
" clip-path="url(#p3a7bddb525)" style="fill: #999999; stroke: #262626"/>
    <path d="M 134.246251 179.875962 
L 134.236657 179.656217 
L 134.207947 179.438145 
L 134.16034 179.223405 
L 134.094199 179.013632 
L 134.010026 178.810421 
L 133.908463 178.615319 
L 133.790282 178.429812 
L 133.656383 178.255311 
L 133.507784 178.093144 
L 133.345617 177.944546 
L 133.171116 177.810646 
L 132.985609 177.692465 
L 132.790508 177.590902 
L 132.587297 177.506729 
L 132.377523 177.440588 
L 132.162783 177.392981 
L 131.944711 177.364272 
L 131.724967 177.354677 
L 131.505222 177.364272 
L 131.28715 177.392981 
L 131.07241 177.440588 
L 130.862637 177.506729 
L 130.659426 177.590902 
L 130.464325 177.692465 
L 130.278818 177.810646 
L 130.104317 177.944546 
L 129.94215 178.093144 
L 129.793551 178.255311 
L 129.659652 178.429812 
L 129.541471 178.615319 
L 129.439907 178.810421 
L 129.355735 179.013632 
L 129.289593 179.223405 
L 129.241987 179.438145 
L 129.213277 179.656217 
L 129.203683 179.875962 
L 129.213277 180.095706 
L 129.241987 180.313778 
L 129.289593 180.528518 
L 129.355735 180.738292 
L 129.439907 180.941502 
L 129.541471 181.136604 
L 129.659652 181.322111 
L 129.793551 181.496612 
L 129.94215 181.658779 
L 130.104317 181.807377 
L 130.278818 181.941277 
L 130.464325 182.059458 
L 130.659426 182.161021 
L 130.862637 182.245194 
L 131.07241 182.311335 
L 131.28715 182.358942 
L 131.505222 182.387652 
L 131.724967 182.397246 
L 131.944711 182.387652 
L 132.162783 182.358942 
L 132.377523 182.311335 
L 132.587297 182.245194 
L 132.790508 182.161021 
L 132.985609 182.059458 
L 133.171116 181.941277 
L 133.345617 181.807377 
L 133.507784 181.658779 
L 133.656383 181.496612 
L 133.790282 181.322111 
L 133.908463 181.136604 
L 134.010026 180.941502 
L 134.094199 180.738292 
L 134.16034 180.528518 
L 134.207947 180.313778 
L 134.236657 180.095706 
L 134.246251 179.875962 
z
" clip-path="url(#p3a7bddb525)" style="fill: #999999; stroke: #262626"/>
    <path d="M 134.246251 31.42739 
L 134.236657 31.207646 
L 134.207947 30.989574 
L 134.16034 30.774834 
L 134.094199 30.56506 
L 134.010026 30.361849 
L 133.908463 30.166748 
L 133.790282 29.981241 
L 133.656383 29.80674 
L 133.507784 29.644573 
L 133.345617 29.495974 
L 133.171116 29.362075 
L 132.985609 29.243894 
L 132.790508 29.14233 
L 132.587297 29.058158 
L 132.377523 28.992016 
L 132.162783 28.94441 
L 131.944711 28.9157 
L 131.724967 28.906106 
L 131.505222 28.9157 
L 131.28715 28.94441 
L 131.07241 28.992016 
L 130.862637 29.058158 
L 130.659426 29.14233 
L 130.464325 29.243894 
L 130.278818 29.362075 
L 130.104317 29.495974 
L 129.94215 29.644573 
L 129.793551 29.80674 
L 129.659652 29.981241 
L 129.541471 30.166748 
L 129.439907 30.361849 
L 129.355735 30.56506 
L 129.289593 30.774834 
L 129.241987 30.989574 
L 129.213277 31.207646 
L 129.203683 31.42739 
L 129.213277 31.647134 
L 129.241987 31.865206 
L 129.289593 32.079946 
L 129.355735 32.28972 
L 129.439907 32.492931 
L 129.541471 32.688032 
L 129.659652 32.873539 
L 129.793551 33.04804 
L 129.94215 33.210207 
L 130.104317 33.358806 
L 130.278818 33.492705 
L 130.464325 33.610886 
L 130.659426 33.71245 
L 130.862637 33.796622 
L 131.07241 33.862764 
L 131.28715 33.91037 
L 131.505222 33.93908 
L 131.724967 33.948674 
L 131.944711 33.93908 
L 132.162783 33.91037 
L 132.377523 33.862764 
L 132.587297 33.796622 
L 132.790508 33.71245 
L 132.985609 33.610886 
L 133.171116 33.492705 
L 133.345617 33.358806 
L 133.507784 33.210207 
L 133.656383 33.04804 
L 133.790282 32.873539 
L 133.908463 32.688032 
L 134.010026 32.492931 
L 134.094199 32.28972 
L 134.16034 32.079946 
L 134.207947 31.865206 
L 134.236657 31.647134 
L 134.246251 31.42739 
z
" clip-path="url(#p3a7bddb525)" style="fill: #999999; stroke: #262626"/>
    <path d="M 177.297322 136.715303 
L 177.287727 136.495558 
L 177.259018 136.277486 
L 177.211411 136.062746 
L 177.14527 135.852973 
L 177.061097 135.649762 
L 176.959534 135.454661 
L 176.841353 135.269153 
L 176.707453 135.094652 
L 176.558855 134.932486 
L 176.396688 134.783887 
L 176.222187 134.649988 
L 176.03668 134.531807 
L 175.841578 134.430243 
L 175.638367 134.346071 
L 175.428594 134.279929 
L 175.213854 134.232322 
L 174.995782 134.203613 
L 174.776037 134.194018 
L 174.556293 134.203613 
L 174.338221 134.232322 
L 174.123481 134.279929 
L 173.913707 134.346071 
L 173.710497 134.430243 
L 173.515395 134.531807 
L 173.329888 134.649988 
L 173.155387 134.783887 
L 172.99322 134.932486 
L 172.844622 135.094652 
L 172.710722 135.269153 
L 172.592541 135.454661 
L 172.490978 135.649762 
L 172.406805 135.852973 
L 172.340664 136.062746 
L 172.293057 136.277486 
L 172.264347 136.495558 
L 172.254753 136.715303 
L 172.264347 136.935047 
L 172.293057 137.153119 
L 172.340664 137.367859 
L 172.406805 137.577633 
L 172.490978 137.780844 
L 172.592541 137.975945 
L 172.710722 138.161452 
L 172.844622 138.335953 
L 172.99322 138.49812 
L 173.155387 138.646719 
L 173.329888 138.780618 
L 173.515395 138.898799 
L 173.710497 139.000362 
L 173.913707 139.084535 
L 174.123481 139.150676 
L 174.338221 139.198283 
L 174.556293 139.226993 
L 174.776037 139.236587 
L 174.995782 139.226993 
L 175.213854 139.198283 
L 175.428594 139.150676 
L 175.638367 139.084535 
L 175.841578 139.000362 
L 176.03668 138.898799 
L 176.222187 138.780618 
L 176.396688 138.646719 
L 176.558855 138.49812 
L 176.707453 138.335953 
L 176.841353 138.161452 
L 176.959534 137.975945 
L 177.061097 137.780844 
L 177.14527 137.577633 
L 177.211411 137.367859 
L 177.259018 137.153119 
L 177.287727 136.935047 
L 177.297322 136.715303 
z
" clip-path="url(#p3a7bddb525)" style="fill: #999999; stroke: #262626"/>
    <path d="M 177.297322 75.225891 
L 177.287727 75.006147 
L 177.259018 74.788075 
L 177.211411 74.573335 
L 177.14527 74.363561 
L 177.061097 74.16035 
L 176.959534 73.965249 
L 176.841353 73.779742 
L 176.707453 73.605241 
L 176.558855 73.443074 
L 176.396688 73.294475 
L 176.222187 73.160576 
L 176.03668 73.042395 
L 175.841578 72.940831 
L 175.638367 72.856659 
L 175.428594 72.790517 
L 175.213854 72.742911 
L 174.995782 72.714201 
L 174.776037 72.704607 
L 174.556293 72.714201 
L 174.338221 72.742911 
L 174.123481 72.790517 
L 173.913707 72.856659 
L 173.710497 72.940831 
L 173.515395 73.042395 
L 173.329888 73.160576 
L 173.155387 73.294475 
L 172.99322 73.443074 
L 172.844622 73.605241 
L 172.710722 73.779742 
L 172.592541 73.965249 
L 172.490978 74.16035 
L 172.406805 74.363561 
L 172.340664 74.573335 
L 172.293057 74.788075 
L 172.264347 75.006147 
L 172.254753 75.225891 
L 172.264347 75.445635 
L 172.293057 75.663707 
L 172.340664 75.878447 
L 172.406805 76.088221 
L 172.490978 76.291432 
L 172.592541 76.486533 
L 172.710722 76.67204 
L 172.844622 76.846541 
L 172.99322 77.008708 
L 173.155387 77.157307 
L 173.329888 77.291206 
L 173.515395 77.409387 
L 173.710497 77.510951 
L 173.913707 77.595123 
L 174.123481 77.661265 
L 174.338221 77.708871 
L 174.556293 77.737581 
L 174.776037 77.747175 
L 174.995782 77.737581 
L 175.213854 77.708871 
L 175.428594 77.661265 
L 175.638367 77.595123 
L 175.841578 77.510951 
L 176.03668 77.409387 
L 176.222187 77.291206 
L 176.396688 77.157307 
L 176.558855 77.008708 
L 176.707453 76.846541 
L 176.841353 76.67204 
L 176.959534 76.486533 
L 177.061097 76.291432 
L 177.14527 76.088221 
L 177.211411 75.878447 
L 177.259018 75.663707 
L 177.287727 75.445635 
L 177.297322 75.225891 
z
" clip-path="url(#p3a7bddb525)" style="fill: #999999; stroke: #262626"/>
   </g>
  </g>
 </g>
 <defs>
  <clipPath id="p3a7bddb525">
   <rect x="7.2" y="7.2" width="194.4" height="194.4"/>
  </clipPath>
 </defs>
</svg>
