<?xml version="1.0" encoding="utf-8" standalone="no"?>
<!DOCTYPE svg PUBLIC "-//W3C//DTD SVG 1.1//EN"
  "http://www.w3.org/Graphics/SVG/1.1/DTD/svg11.dtd">
<svg xmlns:xlink="http://www.w3.org/1999/xlink" width="208.8pt" height="206.5329pt" viewBox="0 0 208.8 206.5329" xmlns="http://www.w3.org/2000/svg" version="1.1">
 <metadata>
  <rdf:RDF xmlns:dc="http://purl.org/dc/elements/1.1/" xmlns:cc="http://creativecommons.org/ns#" xmlns:rdf="http://www.w3.org/1999/02/22-rdf-syntax-ns#">
   <cc:Work>
    <dc:type rdf:resource="http://purl.org/dc/dcmitype/StillImage"/>
    <dc:date>2026-02-21T07:19:36.507517</dc:date>
    <dc:format>image/svg+xml</dc:format>
    <dc:creator>
     <cc:Agent>
      <dc:title>Matplotlib v3.10.7, https://matplotlib.org/</dc:title>
     </cc:Agent>
    </dc:creator>
   </cc:Work>
  </rdf:RDF>
 </metadata>
 <defs>
  <style type="text/css">*{stroke-linejoin: round; stroke-linecap: butt}</style>
 </defs>
 <g id="figure_1">
  <g id="patch_1">
   <path d="M 0 206.5329 
L 208.8 206.5329 
L 208.8 0 
L 0 0 
z
" style="fill: #ffffff"/>
  </g>
  <g id="axes_1">
   <g id="PolyCollection_1">
    <path d="M 50.103823 102.864225 
L 66.006805 141.757376 
L 34.023963 132.440559 
z
" clip-path="url(#pd94278c899)" style="fill: #c5ada1; fill-opacity: 0.4; stroke: #262626"/>
    <path d="M 50.103823 102.864225 
L 66.006805 64.206692 
L 34.023963 70.951147 
z
" clip-path="url(#pd94278c899)" style="fill: #a9b6ca; fill-opacity: 0.4; stroke: #262626"/>
    <path d="M 77.075033 176.23906 
L 104.4 158.103065 
L 66.006805 141.757376 
z
" clip-path="url(#pd94278c899)" style="fill: #d18e74; fill-opacity: 0.4; stroke: #262626"/>
    <path d="M 27.790488 134.492888 
L 50.103823 102.864225 
L 34.023963 132.440559 
z
" clip-path="url(#pd94278c899)" style="fill: #6d6059; fill-opacity: 0.4; stroke: #262626"/>
    <path d="M 27.790488 134.492888 
L 66.006805 141.757376 
L 34.023963 132.440559 
z
" clip-path="url(#pd94278c899)" style="fill: #6a5e57; fill-opacity: 0.4; stroke: #262626"/>
    <path d="M 36.545247 132.440559 
L 36.535653 132.220814 
L 36.506943 132.002742 
L 36.459336 131.788002 
L 36.393195 131.578229 
L 36.309022 131.375018 
L 36.207459 131.179917 
L 36.089278 130.99441 
L 35.955378 130.819909 
L 35.80678 130.657742 
L 35.644613 130.509143 
L 35.470112 130.375244 
L 35.284605 130.257063 
L 35.089503 130.155499 
L 34.886293 130.071327 
L 34.676519 130.005185 
L 34.461779 129.957579 
L 34.243707 129.928869 
L 34.023963 129.919275 
L 33.804218 129.928869 
L 33.586146 129.957579 
L 33.371406 130.005185 
L 33.161633 130.071327 
L 32.958422 130.155499 
L 32.76332 130.257063 
L 32.577813 130.375244 
L 32.403312 130.509143 
L 32.241145 130.657742 
L 32.092547 130.819909 
L 31.958647 130.99441 
L 31.840466 131.179917 
L 31.738903 131.375018 
L 31.65473 131.578229 
L 31.588589 131.788002 
L 31.540982 132.002742 
L 31.512273 132.220814 
L 31.502678 132.440559 
L 31.512273 132.660303 
L 31.540982 132.878375 
L 31.588589 133.093115 
L 31.65473 133.302889 
L 31.738903 133.5061 
L 31.840466 133.701201 
L 31.958647 133.886708 
L 32.092547 134.061209 
L 32.241145 134.223376 
L 32.403312 134.371975 
L 32.577813 134.505874 
L 32.76332 134.624055 
L 32.958422 134.725618 
L 33.161633 134.809791 
L 33.371406 134.875932 
L 33.586146 134.923539 
L 33.804218 134.952249 
L 34.023963 134.961843 
L 34.243707 134.952249 
L 34.461779 134.923539 
L 34.676519 134.875932 
L 34.886293 134.809791 
L 35.089503 134.725618 
L 35.284605 134.624055 
L 35.470112 134.505874 
L 35.644613 134.371975 
L 35.80678 134.223376 
L 35.955378 134.061209 
L 36.089278 133.886708 
L 36.207459 133.701201 
L 36.309022 133.5061 
L 36.393195 133.302889 
L 36.459336 133.093115 
L 36.506943 132.878375 
L 36.535653 132.660303 
L 36.545247 132.440559 
z
" clip-path="url(#pd94278c899)" style="fill: #999999; stroke: #262626"/>
    <path d="M 48.263196 127.888762 
L 48.248805 127.559146 
L 48.20574 127.232037 
L 48.13433 126.909928 
L 48.035118 126.595267 
L 47.908859 126.290451 
L 47.756514 125.997799 
L 47.579242 125.719538 
L 47.378393 125.457787 
L 47.155496 125.214536 
L 46.912245 124.991638 
L 46.650494 124.790789 
L 46.372233 124.613518 
L 46.079581 124.461173 
L 45.774765 124.334914 
L 45.460104 124.235702 
L 45.137994 124.164292 
L 44.810886 124.121227 
L 44.48127 124.106836 
L 44.151653 124.121227 
L 43.824545 124.164292 
L 43.502435 124.235702 
L 43.187775 124.334914 
L 42.882959 124.461173 
L 42.590307 124.613518 
L 42.312046 124.790789 
L 42.050294 124.991638 
L 41.807044 125.214536 
L 41.584146 125.457787 
L 41.383297 125.719538 
L 41.206025 125.997799 
L 41.05368 126.290451 
L 40.927421 126.595267 
L 40.828209 126.909928 
L 40.756799 127.232037 
L 40.713735 127.559146 
L 40.699343 127.888762 
L 40.713735 128.218379 
L 40.756799 128.545487 
L 40.828209 128.867597 
L 40.927421 129.182257 
L 41.05368 129.487073 
L 41.206025 129.779725 
L 41.383297 130.057986 
L 41.584146 130.319738 
L 41.807044 130.562988 
L 42.050294 130.785886 
L 42.312046 130.986735 
L 42.590307 131.164006 
L 42.882959 131.316351 
L 43.187775 131.44261 
L 43.502435 131.541823 
L 43.824545 131.613233 
L 44.151653 131.656297 
L 44.48127 131.670689 
L 44.810886 131.656297 
L 45.137994 131.613233 
L 45.460104 131.541823 
L 45.774765 131.44261 
L 46.079581 131.316351 
L 46.372233 131.164006 
L 46.650494 130.986735 
L 46.912245 130.785886 
L 47.155496 130.562988 
L 47.378393 130.319738 
L 47.579242 130.057986 
L 47.756514 129.779725 
L 47.908859 129.487073 
L 48.035118 129.182257 
L 48.13433 128.867597 
L 48.20574 128.545487 
L 48.248805 128.218379 
L 48.263196 127.888762 
z
" clip-path="url(#pd94278c899)" style="fill: #edd1c2; stroke: #262626"/>
    <path d="M 27.790488 73.003476 
L 50.103823 102.864225 
L 34.023963 70.951147 
z
" clip-path="url(#pd94278c899)" style="fill: #636a76; fill-opacity: 0.4; stroke: #262626"/>
    <path d="M 70.841559 178.291389 
L 77.075033 176.23906 
L 66.006805 141.757376 
z
" clip-path="url(#pd94278c899)" style="fill: #7a5344; fill-opacity: 0.4; stroke: #262626"/>
    <path d="M 48.263196 77.756385 
L 48.248805 77.426769 
L 48.20574 77.099661 
L 48.13433 76.777551 
L 48.035118 76.46289 
L 47.908859 76.158074 
L 47.756514 75.865422 
L 47.579242 75.587161 
L 47.378393 75.32541 
L 47.155496 75.082159 
L 46.912245 74.859261 
L 46.650494 74.658412 
L 46.372233 74.481141 
L 46.079581 74.328796 
L 45.774765 74.202537 
L 45.460104 74.103325 
L 45.137994 74.031915 
L 44.810886 73.98885 
L 44.48127 73.974459 
L 44.151653 73.98885 
L 43.824545 74.031915 
L 43.502435 74.103325 
L 43.187775 74.202537 
L 42.882959 74.328796 
L 42.590307 74.481141 
L 42.312046 74.658412 
L 42.050294 74.859261 
L 41.807044 75.082159 
L 41.584146 75.32541 
L 41.383297 75.587161 
L 41.206025 75.865422 
L 41.05368 76.158074 
L 40.927421 76.46289 
L 40.828209 76.777551 
L 40.756799 77.099661 
L 40.713735 77.426769 
L 40.699343 77.756385 
L 40.713735 78.086002 
L 40.756799 78.41311 
L 40.828209 78.73522 
L 40.927421 79.04988 
L 41.05368 79.354696 
L 41.206025 79.647348 
L 41.383297 79.925609 
L 41.584146 80.187361 
L 41.807044 80.430611 
L 42.050294 80.653509 
L 42.312046 80.854358 
L 42.590307 81.03163 
L 42.882959 81.183975 
L 43.187775 81.310234 
L 43.502435 81.409446 
L 43.824545 81.480856 
L 44.151653 81.52392 
L 44.48127 81.538312 
L 44.810886 81.52392 
L 45.137994 81.480856 
L 45.460104 81.409446 
L 45.774765 81.310234 
L 46.079581 81.183975 
L 46.372233 81.03163 
L 46.650494 80.854358 
L 46.912245 80.653509 
L 47.155496 80.430611 
L 47.378393 80.187361 
L 47.579242 79.925609 
L 47.756514 79.647348 
L 47.908859 79.354696 
L 48.035118 79.04988 
L 48.13433 78.73522 
L 48.20574 78.41311 
L 48.248805 78.086002 
L 48.263196 77.756385 
z
" clip-path="url(#pd94278c899)" style="fill: #c9d7f0; stroke: #262626"/>
    <path d="M 27.790488 73.003476 
L 66.006805 64.206692 
L 34.023963 70.951147 
z
" clip-path="url(#pd94278c899)" style="fill: #525862; fill-opacity: 0.4; stroke: #262626"/>
    <path d="M 77.075033 27.790488 
L 104.4 48.429835 
L 66.006805 64.206692 
z
" clip-path="url(#pd94278c899)" style="fill: #87a4e0; fill-opacity: 0.4; stroke: #262626"/>
    <path d="M 36.545247 70.951147 
L 36.535653 70.731403 
L 36.506943 70.513331 
L 36.459336 70.298591 
L 36.393195 70.088817 
L 36.309022 69.885606 
L 36.207459 69.690505 
L 36.089278 69.504998 
L 35.955378 69.330497 
L 35.80678 69.16833 
L 35.644613 69.019731 
L 35.470112 68.885832 
L 35.284605 68.767651 
L 35.089503 68.666088 
L 34.886293 68.581915 
L 34.676519 68.515774 
L 34.461779 68.468167 
L 34.243707 68.439457 
L 34.023963 68.429863 
L 33.804218 68.439457 
L 33.586146 68.468167 
L 33.371406 68.515774 
L 33.161633 68.581915 
L 32.958422 68.666088 
L 32.76332 68.767651 
L 32.577813 68.885832 
L 32.403312 69.019731 
L 32.241145 69.16833 
L 32.092547 69.330497 
L 31.958647 69.504998 
L 31.840466 69.690505 
L 31.738903 69.885606 
L 31.65473 70.088817 
L 31.588589 70.298591 
L 31.540982 70.513331 
L 31.512273 70.731403 
L 31.502678 70.951147 
L 31.512273 71.170892 
L 31.540982 71.388964 
L 31.588589 71.603704 
L 31.65473 71.813477 
L 31.738903 72.016688 
L 31.840466 72.211789 
L 31.958647 72.397296 
L 32.092547 72.571797 
L 32.241145 72.733964 
L 32.403312 72.882563 
L 32.577813 73.016462 
L 32.76332 73.134643 
L 32.958422 73.236207 
L 33.161633 73.320379 
L 33.371406 73.386521 
L 33.586146 73.434128 
L 33.804218 73.462837 
L 34.023963 73.472431 
L 34.243707 73.462837 
L 34.461779 73.434128 
L 34.676519 73.386521 
L 34.886293 73.320379 
L 35.089503 73.236207 
L 35.284605 73.134643 
L 35.470112 73.016462 
L 35.644613 72.882563 
L 35.80678 72.733964 
L 35.955378 72.571797 
L 36.089278 72.397296 
L 36.207459 72.211789 
L 36.309022 72.016688 
L 36.393195 71.813477 
L 36.459336 71.603704 
L 36.506943 71.388964 
L 36.535653 71.170892 
L 36.545247 70.951147 
z
" clip-path="url(#pd94278c899)" style="fill: #999999; stroke: #262626"/>
    <path d="M 83.362776 163.597722 
L 83.348384 163.268106 
L 83.30532 162.940998 
L 83.23391 162.618888 
L 83.134698 162.304227 
L 83.008439 161.999411 
L 82.856094 161.706759 
L 82.678822 161.428499 
L 82.477973 161.166747 
L 82.255075 160.923497 
L 82.011825 160.700599 
L 81.750073 160.49975 
L 81.471812 160.322478 
L 81.17916 160.170133 
L 80.874344 160.043874 
L 80.559684 159.944662 
L 80.237574 159.873252 
L 79.910466 159.830187 
L 79.580849 159.815796 
L 79.251233 159.830187 
L 78.924125 159.873252 
L 78.602015 159.944662 
L 78.287354 160.043874 
L 77.982538 160.170133 
L 77.689886 160.322478 
L 77.411625 160.49975 
L 77.149874 160.700599 
L 76.906623 160.923497 
L 76.683726 161.166747 
L 76.482877 161.428499 
L 76.305605 161.706759 
L 76.15326 161.999411 
L 76.027001 162.304227 
L 75.927789 162.618888 
L 75.856379 162.940998 
L 75.813314 163.268106 
L 75.798923 163.597722 
L 75.813314 163.927339 
L 75.856379 164.254447 
L 75.927789 164.576557 
L 76.027001 164.891217 
L 76.15326 165.196034 
L 76.305605 165.488686 
L 76.482877 165.766946 
L 76.683726 166.028698 
L 76.906623 166.271948 
L 77.149874 166.494846 
L 77.411625 166.695695 
L 77.689886 166.872967 
L 77.982538 167.025312 
L 78.287354 167.151571 
L 78.602015 167.250783 
L 78.924125 167.322193 
L 79.251233 167.365258 
L 79.580849 167.379649 
L 79.910466 167.365258 
L 80.237574 167.322193 
L 80.559684 167.250783 
L 80.874344 167.151571 
L 81.17916 167.025312 
L 81.471812 166.872967 
L 81.750073 166.695695 
L 82.011825 166.494846 
L 82.255075 166.271948 
L 82.477973 166.028698 
L 82.678822 165.766946 
L 82.856094 165.488686 
L 83.008439 165.196034 
L 83.134698 164.891217 
L 83.23391 164.576557 
L 83.30532 164.254447 
L 83.348384 163.927339 
L 83.362776 163.597722 
z
" clip-path="url(#pd94278c899)" style="fill: #f7a889; stroke: #262626"/>
    <path d="M 70.841559 178.291389 
L 77.075033 176.23906 
L 104.4 158.103065 
z
" clip-path="url(#pd94278c899)" style="fill: #68473a; fill-opacity: 0.4; stroke: #262626"/>
    <path d="M 137.958441 176.690083 
L 142.793195 142.326208 
L 104.4 158.103065 
z
" clip-path="url(#pd94278c899)" style="fill: #c85d49; fill-opacity: 0.4; stroke: #262626"/>
    <path d="M 79.596317 176.23906 
L 79.586723 176.019316 
L 79.558013 175.801244 
L 79.510407 175.586504 
L 79.444265 175.37673 
L 79.360093 175.173519 
L 79.258529 174.978418 
L 79.140348 174.792911 
L 79.006449 174.61841 
L 78.85785 174.456243 
L 78.695683 174.307644 
L 78.521182 174.173745 
L 78.335675 174.055564 
L 78.140574 173.954 
L 77.937363 173.869828 
L 77.72759 173.803686 
L 77.51285 173.75608 
L 77.294778 173.72737 
L 77.075033 173.717776 
L 76.855289 173.72737 
L 76.637217 173.75608 
L 76.422477 173.803686 
L 76.212703 173.869828 
L 76.009492 173.954 
L 75.814391 174.055564 
L 75.628884 174.173745 
L 75.454383 174.307644 
L 75.292216 174.456243 
L 75.143617 174.61841 
L 75.009718 174.792911 
L 74.891537 174.978418 
L 74.789974 175.173519 
L 74.705801 175.37673 
L 74.63966 175.586504 
L 74.592053 175.801244 
L 74.563343 176.019316 
L 74.553749 176.23906 
L 74.563343 176.458804 
L 74.592053 176.676876 
L 74.63966 176.891616 
L 74.705801 177.10139 
L 74.789974 177.304601 
L 74.891537 177.499702 
L 75.009718 177.685209 
L 75.143617 177.85971 
L 75.292216 178.021877 
L 75.454383 178.170476 
L 75.628884 178.304375 
L 75.814391 178.422556 
L 76.009492 178.52412 
L 76.212703 178.608292 
L 76.422477 178.674434 
L 76.637217 178.72204 
L 76.855289 178.75075 
L 77.075033 178.760344 
L 77.294778 178.75075 
L 77.51285 178.72204 
L 77.72759 178.674434 
L 77.937363 178.608292 
L 78.140574 178.52412 
L 78.335675 178.422556 
L 78.521182 178.304375 
L 78.695683 178.170476 
L 78.85785 178.021877 
L 79.006449 177.85971 
L 79.140348 177.685209 
L 79.258529 177.499702 
L 79.360093 177.304601 
L 79.444265 177.10139 
L 79.510407 176.891616 
L 79.558013 176.676876 
L 79.586723 176.458804 
L 79.596317 176.23906 
z
" clip-path="url(#pd94278c899)" style="fill: #999999; stroke: #262626"/>
    <path d="M 27.790488 134.492888 
L 50.103823 102.864225 
L 66.006805 141.757376 
z
" clip-path="url(#pd94278c899)" style="fill: #dfc4b6; fill-opacity: 0.4; stroke: #262626"/>
    <path d="M 70.841559 29.842817 
L 77.075033 27.790488 
L 66.006805 64.206692 
z
" clip-path="url(#pd94278c899)" style="fill: #4a5a7a; fill-opacity: 0.4; stroke: #262626"/>
    <path d="M 83.362776 42.567458 
L 83.348384 42.237842 
L 83.30532 41.910734 
L 83.23391 41.588624 
L 83.134698 41.273963 
L 83.008439 40.969147 
L 82.856094 40.676495 
L 82.678822 40.398234 
L 82.477973 40.136483 
L 82.255075 39.893232 
L 82.011825 39.670335 
L 81.750073 39.469485 
L 81.471812 39.292214 
L 81.17916 39.139869 
L 80.874344 39.01361 
L 80.559684 38.914398 
L 80.237574 38.842988 
L 79.910466 38.799923 
L 79.580849 38.785532 
L 79.251233 38.799923 
L 78.924125 38.842988 
L 78.602015 38.914398 
L 78.287354 39.01361 
L 77.982538 39.139869 
L 77.689886 39.292214 
L 77.411625 39.469485 
L 77.149874 39.670335 
L 76.906623 39.893232 
L 76.683726 40.136483 
L 76.482877 40.398234 
L 76.305605 40.676495 
L 76.15326 40.969147 
L 76.027001 41.273963 
L 75.927789 41.588624 
L 75.856379 41.910734 
L 75.813314 42.237842 
L 75.798923 42.567458 
L 75.813314 42.897075 
L 75.856379 43.224183 
L 75.927789 43.546293 
L 76.027001 43.860953 
L 76.15326 44.165769 
L 76.305605 44.458421 
L 76.482877 44.736682 
L 76.683726 44.998434 
L 76.906623 45.241684 
L 77.149874 45.464582 
L 77.411625 45.665431 
L 77.689886 45.842703 
L 77.982538 45.995048 
L 78.287354 46.121307 
L 78.602015 46.220519 
L 78.924125 46.291929 
L 79.251233 46.334993 
L 79.580849 46.349385 
L 79.910466 46.334993 
L 80.237574 46.291929 
L 80.559684 46.220519 
L 80.874344 46.121307 
L 81.17916 45.995048 
L 81.471812 45.842703 
L 81.750073 45.665431 
L 82.011825 45.464582 
L 82.255075 45.241684 
L 82.477973 44.998434 
L 82.678822 44.736682 
L 82.856094 44.458421 
L 83.008439 44.165769 
L 83.134698 43.860953 
L 83.23391 43.546293 
L 83.30532 43.224183 
L 83.348384 42.897075 
L 83.362776 42.567458 
z
" clip-path="url(#pd94278c899)" style="fill: #9abbff; stroke: #262626"/>
    <path d="M 137.958441 28.241511 
L 142.793195 64.775524 
L 104.4 48.429835 
z
" clip-path="url(#pd94278c899)" style="fill: #5f7dda; fill-opacity: 0.4; stroke: #262626"/>
    <path d="M 131.724967 178.742412 
L 137.958441 176.690083 
L 104.4 158.103065 
z
" clip-path="url(#pd94278c899)" style="fill: #6b3127; fill-opacity: 0.4; stroke: #262626"/>
    <path d="M 27.790488 73.003476 
L 50.103823 102.864225 
L 66.006805 64.206692 
z
" clip-path="url(#pd94278c899)" style="fill: #bac7de; fill-opacity: 0.4; stroke: #262626"/>
    <path d="M 158.696177 103.668674 
L 181.009512 133.529424 
L 142.793195 142.326208 
z
" clip-path="url(#pd94278c899)" style="fill: #a60423; fill-opacity: 0.4; stroke: #262626"/>
    <path d="M 70.841559 29.842817 
L 77.075033 27.790488 
L 104.4 48.429835 
z
" clip-path="url(#pd94278c899)" style="fill: #495878; fill-opacity: 0.4; stroke: #262626"/>
    <path d="M 70.841559 178.291389 
L 104.4 158.103065 
L 66.006805 141.757376 
z
" clip-path="url(#pd94278c899)" style="fill: #e39a7e; fill-opacity: 0.4; stroke: #262626"/>
    <path d="M 79.596317 27.790488 
L 79.586723 27.570744 
L 79.558013 27.352672 
L 79.510407 27.137932 
L 79.444265 26.928158 
L 79.360093 26.724948 
L 79.258529 26.529846 
L 79.140348 26.344339 
L 79.006449 26.169838 
L 78.85785 26.007671 
L 78.695683 25.859073 
L 78.521182 25.725173 
L 78.335675 25.606992 
L 78.140574 25.505429 
L 77.937363 25.421256 
L 77.72759 25.355115 
L 77.51285 25.307508 
L 77.294778 25.278798 
L 77.075033 25.269204 
L 76.855289 25.278798 
L 76.637217 25.307508 
L 76.422477 25.355115 
L 76.212703 25.421256 
L 76.009492 25.505429 
L 75.814391 25.606992 
L 75.628884 25.725173 
L 75.454383 25.859073 
L 75.292216 26.007671 
L 75.143617 26.169838 
L 75.009718 26.344339 
L 74.891537 26.529846 
L 74.789974 26.724948 
L 74.705801 26.928158 
L 74.63966 27.137932 
L 74.592053 27.352672 
L 74.563343 27.570744 
L 74.553749 27.790488 
L 74.563343 28.010233 
L 74.592053 28.228305 
L 74.63966 28.443045 
L 74.705801 28.652818 
L 74.789974 28.856029 
L 74.891537 29.05113 
L 75.009718 29.236638 
L 75.143617 29.411139 
L 75.292216 29.573306 
L 75.454383 29.721904 
L 75.628884 29.855804 
L 75.814391 29.973985 
L 76.009492 30.075548 
L 76.212703 30.159721 
L 76.422477 30.225862 
L 76.637217 30.273469 
L 76.855289 30.302178 
L 77.075033 30.311773 
L 77.294778 30.302178 
L 77.51285 30.273469 
L 77.72759 30.225862 
L 77.937363 30.159721 
L 78.140574 30.075548 
L 78.335675 29.973985 
L 78.521182 29.855804 
L 78.695683 29.721904 
L 78.85785 29.573306 
L 79.006449 29.411139 
L 79.140348 29.236638 
L 79.258529 29.05113 
L 79.360093 28.856029 
L 79.444265 28.652818 
L 79.510407 28.443045 
L 79.558013 28.228305 
L 79.586723 28.010233 
L 79.596317 27.790488 
z
" clip-path="url(#pd94278c899)" style="fill: #999999; stroke: #262626"/>
    <path d="M 52.625107 102.864225 
L 52.615513 102.644481 
L 52.586803 102.426409 
L 52.539197 102.211669 
L 52.473055 102.001895 
L 52.388883 101.798685 
L 52.287319 101.603583 
L 52.169138 101.418076 
L 52.035239 101.243575 
L 51.88664 101.081408 
L 51.724473 100.93281 
L 51.549972 100.79891 
L 51.364465 100.680729 
L 51.169364 100.579166 
L 50.966153 100.494993 
L 50.756379 100.428852 
L 50.541639 100.381245 
L 50.323567 100.352535 
L 50.103823 100.342941 
L 49.884079 100.352535 
L 49.666007 100.381245 
L 49.451267 100.428852 
L 49.241493 100.494993 
L 49.038282 100.579166 
L 48.843181 100.680729 
L 48.657674 100.79891 
L 48.483173 100.93281 
L 48.321006 101.081408 
L 48.172407 101.243575 
L 48.038508 101.418076 
L 47.920327 101.603583 
L 47.818763 101.798685 
L 47.734591 102.001895 
L 47.668449 102.211669 
L 47.620843 102.426409 
L 47.592133 102.644481 
L 47.582539 102.864225 
L 47.592133 103.08397 
L 47.620843 103.302042 
L 47.668449 103.516782 
L 47.734591 103.726555 
L 47.818763 103.929766 
L 47.920327 104.124868 
L 48.038508 104.310375 
L 48.172407 104.484876 
L 48.321006 104.647043 
L 48.483173 104.795641 
L 48.657674 104.929541 
L 48.843181 105.047722 
L 49.038282 105.149285 
L 49.241493 105.233458 
L 49.451267 105.299599 
L 49.666007 105.347206 
L 49.884079 105.375915 
L 50.103823 105.38551 
L 50.323567 105.375915 
L 50.541639 105.347206 
L 50.756379 105.299599 
L 50.966153 105.233458 
L 51.169364 105.149285 
L 51.364465 105.047722 
L 51.549972 104.929541 
L 51.724473 104.795641 
L 51.88664 104.647043 
L 52.035239 104.484876 
L 52.169138 104.310375 
L 52.287319 104.124868 
L 52.388883 103.929766 
L 52.473055 103.726555 
L 52.539197 103.516782 
L 52.586803 103.302042 
L 52.615513 103.08397 
L 52.625107 102.864225 
z
" clip-path="url(#pd94278c899)" style="fill: #999999; stroke: #262626"/>
    <path d="M 68.528089 141.757376 
L 68.518495 141.537632 
L 68.489785 141.31956 
L 68.442179 141.10482 
L 68.376037 140.895046 
L 68.291865 140.691836 
L 68.190301 140.496734 
L 68.07212 140.311227 
L 67.938221 140.136726 
L 67.789622 139.974559 
L 67.627455 139.825961 
L 67.452954 139.692061 
L 67.267447 139.57388 
L 67.072346 139.472317 
L 66.869135 139.388144 
L 66.659361 139.322003 
L 66.444621 139.274396 
L 66.226549 139.245686 
L 66.006805 139.236092 
L 65.787061 139.245686 
L 65.568989 139.274396 
L 65.354249 139.322003 
L 65.144475 139.388144 
L 64.941264 139.472317 
L 64.746163 139.57388 
L 64.560656 139.692061 
L 64.386155 139.825961 
L 64.223988 139.974559 
L 64.075389 140.136726 
L 63.94149 140.311227 
L 63.823309 140.496734 
L 63.721745 140.691836 
L 63.637573 140.895046 
L 63.571431 141.10482 
L 63.523825 141.31956 
L 63.495115 141.537632 
L 63.485521 141.757376 
L 63.495115 141.977121 
L 63.523825 142.195193 
L 63.571431 142.409933 
L 63.637573 142.619706 
L 63.721745 142.822917 
L 63.823309 143.018018 
L 63.94149 143.203526 
L 64.075389 143.378027 
L 64.223988 143.540194 
L 64.386155 143.688792 
L 64.560656 143.822692 
L 64.746163 143.940873 
L 64.941264 144.042436 
L 65.144475 144.126609 
L 65.354249 144.19275 
L 65.568989 144.240357 
L 65.787061 144.269066 
L 66.006805 144.278661 
L 66.226549 144.269066 
L 66.444621 144.240357 
L 66.659361 144.19275 
L 66.869135 144.126609 
L 67.072346 144.042436 
L 67.267447 143.940873 
L 67.452954 143.822692 
L 67.627455 143.688792 
L 67.789622 143.540194 
L 67.938221 143.378027 
L 68.07212 143.203526 
L 68.190301 143.018018 
L 68.291865 142.822917 
L 68.376037 142.619706 
L 68.442179 142.409933 
L 68.489785 142.195193 
L 68.518495 141.977121 
L 68.528089 141.757376 
z
" clip-path="url(#pd94278c899)" style="fill: #999999; stroke: #262626"/>
    <path d="M 133.001077 163.965442 
L 132.986686 163.635825 
L 132.943621 163.308717 
L 132.872211 162.986607 
L 132.772999 162.671947 
L 132.64674 162.36713 
L 132.494395 162.074478 
L 132.317123 161.796218 
L 132.116274 161.534466 
L 131.893377 161.291216 
L 131.650126 161.068318 
L 131.388375 160.867469 
L 131.110114 160.690197 
L 130.817462 160.537852 
L 130.512646 160.411593 
L 130.197985 160.312381 
L 129.875875 160.240971 
L 129.548767 160.197907 
L 129.219151 160.183515 
L 128.889534 160.197907 
L 128.562426 160.240971 
L 128.240316 160.312381 
L 127.925656 160.411593 
L 127.62084 160.537852 
L 127.328188 160.690197 
L 127.049927 160.867469 
L 126.788175 161.068318 
L 126.544925 161.291216 
L 126.322027 161.534466 
L 126.121178 161.796218 
L 125.943906 162.074478 
L 125.791561 162.36713 
L 125.665302 162.671947 
L 125.56609 162.986607 
L 125.49468 163.308717 
L 125.451616 163.635825 
L 125.437224 163.965442 
L 125.451616 164.295058 
L 125.49468 164.622166 
L 125.56609 164.944276 
L 125.665302 165.258937 
L 125.791561 165.563753 
L 125.943906 165.856405 
L 126.121178 166.134666 
L 126.322027 166.396417 
L 126.544925 166.639667 
L 126.788175 166.862565 
L 127.049927 167.063414 
L 127.328188 167.240686 
L 127.62084 167.393031 
L 127.925656 167.51929 
L 128.240316 167.618502 
L 128.562426 167.689912 
L 128.889534 167.732977 
L 129.219151 167.747368 
L 129.548767 167.732977 
L 129.875875 167.689912 
L 130.197985 167.618502 
L 130.512646 167.51929 
L 130.817462 167.393031 
L 131.110114 167.240686 
L 131.388375 167.063414 
L 131.650126 166.862565 
L 131.893377 166.639667 
L 132.116274 166.396417 
L 132.317123 166.134666 
L 132.494395 165.856405 
L 132.64674 165.563753 
L 132.772999 165.258937 
L 132.872211 164.944276 
L 132.943621 164.622166 
L 132.986686 164.295058 
L 133.001077 163.965442 
z
" clip-path="url(#pd94278c899)" style="fill: #e26952; stroke: #262626"/>
    <path d="M 131.724967 178.742412 
L 137.958441 176.690083 
L 142.793195 142.326208 
z
" clip-path="url(#pd94278c899)" style="fill: #6c3227; fill-opacity: 0.4; stroke: #262626"/>
    <path d="M 158.696177 103.668674 
L 181.009512 72.040012 
L 142.793195 64.775524 
z
" clip-path="url(#pd94278c899)" style="fill: #3747b4; fill-opacity: 0.4; stroke: #262626"/>
    <path d="M 140.479725 176.690083 
L 140.470131 176.470338 
L 140.441421 176.252266 
L 140.393815 176.037526 
L 140.327673 175.827753 
L 140.243501 175.624542 
L 140.141937 175.42944 
L 140.023756 175.243933 
L 139.889857 175.069432 
L 139.741258 174.907265 
L 139.579091 174.758667 
L 139.40459 174.624767 
L 139.219083 174.506586 
L 139.023982 174.405023 
L 138.820771 174.32085 
L 138.610997 174.254709 
L 138.396257 174.207102 
L 138.178185 174.178392 
L 137.958441 174.168798 
L 137.738697 174.178392 
L 137.520625 174.207102 
L 137.305885 174.254709 
L 137.096111 174.32085 
L 136.8929 174.405023 
L 136.697799 174.506586 
L 136.512292 174.624767 
L 136.337791 174.758667 
L 136.175624 174.907265 
L 136.027025 175.069432 
L 135.893126 175.243933 
L 135.774945 175.42944 
L 135.673381 175.624542 
L 135.589209 175.827753 
L 135.523067 176.037526 
L 135.475461 176.252266 
L 135.446751 176.470338 
L 135.437157 176.690083 
L 135.446751 176.909827 
L 135.475461 177.127899 
L 135.523067 177.342639 
L 135.589209 177.552413 
L 135.673381 177.755623 
L 135.774945 177.950725 
L 135.893126 178.136232 
L 136.027025 178.310733 
L 136.175624 178.4729 
L 136.337791 178.621498 
L 136.512292 178.755398 
L 136.697799 178.873579 
L 136.8929 178.975142 
L 137.096111 179.059315 
L 137.305885 179.125456 
L 137.520625 179.173063 
L 137.738697 179.201773 
L 137.958441 179.211367 
L 138.178185 179.201773 
L 138.396257 179.173063 
L 138.610997 179.125456 
L 138.820771 179.059315 
L 139.023982 178.975142 
L 139.219083 178.873579 
L 139.40459 178.755398 
L 139.579091 178.621498 
L 139.741258 178.4729 
L 139.889857 178.310733 
L 140.023756 178.136232 
L 140.141937 177.950725 
L 140.243501 177.755623 
L 140.327673 177.552413 
L 140.393815 177.342639 
L 140.441421 177.127899 
L 140.470131 176.909827 
L 140.479725 176.690083 
z
" clip-path="url(#pd94278c899)" style="fill: #999999; stroke: #262626"/>
    <path d="M 70.841559 29.842817 
L 104.4 48.429835 
L 66.006805 64.206692 
z
" clip-path="url(#pd94278c899)" style="fill: #89a6e2; fill-opacity: 0.4; stroke: #262626"/>
    <path d="M 131.724967 30.29384 
L 137.958441 28.241511 
L 104.4 48.429835 
z
" clip-path="url(#pd94278c899)" style="fill: #2c3a64; fill-opacity: 0.4; stroke: #262626"/>
    <path d="M 68.528089 64.206692 
L 68.518495 63.986948 
L 68.489785 63.768876 
L 68.442179 63.554136 
L 68.376037 63.344362 
L 68.291865 63.141151 
L 68.190301 62.94605 
L 68.07212 62.760543 
L 67.938221 62.586042 
L 67.789622 62.423875 
L 67.627455 62.275276 
L 67.452954 62.141377 
L 67.267447 62.023196 
L 67.072346 61.921633 
L 66.869135 61.83746 
L 66.659361 61.771318 
L 66.444621 61.723712 
L 66.226549 61.695002 
L 66.006805 61.685408 
L 65.787061 61.695002 
L 65.568989 61.723712 
L 65.354249 61.771318 
L 65.144475 61.83746 
L 64.941264 61.921633 
L 64.746163 62.023196 
L 64.560656 62.141377 
L 64.386155 62.275276 
L 64.223988 62.423875 
L 64.075389 62.586042 
L 63.94149 62.760543 
L 63.823309 62.94605 
L 63.721745 63.141151 
L 63.637573 63.344362 
L 63.571431 63.554136 
L 63.523825 63.768876 
L 63.495115 63.986948 
L 63.485521 64.206692 
L 63.495115 64.426436 
L 63.523825 64.644509 
L 63.571431 64.859248 
L 63.637573 65.069022 
L 63.721745 65.272233 
L 63.823309 65.467334 
L 63.94149 65.652841 
L 64.075389 65.827342 
L 64.223988 65.989509 
L 64.386155 66.138108 
L 64.560656 66.272007 
L 64.746163 66.390188 
L 64.941264 66.491752 
L 65.144475 66.575924 
L 65.354249 66.642066 
L 65.568989 66.689672 
L 65.787061 66.718382 
L 66.006805 66.727976 
L 66.226549 66.718382 
L 66.444621 66.689672 
L 66.659361 66.642066 
L 66.869135 66.575924 
L 67.072346 66.491752 
L 67.267447 66.390188 
L 67.452954 66.272007 
L 67.627455 66.138108 
L 67.789622 65.989509 
L 67.938221 65.827342 
L 68.07212 65.652841 
L 68.190301 65.467334 
L 68.291865 65.272233 
L 68.376037 65.069022 
L 68.442179 64.859248 
L 68.489785 64.644509 
L 68.518495 64.426436 
L 68.528089 64.206692 
z
" clip-path="url(#pd94278c899)" style="fill: #999999; stroke: #262626"/>
    <path d="M 133.001077 42.935177 
L 132.986686 42.605561 
L 132.943621 42.278453 
L 132.872211 41.956343 
L 132.772999 41.641682 
L 132.64674 41.336866 
L 132.494395 41.044214 
L 132.317123 40.765954 
L 132.116274 40.504202 
L 131.893377 40.260952 
L 131.650126 40.038054 
L 131.388375 39.837205 
L 131.110114 39.659933 
L 130.817462 39.507588 
L 130.512646 39.381329 
L 130.197985 39.282117 
L 129.875875 39.210707 
L 129.548767 39.167642 
L 129.219151 39.153251 
L 128.889534 39.167642 
L 128.562426 39.210707 
L 128.240316 39.282117 
L 127.925656 39.381329 
L 127.62084 39.507588 
L 127.328188 39.659933 
L 127.049927 39.837205 
L 126.788175 40.038054 
L 126.544925 40.260952 
L 126.322027 40.504202 
L 126.121178 40.765954 
L 125.943906 41.044214 
L 125.791561 41.336866 
L 125.665302 41.641682 
L 125.56609 41.956343 
L 125.49468 42.278453 
L 125.451616 42.605561 
L 125.437224 42.935177 
L 125.451616 43.264794 
L 125.49468 43.591902 
L 125.56609 43.914012 
L 125.665302 44.228672 
L 125.791561 44.533489 
L 125.943906 44.826141 
L 126.121178 45.104401 
L 126.322027 45.366153 
L 126.544925 45.609403 
L 126.788175 45.832301 
L 127.049927 46.03315 
L 127.328188 46.210422 
L 127.62084 46.362767 
L 127.925656 46.489026 
L 128.240316 46.588238 
L 128.562426 46.659648 
L 128.889534 46.702712 
L 129.219151 46.717104 
L 129.548767 46.702712 
L 129.875875 46.659648 
L 130.197985 46.588238 
L 130.512646 46.489026 
L 130.817462 46.362767 
L 131.110114 46.210422 
L 131.388375 46.03315 
L 131.650126 45.832301 
L 131.893377 45.609403 
L 132.116274 45.366153 
L 132.317123 45.104401 
L 132.494395 44.826141 
L 132.64674 44.533489 
L 132.772999 44.228672 
L 132.872211 43.914012 
L 132.943621 43.591902 
L 132.986686 43.264794 
L 133.001077 42.935177 
z
" clip-path="url(#pd94278c899)" style="fill: #6788ee; stroke: #262626"/>
    <path d="M 131.724967 178.742412 
L 142.793195 142.326208 
L 104.4 158.103065 
z
" clip-path="url(#pd94278c899)" style="fill: #c75c48; fill-opacity: 0.4; stroke: #262626"/>
    <path d="M 174.776037 135.581753 
L 181.009512 133.529424 
L 142.793195 142.326208 
z
" clip-path="url(#pd94278c899)" style="fill: #4a0210; fill-opacity: 0.4; stroke: #262626"/>
    <path d="M 106.921284 158.103065 
L 106.91169 157.88332 
L 106.88298 157.665248 
L 106.835374 157.450508 
L 106.769232 157.240735 
L 106.68506 157.037524 
L 106.583496 156.842423 
L 106.465315 156.656915 
L 106.331416 156.482414 
L 106.182817 156.320247 
L 106.02065 156.171649 
L 105.846149 156.037749 
L 105.660642 155.919568 
L 105.465541 155.818005 
L 105.26233 155.733832 
L 105.052556 155.667691 
L 104.837816 155.620084 
L 104.619744 155.591375 
L 104.4 155.58178 
L 104.180256 155.591375 
L 103.962184 155.620084 
L 103.747444 155.667691 
L 103.53767 155.733832 
L 103.334459 155.818005 
L 103.139358 155.919568 
L 102.953851 156.037749 
L 102.77935 156.171649 
L 102.617183 156.320247 
L 102.468584 156.482414 
L 102.334685 156.656915 
L 102.216504 156.842423 
L 102.11494 157.037524 
L 102.030768 157.240735 
L 101.964626 157.450508 
L 101.91702 157.665248 
L 101.88831 157.88332 
L 101.878716 158.103065 
L 101.88831 158.322809 
L 101.91702 158.540881 
L 101.964626 158.755621 
L 102.030768 158.965395 
L 102.11494 159.168605 
L 102.216504 159.363707 
L 102.334685 159.549214 
L 102.468584 159.723715 
L 102.617183 159.885882 
L 102.77935 160.03448 
L 102.953851 160.16838 
L 103.139358 160.286561 
L 103.334459 160.388124 
L 103.53767 160.472297 
L 103.747444 160.538438 
L 103.962184 160.586045 
L 104.180256 160.614755 
L 104.4 160.624349 
L 104.619744 160.614755 
L 104.837816 160.586045 
L 105.052556 160.538438 
L 105.26233 160.472297 
L 105.465541 160.388124 
L 105.660642 160.286561 
L 105.846149 160.16838 
L 106.02065 160.03448 
L 106.182817 159.885882 
L 106.331416 159.723715 
L 106.465315 159.549214 
L 106.583496 159.363707 
L 106.68506 159.168605 
L 106.769232 158.965395 
L 106.835374 158.755621 
L 106.88298 158.540881 
L 106.91169 158.322809 
L 106.921284 158.103065 
z
" clip-path="url(#pd94278c899)" style="fill: #999999; stroke: #262626"/>
    <path d="M 168.100657 128.776515 
L 168.086265 128.446898 
L 168.043201 128.11979 
L 167.971791 127.79768 
L 167.872579 127.48302 
L 167.74632 127.178203 
L 167.593975 126.885551 
L 167.416703 126.607291 
L 167.215854 126.345539 
L 166.992956 126.102289 
L 166.749706 125.879391 
L 166.487954 125.678542 
L 166.209693 125.50127 
L 165.917041 125.348925 
L 165.612225 125.222666 
L 165.297565 125.123454 
L 164.975455 125.052044 
L 164.648347 125.00898 
L 164.31873 124.994588 
L 163.989114 125.00898 
L 163.662006 125.052044 
L 163.339896 125.123454 
L 163.025235 125.222666 
L 162.720419 125.348925 
L 162.427767 125.50127 
L 162.149506 125.678542 
L 161.887755 125.879391 
L 161.644504 126.102289 
L 161.421607 126.345539 
L 161.220758 126.607291 
L 161.043486 126.885551 
L 160.891141 127.178203 
L 160.764882 127.48302 
L 160.66567 127.79768 
L 160.59426 128.11979 
L 160.551195 128.446898 
L 160.536804 128.776515 
L 160.551195 129.106131 
L 160.59426 129.433239 
L 160.66567 129.755349 
L 160.764882 130.07001 
L 160.891141 130.374826 
L 161.043486 130.667478 
L 161.220758 130.945739 
L 161.421607 131.20749 
L 161.644504 131.45074 
L 161.887755 131.673638 
L 162.149506 131.874487 
L 162.427767 132.051759 
L 162.720419 132.204104 
L 163.025235 132.330363 
L 163.339896 132.429575 
L 163.662006 132.500985 
L 163.989114 132.54405 
L 164.31873 132.558441 
L 164.648347 132.54405 
L 164.975455 132.500985 
L 165.297565 132.429575 
L 165.612225 132.330363 
L 165.917041 132.204104 
L 166.209693 132.051759 
L 166.487954 131.874487 
L 166.749706 131.673638 
L 166.992956 131.45074 
L 167.215854 131.20749 
L 167.416703 130.945739 
L 167.593975 130.667478 
L 167.74632 130.374826 
L 167.872579 130.07001 
L 167.971791 129.755349 
L 168.043201 129.433239 
L 168.086265 129.106131 
L 168.100657 128.776515 
z
" clip-path="url(#pd94278c899)" style="fill: #b40426; stroke: #262626"/>
    <path d="M 131.724967 30.29384 
L 137.958441 28.241511 
L 142.793195 64.775524 
z
" clip-path="url(#pd94278c899)" style="fill: #334375; fill-opacity: 0.4; stroke: #262626"/>
    <path d="M 140.479725 28.241511 
L 140.470131 28.021767 
L 140.441421 27.803695 
L 140.393815 27.588955 
L 140.327673 27.379181 
L 140.243501 27.17597 
L 140.141937 26.980869 
L 140.023756 26.795362 
L 139.889857 26.620861 
L 139.741258 26.458694 
L 139.579091 26.310095 
L 139.40459 26.176196 
L 139.219083 26.058015 
L 139.023982 25.956451 
L 138.820771 25.872279 
L 138.610997 25.806137 
L 138.396257 25.758531 
L 138.178185 25.729821 
L 137.958441 25.720227 
L 137.738697 25.729821 
L 137.520625 25.758531 
L 137.305885 25.806137 
L 137.096111 25.872279 
L 136.8929 25.956451 
L 136.697799 26.058015 
L 136.512292 26.176196 
L 136.337791 26.310095 
L 136.175624 26.458694 
L 136.027025 26.620861 
L 135.893126 26.795362 
L 135.774945 26.980869 
L 135.673381 27.17597 
L 135.589209 27.379181 
L 135.523067 27.588955 
L 135.475461 27.803695 
L 135.446751 28.021767 
L 135.437157 28.241511 
L 135.446751 28.461255 
L 135.475461 28.679327 
L 135.523067 28.894067 
L 135.589209 29.103841 
L 135.673381 29.307052 
L 135.774945 29.502153 
L 135.893126 29.68766 
L 136.027025 29.862161 
L 136.175624 30.024328 
L 136.337791 30.172927 
L 136.512292 30.306826 
L 136.697799 30.425007 
L 136.8929 30.526571 
L 137.096111 30.610743 
L 137.305885 30.676885 
L 137.520625 30.724491 
L 137.738697 30.753201 
L 137.958441 30.762795 
L 138.178185 30.753201 
L 138.396257 30.724491 
L 138.610997 30.676885 
L 138.820771 30.610743 
L 139.023982 30.526571 
L 139.219083 30.425007 
L 139.40459 30.306826 
L 139.579091 30.172927 
L 139.741258 30.024328 
L 139.889857 29.862161 
L 140.023756 29.68766 
L 140.141937 29.502153 
L 140.243501 29.307052 
L 140.327673 29.103841 
L 140.393815 28.894067 
L 140.441421 28.679327 
L 140.470131 28.461255 
L 140.479725 28.241511 
z
" clip-path="url(#pd94278c899)" style="fill: #999999; stroke: #262626"/>
    <path d="M 30.311773 134.492888 
L 30.302178 134.273143 
L 30.273469 134.055071 
L 30.225862 133.840331 
L 30.159721 133.630558 
L 30.075548 133.427347 
L 29.973985 133.232246 
L 29.855804 133.046739 
L 29.721904 132.872238 
L 29.573306 132.710071 
L 29.411139 132.561472 
L 29.236638 132.427573 
L 29.05113 132.309392 
L 28.856029 132.207828 
L 28.652818 132.123656 
L 28.443045 132.057514 
L 28.228305 132.009908 
L 28.010233 131.981198 
L 27.790488 131.971604 
L 27.570744 131.981198 
L 27.352672 132.009908 
L 27.137932 132.057514 
L 26.928158 132.123656 
L 26.724948 132.207828 
L 26.529846 132.309392 
L 26.344339 132.427573 
L 26.169838 132.561472 
L 26.007671 132.710071 
L 25.859073 132.872238 
L 25.725173 133.046739 
L 25.606992 133.232246 
L 25.505429 133.427347 
L 25.421256 133.630558 
L 25.355115 133.840331 
L 25.307508 134.055071 
L 25.278798 134.273143 
L 25.269204 134.492888 
L 25.278798 134.712632 
L 25.307508 134.930704 
L 25.355115 135.145444 
L 25.421256 135.355218 
L 25.505429 135.558429 
L 25.606992 135.75353 
L 25.725173 135.939037 
L 25.859073 136.113538 
L 26.007671 136.275705 
L 26.169838 136.424304 
L 26.344339 136.558203 
L 26.529846 136.676384 
L 26.724948 136.777947 
L 26.928158 136.86212 
L 27.137932 136.928261 
L 27.352672 136.975868 
L 27.570744 137.004578 
L 27.790488 137.014172 
L 28.010233 137.004578 
L 28.228305 136.975868 
L 28.443045 136.928261 
L 28.652818 136.86212 
L 28.856029 136.777947 
L 29.05113 136.676384 
L 29.236638 136.558203 
L 29.411139 136.424304 
L 29.573306 136.275705 
L 29.721904 136.113538 
L 29.855804 135.939037 
L 29.973985 135.75353 
L 30.075548 135.558429 
L 30.159721 135.355218 
L 30.225862 135.145444 
L 30.273469 134.930704 
L 30.302178 134.712632 
L 30.311773 134.492888 
z
" clip-path="url(#pd94278c899)" style="fill: #999999; stroke: #262626"/>
    <path d="M 174.776037 135.581753 
L 158.696177 103.668674 
L 181.009512 133.529424 
z
" clip-path="url(#pd94278c899)" style="fill: #580213; fill-opacity: 0.4; stroke: #262626"/>
    <path d="M 183.530796 133.529424 
L 183.521202 133.309679 
L 183.492492 133.091607 
L 183.444885 132.876867 
L 183.378744 132.667094 
L 183.294571 132.463883 
L 183.193008 132.268782 
L 183.074827 132.083274 
L 182.940927 131.908773 
L 182.792329 131.746606 
L 182.630162 131.598008 
L 182.455661 131.464109 
L 182.270154 131.345927 
L 182.075052 131.244364 
L 181.871842 131.160191 
L 181.662068 131.09405 
L 181.447328 131.046443 
L 181.229256 131.017734 
L 181.009512 131.008139 
L 180.789767 131.017734 
L 180.571695 131.046443 
L 180.356955 131.09405 
L 180.147182 131.160191 
L 179.943971 131.244364 
L 179.74887 131.345927 
L 179.563362 131.464109 
L 179.388861 131.598008 
L 179.226694 131.746606 
L 179.078096 131.908773 
L 178.944196 132.083274 
L 178.826015 132.268782 
L 178.724452 132.463883 
L 178.640279 132.667094 
L 178.574138 132.876867 
L 178.526531 133.091607 
L 178.497822 133.309679 
L 178.488227 133.529424 
L 178.497822 133.749168 
L 178.526531 133.96724 
L 178.574138 134.18198 
L 178.640279 134.391754 
L 178.724452 134.594964 
L 178.826015 134.790066 
L 178.944196 134.975573 
L 179.078096 135.150074 
L 179.226694 135.312241 
L 179.388861 135.46084 
L 179.563362 135.594739 
L 179.74887 135.71292 
L 179.943971 135.814483 
L 180.147182 135.898656 
L 180.356955 135.964797 
L 180.571695 136.012404 
L 180.789767 136.041114 
L 181.009512 136.050708 
L 181.229256 136.041114 
L 181.447328 136.012404 
L 181.662068 135.964797 
L 181.871842 135.898656 
L 182.075052 135.814483 
L 182.270154 135.71292 
L 182.455661 135.594739 
L 182.630162 135.46084 
L 182.792329 135.312241 
L 182.940927 135.150074 
L 183.074827 134.975573 
L 183.193008 134.790066 
L 183.294571 134.594964 
L 183.378744 134.391754 
L 183.444885 134.18198 
L 183.492492 133.96724 
L 183.521202 133.749168 
L 183.530796 133.529424 
z
" clip-path="url(#pd94278c899)" style="fill: #999999; stroke: #262626"/>
    <path d="M 168.100657 78.644138 
L 168.086265 78.314521 
L 168.043201 77.987413 
L 167.971791 77.665303 
L 167.872579 77.350643 
L 167.74632 77.045827 
L 167.593975 76.753175 
L 167.416703 76.474914 
L 167.215854 76.213162 
L 166.992956 75.969912 
L 166.749706 75.747014 
L 166.487954 75.546165 
L 166.209693 75.368893 
L 165.917041 75.216548 
L 165.612225 75.090289 
L 165.297565 74.991077 
L 164.975455 74.919667 
L 164.648347 74.876603 
L 164.31873 74.862211 
L 163.989114 74.876603 
L 163.662006 74.919667 
L 163.339896 74.991077 
L 163.025235 75.090289 
L 162.720419 75.216548 
L 162.427767 75.368893 
L 162.149506 75.546165 
L 161.887755 75.747014 
L 161.644504 75.969912 
L 161.421607 76.213162 
L 161.220758 76.474914 
L 161.043486 76.753175 
L 160.891141 77.045827 
L 160.764882 77.350643 
L 160.66567 77.665303 
L 160.59426 77.987413 
L 160.551195 78.314521 
L 160.536804 78.644138 
L 160.551195 78.973754 
L 160.59426 79.300862 
L 160.66567 79.622972 
L 160.764882 79.937633 
L 160.891141 80.242449 
L 161.043486 80.535101 
L 161.220758 80.813362 
L 161.421607 81.075113 
L 161.644504 81.318364 
L 161.887755 81.541261 
L 162.149506 81.742111 
L 162.427767 81.919382 
L 162.720419 82.071727 
L 163.025235 82.197986 
L 163.339896 82.297198 
L 163.662006 82.368608 
L 163.989114 82.411673 
L 164.31873 82.426064 
L 164.648347 82.411673 
L 164.975455 82.368608 
L 165.297565 82.297198 
L 165.612225 82.197986 
L 165.917041 82.071727 
L 166.209693 81.919382 
L 166.487954 81.742111 
L 166.749706 81.541261 
L 166.992956 81.318364 
L 167.215854 81.075113 
L 167.416703 80.813362 
L 167.593975 80.535101 
L 167.74632 80.242449 
L 167.872579 79.937633 
L 167.971791 79.622972 
L 168.043201 79.300862 
L 168.086265 78.973754 
L 168.100657 78.644138 
z
" clip-path="url(#pd94278c899)" style="fill: #3b4cc0; stroke: #262626"/>
    <path d="M 174.776037 74.092341 
L 181.009512 72.040012 
L 142.793195 64.775524 
z
" clip-path="url(#pd94278c899)" style="fill: #1a2256; fill-opacity: 0.4; stroke: #262626"/>
    <path d="M 174.776037 74.092341 
L 158.696177 103.668674 
L 181.009512 72.040012 
z
" clip-path="url(#pd94278c899)" style="fill: #1b2358; fill-opacity: 0.4; stroke: #262626"/>
    <path d="M 183.530796 72.040012 
L 183.521202 71.820268 
L 183.492492 71.602196 
L 183.444885 71.387456 
L 183.378744 71.177682 
L 183.294571 70.974471 
L 183.193008 70.77937 
L 183.074827 70.593863 
L 182.940927 70.419362 
L 182.792329 70.257195 
L 182.630162 70.108596 
L 182.455661 69.974697 
L 182.270154 69.856516 
L 182.075052 69.754952 
L 181.871842 69.67078 
L 181.662068 69.604638 
L 181.447328 69.557032 
L 181.229256 69.528322 
L 181.009512 69.518728 
L 180.789767 69.528322 
L 180.571695 69.557032 
L 180.356955 69.604638 
L 180.147182 69.67078 
L 179.943971 69.754952 
L 179.74887 69.856516 
L 179.563362 69.974697 
L 179.388861 70.108596 
L 179.226694 70.257195 
L 179.078096 70.419362 
L 178.944196 70.593863 
L 178.826015 70.77937 
L 178.724452 70.974471 
L 178.640279 71.177682 
L 178.574138 71.387456 
L 178.526531 71.602196 
L 178.497822 71.820268 
L 178.488227 72.040012 
L 178.497822 72.259756 
L 178.526531 72.477828 
L 178.574138 72.692568 
L 178.640279 72.902342 
L 178.724452 73.105553 
L 178.826015 73.300654 
L 178.944196 73.486161 
L 179.078096 73.660662 
L 179.226694 73.822829 
L 179.388861 73.971428 
L 179.563362 74.105327 
L 179.74887 74.223508 
L 179.943971 74.325072 
L 180.147182 74.409244 
L 180.356955 74.475386 
L 180.571695 74.522992 
L 180.789767 74.551702 
L 181.009512 74.561296 
L 181.229256 74.551702 
L 181.447328 74.522992 
L 181.662068 74.475386 
L 181.871842 74.409244 
L 182.075052 74.325072 
L 182.270154 74.223508 
L 182.455661 74.105327 
L 182.630162 73.971428 
L 182.792329 73.822829 
L 182.940927 73.660662 
L 183.074827 73.486161 
L 183.193008 73.300654 
L 183.294571 73.105553 
L 183.378744 72.902342 
L 183.444885 72.692568 
L 183.492492 72.477828 
L 183.521202 72.259756 
L 183.530796 72.040012 
z
" clip-path="url(#pd94278c899)" style="fill: #999999; stroke: #262626"/>
    <path d="M 30.311773 73.003476 
L 30.302178 72.783732 
L 30.273469 72.56566 
L 30.225862 72.35092 
L 30.159721 72.141146 
L 30.075548 71.937935 
L 29.973985 71.742834 
L 29.855804 71.557327 
L 29.721904 71.382826 
L 29.573306 71.220659 
L 29.411139 71.07206 
L 29.236638 70.938161 
L 29.05113 70.81998 
L 28.856029 70.718417 
L 28.652818 70.634244 
L 28.443045 70.568103 
L 28.228305 70.520496 
L 28.010233 70.491786 
L 27.790488 70.482192 
L 27.570744 70.491786 
L 27.352672 70.520496 
L 27.137932 70.568103 
L 26.928158 70.634244 
L 26.724948 70.718417 
L 26.529846 70.81998 
L 26.344339 70.938161 
L 26.169838 71.07206 
L 26.007671 71.220659 
L 25.859073 71.382826 
L 25.725173 71.557327 
L 25.606992 71.742834 
L 25.505429 71.937935 
L 25.421256 72.141146 
L 25.355115 72.35092 
L 25.307508 72.56566 
L 25.278798 72.783732 
L 25.269204 73.003476 
L 25.278798 73.223221 
L 25.307508 73.441293 
L 25.355115 73.656033 
L 25.421256 73.865806 
L 25.505429 74.069017 
L 25.606992 74.264118 
L 25.725173 74.449625 
L 25.859073 74.624126 
L 26.007671 74.786293 
L 26.169838 74.934892 
L 26.344339 75.068791 
L 26.529846 75.186972 
L 26.724948 75.288536 
L 26.928158 75.372708 
L 27.137932 75.43885 
L 27.352672 75.486456 
L 27.570744 75.515166 
L 27.790488 75.52476 
L 28.010233 75.515166 
L 28.228305 75.486456 
L 28.443045 75.43885 
L 28.652818 75.372708 
L 28.856029 75.288536 
L 29.05113 75.186972 
L 29.236638 75.068791 
L 29.411139 74.934892 
L 29.573306 74.786293 
L 29.721904 74.624126 
L 29.855804 74.449625 
L 29.973985 74.264118 
L 30.075548 74.069017 
L 30.159721 73.865806 
L 30.225862 73.656033 
L 30.273469 73.441293 
L 30.302178 73.223221 
L 30.311773 73.003476 
z
" clip-path="url(#pd94278c899)" style="fill: #999999; stroke: #262626"/>
    <path d="M 73.362843 178.291389 
L 73.353249 178.071645 
L 73.324539 177.853573 
L 73.276933 177.638833 
L 73.210791 177.429059 
L 73.126619 177.225848 
L 73.025055 177.030747 
L 72.906874 176.84524 
L 72.772975 176.670739 
L 72.624376 176.508572 
L 72.462209 176.359973 
L 72.287708 176.226074 
L 72.102201 176.107893 
L 71.9071 176.006329 
L 71.703889 175.922157 
L 71.494115 175.856015 
L 71.279375 175.808409 
L 71.061303 175.779699 
L 70.841559 175.770105 
L 70.621815 175.779699 
L 70.403743 175.808409 
L 70.189003 175.856015 
L 69.979229 175.922157 
L 69.776018 176.006329 
L 69.580917 176.107893 
L 69.39541 176.226074 
L 69.220909 176.359973 
L 69.058742 176.508572 
L 68.910143 176.670739 
L 68.776244 176.84524 
L 68.658063 177.030747 
L 68.556499 177.225848 
L 68.472327 177.429059 
L 68.406185 177.638833 
L 68.358579 177.853573 
L 68.329869 178.071645 
L 68.320275 178.291389 
L 68.329869 178.511133 
L 68.358579 178.729205 
L 68.406185 178.943945 
L 68.472327 179.153719 
L 68.556499 179.35693 
L 68.658063 179.552031 
L 68.776244 179.737538 
L 68.910143 179.912039 
L 69.058742 180.074206 
L 69.220909 180.222805 
L 69.39541 180.356704 
L 69.580917 180.474885 
L 69.776018 180.576449 
L 69.979229 180.660621 
L 70.189003 180.726763 
L 70.403743 180.774369 
L 70.621815 180.803079 
L 70.841559 180.812673 
L 71.061303 180.803079 
L 71.279375 180.774369 
L 71.494115 180.726763 
L 71.703889 180.660621 
L 71.9071 180.576449 
L 72.102201 180.474885 
L 72.287708 180.356704 
L 72.462209 180.222805 
L 72.624376 180.074206 
L 72.772975 179.912039 
L 72.906874 179.737538 
L 73.025055 179.552031 
L 73.126619 179.35693 
L 73.210791 179.153719 
L 73.276933 178.943945 
L 73.324539 178.729205 
L 73.353249 178.511133 
L 73.362843 178.291389 
z
" clip-path="url(#pd94278c899)" style="fill: #999999; stroke: #262626"/>
    <path d="M 131.724967 30.29384 
L 142.793195 64.775524 
L 104.4 48.429835 
z
" clip-path="url(#pd94278c899)" style="fill: #5774ca; fill-opacity: 0.4; stroke: #262626"/>
    <path d="M 174.776037 135.581753 
L 158.696177 103.668674 
L 142.793195 142.326208 
z
" clip-path="url(#pd94278c899)" style="fill: #980320; fill-opacity: 0.4; stroke: #262626"/>
    <path d="M 174.776037 74.092341 
L 158.696177 103.668674 
L 142.793195 64.775524 
z
" clip-path="url(#pd94278c899)" style="fill: #313fa0; fill-opacity: 0.4; stroke: #262626"/>
    <path d="M 106.921284 48.429835 
L 106.91169 48.210091 
L 106.88298 47.992019 
L 106.835374 47.777279 
L 106.769232 47.567505 
L 106.68506 47.364294 
L 106.583496 47.169193 
L 106.465315 46.983686 
L 106.331416 46.809185 
L 106.182817 46.647018 
L 106.02065 46.498419 
L 105.846149 46.36452 
L 105.660642 46.246339 
L 105.465541 46.144776 
L 105.26233 46.060603 
L 105.052556 45.994462 
L 104.837816 45.946855 
L 104.619744 45.918145 
L 104.4 45.908551 
L 104.180256 45.918145 
L 103.962184 45.946855 
L 103.747444 45.994462 
L 103.53767 46.060603 
L 103.334459 46.144776 
L 103.139358 46.246339 
L 102.953851 46.36452 
L 102.77935 46.498419 
L 102.617183 46.647018 
L 102.468584 46.809185 
L 102.334685 46.983686 
L 102.216504 47.169193 
L 102.11494 47.364294 
L 102.030768 47.567505 
L 101.964626 47.777279 
L 101.91702 47.992019 
L 101.88831 48.210091 
L 101.878716 48.429835 
L 101.88831 48.64958 
L 101.91702 48.867652 
L 101.964626 49.082392 
L 102.030768 49.292165 
L 102.11494 49.495376 
L 102.216504 49.690477 
L 102.334685 49.875984 
L 102.468584 50.050486 
L 102.617183 50.212652 
L 102.77935 50.361251 
L 102.953851 50.49515 
L 103.139358 50.613331 
L 103.334459 50.714895 
L 103.53767 50.799067 
L 103.747444 50.865209 
L 103.962184 50.912816 
L 104.180256 50.941525 
L 104.4 50.951119 
L 104.619744 50.941525 
L 104.837816 50.912816 
L 105.052556 50.865209 
L 105.26233 50.799067 
L 105.465541 50.714895 
L 105.660642 50.613331 
L 105.846149 50.49515 
L 106.02065 50.361251 
L 106.182817 50.212652 
L 106.331416 50.050486 
L 106.465315 49.875984 
L 106.583496 49.690477 
L 106.68506 49.495376 
L 106.769232 49.292165 
L 106.835374 49.082392 
L 106.88298 48.867652 
L 106.91169 48.64958 
L 106.921284 48.429835 
z
" clip-path="url(#pd94278c899)" style="fill: #999999; stroke: #262626"/>
    <path d="M 145.314479 142.326208 
L 145.304885 142.106463 
L 145.276175 141.888391 
L 145.228569 141.673651 
L 145.162427 141.463878 
L 145.078255 141.260667 
L 144.976691 141.065566 
L 144.85851 140.880059 
L 144.724611 140.705557 
L 144.576012 140.543391 
L 144.413845 140.394792 
L 144.239344 140.260893 
L 144.053837 140.142712 
L 143.858736 140.041148 
L 143.655525 139.956976 
L 143.445751 139.890834 
L 143.231011 139.843227 
L 143.012939 139.814518 
L 142.793195 139.804923 
L 142.573451 139.814518 
L 142.355379 139.843227 
L 142.140639 139.890834 
L 141.930865 139.956976 
L 141.727654 140.041148 
L 141.532553 140.142712 
L 141.347046 140.260893 
L 141.172545 140.394792 
L 141.010378 140.543391 
L 140.861779 140.705557 
L 140.72788 140.880059 
L 140.609699 141.065566 
L 140.508135 141.260667 
L 140.423963 141.463878 
L 140.357821 141.673651 
L 140.310215 141.888391 
L 140.281505 142.106463 
L 140.271911 142.326208 
L 140.281505 142.545952 
L 140.310215 142.764024 
L 140.357821 142.978764 
L 140.423963 143.188538 
L 140.508135 143.391749 
L 140.609699 143.58685 
L 140.72788 143.772357 
L 140.861779 143.946858 
L 141.010378 144.109025 
L 141.172545 144.257624 
L 141.347046 144.391523 
L 141.532553 144.509704 
L 141.727654 144.611267 
L 141.930865 144.69544 
L 142.140639 144.761581 
L 142.355379 144.809188 
L 142.573451 144.837898 
L 142.793195 144.847492 
L 143.012939 144.837898 
L 143.231011 144.809188 
L 143.445751 144.761581 
L 143.655525 144.69544 
L 143.858736 144.611267 
L 144.053837 144.509704 
L 144.239344 144.391523 
L 144.413845 144.257624 
L 144.576012 144.109025 
L 144.724611 143.946858 
L 144.85851 143.772357 
L 144.976691 143.58685 
L 145.078255 143.391749 
L 145.162427 143.188538 
L 145.228569 142.978764 
L 145.276175 142.764024 
L 145.304885 142.545952 
L 145.314479 142.326208 
z
" clip-path="url(#pd94278c899)" style="fill: #999999; stroke: #262626"/>
    <path d="M 145.314479 64.775524 
L 145.304885 64.555779 
L 145.276175 64.337707 
L 145.228569 64.122967 
L 145.162427 63.913193 
L 145.078255 63.709983 
L 144.976691 63.514881 
L 144.85851 63.329374 
L 144.724611 63.154873 
L 144.576012 62.992706 
L 144.413845 62.844108 
L 144.239344 62.710208 
L 144.053837 62.592027 
L 143.858736 62.490464 
L 143.655525 62.406291 
L 143.445751 62.34015 
L 143.231011 62.292543 
L 143.012939 62.263833 
L 142.793195 62.254239 
L 142.573451 62.263833 
L 142.355379 62.292543 
L 142.140639 62.34015 
L 141.930865 62.406291 
L 141.727654 62.490464 
L 141.532553 62.592027 
L 141.347046 62.710208 
L 141.172545 62.844108 
L 141.010378 62.992706 
L 140.861779 63.154873 
L 140.72788 63.329374 
L 140.609699 63.514881 
L 140.508135 63.709983 
L 140.423963 63.913193 
L 140.357821 64.122967 
L 140.310215 64.337707 
L 140.281505 64.555779 
L 140.271911 64.775524 
L 140.281505 64.995268 
L 140.310215 65.21334 
L 140.357821 65.42808 
L 140.423963 65.637854 
L 140.508135 65.841064 
L 140.609699 66.036166 
L 140.72788 66.221673 
L 140.861779 66.396174 
L 141.010378 66.558341 
L 141.172545 66.706939 
L 141.347046 66.840839 
L 141.532553 66.95902 
L 141.727654 67.060583 
L 141.930865 67.144756 
L 142.140639 67.210897 
L 142.355379 67.258504 
L 142.573451 67.287214 
L 142.793195 67.296808 
L 143.012939 67.287214 
L 143.231011 67.258504 
L 143.445751 67.210897 
L 143.655525 67.144756 
L 143.858736 67.060583 
L 144.053837 66.95902 
L 144.239344 66.840839 
L 144.413845 66.706939 
L 144.576012 66.558341 
L 144.724611 66.396174 
L 144.85851 66.221673 
L 144.976691 66.036166 
L 145.078255 65.841064 
L 145.162427 65.637854 
L 145.228569 65.42808 
L 145.276175 65.21334 
L 145.304885 64.995268 
L 145.314479 64.775524 
z
" clip-path="url(#pd94278c899)" style="fill: #999999; stroke: #262626"/>
    <path d="M 161.217461 103.668674 
L 161.207867 103.44893 
L 161.179157 103.230858 
L 161.131551 103.016118 
L 161.065409 102.806344 
L 160.981237 102.603134 
L 160.879673 102.408032 
L 160.761492 102.222525 
L 160.627593 102.048024 
L 160.478994 101.885857 
L 160.316827 101.737259 
L 160.142326 101.603359 
L 159.956819 101.485178 
L 159.761718 101.383615 
L 159.558507 101.299442 
L 159.348733 101.233301 
L 159.133993 101.185694 
L 158.915921 101.156984 
L 158.696177 101.14739 
L 158.476433 101.156984 
L 158.258361 101.185694 
L 158.043621 101.233301 
L 157.833847 101.299442 
L 157.630636 101.383615 
L 157.435535 101.485178 
L 157.250028 101.603359 
L 157.075527 101.737259 
L 156.91336 101.885857 
L 156.764761 102.048024 
L 156.630862 102.222525 
L 156.512681 102.408032 
L 156.411117 102.603134 
L 156.326945 102.806344 
L 156.260803 103.016118 
L 156.213197 103.230858 
L 156.184487 103.44893 
L 156.174893 103.668674 
L 156.184487 103.888419 
L 156.213197 104.106491 
L 156.260803 104.321231 
L 156.326945 104.531005 
L 156.411117 104.734215 
L 156.512681 104.929317 
L 156.630862 105.114824 
L 156.764761 105.289325 
L 156.91336 105.451492 
L 157.075527 105.60009 
L 157.250028 105.73399 
L 157.435535 105.852171 
L 157.630636 105.953734 
L 157.833847 106.037907 
L 158.043621 106.104048 
L 158.258361 106.151655 
L 158.476433 106.180365 
L 158.696177 106.189959 
L 158.915921 106.180365 
L 159.133993 106.151655 
L 159.348733 106.104048 
L 159.558507 106.037907 
L 159.761718 105.953734 
L 159.956819 105.852171 
L 160.142326 105.73399 
L 160.316827 105.60009 
L 160.478994 105.451492 
L 160.627593 105.289325 
L 160.761492 105.114824 
L 160.879673 104.929317 
L 160.981237 104.734215 
L 161.065409 104.531005 
L 161.131551 104.321231 
L 161.179157 104.106491 
L 161.207867 103.888419 
L 161.217461 103.668674 
z
" clip-path="url(#pd94278c899)" style="fill: #999999; stroke: #262626"/>
    <path d="M 73.362843 29.842817 
L 73.353249 29.623073 
L 73.324539 29.405001 
L 73.276933 29.190261 
L 73.210791 28.980487 
L 73.126619 28.777277 
L 73.025055 28.582175 
L 72.906874 28.396668 
L 72.772975 28.222167 
L 72.624376 28.06 
L 72.462209 27.911402 
L 72.287708 27.777502 
L 72.102201 27.659321 
L 71.9071 27.557758 
L 71.703889 27.473585 
L 71.494115 27.407444 
L 71.279375 27.359837 
L 71.061303 27.331127 
L 70.841559 27.321533 
L 70.621815 27.331127 
L 70.403743 27.359837 
L 70.189003 27.407444 
L 69.979229 27.473585 
L 69.776018 27.557758 
L 69.580917 27.659321 
L 69.39541 27.777502 
L 69.220909 27.911402 
L 69.058742 28.06 
L 68.910143 28.222167 
L 68.776244 28.396668 
L 68.658063 28.582175 
L 68.556499 28.777277 
L 68.472327 28.980487 
L 68.406185 29.190261 
L 68.358579 29.405001 
L 68.329869 29.623073 
L 68.320275 29.842817 
L 68.329869 30.062562 
L 68.358579 30.280634 
L 68.406185 30.495374 
L 68.472327 30.705147 
L 68.556499 30.908358 
L 68.658063 31.103459 
L 68.776244 31.288967 
L 68.910143 31.463468 
L 69.058742 31.625635 
L 69.220909 31.774233 
L 69.39541 31.908133 
L 69.580917 32.026314 
L 69.776018 32.127877 
L 69.979229 32.21205 
L 70.189003 32.278191 
L 70.403743 32.325798 
L 70.621815 32.354507 
L 70.841559 32.364102 
L 71.061303 32.354507 
L 71.279375 32.325798 
L 71.494115 32.278191 
L 71.703889 32.21205 
L 71.9071 32.127877 
L 72.102201 32.026314 
L 72.287708 31.908133 
L 72.462209 31.774233 
L 72.624376 31.625635 
L 72.772975 31.463468 
L 72.906874 31.288967 
L 73.025055 31.103459 
L 73.126619 30.908358 
L 73.210791 30.705147 
L 73.276933 30.495374 
L 73.324539 30.280634 
L 73.353249 30.062562 
L 73.362843 29.842817 
z
" clip-path="url(#pd94278c899)" style="fill: #999999; stroke: #262626"/>
    <path d="M 134.246251 178.742412 
L 134.236657 178.522667 
L 134.207947 178.304595 
L 134.16034 178.089855 
L 134.094199 177.880082 
L 134.010026 177.676871 
L 133.908463 177.481769 
L 133.790282 177.296262 
L 133.656383 177.121761 
L 133.507784 176.959594 
L 133.345617 176.810996 
L 133.171116 176.677096 
L 132.985609 176.558915 
L 132.790508 176.457352 
L 132.587297 176.373179 
L 132.377523 176.307038 
L 132.162783 176.259431 
L 131.944711 176.230721 
L 131.724967 176.221127 
L 131.505222 176.230721 
L 131.28715 176.259431 
L 131.07241 176.307038 
L 130.862637 176.373179 
L 130.659426 176.457352 
L 130.464325 176.558915 
L 130.278818 176.677096 
L 130.104317 176.810996 
L 129.94215 176.959594 
L 129.793551 177.121761 
L 129.659652 177.296262 
L 129.541471 177.481769 
L 129.439907 177.676871 
L 129.355735 177.880082 
L 129.289593 178.089855 
L 129.241987 178.304595 
L 129.213277 178.522667 
L 129.203683 178.742412 
L 129.213277 178.962156 
L 129.241987 179.180228 
L 129.289593 179.394968 
L 129.355735 179.604742 
L 129.439907 179.807952 
L 129.541471 180.003054 
L 129.659652 180.188561 
L 129.793551 180.363062 
L 129.94215 180.525229 
L 130.104317 180.673827 
L 130.278818 180.807727 
L 130.464325 180.925908 
L 130.659426 181.027471 
L 130.862637 181.111644 
L 131.07241 181.177785 
L 131.28715 181.225392 
L 131.505222 181.254102 
L 131.724967 181.263696 
L 131.944711 181.254102 
L 132.162783 181.225392 
L 132.377523 181.177785 
L 132.587297 181.111644 
L 132.790508 181.027471 
L 132.985609 180.925908 
L 133.171116 180.807727 
L 133.345617 180.673827 
L 133.507784 180.525229 
L 133.656383 180.363062 
L 133.790282 180.188561 
L 133.908463 180.003054 
L 134.010026 179.807952 
L 134.094199 179.604742 
L 134.16034 179.394968 
L 134.207947 179.180228 
L 134.236657 178.962156 
L 134.246251 178.742412 
z
" clip-path="url(#pd94278c899)" style="fill: #999999; stroke: #262626"/>
    <path d="M 134.246251 30.29384 
L 134.236657 30.074096 
L 134.207947 29.856023 
L 134.16034 29.641284 
L 134.094199 29.43151 
L 134.010026 29.228299 
L 133.908463 29.033198 
L 133.790282 28.847691 
L 133.656383 28.67319 
L 133.507784 28.511023 
L 133.345617 28.362424 
L 133.171116 28.228525 
L 132.985609 28.110344 
L 132.790508 28.00878 
L 132.587297 27.924608 
L 132.377523 27.858466 
L 132.162783 27.81086 
L 131.944711 27.78215 
L 131.724967 27.772556 
L 131.505222 27.78215 
L 131.28715 27.81086 
L 131.07241 27.858466 
L 130.862637 27.924608 
L 130.659426 28.00878 
L 130.464325 28.110344 
L 130.278818 28.228525 
L 130.104317 28.362424 
L 129.94215 28.511023 
L 129.793551 28.67319 
L 129.659652 28.847691 
L 129.541471 29.033198 
L 129.439907 29.228299 
L 129.355735 29.43151 
L 129.289593 29.641284 
L 129.241987 29.856023 
L 129.213277 30.074096 
L 129.203683 30.29384 
L 129.213277 30.513584 
L 129.241987 30.731656 
L 129.289593 30.946396 
L 129.355735 31.15617 
L 129.439907 31.359381 
L 129.541471 31.554482 
L 129.659652 31.739989 
L 129.793551 31.91449 
L 129.94215 32.076657 
L 130.104317 32.225256 
L 130.278818 32.359155 
L 130.464325 32.477336 
L 130.659426 32.5789 
L 130.862637 32.663072 
L 131.07241 32.729214 
L 131.28715 32.77682 
L 131.505222 32.80553 
L 131.724967 32.815124 
L 131.944711 32.80553 
L 132.162783 32.77682 
L 132.377523 32.729214 
L 132.587297 32.663072 
L 132.790508 32.5789 
L 132.985609 32.477336 
L 133.171116 32.359155 
L 133.345617 32.225256 
L 133.507784 32.076657 
L 133.656383 31.91449 
L 133.790282 31.739989 
L 133.908463 31.554482 
L 134.010026 31.359381 
L 134.094199 31.15617 
L 134.16034 30.946396 
L 134.207947 30.731656 
L 134.236657 30.513584 
L 134.246251 30.29384 
z
" clip-path="url(#pd94278c899)" style="fill: #999999; stroke: #262626"/>
    <path d="M 177.297322 135.581753 
L 177.287727 135.362008 
L 177.259018 135.143936 
L 177.211411 134.929196 
L 177.14527 134.719423 
L 177.061097 134.516212 
L 176.959534 134.321111 
L 176.841353 134.135603 
L 176.707453 133.961102 
L 176.558855 133.798935 
L 176.396688 133.650337 
L 176.222187 133.516437 
L 176.03668 133.398256 
L 175.841578 133.296693 
L 175.638367 133.21252 
L 175.428594 133.146379 
L 175.213854 133.098772 
L 174.995782 133.070063 
L 174.776037 133.060468 
L 174.556293 133.070063 
L 174.338221 133.098772 
L 174.123481 133.146379 
L 173.913707 133.21252 
L 173.710497 133.296693 
L 173.515395 133.398256 
L 173.329888 133.516437 
L 173.155387 133.650337 
L 172.99322 133.798935 
L 172.844622 133.961102 
L 172.710722 134.135603 
L 172.592541 134.321111 
L 172.490978 134.516212 
L 172.406805 134.719423 
L 172.340664 134.929196 
L 172.293057 135.143936 
L 172.264347 135.362008 
L 172.254753 135.581753 
L 172.264347 135.801497 
L 172.293057 136.019569 
L 172.340664 136.234309 
L 172.406805 136.444083 
L 172.490978 136.647293 
L 172.592541 136.842395 
L 172.710722 137.027902 
L 172.844622 137.202403 
L 172.99322 137.36457 
L 173.155387 137.513168 
L 173.329888 137.647068 
L 173.515395 137.765249 
L 173.710497 137.866812 
L 173.913707 137.950985 
L 174.123481 138.017126 
L 174.338221 138.064733 
L 174.556293 138.093443 
L 174.776037 138.103037 
L 174.995782 138.093443 
L 175.213854 138.064733 
L 175.428594 138.017126 
L 175.638367 137.950985 
L 175.841578 137.866812 
L 176.03668 137.765249 
L 176.222187 137.647068 
L 176.396688 137.513168 
L 176.558855 137.36457 
L 176.707453 137.202403 
L 176.841353 137.027902 
L 176.959534 136.842395 
L 177.061097 136.647293 
L 177.14527 136.444083 
L 177.211411 136.234309 
L 177.259018 136.019569 
L 177.287727 135.801497 
L 177.297322 135.581753 
z
" clip-path="url(#pd94278c899)" style="fill: #999999; stroke: #262626"/>
    <path d="M 177.297322 74.092341 
L 177.287727 73.872597 
L 177.259018 73.654525 
L 177.211411 73.439785 
L 177.14527 73.230011 
L 177.061097 73.0268 
L 176.959534 72.831699 
L 176.841353 72.646192 
L 176.707453 72.471691 
L 176.558855 72.309524 
L 176.396688 72.160925 
L 176.222187 72.027026 
L 176.03668 71.908845 
L 175.841578 71.807281 
L 175.638367 71.723109 
L 175.428594 71.656967 
L 175.213854 71.609361 
L 174.995782 71.580651 
L 174.776037 71.571057 
L 174.556293 71.580651 
L 174.338221 71.609361 
L 174.123481 71.656967 
L 173.913707 71.723109 
L 173.710497 71.807281 
L 173.515395 71.908845 
L 173.329888 72.027026 
L 173.155387 72.160925 
L 172.99322 72.309524 
L 172.844622 72.471691 
L 172.710722 72.646192 
L 172.592541 72.831699 
L 172.490978 73.0268 
L 172.406805 73.230011 
L 172.340664 73.439785 
L 172.293057 73.654525 
L 172.264347 73.872597 
L 172.254753 74.092341 
L 172.264347 74.312085 
L 172.293057 74.530157 
L 172.340664 74.744897 
L 172.406805 74.954671 
L 172.490978 75.157882 
L 172.592541 75.352983 
L 172.710722 75.53849 
L 172.844622 75.712991 
L 172.99322 75.875158 
L 173.155387 76.023757 
L 173.329888 76.157656 
L 173.515395 76.275837 
L 173.710497 76.377401 
L 173.913707 76.461573 
L 174.123481 76.527715 
L 174.338221 76.575321 
L 174.556293 76.604031 
L 174.776037 76.613625 
L 174.995782 76.604031 
L 175.213854 76.575321 
L 175.428594 76.527715 
L 175.638367 76.461573 
L 175.841578 76.377401 
L 176.03668 76.275837 
L 176.222187 76.157656 
L 176.396688 76.023757 
L 176.558855 75.875158 
L 176.707453 75.712991 
L 176.841353 75.53849 
L 176.959534 75.352983 
L 177.061097 75.157882 
L 177.14527 74.954671 
L 177.211411 74.744897 
L 177.259018 74.530157 
L 177.287727 74.312085 
L 177.297322 74.092341 
z
" clip-path="url(#pd94278c899)" style="fill: #999999; stroke: #262626"/>
   </g>
  </g>
 </g>
 <defs>
  <clipPath id="pd94278c899">
   <rect x="7.2" y="7.2" width="194.4" height="192.1329"/>
  </clipPath>
 </defs>
</svg>
