<?xml version="1.0" encoding="utf-8" standalone="no"?>
<!DOCTYPE svg PUBLIC "-//W3C//DTD SVG 1.1//EN"
  "http://www.w3.org/Graphics/SVG/1.1/DTD/svg11.dtd">
<svg xmlns:xlink="http://www.w3.org/1999/xlink" width="352.8pt" height="149.81748pt" viewBox="0 0 352.8 149.81748" xmlns="http://www.w3.org/2000/svg" version="1.1">
 <metadata>
  <rdf:RDF xmlns:dc="http://purl.org/dc/elements/1.1/" xmlns:cc="http://creativecommons.org/ns#" xmlns:rdf="http://www.w3.org/1999/02/22-rdf-syntax-ns#">
   <cc:Work>
    <dc:type rdf:resource="http://purl.org/dc/dcmitype/StillImage"/>
    <dc:date>2026-02-21T07:58:40.105116</dc:date>
    <dc:format>image/svg+xml</dc:format>
    <dc:creator>
     <cc:Agent>
      <dc:title>Matplotlib v3.10.7, https://matplotlib.org/</dc:title>
     </cc:Agent>
    </dc:creator>
   </cc:Work>
  </rdf:RDF>
 </metadata>
 <defs>
  <style type="text/css">*{stroke-linejoin: round; stroke-linecap: butt}</style>
 </defs>
 <g id="figure_1">
  <g id="patch_1">
   <path d="M 0 149.81748 
L 352.8 149.81748 
L 352.8 0 
L 0 0 
z
" style="fill: #ffffff"/>
  </g>
  <g id="axes_1">
   <g id="PolyCollection_1">
    <path d="M 138.11234 86.548115 
L 156.435029 76.584664 
L 129.361565 67.03029 
z
" clip-path="url(#pe75ba6ebd7)" style="fill: #22596e; fill-opacity: 0.5; stroke: #262626"/>
    <path d="M 281.691065 86.548115 
L 300.013755 76.584664 
L 272.940291 67.03029 
z
" clip-path="url(#pe75ba6ebd7)" style="fill: #90ac1f; fill-opacity: 0.5; stroke: #262626"/>
    <path d="M 291.26298 59.524265 
L 300.013755 76.584664 
L 272.940291 67.03029 
z
" clip-path="url(#pe75ba6ebd7)" style="fill: #86a01d; fill-opacity: 0.5; stroke: #262626"/>
    <path d="M 147.684255 59.524265 
L 156.435029 76.584664 
L 129.361565 67.03029 
z
" clip-path="url(#pe75ba6ebd7)" style="fill: #1f5366; fill-opacity: 0.5; stroke: #262626"/>
    <path d="M 71.108935 72.862076 
L 79.859709 97.142189 
L 52.786245 88.178243 
z
" clip-path="url(#pe75ba6ebd7)" style="fill: #402168; fill-opacity: 0.5; stroke: #262626"/>
    <path d="M 214.68766 72.862076 
L 223.438435 97.142189 
L 196.364971 88.178243 
z
" clip-path="url(#pe75ba6ebd7)" style="fill: #229973; fill-opacity: 0.5; stroke: #262626"/>
    <path d="M 214.68766 72.862076 
L 233.01035 55.731697 
L 205.936886 47.238933 
z
" clip-path="url(#pe75ba6ebd7)" style="fill: #2da671; fill-opacity: 0.5; stroke: #262626"/>
    <path d="M 71.108935 72.862076 
L 89.431624 55.731697 
L 62.35816 47.238933 
z
" clip-path="url(#pe75ba6ebd7)" style="fill: #412d74; fill-opacity: 0.5; stroke: #262626"/>
    <path d="M 205.115745 98.215942 
L 223.438435 97.142189 
L 196.364971 88.178243 
z
" clip-path="url(#pe75ba6ebd7)" style="fill: #166149; fill-opacity: 0.5; stroke: #262626"/>
    <path d="M 61.53702 98.215942 
L 79.859709 97.142189 
L 52.786245 88.178243 
z
" clip-path="url(#pe75ba6ebd7)" style="fill: #281542; fill-opacity: 0.5; stroke: #262626"/>
    <path d="M 138.11234 86.548115 
L 147.684255 59.524265 
L 156.435029 76.584664 
z
" clip-path="url(#pe75ba6ebd7)" style="fill: #205569; fill-opacity: 0.5; stroke: #262626"/>
    <path d="M 281.691065 86.548115 
L 291.26298 59.524265 
L 300.013755 76.584664 
z
" clip-path="url(#pe75ba6ebd7)" style="fill: #89a41d; fill-opacity: 0.5; stroke: #262626"/>
    <path d="M 281.691065 86.548115 
L 291.26298 59.524265 
L 272.940291 67.03029 
z
" clip-path="url(#pe75ba6ebd7)" style="fill: #8da81e; fill-opacity: 0.5; stroke: #262626"/>
    <path d="M 138.11234 86.548115 
L 147.684255 59.524265 
L 129.361565 67.03029 
z
" clip-path="url(#pe75ba6ebd7)" style="fill: #21576c; fill-opacity: 0.5; stroke: #262626"/>
    <path d="M 224.259575 48.840911 
L 233.01035 55.731697 
L 205.936886 47.238933 
z
" clip-path="url(#pe75ba6ebd7)" style="fill: #18593d; fill-opacity: 0.5; stroke: #262626"/>
    <path d="M 80.68085 48.840911 
L 89.431624 55.731697 
L 62.35816 47.238933 
z
" clip-path="url(#pe75ba6ebd7)" style="fill: #23183e; fill-opacity: 0.5; stroke: #262626"/>
    <path d="M 71.108935 72.862076 
L 61.53702 98.215942 
L 52.786245 88.178243 
z
" clip-path="url(#pe75ba6ebd7)" style="fill: #30194f; fill-opacity: 0.5; stroke: #262626"/>
    <path d="M 214.68766 72.862076 
L 205.115745 98.215942 
L 196.364971 88.178243 
z
" clip-path="url(#pe75ba6ebd7)" style="fill: #1a7356; fill-opacity: 0.5; stroke: #262626"/>
    <path d="M 138.11234 86.548115 
L 146.863114 113.84969 
L 119.78965 107.026121 
z
" clip-path="url(#pe75ba6ebd7)" style="fill: #2e688a; fill-opacity: 0.5; stroke: #262626"/>
    <path d="M 281.691065 86.548115 
L 290.44184 113.84969 
L 263.368376 107.026121 
z
" clip-path="url(#pe75ba6ebd7)" style="fill: #9ed436; fill-opacity: 0.5; stroke: #262626"/>
    <path d="M 214.68766 72.862076 
L 205.115745 98.215942 
L 223.438435 97.142189 
z
" clip-path="url(#pe75ba6ebd7)" style="fill: #1e8765; fill-opacity: 0.5; stroke: #262626"/>
    <path d="M 71.108935 72.862076 
L 61.53702 98.215942 
L 79.859709 97.142189 
z
" clip-path="url(#pe75ba6ebd7)" style="fill: #381d5c; fill-opacity: 0.5; stroke: #262626"/>
    <path d="M 214.68766 72.862076 
L 224.259575 48.840911 
L 233.01035 55.731697 
z
" clip-path="url(#pe75ba6ebd7)" style="fill: #1f724e; fill-opacity: 0.5; stroke: #262626"/>
    <path d="M 71.108935 72.862076 
L 80.68085 48.840911 
L 89.431624 55.731697 
z
" clip-path="url(#pe75ba6ebd7)" style="fill: #2d1f4f; fill-opacity: 0.5; stroke: #262626"/>
    <path d="M 214.68766 72.862076 
L 224.259575 48.840911 
L 205.936886 47.238933 
z
" clip-path="url(#pe75ba6ebd7)" style="fill: #268d60; fill-opacity: 0.5; stroke: #262626"/>
    <path d="M 71.108935 72.862076 
L 80.68085 48.840911 
L 62.35816 47.238933 
z
" clip-path="url(#pe75ba6ebd7)" style="fill: #372662; fill-opacity: 0.5; stroke: #262626"/>
    <path d="M 291.26298 59.524265 
L 309.58567 38.188958 
L 282.512206 32.226279 
z
" clip-path="url(#pe75ba6ebd7)" style="fill: #cedc1a; fill-opacity: 0.5; stroke: #262626"/>
    <path d="M 147.684255 59.524265 
L 166.006944 38.188958 
L 138.93348 32.226279 
z
" clip-path="url(#pe75ba6ebd7)" style="fill: #28788b; fill-opacity: 0.5; stroke: #262626"/>
    <path d="M 128.540425 105.848084 
L 146.863114 113.84969 
L 119.78965 107.026121 
z
" clip-path="url(#pe75ba6ebd7)" style="fill: #173344; fill-opacity: 0.5; stroke: #262626"/>
    <path d="M 272.11915 105.848084 
L 290.44184 113.84969 
L 263.368376 107.026121 
z
" clip-path="url(#pe75ba6ebd7)" style="fill: #4d681a; fill-opacity: 0.5; stroke: #262626"/>
    <path d="M 138.11234 86.548115 
L 128.540425 105.848084 
L 119.78965 107.026121 
z
" clip-path="url(#pe75ba6ebd7)" style="fill: #19394c; fill-opacity: 0.5; stroke: #262626"/>
    <path d="M 281.691065 86.548115 
L 272.11915 105.848084 
L 263.368376 107.026121 
z
" clip-path="url(#pe75ba6ebd7)" style="fill: #56741d; fill-opacity: 0.5; stroke: #262626"/>
    <path d="M 138.11234 86.548115 
L 128.540425 105.848084 
L 146.863114 113.84969 
z
" clip-path="url(#pe75ba6ebd7)" style="fill: #24516c; fill-opacity: 0.5; stroke: #262626"/>
    <path d="M 281.691065 86.548115 
L 272.11915 105.848084 
L 290.44184 113.84969 
z
" clip-path="url(#pe75ba6ebd7)" style="fill: #7ca62a; fill-opacity: 0.5; stroke: #262626"/>
    <path d="M 291.26298 59.524265 
L 300.834895 42.659263 
L 309.58567 38.188958 
z
" clip-path="url(#pe75ba6ebd7)" style="fill: #676e0d; fill-opacity: 0.5; stroke: #262626"/>
    <path d="M 147.684255 59.524265 
L 157.25617 42.659263 
L 166.006944 38.188958 
z
" clip-path="url(#pe75ba6ebd7)" style="fill: #143c45; fill-opacity: 0.5; stroke: #262626"/>
    <path d="M 300.834895 42.659263 
L 309.58567 38.188958 
L 282.512206 32.226279 
z
" clip-path="url(#pe75ba6ebd7)" style="fill: #737b0f; fill-opacity: 0.5; stroke: #262626"/>
    <path d="M 157.25617 42.659263 
L 166.006944 38.188958 
L 138.93348 32.226279 
z
" clip-path="url(#pe75ba6ebd7)" style="fill: #16434e; fill-opacity: 0.5; stroke: #262626"/>
    <path d="M 291.26298 59.524265 
L 300.834895 42.659263 
L 282.512206 32.226279 
z
" clip-path="url(#pe75ba6ebd7)" style="fill: #9ca814; fill-opacity: 0.5; stroke: #262626"/>
    <path d="M 147.684255 59.524265 
L 157.25617 42.659263 
L 138.93348 32.226279 
z
" clip-path="url(#pe75ba6ebd7)" style="fill: #1e5b6a; fill-opacity: 0.5; stroke: #262626"/>
    <path d="M 61.53702 98.215942 
L 70.287794 123.818289 
L 43.21433 120.314953 
z
" clip-path="url(#pe75ba6ebd7)" style="fill: #451867; fill-opacity: 0.5; stroke: #262626"/>
    <path d="M 205.115745 98.215942 
L 213.86652 123.818289 
L 186.793056 120.314953 
z
" clip-path="url(#pe75ba6ebd7)" style="fill: #1f9e80; fill-opacity: 0.5; stroke: #262626"/>
    <path d="M 224.259575 48.840911 
L 242.582265 26.989743 
L 215.508801 24.588151 
z
" clip-path="url(#pe75ba6ebd7)" style="fill: #3bb06c; fill-opacity: 0.5; stroke: #262626"/>
    <path d="M 80.68085 48.840911 
L 99.003539 26.989743 
L 71.930075 24.588151 
z
" clip-path="url(#pe75ba6ebd7)" style="fill: #3f377b; fill-opacity: 0.5; stroke: #262626"/>
    <path d="M 61.53702 98.215942 
L 51.965105 108.124873 
L 43.21433 120.314953 
z
" clip-path="url(#pe75ba6ebd7)" style="fill: #1f0b2e; fill-opacity: 0.5; stroke: #262626"/>
    <path d="M 205.115745 98.215942 
L 195.54383 108.124873 
L 186.793056 120.314953 
z
" clip-path="url(#pe75ba6ebd7)" style="fill: #0e4639; fill-opacity: 0.5; stroke: #262626"/>
    <path d="M 61.53702 98.215942 
L 51.965105 108.124873 
L 70.287794 123.818289 
z
" clip-path="url(#pe75ba6ebd7)" style="fill: #311149; fill-opacity: 0.5; stroke: #262626"/>
    <path d="M 205.115745 98.215942 
L 195.54383 108.124873 
L 213.86652 123.818289 
z
" clip-path="url(#pe75ba6ebd7)" style="fill: #16705b; fill-opacity: 0.5; stroke: #262626"/>
    <path d="M 51.965105 108.124873 
L 70.287794 123.818289 
L 43.21433 120.314953 
z
" clip-path="url(#pe75ba6ebd7)" style="fill: #33124c; fill-opacity: 0.5; stroke: #262626"/>
    <path d="M 195.54383 108.124873 
L 213.86652 123.818289 
L 186.793056 120.314953 
z
" clip-path="url(#pe75ba6ebd7)" style="fill: #17745e; fill-opacity: 0.5; stroke: #262626"/>
    <path d="M 224.259575 48.840911 
L 233.83149 42.048184 
L 242.582265 26.989743 
z
" clip-path="url(#pe75ba6ebd7)" style="fill: #1e5936; fill-opacity: 0.5; stroke: #262626"/>
    <path d="M 80.68085 48.840911 
L 90.252765 42.048184 
L 99.003539 26.989743 
z
" clip-path="url(#pe75ba6ebd7)" style="fill: #201c3e; fill-opacity: 0.5; stroke: #262626"/>
    <path d="M 224.259575 48.840911 
L 233.83149 42.048184 
L 215.508801 24.588151 
z
" clip-path="url(#pe75ba6ebd7)" style="fill: #287a4a; fill-opacity: 0.5; stroke: #262626"/>
    <path d="M 80.68085 48.840911 
L 90.252765 42.048184 
L 71.930075 24.588151 
z
" clip-path="url(#pe75ba6ebd7)" style="fill: #2c2655; fill-opacity: 0.5; stroke: #262626"/>
    <path d="M 233.83149 42.048184 
L 242.582265 26.989743 
L 215.508801 24.588151 
z
" clip-path="url(#pe75ba6ebd7)" style="fill: #308f58; fill-opacity: 0.5; stroke: #262626"/>
    <path d="M 90.252765 42.048184 
L 99.003539 26.989743 
L 71.930075 24.588151 
z
" clip-path="url(#pe75ba6ebd7)" style="fill: #332d64; fill-opacity: 0.5; stroke: #262626"/>
    <path d="M 128.540425 105.848084 
L 137.291199 125.324324 
L 110.217735 125.746979 
z
" clip-path="url(#pe75ba6ebd7)" style="fill: #2b5378; fill-opacity: 0.5; stroke: #262626"/>
    <path d="M 272.11915 105.848084 
L 280.869925 125.324324 
L 253.796461 125.746979 
z
" clip-path="url(#pe75ba6ebd7)" style="fill: #76b53b; fill-opacity: 0.5; stroke: #262626"/>
    <path d="M 128.540425 105.848084 
L 118.96851 104.652632 
L 110.217735 125.746979 
z
" clip-path="url(#pe75ba6ebd7)" style="fill: #1e3952; fill-opacity: 0.5; stroke: #262626"/>
    <path d="M 272.11915 105.848084 
L 262.547235 104.652632 
L 253.796461 125.746979 
z
" clip-path="url(#pe75ba6ebd7)" style="fill: #507c29; fill-opacity: 0.5; stroke: #262626"/>
    <path d="M 300.834895 42.659263 
L 319.157585 24.0705 
L 292.084121 25.645252 
z
" clip-path="url(#pe75ba6ebd7)" style="fill: #bbb615; fill-opacity: 0.5; stroke: #262626"/>
    <path d="M 157.25617 42.659263 
L 175.57886 24.0705 
L 148.505395 25.645252 
z
" clip-path="url(#pe75ba6ebd7)" style="fill: #1e6971; fill-opacity: 0.5; stroke: #262626"/>
    <path d="M 128.540425 105.848084 
L 118.96851 104.652632 
L 137.291199 125.324324 
z
" clip-path="url(#pe75ba6ebd7)" style="fill: #1c364d; fill-opacity: 0.5; stroke: #262626"/>
    <path d="M 272.11915 105.848084 
L 262.547235 104.652632 
L 280.869925 125.324324 
z
" clip-path="url(#pe75ba6ebd7)" style="fill: #4c7527; fill-opacity: 0.5; stroke: #262626"/>
    <path d="M 310.40681 47.113335 
L 300.834895 42.659263 
L 319.157585 24.0705 
z
" clip-path="url(#pe75ba6ebd7)" style="fill: #908d10; fill-opacity: 0.5; stroke: #262626"/>
    <path d="M 166.828085 47.113335 
L 157.25617 42.659263 
L 175.57886 24.0705 
z
" clip-path="url(#pe75ba6ebd7)" style="fill: #175158; fill-opacity: 0.5; stroke: #262626"/>
    <path d="M 118.96851 104.652632 
L 137.291199 125.324324 
L 110.217735 125.746979 
z
" clip-path="url(#pe75ba6ebd7)" style="fill: #2d567c; fill-opacity: 0.5; stroke: #262626"/>
    <path d="M 262.547235 104.652632 
L 280.869925 125.324324 
L 253.796461 125.746979 
z
" clip-path="url(#pe75ba6ebd7)" style="fill: #7abb3e; fill-opacity: 0.5; stroke: #262626"/>
    <path d="M 310.40681 47.113335 
L 300.834895 42.659263 
L 292.084121 25.645252 
z
" clip-path="url(#pe75ba6ebd7)" style="fill: #76730d; fill-opacity: 0.5; stroke: #262626"/>
    <path d="M 166.828085 47.113335 
L 157.25617 42.659263 
L 148.505395 25.645252 
z
" clip-path="url(#pe75ba6ebd7)" style="fill: #134248; fill-opacity: 0.5; stroke: #262626"/>
    <path d="M 310.40681 47.113335 
L 319.157585 24.0705 
L 292.084121 25.645252 
z
" clip-path="url(#pe75ba6ebd7)" style="fill: #d5d117; fill-opacity: 0.5; stroke: #262626"/>
    <path d="M 166.828085 47.113335 
L 175.57886 24.0705 
L 148.505395 25.645252 
z
" clip-path="url(#pe75ba6ebd7)" style="fill: #227882; fill-opacity: 0.5; stroke: #262626"/>
    <path d="M 42.39319 96.031744 
L 51.965105 108.124873 
L 33.642415 122.382954 
z
" clip-path="url(#pe75ba6ebd7)" style="fill: #320943; fill-opacity: 0.5; stroke: #262626"/>
    <path d="M 185.971915 96.031744 
L 195.54383 108.124873 
L 177.22114 122.382954 
z
" clip-path="url(#pe75ba6ebd7)" style="fill: #156e60; fill-opacity: 0.5; stroke: #262626"/>
    <path d="M 51.965105 108.124873 
L 60.715879 118.107388 
L 33.642415 122.382954 
z
" clip-path="url(#pe75ba6ebd7)" style="fill: #2f083f; fill-opacity: 0.5; stroke: #262626"/>
    <path d="M 195.54383 108.124873 
L 204.294605 118.107388 
L 177.22114 122.382954 
z
" clip-path="url(#pe75ba6ebd7)" style="fill: #14675a; fill-opacity: 0.5; stroke: #262626"/>
    <path d="M 42.39319 96.031744 
L 51.965105 108.124873 
L 60.715879 118.107388 
z
" clip-path="url(#pe75ba6ebd7)" style="fill: #1d0527; fill-opacity: 0.5; stroke: #262626"/>
    <path d="M 185.971915 96.031744 
L 195.54383 108.124873 
L 204.294605 118.107388 
z
" clip-path="url(#pe75ba6ebd7)" style="fill: #0c4038; fill-opacity: 0.5; stroke: #262626"/>
    <path d="M 243.403405 56.978905 
L 233.83149 42.048184 
L 252.15418 29.935992 
z
" clip-path="url(#pe75ba6ebd7)" style="fill: #3a8e4d; fill-opacity: 0.5; stroke: #262626"/>
    <path d="M 99.82468 56.978905 
L 90.252765 42.048184 
L 108.575454 29.935992 
z
" clip-path="url(#pe75ba6ebd7)" style="fill: #2f3263; fill-opacity: 0.5; stroke: #262626"/>
    <path d="M 233.83149 42.048184 
L 252.15418 29.935992 
L 225.080716 35.214799 
z
" clip-path="url(#pe75ba6ebd7)" style="fill: #2f743f; fill-opacity: 0.5; stroke: #262626"/>
    <path d="M 90.252765 42.048184 
L 108.575454 29.935992 
L 81.50199 35.214799 
z
" clip-path="url(#pe75ba6ebd7)" style="fill: #262951; fill-opacity: 0.5; stroke: #262626"/>
    <path d="M 243.403405 56.978905 
L 233.83149 42.048184 
L 225.080716 35.214799 
z
" clip-path="url(#pe75ba6ebd7)" style="fill: #245930; fill-opacity: 0.5; stroke: #262626"/>
    <path d="M 99.82468 56.978905 
L 90.252765 42.048184 
L 81.50199 35.214799 
z
" clip-path="url(#pe75ba6ebd7)" style="fill: #1d1f3e; fill-opacity: 0.5; stroke: #262626"/>
    <path d="M 42.39319 96.031744 
L 60.715879 118.107388 
L 33.642415 122.382954 
z
" clip-path="url(#pe75ba6ebd7)" style="fill: #440c5d; fill-opacity: 0.5; stroke: #262626"/>
    <path d="M 185.971915 96.031744 
L 204.294605 118.107388 
L 177.22114 122.382954 
z
" clip-path="url(#pe75ba6ebd7)" style="fill: #1d9885; fill-opacity: 0.5; stroke: #262626"/>
    <path d="M 109.396595 83.752838 
L 118.96851 104.652632 
L 100.64582 110.804547 
z
" clip-path="url(#pe75ba6ebd7)" style="fill: #2b446c; fill-opacity: 0.5; stroke: #262626"/>
    <path d="M 252.97532 83.752838 
L 262.547235 104.652632 
L 244.224546 110.804547 
z
" clip-path="url(#pe75ba6ebd7)" style="fill: #5ca140; fill-opacity: 0.5; stroke: #262626"/>
    <path d="M 243.403405 56.978905 
L 252.15418 29.935992 
L 225.080716 35.214799 
z
" clip-path="url(#pe75ba6ebd7)" style="fill: #4ebf67; fill-opacity: 0.5; stroke: #262626"/>
    <path d="M 99.82468 56.978905 
L 108.575454 29.935992 
L 81.50199 35.214799 
z
" clip-path="url(#pe75ba6ebd7)" style="fill: #3f4384; fill-opacity: 0.5; stroke: #262626"/>
    <path d="M 109.396595 83.752838 
L 118.96851 104.652632 
L 127.719284 103.415354 
z
" clip-path="url(#pe75ba6ebd7)" style="fill: #1f324f; fill-opacity: 0.5; stroke: #262626"/>
    <path d="M 252.97532 83.752838 
L 262.547235 104.652632 
L 271.29801 103.415354 
z
" clip-path="url(#pe75ba6ebd7)" style="fill: #43762f; fill-opacity: 0.5; stroke: #262626"/>
    <path d="M 319.978725 69.939048 
L 310.40681 47.113335 
L 328.7295 43.572022 
z
" clip-path="url(#pe75ba6ebd7)" style="fill: #c6b41d; fill-opacity: 0.5; stroke: #262626"/>
    <path d="M 176.4 69.939048 
L 166.828085 47.113335 
L 185.150775 43.572022 
z
" clip-path="url(#pe75ba6ebd7)" style="fill: #1b6d6e; fill-opacity: 0.5; stroke: #262626"/>
    <path d="M 118.96851 104.652632 
L 127.719284 103.415354 
L 100.64582 110.804547 
z
" clip-path="url(#pe75ba6ebd7)" style="fill: #18263c; fill-opacity: 0.5; stroke: #262626"/>
    <path d="M 262.547235 104.652632 
L 271.29801 103.415354 
L 244.224546 110.804547 
z
" clip-path="url(#pe75ba6ebd7)" style="fill: #335923; fill-opacity: 0.5; stroke: #262626"/>
    <path d="M 319.978725 69.939048 
L 310.40681 47.113335 
L 301.656036 51.642131 
z
" clip-path="url(#pe75ba6ebd7)" style="fill: #998c16; fill-opacity: 0.5; stroke: #262626"/>
    <path d="M 176.4 69.939048 
L 166.828085 47.113335 
L 158.07731 51.642131 
z
" clip-path="url(#pe75ba6ebd7)" style="fill: #155555; fill-opacity: 0.5; stroke: #262626"/>
    <path d="M 310.40681 47.113335 
L 328.7295 43.572022 
L 301.656036 51.642131 
z
" clip-path="url(#pe75ba6ebd7)" style="fill: #706710; fill-opacity: 0.5; stroke: #262626"/>
    <path d="M 166.828085 47.113335 
L 185.150775 43.572022 
L 158.07731 51.642131 
z
" clip-path="url(#pe75ba6ebd7)" style="fill: #0f3e3f; fill-opacity: 0.5; stroke: #262626"/>
    <path d="M 32.821275 69.939048 
L 42.39319 96.031744 
L 24.0705 93.013771 
z
" clip-path="url(#pe75ba6ebd7)" style="fill: #350141; fill-opacity: 0.5; stroke: #262626"/>
    <path d="M 176.4 69.939048 
L 185.971915 96.031744 
L 167.649225 93.013771 
z
" clip-path="url(#pe75ba6ebd7)" style="fill: #18736d; fill-opacity: 0.5; stroke: #262626"/>
    <path d="M 32.821275 69.939048 
L 42.39319 96.031744 
L 51.143964 83.78861 
z
" clip-path="url(#pe75ba6ebd7)" style="fill: #2f013a; fill-opacity: 0.5; stroke: #262626"/>
    <path d="M 176.4 69.939048 
L 185.971915 96.031744 
L 194.72269 83.78861 
z
" clip-path="url(#pe75ba6ebd7)" style="fill: #166660; fill-opacity: 0.5; stroke: #262626"/>
    <path d="M 252.97532 83.752838 
L 243.403405 56.978905 
L 261.726095 62.620797 
z
" clip-path="url(#pe75ba6ebd7)" style="fill: #4c9b49; fill-opacity: 0.5; stroke: #262626"/>
    <path d="M 109.396595 83.752838 
L 99.82468 56.978905 
L 118.147369 62.620797 
z
" clip-path="url(#pe75ba6ebd7)" style="fill: #2e3d6a; fill-opacity: 0.5; stroke: #262626"/>
    <path d="M 109.396595 83.752838 
L 127.719284 103.415354 
L 100.64582 110.804547 
z
" clip-path="url(#pe75ba6ebd7)" style="fill: #355587; fill-opacity: 0.5; stroke: #262626"/>
    <path d="M 252.97532 83.752838 
L 271.29801 103.415354 
L 244.224546 110.804547 
z
" clip-path="url(#pe75ba6ebd7)" style="fill: #73c94f; fill-opacity: 0.5; stroke: #262626"/>
    <path d="M 252.97532 83.752838 
L 243.403405 56.978905 
L 234.652631 72.086811 
z
" clip-path="url(#pe75ba6ebd7)" style="fill: #479244; fill-opacity: 0.5; stroke: #262626"/>
    <path d="M 109.396595 83.752838 
L 99.82468 56.978905 
L 91.073905 72.086811 
z
" clip-path="url(#pe75ba6ebd7)" style="fill: #2b3963; fill-opacity: 0.5; stroke: #262626"/>
    <path d="M 319.978725 69.939048 
L 328.7295 43.572022 
L 301.656036 51.642131 
z
" clip-path="url(#pe75ba6ebd7)" style="fill: #eed923; fill-opacity: 0.5; stroke: #262626"/>
    <path d="M 176.4 69.939048 
L 185.150775 43.572022 
L 158.07731 51.642131 
z
" clip-path="url(#pe75ba6ebd7)" style="fill: #208485; fill-opacity: 0.5; stroke: #262626"/>
    <path d="M 42.39319 96.031744 
L 51.143964 83.78861 
L 24.0705 93.013771 
z
" clip-path="url(#pe75ba6ebd7)" style="fill: #2a0133; fill-opacity: 0.5; stroke: #262626"/>
    <path d="M 185.971915 96.031744 
L 194.72269 83.78861 
L 167.649225 93.013771 
z
" clip-path="url(#pe75ba6ebd7)" style="fill: #135b55; fill-opacity: 0.5; stroke: #262626"/>
    <path d="M 243.403405 56.978905 
L 261.726095 62.620797 
L 234.652631 72.086811 
z
" clip-path="url(#pe75ba6ebd7)" style="fill: #428940; fill-opacity: 0.5; stroke: #262626"/>
    <path d="M 99.82468 56.978905 
L 118.147369 62.620797 
L 91.073905 72.086811 
z
" clip-path="url(#pe75ba6ebd7)" style="fill: #28355d; fill-opacity: 0.5; stroke: #262626"/>
    <path d="M 32.821275 69.939048 
L 51.143964 83.78861 
L 24.0705 93.013771 
z
" clip-path="url(#pe75ba6ebd7)" style="fill: #3a0148; fill-opacity: 0.5; stroke: #262626"/>
    <path d="M 176.4 69.939048 
L 194.72269 83.78861 
L 167.649225 93.013771 
z
" clip-path="url(#pe75ba6ebd7)" style="fill: #1b7f78; fill-opacity: 0.5; stroke: #262626"/>
    <path d="M 252.97532 83.752838 
L 261.726095 62.620797 
L 234.652631 72.086811 
z
" clip-path="url(#pe75ba6ebd7)" style="fill: #50a44d; fill-opacity: 0.5; stroke: #262626"/>
    <path d="M 109.396595 83.752838 
L 118.147369 62.620797 
L 91.073905 72.086811 
z
" clip-path="url(#pe75ba6ebd7)" style="fill: #314070; fill-opacity: 0.5; stroke: #262626"/>
   </g>
  </g>
 </g>
 <defs>
  <clipPath id="pe75ba6ebd7">
   <rect x="7.2" y="7.2" width="338.4" height="135.41748"/>
  </clipPath>
 </defs>
</svg>
