<?xml version="1.0" encoding="utf-8" standalone="no"?>
<!DOCTYPE svg PUBLIC "-//W3C//DTD SVG 1.1//EN"
  "http://www.w3.org/Graphics/SVG/1.1/DTD/svg11.dtd">
<svg xmlns:xlink="http://www.w3.org/1999/xlink" width="97.399392pt" height="70.071343pt" viewBox="0 0 97.399392 70.071343" xmlns="http://www.w3.org/2000/svg" version="1.1">
 <metadata>
  <rdf:RDF xmlns:dc="http://purl.org/dc/elements/1.1/" xmlns:cc="http://creativecommons.org/ns#" xmlns:rdf="http://www.w3.org/1999/02/22-rdf-syntax-ns#">
   <cc:Work>
    <dc:type rdf:resource="http://purl.org/dc/dcmitype/StillImage"/>
    <dc:date>2026-02-25T16:16:42.548053</dc:date>
    <dc:format>image/svg+xml</dc:format>
    <dc:creator>
     <cc:Agent>
      <dc:title>Matplotlib v3.10.7, https://matplotlib.org/</dc:title>
     </cc:Agent>
    </dc:creator>
   </cc:Work>
  </rdf:RDF>
 </metadata>
 <defs>
  <style type="text/css">*{stroke-linejoin: round; stroke-linecap: butt}</style>
 </defs>
 <g id="figure_1">
  <g id="patch_1">
   <path d="M 0 70.071343 
L 97.399392 70.071343 
L 97.399392 0 
L 0 0 
z
" style="fill: #ffffff"/>
  </g>
  <g id="axes_1">
   <g id="PolyCollection_1">
    <path d="M 15.848592 11.778489 
L 13.762701 23.288309 
L 3.719226 13.503767 
z
" clip-path="url(#pdd1db820c4)" style="fill: #3d729e; fill-opacity: 0.4; stroke: #262626; stroke-width: 0.993548"/>
    <path d="M 12.869631 3.719226 
L 15.848592 11.778489 
L 3.719226 13.503767 
z
" clip-path="url(#pdd1db820c4)" style="fill: #356389; fill-opacity: 0.4; stroke: #262626; stroke-width: 0.993548"/>
    <path d="M 15.848592 11.778489 
L 13.762701 23.288309 
L 22.913107 13.503767 
z
" clip-path="url(#pdd1db820c4)" style="fill: #315b7e; fill-opacity: 0.4; stroke: #262626; stroke-width: 0.993548"/>
    <path d="M 12.869631 3.719226 
L 15.848592 11.778489 
L 22.913107 13.503767 
z
" clip-path="url(#pdd1db820c4)" style="fill: #294c69; fill-opacity: 0.4; stroke: #262626; stroke-width: 0.993548"/>
    <path d="M 10.783741 15.229046 
L 13.762701 23.288309 
L 3.719226 13.503767 
z
" clip-path="url(#pdd1db820c4)" style="fill: #294c69; fill-opacity: 0.4; stroke: #262626; stroke-width: 0.993548"/>
    <path d="M 12.869631 3.719226 
L 10.783741 15.229046 
L 3.719226 13.503767 
z
" clip-path="url(#pdd1db820c4)" style="fill: #315b7e; fill-opacity: 0.4; stroke: #262626; stroke-width: 0.993548"/>
    <path d="M 10.783741 15.229046 
L 13.762701 23.288309 
L 22.913107 13.503767 
z
" clip-path="url(#pdd1db820c4)" style="fill: #356389; fill-opacity: 0.4; stroke: #262626; stroke-width: 0.993548"/>
    <path d="M 12.869631 3.719226 
L 10.783741 15.229046 
L 22.913107 13.503767 
z
" clip-path="url(#pdd1db820c4)" style="fill: #3d729e; fill-opacity: 0.4; stroke: #262626; stroke-width: 0.993548"/>
   </g>
   <g id="PolyCollection_2">
    <path d="M 6.571081 42.503804 
L 20.576866 40.511624 
L 8.97966 29.213408 
z
" clip-path="url(#pdd1db820c4)" style="fill: #bf911c; fill-opacity: 0.4; stroke: #262626; stroke-width: 0.993548"/>
    <path d="M 20.576866 40.511624 
L 17.137059 31.205588 
L 8.97966 29.213408 
z
" clip-path="url(#pdd1db820c4)" style="fill: #7f6013; fill-opacity: 0.4; stroke: #262626; stroke-width: 0.993548"/>
    <path d="M 6.571081 42.503804 
L 17.137059 31.205588 
L 8.97966 29.213408 
z
" clip-path="url(#pdd1db820c4)" style="fill: #987316; fill-opacity: 0.4; stroke: #262626; stroke-width: 0.993548"/>
    <path d="M 6.571081 42.503804 
L 20.576866 40.511624 
L 17.137059 31.205588 
z
" clip-path="url(#pdd1db820c4)" style="fill: #a67e18; fill-opacity: 0.4; stroke: #262626; stroke-width: 0.993548"/>
   </g>
   <g id="PolyCollection_3">
    <path d="M 14.791114 50.074773 
L 8.3208 56.993489 
L 15.42261 63.912204 
L 21.892923 56.993489 
z
" clip-path="url(#pdd1db820c4)" style="fill: #3aae6e; fill-opacity: 0.4; stroke: #262626; stroke-width: 0.993548"/>
    <path d="M 6.845853 65.13216 
L 8.3208 56.993489 
L 15.42261 63.912204 
z
" clip-path="url(#pdd1db820c4)" style="fill: #359d63; fill-opacity: 0.4; stroke: #262626; stroke-width: 0.993548"/>
    <path d="M 6.214357 51.294729 
L 8.3208 56.993489 
L 14.791114 50.074773 
z
" clip-path="url(#pdd1db820c4)" style="fill: #2e8856; fill-opacity: 0.4; stroke: #262626; stroke-width: 0.993548"/>
    <path d="M 20.417976 65.13216 
L 21.892923 56.993489 
L 15.42261 63.912204 
z
" clip-path="url(#pdd1db820c4)" style="fill: #2a7d4f; fill-opacity: 0.4; stroke: #262626; stroke-width: 0.993548"/>
    <path d="M 19.78648 51.294729 
L 21.892923 56.993489 
L 14.791114 50.074773 
z
" clip-path="url(#pdd1db820c4)" style="fill: #236842; fill-opacity: 0.4; stroke: #262626; stroke-width: 0.993548"/>
    <path d="M 8.3208 56.993489 
L 6.214357 51.294729 
L 4.739409 59.433401 
L 6.845853 65.13216 
z
" clip-path="url(#pdd1db820c4)" style="fill: #21633f; fill-opacity: 0.4; stroke: #262626; stroke-width: 0.993548"/>
    <path d="M 15.42261 63.912204 
L 6.845853 65.13216 
L 11.841219 66.352117 
L 20.417976 65.13216 
z
" clip-path="url(#pdd1db820c4)" style="fill: #1e5a39; fill-opacity: 0.4; stroke: #262626; stroke-width: 0.993548"/>
    <path d="M 11.209723 52.514685 
L 6.214357 51.294729 
L 14.791114 50.074773 
L 19.78648 51.294729 
z
" clip-path="url(#pdd1db820c4)" style="fill: #1e5a39; fill-opacity: 0.4; stroke: #262626; stroke-width: 0.993548"/>
    <path d="M 21.892923 56.993489 
L 19.78648 51.294729 
L 18.311533 59.433401 
L 20.417976 65.13216 
z
" clip-path="url(#pdd1db820c4)" style="fill: #21633f; fill-opacity: 0.4; stroke: #262626; stroke-width: 0.993548"/>
    <path d="M 6.845853 65.13216 
L 11.841219 66.352117 
L 4.739409 59.433401 
z
" clip-path="url(#pdd1db820c4)" style="fill: #236842; fill-opacity: 0.4; stroke: #262626; stroke-width: 0.993548"/>
    <path d="M 6.214357 51.294729 
L 11.209723 52.514685 
L 4.739409 59.433401 
z
" clip-path="url(#pdd1db820c4)" style="fill: #2a7d4f; fill-opacity: 0.4; stroke: #262626; stroke-width: 0.993548"/>
    <path d="M 20.417976 65.13216 
L 11.841219 66.352117 
L 18.311533 59.433401 
z
" clip-path="url(#pdd1db820c4)" style="fill: #2e8856; fill-opacity: 0.4; stroke: #262626; stroke-width: 0.993548"/>
    <path d="M 19.78648 51.294729 
L 11.209723 52.514685 
L 18.311533 59.433401 
z
" clip-path="url(#pdd1db820c4)" style="fill: #359d63; fill-opacity: 0.4; stroke: #262626; stroke-width: 0.993548"/>
    <path d="M 11.841219 66.352117 
L 18.311533 59.433401 
L 11.209723 52.514685 
L 4.739409 59.433401 
z
" clip-path="url(#pdd1db820c4)" style="fill: #3aae6e; fill-opacity: 0.4; stroke: #262626; stroke-width: 0.993548"/>
   </g>
   <g id="text_1">
    <path d="M 29.540501 13.41916 
Q 29.540501 12.883576 29.678666 12.361963 
Q 29.818384 11.84035 30.116449 11.422749 
Q 30.414513 11.005148 30.881791 10.752104 
Q 31.349069 10.49906 31.994876 10.49906 
Q 32.640682 10.49906 33.107961 10.752104 
Q 33.575239 11.005148 33.873303 11.422749 
Q 34.171368 11.84035 34.309533 12.361963 
Q 34.449251 12.883576 34.449251 13.41916 
Q 34.449251 13.956298 34.309533 14.47791 
Q 34.171368 14.999523 33.873303 15.417124 
Q 33.575239 15.833173 33.107961 16.087769 
Q 32.640682 16.340814 31.994876 16.340814 
Q 31.349069 16.340814 30.881791 16.087769 
Q 30.414513 15.833173 30.116449 15.417124 
Q 29.818384 14.999523 29.678666 14.47791 
Q 29.540501 13.956298 29.540501 13.41916 
z
M 28.59663 13.41916 
Q 28.59663 14.14414 28.809311 14.814785 
Q 29.023545 15.485431 29.450461 16.002386 
Q 29.878928 16.519342 30.513868 16.822064 
Q 31.15036 17.124785 31.994876 17.124785 
Q 32.839392 17.124785 33.474332 16.822064 
Q 34.110824 16.519342 34.537739 16.002386 
Q 34.966207 15.485431 35.178888 14.814785 
Q 35.393122 14.14414 35.393122 13.41916 
Q 35.393122 12.694181 35.178888 12.023535 
Q 34.966207 11.35289 34.537739 10.835935 
Q 34.110824 10.318979 33.474332 10.0116 
Q 32.839392 9.704221 31.994876 9.704221 
Q 31.15036 9.704221 30.513868 10.0116 
Q 29.878928 10.318979 29.450461 10.835935 
Q 29.023545 11.35289 28.809311 12.023535 
Q 28.59663 12.694181 28.59663 13.41916 
z
M 39.893584 13.479705 
L 40.767596 13.479705 
Q 40.717919 13.021741 40.528524 12.689523 
Q 40.340681 12.355753 40.047274 12.138415 
Q 39.753866 11.919523 39.371971 11.815511 
Q 38.990076 11.709947 38.552294 11.709947 
Q 37.94685 11.709947 37.488887 11.924181 
Q 37.032475 12.138415 36.728201 12.510995 
Q 36.425479 12.883576 36.276447 13.385007 
Q 36.127415 13.886439 36.127415 14.462386 
Q 36.127415 15.038334 36.281104 15.521136 
Q 36.436346 16.002386 36.739068 16.350128 
Q 37.04179 16.69787 37.493544 16.887265 
Q 37.94685 17.075108 38.532112 17.075108 
Q 39.516346 17.075108 40.087637 16.559705 
Q 40.658927 16.042749 40.797092 15.088011 
L 39.933947 15.088011 
Q 39.853221 15.68414 39.500822 16.013253 
Q 39.148423 16.340814 38.522798 16.340814 
Q 38.125378 16.340814 37.836628 16.182467 
Q 37.549431 16.022568 37.36935 15.760209 
Q 37.190822 15.496298 37.105439 15.159423 
Q 37.021608 14.820995 37.021608 14.462386 
Q 37.021608 14.075834 37.100782 13.712568 
Q 37.181507 13.349302 37.364693 13.071419 
Q 37.549431 12.793535 37.85681 12.624322 
Q 38.164189 12.455108 38.622153 12.455108 
Q 39.157737 12.455108 39.475983 12.723677 
Q 39.794229 12.992245 39.893584 13.479705 
z
M 42.914281 11.829483 
L 42.914281 10.289483 
L 42.069765 10.289483 
L 42.069765 11.829483 
L 41.195753 11.829483 
L 41.195753 12.574644 
L 42.069765 12.574644 
L 42.069765 15.84404 
Q 42.069765 16.201096 42.138072 16.419987 
Q 42.207931 16.638878 42.352306 16.758415 
Q 42.496681 16.876398 42.729543 16.921419 
Q 42.963959 16.966439 43.291519 16.966439 
L 43.937326 16.966439 
L 43.937326 16.221277 
L 43.549221 16.221277 
Q 43.350511 16.221277 43.226318 16.207306 
Q 43.102124 16.191781 43.032265 16.142104 
Q 42.963959 16.092427 42.93912 16.003939 
Q 42.914281 15.913898 42.914281 15.764866 
L 42.914281 12.574644 
L 43.937326 12.574644 
L 43.937326 11.829483 
L 42.914281 11.829483 
z
M 49.422022 16.946257 
Q 49.203131 17.075108 48.815026 17.075108 
Q 48.487465 17.075108 48.293413 16.891923 
Q 48.100913 16.708737 48.100913 16.291136 
Q 47.753171 16.708737 47.29055 16.891923 
Q 46.827929 17.075108 46.292344 17.075108 
Q 45.944602 17.075108 45.631014 16.995935 
Q 45.318977 16.916761 45.089219 16.747548 
Q 44.861014 16.578334 44.725953 16.305108 
Q 44.592445 16.031882 44.592445 15.64533 
Q 44.592445 15.207548 44.741477 14.929665 
Q 44.89051 14.651781 45.13424 14.47791 
Q 45.377969 14.30404 45.690006 14.215552 
Q 46.003594 14.125511 46.331155 14.064967 
Q 46.678897 13.995108 46.992486 13.960955 
Q 47.306074 13.926802 47.543594 13.8616 
Q 47.782667 13.796398 47.920832 13.672205 
Q 48.06055 13.548011 48.06055 13.310491 
Q 48.06055 13.032608 47.956538 12.863394 
Q 47.852526 12.694181 47.687969 12.605693 
Q 47.523413 12.515652 47.320046 12.486156 
Q 47.116679 12.455108 46.917969 12.455108 
Q 46.380832 12.455108 46.023776 12.660027 
Q 45.666719 12.863394 45.635671 13.430027 
L 44.791155 13.430027 
Q 44.811336 12.951882 44.989865 12.624322 
Q 45.169945 12.296761 45.46801 12.093394 
Q 45.766074 11.890027 46.147969 11.799987 
Q 46.529865 11.709947 46.967647 11.709947 
Q 47.315389 11.709947 47.658473 11.759624 
Q 48.001558 11.809302 48.279441 11.964544 
Q 48.557324 12.118233 48.726538 12.396116 
Q 48.895752 12.673999 48.895752 13.121096 
L 48.895752 15.764866 
Q 48.895752 16.062931 48.929905 16.202648 
Q 48.964058 16.340814 49.162768 16.340814 
Q 49.27299 16.340814 49.422022 16.291136 
L 49.422022 16.946257 
z
M 48.051236 14.313354 
Q 47.891336 14.43289 47.632082 14.487225 
Q 47.374381 14.54156 47.09184 14.577265 
Q 46.8093 14.611419 46.52055 14.656439 
Q 46.2318 14.701459 46.003594 14.800814 
Q 45.775389 14.900169 45.631014 15.084906 
Q 45.486639 15.268092 45.486639 15.584785 
Q 45.486639 15.794362 45.570469 15.938737 
Q 45.655852 16.08156 45.789361 16.1716 
Q 45.924421 16.26164 46.102949 16.302003 
Q 46.281477 16.340814 46.480187 16.340814 
Q 46.897788 16.340814 47.195852 16.227487 
Q 47.493917 16.112608 47.68176 15.938737 
Q 47.871155 15.764866 47.961195 15.561499 
Q 48.051236 15.35658 48.051236 15.178052 
L 48.051236 14.313354 
z
M 50.207235 9.871882 
L 50.207235 16.966439 
L 51.051751 16.966439 
L 51.051751 14.064967 
Q 51.051751 13.717225 51.144897 13.42537 
Q 51.239594 13.131963 51.427437 12.913072 
Q 51.616832 12.694181 51.899372 12.574644 
Q 52.183465 12.455108 52.57157 12.455108 
Q 53.057477 12.455108 53.33536 12.734544 
Q 53.614796 13.012427 53.614796 13.489019 
L 53.614796 16.966439 
L 54.459312 16.966439 
L 54.459312 13.588374 
Q 54.459312 13.170773 54.373929 12.829241 
Q 54.290098 12.486156 54.080522 12.237769 
Q 53.872497 11.989382 53.53407 11.849665 
Q 53.197195 11.709947 52.691106 11.709947 
Q 52.461348 11.709947 52.217618 11.759624 
Q 51.975441 11.809302 51.751892 11.914866 
Q 51.528344 12.018878 51.348263 12.183435 
Q 51.169735 12.346439 51.07038 12.585511 
L 51.051751 12.585511 
L 51.051751 9.871882 
L 50.207235 9.871882 
z
M 59.297271 13.90662 
L 56.346121 13.90662 
Q 56.366303 13.608556 56.474972 13.346197 
Q 56.585194 13.082285 56.773037 12.883576 
Q 56.962432 12.684866 57.224791 12.569987 
Q 57.488702 12.455108 57.817815 12.455108 
Q 58.134509 12.455108 58.39842 12.569987 
Q 58.662331 12.684866 58.854831 12.878919 
Q 59.048884 13.071419 59.16221 13.339987 
Q 59.277089 13.608556 59.297271 13.90662 
z
M 60.112291 15.336398 
L 59.277089 15.336398 
Q 59.16842 15.84404 58.825335 16.092427 
Q 58.48225 16.340814 57.946666 16.340814 
Q 57.529065 16.340814 57.220134 16.202648 
Q 56.912754 16.062931 56.714045 15.830068 
Q 56.515335 15.595652 56.425295 15.292931 
Q 56.336807 14.988656 56.346121 14.651781 
L 60.191464 14.651781 
Q 60.211646 14.184503 60.107634 13.667548 
Q 60.003621 13.150592 59.730396 12.714362 
Q 59.45717 12.27658 59.003863 11.99404 
Q 58.552109 11.709947 57.867492 11.709947 
Q 57.33967 11.709947 56.89723 11.908656 
Q 56.456343 12.107366 56.13344 12.465975 
Q 55.810537 12.823031 55.630456 13.310491 
Q 55.451928 13.796398 55.451928 14.383213 
Q 55.472109 14.970027 55.625799 15.466802 
Q 55.781041 15.963576 56.08842 16.320632 
Q 56.395799 16.677689 56.847553 16.876398 
Q 57.300859 17.075108 57.91717 17.075108 
Q 58.791182 17.075108 59.367129 16.638878 
Q 59.943077 16.201096 60.112291 15.336398 
z
M 61.681476 14.442205 
Q 61.681476 14.064967 61.760649 13.70791 
Q 61.841375 13.349302 62.019903 13.071419 
Q 62.198432 12.793535 62.496496 12.624322 
Q 62.794561 12.455108 63.221476 12.455108 
Q 63.659258 12.455108 63.966637 12.619665 
Q 64.275569 12.784221 64.468069 13.05279 
Q 64.662121 13.319806 64.752161 13.673757 
Q 64.842202 14.026156 64.842202 14.403394 
Q 64.842202 14.760451 64.756819 15.108193 
Q 64.672988 15.455935 64.483593 15.72916 
Q 64.29575 16.002386 63.997686 16.1716 
Q 63.699621 16.340814 63.271153 16.340814 
Q 62.864419 16.340814 62.561698 16.182467 
Q 62.258976 16.022568 62.064924 15.753999 
Q 61.870871 15.485431 61.776174 15.143898 
Q 61.681476 14.800814 61.681476 14.442205 
z
M 65.655669 16.966439 
L 65.655669 9.871882 
L 64.811153 9.871882 
L 64.811153 12.515652 
L 64.792524 12.515652 
Q 64.652807 12.287447 64.44944 12.133757 
Q 64.246073 11.978515 64.016315 11.88537 
Q 63.788109 11.790673 63.559903 11.75031 
Q 63.331698 11.709947 63.132988 11.709947 
Q 62.546174 11.709947 62.103734 11.924181 
Q 61.662847 12.138415 61.36944 12.501681 
Q 61.076032 12.863394 60.931657 13.350854 
Q 60.787282 13.836761 60.787282 14.383213 
Q 60.787282 14.929665 60.936315 15.417124 
Q 61.085347 15.903031 61.378754 16.270955 
Q 61.672161 16.638878 62.114601 16.857769 
Q 62.55704 17.075108 63.153169 17.075108 
Q 63.688754 17.075108 64.135851 16.887265 
Q 64.582948 16.69787 64.792524 16.270955 
L 64.811153 16.270955 
L 64.811153 16.966439 
L 65.655669 16.966439 
z
M 66.92741 11.829483 
L 66.92741 16.966439 
L 67.771926 16.966439 
L 67.771926 14.681277 
Q 67.771926 14.184503 67.871281 13.802608 
Q 67.970636 13.41916 68.189527 13.152144 
Q 68.408418 12.883576 68.765475 12.743858 
Q 69.124084 12.60414 69.630172 12.60414 
L 69.630172 11.709947 
Q 68.945555 11.691318 68.498459 11.989382 
Q 68.051362 12.287447 67.74243 12.913072 
L 67.722249 12.913072 
L 67.722249 11.829483 
L 66.92741 11.829483 
z
M 74.817115 16.946257 
Q 74.598224 17.075108 74.210119 17.075108 
Q 73.882558 17.075108 73.688506 16.891923 
Q 73.496006 16.708737 73.496006 16.291136 
Q 73.148264 16.708737 72.685643 16.891923 
Q 72.223022 17.075108 71.687437 17.075108 
Q 71.339695 17.075108 71.026107 16.995935 
Q 70.71407 16.916761 70.484312 16.747548 
Q 70.256107 16.578334 70.121046 16.305108 
Q 69.987538 16.031882 69.987538 15.64533 
Q 69.987538 15.207548 70.13657 14.929665 
Q 70.285603 14.651781 70.529332 14.47791 
Q 70.773062 14.30404 71.085099 14.215552 
Q 71.398687 14.125511 71.726248 14.064967 
Q 72.07399 13.995108 72.387578 13.960955 
Q 72.701167 13.926802 72.938687 13.8616 
Q 73.17776 13.796398 73.315925 13.672205 
Q 73.455643 13.548011 73.455643 13.310491 
Q 73.455643 13.032608 73.351631 12.863394 
Q 73.247619 12.694181 73.083062 12.605693 
Q 72.918506 12.515652 72.715139 12.486156 
Q 72.511772 12.455108 72.313062 12.455108 
Q 71.775925 12.455108 71.418869 12.660027 
Q 71.061812 12.863394 71.030764 13.430027 
L 70.186248 13.430027 
Q 70.206429 12.951882 70.384957 12.624322 
Q 70.565038 12.296761 70.863103 12.093394 
Q 71.161167 11.890027 71.543062 11.799987 
Q 71.924957 11.709947 72.36274 11.709947 
Q 72.710482 11.709947 73.053566 11.759624 
Q 73.396651 11.809302 73.674534 11.964544 
Q 73.952417 12.118233 74.121631 12.396116 
Q 74.290844 12.673999 74.290844 13.121096 
L 74.290844 15.764866 
Q 74.290844 16.062931 74.324998 16.202648 
Q 74.359151 16.340814 74.557861 16.340814 
Q 74.668082 16.340814 74.817115 16.291136 
L 74.817115 16.946257 
z
M 73.446328 14.313354 
Q 73.286429 14.43289 73.027175 14.487225 
Q 72.769474 14.54156 72.486933 14.577265 
Q 72.204393 14.611419 71.915643 14.656439 
Q 71.626893 14.701459 71.398687 14.800814 
Q 71.170482 14.900169 71.026107 15.084906 
Q 70.881732 15.268092 70.881732 15.584785 
Q 70.881732 15.794362 70.965562 15.938737 
Q 71.050945 16.08156 71.184453 16.1716 
Q 71.319514 16.26164 71.498042 16.302003 
Q 71.67657 16.340814 71.87528 16.340814 
Q 72.292881 16.340814 72.590945 16.227487 
Q 72.88901 16.112608 73.076853 15.938737 
Q 73.266248 15.764866 73.356288 15.561499 
Q 73.446328 15.35658 73.446328 15.178052 
L 73.446328 14.313354 
z
M 75.652005 9.871882 
L 75.652005 16.966439 
L 76.496522 16.966439 
L 76.496522 9.871882 
L 75.652005 9.871882 
z
" style="stroke: #ffffff; stroke-width: 2.980645"/>
    <path d="M 29.540501 13.41916 
Q 29.540501 12.883576 29.678666 12.361963 
Q 29.818384 11.84035 30.116449 11.422749 
Q 30.414513 11.005148 30.881791 10.752104 
Q 31.349069 10.49906 31.994876 10.49906 
Q 32.640682 10.49906 33.107961 10.752104 
Q 33.575239 11.005148 33.873303 11.422749 
Q 34.171368 11.84035 34.309533 12.361963 
Q 34.449251 12.883576 34.449251 13.41916 
Q 34.449251 13.956298 34.309533 14.47791 
Q 34.171368 14.999523 33.873303 15.417124 
Q 33.575239 15.833173 33.107961 16.087769 
Q 32.640682 16.340814 31.994876 16.340814 
Q 31.349069 16.340814 30.881791 16.087769 
Q 30.414513 15.833173 30.116449 15.417124 
Q 29.818384 14.999523 29.678666 14.47791 
Q 29.540501 13.956298 29.540501 13.41916 
z
M 28.59663 13.41916 
Q 28.59663 14.14414 28.809311 14.814785 
Q 29.023545 15.485431 29.450461 16.002386 
Q 29.878928 16.519342 30.513868 16.822064 
Q 31.15036 17.124785 31.994876 17.124785 
Q 32.839392 17.124785 33.474332 16.822064 
Q 34.110824 16.519342 34.537739 16.002386 
Q 34.966207 15.485431 35.178888 14.814785 
Q 35.393122 14.14414 35.393122 13.41916 
Q 35.393122 12.694181 35.178888 12.023535 
Q 34.966207 11.35289 34.537739 10.835935 
Q 34.110824 10.318979 33.474332 10.0116 
Q 32.839392 9.704221 31.994876 9.704221 
Q 31.15036 9.704221 30.513868 10.0116 
Q 29.878928 10.318979 29.450461 10.835935 
Q 29.023545 11.35289 28.809311 12.023535 
Q 28.59663 12.694181 28.59663 13.41916 
z
M 39.893584 13.479705 
L 40.767596 13.479705 
Q 40.717919 13.021741 40.528524 12.689523 
Q 40.340681 12.355753 40.047274 12.138415 
Q 39.753866 11.919523 39.371971 11.815511 
Q 38.990076 11.709947 38.552294 11.709947 
Q 37.94685 11.709947 37.488887 11.924181 
Q 37.032475 12.138415 36.728201 12.510995 
Q 36.425479 12.883576 36.276447 13.385007 
Q 36.127415 13.886439 36.127415 14.462386 
Q 36.127415 15.038334 36.281104 15.521136 
Q 36.436346 16.002386 36.739068 16.350128 
Q 37.04179 16.69787 37.493544 16.887265 
Q 37.94685 17.075108 38.532112 17.075108 
Q 39.516346 17.075108 40.087637 16.559705 
Q 40.658927 16.042749 40.797092 15.088011 
L 39.933947 15.088011 
Q 39.853221 15.68414 39.500822 16.013253 
Q 39.148423 16.340814 38.522798 16.340814 
Q 38.125378 16.340814 37.836628 16.182467 
Q 37.549431 16.022568 37.36935 15.760209 
Q 37.190822 15.496298 37.105439 15.159423 
Q 37.021608 14.820995 37.021608 14.462386 
Q 37.021608 14.075834 37.100782 13.712568 
Q 37.181507 13.349302 37.364693 13.071419 
Q 37.549431 12.793535 37.85681 12.624322 
Q 38.164189 12.455108 38.622153 12.455108 
Q 39.157737 12.455108 39.475983 12.723677 
Q 39.794229 12.992245 39.893584 13.479705 
z
M 42.914281 11.829483 
L 42.914281 10.289483 
L 42.069765 10.289483 
L 42.069765 11.829483 
L 41.195753 11.829483 
L 41.195753 12.574644 
L 42.069765 12.574644 
L 42.069765 15.84404 
Q 42.069765 16.201096 42.138072 16.419987 
Q 42.207931 16.638878 42.352306 16.758415 
Q 42.496681 16.876398 42.729543 16.921419 
Q 42.963959 16.966439 43.291519 16.966439 
L 43.937326 16.966439 
L 43.937326 16.221277 
L 43.549221 16.221277 
Q 43.350511 16.221277 43.226318 16.207306 
Q 43.102124 16.191781 43.032265 16.142104 
Q 42.963959 16.092427 42.93912 16.003939 
Q 42.914281 15.913898 42.914281 15.764866 
L 42.914281 12.574644 
L 43.937326 12.574644 
L 43.937326 11.829483 
L 42.914281 11.829483 
z
M 49.422022 16.946257 
Q 49.203131 17.075108 48.815026 17.075108 
Q 48.487465 17.075108 48.293413 16.891923 
Q 48.100913 16.708737 48.100913 16.291136 
Q 47.753171 16.708737 47.29055 16.891923 
Q 46.827929 17.075108 46.292344 17.075108 
Q 45.944602 17.075108 45.631014 16.995935 
Q 45.318977 16.916761 45.089219 16.747548 
Q 44.861014 16.578334 44.725953 16.305108 
Q 44.592445 16.031882 44.592445 15.64533 
Q 44.592445 15.207548 44.741477 14.929665 
Q 44.89051 14.651781 45.13424 14.47791 
Q 45.377969 14.30404 45.690006 14.215552 
Q 46.003594 14.125511 46.331155 14.064967 
Q 46.678897 13.995108 46.992486 13.960955 
Q 47.306074 13.926802 47.543594 13.8616 
Q 47.782667 13.796398 47.920832 13.672205 
Q 48.06055 13.548011 48.06055 13.310491 
Q 48.06055 13.032608 47.956538 12.863394 
Q 47.852526 12.694181 47.687969 12.605693 
Q 47.523413 12.515652 47.320046 12.486156 
Q 47.116679 12.455108 46.917969 12.455108 
Q 46.380832 12.455108 46.023776 12.660027 
Q 45.666719 12.863394 45.635671 13.430027 
L 44.791155 13.430027 
Q 44.811336 12.951882 44.989865 12.624322 
Q 45.169945 12.296761 45.46801 12.093394 
Q 45.766074 11.890027 46.147969 11.799987 
Q 46.529865 11.709947 46.967647 11.709947 
Q 47.315389 11.709947 47.658473 11.759624 
Q 48.001558 11.809302 48.279441 11.964544 
Q 48.557324 12.118233 48.726538 12.396116 
Q 48.895752 12.673999 48.895752 13.121096 
L 48.895752 15.764866 
Q 48.895752 16.062931 48.929905 16.202648 
Q 48.964058 16.340814 49.162768 16.340814 
Q 49.27299 16.340814 49.422022 16.291136 
L 49.422022 16.946257 
z
M 48.051236 14.313354 
Q 47.891336 14.43289 47.632082 14.487225 
Q 47.374381 14.54156 47.09184 14.577265 
Q 46.8093 14.611419 46.52055 14.656439 
Q 46.2318 14.701459 46.003594 14.800814 
Q 45.775389 14.900169 45.631014 15.084906 
Q 45.486639 15.268092 45.486639 15.584785 
Q 45.486639 15.794362 45.570469 15.938737 
Q 45.655852 16.08156 45.789361 16.1716 
Q 45.924421 16.26164 46.102949 16.302003 
Q 46.281477 16.340814 46.480187 16.340814 
Q 46.897788 16.340814 47.195852 16.227487 
Q 47.493917 16.112608 47.68176 15.938737 
Q 47.871155 15.764866 47.961195 15.561499 
Q 48.051236 15.35658 48.051236 15.178052 
L 48.051236 14.313354 
z
M 50.207235 9.871882 
L 50.207235 16.966439 
L 51.051751 16.966439 
L 51.051751 14.064967 
Q 51.051751 13.717225 51.144897 13.42537 
Q 51.239594 13.131963 51.427437 12.913072 
Q 51.616832 12.694181 51.899372 12.574644 
Q 52.183465 12.455108 52.57157 12.455108 
Q 53.057477 12.455108 53.33536 12.734544 
Q 53.614796 13.012427 53.614796 13.489019 
L 53.614796 16.966439 
L 54.459312 16.966439 
L 54.459312 13.588374 
Q 54.459312 13.170773 54.373929 12.829241 
Q 54.290098 12.486156 54.080522 12.237769 
Q 53.872497 11.989382 53.53407 11.849665 
Q 53.197195 11.709947 52.691106 11.709947 
Q 52.461348 11.709947 52.217618 11.759624 
Q 51.975441 11.809302 51.751892 11.914866 
Q 51.528344 12.018878 51.348263 12.183435 
Q 51.169735 12.346439 51.07038 12.585511 
L 51.051751 12.585511 
L 51.051751 9.871882 
L 50.207235 9.871882 
z
M 59.297271 13.90662 
L 56.346121 13.90662 
Q 56.366303 13.608556 56.474972 13.346197 
Q 56.585194 13.082285 56.773037 12.883576 
Q 56.962432 12.684866 57.224791 12.569987 
Q 57.488702 12.455108 57.817815 12.455108 
Q 58.134509 12.455108 58.39842 12.569987 
Q 58.662331 12.684866 58.854831 12.878919 
Q 59.048884 13.071419 59.16221 13.339987 
Q 59.277089 13.608556 59.297271 13.90662 
z
M 60.112291 15.336398 
L 59.277089 15.336398 
Q 59.16842 15.84404 58.825335 16.092427 
Q 58.48225 16.340814 57.946666 16.340814 
Q 57.529065 16.340814 57.220134 16.202648 
Q 56.912754 16.062931 56.714045 15.830068 
Q 56.515335 15.595652 56.425295 15.292931 
Q 56.336807 14.988656 56.346121 14.651781 
L 60.191464 14.651781 
Q 60.211646 14.184503 60.107634 13.667548 
Q 60.003621 13.150592 59.730396 12.714362 
Q 59.45717 12.27658 59.003863 11.99404 
Q 58.552109 11.709947 57.867492 11.709947 
Q 57.33967 11.709947 56.89723 11.908656 
Q 56.456343 12.107366 56.13344 12.465975 
Q 55.810537 12.823031 55.630456 13.310491 
Q 55.451928 13.796398 55.451928 14.383213 
Q 55.472109 14.970027 55.625799 15.466802 
Q 55.781041 15.963576 56.08842 16.320632 
Q 56.395799 16.677689 56.847553 16.876398 
Q 57.300859 17.075108 57.91717 17.075108 
Q 58.791182 17.075108 59.367129 16.638878 
Q 59.943077 16.201096 60.112291 15.336398 
z
M 61.681476 14.442205 
Q 61.681476 14.064967 61.760649 13.70791 
Q 61.841375 13.349302 62.019903 13.071419 
Q 62.198432 12.793535 62.496496 12.624322 
Q 62.794561 12.455108 63.221476 12.455108 
Q 63.659258 12.455108 63.966637 12.619665 
Q 64.275569 12.784221 64.468069 13.05279 
Q 64.662121 13.319806 64.752161 13.673757 
Q 64.842202 14.026156 64.842202 14.403394 
Q 64.842202 14.760451 64.756819 15.108193 
Q 64.672988 15.455935 64.483593 15.72916 
Q 64.29575 16.002386 63.997686 16.1716 
Q 63.699621 16.340814 63.271153 16.340814 
Q 62.864419 16.340814 62.561698 16.182467 
Q 62.258976 16.022568 62.064924 15.753999 
Q 61.870871 15.485431 61.776174 15.143898 
Q 61.681476 14.800814 61.681476 14.442205 
z
M 65.655669 16.966439 
L 65.655669 9.871882 
L 64.811153 9.871882 
L 64.811153 12.515652 
L 64.792524 12.515652 
Q 64.652807 12.287447 64.44944 12.133757 
Q 64.246073 11.978515 64.016315 11.88537 
Q 63.788109 11.790673 63.559903 11.75031 
Q 63.331698 11.709947 63.132988 11.709947 
Q 62.546174 11.709947 62.103734 11.924181 
Q 61.662847 12.138415 61.36944 12.501681 
Q 61.076032 12.863394 60.931657 13.350854 
Q 60.787282 13.836761 60.787282 14.383213 
Q 60.787282 14.929665 60.936315 15.417124 
Q 61.085347 15.903031 61.378754 16.270955 
Q 61.672161 16.638878 62.114601 16.857769 
Q 62.55704 17.075108 63.153169 17.075108 
Q 63.688754 17.075108 64.135851 16.887265 
Q 64.582948 16.69787 64.792524 16.270955 
L 64.811153 16.270955 
L 64.811153 16.966439 
L 65.655669 16.966439 
z
M 66.92741 11.829483 
L 66.92741 16.966439 
L 67.771926 16.966439 
L 67.771926 14.681277 
Q 67.771926 14.184503 67.871281 13.802608 
Q 67.970636 13.41916 68.189527 13.152144 
Q 68.408418 12.883576 68.765475 12.743858 
Q 69.124084 12.60414 69.630172 12.60414 
L 69.630172 11.709947 
Q 68.945555 11.691318 68.498459 11.989382 
Q 68.051362 12.287447 67.74243 12.913072 
L 67.722249 12.913072 
L 67.722249 11.829483 
L 66.92741 11.829483 
z
M 74.817115 16.946257 
Q 74.598224 17.075108 74.210119 17.075108 
Q 73.882558 17.075108 73.688506 16.891923 
Q 73.496006 16.708737 73.496006 16.291136 
Q 73.148264 16.708737 72.685643 16.891923 
Q 72.223022 17.075108 71.687437 17.075108 
Q 71.339695 17.075108 71.026107 16.995935 
Q 70.71407 16.916761 70.484312 16.747548 
Q 70.256107 16.578334 70.121046 16.305108 
Q 69.987538 16.031882 69.987538 15.64533 
Q 69.987538 15.207548 70.13657 14.929665 
Q 70.285603 14.651781 70.529332 14.47791 
Q 70.773062 14.30404 71.085099 14.215552 
Q 71.398687 14.125511 71.726248 14.064967 
Q 72.07399 13.995108 72.387578 13.960955 
Q 72.701167 13.926802 72.938687 13.8616 
Q 73.17776 13.796398 73.315925 13.672205 
Q 73.455643 13.548011 73.455643 13.310491 
Q 73.455643 13.032608 73.351631 12.863394 
Q 73.247619 12.694181 73.083062 12.605693 
Q 72.918506 12.515652 72.715139 12.486156 
Q 72.511772 12.455108 72.313062 12.455108 
Q 71.775925 12.455108 71.418869 12.660027 
Q 71.061812 12.863394 71.030764 13.430027 
L 70.186248 13.430027 
Q 70.206429 12.951882 70.384957 12.624322 
Q 70.565038 12.296761 70.863103 12.093394 
Q 71.161167 11.890027 71.543062 11.799987 
Q 71.924957 11.709947 72.36274 11.709947 
Q 72.710482 11.709947 73.053566 11.759624 
Q 73.396651 11.809302 73.674534 11.964544 
Q 73.952417 12.118233 74.121631 12.396116 
Q 74.290844 12.673999 74.290844 13.121096 
L 74.290844 15.764866 
Q 74.290844 16.062931 74.324998 16.202648 
Q 74.359151 16.340814 74.557861 16.340814 
Q 74.668082 16.340814 74.817115 16.291136 
L 74.817115 16.946257 
z
M 73.446328 14.313354 
Q 73.286429 14.43289 73.027175 14.487225 
Q 72.769474 14.54156 72.486933 14.577265 
Q 72.204393 14.611419 71.915643 14.656439 
Q 71.626893 14.701459 71.398687 14.800814 
Q 71.170482 14.900169 71.026107 15.084906 
Q 70.881732 15.268092 70.881732 15.584785 
Q 70.881732 15.794362 70.965562 15.938737 
Q 71.050945 16.08156 71.184453 16.1716 
Q 71.319514 16.26164 71.498042 16.302003 
Q 71.67657 16.340814 71.87528 16.340814 
Q 72.292881 16.340814 72.590945 16.227487 
Q 72.88901 16.112608 73.076853 15.938737 
Q 73.266248 15.764866 73.356288 15.561499 
Q 73.446328 15.35658 73.446328 15.178052 
L 73.446328 14.313354 
z
M 75.652005 9.871882 
L 75.652005 16.966439 
L 76.496522 16.966439 
L 76.496522 9.871882 
L 75.652005 9.871882 
z
"/>
   </g>
   <g id="text_2">
    <path d="M 30.603908 33.02156 
L 30.603908 39.321277 
L 31.547779 39.321277 
L 31.547779 33.02156 
L 33.912114 33.02156 
L 33.912114 32.226721 
L 28.239574 32.226721 
L 28.239574 33.02156 
L 30.603908 33.02156 
z
M 37.019436 36.261459 
L 34.068287 36.261459 
Q 34.088468 35.963394 34.197137 35.701035 
Q 34.307359 35.437124 34.495202 35.238415 
Q 34.684597 35.039705 34.946956 34.924826 
Q 35.210867 34.809947 35.53998 34.809947 
Q 35.856674 34.809947 36.120585 34.924826 
Q 36.384496 35.039705 36.576996 35.233757 
Q 36.771049 35.426257 36.884375 35.694826 
Q 36.999254 35.963394 37.019436 36.261459 
z
M 37.834456 37.691237 
L 36.999254 37.691237 
Q 36.890585 38.198878 36.5475 38.447265 
Q 36.204416 38.695652 35.668831 38.695652 
Q 35.25123 38.695652 34.942299 38.557487 
Q 34.63492 38.417769 34.43621 38.184906 
Q 34.2375 37.950491 34.14746 37.647769 
Q 34.058972 37.343495 34.068287 37.00662 
L 37.913629 37.00662 
Q 37.933811 36.539342 37.829799 36.022386 
Q 37.725787 35.505431 37.452561 35.069201 
Q 37.179335 34.631419 36.726029 34.348878 
Q 36.274275 34.064785 35.589658 34.064785 
Q 35.061835 34.064785 34.619396 34.263495 
Q 34.178508 34.462205 33.855605 34.820814 
Q 33.532702 35.17787 33.352621 35.66533 
Q 33.174093 36.151237 33.174093 36.738052 
Q 33.194275 37.324866 33.347964 37.82164 
Q 33.503206 38.318415 33.810585 38.675471 
Q 34.117964 39.032527 34.569718 39.231237 
Q 35.023025 39.429947 35.639335 39.429947 
Q 36.513347 39.429947 37.089295 38.993717 
Q 37.665242 38.555935 37.834456 37.691237 
z
M 39.96096 34.184322 
L 39.96096 32.644322 
L 39.116444 32.644322 
L 39.116444 34.184322 
L 38.242431 34.184322 
L 38.242431 34.929483 
L 39.116444 34.929483 
L 39.116444 38.198878 
Q 39.116444 38.555935 39.18475 38.774826 
Q 39.254609 38.993717 39.398984 39.113253 
Q 39.543359 39.231237 39.776222 39.276257 
Q 40.010637 39.321277 40.338198 39.321277 
L 40.984004 39.321277 
L 40.984004 38.576116 
L 40.595899 38.576116 
Q 40.39719 38.576116 40.272996 38.562144 
Q 40.148802 38.54662 40.078944 38.496943 
Q 40.010637 38.447265 39.985798 38.358777 
Q 39.96096 38.268737 39.96096 38.119705 
L 39.96096 34.929483 
L 40.984004 34.929483 
L 40.984004 34.184322 
L 39.96096 34.184322 
z
M 41.887511 34.184322 
L 41.887511 39.321277 
L 42.732027 39.321277 
L 42.732027 37.036116 
Q 42.732027 36.539342 42.831382 36.157447 
Q 42.930736 35.773999 43.149628 35.506983 
Q 43.368519 35.238415 43.725575 35.098697 
Q 44.084184 34.958979 44.590273 34.958979 
L 44.590273 34.064785 
Q 43.905656 34.046156 43.458559 34.344221 
Q 43.011462 34.642285 42.702531 35.26791 
L 42.682349 35.26791 
L 42.682349 34.184322 
L 41.887511 34.184322 
z
M 49.777215 39.301096 
Q 49.558324 39.429947 49.170219 39.429947 
Q 48.842659 39.429947 48.648606 39.246761 
Q 48.456106 39.063576 48.456106 38.645975 
Q 48.108364 39.063576 47.645743 39.246761 
Q 47.183122 39.429947 46.647538 39.429947 
Q 46.299796 39.429947 45.986207 39.350773 
Q 45.674171 39.2716 45.444413 39.102386 
Q 45.216207 38.933173 45.081147 38.659947 
Q 44.947638 38.386721 44.947638 38.000169 
Q 44.947638 37.562386 45.096671 37.284503 
Q 45.245703 37.00662 45.489433 36.832749 
Q 45.733163 36.658878 46.045199 36.57039 
Q 46.358788 36.48035 46.686348 36.419806 
Q 47.03409 36.349947 47.347679 36.315794 
Q 47.661267 36.28164 47.898788 36.216439 
Q 48.13786 36.151237 48.276026 36.027044 
Q 48.415743 35.90285 48.415743 35.66533 
Q 48.415743 35.387447 48.311731 35.218233 
Q 48.207719 35.049019 48.043163 34.960531 
Q 47.878606 34.870491 47.675239 34.840995 
Q 47.471872 34.809947 47.273163 34.809947 
Q 46.736026 34.809947 46.378969 35.014866 
Q 46.021913 35.218233 45.990864 35.784866 
L 45.146348 35.784866 
Q 45.16653 35.306721 45.345058 34.97916 
Q 45.525138 34.6516 45.823203 34.448233 
Q 46.121267 34.244866 46.503163 34.154826 
Q 46.885058 34.064785 47.32284 34.064785 
Q 47.670582 34.064785 48.013667 34.114463 
Q 48.356751 34.16414 48.634634 34.319382 
Q 48.912517 34.473072 49.081731 34.750955 
Q 49.250945 35.028838 49.250945 35.475935 
L 49.250945 38.119705 
Q 49.250945 38.417769 49.285098 38.557487 
Q 49.319251 38.695652 49.517961 38.695652 
Q 49.628183 38.695652 49.777215 38.645975 
L 49.777215 39.301096 
z
M 48.406429 36.668193 
Q 48.24653 36.787729 47.987276 36.842064 
Q 47.729574 36.896398 47.447034 36.932104 
Q 47.164493 36.966257 46.875743 37.011277 
Q 46.586993 37.056298 46.358788 37.155652 
Q 46.130582 37.255007 45.986207 37.439745 
Q 45.841832 37.622931 45.841832 37.939624 
Q 45.841832 38.149201 45.925663 38.293576 
Q 46.011046 38.436398 46.144554 38.526439 
Q 46.279614 38.616479 46.458142 38.656842 
Q 46.636671 38.695652 46.83538 38.695652 
Q 47.252981 38.695652 47.551046 38.582326 
Q 47.84911 38.467447 48.036953 38.293576 
Q 48.226348 38.119705 48.316388 37.916338 
Q 48.406429 37.711419 48.406429 37.53289 
L 48.406429 36.668193 
z
M 50.562428 32.226721 
L 50.562428 39.321277 
L 51.406945 39.321277 
L 51.406945 36.419806 
Q 51.406945 36.072064 51.50009 35.780209 
Q 51.594787 35.486802 51.78263 35.26791 
Q 51.972025 35.049019 52.254566 34.929483 
Q 52.538658 34.809947 52.926763 34.809947 
Q 53.41267 34.809947 53.690553 35.089382 
Q 53.969989 35.367265 53.969989 35.843858 
L 53.969989 39.321277 
L 54.814505 39.321277 
L 54.814505 35.943213 
Q 54.814505 35.525612 54.729122 35.18408 
Q 54.645291 34.840995 54.435715 34.592608 
Q 54.227691 34.344221 53.889263 34.204503 
Q 53.552388 34.064785 53.046299 34.064785 
Q 52.816541 34.064785 52.572812 34.114463 
Q 52.330634 34.16414 52.107086 34.269705 
Q 51.883537 34.373717 51.703457 34.538273 
Q 51.524928 34.701277 51.425574 34.94035 
L 51.406945 34.94035 
L 51.406945 32.226721 
L 50.562428 32.226721 
z
M 59.652464 36.261459 
L 56.701315 36.261459 
Q 56.721496 35.963394 56.830165 35.701035 
Q 56.940387 35.437124 57.12823 35.238415 
Q 57.317625 35.039705 57.579984 34.924826 
Q 57.843895 34.809947 58.173008 34.809947 
Q 58.489702 34.809947 58.753613 34.924826 
Q 59.017524 35.039705 59.210024 35.233757 
Q 59.404077 35.426257 59.517403 35.694826 
Q 59.632282 35.963394 59.652464 36.261459 
z
M 60.467484 37.691237 
L 59.632282 37.691237 
Q 59.523613 38.198878 59.180528 38.447265 
Q 58.837444 38.695652 58.301859 38.695652 
Q 57.884258 38.695652 57.575327 38.557487 
Q 57.267948 38.417769 57.069238 38.184906 
Q 56.870528 37.950491 56.780488 37.647769 
Q 56.692 37.343495 56.701315 37.00662 
L 60.546657 37.00662 
Q 60.566839 36.539342 60.462827 36.022386 
Q 60.358815 35.505431 60.085589 35.069201 
Q 59.812363 34.631419 59.359057 34.348878 
Q 58.907303 34.064785 58.222686 34.064785 
Q 57.694863 34.064785 57.252424 34.263495 
Q 56.811536 34.462205 56.488633 34.820814 
Q 56.16573 35.17787 55.985649 35.66533 
Q 55.807121 36.151237 55.807121 36.738052 
Q 55.827303 37.324866 55.980992 37.82164 
Q 56.136234 38.318415 56.443613 38.675471 
Q 56.750992 39.032527 57.202746 39.231237 
Q 57.656053 39.429947 58.272363 39.429947 
Q 59.146375 39.429947 59.722323 38.993717 
Q 60.29827 38.555935 60.467484 37.691237 
z
M 62.036669 36.797044 
Q 62.036669 36.419806 62.115843 36.062749 
Q 62.196568 35.70414 62.375097 35.426257 
Q 62.553625 35.148374 62.851689 34.97916 
Q 63.149754 34.809947 63.576669 34.809947 
Q 64.014451 34.809947 64.32183 34.974503 
Q 64.630762 35.13906 64.823262 35.407628 
Q 65.017314 35.674644 65.107355 36.028596 
Q 65.197395 36.380995 65.197395 36.758233 
Q 65.197395 37.11529 65.112012 37.463031 
Q 65.028181 37.810773 64.838786 38.083999 
Q 64.650943 38.357225 64.352879 38.526439 
Q 64.054814 38.695652 63.626347 38.695652 
Q 63.219613 38.695652 62.916891 38.537306 
Q 62.614169 38.377406 62.420117 38.108838 
Q 62.226064 37.840269 62.131367 37.498737 
Q 62.036669 37.155652 62.036669 36.797044 
z
M 66.010863 39.321277 
L 66.010863 32.226721 
L 65.166347 32.226721 
L 65.166347 34.870491 
L 65.147718 34.870491 
Q 65.008 34.642285 64.804633 34.488596 
Q 64.601266 34.333354 64.371508 34.240209 
Q 64.143302 34.145511 63.915097 34.105148 
Q 63.686891 34.064785 63.488181 34.064785 
Q 62.901367 34.064785 62.458927 34.279019 
Q 62.01804 34.493253 61.724633 34.856519 
Q 61.431226 35.218233 61.286851 35.705693 
Q 61.142476 36.1916 61.142476 36.738052 
Q 61.142476 37.284503 61.291508 37.771963 
Q 61.44054 38.25787 61.733947 38.625794 
Q 62.027355 38.993717 62.469794 39.212608 
Q 62.912234 39.429947 63.508363 39.429947 
Q 64.043947 39.429947 64.491044 39.242104 
Q 64.938141 39.052709 65.147718 38.625794 
L 65.166347 38.625794 
L 65.166347 39.321277 
L 66.010863 39.321277 
z
M 67.282603 34.184322 
L 67.282603 39.321277 
L 68.12712 39.321277 
L 68.12712 37.036116 
Q 68.12712 36.539342 68.226474 36.157447 
Q 68.325829 35.773999 68.54472 35.506983 
Q 68.763612 35.238415 69.120668 35.098697 
Q 69.479277 34.958979 69.985366 34.958979 
L 69.985366 34.064785 
Q 69.300749 34.046156 68.853652 34.344221 
Q 68.406555 34.642285 68.097624 35.26791 
L 68.077442 35.26791 
L 68.077442 34.184322 
L 67.282603 34.184322 
z
M 75.172308 39.301096 
Q 74.953417 39.429947 74.565312 39.429947 
Q 74.237751 39.429947 74.043699 39.246761 
Q 73.851199 39.063576 73.851199 38.645975 
Q 73.503457 39.063576 73.040836 39.246761 
Q 72.578215 39.429947 72.04263 39.429947 
Q 71.694889 39.429947 71.3813 39.350773 
Q 71.069264 39.2716 70.839505 39.102386 
Q 70.6113 38.933173 70.476239 38.659947 
Q 70.342731 38.386721 70.342731 38.000169 
Q 70.342731 37.562386 70.491764 37.284503 
Q 70.640796 37.00662 70.884526 36.832749 
Q 71.128255 36.658878 71.440292 36.57039 
Q 71.75388 36.48035 72.081441 36.419806 
Q 72.429183 36.349947 72.742772 36.315794 
Q 73.05636 36.28164 73.29388 36.216439 
Q 73.532953 36.151237 73.671118 36.027044 
Q 73.810836 35.90285 73.810836 35.66533 
Q 73.810836 35.387447 73.706824 35.218233 
Q 73.602812 35.049019 73.438255 34.960531 
Q 73.273699 34.870491 73.070332 34.840995 
Q 72.866965 34.809947 72.668255 34.809947 
Q 72.131118 34.809947 71.774062 35.014866 
Q 71.417005 35.218233 71.385957 35.784866 
L 70.541441 35.784866 
Q 70.561622 35.306721 70.740151 34.97916 
Q 70.920231 34.6516 71.218296 34.448233 
Q 71.51636 34.244866 71.898255 34.154826 
Q 72.280151 34.064785 72.717933 34.064785 
Q 73.065675 34.064785 73.40876 34.114463 
Q 73.751844 34.16414 74.029727 34.319382 
Q 74.30761 34.473072 74.476824 34.750955 
Q 74.646038 35.028838 74.646038 35.475935 
L 74.646038 38.119705 
Q 74.646038 38.417769 74.680191 38.557487 
Q 74.714344 38.695652 74.913054 38.695652 
Q 75.023276 38.695652 75.172308 38.645975 
L 75.172308 39.301096 
z
M 73.801522 36.668193 
Q 73.641622 36.787729 73.382368 36.842064 
Q 73.124667 36.896398 72.842126 36.932104 
Q 72.559586 36.966257 72.270836 37.011277 
Q 71.982086 37.056298 71.75388 37.155652 
Q 71.525675 37.255007 71.3813 37.439745 
Q 71.236925 37.622931 71.236925 37.939624 
Q 71.236925 38.149201 71.320755 38.293576 
Q 71.406139 38.436398 71.539647 38.526439 
Q 71.674707 38.616479 71.853235 38.656842 
Q 72.031764 38.695652 72.230473 38.695652 
Q 72.648074 38.695652 72.946139 38.582326 
Q 73.244203 38.467447 73.432046 38.293576 
Q 73.621441 38.119705 73.711481 37.916338 
Q 73.801522 37.711419 73.801522 37.53289 
L 73.801522 36.668193 
z
M 76.007199 32.226721 
L 76.007199 39.321277 
L 76.851715 39.321277 
L 76.851715 32.226721 
L 76.007199 32.226721 
z
" style="stroke: #ffffff; stroke-width: 2.980645"/>
    <path d="M 30.603908 33.02156 
L 30.603908 39.321277 
L 31.547779 39.321277 
L 31.547779 33.02156 
L 33.912114 33.02156 
L 33.912114 32.226721 
L 28.239574 32.226721 
L 28.239574 33.02156 
L 30.603908 33.02156 
z
M 37.019436 36.261459 
L 34.068287 36.261459 
Q 34.088468 35.963394 34.197137 35.701035 
Q 34.307359 35.437124 34.495202 35.238415 
Q 34.684597 35.039705 34.946956 34.924826 
Q 35.210867 34.809947 35.53998 34.809947 
Q 35.856674 34.809947 36.120585 34.924826 
Q 36.384496 35.039705 36.576996 35.233757 
Q 36.771049 35.426257 36.884375 35.694826 
Q 36.999254 35.963394 37.019436 36.261459 
z
M 37.834456 37.691237 
L 36.999254 37.691237 
Q 36.890585 38.198878 36.5475 38.447265 
Q 36.204416 38.695652 35.668831 38.695652 
Q 35.25123 38.695652 34.942299 38.557487 
Q 34.63492 38.417769 34.43621 38.184906 
Q 34.2375 37.950491 34.14746 37.647769 
Q 34.058972 37.343495 34.068287 37.00662 
L 37.913629 37.00662 
Q 37.933811 36.539342 37.829799 36.022386 
Q 37.725787 35.505431 37.452561 35.069201 
Q 37.179335 34.631419 36.726029 34.348878 
Q 36.274275 34.064785 35.589658 34.064785 
Q 35.061835 34.064785 34.619396 34.263495 
Q 34.178508 34.462205 33.855605 34.820814 
Q 33.532702 35.17787 33.352621 35.66533 
Q 33.174093 36.151237 33.174093 36.738052 
Q 33.194275 37.324866 33.347964 37.82164 
Q 33.503206 38.318415 33.810585 38.675471 
Q 34.117964 39.032527 34.569718 39.231237 
Q 35.023025 39.429947 35.639335 39.429947 
Q 36.513347 39.429947 37.089295 38.993717 
Q 37.665242 38.555935 37.834456 37.691237 
z
M 39.96096 34.184322 
L 39.96096 32.644322 
L 39.116444 32.644322 
L 39.116444 34.184322 
L 38.242431 34.184322 
L 38.242431 34.929483 
L 39.116444 34.929483 
L 39.116444 38.198878 
Q 39.116444 38.555935 39.18475 38.774826 
Q 39.254609 38.993717 39.398984 39.113253 
Q 39.543359 39.231237 39.776222 39.276257 
Q 40.010637 39.321277 40.338198 39.321277 
L 40.984004 39.321277 
L 40.984004 38.576116 
L 40.595899 38.576116 
Q 40.39719 38.576116 40.272996 38.562144 
Q 40.148802 38.54662 40.078944 38.496943 
Q 40.010637 38.447265 39.985798 38.358777 
Q 39.96096 38.268737 39.96096 38.119705 
L 39.96096 34.929483 
L 40.984004 34.929483 
L 40.984004 34.184322 
L 39.96096 34.184322 
z
M 41.887511 34.184322 
L 41.887511 39.321277 
L 42.732027 39.321277 
L 42.732027 37.036116 
Q 42.732027 36.539342 42.831382 36.157447 
Q 42.930736 35.773999 43.149628 35.506983 
Q 43.368519 35.238415 43.725575 35.098697 
Q 44.084184 34.958979 44.590273 34.958979 
L 44.590273 34.064785 
Q 43.905656 34.046156 43.458559 34.344221 
Q 43.011462 34.642285 42.702531 35.26791 
L 42.682349 35.26791 
L 42.682349 34.184322 
L 41.887511 34.184322 
z
M 49.777215 39.301096 
Q 49.558324 39.429947 49.170219 39.429947 
Q 48.842659 39.429947 48.648606 39.246761 
Q 48.456106 39.063576 48.456106 38.645975 
Q 48.108364 39.063576 47.645743 39.246761 
Q 47.183122 39.429947 46.647538 39.429947 
Q 46.299796 39.429947 45.986207 39.350773 
Q 45.674171 39.2716 45.444413 39.102386 
Q 45.216207 38.933173 45.081147 38.659947 
Q 44.947638 38.386721 44.947638 38.000169 
Q 44.947638 37.562386 45.096671 37.284503 
Q 45.245703 37.00662 45.489433 36.832749 
Q 45.733163 36.658878 46.045199 36.57039 
Q 46.358788 36.48035 46.686348 36.419806 
Q 47.03409 36.349947 47.347679 36.315794 
Q 47.661267 36.28164 47.898788 36.216439 
Q 48.13786 36.151237 48.276026 36.027044 
Q 48.415743 35.90285 48.415743 35.66533 
Q 48.415743 35.387447 48.311731 35.218233 
Q 48.207719 35.049019 48.043163 34.960531 
Q 47.878606 34.870491 47.675239 34.840995 
Q 47.471872 34.809947 47.273163 34.809947 
Q 46.736026 34.809947 46.378969 35.014866 
Q 46.021913 35.218233 45.990864 35.784866 
L 45.146348 35.784866 
Q 45.16653 35.306721 45.345058 34.97916 
Q 45.525138 34.6516 45.823203 34.448233 
Q 46.121267 34.244866 46.503163 34.154826 
Q 46.885058 34.064785 47.32284 34.064785 
Q 47.670582 34.064785 48.013667 34.114463 
Q 48.356751 34.16414 48.634634 34.319382 
Q 48.912517 34.473072 49.081731 34.750955 
Q 49.250945 35.028838 49.250945 35.475935 
L 49.250945 38.119705 
Q 49.250945 38.417769 49.285098 38.557487 
Q 49.319251 38.695652 49.517961 38.695652 
Q 49.628183 38.695652 49.777215 38.645975 
L 49.777215 39.301096 
z
M 48.406429 36.668193 
Q 48.24653 36.787729 47.987276 36.842064 
Q 47.729574 36.896398 47.447034 36.932104 
Q 47.164493 36.966257 46.875743 37.011277 
Q 46.586993 37.056298 46.358788 37.155652 
Q 46.130582 37.255007 45.986207 37.439745 
Q 45.841832 37.622931 45.841832 37.939624 
Q 45.841832 38.149201 45.925663 38.293576 
Q 46.011046 38.436398 46.144554 38.526439 
Q 46.279614 38.616479 46.458142 38.656842 
Q 46.636671 38.695652 46.83538 38.695652 
Q 47.252981 38.695652 47.551046 38.582326 
Q 47.84911 38.467447 48.036953 38.293576 
Q 48.226348 38.119705 48.316388 37.916338 
Q 48.406429 37.711419 48.406429 37.53289 
L 48.406429 36.668193 
z
M 50.562428 32.226721 
L 50.562428 39.321277 
L 51.406945 39.321277 
L 51.406945 36.419806 
Q 51.406945 36.072064 51.50009 35.780209 
Q 51.594787 35.486802 51.78263 35.26791 
Q 51.972025 35.049019 52.254566 34.929483 
Q 52.538658 34.809947 52.926763 34.809947 
Q 53.41267 34.809947 53.690553 35.089382 
Q 53.969989 35.367265 53.969989 35.843858 
L 53.969989 39.321277 
L 54.814505 39.321277 
L 54.814505 35.943213 
Q 54.814505 35.525612 54.729122 35.18408 
Q 54.645291 34.840995 54.435715 34.592608 
Q 54.227691 34.344221 53.889263 34.204503 
Q 53.552388 34.064785 53.046299 34.064785 
Q 52.816541 34.064785 52.572812 34.114463 
Q 52.330634 34.16414 52.107086 34.269705 
Q 51.883537 34.373717 51.703457 34.538273 
Q 51.524928 34.701277 51.425574 34.94035 
L 51.406945 34.94035 
L 51.406945 32.226721 
L 50.562428 32.226721 
z
M 59.652464 36.261459 
L 56.701315 36.261459 
Q 56.721496 35.963394 56.830165 35.701035 
Q 56.940387 35.437124 57.12823 35.238415 
Q 57.317625 35.039705 57.579984 34.924826 
Q 57.843895 34.809947 58.173008 34.809947 
Q 58.489702 34.809947 58.753613 34.924826 
Q 59.017524 35.039705 59.210024 35.233757 
Q 59.404077 35.426257 59.517403 35.694826 
Q 59.632282 35.963394 59.652464 36.261459 
z
M 60.467484 37.691237 
L 59.632282 37.691237 
Q 59.523613 38.198878 59.180528 38.447265 
Q 58.837444 38.695652 58.301859 38.695652 
Q 57.884258 38.695652 57.575327 38.557487 
Q 57.267948 38.417769 57.069238 38.184906 
Q 56.870528 37.950491 56.780488 37.647769 
Q 56.692 37.343495 56.701315 37.00662 
L 60.546657 37.00662 
Q 60.566839 36.539342 60.462827 36.022386 
Q 60.358815 35.505431 60.085589 35.069201 
Q 59.812363 34.631419 59.359057 34.348878 
Q 58.907303 34.064785 58.222686 34.064785 
Q 57.694863 34.064785 57.252424 34.263495 
Q 56.811536 34.462205 56.488633 34.820814 
Q 56.16573 35.17787 55.985649 35.66533 
Q 55.807121 36.151237 55.807121 36.738052 
Q 55.827303 37.324866 55.980992 37.82164 
Q 56.136234 38.318415 56.443613 38.675471 
Q 56.750992 39.032527 57.202746 39.231237 
Q 57.656053 39.429947 58.272363 39.429947 
Q 59.146375 39.429947 59.722323 38.993717 
Q 60.29827 38.555935 60.467484 37.691237 
z
M 62.036669 36.797044 
Q 62.036669 36.419806 62.115843 36.062749 
Q 62.196568 35.70414 62.375097 35.426257 
Q 62.553625 35.148374 62.851689 34.97916 
Q 63.149754 34.809947 63.576669 34.809947 
Q 64.014451 34.809947 64.32183 34.974503 
Q 64.630762 35.13906 64.823262 35.407628 
Q 65.017314 35.674644 65.107355 36.028596 
Q 65.197395 36.380995 65.197395 36.758233 
Q 65.197395 37.11529 65.112012 37.463031 
Q 65.028181 37.810773 64.838786 38.083999 
Q 64.650943 38.357225 64.352879 38.526439 
Q 64.054814 38.695652 63.626347 38.695652 
Q 63.219613 38.695652 62.916891 38.537306 
Q 62.614169 38.377406 62.420117 38.108838 
Q 62.226064 37.840269 62.131367 37.498737 
Q 62.036669 37.155652 62.036669 36.797044 
z
M 66.010863 39.321277 
L 66.010863 32.226721 
L 65.166347 32.226721 
L 65.166347 34.870491 
L 65.147718 34.870491 
Q 65.008 34.642285 64.804633 34.488596 
Q 64.601266 34.333354 64.371508 34.240209 
Q 64.143302 34.145511 63.915097 34.105148 
Q 63.686891 34.064785 63.488181 34.064785 
Q 62.901367 34.064785 62.458927 34.279019 
Q 62.01804 34.493253 61.724633 34.856519 
Q 61.431226 35.218233 61.286851 35.705693 
Q 61.142476 36.1916 61.142476 36.738052 
Q 61.142476 37.284503 61.291508 37.771963 
Q 61.44054 38.25787 61.733947 38.625794 
Q 62.027355 38.993717 62.469794 39.212608 
Q 62.912234 39.429947 63.508363 39.429947 
Q 64.043947 39.429947 64.491044 39.242104 
Q 64.938141 39.052709 65.147718 38.625794 
L 65.166347 38.625794 
L 65.166347 39.321277 
L 66.010863 39.321277 
z
M 67.282603 34.184322 
L 67.282603 39.321277 
L 68.12712 39.321277 
L 68.12712 37.036116 
Q 68.12712 36.539342 68.226474 36.157447 
Q 68.325829 35.773999 68.54472 35.506983 
Q 68.763612 35.238415 69.120668 35.098697 
Q 69.479277 34.958979 69.985366 34.958979 
L 69.985366 34.064785 
Q 69.300749 34.046156 68.853652 34.344221 
Q 68.406555 34.642285 68.097624 35.26791 
L 68.077442 35.26791 
L 68.077442 34.184322 
L 67.282603 34.184322 
z
M 75.172308 39.301096 
Q 74.953417 39.429947 74.565312 39.429947 
Q 74.237751 39.429947 74.043699 39.246761 
Q 73.851199 39.063576 73.851199 38.645975 
Q 73.503457 39.063576 73.040836 39.246761 
Q 72.578215 39.429947 72.04263 39.429947 
Q 71.694889 39.429947 71.3813 39.350773 
Q 71.069264 39.2716 70.839505 39.102386 
Q 70.6113 38.933173 70.476239 38.659947 
Q 70.342731 38.386721 70.342731 38.000169 
Q 70.342731 37.562386 70.491764 37.284503 
Q 70.640796 37.00662 70.884526 36.832749 
Q 71.128255 36.658878 71.440292 36.57039 
Q 71.75388 36.48035 72.081441 36.419806 
Q 72.429183 36.349947 72.742772 36.315794 
Q 73.05636 36.28164 73.29388 36.216439 
Q 73.532953 36.151237 73.671118 36.027044 
Q 73.810836 35.90285 73.810836 35.66533 
Q 73.810836 35.387447 73.706824 35.218233 
Q 73.602812 35.049019 73.438255 34.960531 
Q 73.273699 34.870491 73.070332 34.840995 
Q 72.866965 34.809947 72.668255 34.809947 
Q 72.131118 34.809947 71.774062 35.014866 
Q 71.417005 35.218233 71.385957 35.784866 
L 70.541441 35.784866 
Q 70.561622 35.306721 70.740151 34.97916 
Q 70.920231 34.6516 71.218296 34.448233 
Q 71.51636 34.244866 71.898255 34.154826 
Q 72.280151 34.064785 72.717933 34.064785 
Q 73.065675 34.064785 73.40876 34.114463 
Q 73.751844 34.16414 74.029727 34.319382 
Q 74.30761 34.473072 74.476824 34.750955 
Q 74.646038 35.028838 74.646038 35.475935 
L 74.646038 38.119705 
Q 74.646038 38.417769 74.680191 38.557487 
Q 74.714344 38.695652 74.913054 38.695652 
Q 75.023276 38.695652 75.172308 38.645975 
L 75.172308 39.301096 
z
M 73.801522 36.668193 
Q 73.641622 36.787729 73.382368 36.842064 
Q 73.124667 36.896398 72.842126 36.932104 
Q 72.559586 36.966257 72.270836 37.011277 
Q 71.982086 37.056298 71.75388 37.155652 
Q 71.525675 37.255007 71.3813 37.439745 
Q 71.236925 37.622931 71.236925 37.939624 
Q 71.236925 38.149201 71.320755 38.293576 
Q 71.406139 38.436398 71.539647 38.526439 
Q 71.674707 38.616479 71.853235 38.656842 
Q 72.031764 38.695652 72.230473 38.695652 
Q 72.648074 38.695652 72.946139 38.582326 
Q 73.244203 38.467447 73.432046 38.293576 
Q 73.621441 38.119705 73.711481 37.916338 
Q 73.801522 37.711419 73.801522 37.53289 
L 73.801522 36.668193 
z
M 76.007199 32.226721 
L 76.007199 39.321277 
L 76.851715 39.321277 
L 76.851715 32.226721 
L 76.007199 32.226721 
z
"/>
   </g>
   <g id="text_3">
    <path d="M 33.981973 56.717689 
L 34.925844 56.717689 
Q 34.84667 56.152608 34.587416 55.721035 
Q 34.329715 55.28791 33.94161 55.000713 
Q 33.555057 54.711963 33.058283 54.562931 
Q 32.561509 54.413898 32.00419 54.413898 
Q 31.190723 54.413898 30.558888 54.707306 
Q 29.928606 54.99916 29.506348 55.506802 
Q 29.08409 56.01289 28.865199 56.694402 
Q 28.646307 57.374362 28.646307 58.149019 
Q 28.646307 58.923677 28.849674 59.600531 
Q 29.054594 60.275834 29.461328 60.772608 
Q 29.868061 61.269382 30.484372 61.551923 
Q 31.100682 61.834463 31.925017 61.834463 
Q 33.286489 61.834463 34.070461 61.089302 
Q 34.855985 60.34414 34.995703 59.00285 
L 34.051832 59.00285 
Q 34.022336 59.440632 33.873303 59.81787 
Q 33.724271 60.195108 33.46036 60.468334 
Q 33.196449 60.74156 32.833182 60.896802 
Q 32.471469 61.050491 32.00419 61.050491 
Q 31.369251 61.050491 30.911287 60.812971 
Q 30.454876 60.573898 30.161469 60.171822 
Q 29.868061 59.768193 29.728344 59.227951 
Q 29.590178 58.686156 29.590178 58.07916 
Q 29.590178 57.523394 29.728344 57.006439 
Q 29.868061 56.489483 30.161469 56.087406 
Q 30.454876 55.68533 30.90663 55.44781 
Q 31.358384 55.208737 31.994876 55.208737 
Q 32.740037 55.208737 33.281832 55.585975 
Q 33.823626 55.963213 33.981973 56.717689 
z
M 40.281378 61.676116 
L 40.281378 56.53916 
L 39.436862 56.53916 
L 39.436862 59.440632 
Q 39.436862 59.788374 39.342164 60.081781 
Q 39.247467 60.375189 39.058072 60.59408 
Q 38.870229 60.811419 38.586136 60.930955 
Q 38.303596 61.050491 37.917043 61.050491 
Q 37.429584 61.050491 37.151701 60.772608 
Q 36.873818 60.493173 36.873818 60.01658 
L 36.873818 56.53916 
L 36.029302 56.53916 
L 36.029302 59.917225 
Q 36.029302 60.334826 36.113132 60.67791 
Q 36.196963 61.020995 36.404987 61.269382 
Q 36.614564 61.517769 36.951439 61.651277 
Q 37.289866 61.784785 37.797507 61.784785 
Q 38.36414 61.784785 38.780189 61.561237 
Q 39.197789 61.337689 39.466358 60.861096 
L 39.486539 60.861096 
L 39.486539 61.676116 
L 40.281378 61.676116 
z
M 41.582926 54.58156 
L 41.582926 61.676116 
L 42.427442 61.676116 
L 42.427442 60.989947 
L 42.447623 60.989947 
Q 42.585789 61.219705 42.789155 61.373394 
Q 42.994075 61.527084 43.22228 61.617124 
Q 43.450486 61.705612 43.683349 61.744423 
Q 43.917764 61.784785 44.105607 61.784785 
Q 44.692422 61.784785 45.134861 61.576761 
Q 45.577301 61.368737 45.869155 61.005471 
Q 46.162563 60.642205 46.306938 60.156298 
Q 46.451313 59.668838 46.451313 59.122386 
Q 46.451313 58.575935 46.30228 58.090027 
Q 46.153248 57.602568 45.859841 57.229987 
Q 45.566434 56.857406 45.123994 56.638515 
Q 44.683107 56.419624 44.086978 56.419624 
Q 43.549841 56.419624 43.102744 56.613677 
Q 42.655647 56.807729 42.447623 57.234644 
L 42.427442 57.234644 
L 42.427442 54.58156 
L 41.582926 54.58156 
z
M 45.557119 59.063394 
Q 45.557119 59.440632 45.476393 59.799241 
Q 45.39722 60.156298 45.218692 60.434181 
Q 45.040164 60.712064 44.746756 60.881277 
Q 44.453349 61.050491 44.017119 61.050491 
Q 43.579337 61.050491 43.270405 60.887487 
Q 42.963026 60.722931 42.768974 60.454362 
Q 42.576474 60.185794 42.486434 59.833394 
Q 42.397946 59.480995 42.397946 59.102205 
Q 42.397946 58.745148 42.481776 58.397406 
Q 42.565607 58.049665 42.755002 57.776439 
Q 42.944397 57.503213 43.242462 57.333999 
Q 43.540526 57.164785 43.967442 57.164785 
Q 44.374176 57.164785 44.676897 57.324685 
Q 44.981172 57.483031 45.173672 57.7516 
Q 45.367724 58.020169 45.462422 58.363253 
Q 45.557119 58.704785 45.557119 59.063394 
z
M 48.059928 59.113072 
Q 48.059928 58.645794 48.184122 58.28408 
Q 48.308316 57.920814 48.527207 57.672427 
Q 48.746098 57.42404 49.039505 57.295189 
Q 49.332912 57.164785 49.660473 57.164785 
Q 49.988033 57.164785 50.281441 57.295189 
Q 50.574848 57.42404 50.792187 57.672427 
Q 51.011078 57.920814 51.135271 58.28408 
Q 51.259465 58.645794 51.259465 59.113072 
Q 51.259465 59.58035 51.135271 59.943616 
Q 51.011078 60.30533 50.792187 60.54906 
Q 50.574848 60.791237 50.281441 60.92164 
Q 49.988033 61.050491 49.660473 61.050491 
Q 49.332912 61.050491 49.039505 60.92164 
Q 48.746098 60.791237 48.527207 60.54906 
Q 48.308316 60.30533 48.184122 59.943616 
Q 48.059928 59.58035 48.059928 59.113072 
z
M 47.165735 59.113072 
Q 47.165735 59.679705 47.324082 60.167165 
Q 47.483981 60.653072 47.802227 61.016338 
Q 48.120473 61.378052 48.586199 61.581419 
Q 49.053477 61.784785 49.660473 61.784785 
Q 50.276783 61.784785 50.737852 61.581419 
Q 51.200473 61.378052 51.517166 61.016338 
Q 51.835412 60.653072 51.993759 60.167165 
Q 52.153658 59.679705 52.153658 59.113072 
Q 52.153658 58.546439 51.993759 58.054322 
Q 51.835412 57.562205 51.517166 57.200491 
Q 51.200473 56.837225 50.737852 56.629201 
Q 50.276783 56.419624 49.660473 56.419624 
Q 49.053477 56.419624 48.586199 56.629201 
Q 48.120473 56.837225 47.802227 57.200491 
Q 47.483981 57.562205 47.324082 58.054322 
Q 47.165735 58.546439 47.165735 59.113072 
z
M 56.634871 58.189382 
L 57.508884 58.189382 
Q 57.459206 57.731419 57.269811 57.399201 
Q 57.081968 57.065431 56.788561 56.848092 
Q 56.495154 56.629201 56.113259 56.525189 
Q 55.731363 56.419624 55.293581 56.419624 
Q 54.688138 56.419624 54.230174 56.633858 
Q 53.773763 56.848092 53.469488 57.220673 
Q 53.166767 57.593253 53.017734 58.094685 
Q 52.868702 58.596116 52.868702 59.172064 
Q 52.868702 59.748011 53.022392 60.230814 
Q 53.177634 60.712064 53.480355 61.059806 
Q 53.783077 61.407548 54.234831 61.596943 
Q 54.688138 61.784785 55.2734 61.784785 
Q 56.257634 61.784785 56.828924 61.269382 
Q 57.400214 60.752427 57.538379 59.797689 
L 56.675234 59.797689 
Q 56.594509 60.393818 56.242109 60.722931 
Q 55.88971 61.050491 55.264085 61.050491 
Q 54.866666 61.050491 54.577916 60.892144 
Q 54.290718 60.732245 54.110638 60.469886 
Q 53.932109 60.205975 53.846726 59.8691 
Q 53.762896 59.530673 53.762896 59.172064 
Q 53.762896 58.785511 53.842069 58.422245 
Q 53.922795 58.058979 54.10598 57.781096 
Q 54.290718 57.503213 54.598097 57.333999 
Q 54.905476 57.164785 55.36344 57.164785 
Q 55.899025 57.164785 56.217271 57.433354 
Q 56.535517 57.701923 56.634871 58.189382 
z
M 59.655569 56.53916 
L 59.655569 54.99916 
L 58.811053 54.99916 
L 58.811053 56.53916 
L 57.93704 56.53916 
L 57.93704 57.284322 
L 58.811053 57.284322 
L 58.811053 60.553717 
Q 58.811053 60.910773 58.879359 61.129665 
Q 58.949218 61.348556 59.093593 61.468092 
Q 59.237968 61.586076 59.470831 61.631096 
Q 59.705246 61.676116 60.032807 61.676116 
L 60.678613 61.676116 
L 60.678613 60.930955 
L 60.290508 60.930955 
Q 60.091799 60.930955 59.967605 60.916983 
Q 59.843411 60.901459 59.773553 60.851781 
Q 59.705246 60.802104 59.680407 60.713616 
Q 59.655569 60.623576 59.655569 60.474544 
L 59.655569 57.284322 
L 60.678613 57.284322 
L 60.678613 56.53916 
L 59.655569 56.53916 
z
M 66.163309 61.655935 
Q 65.944418 61.784785 65.556313 61.784785 
Q 65.228753 61.784785 65.0347 61.6016 
Q 64.8422 61.418415 64.8422 61.000814 
Q 64.494458 61.418415 64.031837 61.6016 
Q 63.569216 61.784785 63.033632 61.784785 
Q 62.68589 61.784785 62.372301 61.705612 
Q 62.060265 61.626439 61.830507 61.457225 
Q 61.602301 61.288011 61.467241 61.014785 
Q 61.333732 60.74156 61.333732 60.355007 
Q 61.333732 59.917225 61.482765 59.639342 
Q 61.631797 59.361459 61.875527 59.187588 
Q 62.119257 59.013717 62.431293 58.925229 
Q 62.744882 58.835189 63.072442 58.774644 
Q 63.420184 58.704785 63.733773 58.670632 
Q 64.047362 58.636479 64.284882 58.571277 
Q 64.523954 58.506076 64.66212 58.381882 
Q 64.801837 58.257689 64.801837 58.020169 
Q 64.801837 57.742285 64.697825 57.573072 
Q 64.593813 57.403858 64.429257 57.31537 
Q 64.2647 57.22533 64.061333 57.195834 
Q 63.857966 57.164785 63.659257 57.164785 
Q 63.12212 57.164785 62.765063 57.369705 
Q 62.408007 57.573072 62.376958 58.139705 
L 61.532442 58.139705 
Q 61.552624 57.66156 61.731152 57.333999 
Q 61.911232 57.006439 62.209297 56.803072 
Q 62.507362 56.599705 62.889257 56.509665 
Q 63.271152 56.419624 63.708934 56.419624 
Q 64.056676 56.419624 64.399761 56.469302 
Q 64.742845 56.518979 65.020728 56.674221 
Q 65.298612 56.82791 65.467825 57.105794 
Q 65.637039 57.383677 65.637039 57.830773 
L 65.637039 60.474544 
Q 65.637039 60.772608 65.671192 60.912326 
Q 65.705345 61.050491 65.904055 61.050491 
Q 66.014277 61.050491 66.163309 61.000814 
L 66.163309 61.655935 
z
M 64.792523 59.023031 
Q 64.632624 59.142568 64.37337 59.196902 
Q 64.115668 59.251237 63.833128 59.286943 
Q 63.550587 59.321096 63.261837 59.366116 
Q 62.973087 59.411136 62.744882 59.510491 
Q 62.516676 59.609846 62.372301 59.794584 
Q 62.227926 59.977769 62.227926 60.294463 
Q 62.227926 60.50404 62.311757 60.648415 
Q 62.39714 60.791237 62.530648 60.881277 
Q 62.665708 60.971318 62.844237 61.011681 
Q 63.022765 61.050491 63.221474 61.050491 
Q 63.639075 61.050491 63.93714 60.937165 
Q 64.235204 60.822285 64.423047 60.648415 
Q 64.612442 60.474544 64.702482 60.271177 
Q 64.792523 60.066257 64.792523 59.887729 
L 64.792523 59.023031 
z
M 66.948523 54.58156 
L 66.948523 61.676116 
L 67.793039 61.676116 
L 67.793039 58.774644 
Q 67.793039 58.426902 67.886184 58.135048 
Q 67.980881 57.84164 68.168724 57.622749 
Q 68.358119 57.403858 68.64066 57.284322 
Q 68.924752 57.164785 69.312857 57.164785 
Q 69.798764 57.164785 70.076648 57.444221 
Q 70.356083 57.722104 70.356083 58.198697 
L 70.356083 61.676116 
L 71.200599 61.676116 
L 71.200599 58.298052 
Q 71.200599 57.880451 71.115216 57.538919 
Q 71.031385 57.195834 70.821809 56.947447 
Q 70.613785 56.69906 70.275357 56.559342 
Q 69.938482 56.419624 69.432393 56.419624 
Q 69.202635 56.419624 68.958906 56.469302 
Q 68.716728 56.518979 68.49318 56.624544 
Q 68.269631 56.728556 68.089551 56.893112 
Q 67.911023 57.056116 67.811668 57.295189 
L 67.793039 57.295189 
L 67.793039 54.58156 
L 66.948523 54.58156 
z
M 76.038558 58.616298 
L 73.087409 58.616298 
Q 73.10759 58.318233 73.21626 58.055874 
Q 73.326481 57.791963 73.514324 57.593253 
Q 73.703719 57.394544 73.966078 57.279665 
Q 74.229989 57.164785 74.559102 57.164785 
Q 74.875796 57.164785 75.139707 57.279665 
Q 75.403618 57.394544 75.596118 57.588596 
Q 75.790171 57.781096 75.903497 58.049665 
Q 76.018376 58.318233 76.038558 58.616298 
z
M 76.853578 60.046076 
L 76.018376 60.046076 
Q 75.909707 60.553717 75.566622 60.802104 
Q 75.223538 61.050491 74.687953 61.050491 
Q 74.270352 61.050491 73.961421 60.912326 
Q 73.654042 60.772608 73.455332 60.539745 
Q 73.256622 60.30533 73.166582 60.002608 
Q 73.078094 59.698334 73.087409 59.361459 
L 76.932751 59.361459 
Q 76.952933 58.894181 76.848921 58.377225 
Q 76.744909 57.860269 76.471683 57.42404 
Q 76.198457 56.986257 75.745151 56.703717 
Q 75.293397 56.419624 74.60878 56.419624 
Q 74.080957 56.419624 73.638518 56.618334 
Q 73.19763 56.817044 72.874727 57.175652 
Q 72.551824 57.532709 72.371743 58.020169 
Q 72.193215 58.506076 72.193215 59.09289 
Q 72.213397 59.679705 72.367086 60.176479 
Q 72.522328 60.673253 72.829707 61.03031 
Q 73.137086 61.387366 73.58884 61.586076 
Q 74.042147 61.784785 74.658457 61.784785 
Q 75.532469 61.784785 76.108417 61.348556 
Q 76.684364 60.910773 76.853578 60.046076 
z
M 78.422763 59.151882 
Q 78.422763 58.774644 78.501937 58.417588 
Q 78.582662 58.058979 78.761191 57.781096 
Q 78.939719 57.503213 79.237783 57.333999 
Q 79.535848 57.164785 79.962763 57.164785 
Q 80.400545 57.164785 80.707925 57.329342 
Q 81.016856 57.493898 81.209356 57.762467 
Q 81.403408 58.029483 81.493449 58.383435 
Q 81.583489 58.735834 81.583489 59.113072 
Q 81.583489 59.470128 81.498106 59.81787 
Q 81.414275 60.165612 81.22488 60.438838 
Q 81.037037 60.712064 80.738973 60.881277 
Q 80.440908 61.050491 80.012441 61.050491 
Q 79.605707 61.050491 79.302985 60.892144 
Q 79.000263 60.732245 78.806211 60.463677 
Q 78.612158 60.195108 78.517461 59.853576 
Q 78.422763 59.510491 78.422763 59.151882 
z
M 82.396957 61.676116 
L 82.396957 54.58156 
L 81.552441 54.58156 
L 81.552441 57.22533 
L 81.533812 57.22533 
Q 81.394094 56.997124 81.190727 56.843435 
Q 80.98736 56.688193 80.757602 56.595048 
Q 80.529396 56.50035 80.301191 56.459987 
Q 80.072985 56.419624 79.874275 56.419624 
Q 79.287461 56.419624 78.845021 56.633858 
Q 78.404134 56.848092 78.110727 57.211358 
Q 77.81732 57.573072 77.672945 58.060531 
Q 77.52857 58.546439 77.52857 59.09289 
Q 77.52857 59.639342 77.677602 60.126802 
Q 77.826634 60.612709 78.120041 60.980632 
Q 78.413449 61.348556 78.855888 61.567447 
Q 79.298328 61.784785 79.894457 61.784785 
Q 80.430041 61.784785 80.877138 61.596943 
Q 81.324235 61.407548 81.533812 60.980632 
L 81.552441 60.980632 
L 81.552441 61.676116 
L 82.396957 61.676116 
z
M 83.668698 56.53916 
L 83.668698 61.676116 
L 84.513214 61.676116 
L 84.513214 59.390955 
Q 84.513214 58.894181 84.612568 58.512285 
Q 84.711923 58.128838 84.930814 57.861822 
Q 85.149706 57.593253 85.506762 57.453535 
Q 85.865371 57.313818 86.37146 57.313818 
L 86.37146 56.419624 
Q 85.686843 56.400995 85.239746 56.69906 
Q 84.792649 56.997124 84.483718 57.622749 
L 84.463536 57.622749 
L 84.463536 56.53916 
L 83.668698 56.53916 
z
M 91.558402 61.655935 
Q 91.339511 61.784785 90.951406 61.784785 
Q 90.623845 61.784785 90.429793 61.6016 
Q 90.237293 61.418415 90.237293 61.000814 
Q 89.889551 61.418415 89.42693 61.6016 
Q 88.964309 61.784785 88.428725 61.784785 
Q 88.080983 61.784785 87.767394 61.705612 
Q 87.455358 61.626439 87.2256 61.457225 
Q 86.997394 61.288011 86.862333 61.014785 
Q 86.728825 60.74156 86.728825 60.355007 
Q 86.728825 59.917225 86.877858 59.639342 
Q 87.02689 59.361459 87.27062 59.187588 
Q 87.51435 59.013717 87.826386 58.925229 
Q 88.139975 58.835189 88.467535 58.774644 
Q 88.815277 58.704785 89.128866 58.670632 
Q 89.442454 58.636479 89.679975 58.571277 
Q 89.919047 58.506076 90.057212 58.381882 
Q 90.19693 58.257689 90.19693 58.020169 
Q 90.19693 57.742285 90.092918 57.573072 
Q 89.988906 57.403858 89.82435 57.31537 
Q 89.659793 57.22533 89.456426 57.195834 
Q 89.253059 57.164785 89.05435 57.164785 
Q 88.517212 57.164785 88.160156 57.369705 
Q 87.8031 57.573072 87.772051 58.139705 
L 86.927535 58.139705 
Q 86.947716 57.66156 87.126245 57.333999 
Q 87.306325 57.006439 87.60439 56.803072 
Q 87.902454 56.599705 88.28435 56.509665 
Q 88.666245 56.419624 89.104027 56.419624 
Q 89.451769 56.419624 89.794854 56.469302 
Q 90.137938 56.518979 90.415821 56.674221 
Q 90.693704 56.82791 90.862918 57.105794 
Q 91.032132 57.383677 91.032132 57.830773 
L 91.032132 60.474544 
Q 91.032132 60.772608 91.066285 60.912326 
Q 91.100438 61.050491 91.299148 61.050491 
Q 91.40937 61.050491 91.558402 61.000814 
L 91.558402 61.655935 
z
M 90.187616 59.023031 
Q 90.027716 59.142568 89.768462 59.196902 
Q 89.510761 59.251237 89.22822 59.286943 
Q 88.94568 59.321096 88.65693 59.366116 
Q 88.36818 59.411136 88.139975 59.510491 
Q 87.911769 59.609846 87.767394 59.794584 
Q 87.623019 59.977769 87.623019 60.294463 
Q 87.623019 60.50404 87.70685 60.648415 
Q 87.792233 60.791237 87.925741 60.881277 
Q 88.060801 60.971318 88.239329 61.011681 
Q 88.417858 61.050491 88.616567 61.050491 
Q 89.034168 61.050491 89.332233 60.937165 
Q 89.630297 60.822285 89.81814 60.648415 
Q 90.007535 60.474544 90.097575 60.271177 
Q 90.187616 60.066257 90.187616 59.887729 
L 90.187616 59.023031 
z
M 92.393293 54.58156 
L 92.393293 61.676116 
L 93.237809 61.676116 
L 93.237809 54.58156 
L 92.393293 54.58156 
z
" style="stroke: #ffffff; stroke-width: 2.980645"/>
    <path d="M 33.981973 56.717689 
L 34.925844 56.717689 
Q 34.84667 56.152608 34.587416 55.721035 
Q 34.329715 55.28791 33.94161 55.000713 
Q 33.555057 54.711963 33.058283 54.562931 
Q 32.561509 54.413898 32.00419 54.413898 
Q 31.190723 54.413898 30.558888 54.707306 
Q 29.928606 54.99916 29.506348 55.506802 
Q 29.08409 56.01289 28.865199 56.694402 
Q 28.646307 57.374362 28.646307 58.149019 
Q 28.646307 58.923677 28.849674 59.600531 
Q 29.054594 60.275834 29.461328 60.772608 
Q 29.868061 61.269382 30.484372 61.551923 
Q 31.100682 61.834463 31.925017 61.834463 
Q 33.286489 61.834463 34.070461 61.089302 
Q 34.855985 60.34414 34.995703 59.00285 
L 34.051832 59.00285 
Q 34.022336 59.440632 33.873303 59.81787 
Q 33.724271 60.195108 33.46036 60.468334 
Q 33.196449 60.74156 32.833182 60.896802 
Q 32.471469 61.050491 32.00419 61.050491 
Q 31.369251 61.050491 30.911287 60.812971 
Q 30.454876 60.573898 30.161469 60.171822 
Q 29.868061 59.768193 29.728344 59.227951 
Q 29.590178 58.686156 29.590178 58.07916 
Q 29.590178 57.523394 29.728344 57.006439 
Q 29.868061 56.489483 30.161469 56.087406 
Q 30.454876 55.68533 30.90663 55.44781 
Q 31.358384 55.208737 31.994876 55.208737 
Q 32.740037 55.208737 33.281832 55.585975 
Q 33.823626 55.963213 33.981973 56.717689 
z
M 40.281378 61.676116 
L 40.281378 56.53916 
L 39.436862 56.53916 
L 39.436862 59.440632 
Q 39.436862 59.788374 39.342164 60.081781 
Q 39.247467 60.375189 39.058072 60.59408 
Q 38.870229 60.811419 38.586136 60.930955 
Q 38.303596 61.050491 37.917043 61.050491 
Q 37.429584 61.050491 37.151701 60.772608 
Q 36.873818 60.493173 36.873818 60.01658 
L 36.873818 56.53916 
L 36.029302 56.53916 
L 36.029302 59.917225 
Q 36.029302 60.334826 36.113132 60.67791 
Q 36.196963 61.020995 36.404987 61.269382 
Q 36.614564 61.517769 36.951439 61.651277 
Q 37.289866 61.784785 37.797507 61.784785 
Q 38.36414 61.784785 38.780189 61.561237 
Q 39.197789 61.337689 39.466358 60.861096 
L 39.486539 60.861096 
L 39.486539 61.676116 
L 40.281378 61.676116 
z
M 41.582926 54.58156 
L 41.582926 61.676116 
L 42.427442 61.676116 
L 42.427442 60.989947 
L 42.447623 60.989947 
Q 42.585789 61.219705 42.789155 61.373394 
Q 42.994075 61.527084 43.22228 61.617124 
Q 43.450486 61.705612 43.683349 61.744423 
Q 43.917764 61.784785 44.105607 61.784785 
Q 44.692422 61.784785 45.134861 61.576761 
Q 45.577301 61.368737 45.869155 61.005471 
Q 46.162563 60.642205 46.306938 60.156298 
Q 46.451313 59.668838 46.451313 59.122386 
Q 46.451313 58.575935 46.30228 58.090027 
Q 46.153248 57.602568 45.859841 57.229987 
Q 45.566434 56.857406 45.123994 56.638515 
Q 44.683107 56.419624 44.086978 56.419624 
Q 43.549841 56.419624 43.102744 56.613677 
Q 42.655647 56.807729 42.447623 57.234644 
L 42.427442 57.234644 
L 42.427442 54.58156 
L 41.582926 54.58156 
z
M 45.557119 59.063394 
Q 45.557119 59.440632 45.476393 59.799241 
Q 45.39722 60.156298 45.218692 60.434181 
Q 45.040164 60.712064 44.746756 60.881277 
Q 44.453349 61.050491 44.017119 61.050491 
Q 43.579337 61.050491 43.270405 60.887487 
Q 42.963026 60.722931 42.768974 60.454362 
Q 42.576474 60.185794 42.486434 59.833394 
Q 42.397946 59.480995 42.397946 59.102205 
Q 42.397946 58.745148 42.481776 58.397406 
Q 42.565607 58.049665 42.755002 57.776439 
Q 42.944397 57.503213 43.242462 57.333999 
Q 43.540526 57.164785 43.967442 57.164785 
Q 44.374176 57.164785 44.676897 57.324685 
Q 44.981172 57.483031 45.173672 57.7516 
Q 45.367724 58.020169 45.462422 58.363253 
Q 45.557119 58.704785 45.557119 59.063394 
z
M 48.059928 59.113072 
Q 48.059928 58.645794 48.184122 58.28408 
Q 48.308316 57.920814 48.527207 57.672427 
Q 48.746098 57.42404 49.039505 57.295189 
Q 49.332912 57.164785 49.660473 57.164785 
Q 49.988033 57.164785 50.281441 57.295189 
Q 50.574848 57.42404 50.792187 57.672427 
Q 51.011078 57.920814 51.135271 58.28408 
Q 51.259465 58.645794 51.259465 59.113072 
Q 51.259465 59.58035 51.135271 59.943616 
Q 51.011078 60.30533 50.792187 60.54906 
Q 50.574848 60.791237 50.281441 60.92164 
Q 49.988033 61.050491 49.660473 61.050491 
Q 49.332912 61.050491 49.039505 60.92164 
Q 48.746098 60.791237 48.527207 60.54906 
Q 48.308316 60.30533 48.184122 59.943616 
Q 48.059928 59.58035 48.059928 59.113072 
z
M 47.165735 59.113072 
Q 47.165735 59.679705 47.324082 60.167165 
Q 47.483981 60.653072 47.802227 61.016338 
Q 48.120473 61.378052 48.586199 61.581419 
Q 49.053477 61.784785 49.660473 61.784785 
Q 50.276783 61.784785 50.737852 61.581419 
Q 51.200473 61.378052 51.517166 61.016338 
Q 51.835412 60.653072 51.993759 60.167165 
Q 52.153658 59.679705 52.153658 59.113072 
Q 52.153658 58.546439 51.993759 58.054322 
Q 51.835412 57.562205 51.517166 57.200491 
Q 51.200473 56.837225 50.737852 56.629201 
Q 50.276783 56.419624 49.660473 56.419624 
Q 49.053477 56.419624 48.586199 56.629201 
Q 48.120473 56.837225 47.802227 57.200491 
Q 47.483981 57.562205 47.324082 58.054322 
Q 47.165735 58.546439 47.165735 59.113072 
z
M 56.634871 58.189382 
L 57.508884 58.189382 
Q 57.459206 57.731419 57.269811 57.399201 
Q 57.081968 57.065431 56.788561 56.848092 
Q 56.495154 56.629201 56.113259 56.525189 
Q 55.731363 56.419624 55.293581 56.419624 
Q 54.688138 56.419624 54.230174 56.633858 
Q 53.773763 56.848092 53.469488 57.220673 
Q 53.166767 57.593253 53.017734 58.094685 
Q 52.868702 58.596116 52.868702 59.172064 
Q 52.868702 59.748011 53.022392 60.230814 
Q 53.177634 60.712064 53.480355 61.059806 
Q 53.783077 61.407548 54.234831 61.596943 
Q 54.688138 61.784785 55.2734 61.784785 
Q 56.257634 61.784785 56.828924 61.269382 
Q 57.400214 60.752427 57.538379 59.797689 
L 56.675234 59.797689 
Q 56.594509 60.393818 56.242109 60.722931 
Q 55.88971 61.050491 55.264085 61.050491 
Q 54.866666 61.050491 54.577916 60.892144 
Q 54.290718 60.732245 54.110638 60.469886 
Q 53.932109 60.205975 53.846726 59.8691 
Q 53.762896 59.530673 53.762896 59.172064 
Q 53.762896 58.785511 53.842069 58.422245 
Q 53.922795 58.058979 54.10598 57.781096 
Q 54.290718 57.503213 54.598097 57.333999 
Q 54.905476 57.164785 55.36344 57.164785 
Q 55.899025 57.164785 56.217271 57.433354 
Q 56.535517 57.701923 56.634871 58.189382 
z
M 59.655569 56.53916 
L 59.655569 54.99916 
L 58.811053 54.99916 
L 58.811053 56.53916 
L 57.93704 56.53916 
L 57.93704 57.284322 
L 58.811053 57.284322 
L 58.811053 60.553717 
Q 58.811053 60.910773 58.879359 61.129665 
Q 58.949218 61.348556 59.093593 61.468092 
Q 59.237968 61.586076 59.470831 61.631096 
Q 59.705246 61.676116 60.032807 61.676116 
L 60.678613 61.676116 
L 60.678613 60.930955 
L 60.290508 60.930955 
Q 60.091799 60.930955 59.967605 60.916983 
Q 59.843411 60.901459 59.773553 60.851781 
Q 59.705246 60.802104 59.680407 60.713616 
Q 59.655569 60.623576 59.655569 60.474544 
L 59.655569 57.284322 
L 60.678613 57.284322 
L 60.678613 56.53916 
L 59.655569 56.53916 
z
M 66.163309 61.655935 
Q 65.944418 61.784785 65.556313 61.784785 
Q 65.228753 61.784785 65.0347 61.6016 
Q 64.8422 61.418415 64.8422 61.000814 
Q 64.494458 61.418415 64.031837 61.6016 
Q 63.569216 61.784785 63.033632 61.784785 
Q 62.68589 61.784785 62.372301 61.705612 
Q 62.060265 61.626439 61.830507 61.457225 
Q 61.602301 61.288011 61.467241 61.014785 
Q 61.333732 60.74156 61.333732 60.355007 
Q 61.333732 59.917225 61.482765 59.639342 
Q 61.631797 59.361459 61.875527 59.187588 
Q 62.119257 59.013717 62.431293 58.925229 
Q 62.744882 58.835189 63.072442 58.774644 
Q 63.420184 58.704785 63.733773 58.670632 
Q 64.047362 58.636479 64.284882 58.571277 
Q 64.523954 58.506076 64.66212 58.381882 
Q 64.801837 58.257689 64.801837 58.020169 
Q 64.801837 57.742285 64.697825 57.573072 
Q 64.593813 57.403858 64.429257 57.31537 
Q 64.2647 57.22533 64.061333 57.195834 
Q 63.857966 57.164785 63.659257 57.164785 
Q 63.12212 57.164785 62.765063 57.369705 
Q 62.408007 57.573072 62.376958 58.139705 
L 61.532442 58.139705 
Q 61.552624 57.66156 61.731152 57.333999 
Q 61.911232 57.006439 62.209297 56.803072 
Q 62.507362 56.599705 62.889257 56.509665 
Q 63.271152 56.419624 63.708934 56.419624 
Q 64.056676 56.419624 64.399761 56.469302 
Q 64.742845 56.518979 65.020728 56.674221 
Q 65.298612 56.82791 65.467825 57.105794 
Q 65.637039 57.383677 65.637039 57.830773 
L 65.637039 60.474544 
Q 65.637039 60.772608 65.671192 60.912326 
Q 65.705345 61.050491 65.904055 61.050491 
Q 66.014277 61.050491 66.163309 61.000814 
L 66.163309 61.655935 
z
M 64.792523 59.023031 
Q 64.632624 59.142568 64.37337 59.196902 
Q 64.115668 59.251237 63.833128 59.286943 
Q 63.550587 59.321096 63.261837 59.366116 
Q 62.973087 59.411136 62.744882 59.510491 
Q 62.516676 59.609846 62.372301 59.794584 
Q 62.227926 59.977769 62.227926 60.294463 
Q 62.227926 60.50404 62.311757 60.648415 
Q 62.39714 60.791237 62.530648 60.881277 
Q 62.665708 60.971318 62.844237 61.011681 
Q 63.022765 61.050491 63.221474 61.050491 
Q 63.639075 61.050491 63.93714 60.937165 
Q 64.235204 60.822285 64.423047 60.648415 
Q 64.612442 60.474544 64.702482 60.271177 
Q 64.792523 60.066257 64.792523 59.887729 
L 64.792523 59.023031 
z
M 66.948523 54.58156 
L 66.948523 61.676116 
L 67.793039 61.676116 
L 67.793039 58.774644 
Q 67.793039 58.426902 67.886184 58.135048 
Q 67.980881 57.84164 68.168724 57.622749 
Q 68.358119 57.403858 68.64066 57.284322 
Q 68.924752 57.164785 69.312857 57.164785 
Q 69.798764 57.164785 70.076648 57.444221 
Q 70.356083 57.722104 70.356083 58.198697 
L 70.356083 61.676116 
L 71.200599 61.676116 
L 71.200599 58.298052 
Q 71.200599 57.880451 71.115216 57.538919 
Q 71.031385 57.195834 70.821809 56.947447 
Q 70.613785 56.69906 70.275357 56.559342 
Q 69.938482 56.419624 69.432393 56.419624 
Q 69.202635 56.419624 68.958906 56.469302 
Q 68.716728 56.518979 68.49318 56.624544 
Q 68.269631 56.728556 68.089551 56.893112 
Q 67.911023 57.056116 67.811668 57.295189 
L 67.793039 57.295189 
L 67.793039 54.58156 
L 66.948523 54.58156 
z
M 76.038558 58.616298 
L 73.087409 58.616298 
Q 73.10759 58.318233 73.21626 58.055874 
Q 73.326481 57.791963 73.514324 57.593253 
Q 73.703719 57.394544 73.966078 57.279665 
Q 74.229989 57.164785 74.559102 57.164785 
Q 74.875796 57.164785 75.139707 57.279665 
Q 75.403618 57.394544 75.596118 57.588596 
Q 75.790171 57.781096 75.903497 58.049665 
Q 76.018376 58.318233 76.038558 58.616298 
z
M 76.853578 60.046076 
L 76.018376 60.046076 
Q 75.909707 60.553717 75.566622 60.802104 
Q 75.223538 61.050491 74.687953 61.050491 
Q 74.270352 61.050491 73.961421 60.912326 
Q 73.654042 60.772608 73.455332 60.539745 
Q 73.256622 60.30533 73.166582 60.002608 
Q 73.078094 59.698334 73.087409 59.361459 
L 76.932751 59.361459 
Q 76.952933 58.894181 76.848921 58.377225 
Q 76.744909 57.860269 76.471683 57.42404 
Q 76.198457 56.986257 75.745151 56.703717 
Q 75.293397 56.419624 74.60878 56.419624 
Q 74.080957 56.419624 73.638518 56.618334 
Q 73.19763 56.817044 72.874727 57.175652 
Q 72.551824 57.532709 72.371743 58.020169 
Q 72.193215 58.506076 72.193215 59.09289 
Q 72.213397 59.679705 72.367086 60.176479 
Q 72.522328 60.673253 72.829707 61.03031 
Q 73.137086 61.387366 73.58884 61.586076 
Q 74.042147 61.784785 74.658457 61.784785 
Q 75.532469 61.784785 76.108417 61.348556 
Q 76.684364 60.910773 76.853578 60.046076 
z
M 78.422763 59.151882 
Q 78.422763 58.774644 78.501937 58.417588 
Q 78.582662 58.058979 78.761191 57.781096 
Q 78.939719 57.503213 79.237783 57.333999 
Q 79.535848 57.164785 79.962763 57.164785 
Q 80.400545 57.164785 80.707925 57.329342 
Q 81.016856 57.493898 81.209356 57.762467 
Q 81.403408 58.029483 81.493449 58.383435 
Q 81.583489 58.735834 81.583489 59.113072 
Q 81.583489 59.470128 81.498106 59.81787 
Q 81.414275 60.165612 81.22488 60.438838 
Q 81.037037 60.712064 80.738973 60.881277 
Q 80.440908 61.050491 80.012441 61.050491 
Q 79.605707 61.050491 79.302985 60.892144 
Q 79.000263 60.732245 78.806211 60.463677 
Q 78.612158 60.195108 78.517461 59.853576 
Q 78.422763 59.510491 78.422763 59.151882 
z
M 82.396957 61.676116 
L 82.396957 54.58156 
L 81.552441 54.58156 
L 81.552441 57.22533 
L 81.533812 57.22533 
Q 81.394094 56.997124 81.190727 56.843435 
Q 80.98736 56.688193 80.757602 56.595048 
Q 80.529396 56.50035 80.301191 56.459987 
Q 80.072985 56.419624 79.874275 56.419624 
Q 79.287461 56.419624 78.845021 56.633858 
Q 78.404134 56.848092 78.110727 57.211358 
Q 77.81732 57.573072 77.672945 58.060531 
Q 77.52857 58.546439 77.52857 59.09289 
Q 77.52857 59.639342 77.677602 60.126802 
Q 77.826634 60.612709 78.120041 60.980632 
Q 78.413449 61.348556 78.855888 61.567447 
Q 79.298328 61.784785 79.894457 61.784785 
Q 80.430041 61.784785 80.877138 61.596943 
Q 81.324235 61.407548 81.533812 60.980632 
L 81.552441 60.980632 
L 81.552441 61.676116 
L 82.396957 61.676116 
z
M 83.668698 56.53916 
L 83.668698 61.676116 
L 84.513214 61.676116 
L 84.513214 59.390955 
Q 84.513214 58.894181 84.612568 58.512285 
Q 84.711923 58.128838 84.930814 57.861822 
Q 85.149706 57.593253 85.506762 57.453535 
Q 85.865371 57.313818 86.37146 57.313818 
L 86.37146 56.419624 
Q 85.686843 56.400995 85.239746 56.69906 
Q 84.792649 56.997124 84.483718 57.622749 
L 84.463536 57.622749 
L 84.463536 56.53916 
L 83.668698 56.53916 
z
M 91.558402 61.655935 
Q 91.339511 61.784785 90.951406 61.784785 
Q 90.623845 61.784785 90.429793 61.6016 
Q 90.237293 61.418415 90.237293 61.000814 
Q 89.889551 61.418415 89.42693 61.6016 
Q 88.964309 61.784785 88.428725 61.784785 
Q 88.080983 61.784785 87.767394 61.705612 
Q 87.455358 61.626439 87.2256 61.457225 
Q 86.997394 61.288011 86.862333 61.014785 
Q 86.728825 60.74156 86.728825 60.355007 
Q 86.728825 59.917225 86.877858 59.639342 
Q 87.02689 59.361459 87.27062 59.187588 
Q 87.51435 59.013717 87.826386 58.925229 
Q 88.139975 58.835189 88.467535 58.774644 
Q 88.815277 58.704785 89.128866 58.670632 
Q 89.442454 58.636479 89.679975 58.571277 
Q 89.919047 58.506076 90.057212 58.381882 
Q 90.19693 58.257689 90.19693 58.020169 
Q 90.19693 57.742285 90.092918 57.573072 
Q 89.988906 57.403858 89.82435 57.31537 
Q 89.659793 57.22533 89.456426 57.195834 
Q 89.253059 57.164785 89.05435 57.164785 
Q 88.517212 57.164785 88.160156 57.369705 
Q 87.8031 57.573072 87.772051 58.139705 
L 86.927535 58.139705 
Q 86.947716 57.66156 87.126245 57.333999 
Q 87.306325 57.006439 87.60439 56.803072 
Q 87.902454 56.599705 88.28435 56.509665 
Q 88.666245 56.419624 89.104027 56.419624 
Q 89.451769 56.419624 89.794854 56.469302 
Q 90.137938 56.518979 90.415821 56.674221 
Q 90.693704 56.82791 90.862918 57.105794 
Q 91.032132 57.383677 91.032132 57.830773 
L 91.032132 60.474544 
Q 91.032132 60.772608 91.066285 60.912326 
Q 91.100438 61.050491 91.299148 61.050491 
Q 91.40937 61.050491 91.558402 61.000814 
L 91.558402 61.655935 
z
M 90.187616 59.023031 
Q 90.027716 59.142568 89.768462 59.196902 
Q 89.510761 59.251237 89.22822 59.286943 
Q 88.94568 59.321096 88.65693 59.366116 
Q 88.36818 59.411136 88.139975 59.510491 
Q 87.911769 59.609846 87.767394 59.794584 
Q 87.623019 59.977769 87.623019 60.294463 
Q 87.623019 60.50404 87.70685 60.648415 
Q 87.792233 60.791237 87.925741 60.881277 
Q 88.060801 60.971318 88.239329 61.011681 
Q 88.417858 61.050491 88.616567 61.050491 
Q 89.034168 61.050491 89.332233 60.937165 
Q 89.630297 60.822285 89.81814 60.648415 
Q 90.007535 60.474544 90.097575 60.271177 
Q 90.187616 60.066257 90.187616 59.887729 
L 90.187616 59.023031 
z
M 92.393293 54.58156 
L 92.393293 61.676116 
L 93.237809 61.676116 
L 93.237809 54.58156 
L 92.393293 54.58156 
z
"/>
   </g>
  </g>
 </g>
 <defs>
  <clipPath id="pdd1db820c4">
   <rect x="-181.87635" y="-127.043587" width="221.76" height="221.76"/>
  </clipPath>
 </defs>
</svg>
