<?xml version="1.0" encoding="utf-8" standalone="no"?>
<!DOCTYPE svg PUBLIC "-//W3C//DTD SVG 1.1//EN"
  "http://www.w3.org/Graphics/SVG/1.1/DTD/svg11.dtd">
<svg xmlns:xlink="http://www.w3.org/1999/xlink" width="42.157258pt" height="44.322968pt" viewBox="0 0 42.157258 44.322968" xmlns="http://www.w3.org/2000/svg" version="1.1">
 <metadata>
  <rdf:RDF xmlns:dc="http://purl.org/dc/elements/1.1/" xmlns:cc="http://creativecommons.org/ns#" xmlns:rdf="http://www.w3.org/1999/02/22-rdf-syntax-ns#">
   <cc:Work>
    <dc:type rdf:resource="http://purl.org/dc/dcmitype/StillImage"/>
    <dc:date>2026-02-25T16:16:42.481413</dc:date>
    <dc:format>image/svg+xml</dc:format>
    <dc:creator>
     <cc:Agent>
      <dc:title>Matplotlib v3.10.7, https://matplotlib.org/</dc:title>
     </cc:Agent>
    </dc:creator>
   </cc:Work>
  </rdf:RDF>
 </metadata>
 <defs>
  <style type="text/css">*{stroke-linejoin: round; stroke-linecap: butt}</style>
 </defs>
 <g id="figure_1">
  <g id="patch_1">
   <path d="M 0 44.322968 
L 42.157258 44.322968 
L 42.157258 0 
L 0 0 
z
" style="fill: #ffffff"/>
  </g>
  <g id="axes_1">
   <g id="line2d_1">
    <defs>
     <path id="mdc48b8285b" d="M 0 4.967742 
C 1.317461 4.967742 2.581139 4.444309 3.512724 3.512724 
C 4.444309 2.581139 4.967742 1.317461 4.967742 0 
C 4.967742 -1.317461 4.444309 -2.581139 3.512724 -3.512724 
C 2.581139 -4.444309 1.317461 -4.967742 0 -4.967742 
C -1.317461 -4.967742 -2.581139 -4.444309 -3.512724 -3.512724 
C -4.444309 -2.581139 -4.967742 -1.317461 -4.967742 0 
C -4.967742 1.317461 -4.444309 2.581139 -3.512724 3.512724 
C -2.581139 4.444309 -1.317461 4.967742 0 4.967742 
z
" style="stroke: #262626; stroke-width: 0.993548"/>
    </defs>
    <g clip-path="url(#p84d6a99414)">
     <use xlink:href="#mdc48b8285b" x="8.567742" y="8.567742" style="fill: #51b04d; stroke: #262626; stroke-width: 0.993548"/>
    </g>
   </g>
   <g id="line2d_2">
    <defs>
     <path id="m687bb74b9c" d="M 0 4.967742 
C 1.317461 4.967742 2.581139 4.444309 3.512724 3.512724 
C 4.444309 2.581139 4.967742 1.317461 4.967742 0 
C 4.967742 -1.317461 4.444309 -2.581139 3.512724 -3.512724 
C 2.581139 -4.444309 1.317461 -4.967742 0 -4.967742 
C -1.317461 -4.967742 -2.581139 -4.444309 -3.512724 -3.512724 
C -4.444309 -2.581139 -4.967742 -1.317461 -4.967742 0 
C -4.967742 1.317461 -4.444309 2.581139 -3.512724 3.512724 
C -2.581139 4.444309 -1.317461 4.967742 0 4.967742 
z
" style="stroke: #262626; stroke-width: 0.993548"/>
    </defs>
    <g clip-path="url(#p84d6a99414)">
     <use xlink:href="#m687bb74b9c" x="8.567742" y="21.732258" style="fill: #477b9d; stroke: #262626; stroke-width: 0.993548"/>
    </g>
   </g>
   <g id="line2d_3">
    <defs>
     <path id="m42e32794e4" d="M 0 4.967742 
C 1.317461 4.967742 2.581139 4.444309 3.512724 3.512724 
C 4.444309 2.581139 4.967742 1.317461 4.967742 0 
C 4.967742 -1.317461 4.444309 -2.581139 3.512724 -3.512724 
C 2.581139 -4.444309 1.317461 -4.967742 0 -4.967742 
C -1.317461 -4.967742 -2.581139 -4.444309 -3.512724 -3.512724 
C -4.444309 -2.581139 -4.967742 -1.317461 -4.967742 0 
C -4.967742 1.317461 -4.444309 2.581139 -3.512724 3.512724 
C -2.581139 4.444309 -1.317461 4.967742 0 4.967742 
z
" style="stroke: #262626; stroke-width: 0.993548"/>
    </defs>
    <g clip-path="url(#p84d6a99414)">
     <use xlink:href="#m42e32794e4" x="8.567742" y="34.896774" style="fill: #f03f37; stroke: #262626; stroke-width: 0.993548"/>
    </g>
   </g>
   <g id="text_1">
    <path d="M 23.380927 7.030847 
L 24.275121 7.030847 
Q 24.256492 6.444032 24.051573 6.021774 
Q 23.848206 5.599516 23.495806 5.321633 
Q 23.143407 5.04375 22.676129 4.914899 
Q 22.208851 4.786048 21.662399 4.786048 
Q 21.176492 4.786048 20.713871 4.910242 
Q 20.25125 5.034435 19.887984 5.28748 
Q 19.52627 5.540524 19.307379 5.933286 
Q 19.09004 6.326048 19.09004 6.861633 
Q 19.09004 7.349093 19.28254 7.671996 
Q 19.476593 7.994899 19.799496 8.198266 
Q 20.122399 8.401633 20.529133 8.525827 
Q 20.937419 8.65002 21.359677 8.744718 
Q 21.781935 8.839415 22.188669 8.929456 
Q 22.596956 9.017944 22.919859 9.162319 
Q 23.242762 9.306694 23.435262 9.534899 
Q 23.629315 9.763105 23.629315 10.131028 
Q 23.629315 10.517581 23.470968 10.765968 
Q 23.312621 11.014355 23.053367 11.15873 
Q 22.795665 11.303105 22.472762 11.363649 
Q 22.149859 11.422641 21.831613 11.422641 
Q 21.434194 11.422641 21.056956 11.323286 
Q 20.679718 11.223931 20.395625 11.015907 
Q 20.113085 10.806331 19.939214 10.483427 
Q 19.765343 10.160524 19.765343 9.713427 
L 18.871149 9.713427 
Q 18.871149 10.359234 19.104012 10.831169 
Q 19.338427 11.303105 19.740504 11.605827 
Q 20.142581 11.908548 20.673508 12.057581 
Q 21.205988 12.206613 21.802117 12.206613 
Q 22.288024 12.206613 22.780141 12.091734 
Q 23.272258 11.978407 23.669677 11.725363 
Q 24.067097 11.472319 24.320141 11.070242 
Q 24.573185 10.666613 24.573185 10.101532 
Q 24.573185 9.57371 24.379133 9.225968 
Q 24.186633 8.878226 23.86373 8.65002 
Q 23.540827 8.421815 23.13254 8.288306 
Q 22.725806 8.153246 22.303548 8.053891 
Q 21.88129 7.954536 21.473004 7.870706 
Q 21.06627 7.785323 20.743367 7.656472 
Q 20.420464 7.527621 20.226411 7.324254 
Q 20.033911 7.120887 20.033911 6.791774 
Q 20.033911 6.444032 20.167419 6.211169 
Q 20.300927 5.978306 20.524476 5.838589 
Q 20.748024 5.698871 21.036774 5.639879 
Q 21.325524 5.580887 21.623589 5.580887 
Q 22.357883 5.580887 22.829819 5.923972 
Q 23.301754 6.265504 23.380927 7.030847 
z
M 25.546862 6.91131 
L 25.546862 12.048266 
L 26.391378 12.048266 
L 26.391378 9.763105 
Q 26.391378 9.266331 26.490733 8.884435 
Q 26.590087 8.500988 26.808979 8.233972 
Q 27.02787 7.965403 27.384926 7.825685 
Q 27.743535 7.685968 28.249624 7.685968 
L 28.249624 6.791774 
Q 27.565007 6.773145 27.11791 7.07121 
Q 26.670813 7.369274 26.361882 7.994899 
L 26.3417 7.994899 
L 26.3417 6.91131 
L 25.546862 6.91131 
z
M 29.679478 7.667804 
L 32.073464 7.667804 
L 32.073464 8.244839 
L 28.854678 8.244839 
L 28.854678 7.667804 
Q 29.244801 7.263554 29.918551 6.583284 
Q 30.593388 5.901927 30.766172 5.704149 
Q 31.09544 5.334673 31.225843 5.078214 
Q 31.357333 4.821754 31.357333 4.573988 
Q 31.357333 4.169738 31.073706 3.915452 
Q 30.790079 3.660079 30.334755 3.660079 
Q 30.012007 3.660079 29.653398 3.772008 
Q 29.295876 3.883937 28.888366 4.112143 
L 28.888366 3.418833 
Q 29.302396 3.252569 29.662091 3.167806 
Q 30.022874 3.083044 30.321714 3.083044 
Q 31.109567 3.083044 31.577932 3.477514 
Q 32.046297 3.870897 32.046297 4.529433 
Q 32.046297 4.842401 31.928934 5.122768 
Q 31.812658 5.402048 31.50295 5.782391 
Q 31.418188 5.88128 30.962864 6.351819 
Q 30.508626 6.822357 29.679478 7.667804 
z
M 36.194931 3.883937 
L 36.194931 5.775871 
L 38.085778 5.775871 
L 38.085778 6.352905 
L 36.194931 6.352905 
L 36.194931 8.244839 
L 35.624417 8.244839 
L 35.624417 6.352905 
L 33.732483 6.352905 
L 33.732483 5.775871 
L 35.624417 5.775871 
L 35.624417 3.883937 
L 36.194931 3.883937 
z
" style="stroke: #ffffff; stroke-width: 2.980645"/>
    <path d="M 23.380927 7.030847 
L 24.275121 7.030847 
Q 24.256492 6.444032 24.051573 6.021774 
Q 23.848206 5.599516 23.495806 5.321633 
Q 23.143407 5.04375 22.676129 4.914899 
Q 22.208851 4.786048 21.662399 4.786048 
Q 21.176492 4.786048 20.713871 4.910242 
Q 20.25125 5.034435 19.887984 5.28748 
Q 19.52627 5.540524 19.307379 5.933286 
Q 19.09004 6.326048 19.09004 6.861633 
Q 19.09004 7.349093 19.28254 7.671996 
Q 19.476593 7.994899 19.799496 8.198266 
Q 20.122399 8.401633 20.529133 8.525827 
Q 20.937419 8.65002 21.359677 8.744718 
Q 21.781935 8.839415 22.188669 8.929456 
Q 22.596956 9.017944 22.919859 9.162319 
Q 23.242762 9.306694 23.435262 9.534899 
Q 23.629315 9.763105 23.629315 10.131028 
Q 23.629315 10.517581 23.470968 10.765968 
Q 23.312621 11.014355 23.053367 11.15873 
Q 22.795665 11.303105 22.472762 11.363649 
Q 22.149859 11.422641 21.831613 11.422641 
Q 21.434194 11.422641 21.056956 11.323286 
Q 20.679718 11.223931 20.395625 11.015907 
Q 20.113085 10.806331 19.939214 10.483427 
Q 19.765343 10.160524 19.765343 9.713427 
L 18.871149 9.713427 
Q 18.871149 10.359234 19.104012 10.831169 
Q 19.338427 11.303105 19.740504 11.605827 
Q 20.142581 11.908548 20.673508 12.057581 
Q 21.205988 12.206613 21.802117 12.206613 
Q 22.288024 12.206613 22.780141 12.091734 
Q 23.272258 11.978407 23.669677 11.725363 
Q 24.067097 11.472319 24.320141 11.070242 
Q 24.573185 10.666613 24.573185 10.101532 
Q 24.573185 9.57371 24.379133 9.225968 
Q 24.186633 8.878226 23.86373 8.65002 
Q 23.540827 8.421815 23.13254 8.288306 
Q 22.725806 8.153246 22.303548 8.053891 
Q 21.88129 7.954536 21.473004 7.870706 
Q 21.06627 7.785323 20.743367 7.656472 
Q 20.420464 7.527621 20.226411 7.324254 
Q 20.033911 7.120887 20.033911 6.791774 
Q 20.033911 6.444032 20.167419 6.211169 
Q 20.300927 5.978306 20.524476 5.838589 
Q 20.748024 5.698871 21.036774 5.639879 
Q 21.325524 5.580887 21.623589 5.580887 
Q 22.357883 5.580887 22.829819 5.923972 
Q 23.301754 6.265504 23.380927 7.030847 
z
M 25.546862 6.91131 
L 25.546862 12.048266 
L 26.391378 12.048266 
L 26.391378 9.763105 
Q 26.391378 9.266331 26.490733 8.884435 
Q 26.590087 8.500988 26.808979 8.233972 
Q 27.02787 7.965403 27.384926 7.825685 
Q 27.743535 7.685968 28.249624 7.685968 
L 28.249624 6.791774 
Q 27.565007 6.773145 27.11791 7.07121 
Q 26.670813 7.369274 26.361882 7.994899 
L 26.3417 7.994899 
L 26.3417 6.91131 
L 25.546862 6.91131 
z
M 29.679478 7.667804 
L 32.073464 7.667804 
L 32.073464 8.244839 
L 28.854678 8.244839 
L 28.854678 7.667804 
Q 29.244801 7.263554 29.918551 6.583284 
Q 30.593388 5.901927 30.766172 5.704149 
Q 31.09544 5.334673 31.225843 5.078214 
Q 31.357333 4.821754 31.357333 4.573988 
Q 31.357333 4.169738 31.073706 3.915452 
Q 30.790079 3.660079 30.334755 3.660079 
Q 30.012007 3.660079 29.653398 3.772008 
Q 29.295876 3.883937 28.888366 4.112143 
L 28.888366 3.418833 
Q 29.302396 3.252569 29.662091 3.167806 
Q 30.022874 3.083044 30.321714 3.083044 
Q 31.109567 3.083044 31.577932 3.477514 
Q 32.046297 3.870897 32.046297 4.529433 
Q 32.046297 4.842401 31.928934 5.122768 
Q 31.812658 5.402048 31.50295 5.782391 
Q 31.418188 5.88128 30.962864 6.351819 
Q 30.508626 6.822357 29.679478 7.667804 
z
M 36.194931 3.883937 
L 36.194931 5.775871 
L 38.085778 5.775871 
L 38.085778 6.352905 
L 36.194931 6.352905 
L 36.194931 8.244839 
L 35.624417 8.244839 
L 35.624417 6.352905 
L 33.732483 6.352905 
L 33.732483 5.775871 
L 35.624417 5.775871 
L 35.624417 3.883937 
L 36.194931 3.883937 
z
"/>
   </g>
   <g id="text_2">
    <path d="M 20.887742 18.849415 
L 20.887742 25.149133 
L 21.831613 25.149133 
L 21.831613 18.849415 
L 24.195948 18.849415 
L 24.195948 18.054577 
L 18.523407 18.054577 
L 18.523407 18.849415 
L 20.887742 18.849415 
z
M 25.736878 19.088488 
L 25.736878 18.054577 
L 24.892362 18.054577 
L 24.892362 19.088488 
L 25.736878 19.088488 
z
M 24.892362 20.012177 
L 24.892362 25.149133 
L 25.736878 25.149133 
L 25.736878 20.012177 
L 24.892362 20.012177 
z
M 27.732979 21.601855 
Q 27.732979 21.06627 27.871144 20.544657 
Q 28.010862 20.023044 28.308927 19.605444 
Q 28.606991 19.187843 29.074269 18.934798 
Q 29.541547 18.681754 30.187354 18.681754 
Q 30.83316 18.681754 31.300439 18.934798 
Q 31.767717 19.187843 32.065781 19.605444 
Q 32.363846 20.023044 32.502011 20.544657 
Q 32.641729 21.06627 32.641729 21.601855 
Q 32.641729 22.138992 32.502011 22.660605 
Q 32.363846 23.182218 32.065781 23.599819 
Q 31.767717 24.015867 31.300439 24.270464 
Q 30.83316 24.523508 30.187354 24.523508 
Q 29.541547 24.523508 29.074269 24.270464 
Q 28.606991 24.015867 28.308927 23.599819 
Q 28.010862 23.182218 27.871144 22.660605 
Q 27.732979 22.138992 27.732979 21.601855 
z
M 26.789108 21.601855 
Q 26.789108 22.326835 27.001789 22.99748 
Q 27.216023 23.668125 27.642939 24.185081 
Q 28.071406 24.702036 28.706346 25.004758 
Q 29.342838 25.30748 30.187354 25.30748 
Q 31.03187 25.30748 31.66681 25.004758 
Q 32.303302 24.702036 32.730217 24.185081 
Q 33.158685 23.668125 33.371366 22.99748 
Q 33.5856 22.326835 33.5856 21.601855 
Q 33.5856 20.876875 33.371366 20.20623 
Q 33.158685 19.535585 32.730217 19.018629 
Q 32.303302 18.501673 31.66681 18.194294 
Q 31.03187 17.886915 30.187354 17.886915 
Q 29.342838 17.886915 28.706346 18.194294 
Q 28.071406 18.501673 27.642939 19.018629 
Q 27.216023 19.535585 27.001789 20.20623 
Q 26.789108 20.876875 26.789108 21.601855 
z
M 36.354105 23.971157 
Q 35.892261 23.971157 35.621674 24.287385 
Q 35.352174 24.602526 35.352174 25.152393 
Q 35.352174 25.699 35.621674 26.017401 
Q 35.892261 26.334716 36.354105 26.334716 
Q 36.81595 26.334716 37.08545 26.017401 
Q 37.35495 25.699 37.35495 25.152393 
Q 37.35495 24.602526 37.08545 24.287385 
Q 36.81595 23.971157 36.354105 23.971157 
z
M 37.715732 21.820591 
L 37.715732 22.44544 
Q 37.457099 22.32373 37.19412 22.259615 
Q 36.93114 22.194413 36.672507 22.194413 
Q 35.993323 22.194413 35.634714 22.652998 
Q 35.277192 23.111583 35.226118 24.038532 
Q 35.426069 23.742952 35.72817 23.585381 
Q 36.031357 23.42781 36.394313 23.42781 
Q 37.158259 23.42781 37.60163 23.891829 
Q 38.045001 24.35476 38.045001 25.152393 
Q 38.045001 25.933726 37.583156 26.406437 
Q 37.121311 26.878062 36.354105 26.878062 
Q 35.473884 26.878062 35.008779 26.204312 
Q 34.543674 25.529476 34.543674 24.249351 
Q 34.543674 23.047468 35.114188 22.332423 
Q 35.684702 21.617379 36.645339 21.617379 
Q 36.903972 21.617379 37.166952 21.668454 
Q 37.429932 21.719528 37.715732 21.820591 
z
" style="stroke: #ffffff; stroke-width: 2.980645"/>
    <path d="M 20.887742 18.849415 
L 20.887742 25.149133 
L 21.831613 25.149133 
L 21.831613 18.849415 
L 24.195948 18.849415 
L 24.195948 18.054577 
L 18.523407 18.054577 
L 18.523407 18.849415 
L 20.887742 18.849415 
z
M 25.736878 19.088488 
L 25.736878 18.054577 
L 24.892362 18.054577 
L 24.892362 19.088488 
L 25.736878 19.088488 
z
M 24.892362 20.012177 
L 24.892362 25.149133 
L 25.736878 25.149133 
L 25.736878 20.012177 
L 24.892362 20.012177 
z
M 27.732979 21.601855 
Q 27.732979 21.06627 27.871144 20.544657 
Q 28.010862 20.023044 28.308927 19.605444 
Q 28.606991 19.187843 29.074269 18.934798 
Q 29.541547 18.681754 30.187354 18.681754 
Q 30.83316 18.681754 31.300439 18.934798 
Q 31.767717 19.187843 32.065781 19.605444 
Q 32.363846 20.023044 32.502011 20.544657 
Q 32.641729 21.06627 32.641729 21.601855 
Q 32.641729 22.138992 32.502011 22.660605 
Q 32.363846 23.182218 32.065781 23.599819 
Q 31.767717 24.015867 31.300439 24.270464 
Q 30.83316 24.523508 30.187354 24.523508 
Q 29.541547 24.523508 29.074269 24.270464 
Q 28.606991 24.015867 28.308927 23.599819 
Q 28.010862 23.182218 27.871144 22.660605 
Q 27.732979 22.138992 27.732979 21.601855 
z
M 26.789108 21.601855 
Q 26.789108 22.326835 27.001789 22.99748 
Q 27.216023 23.668125 27.642939 24.185081 
Q 28.071406 24.702036 28.706346 25.004758 
Q 29.342838 25.30748 30.187354 25.30748 
Q 31.03187 25.30748 31.66681 25.004758 
Q 32.303302 24.702036 32.730217 24.185081 
Q 33.158685 23.668125 33.371366 22.99748 
Q 33.5856 22.326835 33.5856 21.601855 
Q 33.5856 20.876875 33.371366 20.20623 
Q 33.158685 19.535585 32.730217 19.018629 
Q 32.303302 18.501673 31.66681 18.194294 
Q 31.03187 17.886915 30.187354 17.886915 
Q 29.342838 17.886915 28.706346 18.194294 
Q 28.071406 18.501673 27.642939 19.018629 
Q 27.216023 19.535585 27.001789 20.20623 
Q 26.789108 20.876875 26.789108 21.601855 
z
M 36.354105 23.971157 
Q 35.892261 23.971157 35.621674 24.287385 
Q 35.352174 24.602526 35.352174 25.152393 
Q 35.352174 25.699 35.621674 26.017401 
Q 35.892261 26.334716 36.354105 26.334716 
Q 36.81595 26.334716 37.08545 26.017401 
Q 37.35495 25.699 37.35495 25.152393 
Q 37.35495 24.602526 37.08545 24.287385 
Q 36.81595 23.971157 36.354105 23.971157 
z
M 37.715732 21.820591 
L 37.715732 22.44544 
Q 37.457099 22.32373 37.19412 22.259615 
Q 36.93114 22.194413 36.672507 22.194413 
Q 35.993323 22.194413 35.634714 22.652998 
Q 35.277192 23.111583 35.226118 24.038532 
Q 35.426069 23.742952 35.72817 23.585381 
Q 36.031357 23.42781 36.394313 23.42781 
Q 37.158259 23.42781 37.60163 23.891829 
Q 38.045001 24.35476 38.045001 25.152393 
Q 38.045001 25.933726 37.583156 26.406437 
Q 37.121311 26.878062 36.354105 26.878062 
Q 35.473884 26.878062 35.008779 26.204312 
Q 34.543674 25.529476 34.543674 24.249351 
Q 34.543674 23.047468 35.114188 22.332423 
Q 35.684702 21.617379 36.645339 21.617379 
Q 36.903972 21.617379 37.166952 21.668454 
Q 37.429932 21.719528 37.715732 21.820591 
z
"/>
   </g>
   <g id="text_3">
    <path d="M 22.418427 31.798145 
Q 21.350363 31.798145 20.721633 32.594536 
Q 20.094456 33.389375 20.094456 34.763266 
Q 20.094456 36.130948 20.721633 36.927339 
Q 21.350363 37.722177 22.418427 37.722177 
Q 23.48494 37.722177 24.109012 36.927339 
Q 24.733085 36.130948 24.733085 34.763266 
Q 24.733085 33.389375 24.109012 32.594536 
Q 23.48494 31.798145 22.418427 31.798145 
z
M 22.418427 31.003306 
Q 23.941351 31.003306 24.852621 32.024798 
Q 25.765444 33.04629 25.765444 34.763266 
Q 25.765444 36.475585 24.852621 37.497077 
Q 23.941351 38.518569 22.418427 38.518569 
Q 20.890847 38.518569 19.974919 37.500181 
Q 19.060544 36.480242 19.060544 34.763266 
Q 19.060544 33.04629 19.974919 32.024798 
Q 20.890847 31.003306 22.418427 31.003306 
z
M 27.753084 33.996837 
L 30.14707 33.996837 
L 30.14707 34.573871 
L 26.928283 34.573871 
L 26.928283 33.996837 
Q 27.318406 33.592587 27.992156 32.912317 
Q 28.666993 32.23096 28.839777 32.033181 
Q 29.169045 31.663706 29.299449 31.407246 
Q 29.430939 31.150786 29.430939 30.90302 
Q 29.430939 30.49877 29.147311 30.244484 
Q 28.863684 29.989111 28.40836 29.989111 
Q 28.085612 29.989111 27.727003 30.10104 
Q 27.369481 30.21297 26.961971 30.441175 
L 26.961971 29.747865 
Q 27.376001 29.581601 27.735697 29.496839 
Q 28.096479 29.412077 28.39532 29.412077 
Q 29.183172 29.412077 29.651537 29.806546 
Q 30.119902 30.199929 30.119902 30.858466 
Q 30.119902 31.171433 30.002539 31.4518 
Q 29.886263 31.731081 29.576555 32.111423 
Q 29.491793 32.210312 29.036469 32.680851 
Q 28.582231 33.151389 27.753084 33.996837 
z
M 31.806088 32.104903 
L 36.159383 32.104903 
L 36.159383 32.681937 
L 31.806088 32.681937 
L 31.806088 32.104903 
z
" style="stroke: #ffffff; stroke-width: 2.980645"/>
    <path d="M 22.418427 31.798145 
Q 21.350363 31.798145 20.721633 32.594536 
Q 20.094456 33.389375 20.094456 34.763266 
Q 20.094456 36.130948 20.721633 36.927339 
Q 21.350363 37.722177 22.418427 37.722177 
Q 23.48494 37.722177 24.109012 36.927339 
Q 24.733085 36.130948 24.733085 34.763266 
Q 24.733085 33.389375 24.109012 32.594536 
Q 23.48494 31.798145 22.418427 31.798145 
z
M 22.418427 31.003306 
Q 23.941351 31.003306 24.852621 32.024798 
Q 25.765444 33.04629 25.765444 34.763266 
Q 25.765444 36.475585 24.852621 37.497077 
Q 23.941351 38.518569 22.418427 38.518569 
Q 20.890847 38.518569 19.974919 37.500181 
Q 19.060544 36.480242 19.060544 34.763266 
Q 19.060544 33.04629 19.974919 32.024798 
Q 20.890847 31.003306 22.418427 31.003306 
z
M 27.753084 33.996837 
L 30.14707 33.996837 
L 30.14707 34.573871 
L 26.928283 34.573871 
L 26.928283 33.996837 
Q 27.318406 33.592587 27.992156 32.912317 
Q 28.666993 32.23096 28.839777 32.033181 
Q 29.169045 31.663706 29.299449 31.407246 
Q 29.430939 31.150786 29.430939 30.90302 
Q 29.430939 30.49877 29.147311 30.244484 
Q 28.863684 29.989111 28.40836 29.989111 
Q 28.085612 29.989111 27.727003 30.10104 
Q 27.369481 30.21297 26.961971 30.441175 
L 26.961971 29.747865 
Q 27.376001 29.581601 27.735697 29.496839 
Q 28.096479 29.412077 28.39532 29.412077 
Q 29.183172 29.412077 29.651537 29.806546 
Q 30.119902 30.199929 30.119902 30.858466 
Q 30.119902 31.171433 30.002539 31.4518 
Q 29.886263 31.731081 29.576555 32.111423 
Q 29.491793 32.210312 29.036469 32.680851 
Q 28.582231 33.151389 27.753084 33.996837 
z
M 31.806088 32.104903 
L 36.159383 32.104903 
L 36.159383 32.681937 
L 31.806088 32.681937 
L 31.806088 32.104903 
z
"/>
   </g>
  </g>
 </g>
 <defs>
  <clipPath id="p84d6a99414">
   <rect x="-191.592516" y="-160.295742" width="221.76" height="221.76"/>
  </clipPath>
 </defs>
</svg>
