<?xml version="1.0" encoding="utf-8" standalone="no"?>
<!DOCTYPE svg PUBLIC "-//W3C//DTD SVG 1.1//EN"
  "http://www.w3.org/Graphics/SVG/1.1/DTD/svg11.dtd">
<svg xmlns:xlink="http://www.w3.org/1999/xlink" width="39.6pt" height="57.6pt" viewBox="0 0 39.6 57.6" xmlns="http://www.w3.org/2000/svg" version="1.1">
 <metadata>
  <rdf:RDF xmlns:dc="http://purl.org/dc/elements/1.1/" xmlns:cc="http://creativecommons.org/ns#" xmlns:rdf="http://www.w3.org/1999/02/22-rdf-syntax-ns#">
   <cc:Work>
    <dc:type rdf:resource="http://purl.org/dc/dcmitype/StillImage"/>
    <dc:date>2026-02-25T16:16:42.379479</dc:date>
    <dc:format>image/svg+xml</dc:format>
    <dc:creator>
     <cc:Agent>
      <dc:title>Matplotlib v3.10.7, https://matplotlib.org/</dc:title>
     </cc:Agent>
    </dc:creator>
   </cc:Work>
  </rdf:RDF>
 </metadata>
 <defs>
  <style type="text/css">*{stroke-linejoin: round; stroke-linecap: butt}</style>
 </defs>
 <g id="figure_1">
  <g id="patch_1">
   <path d="M 0 57.6 
L 39.6 57.6 
L 39.6 0 
L 0 0 
z
" style="fill: #ffffff"/>
  </g>
  <g id="axes_1">
   <g id="line2d_1">
    <defs>
     <path id="m94644957ac" d="M 0 3.974194 
C 1.053968 3.974194 2.064911 3.555447 2.810179 2.810179 
C 3.555447 2.064911 3.974194 1.053968 3.974194 0 
C 3.974194 -1.053968 3.555447 -2.064911 2.810179 -2.810179 
C 2.064911 -3.555447 1.053968 -3.974194 0 -3.974194 
C -1.053968 -3.974194 -2.064911 -3.555447 -2.810179 -2.810179 
C -3.555447 -2.064911 -3.974194 -1.053968 -3.974194 0 
C -3.974194 1.053968 -3.555447 2.064911 -2.810179 2.810179 
C -2.064911 3.555447 -1.053968 3.974194 0 3.974194 
z
" style="stroke: #262626; stroke-width: 0.993548"/>
    </defs>
    <g clip-path="url(#p114ceca5be)">
     <use xlink:href="#m94644957ac" x="12.456129" y="11.666452" style="fill: #51b04d; stroke: #262626; stroke-width: 0.993548"/>
    </g>
   </g>
   <g id="line2d_2">
    <defs>
     <path id="m4049f5c50c" d="M 0 6.954839 
C 1.844445 6.954839 3.613594 6.222033 4.917814 4.917814 
C 6.222033 3.613594 6.954839 1.844445 6.954839 0 
C 6.954839 -1.844445 6.222033 -3.613594 4.917814 -4.917814 
C 3.613594 -6.222033 1.844445 -6.954839 0 -6.954839 
C -1.844445 -6.954839 -3.613594 -6.222033 -4.917814 -4.917814 
C -6.222033 -3.613594 -6.954839 -1.844445 -6.954839 0 
C -6.954839 1.844445 -6.222033 3.613594 -4.917814 4.917814 
C -3.613594 6.222033 -1.844445 6.954839 0 6.954839 
z
" style="stroke: #262626; stroke-width: 0.993548"/>
    </defs>
    <g clip-path="url(#p114ceca5be)">
     <use xlink:href="#m4049f5c50c" x="12.456129" y="28.06" style="fill: #477b9d; stroke: #262626; stroke-width: 0.993548"/>
    </g>
   </g>
   <g id="line2d_3">
    <defs>
     <path id="m0979de7233" d="M 0 4.967742 
C 1.317461 4.967742 2.581139 4.444309 3.512724 3.512724 
C 4.444309 2.581139 4.967742 1.317461 4.967742 0 
C 4.967742 -1.317461 4.444309 -2.581139 3.512724 -3.512724 
C 2.581139 -4.444309 1.317461 -4.967742 0 -4.967742 
C -1.317461 -4.967742 -2.581139 -4.444309 -3.512724 -3.512724 
C -4.444309 -2.581139 -4.967742 -1.317461 -4.967742 0 
C -4.967742 1.317461 -4.444309 2.581139 -3.512724 3.512724 
C -2.581139 4.444309 -1.317461 4.967742 0 4.967742 
z
" style="stroke: #262626; stroke-width: 0.993548"/>
    </defs>
    <g clip-path="url(#p114ceca5be)">
     <use xlink:href="#m0979de7233" x="12.456129" y="44.453548" style="fill: #f03f37; stroke: #262626; stroke-width: 0.993548"/>
    </g>
   </g>
   <g id="text_1">
    <path d="M 29.256411 10.111704 
L 30.150605 10.111704 
Q 30.131976 9.524889 29.927056 9.102631 
Q 29.72369 8.680373 29.37129 8.40249 
Q 29.018891 8.124607 28.551613 7.995756 
Q 28.084335 7.866905 27.537883 7.866905 
Q 27.051976 7.866905 26.589355 7.991099 
Q 26.126734 8.115292 25.763468 8.368337 
Q 25.401754 8.621381 25.182863 9.014143 
Q 24.965524 9.406905 24.965524 9.94249 
Q 24.965524 10.42995 25.158024 10.752853 
Q 25.352077 11.075756 25.67498 11.279123 
Q 25.997883 11.48249 26.404617 11.606683 
Q 26.812903 11.730877 27.235161 11.825575 
Q 27.657419 11.920272 28.064153 12.010313 
Q 28.47244 12.0988 28.795343 12.243175 
Q 29.118246 12.38755 29.310746 12.615756 
Q 29.504798 12.843962 29.504798 13.211885 
Q 29.504798 13.598438 29.346452 13.846825 
Q 29.188105 14.095212 28.928851 14.239587 
Q 28.671149 14.383962 28.348246 14.444506 
Q 28.025343 14.503498 27.707097 14.503498 
Q 27.309677 14.503498 26.93244 14.404143 
Q 26.555202 14.304788 26.271109 14.096764 
Q 25.988569 13.887188 25.814698 13.564284 
Q 25.640827 13.241381 25.640827 12.794284 
L 24.746633 12.794284 
Q 24.746633 13.440091 24.979496 13.912026 
Q 25.213911 14.383962 25.615988 14.686683 
Q 26.018065 14.989405 26.548992 15.138438 
Q 27.081472 15.28747 27.677601 15.28747 
Q 28.163508 15.28747 28.655625 15.172591 
Q 29.147742 15.059264 29.545161 14.80622 
Q 29.942581 14.553175 30.195625 14.151099 
Q 30.448669 13.74747 30.448669 13.182389 
Q 30.448669 12.654567 30.254617 12.306825 
Q 30.062117 11.959083 29.739214 11.730877 
Q 29.41631 11.502671 29.008024 11.369163 
Q 28.60129 11.234103 28.179032 11.134748 
Q 27.756774 11.035393 27.348488 10.951563 
Q 26.941754 10.866179 26.618851 10.737329 
Q 26.295948 10.608478 26.101895 10.405111 
Q 25.909395 10.201744 25.909395 9.872631 
Q 25.909395 9.524889 26.042903 9.292026 
Q 26.176411 9.059163 26.39996 8.919446 
Q 26.623508 8.779728 26.912258 8.720736 
Q 27.201008 8.661744 27.499073 8.661744 
Q 28.233367 8.661744 28.705302 9.004829 
Q 29.177238 9.346361 29.256411 10.111704 
z
M 31.422346 9.992167 
L 31.422346 15.129123 
L 32.266862 15.129123 
L 32.266862 12.843962 
Q 32.266862 12.347188 32.366217 11.965292 
Q 32.465571 11.581845 32.684462 11.314829 
Q 32.903354 11.04626 33.26041 10.906542 
Q 33.619019 10.766825 34.125108 10.766825 
L 34.125108 9.872631 
Q 33.440491 9.854002 32.993394 10.152067 
Q 32.546297 10.450131 32.237366 11.075756 
L 32.217184 11.075756 
L 32.217184 9.992167 
L 31.422346 9.992167 
z
" style="stroke: #ffffff; stroke-width: 2.980645"/>
    <path d="M 29.256411 10.111704 
L 30.150605 10.111704 
Q 30.131976 9.524889 29.927056 9.102631 
Q 29.72369 8.680373 29.37129 8.40249 
Q 29.018891 8.124607 28.551613 7.995756 
Q 28.084335 7.866905 27.537883 7.866905 
Q 27.051976 7.866905 26.589355 7.991099 
Q 26.126734 8.115292 25.763468 8.368337 
Q 25.401754 8.621381 25.182863 9.014143 
Q 24.965524 9.406905 24.965524 9.94249 
Q 24.965524 10.42995 25.158024 10.752853 
Q 25.352077 11.075756 25.67498 11.279123 
Q 25.997883 11.48249 26.404617 11.606683 
Q 26.812903 11.730877 27.235161 11.825575 
Q 27.657419 11.920272 28.064153 12.010313 
Q 28.47244 12.0988 28.795343 12.243175 
Q 29.118246 12.38755 29.310746 12.615756 
Q 29.504798 12.843962 29.504798 13.211885 
Q 29.504798 13.598438 29.346452 13.846825 
Q 29.188105 14.095212 28.928851 14.239587 
Q 28.671149 14.383962 28.348246 14.444506 
Q 28.025343 14.503498 27.707097 14.503498 
Q 27.309677 14.503498 26.93244 14.404143 
Q 26.555202 14.304788 26.271109 14.096764 
Q 25.988569 13.887188 25.814698 13.564284 
Q 25.640827 13.241381 25.640827 12.794284 
L 24.746633 12.794284 
Q 24.746633 13.440091 24.979496 13.912026 
Q 25.213911 14.383962 25.615988 14.686683 
Q 26.018065 14.989405 26.548992 15.138438 
Q 27.081472 15.28747 27.677601 15.28747 
Q 28.163508 15.28747 28.655625 15.172591 
Q 29.147742 15.059264 29.545161 14.80622 
Q 29.942581 14.553175 30.195625 14.151099 
Q 30.448669 13.74747 30.448669 13.182389 
Q 30.448669 12.654567 30.254617 12.306825 
Q 30.062117 11.959083 29.739214 11.730877 
Q 29.41631 11.502671 29.008024 11.369163 
Q 28.60129 11.234103 28.179032 11.134748 
Q 27.756774 11.035393 27.348488 10.951563 
Q 26.941754 10.866179 26.618851 10.737329 
Q 26.295948 10.608478 26.101895 10.405111 
Q 25.909395 10.201744 25.909395 9.872631 
Q 25.909395 9.524889 26.042903 9.292026 
Q 26.176411 9.059163 26.39996 8.919446 
Q 26.623508 8.779728 26.912258 8.720736 
Q 27.201008 8.661744 27.499073 8.661744 
Q 28.233367 8.661744 28.705302 9.004829 
Q 29.177238 9.346361 29.256411 10.111704 
z
M 31.422346 9.992167 
L 31.422346 15.129123 
L 32.266862 15.129123 
L 32.266862 12.843962 
Q 32.266862 12.347188 32.366217 11.965292 
Q 32.465571 11.581845 32.684462 11.314829 
Q 32.903354 11.04626 33.26041 10.906542 
Q 33.619019 10.766825 34.125108 10.766825 
L 34.125108 9.872631 
Q 33.440491 9.854002 32.993394 10.152067 
Q 32.546297 10.450131 32.237366 11.075756 
L 32.217184 11.075756 
L 32.217184 9.992167 
L 31.422346 9.992167 
z
"/>
   </g>
   <g id="text_2">
    <path d="M 26.763226 25.222954 
L 26.763226 31.522671 
L 27.707097 31.522671 
L 27.707097 25.222954 
L 30.071431 25.222954 
L 30.071431 24.428115 
L 24.398891 24.428115 
L 24.398891 25.222954 
L 26.763226 25.222954 
z
M 31.612362 25.462026 
L 31.612362 24.428115 
L 30.767846 24.428115 
L 30.767846 25.462026 
L 31.612362 25.462026 
z
M 30.767846 26.385716 
L 30.767846 31.522671 
L 31.612362 31.522671 
L 31.612362 26.385716 
L 30.767846 26.385716 
z
" style="stroke: #ffffff; stroke-width: 2.980645"/>
    <path d="M 26.763226 25.222954 
L 26.763226 31.522671 
L 27.707097 31.522671 
L 27.707097 25.222954 
L 30.071431 25.222954 
L 30.071431 24.428115 
L 24.398891 24.428115 
L 24.398891 25.222954 
L 26.763226 25.222954 
z
M 31.612362 25.462026 
L 31.612362 24.428115 
L 30.767846 24.428115 
L 30.767846 25.462026 
L 31.612362 25.462026 
z
M 30.767846 26.385716 
L 30.767846 31.522671 
L 31.612362 31.522671 
L 31.612362 26.385716 
L 30.767846 26.385716 
z
"/>
   </g>
   <g id="text_3">
    <path d="M 25.699819 44.368942 
Q 25.699819 43.833357 25.837984 43.311744 
Q 25.977702 42.790131 26.275766 42.37253 
Q 26.573831 41.954929 27.041109 41.701885 
Q 27.508387 41.448841 28.154194 41.448841 
Q 28.8 41.448841 29.267278 41.701885 
Q 29.734556 41.954929 30.032621 42.37253 
Q 30.330685 42.790131 30.468851 43.311744 
Q 30.608569 43.833357 30.608569 44.368942 
Q 30.608569 44.906079 30.468851 45.427692 
Q 30.330685 45.949304 30.032621 46.366905 
Q 29.734556 46.782954 29.267278 47.03755 
Q 28.8 47.290595 28.154194 47.290595 
Q 27.508387 47.290595 27.041109 47.03755 
Q 26.573831 46.782954 26.275766 46.366905 
Q 25.977702 45.949304 25.837984 45.427692 
Q 25.699819 44.906079 25.699819 44.368942 
z
M 24.755948 44.368942 
Q 24.755948 45.093921 24.968629 45.764567 
Q 25.182863 46.435212 25.609778 46.952167 
Q 26.038246 47.469123 26.673185 47.771845 
Q 27.309677 48.074567 28.154194 48.074567 
Q 28.99871 48.074567 29.633649 47.771845 
Q 30.270141 47.469123 30.697056 46.952167 
Q 31.125524 46.435212 31.338206 45.764567 
Q 31.55244 45.093921 31.55244 44.368942 
Q 31.55244 43.643962 31.338206 42.973317 
Q 31.125524 42.302671 30.697056 41.785716 
Q 30.270141 41.26876 29.633649 40.961381 
Q 28.99871 40.654002 28.154194 40.654002 
Q 27.309677 40.654002 26.673185 40.961381 
Q 26.038246 41.26876 25.609778 41.785716 
Q 25.182863 42.302671 24.968629 42.973317 
Q 24.755948 43.643962 24.755948 44.368942 
z
" style="stroke: #ffffff; stroke-width: 2.980645"/>
    <path d="M 25.699819 44.368942 
Q 25.699819 43.833357 25.837984 43.311744 
Q 25.977702 42.790131 26.275766 42.37253 
Q 26.573831 41.954929 27.041109 41.701885 
Q 27.508387 41.448841 28.154194 41.448841 
Q 28.8 41.448841 29.267278 41.701885 
Q 29.734556 41.954929 30.032621 42.37253 
Q 30.330685 42.790131 30.468851 43.311744 
Q 30.608569 43.833357 30.608569 44.368942 
Q 30.608569 44.906079 30.468851 45.427692 
Q 30.330685 45.949304 30.032621 46.366905 
Q 29.734556 46.782954 29.267278 47.03755 
Q 28.8 47.290595 28.154194 47.290595 
Q 27.508387 47.290595 27.041109 47.03755 
Q 26.573831 46.782954 26.275766 46.366905 
Q 25.977702 45.949304 25.837984 45.427692 
Q 25.699819 44.906079 25.699819 44.368942 
z
M 24.755948 44.368942 
Q 24.755948 45.093921 24.968629 45.764567 
Q 25.182863 46.435212 25.609778 46.952167 
Q 26.038246 47.469123 26.673185 47.771845 
Q 27.309677 48.074567 28.154194 48.074567 
Q 28.99871 48.074567 29.633649 47.771845 
Q 30.270141 47.469123 30.697056 46.952167 
Q 31.125524 46.435212 31.338206 45.764567 
Q 31.55244 45.093921 31.55244 44.368942 
Q 31.55244 43.643962 31.338206 42.973317 
Q 31.125524 42.302671 30.697056 41.785716 
Q 30.270141 41.26876 29.633649 40.961381 
Q 28.99871 40.654002 28.154194 40.654002 
Q 27.309677 40.654002 26.673185 40.961381 
Q 26.038246 41.26876 25.609778 41.785716 
Q 25.182863 42.302671 24.968629 42.973317 
Q 24.755948 43.643962 24.755948 44.368942 
z
"/>
   </g>
  </g>
 </g>
 <defs>
  <clipPath id="p114ceca5be">
   <rect x="-185.717032" y="-146.764774" width="221.76" height="221.76"/>
  </clipPath>
 </defs>
</svg>
