<?xml version="1.0" encoding="utf-8" standalone="no"?>
<!DOCTYPE svg PUBLIC "-//W3C//DTD SVG 1.1//EN"
  "http://www.w3.org/Graphics/SVG/1.1/DTD/svg11.dtd">
<svg xmlns:xlink="http://www.w3.org/1999/xlink" width="39.6pt" height="57.6pt" viewBox="0 0 39.6 57.6" xmlns="http://www.w3.org/2000/svg" version="1.1">
 <metadata>
  <rdf:RDF xmlns:dc="http://purl.org/dc/elements/1.1/" xmlns:cc="http://creativecommons.org/ns#" xmlns:rdf="http://www.w3.org/1999/02/22-rdf-syntax-ns#">
   <cc:Work>
    <dc:type rdf:resource="http://purl.org/dc/dcmitype/StillImage"/>
    <dc:date>2026-02-22T07:41:24.833255</dc:date>
    <dc:format>image/svg+xml</dc:format>
    <dc:creator>
     <cc:Agent>
      <dc:title>Matplotlib v3.10.7, https://matplotlib.org/</dc:title>
     </cc:Agent>
    </dc:creator>
   </cc:Work>
  </rdf:RDF>
 </metadata>
 <defs>
  <style type="text/css">*{stroke-linejoin: round; stroke-linecap: butt}</style>
 </defs>
 <g id="figure_1">
  <g id="patch_1">
   <path d="M 0 57.6 
L 39.6 57.6 
L 39.6 0 
L 0 0 
z
" style="fill: #ffffff"/>
  </g>
  <g id="axes_1">
   <g id="line2d_1">
    <defs>
     <path id="m08e76ca7fc" d="M 0 4.967742 
C 1.317461 4.967742 2.581139 4.444309 3.512724 3.512724 
C 4.444309 2.581139 4.967742 1.317461 4.967742 0 
C 4.967742 -1.317461 4.444309 -2.581139 3.512724 -3.512724 
C 2.581139 -4.444309 1.317461 -4.967742 0 -4.967742 
C -1.317461 -4.967742 -2.581139 -4.444309 -3.512724 -3.512724 
C -4.444309 -2.581139 -4.967742 -1.317461 -4.967742 0 
C -4.967742 1.317461 -4.444309 2.581139 -3.512724 3.512724 
C -2.581139 4.444309 -1.317461 4.967742 0 4.967742 
z
" style="stroke: #262626; stroke-width: 0.993548"/>
    </defs>
    <g clip-path="url(#pddc899820c)">
     <use xlink:href="#m08e76ca7fc" x="12.456129" y="16.137419" style="fill: #51b04d; stroke: #262626; stroke-width: 0.993548"/>
    </g>
   </g>
   <g id="line2d_2">
    <defs>
     <path id="mab7ed2ee2c" d="M 0 4.967742 
C 1.317461 4.967742 2.581139 4.444309 3.512724 3.512724 
C 4.444309 2.581139 4.967742 1.317461 4.967742 0 
C 4.967742 -1.317461 4.444309 -2.581139 3.512724 -3.512724 
C 2.581139 -4.444309 1.317461 -4.967742 0 -4.967742 
C -1.317461 -4.967742 -2.581139 -4.444309 -3.512724 -3.512724 
C -4.444309 -2.581139 -4.967742 -1.317461 -4.967742 0 
C -4.967742 1.317461 -4.444309 2.581139 -3.512724 3.512724 
C -2.581139 4.444309 -1.317461 4.967742 0 4.967742 
z
" style="stroke: #262626; stroke-width: 0.993548"/>
    </defs>
    <g clip-path="url(#pddc899820c)">
     <use xlink:href="#mab7ed2ee2c" x="12.456129" y="28.556774" style="fill: #477b9d; stroke: #262626; stroke-width: 0.993548"/>
    </g>
   </g>
   <g id="line2d_3">
    <defs>
     <path id="mfae8461bc0" d="M 0 4.967742 
C 1.317461 4.967742 2.581139 4.444309 3.512724 3.512724 
C 4.444309 2.581139 4.967742 1.317461 4.967742 0 
C 4.967742 -1.317461 4.444309 -2.581139 3.512724 -3.512724 
C 2.581139 -4.444309 1.317461 -4.967742 0 -4.967742 
C -1.317461 -4.967742 -2.581139 -4.444309 -3.512724 -3.512724 
C -4.444309 -2.581139 -4.967742 -1.317461 -4.967742 0 
C -4.967742 1.317461 -4.444309 2.581139 -3.512724 3.512724 
C -2.581139 4.444309 -1.317461 4.967742 0 4.967742 
z
" style="stroke: #262626; stroke-width: 0.993548"/>
    </defs>
    <g clip-path="url(#pddc899820c)">
     <use xlink:href="#mfae8461bc0" x="12.456129" y="40.976129" style="fill: #f03f37; stroke: #262626; stroke-width: 0.993548"/>
    </g>
   </g>
   <g id="text_1">
    <path d="M 27.269315 14.582671 
L 28.163508 14.582671 
Q 28.144879 13.995857 27.93996 13.573599 
Q 27.736593 13.151341 27.384194 12.873458 
Q 27.031794 12.595575 26.564516 12.466724 
Q 26.097238 12.337873 25.550786 12.337873 
Q 25.064879 12.337873 24.602258 12.462067 
Q 24.139637 12.58626 23.776371 12.839304 
Q 23.414657 13.092349 23.195766 13.485111 
Q 22.978427 13.877873 22.978427 14.413458 
Q 22.978427 14.900917 23.170927 15.223821 
Q 23.36498 15.546724 23.687883 15.750091 
Q 24.010786 15.953458 24.41752 16.077651 
Q 24.825806 16.201845 25.248065 16.296542 
Q 25.670323 16.39124 26.077056 16.48128 
Q 26.485343 16.569768 26.808246 16.714143 
Q 27.131149 16.858518 27.323649 17.086724 
Q 27.517702 17.314929 27.517702 17.682853 
Q 27.517702 18.069405 27.359355 18.317792 
Q 27.201008 18.566179 26.941754 18.710554 
Q 26.684052 18.854929 26.361149 18.915474 
Q 26.038246 18.974466 25.72 18.974466 
Q 25.322581 18.974466 24.945343 18.875111 
Q 24.568105 18.775756 24.284012 18.567732 
Q 24.001472 18.358155 23.827601 18.035252 
Q 23.65373 17.712349 23.65373 17.265252 
L 22.759536 17.265252 
Q 22.759536 17.911058 22.992399 18.382994 
Q 23.226815 18.854929 23.628891 19.157651 
Q 24.030968 19.460373 24.561895 19.609405 
Q 25.094375 19.758438 25.690504 19.758438 
Q 26.176411 19.758438 26.668528 19.643558 
Q 27.160645 19.530232 27.558065 19.277188 
Q 27.955484 19.024143 28.208528 18.622067 
Q 28.461573 18.218438 28.461573 17.653357 
Q 28.461573 17.125534 28.26752 16.777792 
Q 28.07502 16.43005 27.752117 16.201845 
Q 27.429214 15.973639 27.020927 15.840131 
Q 26.614194 15.705071 26.191935 15.605716 
Q 25.769677 15.506361 25.361391 15.42253 
Q 24.954657 15.337147 24.631754 15.208296 
Q 24.308851 15.079446 24.114798 14.876079 
Q 23.922298 14.672712 23.922298 14.343599 
Q 23.922298 13.995857 24.055806 13.762994 
Q 24.189315 13.530131 24.412863 13.390413 
Q 24.636411 13.250696 24.925161 13.191704 
Q 25.213911 13.132712 25.511976 13.132712 
Q 26.24627 13.132712 26.718206 13.475796 
Q 27.190141 13.817329 27.269315 14.582671 
z
M 29.435249 14.463135 
L 29.435249 19.600091 
L 30.279765 19.600091 
L 30.279765 17.314929 
Q 30.279765 16.818155 30.37912 16.43626 
Q 30.478475 16.052813 30.697366 15.785796 
Q 30.916257 15.517228 31.273313 15.37751 
Q 31.631922 15.237792 32.138011 15.237792 
L 32.138011 14.343599 
Q 31.453394 14.32497 31.006297 14.623034 
Q 30.5592 14.921099 30.250269 15.546724 
L 30.230087 15.546724 
L 30.230087 14.463135 
L 29.435249 14.463135 
z
" style="stroke: #ffffff; stroke-width: 2.980645"/>
    <path d="M 27.269315 14.582671 
L 28.163508 14.582671 
Q 28.144879 13.995857 27.93996 13.573599 
Q 27.736593 13.151341 27.384194 12.873458 
Q 27.031794 12.595575 26.564516 12.466724 
Q 26.097238 12.337873 25.550786 12.337873 
Q 25.064879 12.337873 24.602258 12.462067 
Q 24.139637 12.58626 23.776371 12.839304 
Q 23.414657 13.092349 23.195766 13.485111 
Q 22.978427 13.877873 22.978427 14.413458 
Q 22.978427 14.900917 23.170927 15.223821 
Q 23.36498 15.546724 23.687883 15.750091 
Q 24.010786 15.953458 24.41752 16.077651 
Q 24.825806 16.201845 25.248065 16.296542 
Q 25.670323 16.39124 26.077056 16.48128 
Q 26.485343 16.569768 26.808246 16.714143 
Q 27.131149 16.858518 27.323649 17.086724 
Q 27.517702 17.314929 27.517702 17.682853 
Q 27.517702 18.069405 27.359355 18.317792 
Q 27.201008 18.566179 26.941754 18.710554 
Q 26.684052 18.854929 26.361149 18.915474 
Q 26.038246 18.974466 25.72 18.974466 
Q 25.322581 18.974466 24.945343 18.875111 
Q 24.568105 18.775756 24.284012 18.567732 
Q 24.001472 18.358155 23.827601 18.035252 
Q 23.65373 17.712349 23.65373 17.265252 
L 22.759536 17.265252 
Q 22.759536 17.911058 22.992399 18.382994 
Q 23.226815 18.854929 23.628891 19.157651 
Q 24.030968 19.460373 24.561895 19.609405 
Q 25.094375 19.758438 25.690504 19.758438 
Q 26.176411 19.758438 26.668528 19.643558 
Q 27.160645 19.530232 27.558065 19.277188 
Q 27.955484 19.024143 28.208528 18.622067 
Q 28.461573 18.218438 28.461573 17.653357 
Q 28.461573 17.125534 28.26752 16.777792 
Q 28.07502 16.43005 27.752117 16.201845 
Q 27.429214 15.973639 27.020927 15.840131 
Q 26.614194 15.705071 26.191935 15.605716 
Q 25.769677 15.506361 25.361391 15.42253 
Q 24.954657 15.337147 24.631754 15.208296 
Q 24.308851 15.079446 24.114798 14.876079 
Q 23.922298 14.672712 23.922298 14.343599 
Q 23.922298 13.995857 24.055806 13.762994 
Q 24.189315 13.530131 24.412863 13.390413 
Q 24.636411 13.250696 24.925161 13.191704 
Q 25.213911 13.132712 25.511976 13.132712 
Q 26.24627 13.132712 26.718206 13.475796 
Q 27.190141 13.817329 27.269315 14.582671 
z
M 29.435249 14.463135 
L 29.435249 19.600091 
L 30.279765 19.600091 
L 30.279765 17.314929 
Q 30.279765 16.818155 30.37912 16.43626 
Q 30.478475 16.052813 30.697366 15.785796 
Q 30.916257 15.517228 31.273313 15.37751 
Q 31.631922 15.237792 32.138011 15.237792 
L 32.138011 14.343599 
Q 31.453394 14.32497 31.006297 14.623034 
Q 30.5592 14.921099 30.250269 15.546724 
L 30.230087 15.546724 
L 30.230087 14.463135 
L 29.435249 14.463135 
z
"/>
   </g>
   <g id="text_2">
    <path d="M 24.776129 25.719728 
L 24.776129 32.019446 
L 25.72 32.019446 
L 25.72 25.719728 
L 28.084335 25.719728 
L 28.084335 24.924889 
L 22.411794 24.924889 
L 22.411794 25.719728 
L 24.776129 25.719728 
z
M 29.625266 25.9588 
L 29.625266 24.924889 
L 28.780749 24.924889 
L 28.780749 25.9588 
L 29.625266 25.9588 
z
M 28.780749 26.88249 
L 28.780749 32.019446 
L 29.625266 32.019446 
L 29.625266 26.88249 
L 28.780749 26.88249 
z
" style="stroke: #ffffff; stroke-width: 2.980645"/>
    <path d="M 24.776129 25.719728 
L 24.776129 32.019446 
L 25.72 32.019446 
L 25.72 25.719728 
L 28.084335 25.719728 
L 28.084335 24.924889 
L 22.411794 24.924889 
L 22.411794 25.719728 
L 24.776129 25.719728 
z
M 29.625266 25.9588 
L 29.625266 24.924889 
L 28.780749 24.924889 
L 28.780749 25.9588 
L 29.625266 25.9588 
z
M 28.780749 26.88249 
L 28.780749 32.019446 
L 29.625266 32.019446 
L 29.625266 26.88249 
L 28.780749 26.88249 
z
"/>
   </g>
   <g id="text_3">
    <path d="M 23.712722 40.891522 
Q 23.712722 40.355937 23.850887 39.834325 
Q 23.990605 39.312712 24.288669 38.895111 
Q 24.586734 38.47751 25.054012 38.224466 
Q 25.52129 37.971421 26.167097 37.971421 
Q 26.812903 37.971421 27.280181 38.224466 
Q 27.74746 38.47751 28.045524 38.895111 
Q 28.343589 39.312712 28.481754 39.834325 
Q 28.621472 40.355937 28.621472 40.891522 
Q 28.621472 41.428659 28.481754 41.950272 
Q 28.343589 42.471885 28.045524 42.889486 
Q 27.74746 43.305534 27.280181 43.560131 
Q 26.812903 43.813175 26.167097 43.813175 
Q 25.52129 43.813175 25.054012 43.560131 
Q 24.586734 43.305534 24.288669 42.889486 
Q 23.990605 42.471885 23.850887 41.950272 
Q 23.712722 41.428659 23.712722 40.891522 
z
M 22.768851 40.891522 
Q 22.768851 41.616502 22.981532 42.287147 
Q 23.195766 42.957792 23.622681 43.474748 
Q 24.051149 43.991704 24.686089 44.294425 
Q 25.322581 44.597147 26.167097 44.597147 
Q 27.011613 44.597147 27.646552 44.294425 
Q 28.283044 43.991704 28.70996 43.474748 
Q 29.138427 42.957792 29.351109 42.287147 
Q 29.565343 41.616502 29.565343 40.891522 
Q 29.565343 40.166542 29.351109 39.495897 
Q 29.138427 38.825252 28.70996 38.308296 
Q 28.283044 37.791341 27.646552 37.483962 
Q 27.011613 37.176583 26.167097 37.176583 
Q 25.322581 37.176583 24.686089 37.483962 
Q 24.051149 37.791341 23.622681 38.308296 
Q 23.195766 38.825252 22.981532 39.495897 
Q 22.768851 40.166542 22.768851 40.891522 
z
" style="stroke: #ffffff; stroke-width: 2.980645"/>
    <path d="M 23.712722 40.891522 
Q 23.712722 40.355937 23.850887 39.834325 
Q 23.990605 39.312712 24.288669 38.895111 
Q 24.586734 38.47751 25.054012 38.224466 
Q 25.52129 37.971421 26.167097 37.971421 
Q 26.812903 37.971421 27.280181 38.224466 
Q 27.74746 38.47751 28.045524 38.895111 
Q 28.343589 39.312712 28.481754 39.834325 
Q 28.621472 40.355937 28.621472 40.891522 
Q 28.621472 41.428659 28.481754 41.950272 
Q 28.343589 42.471885 28.045524 42.889486 
Q 27.74746 43.305534 27.280181 43.560131 
Q 26.812903 43.813175 26.167097 43.813175 
Q 25.52129 43.813175 25.054012 43.560131 
Q 24.586734 43.305534 24.288669 42.889486 
Q 23.990605 42.471885 23.850887 41.950272 
Q 23.712722 41.428659 23.712722 40.891522 
z
M 22.768851 40.891522 
Q 22.768851 41.616502 22.981532 42.287147 
Q 23.195766 42.957792 23.622681 43.474748 
Q 24.051149 43.991704 24.686089 44.294425 
Q 25.322581 44.597147 26.167097 44.597147 
Q 27.011613 44.597147 27.646552 44.294425 
Q 28.283044 43.991704 28.70996 43.474748 
Q 29.138427 42.957792 29.351109 42.287147 
Q 29.565343 41.616502 29.565343 40.891522 
Q 29.565343 40.166542 29.351109 39.495897 
Q 29.138427 38.825252 28.70996 38.308296 
Q 28.283044 37.791341 27.646552 37.483962 
Q 27.011613 37.176583 26.167097 37.176583 
Q 25.322581 37.176583 24.686089 37.483962 
Q 24.051149 37.791341 23.622681 38.308296 
Q 23.195766 38.825252 22.981532 39.495897 
Q 22.768851 40.166542 22.768851 40.891522 
z
"/>
   </g>
  </g>
 </g>
 <defs>
  <clipPath id="pddc899820c">
   <rect x="-187.704129" y="-154.216387" width="221.76" height="221.76"/>
  </clipPath>
 </defs>
</svg>
