<?xml version="1.0" encoding="utf-8" standalone="no"?>
<!DOCTYPE svg PUBLIC "-//W3C//DTD SVG 1.1//EN"
  "http://www.w3.org/Graphics/SVG/1.1/DTD/svg11.dtd">
<svg xmlns:xlink="http://www.w3.org/1999/xlink" width="39.6pt" height="57.6pt" viewBox="0 0 39.6 57.6" xmlns="http://www.w3.org/2000/svg" version="1.1">
 <metadata>
  <rdf:RDF xmlns:dc="http://purl.org/dc/elements/1.1/" xmlns:cc="http://creativecommons.org/ns#" xmlns:rdf="http://www.w3.org/1999/02/22-rdf-syntax-ns#">
   <cc:Work>
    <dc:type rdf:resource="http://purl.org/dc/dcmitype/StillImage"/>
    <dc:date>2026-02-24T15:10:49.137193</dc:date>
    <dc:format>image/svg+xml</dc:format>
    <dc:creator>
     <cc:Agent>
      <dc:title>Matplotlib v3.10.7, https://matplotlib.org/</dc:title>
     </cc:Agent>
    </dc:creator>
   </cc:Work>
  </rdf:RDF>
 </metadata>
 <defs>
  <style type="text/css">*{stroke-linejoin: round; stroke-linecap: butt}</style>
 </defs>
 <g id="figure_1">
  <g id="patch_1">
   <path d="M 0 57.6 
L 39.6 57.6 
L 39.6 0 
L 0 0 
z
" style="fill: #ffffff"/>
  </g>
  <g id="axes_1">
   <g id="line2d_1">
    <defs>
     <path id="mc732a1fb55" d="M 0 4.967742 
C 1.317461 4.967742 2.581139 4.444309 3.512724 3.512724 
C 4.444309 2.581139 4.967742 1.317461 4.967742 0 
C 4.967742 -1.317461 4.444309 -2.581139 3.512724 -3.512724 
C 2.581139 -4.444309 1.317461 -4.967742 0 -4.967742 
C -1.317461 -4.967742 -2.581139 -4.444309 -3.512724 -3.512724 
C -4.444309 -2.581139 -4.967742 -1.317461 -4.967742 0 
C -4.967742 1.317461 -4.444309 2.581139 -3.512724 3.512724 
C -2.581139 4.444309 -1.317461 4.967742 0 4.967742 
z
" style="stroke: #262626; stroke-width: 0.993548"/>
    </defs>
    <g clip-path="url(#pe3848b9e91)">
     <use xlink:href="#mc732a1fb55" x="7.289113" y="6.276323" style="fill: #51b04d; stroke: #262626; stroke-width: 0.993548"/>
    </g>
   </g>
   <g id="line2d_2">
    <defs>
     <path id="m6a913fc3e1" d="M 0 4.967742 
C 1.317461 4.967742 2.581139 4.444309 3.512724 3.512724 
C 4.444309 2.581139 4.967742 1.317461 4.967742 0 
C 4.967742 -1.317461 4.444309 -2.581139 3.512724 -3.512724 
C 2.581139 -4.444309 1.317461 -4.967742 0 -4.967742 
C -1.317461 -4.967742 -2.581139 -4.444309 -3.512724 -3.512724 
C -4.444309 -2.581139 -4.967742 -1.317461 -4.967742 0 
C -4.967742 1.317461 -4.444309 2.581139 -3.512724 3.512724 
C -2.581139 4.444309 -1.317461 4.967742 0 4.967742 
z
" style="stroke: #262626; stroke-width: 0.993548"/>
    </defs>
    <g clip-path="url(#pe3848b9e91)">
     <use xlink:href="#m6a913fc3e1" x="7.289113" y="19.440839" style="fill: #477b9d; stroke: #262626; stroke-width: 0.993548"/>
    </g>
   </g>
   <g id="line2d_3">
    <defs>
     <path id="m3f9e4b32d9" d="M 0 4.967742 
C 1.317461 4.967742 2.581139 4.444309 3.512724 3.512724 
C 4.444309 2.581139 4.967742 1.317461 4.967742 0 
C 4.967742 -1.317461 4.444309 -2.581139 3.512724 -3.512724 
C 2.581139 -4.444309 1.317461 -4.967742 0 -4.967742 
C -1.317461 -4.967742 -2.581139 -4.444309 -3.512724 -3.512724 
C -4.444309 -2.581139 -4.967742 -1.317461 -4.967742 0 
C -4.967742 1.317461 -4.444309 2.581139 -3.512724 3.512724 
C -2.581139 4.444309 -1.317461 4.967742 0 4.967742 
z
" style="stroke: #262626; stroke-width: 0.993548"/>
    </defs>
    <g clip-path="url(#pe3848b9e91)">
     <use xlink:href="#m3f9e4b32d9" x="7.289113" y="32.605355" style="fill: #f03f37; stroke: #262626; stroke-width: 0.993548"/>
    </g>
   </g>
   <g id="line2d_4">
    <defs>
     <path id="m9c32f42d3e" d="M 0 -4.967742 
L -4.302191 -2.483871 
L -4.302191 2.483871 
L -0 4.967742 
L 4.302191 2.483871 
L 4.302191 -2.483871 
z
" style="stroke: #262626; stroke-width: 0.993548; stroke-linejoin: miter"/>
    </defs>
    <g clip-path="url(#pe3848b9e91)">
     <use xlink:href="#m9c32f42d3e" x="7.289113" y="50.489226" style="fill: #80b2ff; stroke: #262626; stroke-width: 0.993548; stroke-linejoin: miter"/>
    </g>
   </g>
   <g id="text_1">
    <path d="M 22.102298 4.739427 
L 22.996492 4.739427 
Q 22.977863 4.152613 22.772943 3.730355 
Q 22.569577 3.308097 22.217177 3.030214 
Q 21.864778 2.752331 21.3975 2.62348 
Q 20.930222 2.494629 20.38377 2.494629 
Q 19.897863 2.494629 19.435242 2.618823 
Q 18.972621 2.743016 18.609355 2.99606 
Q 18.247641 3.249105 18.02875 3.641867 
Q 17.811411 4.034629 17.811411 4.570214 
Q 17.811411 5.057673 18.003911 5.380577 
Q 18.197964 5.70348 18.520867 5.906847 
Q 18.84377 6.110214 19.250504 6.234407 
Q 19.65879 6.358601 20.081048 6.453298 
Q 20.503306 6.547996 20.91004 6.638036 
Q 21.318327 6.726524 21.64123 6.870899 
Q 21.964133 7.015274 22.156633 7.24348 
Q 22.350685 7.471685 22.350685 7.839609 
Q 22.350685 8.226161 22.192339 8.474548 
Q 22.033992 8.722935 21.774738 8.86731 
Q 21.517036 9.011685 21.194133 9.07223 
Q 20.87123 9.131222 20.552984 9.131222 
Q 20.155564 9.131222 19.778327 9.031867 
Q 19.401089 8.932512 19.116996 8.724488 
Q 18.834456 8.514911 18.660585 8.192008 
Q 18.486714 7.869105 18.486714 7.422008 
L 17.59252 7.422008 
Q 17.59252 8.067815 17.825383 8.53975 
Q 18.059798 9.011685 18.461875 9.314407 
Q 18.863952 9.617129 19.394879 9.766161 
Q 19.927359 9.915194 20.523488 9.915194 
Q 21.009395 9.915194 21.501512 9.800315 
Q 21.993629 9.686988 22.391048 9.433944 
Q 22.788468 9.180899 23.041512 8.778823 
Q 23.294556 8.375194 23.294556 7.810113 
Q 23.294556 7.28229 23.100504 6.934548 
Q 22.908004 6.586806 22.585101 6.358601 
Q 22.262197 6.130395 21.853911 5.996887 
Q 21.447177 5.861827 21.024919 5.762472 
Q 20.602661 5.663117 20.194375 5.579286 
Q 19.787641 5.493903 19.464738 5.365052 
Q 19.141835 5.236202 18.947782 5.032835 
Q 18.755282 4.829468 18.755282 4.500355 
Q 18.755282 4.152613 18.88879 3.91975 
Q 19.022298 3.686887 19.245847 3.547169 
Q 19.469395 3.407452 19.758145 3.34846 
Q 20.046895 3.289468 20.34496 3.289468 
Q 21.079254 3.289468 21.551189 3.632552 
Q 22.023125 3.974085 22.102298 4.739427 
z
M 24.268233 4.619891 
L 24.268233 9.756847 
L 25.112749 9.756847 
L 25.112749 7.471685 
Q 25.112749 6.974911 25.212104 6.593016 
Q 25.311458 6.209569 25.530349 5.942552 
Q 25.749241 5.673984 26.106297 5.534266 
Q 26.464906 5.394548 26.970995 5.394548 
L 26.970995 4.500355 
Q 26.286378 4.481726 25.839281 4.77979 
Q 25.392184 5.077855 25.083253 5.70348 
L 25.063071 5.70348 
L 25.063071 4.619891 
L 24.268233 4.619891 
z
M 28.400849 5.376385 
L 30.794835 5.376385 
L 30.794835 5.953419 
L 27.576049 5.953419 
L 27.576049 5.376385 
Q 27.966172 4.972135 28.639922 4.291865 
Q 29.314759 3.610508 29.487543 3.41273 
Q 29.816811 3.043254 29.947214 2.786794 
Q 30.078704 2.530335 30.078704 2.282569 
Q 30.078704 1.878319 29.795077 1.624032 
Q 29.51145 1.368659 29.056125 1.368659 
Q 28.733378 1.368659 28.374769 1.480589 
Q 28.017246 1.592518 27.609736 1.820724 
L 27.609736 1.127413 
Q 28.023767 0.961149 28.383462 0.876387 
Q 28.744244 0.791625 29.043085 0.791625 
Q 29.830938 0.791625 30.299303 1.186095 
Q 30.767668 1.579478 30.767668 2.238014 
Q 30.767668 2.550982 30.650305 2.831349 
Q 30.534029 3.110629 30.224321 3.490972 
Q 30.139559 3.589861 29.684234 4.060399 
Q 29.229996 4.530938 28.400849 5.376385 
z
M 34.916302 1.592518 
L 34.916302 3.484452 
L 36.807148 3.484452 
L 36.807148 4.061486 
L 34.916302 4.061486 
L 34.916302 5.953419 
L 34.345788 5.953419 
L 34.345788 4.061486 
L 32.453854 4.061486 
L 32.453854 3.484452 
L 34.345788 3.484452 
L 34.345788 1.592518 
L 34.916302 1.592518 
z
" style="stroke: #ffffff; stroke-width: 2.980645"/>
    <path d="M 22.102298 4.739427 
L 22.996492 4.739427 
Q 22.977863 4.152613 22.772943 3.730355 
Q 22.569577 3.308097 22.217177 3.030214 
Q 21.864778 2.752331 21.3975 2.62348 
Q 20.930222 2.494629 20.38377 2.494629 
Q 19.897863 2.494629 19.435242 2.618823 
Q 18.972621 2.743016 18.609355 2.99606 
Q 18.247641 3.249105 18.02875 3.641867 
Q 17.811411 4.034629 17.811411 4.570214 
Q 17.811411 5.057673 18.003911 5.380577 
Q 18.197964 5.70348 18.520867 5.906847 
Q 18.84377 6.110214 19.250504 6.234407 
Q 19.65879 6.358601 20.081048 6.453298 
Q 20.503306 6.547996 20.91004 6.638036 
Q 21.318327 6.726524 21.64123 6.870899 
Q 21.964133 7.015274 22.156633 7.24348 
Q 22.350685 7.471685 22.350685 7.839609 
Q 22.350685 8.226161 22.192339 8.474548 
Q 22.033992 8.722935 21.774738 8.86731 
Q 21.517036 9.011685 21.194133 9.07223 
Q 20.87123 9.131222 20.552984 9.131222 
Q 20.155564 9.131222 19.778327 9.031867 
Q 19.401089 8.932512 19.116996 8.724488 
Q 18.834456 8.514911 18.660585 8.192008 
Q 18.486714 7.869105 18.486714 7.422008 
L 17.59252 7.422008 
Q 17.59252 8.067815 17.825383 8.53975 
Q 18.059798 9.011685 18.461875 9.314407 
Q 18.863952 9.617129 19.394879 9.766161 
Q 19.927359 9.915194 20.523488 9.915194 
Q 21.009395 9.915194 21.501512 9.800315 
Q 21.993629 9.686988 22.391048 9.433944 
Q 22.788468 9.180899 23.041512 8.778823 
Q 23.294556 8.375194 23.294556 7.810113 
Q 23.294556 7.28229 23.100504 6.934548 
Q 22.908004 6.586806 22.585101 6.358601 
Q 22.262197 6.130395 21.853911 5.996887 
Q 21.447177 5.861827 21.024919 5.762472 
Q 20.602661 5.663117 20.194375 5.579286 
Q 19.787641 5.493903 19.464738 5.365052 
Q 19.141835 5.236202 18.947782 5.032835 
Q 18.755282 4.829468 18.755282 4.500355 
Q 18.755282 4.152613 18.88879 3.91975 
Q 19.022298 3.686887 19.245847 3.547169 
Q 19.469395 3.407452 19.758145 3.34846 
Q 20.046895 3.289468 20.34496 3.289468 
Q 21.079254 3.289468 21.551189 3.632552 
Q 22.023125 3.974085 22.102298 4.739427 
z
M 24.268233 4.619891 
L 24.268233 9.756847 
L 25.112749 9.756847 
L 25.112749 7.471685 
Q 25.112749 6.974911 25.212104 6.593016 
Q 25.311458 6.209569 25.530349 5.942552 
Q 25.749241 5.673984 26.106297 5.534266 
Q 26.464906 5.394548 26.970995 5.394548 
L 26.970995 4.500355 
Q 26.286378 4.481726 25.839281 4.77979 
Q 25.392184 5.077855 25.083253 5.70348 
L 25.063071 5.70348 
L 25.063071 4.619891 
L 24.268233 4.619891 
z
M 28.400849 5.376385 
L 30.794835 5.376385 
L 30.794835 5.953419 
L 27.576049 5.953419 
L 27.576049 5.376385 
Q 27.966172 4.972135 28.639922 4.291865 
Q 29.314759 3.610508 29.487543 3.41273 
Q 29.816811 3.043254 29.947214 2.786794 
Q 30.078704 2.530335 30.078704 2.282569 
Q 30.078704 1.878319 29.795077 1.624032 
Q 29.51145 1.368659 29.056125 1.368659 
Q 28.733378 1.368659 28.374769 1.480589 
Q 28.017246 1.592518 27.609736 1.820724 
L 27.609736 1.127413 
Q 28.023767 0.961149 28.383462 0.876387 
Q 28.744244 0.791625 29.043085 0.791625 
Q 29.830938 0.791625 30.299303 1.186095 
Q 30.767668 1.579478 30.767668 2.238014 
Q 30.767668 2.550982 30.650305 2.831349 
Q 30.534029 3.110629 30.224321 3.490972 
Q 30.139559 3.589861 29.684234 4.060399 
Q 29.229996 4.530938 28.400849 5.376385 
z
M 34.916302 1.592518 
L 34.916302 3.484452 
L 36.807148 3.484452 
L 36.807148 4.061486 
L 34.916302 4.061486 
L 34.916302 5.953419 
L 34.345788 5.953419 
L 34.345788 4.061486 
L 32.453854 4.061486 
L 32.453854 3.484452 
L 34.345788 3.484452 
L 34.345788 1.592518 
L 34.916302 1.592518 
z
"/>
   </g>
   <g id="text_2">
    <path d="M 19.609113 16.603792 
L 19.609113 22.90351 
L 20.552984 22.90351 
L 20.552984 16.603792 
L 22.917318 16.603792 
L 22.917318 15.808954 
L 17.244778 15.808954 
L 17.244778 16.603792 
L 19.609113 16.603792 
z
M 24.458249 16.842865 
L 24.458249 15.808954 
L 23.613733 15.808954 
L 23.613733 16.842865 
L 24.458249 16.842865 
z
M 23.613733 17.766554 
L 23.613733 22.90351 
L 24.458249 22.90351 
L 24.458249 17.766554 
L 23.613733 17.766554 
z
" style="stroke: #ffffff; stroke-width: 2.980645"/>
    <path d="M 19.609113 16.603792 
L 19.609113 22.90351 
L 20.552984 22.90351 
L 20.552984 16.603792 
L 22.917318 16.603792 
L 22.917318 15.808954 
L 17.244778 15.808954 
L 17.244778 16.603792 
L 19.609113 16.603792 
z
M 24.458249 16.842865 
L 24.458249 15.808954 
L 23.613733 15.808954 
L 23.613733 16.842865 
L 24.458249 16.842865 
z
M 23.613733 17.766554 
L 23.613733 22.90351 
L 24.458249 22.90351 
L 24.458249 17.766554 
L 23.613733 17.766554 
z
"/>
   </g>
   <g id="text_3">
    <path d="M 18.545706 32.520748 
Q 18.545706 31.985163 18.683871 31.46355 
Q 18.823589 30.941938 19.121653 30.524337 
Q 19.419718 30.106736 19.886996 29.853692 
Q 20.354274 29.600647 21.000081 29.600647 
Q 21.645887 29.600647 22.113165 29.853692 
Q 22.580443 30.106736 22.878508 30.524337 
Q 23.176572 30.941938 23.314738 31.46355 
Q 23.454456 31.985163 23.454456 32.520748 
Q 23.454456 33.057885 23.314738 33.579498 
Q 23.176572 34.101111 22.878508 34.518712 
Q 22.580443 34.93476 22.113165 35.189357 
Q 21.645887 35.442401 21.000081 35.442401 
Q 20.354274 35.442401 19.886996 35.189357 
Q 19.419718 34.93476 19.121653 34.518712 
Q 18.823589 34.101111 18.683871 33.579498 
Q 18.545706 33.057885 18.545706 32.520748 
z
M 17.601835 32.520748 
Q 17.601835 33.245728 17.814516 33.916373 
Q 18.02875 34.587018 18.455665 35.103974 
Q 18.884133 35.620929 19.519072 35.923651 
Q 20.155564 36.226373 21.000081 36.226373 
Q 21.844597 36.226373 22.479536 35.923651 
Q 23.116028 35.620929 23.542943 35.103974 
Q 23.971411 34.587018 24.184093 33.916373 
Q 24.398327 33.245728 24.398327 32.520748 
Q 24.398327 31.795768 24.184093 31.125123 
Q 23.971411 30.454478 23.542943 29.937522 
Q 23.116028 29.420567 22.479536 29.113188 
Q 21.844597 28.805808 21.000081 28.805808 
Q 20.155564 28.805808 19.519072 29.113188 
Q 18.884133 29.420567 18.455665 29.937522 
Q 18.02875 30.454478 17.814516 31.125123 
Q 17.601835 31.795768 17.601835 32.520748 
z
" style="stroke: #ffffff; stroke-width: 2.980645"/>
    <path d="M 18.545706 32.520748 
Q 18.545706 31.985163 18.683871 31.46355 
Q 18.823589 30.941938 19.121653 30.524337 
Q 19.419718 30.106736 19.886996 29.853692 
Q 20.354274 29.600647 21.000081 29.600647 
Q 21.645887 29.600647 22.113165 29.853692 
Q 22.580443 30.106736 22.878508 30.524337 
Q 23.176572 30.941938 23.314738 31.46355 
Q 23.454456 31.985163 23.454456 32.520748 
Q 23.454456 33.057885 23.314738 33.579498 
Q 23.176572 34.101111 22.878508 34.518712 
Q 22.580443 34.93476 22.113165 35.189357 
Q 21.645887 35.442401 21.000081 35.442401 
Q 20.354274 35.442401 19.886996 35.189357 
Q 19.419718 34.93476 19.121653 34.518712 
Q 18.823589 34.101111 18.683871 33.579498 
Q 18.545706 33.057885 18.545706 32.520748 
z
M 17.601835 32.520748 
Q 17.601835 33.245728 17.814516 33.916373 
Q 18.02875 34.587018 18.455665 35.103974 
Q 18.884133 35.620929 19.519072 35.923651 
Q 20.155564 36.226373 21.000081 36.226373 
Q 21.844597 36.226373 22.479536 35.923651 
Q 23.116028 35.620929 23.542943 35.103974 
Q 23.971411 34.587018 24.184093 33.916373 
Q 24.398327 33.245728 24.398327 32.520748 
Q 24.398327 31.795768 24.184093 31.125123 
Q 23.971411 30.454478 23.542943 29.937522 
Q 23.116028 29.420567 22.479536 29.113188 
Q 21.844597 28.805808 21.000081 28.805808 
Q 20.155564 28.805808 19.519072 29.113188 
Q 18.884133 29.420567 18.455665 29.937522 
Q 18.02875 30.454478 17.814516 31.125123 
Q 17.601835 31.795768 17.601835 32.520748 
z
"/>
   </g>
   <g id="text_4">
    <path d="M 19.609113 47.606383 
L 19.609113 53.906101 
L 20.552984 53.906101 
L 20.552984 47.606383 
L 22.917318 47.606383 
L 22.917318 46.811544 
L 17.244778 46.811544 
L 17.244778 47.606383 
L 19.609113 47.606383 
z
M 24.458249 47.845456 
L 24.458249 46.811544 
L 23.613733 46.811544 
L 23.613733 47.845456 
L 24.458249 47.845456 
z
M 23.613733 48.769145 
L 23.613733 53.906101 
L 24.458249 53.906101 
L 24.458249 48.769145 
L 23.613733 48.769145 
z
M 26.45435 50.358823 
Q 26.45435 49.823238 26.592515 49.301625 
Q 26.732233 48.780012 27.030297 48.362411 
Q 27.328362 47.94481 27.79564 47.691766 
Q 28.262918 47.438722 28.908725 47.438722 
Q 29.554531 47.438722 30.021809 47.691766 
Q 30.489088 47.94481 30.787152 48.362411 
Q 31.085217 48.780012 31.223382 49.301625 
Q 31.3631 49.823238 31.3631 50.358823 
Q 31.3631 50.89596 31.223382 51.417573 
Q 31.085217 51.939185 30.787152 52.356786 
Q 30.489088 52.772835 30.021809 53.027431 
Q 29.554531 53.280476 28.908725 53.280476 
Q 28.262918 53.280476 27.79564 53.027431 
Q 27.328362 52.772835 27.030297 52.356786 
Q 26.732233 51.939185 26.592515 51.417573 
Q 26.45435 50.89596 26.45435 50.358823 
z
M 25.510479 50.358823 
Q 25.510479 51.083802 25.72316 51.754448 
Q 25.937394 52.425093 26.364309 52.942048 
Q 26.792777 53.459004 27.427717 53.761726 
Q 28.064209 54.064448 28.908725 54.064448 
Q 29.753241 54.064448 30.38818 53.761726 
Q 31.024672 53.459004 31.451588 52.942048 
Q 31.880055 52.425093 32.092737 51.754448 
Q 32.306971 51.083802 32.306971 50.358823 
Q 32.306971 49.633843 32.092737 48.963198 
Q 31.880055 48.292552 31.451588 47.775597 
Q 31.024672 47.258641 30.38818 46.951262 
Q 29.753241 46.643883 28.908725 46.643883 
Q 28.064209 46.643883 27.427717 46.951262 
Q 26.792777 47.258641 26.364309 47.775597 
Q 25.937394 48.292552 25.72316 48.963198 
Q 25.510479 49.633843 25.510479 50.358823 
z
M 35.075476 52.728125 
Q 34.613632 52.728125 34.343045 53.044353 
Q 34.073545 53.359494 34.073545 53.909361 
Q 34.073545 54.455968 34.343045 54.774369 
Q 34.613632 55.091683 35.075476 55.091683 
Q 35.537321 55.091683 35.806821 54.774369 
Q 36.076321 54.455968 36.076321 53.909361 
Q 36.076321 53.359494 35.806821 53.044353 
Q 35.537321 52.728125 35.075476 52.728125 
z
M 36.437103 50.577558 
L 36.437103 51.202407 
Q 36.17847 51.080698 35.91549 51.016583 
Q 35.652511 50.951381 35.393878 50.951381 
Q 34.714694 50.951381 34.356085 51.409966 
Q 33.998563 51.86855 33.947488 52.7955 
Q 34.14744 52.499919 34.449541 52.342349 
Q 34.752728 52.184778 35.115684 52.184778 
Q 35.87963 52.184778 36.323 52.648796 
Q 36.766371 53.111728 36.766371 53.909361 
Q 36.766371 54.690694 36.304527 55.163405 
Q 35.842682 55.63503 35.075476 55.63503 
Q 34.195255 55.63503 33.73015 54.96128 
Q 33.265045 54.286444 33.265045 53.006319 
Q 33.265045 51.804435 33.835559 51.089391 
Q 34.406073 50.374347 35.36671 50.374347 
Q 35.625343 50.374347 35.888323 50.425421 
Q 36.151303 50.476496 36.437103 50.577558 
z
" style="stroke: #ffffff; stroke-width: 2.980645"/>
    <path d="M 19.609113 47.606383 
L 19.609113 53.906101 
L 20.552984 53.906101 
L 20.552984 47.606383 
L 22.917318 47.606383 
L 22.917318 46.811544 
L 17.244778 46.811544 
L 17.244778 47.606383 
L 19.609113 47.606383 
z
M 24.458249 47.845456 
L 24.458249 46.811544 
L 23.613733 46.811544 
L 23.613733 47.845456 
L 24.458249 47.845456 
z
M 23.613733 48.769145 
L 23.613733 53.906101 
L 24.458249 53.906101 
L 24.458249 48.769145 
L 23.613733 48.769145 
z
M 26.45435 50.358823 
Q 26.45435 49.823238 26.592515 49.301625 
Q 26.732233 48.780012 27.030297 48.362411 
Q 27.328362 47.94481 27.79564 47.691766 
Q 28.262918 47.438722 28.908725 47.438722 
Q 29.554531 47.438722 30.021809 47.691766 
Q 30.489088 47.94481 30.787152 48.362411 
Q 31.085217 48.780012 31.223382 49.301625 
Q 31.3631 49.823238 31.3631 50.358823 
Q 31.3631 50.89596 31.223382 51.417573 
Q 31.085217 51.939185 30.787152 52.356786 
Q 30.489088 52.772835 30.021809 53.027431 
Q 29.554531 53.280476 28.908725 53.280476 
Q 28.262918 53.280476 27.79564 53.027431 
Q 27.328362 52.772835 27.030297 52.356786 
Q 26.732233 51.939185 26.592515 51.417573 
Q 26.45435 50.89596 26.45435 50.358823 
z
M 25.510479 50.358823 
Q 25.510479 51.083802 25.72316 51.754448 
Q 25.937394 52.425093 26.364309 52.942048 
Q 26.792777 53.459004 27.427717 53.761726 
Q 28.064209 54.064448 28.908725 54.064448 
Q 29.753241 54.064448 30.38818 53.761726 
Q 31.024672 53.459004 31.451588 52.942048 
Q 31.880055 52.425093 32.092737 51.754448 
Q 32.306971 51.083802 32.306971 50.358823 
Q 32.306971 49.633843 32.092737 48.963198 
Q 31.880055 48.292552 31.451588 47.775597 
Q 31.024672 47.258641 30.38818 46.951262 
Q 29.753241 46.643883 28.908725 46.643883 
Q 28.064209 46.643883 27.427717 46.951262 
Q 26.792777 47.258641 26.364309 47.775597 
Q 25.937394 48.292552 25.72316 48.963198 
Q 25.510479 49.633843 25.510479 50.358823 
z
M 35.075476 52.728125 
Q 34.613632 52.728125 34.343045 53.044353 
Q 34.073545 53.359494 34.073545 53.909361 
Q 34.073545 54.455968 34.343045 54.774369 
Q 34.613632 55.091683 35.075476 55.091683 
Q 35.537321 55.091683 35.806821 54.774369 
Q 36.076321 54.455968 36.076321 53.909361 
Q 36.076321 53.359494 35.806821 53.044353 
Q 35.537321 52.728125 35.075476 52.728125 
z
M 36.437103 50.577558 
L 36.437103 51.202407 
Q 36.17847 51.080698 35.91549 51.016583 
Q 35.652511 50.951381 35.393878 50.951381 
Q 34.714694 50.951381 34.356085 51.409966 
Q 33.998563 51.86855 33.947488 52.7955 
Q 34.14744 52.499919 34.449541 52.342349 
Q 34.752728 52.184778 35.115684 52.184778 
Q 35.87963 52.184778 36.323 52.648796 
Q 36.766371 53.111728 36.766371 53.909361 
Q 36.766371 54.690694 36.304527 55.163405 
Q 35.842682 55.63503 35.075476 55.63503 
Q 34.195255 55.63503 33.73015 54.96128 
Q 33.265045 54.286444 33.265045 53.006319 
Q 33.265045 51.804435 33.835559 51.089391 
Q 34.406073 50.374347 35.36671 50.374347 
Q 35.625343 50.374347 35.888323 50.425421 
Q 36.151303 50.476496 36.437103 50.577558 
z
"/>
   </g>
  </g>
 </g>
 <defs>
  <clipPath id="pe3848b9e91">
   <rect x="-192.871145" y="-144.70329" width="221.76" height="221.76"/>
  </clipPath>
 </defs>
</svg>
