<?xml version="1.0" encoding="utf-8" standalone="no"?>
<!DOCTYPE svg PUBLIC "-//W3C//DTD SVG 1.1//EN"
  "http://www.w3.org/Graphics/SVG/1.1/DTD/svg11.dtd">
<svg xmlns:xlink="http://www.w3.org/1999/xlink" width="86.4pt" height="57.6pt" viewBox="0 0 86.4 57.6" xmlns="http://www.w3.org/2000/svg" version="1.1">
 <metadata>
  <rdf:RDF xmlns:dc="http://purl.org/dc/elements/1.1/" xmlns:cc="http://creativecommons.org/ns#" xmlns:rdf="http://www.w3.org/1999/02/22-rdf-syntax-ns#">
   <cc:Work>
    <dc:type rdf:resource="http://purl.org/dc/dcmitype/StillImage"/>
    <dc:date>2026-02-25T15:41:56.606721</dc:date>
    <dc:format>image/svg+xml</dc:format>
    <dc:creator>
     <cc:Agent>
      <dc:title>Matplotlib v3.10.7, https://matplotlib.org/</dc:title>
     </cc:Agent>
    </dc:creator>
   </cc:Work>
  </rdf:RDF>
 </metadata>
 <defs>
  <style type="text/css">*{stroke-linejoin: round; stroke-linecap: butt}</style>
 </defs>
 <g id="figure_1">
  <g id="patch_1">
   <path d="M 0 57.6 
L 86.4 57.6 
L 86.4 0 
L 0 0 
z
" style="fill: #ffffff"/>
  </g>
  <g id="axes_1">
   <g id="PolyCollection_1">
    <path d="M 21.205838 11.425713 
L 17.898122 27.269941 
L 5.241636 16.464413 
z
" clip-path="url(#p084d2d4336)" style="fill: #7caef9; fill-opacity: 0.4; stroke: #262626; stroke-width: 0.993548"/>
    <path d="M 12.117962 5.658885 
L 21.205838 11.425713 
L 5.241636 16.464413 
z
" clip-path="url(#p084d2d4336)" style="fill: #5e83bc; fill-opacity: 0.4; stroke: #262626; stroke-width: 0.993548"/>
    <path d="M 21.205838 11.425713 
L 17.898122 27.269941 
L 24.774448 16.464413 
z
" clip-path="url(#p084d2d4336)" style="fill: #4a6793; fill-opacity: 0.4; stroke: #262626; stroke-width: 0.993548"/>
    <path d="M 8.810246 21.503113 
L 17.898122 27.269941 
L 5.241636 16.464413 
z
" clip-path="url(#p084d2d4336)" style="fill: #3b5276; fill-opacity: 0.4; stroke: #262626; stroke-width: 0.993548"/>
    <path d="M 12.117962 5.658885 
L 21.205838 11.425713 
L 24.774448 16.464413 
z
" clip-path="url(#p084d2d4336)" style="fill: #3b5276; fill-opacity: 0.4; stroke: #262626; stroke-width: 0.993548"/>
    <path d="M 12.117962 5.658885 
L 8.810246 21.503113 
L 5.241636 16.464413 
z
" clip-path="url(#p084d2d4336)" style="fill: #4a6793; fill-opacity: 0.4; stroke: #262626; stroke-width: 0.993548"/>
    <path d="M 8.810246 21.503113 
L 17.898122 27.269941 
L 24.774448 16.464413 
z
" clip-path="url(#p084d2d4336)" style="fill: #5e83bc; fill-opacity: 0.4; stroke: #262626; stroke-width: 0.993548"/>
    <path d="M 12.117962 5.658885 
L 8.810246 21.503113 
L 24.774448 16.464413 
z
" clip-path="url(#p084d2d4336)" style="fill: #7caef9; fill-opacity: 0.4; stroke: #262626; stroke-width: 0.993548"/>
   </g>
   <g id="PolyCollection_2">
    <path d="M 7.459694 51.941115 
L 25.893567 46.122925 
L 11.279115 33.645776 
z
" clip-path="url(#p084d2d4336)" style="fill: #d4a2d4; fill-opacity: 0.4; stroke: #262626; stroke-width: 0.993548"/>
    <path d="M 25.893567 46.122925 
L 15.399792 39.463966 
L 11.279115 33.645776 
z
" clip-path="url(#p084d2d4336)" style="fill: #644c64; fill-opacity: 0.4; stroke: #262626; stroke-width: 0.993548"/>
    <path d="M 7.459694 51.941115 
L 15.399792 39.463966 
L 11.279115 33.645776 
z
" clip-path="url(#p084d2d4336)" style="fill: #7d607d; fill-opacity: 0.4; stroke: #262626; stroke-width: 0.993548"/>
    <path d="M 7.459694 51.941115 
L 25.893567 46.122925 
L 15.399792 39.463966 
z
" clip-path="url(#p084d2d4336)" style="fill: #a07aa0; fill-opacity: 0.4; stroke: #262626; stroke-width: 0.993548"/>
   </g>
   <g id="text_1">
    <path d="M 33.219473 16.379806 
Q 33.219473 15.844222 33.357639 15.322609 
Q 33.497356 14.800996 33.795421 14.383395 
Q 34.093485 13.965794 34.560764 13.71275 
Q 35.028042 13.459705 35.673848 13.459705 
Q 36.319655 13.459705 36.786933 13.71275 
Q 37.254211 13.965794 37.552276 14.383395 
Q 37.85034 14.800996 37.988506 15.322609 
Q 38.128223 15.844222 38.128223 16.379806 
Q 38.128223 16.916943 37.988506 17.438556 
Q 37.85034 17.960169 37.552276 18.37777 
Q 37.254211 18.793818 36.786933 19.048415 
Q 36.319655 19.301459 35.673848 19.301459 
Q 35.028042 19.301459 34.560764 19.048415 
Q 34.093485 18.793818 33.795421 18.37777 
Q 33.497356 17.960169 33.357639 17.438556 
Q 33.219473 16.916943 33.219473 16.379806 
z
M 32.275602 16.379806 
Q 32.275602 17.104786 32.488284 17.775431 
Q 32.702518 18.446076 33.129433 18.963032 
Q 33.557901 19.479988 34.19284 19.782709 
Q 34.829332 20.085431 35.673848 20.085431 
Q 36.518364 20.085431 37.153304 19.782709 
Q 37.789796 19.479988 38.216711 18.963032 
Q 38.645179 18.446076 38.85786 17.775431 
Q 39.072094 17.104786 39.072094 16.379806 
Q 39.072094 15.654826 38.85786 14.984181 
Q 38.645179 14.313536 38.216711 13.79658 
Q 37.789796 13.279625 37.153304 12.972246 
Q 36.518364 12.664867 35.673848 12.664867 
Q 34.829332 12.664867 34.19284 12.972246 
Q 33.557901 13.279625 33.129433 13.79658 
Q 32.702518 14.313536 32.488284 14.984181 
Q 32.275602 15.654826 32.275602 16.379806 
z
M 43.572556 16.440351 
L 44.446569 16.440351 
Q 44.396891 15.982387 44.207496 15.650169 
Q 44.019653 15.316399 43.726246 15.09906 
Q 43.432839 14.880169 43.050944 14.776157 
Q 42.669048 14.670592 42.231266 14.670592 
Q 41.625823 14.670592 41.167859 14.884826 
Q 40.711448 15.09906 40.407173 15.471641 
Q 40.104452 15.844222 39.955419 16.345653 
Q 39.806387 16.847084 39.806387 17.423032 
Q 39.806387 17.99898 39.960077 18.481782 
Q 40.115319 18.963032 40.41804 19.310774 
Q 40.720762 19.658516 41.172516 19.847911 
Q 41.625823 20.035754 42.211085 20.035754 
Q 43.195319 20.035754 43.766609 19.520351 
Q 44.337899 19.003395 44.476065 18.048657 
L 43.612919 18.048657 
Q 43.532194 18.644786 43.179794 18.973899 
Q 42.827395 19.301459 42.20177 19.301459 
Q 41.804351 19.301459 41.515601 19.143113 
Q 41.228403 18.983213 41.048323 18.720855 
Q 40.869794 18.456943 40.784411 18.120068 
Q 40.700581 17.781641 40.700581 17.423032 
Q 40.700581 17.03648 40.779754 16.673213 
Q 40.86048 16.309947 41.043665 16.032064 
Q 41.228403 15.754181 41.535782 15.584967 
Q 41.843161 15.415754 42.301125 15.415754 
Q 42.83671 15.415754 43.154956 15.684322 
Q 43.473202 15.952891 43.572556 16.440351 
z
M 46.593254 14.790129 
L 46.593254 13.250129 
L 45.748738 13.250129 
L 45.748738 14.790129 
L 44.874726 14.790129 
L 44.874726 15.53529 
L 45.748738 15.53529 
L 45.748738 18.804685 
Q 45.748738 19.161742 45.817044 19.380633 
Q 45.886903 19.599524 46.031278 19.71906 
Q 46.175653 19.837044 46.408516 19.882064 
Q 46.642931 19.927084 46.970492 19.927084 
L 47.616298 19.927084 
L 47.616298 19.181923 
L 47.228193 19.181923 
Q 47.029484 19.181923 46.90529 19.167951 
Q 46.781096 19.152427 46.711238 19.10275 
Q 46.642931 19.053072 46.618092 18.964584 
Q 46.593254 18.874544 46.593254 18.725512 
L 46.593254 15.53529 
L 47.616298 15.53529 
L 47.616298 14.790129 
L 46.593254 14.790129 
z
M 53.100994 19.906903 
Q 52.882103 20.035754 52.493998 20.035754 
Q 52.166438 20.035754 51.972385 19.852568 
Q 51.779885 19.669383 51.779885 19.251782 
Q 51.432143 19.669383 50.969522 19.852568 
Q 50.506901 20.035754 49.971317 20.035754 
Q 49.623575 20.035754 49.309986 19.95658 
Q 48.99795 19.877407 48.768192 19.708193 
Q 48.539986 19.53898 48.404926 19.265754 
Q 48.271418 18.992528 48.271418 18.605976 
Q 48.271418 18.168193 48.42045 17.89031 
Q 48.569482 17.612427 48.813212 17.438556 
Q 49.056942 17.264685 49.368978 17.176197 
Q 49.682567 17.086157 50.010127 17.025613 
Q 50.357869 16.955754 50.671458 16.921601 
Q 50.985047 16.887447 51.222567 16.822246 
Q 51.461639 16.757044 51.599805 16.632851 
Q 51.739522 16.508657 51.739522 16.271137 
Q 51.739522 15.993254 51.63551 15.82404 
Q 51.531498 15.654826 51.366942 15.566338 
Q 51.202385 15.476298 50.999018 15.446802 
Q 50.795651 15.415754 50.596942 15.415754 
Q 50.059805 15.415754 49.702748 15.620673 
Q 49.345692 15.82404 49.314643 16.390673 
L 48.470127 16.390673 
Q 48.490309 15.912528 48.668837 15.584967 
Q 48.848918 15.257407 49.146982 15.05404 
Q 49.445047 14.850673 49.826942 14.760633 
Q 50.208837 14.670592 50.646619 14.670592 
Q 50.994361 14.670592 51.337446 14.72027 
Q 51.68053 14.769947 51.958414 14.925189 
Q 52.236297 15.078879 52.40551 15.356762 
Q 52.574724 15.634645 52.574724 16.081742 
L 52.574724 18.725512 
Q 52.574724 19.023576 52.608877 19.163294 
Q 52.64303 19.301459 52.84174 19.301459 
Q 52.951962 19.301459 53.100994 19.251782 
L 53.100994 19.906903 
z
M 51.730208 17.274 
Q 51.570309 17.393536 51.311055 17.447871 
Q 51.053353 17.502205 50.770813 17.537911 
Q 50.488272 17.572064 50.199522 17.617084 
Q 49.910772 17.662105 49.682567 17.761459 
Q 49.454361 17.860814 49.309986 18.045552 
Q 49.165611 18.228738 49.165611 18.545431 
Q 49.165611 18.755008 49.249442 18.899383 
Q 49.334825 19.042205 49.468333 19.132246 
Q 49.603393 19.222286 49.781922 19.262649 
Q 49.96045 19.301459 50.159159 19.301459 
Q 50.57676 19.301459 50.874825 19.188133 
Q 51.172889 19.073254 51.360732 18.899383 
Q 51.550127 18.725512 51.640168 18.522145 
Q 51.730208 18.317226 51.730208 18.138697 
L 51.730208 17.274 
z
M 53.886208 12.832528 
L 53.886208 19.927084 
L 54.730724 19.927084 
L 54.730724 17.025613 
Q 54.730724 16.677871 54.823869 16.386016 
Q 54.918566 16.092609 55.106409 15.873717 
Q 55.295804 15.654826 55.578345 15.53529 
Q 55.862437 15.415754 56.250542 15.415754 
Q 56.73645 15.415754 57.014333 15.695189 
Q 57.293768 15.973072 57.293768 16.449665 
L 57.293768 19.927084 
L 58.138284 19.927084 
L 58.138284 16.54902 
Q 58.138284 16.131419 58.052901 15.789887 
Q 57.96907 15.446802 57.759494 15.198415 
Q 57.55147 14.950028 57.213042 14.81031 
Q 56.876167 14.670592 56.370079 14.670592 
Q 56.14032 14.670592 55.896591 14.72027 
Q 55.654413 14.769947 55.430865 14.875512 
Q 55.207316 14.979524 55.027236 15.14408 
Q 54.848708 15.307084 54.749353 15.546157 
L 54.730724 15.546157 
L 54.730724 12.832528 
L 53.886208 12.832528 
z
M 62.976243 16.867266 
L 60.025094 16.867266 
Q 60.045275 16.569201 60.153945 16.306842 
Q 60.264166 16.042931 60.452009 15.844222 
Q 60.641404 15.645512 60.903763 15.530633 
Q 61.167674 15.415754 61.496787 15.415754 
Q 61.813481 15.415754 62.077392 15.530633 
Q 62.341303 15.645512 62.533803 15.839564 
Q 62.727856 16.032064 62.841182 16.300633 
Q 62.956062 16.569201 62.976243 16.867266 
z
M 63.791263 18.297044 
L 62.956062 18.297044 
Q 62.847392 18.804685 62.504307 19.053072 
Q 62.161223 19.301459 61.625638 19.301459 
Q 61.208037 19.301459 60.899106 19.163294 
Q 60.591727 19.023576 60.393017 18.790713 
Q 60.194307 18.556298 60.104267 18.253576 
Q 60.015779 17.949302 60.025094 17.612427 
L 63.870437 17.612427 
Q 63.890618 17.145149 63.786606 16.628193 
Q 63.682594 16.111238 63.409368 15.675008 
Q 63.136142 15.237226 62.682836 14.954685 
Q 62.231082 14.670592 61.546465 14.670592 
Q 61.018642 14.670592 60.576203 14.869302 
Q 60.135316 15.068012 59.812412 15.426621 
Q 59.489509 15.783677 59.309428 16.271137 
Q 59.1309 16.757044 59.1309 17.343859 
Q 59.151082 17.930673 59.304771 18.427447 
Q 59.460013 18.924222 59.767392 19.281278 
Q 60.074771 19.638334 60.526525 19.837044 
Q 60.979832 20.035754 61.596142 20.035754 
Q 62.470154 20.035754 63.046102 19.599524 
Q 63.622049 19.161742 63.791263 18.297044 
z
M 65.360448 17.402851 
Q 65.360448 17.025613 65.439622 16.668556 
Q 65.520347 16.309947 65.698876 16.032064 
Q 65.877404 15.754181 66.175468 15.584967 
Q 66.473533 15.415754 66.900448 15.415754 
Q 67.338231 15.415754 67.64561 15.58031 
Q 67.954541 15.744867 68.147041 16.013435 
Q 68.341093 16.280451 68.431134 16.634403 
Q 68.521174 16.986802 68.521174 17.36404 
Q 68.521174 17.721097 68.435791 18.068838 
Q 68.35196 18.41658 68.162565 18.689806 
Q 67.974722 18.963032 67.676658 19.132246 
Q 67.378593 19.301459 66.950126 19.301459 
Q 66.543392 19.301459 66.24067 19.143113 
Q 65.937948 18.983213 65.743896 18.714645 
Q 65.549843 18.446076 65.455146 18.104544 
Q 65.360448 17.761459 65.360448 17.402851 
z
M 69.334642 19.927084 
L 69.334642 12.832528 
L 68.490126 12.832528 
L 68.490126 15.476298 
L 68.471497 15.476298 
Q 68.331779 15.248092 68.128412 15.094403 
Q 67.925045 14.939161 67.695287 14.846016 
Q 67.467081 14.751318 67.238876 14.710955 
Q 67.01067 14.670592 66.81196 14.670592 
Q 66.225146 14.670592 65.782706 14.884826 
Q 65.341819 15.09906 65.048412 15.462326 
Q 64.755005 15.82404 64.61063 16.3115 
Q 64.466255 16.797407 64.466255 17.343859 
Q 64.466255 17.89031 64.615287 18.37777 
Q 64.764319 18.863677 65.057727 19.231601 
Q 65.351134 19.599524 65.793573 19.818415 
Q 66.236013 20.035754 66.832142 20.035754 
Q 67.367727 20.035754 67.814823 19.847911 
Q 68.26192 19.658516 68.471497 19.231601 
L 68.490126 19.231601 
L 68.490126 19.927084 
L 69.334642 19.927084 
z
M 70.606383 14.790129 
L 70.606383 19.927084 
L 71.450899 19.927084 
L 71.450899 17.641923 
Q 71.450899 17.145149 71.550254 16.763254 
Q 71.649608 16.379806 71.8685 16.11279 
Q 72.087391 15.844222 72.444447 15.704504 
Q 72.803056 15.564786 73.309145 15.564786 
L 73.309145 14.670592 
Q 72.624528 14.651963 72.177431 14.950028 
Q 71.730334 15.248092 71.421403 15.873717 
L 71.401221 15.873717 
L 71.401221 14.790129 
L 70.606383 14.790129 
z
M 78.496087 19.906903 
Q 78.277196 20.035754 77.889091 20.035754 
Q 77.561531 20.035754 77.367478 19.852568 
Q 77.174978 19.669383 77.174978 19.251782 
Q 76.827236 19.669383 76.364615 19.852568 
Q 75.901994 20.035754 75.36641 20.035754 
Q 75.018668 20.035754 74.705079 19.95658 
Q 74.393043 19.877407 74.163285 19.708193 
Q 73.935079 19.53898 73.800018 19.265754 
Q 73.66651 18.992528 73.66651 18.605976 
Q 73.66651 18.168193 73.815543 17.89031 
Q 73.964575 17.612427 74.208305 17.438556 
Q 74.452035 17.264685 74.764071 17.176197 
Q 75.07766 17.086157 75.40522 17.025613 
Q 75.752962 16.955754 76.066551 16.921601 
Q 76.380139 16.887447 76.61766 16.822246 
Q 76.856732 16.757044 76.994897 16.632851 
Q 77.134615 16.508657 77.134615 16.271137 
Q 77.134615 15.993254 77.030603 15.82404 
Q 76.926591 15.654826 76.762035 15.566338 
Q 76.597478 15.476298 76.394111 15.446802 
Q 76.190744 15.415754 75.992035 15.415754 
Q 75.454897 15.415754 75.097841 15.620673 
Q 74.740785 15.82404 74.709736 16.390673 
L 73.86522 16.390673 
Q 73.885402 15.912528 74.06393 15.584967 
Q 74.24401 15.257407 74.542075 15.05404 
Q 74.840139 14.850673 75.222035 14.760633 
Q 75.60393 14.670592 76.041712 14.670592 
Q 76.389454 14.670592 76.732539 14.72027 
Q 77.075623 14.769947 77.353506 14.925189 
Q 77.631389 15.078879 77.800603 15.356762 
Q 77.969817 15.634645 77.969817 16.081742 
L 77.969817 18.725512 
Q 77.969817 19.023576 78.00397 19.163294 
Q 78.038123 19.301459 78.236833 19.301459 
Q 78.347055 19.301459 78.496087 19.251782 
L 78.496087 19.906903 
z
M 77.125301 17.274 
Q 76.965402 17.393536 76.706147 17.447871 
Q 76.448446 17.502205 76.165906 17.537911 
Q 75.883365 17.572064 75.594615 17.617084 
Q 75.305865 17.662105 75.07766 17.761459 
Q 74.849454 17.860814 74.705079 18.045552 
Q 74.560704 18.228738 74.560704 18.545431 
Q 74.560704 18.755008 74.644535 18.899383 
Q 74.729918 19.042205 74.863426 19.132246 
Q 74.998486 19.222286 75.177014 19.262649 
Q 75.355543 19.301459 75.554252 19.301459 
Q 75.971853 19.301459 76.269918 19.188133 
Q 76.567982 19.073254 76.755825 18.899383 
Q 76.94522 18.725512 77.03526 18.522145 
Q 77.125301 18.317226 77.125301 18.138697 
L 77.125301 17.274 
z
M 79.330978 12.832528 
L 79.330978 19.927084 
L 80.175494 19.927084 
L 80.175494 12.832528 
L 79.330978 12.832528 
z
" style="stroke: #ffffff; stroke-width: 2.980645"/>
    <path d="M 33.219473 16.379806 
Q 33.219473 15.844222 33.357639 15.322609 
Q 33.497356 14.800996 33.795421 14.383395 
Q 34.093485 13.965794 34.560764 13.71275 
Q 35.028042 13.459705 35.673848 13.459705 
Q 36.319655 13.459705 36.786933 13.71275 
Q 37.254211 13.965794 37.552276 14.383395 
Q 37.85034 14.800996 37.988506 15.322609 
Q 38.128223 15.844222 38.128223 16.379806 
Q 38.128223 16.916943 37.988506 17.438556 
Q 37.85034 17.960169 37.552276 18.37777 
Q 37.254211 18.793818 36.786933 19.048415 
Q 36.319655 19.301459 35.673848 19.301459 
Q 35.028042 19.301459 34.560764 19.048415 
Q 34.093485 18.793818 33.795421 18.37777 
Q 33.497356 17.960169 33.357639 17.438556 
Q 33.219473 16.916943 33.219473 16.379806 
z
M 32.275602 16.379806 
Q 32.275602 17.104786 32.488284 17.775431 
Q 32.702518 18.446076 33.129433 18.963032 
Q 33.557901 19.479988 34.19284 19.782709 
Q 34.829332 20.085431 35.673848 20.085431 
Q 36.518364 20.085431 37.153304 19.782709 
Q 37.789796 19.479988 38.216711 18.963032 
Q 38.645179 18.446076 38.85786 17.775431 
Q 39.072094 17.104786 39.072094 16.379806 
Q 39.072094 15.654826 38.85786 14.984181 
Q 38.645179 14.313536 38.216711 13.79658 
Q 37.789796 13.279625 37.153304 12.972246 
Q 36.518364 12.664867 35.673848 12.664867 
Q 34.829332 12.664867 34.19284 12.972246 
Q 33.557901 13.279625 33.129433 13.79658 
Q 32.702518 14.313536 32.488284 14.984181 
Q 32.275602 15.654826 32.275602 16.379806 
z
M 43.572556 16.440351 
L 44.446569 16.440351 
Q 44.396891 15.982387 44.207496 15.650169 
Q 44.019653 15.316399 43.726246 15.09906 
Q 43.432839 14.880169 43.050944 14.776157 
Q 42.669048 14.670592 42.231266 14.670592 
Q 41.625823 14.670592 41.167859 14.884826 
Q 40.711448 15.09906 40.407173 15.471641 
Q 40.104452 15.844222 39.955419 16.345653 
Q 39.806387 16.847084 39.806387 17.423032 
Q 39.806387 17.99898 39.960077 18.481782 
Q 40.115319 18.963032 40.41804 19.310774 
Q 40.720762 19.658516 41.172516 19.847911 
Q 41.625823 20.035754 42.211085 20.035754 
Q 43.195319 20.035754 43.766609 19.520351 
Q 44.337899 19.003395 44.476065 18.048657 
L 43.612919 18.048657 
Q 43.532194 18.644786 43.179794 18.973899 
Q 42.827395 19.301459 42.20177 19.301459 
Q 41.804351 19.301459 41.515601 19.143113 
Q 41.228403 18.983213 41.048323 18.720855 
Q 40.869794 18.456943 40.784411 18.120068 
Q 40.700581 17.781641 40.700581 17.423032 
Q 40.700581 17.03648 40.779754 16.673213 
Q 40.86048 16.309947 41.043665 16.032064 
Q 41.228403 15.754181 41.535782 15.584967 
Q 41.843161 15.415754 42.301125 15.415754 
Q 42.83671 15.415754 43.154956 15.684322 
Q 43.473202 15.952891 43.572556 16.440351 
z
M 46.593254 14.790129 
L 46.593254 13.250129 
L 45.748738 13.250129 
L 45.748738 14.790129 
L 44.874726 14.790129 
L 44.874726 15.53529 
L 45.748738 15.53529 
L 45.748738 18.804685 
Q 45.748738 19.161742 45.817044 19.380633 
Q 45.886903 19.599524 46.031278 19.71906 
Q 46.175653 19.837044 46.408516 19.882064 
Q 46.642931 19.927084 46.970492 19.927084 
L 47.616298 19.927084 
L 47.616298 19.181923 
L 47.228193 19.181923 
Q 47.029484 19.181923 46.90529 19.167951 
Q 46.781096 19.152427 46.711238 19.10275 
Q 46.642931 19.053072 46.618092 18.964584 
Q 46.593254 18.874544 46.593254 18.725512 
L 46.593254 15.53529 
L 47.616298 15.53529 
L 47.616298 14.790129 
L 46.593254 14.790129 
z
M 53.100994 19.906903 
Q 52.882103 20.035754 52.493998 20.035754 
Q 52.166438 20.035754 51.972385 19.852568 
Q 51.779885 19.669383 51.779885 19.251782 
Q 51.432143 19.669383 50.969522 19.852568 
Q 50.506901 20.035754 49.971317 20.035754 
Q 49.623575 20.035754 49.309986 19.95658 
Q 48.99795 19.877407 48.768192 19.708193 
Q 48.539986 19.53898 48.404926 19.265754 
Q 48.271418 18.992528 48.271418 18.605976 
Q 48.271418 18.168193 48.42045 17.89031 
Q 48.569482 17.612427 48.813212 17.438556 
Q 49.056942 17.264685 49.368978 17.176197 
Q 49.682567 17.086157 50.010127 17.025613 
Q 50.357869 16.955754 50.671458 16.921601 
Q 50.985047 16.887447 51.222567 16.822246 
Q 51.461639 16.757044 51.599805 16.632851 
Q 51.739522 16.508657 51.739522 16.271137 
Q 51.739522 15.993254 51.63551 15.82404 
Q 51.531498 15.654826 51.366942 15.566338 
Q 51.202385 15.476298 50.999018 15.446802 
Q 50.795651 15.415754 50.596942 15.415754 
Q 50.059805 15.415754 49.702748 15.620673 
Q 49.345692 15.82404 49.314643 16.390673 
L 48.470127 16.390673 
Q 48.490309 15.912528 48.668837 15.584967 
Q 48.848918 15.257407 49.146982 15.05404 
Q 49.445047 14.850673 49.826942 14.760633 
Q 50.208837 14.670592 50.646619 14.670592 
Q 50.994361 14.670592 51.337446 14.72027 
Q 51.68053 14.769947 51.958414 14.925189 
Q 52.236297 15.078879 52.40551 15.356762 
Q 52.574724 15.634645 52.574724 16.081742 
L 52.574724 18.725512 
Q 52.574724 19.023576 52.608877 19.163294 
Q 52.64303 19.301459 52.84174 19.301459 
Q 52.951962 19.301459 53.100994 19.251782 
L 53.100994 19.906903 
z
M 51.730208 17.274 
Q 51.570309 17.393536 51.311055 17.447871 
Q 51.053353 17.502205 50.770813 17.537911 
Q 50.488272 17.572064 50.199522 17.617084 
Q 49.910772 17.662105 49.682567 17.761459 
Q 49.454361 17.860814 49.309986 18.045552 
Q 49.165611 18.228738 49.165611 18.545431 
Q 49.165611 18.755008 49.249442 18.899383 
Q 49.334825 19.042205 49.468333 19.132246 
Q 49.603393 19.222286 49.781922 19.262649 
Q 49.96045 19.301459 50.159159 19.301459 
Q 50.57676 19.301459 50.874825 19.188133 
Q 51.172889 19.073254 51.360732 18.899383 
Q 51.550127 18.725512 51.640168 18.522145 
Q 51.730208 18.317226 51.730208 18.138697 
L 51.730208 17.274 
z
M 53.886208 12.832528 
L 53.886208 19.927084 
L 54.730724 19.927084 
L 54.730724 17.025613 
Q 54.730724 16.677871 54.823869 16.386016 
Q 54.918566 16.092609 55.106409 15.873717 
Q 55.295804 15.654826 55.578345 15.53529 
Q 55.862437 15.415754 56.250542 15.415754 
Q 56.73645 15.415754 57.014333 15.695189 
Q 57.293768 15.973072 57.293768 16.449665 
L 57.293768 19.927084 
L 58.138284 19.927084 
L 58.138284 16.54902 
Q 58.138284 16.131419 58.052901 15.789887 
Q 57.96907 15.446802 57.759494 15.198415 
Q 57.55147 14.950028 57.213042 14.81031 
Q 56.876167 14.670592 56.370079 14.670592 
Q 56.14032 14.670592 55.896591 14.72027 
Q 55.654413 14.769947 55.430865 14.875512 
Q 55.207316 14.979524 55.027236 15.14408 
Q 54.848708 15.307084 54.749353 15.546157 
L 54.730724 15.546157 
L 54.730724 12.832528 
L 53.886208 12.832528 
z
M 62.976243 16.867266 
L 60.025094 16.867266 
Q 60.045275 16.569201 60.153945 16.306842 
Q 60.264166 16.042931 60.452009 15.844222 
Q 60.641404 15.645512 60.903763 15.530633 
Q 61.167674 15.415754 61.496787 15.415754 
Q 61.813481 15.415754 62.077392 15.530633 
Q 62.341303 15.645512 62.533803 15.839564 
Q 62.727856 16.032064 62.841182 16.300633 
Q 62.956062 16.569201 62.976243 16.867266 
z
M 63.791263 18.297044 
L 62.956062 18.297044 
Q 62.847392 18.804685 62.504307 19.053072 
Q 62.161223 19.301459 61.625638 19.301459 
Q 61.208037 19.301459 60.899106 19.163294 
Q 60.591727 19.023576 60.393017 18.790713 
Q 60.194307 18.556298 60.104267 18.253576 
Q 60.015779 17.949302 60.025094 17.612427 
L 63.870437 17.612427 
Q 63.890618 17.145149 63.786606 16.628193 
Q 63.682594 16.111238 63.409368 15.675008 
Q 63.136142 15.237226 62.682836 14.954685 
Q 62.231082 14.670592 61.546465 14.670592 
Q 61.018642 14.670592 60.576203 14.869302 
Q 60.135316 15.068012 59.812412 15.426621 
Q 59.489509 15.783677 59.309428 16.271137 
Q 59.1309 16.757044 59.1309 17.343859 
Q 59.151082 17.930673 59.304771 18.427447 
Q 59.460013 18.924222 59.767392 19.281278 
Q 60.074771 19.638334 60.526525 19.837044 
Q 60.979832 20.035754 61.596142 20.035754 
Q 62.470154 20.035754 63.046102 19.599524 
Q 63.622049 19.161742 63.791263 18.297044 
z
M 65.360448 17.402851 
Q 65.360448 17.025613 65.439622 16.668556 
Q 65.520347 16.309947 65.698876 16.032064 
Q 65.877404 15.754181 66.175468 15.584967 
Q 66.473533 15.415754 66.900448 15.415754 
Q 67.338231 15.415754 67.64561 15.58031 
Q 67.954541 15.744867 68.147041 16.013435 
Q 68.341093 16.280451 68.431134 16.634403 
Q 68.521174 16.986802 68.521174 17.36404 
Q 68.521174 17.721097 68.435791 18.068838 
Q 68.35196 18.41658 68.162565 18.689806 
Q 67.974722 18.963032 67.676658 19.132246 
Q 67.378593 19.301459 66.950126 19.301459 
Q 66.543392 19.301459 66.24067 19.143113 
Q 65.937948 18.983213 65.743896 18.714645 
Q 65.549843 18.446076 65.455146 18.104544 
Q 65.360448 17.761459 65.360448 17.402851 
z
M 69.334642 19.927084 
L 69.334642 12.832528 
L 68.490126 12.832528 
L 68.490126 15.476298 
L 68.471497 15.476298 
Q 68.331779 15.248092 68.128412 15.094403 
Q 67.925045 14.939161 67.695287 14.846016 
Q 67.467081 14.751318 67.238876 14.710955 
Q 67.01067 14.670592 66.81196 14.670592 
Q 66.225146 14.670592 65.782706 14.884826 
Q 65.341819 15.09906 65.048412 15.462326 
Q 64.755005 15.82404 64.61063 16.3115 
Q 64.466255 16.797407 64.466255 17.343859 
Q 64.466255 17.89031 64.615287 18.37777 
Q 64.764319 18.863677 65.057727 19.231601 
Q 65.351134 19.599524 65.793573 19.818415 
Q 66.236013 20.035754 66.832142 20.035754 
Q 67.367727 20.035754 67.814823 19.847911 
Q 68.26192 19.658516 68.471497 19.231601 
L 68.490126 19.231601 
L 68.490126 19.927084 
L 69.334642 19.927084 
z
M 70.606383 14.790129 
L 70.606383 19.927084 
L 71.450899 19.927084 
L 71.450899 17.641923 
Q 71.450899 17.145149 71.550254 16.763254 
Q 71.649608 16.379806 71.8685 16.11279 
Q 72.087391 15.844222 72.444447 15.704504 
Q 72.803056 15.564786 73.309145 15.564786 
L 73.309145 14.670592 
Q 72.624528 14.651963 72.177431 14.950028 
Q 71.730334 15.248092 71.421403 15.873717 
L 71.401221 15.873717 
L 71.401221 14.790129 
L 70.606383 14.790129 
z
M 78.496087 19.906903 
Q 78.277196 20.035754 77.889091 20.035754 
Q 77.561531 20.035754 77.367478 19.852568 
Q 77.174978 19.669383 77.174978 19.251782 
Q 76.827236 19.669383 76.364615 19.852568 
Q 75.901994 20.035754 75.36641 20.035754 
Q 75.018668 20.035754 74.705079 19.95658 
Q 74.393043 19.877407 74.163285 19.708193 
Q 73.935079 19.53898 73.800018 19.265754 
Q 73.66651 18.992528 73.66651 18.605976 
Q 73.66651 18.168193 73.815543 17.89031 
Q 73.964575 17.612427 74.208305 17.438556 
Q 74.452035 17.264685 74.764071 17.176197 
Q 75.07766 17.086157 75.40522 17.025613 
Q 75.752962 16.955754 76.066551 16.921601 
Q 76.380139 16.887447 76.61766 16.822246 
Q 76.856732 16.757044 76.994897 16.632851 
Q 77.134615 16.508657 77.134615 16.271137 
Q 77.134615 15.993254 77.030603 15.82404 
Q 76.926591 15.654826 76.762035 15.566338 
Q 76.597478 15.476298 76.394111 15.446802 
Q 76.190744 15.415754 75.992035 15.415754 
Q 75.454897 15.415754 75.097841 15.620673 
Q 74.740785 15.82404 74.709736 16.390673 
L 73.86522 16.390673 
Q 73.885402 15.912528 74.06393 15.584967 
Q 74.24401 15.257407 74.542075 15.05404 
Q 74.840139 14.850673 75.222035 14.760633 
Q 75.60393 14.670592 76.041712 14.670592 
Q 76.389454 14.670592 76.732539 14.72027 
Q 77.075623 14.769947 77.353506 14.925189 
Q 77.631389 15.078879 77.800603 15.356762 
Q 77.969817 15.634645 77.969817 16.081742 
L 77.969817 18.725512 
Q 77.969817 19.023576 78.00397 19.163294 
Q 78.038123 19.301459 78.236833 19.301459 
Q 78.347055 19.301459 78.496087 19.251782 
L 78.496087 19.906903 
z
M 77.125301 17.274 
Q 76.965402 17.393536 76.706147 17.447871 
Q 76.448446 17.502205 76.165906 17.537911 
Q 75.883365 17.572064 75.594615 17.617084 
Q 75.305865 17.662105 75.07766 17.761459 
Q 74.849454 17.860814 74.705079 18.045552 
Q 74.560704 18.228738 74.560704 18.545431 
Q 74.560704 18.755008 74.644535 18.899383 
Q 74.729918 19.042205 74.863426 19.132246 
Q 74.998486 19.222286 75.177014 19.262649 
Q 75.355543 19.301459 75.554252 19.301459 
Q 75.971853 19.301459 76.269918 19.188133 
Q 76.567982 19.073254 76.755825 18.899383 
Q 76.94522 18.725512 77.03526 18.522145 
Q 77.125301 18.317226 77.125301 18.138697 
L 77.125301 17.274 
z
M 79.330978 12.832528 
L 79.330978 19.927084 
L 80.175494 19.927084 
L 80.175494 12.832528 
L 79.330978 12.832528 
z
"/>
   </g>
   <g id="text_2">
    <path d="M 34.282881 39.956399 
L 34.282881 46.256117 
L 35.226752 46.256117 
L 35.226752 39.956399 
L 37.591086 39.956399 
L 37.591086 39.16156 
L 31.918546 39.16156 
L 31.918546 39.956399 
L 34.282881 39.956399 
z
M 40.698408 43.196298 
L 37.747259 43.196298 
Q 37.76744 42.898234 37.87611 42.635875 
Q 37.986332 42.371963 38.174174 42.173254 
Q 38.363569 41.974544 38.625928 41.859665 
Q 38.88984 41.744786 39.218953 41.744786 
Q 39.535646 41.744786 39.799557 41.859665 
Q 40.063469 41.974544 40.255969 42.168597 
Q 40.450021 42.361097 40.563348 42.629665 
Q 40.678227 42.898234 40.698408 43.196298 
z
M 41.513428 44.626076 
L 40.678227 44.626076 
Q 40.569557 45.133717 40.226473 45.382105 
Q 39.883388 45.630492 39.347803 45.630492 
Q 38.930203 45.630492 38.621271 45.492326 
Q 38.313892 45.352609 38.115182 45.119746 
Q 37.916473 44.88533 37.826432 44.582609 
Q 37.737944 44.278334 37.747259 43.941459 
L 41.592602 43.941459 
Q 41.612783 43.474181 41.508771 42.957226 
Q 41.404759 42.44027 41.131533 42.00404 
Q 40.858307 41.566258 40.405001 41.283717 
Q 39.953247 40.999625 39.26863 40.999625 
Q 38.740807 40.999625 38.298368 41.198334 
Q 37.857481 41.397044 37.534578 41.755653 
Q 37.211674 42.112709 37.031594 42.600169 
Q 36.853065 43.086076 36.853065 43.672891 
Q 36.873247 44.259705 37.026936 44.75648 
Q 37.182178 45.253254 37.489557 45.61031 
Q 37.796936 45.967367 38.24869 46.166076 
Q 38.701997 46.364786 39.318307 46.364786 
Q 40.192319 46.364786 40.768267 45.928556 
Q 41.344215 45.490774 41.513428 44.626076 
z
M 43.639932 41.119161 
L 43.639932 39.579161 
L 42.795416 39.579161 
L 42.795416 41.119161 
L 41.921404 41.119161 
L 41.921404 41.864322 
L 42.795416 41.864322 
L 42.795416 45.133717 
Q 42.795416 45.490774 42.863722 45.709665 
Q 42.933581 45.928556 43.077956 46.048092 
Q 43.222331 46.166076 43.455194 46.211097 
Q 43.68961 46.256117 44.01717 46.256117 
L 44.662976 46.256117 
L 44.662976 45.510955 
L 44.274872 45.510955 
Q 44.076162 45.510955 43.951968 45.496984 
Q 43.827775 45.481459 43.757916 45.431782 
Q 43.68961 45.382105 43.664771 45.293617 
Q 43.639932 45.203576 43.639932 45.054544 
L 43.639932 41.864322 
L 44.662976 41.864322 
L 44.662976 41.119161 
L 43.639932 41.119161 
z
M 45.566483 41.119161 
L 45.566483 46.256117 
L 46.410999 46.256117 
L 46.410999 43.970955 
Q 46.410999 43.474181 46.510354 43.092286 
Q 46.609709 42.708838 46.8286 42.441822 
Q 47.047491 42.173254 47.404548 42.033536 
Q 47.763156 41.893818 48.269245 41.893818 
L 48.269245 40.999625 
Q 47.584628 40.980996 47.137531 41.27906 
Q 46.690435 41.577125 46.381503 42.20275 
L 46.361322 42.20275 
L 46.361322 41.119161 
L 45.566483 41.119161 
z
M 53.456187 46.235935 
Q 53.237296 46.364786 52.849191 46.364786 
Q 52.521631 46.364786 52.327579 46.181601 
Q 52.135079 45.998415 52.135079 45.580814 
Q 51.787337 45.998415 51.324716 46.181601 
Q 50.862095 46.364786 50.32651 46.364786 
Q 49.978768 46.364786 49.665179 46.285613 
Q 49.353143 46.206439 49.123385 46.037226 
Q 48.895179 45.868012 48.760119 45.594786 
Q 48.626611 45.32156 48.626611 44.935008 
Q 48.626611 44.497226 48.775643 44.219342 
Q 48.924675 43.941459 49.168405 43.767588 
Q 49.412135 43.593717 49.724171 43.50523 
Q 50.03776 43.415189 50.36532 43.354645 
Q 50.713062 43.284786 51.026651 43.250633 
Q 51.34024 43.21648 51.57776 43.151278 
Q 51.816833 43.086076 51.954998 42.961883 
Q 52.094716 42.837689 52.094716 42.600169 
Q 52.094716 42.322286 51.990704 42.153072 
Q 51.886691 41.983859 51.722135 41.895371 
Q 51.557579 41.80533 51.354212 41.775834 
Q 51.150845 41.744786 50.952135 41.744786 
Q 50.414998 41.744786 50.057941 41.949705 
Q 49.700885 42.153072 49.669837 42.719705 
L 48.82532 42.719705 
Q 48.845502 42.24156 49.02403 41.914 
Q 49.204111 41.586439 49.502175 41.383072 
Q 49.80024 41.179705 50.182135 41.089665 
Q 50.56403 40.999625 51.001812 40.999625 
Q 51.349554 40.999625 51.692639 41.049302 
Q 52.035724 41.09898 52.313607 41.254222 
Q 52.59149 41.407911 52.760704 41.685794 
Q 52.929917 41.963677 52.929917 42.410774 
L 52.929917 45.054544 
Q 52.929917 45.352609 52.96407 45.492326 
Q 52.998224 45.630492 53.196933 45.630492 
Q 53.307155 45.630492 53.456187 45.580814 
L 53.456187 46.235935 
z
M 52.085401 43.603032 
Q 51.925502 43.722568 51.666248 43.776903 
Q 51.408546 43.831238 51.126006 43.866943 
Q 50.843466 43.901097 50.554716 43.946117 
Q 50.265966 43.991137 50.03776 44.090492 
Q 49.809554 44.189847 49.665179 44.374584 
Q 49.520804 44.55777 49.520804 44.874463 
Q 49.520804 45.08404 49.604635 45.228415 
Q 49.690018 45.371238 49.823526 45.461278 
Q 49.958587 45.551318 50.137115 45.591681 
Q 50.315643 45.630492 50.514353 45.630492 
Q 50.931954 45.630492 51.230018 45.517165 
Q 51.528083 45.402286 51.715925 45.228415 
Q 51.90532 45.054544 51.995361 44.851177 
Q 52.085401 44.646258 52.085401 44.46773 
L 52.085401 43.603032 
z
M 54.241401 39.16156 
L 54.241401 46.256117 
L 55.085917 46.256117 
L 55.085917 43.354645 
Q 55.085917 43.006903 55.179062 42.715048 
Q 55.27376 42.421641 55.461602 42.20275 
Q 55.650998 41.983859 55.933538 41.864322 
Q 56.217631 41.744786 56.605736 41.744786 
Q 57.091643 41.744786 57.369526 42.024222 
Q 57.648961 42.302105 57.648961 42.778697 
L 57.648961 46.256117 
L 58.493477 46.256117 
L 58.493477 42.878052 
Q 58.493477 42.460451 58.408094 42.118919 
Q 58.324264 41.775834 58.114687 41.527447 
Q 57.906663 41.27906 57.568236 41.139342 
Q 57.231361 40.999625 56.725272 40.999625 
Q 56.495514 40.999625 56.251784 41.049302 
Q 56.009606 41.09898 55.786058 41.204544 
Q 55.56251 41.308556 55.382429 41.473113 
Q 55.203901 41.636117 55.104546 41.875189 
L 55.085917 41.875189 
L 55.085917 39.16156 
L 54.241401 39.16156 
z
M 63.331436 43.196298 
L 60.380287 43.196298 
Q 60.400468 42.898234 60.509138 42.635875 
Q 60.61936 42.371963 60.807202 42.173254 
Q 60.996597 41.974544 61.258956 41.859665 
Q 61.522868 41.744786 61.851981 41.744786 
Q 62.168674 41.744786 62.432585 41.859665 
Q 62.696497 41.974544 62.888997 42.168597 
Q 63.083049 42.361097 63.196376 42.629665 
Q 63.311255 42.898234 63.331436 43.196298 
z
M 64.146456 44.626076 
L 63.311255 44.626076 
Q 63.202585 45.133717 62.859501 45.382105 
Q 62.516416 45.630492 61.980831 45.630492 
Q 61.563231 45.630492 61.254299 45.492326 
Q 60.94692 45.352609 60.74821 45.119746 
Q 60.549501 44.88533 60.45946 44.582609 
Q 60.370972 44.278334 60.380287 43.941459 
L 64.22563 43.941459 
Q 64.245811 43.474181 64.141799 42.957226 
Q 64.037787 42.44027 63.764561 42.00404 
Q 63.491335 41.566258 63.038029 41.283717 
Q 62.586275 40.999625 61.901658 40.999625 
Q 61.373835 40.999625 60.931396 41.198334 
Q 60.490509 41.397044 60.167606 41.755653 
Q 59.844702 42.112709 59.664622 42.600169 
Q 59.486093 43.086076 59.486093 43.672891 
Q 59.506275 44.259705 59.659964 44.75648 
Q 59.815206 45.253254 60.122585 45.61031 
Q 60.429964 45.967367 60.881718 46.166076 
Q 61.335025 46.364786 61.951335 46.364786 
Q 62.825347 46.364786 63.401295 45.928556 
Q 63.977243 45.490774 64.146456 44.626076 
z
M 65.715642 43.731883 
Q 65.715642 43.354645 65.794815 42.997588 
Q 65.875541 42.63898 66.054069 42.361097 
Q 66.232597 42.083213 66.530662 41.914 
Q 66.828726 41.744786 67.255642 41.744786 
Q 67.693424 41.744786 68.000803 41.909342 
Q 68.309734 42.073899 68.502234 42.342467 
Q 68.696287 42.609484 68.786327 42.963435 
Q 68.876367 43.315834 68.876367 43.693072 
Q 68.876367 44.050129 68.790984 44.397871 
Q 68.707154 44.745613 68.517758 45.018838 
Q 68.329916 45.292064 68.031851 45.461278 
Q 67.733787 45.630492 67.305319 45.630492 
Q 66.898585 45.630492 66.595863 45.472145 
Q 66.293142 45.312246 66.099089 45.043677 
Q 65.905037 44.775109 65.810339 44.433576 
Q 65.715642 44.090492 65.715642 43.731883 
z
M 69.689835 46.256117 
L 69.689835 39.16156 
L 68.845319 39.16156 
L 68.845319 41.80533 
L 68.82669 41.80533 
Q 68.686972 41.577125 68.483605 41.423435 
Q 68.280238 41.268193 68.05048 41.175048 
Q 67.822275 41.080351 67.594069 41.039988 
Q 67.365863 40.999625 67.167154 40.999625 
Q 66.580339 40.999625 66.1379 41.213859 
Q 65.697013 41.428092 65.403605 41.791359 
Q 65.110198 42.153072 64.965823 42.640532 
Q 64.821448 43.126439 64.821448 43.672891 
Q 64.821448 44.219342 64.97048 44.706802 
Q 65.119513 45.192709 65.41292 45.560633 
Q 65.706327 45.928556 66.148767 46.147447 
Q 66.591206 46.364786 67.187335 46.364786 
Q 67.72292 46.364786 68.170017 46.176943 
Q 68.617113 45.987548 68.82669 45.560633 
L 68.845319 45.560633 
L 68.845319 46.256117 
L 69.689835 46.256117 
z
M 70.961576 41.119161 
L 70.961576 46.256117 
L 71.806092 46.256117 
L 71.806092 43.970955 
Q 71.806092 43.474181 71.905447 43.092286 
Q 72.004802 42.708838 72.223693 42.441822 
Q 72.442584 42.173254 72.79964 42.033536 
Q 73.158249 41.893818 73.664338 41.893818 
L 73.664338 40.999625 
Q 72.979721 40.980996 72.532624 41.27906 
Q 72.085527 41.577125 71.776596 42.20275 
L 71.756415 42.20275 
L 71.756415 41.119161 
L 70.961576 41.119161 
z
M 78.85128 46.235935 
Q 78.632389 46.364786 78.244284 46.364786 
Q 77.916724 46.364786 77.722671 46.181601 
Q 77.530171 45.998415 77.530171 45.580814 
Q 77.182429 45.998415 76.719808 46.181601 
Q 76.257188 46.364786 75.721603 46.364786 
Q 75.373861 46.364786 75.060272 46.285613 
Q 74.748236 46.206439 74.518478 46.037226 
Q 74.290272 45.868012 74.155212 45.594786 
Q 74.021704 45.32156 74.021704 44.935008 
Q 74.021704 44.497226 74.170736 44.219342 
Q 74.319768 43.941459 74.563498 43.767588 
Q 74.807228 43.593717 75.119264 43.50523 
Q 75.432853 43.415189 75.760413 43.354645 
Q 76.108155 43.284786 76.421744 43.250633 
Q 76.735333 43.21648 76.972853 43.151278 
Q 77.211925 43.086076 77.350091 42.961883 
Q 77.489808 42.837689 77.489808 42.600169 
Q 77.489808 42.322286 77.385796 42.153072 
Q 77.281784 41.983859 77.117228 41.895371 
Q 76.952671 41.80533 76.749304 41.775834 
Q 76.545938 41.744786 76.347228 41.744786 
Q 75.810091 41.744786 75.453034 41.949705 
Q 75.095978 42.153072 75.064929 42.719705 
L 74.220413 42.719705 
Q 74.240595 42.24156 74.419123 41.914 
Q 74.599204 41.586439 74.897268 41.383072 
Q 75.195333 41.179705 75.577228 41.089665 
Q 75.959123 40.999625 76.396905 40.999625 
Q 76.744647 40.999625 77.087732 41.049302 
Q 77.430817 41.09898 77.7087 41.254222 
Q 77.986583 41.407911 78.155796 41.685794 
Q 78.32501 41.963677 78.32501 42.410774 
L 78.32501 45.054544 
Q 78.32501 45.352609 78.359163 45.492326 
Q 78.393317 45.630492 78.592026 45.630492 
Q 78.702248 45.630492 78.85128 45.580814 
L 78.85128 46.235935 
z
M 77.480494 43.603032 
Q 77.320595 43.722568 77.061341 43.776903 
Q 76.803639 43.831238 76.521099 43.866943 
Q 76.238558 43.901097 75.949808 43.946117 
Q 75.661058 43.991137 75.432853 44.090492 
Q 75.204647 44.189847 75.060272 44.374584 
Q 74.915897 44.55777 74.915897 44.874463 
Q 74.915897 45.08404 74.999728 45.228415 
Q 75.085111 45.371238 75.218619 45.461278 
Q 75.353679 45.551318 75.532208 45.591681 
Q 75.710736 45.630492 75.909446 45.630492 
Q 76.327046 45.630492 76.625111 45.517165 
Q 76.923175 45.402286 77.111018 45.228415 
Q 77.300413 45.054544 77.390454 44.851177 
Q 77.480494 44.646258 77.480494 44.46773 
L 77.480494 43.603032 
z
M 79.686171 39.16156 
L 79.686171 46.256117 
L 80.530687 46.256117 
L 80.530687 39.16156 
L 79.686171 39.16156 
z
" style="stroke: #ffffff; stroke-width: 2.980645"/>
    <path d="M 34.282881 39.956399 
L 34.282881 46.256117 
L 35.226752 46.256117 
L 35.226752 39.956399 
L 37.591086 39.956399 
L 37.591086 39.16156 
L 31.918546 39.16156 
L 31.918546 39.956399 
L 34.282881 39.956399 
z
M 40.698408 43.196298 
L 37.747259 43.196298 
Q 37.76744 42.898234 37.87611 42.635875 
Q 37.986332 42.371963 38.174174 42.173254 
Q 38.363569 41.974544 38.625928 41.859665 
Q 38.88984 41.744786 39.218953 41.744786 
Q 39.535646 41.744786 39.799557 41.859665 
Q 40.063469 41.974544 40.255969 42.168597 
Q 40.450021 42.361097 40.563348 42.629665 
Q 40.678227 42.898234 40.698408 43.196298 
z
M 41.513428 44.626076 
L 40.678227 44.626076 
Q 40.569557 45.133717 40.226473 45.382105 
Q 39.883388 45.630492 39.347803 45.630492 
Q 38.930203 45.630492 38.621271 45.492326 
Q 38.313892 45.352609 38.115182 45.119746 
Q 37.916473 44.88533 37.826432 44.582609 
Q 37.737944 44.278334 37.747259 43.941459 
L 41.592602 43.941459 
Q 41.612783 43.474181 41.508771 42.957226 
Q 41.404759 42.44027 41.131533 42.00404 
Q 40.858307 41.566258 40.405001 41.283717 
Q 39.953247 40.999625 39.26863 40.999625 
Q 38.740807 40.999625 38.298368 41.198334 
Q 37.857481 41.397044 37.534578 41.755653 
Q 37.211674 42.112709 37.031594 42.600169 
Q 36.853065 43.086076 36.853065 43.672891 
Q 36.873247 44.259705 37.026936 44.75648 
Q 37.182178 45.253254 37.489557 45.61031 
Q 37.796936 45.967367 38.24869 46.166076 
Q 38.701997 46.364786 39.318307 46.364786 
Q 40.192319 46.364786 40.768267 45.928556 
Q 41.344215 45.490774 41.513428 44.626076 
z
M 43.639932 41.119161 
L 43.639932 39.579161 
L 42.795416 39.579161 
L 42.795416 41.119161 
L 41.921404 41.119161 
L 41.921404 41.864322 
L 42.795416 41.864322 
L 42.795416 45.133717 
Q 42.795416 45.490774 42.863722 45.709665 
Q 42.933581 45.928556 43.077956 46.048092 
Q 43.222331 46.166076 43.455194 46.211097 
Q 43.68961 46.256117 44.01717 46.256117 
L 44.662976 46.256117 
L 44.662976 45.510955 
L 44.274872 45.510955 
Q 44.076162 45.510955 43.951968 45.496984 
Q 43.827775 45.481459 43.757916 45.431782 
Q 43.68961 45.382105 43.664771 45.293617 
Q 43.639932 45.203576 43.639932 45.054544 
L 43.639932 41.864322 
L 44.662976 41.864322 
L 44.662976 41.119161 
L 43.639932 41.119161 
z
M 45.566483 41.119161 
L 45.566483 46.256117 
L 46.410999 46.256117 
L 46.410999 43.970955 
Q 46.410999 43.474181 46.510354 43.092286 
Q 46.609709 42.708838 46.8286 42.441822 
Q 47.047491 42.173254 47.404548 42.033536 
Q 47.763156 41.893818 48.269245 41.893818 
L 48.269245 40.999625 
Q 47.584628 40.980996 47.137531 41.27906 
Q 46.690435 41.577125 46.381503 42.20275 
L 46.361322 42.20275 
L 46.361322 41.119161 
L 45.566483 41.119161 
z
M 53.456187 46.235935 
Q 53.237296 46.364786 52.849191 46.364786 
Q 52.521631 46.364786 52.327579 46.181601 
Q 52.135079 45.998415 52.135079 45.580814 
Q 51.787337 45.998415 51.324716 46.181601 
Q 50.862095 46.364786 50.32651 46.364786 
Q 49.978768 46.364786 49.665179 46.285613 
Q 49.353143 46.206439 49.123385 46.037226 
Q 48.895179 45.868012 48.760119 45.594786 
Q 48.626611 45.32156 48.626611 44.935008 
Q 48.626611 44.497226 48.775643 44.219342 
Q 48.924675 43.941459 49.168405 43.767588 
Q 49.412135 43.593717 49.724171 43.50523 
Q 50.03776 43.415189 50.36532 43.354645 
Q 50.713062 43.284786 51.026651 43.250633 
Q 51.34024 43.21648 51.57776 43.151278 
Q 51.816833 43.086076 51.954998 42.961883 
Q 52.094716 42.837689 52.094716 42.600169 
Q 52.094716 42.322286 51.990704 42.153072 
Q 51.886691 41.983859 51.722135 41.895371 
Q 51.557579 41.80533 51.354212 41.775834 
Q 51.150845 41.744786 50.952135 41.744786 
Q 50.414998 41.744786 50.057941 41.949705 
Q 49.700885 42.153072 49.669837 42.719705 
L 48.82532 42.719705 
Q 48.845502 42.24156 49.02403 41.914 
Q 49.204111 41.586439 49.502175 41.383072 
Q 49.80024 41.179705 50.182135 41.089665 
Q 50.56403 40.999625 51.001812 40.999625 
Q 51.349554 40.999625 51.692639 41.049302 
Q 52.035724 41.09898 52.313607 41.254222 
Q 52.59149 41.407911 52.760704 41.685794 
Q 52.929917 41.963677 52.929917 42.410774 
L 52.929917 45.054544 
Q 52.929917 45.352609 52.96407 45.492326 
Q 52.998224 45.630492 53.196933 45.630492 
Q 53.307155 45.630492 53.456187 45.580814 
L 53.456187 46.235935 
z
M 52.085401 43.603032 
Q 51.925502 43.722568 51.666248 43.776903 
Q 51.408546 43.831238 51.126006 43.866943 
Q 50.843466 43.901097 50.554716 43.946117 
Q 50.265966 43.991137 50.03776 44.090492 
Q 49.809554 44.189847 49.665179 44.374584 
Q 49.520804 44.55777 49.520804 44.874463 
Q 49.520804 45.08404 49.604635 45.228415 
Q 49.690018 45.371238 49.823526 45.461278 
Q 49.958587 45.551318 50.137115 45.591681 
Q 50.315643 45.630492 50.514353 45.630492 
Q 50.931954 45.630492 51.230018 45.517165 
Q 51.528083 45.402286 51.715925 45.228415 
Q 51.90532 45.054544 51.995361 44.851177 
Q 52.085401 44.646258 52.085401 44.46773 
L 52.085401 43.603032 
z
M 54.241401 39.16156 
L 54.241401 46.256117 
L 55.085917 46.256117 
L 55.085917 43.354645 
Q 55.085917 43.006903 55.179062 42.715048 
Q 55.27376 42.421641 55.461602 42.20275 
Q 55.650998 41.983859 55.933538 41.864322 
Q 56.217631 41.744786 56.605736 41.744786 
Q 57.091643 41.744786 57.369526 42.024222 
Q 57.648961 42.302105 57.648961 42.778697 
L 57.648961 46.256117 
L 58.493477 46.256117 
L 58.493477 42.878052 
Q 58.493477 42.460451 58.408094 42.118919 
Q 58.324264 41.775834 58.114687 41.527447 
Q 57.906663 41.27906 57.568236 41.139342 
Q 57.231361 40.999625 56.725272 40.999625 
Q 56.495514 40.999625 56.251784 41.049302 
Q 56.009606 41.09898 55.786058 41.204544 
Q 55.56251 41.308556 55.382429 41.473113 
Q 55.203901 41.636117 55.104546 41.875189 
L 55.085917 41.875189 
L 55.085917 39.16156 
L 54.241401 39.16156 
z
M 63.331436 43.196298 
L 60.380287 43.196298 
Q 60.400468 42.898234 60.509138 42.635875 
Q 60.61936 42.371963 60.807202 42.173254 
Q 60.996597 41.974544 61.258956 41.859665 
Q 61.522868 41.744786 61.851981 41.744786 
Q 62.168674 41.744786 62.432585 41.859665 
Q 62.696497 41.974544 62.888997 42.168597 
Q 63.083049 42.361097 63.196376 42.629665 
Q 63.311255 42.898234 63.331436 43.196298 
z
M 64.146456 44.626076 
L 63.311255 44.626076 
Q 63.202585 45.133717 62.859501 45.382105 
Q 62.516416 45.630492 61.980831 45.630492 
Q 61.563231 45.630492 61.254299 45.492326 
Q 60.94692 45.352609 60.74821 45.119746 
Q 60.549501 44.88533 60.45946 44.582609 
Q 60.370972 44.278334 60.380287 43.941459 
L 64.22563 43.941459 
Q 64.245811 43.474181 64.141799 42.957226 
Q 64.037787 42.44027 63.764561 42.00404 
Q 63.491335 41.566258 63.038029 41.283717 
Q 62.586275 40.999625 61.901658 40.999625 
Q 61.373835 40.999625 60.931396 41.198334 
Q 60.490509 41.397044 60.167606 41.755653 
Q 59.844702 42.112709 59.664622 42.600169 
Q 59.486093 43.086076 59.486093 43.672891 
Q 59.506275 44.259705 59.659964 44.75648 
Q 59.815206 45.253254 60.122585 45.61031 
Q 60.429964 45.967367 60.881718 46.166076 
Q 61.335025 46.364786 61.951335 46.364786 
Q 62.825347 46.364786 63.401295 45.928556 
Q 63.977243 45.490774 64.146456 44.626076 
z
M 65.715642 43.731883 
Q 65.715642 43.354645 65.794815 42.997588 
Q 65.875541 42.63898 66.054069 42.361097 
Q 66.232597 42.083213 66.530662 41.914 
Q 66.828726 41.744786 67.255642 41.744786 
Q 67.693424 41.744786 68.000803 41.909342 
Q 68.309734 42.073899 68.502234 42.342467 
Q 68.696287 42.609484 68.786327 42.963435 
Q 68.876367 43.315834 68.876367 43.693072 
Q 68.876367 44.050129 68.790984 44.397871 
Q 68.707154 44.745613 68.517758 45.018838 
Q 68.329916 45.292064 68.031851 45.461278 
Q 67.733787 45.630492 67.305319 45.630492 
Q 66.898585 45.630492 66.595863 45.472145 
Q 66.293142 45.312246 66.099089 45.043677 
Q 65.905037 44.775109 65.810339 44.433576 
Q 65.715642 44.090492 65.715642 43.731883 
z
M 69.689835 46.256117 
L 69.689835 39.16156 
L 68.845319 39.16156 
L 68.845319 41.80533 
L 68.82669 41.80533 
Q 68.686972 41.577125 68.483605 41.423435 
Q 68.280238 41.268193 68.05048 41.175048 
Q 67.822275 41.080351 67.594069 41.039988 
Q 67.365863 40.999625 67.167154 40.999625 
Q 66.580339 40.999625 66.1379 41.213859 
Q 65.697013 41.428092 65.403605 41.791359 
Q 65.110198 42.153072 64.965823 42.640532 
Q 64.821448 43.126439 64.821448 43.672891 
Q 64.821448 44.219342 64.97048 44.706802 
Q 65.119513 45.192709 65.41292 45.560633 
Q 65.706327 45.928556 66.148767 46.147447 
Q 66.591206 46.364786 67.187335 46.364786 
Q 67.72292 46.364786 68.170017 46.176943 
Q 68.617113 45.987548 68.82669 45.560633 
L 68.845319 45.560633 
L 68.845319 46.256117 
L 69.689835 46.256117 
z
M 70.961576 41.119161 
L 70.961576 46.256117 
L 71.806092 46.256117 
L 71.806092 43.970955 
Q 71.806092 43.474181 71.905447 43.092286 
Q 72.004802 42.708838 72.223693 42.441822 
Q 72.442584 42.173254 72.79964 42.033536 
Q 73.158249 41.893818 73.664338 41.893818 
L 73.664338 40.999625 
Q 72.979721 40.980996 72.532624 41.27906 
Q 72.085527 41.577125 71.776596 42.20275 
L 71.756415 42.20275 
L 71.756415 41.119161 
L 70.961576 41.119161 
z
M 78.85128 46.235935 
Q 78.632389 46.364786 78.244284 46.364786 
Q 77.916724 46.364786 77.722671 46.181601 
Q 77.530171 45.998415 77.530171 45.580814 
Q 77.182429 45.998415 76.719808 46.181601 
Q 76.257188 46.364786 75.721603 46.364786 
Q 75.373861 46.364786 75.060272 46.285613 
Q 74.748236 46.206439 74.518478 46.037226 
Q 74.290272 45.868012 74.155212 45.594786 
Q 74.021704 45.32156 74.021704 44.935008 
Q 74.021704 44.497226 74.170736 44.219342 
Q 74.319768 43.941459 74.563498 43.767588 
Q 74.807228 43.593717 75.119264 43.50523 
Q 75.432853 43.415189 75.760413 43.354645 
Q 76.108155 43.284786 76.421744 43.250633 
Q 76.735333 43.21648 76.972853 43.151278 
Q 77.211925 43.086076 77.350091 42.961883 
Q 77.489808 42.837689 77.489808 42.600169 
Q 77.489808 42.322286 77.385796 42.153072 
Q 77.281784 41.983859 77.117228 41.895371 
Q 76.952671 41.80533 76.749304 41.775834 
Q 76.545938 41.744786 76.347228 41.744786 
Q 75.810091 41.744786 75.453034 41.949705 
Q 75.095978 42.153072 75.064929 42.719705 
L 74.220413 42.719705 
Q 74.240595 42.24156 74.419123 41.914 
Q 74.599204 41.586439 74.897268 41.383072 
Q 75.195333 41.179705 75.577228 41.089665 
Q 75.959123 40.999625 76.396905 40.999625 
Q 76.744647 40.999625 77.087732 41.049302 
Q 77.430817 41.09898 77.7087 41.254222 
Q 77.986583 41.407911 78.155796 41.685794 
Q 78.32501 41.963677 78.32501 42.410774 
L 78.32501 45.054544 
Q 78.32501 45.352609 78.359163 45.492326 
Q 78.393317 45.630492 78.592026 45.630492 
Q 78.702248 45.630492 78.85128 45.580814 
L 78.85128 46.235935 
z
M 77.480494 43.603032 
Q 77.320595 43.722568 77.061341 43.776903 
Q 76.803639 43.831238 76.521099 43.866943 
Q 76.238558 43.901097 75.949808 43.946117 
Q 75.661058 43.991137 75.432853 44.090492 
Q 75.204647 44.189847 75.060272 44.374584 
Q 74.915897 44.55777 74.915897 44.874463 
Q 74.915897 45.08404 74.999728 45.228415 
Q 75.085111 45.371238 75.218619 45.461278 
Q 75.353679 45.551318 75.532208 45.591681 
Q 75.710736 45.630492 75.909446 45.630492 
Q 76.327046 45.630492 76.625111 45.517165 
Q 76.923175 45.402286 77.111018 45.228415 
Q 77.300413 45.054544 77.390454 44.851177 
Q 77.480494 44.646258 77.480494 44.46773 
L 77.480494 43.603032 
z
M 79.686171 39.16156 
L 79.686171 46.256117 
L 80.530687 46.256117 
L 80.530687 39.16156 
L 79.686171 39.16156 
z
"/>
   </g>
  </g>
 </g>
 <defs>
  <clipPath id="p084d2d4336">
   <rect x="-178.197377" y="-138.489393" width="221.76" height="221.76"/>
  </clipPath>
 </defs>
</svg>
