<?xml version="1.0" encoding="utf-8" standalone="no"?>
<!DOCTYPE svg PUBLIC "-//W3C//DTD SVG 1.1//EN"
  "http://www.w3.org/Graphics/SVG/1.1/DTD/svg11.dtd">
<svg xmlns:xlink="http://www.w3.org/1999/xlink" width="39.6pt" height="79.2pt" viewBox="0 0 39.6 79.2" xmlns="http://www.w3.org/2000/svg" version="1.1">
 <metadata>
  <rdf:RDF xmlns:dc="http://purl.org/dc/elements/1.1/" xmlns:cc="http://creativecommons.org/ns#" xmlns:rdf="http://www.w3.org/1999/02/22-rdf-syntax-ns#">
   <cc:Work>
    <dc:type rdf:resource="http://purl.org/dc/dcmitype/StillImage"/>
    <dc:date>2026-02-24T19:32:46.538503</dc:date>
    <dc:format>image/svg+xml</dc:format>
    <dc:creator>
     <cc:Agent>
      <dc:title>Matplotlib v3.10.7, https://matplotlib.org/</dc:title>
     </cc:Agent>
    </dc:creator>
   </cc:Work>
  </rdf:RDF>
 </metadata>
 <defs>
  <style type="text/css">*{stroke-linejoin: round; stroke-linecap: butt}</style>
 </defs>
 <g id="figure_1">
  <g id="patch_1">
   <path d="M 0 79.2 
L 39.6 79.2 
L 39.6 0 
L 0 0 
z
" style="fill: #ffffff"/>
  </g>
  <g id="axes_1">
   <g id="line2d_1">
    <defs>
     <path id="m81057613d3" d="M 0 4.967742 
C 1.317461 4.967742 2.581139 4.444309 3.512724 3.512724 
C 4.444309 2.581139 4.967742 1.317461 4.967742 0 
C 4.967742 -1.317461 4.444309 -2.581139 3.512724 -3.512724 
C 2.581139 -4.444309 1.317461 -4.967742 0 -4.967742 
C -1.317461 -4.967742 -2.581139 -4.444309 -3.512724 -3.512724 
C -4.444309 -2.581139 -4.967742 -1.317461 -4.967742 0 
C -4.967742 1.317461 -4.444309 2.581139 -3.512724 3.512724 
C -2.581139 4.444309 -1.317461 4.967742 0 4.967742 
z
" style="stroke: #262626; stroke-width: 0.993548"/>
    </defs>
    <g clip-path="url(#p5e85ec5fa3)">
     <use xlink:href="#m81057613d3" x="7.289113" y="17.076323" style="fill: #51b04d; stroke: #262626; stroke-width: 0.993548"/>
    </g>
   </g>
   <g id="line2d_2">
    <defs>
     <path id="m9b42daa229" d="M 0 4.967742 
C 1.317461 4.967742 2.581139 4.444309 3.512724 3.512724 
C 4.444309 2.581139 4.967742 1.317461 4.967742 0 
C 4.967742 -1.317461 4.444309 -2.581139 3.512724 -3.512724 
C 2.581139 -4.444309 1.317461 -4.967742 0 -4.967742 
C -1.317461 -4.967742 -2.581139 -4.444309 -3.512724 -3.512724 
C -4.444309 -2.581139 -4.967742 -1.317461 -4.967742 0 
C -4.967742 1.317461 -4.444309 2.581139 -3.512724 3.512724 
C -2.581139 4.444309 -1.317461 4.967742 0 4.967742 
z
" style="stroke: #262626; stroke-width: 0.993548"/>
    </defs>
    <g clip-path="url(#p5e85ec5fa3)">
     <use xlink:href="#m9b42daa229" x="7.289113" y="30.240839" style="fill: #477b9d; stroke: #262626; stroke-width: 0.993548"/>
    </g>
   </g>
   <g id="line2d_3">
    <defs>
     <path id="m86a877e156" d="M 0 4.967742 
C 1.317461 4.967742 2.581139 4.444309 3.512724 3.512724 
C 4.444309 2.581139 4.967742 1.317461 4.967742 0 
C 4.967742 -1.317461 4.444309 -2.581139 3.512724 -3.512724 
C 2.581139 -4.444309 1.317461 -4.967742 0 -4.967742 
C -1.317461 -4.967742 -2.581139 -4.444309 -3.512724 -3.512724 
C -4.444309 -2.581139 -4.967742 -1.317461 -4.967742 0 
C -4.967742 1.317461 -4.444309 2.581139 -3.512724 3.512724 
C -2.581139 4.444309 -1.317461 4.967742 0 4.967742 
z
" style="stroke: #262626; stroke-width: 0.993548"/>
    </defs>
    <g clip-path="url(#p5e85ec5fa3)">
     <use xlink:href="#m86a877e156" x="7.289113" y="43.405355" style="fill: #f03f37; stroke: #262626; stroke-width: 0.993548"/>
    </g>
   </g>
   <g id="line2d_4">
    <defs>
     <path id="m5a70249651" d="M 0 -4.967742 
L -4.302191 -2.483871 
L -4.302191 2.483871 
L -0 4.967742 
L 4.302191 2.483871 
L 4.302191 -2.483871 
z
" style="stroke: #262626; stroke-width: 0.993548; stroke-linejoin: miter"/>
    </defs>
    <g clip-path="url(#p5e85ec5fa3)">
     <use xlink:href="#m5a70249651" x="7.289113" y="61.289226" style="fill: #80b2ff; stroke: #262626; stroke-width: 0.993548; stroke-linejoin: miter"/>
    </g>
   </g>
   <g id="text_1">
    <path d="M 22.102298 15.539427 
L 22.996492 15.539427 
Q 22.977863 14.952613 22.772943 14.530355 
Q 22.569577 14.108097 22.217177 13.830214 
Q 21.864778 13.552331 21.3975 13.42348 
Q 20.930222 13.294629 20.38377 13.294629 
Q 19.897863 13.294629 19.435242 13.418823 
Q 18.972621 13.543016 18.609355 13.79606 
Q 18.247641 14.049105 18.02875 14.441867 
Q 17.811411 14.834629 17.811411 15.370214 
Q 17.811411 15.857673 18.003911 16.180577 
Q 18.197964 16.50348 18.520867 16.706847 
Q 18.84377 16.910214 19.250504 17.034407 
Q 19.65879 17.158601 20.081048 17.253298 
Q 20.503306 17.347996 20.91004 17.438036 
Q 21.318327 17.526524 21.64123 17.670899 
Q 21.964133 17.815274 22.156633 18.04348 
Q 22.350685 18.271685 22.350685 18.639609 
Q 22.350685 19.026161 22.192339 19.274548 
Q 22.033992 19.522935 21.774738 19.66731 
Q 21.517036 19.811685 21.194133 19.87223 
Q 20.87123 19.931222 20.552984 19.931222 
Q 20.155564 19.931222 19.778327 19.831867 
Q 19.401089 19.732512 19.116996 19.524488 
Q 18.834456 19.314911 18.660585 18.992008 
Q 18.486714 18.669105 18.486714 18.222008 
L 17.59252 18.222008 
Q 17.59252 18.867815 17.825383 19.33975 
Q 18.059798 19.811685 18.461875 20.114407 
Q 18.863952 20.417129 19.394879 20.566161 
Q 19.927359 20.715194 20.523488 20.715194 
Q 21.009395 20.715194 21.501512 20.600315 
Q 21.993629 20.486988 22.391048 20.233944 
Q 22.788468 19.980899 23.041512 19.578823 
Q 23.294556 19.175194 23.294556 18.610113 
Q 23.294556 18.08229 23.100504 17.734548 
Q 22.908004 17.386806 22.585101 17.158601 
Q 22.262197 16.930395 21.853911 16.796887 
Q 21.447177 16.661827 21.024919 16.562472 
Q 20.602661 16.463117 20.194375 16.379286 
Q 19.787641 16.293903 19.464738 16.165052 
Q 19.141835 16.036202 18.947782 15.832835 
Q 18.755282 15.629468 18.755282 15.300355 
Q 18.755282 14.952613 18.88879 14.71975 
Q 19.022298 14.486887 19.245847 14.347169 
Q 19.469395 14.207452 19.758145 14.14846 
Q 20.046895 14.089468 20.34496 14.089468 
Q 21.079254 14.089468 21.551189 14.432552 
Q 22.023125 14.774085 22.102298 15.539427 
z
M 24.268233 15.419891 
L 24.268233 20.556847 
L 25.112749 20.556847 
L 25.112749 18.271685 
Q 25.112749 17.774911 25.212104 17.393016 
Q 25.311458 17.009569 25.530349 16.742552 
Q 25.749241 16.473984 26.106297 16.334266 
Q 26.464906 16.194548 26.970995 16.194548 
L 26.970995 15.300355 
Q 26.286378 15.281726 25.839281 15.57979 
Q 25.392184 15.877855 25.083253 16.50348 
L 25.063071 16.50348 
L 25.063071 15.419891 
L 24.268233 15.419891 
z
M 28.400849 16.176385 
L 30.794835 16.176385 
L 30.794835 16.753419 
L 27.576049 16.753419 
L 27.576049 16.176385 
Q 27.966172 15.772135 28.639922 15.091865 
Q 29.314759 14.410508 29.487543 14.21273 
Q 29.816811 13.843254 29.947214 13.586794 
Q 30.078704 13.330335 30.078704 13.082569 
Q 30.078704 12.678319 29.795077 12.424032 
Q 29.51145 12.168659 29.056125 12.168659 
Q 28.733378 12.168659 28.374769 12.280589 
Q 28.017246 12.392518 27.609736 12.620724 
L 27.609736 11.927413 
Q 28.023767 11.761149 28.383462 11.676387 
Q 28.744244 11.591625 29.043085 11.591625 
Q 29.830938 11.591625 30.299303 11.986095 
Q 30.767668 12.379478 30.767668 13.038014 
Q 30.767668 13.350982 30.650305 13.631349 
Q 30.534029 13.910629 30.224321 14.290972 
Q 30.139559 14.389861 29.684234 14.860399 
Q 29.229996 15.330938 28.400849 16.176385 
z
M 34.916302 12.392518 
L 34.916302 14.284452 
L 36.807148 14.284452 
L 36.807148 14.861486 
L 34.916302 14.861486 
L 34.916302 16.753419 
L 34.345788 16.753419 
L 34.345788 14.861486 
L 32.453854 14.861486 
L 32.453854 14.284452 
L 34.345788 14.284452 
L 34.345788 12.392518 
L 34.916302 12.392518 
z
" style="stroke: #ffffff; stroke-width: 2.980645"/>
    <path d="M 22.102298 15.539427 
L 22.996492 15.539427 
Q 22.977863 14.952613 22.772943 14.530355 
Q 22.569577 14.108097 22.217177 13.830214 
Q 21.864778 13.552331 21.3975 13.42348 
Q 20.930222 13.294629 20.38377 13.294629 
Q 19.897863 13.294629 19.435242 13.418823 
Q 18.972621 13.543016 18.609355 13.79606 
Q 18.247641 14.049105 18.02875 14.441867 
Q 17.811411 14.834629 17.811411 15.370214 
Q 17.811411 15.857673 18.003911 16.180577 
Q 18.197964 16.50348 18.520867 16.706847 
Q 18.84377 16.910214 19.250504 17.034407 
Q 19.65879 17.158601 20.081048 17.253298 
Q 20.503306 17.347996 20.91004 17.438036 
Q 21.318327 17.526524 21.64123 17.670899 
Q 21.964133 17.815274 22.156633 18.04348 
Q 22.350685 18.271685 22.350685 18.639609 
Q 22.350685 19.026161 22.192339 19.274548 
Q 22.033992 19.522935 21.774738 19.66731 
Q 21.517036 19.811685 21.194133 19.87223 
Q 20.87123 19.931222 20.552984 19.931222 
Q 20.155564 19.931222 19.778327 19.831867 
Q 19.401089 19.732512 19.116996 19.524488 
Q 18.834456 19.314911 18.660585 18.992008 
Q 18.486714 18.669105 18.486714 18.222008 
L 17.59252 18.222008 
Q 17.59252 18.867815 17.825383 19.33975 
Q 18.059798 19.811685 18.461875 20.114407 
Q 18.863952 20.417129 19.394879 20.566161 
Q 19.927359 20.715194 20.523488 20.715194 
Q 21.009395 20.715194 21.501512 20.600315 
Q 21.993629 20.486988 22.391048 20.233944 
Q 22.788468 19.980899 23.041512 19.578823 
Q 23.294556 19.175194 23.294556 18.610113 
Q 23.294556 18.08229 23.100504 17.734548 
Q 22.908004 17.386806 22.585101 17.158601 
Q 22.262197 16.930395 21.853911 16.796887 
Q 21.447177 16.661827 21.024919 16.562472 
Q 20.602661 16.463117 20.194375 16.379286 
Q 19.787641 16.293903 19.464738 16.165052 
Q 19.141835 16.036202 18.947782 15.832835 
Q 18.755282 15.629468 18.755282 15.300355 
Q 18.755282 14.952613 18.88879 14.71975 
Q 19.022298 14.486887 19.245847 14.347169 
Q 19.469395 14.207452 19.758145 14.14846 
Q 20.046895 14.089468 20.34496 14.089468 
Q 21.079254 14.089468 21.551189 14.432552 
Q 22.023125 14.774085 22.102298 15.539427 
z
M 24.268233 15.419891 
L 24.268233 20.556847 
L 25.112749 20.556847 
L 25.112749 18.271685 
Q 25.112749 17.774911 25.212104 17.393016 
Q 25.311458 17.009569 25.530349 16.742552 
Q 25.749241 16.473984 26.106297 16.334266 
Q 26.464906 16.194548 26.970995 16.194548 
L 26.970995 15.300355 
Q 26.286378 15.281726 25.839281 15.57979 
Q 25.392184 15.877855 25.083253 16.50348 
L 25.063071 16.50348 
L 25.063071 15.419891 
L 24.268233 15.419891 
z
M 28.400849 16.176385 
L 30.794835 16.176385 
L 30.794835 16.753419 
L 27.576049 16.753419 
L 27.576049 16.176385 
Q 27.966172 15.772135 28.639922 15.091865 
Q 29.314759 14.410508 29.487543 14.21273 
Q 29.816811 13.843254 29.947214 13.586794 
Q 30.078704 13.330335 30.078704 13.082569 
Q 30.078704 12.678319 29.795077 12.424032 
Q 29.51145 12.168659 29.056125 12.168659 
Q 28.733378 12.168659 28.374769 12.280589 
Q 28.017246 12.392518 27.609736 12.620724 
L 27.609736 11.927413 
Q 28.023767 11.761149 28.383462 11.676387 
Q 28.744244 11.591625 29.043085 11.591625 
Q 29.830938 11.591625 30.299303 11.986095 
Q 30.767668 12.379478 30.767668 13.038014 
Q 30.767668 13.350982 30.650305 13.631349 
Q 30.534029 13.910629 30.224321 14.290972 
Q 30.139559 14.389861 29.684234 14.860399 
Q 29.229996 15.330938 28.400849 16.176385 
z
M 34.916302 12.392518 
L 34.916302 14.284452 
L 36.807148 14.284452 
L 36.807148 14.861486 
L 34.916302 14.861486 
L 34.916302 16.753419 
L 34.345788 16.753419 
L 34.345788 14.861486 
L 32.453854 14.861486 
L 32.453854 14.284452 
L 34.345788 14.284452 
L 34.345788 12.392518 
L 34.916302 12.392518 
z
"/>
   </g>
   <g id="text_2">
    <path d="M 19.609113 27.403792 
L 19.609113 33.70351 
L 20.552984 33.70351 
L 20.552984 27.403792 
L 22.917318 27.403792 
L 22.917318 26.608954 
L 17.244778 26.608954 
L 17.244778 27.403792 
L 19.609113 27.403792 
z
M 24.458249 27.642865 
L 24.458249 26.608954 
L 23.613733 26.608954 
L 23.613733 27.642865 
L 24.458249 27.642865 
z
M 23.613733 28.566554 
L 23.613733 33.70351 
L 24.458249 33.70351 
L 24.458249 28.566554 
L 23.613733 28.566554 
z
" style="stroke: #ffffff; stroke-width: 2.980645"/>
    <path d="M 19.609113 27.403792 
L 19.609113 33.70351 
L 20.552984 33.70351 
L 20.552984 27.403792 
L 22.917318 27.403792 
L 22.917318 26.608954 
L 17.244778 26.608954 
L 17.244778 27.403792 
L 19.609113 27.403792 
z
M 24.458249 27.642865 
L 24.458249 26.608954 
L 23.613733 26.608954 
L 23.613733 27.642865 
L 24.458249 27.642865 
z
M 23.613733 28.566554 
L 23.613733 33.70351 
L 24.458249 33.70351 
L 24.458249 28.566554 
L 23.613733 28.566554 
z
"/>
   </g>
   <g id="text_3">
    <path d="M 18.545706 43.320748 
Q 18.545706 42.785163 18.683871 42.26355 
Q 18.823589 41.741938 19.121653 41.324337 
Q 19.419718 40.906736 19.886996 40.653692 
Q 20.354274 40.400647 21.000081 40.400647 
Q 21.645887 40.400647 22.113165 40.653692 
Q 22.580443 40.906736 22.878508 41.324337 
Q 23.176572 41.741938 23.314738 42.26355 
Q 23.454456 42.785163 23.454456 43.320748 
Q 23.454456 43.857885 23.314738 44.379498 
Q 23.176572 44.901111 22.878508 45.318712 
Q 22.580443 45.73476 22.113165 45.989357 
Q 21.645887 46.242401 21.000081 46.242401 
Q 20.354274 46.242401 19.886996 45.989357 
Q 19.419718 45.73476 19.121653 45.318712 
Q 18.823589 44.901111 18.683871 44.379498 
Q 18.545706 43.857885 18.545706 43.320748 
z
M 17.601835 43.320748 
Q 17.601835 44.045728 17.814516 44.716373 
Q 18.02875 45.387018 18.455665 45.903974 
Q 18.884133 46.420929 19.519072 46.723651 
Q 20.155564 47.026373 21.000081 47.026373 
Q 21.844597 47.026373 22.479536 46.723651 
Q 23.116028 46.420929 23.542943 45.903974 
Q 23.971411 45.387018 24.184093 44.716373 
Q 24.398327 44.045728 24.398327 43.320748 
Q 24.398327 42.595768 24.184093 41.925123 
Q 23.971411 41.254478 23.542943 40.737522 
Q 23.116028 40.220567 22.479536 39.913188 
Q 21.844597 39.605808 21.000081 39.605808 
Q 20.155564 39.605808 19.519072 39.913188 
Q 18.884133 40.220567 18.455665 40.737522 
Q 18.02875 41.254478 17.814516 41.925123 
Q 17.601835 42.595768 17.601835 43.320748 
z
" style="stroke: #ffffff; stroke-width: 2.980645"/>
    <path d="M 18.545706 43.320748 
Q 18.545706 42.785163 18.683871 42.26355 
Q 18.823589 41.741938 19.121653 41.324337 
Q 19.419718 40.906736 19.886996 40.653692 
Q 20.354274 40.400647 21.000081 40.400647 
Q 21.645887 40.400647 22.113165 40.653692 
Q 22.580443 40.906736 22.878508 41.324337 
Q 23.176572 41.741938 23.314738 42.26355 
Q 23.454456 42.785163 23.454456 43.320748 
Q 23.454456 43.857885 23.314738 44.379498 
Q 23.176572 44.901111 22.878508 45.318712 
Q 22.580443 45.73476 22.113165 45.989357 
Q 21.645887 46.242401 21.000081 46.242401 
Q 20.354274 46.242401 19.886996 45.989357 
Q 19.419718 45.73476 19.121653 45.318712 
Q 18.823589 44.901111 18.683871 44.379498 
Q 18.545706 43.857885 18.545706 43.320748 
z
M 17.601835 43.320748 
Q 17.601835 44.045728 17.814516 44.716373 
Q 18.02875 45.387018 18.455665 45.903974 
Q 18.884133 46.420929 19.519072 46.723651 
Q 20.155564 47.026373 21.000081 47.026373 
Q 21.844597 47.026373 22.479536 46.723651 
Q 23.116028 46.420929 23.542943 45.903974 
Q 23.971411 45.387018 24.184093 44.716373 
Q 24.398327 44.045728 24.398327 43.320748 
Q 24.398327 42.595768 24.184093 41.925123 
Q 23.971411 41.254478 23.542943 40.737522 
Q 23.116028 40.220567 22.479536 39.913188 
Q 21.844597 39.605808 21.000081 39.605808 
Q 20.155564 39.605808 19.519072 39.913188 
Q 18.884133 40.220567 18.455665 40.737522 
Q 18.02875 41.254478 17.814516 41.925123 
Q 17.601835 42.595768 17.601835 43.320748 
z
"/>
   </g>
   <g id="text_4">
    <path d="M 19.609113 58.406383 
L 19.609113 64.706101 
L 20.552984 64.706101 
L 20.552984 58.406383 
L 22.917318 58.406383 
L 22.917318 57.611544 
L 17.244778 57.611544 
L 17.244778 58.406383 
L 19.609113 58.406383 
z
M 24.458249 58.645456 
L 24.458249 57.611544 
L 23.613733 57.611544 
L 23.613733 58.645456 
L 24.458249 58.645456 
z
M 23.613733 59.569145 
L 23.613733 64.706101 
L 24.458249 64.706101 
L 24.458249 59.569145 
L 23.613733 59.569145 
z
M 26.45435 61.158823 
Q 26.45435 60.623238 26.592515 60.101625 
Q 26.732233 59.580012 27.030297 59.162411 
Q 27.328362 58.74481 27.79564 58.491766 
Q 28.262918 58.238722 28.908725 58.238722 
Q 29.554531 58.238722 30.021809 58.491766 
Q 30.489088 58.74481 30.787152 59.162411 
Q 31.085217 59.580012 31.223382 60.101625 
Q 31.3631 60.623238 31.3631 61.158823 
Q 31.3631 61.69596 31.223382 62.217573 
Q 31.085217 62.739185 30.787152 63.156786 
Q 30.489088 63.572835 30.021809 63.827431 
Q 29.554531 64.080476 28.908725 64.080476 
Q 28.262918 64.080476 27.79564 63.827431 
Q 27.328362 63.572835 27.030297 63.156786 
Q 26.732233 62.739185 26.592515 62.217573 
Q 26.45435 61.69596 26.45435 61.158823 
z
M 25.510479 61.158823 
Q 25.510479 61.883802 25.72316 62.554448 
Q 25.937394 63.225093 26.364309 63.742048 
Q 26.792777 64.259004 27.427717 64.561726 
Q 28.064209 64.864448 28.908725 64.864448 
Q 29.753241 64.864448 30.38818 64.561726 
Q 31.024672 64.259004 31.451588 63.742048 
Q 31.880055 63.225093 32.092737 62.554448 
Q 32.306971 61.883802 32.306971 61.158823 
Q 32.306971 60.433843 32.092737 59.763198 
Q 31.880055 59.092552 31.451588 58.575597 
Q 31.024672 58.058641 30.38818 57.751262 
Q 29.753241 57.443883 28.908725 57.443883 
Q 28.064209 57.443883 27.427717 57.751262 
Q 26.792777 58.058641 26.364309 58.575597 
Q 25.937394 59.092552 25.72316 59.763198 
Q 25.510479 60.433843 25.510479 61.158823 
z
M 35.075476 63.528125 
Q 34.613632 63.528125 34.343045 63.844353 
Q 34.073545 64.159494 34.073545 64.709361 
Q 34.073545 65.255968 34.343045 65.574369 
Q 34.613632 65.891683 35.075476 65.891683 
Q 35.537321 65.891683 35.806821 65.574369 
Q 36.076321 65.255968 36.076321 64.709361 
Q 36.076321 64.159494 35.806821 63.844353 
Q 35.537321 63.528125 35.075476 63.528125 
z
M 36.437103 61.377558 
L 36.437103 62.002407 
Q 36.17847 61.880698 35.91549 61.816583 
Q 35.652511 61.751381 35.393878 61.751381 
Q 34.714694 61.751381 34.356085 62.209966 
Q 33.998563 62.66855 33.947488 63.5955 
Q 34.14744 63.299919 34.449541 63.142349 
Q 34.752728 62.984778 35.115684 62.984778 
Q 35.87963 62.984778 36.323 63.448796 
Q 36.766371 63.911728 36.766371 64.709361 
Q 36.766371 65.490694 36.304527 65.963405 
Q 35.842682 66.43503 35.075476 66.43503 
Q 34.195255 66.43503 33.73015 65.76128 
Q 33.265045 65.086444 33.265045 63.806319 
Q 33.265045 62.604435 33.835559 61.889391 
Q 34.406073 61.174347 35.36671 61.174347 
Q 35.625343 61.174347 35.888323 61.225421 
Q 36.151303 61.276496 36.437103 61.377558 
z
" style="stroke: #ffffff; stroke-width: 2.980645"/>
    <path d="M 19.609113 58.406383 
L 19.609113 64.706101 
L 20.552984 64.706101 
L 20.552984 58.406383 
L 22.917318 58.406383 
L 22.917318 57.611544 
L 17.244778 57.611544 
L 17.244778 58.406383 
L 19.609113 58.406383 
z
M 24.458249 58.645456 
L 24.458249 57.611544 
L 23.613733 57.611544 
L 23.613733 58.645456 
L 24.458249 58.645456 
z
M 23.613733 59.569145 
L 23.613733 64.706101 
L 24.458249 64.706101 
L 24.458249 59.569145 
L 23.613733 59.569145 
z
M 26.45435 61.158823 
Q 26.45435 60.623238 26.592515 60.101625 
Q 26.732233 59.580012 27.030297 59.162411 
Q 27.328362 58.74481 27.79564 58.491766 
Q 28.262918 58.238722 28.908725 58.238722 
Q 29.554531 58.238722 30.021809 58.491766 
Q 30.489088 58.74481 30.787152 59.162411 
Q 31.085217 59.580012 31.223382 60.101625 
Q 31.3631 60.623238 31.3631 61.158823 
Q 31.3631 61.69596 31.223382 62.217573 
Q 31.085217 62.739185 30.787152 63.156786 
Q 30.489088 63.572835 30.021809 63.827431 
Q 29.554531 64.080476 28.908725 64.080476 
Q 28.262918 64.080476 27.79564 63.827431 
Q 27.328362 63.572835 27.030297 63.156786 
Q 26.732233 62.739185 26.592515 62.217573 
Q 26.45435 61.69596 26.45435 61.158823 
z
M 25.510479 61.158823 
Q 25.510479 61.883802 25.72316 62.554448 
Q 25.937394 63.225093 26.364309 63.742048 
Q 26.792777 64.259004 27.427717 64.561726 
Q 28.064209 64.864448 28.908725 64.864448 
Q 29.753241 64.864448 30.38818 64.561726 
Q 31.024672 64.259004 31.451588 63.742048 
Q 31.880055 63.225093 32.092737 62.554448 
Q 32.306971 61.883802 32.306971 61.158823 
Q 32.306971 60.433843 32.092737 59.763198 
Q 31.880055 59.092552 31.451588 58.575597 
Q 31.024672 58.058641 30.38818 57.751262 
Q 29.753241 57.443883 28.908725 57.443883 
Q 28.064209 57.443883 27.427717 57.751262 
Q 26.792777 58.058641 26.364309 58.575597 
Q 25.937394 59.092552 25.72316 59.763198 
Q 25.510479 60.433843 25.510479 61.158823 
z
M 35.075476 63.528125 
Q 34.613632 63.528125 34.343045 63.844353 
Q 34.073545 64.159494 34.073545 64.709361 
Q 34.073545 65.255968 34.343045 65.574369 
Q 34.613632 65.891683 35.075476 65.891683 
Q 35.537321 65.891683 35.806821 65.574369 
Q 36.076321 65.255968 36.076321 64.709361 
Q 36.076321 64.159494 35.806821 63.844353 
Q 35.537321 63.528125 35.075476 63.528125 
z
M 36.437103 61.377558 
L 36.437103 62.002407 
Q 36.17847 61.880698 35.91549 61.816583 
Q 35.652511 61.751381 35.393878 61.751381 
Q 34.714694 61.751381 34.356085 62.209966 
Q 33.998563 62.66855 33.947488 63.5955 
Q 34.14744 63.299919 34.449541 63.142349 
Q 34.752728 62.984778 35.115684 62.984778 
Q 35.87963 62.984778 36.323 63.448796 
Q 36.766371 63.911728 36.766371 64.709361 
Q 36.766371 65.490694 36.304527 65.963405 
Q 35.842682 66.43503 35.075476 66.43503 
Q 34.195255 66.43503 33.73015 65.76128 
Q 33.265045 65.086444 33.265045 63.806319 
Q 33.265045 62.604435 33.835559 61.889391 
Q 34.406073 61.174347 35.36671 61.174347 
Q 35.625343 61.174347 35.888323 61.225421 
Q 36.151303 61.276496 36.437103 61.377558 
z
"/>
   </g>
  </g>
 </g>
 <defs>
  <clipPath id="p5e85ec5fa3">
   <rect x="-192.871145" y="-133.90329" width="221.76" height="221.76"/>
  </clipPath>
 </defs>
</svg>
