<?xml version="1.0" encoding="utf-8" standalone="no"?>
<!DOCTYPE svg PUBLIC "-//W3C//DTD SVG 1.1//EN"
  "http://www.w3.org/Graphics/SVG/1.1/DTD/svg11.dtd">
<svg xmlns:xlink="http://www.w3.org/1999/xlink" width="64.8pt" height="57.6pt" viewBox="0 0 64.8 57.6" xmlns="http://www.w3.org/2000/svg" version="1.1">
 <metadata>
  <rdf:RDF xmlns:dc="http://purl.org/dc/elements/1.1/" xmlns:cc="http://creativecommons.org/ns#" xmlns:rdf="http://www.w3.org/1999/02/22-rdf-syntax-ns#">
   <cc:Work>
    <dc:type rdf:resource="http://purl.org/dc/dcmitype/StillImage"/>
    <dc:date>2026-02-24T19:32:46.430943</dc:date>
    <dc:format>image/svg+xml</dc:format>
    <dc:creator>
     <cc:Agent>
      <dc:title>Matplotlib v3.10.7, https://matplotlib.org/</dc:title>
     </cc:Agent>
    </dc:creator>
   </cc:Work>
  </rdf:RDF>
 </metadata>
 <defs>
  <style type="text/css">*{stroke-linejoin: round; stroke-linecap: butt}</style>
 </defs>
 <g id="figure_1">
  <g id="patch_1">
   <path d="M 0 57.6 
L 64.8 57.6 
L 64.8 0 
L 0 0 
z
" style="fill: #ffffff"/>
  </g>
  <g id="axes_1">
   <g id="line2d_1">
    <defs>
     <path id="md0379eda92" d="M 0 -4.967742 
L -4.302191 -2.483871 
L -4.302191 2.483871 
L -0 4.967742 
L 4.302191 2.483871 
L 4.302191 -2.483871 
z
" style="stroke: #262626; stroke-width: 0.993548; stroke-linejoin: miter"/>
    </defs>
    <g clip-path="url(#pbc16f9a71d)">
     <use xlink:href="#md0379eda92" x="5.286129" y="15.456452" style="fill: #0000ff; stroke: #262626; stroke-width: 0.993548; stroke-linejoin: miter"/>
    </g>
   </g>
   <g id="line2d_2">
    <defs>
     <path id="m4bd891b21b" d="M -3.512724 -3.512724 
L -3.512724 3.512724 
L 3.512724 3.512724 
L 3.512724 -3.512724 
z
" style="stroke: #262626; stroke-width: 0.993548; stroke-linejoin: miter"/>
    </defs>
    <g clip-path="url(#pbc16f9a71d)">
     <use xlink:href="#m4bd891b21b" x="5.286129" y="27.875806" style="fill: #ff0000; stroke: #262626; stroke-width: 0.993548; stroke-linejoin: miter"/>
    </g>
   </g>
   <g id="line2d_3">
    <defs>
     <path id="mf2789274b5" d="M 0 4.967742 
C 1.317461 4.967742 2.581139 4.444309 3.512724 3.512724 
C 4.444309 2.581139 4.967742 1.317461 4.967742 0 
C 4.967742 -1.317461 4.444309 -2.581139 3.512724 -3.512724 
C 2.581139 -4.444309 1.317461 -4.967742 0 -4.967742 
C -1.317461 -4.967742 -2.581139 -4.444309 -3.512724 -3.512724 
C -4.444309 -2.581139 -4.967742 -1.317461 -4.967742 0 
C -4.967742 1.317461 -4.444309 2.581139 -3.512724 3.512724 
C -2.581139 4.444309 -1.317461 4.967742 0 4.967742 
z
" style="stroke: #262626; stroke-width: 0.993548"/>
    </defs>
    <g clip-path="url(#pbc16f9a71d)">
     <use xlink:href="#mf2789274b5" x="5.286129" y="40.295161" style="fill: #008000; stroke: #262626; stroke-width: 0.993548"/>
    </g>
   </g>
   <g id="text_1">
    <path d="M 16.542722 15.371845 
Q 16.542722 14.83626 16.680887 14.314647 
Q 16.820605 13.793034 17.118669 13.375433 
Q 17.416734 12.957833 17.884012 12.704788 
Q 18.35129 12.451744 18.997097 12.451744 
Q 19.642903 12.451744 20.110181 12.704788 
Q 20.57746 12.957833 20.875524 13.375433 
Q 21.173589 13.793034 21.311754 14.314647 
Q 21.451472 14.83626 21.451472 15.371845 
Q 21.451472 15.908982 21.311754 16.430595 
Q 21.173589 16.952208 20.875524 17.369808 
Q 20.57746 17.785857 20.110181 18.040454 
Q 19.642903 18.293498 18.997097 18.293498 
Q 18.35129 18.293498 17.884012 18.040454 
Q 17.416734 17.785857 17.118669 17.369808 
Q 16.820605 16.952208 16.680887 16.430595 
Q 16.542722 15.908982 16.542722 15.371845 
z
M 15.598851 15.371845 
Q 15.598851 16.096825 15.811532 16.76747 
Q 16.025766 17.438115 16.452681 17.955071 
Q 16.881149 18.472026 17.516089 18.774748 
Q 18.152581 19.07747 18.997097 19.07747 
Q 19.841613 19.07747 20.476552 18.774748 
Q 21.113044 18.472026 21.53996 17.955071 
Q 21.968427 17.438115 22.181109 16.76747 
Q 22.395343 16.096825 22.395343 15.371845 
Q 22.395343 14.646865 22.181109 13.97622 
Q 21.968427 13.305575 21.53996 12.788619 
Q 21.113044 12.271663 20.476552 11.964284 
Q 19.841613 11.656905 18.997097 11.656905 
Q 18.152581 11.656905 17.516089 11.964284 
Q 16.881149 12.271663 16.452681 12.788619 
Q 16.025766 13.305575 15.811532 13.97622 
Q 15.598851 14.646865 15.598851 15.371845 
z
M 26.895805 15.432389 
L 27.769817 15.432389 
Q 27.72014 14.974425 27.530744 14.642208 
Q 27.342902 14.308437 27.049494 14.091099 
Q 26.756087 13.872208 26.374192 13.768196 
Q 25.992297 13.662631 25.554515 13.662631 
Q 24.949071 13.662631 24.491107 13.876865 
Q 24.034696 14.091099 23.730422 14.463679 
Q 23.4277 14.83626 23.278668 15.337692 
Q 23.129636 15.839123 23.129636 16.415071 
Q 23.129636 16.991018 23.283325 17.473821 
Q 23.438567 17.955071 23.741289 18.302812 
Q 24.044011 18.650554 24.495765 18.83995 
Q 24.949071 19.027792 25.534333 19.027792 
Q 26.518567 19.027792 27.089857 18.512389 
Q 27.661148 17.995433 27.799313 17.040696 
L 26.936168 17.040696 
Q 26.855442 17.636825 26.503043 17.965937 
Q 26.150644 18.293498 25.525019 18.293498 
Q 25.127599 18.293498 24.838849 18.135151 
Q 24.551652 17.975252 24.371571 17.712893 
Q 24.193043 17.448982 24.10766 17.112107 
Q 24.023829 16.773679 24.023829 16.415071 
Q 24.023829 16.028518 24.103003 15.665252 
Q 24.183728 15.301986 24.366914 15.024103 
Q 24.551652 14.74622 24.859031 14.577006 
Q 25.16641 14.407792 25.624373 14.407792 
Q 26.159958 14.407792 26.478204 14.676361 
Q 26.79645 14.944929 26.895805 15.432389 
z
M 29.916502 13.782167 
L 29.916502 12.242167 
L 29.071986 12.242167 
L 29.071986 13.782167 
L 28.197974 13.782167 
L 28.197974 14.527329 
L 29.071986 14.527329 
L 29.071986 17.796724 
Q 29.071986 18.15378 29.140293 18.372671 
Q 29.210151 18.591562 29.354526 18.711099 
Q 29.498901 18.829083 29.731764 18.874103 
Q 29.96618 18.919123 30.29374 18.919123 
L 30.939547 18.919123 
L 30.939547 18.173962 
L 30.551442 18.173962 
Q 30.352732 18.173962 30.228539 18.15999 
Q 30.104345 18.144466 30.034486 18.094788 
Q 29.96618 18.045111 29.941341 17.956623 
Q 29.916502 17.866583 29.916502 17.71755 
L 29.916502 14.527329 
L 30.939547 14.527329 
L 30.939547 13.782167 
L 29.916502 13.782167 
z
M 36.424243 18.898942 
Q 36.205352 19.027792 35.817247 19.027792 
Q 35.489686 19.027792 35.295634 18.844607 
Q 35.103134 18.661421 35.103134 18.243821 
Q 34.755392 18.661421 34.292771 18.844607 
Q 33.83015 19.027792 33.294565 19.027792 
Q 32.946823 19.027792 32.633235 18.948619 
Q 32.321198 18.869446 32.09144 18.700232 
Q 31.863235 18.531018 31.728174 18.257792 
Q 31.594666 17.984567 31.594666 17.598014 
Q 31.594666 17.160232 31.743698 16.882349 
Q 31.892731 16.604466 32.13646 16.430595 
Q 32.38019 16.256724 32.692227 16.168236 
Q 33.005815 16.078196 33.333376 16.017651 
Q 33.681118 15.947792 33.994706 15.913639 
Q 34.308295 15.879486 34.545815 15.814284 
Q 34.784888 15.749083 34.923053 15.624889 
Q 35.062771 15.500696 35.062771 15.263175 
Q 35.062771 14.985292 34.958759 14.816079 
Q 34.854747 14.646865 34.69019 14.558377 
Q 34.525634 14.468337 34.322267 14.438841 
Q 34.1189 14.407792 33.92019 14.407792 
Q 33.383053 14.407792 33.025997 14.612712 
Q 32.66894 14.816079 32.637892 15.382712 
L 31.793376 15.382712 
Q 31.813557 14.904567 31.992085 14.577006 
Q 32.172166 14.249446 32.470231 14.046079 
Q 32.768295 13.842712 33.15019 13.752671 
Q 33.532085 13.662631 33.969868 13.662631 
Q 34.31761 13.662631 34.660694 13.712308 
Q 35.003779 13.761986 35.281662 13.917228 
Q 35.559545 14.070917 35.728759 14.3488 
Q 35.897972 14.626683 35.897972 15.07378 
L 35.897972 17.71755 
Q 35.897972 18.015615 35.932126 18.155333 
Q 35.966279 18.293498 36.164989 18.293498 
Q 36.27521 18.293498 36.424243 18.243821 
L 36.424243 18.898942 
z
M 35.053456 16.266038 
Q 34.893557 16.385575 34.634303 16.439909 
Q 34.376602 16.494244 34.094061 16.52995 
Q 33.811521 16.564103 33.522771 16.609123 
Q 33.234021 16.654143 33.005815 16.753498 
Q 32.77761 16.852853 32.633235 17.037591 
Q 32.48886 17.220776 32.48886 17.53747 
Q 32.48886 17.747046 32.57269 17.891421 
Q 32.658073 18.034244 32.791581 18.124284 
Q 32.926642 18.214325 33.10517 18.254687 
Q 33.283698 18.293498 33.482408 18.293498 
Q 33.900009 18.293498 34.198073 18.180171 
Q 34.496138 18.065292 34.683981 17.891421 
Q 34.873376 17.71755 34.963416 17.514183 
Q 35.053456 17.309264 35.053456 17.130736 
L 35.053456 16.266038 
z
M 37.209456 11.824567 
L 37.209456 18.919123 
L 38.053972 18.919123 
L 38.053972 16.017651 
Q 38.053972 15.669909 38.147117 15.378054 
Q 38.241815 15.084647 38.429658 14.865756 
Q 38.619053 14.646865 38.901593 14.527329 
Q 39.185686 14.407792 39.573791 14.407792 
Q 40.059698 14.407792 40.337581 14.687228 
Q 40.617017 14.965111 40.617017 15.441704 
L 40.617017 18.919123 
L 41.461533 18.919123 
L 41.461533 15.541058 
Q 41.461533 15.123458 41.37615 14.781925 
Q 41.292319 14.438841 41.082742 14.190454 
Q 40.874718 13.942067 40.536291 13.802349 
Q 40.199416 13.662631 39.693327 13.662631 
Q 39.463569 13.662631 39.219839 13.712308 
Q 38.977662 13.761986 38.754113 13.86755 
Q 38.530565 13.971562 38.350484 14.136119 
Q 38.171956 14.299123 38.072601 14.538196 
L 38.053972 14.538196 
L 38.053972 11.824567 
L 37.209456 11.824567 
z
M 46.299491 15.859304 
L 43.348342 15.859304 
Q 43.368524 15.56124 43.477193 15.298881 
Q 43.587415 15.03497 43.775258 14.83626 
Q 43.964653 14.63755 44.227012 14.522671 
Q 44.490923 14.407792 44.820036 14.407792 
Q 45.136729 14.407792 45.400641 14.522671 
Q 45.664552 14.63755 45.857052 14.831603 
Q 46.051104 15.024103 46.164431 15.292671 
Q 46.27931 15.56124 46.299491 15.859304 
z
M 47.114512 17.289083 
L 46.27931 17.289083 
Q 46.170641 17.796724 45.827556 18.045111 
Q 45.484471 18.293498 44.948887 18.293498 
Q 44.531286 18.293498 44.222354 18.155333 
Q 43.914975 18.015615 43.716266 17.782752 
Q 43.517556 17.548337 43.427516 17.245615 
Q 43.339028 16.941341 43.348342 16.604466 
L 47.193685 16.604466 
Q 47.213866 16.137187 47.109854 15.620232 
Q 47.005842 15.103276 46.732616 14.667046 
Q 46.459391 14.229264 46.006084 13.946724 
Q 45.55433 13.662631 44.869713 13.662631 
Q 44.341891 13.662631 43.899451 13.861341 
Q 43.458564 14.06005 43.135661 14.418659 
Q 42.812758 14.775716 42.632677 15.263175 
Q 42.454149 15.749083 42.454149 16.335897 
Q 42.47433 16.922712 42.62802 17.419486 
Q 42.783262 17.91626 43.090641 18.273317 
Q 43.39802 18.630373 43.849774 18.829083 
Q 44.30308 19.027792 44.919391 19.027792 
Q 45.793403 19.027792 46.36935 18.591562 
Q 46.945298 18.15378 47.114512 17.289083 
z
M 48.683697 16.394889 
Q 48.683697 16.017651 48.76287 15.660595 
Q 48.843596 15.301986 49.022124 15.024103 
Q 49.200652 14.74622 49.498717 14.577006 
Q 49.796781 14.407792 50.223697 14.407792 
Q 50.661479 14.407792 50.968858 14.572349 
Q 51.27779 14.736905 51.47029 15.005474 
Q 51.664342 15.27249 51.754382 15.626442 
Q 51.844423 15.978841 51.844423 16.356079 
Q 51.844423 16.713135 51.75904 17.060877 
Q 51.675209 17.408619 51.485814 17.681845 
Q 51.297971 17.955071 50.999906 18.124284 
Q 50.701842 18.293498 50.273374 18.293498 
Q 49.86664 18.293498 49.563919 18.135151 
Q 49.261197 17.975252 49.067144 17.706683 
Q 48.873092 17.438115 48.778394 17.096583 
Q 48.683697 16.753498 48.683697 16.394889 
z
M 52.65789 18.919123 
L 52.65789 11.824567 
L 51.813374 11.824567 
L 51.813374 14.468337 
L 51.794745 14.468337 
Q 51.655027 14.240131 51.45166 14.086442 
Q 51.248294 13.9312 51.018535 13.838054 
Q 50.79033 13.743357 50.562124 13.702994 
Q 50.333919 13.662631 50.135209 13.662631 
Q 49.548394 13.662631 49.105955 13.876865 
Q 48.665068 14.091099 48.37166 14.454365 
Q 48.078253 14.816079 47.933878 15.303538 
Q 47.789503 15.789446 47.789503 16.335897 
Q 47.789503 16.882349 47.938535 17.369808 
Q 48.087568 17.855716 48.380975 18.223639 
Q 48.674382 18.591562 49.116822 18.810454 
Q 49.559261 19.027792 50.15539 19.027792 
Q 50.690975 19.027792 51.138072 18.83995 
Q 51.585169 18.650554 51.794745 18.223639 
L 51.813374 18.223639 
L 51.813374 18.919123 
L 52.65789 18.919123 
z
M 53.929631 13.782167 
L 53.929631 18.919123 
L 54.774147 18.919123 
L 54.774147 16.633962 
Q 54.774147 16.137187 54.873502 15.755292 
Q 54.972857 15.371845 55.191748 15.104829 
Q 55.410639 14.83626 55.767696 14.696542 
Q 56.126304 14.556825 56.632393 14.556825 
L 56.632393 13.662631 
Q 55.947776 13.644002 55.500679 13.942067 
Q 55.053583 14.240131 54.744651 14.865756 
L 54.72447 14.865756 
L 54.72447 13.782167 
L 53.929631 13.782167 
z
M 61.819335 18.898942 
Q 61.600444 19.027792 61.212339 19.027792 
Q 60.884779 19.027792 60.690727 18.844607 
Q 60.498227 18.661421 60.498227 18.243821 
Q 60.150485 18.661421 59.687864 18.844607 
Q 59.225243 19.027792 58.689658 19.027792 
Q 58.341916 19.027792 58.028327 18.948619 
Q 57.716291 18.869446 57.486533 18.700232 
Q 57.258327 18.531018 57.123267 18.257792 
Q 56.989759 17.984567 56.989759 17.598014 
Q 56.989759 17.160232 57.138791 16.882349 
Q 57.287823 16.604466 57.531553 16.430595 
Q 57.775283 16.256724 58.087319 16.168236 
Q 58.400908 16.078196 58.728469 16.017651 
Q 59.07621 15.947792 59.389799 15.913639 
Q 59.703388 15.879486 59.940908 15.814284 
Q 60.179981 15.749083 60.318146 15.624889 
Q 60.457864 15.500696 60.457864 15.263175 
Q 60.457864 14.985292 60.353852 14.816079 
Q 60.249839 14.646865 60.085283 14.558377 
Q 59.920727 14.468337 59.71736 14.438841 
Q 59.513993 14.407792 59.315283 14.407792 
Q 58.778146 14.407792 58.421089 14.612712 
Q 58.064033 14.816079 58.032985 15.382712 
L 57.188469 15.382712 
Q 57.20865 14.904567 57.387178 14.577006 
Q 57.567259 14.249446 57.865323 14.046079 
Q 58.163388 13.842712 58.545283 13.752671 
Q 58.927178 13.662631 59.36496 13.662631 
Q 59.712702 13.662631 60.055787 13.712308 
Q 60.398872 13.761986 60.676755 13.917228 
Q 60.954638 14.070917 61.123852 14.3488 
Q 61.293065 14.626683 61.293065 15.07378 
L 61.293065 17.71755 
Q 61.293065 18.015615 61.327219 18.155333 
Q 61.361372 18.293498 61.560081 18.293498 
Q 61.670303 18.293498 61.819335 18.243821 
L 61.819335 18.898942 
z
M 60.448549 16.266038 
Q 60.28865 16.385575 60.029396 16.439909 
Q 59.771694 16.494244 59.489154 16.52995 
Q 59.206614 16.564103 58.917864 16.609123 
Q 58.629114 16.654143 58.400908 16.753498 
Q 58.172702 16.852853 58.028327 17.037591 
Q 57.883952 17.220776 57.883952 17.53747 
Q 57.883952 17.747046 57.967783 17.891421 
Q 58.053166 18.034244 58.186674 18.124284 
Q 58.321735 18.214325 58.500263 18.254687 
Q 58.678791 18.293498 58.877501 18.293498 
Q 59.295102 18.293498 59.593166 18.180171 
Q 59.891231 18.065292 60.079073 17.891421 
Q 60.268469 17.71755 60.358509 17.514183 
Q 60.448549 17.309264 60.448549 17.130736 
L 60.448549 16.266038 
z
M 62.654226 11.824567 
L 62.654226 18.919123 
L 63.498742 18.919123 
L 63.498742 11.824567 
L 62.654226 11.824567 
z
" style="stroke: #ffffff; stroke-width: 2.980645"/>
    <path d="M 16.542722 15.371845 
Q 16.542722 14.83626 16.680887 14.314647 
Q 16.820605 13.793034 17.118669 13.375433 
Q 17.416734 12.957833 17.884012 12.704788 
Q 18.35129 12.451744 18.997097 12.451744 
Q 19.642903 12.451744 20.110181 12.704788 
Q 20.57746 12.957833 20.875524 13.375433 
Q 21.173589 13.793034 21.311754 14.314647 
Q 21.451472 14.83626 21.451472 15.371845 
Q 21.451472 15.908982 21.311754 16.430595 
Q 21.173589 16.952208 20.875524 17.369808 
Q 20.57746 17.785857 20.110181 18.040454 
Q 19.642903 18.293498 18.997097 18.293498 
Q 18.35129 18.293498 17.884012 18.040454 
Q 17.416734 17.785857 17.118669 17.369808 
Q 16.820605 16.952208 16.680887 16.430595 
Q 16.542722 15.908982 16.542722 15.371845 
z
M 15.598851 15.371845 
Q 15.598851 16.096825 15.811532 16.76747 
Q 16.025766 17.438115 16.452681 17.955071 
Q 16.881149 18.472026 17.516089 18.774748 
Q 18.152581 19.07747 18.997097 19.07747 
Q 19.841613 19.07747 20.476552 18.774748 
Q 21.113044 18.472026 21.53996 17.955071 
Q 21.968427 17.438115 22.181109 16.76747 
Q 22.395343 16.096825 22.395343 15.371845 
Q 22.395343 14.646865 22.181109 13.97622 
Q 21.968427 13.305575 21.53996 12.788619 
Q 21.113044 12.271663 20.476552 11.964284 
Q 19.841613 11.656905 18.997097 11.656905 
Q 18.152581 11.656905 17.516089 11.964284 
Q 16.881149 12.271663 16.452681 12.788619 
Q 16.025766 13.305575 15.811532 13.97622 
Q 15.598851 14.646865 15.598851 15.371845 
z
M 26.895805 15.432389 
L 27.769817 15.432389 
Q 27.72014 14.974425 27.530744 14.642208 
Q 27.342902 14.308437 27.049494 14.091099 
Q 26.756087 13.872208 26.374192 13.768196 
Q 25.992297 13.662631 25.554515 13.662631 
Q 24.949071 13.662631 24.491107 13.876865 
Q 24.034696 14.091099 23.730422 14.463679 
Q 23.4277 14.83626 23.278668 15.337692 
Q 23.129636 15.839123 23.129636 16.415071 
Q 23.129636 16.991018 23.283325 17.473821 
Q 23.438567 17.955071 23.741289 18.302812 
Q 24.044011 18.650554 24.495765 18.83995 
Q 24.949071 19.027792 25.534333 19.027792 
Q 26.518567 19.027792 27.089857 18.512389 
Q 27.661148 17.995433 27.799313 17.040696 
L 26.936168 17.040696 
Q 26.855442 17.636825 26.503043 17.965937 
Q 26.150644 18.293498 25.525019 18.293498 
Q 25.127599 18.293498 24.838849 18.135151 
Q 24.551652 17.975252 24.371571 17.712893 
Q 24.193043 17.448982 24.10766 17.112107 
Q 24.023829 16.773679 24.023829 16.415071 
Q 24.023829 16.028518 24.103003 15.665252 
Q 24.183728 15.301986 24.366914 15.024103 
Q 24.551652 14.74622 24.859031 14.577006 
Q 25.16641 14.407792 25.624373 14.407792 
Q 26.159958 14.407792 26.478204 14.676361 
Q 26.79645 14.944929 26.895805 15.432389 
z
M 29.916502 13.782167 
L 29.916502 12.242167 
L 29.071986 12.242167 
L 29.071986 13.782167 
L 28.197974 13.782167 
L 28.197974 14.527329 
L 29.071986 14.527329 
L 29.071986 17.796724 
Q 29.071986 18.15378 29.140293 18.372671 
Q 29.210151 18.591562 29.354526 18.711099 
Q 29.498901 18.829083 29.731764 18.874103 
Q 29.96618 18.919123 30.29374 18.919123 
L 30.939547 18.919123 
L 30.939547 18.173962 
L 30.551442 18.173962 
Q 30.352732 18.173962 30.228539 18.15999 
Q 30.104345 18.144466 30.034486 18.094788 
Q 29.96618 18.045111 29.941341 17.956623 
Q 29.916502 17.866583 29.916502 17.71755 
L 29.916502 14.527329 
L 30.939547 14.527329 
L 30.939547 13.782167 
L 29.916502 13.782167 
z
M 36.424243 18.898942 
Q 36.205352 19.027792 35.817247 19.027792 
Q 35.489686 19.027792 35.295634 18.844607 
Q 35.103134 18.661421 35.103134 18.243821 
Q 34.755392 18.661421 34.292771 18.844607 
Q 33.83015 19.027792 33.294565 19.027792 
Q 32.946823 19.027792 32.633235 18.948619 
Q 32.321198 18.869446 32.09144 18.700232 
Q 31.863235 18.531018 31.728174 18.257792 
Q 31.594666 17.984567 31.594666 17.598014 
Q 31.594666 17.160232 31.743698 16.882349 
Q 31.892731 16.604466 32.13646 16.430595 
Q 32.38019 16.256724 32.692227 16.168236 
Q 33.005815 16.078196 33.333376 16.017651 
Q 33.681118 15.947792 33.994706 15.913639 
Q 34.308295 15.879486 34.545815 15.814284 
Q 34.784888 15.749083 34.923053 15.624889 
Q 35.062771 15.500696 35.062771 15.263175 
Q 35.062771 14.985292 34.958759 14.816079 
Q 34.854747 14.646865 34.69019 14.558377 
Q 34.525634 14.468337 34.322267 14.438841 
Q 34.1189 14.407792 33.92019 14.407792 
Q 33.383053 14.407792 33.025997 14.612712 
Q 32.66894 14.816079 32.637892 15.382712 
L 31.793376 15.382712 
Q 31.813557 14.904567 31.992085 14.577006 
Q 32.172166 14.249446 32.470231 14.046079 
Q 32.768295 13.842712 33.15019 13.752671 
Q 33.532085 13.662631 33.969868 13.662631 
Q 34.31761 13.662631 34.660694 13.712308 
Q 35.003779 13.761986 35.281662 13.917228 
Q 35.559545 14.070917 35.728759 14.3488 
Q 35.897972 14.626683 35.897972 15.07378 
L 35.897972 17.71755 
Q 35.897972 18.015615 35.932126 18.155333 
Q 35.966279 18.293498 36.164989 18.293498 
Q 36.27521 18.293498 36.424243 18.243821 
L 36.424243 18.898942 
z
M 35.053456 16.266038 
Q 34.893557 16.385575 34.634303 16.439909 
Q 34.376602 16.494244 34.094061 16.52995 
Q 33.811521 16.564103 33.522771 16.609123 
Q 33.234021 16.654143 33.005815 16.753498 
Q 32.77761 16.852853 32.633235 17.037591 
Q 32.48886 17.220776 32.48886 17.53747 
Q 32.48886 17.747046 32.57269 17.891421 
Q 32.658073 18.034244 32.791581 18.124284 
Q 32.926642 18.214325 33.10517 18.254687 
Q 33.283698 18.293498 33.482408 18.293498 
Q 33.900009 18.293498 34.198073 18.180171 
Q 34.496138 18.065292 34.683981 17.891421 
Q 34.873376 17.71755 34.963416 17.514183 
Q 35.053456 17.309264 35.053456 17.130736 
L 35.053456 16.266038 
z
M 37.209456 11.824567 
L 37.209456 18.919123 
L 38.053972 18.919123 
L 38.053972 16.017651 
Q 38.053972 15.669909 38.147117 15.378054 
Q 38.241815 15.084647 38.429658 14.865756 
Q 38.619053 14.646865 38.901593 14.527329 
Q 39.185686 14.407792 39.573791 14.407792 
Q 40.059698 14.407792 40.337581 14.687228 
Q 40.617017 14.965111 40.617017 15.441704 
L 40.617017 18.919123 
L 41.461533 18.919123 
L 41.461533 15.541058 
Q 41.461533 15.123458 41.37615 14.781925 
Q 41.292319 14.438841 41.082742 14.190454 
Q 40.874718 13.942067 40.536291 13.802349 
Q 40.199416 13.662631 39.693327 13.662631 
Q 39.463569 13.662631 39.219839 13.712308 
Q 38.977662 13.761986 38.754113 13.86755 
Q 38.530565 13.971562 38.350484 14.136119 
Q 38.171956 14.299123 38.072601 14.538196 
L 38.053972 14.538196 
L 38.053972 11.824567 
L 37.209456 11.824567 
z
M 46.299491 15.859304 
L 43.348342 15.859304 
Q 43.368524 15.56124 43.477193 15.298881 
Q 43.587415 15.03497 43.775258 14.83626 
Q 43.964653 14.63755 44.227012 14.522671 
Q 44.490923 14.407792 44.820036 14.407792 
Q 45.136729 14.407792 45.400641 14.522671 
Q 45.664552 14.63755 45.857052 14.831603 
Q 46.051104 15.024103 46.164431 15.292671 
Q 46.27931 15.56124 46.299491 15.859304 
z
M 47.114512 17.289083 
L 46.27931 17.289083 
Q 46.170641 17.796724 45.827556 18.045111 
Q 45.484471 18.293498 44.948887 18.293498 
Q 44.531286 18.293498 44.222354 18.155333 
Q 43.914975 18.015615 43.716266 17.782752 
Q 43.517556 17.548337 43.427516 17.245615 
Q 43.339028 16.941341 43.348342 16.604466 
L 47.193685 16.604466 
Q 47.213866 16.137187 47.109854 15.620232 
Q 47.005842 15.103276 46.732616 14.667046 
Q 46.459391 14.229264 46.006084 13.946724 
Q 45.55433 13.662631 44.869713 13.662631 
Q 44.341891 13.662631 43.899451 13.861341 
Q 43.458564 14.06005 43.135661 14.418659 
Q 42.812758 14.775716 42.632677 15.263175 
Q 42.454149 15.749083 42.454149 16.335897 
Q 42.47433 16.922712 42.62802 17.419486 
Q 42.783262 17.91626 43.090641 18.273317 
Q 43.39802 18.630373 43.849774 18.829083 
Q 44.30308 19.027792 44.919391 19.027792 
Q 45.793403 19.027792 46.36935 18.591562 
Q 46.945298 18.15378 47.114512 17.289083 
z
M 48.683697 16.394889 
Q 48.683697 16.017651 48.76287 15.660595 
Q 48.843596 15.301986 49.022124 15.024103 
Q 49.200652 14.74622 49.498717 14.577006 
Q 49.796781 14.407792 50.223697 14.407792 
Q 50.661479 14.407792 50.968858 14.572349 
Q 51.27779 14.736905 51.47029 15.005474 
Q 51.664342 15.27249 51.754382 15.626442 
Q 51.844423 15.978841 51.844423 16.356079 
Q 51.844423 16.713135 51.75904 17.060877 
Q 51.675209 17.408619 51.485814 17.681845 
Q 51.297971 17.955071 50.999906 18.124284 
Q 50.701842 18.293498 50.273374 18.293498 
Q 49.86664 18.293498 49.563919 18.135151 
Q 49.261197 17.975252 49.067144 17.706683 
Q 48.873092 17.438115 48.778394 17.096583 
Q 48.683697 16.753498 48.683697 16.394889 
z
M 52.65789 18.919123 
L 52.65789 11.824567 
L 51.813374 11.824567 
L 51.813374 14.468337 
L 51.794745 14.468337 
Q 51.655027 14.240131 51.45166 14.086442 
Q 51.248294 13.9312 51.018535 13.838054 
Q 50.79033 13.743357 50.562124 13.702994 
Q 50.333919 13.662631 50.135209 13.662631 
Q 49.548394 13.662631 49.105955 13.876865 
Q 48.665068 14.091099 48.37166 14.454365 
Q 48.078253 14.816079 47.933878 15.303538 
Q 47.789503 15.789446 47.789503 16.335897 
Q 47.789503 16.882349 47.938535 17.369808 
Q 48.087568 17.855716 48.380975 18.223639 
Q 48.674382 18.591562 49.116822 18.810454 
Q 49.559261 19.027792 50.15539 19.027792 
Q 50.690975 19.027792 51.138072 18.83995 
Q 51.585169 18.650554 51.794745 18.223639 
L 51.813374 18.223639 
L 51.813374 18.919123 
L 52.65789 18.919123 
z
M 53.929631 13.782167 
L 53.929631 18.919123 
L 54.774147 18.919123 
L 54.774147 16.633962 
Q 54.774147 16.137187 54.873502 15.755292 
Q 54.972857 15.371845 55.191748 15.104829 
Q 55.410639 14.83626 55.767696 14.696542 
Q 56.126304 14.556825 56.632393 14.556825 
L 56.632393 13.662631 
Q 55.947776 13.644002 55.500679 13.942067 
Q 55.053583 14.240131 54.744651 14.865756 
L 54.72447 14.865756 
L 54.72447 13.782167 
L 53.929631 13.782167 
z
M 61.819335 18.898942 
Q 61.600444 19.027792 61.212339 19.027792 
Q 60.884779 19.027792 60.690727 18.844607 
Q 60.498227 18.661421 60.498227 18.243821 
Q 60.150485 18.661421 59.687864 18.844607 
Q 59.225243 19.027792 58.689658 19.027792 
Q 58.341916 19.027792 58.028327 18.948619 
Q 57.716291 18.869446 57.486533 18.700232 
Q 57.258327 18.531018 57.123267 18.257792 
Q 56.989759 17.984567 56.989759 17.598014 
Q 56.989759 17.160232 57.138791 16.882349 
Q 57.287823 16.604466 57.531553 16.430595 
Q 57.775283 16.256724 58.087319 16.168236 
Q 58.400908 16.078196 58.728469 16.017651 
Q 59.07621 15.947792 59.389799 15.913639 
Q 59.703388 15.879486 59.940908 15.814284 
Q 60.179981 15.749083 60.318146 15.624889 
Q 60.457864 15.500696 60.457864 15.263175 
Q 60.457864 14.985292 60.353852 14.816079 
Q 60.249839 14.646865 60.085283 14.558377 
Q 59.920727 14.468337 59.71736 14.438841 
Q 59.513993 14.407792 59.315283 14.407792 
Q 58.778146 14.407792 58.421089 14.612712 
Q 58.064033 14.816079 58.032985 15.382712 
L 57.188469 15.382712 
Q 57.20865 14.904567 57.387178 14.577006 
Q 57.567259 14.249446 57.865323 14.046079 
Q 58.163388 13.842712 58.545283 13.752671 
Q 58.927178 13.662631 59.36496 13.662631 
Q 59.712702 13.662631 60.055787 13.712308 
Q 60.398872 13.761986 60.676755 13.917228 
Q 60.954638 14.070917 61.123852 14.3488 
Q 61.293065 14.626683 61.293065 15.07378 
L 61.293065 17.71755 
Q 61.293065 18.015615 61.327219 18.155333 
Q 61.361372 18.293498 61.560081 18.293498 
Q 61.670303 18.293498 61.819335 18.243821 
L 61.819335 18.898942 
z
M 60.448549 16.266038 
Q 60.28865 16.385575 60.029396 16.439909 
Q 59.771694 16.494244 59.489154 16.52995 
Q 59.206614 16.564103 58.917864 16.609123 
Q 58.629114 16.654143 58.400908 16.753498 
Q 58.172702 16.852853 58.028327 17.037591 
Q 57.883952 17.220776 57.883952 17.53747 
Q 57.883952 17.747046 57.967783 17.891421 
Q 58.053166 18.034244 58.186674 18.124284 
Q 58.321735 18.214325 58.500263 18.254687 
Q 58.678791 18.293498 58.877501 18.293498 
Q 59.295102 18.293498 59.593166 18.180171 
Q 59.891231 18.065292 60.079073 17.891421 
Q 60.268469 17.71755 60.358509 17.514183 
Q 60.448549 17.309264 60.448549 17.130736 
L 60.448549 16.266038 
z
M 62.654226 11.824567 
L 62.654226 18.919123 
L 63.498742 18.919123 
L 63.498742 11.824567 
L 62.654226 11.824567 
z
"/>
   </g>
   <g id="text_2">
    <path d="M 17.606129 25.03876 
L 17.606129 31.338478 
L 18.55 31.338478 
L 18.55 25.03876 
L 20.914335 25.03876 
L 20.914335 24.243921 
L 15.241794 24.243921 
L 15.241794 25.03876 
L 17.606129 25.03876 
z
M 24.021657 28.278659 
L 21.070507 28.278659 
Q 21.090689 27.980595 21.199358 27.718236 
Q 21.30958 27.454325 21.497423 27.255615 
Q 21.686818 27.056905 21.949177 26.942026 
Q 22.213088 26.827147 22.542201 26.827147 
Q 22.858895 26.827147 23.122806 26.942026 
Q 23.386717 27.056905 23.579217 27.250958 
Q 23.77327 27.443458 23.886596 27.712026 
Q 24.001475 27.980595 24.021657 28.278659 
z
M 24.836677 29.708437 
L 24.001475 29.708437 
Q 23.892806 30.216079 23.549721 30.464466 
Q 23.206636 30.712853 22.671052 30.712853 
Q 22.253451 30.712853 21.94452 30.574687 
Q 21.637141 30.43497 21.438431 30.202107 
Q 21.239721 29.967692 21.149681 29.66497 
Q 21.061193 29.360696 21.070507 29.023821 
L 24.91585 29.023821 
Q 24.936032 28.556542 24.83202 28.039587 
Q 24.728007 27.522631 24.454782 27.086401 
Q 24.181556 26.648619 23.728249 26.366079 
Q 23.276495 26.081986 22.591878 26.081986 
Q 22.064056 26.081986 21.621616 26.280696 
Q 21.180729 26.479405 20.857826 26.838014 
Q 20.534923 27.195071 20.354842 27.68253 
Q 20.176314 28.168437 20.176314 28.755252 
Q 20.196495 29.342067 20.350185 29.838841 
Q 20.505427 30.335615 20.812806 30.692671 
Q 21.120185 31.049728 21.571939 31.248437 
Q 22.025245 31.447147 22.641556 31.447147 
Q 23.515568 31.447147 24.091516 31.010917 
Q 24.667463 30.573135 24.836677 29.708437 
z
M 26.963181 26.201522 
L 26.963181 24.661522 
L 26.118664 24.661522 
L 26.118664 26.201522 
L 25.244652 26.201522 
L 25.244652 26.946683 
L 26.118664 26.946683 
L 26.118664 30.216079 
Q 26.118664 30.573135 26.186971 30.792026 
Q 26.25683 31.010917 26.401205 31.130454 
Q 26.54558 31.248437 26.778443 31.293458 
Q 27.012858 31.338478 27.340418 31.338478 
L 27.986225 31.338478 
L 27.986225 30.593317 
L 27.59812 30.593317 
Q 27.39941 30.593317 27.275217 30.579345 
Q 27.151023 30.563821 27.081164 30.514143 
Q 27.012858 30.464466 26.988019 30.375978 
Q 26.963181 30.285937 26.963181 30.136905 
L 26.963181 26.946683 
L 27.986225 26.946683 
L 27.986225 26.201522 
L 26.963181 26.201522 
z
M 28.889731 26.201522 
L 28.889731 31.338478 
L 29.734248 31.338478 
L 29.734248 29.053317 
Q 29.734248 28.556542 29.833602 28.174647 
Q 29.932957 27.7912 30.151848 27.524183 
Q 30.37074 27.255615 30.727796 27.115897 
Q 31.086405 26.976179 31.592494 26.976179 
L 31.592494 26.081986 
Q 30.907877 26.063357 30.46078 26.361421 
Q 30.013683 26.659486 29.704752 27.285111 
L 29.68457 27.285111 
L 29.68457 26.201522 
L 28.889731 26.201522 
z
M 36.779436 31.318296 
Q 36.560545 31.447147 36.17244 31.447147 
Q 35.844879 31.447147 35.650827 31.263962 
Q 35.458327 31.080776 35.458327 30.663175 
Q 35.110585 31.080776 34.647964 31.263962 
Q 34.185343 31.447147 33.649758 31.447147 
Q 33.302017 31.447147 32.988428 31.367974 
Q 32.676392 31.2888 32.446633 31.119587 
Q 32.218428 30.950373 32.083367 30.677147 
Q 31.949859 30.403921 31.949859 30.017369 
Q 31.949859 29.579587 32.098892 29.301704 
Q 32.247924 29.023821 32.491654 28.84995 
Q 32.735383 28.676079 33.04742 28.587591 
Q 33.361008 28.49755 33.688569 28.437006 
Q 34.036311 28.367147 34.3499 28.332994 
Q 34.663488 28.298841 34.901008 28.233639 
Q 35.140081 28.168437 35.278246 28.044244 
Q 35.417964 27.92005 35.417964 27.68253 
Q 35.417964 27.404647 35.313952 27.235433 
Q 35.20994 27.06622 35.045383 26.977732 
Q 34.880827 26.887692 34.67746 26.858196 
Q 34.474093 26.827147 34.275383 26.827147 
Q 33.738246 26.827147 33.38119 27.032067 
Q 33.024133 27.235433 32.993085 27.802067 
L 32.148569 27.802067 
Q 32.16875 27.323921 32.347279 26.996361 
Q 32.527359 26.6688 32.825424 26.465433 
Q 33.123488 26.262067 33.505383 26.172026 
Q 33.887279 26.081986 34.325061 26.081986 
Q 34.672803 26.081986 35.015887 26.131663 
Q 35.358972 26.181341 35.636855 26.336583 
Q 35.914738 26.490272 36.083952 26.768155 
Q 36.253166 27.046038 36.253166 27.493135 
L 36.253166 30.136905 
Q 36.253166 30.43497 36.287319 30.574687 
Q 36.321472 30.712853 36.520182 30.712853 
Q 36.630404 30.712853 36.779436 30.663175 
L 36.779436 31.318296 
z
M 35.40865 28.685393 
Q 35.24875 28.804929 34.989496 28.859264 
Q 34.731795 28.913599 34.449254 28.949304 
Q 34.166714 28.983458 33.877964 29.028478 
Q 33.589214 29.073498 33.361008 29.172853 
Q 33.132803 29.272208 32.988428 29.456946 
Q 32.844053 29.640131 32.844053 29.956825 
Q 32.844053 30.166401 32.927883 30.310776 
Q 33.013267 30.453599 33.146775 30.543639 
Q 33.281835 30.633679 33.460363 30.674042 
Q 33.638892 30.712853 33.837601 30.712853 
Q 34.255202 30.712853 34.553267 30.599526 
Q 34.851331 30.484647 35.039174 30.310776 
Q 35.228569 30.136905 35.318609 29.933538 
Q 35.40865 29.728619 35.40865 29.550091 
L 35.40865 28.685393 
z
M 37.564649 24.243921 
L 37.564649 31.338478 
L 38.409165 31.338478 
L 38.409165 28.437006 
Q 38.409165 28.089264 38.502311 27.797409 
Q 38.597008 27.504002 38.784851 27.285111 
Q 38.974246 27.06622 39.256786 26.946683 
Q 39.540879 26.827147 39.928984 26.827147 
Q 40.414891 26.827147 40.692774 27.106583 
Q 40.97221 27.384466 40.97221 27.861058 
L 40.97221 31.338478 
L 41.816726 31.338478 
L 41.816726 27.960413 
Q 41.816726 27.542812 41.731343 27.20128 
Q 41.647512 26.858196 41.437936 26.609808 
Q 41.229911 26.361421 40.891484 26.221704 
Q 40.554609 26.081986 40.04852 26.081986 
Q 39.818762 26.081986 39.575032 26.131663 
Q 39.332855 26.181341 39.109307 26.286905 
Q 38.885758 26.390917 38.705678 26.555474 
Q 38.527149 26.718478 38.427794 26.95755 
L 38.409165 26.95755 
L 38.409165 24.243921 
L 37.564649 24.243921 
z
M 46.654685 28.278659 
L 43.703535 28.278659 
Q 43.723717 27.980595 43.832386 27.718236 
Q 43.942608 27.454325 44.130451 27.255615 
Q 44.319846 27.056905 44.582205 26.942026 
Q 44.846116 26.827147 45.175229 26.827147 
Q 45.491923 26.827147 45.755834 26.942026 
Q 46.019745 27.056905 46.212245 27.250958 
Q 46.406298 27.443458 46.519624 27.712026 
Q 46.634503 27.980595 46.654685 28.278659 
z
M 47.469705 29.708437 
L 46.634503 29.708437 
Q 46.525834 30.216079 46.182749 30.464466 
Q 45.839665 30.712853 45.30408 30.712853 
Q 44.886479 30.712853 44.577548 30.574687 
Q 44.270169 30.43497 44.071459 30.202107 
Q 43.872749 29.967692 43.782709 29.66497 
Q 43.694221 29.360696 43.703535 29.023821 
L 47.548878 29.023821 
Q 47.56906 28.556542 47.465048 28.039587 
Q 47.361035 27.522631 47.08781 27.086401 
Q 46.814584 26.648619 46.361277 26.366079 
Q 45.909523 26.081986 45.224906 26.081986 
Q 44.697084 26.081986 44.254644 26.280696 
Q 43.813757 26.479405 43.490854 26.838014 
Q 43.167951 27.195071 42.98787 27.68253 
Q 42.809342 28.168437 42.809342 28.755252 
Q 42.829523 29.342067 42.983213 29.838841 
Q 43.138455 30.335615 43.445834 30.692671 
Q 43.753213 31.049728 44.204967 31.248437 
Q 44.658273 31.447147 45.274584 31.447147 
Q 46.148596 31.447147 46.724544 31.010917 
Q 47.300491 30.573135 47.469705 29.708437 
z
M 49.03889 28.814244 
Q 49.03889 28.437006 49.118063 28.07995 
Q 49.198789 27.721341 49.377317 27.443458 
Q 49.555846 27.165575 49.85391 26.996361 
Q 50.151975 26.827147 50.57889 26.827147 
Q 51.016672 26.827147 51.324051 26.991704 
Q 51.632983 27.15626 51.825483 27.424829 
Q 52.019535 27.691845 52.109575 28.045796 
Q 52.199616 28.398196 52.199616 28.775433 
Q 52.199616 29.13249 52.114233 29.480232 
Q 52.030402 29.827974 51.841007 30.1012 
Q 51.653164 30.374425 51.3551 30.543639 
Q 51.057035 30.712853 50.628567 30.712853 
Q 50.221834 30.712853 49.919112 30.554506 
Q 49.61639 30.394607 49.422338 30.126038 
Q 49.228285 29.85747 49.133588 29.515937 
Q 49.03889 29.172853 49.03889 28.814244 
z
M 53.013084 31.338478 
L 53.013084 24.243921 
L 52.168567 24.243921 
L 52.168567 26.887692 
L 52.149938 26.887692 
Q 52.010221 26.659486 51.806854 26.505796 
Q 51.603487 26.350554 51.373729 26.257409 
Q 51.145523 26.162712 50.917317 26.122349 
Q 50.689112 26.081986 50.490402 26.081986 
Q 49.903588 26.081986 49.461148 26.29622 
Q 49.020261 26.510454 48.726854 26.87372 
Q 48.433446 27.235433 48.289071 27.722893 
Q 48.144696 28.2088 48.144696 28.755252 
Q 48.144696 29.301704 48.293729 29.789163 
Q 48.442761 30.275071 48.736168 30.642994 
Q 49.029575 31.010917 49.472015 31.229808 
Q 49.914455 31.447147 50.510584 31.447147 
Q 51.046168 31.447147 51.493265 31.259304 
Q 51.940362 31.069909 52.149938 30.642994 
L 52.168567 30.642994 
L 52.168567 31.338478 
L 53.013084 31.338478 
z
M 54.284824 26.201522 
L 54.284824 31.338478 
L 55.12934 31.338478 
L 55.12934 29.053317 
Q 55.12934 28.556542 55.228695 28.174647 
Q 55.32805 27.7912 55.546941 27.524183 
Q 55.765832 27.255615 56.122889 27.115897 
Q 56.481498 26.976179 56.987586 26.976179 
L 56.987586 26.081986 
Q 56.302969 26.063357 55.855873 26.361421 
Q 55.408776 26.659486 55.099844 27.285111 
L 55.079663 27.285111 
L 55.079663 26.201522 
L 54.284824 26.201522 
z
M 62.174529 31.318296 
Q 61.955638 31.447147 61.567533 31.447147 
Q 61.239972 31.447147 61.04592 31.263962 
Q 60.85342 31.080776 60.85342 30.663175 
Q 60.505678 31.080776 60.043057 31.263962 
Q 59.580436 31.447147 59.044851 31.447147 
Q 58.697109 31.447147 58.383521 31.367974 
Q 58.071484 31.2888 57.841726 31.119587 
Q 57.613521 30.950373 57.47846 30.677147 
Q 57.344952 30.403921 57.344952 30.017369 
Q 57.344952 29.579587 57.493984 29.301704 
Q 57.643017 29.023821 57.886746 28.84995 
Q 58.130476 28.676079 58.442513 28.587591 
Q 58.756101 28.49755 59.083662 28.437006 
Q 59.431404 28.367147 59.744992 28.332994 
Q 60.058581 28.298841 60.296101 28.233639 
Q 60.535174 28.168437 60.673339 28.044244 
Q 60.813057 27.92005 60.813057 27.68253 
Q 60.813057 27.404647 60.709045 27.235433 
Q 60.605033 27.06622 60.440476 26.977732 
Q 60.27592 26.887692 60.072553 26.858196 
Q 59.869186 26.827147 59.670476 26.827147 
Q 59.133339 26.827147 58.776283 27.032067 
Q 58.419226 27.235433 58.388178 27.802067 
L 57.543662 27.802067 
Q 57.563843 27.323921 57.742371 26.996361 
Q 57.922452 26.6688 58.220517 26.465433 
Q 58.518581 26.262067 58.900476 26.172026 
Q 59.282371 26.081986 59.720154 26.081986 
Q 60.067896 26.081986 60.41098 26.131663 
Q 60.754065 26.181341 61.031948 26.336583 
Q 61.309831 26.490272 61.479045 26.768155 
Q 61.648259 27.046038 61.648259 27.493135 
L 61.648259 30.136905 
Q 61.648259 30.43497 61.682412 30.574687 
Q 61.716565 30.712853 61.915275 30.712853 
Q 62.025496 30.712853 62.174529 30.663175 
L 62.174529 31.318296 
z
M 60.803742 28.685393 
Q 60.643843 28.804929 60.384589 28.859264 
Q 60.126888 28.913599 59.844347 28.949304 
Q 59.561807 28.983458 59.273057 29.028478 
Q 58.984307 29.073498 58.756101 29.172853 
Q 58.527896 29.272208 58.383521 29.456946 
Q 58.239146 29.640131 58.239146 29.956825 
Q 58.239146 30.166401 58.322976 30.310776 
Q 58.408359 30.453599 58.541867 30.543639 
Q 58.676928 30.633679 58.855456 30.674042 
Q 59.033984 30.712853 59.232694 30.712853 
Q 59.650295 30.712853 59.948359 30.599526 
Q 60.246424 30.484647 60.434267 30.310776 
Q 60.623662 30.136905 60.713702 29.933538 
Q 60.803742 29.728619 60.803742 29.550091 
L 60.803742 28.685393 
z
M 63.00942 24.243921 
L 63.00942 31.338478 
L 63.853936 31.338478 
L 63.853936 24.243921 
L 63.00942 24.243921 
z
" style="stroke: #ffffff; stroke-width: 2.980645"/>
    <path d="M 17.606129 25.03876 
L 17.606129 31.338478 
L 18.55 31.338478 
L 18.55 25.03876 
L 20.914335 25.03876 
L 20.914335 24.243921 
L 15.241794 24.243921 
L 15.241794 25.03876 
L 17.606129 25.03876 
z
M 24.021657 28.278659 
L 21.070507 28.278659 
Q 21.090689 27.980595 21.199358 27.718236 
Q 21.30958 27.454325 21.497423 27.255615 
Q 21.686818 27.056905 21.949177 26.942026 
Q 22.213088 26.827147 22.542201 26.827147 
Q 22.858895 26.827147 23.122806 26.942026 
Q 23.386717 27.056905 23.579217 27.250958 
Q 23.77327 27.443458 23.886596 27.712026 
Q 24.001475 27.980595 24.021657 28.278659 
z
M 24.836677 29.708437 
L 24.001475 29.708437 
Q 23.892806 30.216079 23.549721 30.464466 
Q 23.206636 30.712853 22.671052 30.712853 
Q 22.253451 30.712853 21.94452 30.574687 
Q 21.637141 30.43497 21.438431 30.202107 
Q 21.239721 29.967692 21.149681 29.66497 
Q 21.061193 29.360696 21.070507 29.023821 
L 24.91585 29.023821 
Q 24.936032 28.556542 24.83202 28.039587 
Q 24.728007 27.522631 24.454782 27.086401 
Q 24.181556 26.648619 23.728249 26.366079 
Q 23.276495 26.081986 22.591878 26.081986 
Q 22.064056 26.081986 21.621616 26.280696 
Q 21.180729 26.479405 20.857826 26.838014 
Q 20.534923 27.195071 20.354842 27.68253 
Q 20.176314 28.168437 20.176314 28.755252 
Q 20.196495 29.342067 20.350185 29.838841 
Q 20.505427 30.335615 20.812806 30.692671 
Q 21.120185 31.049728 21.571939 31.248437 
Q 22.025245 31.447147 22.641556 31.447147 
Q 23.515568 31.447147 24.091516 31.010917 
Q 24.667463 30.573135 24.836677 29.708437 
z
M 26.963181 26.201522 
L 26.963181 24.661522 
L 26.118664 24.661522 
L 26.118664 26.201522 
L 25.244652 26.201522 
L 25.244652 26.946683 
L 26.118664 26.946683 
L 26.118664 30.216079 
Q 26.118664 30.573135 26.186971 30.792026 
Q 26.25683 31.010917 26.401205 31.130454 
Q 26.54558 31.248437 26.778443 31.293458 
Q 27.012858 31.338478 27.340418 31.338478 
L 27.986225 31.338478 
L 27.986225 30.593317 
L 27.59812 30.593317 
Q 27.39941 30.593317 27.275217 30.579345 
Q 27.151023 30.563821 27.081164 30.514143 
Q 27.012858 30.464466 26.988019 30.375978 
Q 26.963181 30.285937 26.963181 30.136905 
L 26.963181 26.946683 
L 27.986225 26.946683 
L 27.986225 26.201522 
L 26.963181 26.201522 
z
M 28.889731 26.201522 
L 28.889731 31.338478 
L 29.734248 31.338478 
L 29.734248 29.053317 
Q 29.734248 28.556542 29.833602 28.174647 
Q 29.932957 27.7912 30.151848 27.524183 
Q 30.37074 27.255615 30.727796 27.115897 
Q 31.086405 26.976179 31.592494 26.976179 
L 31.592494 26.081986 
Q 30.907877 26.063357 30.46078 26.361421 
Q 30.013683 26.659486 29.704752 27.285111 
L 29.68457 27.285111 
L 29.68457 26.201522 
L 28.889731 26.201522 
z
M 36.779436 31.318296 
Q 36.560545 31.447147 36.17244 31.447147 
Q 35.844879 31.447147 35.650827 31.263962 
Q 35.458327 31.080776 35.458327 30.663175 
Q 35.110585 31.080776 34.647964 31.263962 
Q 34.185343 31.447147 33.649758 31.447147 
Q 33.302017 31.447147 32.988428 31.367974 
Q 32.676392 31.2888 32.446633 31.119587 
Q 32.218428 30.950373 32.083367 30.677147 
Q 31.949859 30.403921 31.949859 30.017369 
Q 31.949859 29.579587 32.098892 29.301704 
Q 32.247924 29.023821 32.491654 28.84995 
Q 32.735383 28.676079 33.04742 28.587591 
Q 33.361008 28.49755 33.688569 28.437006 
Q 34.036311 28.367147 34.3499 28.332994 
Q 34.663488 28.298841 34.901008 28.233639 
Q 35.140081 28.168437 35.278246 28.044244 
Q 35.417964 27.92005 35.417964 27.68253 
Q 35.417964 27.404647 35.313952 27.235433 
Q 35.20994 27.06622 35.045383 26.977732 
Q 34.880827 26.887692 34.67746 26.858196 
Q 34.474093 26.827147 34.275383 26.827147 
Q 33.738246 26.827147 33.38119 27.032067 
Q 33.024133 27.235433 32.993085 27.802067 
L 32.148569 27.802067 
Q 32.16875 27.323921 32.347279 26.996361 
Q 32.527359 26.6688 32.825424 26.465433 
Q 33.123488 26.262067 33.505383 26.172026 
Q 33.887279 26.081986 34.325061 26.081986 
Q 34.672803 26.081986 35.015887 26.131663 
Q 35.358972 26.181341 35.636855 26.336583 
Q 35.914738 26.490272 36.083952 26.768155 
Q 36.253166 27.046038 36.253166 27.493135 
L 36.253166 30.136905 
Q 36.253166 30.43497 36.287319 30.574687 
Q 36.321472 30.712853 36.520182 30.712853 
Q 36.630404 30.712853 36.779436 30.663175 
L 36.779436 31.318296 
z
M 35.40865 28.685393 
Q 35.24875 28.804929 34.989496 28.859264 
Q 34.731795 28.913599 34.449254 28.949304 
Q 34.166714 28.983458 33.877964 29.028478 
Q 33.589214 29.073498 33.361008 29.172853 
Q 33.132803 29.272208 32.988428 29.456946 
Q 32.844053 29.640131 32.844053 29.956825 
Q 32.844053 30.166401 32.927883 30.310776 
Q 33.013267 30.453599 33.146775 30.543639 
Q 33.281835 30.633679 33.460363 30.674042 
Q 33.638892 30.712853 33.837601 30.712853 
Q 34.255202 30.712853 34.553267 30.599526 
Q 34.851331 30.484647 35.039174 30.310776 
Q 35.228569 30.136905 35.318609 29.933538 
Q 35.40865 29.728619 35.40865 29.550091 
L 35.40865 28.685393 
z
M 37.564649 24.243921 
L 37.564649 31.338478 
L 38.409165 31.338478 
L 38.409165 28.437006 
Q 38.409165 28.089264 38.502311 27.797409 
Q 38.597008 27.504002 38.784851 27.285111 
Q 38.974246 27.06622 39.256786 26.946683 
Q 39.540879 26.827147 39.928984 26.827147 
Q 40.414891 26.827147 40.692774 27.106583 
Q 40.97221 27.384466 40.97221 27.861058 
L 40.97221 31.338478 
L 41.816726 31.338478 
L 41.816726 27.960413 
Q 41.816726 27.542812 41.731343 27.20128 
Q 41.647512 26.858196 41.437936 26.609808 
Q 41.229911 26.361421 40.891484 26.221704 
Q 40.554609 26.081986 40.04852 26.081986 
Q 39.818762 26.081986 39.575032 26.131663 
Q 39.332855 26.181341 39.109307 26.286905 
Q 38.885758 26.390917 38.705678 26.555474 
Q 38.527149 26.718478 38.427794 26.95755 
L 38.409165 26.95755 
L 38.409165 24.243921 
L 37.564649 24.243921 
z
M 46.654685 28.278659 
L 43.703535 28.278659 
Q 43.723717 27.980595 43.832386 27.718236 
Q 43.942608 27.454325 44.130451 27.255615 
Q 44.319846 27.056905 44.582205 26.942026 
Q 44.846116 26.827147 45.175229 26.827147 
Q 45.491923 26.827147 45.755834 26.942026 
Q 46.019745 27.056905 46.212245 27.250958 
Q 46.406298 27.443458 46.519624 27.712026 
Q 46.634503 27.980595 46.654685 28.278659 
z
M 47.469705 29.708437 
L 46.634503 29.708437 
Q 46.525834 30.216079 46.182749 30.464466 
Q 45.839665 30.712853 45.30408 30.712853 
Q 44.886479 30.712853 44.577548 30.574687 
Q 44.270169 30.43497 44.071459 30.202107 
Q 43.872749 29.967692 43.782709 29.66497 
Q 43.694221 29.360696 43.703535 29.023821 
L 47.548878 29.023821 
Q 47.56906 28.556542 47.465048 28.039587 
Q 47.361035 27.522631 47.08781 27.086401 
Q 46.814584 26.648619 46.361277 26.366079 
Q 45.909523 26.081986 45.224906 26.081986 
Q 44.697084 26.081986 44.254644 26.280696 
Q 43.813757 26.479405 43.490854 26.838014 
Q 43.167951 27.195071 42.98787 27.68253 
Q 42.809342 28.168437 42.809342 28.755252 
Q 42.829523 29.342067 42.983213 29.838841 
Q 43.138455 30.335615 43.445834 30.692671 
Q 43.753213 31.049728 44.204967 31.248437 
Q 44.658273 31.447147 45.274584 31.447147 
Q 46.148596 31.447147 46.724544 31.010917 
Q 47.300491 30.573135 47.469705 29.708437 
z
M 49.03889 28.814244 
Q 49.03889 28.437006 49.118063 28.07995 
Q 49.198789 27.721341 49.377317 27.443458 
Q 49.555846 27.165575 49.85391 26.996361 
Q 50.151975 26.827147 50.57889 26.827147 
Q 51.016672 26.827147 51.324051 26.991704 
Q 51.632983 27.15626 51.825483 27.424829 
Q 52.019535 27.691845 52.109575 28.045796 
Q 52.199616 28.398196 52.199616 28.775433 
Q 52.199616 29.13249 52.114233 29.480232 
Q 52.030402 29.827974 51.841007 30.1012 
Q 51.653164 30.374425 51.3551 30.543639 
Q 51.057035 30.712853 50.628567 30.712853 
Q 50.221834 30.712853 49.919112 30.554506 
Q 49.61639 30.394607 49.422338 30.126038 
Q 49.228285 29.85747 49.133588 29.515937 
Q 49.03889 29.172853 49.03889 28.814244 
z
M 53.013084 31.338478 
L 53.013084 24.243921 
L 52.168567 24.243921 
L 52.168567 26.887692 
L 52.149938 26.887692 
Q 52.010221 26.659486 51.806854 26.505796 
Q 51.603487 26.350554 51.373729 26.257409 
Q 51.145523 26.162712 50.917317 26.122349 
Q 50.689112 26.081986 50.490402 26.081986 
Q 49.903588 26.081986 49.461148 26.29622 
Q 49.020261 26.510454 48.726854 26.87372 
Q 48.433446 27.235433 48.289071 27.722893 
Q 48.144696 28.2088 48.144696 28.755252 
Q 48.144696 29.301704 48.293729 29.789163 
Q 48.442761 30.275071 48.736168 30.642994 
Q 49.029575 31.010917 49.472015 31.229808 
Q 49.914455 31.447147 50.510584 31.447147 
Q 51.046168 31.447147 51.493265 31.259304 
Q 51.940362 31.069909 52.149938 30.642994 
L 52.168567 30.642994 
L 52.168567 31.338478 
L 53.013084 31.338478 
z
M 54.284824 26.201522 
L 54.284824 31.338478 
L 55.12934 31.338478 
L 55.12934 29.053317 
Q 55.12934 28.556542 55.228695 28.174647 
Q 55.32805 27.7912 55.546941 27.524183 
Q 55.765832 27.255615 56.122889 27.115897 
Q 56.481498 26.976179 56.987586 26.976179 
L 56.987586 26.081986 
Q 56.302969 26.063357 55.855873 26.361421 
Q 55.408776 26.659486 55.099844 27.285111 
L 55.079663 27.285111 
L 55.079663 26.201522 
L 54.284824 26.201522 
z
M 62.174529 31.318296 
Q 61.955638 31.447147 61.567533 31.447147 
Q 61.239972 31.447147 61.04592 31.263962 
Q 60.85342 31.080776 60.85342 30.663175 
Q 60.505678 31.080776 60.043057 31.263962 
Q 59.580436 31.447147 59.044851 31.447147 
Q 58.697109 31.447147 58.383521 31.367974 
Q 58.071484 31.2888 57.841726 31.119587 
Q 57.613521 30.950373 57.47846 30.677147 
Q 57.344952 30.403921 57.344952 30.017369 
Q 57.344952 29.579587 57.493984 29.301704 
Q 57.643017 29.023821 57.886746 28.84995 
Q 58.130476 28.676079 58.442513 28.587591 
Q 58.756101 28.49755 59.083662 28.437006 
Q 59.431404 28.367147 59.744992 28.332994 
Q 60.058581 28.298841 60.296101 28.233639 
Q 60.535174 28.168437 60.673339 28.044244 
Q 60.813057 27.92005 60.813057 27.68253 
Q 60.813057 27.404647 60.709045 27.235433 
Q 60.605033 27.06622 60.440476 26.977732 
Q 60.27592 26.887692 60.072553 26.858196 
Q 59.869186 26.827147 59.670476 26.827147 
Q 59.133339 26.827147 58.776283 27.032067 
Q 58.419226 27.235433 58.388178 27.802067 
L 57.543662 27.802067 
Q 57.563843 27.323921 57.742371 26.996361 
Q 57.922452 26.6688 58.220517 26.465433 
Q 58.518581 26.262067 58.900476 26.172026 
Q 59.282371 26.081986 59.720154 26.081986 
Q 60.067896 26.081986 60.41098 26.131663 
Q 60.754065 26.181341 61.031948 26.336583 
Q 61.309831 26.490272 61.479045 26.768155 
Q 61.648259 27.046038 61.648259 27.493135 
L 61.648259 30.136905 
Q 61.648259 30.43497 61.682412 30.574687 
Q 61.716565 30.712853 61.915275 30.712853 
Q 62.025496 30.712853 62.174529 30.663175 
L 62.174529 31.318296 
z
M 60.803742 28.685393 
Q 60.643843 28.804929 60.384589 28.859264 
Q 60.126888 28.913599 59.844347 28.949304 
Q 59.561807 28.983458 59.273057 29.028478 
Q 58.984307 29.073498 58.756101 29.172853 
Q 58.527896 29.272208 58.383521 29.456946 
Q 58.239146 29.640131 58.239146 29.956825 
Q 58.239146 30.166401 58.322976 30.310776 
Q 58.408359 30.453599 58.541867 30.543639 
Q 58.676928 30.633679 58.855456 30.674042 
Q 59.033984 30.712853 59.232694 30.712853 
Q 59.650295 30.712853 59.948359 30.599526 
Q 60.246424 30.484647 60.434267 30.310776 
Q 60.623662 30.136905 60.713702 29.933538 
Q 60.803742 29.728619 60.803742 29.550091 
L 60.803742 28.685393 
z
M 63.00942 24.243921 
L 63.00942 31.338478 
L 63.853936 31.338478 
L 63.853936 24.243921 
L 63.00942 24.243921 
z
"/>
   </g>
   <g id="text_3">
    <path d="M 20.099315 38.824244 
L 20.993508 38.824244 
Q 20.974879 38.237429 20.76996 37.815171 
Q 20.566593 37.392913 20.214194 37.11503 
Q 19.861794 36.837147 19.394516 36.708296 
Q 18.927238 36.579446 18.380786 36.579446 
Q 17.894879 36.579446 17.432258 36.703639 
Q 16.969637 36.827833 16.606371 37.080877 
Q 16.244657 37.333921 16.025766 37.726683 
Q 15.808427 38.119446 15.808427 38.65503 
Q 15.808427 39.14249 16.000927 39.465393 
Q 16.19498 39.788296 16.517883 39.991663 
Q 16.840786 40.19503 17.24752 40.319224 
Q 17.655806 40.443417 18.078065 40.538115 
Q 18.500323 40.632812 18.907056 40.722853 
Q 19.315343 40.811341 19.638246 40.955716 
Q 19.961149 41.100091 20.153649 41.328296 
Q 20.347702 41.556502 20.347702 41.924425 
Q 20.347702 42.310978 20.189355 42.559365 
Q 20.031008 42.807752 19.771754 42.952127 
Q 19.514052 43.096502 19.191149 43.157046 
Q 18.868246 43.216038 18.55 43.216038 
Q 18.152581 43.216038 17.775343 43.116683 
Q 17.398105 43.017329 17.114012 42.809304 
Q 16.831472 42.599728 16.657601 42.276825 
Q 16.48373 41.953921 16.48373 41.506825 
L 15.589536 41.506825 
Q 15.589536 42.152631 15.822399 42.624567 
Q 16.056815 43.096502 16.458891 43.399224 
Q 16.860968 43.701946 17.391895 43.850978 
Q 17.924375 44.00001 18.520504 44.00001 
Q 19.006411 44.00001 19.498528 43.885131 
Q 19.990645 43.771804 20.388065 43.51876 
Q 20.785484 43.265716 21.038528 42.863639 
Q 21.291573 42.46001 21.291573 41.894929 
Q 21.291573 41.367107 21.09752 41.019365 
Q 20.90502 40.671623 20.582117 40.443417 
Q 20.259214 40.215212 19.850927 40.081704 
Q 19.444194 39.946643 19.021935 39.847288 
Q 18.599677 39.747933 18.191391 39.664103 
Q 17.784657 39.57872 17.461754 39.449869 
Q 17.138851 39.321018 16.944798 39.117651 
Q 16.752298 38.914284 16.752298 38.585171 
Q 16.752298 38.237429 16.885806 38.004567 
Q 17.019315 37.771704 17.242863 37.631986 
Q 17.466411 37.492268 17.755161 37.433276 
Q 18.043911 37.374284 18.341976 37.374284 
Q 19.07627 37.374284 19.548206 37.717369 
Q 20.020141 38.058901 20.099315 38.824244 
z
M 22.325793 38.704708 
L 22.325793 45.799264 
L 23.170309 45.799264 
L 23.170309 43.155494 
L 23.190491 43.155494 
Q 23.328656 43.385252 23.532023 43.538942 
Q 23.736942 43.692631 23.965148 43.782671 
Q 24.193354 43.871159 24.426217 43.90997 
Q 24.660632 43.950333 24.848475 43.950333 
Q 25.435289 43.950333 25.877729 43.742308 
Q 26.320168 43.534284 26.612023 43.171018 
Q 26.90543 42.807752 27.049805 42.321845 
Q 27.19418 41.834385 27.19418 41.287933 
Q 27.19418 40.741482 27.045148 40.255575 
Q 26.896116 39.768115 26.602708 39.395534 
Q 26.309301 39.022954 25.866862 38.804062 
Q 25.425975 38.585171 24.829846 38.585171 
Q 24.292708 38.585171 23.845612 38.779224 
Q 23.398515 38.973276 23.190491 39.400192 
L 23.170309 39.400192 
L 23.170309 38.704708 
L 22.325793 38.704708 
z
M 26.299987 41.228942 
Q 26.299987 41.606179 26.219261 41.964788 
Q 26.140087 42.321845 25.961559 42.599728 
Q 25.783031 42.877611 25.489624 43.046825 
Q 25.196217 43.216038 24.759987 43.216038 
Q 24.322204 43.216038 24.013273 43.053034 
Q 23.705894 42.888478 23.511842 42.619909 
Q 23.319342 42.351341 23.229301 41.998942 
Q 23.140813 41.646542 23.140813 41.267752 
Q 23.140813 40.910696 23.224644 40.562954 
Q 23.308475 40.215212 23.49787 39.941986 
Q 23.687265 39.66876 23.985329 39.499546 
Q 24.283394 39.330333 24.710309 39.330333 
Q 25.117043 39.330333 25.419765 39.490232 
Q 25.724039 39.648579 25.916539 39.917147 
Q 26.110592 40.185716 26.205289 40.5288 
Q 26.299987 40.870333 26.299987 41.228942 
z
M 28.188038 36.747107 
L 28.188038 43.841663 
L 29.032554 43.841663 
L 29.032554 40.940192 
Q 29.032554 40.59245 29.125699 40.300595 
Q 29.220397 40.007187 29.40824 39.788296 
Q 29.597635 39.569405 29.880175 39.449869 
Q 30.164268 39.330333 30.552373 39.330333 
Q 31.03828 39.330333 31.316163 39.609768 
Q 31.595598 39.887651 31.595598 40.364244 
L 31.595598 43.841663 
L 32.440115 43.841663 
L 32.440115 40.463599 
Q 32.440115 40.045998 32.354731 39.704466 
Q 32.270901 39.361381 32.061324 39.112994 
Q 31.8533 38.864607 31.514873 38.724889 
Q 31.177998 38.585171 30.671909 38.585171 
Q 30.442151 38.585171 30.198421 38.634849 
Q 29.956244 38.684526 29.732695 38.790091 
Q 29.509147 38.894103 29.329066 39.058659 
Q 29.150538 39.221663 29.051183 39.460736 
L 29.032554 39.460736 
L 29.032554 36.747107 
L 28.188038 36.747107 
z
M 37.278073 40.781845 
L 34.326924 40.781845 
Q 34.347106 40.48378 34.455775 40.221421 
Q 34.565997 39.95751 34.753839 39.7588 
Q 34.943235 39.560091 35.205593 39.445212 
Q 35.469505 39.330333 35.798618 39.330333 
Q 36.115311 39.330333 36.379222 39.445212 
Q 36.643134 39.560091 36.835634 39.754143 
Q 37.029686 39.946643 37.143013 40.215212 
Q 37.257892 40.48378 37.278073 40.781845 
z
M 38.093093 42.211623 
L 37.257892 42.211623 
Q 37.149222 42.719264 36.806138 42.967651 
Q 36.463053 43.216038 35.927468 43.216038 
Q 35.509868 43.216038 35.200936 43.077873 
Q 34.893557 42.938155 34.694847 42.705292 
Q 34.496138 42.470877 34.406097 42.168155 
Q 34.31761 41.863881 34.326924 41.527006 
L 38.172267 41.527006 
Q 38.192448 41.059728 38.088436 40.542772 
Q 37.984424 40.025817 37.711198 39.589587 
Q 37.437972 39.151804 36.984666 38.869264 
Q 36.532912 38.585171 35.848295 38.585171 
Q 35.320472 38.585171 34.878033 38.783881 
Q 34.437146 38.982591 34.114243 39.3412 
Q 33.791339 39.698256 33.611259 40.185716 
Q 33.432731 40.671623 33.432731 41.258437 
Q 33.452912 41.845252 33.606602 42.342026 
Q 33.761843 42.8388 34.069222 43.195857 
Q 34.376602 43.552913 34.828356 43.751623 
Q 35.281662 43.950333 35.897972 43.950333 
Q 36.771985 43.950333 37.347932 43.514103 
Q 37.92388 43.076321 38.093093 42.211623 
z
M 39.016472 38.704708 
L 39.016472 43.841663 
L 39.860988 43.841663 
L 39.860988 41.556502 
Q 39.860988 41.059728 39.960343 40.677833 
Q 40.059698 40.294385 40.278589 40.027369 
Q 40.49748 39.7588 40.854537 39.619083 
Q 41.213146 39.479365 41.719234 39.479365 
L 41.719234 38.585171 
Q 41.034617 38.566542 40.587521 38.864607 
Q 40.140424 39.162671 39.831492 39.788296 
L 39.811311 39.788296 
L 39.811311 38.704708 
L 39.016472 38.704708 
z
M 43.250229 37.781018 
L 43.250229 36.747107 
L 42.405713 36.747107 
L 42.405713 37.781018 
L 43.250229 37.781018 
z
M 42.405713 38.704708 
L 42.405713 43.841663 
L 43.250229 43.841663 
L 43.250229 38.704708 
L 42.405713 38.704708 
z
M 48.048446 40.354929 
L 48.922459 40.354929 
Q 48.872781 39.896966 48.683386 39.564748 
Q 48.495543 39.230978 48.202136 39.013639 
Q 47.908729 38.794748 47.526834 38.690736 
Q 47.144938 38.585171 46.707156 38.585171 
Q 46.101713 38.585171 45.643749 38.799405 
Q 45.187338 39.013639 44.883063 39.38622 
Q 44.580342 39.7588 44.431309 40.260232 
Q 44.282277 40.761663 44.282277 41.337611 
Q 44.282277 41.913558 44.435967 42.396361 
Q 44.591209 42.877611 44.89393 43.225353 
Q 45.196652 43.573095 45.648406 43.76249 
Q 46.101713 43.950333 46.686975 43.950333 
Q 47.671209 43.950333 48.242499 43.434929 
Q 48.813789 42.917974 48.951955 41.963236 
L 48.088809 41.963236 
Q 48.008084 42.559365 47.655684 42.888478 
Q 47.303285 43.216038 46.67766 43.216038 
Q 46.280241 43.216038 45.991491 43.057692 
Q 45.704293 42.897792 45.524213 42.635433 
Q 45.345684 42.371522 45.260301 42.034647 
Q 45.176471 41.69622 45.176471 41.337611 
Q 45.176471 40.951058 45.255644 40.587792 
Q 45.33637 40.224526 45.519555 39.946643 
Q 45.704293 39.66876 46.011672 39.499546 
Q 46.319051 39.330333 46.777015 39.330333 
Q 47.3126 39.330333 47.630846 39.598901 
Q 47.949092 39.86747 48.048446 40.354929 
z
M 54.447208 43.821482 
Q 54.228317 43.950333 53.840212 43.950333 
Q 53.512652 43.950333 53.318599 43.767147 
Q 53.126099 43.583962 53.126099 43.166361 
Q 52.778357 43.583962 52.315736 43.767147 
Q 51.853116 43.950333 51.317531 43.950333 
Q 50.969789 43.950333 50.6562 43.871159 
Q 50.344164 43.791986 50.114406 43.622772 
Q 49.8862 43.453558 49.75114 43.180333 
Q 49.617632 42.907107 49.617632 42.520554 
Q 49.617632 42.082772 49.766664 41.804889 
Q 49.915696 41.527006 50.159426 41.353135 
Q 50.403156 41.179264 50.715192 41.090776 
Q 51.028781 41.000736 51.356341 40.940192 
Q 51.704083 40.870333 52.017672 40.836179 
Q 52.331261 40.802026 52.568781 40.736825 
Q 52.807853 40.671623 52.946019 40.547429 
Q 53.085736 40.423236 53.085736 40.185716 
Q 53.085736 39.907833 52.981724 39.738619 
Q 52.877712 39.569405 52.713156 39.480917 
Q 52.548599 39.390877 52.345232 39.361381 
Q 52.141866 39.330333 51.943156 39.330333 
Q 51.406019 39.330333 51.048962 39.535252 
Q 50.691906 39.738619 50.660857 40.305252 
L 49.816341 40.305252 
Q 49.836523 39.827107 50.015051 39.499546 
Q 50.195132 39.171986 50.493196 38.968619 
Q 50.791261 38.765252 51.173156 38.675212 
Q 51.555051 38.585171 51.992833 38.585171 
Q 52.340575 38.585171 52.68366 38.634849 
Q 53.026745 38.684526 53.304628 38.839768 
Q 53.582511 38.993458 53.751724 39.271341 
Q 53.920938 39.549224 53.920938 39.996321 
L 53.920938 42.640091 
Q 53.920938 42.938155 53.955091 43.077873 
Q 53.989245 43.216038 54.187954 43.216038 
Q 54.298176 43.216038 54.447208 43.166361 
L 54.447208 43.821482 
z
M 53.076422 41.188579 
Q 52.916523 41.308115 52.657269 41.36245 
Q 52.399567 41.416784 52.117027 41.45249 
Q 51.834486 41.486643 51.545736 41.531663 
Q 51.256986 41.576683 51.028781 41.676038 
Q 50.800575 41.775393 50.6562 41.960131 
Q 50.511825 42.143317 50.511825 42.46001 
Q 50.511825 42.669587 50.595656 42.813962 
Q 50.681039 42.956784 50.814547 43.046825 
Q 50.949607 43.136865 51.128136 43.177228 
Q 51.306664 43.216038 51.505374 43.216038 
Q 51.922974 43.216038 52.221039 43.102712 
Q 52.519103 42.987833 52.706946 42.813962 
Q 52.896341 42.640091 52.986382 42.436724 
Q 53.076422 42.231804 53.076422 42.053276 
L 53.076422 41.188579 
z
M 55.282099 36.747107 
L 55.282099 43.841663 
L 56.126615 43.841663 
L 56.126615 36.747107 
L 55.282099 36.747107 
z
" style="stroke: #ffffff; stroke-width: 2.980645"/>
    <path d="M 20.099315 38.824244 
L 20.993508 38.824244 
Q 20.974879 38.237429 20.76996 37.815171 
Q 20.566593 37.392913 20.214194 37.11503 
Q 19.861794 36.837147 19.394516 36.708296 
Q 18.927238 36.579446 18.380786 36.579446 
Q 17.894879 36.579446 17.432258 36.703639 
Q 16.969637 36.827833 16.606371 37.080877 
Q 16.244657 37.333921 16.025766 37.726683 
Q 15.808427 38.119446 15.808427 38.65503 
Q 15.808427 39.14249 16.000927 39.465393 
Q 16.19498 39.788296 16.517883 39.991663 
Q 16.840786 40.19503 17.24752 40.319224 
Q 17.655806 40.443417 18.078065 40.538115 
Q 18.500323 40.632812 18.907056 40.722853 
Q 19.315343 40.811341 19.638246 40.955716 
Q 19.961149 41.100091 20.153649 41.328296 
Q 20.347702 41.556502 20.347702 41.924425 
Q 20.347702 42.310978 20.189355 42.559365 
Q 20.031008 42.807752 19.771754 42.952127 
Q 19.514052 43.096502 19.191149 43.157046 
Q 18.868246 43.216038 18.55 43.216038 
Q 18.152581 43.216038 17.775343 43.116683 
Q 17.398105 43.017329 17.114012 42.809304 
Q 16.831472 42.599728 16.657601 42.276825 
Q 16.48373 41.953921 16.48373 41.506825 
L 15.589536 41.506825 
Q 15.589536 42.152631 15.822399 42.624567 
Q 16.056815 43.096502 16.458891 43.399224 
Q 16.860968 43.701946 17.391895 43.850978 
Q 17.924375 44.00001 18.520504 44.00001 
Q 19.006411 44.00001 19.498528 43.885131 
Q 19.990645 43.771804 20.388065 43.51876 
Q 20.785484 43.265716 21.038528 42.863639 
Q 21.291573 42.46001 21.291573 41.894929 
Q 21.291573 41.367107 21.09752 41.019365 
Q 20.90502 40.671623 20.582117 40.443417 
Q 20.259214 40.215212 19.850927 40.081704 
Q 19.444194 39.946643 19.021935 39.847288 
Q 18.599677 39.747933 18.191391 39.664103 
Q 17.784657 39.57872 17.461754 39.449869 
Q 17.138851 39.321018 16.944798 39.117651 
Q 16.752298 38.914284 16.752298 38.585171 
Q 16.752298 38.237429 16.885806 38.004567 
Q 17.019315 37.771704 17.242863 37.631986 
Q 17.466411 37.492268 17.755161 37.433276 
Q 18.043911 37.374284 18.341976 37.374284 
Q 19.07627 37.374284 19.548206 37.717369 
Q 20.020141 38.058901 20.099315 38.824244 
z
M 22.325793 38.704708 
L 22.325793 45.799264 
L 23.170309 45.799264 
L 23.170309 43.155494 
L 23.190491 43.155494 
Q 23.328656 43.385252 23.532023 43.538942 
Q 23.736942 43.692631 23.965148 43.782671 
Q 24.193354 43.871159 24.426217 43.90997 
Q 24.660632 43.950333 24.848475 43.950333 
Q 25.435289 43.950333 25.877729 43.742308 
Q 26.320168 43.534284 26.612023 43.171018 
Q 26.90543 42.807752 27.049805 42.321845 
Q 27.19418 41.834385 27.19418 41.287933 
Q 27.19418 40.741482 27.045148 40.255575 
Q 26.896116 39.768115 26.602708 39.395534 
Q 26.309301 39.022954 25.866862 38.804062 
Q 25.425975 38.585171 24.829846 38.585171 
Q 24.292708 38.585171 23.845612 38.779224 
Q 23.398515 38.973276 23.190491 39.400192 
L 23.170309 39.400192 
L 23.170309 38.704708 
L 22.325793 38.704708 
z
M 26.299987 41.228942 
Q 26.299987 41.606179 26.219261 41.964788 
Q 26.140087 42.321845 25.961559 42.599728 
Q 25.783031 42.877611 25.489624 43.046825 
Q 25.196217 43.216038 24.759987 43.216038 
Q 24.322204 43.216038 24.013273 43.053034 
Q 23.705894 42.888478 23.511842 42.619909 
Q 23.319342 42.351341 23.229301 41.998942 
Q 23.140813 41.646542 23.140813 41.267752 
Q 23.140813 40.910696 23.224644 40.562954 
Q 23.308475 40.215212 23.49787 39.941986 
Q 23.687265 39.66876 23.985329 39.499546 
Q 24.283394 39.330333 24.710309 39.330333 
Q 25.117043 39.330333 25.419765 39.490232 
Q 25.724039 39.648579 25.916539 39.917147 
Q 26.110592 40.185716 26.205289 40.5288 
Q 26.299987 40.870333 26.299987 41.228942 
z
M 28.188038 36.747107 
L 28.188038 43.841663 
L 29.032554 43.841663 
L 29.032554 40.940192 
Q 29.032554 40.59245 29.125699 40.300595 
Q 29.220397 40.007187 29.40824 39.788296 
Q 29.597635 39.569405 29.880175 39.449869 
Q 30.164268 39.330333 30.552373 39.330333 
Q 31.03828 39.330333 31.316163 39.609768 
Q 31.595598 39.887651 31.595598 40.364244 
L 31.595598 43.841663 
L 32.440115 43.841663 
L 32.440115 40.463599 
Q 32.440115 40.045998 32.354731 39.704466 
Q 32.270901 39.361381 32.061324 39.112994 
Q 31.8533 38.864607 31.514873 38.724889 
Q 31.177998 38.585171 30.671909 38.585171 
Q 30.442151 38.585171 30.198421 38.634849 
Q 29.956244 38.684526 29.732695 38.790091 
Q 29.509147 38.894103 29.329066 39.058659 
Q 29.150538 39.221663 29.051183 39.460736 
L 29.032554 39.460736 
L 29.032554 36.747107 
L 28.188038 36.747107 
z
M 37.278073 40.781845 
L 34.326924 40.781845 
Q 34.347106 40.48378 34.455775 40.221421 
Q 34.565997 39.95751 34.753839 39.7588 
Q 34.943235 39.560091 35.205593 39.445212 
Q 35.469505 39.330333 35.798618 39.330333 
Q 36.115311 39.330333 36.379222 39.445212 
Q 36.643134 39.560091 36.835634 39.754143 
Q 37.029686 39.946643 37.143013 40.215212 
Q 37.257892 40.48378 37.278073 40.781845 
z
M 38.093093 42.211623 
L 37.257892 42.211623 
Q 37.149222 42.719264 36.806138 42.967651 
Q 36.463053 43.216038 35.927468 43.216038 
Q 35.509868 43.216038 35.200936 43.077873 
Q 34.893557 42.938155 34.694847 42.705292 
Q 34.496138 42.470877 34.406097 42.168155 
Q 34.31761 41.863881 34.326924 41.527006 
L 38.172267 41.527006 
Q 38.192448 41.059728 38.088436 40.542772 
Q 37.984424 40.025817 37.711198 39.589587 
Q 37.437972 39.151804 36.984666 38.869264 
Q 36.532912 38.585171 35.848295 38.585171 
Q 35.320472 38.585171 34.878033 38.783881 
Q 34.437146 38.982591 34.114243 39.3412 
Q 33.791339 39.698256 33.611259 40.185716 
Q 33.432731 40.671623 33.432731 41.258437 
Q 33.452912 41.845252 33.606602 42.342026 
Q 33.761843 42.8388 34.069222 43.195857 
Q 34.376602 43.552913 34.828356 43.751623 
Q 35.281662 43.950333 35.897972 43.950333 
Q 36.771985 43.950333 37.347932 43.514103 
Q 37.92388 43.076321 38.093093 42.211623 
z
M 39.016472 38.704708 
L 39.016472 43.841663 
L 39.860988 43.841663 
L 39.860988 41.556502 
Q 39.860988 41.059728 39.960343 40.677833 
Q 40.059698 40.294385 40.278589 40.027369 
Q 40.49748 39.7588 40.854537 39.619083 
Q 41.213146 39.479365 41.719234 39.479365 
L 41.719234 38.585171 
Q 41.034617 38.566542 40.587521 38.864607 
Q 40.140424 39.162671 39.831492 39.788296 
L 39.811311 39.788296 
L 39.811311 38.704708 
L 39.016472 38.704708 
z
M 43.250229 37.781018 
L 43.250229 36.747107 
L 42.405713 36.747107 
L 42.405713 37.781018 
L 43.250229 37.781018 
z
M 42.405713 38.704708 
L 42.405713 43.841663 
L 43.250229 43.841663 
L 43.250229 38.704708 
L 42.405713 38.704708 
z
M 48.048446 40.354929 
L 48.922459 40.354929 
Q 48.872781 39.896966 48.683386 39.564748 
Q 48.495543 39.230978 48.202136 39.013639 
Q 47.908729 38.794748 47.526834 38.690736 
Q 47.144938 38.585171 46.707156 38.585171 
Q 46.101713 38.585171 45.643749 38.799405 
Q 45.187338 39.013639 44.883063 39.38622 
Q 44.580342 39.7588 44.431309 40.260232 
Q 44.282277 40.761663 44.282277 41.337611 
Q 44.282277 41.913558 44.435967 42.396361 
Q 44.591209 42.877611 44.89393 43.225353 
Q 45.196652 43.573095 45.648406 43.76249 
Q 46.101713 43.950333 46.686975 43.950333 
Q 47.671209 43.950333 48.242499 43.434929 
Q 48.813789 42.917974 48.951955 41.963236 
L 48.088809 41.963236 
Q 48.008084 42.559365 47.655684 42.888478 
Q 47.303285 43.216038 46.67766 43.216038 
Q 46.280241 43.216038 45.991491 43.057692 
Q 45.704293 42.897792 45.524213 42.635433 
Q 45.345684 42.371522 45.260301 42.034647 
Q 45.176471 41.69622 45.176471 41.337611 
Q 45.176471 40.951058 45.255644 40.587792 
Q 45.33637 40.224526 45.519555 39.946643 
Q 45.704293 39.66876 46.011672 39.499546 
Q 46.319051 39.330333 46.777015 39.330333 
Q 47.3126 39.330333 47.630846 39.598901 
Q 47.949092 39.86747 48.048446 40.354929 
z
M 54.447208 43.821482 
Q 54.228317 43.950333 53.840212 43.950333 
Q 53.512652 43.950333 53.318599 43.767147 
Q 53.126099 43.583962 53.126099 43.166361 
Q 52.778357 43.583962 52.315736 43.767147 
Q 51.853116 43.950333 51.317531 43.950333 
Q 50.969789 43.950333 50.6562 43.871159 
Q 50.344164 43.791986 50.114406 43.622772 
Q 49.8862 43.453558 49.75114 43.180333 
Q 49.617632 42.907107 49.617632 42.520554 
Q 49.617632 42.082772 49.766664 41.804889 
Q 49.915696 41.527006 50.159426 41.353135 
Q 50.403156 41.179264 50.715192 41.090776 
Q 51.028781 41.000736 51.356341 40.940192 
Q 51.704083 40.870333 52.017672 40.836179 
Q 52.331261 40.802026 52.568781 40.736825 
Q 52.807853 40.671623 52.946019 40.547429 
Q 53.085736 40.423236 53.085736 40.185716 
Q 53.085736 39.907833 52.981724 39.738619 
Q 52.877712 39.569405 52.713156 39.480917 
Q 52.548599 39.390877 52.345232 39.361381 
Q 52.141866 39.330333 51.943156 39.330333 
Q 51.406019 39.330333 51.048962 39.535252 
Q 50.691906 39.738619 50.660857 40.305252 
L 49.816341 40.305252 
Q 49.836523 39.827107 50.015051 39.499546 
Q 50.195132 39.171986 50.493196 38.968619 
Q 50.791261 38.765252 51.173156 38.675212 
Q 51.555051 38.585171 51.992833 38.585171 
Q 52.340575 38.585171 52.68366 38.634849 
Q 53.026745 38.684526 53.304628 38.839768 
Q 53.582511 38.993458 53.751724 39.271341 
Q 53.920938 39.549224 53.920938 39.996321 
L 53.920938 42.640091 
Q 53.920938 42.938155 53.955091 43.077873 
Q 53.989245 43.216038 54.187954 43.216038 
Q 54.298176 43.216038 54.447208 43.166361 
L 54.447208 43.821482 
z
M 53.076422 41.188579 
Q 52.916523 41.308115 52.657269 41.36245 
Q 52.399567 41.416784 52.117027 41.45249 
Q 51.834486 41.486643 51.545736 41.531663 
Q 51.256986 41.576683 51.028781 41.676038 
Q 50.800575 41.775393 50.6562 41.960131 
Q 50.511825 42.143317 50.511825 42.46001 
Q 50.511825 42.669587 50.595656 42.813962 
Q 50.681039 42.956784 50.814547 43.046825 
Q 50.949607 43.136865 51.128136 43.177228 
Q 51.306664 43.216038 51.505374 43.216038 
Q 51.922974 43.216038 52.221039 43.102712 
Q 52.519103 42.987833 52.706946 42.813962 
Q 52.896341 42.640091 52.986382 42.436724 
Q 53.076422 42.231804 53.076422 42.053276 
L 53.076422 41.188579 
z
M 55.282099 36.747107 
L 55.282099 43.841663 
L 56.126615 43.841663 
L 56.126615 36.747107 
L 55.282099 36.747107 
z
"/>
   </g>
  </g>
 </g>
 <defs>
  <clipPath id="pbc16f9a71d">
   <rect x="-194.874129" y="-154.897355" width="221.76" height="221.76"/>
  </clipPath>
 </defs>
</svg>
