<?xml version="1.0" encoding="utf-8" standalone="no"?>
<!DOCTYPE svg PUBLIC "-//W3C//DTD SVG 1.1//EN"
  "http://www.w3.org/Graphics/SVG/1.1/DTD/svg11.dtd">
<svg xmlns:xlink="http://www.w3.org/1999/xlink" width="31.823226pt" height="42.460645pt" viewBox="0 0 31.823226 42.460645" xmlns="http://www.w3.org/2000/svg" version="1.1">
 <metadata>
  <rdf:RDF xmlns:dc="http://purl.org/dc/elements/1.1/" xmlns:cc="http://creativecommons.org/ns#" xmlns:rdf="http://www.w3.org/1999/02/22-rdf-syntax-ns#">
   <cc:Work>
    <dc:type rdf:resource="http://purl.org/dc/dcmitype/StillImage"/>
    <dc:date>2026-02-22T07:26:56.863914</dc:date>
    <dc:format>image/svg+xml</dc:format>
    <dc:creator>
     <cc:Agent>
      <dc:title>Matplotlib v3.10.7, https://matplotlib.org/</dc:title>
     </cc:Agent>
    </dc:creator>
   </cc:Work>
  </rdf:RDF>
 </metadata>
 <defs>
  <style type="text/css">*{stroke-linejoin: round; stroke-linecap: butt}</style>
 </defs>
 <g id="figure_1">
  <g id="patch_1">
   <path d="M 0 42.460645 
L 31.823226 42.460645 
L 31.823226 0 
L 0 0 
z
" style="fill: #ffffff"/>
  </g>
  <g id="axes_1">
   <g id="line2d_1">
    <defs>
     <path id="m51c31353c6" d="M 0 4.967742 
C 1.317461 4.967742 2.581139 4.444309 3.512724 3.512724 
C 4.444309 2.581139 4.967742 1.317461 4.967742 0 
C 4.967742 -1.317461 4.444309 -2.581139 3.512724 -3.512724 
C 2.581139 -4.444309 1.317461 -4.967742 0 -4.967742 
C -1.317461 -4.967742 -2.581139 -4.444309 -3.512724 -3.512724 
C -4.444309 -2.581139 -4.967742 -1.317461 -4.967742 0 
C -4.967742 1.317461 -4.444309 2.581139 -3.512724 3.512724 
C -2.581139 4.444309 -1.317461 4.967742 0 4.967742 
z
" style="stroke: #262626; stroke-width: 0.993548"/>
    </defs>
    <g clip-path="url(#paf1b7d46c0)">
     <use xlink:href="#m51c31353c6" x="8.567742" y="8.567742" style="fill: #51b04d; stroke: #262626; stroke-width: 0.993548"/>
    </g>
   </g>
   <g id="line2d_2">
    <defs>
     <path id="m8c091d6d82" d="M 0 4.967742 
C 1.317461 4.967742 2.581139 4.444309 3.512724 3.512724 
C 4.444309 2.581139 4.967742 1.317461 4.967742 0 
C 4.967742 -1.317461 4.444309 -2.581139 3.512724 -3.512724 
C 2.581139 -4.444309 1.317461 -4.967742 0 -4.967742 
C -1.317461 -4.967742 -2.581139 -4.444309 -3.512724 -3.512724 
C -4.444309 -2.581139 -4.967742 -1.317461 -4.967742 0 
C -4.967742 1.317461 -4.444309 2.581139 -3.512724 3.512724 
C -2.581139 4.444309 -1.317461 4.967742 0 4.967742 
z
" style="stroke: #262626; stroke-width: 0.993548"/>
    </defs>
    <g clip-path="url(#paf1b7d46c0)">
     <use xlink:href="#m8c091d6d82" x="8.567742" y="20.987097" style="fill: #477b9d; stroke: #262626; stroke-width: 0.993548"/>
    </g>
   </g>
   <g id="line2d_3">
    <defs>
     <path id="mc780cb93f2" d="M 0 4.967742 
C 1.317461 4.967742 2.581139 4.444309 3.512724 3.512724 
C 4.444309 2.581139 4.967742 1.317461 4.967742 0 
C 4.967742 -1.317461 4.444309 -2.581139 3.512724 -3.512724 
C 2.581139 -4.444309 1.317461 -4.967742 0 -4.967742 
C -1.317461 -4.967742 -2.581139 -4.444309 -3.512724 -3.512724 
C -4.444309 -2.581139 -4.967742 -1.317461 -4.967742 0 
C -4.967742 1.317461 -4.444309 2.581139 -3.512724 3.512724 
C -2.581139 4.444309 -1.317461 4.967742 0 4.967742 
z
" style="stroke: #262626; stroke-width: 0.993548"/>
    </defs>
    <g clip-path="url(#paf1b7d46c0)">
     <use xlink:href="#mc780cb93f2" x="8.567742" y="33.406452" style="fill: #f03f37; stroke: #262626; stroke-width: 0.993548"/>
    </g>
   </g>
   <g id="text_1">
    <path d="M 23.380927 7.012994 
L 24.275121 7.012994 
Q 24.256492 6.426179 24.051573 6.003921 
Q 23.848206 5.581663 23.495806 5.30378 
Q 23.143407 5.025897 22.676129 4.897046 
Q 22.208851 4.768196 21.662399 4.768196 
Q 21.176492 4.768196 20.713871 4.892389 
Q 20.25125 5.016583 19.887984 5.269627 
Q 19.52627 5.522671 19.307379 5.915433 
Q 19.09004 6.308196 19.09004 6.84378 
Q 19.09004 7.33124 19.28254 7.654143 
Q 19.476593 7.977046 19.799496 8.180413 
Q 20.122399 8.38378 20.529133 8.507974 
Q 20.937419 8.632167 21.359677 8.726865 
Q 21.781935 8.821563 22.188669 8.911603 
Q 22.596956 9.000091 22.919859 9.144466 
Q 23.242762 9.288841 23.435262 9.517046 
Q 23.629315 9.745252 23.629315 10.113175 
Q 23.629315 10.499728 23.470968 10.748115 
Q 23.312621 10.996502 23.053367 11.140877 
Q 22.795665 11.285252 22.472762 11.345796 
Q 22.149859 11.404788 21.831613 11.404788 
Q 21.434194 11.404788 21.056956 11.305433 
Q 20.679718 11.206079 20.395625 10.998054 
Q 20.113085 10.788478 19.939214 10.465575 
Q 19.765343 10.142671 19.765343 9.695575 
L 18.871149 9.695575 
Q 18.871149 10.341381 19.104012 10.813317 
Q 19.338427 11.285252 19.740504 11.587974 
Q 20.142581 11.890696 20.673508 12.039728 
Q 21.205988 12.18876 21.802117 12.18876 
Q 22.288024 12.18876 22.780141 12.073881 
Q 23.272258 11.960554 23.669677 11.70751 
Q 24.067097 11.454466 24.320141 11.052389 
Q 24.573185 10.64876 24.573185 10.083679 
Q 24.573185 9.555857 24.379133 9.208115 
Q 24.186633 8.860373 23.86373 8.632167 
Q 23.540827 8.403962 23.13254 8.270454 
Q 22.725806 8.135393 22.303548 8.036038 
Q 21.88129 7.936683 21.473004 7.852853 
Q 21.06627 7.76747 20.743367 7.638619 
Q 20.420464 7.509768 20.226411 7.306401 
Q 20.033911 7.103034 20.033911 6.773921 
Q 20.033911 6.426179 20.167419 6.193317 
Q 20.300927 5.960454 20.524476 5.820736 
Q 20.748024 5.681018 21.036774 5.622026 
Q 21.325524 5.563034 21.623589 5.563034 
Q 22.357883 5.563034 22.829819 5.906119 
Q 23.301754 6.247651 23.380927 7.012994 
z
M 25.546862 6.893458 
L 25.546862 12.030413 
L 26.391378 12.030413 
L 26.391378 9.745252 
Q 26.391378 9.248478 26.490733 8.866583 
Q 26.590087 8.483135 26.808979 8.216119 
Q 27.02787 7.94755 27.384926 7.807833 
Q 27.743535 7.668115 28.249624 7.668115 
L 28.249624 6.773921 
Q 27.565007 6.755292 27.11791 7.053357 
Q 26.670813 7.351421 26.361882 7.977046 
L 26.3417 7.977046 
L 26.3417 6.893458 
L 25.546862 6.893458 
z
" style="stroke: #ffffff; stroke-width: 2.980645"/>
    <path d="M 23.380927 7.012994 
L 24.275121 7.012994 
Q 24.256492 6.426179 24.051573 6.003921 
Q 23.848206 5.581663 23.495806 5.30378 
Q 23.143407 5.025897 22.676129 4.897046 
Q 22.208851 4.768196 21.662399 4.768196 
Q 21.176492 4.768196 20.713871 4.892389 
Q 20.25125 5.016583 19.887984 5.269627 
Q 19.52627 5.522671 19.307379 5.915433 
Q 19.09004 6.308196 19.09004 6.84378 
Q 19.09004 7.33124 19.28254 7.654143 
Q 19.476593 7.977046 19.799496 8.180413 
Q 20.122399 8.38378 20.529133 8.507974 
Q 20.937419 8.632167 21.359677 8.726865 
Q 21.781935 8.821563 22.188669 8.911603 
Q 22.596956 9.000091 22.919859 9.144466 
Q 23.242762 9.288841 23.435262 9.517046 
Q 23.629315 9.745252 23.629315 10.113175 
Q 23.629315 10.499728 23.470968 10.748115 
Q 23.312621 10.996502 23.053367 11.140877 
Q 22.795665 11.285252 22.472762 11.345796 
Q 22.149859 11.404788 21.831613 11.404788 
Q 21.434194 11.404788 21.056956 11.305433 
Q 20.679718 11.206079 20.395625 10.998054 
Q 20.113085 10.788478 19.939214 10.465575 
Q 19.765343 10.142671 19.765343 9.695575 
L 18.871149 9.695575 
Q 18.871149 10.341381 19.104012 10.813317 
Q 19.338427 11.285252 19.740504 11.587974 
Q 20.142581 11.890696 20.673508 12.039728 
Q 21.205988 12.18876 21.802117 12.18876 
Q 22.288024 12.18876 22.780141 12.073881 
Q 23.272258 11.960554 23.669677 11.70751 
Q 24.067097 11.454466 24.320141 11.052389 
Q 24.573185 10.64876 24.573185 10.083679 
Q 24.573185 9.555857 24.379133 9.208115 
Q 24.186633 8.860373 23.86373 8.632167 
Q 23.540827 8.403962 23.13254 8.270454 
Q 22.725806 8.135393 22.303548 8.036038 
Q 21.88129 7.936683 21.473004 7.852853 
Q 21.06627 7.76747 20.743367 7.638619 
Q 20.420464 7.509768 20.226411 7.306401 
Q 20.033911 7.103034 20.033911 6.773921 
Q 20.033911 6.426179 20.167419 6.193317 
Q 20.300927 5.960454 20.524476 5.820736 
Q 20.748024 5.681018 21.036774 5.622026 
Q 21.325524 5.563034 21.623589 5.563034 
Q 22.357883 5.563034 22.829819 5.906119 
Q 23.301754 6.247651 23.380927 7.012994 
z
M 25.546862 6.893458 
L 25.546862 12.030413 
L 26.391378 12.030413 
L 26.391378 9.745252 
Q 26.391378 9.248478 26.490733 8.866583 
Q 26.590087 8.483135 26.808979 8.216119 
Q 27.02787 7.94755 27.384926 7.807833 
Q 27.743535 7.668115 28.249624 7.668115 
L 28.249624 6.773921 
Q 27.565007 6.755292 27.11791 7.053357 
Q 26.670813 7.351421 26.361882 7.977046 
L 26.3417 7.977046 
L 26.3417 6.893458 
L 25.546862 6.893458 
z
"/>
   </g>
   <g id="text_2">
    <path d="M 20.887742 18.15005 
L 20.887742 24.449768 
L 21.831613 24.449768 
L 21.831613 18.15005 
L 24.195948 18.15005 
L 24.195948 17.355212 
L 18.523407 17.355212 
L 18.523407 18.15005 
L 20.887742 18.15005 
z
M 25.736878 18.389123 
L 25.736878 17.355212 
L 24.892362 17.355212 
L 24.892362 18.389123 
L 25.736878 18.389123 
z
M 24.892362 19.312812 
L 24.892362 24.449768 
L 25.736878 24.449768 
L 25.736878 19.312812 
L 24.892362 19.312812 
z
" style="stroke: #ffffff; stroke-width: 2.980645"/>
    <path d="M 20.887742 18.15005 
L 20.887742 24.449768 
L 21.831613 24.449768 
L 21.831613 18.15005 
L 24.195948 18.15005 
L 24.195948 17.355212 
L 18.523407 17.355212 
L 18.523407 18.15005 
L 20.887742 18.15005 
z
M 25.736878 18.389123 
L 25.736878 17.355212 
L 24.892362 17.355212 
L 24.892362 18.389123 
L 25.736878 18.389123 
z
M 24.892362 19.312812 
L 24.892362 24.449768 
L 25.736878 24.449768 
L 25.736878 19.312812 
L 24.892362 19.312812 
z
"/>
   </g>
   <g id="text_3">
    <path d="M 19.824335 33.321845 
Q 19.824335 32.78626 19.9625 32.264647 
Q 20.102218 31.743034 20.400282 31.325433 
Q 20.698347 30.907833 21.165625 30.654788 
Q 21.632903 30.401744 22.27871 30.401744 
Q 22.924516 30.401744 23.391794 30.654788 
Q 23.859073 30.907833 24.157137 31.325433 
Q 24.455202 31.743034 24.593367 32.264647 
Q 24.733085 32.78626 24.733085 33.321845 
Q 24.733085 33.858982 24.593367 34.380595 
Q 24.455202 34.902208 24.157137 35.319808 
Q 23.859073 35.735857 23.391794 35.990454 
Q 22.924516 36.243498 22.27871 36.243498 
Q 21.632903 36.243498 21.165625 35.990454 
Q 20.698347 35.735857 20.400282 35.319808 
Q 20.102218 34.902208 19.9625 34.380595 
Q 19.824335 33.858982 19.824335 33.321845 
z
M 18.880464 33.321845 
Q 18.880464 34.046825 19.093145 34.71747 
Q 19.307379 35.388115 19.734294 35.905071 
Q 20.162762 36.422026 20.797702 36.724748 
Q 21.434194 37.02747 22.27871 37.02747 
Q 23.123226 37.02747 23.758165 36.724748 
Q 24.394657 36.422026 24.821573 35.905071 
Q 25.25004 35.388115 25.462722 34.71747 
Q 25.676956 34.046825 25.676956 33.321845 
Q 25.676956 32.596865 25.462722 31.92622 
Q 25.25004 31.255575 24.821573 30.738619 
Q 24.394657 30.221663 23.758165 29.914284 
Q 23.123226 29.606905 22.27871 29.606905 
Q 21.434194 29.606905 20.797702 29.914284 
Q 20.162762 30.221663 19.734294 30.738619 
Q 19.307379 31.255575 19.093145 31.92622 
Q 18.880464 32.596865 18.880464 33.321845 
z
" style="stroke: #ffffff; stroke-width: 2.980645"/>
    <path d="M 19.824335 33.321845 
Q 19.824335 32.78626 19.9625 32.264647 
Q 20.102218 31.743034 20.400282 31.325433 
Q 20.698347 30.907833 21.165625 30.654788 
Q 21.632903 30.401744 22.27871 30.401744 
Q 22.924516 30.401744 23.391794 30.654788 
Q 23.859073 30.907833 24.157137 31.325433 
Q 24.455202 31.743034 24.593367 32.264647 
Q 24.733085 32.78626 24.733085 33.321845 
Q 24.733085 33.858982 24.593367 34.380595 
Q 24.455202 34.902208 24.157137 35.319808 
Q 23.859073 35.735857 23.391794 35.990454 
Q 22.924516 36.243498 22.27871 36.243498 
Q 21.632903 36.243498 21.165625 35.990454 
Q 20.698347 35.735857 20.400282 35.319808 
Q 20.102218 34.902208 19.9625 34.380595 
Q 19.824335 33.858982 19.824335 33.321845 
z
M 18.880464 33.321845 
Q 18.880464 34.046825 19.093145 34.71747 
Q 19.307379 35.388115 19.734294 35.905071 
Q 20.162762 36.422026 20.797702 36.724748 
Q 21.434194 37.02747 22.27871 37.02747 
Q 23.123226 37.02747 23.758165 36.724748 
Q 24.394657 36.422026 24.821573 35.905071 
Q 25.25004 35.388115 25.462722 34.71747 
Q 25.676956 34.046825 25.676956 33.321845 
Q 25.676956 32.596865 25.462722 31.92622 
Q 25.25004 31.255575 24.821573 30.738619 
Q 24.394657 30.221663 23.758165 29.914284 
Q 23.123226 29.606905 22.27871 29.606905 
Q 21.434194 29.606905 20.797702 29.914284 
Q 20.162762 30.221663 19.734294 30.738619 
Q 19.307379 31.255575 19.093145 31.92622 
Q 18.880464 32.596865 18.880464 33.321845 
z
"/>
   </g>
  </g>
 </g>
 <defs>
  <clipPath id="paf1b7d46c0">
   <rect x="-191.592516" y="-161.786065" width="221.76" height="221.76"/>
  </clipPath>
 </defs>
</svg>
