<?xml version="1.0" encoding="utf-8" standalone="no"?>
<!DOCTYPE svg PUBLIC "-//W3C//DTD SVG 1.1//EN"
  "http://www.w3.org/Graphics/SVG/1.1/DTD/svg11.dtd">
<svg xmlns:xlink="http://www.w3.org/1999/xlink" width="35.797419pt" height="52.396129pt" viewBox="0 0 35.797419 52.396129" xmlns="http://www.w3.org/2000/svg" version="1.1">
 <metadata>
  <rdf:RDF xmlns:dc="http://purl.org/dc/elements/1.1/" xmlns:cc="http://creativecommons.org/ns#" xmlns:rdf="http://www.w3.org/1999/02/22-rdf-syntax-ns#">
   <cc:Work>
    <dc:type rdf:resource="http://purl.org/dc/dcmitype/StillImage"/>
    <dc:date>2026-02-22T07:29:55.852766</dc:date>
    <dc:format>image/svg+xml</dc:format>
    <dc:creator>
     <cc:Agent>
      <dc:title>Matplotlib v3.10.7, https://matplotlib.org/</dc:title>
     </cc:Agent>
    </dc:creator>
   </cc:Work>
  </rdf:RDF>
 </metadata>
 <defs>
  <style type="text/css">*{stroke-linejoin: round; stroke-linecap: butt}</style>
 </defs>
 <g id="figure_1">
  <g id="patch_1">
   <path d="M 0 52.396129 
L 35.797419 52.396129 
L 35.797419 0 
L 0 0 
L 0 52.396129 
z
" style="fill: none"/>
  </g>
  <g id="axes_1">
   <g id="line2d_1">
    <defs>
     <path id="mc11a7e435b" d="M 0 6.954839 
C 1.844445 6.954839 3.613594 6.222033 4.917814 4.917814 
C 6.222033 3.613594 6.954839 1.844445 6.954839 0 
C 6.954839 -1.844445 6.222033 -3.613594 4.917814 -4.917814 
C 3.613594 -6.222033 1.844445 -6.954839 0 -6.954839 
C -1.844445 -6.954839 -3.613594 -6.222033 -4.917814 -4.917814 
C -6.222033 -3.613594 -6.954839 -1.844445 -6.954839 0 
C -6.954839 1.844445 -6.222033 3.613594 -4.917814 4.917814 
C -3.613594 6.222033 -1.844445 6.954839 0 6.954839 
z
" style="stroke: #262626; stroke-width: 0.993548"/>
    </defs>
    <g clip-path="url(#p4348cad51f)">
     <use xlink:href="#mc11a7e435b" x="10.554839" y="10.554839" style="fill: #51b04d; stroke: #262626; stroke-width: 0.993548"/>
    </g>
   </g>
   <g id="line2d_2">
    <defs>
     <path id="m3dcb64c8f5" d="M 0 4.305376 
C 1.141799 4.305376 2.236987 3.851735 3.044361 3.044361 
C 3.851735 2.236987 4.305376 1.141799 4.305376 0 
C 4.305376 -1.141799 3.851735 -2.236987 3.044361 -3.044361 
C 2.236987 -3.851735 1.141799 -4.305376 0 -4.305376 
C -1.141799 -4.305376 -2.236987 -3.851735 -3.044361 -3.044361 
C -3.851735 -2.236987 -4.305376 -1.141799 -4.305376 0 
C -4.305376 1.141799 -3.851735 2.236987 -3.044361 3.044361 
C -2.236987 3.851735 -1.141799 4.305376 0 4.305376 
z
" style="stroke: #262626; stroke-width: 0.993548"/>
    </defs>
    <g clip-path="url(#p4348cad51f)">
     <use xlink:href="#m3dcb64c8f5" x="10.554839" y="26.948387" style="fill: #477b9d; stroke: #262626; stroke-width: 0.993548"/>
    </g>
   </g>
   <g id="line2d_3">
    <defs>
     <path id="mec2864cc00" d="M 0 2.980645 
C 0.790476 2.980645 1.548683 2.666586 2.107634 2.107634 
C 2.666586 1.548683 2.980645 0.790476 2.980645 0 
C 2.980645 -0.790476 2.666586 -1.548683 2.107634 -2.107634 
C 1.548683 -2.666586 0.790476 -2.980645 0 -2.980645 
C -0.790476 -2.980645 -1.548683 -2.666586 -2.107634 -2.107634 
C -2.666586 -1.548683 -2.980645 -0.790476 -2.980645 0 
C -2.980645 0.790476 -2.666586 1.548683 -2.107634 2.107634 
C -1.548683 2.666586 -0.790476 2.980645 0 2.980645 
z
" style="stroke: #262626; stroke-width: 0.993548"/>
    </defs>
    <g clip-path="url(#p4348cad51f)">
     <use xlink:href="#mec2864cc00" x="10.554839" y="43.341935" style="fill: #f03f37; stroke: #262626; stroke-width: 0.993548"/>
    </g>
   </g>
   <g id="text_1">
    <path d="M 27.355121 9.000091 
L 28.249315 9.000091 
Q 28.230685 8.413276 28.025766 7.991018 
Q 27.822399 7.56876 27.47 7.290877 
Q 27.117601 7.012994 26.650323 6.884143 
Q 26.183044 6.755292 25.636593 6.755292 
Q 25.150685 6.755292 24.688065 6.879486 
Q 24.225444 7.003679 23.862177 7.256724 
Q 23.500464 7.509768 23.281573 7.90253 
Q 23.064234 8.295292 23.064234 8.830877 
Q 23.064234 9.318337 23.256734 9.64124 
Q 23.450786 9.964143 23.77369 10.16751 
Q 24.096593 10.370877 24.503327 10.495071 
Q 24.911613 10.619264 25.333871 10.713962 
Q 25.756129 10.808659 26.162863 10.8987 
Q 26.571149 10.987188 26.894052 11.131563 
Q 27.216956 11.275938 27.409456 11.504143 
Q 27.603508 11.732349 27.603508 12.100272 
Q 27.603508 12.486825 27.445161 12.735212 
Q 27.286815 12.983599 27.02756 13.127974 
Q 26.769859 13.272349 26.446956 13.332893 
Q 26.124052 13.391885 25.805806 13.391885 
Q 25.408387 13.391885 25.031149 13.29253 
Q 24.653911 13.193175 24.369819 12.985151 
Q 24.087278 12.775575 23.913407 12.452671 
Q 23.739536 12.129768 23.739536 11.682671 
L 22.845343 11.682671 
Q 22.845343 12.328478 23.078206 12.800413 
Q 23.312621 13.272349 23.714698 13.575071 
Q 24.116774 13.877792 24.647702 14.026825 
Q 25.180181 14.175857 25.77631 14.175857 
Q 26.262218 14.175857 26.754335 14.060978 
Q 27.246452 13.947651 27.643871 13.694607 
Q 28.04129 13.441563 28.294335 13.039486 
Q 28.547379 12.635857 28.547379 12.070776 
Q 28.547379 11.542954 28.353327 11.195212 
Q 28.160827 10.84747 27.837923 10.619264 
Q 27.51502 10.391058 27.106734 10.25755 
Q 26.7 10.12249 26.277742 10.023135 
Q 25.855484 9.92378 25.447198 9.83995 
Q 25.040464 9.754567 24.71756 9.625716 
Q 24.394657 9.496865 24.200605 9.293498 
Q 24.008105 9.090131 24.008105 8.761018 
Q 24.008105 8.413276 24.141613 8.180413 
Q 24.275121 7.94755 24.498669 7.807833 
Q 24.722218 7.668115 25.010968 7.609123 
Q 25.299718 7.550131 25.597782 7.550131 
Q 26.332077 7.550131 26.804012 7.893216 
Q 27.275948 8.234748 27.355121 9.000091 
z
M 29.521055 8.880554 
L 29.521055 14.01751 
L 30.365571 14.01751 
L 30.365571 11.732349 
Q 30.365571 11.235575 30.464926 10.853679 
Q 30.564281 10.470232 30.783172 10.203216 
Q 31.002063 9.934647 31.35912 9.794929 
Q 31.717729 9.655212 32.223817 9.655212 
L 32.223817 8.761018 
Q 31.5392 8.742389 31.092104 9.040454 
Q 30.645007 9.338518 30.336075 9.964143 
L 30.315894 9.964143 
L 30.315894 8.880554 
L 29.521055 8.880554 
z
" style="stroke: #ffffff; stroke-width: 2.980645"/>
    <path d="M 27.355121 9.000091 
L 28.249315 9.000091 
Q 28.230685 8.413276 28.025766 7.991018 
Q 27.822399 7.56876 27.47 7.290877 
Q 27.117601 7.012994 26.650323 6.884143 
Q 26.183044 6.755292 25.636593 6.755292 
Q 25.150685 6.755292 24.688065 6.879486 
Q 24.225444 7.003679 23.862177 7.256724 
Q 23.500464 7.509768 23.281573 7.90253 
Q 23.064234 8.295292 23.064234 8.830877 
Q 23.064234 9.318337 23.256734 9.64124 
Q 23.450786 9.964143 23.77369 10.16751 
Q 24.096593 10.370877 24.503327 10.495071 
Q 24.911613 10.619264 25.333871 10.713962 
Q 25.756129 10.808659 26.162863 10.8987 
Q 26.571149 10.987188 26.894052 11.131563 
Q 27.216956 11.275938 27.409456 11.504143 
Q 27.603508 11.732349 27.603508 12.100272 
Q 27.603508 12.486825 27.445161 12.735212 
Q 27.286815 12.983599 27.02756 13.127974 
Q 26.769859 13.272349 26.446956 13.332893 
Q 26.124052 13.391885 25.805806 13.391885 
Q 25.408387 13.391885 25.031149 13.29253 
Q 24.653911 13.193175 24.369819 12.985151 
Q 24.087278 12.775575 23.913407 12.452671 
Q 23.739536 12.129768 23.739536 11.682671 
L 22.845343 11.682671 
Q 22.845343 12.328478 23.078206 12.800413 
Q 23.312621 13.272349 23.714698 13.575071 
Q 24.116774 13.877792 24.647702 14.026825 
Q 25.180181 14.175857 25.77631 14.175857 
Q 26.262218 14.175857 26.754335 14.060978 
Q 27.246452 13.947651 27.643871 13.694607 
Q 28.04129 13.441563 28.294335 13.039486 
Q 28.547379 12.635857 28.547379 12.070776 
Q 28.547379 11.542954 28.353327 11.195212 
Q 28.160827 10.84747 27.837923 10.619264 
Q 27.51502 10.391058 27.106734 10.25755 
Q 26.7 10.12249 26.277742 10.023135 
Q 25.855484 9.92378 25.447198 9.83995 
Q 25.040464 9.754567 24.71756 9.625716 
Q 24.394657 9.496865 24.200605 9.293498 
Q 24.008105 9.090131 24.008105 8.761018 
Q 24.008105 8.413276 24.141613 8.180413 
Q 24.275121 7.94755 24.498669 7.807833 
Q 24.722218 7.668115 25.010968 7.609123 
Q 25.299718 7.550131 25.597782 7.550131 
Q 26.332077 7.550131 26.804012 7.893216 
Q 27.275948 8.234748 27.355121 9.000091 
z
M 29.521055 8.880554 
L 29.521055 14.01751 
L 30.365571 14.01751 
L 30.365571 11.732349 
Q 30.365571 11.235575 30.464926 10.853679 
Q 30.564281 10.470232 30.783172 10.203216 
Q 31.002063 9.934647 31.35912 9.794929 
Q 31.717729 9.655212 32.223817 9.655212 
L 32.223817 8.761018 
Q 31.5392 8.742389 31.092104 9.040454 
Q 30.645007 9.338518 30.336075 9.964143 
L 30.315894 9.964143 
L 30.315894 8.880554 
L 29.521055 8.880554 
z
"/>
   </g>
   <g id="text_2">
    <path d="M 24.861935 24.111341 
L 24.861935 30.411058 
L 25.805806 30.411058 
L 25.805806 24.111341 
L 28.170141 24.111341 
L 28.170141 23.316502 
L 22.497601 23.316502 
L 22.497601 24.111341 
L 24.861935 24.111341 
z
M 29.711072 24.350413 
L 29.711072 23.316502 
L 28.866556 23.316502 
L 28.866556 24.350413 
L 29.711072 24.350413 
z
M 28.866556 25.274103 
L 28.866556 30.411058 
L 29.711072 30.411058 
L 29.711072 25.274103 
L 28.866556 25.274103 
z
" style="stroke: #ffffff; stroke-width: 2.980645"/>
    <path d="M 24.861935 24.111341 
L 24.861935 30.411058 
L 25.805806 30.411058 
L 25.805806 24.111341 
L 28.170141 24.111341 
L 28.170141 23.316502 
L 22.497601 23.316502 
L 22.497601 24.111341 
L 24.861935 24.111341 
z
M 29.711072 24.350413 
L 29.711072 23.316502 
L 28.866556 23.316502 
L 28.866556 24.350413 
L 29.711072 24.350413 
z
M 28.866556 25.274103 
L 28.866556 30.411058 
L 29.711072 30.411058 
L 29.711072 25.274103 
L 28.866556 25.274103 
z
"/>
   </g>
   <g id="text_3">
    <path d="M 23.798528 43.257329 
Q 23.798528 42.721744 23.936694 42.200131 
Q 24.076411 41.678518 24.374476 41.260917 
Q 24.67254 40.843317 25.139819 40.590272 
Q 25.607097 40.337228 26.252903 40.337228 
Q 26.89871 40.337228 27.365988 40.590272 
Q 27.833266 40.843317 28.131331 41.260917 
Q 28.429395 41.678518 28.56756 42.200131 
Q 28.707278 42.721744 28.707278 43.257329 
Q 28.707278 43.794466 28.56756 44.316079 
Q 28.429395 44.837692 28.131331 45.255292 
Q 27.833266 45.671341 27.365988 45.925938 
Q 26.89871 46.178982 26.252903 46.178982 
Q 25.607097 46.178982 25.139819 45.925938 
Q 24.67254 45.671341 24.374476 45.255292 
Q 24.076411 44.837692 23.936694 44.316079 
Q 23.798528 43.794466 23.798528 43.257329 
z
M 22.854657 43.257329 
Q 22.854657 43.982308 23.067339 44.652954 
Q 23.281573 45.323599 23.708488 45.840554 
Q 24.136956 46.35751 24.771895 46.660232 
Q 25.408387 46.962954 26.252903 46.962954 
Q 27.097419 46.962954 27.732359 46.660232 
Q 28.368851 46.35751 28.795766 45.840554 
Q 29.224234 45.323599 29.436915 44.652954 
Q 29.651149 43.982308 29.651149 43.257329 
Q 29.651149 42.532349 29.436915 41.861704 
Q 29.224234 41.191058 28.795766 40.674103 
Q 28.368851 40.157147 27.732359 39.849768 
Q 27.097419 39.542389 26.252903 39.542389 
Q 25.408387 39.542389 24.771895 39.849768 
Q 24.136956 40.157147 23.708488 40.674103 
Q 23.281573 41.191058 23.067339 41.861704 
Q 22.854657 42.532349 22.854657 43.257329 
z
" style="stroke: #ffffff; stroke-width: 2.980645"/>
    <path d="M 23.798528 43.257329 
Q 23.798528 42.721744 23.936694 42.200131 
Q 24.076411 41.678518 24.374476 41.260917 
Q 24.67254 40.843317 25.139819 40.590272 
Q 25.607097 40.337228 26.252903 40.337228 
Q 26.89871 40.337228 27.365988 40.590272 
Q 27.833266 40.843317 28.131331 41.260917 
Q 28.429395 41.678518 28.56756 42.200131 
Q 28.707278 42.721744 28.707278 43.257329 
Q 28.707278 43.794466 28.56756 44.316079 
Q 28.429395 44.837692 28.131331 45.255292 
Q 27.833266 45.671341 27.365988 45.925938 
Q 26.89871 46.178982 26.252903 46.178982 
Q 25.607097 46.178982 25.139819 45.925938 
Q 24.67254 45.671341 24.374476 45.255292 
Q 24.076411 44.837692 23.936694 44.316079 
Q 23.798528 43.794466 23.798528 43.257329 
z
M 22.854657 43.257329 
Q 22.854657 43.982308 23.067339 44.652954 
Q 23.281573 45.323599 23.708488 45.840554 
Q 24.136956 46.35751 24.771895 46.660232 
Q 25.408387 46.962954 26.252903 46.962954 
Q 27.097419 46.962954 27.732359 46.660232 
Q 28.368851 46.35751 28.795766 45.840554 
Q 29.224234 45.323599 29.436915 44.652954 
Q 29.651149 43.982308 29.651149 43.257329 
Q 29.651149 42.532349 29.436915 41.861704 
Q 29.224234 41.191058 28.795766 40.674103 
Q 28.368851 40.157147 27.732359 39.849768 
Q 27.097419 39.542389 26.252903 39.542389 
Q 25.408387 39.542389 24.771895 39.849768 
Q 24.136956 40.157147 23.708488 40.674103 
Q 23.281573 41.191058 23.067339 41.861704 
Q 22.854657 42.532349 22.854657 43.257329 
z
"/>
   </g>
  </g>
 </g>
 <defs>
  <clipPath id="p4348cad51f">
   <rect x="-187.618323" y="-147.876387" width="221.76" height="221.76"/>
  </clipPath>
 </defs>
</svg>
