<?xml version="1.0" encoding="utf-8" standalone="no"?>
<!DOCTYPE svg PUBLIC "-//W3C//DTD SVG 1.1//EN"
  "http://www.w3.org/Graphics/SVG/1.1/DTD/svg11.dtd">
<svg xmlns:xlink="http://www.w3.org/1999/xlink" width="72pt" height="43.2pt" viewBox="0 0 72 43.2" xmlns="http://www.w3.org/2000/svg" version="1.1">
 <metadata>
  <rdf:RDF xmlns:dc="http://purl.org/dc/elements/1.1/" xmlns:cc="http://creativecommons.org/ns#" xmlns:rdf="http://www.w3.org/1999/02/22-rdf-syntax-ns#">
   <cc:Work>
    <dc:type rdf:resource="http://purl.org/dc/dcmitype/StillImage"/>
    <dc:date>2026-02-25T15:38:19.436332</dc:date>
    <dc:format>image/svg+xml</dc:format>
    <dc:creator>
     <cc:Agent>
      <dc:title>Matplotlib v3.10.7, https://matplotlib.org/</dc:title>
     </cc:Agent>
    </dc:creator>
   </cc:Work>
  </rdf:RDF>
 </metadata>
 <defs>
  <style type="text/css">*{stroke-linejoin: round; stroke-linecap: butt}</style>
 </defs>
 <g id="figure_1">
  <g id="patch_1">
   <path d="M 0 43.2 
L 72 43.2 
L 72 0 
L 0 0 
z
" style="fill: #ffffff"/>
  </g>
  <g id="axes_1">
   <g id="PolyCollection_1">
    <path d="M 11.019341 12.814919 
L 9.641126 19.416681 
L 4.36759 14.914377 
z
" clip-path="url(#p19621858f1)" style="fill: #80b2ff; fill-opacity: 0.4; stroke: #262626; stroke-width: 0.993548"/>
    <path d="M 7.232726 10.412074 
L 11.019341 12.814919 
L 4.36759 14.914377 
z
" clip-path="url(#p19621858f1)" style="fill: #80b2ff; fill-opacity: 0.4; stroke: #262626; stroke-width: 0.993548"/>
    <path d="M 11.019341 12.814919 
L 9.641126 19.416681 
L 12.506262 14.914377 
z
" clip-path="url(#p19621858f1)" style="fill: #80b2ff; fill-opacity: 0.4; stroke: #262626; stroke-width: 0.993548"/>
    <path d="M 5.854511 17.013836 
L 9.641126 19.416681 
L 4.36759 14.914377 
z
" clip-path="url(#p19621858f1)" style="fill: #80b2ff; fill-opacity: 0.4; stroke: #262626; stroke-width: 0.993548"/>
    <path d="M 7.232726 10.412074 
L 11.019341 12.814919 
L 12.506262 14.914377 
z
" clip-path="url(#p19621858f1)" style="fill: #80b2ff; fill-opacity: 0.4; stroke: #262626; stroke-width: 0.993548"/>
    <path d="M 7.232726 10.412074 
L 5.854511 17.013836 
L 4.36759 14.914377 
z
" clip-path="url(#p19621858f1)" style="fill: #80b2ff; fill-opacity: 0.4; stroke: #262626; stroke-width: 0.993548"/>
    <path d="M 5.854511 17.013836 
L 9.641126 19.416681 
L 12.506262 14.914377 
z
" clip-path="url(#p19621858f1)" style="fill: #80b2ff; fill-opacity: 0.4; stroke: #262626; stroke-width: 0.993548"/>
    <path d="M 7.232726 10.412074 
L 5.854511 17.013836 
L 12.506262 14.914377 
z
" clip-path="url(#p19621858f1)" style="fill: #80b2ff; fill-opacity: 0.4; stroke: #262626; stroke-width: 0.993548"/>
   </g>
   <g id="PolyCollection_2">
    <path d="M 5.291781 31.145261 
L 12.972561 28.721015 
L 6.883207 23.522203 
z
" clip-path="url(#p19621858f1)" style="fill: #d9a6d9; fill-opacity: 0.4; stroke: #262626; stroke-width: 0.993548"/>
    <path d="M 12.972561 28.721015 
L 8.600155 25.946449 
L 6.883207 23.522203 
z
" clip-path="url(#p19621858f1)" style="fill: #d9a6d9; fill-opacity: 0.4; stroke: #262626; stroke-width: 0.993548"/>
    <path d="M 5.291781 31.145261 
L 8.600155 25.946449 
L 6.883207 23.522203 
z
" clip-path="url(#p19621858f1)" style="fill: #d9a6d9; fill-opacity: 0.4; stroke: #262626; stroke-width: 0.993548"/>
    <path d="M 5.291781 31.145261 
L 12.972561 28.721015 
L 8.600155 25.946449 
z
" clip-path="url(#p19621858f1)" style="fill: #d9a6d9; fill-opacity: 0.4; stroke: #262626; stroke-width: 0.993548"/>
   </g>
   <g id="text_1">
    <path d="M 19.693519 14.829771 
Q 19.693519 14.294186 19.831684 13.772573 
Q 19.971402 13.25096 20.269466 12.833359 
Q 20.567531 12.415758 21.034809 12.162714 
Q 21.502087 11.90967 22.147894 11.90967 
Q 22.7937 11.90967 23.260978 12.162714 
Q 23.728257 12.415758 24.026321 12.833359 
Q 24.324386 13.25096 24.462551 13.772573 
Q 24.602269 14.294186 24.602269 14.829771 
Q 24.602269 15.366908 24.462551 15.888521 
Q 24.324386 16.410133 24.026321 16.827734 
Q 23.728257 17.243783 23.260978 17.498379 
Q 22.7937 17.751424 22.147894 17.751424 
Q 21.502087 17.751424 21.034809 17.498379 
Q 20.567531 17.243783 20.269466 16.827734 
Q 19.971402 16.410133 19.831684 15.888521 
Q 19.693519 15.366908 19.693519 14.829771 
z
M 18.749648 14.829771 
Q 18.749648 15.55475 18.962329 16.225396 
Q 19.176563 16.896041 19.603478 17.412996 
Q 20.031946 17.929952 20.666886 18.232674 
Q 21.303378 18.535396 22.147894 18.535396 
Q 22.99241 18.535396 23.627349 18.232674 
Q 24.263841 17.929952 24.690757 17.412996 
Q 25.119224 16.896041 25.331906 16.225396 
Q 25.54614 15.55475 25.54614 14.829771 
Q 25.54614 14.104791 25.331906 13.434146 
Q 25.119224 12.7635 24.690757 12.246545 
Q 24.263841 11.729589 23.627349 11.42221 
Q 22.99241 11.114831 22.147894 11.114831 
Q 21.303378 11.114831 20.666886 11.42221 
Q 20.031946 11.729589 19.603478 12.246545 
Q 19.176563 12.7635 18.962329 13.434146 
Q 18.749648 14.104791 18.749648 14.829771 
z
M 30.046602 14.890315 
L 30.920614 14.890315 
Q 30.870937 14.432351 30.681541 14.100133 
Q 30.493699 13.766363 30.200291 13.549025 
Q 29.906884 13.330133 29.524989 13.226121 
Q 29.143094 13.120557 28.705312 13.120557 
Q 28.099868 13.120557 27.641904 13.334791 
Q 27.185493 13.549025 26.881219 13.921605 
Q 26.578497 14.294186 26.429465 14.795617 
Q 26.280433 15.297049 26.280433 15.872996 
Q 26.280433 16.448944 26.434122 16.931746 
Q 26.589364 17.412996 26.892086 17.760738 
Q 27.194808 18.10848 27.646562 18.297875 
Q 28.099868 18.485718 28.68513 18.485718 
Q 29.669364 18.485718 30.240654 17.970315 
Q 30.811945 17.453359 30.95011 16.498621 
L 30.086965 16.498621 
Q 30.006239 17.09475 29.65384 17.423863 
Q 29.301441 17.751424 28.675816 17.751424 
Q 28.278396 17.751424 27.989646 17.593077 
Q 27.702449 17.433178 27.522368 17.170819 
Q 27.34384 16.906908 27.258457 16.570033 
Q 27.174626 16.231605 27.174626 15.872996 
Q 27.174626 15.486444 27.2538 15.123178 
Q 27.334525 14.759912 27.517711 14.482029 
Q 27.702449 14.204146 28.009828 14.034932 
Q 28.317207 13.865718 28.77517 13.865718 
Q 29.310755 13.865718 29.629001 14.134287 
Q 29.947247 14.402855 30.046602 14.890315 
z
M 33.067299 13.240093 
L 33.067299 11.700093 
L 32.222783 11.700093 
L 32.222783 13.240093 
L 31.348771 13.240093 
L 31.348771 13.985254 
L 32.222783 13.985254 
L 32.222783 17.25465 
Q 32.222783 17.611706 32.29109 17.830597 
Q 32.360948 18.049488 32.505323 18.169025 
Q 32.649698 18.287008 32.882561 18.332029 
Q 33.116977 18.377049 33.444537 18.377049 
L 34.090344 18.377049 
L 34.090344 17.631887 
L 33.702239 17.631887 
Q 33.503529 17.631887 33.379336 17.617916 
Q 33.255142 17.602392 33.185283 17.552714 
Q 33.116977 17.503037 33.092138 17.414549 
Q 33.067299 17.324508 33.067299 17.175476 
L 33.067299 13.985254 
L 34.090344 13.985254 
L 34.090344 13.240093 
L 33.067299 13.240093 
z
M 39.57504 18.356867 
Q 39.356149 18.485718 38.968044 18.485718 
Q 38.640483 18.485718 38.446431 18.302533 
Q 38.253931 18.119347 38.253931 17.701746 
Q 37.906189 18.119347 37.443568 18.302533 
Q 36.980947 18.485718 36.445362 18.485718 
Q 36.09762 18.485718 35.784032 18.406545 
Q 35.471995 18.327371 35.242237 18.158158 
Q 35.014032 17.988944 34.878971 17.715718 
Q 34.745463 17.442492 34.745463 17.05594 
Q 34.745463 16.618158 34.894495 16.340275 
Q 35.043528 16.062392 35.287257 15.888521 
Q 35.530987 15.71465 35.843024 15.626162 
Q 36.156612 15.536121 36.484173 15.475577 
Q 36.831915 15.405718 37.145503 15.371565 
Q 37.459092 15.337412 37.696612 15.27221 
Q 37.935685 15.207008 38.07385 15.082815 
Q 38.213568 14.958621 38.213568 14.721101 
Q 38.213568 14.443218 38.109556 14.274004 
Q 38.005544 14.104791 37.840987 14.016303 
Q 37.676431 13.926262 37.473064 13.896767 
Q 37.269697 13.865718 37.070987 13.865718 
Q 36.53385 13.865718 36.176794 14.070637 
Q 35.819737 14.274004 35.788689 14.840637 
L 34.944173 14.840637 
Q 34.964354 14.362492 35.142882 14.034932 
Q 35.322963 13.707371 35.621028 13.504004 
Q 35.919092 13.300637 36.300987 13.210597 
Q 36.682882 13.120557 37.120665 13.120557 
Q 37.468407 13.120557 37.811491 13.170234 
Q 38.154576 13.219912 38.432459 13.375154 
Q 38.710342 13.528843 38.879556 13.806726 
Q 39.048769 14.084609 39.048769 14.531706 
L 39.048769 17.175476 
Q 39.048769 17.473541 39.082923 17.613258 
Q 39.117076 17.751424 39.315786 17.751424 
Q 39.426007 17.751424 39.57504 17.701746 
L 39.57504 18.356867 
z
M 38.204253 15.723964 
Q 38.044354 15.8435 37.7851 15.897835 
Q 37.527399 15.95217 37.244858 15.987875 
Q 36.962318 16.022029 36.673568 16.067049 
Q 36.384818 16.112069 36.156612 16.211424 
Q 35.928407 16.310779 35.784032 16.495517 
Q 35.639657 16.678702 35.639657 16.995396 
Q 35.639657 17.204972 35.723487 17.349347 
Q 35.80887 17.49217 35.942378 17.58221 
Q 36.077439 17.67225 36.255967 17.712613 
Q 36.434495 17.751424 36.633205 17.751424 
Q 37.050806 17.751424 37.34887 17.638097 
Q 37.646935 17.523218 37.834778 17.349347 
Q 38.024173 17.175476 38.114213 16.972109 
Q 38.204253 16.76719 38.204253 16.588662 
L 38.204253 15.723964 
z
M 40.360253 11.282492 
L 40.360253 18.377049 
L 41.204769 18.377049 
L 41.204769 15.475577 
Q 41.204769 15.127835 41.297914 14.83598 
Q 41.392612 14.542573 41.580455 14.323682 
Q 41.76985 14.104791 42.05239 13.985254 
Q 42.336483 13.865718 42.724588 13.865718 
Q 43.210495 13.865718 43.488378 14.145154 
Q 43.767814 14.423037 43.767814 14.899629 
L 43.767814 18.377049 
L 44.61233 18.377049 
L 44.61233 14.998984 
Q 44.61233 14.581383 44.526947 14.239851 
Q 44.443116 13.896767 44.233539 13.648379 
Q 44.025515 13.399992 43.687088 13.260275 
Q 43.350213 13.120557 42.844124 13.120557 
Q 42.614366 13.120557 42.370636 13.170234 
Q 42.128459 13.219912 41.90491 13.325476 
Q 41.681362 13.429488 41.501281 13.594045 
Q 41.322753 13.757049 41.223398 13.996121 
L 41.204769 13.996121 
L 41.204769 11.282492 
L 40.360253 11.282492 
z
M 49.450288 15.31723 
L 46.499139 15.31723 
Q 46.519321 15.019166 46.62799 14.756807 
Q 46.738212 14.492896 46.926055 14.294186 
Q 47.11545 14.095476 47.377809 13.980597 
Q 47.64172 13.865718 47.970833 13.865718 
Q 48.287526 13.865718 48.551438 13.980597 
Q 48.815349 14.095476 49.007849 14.289529 
Q 49.201901 14.482029 49.315228 14.750597 
Q 49.430107 15.019166 49.450288 15.31723 
z
M 50.265309 16.747008 
L 49.430107 16.747008 
Q 49.321438 17.25465 48.978353 17.503037 
Q 48.635268 17.751424 48.099684 17.751424 
Q 47.682083 17.751424 47.373151 17.613258 
Q 47.065772 17.473541 46.867063 17.240678 
Q 46.668353 17.006262 46.578313 16.703541 
Q 46.489825 16.399267 46.499139 16.062392 
L 50.344482 16.062392 
Q 50.364663 15.595113 50.260651 15.078158 
Q 50.156639 14.561202 49.883413 14.124972 
Q 49.610188 13.68719 49.156881 13.40465 
Q 48.705127 13.120557 48.02051 13.120557 
Q 47.492688 13.120557 47.050248 13.319267 
Q 46.609361 13.517976 46.286458 13.876585 
Q 45.963555 14.233642 45.783474 14.721101 
Q 45.604946 15.207008 45.604946 15.793823 
Q 45.625127 16.380637 45.778817 16.877412 
Q 45.934059 17.374186 46.241438 17.731242 
Q 46.548817 18.088299 47.000571 18.287008 
Q 47.453877 18.485718 48.070188 18.485718 
Q 48.9442 18.485718 49.520147 18.049488 
Q 50.096095 17.611706 50.265309 16.747008 
z
M 51.834494 15.852815 
Q 51.834494 15.475577 51.913667 15.118521 
Q 51.994393 14.759912 52.172921 14.482029 
Q 52.351449 14.204146 52.649514 14.034932 
Q 52.947578 13.865718 53.374494 13.865718 
Q 53.812276 13.865718 54.119655 14.030275 
Q 54.428587 14.194831 54.621087 14.4634 
Q 54.815139 14.730416 54.905179 15.084367 
Q 54.99522 15.436767 54.99522 15.814004 
Q 54.99522 16.171061 54.909837 16.518803 
Q 54.826006 16.866545 54.636611 17.139771 
Q 54.448768 17.412996 54.150703 17.58221 
Q 53.852639 17.751424 53.424171 17.751424 
Q 53.017437 17.751424 52.714716 17.593077 
Q 52.411994 17.433178 52.217941 17.164609 
Q 52.023889 16.896041 51.929191 16.554508 
Q 51.834494 16.211424 51.834494 15.852815 
z
M 55.808687 18.377049 
L 55.808687 11.282492 
L 54.964171 11.282492 
L 54.964171 13.926262 
L 54.945542 13.926262 
Q 54.805824 13.698057 54.602457 13.544367 
Q 54.399091 13.389125 54.169332 13.29598 
Q 53.941127 13.201283 53.712921 13.16092 
Q 53.484716 13.120557 53.286006 13.120557 
Q 52.699191 13.120557 52.256752 13.334791 
Q 51.815865 13.549025 51.522457 13.912291 
Q 51.22905 14.274004 51.084675 14.761464 
Q 50.9403 15.247371 50.9403 15.793823 
Q 50.9403 16.340275 51.089332 16.827734 
Q 51.238365 17.313642 51.531772 17.681565 
Q 51.825179 18.049488 52.267619 18.268379 
Q 52.710058 18.485718 53.306187 18.485718 
Q 53.841772 18.485718 54.288869 18.297875 
Q 54.735966 18.10848 54.945542 17.681565 
L 54.964171 17.681565 
L 54.964171 18.377049 
L 55.808687 18.377049 
z
M 57.080428 13.240093 
L 57.080428 18.377049 
L 57.924944 18.377049 
L 57.924944 16.091887 
Q 57.924944 15.595113 58.024299 15.213218 
Q 58.123654 14.829771 58.342545 14.562754 
Q 58.561436 14.294186 58.918493 14.154468 
Q 59.277101 14.01475 59.78319 14.01475 
L 59.78319 13.120557 
Q 59.098573 13.101928 58.651476 13.399992 
Q 58.20438 13.698057 57.895448 14.323682 
L 57.875267 14.323682 
L 57.875267 13.240093 
L 57.080428 13.240093 
z
M 64.970132 18.356867 
Q 64.751241 18.485718 64.363137 18.485718 
Q 64.035576 18.485718 63.841524 18.302533 
Q 63.649024 18.119347 63.649024 17.701746 
Q 63.301282 18.119347 62.838661 18.302533 
Q 62.37604 18.485718 61.840455 18.485718 
Q 61.492713 18.485718 61.179124 18.406545 
Q 60.867088 18.327371 60.63733 18.158158 
Q 60.409124 17.988944 60.274064 17.715718 
Q 60.140556 17.442492 60.140556 17.05594 
Q 60.140556 16.618158 60.289588 16.340275 
Q 60.43862 16.062392 60.68235 15.888521 
Q 60.92608 15.71465 61.238116 15.626162 
Q 61.551705 15.536121 61.879266 15.475577 
Q 62.227007 15.405718 62.540596 15.371565 
Q 62.854185 15.337412 63.091705 15.27221 
Q 63.330778 15.207008 63.468943 15.082815 
Q 63.608661 14.958621 63.608661 14.721101 
Q 63.608661 14.443218 63.504649 14.274004 
Q 63.400637 14.104791 63.23608 14.016303 
Q 63.071524 13.926262 62.868157 13.896767 
Q 62.66479 13.865718 62.46608 13.865718 
Q 61.928943 13.865718 61.571887 14.070637 
Q 61.21483 14.274004 61.183782 14.840637 
L 60.339266 14.840637 
Q 60.359447 14.362492 60.537975 14.034932 
Q 60.718056 13.707371 61.01612 13.504004 
Q 61.314185 13.300637 61.69608 13.210597 
Q 62.077975 13.120557 62.515757 13.120557 
Q 62.863499 13.120557 63.206584 13.170234 
Q 63.549669 13.219912 63.827552 13.375154 
Q 64.105435 13.528843 64.274649 13.806726 
Q 64.443862 14.084609 64.443862 14.531706 
L 64.443862 17.175476 
Q 64.443862 17.473541 64.478016 17.613258 
Q 64.512169 17.751424 64.710878 17.751424 
Q 64.8211 17.751424 64.970132 17.701746 
L 64.970132 18.356867 
z
M 63.599346 15.723964 
Q 63.439447 15.8435 63.180193 15.897835 
Q 62.922491 15.95217 62.639951 15.987875 
Q 62.357411 16.022029 62.068661 16.067049 
Q 61.779911 16.112069 61.551705 16.211424 
Q 61.323499 16.310779 61.179124 16.495517 
Q 61.034749 16.678702 61.034749 16.995396 
Q 61.034749 17.204972 61.11858 17.349347 
Q 61.203963 17.49217 61.337471 17.58221 
Q 61.472532 17.67225 61.65106 17.712613 
Q 61.829588 17.751424 62.028298 17.751424 
Q 62.445899 17.751424 62.743963 17.638097 
Q 63.042028 17.523218 63.22987 17.349347 
Q 63.419266 17.175476 63.509306 16.972109 
Q 63.599346 16.76719 63.599346 16.588662 
L 63.599346 15.723964 
z
M 65.805023 11.282492 
L 65.805023 18.377049 
L 66.649539 18.377049 
L 66.649539 11.282492 
L 65.805023 11.282492 
z
" style="stroke: #ffffff; stroke-width: 2.980645"/>
    <path d="M 19.693519 14.829771 
Q 19.693519 14.294186 19.831684 13.772573 
Q 19.971402 13.25096 20.269466 12.833359 
Q 20.567531 12.415758 21.034809 12.162714 
Q 21.502087 11.90967 22.147894 11.90967 
Q 22.7937 11.90967 23.260978 12.162714 
Q 23.728257 12.415758 24.026321 12.833359 
Q 24.324386 13.25096 24.462551 13.772573 
Q 24.602269 14.294186 24.602269 14.829771 
Q 24.602269 15.366908 24.462551 15.888521 
Q 24.324386 16.410133 24.026321 16.827734 
Q 23.728257 17.243783 23.260978 17.498379 
Q 22.7937 17.751424 22.147894 17.751424 
Q 21.502087 17.751424 21.034809 17.498379 
Q 20.567531 17.243783 20.269466 16.827734 
Q 19.971402 16.410133 19.831684 15.888521 
Q 19.693519 15.366908 19.693519 14.829771 
z
M 18.749648 14.829771 
Q 18.749648 15.55475 18.962329 16.225396 
Q 19.176563 16.896041 19.603478 17.412996 
Q 20.031946 17.929952 20.666886 18.232674 
Q 21.303378 18.535396 22.147894 18.535396 
Q 22.99241 18.535396 23.627349 18.232674 
Q 24.263841 17.929952 24.690757 17.412996 
Q 25.119224 16.896041 25.331906 16.225396 
Q 25.54614 15.55475 25.54614 14.829771 
Q 25.54614 14.104791 25.331906 13.434146 
Q 25.119224 12.7635 24.690757 12.246545 
Q 24.263841 11.729589 23.627349 11.42221 
Q 22.99241 11.114831 22.147894 11.114831 
Q 21.303378 11.114831 20.666886 11.42221 
Q 20.031946 11.729589 19.603478 12.246545 
Q 19.176563 12.7635 18.962329 13.434146 
Q 18.749648 14.104791 18.749648 14.829771 
z
M 30.046602 14.890315 
L 30.920614 14.890315 
Q 30.870937 14.432351 30.681541 14.100133 
Q 30.493699 13.766363 30.200291 13.549025 
Q 29.906884 13.330133 29.524989 13.226121 
Q 29.143094 13.120557 28.705312 13.120557 
Q 28.099868 13.120557 27.641904 13.334791 
Q 27.185493 13.549025 26.881219 13.921605 
Q 26.578497 14.294186 26.429465 14.795617 
Q 26.280433 15.297049 26.280433 15.872996 
Q 26.280433 16.448944 26.434122 16.931746 
Q 26.589364 17.412996 26.892086 17.760738 
Q 27.194808 18.10848 27.646562 18.297875 
Q 28.099868 18.485718 28.68513 18.485718 
Q 29.669364 18.485718 30.240654 17.970315 
Q 30.811945 17.453359 30.95011 16.498621 
L 30.086965 16.498621 
Q 30.006239 17.09475 29.65384 17.423863 
Q 29.301441 17.751424 28.675816 17.751424 
Q 28.278396 17.751424 27.989646 17.593077 
Q 27.702449 17.433178 27.522368 17.170819 
Q 27.34384 16.906908 27.258457 16.570033 
Q 27.174626 16.231605 27.174626 15.872996 
Q 27.174626 15.486444 27.2538 15.123178 
Q 27.334525 14.759912 27.517711 14.482029 
Q 27.702449 14.204146 28.009828 14.034932 
Q 28.317207 13.865718 28.77517 13.865718 
Q 29.310755 13.865718 29.629001 14.134287 
Q 29.947247 14.402855 30.046602 14.890315 
z
M 33.067299 13.240093 
L 33.067299 11.700093 
L 32.222783 11.700093 
L 32.222783 13.240093 
L 31.348771 13.240093 
L 31.348771 13.985254 
L 32.222783 13.985254 
L 32.222783 17.25465 
Q 32.222783 17.611706 32.29109 17.830597 
Q 32.360948 18.049488 32.505323 18.169025 
Q 32.649698 18.287008 32.882561 18.332029 
Q 33.116977 18.377049 33.444537 18.377049 
L 34.090344 18.377049 
L 34.090344 17.631887 
L 33.702239 17.631887 
Q 33.503529 17.631887 33.379336 17.617916 
Q 33.255142 17.602392 33.185283 17.552714 
Q 33.116977 17.503037 33.092138 17.414549 
Q 33.067299 17.324508 33.067299 17.175476 
L 33.067299 13.985254 
L 34.090344 13.985254 
L 34.090344 13.240093 
L 33.067299 13.240093 
z
M 39.57504 18.356867 
Q 39.356149 18.485718 38.968044 18.485718 
Q 38.640483 18.485718 38.446431 18.302533 
Q 38.253931 18.119347 38.253931 17.701746 
Q 37.906189 18.119347 37.443568 18.302533 
Q 36.980947 18.485718 36.445362 18.485718 
Q 36.09762 18.485718 35.784032 18.406545 
Q 35.471995 18.327371 35.242237 18.158158 
Q 35.014032 17.988944 34.878971 17.715718 
Q 34.745463 17.442492 34.745463 17.05594 
Q 34.745463 16.618158 34.894495 16.340275 
Q 35.043528 16.062392 35.287257 15.888521 
Q 35.530987 15.71465 35.843024 15.626162 
Q 36.156612 15.536121 36.484173 15.475577 
Q 36.831915 15.405718 37.145503 15.371565 
Q 37.459092 15.337412 37.696612 15.27221 
Q 37.935685 15.207008 38.07385 15.082815 
Q 38.213568 14.958621 38.213568 14.721101 
Q 38.213568 14.443218 38.109556 14.274004 
Q 38.005544 14.104791 37.840987 14.016303 
Q 37.676431 13.926262 37.473064 13.896767 
Q 37.269697 13.865718 37.070987 13.865718 
Q 36.53385 13.865718 36.176794 14.070637 
Q 35.819737 14.274004 35.788689 14.840637 
L 34.944173 14.840637 
Q 34.964354 14.362492 35.142882 14.034932 
Q 35.322963 13.707371 35.621028 13.504004 
Q 35.919092 13.300637 36.300987 13.210597 
Q 36.682882 13.120557 37.120665 13.120557 
Q 37.468407 13.120557 37.811491 13.170234 
Q 38.154576 13.219912 38.432459 13.375154 
Q 38.710342 13.528843 38.879556 13.806726 
Q 39.048769 14.084609 39.048769 14.531706 
L 39.048769 17.175476 
Q 39.048769 17.473541 39.082923 17.613258 
Q 39.117076 17.751424 39.315786 17.751424 
Q 39.426007 17.751424 39.57504 17.701746 
L 39.57504 18.356867 
z
M 38.204253 15.723964 
Q 38.044354 15.8435 37.7851 15.897835 
Q 37.527399 15.95217 37.244858 15.987875 
Q 36.962318 16.022029 36.673568 16.067049 
Q 36.384818 16.112069 36.156612 16.211424 
Q 35.928407 16.310779 35.784032 16.495517 
Q 35.639657 16.678702 35.639657 16.995396 
Q 35.639657 17.204972 35.723487 17.349347 
Q 35.80887 17.49217 35.942378 17.58221 
Q 36.077439 17.67225 36.255967 17.712613 
Q 36.434495 17.751424 36.633205 17.751424 
Q 37.050806 17.751424 37.34887 17.638097 
Q 37.646935 17.523218 37.834778 17.349347 
Q 38.024173 17.175476 38.114213 16.972109 
Q 38.204253 16.76719 38.204253 16.588662 
L 38.204253 15.723964 
z
M 40.360253 11.282492 
L 40.360253 18.377049 
L 41.204769 18.377049 
L 41.204769 15.475577 
Q 41.204769 15.127835 41.297914 14.83598 
Q 41.392612 14.542573 41.580455 14.323682 
Q 41.76985 14.104791 42.05239 13.985254 
Q 42.336483 13.865718 42.724588 13.865718 
Q 43.210495 13.865718 43.488378 14.145154 
Q 43.767814 14.423037 43.767814 14.899629 
L 43.767814 18.377049 
L 44.61233 18.377049 
L 44.61233 14.998984 
Q 44.61233 14.581383 44.526947 14.239851 
Q 44.443116 13.896767 44.233539 13.648379 
Q 44.025515 13.399992 43.687088 13.260275 
Q 43.350213 13.120557 42.844124 13.120557 
Q 42.614366 13.120557 42.370636 13.170234 
Q 42.128459 13.219912 41.90491 13.325476 
Q 41.681362 13.429488 41.501281 13.594045 
Q 41.322753 13.757049 41.223398 13.996121 
L 41.204769 13.996121 
L 41.204769 11.282492 
L 40.360253 11.282492 
z
M 49.450288 15.31723 
L 46.499139 15.31723 
Q 46.519321 15.019166 46.62799 14.756807 
Q 46.738212 14.492896 46.926055 14.294186 
Q 47.11545 14.095476 47.377809 13.980597 
Q 47.64172 13.865718 47.970833 13.865718 
Q 48.287526 13.865718 48.551438 13.980597 
Q 48.815349 14.095476 49.007849 14.289529 
Q 49.201901 14.482029 49.315228 14.750597 
Q 49.430107 15.019166 49.450288 15.31723 
z
M 50.265309 16.747008 
L 49.430107 16.747008 
Q 49.321438 17.25465 48.978353 17.503037 
Q 48.635268 17.751424 48.099684 17.751424 
Q 47.682083 17.751424 47.373151 17.613258 
Q 47.065772 17.473541 46.867063 17.240678 
Q 46.668353 17.006262 46.578313 16.703541 
Q 46.489825 16.399267 46.499139 16.062392 
L 50.344482 16.062392 
Q 50.364663 15.595113 50.260651 15.078158 
Q 50.156639 14.561202 49.883413 14.124972 
Q 49.610188 13.68719 49.156881 13.40465 
Q 48.705127 13.120557 48.02051 13.120557 
Q 47.492688 13.120557 47.050248 13.319267 
Q 46.609361 13.517976 46.286458 13.876585 
Q 45.963555 14.233642 45.783474 14.721101 
Q 45.604946 15.207008 45.604946 15.793823 
Q 45.625127 16.380637 45.778817 16.877412 
Q 45.934059 17.374186 46.241438 17.731242 
Q 46.548817 18.088299 47.000571 18.287008 
Q 47.453877 18.485718 48.070188 18.485718 
Q 48.9442 18.485718 49.520147 18.049488 
Q 50.096095 17.611706 50.265309 16.747008 
z
M 51.834494 15.852815 
Q 51.834494 15.475577 51.913667 15.118521 
Q 51.994393 14.759912 52.172921 14.482029 
Q 52.351449 14.204146 52.649514 14.034932 
Q 52.947578 13.865718 53.374494 13.865718 
Q 53.812276 13.865718 54.119655 14.030275 
Q 54.428587 14.194831 54.621087 14.4634 
Q 54.815139 14.730416 54.905179 15.084367 
Q 54.99522 15.436767 54.99522 15.814004 
Q 54.99522 16.171061 54.909837 16.518803 
Q 54.826006 16.866545 54.636611 17.139771 
Q 54.448768 17.412996 54.150703 17.58221 
Q 53.852639 17.751424 53.424171 17.751424 
Q 53.017437 17.751424 52.714716 17.593077 
Q 52.411994 17.433178 52.217941 17.164609 
Q 52.023889 16.896041 51.929191 16.554508 
Q 51.834494 16.211424 51.834494 15.852815 
z
M 55.808687 18.377049 
L 55.808687 11.282492 
L 54.964171 11.282492 
L 54.964171 13.926262 
L 54.945542 13.926262 
Q 54.805824 13.698057 54.602457 13.544367 
Q 54.399091 13.389125 54.169332 13.29598 
Q 53.941127 13.201283 53.712921 13.16092 
Q 53.484716 13.120557 53.286006 13.120557 
Q 52.699191 13.120557 52.256752 13.334791 
Q 51.815865 13.549025 51.522457 13.912291 
Q 51.22905 14.274004 51.084675 14.761464 
Q 50.9403 15.247371 50.9403 15.793823 
Q 50.9403 16.340275 51.089332 16.827734 
Q 51.238365 17.313642 51.531772 17.681565 
Q 51.825179 18.049488 52.267619 18.268379 
Q 52.710058 18.485718 53.306187 18.485718 
Q 53.841772 18.485718 54.288869 18.297875 
Q 54.735966 18.10848 54.945542 17.681565 
L 54.964171 17.681565 
L 54.964171 18.377049 
L 55.808687 18.377049 
z
M 57.080428 13.240093 
L 57.080428 18.377049 
L 57.924944 18.377049 
L 57.924944 16.091887 
Q 57.924944 15.595113 58.024299 15.213218 
Q 58.123654 14.829771 58.342545 14.562754 
Q 58.561436 14.294186 58.918493 14.154468 
Q 59.277101 14.01475 59.78319 14.01475 
L 59.78319 13.120557 
Q 59.098573 13.101928 58.651476 13.399992 
Q 58.20438 13.698057 57.895448 14.323682 
L 57.875267 14.323682 
L 57.875267 13.240093 
L 57.080428 13.240093 
z
M 64.970132 18.356867 
Q 64.751241 18.485718 64.363137 18.485718 
Q 64.035576 18.485718 63.841524 18.302533 
Q 63.649024 18.119347 63.649024 17.701746 
Q 63.301282 18.119347 62.838661 18.302533 
Q 62.37604 18.485718 61.840455 18.485718 
Q 61.492713 18.485718 61.179124 18.406545 
Q 60.867088 18.327371 60.63733 18.158158 
Q 60.409124 17.988944 60.274064 17.715718 
Q 60.140556 17.442492 60.140556 17.05594 
Q 60.140556 16.618158 60.289588 16.340275 
Q 60.43862 16.062392 60.68235 15.888521 
Q 60.92608 15.71465 61.238116 15.626162 
Q 61.551705 15.536121 61.879266 15.475577 
Q 62.227007 15.405718 62.540596 15.371565 
Q 62.854185 15.337412 63.091705 15.27221 
Q 63.330778 15.207008 63.468943 15.082815 
Q 63.608661 14.958621 63.608661 14.721101 
Q 63.608661 14.443218 63.504649 14.274004 
Q 63.400637 14.104791 63.23608 14.016303 
Q 63.071524 13.926262 62.868157 13.896767 
Q 62.66479 13.865718 62.46608 13.865718 
Q 61.928943 13.865718 61.571887 14.070637 
Q 61.21483 14.274004 61.183782 14.840637 
L 60.339266 14.840637 
Q 60.359447 14.362492 60.537975 14.034932 
Q 60.718056 13.707371 61.01612 13.504004 
Q 61.314185 13.300637 61.69608 13.210597 
Q 62.077975 13.120557 62.515757 13.120557 
Q 62.863499 13.120557 63.206584 13.170234 
Q 63.549669 13.219912 63.827552 13.375154 
Q 64.105435 13.528843 64.274649 13.806726 
Q 64.443862 14.084609 64.443862 14.531706 
L 64.443862 17.175476 
Q 64.443862 17.473541 64.478016 17.613258 
Q 64.512169 17.751424 64.710878 17.751424 
Q 64.8211 17.751424 64.970132 17.701746 
L 64.970132 18.356867 
z
M 63.599346 15.723964 
Q 63.439447 15.8435 63.180193 15.897835 
Q 62.922491 15.95217 62.639951 15.987875 
Q 62.357411 16.022029 62.068661 16.067049 
Q 61.779911 16.112069 61.551705 16.211424 
Q 61.323499 16.310779 61.179124 16.495517 
Q 61.034749 16.678702 61.034749 16.995396 
Q 61.034749 17.204972 61.11858 17.349347 
Q 61.203963 17.49217 61.337471 17.58221 
Q 61.472532 17.67225 61.65106 17.712613 
Q 61.829588 17.751424 62.028298 17.751424 
Q 62.445899 17.751424 62.743963 17.638097 
Q 63.042028 17.523218 63.22987 17.349347 
Q 63.419266 17.175476 63.509306 16.972109 
Q 63.599346 16.76719 63.599346 16.588662 
L 63.599346 15.723964 
z
M 65.805023 11.282492 
L 65.805023 18.377049 
L 66.649539 18.377049 
L 66.649539 11.282492 
L 65.805023 11.282492 
z
"/>
   </g>
   <g id="text_2">
    <path d="M 20.756926 24.496686 
L 20.756926 30.796404 
L 21.700797 30.796404 
L 21.700797 24.496686 
L 24.065132 24.496686 
L 24.065132 23.701847 
L 18.392591 23.701847 
L 18.392591 24.496686 
L 20.756926 24.496686 
z
M 27.172454 27.736585 
L 24.221304 27.736585 
Q 24.241486 27.438521 24.350155 27.176162 
Q 24.460377 26.91225 24.64822 26.713541 
Q 24.837615 26.514831 25.099974 26.399952 
Q 25.363885 26.285073 25.692998 26.285073 
Q 26.009692 26.285073 26.273603 26.399952 
Q 26.537514 26.514831 26.730014 26.708883 
Q 26.924067 26.901383 27.037393 27.169952 
Q 27.152272 27.438521 27.172454 27.736585 
z
M 27.987474 29.166363 
L 27.152272 29.166363 
Q 27.043603 29.674004 26.700518 29.922392 
Q 26.357434 30.170779 25.821849 30.170779 
Q 25.404248 30.170779 25.095317 30.032613 
Q 24.787938 29.892896 24.589228 29.660033 
Q 24.390518 29.425617 24.300478 29.122896 
Q 24.21199 28.818621 24.221304 28.481746 
L 28.066647 28.481746 
Q 28.086829 28.014468 27.982817 27.497512 
Q 27.878804 26.980557 27.605579 26.544327 
Q 27.332353 26.106545 26.879046 25.824004 
Q 26.427292 25.539912 25.742675 25.539912 
Q 25.214853 25.539912 24.772413 25.738621 
Q 24.331526 25.937331 24.008623 26.29594 
Q 23.68572 26.652996 23.505639 27.140456 
Q 23.327111 27.626363 23.327111 28.213178 
Q 23.347292 28.799992 23.500982 29.296767 
Q 23.656224 29.793541 23.963603 30.150597 
Q 24.270982 30.507654 24.722736 30.706363 
Q 25.176042 30.905073 25.792353 30.905073 
Q 26.666365 30.905073 27.242313 30.468843 
Q 27.81826 30.031061 27.987474 29.166363 
z
M 30.113978 25.659448 
L 30.113978 24.119448 
L 29.269461 24.119448 
L 29.269461 25.659448 
L 28.395449 25.659448 
L 28.395449 26.404609 
L 29.269461 26.404609 
L 29.269461 29.674004 
Q 29.269461 30.031061 29.337768 30.249952 
Q 29.407627 30.468843 29.552002 30.588379 
Q 29.696377 30.706363 29.92924 30.751383 
Q 30.163655 30.796404 30.491215 30.796404 
L 31.137022 30.796404 
L 31.137022 30.051242 
L 30.748917 30.051242 
Q 30.550207 30.051242 30.426014 30.037271 
Q 30.30182 30.021746 30.231961 29.972069 
Q 30.163655 29.922392 30.138816 29.833904 
Q 30.113978 29.743863 30.113978 29.594831 
L 30.113978 26.404609 
L 31.137022 26.404609 
L 31.137022 25.659448 
L 30.113978 25.659448 
z
M 32.040528 25.659448 
L 32.040528 30.796404 
L 32.885045 30.796404 
L 32.885045 28.511242 
Q 32.885045 28.014468 32.984399 27.632573 
Q 33.083754 27.249125 33.302645 26.982109 
Q 33.521537 26.713541 33.878593 26.573823 
Q 34.237202 26.434105 34.743291 26.434105 
L 34.743291 25.539912 
Q 34.058674 25.521283 33.611577 25.819347 
Q 33.16448 26.117412 32.855549 26.743037 
L 32.835367 26.743037 
L 32.835367 25.659448 
L 32.040528 25.659448 
z
M 39.930233 30.776222 
Q 39.711342 30.905073 39.323237 30.905073 
Q 38.995676 30.905073 38.801624 30.721887 
Q 38.609124 30.538702 38.609124 30.121101 
Q 38.261382 30.538702 37.798761 30.721887 
Q 37.33614 30.905073 36.800555 30.905073 
Q 36.452814 30.905073 36.139225 30.8259 
Q 35.827189 30.746726 35.59743 30.577512 
Q 35.369225 30.408299 35.234164 30.135073 
Q 35.100656 29.861847 35.100656 29.475295 
Q 35.100656 29.037512 35.249689 28.759629 
Q 35.398721 28.481746 35.642451 28.307875 
Q 35.88618 28.134004 36.198217 28.045517 
Q 36.511805 27.955476 36.839366 27.894932 
Q 37.187108 27.825073 37.500697 27.79092 
Q 37.814285 27.756767 38.051805 27.691565 
Q 38.290878 27.626363 38.429043 27.50217 
Q 38.568761 27.377976 38.568761 27.140456 
Q 38.568761 26.862573 38.464749 26.693359 
Q 38.360737 26.524146 38.19618 26.435658 
Q 38.031624 26.345617 37.828257 26.316121 
Q 37.62489 26.285073 37.42618 26.285073 
Q 36.889043 26.285073 36.531987 26.489992 
Q 36.17493 26.693359 36.143882 27.259992 
L 35.299366 27.259992 
Q 35.319547 26.781847 35.498076 26.454287 
Q 35.678156 26.126726 35.976221 25.923359 
Q 36.274285 25.719992 36.65618 25.629952 
Q 37.038076 25.539912 37.475858 25.539912 
Q 37.8236 25.539912 38.166685 25.589589 
Q 38.509769 25.639267 38.787652 25.794508 
Q 39.065535 25.948198 39.234749 26.226081 
Q 39.403963 26.503964 39.403963 26.951061 
L 39.403963 29.594831 
Q 39.403963 29.892896 39.438116 30.032613 
Q 39.472269 30.170779 39.670979 30.170779 
Q 39.781201 30.170779 39.930233 30.121101 
L 39.930233 30.776222 
z
M 38.559447 28.143319 
Q 38.399547 28.262855 38.140293 28.31719 
Q 37.882592 28.371525 37.600051 28.40723 
Q 37.317511 28.441383 37.028761 28.486404 
Q 36.740011 28.531424 36.511805 28.630779 
Q 36.2836 28.730133 36.139225 28.914871 
Q 35.99485 29.098057 35.99485 29.41475 
Q 35.99485 29.624327 36.07868 29.768702 
Q 36.164064 29.911525 36.297572 30.001565 
Q 36.432632 30.091605 36.61116 30.131968 
Q 36.789689 30.170779 36.988398 30.170779 
Q 37.405999 30.170779 37.704064 30.057452 
Q 38.002128 29.942573 38.189971 29.768702 
Q 38.379366 29.594831 38.469406 29.391464 
Q 38.559447 29.186545 38.559447 29.008017 
L 38.559447 28.143319 
z
M 40.715446 23.701847 
L 40.715446 30.796404 
L 41.559962 30.796404 
L 41.559962 27.894932 
Q 41.559962 27.54719 41.653108 27.255335 
Q 41.747805 26.961928 41.935648 26.743037 
Q 42.125043 26.524146 42.407583 26.404609 
Q 42.691676 26.285073 43.079781 26.285073 
Q 43.565688 26.285073 43.843571 26.564508 
Q 44.123007 26.842392 44.123007 27.318984 
L 44.123007 30.796404 
L 44.967523 30.796404 
L 44.967523 27.418339 
Q 44.967523 27.000738 44.88214 26.659206 
Q 44.798309 26.316121 44.588733 26.067734 
Q 44.380708 25.819347 44.042281 25.679629 
Q 43.705406 25.539912 43.199317 25.539912 
Q 42.969559 25.539912 42.725829 25.589589 
Q 42.483652 25.639267 42.260104 25.744831 
Q 42.036555 25.848843 41.856475 26.0134 
Q 41.677946 26.176404 41.578591 26.415476 
L 41.559962 26.415476 
L 41.559962 23.701847 
L 40.715446 23.701847 
z
M 49.805482 27.736585 
L 46.854332 27.736585 
Q 46.874514 27.438521 46.983183 27.176162 
Q 47.093405 26.91225 47.281248 26.713541 
Q 47.470643 26.514831 47.733002 26.399952 
Q 47.996913 26.285073 48.326026 26.285073 
Q 48.64272 26.285073 48.906631 26.399952 
Q 49.170542 26.514831 49.363042 26.708883 
Q 49.557095 26.901383 49.670421 27.169952 
Q 49.7853 27.438521 49.805482 27.736585 
z
M 50.620502 29.166363 
L 49.7853 29.166363 
Q 49.676631 29.674004 49.333546 29.922392 
Q 48.990462 30.170779 48.454877 30.170779 
Q 48.037276 30.170779 47.728345 30.032613 
Q 47.420966 29.892896 47.222256 29.660033 
Q 47.023546 29.425617 46.933506 29.122896 
Q 46.845018 28.818621 46.854332 28.481746 
L 50.699675 28.481746 
Q 50.719857 28.014468 50.615845 27.497512 
Q 50.511832 26.980557 50.238607 26.544327 
Q 49.965381 26.106545 49.512074 25.824004 
Q 49.06032 25.539912 48.375703 25.539912 
Q 47.847881 25.539912 47.405441 25.738621 
Q 46.964554 25.937331 46.641651 26.29594 
Q 46.318748 26.652996 46.138667 27.140456 
Q 45.960139 27.626363 45.960139 28.213178 
Q 45.98032 28.799992 46.13401 29.296767 
Q 46.289252 29.793541 46.596631 30.150597 
Q 46.90401 30.507654 47.355764 30.706363 
Q 47.80907 30.905073 48.425381 30.905073 
Q 49.299393 30.905073 49.875341 30.468843 
Q 50.451288 30.031061 50.620502 29.166363 
z
M 52.189687 28.27217 
Q 52.189687 27.894932 52.26886 27.537875 
Q 52.349586 27.179267 52.528114 26.901383 
Q 52.706643 26.6235 53.004707 26.454287 
Q 53.302772 26.285073 53.729687 26.285073 
Q 54.167469 26.285073 54.474848 26.449629 
Q 54.78378 26.614186 54.97628 26.882754 
Q 55.170332 27.149771 55.260373 27.503722 
Q 55.350413 27.856121 55.350413 28.233359 
Q 55.350413 28.590416 55.26503 28.938158 
Q 55.181199 29.2859 54.991804 29.559125 
Q 54.803961 29.832351 54.505897 30.001565 
Q 54.207832 30.170779 53.779364 30.170779 
Q 53.372631 30.170779 53.069909 30.012432 
Q 52.767187 29.852533 52.573135 29.583964 
Q 52.379082 29.315396 52.284385 28.973863 
Q 52.189687 28.630779 52.189687 28.27217 
z
M 56.163881 30.796404 
L 56.163881 23.701847 
L 55.319364 23.701847 
L 55.319364 26.345617 
L 55.300735 26.345617 
Q 55.161018 26.117412 54.957651 25.963722 
Q 54.754284 25.80848 54.524526 25.715335 
Q 54.29632 25.620637 54.068114 25.580275 
Q 53.839909 25.539912 53.641199 25.539912 
Q 53.054385 25.539912 52.611945 25.754146 
Q 52.171058 25.968379 51.877651 26.331646 
Q 51.584243 26.693359 51.439868 27.180819 
Q 51.295493 27.666726 51.295493 28.213178 
Q 51.295493 28.759629 51.444526 29.247089 
Q 51.593558 29.732996 51.886965 30.10092 
Q 52.180373 30.468843 52.622812 30.687734 
Q 53.065252 30.905073 53.661381 30.905073 
Q 54.196965 30.905073 54.644062 30.71723 
Q 55.091159 30.527835 55.300735 30.10092 
L 55.319364 30.10092 
L 55.319364 30.796404 
L 56.163881 30.796404 
z
M 57.435621 25.659448 
L 57.435621 30.796404 
L 58.280137 30.796404 
L 58.280137 28.511242 
Q 58.280137 28.014468 58.379492 27.632573 
Q 58.478847 27.249125 58.697738 26.982109 
Q 58.916629 26.713541 59.273686 26.573823 
Q 59.632295 26.434105 60.138383 26.434105 
L 60.138383 25.539912 
Q 59.453766 25.521283 59.00667 25.819347 
Q 58.559573 26.117412 58.250641 26.743037 
L 58.23046 26.743037 
L 58.23046 25.659448 
L 57.435621 25.659448 
z
M 65.325326 30.776222 
Q 65.106435 30.905073 64.71833 30.905073 
Q 64.390769 30.905073 64.196717 30.721887 
Q 64.004217 30.538702 64.004217 30.121101 
Q 63.656475 30.538702 63.193854 30.721887 
Q 62.731233 30.905073 62.195648 30.905073 
Q 61.847906 30.905073 61.534318 30.8259 
Q 61.222281 30.746726 60.992523 30.577512 
Q 60.764318 30.408299 60.629257 30.135073 
Q 60.495749 29.861847 60.495749 29.475295 
Q 60.495749 29.037512 60.644781 28.759629 
Q 60.793814 28.481746 61.037543 28.307875 
Q 61.281273 28.134004 61.59331 28.045517 
Q 61.906898 27.955476 62.234459 27.894932 
Q 62.582201 27.825073 62.895789 27.79092 
Q 63.209378 27.756767 63.446898 27.691565 
Q 63.685971 27.626363 63.824136 27.50217 
Q 63.963854 27.377976 63.963854 27.140456 
Q 63.963854 26.862573 63.859842 26.693359 
Q 63.75583 26.524146 63.591273 26.435658 
Q 63.426717 26.345617 63.22335 26.316121 
Q 63.019983 26.285073 62.821273 26.285073 
Q 62.284136 26.285073 61.92708 26.489992 
Q 61.570023 26.693359 61.538975 27.259992 
L 60.694459 27.259992 
Q 60.71464 26.781847 60.893168 26.454287 
Q 61.073249 26.126726 61.371314 25.923359 
Q 61.669378 25.719992 62.051273 25.629952 
Q 62.433168 25.539912 62.870951 25.539912 
Q 63.218693 25.539912 63.561777 25.589589 
Q 63.904862 25.639267 64.182745 25.794508 
Q 64.460628 25.948198 64.629842 26.226081 
Q 64.799056 26.503964 64.799056 26.951061 
L 64.799056 29.594831 
Q 64.799056 29.892896 64.833209 30.032613 
Q 64.867362 30.170779 65.066072 30.170779 
Q 65.176293 30.170779 65.325326 30.121101 
L 65.325326 30.776222 
z
M 63.954539 28.143319 
Q 63.79464 28.262855 63.535386 28.31719 
Q 63.277685 28.371525 62.995144 28.40723 
Q 62.712604 28.441383 62.423854 28.486404 
Q 62.135104 28.531424 61.906898 28.630779 
Q 61.678693 28.730133 61.534318 28.914871 
Q 61.389943 29.098057 61.389943 29.41475 
Q 61.389943 29.624327 61.473773 29.768702 
Q 61.559156 29.911525 61.692664 30.001565 
Q 61.827725 30.091605 62.006253 30.131968 
Q 62.184781 30.170779 62.383491 30.170779 
Q 62.801092 30.170779 63.099156 30.057452 
Q 63.397221 29.942573 63.585064 29.768702 
Q 63.774459 29.594831 63.864499 29.391464 
Q 63.954539 29.186545 63.954539 29.008017 
L 63.954539 28.143319 
z
M 66.160217 23.701847 
L 66.160217 30.796404 
L 67.004733 30.796404 
L 67.004733 23.701847 
L 66.160217 23.701847 
z
" style="stroke: #ffffff; stroke-width: 2.980645"/>
    <path d="M 20.756926 24.496686 
L 20.756926 30.796404 
L 21.700797 30.796404 
L 21.700797 24.496686 
L 24.065132 24.496686 
L 24.065132 23.701847 
L 18.392591 23.701847 
L 18.392591 24.496686 
L 20.756926 24.496686 
z
M 27.172454 27.736585 
L 24.221304 27.736585 
Q 24.241486 27.438521 24.350155 27.176162 
Q 24.460377 26.91225 24.64822 26.713541 
Q 24.837615 26.514831 25.099974 26.399952 
Q 25.363885 26.285073 25.692998 26.285073 
Q 26.009692 26.285073 26.273603 26.399952 
Q 26.537514 26.514831 26.730014 26.708883 
Q 26.924067 26.901383 27.037393 27.169952 
Q 27.152272 27.438521 27.172454 27.736585 
z
M 27.987474 29.166363 
L 27.152272 29.166363 
Q 27.043603 29.674004 26.700518 29.922392 
Q 26.357434 30.170779 25.821849 30.170779 
Q 25.404248 30.170779 25.095317 30.032613 
Q 24.787938 29.892896 24.589228 29.660033 
Q 24.390518 29.425617 24.300478 29.122896 
Q 24.21199 28.818621 24.221304 28.481746 
L 28.066647 28.481746 
Q 28.086829 28.014468 27.982817 27.497512 
Q 27.878804 26.980557 27.605579 26.544327 
Q 27.332353 26.106545 26.879046 25.824004 
Q 26.427292 25.539912 25.742675 25.539912 
Q 25.214853 25.539912 24.772413 25.738621 
Q 24.331526 25.937331 24.008623 26.29594 
Q 23.68572 26.652996 23.505639 27.140456 
Q 23.327111 27.626363 23.327111 28.213178 
Q 23.347292 28.799992 23.500982 29.296767 
Q 23.656224 29.793541 23.963603 30.150597 
Q 24.270982 30.507654 24.722736 30.706363 
Q 25.176042 30.905073 25.792353 30.905073 
Q 26.666365 30.905073 27.242313 30.468843 
Q 27.81826 30.031061 27.987474 29.166363 
z
M 30.113978 25.659448 
L 30.113978 24.119448 
L 29.269461 24.119448 
L 29.269461 25.659448 
L 28.395449 25.659448 
L 28.395449 26.404609 
L 29.269461 26.404609 
L 29.269461 29.674004 
Q 29.269461 30.031061 29.337768 30.249952 
Q 29.407627 30.468843 29.552002 30.588379 
Q 29.696377 30.706363 29.92924 30.751383 
Q 30.163655 30.796404 30.491215 30.796404 
L 31.137022 30.796404 
L 31.137022 30.051242 
L 30.748917 30.051242 
Q 30.550207 30.051242 30.426014 30.037271 
Q 30.30182 30.021746 30.231961 29.972069 
Q 30.163655 29.922392 30.138816 29.833904 
Q 30.113978 29.743863 30.113978 29.594831 
L 30.113978 26.404609 
L 31.137022 26.404609 
L 31.137022 25.659448 
L 30.113978 25.659448 
z
M 32.040528 25.659448 
L 32.040528 30.796404 
L 32.885045 30.796404 
L 32.885045 28.511242 
Q 32.885045 28.014468 32.984399 27.632573 
Q 33.083754 27.249125 33.302645 26.982109 
Q 33.521537 26.713541 33.878593 26.573823 
Q 34.237202 26.434105 34.743291 26.434105 
L 34.743291 25.539912 
Q 34.058674 25.521283 33.611577 25.819347 
Q 33.16448 26.117412 32.855549 26.743037 
L 32.835367 26.743037 
L 32.835367 25.659448 
L 32.040528 25.659448 
z
M 39.930233 30.776222 
Q 39.711342 30.905073 39.323237 30.905073 
Q 38.995676 30.905073 38.801624 30.721887 
Q 38.609124 30.538702 38.609124 30.121101 
Q 38.261382 30.538702 37.798761 30.721887 
Q 37.33614 30.905073 36.800555 30.905073 
Q 36.452814 30.905073 36.139225 30.8259 
Q 35.827189 30.746726 35.59743 30.577512 
Q 35.369225 30.408299 35.234164 30.135073 
Q 35.100656 29.861847 35.100656 29.475295 
Q 35.100656 29.037512 35.249689 28.759629 
Q 35.398721 28.481746 35.642451 28.307875 
Q 35.88618 28.134004 36.198217 28.045517 
Q 36.511805 27.955476 36.839366 27.894932 
Q 37.187108 27.825073 37.500697 27.79092 
Q 37.814285 27.756767 38.051805 27.691565 
Q 38.290878 27.626363 38.429043 27.50217 
Q 38.568761 27.377976 38.568761 27.140456 
Q 38.568761 26.862573 38.464749 26.693359 
Q 38.360737 26.524146 38.19618 26.435658 
Q 38.031624 26.345617 37.828257 26.316121 
Q 37.62489 26.285073 37.42618 26.285073 
Q 36.889043 26.285073 36.531987 26.489992 
Q 36.17493 26.693359 36.143882 27.259992 
L 35.299366 27.259992 
Q 35.319547 26.781847 35.498076 26.454287 
Q 35.678156 26.126726 35.976221 25.923359 
Q 36.274285 25.719992 36.65618 25.629952 
Q 37.038076 25.539912 37.475858 25.539912 
Q 37.8236 25.539912 38.166685 25.589589 
Q 38.509769 25.639267 38.787652 25.794508 
Q 39.065535 25.948198 39.234749 26.226081 
Q 39.403963 26.503964 39.403963 26.951061 
L 39.403963 29.594831 
Q 39.403963 29.892896 39.438116 30.032613 
Q 39.472269 30.170779 39.670979 30.170779 
Q 39.781201 30.170779 39.930233 30.121101 
L 39.930233 30.776222 
z
M 38.559447 28.143319 
Q 38.399547 28.262855 38.140293 28.31719 
Q 37.882592 28.371525 37.600051 28.40723 
Q 37.317511 28.441383 37.028761 28.486404 
Q 36.740011 28.531424 36.511805 28.630779 
Q 36.2836 28.730133 36.139225 28.914871 
Q 35.99485 29.098057 35.99485 29.41475 
Q 35.99485 29.624327 36.07868 29.768702 
Q 36.164064 29.911525 36.297572 30.001565 
Q 36.432632 30.091605 36.61116 30.131968 
Q 36.789689 30.170779 36.988398 30.170779 
Q 37.405999 30.170779 37.704064 30.057452 
Q 38.002128 29.942573 38.189971 29.768702 
Q 38.379366 29.594831 38.469406 29.391464 
Q 38.559447 29.186545 38.559447 29.008017 
L 38.559447 28.143319 
z
M 40.715446 23.701847 
L 40.715446 30.796404 
L 41.559962 30.796404 
L 41.559962 27.894932 
Q 41.559962 27.54719 41.653108 27.255335 
Q 41.747805 26.961928 41.935648 26.743037 
Q 42.125043 26.524146 42.407583 26.404609 
Q 42.691676 26.285073 43.079781 26.285073 
Q 43.565688 26.285073 43.843571 26.564508 
Q 44.123007 26.842392 44.123007 27.318984 
L 44.123007 30.796404 
L 44.967523 30.796404 
L 44.967523 27.418339 
Q 44.967523 27.000738 44.88214 26.659206 
Q 44.798309 26.316121 44.588733 26.067734 
Q 44.380708 25.819347 44.042281 25.679629 
Q 43.705406 25.539912 43.199317 25.539912 
Q 42.969559 25.539912 42.725829 25.589589 
Q 42.483652 25.639267 42.260104 25.744831 
Q 42.036555 25.848843 41.856475 26.0134 
Q 41.677946 26.176404 41.578591 26.415476 
L 41.559962 26.415476 
L 41.559962 23.701847 
L 40.715446 23.701847 
z
M 49.805482 27.736585 
L 46.854332 27.736585 
Q 46.874514 27.438521 46.983183 27.176162 
Q 47.093405 26.91225 47.281248 26.713541 
Q 47.470643 26.514831 47.733002 26.399952 
Q 47.996913 26.285073 48.326026 26.285073 
Q 48.64272 26.285073 48.906631 26.399952 
Q 49.170542 26.514831 49.363042 26.708883 
Q 49.557095 26.901383 49.670421 27.169952 
Q 49.7853 27.438521 49.805482 27.736585 
z
M 50.620502 29.166363 
L 49.7853 29.166363 
Q 49.676631 29.674004 49.333546 29.922392 
Q 48.990462 30.170779 48.454877 30.170779 
Q 48.037276 30.170779 47.728345 30.032613 
Q 47.420966 29.892896 47.222256 29.660033 
Q 47.023546 29.425617 46.933506 29.122896 
Q 46.845018 28.818621 46.854332 28.481746 
L 50.699675 28.481746 
Q 50.719857 28.014468 50.615845 27.497512 
Q 50.511832 26.980557 50.238607 26.544327 
Q 49.965381 26.106545 49.512074 25.824004 
Q 49.06032 25.539912 48.375703 25.539912 
Q 47.847881 25.539912 47.405441 25.738621 
Q 46.964554 25.937331 46.641651 26.29594 
Q 46.318748 26.652996 46.138667 27.140456 
Q 45.960139 27.626363 45.960139 28.213178 
Q 45.98032 28.799992 46.13401 29.296767 
Q 46.289252 29.793541 46.596631 30.150597 
Q 46.90401 30.507654 47.355764 30.706363 
Q 47.80907 30.905073 48.425381 30.905073 
Q 49.299393 30.905073 49.875341 30.468843 
Q 50.451288 30.031061 50.620502 29.166363 
z
M 52.189687 28.27217 
Q 52.189687 27.894932 52.26886 27.537875 
Q 52.349586 27.179267 52.528114 26.901383 
Q 52.706643 26.6235 53.004707 26.454287 
Q 53.302772 26.285073 53.729687 26.285073 
Q 54.167469 26.285073 54.474848 26.449629 
Q 54.78378 26.614186 54.97628 26.882754 
Q 55.170332 27.149771 55.260373 27.503722 
Q 55.350413 27.856121 55.350413 28.233359 
Q 55.350413 28.590416 55.26503 28.938158 
Q 55.181199 29.2859 54.991804 29.559125 
Q 54.803961 29.832351 54.505897 30.001565 
Q 54.207832 30.170779 53.779364 30.170779 
Q 53.372631 30.170779 53.069909 30.012432 
Q 52.767187 29.852533 52.573135 29.583964 
Q 52.379082 29.315396 52.284385 28.973863 
Q 52.189687 28.630779 52.189687 28.27217 
z
M 56.163881 30.796404 
L 56.163881 23.701847 
L 55.319364 23.701847 
L 55.319364 26.345617 
L 55.300735 26.345617 
Q 55.161018 26.117412 54.957651 25.963722 
Q 54.754284 25.80848 54.524526 25.715335 
Q 54.29632 25.620637 54.068114 25.580275 
Q 53.839909 25.539912 53.641199 25.539912 
Q 53.054385 25.539912 52.611945 25.754146 
Q 52.171058 25.968379 51.877651 26.331646 
Q 51.584243 26.693359 51.439868 27.180819 
Q 51.295493 27.666726 51.295493 28.213178 
Q 51.295493 28.759629 51.444526 29.247089 
Q 51.593558 29.732996 51.886965 30.10092 
Q 52.180373 30.468843 52.622812 30.687734 
Q 53.065252 30.905073 53.661381 30.905073 
Q 54.196965 30.905073 54.644062 30.71723 
Q 55.091159 30.527835 55.300735 30.10092 
L 55.319364 30.10092 
L 55.319364 30.796404 
L 56.163881 30.796404 
z
M 57.435621 25.659448 
L 57.435621 30.796404 
L 58.280137 30.796404 
L 58.280137 28.511242 
Q 58.280137 28.014468 58.379492 27.632573 
Q 58.478847 27.249125 58.697738 26.982109 
Q 58.916629 26.713541 59.273686 26.573823 
Q 59.632295 26.434105 60.138383 26.434105 
L 60.138383 25.539912 
Q 59.453766 25.521283 59.00667 25.819347 
Q 58.559573 26.117412 58.250641 26.743037 
L 58.23046 26.743037 
L 58.23046 25.659448 
L 57.435621 25.659448 
z
M 65.325326 30.776222 
Q 65.106435 30.905073 64.71833 30.905073 
Q 64.390769 30.905073 64.196717 30.721887 
Q 64.004217 30.538702 64.004217 30.121101 
Q 63.656475 30.538702 63.193854 30.721887 
Q 62.731233 30.905073 62.195648 30.905073 
Q 61.847906 30.905073 61.534318 30.8259 
Q 61.222281 30.746726 60.992523 30.577512 
Q 60.764318 30.408299 60.629257 30.135073 
Q 60.495749 29.861847 60.495749 29.475295 
Q 60.495749 29.037512 60.644781 28.759629 
Q 60.793814 28.481746 61.037543 28.307875 
Q 61.281273 28.134004 61.59331 28.045517 
Q 61.906898 27.955476 62.234459 27.894932 
Q 62.582201 27.825073 62.895789 27.79092 
Q 63.209378 27.756767 63.446898 27.691565 
Q 63.685971 27.626363 63.824136 27.50217 
Q 63.963854 27.377976 63.963854 27.140456 
Q 63.963854 26.862573 63.859842 26.693359 
Q 63.75583 26.524146 63.591273 26.435658 
Q 63.426717 26.345617 63.22335 26.316121 
Q 63.019983 26.285073 62.821273 26.285073 
Q 62.284136 26.285073 61.92708 26.489992 
Q 61.570023 26.693359 61.538975 27.259992 
L 60.694459 27.259992 
Q 60.71464 26.781847 60.893168 26.454287 
Q 61.073249 26.126726 61.371314 25.923359 
Q 61.669378 25.719992 62.051273 25.629952 
Q 62.433168 25.539912 62.870951 25.539912 
Q 63.218693 25.539912 63.561777 25.589589 
Q 63.904862 25.639267 64.182745 25.794508 
Q 64.460628 25.948198 64.629842 26.226081 
Q 64.799056 26.503964 64.799056 26.951061 
L 64.799056 29.594831 
Q 64.799056 29.892896 64.833209 30.032613 
Q 64.867362 30.170779 65.066072 30.170779 
Q 65.176293 30.170779 65.325326 30.121101 
L 65.325326 30.776222 
z
M 63.954539 28.143319 
Q 63.79464 28.262855 63.535386 28.31719 
Q 63.277685 28.371525 62.995144 28.40723 
Q 62.712604 28.441383 62.423854 28.486404 
Q 62.135104 28.531424 61.906898 28.630779 
Q 61.678693 28.730133 61.534318 28.914871 
Q 61.389943 29.098057 61.389943 29.41475 
Q 61.389943 29.624327 61.473773 29.768702 
Q 61.559156 29.911525 61.692664 30.001565 
Q 61.827725 30.091605 62.006253 30.131968 
Q 62.184781 30.170779 62.383491 30.170779 
Q 62.801092 30.170779 63.099156 30.057452 
Q 63.397221 29.942573 63.585064 29.768702 
Q 63.774459 29.594831 63.864499 29.391464 
Q 63.954539 29.186545 63.954539 29.008017 
L 63.954539 28.143319 
z
M 66.160217 23.701847 
L 66.160217 30.796404 
L 67.004733 30.796404 
L 67.004733 23.701847 
L 66.160217 23.701847 
z
"/>
   </g>
  </g>
 </g>
 <defs>
  <clipPath id="p19621858f1">
   <rect x="-191.723332" y="-167.858784" width="221.76" height="221.76"/>
  </clipPath>
 </defs>
</svg>
