<?xml version="1.0" encoding="utf-8" standalone="no"?>
<!DOCTYPE svg PUBLIC "-//W3C//DTD SVG 1.1//EN"
  "http://www.w3.org/Graphics/SVG/1.1/DTD/svg11.dtd">
<svg xmlns:xlink="http://www.w3.org/1999/xlink" width="54pt" height="97.2pt" viewBox="0 0 54 97.2" xmlns="http://www.w3.org/2000/svg" version="1.1">
 <metadata>
  <rdf:RDF xmlns:dc="http://purl.org/dc/elements/1.1/" xmlns:cc="http://creativecommons.org/ns#" xmlns:rdf="http://www.w3.org/1999/02/22-rdf-syntax-ns#">
   <cc:Work>
    <dc:type rdf:resource="http://purl.org/dc/dcmitype/StillImage"/>
    <dc:date>2026-02-24T19:37:05.234476</dc:date>
    <dc:format>image/svg+xml</dc:format>
    <dc:creator>
     <cc:Agent>
      <dc:title>Matplotlib v3.10.7, https://matplotlib.org/</dc:title>
     </cc:Agent>
    </dc:creator>
   </cc:Work>
  </rdf:RDF>
 </metadata>
 <defs>
  <style type="text/css">*{stroke-linejoin: round; stroke-linecap: butt}</style>
 </defs>
 <g id="figure_1">
  <g id="patch_1">
   <path d="M 0 97.2 
L 54 97.2 
L 54 0 
L 0 0 
z
" style="fill: #ffffff"/>
  </g>
  <g id="axes_1">
   <g id="line2d_1">
    <defs>
     <path id="m63586e0a29" d="M 0 4.967742 
C 1.317461 4.967742 2.581139 4.444309 3.512724 3.512724 
C 4.444309 2.581139 4.967742 1.317461 4.967742 0 
C 4.967742 -1.317461 4.444309 -2.581139 3.512724 -3.512724 
C 2.581139 -4.444309 1.317461 -4.967742 0 -4.967742 
C -1.317461 -4.967742 -2.581139 -4.444309 -3.512724 -3.512724 
C -4.444309 -2.581139 -4.967742 -1.317461 -4.967742 0 
C -4.967742 1.317461 -4.444309 2.581139 -3.512724 3.512724 
C -2.581139 4.444309 -1.317461 4.967742 0 4.967742 
z
" style="stroke: #262626; stroke-width: 0.993548"/>
    </defs>
    <g clip-path="url(#paf5f25ba65)">
     <use xlink:href="#m63586e0a29" x="11.521581" y="20.569806" style="fill: #51b04d; stroke: #262626; stroke-width: 0.993548"/>
    </g>
   </g>
   <g id="line2d_2">
    <defs>
     <path id="mb337c89d26" d="M 0 4.967742 
C 1.317461 4.967742 2.581139 4.444309 3.512724 3.512724 
C 4.444309 2.581139 4.967742 1.317461 4.967742 0 
C 4.967742 -1.317461 4.444309 -2.581139 3.512724 -3.512724 
C 2.581139 -4.444309 1.317461 -4.967742 0 -4.967742 
C -1.317461 -4.967742 -2.581139 -4.444309 -3.512724 -3.512724 
C -4.444309 -2.581139 -4.967742 -1.317461 -4.967742 0 
C -4.967742 1.317461 -4.444309 2.581139 -3.512724 3.512724 
C -2.581139 4.444309 -1.317461 4.967742 0 4.967742 
z
" style="stroke: #262626; stroke-width: 0.993548"/>
    </defs>
    <g clip-path="url(#paf5f25ba65)">
     <use xlink:href="#mb337c89d26" x="11.521581" y="33.734323" style="fill: #477b9d; stroke: #262626; stroke-width: 0.993548"/>
    </g>
   </g>
   <g id="line2d_3">
    <defs>
     <path id="m1919d0b389" d="M 0 4.967742 
C 1.317461 4.967742 2.581139 4.444309 3.512724 3.512724 
C 4.444309 2.581139 4.967742 1.317461 4.967742 0 
C 4.967742 -1.317461 4.444309 -2.581139 3.512724 -3.512724 
C 2.581139 -4.444309 1.317461 -4.967742 0 -4.967742 
C -1.317461 -4.967742 -2.581139 -4.444309 -3.512724 -3.512724 
C -4.444309 -2.581139 -4.967742 -1.317461 -4.967742 0 
C -4.967742 1.317461 -4.444309 2.581139 -3.512724 3.512724 
C -2.581139 4.444309 -1.317461 4.967742 0 4.967742 
z
" style="stroke: #262626; stroke-width: 0.993548"/>
    </defs>
    <g clip-path="url(#paf5f25ba65)">
     <use xlink:href="#m1919d0b389" x="11.521581" y="46.898839" style="fill: #f03f37; stroke: #262626; stroke-width: 0.993548"/>
    </g>
   </g>
   <g id="line2d_4">
    <defs>
     <path id="m204d268666" d="M 0 -4.967742 
L -4.302191 -2.483871 
L -4.302191 2.483871 
L -0 4.967742 
L 4.302191 2.483871 
L 4.302191 -2.483871 
z
" style="stroke: #262626; stroke-width: 0.993548; stroke-linejoin: miter"/>
    </defs>
    <g clip-path="url(#paf5f25ba65)">
     <use xlink:href="#m204d268666" x="11.521581" y="64.78271" style="fill: #80b2ff; stroke: #262626; stroke-width: 0.993548; stroke-linejoin: miter"/>
    </g>
   </g>
   <g id="line2d_5">
    <defs>
     <path id="m716b6c0f6f" d="M -3.512724 -3.512724 
L -3.512724 3.512724 
L 3.512724 3.512724 
L 3.512724 -3.512724 
z
" style="stroke: #262626; stroke-width: 0.993548; stroke-linejoin: miter"/>
    </defs>
    <g clip-path="url(#paf5f25ba65)">
     <use xlink:href="#m716b6c0f6f" x="11.521581" y="75.711742" style="fill: #d9a6d9; stroke: #262626; stroke-width: 0.993548; stroke-linejoin: miter"/>
    </g>
   </g>
   <g id="text_1">
    <path d="M 26.334767 19.032911 
L 27.22896 19.032911 
Q 27.210331 18.446097 27.005412 18.023839 
Q 26.802045 17.601581 26.449646 17.323698 
Q 26.097246 17.045815 25.629968 16.916964 
Q 25.16269 16.788113 24.616238 16.788113 
Q 24.130331 16.788113 23.66771 16.912306 
Q 23.205089 17.0365 22.841823 17.289544 
Q 22.480109 17.542589 22.261218 17.935351 
Q 22.04388 18.328113 22.04388 18.863698 
Q 22.04388 19.351157 22.23638 19.67406 
Q 22.430432 19.996964 22.753335 20.200331 
Q 23.076238 20.403698 23.482972 20.527891 
Q 23.891259 20.652085 24.313517 20.746782 
Q 24.735775 20.84148 25.142509 20.93152 
Q 25.550795 21.020008 25.873698 21.164383 
Q 26.196601 21.308758 26.389101 21.536964 
Q 26.583154 21.765169 26.583154 22.133093 
Q 26.583154 22.519645 26.424807 22.768032 
Q 26.26646 23.016419 26.007206 23.160794 
Q 25.749505 23.305169 25.426601 23.365714 
Q 25.103698 23.424706 24.785452 23.424706 
Q 24.388033 23.424706 24.010795 23.325351 
Q 23.633557 23.225996 23.349464 23.017972 
Q 23.066924 22.808395 22.893053 22.485492 
Q 22.719182 22.162589 22.719182 21.715492 
L 21.824988 21.715492 
Q 21.824988 22.361298 22.057851 22.833234 
Q 22.292267 23.305169 22.694343 23.607891 
Q 23.09642 23.910613 23.627347 24.059645 
Q 24.159827 24.208677 24.755956 24.208677 
Q 25.241863 24.208677 25.73398 24.093798 
Q 26.226097 23.980472 26.623517 23.727427 
Q 27.020936 23.474383 27.27398 23.072306 
Q 27.527025 22.668677 27.527025 22.103597 
Q 27.527025 21.575774 27.332972 21.228032 
Q 27.140472 20.88029 26.817569 20.652085 
Q 26.494666 20.423879 26.08638 20.290371 
Q 25.679646 20.15531 25.257388 20.055956 
Q 24.83513 19.956601 24.426843 19.87277 
Q 24.020109 19.787387 23.697206 19.658536 
Q 23.374303 19.529685 23.18025 19.326319 
Q 22.98775 19.122952 22.98775 18.793839 
Q 22.98775 18.446097 23.121259 18.213234 
Q 23.254767 17.980371 23.478315 17.840653 
Q 23.701863 17.700935 23.990613 17.641944 
Q 24.279363 17.582952 24.577428 17.582952 
Q 25.311722 17.582952 25.783658 17.926036 
Q 26.255593 18.267569 26.334767 19.032911 
z
M 28.500701 18.913375 
L 28.500701 24.050331 
L 29.345217 24.050331 
L 29.345217 21.765169 
Q 29.345217 21.268395 29.444572 20.8865 
Q 29.543927 20.503052 29.762818 20.236036 
Q 29.981709 19.967468 30.338765 19.82775 
Q 30.697374 19.688032 31.203463 19.688032 
L 31.203463 18.793839 
Q 30.518846 18.77521 30.071749 19.073274 
Q 29.624652 19.371339 29.315721 19.996964 
L 29.29554 19.996964 
L 29.29554 18.913375 
L 28.500701 18.913375 
z
M 32.633318 19.669869 
L 35.027304 19.669869 
L 35.027304 20.246903 
L 31.808517 20.246903 
L 31.808517 19.669869 
Q 32.19864 19.265619 32.87239 18.585349 
Q 33.547227 17.903992 33.720011 17.706214 
Q 34.049279 17.336738 34.179683 17.080278 
Q 34.311172 16.823819 34.311172 16.576052 
Q 34.311172 16.171802 34.027545 15.917516 
Q 33.743918 15.662143 33.288594 15.662143 
Q 32.965846 15.662143 32.607237 15.774073 
Q 32.249715 15.886002 31.842205 16.114208 
L 31.842205 15.420897 
Q 32.256235 15.254633 32.615931 15.169871 
Q 32.976713 15.085109 33.275554 15.085109 
Q 34.063406 15.085109 34.531771 15.479579 
Q 35.000136 15.872962 35.000136 16.531498 
Q 35.000136 16.844466 34.882773 17.124833 
Q 34.766497 17.404113 34.456789 17.784456 
Q 34.372027 17.883345 33.916703 18.353883 
Q 33.462465 18.824421 32.633318 19.669869 
z
M 39.14877 15.886002 
L 39.14877 17.777935 
L 41.039617 17.777935 
L 41.039617 18.35497 
L 39.14877 18.35497 
L 39.14877 20.246903 
L 38.578256 20.246903 
L 38.578256 18.35497 
L 36.686322 18.35497 
L 36.686322 17.777935 
L 38.578256 17.777935 
L 38.578256 15.886002 
L 39.14877 15.886002 
z
" style="stroke: #ffffff; stroke-width: 2.980645"/>
    <path d="M 26.334767 19.032911 
L 27.22896 19.032911 
Q 27.210331 18.446097 27.005412 18.023839 
Q 26.802045 17.601581 26.449646 17.323698 
Q 26.097246 17.045815 25.629968 16.916964 
Q 25.16269 16.788113 24.616238 16.788113 
Q 24.130331 16.788113 23.66771 16.912306 
Q 23.205089 17.0365 22.841823 17.289544 
Q 22.480109 17.542589 22.261218 17.935351 
Q 22.04388 18.328113 22.04388 18.863698 
Q 22.04388 19.351157 22.23638 19.67406 
Q 22.430432 19.996964 22.753335 20.200331 
Q 23.076238 20.403698 23.482972 20.527891 
Q 23.891259 20.652085 24.313517 20.746782 
Q 24.735775 20.84148 25.142509 20.93152 
Q 25.550795 21.020008 25.873698 21.164383 
Q 26.196601 21.308758 26.389101 21.536964 
Q 26.583154 21.765169 26.583154 22.133093 
Q 26.583154 22.519645 26.424807 22.768032 
Q 26.26646 23.016419 26.007206 23.160794 
Q 25.749505 23.305169 25.426601 23.365714 
Q 25.103698 23.424706 24.785452 23.424706 
Q 24.388033 23.424706 24.010795 23.325351 
Q 23.633557 23.225996 23.349464 23.017972 
Q 23.066924 22.808395 22.893053 22.485492 
Q 22.719182 22.162589 22.719182 21.715492 
L 21.824988 21.715492 
Q 21.824988 22.361298 22.057851 22.833234 
Q 22.292267 23.305169 22.694343 23.607891 
Q 23.09642 23.910613 23.627347 24.059645 
Q 24.159827 24.208677 24.755956 24.208677 
Q 25.241863 24.208677 25.73398 24.093798 
Q 26.226097 23.980472 26.623517 23.727427 
Q 27.020936 23.474383 27.27398 23.072306 
Q 27.527025 22.668677 27.527025 22.103597 
Q 27.527025 21.575774 27.332972 21.228032 
Q 27.140472 20.88029 26.817569 20.652085 
Q 26.494666 20.423879 26.08638 20.290371 
Q 25.679646 20.15531 25.257388 20.055956 
Q 24.83513 19.956601 24.426843 19.87277 
Q 24.020109 19.787387 23.697206 19.658536 
Q 23.374303 19.529685 23.18025 19.326319 
Q 22.98775 19.122952 22.98775 18.793839 
Q 22.98775 18.446097 23.121259 18.213234 
Q 23.254767 17.980371 23.478315 17.840653 
Q 23.701863 17.700935 23.990613 17.641944 
Q 24.279363 17.582952 24.577428 17.582952 
Q 25.311722 17.582952 25.783658 17.926036 
Q 26.255593 18.267569 26.334767 19.032911 
z
M 28.500701 18.913375 
L 28.500701 24.050331 
L 29.345217 24.050331 
L 29.345217 21.765169 
Q 29.345217 21.268395 29.444572 20.8865 
Q 29.543927 20.503052 29.762818 20.236036 
Q 29.981709 19.967468 30.338765 19.82775 
Q 30.697374 19.688032 31.203463 19.688032 
L 31.203463 18.793839 
Q 30.518846 18.77521 30.071749 19.073274 
Q 29.624652 19.371339 29.315721 19.996964 
L 29.29554 19.996964 
L 29.29554 18.913375 
L 28.500701 18.913375 
z
M 32.633318 19.669869 
L 35.027304 19.669869 
L 35.027304 20.246903 
L 31.808517 20.246903 
L 31.808517 19.669869 
Q 32.19864 19.265619 32.87239 18.585349 
Q 33.547227 17.903992 33.720011 17.706214 
Q 34.049279 17.336738 34.179683 17.080278 
Q 34.311172 16.823819 34.311172 16.576052 
Q 34.311172 16.171802 34.027545 15.917516 
Q 33.743918 15.662143 33.288594 15.662143 
Q 32.965846 15.662143 32.607237 15.774073 
Q 32.249715 15.886002 31.842205 16.114208 
L 31.842205 15.420897 
Q 32.256235 15.254633 32.615931 15.169871 
Q 32.976713 15.085109 33.275554 15.085109 
Q 34.063406 15.085109 34.531771 15.479579 
Q 35.000136 15.872962 35.000136 16.531498 
Q 35.000136 16.844466 34.882773 17.124833 
Q 34.766497 17.404113 34.456789 17.784456 
Q 34.372027 17.883345 33.916703 18.353883 
Q 33.462465 18.824421 32.633318 19.669869 
z
M 39.14877 15.886002 
L 39.14877 17.777935 
L 41.039617 17.777935 
L 41.039617 18.35497 
L 39.14877 18.35497 
L 39.14877 20.246903 
L 38.578256 20.246903 
L 38.578256 18.35497 
L 36.686322 18.35497 
L 36.686322 17.777935 
L 38.578256 17.777935 
L 38.578256 15.886002 
L 39.14877 15.886002 
z
"/>
   </g>
   <g id="text_2">
    <path d="M 23.841581 30.897276 
L 23.841581 37.196994 
L 24.785452 37.196994 
L 24.785452 30.897276 
L 27.149787 30.897276 
L 27.149787 30.102438 
L 21.477246 30.102438 
L 21.477246 30.897276 
L 23.841581 30.897276 
z
M 28.690718 31.136349 
L 28.690718 30.102438 
L 27.846201 30.102438 
L 27.846201 31.136349 
L 28.690718 31.136349 
z
M 27.846201 32.060038 
L 27.846201 37.196994 
L 28.690718 37.196994 
L 28.690718 32.060038 
L 27.846201 32.060038 
z
" style="stroke: #ffffff; stroke-width: 2.980645"/>
    <path d="M 23.841581 30.897276 
L 23.841581 37.196994 
L 24.785452 37.196994 
L 24.785452 30.897276 
L 27.149787 30.897276 
L 27.149787 30.102438 
L 21.477246 30.102438 
L 21.477246 30.897276 
L 23.841581 30.897276 
z
M 28.690718 31.136349 
L 28.690718 30.102438 
L 27.846201 30.102438 
L 27.846201 31.136349 
L 28.690718 31.136349 
z
M 27.846201 32.060038 
L 27.846201 37.196994 
L 28.690718 37.196994 
L 28.690718 32.060038 
L 27.846201 32.060038 
z
"/>
   </g>
   <g id="text_3">
    <path d="M 22.778174 46.814232 
Q 22.778174 46.278647 22.916339 45.757034 
Q 23.056057 45.235421 23.354121 44.817821 
Q 23.652186 44.40022 24.119464 44.147175 
Q 24.586742 43.894131 25.232549 43.894131 
Q 25.878355 43.894131 26.345634 44.147175 
Q 26.812912 44.40022 27.110976 44.817821 
Q 27.409041 45.235421 27.547206 45.757034 
Q 27.686924 46.278647 27.686924 46.814232 
Q 27.686924 47.351369 27.547206 47.872982 
Q 27.409041 48.394595 27.110976 48.812196 
Q 26.812912 49.228244 26.345634 49.482841 
Q 25.878355 49.735885 25.232549 49.735885 
Q 24.586742 49.735885 24.119464 49.482841 
Q 23.652186 49.228244 23.354121 48.812196 
Q 23.056057 48.394595 22.916339 47.872982 
Q 22.778174 47.351369 22.778174 46.814232 
z
M 21.834303 46.814232 
Q 21.834303 47.539212 22.046984 48.209857 
Q 22.261218 48.880502 22.688134 49.397458 
Q 23.116601 49.914413 23.751541 50.217135 
Q 24.388033 50.519857 25.232549 50.519857 
Q 26.077065 50.519857 26.712005 50.217135 
Q 27.348496 49.914413 27.775412 49.397458 
Q 28.20388 48.880502 28.416561 48.209857 
Q 28.630795 47.539212 28.630795 46.814232 
Q 28.630795 46.089252 28.416561 45.418607 
Q 28.20388 44.747962 27.775412 44.231006 
Q 27.348496 43.71405 26.712005 43.406671 
Q 26.077065 43.099292 25.232549 43.099292 
Q 24.388033 43.099292 23.751541 43.406671 
Q 23.116601 43.71405 22.688134 44.231006 
Q 22.261218 44.747962 22.046984 45.418607 
Q 21.834303 46.089252 21.834303 46.814232 
z
" style="stroke: #ffffff; stroke-width: 2.980645"/>
    <path d="M 22.778174 46.814232 
Q 22.778174 46.278647 22.916339 45.757034 
Q 23.056057 45.235421 23.354121 44.817821 
Q 23.652186 44.40022 24.119464 44.147175 
Q 24.586742 43.894131 25.232549 43.894131 
Q 25.878355 43.894131 26.345634 44.147175 
Q 26.812912 44.40022 27.110976 44.817821 
Q 27.409041 45.235421 27.547206 45.757034 
Q 27.686924 46.278647 27.686924 46.814232 
Q 27.686924 47.351369 27.547206 47.872982 
Q 27.409041 48.394595 27.110976 48.812196 
Q 26.812912 49.228244 26.345634 49.482841 
Q 25.878355 49.735885 25.232549 49.735885 
Q 24.586742 49.735885 24.119464 49.482841 
Q 23.652186 49.228244 23.354121 48.812196 
Q 23.056057 48.394595 22.916339 47.872982 
Q 22.778174 47.351369 22.778174 46.814232 
z
M 21.834303 46.814232 
Q 21.834303 47.539212 22.046984 48.209857 
Q 22.261218 48.880502 22.688134 49.397458 
Q 23.116601 49.914413 23.751541 50.217135 
Q 24.388033 50.519857 25.232549 50.519857 
Q 26.077065 50.519857 26.712005 50.217135 
Q 27.348496 49.914413 27.775412 49.397458 
Q 28.20388 48.880502 28.416561 48.209857 
Q 28.630795 47.539212 28.630795 46.814232 
Q 28.630795 46.089252 28.416561 45.418607 
Q 28.20388 44.747962 27.775412 44.231006 
Q 27.348496 43.71405 26.712005 43.406671 
Q 26.077065 43.099292 25.232549 43.099292 
Q 24.388033 43.099292 23.751541 43.406671 
Q 23.116601 43.71405 22.688134 44.231006 
Q 22.261218 44.747962 22.046984 45.418607 
Q 21.834303 46.089252 21.834303 46.814232 
z
"/>
   </g>
   <g id="text_4">
    <path d="M 23.841581 61.899867 
L 23.841581 68.199585 
L 24.785452 68.199585 
L 24.785452 61.899867 
L 27.149787 61.899867 
L 27.149787 61.105028 
L 21.477246 61.105028 
L 21.477246 61.899867 
L 23.841581 61.899867 
z
M 28.690718 62.13894 
L 28.690718 61.105028 
L 27.846201 61.105028 
L 27.846201 62.13894 
L 28.690718 62.13894 
z
M 27.846201 63.062629 
L 27.846201 68.199585 
L 28.690718 68.199585 
L 28.690718 63.062629 
L 27.846201 63.062629 
z
M 30.686818 64.652306 
Q 30.686818 64.116722 30.824983 63.595109 
Q 30.964701 63.073496 31.262766 62.655895 
Q 31.56083 62.238294 32.028108 61.98525 
Q 32.495387 61.732206 33.141193 61.732206 
Q 33.787 61.732206 34.254278 61.98525 
Q 34.721556 62.238294 35.019621 62.655895 
Q 35.317685 63.073496 35.45585 63.595109 
Q 35.595568 64.116722 35.595568 64.652306 
Q 35.595568 65.189444 35.45585 65.711056 
Q 35.317685 66.232669 35.019621 66.65027 
Q 34.721556 67.066319 34.254278 67.320915 
Q 33.787 67.57396 33.141193 67.57396 
Q 32.495387 67.57396 32.028108 67.320915 
Q 31.56083 67.066319 31.262766 66.65027 
Q 30.964701 66.232669 30.824983 65.711056 
Q 30.686818 65.189444 30.686818 64.652306 
z
M 29.742947 64.652306 
Q 29.742947 65.377286 29.955629 66.047931 
Q 30.169862 66.718577 30.596778 67.235532 
Q 31.025246 67.752488 31.660185 68.05521 
Q 32.296677 68.357931 33.141193 68.357931 
Q 33.985709 68.357931 34.620649 68.05521 
Q 35.257141 67.752488 35.684056 67.235532 
Q 36.112524 66.718577 36.325205 66.047931 
Q 36.539439 65.377286 36.539439 64.652306 
Q 36.539439 63.927327 36.325205 63.256681 
Q 36.112524 62.586036 35.684056 62.069081 
Q 35.257141 61.552125 34.620649 61.244746 
Q 33.985709 60.937367 33.141193 60.937367 
Q 32.296677 60.937367 31.660185 61.244746 
Q 31.025246 61.552125 30.596778 62.069081 
Q 30.169862 62.586036 29.955629 63.256681 
Q 29.742947 63.927327 29.742947 64.652306 
z
M 39.307945 67.021609 
Q 38.8461 67.021609 38.575513 67.337837 
Q 38.306013 67.652978 38.306013 68.202845 
Q 38.306013 68.749452 38.575513 69.067853 
Q 38.8461 69.385167 39.307945 69.385167 
Q 39.769789 69.385167 40.039289 69.067853 
Q 40.308789 68.749452 40.308789 68.202845 
Q 40.308789 67.652978 40.039289 67.337837 
Q 39.769789 67.021609 39.307945 67.021609 
z
M 40.669572 64.871042 
L 40.669572 65.495891 
Q 40.410939 65.374181 40.147959 65.310067 
Q 39.884979 65.244865 39.626346 65.244865 
Q 38.947162 65.244865 38.588554 65.70345 
Q 38.231031 66.162034 38.179957 67.088984 
Q 38.379908 66.793403 38.682009 66.635833 
Q 38.985197 66.478262 39.348152 66.478262 
Q 40.112098 66.478262 40.555469 66.94228 
Q 40.99884 67.405212 40.99884 68.202845 
Q 40.99884 68.984177 40.536995 69.456889 
Q 40.07515 69.928514 39.307945 69.928514 
Q 38.427723 69.928514 37.962618 69.254764 
Q 37.497513 68.579927 37.497513 67.299802 
Q 37.497513 66.097919 38.068027 65.382875 
Q 38.638541 64.667831 39.599179 64.667831 
Q 39.857812 64.667831 40.120791 64.718905 
Q 40.383771 64.76998 40.669572 64.871042 
z
" style="stroke: #ffffff; stroke-width: 2.980645"/>
    <path d="M 23.841581 61.899867 
L 23.841581 68.199585 
L 24.785452 68.199585 
L 24.785452 61.899867 
L 27.149787 61.899867 
L 27.149787 61.105028 
L 21.477246 61.105028 
L 21.477246 61.899867 
L 23.841581 61.899867 
z
M 28.690718 62.13894 
L 28.690718 61.105028 
L 27.846201 61.105028 
L 27.846201 62.13894 
L 28.690718 62.13894 
z
M 27.846201 63.062629 
L 27.846201 68.199585 
L 28.690718 68.199585 
L 28.690718 63.062629 
L 27.846201 63.062629 
z
M 30.686818 64.652306 
Q 30.686818 64.116722 30.824983 63.595109 
Q 30.964701 63.073496 31.262766 62.655895 
Q 31.56083 62.238294 32.028108 61.98525 
Q 32.495387 61.732206 33.141193 61.732206 
Q 33.787 61.732206 34.254278 61.98525 
Q 34.721556 62.238294 35.019621 62.655895 
Q 35.317685 63.073496 35.45585 63.595109 
Q 35.595568 64.116722 35.595568 64.652306 
Q 35.595568 65.189444 35.45585 65.711056 
Q 35.317685 66.232669 35.019621 66.65027 
Q 34.721556 67.066319 34.254278 67.320915 
Q 33.787 67.57396 33.141193 67.57396 
Q 32.495387 67.57396 32.028108 67.320915 
Q 31.56083 67.066319 31.262766 66.65027 
Q 30.964701 66.232669 30.824983 65.711056 
Q 30.686818 65.189444 30.686818 64.652306 
z
M 29.742947 64.652306 
Q 29.742947 65.377286 29.955629 66.047931 
Q 30.169862 66.718577 30.596778 67.235532 
Q 31.025246 67.752488 31.660185 68.05521 
Q 32.296677 68.357931 33.141193 68.357931 
Q 33.985709 68.357931 34.620649 68.05521 
Q 35.257141 67.752488 35.684056 67.235532 
Q 36.112524 66.718577 36.325205 66.047931 
Q 36.539439 65.377286 36.539439 64.652306 
Q 36.539439 63.927327 36.325205 63.256681 
Q 36.112524 62.586036 35.684056 62.069081 
Q 35.257141 61.552125 34.620649 61.244746 
Q 33.985709 60.937367 33.141193 60.937367 
Q 32.296677 60.937367 31.660185 61.244746 
Q 31.025246 61.552125 30.596778 62.069081 
Q 30.169862 62.586036 29.955629 63.256681 
Q 29.742947 63.927327 29.742947 64.652306 
z
M 39.307945 67.021609 
Q 38.8461 67.021609 38.575513 67.337837 
Q 38.306013 67.652978 38.306013 68.202845 
Q 38.306013 68.749452 38.575513 69.067853 
Q 38.8461 69.385167 39.307945 69.385167 
Q 39.769789 69.385167 40.039289 69.067853 
Q 40.308789 68.749452 40.308789 68.202845 
Q 40.308789 67.652978 40.039289 67.337837 
Q 39.769789 67.021609 39.307945 67.021609 
z
M 40.669572 64.871042 
L 40.669572 65.495891 
Q 40.410939 65.374181 40.147959 65.310067 
Q 39.884979 65.244865 39.626346 65.244865 
Q 38.947162 65.244865 38.588554 65.70345 
Q 38.231031 66.162034 38.179957 67.088984 
Q 38.379908 66.793403 38.682009 66.635833 
Q 38.985197 66.478262 39.348152 66.478262 
Q 40.112098 66.478262 40.555469 66.94228 
Q 40.99884 67.405212 40.99884 68.202845 
Q 40.99884 68.984177 40.536995 69.456889 
Q 40.07515 69.928514 39.307945 69.928514 
Q 38.427723 69.928514 37.962618 69.254764 
Q 37.497513 68.579927 37.497513 67.299802 
Q 37.497513 66.097919 38.068027 65.382875 
Q 38.638541 64.667831 39.599179 64.667831 
Q 39.857812 64.667831 40.120791 64.718905 
Q 40.383771 64.76998 40.669572 64.871042 
z
"/>
   </g>
   <g id="text_5">
    <path d="M 26.334767 74.066954 
L 27.22896 74.066954 
Q 27.210331 73.480139 27.005412 73.057881 
Q 26.802045 72.635623 26.449646 72.35774 
Q 26.097246 72.079857 25.629968 71.951006 
Q 25.16269 71.822155 24.616238 71.822155 
Q 24.130331 71.822155 23.66771 71.946349 
Q 23.205089 72.070542 22.841823 72.323587 
Q 22.480109 72.576631 22.261218 72.969393 
Q 22.04388 73.362155 22.04388 73.89774 
Q 22.04388 74.3852 22.23638 74.708103 
Q 22.430432 75.031006 22.753335 75.234373 
Q 23.076238 75.43774 23.482972 75.561933 
Q 23.891259 75.686127 24.313517 75.780825 
Q 24.735775 75.875522 25.142509 75.965563 
Q 25.550795 76.05405 25.873698 76.198425 
Q 26.196601 76.3428 26.389101 76.571006 
Q 26.583154 76.799212 26.583154 77.167135 
Q 26.583154 77.553687 26.424807 77.802075 
Q 26.26646 78.050462 26.007206 78.194837 
Q 25.749505 78.339212 25.426601 78.399756 
Q 25.103698 78.458748 24.785452 78.458748 
Q 24.388033 78.458748 24.010795 78.359393 
Q 23.633557 78.260038 23.349464 78.052014 
Q 23.066924 77.842438 22.893053 77.519534 
Q 22.719182 77.196631 22.719182 76.749534 
L 21.824988 76.749534 
Q 21.824988 77.395341 22.057851 77.867276 
Q 22.292267 78.339212 22.694343 78.641933 
Q 23.09642 78.944655 23.627347 79.093688 
Q 24.159827 79.24272 24.755956 79.24272 
Q 25.241863 79.24272 25.73398 79.127841 
Q 26.226097 79.014514 26.623517 78.76147 
Q 27.020936 78.508425 27.27398 78.106349 
Q 27.527025 77.70272 27.527025 77.137639 
Q 27.527025 76.609817 27.332972 76.262075 
Q 27.140472 75.914333 26.817569 75.686127 
Q 26.494666 75.457921 26.08638 75.324413 
Q 25.679646 75.189353 25.257388 75.089998 
Q 24.83513 74.990643 24.426843 74.906813 
Q 24.020109 74.821429 23.697206 74.692579 
Q 23.374303 74.563728 23.18025 74.360361 
Q 22.98775 74.156994 22.98775 73.827881 
Q 22.98775 73.480139 23.121259 73.247276 
Q 23.254767 73.014413 23.478315 72.874696 
Q 23.701863 72.734978 23.990613 72.675986 
Q 24.279363 72.616994 24.577428 72.616994 
Q 25.311722 72.616994 25.783658 72.960079 
Q 26.255593 73.301611 26.334767 74.066954 
z
M 28.500701 73.947417 
L 28.500701 79.084373 
L 29.345217 79.084373 
L 29.345217 76.799212 
Q 29.345217 76.302437 29.444572 75.920542 
Q 29.543927 75.537095 29.762818 75.270079 
Q 29.981709 75.00151 30.338765 74.861792 
Q 30.697374 74.722075 31.203463 74.722075 
L 31.203463 73.827881 
Q 30.518846 73.809252 30.071749 74.107317 
Q 29.624652 74.405381 29.315721 75.031006 
L 29.29554 75.031006 
L 29.29554 73.947417 
L 28.500701 73.947417 
z
M 32.524881 75.537095 
Q 32.524881 75.00151 32.663046 74.479897 
Q 32.802764 73.958284 33.100829 73.540683 
Q 33.398893 73.123083 33.866171 72.870038 
Q 34.33345 72.616994 34.979256 72.616994 
Q 35.625063 72.616994 36.092341 72.870038 
Q 36.559619 73.123083 36.857684 73.540683 
Q 37.155748 73.958284 37.293913 74.479897 
Q 37.433631 75.00151 37.433631 75.537095 
Q 37.433631 76.074232 37.293913 76.595845 
Q 37.155748 77.117458 36.857684 77.535058 
Q 36.559619 77.951107 36.092341 78.205704 
Q 35.625063 78.458748 34.979256 78.458748 
Q 34.33345 78.458748 33.866171 78.205704 
Q 33.398893 77.951107 33.100829 77.535058 
Q 32.802764 77.117458 32.663046 76.595845 
Q 32.524881 76.074232 32.524881 75.537095 
z
M 31.58101 75.537095 
Q 31.58101 76.262075 31.793692 76.93272 
Q 32.007925 77.603365 32.434841 78.120321 
Q 32.863309 78.637276 33.498248 78.939998 
Q 34.13474 79.24272 34.979256 79.24272 
Q 35.823772 79.24272 36.458712 78.939998 
Q 37.095204 78.637276 37.522119 78.120321 
Q 37.950587 77.603365 38.163268 76.93272 
Q 38.377502 76.262075 38.377502 75.537095 
Q 38.377502 74.812115 38.163268 74.14147 
Q 37.950587 73.470825 37.522119 72.953869 
Q 37.095204 72.436913 36.458712 72.129534 
Q 35.823772 71.822155 34.979256 71.822155 
Q 34.13474 71.822155 33.498248 72.129534 
Q 32.863309 72.436913 32.434841 72.953869 
Q 32.007925 73.470825 31.793692 74.14147 
Q 31.58101 74.812115 31.58101 75.537095 
z
M 39.712659 80.137379 
L 40.83304 80.137379 
L 40.83304 76.26875 
L 39.61377 76.513256 
L 39.61377 75.888407 
L 40.82652 75.643901 
L 41.512223 75.643901 
L 41.512223 80.137379 
L 42.632604 80.137379 
L 42.632604 80.714413 
L 39.712659 80.714413 
L 39.712659 80.137379 
z
M 44.609164 80.137379 
L 47.00315 80.137379 
L 47.00315 80.714413 
L 43.784364 80.714413 
L 43.784364 80.137379 
Q 44.174487 79.733129 44.848237 79.052859 
Q 45.523073 78.371502 45.695858 78.173724 
Q 46.025126 77.804248 46.155529 77.547788 
Q 46.287019 77.291329 46.287019 77.043562 
Q 46.287019 76.639313 46.003392 76.385026 
Q 45.719765 76.129653 45.26444 76.129653 
Q 44.941692 76.129653 44.583083 76.241583 
Q 44.225561 76.353512 43.818051 76.581718 
L 43.818051 75.888407 
Q 44.232081 75.722143 44.591777 75.637381 
Q 44.952559 75.552619 45.2514 75.552619 
Q 46.039253 75.552619 46.507618 75.947089 
Q 46.975983 76.340472 46.975983 76.999008 
Q 46.975983 77.311976 46.85862 77.592343 
Q 46.742344 77.871623 46.432636 78.251966 
Q 46.347874 78.350855 45.892549 78.821393 
Q 45.438311 79.291931 44.609164 80.137379 
z
" style="stroke: #ffffff; stroke-width: 2.980645"/>
    <path d="M 26.334767 74.066954 
L 27.22896 74.066954 
Q 27.210331 73.480139 27.005412 73.057881 
Q 26.802045 72.635623 26.449646 72.35774 
Q 26.097246 72.079857 25.629968 71.951006 
Q 25.16269 71.822155 24.616238 71.822155 
Q 24.130331 71.822155 23.66771 71.946349 
Q 23.205089 72.070542 22.841823 72.323587 
Q 22.480109 72.576631 22.261218 72.969393 
Q 22.04388 73.362155 22.04388 73.89774 
Q 22.04388 74.3852 22.23638 74.708103 
Q 22.430432 75.031006 22.753335 75.234373 
Q 23.076238 75.43774 23.482972 75.561933 
Q 23.891259 75.686127 24.313517 75.780825 
Q 24.735775 75.875522 25.142509 75.965563 
Q 25.550795 76.05405 25.873698 76.198425 
Q 26.196601 76.3428 26.389101 76.571006 
Q 26.583154 76.799212 26.583154 77.167135 
Q 26.583154 77.553687 26.424807 77.802075 
Q 26.26646 78.050462 26.007206 78.194837 
Q 25.749505 78.339212 25.426601 78.399756 
Q 25.103698 78.458748 24.785452 78.458748 
Q 24.388033 78.458748 24.010795 78.359393 
Q 23.633557 78.260038 23.349464 78.052014 
Q 23.066924 77.842438 22.893053 77.519534 
Q 22.719182 77.196631 22.719182 76.749534 
L 21.824988 76.749534 
Q 21.824988 77.395341 22.057851 77.867276 
Q 22.292267 78.339212 22.694343 78.641933 
Q 23.09642 78.944655 23.627347 79.093688 
Q 24.159827 79.24272 24.755956 79.24272 
Q 25.241863 79.24272 25.73398 79.127841 
Q 26.226097 79.014514 26.623517 78.76147 
Q 27.020936 78.508425 27.27398 78.106349 
Q 27.527025 77.70272 27.527025 77.137639 
Q 27.527025 76.609817 27.332972 76.262075 
Q 27.140472 75.914333 26.817569 75.686127 
Q 26.494666 75.457921 26.08638 75.324413 
Q 25.679646 75.189353 25.257388 75.089998 
Q 24.83513 74.990643 24.426843 74.906813 
Q 24.020109 74.821429 23.697206 74.692579 
Q 23.374303 74.563728 23.18025 74.360361 
Q 22.98775 74.156994 22.98775 73.827881 
Q 22.98775 73.480139 23.121259 73.247276 
Q 23.254767 73.014413 23.478315 72.874696 
Q 23.701863 72.734978 23.990613 72.675986 
Q 24.279363 72.616994 24.577428 72.616994 
Q 25.311722 72.616994 25.783658 72.960079 
Q 26.255593 73.301611 26.334767 74.066954 
z
M 28.500701 73.947417 
L 28.500701 79.084373 
L 29.345217 79.084373 
L 29.345217 76.799212 
Q 29.345217 76.302437 29.444572 75.920542 
Q 29.543927 75.537095 29.762818 75.270079 
Q 29.981709 75.00151 30.338765 74.861792 
Q 30.697374 74.722075 31.203463 74.722075 
L 31.203463 73.827881 
Q 30.518846 73.809252 30.071749 74.107317 
Q 29.624652 74.405381 29.315721 75.031006 
L 29.29554 75.031006 
L 29.29554 73.947417 
L 28.500701 73.947417 
z
M 32.524881 75.537095 
Q 32.524881 75.00151 32.663046 74.479897 
Q 32.802764 73.958284 33.100829 73.540683 
Q 33.398893 73.123083 33.866171 72.870038 
Q 34.33345 72.616994 34.979256 72.616994 
Q 35.625063 72.616994 36.092341 72.870038 
Q 36.559619 73.123083 36.857684 73.540683 
Q 37.155748 73.958284 37.293913 74.479897 
Q 37.433631 75.00151 37.433631 75.537095 
Q 37.433631 76.074232 37.293913 76.595845 
Q 37.155748 77.117458 36.857684 77.535058 
Q 36.559619 77.951107 36.092341 78.205704 
Q 35.625063 78.458748 34.979256 78.458748 
Q 34.33345 78.458748 33.866171 78.205704 
Q 33.398893 77.951107 33.100829 77.535058 
Q 32.802764 77.117458 32.663046 76.595845 
Q 32.524881 76.074232 32.524881 75.537095 
z
M 31.58101 75.537095 
Q 31.58101 76.262075 31.793692 76.93272 
Q 32.007925 77.603365 32.434841 78.120321 
Q 32.863309 78.637276 33.498248 78.939998 
Q 34.13474 79.24272 34.979256 79.24272 
Q 35.823772 79.24272 36.458712 78.939998 
Q 37.095204 78.637276 37.522119 78.120321 
Q 37.950587 77.603365 38.163268 76.93272 
Q 38.377502 76.262075 38.377502 75.537095 
Q 38.377502 74.812115 38.163268 74.14147 
Q 37.950587 73.470825 37.522119 72.953869 
Q 37.095204 72.436913 36.458712 72.129534 
Q 35.823772 71.822155 34.979256 71.822155 
Q 34.13474 71.822155 33.498248 72.129534 
Q 32.863309 72.436913 32.434841 72.953869 
Q 32.007925 73.470825 31.793692 74.14147 
Q 31.58101 74.812115 31.58101 75.537095 
z
M 39.712659 80.137379 
L 40.83304 80.137379 
L 40.83304 76.26875 
L 39.61377 76.513256 
L 39.61377 75.888407 
L 40.82652 75.643901 
L 41.512223 75.643901 
L 41.512223 80.137379 
L 42.632604 80.137379 
L 42.632604 80.714413 
L 39.712659 80.714413 
L 39.712659 80.137379 
z
M 44.609164 80.137379 
L 47.00315 80.137379 
L 47.00315 80.714413 
L 43.784364 80.714413 
L 43.784364 80.137379 
Q 44.174487 79.733129 44.848237 79.052859 
Q 45.523073 78.371502 45.695858 78.173724 
Q 46.025126 77.804248 46.155529 77.547788 
Q 46.287019 77.291329 46.287019 77.043562 
Q 46.287019 76.639313 46.003392 76.385026 
Q 45.719765 76.129653 45.26444 76.129653 
Q 44.941692 76.129653 44.583083 76.241583 
Q 44.225561 76.353512 43.818051 76.581718 
L 43.818051 75.888407 
Q 44.232081 75.722143 44.591777 75.637381 
Q 44.952559 75.552619 45.2514 75.552619 
Q 46.039253 75.552619 46.507618 75.947089 
Q 46.975983 76.340472 46.975983 76.999008 
Q 46.975983 77.311976 46.85862 77.592343 
Q 46.742344 77.871623 46.432636 78.251966 
Q 46.347874 78.350855 45.892549 78.821393 
Q 45.438311 79.291931 44.609164 80.137379 
z
"/>
   </g>
  </g>
 </g>
 <defs>
  <clipPath id="paf5f25ba65">
   <rect x="-188.638677" y="-119.480774" width="221.76" height="221.76"/>
  </clipPath>
 </defs>
</svg>
