<?xml version="1.0" encoding="utf-8" standalone="no"?>
<!DOCTYPE svg PUBLIC "-//W3C//DTD SVG 1.1//EN"
  "http://www.w3.org/Graphics/SVG/1.1/DTD/svg11.dtd">
<svg xmlns:xlink="http://www.w3.org/1999/xlink" width="39.6pt" height="57.6pt" viewBox="0 0 39.6 57.6" xmlns="http://www.w3.org/2000/svg" version="1.1">
 <metadata>
  <rdf:RDF xmlns:dc="http://purl.org/dc/elements/1.1/" xmlns:cc="http://creativecommons.org/ns#" xmlns:rdf="http://www.w3.org/1999/02/22-rdf-syntax-ns#">
   <cc:Work>
    <dc:type rdf:resource="http://purl.org/dc/dcmitype/StillImage"/>
    <dc:date>2026-02-25T16:16:42.358649</dc:date>
    <dc:format>image/svg+xml</dc:format>
    <dc:creator>
     <cc:Agent>
      <dc:title>Matplotlib v3.10.7, https://matplotlib.org/</dc:title>
     </cc:Agent>
    </dc:creator>
   </cc:Work>
  </rdf:RDF>
 </metadata>
 <defs>
  <style type="text/css">*{stroke-linejoin: round; stroke-linecap: butt}</style>
 </defs>
 <g id="figure_1">
  <g id="patch_1">
   <path d="M 0 57.6 
L 39.6 57.6 
L 39.6 0 
L 0 0 
z
" style="fill: #ffffff"/>
  </g>
  <g id="axes_1">
   <g id="line2d_1">
    <defs>
     <path id="m1113bf19bc" d="M 0 6.954839 
C 1.844445 6.954839 3.613594 6.222033 4.917814 4.917814 
C 6.222033 3.613594 6.954839 1.844445 6.954839 0 
C 6.954839 -1.844445 6.222033 -3.613594 4.917814 -4.917814 
C 3.613594 -6.222033 1.844445 -6.954839 0 -6.954839 
C -1.844445 -6.954839 -3.613594 -6.222033 -4.917814 -4.917814 
C -6.222033 -3.613594 -6.954839 -1.844445 -6.954839 0 
C -6.954839 1.844445 -6.222033 3.613594 -4.917814 4.917814 
C -3.613594 6.222033 -1.844445 6.954839 0 6.954839 
z
" style="stroke: #262626; stroke-width: 0.993548"/>
    </defs>
    <g clip-path="url(#pb445777a75)">
     <use xlink:href="#m1113bf19bc" x="12.456129" y="13.156774" style="fill: #51b04d; stroke: #262626; stroke-width: 0.993548"/>
    </g>
   </g>
   <g id="line2d_2">
    <defs>
     <path id="m3ce2c07dce" d="M 0 4.305376 
C 1.141799 4.305376 2.236987 3.851735 3.044361 3.044361 
C 3.851735 2.236987 4.305376 1.141799 4.305376 0 
C 4.305376 -1.141799 3.851735 -2.236987 3.044361 -3.044361 
C 2.236987 -3.851735 1.141799 -4.305376 0 -4.305376 
C -1.141799 -4.305376 -2.236987 -3.851735 -3.044361 -3.044361 
C -3.851735 -2.236987 -4.305376 -1.141799 -4.305376 0 
C -4.305376 1.141799 -3.851735 2.236987 -3.044361 3.044361 
C -2.236987 3.851735 -1.141799 4.305376 0 4.305376 
z
" style="stroke: #262626; stroke-width: 0.993548"/>
    </defs>
    <g clip-path="url(#pb445777a75)">
     <use xlink:href="#m3ce2c07dce" x="12.456129" y="29.550323" style="fill: #477b9d; stroke: #262626; stroke-width: 0.993548"/>
    </g>
   </g>
   <g id="line2d_3">
    <defs>
     <path id="m4af9c76cca" d="M 0 2.980645 
C 0.790476 2.980645 1.548683 2.666586 2.107634 2.107634 
C 2.666586 1.548683 2.980645 0.790476 2.980645 0 
C 2.980645 -0.790476 2.666586 -1.548683 2.107634 -2.107634 
C 1.548683 -2.666586 0.790476 -2.980645 0 -2.980645 
C -0.790476 -2.980645 -1.548683 -2.666586 -2.107634 -2.107634 
C -2.666586 -1.548683 -2.980645 -0.790476 -2.980645 0 
C -2.980645 0.790476 -2.666586 1.548683 -2.107634 2.107634 
C -1.548683 2.666586 -0.790476 2.980645 0 2.980645 
z
" style="stroke: #262626; stroke-width: 0.993548"/>
    </defs>
    <g clip-path="url(#pb445777a75)">
     <use xlink:href="#m4af9c76cca" x="12.456129" y="45.943871" style="fill: #f03f37; stroke: #262626; stroke-width: 0.993548"/>
    </g>
   </g>
   <g id="text_1">
    <path d="M 29.256411 11.602026 
L 30.150605 11.602026 
Q 30.131976 11.015212 29.927056 10.592954 
Q 29.72369 10.170696 29.37129 9.892812 
Q 29.018891 9.614929 28.551613 9.486079 
Q 28.084335 9.357228 27.537883 9.357228 
Q 27.051976 9.357228 26.589355 9.481421 
Q 26.126734 9.605615 25.763468 9.858659 
Q 25.401754 10.111704 25.182863 10.504466 
Q 24.965524 10.897228 24.965524 11.432812 
Q 24.965524 11.920272 25.158024 12.243175 
Q 25.352077 12.566079 25.67498 12.769446 
Q 25.997883 12.972812 26.404617 13.097006 
Q 26.812903 13.2212 27.235161 13.315897 
Q 27.657419 13.410595 28.064153 13.500635 
Q 28.47244 13.589123 28.795343 13.733498 
Q 29.118246 13.877873 29.310746 14.106079 
Q 29.504798 14.334284 29.504798 14.702208 
Q 29.504798 15.08876 29.346452 15.337147 
Q 29.188105 15.585534 28.928851 15.729909 
Q 28.671149 15.874284 28.348246 15.934829 
Q 28.025343 15.993821 27.707097 15.993821 
Q 27.309677 15.993821 26.93244 15.894466 
Q 26.555202 15.795111 26.271109 15.587087 
Q 25.988569 15.37751 25.814698 15.054607 
Q 25.640827 14.731704 25.640827 14.284607 
L 24.746633 14.284607 
Q 24.746633 14.930413 24.979496 15.402349 
Q 25.213911 15.874284 25.615988 16.177006 
Q 26.018065 16.479728 26.548992 16.62876 
Q 27.081472 16.777792 27.677601 16.777792 
Q 28.163508 16.777792 28.655625 16.662913 
Q 29.147742 16.549587 29.545161 16.296542 
Q 29.942581 16.043498 30.195625 15.641421 
Q 30.448669 15.237792 30.448669 14.672712 
Q 30.448669 14.144889 30.254617 13.797147 
Q 30.062117 13.449405 29.739214 13.2212 
Q 29.41631 12.992994 29.008024 12.859486 
Q 28.60129 12.724425 28.179032 12.625071 
Q 27.756774 12.525716 27.348488 12.441885 
Q 26.941754 12.356502 26.618851 12.227651 
Q 26.295948 12.0988 26.101895 11.895433 
Q 25.909395 11.692067 25.909395 11.362954 
Q 25.909395 11.015212 26.042903 10.782349 
Q 26.176411 10.549486 26.39996 10.409768 
Q 26.623508 10.27005 26.912258 10.211058 
Q 27.201008 10.152067 27.499073 10.152067 
Q 28.233367 10.152067 28.705302 10.495151 
Q 29.177238 10.836683 29.256411 11.602026 
z
M 31.422346 11.48249 
L 31.422346 16.619446 
L 32.266862 16.619446 
L 32.266862 14.334284 
Q 32.266862 13.83751 32.366217 13.455615 
Q 32.465571 13.072167 32.684462 12.805151 
Q 32.903354 12.536583 33.26041 12.396865 
Q 33.619019 12.257147 34.125108 12.257147 
L 34.125108 11.362954 
Q 33.440491 11.344325 32.993394 11.642389 
Q 32.546297 11.940454 32.237366 12.566079 
L 32.217184 12.566079 
L 32.217184 11.48249 
L 31.422346 11.48249 
z
" style="stroke: #ffffff; stroke-width: 2.980645"/>
    <path d="M 29.256411 11.602026 
L 30.150605 11.602026 
Q 30.131976 11.015212 29.927056 10.592954 
Q 29.72369 10.170696 29.37129 9.892812 
Q 29.018891 9.614929 28.551613 9.486079 
Q 28.084335 9.357228 27.537883 9.357228 
Q 27.051976 9.357228 26.589355 9.481421 
Q 26.126734 9.605615 25.763468 9.858659 
Q 25.401754 10.111704 25.182863 10.504466 
Q 24.965524 10.897228 24.965524 11.432812 
Q 24.965524 11.920272 25.158024 12.243175 
Q 25.352077 12.566079 25.67498 12.769446 
Q 25.997883 12.972812 26.404617 13.097006 
Q 26.812903 13.2212 27.235161 13.315897 
Q 27.657419 13.410595 28.064153 13.500635 
Q 28.47244 13.589123 28.795343 13.733498 
Q 29.118246 13.877873 29.310746 14.106079 
Q 29.504798 14.334284 29.504798 14.702208 
Q 29.504798 15.08876 29.346452 15.337147 
Q 29.188105 15.585534 28.928851 15.729909 
Q 28.671149 15.874284 28.348246 15.934829 
Q 28.025343 15.993821 27.707097 15.993821 
Q 27.309677 15.993821 26.93244 15.894466 
Q 26.555202 15.795111 26.271109 15.587087 
Q 25.988569 15.37751 25.814698 15.054607 
Q 25.640827 14.731704 25.640827 14.284607 
L 24.746633 14.284607 
Q 24.746633 14.930413 24.979496 15.402349 
Q 25.213911 15.874284 25.615988 16.177006 
Q 26.018065 16.479728 26.548992 16.62876 
Q 27.081472 16.777792 27.677601 16.777792 
Q 28.163508 16.777792 28.655625 16.662913 
Q 29.147742 16.549587 29.545161 16.296542 
Q 29.942581 16.043498 30.195625 15.641421 
Q 30.448669 15.237792 30.448669 14.672712 
Q 30.448669 14.144889 30.254617 13.797147 
Q 30.062117 13.449405 29.739214 13.2212 
Q 29.41631 12.992994 29.008024 12.859486 
Q 28.60129 12.724425 28.179032 12.625071 
Q 27.756774 12.525716 27.348488 12.441885 
Q 26.941754 12.356502 26.618851 12.227651 
Q 26.295948 12.0988 26.101895 11.895433 
Q 25.909395 11.692067 25.909395 11.362954 
Q 25.909395 11.015212 26.042903 10.782349 
Q 26.176411 10.549486 26.39996 10.409768 
Q 26.623508 10.27005 26.912258 10.211058 
Q 27.201008 10.152067 27.499073 10.152067 
Q 28.233367 10.152067 28.705302 10.495151 
Q 29.177238 10.836683 29.256411 11.602026 
z
M 31.422346 11.48249 
L 31.422346 16.619446 
L 32.266862 16.619446 
L 32.266862 14.334284 
Q 32.266862 13.83751 32.366217 13.455615 
Q 32.465571 13.072167 32.684462 12.805151 
Q 32.903354 12.536583 33.26041 12.396865 
Q 33.619019 12.257147 34.125108 12.257147 
L 34.125108 11.362954 
Q 33.440491 11.344325 32.993394 11.642389 
Q 32.546297 11.940454 32.237366 12.566079 
L 32.217184 12.566079 
L 32.217184 11.48249 
L 31.422346 11.48249 
z
"/>
   </g>
   <g id="text_2">
    <path d="M 26.763226 26.713276 
L 26.763226 33.012994 
L 27.707097 33.012994 
L 27.707097 26.713276 
L 30.071431 26.713276 
L 30.071431 25.918438 
L 24.398891 25.918438 
L 24.398891 26.713276 
L 26.763226 26.713276 
z
M 31.612362 26.952349 
L 31.612362 25.918438 
L 30.767846 25.918438 
L 30.767846 26.952349 
L 31.612362 26.952349 
z
M 30.767846 27.876038 
L 30.767846 33.012994 
L 31.612362 33.012994 
L 31.612362 27.876038 
L 30.767846 27.876038 
z
" style="stroke: #ffffff; stroke-width: 2.980645"/>
    <path d="M 26.763226 26.713276 
L 26.763226 33.012994 
L 27.707097 33.012994 
L 27.707097 26.713276 
L 30.071431 26.713276 
L 30.071431 25.918438 
L 24.398891 25.918438 
L 24.398891 26.713276 
L 26.763226 26.713276 
z
M 31.612362 26.952349 
L 31.612362 25.918438 
L 30.767846 25.918438 
L 30.767846 26.952349 
L 31.612362 26.952349 
z
M 30.767846 27.876038 
L 30.767846 33.012994 
L 31.612362 33.012994 
L 31.612362 27.876038 
L 30.767846 27.876038 
z
"/>
   </g>
   <g id="text_3">
    <path d="M 25.699819 45.859264 
Q 25.699819 45.323679 25.837984 44.802067 
Q 25.977702 44.280454 26.275766 43.862853 
Q 26.573831 43.445252 27.041109 43.192208 
Q 27.508387 42.939163 28.154194 42.939163 
Q 28.8 42.939163 29.267278 43.192208 
Q 29.734556 43.445252 30.032621 43.862853 
Q 30.330685 44.280454 30.468851 44.802067 
Q 30.608569 45.323679 30.608569 45.859264 
Q 30.608569 46.396401 30.468851 46.918014 
Q 30.330685 47.439627 30.032621 47.857228 
Q 29.734556 48.273276 29.267278 48.527873 
Q 28.8 48.780917 28.154194 48.780917 
Q 27.508387 48.780917 27.041109 48.527873 
Q 26.573831 48.273276 26.275766 47.857228 
Q 25.977702 47.439627 25.837984 46.918014 
Q 25.699819 46.396401 25.699819 45.859264 
z
M 24.755948 45.859264 
Q 24.755948 46.584244 24.968629 47.254889 
Q 25.182863 47.925534 25.609778 48.44249 
Q 26.038246 48.959446 26.673185 49.262167 
Q 27.309677 49.564889 28.154194 49.564889 
Q 28.99871 49.564889 29.633649 49.262167 
Q 30.270141 48.959446 30.697056 48.44249 
Q 31.125524 47.925534 31.338206 47.254889 
Q 31.55244 46.584244 31.55244 45.859264 
Q 31.55244 45.134284 31.338206 44.463639 
Q 31.125524 43.792994 30.697056 43.276038 
Q 30.270141 42.759083 29.633649 42.451704 
Q 28.99871 42.144325 28.154194 42.144325 
Q 27.309677 42.144325 26.673185 42.451704 
Q 26.038246 42.759083 25.609778 43.276038 
Q 25.182863 43.792994 24.968629 44.463639 
Q 24.755948 45.134284 24.755948 45.859264 
z
" style="stroke: #ffffff; stroke-width: 2.980645"/>
    <path d="M 25.699819 45.859264 
Q 25.699819 45.323679 25.837984 44.802067 
Q 25.977702 44.280454 26.275766 43.862853 
Q 26.573831 43.445252 27.041109 43.192208 
Q 27.508387 42.939163 28.154194 42.939163 
Q 28.8 42.939163 29.267278 43.192208 
Q 29.734556 43.445252 30.032621 43.862853 
Q 30.330685 44.280454 30.468851 44.802067 
Q 30.608569 45.323679 30.608569 45.859264 
Q 30.608569 46.396401 30.468851 46.918014 
Q 30.330685 47.439627 30.032621 47.857228 
Q 29.734556 48.273276 29.267278 48.527873 
Q 28.8 48.780917 28.154194 48.780917 
Q 27.508387 48.780917 27.041109 48.527873 
Q 26.573831 48.273276 26.275766 47.857228 
Q 25.977702 47.439627 25.837984 46.918014 
Q 25.699819 46.396401 25.699819 45.859264 
z
M 24.755948 45.859264 
Q 24.755948 46.584244 24.968629 47.254889 
Q 25.182863 47.925534 25.609778 48.44249 
Q 26.038246 48.959446 26.673185 49.262167 
Q 27.309677 49.564889 28.154194 49.564889 
Q 28.99871 49.564889 29.633649 49.262167 
Q 30.270141 48.959446 30.697056 48.44249 
Q 31.125524 47.925534 31.338206 47.254889 
Q 31.55244 46.584244 31.55244 45.859264 
Q 31.55244 45.134284 31.338206 44.463639 
Q 31.125524 43.792994 30.697056 43.276038 
Q 30.270141 42.759083 29.633649 42.451704 
Q 28.99871 42.144325 28.154194 42.144325 
Q 27.309677 42.144325 26.673185 42.451704 
Q 26.038246 42.759083 25.609778 43.276038 
Q 25.182863 43.792994 24.968629 44.463639 
Q 24.755948 45.134284 24.755948 45.859264 
z
"/>
   </g>
  </g>
 </g>
 <defs>
  <clipPath id="pb445777a75">
   <rect x="-185.717032" y="-145.274452" width="221.76" height="221.76"/>
  </clipPath>
 </defs>
</svg>
