<?xml version="1.0" encoding="utf-8" standalone="no"?>
<!DOCTYPE svg PUBLIC "-//W3C//DTD SVG 1.1//EN"
  "http://www.w3.org/Graphics/SVG/1.1/DTD/svg11.dtd">
<svg xmlns:xlink="http://www.w3.org/1999/xlink" width="54pt" height="97.2pt" viewBox="0 0 54 97.2" xmlns="http://www.w3.org/2000/svg" version="1.1">
 <metadata>
  <rdf:RDF xmlns:dc="http://purl.org/dc/elements/1.1/" xmlns:cc="http://creativecommons.org/ns#" xmlns:rdf="http://www.w3.org/1999/02/22-rdf-syntax-ns#">
   <cc:Work>
    <dc:type rdf:resource="http://purl.org/dc/dcmitype/StillImage"/>
    <dc:date>2026-02-24T20:06:22.866696</dc:date>
    <dc:format>image/svg+xml</dc:format>
    <dc:creator>
     <cc:Agent>
      <dc:title>Matplotlib v3.10.7, https://matplotlib.org/</dc:title>
     </cc:Agent>
    </dc:creator>
   </cc:Work>
  </rdf:RDF>
 </metadata>
 <defs>
  <style type="text/css">*{stroke-linejoin: round; stroke-linecap: butt}</style>
 </defs>
 <g id="figure_1">
  <g id="patch_1">
   <path d="M 0 97.2 
L 54 97.2 
L 54 0 
L 0 0 
z
" style="fill: #ffffff"/>
  </g>
  <g id="axes_1">
   <g id="line2d_1">
    <defs>
     <path id="mcc7aadd631" d="M 0 4.967742 
C 1.317461 4.967742 2.581139 4.444309 3.512724 3.512724 
C 4.444309 2.581139 4.967742 1.317461 4.967742 0 
C 4.967742 -1.317461 4.444309 -2.581139 3.512724 -3.512724 
C 2.581139 -4.444309 1.317461 -4.967742 0 -4.967742 
C -1.317461 -4.967742 -2.581139 -4.444309 -3.512724 -3.512724 
C -4.444309 -2.581139 -4.967742 -1.317461 -4.967742 0 
C -4.967742 1.317461 -4.444309 2.581139 -3.512724 3.512724 
C -2.581139 4.444309 -1.317461 4.967742 0 4.967742 
z
" style="stroke: #262626; stroke-width: 0.993548"/>
    </defs>
    <g clip-path="url(#p99d521ff23)">
     <use xlink:href="#mcc7aadd631" x="11.521581" y="19.452065" style="fill: #51b04d; stroke: #262626; stroke-width: 0.993548"/>
    </g>
   </g>
   <g id="line2d_2">
    <defs>
     <path id="m2feaee24e1" d="M 0 4.967742 
C 1.317461 4.967742 2.581139 4.444309 3.512724 3.512724 
C 4.444309 2.581139 4.967742 1.317461 4.967742 0 
C 4.967742 -1.317461 4.444309 -2.581139 3.512724 -3.512724 
C 2.581139 -4.444309 1.317461 -4.967742 0 -4.967742 
C -1.317461 -4.967742 -2.581139 -4.444309 -3.512724 -3.512724 
C -4.444309 -2.581139 -4.967742 -1.317461 -4.967742 0 
C -4.967742 1.317461 -4.444309 2.581139 -3.512724 3.512724 
C -2.581139 4.444309 -1.317461 4.967742 0 4.967742 
z
" style="stroke: #262626; stroke-width: 0.993548"/>
    </defs>
    <g clip-path="url(#p99d521ff23)">
     <use xlink:href="#m2feaee24e1" x="11.521581" y="32.616581" style="fill: #477b9d; stroke: #262626; stroke-width: 0.993548"/>
    </g>
   </g>
   <g id="line2d_3">
    <defs>
     <path id="mafd38ef36a" d="M 0 4.967742 
C 1.317461 4.967742 2.581139 4.444309 3.512724 3.512724 
C 4.444309 2.581139 4.967742 1.317461 4.967742 0 
C 4.967742 -1.317461 4.444309 -2.581139 3.512724 -3.512724 
C 2.581139 -4.444309 1.317461 -4.967742 0 -4.967742 
C -1.317461 -4.967742 -2.581139 -4.444309 -3.512724 -3.512724 
C -4.444309 -2.581139 -4.967742 -1.317461 -4.967742 0 
C -4.967742 1.317461 -4.444309 2.581139 -3.512724 3.512724 
C -2.581139 4.444309 -1.317461 4.967742 0 4.967742 
z
" style="stroke: #262626; stroke-width: 0.993548"/>
    </defs>
    <g clip-path="url(#p99d521ff23)">
     <use xlink:href="#mafd38ef36a" x="11.521581" y="45.781097" style="fill: #f03f37; stroke: #262626; stroke-width: 0.993548"/>
    </g>
   </g>
   <g id="line2d_4">
    <defs>
     <path id="mc190c0e6c6" d="M 0 -4.967742 
L -4.302191 -2.483871 
L -4.302191 2.483871 
L -0 4.967742 
L 4.302191 2.483871 
L 4.302191 -2.483871 
z
" style="stroke: #262626; stroke-width: 0.993548; stroke-linejoin: miter"/>
    </defs>
    <g clip-path="url(#p99d521ff23)">
     <use xlink:href="#mc190c0e6c6" x="11.521581" y="63.664968" style="fill: #80b2ff; stroke: #262626; stroke-width: 0.993548; stroke-linejoin: miter"/>
    </g>
   </g>
   <g id="line2d_5">
    <defs>
     <path id="m4beabb7af5" d="M -3.512724 -3.512724 
L -3.512724 3.512724 
L 3.512724 3.512724 
L 3.512724 -3.512724 
z
" style="stroke: #262626; stroke-width: 0.993548; stroke-linejoin: miter"/>
    </defs>
    <g clip-path="url(#p99d521ff23)">
     <use xlink:href="#m4beabb7af5" x="11.521581" y="76.829484" style="fill: #d9a6d9; stroke: #262626; stroke-width: 0.993548; stroke-linejoin: miter"/>
    </g>
   </g>
   <g id="text_1">
    <path d="M 26.334767 17.915169 
L 27.22896 17.915169 
Q 27.210331 17.328355 27.005412 16.906097 
Q 26.802045 16.483839 26.449646 16.205956 
Q 26.097246 15.928073 25.629968 15.799222 
Q 25.16269 15.670371 24.616238 15.670371 
Q 24.130331 15.670371 23.66771 15.794565 
Q 23.205089 15.918758 22.841823 16.171802 
Q 22.480109 16.424847 22.261218 16.817609 
Q 22.04388 17.210371 22.04388 17.745956 
Q 22.04388 18.233415 22.23638 18.556319 
Q 22.430432 18.879222 22.753335 19.082589 
Q 23.076238 19.285956 23.482972 19.410149 
Q 23.891259 19.534343 24.313517 19.62904 
Q 24.735775 19.723738 25.142509 19.813778 
Q 25.550795 19.902266 25.873698 20.046641 
Q 26.196601 20.191016 26.389101 20.419222 
Q 26.583154 20.647427 26.583154 21.015351 
Q 26.583154 21.401903 26.424807 21.65029 
Q 26.26646 21.898677 26.007206 22.043052 
Q 25.749505 22.187427 25.426601 22.247972 
Q 25.103698 22.306964 24.785452 22.306964 
Q 24.388033 22.306964 24.010795 22.207609 
Q 23.633557 22.108254 23.349464 21.90023 
Q 23.066924 21.690653 22.893053 21.36775 
Q 22.719182 21.044847 22.719182 20.59775 
L 21.824988 20.59775 
Q 21.824988 21.243556 22.057851 21.715492 
Q 22.292267 22.187427 22.694343 22.490149 
Q 23.09642 22.792871 23.627347 22.941903 
Q 24.159827 23.090935 24.755956 23.090935 
Q 25.241863 23.090935 25.73398 22.976056 
Q 26.226097 22.86273 26.623517 22.609685 
Q 27.020936 22.356641 27.27398 21.954565 
Q 27.527025 21.550935 27.527025 20.985855 
Q 27.527025 20.458032 27.332972 20.11029 
Q 27.140472 19.762548 26.817569 19.534343 
Q 26.494666 19.306137 26.08638 19.172629 
Q 25.679646 19.037569 25.257388 18.938214 
Q 24.83513 18.838859 24.426843 18.755028 
Q 24.020109 18.669645 23.697206 18.540794 
Q 23.374303 18.411944 23.18025 18.208577 
Q 22.98775 18.00521 22.98775 17.676097 
Q 22.98775 17.328355 23.121259 17.095492 
Q 23.254767 16.862629 23.478315 16.722911 
Q 23.701863 16.583194 23.990613 16.524202 
Q 24.279363 16.46521 24.577428 16.46521 
Q 25.311722 16.46521 25.783658 16.808294 
Q 26.255593 17.149827 26.334767 17.915169 
z
M 28.500701 17.795633 
L 28.500701 22.932589 
L 29.345217 22.932589 
L 29.345217 20.647427 
Q 29.345217 20.150653 29.444572 19.768758 
Q 29.543927 19.38531 29.762818 19.118294 
Q 29.981709 18.849726 30.338765 18.710008 
Q 30.697374 18.57029 31.203463 18.57029 
L 31.203463 17.676097 
Q 30.518846 17.657468 30.071749 17.955532 
Q 29.624652 18.253597 29.315721 18.879222 
L 29.29554 18.879222 
L 29.29554 17.795633 
L 28.500701 17.795633 
z
M 32.633318 18.552127 
L 35.027304 18.552127 
L 35.027304 19.129161 
L 31.808517 19.129161 
L 31.808517 18.552127 
Q 32.19864 18.147877 32.87239 17.467607 
Q 33.547227 16.78625 33.720011 16.588472 
Q 34.049279 16.218996 34.179683 15.962536 
Q 34.311172 15.706077 34.311172 15.45831 
Q 34.311172 15.05406 34.027545 14.799774 
Q 33.743918 14.544401 33.288594 14.544401 
Q 32.965846 14.544401 32.607237 14.656331 
Q 32.249715 14.76826 31.842205 14.996466 
L 31.842205 14.303155 
Q 32.256235 14.136891 32.615931 14.052129 
Q 32.976713 13.967367 33.275554 13.967367 
Q 34.063406 13.967367 34.531771 14.361837 
Q 35.000136 14.75522 35.000136 15.413756 
Q 35.000136 15.726724 34.882773 16.007091 
Q 34.766497 16.286371 34.456789 16.666714 
Q 34.372027 16.765603 33.916703 17.236141 
Q 33.462465 17.706679 32.633318 18.552127 
z
M 39.14877 14.76826 
L 39.14877 16.660194 
L 41.039617 16.660194 
L 41.039617 17.237228 
L 39.14877 17.237228 
L 39.14877 19.129161 
L 38.578256 19.129161 
L 38.578256 17.237228 
L 36.686322 17.237228 
L 36.686322 16.660194 
L 38.578256 16.660194 
L 38.578256 14.76826 
L 39.14877 14.76826 
z
" style="stroke: #ffffff; stroke-width: 2.980645"/>
    <path d="M 26.334767 17.915169 
L 27.22896 17.915169 
Q 27.210331 17.328355 27.005412 16.906097 
Q 26.802045 16.483839 26.449646 16.205956 
Q 26.097246 15.928073 25.629968 15.799222 
Q 25.16269 15.670371 24.616238 15.670371 
Q 24.130331 15.670371 23.66771 15.794565 
Q 23.205089 15.918758 22.841823 16.171802 
Q 22.480109 16.424847 22.261218 16.817609 
Q 22.04388 17.210371 22.04388 17.745956 
Q 22.04388 18.233415 22.23638 18.556319 
Q 22.430432 18.879222 22.753335 19.082589 
Q 23.076238 19.285956 23.482972 19.410149 
Q 23.891259 19.534343 24.313517 19.62904 
Q 24.735775 19.723738 25.142509 19.813778 
Q 25.550795 19.902266 25.873698 20.046641 
Q 26.196601 20.191016 26.389101 20.419222 
Q 26.583154 20.647427 26.583154 21.015351 
Q 26.583154 21.401903 26.424807 21.65029 
Q 26.26646 21.898677 26.007206 22.043052 
Q 25.749505 22.187427 25.426601 22.247972 
Q 25.103698 22.306964 24.785452 22.306964 
Q 24.388033 22.306964 24.010795 22.207609 
Q 23.633557 22.108254 23.349464 21.90023 
Q 23.066924 21.690653 22.893053 21.36775 
Q 22.719182 21.044847 22.719182 20.59775 
L 21.824988 20.59775 
Q 21.824988 21.243556 22.057851 21.715492 
Q 22.292267 22.187427 22.694343 22.490149 
Q 23.09642 22.792871 23.627347 22.941903 
Q 24.159827 23.090935 24.755956 23.090935 
Q 25.241863 23.090935 25.73398 22.976056 
Q 26.226097 22.86273 26.623517 22.609685 
Q 27.020936 22.356641 27.27398 21.954565 
Q 27.527025 21.550935 27.527025 20.985855 
Q 27.527025 20.458032 27.332972 20.11029 
Q 27.140472 19.762548 26.817569 19.534343 
Q 26.494666 19.306137 26.08638 19.172629 
Q 25.679646 19.037569 25.257388 18.938214 
Q 24.83513 18.838859 24.426843 18.755028 
Q 24.020109 18.669645 23.697206 18.540794 
Q 23.374303 18.411944 23.18025 18.208577 
Q 22.98775 18.00521 22.98775 17.676097 
Q 22.98775 17.328355 23.121259 17.095492 
Q 23.254767 16.862629 23.478315 16.722911 
Q 23.701863 16.583194 23.990613 16.524202 
Q 24.279363 16.46521 24.577428 16.46521 
Q 25.311722 16.46521 25.783658 16.808294 
Q 26.255593 17.149827 26.334767 17.915169 
z
M 28.500701 17.795633 
L 28.500701 22.932589 
L 29.345217 22.932589 
L 29.345217 20.647427 
Q 29.345217 20.150653 29.444572 19.768758 
Q 29.543927 19.38531 29.762818 19.118294 
Q 29.981709 18.849726 30.338765 18.710008 
Q 30.697374 18.57029 31.203463 18.57029 
L 31.203463 17.676097 
Q 30.518846 17.657468 30.071749 17.955532 
Q 29.624652 18.253597 29.315721 18.879222 
L 29.29554 18.879222 
L 29.29554 17.795633 
L 28.500701 17.795633 
z
M 32.633318 18.552127 
L 35.027304 18.552127 
L 35.027304 19.129161 
L 31.808517 19.129161 
L 31.808517 18.552127 
Q 32.19864 18.147877 32.87239 17.467607 
Q 33.547227 16.78625 33.720011 16.588472 
Q 34.049279 16.218996 34.179683 15.962536 
Q 34.311172 15.706077 34.311172 15.45831 
Q 34.311172 15.05406 34.027545 14.799774 
Q 33.743918 14.544401 33.288594 14.544401 
Q 32.965846 14.544401 32.607237 14.656331 
Q 32.249715 14.76826 31.842205 14.996466 
L 31.842205 14.303155 
Q 32.256235 14.136891 32.615931 14.052129 
Q 32.976713 13.967367 33.275554 13.967367 
Q 34.063406 13.967367 34.531771 14.361837 
Q 35.000136 14.75522 35.000136 15.413756 
Q 35.000136 15.726724 34.882773 16.007091 
Q 34.766497 16.286371 34.456789 16.666714 
Q 34.372027 16.765603 33.916703 17.236141 
Q 33.462465 17.706679 32.633318 18.552127 
z
M 39.14877 14.76826 
L 39.14877 16.660194 
L 41.039617 16.660194 
L 41.039617 17.237228 
L 39.14877 17.237228 
L 39.14877 19.129161 
L 38.578256 19.129161 
L 38.578256 17.237228 
L 36.686322 17.237228 
L 36.686322 16.660194 
L 38.578256 16.660194 
L 38.578256 14.76826 
L 39.14877 14.76826 
z
"/>
   </g>
   <g id="text_2">
    <path d="M 23.841581 29.779534 
L 23.841581 36.079252 
L 24.785452 36.079252 
L 24.785452 29.779534 
L 27.149787 29.779534 
L 27.149787 28.984696 
L 21.477246 28.984696 
L 21.477246 29.779534 
L 23.841581 29.779534 
z
M 28.690718 30.018607 
L 28.690718 28.984696 
L 27.846201 28.984696 
L 27.846201 30.018607 
L 28.690718 30.018607 
z
M 27.846201 30.942296 
L 27.846201 36.079252 
L 28.690718 36.079252 
L 28.690718 30.942296 
L 27.846201 30.942296 
z
" style="stroke: #ffffff; stroke-width: 2.980645"/>
    <path d="M 23.841581 29.779534 
L 23.841581 36.079252 
L 24.785452 36.079252 
L 24.785452 29.779534 
L 27.149787 29.779534 
L 27.149787 28.984696 
L 21.477246 28.984696 
L 21.477246 29.779534 
L 23.841581 29.779534 
z
M 28.690718 30.018607 
L 28.690718 28.984696 
L 27.846201 28.984696 
L 27.846201 30.018607 
L 28.690718 30.018607 
z
M 27.846201 30.942296 
L 27.846201 36.079252 
L 28.690718 36.079252 
L 28.690718 30.942296 
L 27.846201 30.942296 
z
"/>
   </g>
   <g id="text_3">
    <path d="M 22.778174 45.69649 
Q 22.778174 45.160905 22.916339 44.639292 
Q 23.056057 44.117679 23.354121 43.700079 
Q 23.652186 43.282478 24.119464 43.029433 
Q 24.586742 42.776389 25.232549 42.776389 
Q 25.878355 42.776389 26.345634 43.029433 
Q 26.812912 43.282478 27.110976 43.700079 
Q 27.409041 44.117679 27.547206 44.639292 
Q 27.686924 45.160905 27.686924 45.69649 
Q 27.686924 46.233627 27.547206 46.75524 
Q 27.409041 47.276853 27.110976 47.694454 
Q 26.812912 48.110502 26.345634 48.365099 
Q 25.878355 48.618143 25.232549 48.618143 
Q 24.586742 48.618143 24.119464 48.365099 
Q 23.652186 48.110502 23.354121 47.694454 
Q 23.056057 47.276853 22.916339 46.75524 
Q 22.778174 46.233627 22.778174 45.69649 
z
M 21.834303 45.69649 
Q 21.834303 46.42147 22.046984 47.092115 
Q 22.261218 47.76276 22.688134 48.279716 
Q 23.116601 48.796671 23.751541 49.099393 
Q 24.388033 49.402115 25.232549 49.402115 
Q 26.077065 49.402115 26.712005 49.099393 
Q 27.348496 48.796671 27.775412 48.279716 
Q 28.20388 47.76276 28.416561 47.092115 
Q 28.630795 46.42147 28.630795 45.69649 
Q 28.630795 44.97151 28.416561 44.300865 
Q 28.20388 43.63022 27.775412 43.113264 
Q 27.348496 42.596308 26.712005 42.288929 
Q 26.077065 41.98155 25.232549 41.98155 
Q 24.388033 41.98155 23.751541 42.288929 
Q 23.116601 42.596308 22.688134 43.113264 
Q 22.261218 43.63022 22.046984 44.300865 
Q 21.834303 44.97151 21.834303 45.69649 
z
" style="stroke: #ffffff; stroke-width: 2.980645"/>
    <path d="M 22.778174 45.69649 
Q 22.778174 45.160905 22.916339 44.639292 
Q 23.056057 44.117679 23.354121 43.700079 
Q 23.652186 43.282478 24.119464 43.029433 
Q 24.586742 42.776389 25.232549 42.776389 
Q 25.878355 42.776389 26.345634 43.029433 
Q 26.812912 43.282478 27.110976 43.700079 
Q 27.409041 44.117679 27.547206 44.639292 
Q 27.686924 45.160905 27.686924 45.69649 
Q 27.686924 46.233627 27.547206 46.75524 
Q 27.409041 47.276853 27.110976 47.694454 
Q 26.812912 48.110502 26.345634 48.365099 
Q 25.878355 48.618143 25.232549 48.618143 
Q 24.586742 48.618143 24.119464 48.365099 
Q 23.652186 48.110502 23.354121 47.694454 
Q 23.056057 47.276853 22.916339 46.75524 
Q 22.778174 46.233627 22.778174 45.69649 
z
M 21.834303 45.69649 
Q 21.834303 46.42147 22.046984 47.092115 
Q 22.261218 47.76276 22.688134 48.279716 
Q 23.116601 48.796671 23.751541 49.099393 
Q 24.388033 49.402115 25.232549 49.402115 
Q 26.077065 49.402115 26.712005 49.099393 
Q 27.348496 48.796671 27.775412 48.279716 
Q 28.20388 47.76276 28.416561 47.092115 
Q 28.630795 46.42147 28.630795 45.69649 
Q 28.630795 44.97151 28.416561 44.300865 
Q 28.20388 43.63022 27.775412 43.113264 
Q 27.348496 42.596308 26.712005 42.288929 
Q 26.077065 41.98155 25.232549 41.98155 
Q 24.388033 41.98155 23.751541 42.288929 
Q 23.116601 42.596308 22.688134 43.113264 
Q 22.261218 43.63022 22.046984 44.300865 
Q 21.834303 44.97151 21.834303 45.69649 
z
"/>
   </g>
   <g id="text_4">
    <path d="M 23.841581 60.782125 
L 23.841581 67.081843 
L 24.785452 67.081843 
L 24.785452 60.782125 
L 27.149787 60.782125 
L 27.149787 59.987286 
L 21.477246 59.987286 
L 21.477246 60.782125 
L 23.841581 60.782125 
z
M 28.690718 61.021198 
L 28.690718 59.987286 
L 27.846201 59.987286 
L 27.846201 61.021198 
L 28.690718 61.021198 
z
M 27.846201 61.944887 
L 27.846201 67.081843 
L 28.690718 67.081843 
L 28.690718 61.944887 
L 27.846201 61.944887 
z
M 30.686818 63.534565 
Q 30.686818 62.99898 30.824983 62.477367 
Q 30.964701 61.955754 31.262766 61.538153 
Q 31.56083 61.120552 32.028108 60.867508 
Q 32.495387 60.614464 33.141193 60.614464 
Q 33.787 60.614464 34.254278 60.867508 
Q 34.721556 61.120552 35.019621 61.538153 
Q 35.317685 61.955754 35.45585 62.477367 
Q 35.595568 62.99898 35.595568 63.534565 
Q 35.595568 64.071702 35.45585 64.593315 
Q 35.317685 65.114927 35.019621 65.532528 
Q 34.721556 65.948577 34.254278 66.203173 
Q 33.787 66.456218 33.141193 66.456218 
Q 32.495387 66.456218 32.028108 66.203173 
Q 31.56083 65.948577 31.262766 65.532528 
Q 30.964701 65.114927 30.824983 64.593315 
Q 30.686818 64.071702 30.686818 63.534565 
z
M 29.742947 63.534565 
Q 29.742947 64.259544 29.955629 64.93019 
Q 30.169862 65.600835 30.596778 66.11779 
Q 31.025246 66.634746 31.660185 66.937468 
Q 32.296677 67.24019 33.141193 67.24019 
Q 33.985709 67.24019 34.620649 66.937468 
Q 35.257141 66.634746 35.684056 66.11779 
Q 36.112524 65.600835 36.325205 64.93019 
Q 36.539439 64.259544 36.539439 63.534565 
Q 36.539439 62.809585 36.325205 62.13894 
Q 36.112524 61.468294 35.684056 60.951339 
Q 35.257141 60.434383 34.620649 60.127004 
Q 33.985709 59.819625 33.141193 59.819625 
Q 32.296677 59.819625 31.660185 60.127004 
Q 31.025246 60.434383 30.596778 60.951339 
Q 30.169862 61.468294 29.955629 62.13894 
Q 29.742947 62.809585 29.742947 63.534565 
z
M 39.307945 65.903867 
Q 38.8461 65.903867 38.575513 66.220095 
Q 38.306013 66.535236 38.306013 67.085103 
Q 38.306013 67.63171 38.575513 67.950111 
Q 38.8461 68.267425 39.307945 68.267425 
Q 39.769789 68.267425 40.039289 67.950111 
Q 40.308789 67.63171 40.308789 67.085103 
Q 40.308789 66.535236 40.039289 66.220095 
Q 39.769789 65.903867 39.307945 65.903867 
z
M 40.669572 63.7533 
L 40.669572 64.378149 
Q 40.410939 64.25644 40.147959 64.192325 
Q 39.884979 64.127123 39.626346 64.127123 
Q 38.947162 64.127123 38.588554 64.585708 
Q 38.231031 65.044292 38.179957 65.971242 
Q 38.379908 65.675661 38.682009 65.518091 
Q 38.985197 65.36052 39.348152 65.36052 
Q 40.112098 65.36052 40.555469 65.824538 
Q 40.99884 66.28747 40.99884 67.085103 
Q 40.99884 67.866435 40.536995 68.339147 
Q 40.07515 68.810772 39.307945 68.810772 
Q 38.427723 68.810772 37.962618 68.137022 
Q 37.497513 67.462185 37.497513 66.18206 
Q 37.497513 64.980177 38.068027 64.265133 
Q 38.638541 63.550089 39.599179 63.550089 
Q 39.857812 63.550089 40.120791 63.601163 
Q 40.383771 63.652238 40.669572 63.7533 
z
" style="stroke: #ffffff; stroke-width: 2.980645"/>
    <path d="M 23.841581 60.782125 
L 23.841581 67.081843 
L 24.785452 67.081843 
L 24.785452 60.782125 
L 27.149787 60.782125 
L 27.149787 59.987286 
L 21.477246 59.987286 
L 21.477246 60.782125 
L 23.841581 60.782125 
z
M 28.690718 61.021198 
L 28.690718 59.987286 
L 27.846201 59.987286 
L 27.846201 61.021198 
L 28.690718 61.021198 
z
M 27.846201 61.944887 
L 27.846201 67.081843 
L 28.690718 67.081843 
L 28.690718 61.944887 
L 27.846201 61.944887 
z
M 30.686818 63.534565 
Q 30.686818 62.99898 30.824983 62.477367 
Q 30.964701 61.955754 31.262766 61.538153 
Q 31.56083 61.120552 32.028108 60.867508 
Q 32.495387 60.614464 33.141193 60.614464 
Q 33.787 60.614464 34.254278 60.867508 
Q 34.721556 61.120552 35.019621 61.538153 
Q 35.317685 61.955754 35.45585 62.477367 
Q 35.595568 62.99898 35.595568 63.534565 
Q 35.595568 64.071702 35.45585 64.593315 
Q 35.317685 65.114927 35.019621 65.532528 
Q 34.721556 65.948577 34.254278 66.203173 
Q 33.787 66.456218 33.141193 66.456218 
Q 32.495387 66.456218 32.028108 66.203173 
Q 31.56083 65.948577 31.262766 65.532528 
Q 30.964701 65.114927 30.824983 64.593315 
Q 30.686818 64.071702 30.686818 63.534565 
z
M 29.742947 63.534565 
Q 29.742947 64.259544 29.955629 64.93019 
Q 30.169862 65.600835 30.596778 66.11779 
Q 31.025246 66.634746 31.660185 66.937468 
Q 32.296677 67.24019 33.141193 67.24019 
Q 33.985709 67.24019 34.620649 66.937468 
Q 35.257141 66.634746 35.684056 66.11779 
Q 36.112524 65.600835 36.325205 64.93019 
Q 36.539439 64.259544 36.539439 63.534565 
Q 36.539439 62.809585 36.325205 62.13894 
Q 36.112524 61.468294 35.684056 60.951339 
Q 35.257141 60.434383 34.620649 60.127004 
Q 33.985709 59.819625 33.141193 59.819625 
Q 32.296677 59.819625 31.660185 60.127004 
Q 31.025246 60.434383 30.596778 60.951339 
Q 30.169862 61.468294 29.955629 62.13894 
Q 29.742947 62.809585 29.742947 63.534565 
z
M 39.307945 65.903867 
Q 38.8461 65.903867 38.575513 66.220095 
Q 38.306013 66.535236 38.306013 67.085103 
Q 38.306013 67.63171 38.575513 67.950111 
Q 38.8461 68.267425 39.307945 68.267425 
Q 39.769789 68.267425 40.039289 67.950111 
Q 40.308789 67.63171 40.308789 67.085103 
Q 40.308789 66.535236 40.039289 66.220095 
Q 39.769789 65.903867 39.307945 65.903867 
z
M 40.669572 63.7533 
L 40.669572 64.378149 
Q 40.410939 64.25644 40.147959 64.192325 
Q 39.884979 64.127123 39.626346 64.127123 
Q 38.947162 64.127123 38.588554 64.585708 
Q 38.231031 65.044292 38.179957 65.971242 
Q 38.379908 65.675661 38.682009 65.518091 
Q 38.985197 65.36052 39.348152 65.36052 
Q 40.112098 65.36052 40.555469 65.824538 
Q 40.99884 66.28747 40.99884 67.085103 
Q 40.99884 67.866435 40.536995 68.339147 
Q 40.07515 68.810772 39.307945 68.810772 
Q 38.427723 68.810772 37.962618 68.137022 
Q 37.497513 67.462185 37.497513 66.18206 
Q 37.497513 64.980177 38.068027 64.265133 
Q 38.638541 63.550089 39.599179 63.550089 
Q 39.857812 63.550089 40.120791 63.601163 
Q 40.383771 63.652238 40.669572 63.7533 
z
"/>
   </g>
   <g id="text_5">
    <path d="M 26.334767 75.184696 
L 27.22896 75.184696 
Q 27.210331 74.597881 27.005412 74.175623 
Q 26.802045 73.753365 26.449646 73.475482 
Q 26.097246 73.197599 25.629968 73.068748 
Q 25.16269 72.939897 24.616238 72.939897 
Q 24.130331 72.939897 23.66771 73.064091 
Q 23.205089 73.188284 22.841823 73.441329 
Q 22.480109 73.694373 22.261218 74.087135 
Q 22.04388 74.479897 22.04388 75.015482 
Q 22.04388 75.502942 22.23638 75.825845 
Q 22.430432 76.148748 22.753335 76.352115 
Q 23.076238 76.555482 23.482972 76.679675 
Q 23.891259 76.803869 24.313517 76.898567 
Q 24.735775 76.993264 25.142509 77.083304 
Q 25.550795 77.171792 25.873698 77.316167 
Q 26.196601 77.460542 26.389101 77.688748 
Q 26.583154 77.916954 26.583154 78.284877 
Q 26.583154 78.671429 26.424807 78.919817 
Q 26.26646 79.168204 26.007206 79.312579 
Q 25.749505 79.456954 25.426601 79.517498 
Q 25.103698 79.57649 24.785452 79.57649 
Q 24.388033 79.57649 24.010795 79.477135 
Q 23.633557 79.37778 23.349464 79.169756 
Q 23.066924 78.960179 22.893053 78.637276 
Q 22.719182 78.314373 22.719182 77.867276 
L 21.824988 77.867276 
Q 21.824988 78.513083 22.057851 78.985018 
Q 22.292267 79.456954 22.694343 79.759675 
Q 23.09642 80.062397 23.627347 80.211429 
Q 24.159827 80.360462 24.755956 80.360462 
Q 25.241863 80.360462 25.73398 80.245583 
Q 26.226097 80.132256 26.623517 79.879212 
Q 27.020936 79.626167 27.27398 79.224091 
Q 27.527025 78.820462 27.527025 78.255381 
Q 27.527025 77.727558 27.332972 77.379817 
Q 27.140472 77.032075 26.817569 76.803869 
Q 26.494666 76.575663 26.08638 76.442155 
Q 25.679646 76.307095 25.257388 76.20774 
Q 24.83513 76.108385 24.426843 76.024554 
Q 24.020109 75.939171 23.697206 75.810321 
Q 23.374303 75.68147 23.18025 75.478103 
Q 22.98775 75.274736 22.98775 74.945623 
Q 22.98775 74.597881 23.121259 74.365018 
Q 23.254767 74.132155 23.478315 73.992437 
Q 23.701863 73.85272 23.990613 73.793728 
Q 24.279363 73.734736 24.577428 73.734736 
Q 25.311722 73.734736 25.783658 74.077821 
Q 26.255593 74.419353 26.334767 75.184696 
z
M 28.500701 75.065159 
L 28.500701 80.202115 
L 29.345217 80.202115 
L 29.345217 77.916954 
Q 29.345217 77.420179 29.444572 77.038284 
Q 29.543927 76.654837 29.762818 76.387821 
Q 29.981709 76.119252 30.338765 75.979534 
Q 30.697374 75.839817 31.203463 75.839817 
L 31.203463 74.945623 
Q 30.518846 74.926994 30.071749 75.225058 
Q 29.624652 75.523123 29.315721 76.148748 
L 29.29554 76.148748 
L 29.29554 75.065159 
L 28.500701 75.065159 
z
M 32.524881 76.654837 
Q 32.524881 76.119252 32.663046 75.597639 
Q 32.802764 75.076026 33.100829 74.658425 
Q 33.398893 74.240825 33.866171 73.98778 
Q 34.33345 73.734736 34.979256 73.734736 
Q 35.625063 73.734736 36.092341 73.98778 
Q 36.559619 74.240825 36.857684 74.658425 
Q 37.155748 75.076026 37.293913 75.597639 
Q 37.433631 76.119252 37.433631 76.654837 
Q 37.433631 77.191974 37.293913 77.713587 
Q 37.155748 78.2352 36.857684 78.6528 
Q 36.559619 79.068849 36.092341 79.323446 
Q 35.625063 79.57649 34.979256 79.57649 
Q 34.33345 79.57649 33.866171 79.323446 
Q 33.398893 79.068849 33.100829 78.6528 
Q 32.802764 78.2352 32.663046 77.713587 
Q 32.524881 77.191974 32.524881 76.654837 
z
M 31.58101 76.654837 
Q 31.58101 77.379817 31.793692 78.050462 
Q 32.007925 78.721107 32.434841 79.238062 
Q 32.863309 79.755018 33.498248 80.05774 
Q 34.13474 80.360462 34.979256 80.360462 
Q 35.823772 80.360462 36.458712 80.05774 
Q 37.095204 79.755018 37.522119 79.238062 
Q 37.950587 78.721107 38.163268 78.050462 
Q 38.377502 77.379817 38.377502 76.654837 
Q 38.377502 75.929857 38.163268 75.259212 
Q 37.950587 74.588567 37.522119 74.071611 
Q 37.095204 73.554655 36.458712 73.247276 
Q 35.823772 72.939897 34.979256 72.939897 
Q 34.13474 72.939897 33.498248 73.247276 
Q 32.863309 73.554655 32.434841 74.071611 
Q 32.007925 74.588567 31.793692 75.259212 
Q 31.58101 75.929857 31.58101 76.654837 
z
M 39.712659 81.255121 
L 40.83304 81.255121 
L 40.83304 77.386492 
L 39.61377 77.630998 
L 39.61377 77.006149 
L 40.82652 76.761643 
L 41.512223 76.761643 
L 41.512223 81.255121 
L 42.632604 81.255121 
L 42.632604 81.832155 
L 39.712659 81.832155 
L 39.712659 81.255121 
z
M 44.609164 81.255121 
L 47.00315 81.255121 
L 47.00315 81.832155 
L 43.784364 81.832155 
L 43.784364 81.255121 
Q 44.174487 80.850871 44.848237 80.170601 
Q 45.523073 79.489244 45.695858 79.291466 
Q 46.025126 78.92199 46.155529 78.66553 
Q 46.287019 78.409071 46.287019 78.161304 
Q 46.287019 77.757054 46.003392 77.502768 
Q 45.719765 77.247395 45.26444 77.247395 
Q 44.941692 77.247395 44.583083 77.359325 
Q 44.225561 77.471254 43.818051 77.69946 
L 43.818051 77.006149 
Q 44.232081 76.839885 44.591777 76.755123 
Q 44.952559 76.670361 45.2514 76.670361 
Q 46.039253 76.670361 46.507618 77.064831 
Q 46.975983 77.458214 46.975983 78.11675 
Q 46.975983 78.429718 46.85862 78.710085 
Q 46.742344 78.989365 46.432636 79.369708 
Q 46.347874 79.468597 45.892549 79.939135 
Q 45.438311 80.409673 44.609164 81.255121 
z
" style="stroke: #ffffff; stroke-width: 2.980645"/>
    <path d="M 26.334767 75.184696 
L 27.22896 75.184696 
Q 27.210331 74.597881 27.005412 74.175623 
Q 26.802045 73.753365 26.449646 73.475482 
Q 26.097246 73.197599 25.629968 73.068748 
Q 25.16269 72.939897 24.616238 72.939897 
Q 24.130331 72.939897 23.66771 73.064091 
Q 23.205089 73.188284 22.841823 73.441329 
Q 22.480109 73.694373 22.261218 74.087135 
Q 22.04388 74.479897 22.04388 75.015482 
Q 22.04388 75.502942 22.23638 75.825845 
Q 22.430432 76.148748 22.753335 76.352115 
Q 23.076238 76.555482 23.482972 76.679675 
Q 23.891259 76.803869 24.313517 76.898567 
Q 24.735775 76.993264 25.142509 77.083304 
Q 25.550795 77.171792 25.873698 77.316167 
Q 26.196601 77.460542 26.389101 77.688748 
Q 26.583154 77.916954 26.583154 78.284877 
Q 26.583154 78.671429 26.424807 78.919817 
Q 26.26646 79.168204 26.007206 79.312579 
Q 25.749505 79.456954 25.426601 79.517498 
Q 25.103698 79.57649 24.785452 79.57649 
Q 24.388033 79.57649 24.010795 79.477135 
Q 23.633557 79.37778 23.349464 79.169756 
Q 23.066924 78.960179 22.893053 78.637276 
Q 22.719182 78.314373 22.719182 77.867276 
L 21.824988 77.867276 
Q 21.824988 78.513083 22.057851 78.985018 
Q 22.292267 79.456954 22.694343 79.759675 
Q 23.09642 80.062397 23.627347 80.211429 
Q 24.159827 80.360462 24.755956 80.360462 
Q 25.241863 80.360462 25.73398 80.245583 
Q 26.226097 80.132256 26.623517 79.879212 
Q 27.020936 79.626167 27.27398 79.224091 
Q 27.527025 78.820462 27.527025 78.255381 
Q 27.527025 77.727558 27.332972 77.379817 
Q 27.140472 77.032075 26.817569 76.803869 
Q 26.494666 76.575663 26.08638 76.442155 
Q 25.679646 76.307095 25.257388 76.20774 
Q 24.83513 76.108385 24.426843 76.024554 
Q 24.020109 75.939171 23.697206 75.810321 
Q 23.374303 75.68147 23.18025 75.478103 
Q 22.98775 75.274736 22.98775 74.945623 
Q 22.98775 74.597881 23.121259 74.365018 
Q 23.254767 74.132155 23.478315 73.992437 
Q 23.701863 73.85272 23.990613 73.793728 
Q 24.279363 73.734736 24.577428 73.734736 
Q 25.311722 73.734736 25.783658 74.077821 
Q 26.255593 74.419353 26.334767 75.184696 
z
M 28.500701 75.065159 
L 28.500701 80.202115 
L 29.345217 80.202115 
L 29.345217 77.916954 
Q 29.345217 77.420179 29.444572 77.038284 
Q 29.543927 76.654837 29.762818 76.387821 
Q 29.981709 76.119252 30.338765 75.979534 
Q 30.697374 75.839817 31.203463 75.839817 
L 31.203463 74.945623 
Q 30.518846 74.926994 30.071749 75.225058 
Q 29.624652 75.523123 29.315721 76.148748 
L 29.29554 76.148748 
L 29.29554 75.065159 
L 28.500701 75.065159 
z
M 32.524881 76.654837 
Q 32.524881 76.119252 32.663046 75.597639 
Q 32.802764 75.076026 33.100829 74.658425 
Q 33.398893 74.240825 33.866171 73.98778 
Q 34.33345 73.734736 34.979256 73.734736 
Q 35.625063 73.734736 36.092341 73.98778 
Q 36.559619 74.240825 36.857684 74.658425 
Q 37.155748 75.076026 37.293913 75.597639 
Q 37.433631 76.119252 37.433631 76.654837 
Q 37.433631 77.191974 37.293913 77.713587 
Q 37.155748 78.2352 36.857684 78.6528 
Q 36.559619 79.068849 36.092341 79.323446 
Q 35.625063 79.57649 34.979256 79.57649 
Q 34.33345 79.57649 33.866171 79.323446 
Q 33.398893 79.068849 33.100829 78.6528 
Q 32.802764 78.2352 32.663046 77.713587 
Q 32.524881 77.191974 32.524881 76.654837 
z
M 31.58101 76.654837 
Q 31.58101 77.379817 31.793692 78.050462 
Q 32.007925 78.721107 32.434841 79.238062 
Q 32.863309 79.755018 33.498248 80.05774 
Q 34.13474 80.360462 34.979256 80.360462 
Q 35.823772 80.360462 36.458712 80.05774 
Q 37.095204 79.755018 37.522119 79.238062 
Q 37.950587 78.721107 38.163268 78.050462 
Q 38.377502 77.379817 38.377502 76.654837 
Q 38.377502 75.929857 38.163268 75.259212 
Q 37.950587 74.588567 37.522119 74.071611 
Q 37.095204 73.554655 36.458712 73.247276 
Q 35.823772 72.939897 34.979256 72.939897 
Q 34.13474 72.939897 33.498248 73.247276 
Q 32.863309 73.554655 32.434841 74.071611 
Q 32.007925 74.588567 31.793692 75.259212 
Q 31.58101 75.929857 31.58101 76.654837 
z
M 39.712659 81.255121 
L 40.83304 81.255121 
L 40.83304 77.386492 
L 39.61377 77.630998 
L 39.61377 77.006149 
L 40.82652 76.761643 
L 41.512223 76.761643 
L 41.512223 81.255121 
L 42.632604 81.255121 
L 42.632604 81.832155 
L 39.712659 81.832155 
L 39.712659 81.255121 
z
M 44.609164 81.255121 
L 47.00315 81.255121 
L 47.00315 81.832155 
L 43.784364 81.832155 
L 43.784364 81.255121 
Q 44.174487 80.850871 44.848237 80.170601 
Q 45.523073 79.489244 45.695858 79.291466 
Q 46.025126 78.92199 46.155529 78.66553 
Q 46.287019 78.409071 46.287019 78.161304 
Q 46.287019 77.757054 46.003392 77.502768 
Q 45.719765 77.247395 45.26444 77.247395 
Q 44.941692 77.247395 44.583083 77.359325 
Q 44.225561 77.471254 43.818051 77.69946 
L 43.818051 77.006149 
Q 44.232081 76.839885 44.591777 76.755123 
Q 44.952559 76.670361 45.2514 76.670361 
Q 46.039253 76.670361 46.507618 77.064831 
Q 46.975983 77.458214 46.975983 78.11675 
Q 46.975983 78.429718 46.85862 78.710085 
Q 46.742344 78.989365 46.432636 79.369708 
Q 46.347874 79.468597 45.892549 79.939135 
Q 45.438311 80.409673 44.609164 81.255121 
z
"/>
   </g>
  </g>
 </g>
 <defs>
  <clipPath id="p99d521ff23">
   <rect x="-188.638677" y="-118.363032" width="221.76" height="221.76"/>
  </clipPath>
 </defs>
</svg>
