<?xml version="1.0" encoding="utf-8" standalone="no"?>
<!DOCTYPE svg PUBLIC "-//W3C//DTD SVG 1.1//EN"
  "http://www.w3.org/Graphics/SVG/1.1/DTD/svg11.dtd">
<svg xmlns:xlink="http://www.w3.org/1999/xlink" width="64.8pt" height="57.6pt" viewBox="0 0 64.8 57.6" xmlns="http://www.w3.org/2000/svg" version="1.1">
 <metadata>
  <rdf:RDF xmlns:dc="http://purl.org/dc/elements/1.1/" xmlns:cc="http://creativecommons.org/ns#" xmlns:rdf="http://www.w3.org/1999/02/22-rdf-syntax-ns#">
   <cc:Work>
    <dc:type rdf:resource="http://purl.org/dc/dcmitype/StillImage"/>
    <dc:date>2026-02-25T16:16:42.509029</dc:date>
    <dc:format>image/svg+xml</dc:format>
    <dc:creator>
     <cc:Agent>
      <dc:title>Matplotlib v3.10.7, https://matplotlib.org/</dc:title>
     </cc:Agent>
    </dc:creator>
   </cc:Work>
  </rdf:RDF>
 </metadata>
 <defs>
  <style type="text/css">*{stroke-linejoin: round; stroke-linecap: butt}</style>
 </defs>
 <g id="figure_1">
  <g id="patch_1">
   <path d="M 0 57.6 
L 64.8 57.6 
L 64.8 0 
L 0 0 
z
" style="fill: #ffffff"/>
  </g>
  <g id="axes_1">
   <g id="line2d_1">
    <defs>
     <path id="m7dd84e61af" d="M 0 -4.967742 
L -4.302191 -2.483871 
L -4.302191 2.483871 
L -0 4.967742 
L 4.302191 2.483871 
L 4.302191 -2.483871 
z
" style="stroke: #262626; stroke-width: 0.993548; stroke-linejoin: miter"/>
    </defs>
    <g clip-path="url(#p6cc4271a60)">
     <use xlink:href="#m7dd84e61af" x="5.286129" y="16.107419" style="fill: #0000ff; stroke: #262626; stroke-width: 0.993548; stroke-linejoin: miter"/>
    </g>
   </g>
   <g id="line2d_2">
    <defs>
     <path id="m43961d39ce" d="M -3.512724 -3.512724 
L -3.512724 3.512724 
L 3.512724 3.512724 
L 3.512724 -3.512724 
z
" style="stroke: #262626; stroke-width: 0.993548; stroke-linejoin: miter"/>
    </defs>
    <g clip-path="url(#p6cc4271a60)">
     <use xlink:href="#m43961d39ce" x="5.286129" y="28.526774" style="fill: #ff0000; stroke: #262626; stroke-width: 0.993548; stroke-linejoin: miter"/>
    </g>
   </g>
   <g id="line2d_3">
    <defs>
     <path id="m3dd587562c" d="M 0 4.967742 
C 1.317461 4.967742 2.581139 4.444309 3.512724 3.512724 
C 4.444309 2.581139 4.967742 1.317461 4.967742 0 
C 4.967742 -1.317461 4.444309 -2.581139 3.512724 -3.512724 
C 2.581139 -4.444309 1.317461 -4.967742 0 -4.967742 
C -1.317461 -4.967742 -2.581139 -4.444309 -3.512724 -3.512724 
C -4.444309 -2.581139 -4.967742 -1.317461 -4.967742 0 
C -4.967742 1.317461 -4.444309 2.581139 -3.512724 3.512724 
C -2.581139 4.444309 -1.317461 4.967742 0 4.967742 
z
" style="stroke: #262626; stroke-width: 0.993548"/>
    </defs>
    <g clip-path="url(#p6cc4271a60)">
     <use xlink:href="#m3dd587562c" x="5.286129" y="40.946129" style="fill: #008000; stroke: #262626; stroke-width: 0.993548"/>
    </g>
   </g>
   <g id="text_1">
    <path d="M 16.542722 16.022813 
Q 16.542722 15.487228 16.680887 14.965615 
Q 16.820605 14.444002 17.118669 14.026401 
Q 17.416734 13.6088 17.884012 13.355756 
Q 18.35129 13.102712 18.997097 13.102712 
Q 19.642903 13.102712 20.110181 13.355756 
Q 20.57746 13.6088 20.875524 14.026401 
Q 21.173589 14.444002 21.311754 14.965615 
Q 21.451472 15.487228 21.451472 16.022813 
Q 21.451472 16.55995 21.311754 17.081563 
Q 21.173589 17.603175 20.875524 18.020776 
Q 20.57746 18.436825 20.110181 18.691421 
Q 19.642903 18.944466 18.997097 18.944466 
Q 18.35129 18.944466 17.884012 18.691421 
Q 17.416734 18.436825 17.118669 18.020776 
Q 16.820605 17.603175 16.680887 17.081563 
Q 16.542722 16.55995 16.542722 16.022813 
z
M 15.598851 16.022813 
Q 15.598851 16.747792 15.811532 17.418437 
Q 16.025766 18.089083 16.452681 18.606038 
Q 16.881149 19.122994 17.516089 19.425716 
Q 18.152581 19.728438 18.997097 19.728438 
Q 19.841613 19.728438 20.476552 19.425716 
Q 21.113044 19.122994 21.53996 18.606038 
Q 21.968427 18.089083 22.181109 17.418437 
Q 22.395343 16.747792 22.395343 16.022813 
Q 22.395343 15.297833 22.181109 14.627188 
Q 21.968427 13.956542 21.53996 13.439587 
Q 21.113044 12.922631 20.476552 12.615252 
Q 19.841613 12.307873 18.997097 12.307873 
Q 18.152581 12.307873 17.516089 12.615252 
Q 16.881149 12.922631 16.452681 13.439587 
Q 16.025766 13.956542 15.811532 14.627188 
Q 15.598851 15.297833 15.598851 16.022813 
z
M 26.895805 16.083357 
L 27.769817 16.083357 
Q 27.72014 15.625393 27.530744 15.293175 
Q 27.342902 14.959405 27.049494 14.742067 
Q 26.756087 14.523175 26.374192 14.419163 
Q 25.992297 14.313599 25.554515 14.313599 
Q 24.949071 14.313599 24.491107 14.527833 
Q 24.034696 14.742067 23.730422 15.114647 
Q 23.4277 15.487228 23.278668 15.988659 
Q 23.129636 16.490091 23.129636 17.066038 
Q 23.129636 17.641986 23.283325 18.124788 
Q 23.438567 18.606038 23.741289 18.95378 
Q 24.044011 19.301522 24.495765 19.490917 
Q 24.949071 19.67876 25.534333 19.67876 
Q 26.518567 19.67876 27.089857 19.163357 
Q 27.661148 18.646401 27.799313 17.691663 
L 26.936168 17.691663 
Q 26.855442 18.287792 26.503043 18.616905 
Q 26.150644 18.944466 25.525019 18.944466 
Q 25.127599 18.944466 24.838849 18.786119 
Q 24.551652 18.62622 24.371571 18.363861 
Q 24.193043 18.09995 24.10766 17.763075 
Q 24.023829 17.424647 24.023829 17.066038 
Q 24.023829 16.679486 24.103003 16.31622 
Q 24.183728 15.952954 24.366914 15.675071 
Q 24.551652 15.397188 24.859031 15.227974 
Q 25.16641 15.05876 25.624373 15.05876 
Q 26.159958 15.05876 26.478204 15.327329 
Q 26.79645 15.595897 26.895805 16.083357 
z
M 29.916502 14.433135 
L 29.916502 12.893135 
L 29.071986 12.893135 
L 29.071986 14.433135 
L 28.197974 14.433135 
L 28.197974 15.178296 
L 29.071986 15.178296 
L 29.071986 18.447692 
Q 29.071986 18.804748 29.140293 19.023639 
Q 29.210151 19.24253 29.354526 19.362067 
Q 29.498901 19.48005 29.731764 19.525071 
Q 29.96618 19.570091 30.29374 19.570091 
L 30.939547 19.570091 
L 30.939547 18.824929 
L 30.551442 18.824929 
Q 30.352732 18.824929 30.228539 18.810958 
Q 30.104345 18.795433 30.034486 18.745756 
Q 29.96618 18.696079 29.941341 18.607591 
Q 29.916502 18.51755 29.916502 18.368518 
L 29.916502 15.178296 
L 30.939547 15.178296 
L 30.939547 14.433135 
L 29.916502 14.433135 
z
M 36.424243 19.549909 
Q 36.205352 19.67876 35.817247 19.67876 
Q 35.489686 19.67876 35.295634 19.495575 
Q 35.103134 19.312389 35.103134 18.894788 
Q 34.755392 19.312389 34.292771 19.495575 
Q 33.83015 19.67876 33.294565 19.67876 
Q 32.946823 19.67876 32.633235 19.599587 
Q 32.321198 19.520413 32.09144 19.3512 
Q 31.863235 19.181986 31.728174 18.90876 
Q 31.594666 18.635534 31.594666 18.248982 
Q 31.594666 17.8112 31.743698 17.533317 
Q 31.892731 17.255433 32.13646 17.081563 
Q 32.38019 16.907692 32.692227 16.819204 
Q 33.005815 16.729163 33.333376 16.668619 
Q 33.681118 16.59876 33.994706 16.564607 
Q 34.308295 16.530454 34.545815 16.465252 
Q 34.784888 16.40005 34.923053 16.275857 
Q 35.062771 16.151663 35.062771 15.914143 
Q 35.062771 15.63626 34.958759 15.467046 
Q 34.854747 15.297833 34.69019 15.209345 
Q 34.525634 15.119304 34.322267 15.089808 
Q 34.1189 15.05876 33.92019 15.05876 
Q 33.383053 15.05876 33.025997 15.263679 
Q 32.66894 15.467046 32.637892 16.033679 
L 31.793376 16.033679 
Q 31.813557 15.555534 31.992085 15.227974 
Q 32.172166 14.900413 32.470231 14.697046 
Q 32.768295 14.493679 33.15019 14.403639 
Q 33.532085 14.313599 33.969868 14.313599 
Q 34.31761 14.313599 34.660694 14.363276 
Q 35.003779 14.412954 35.281662 14.568196 
Q 35.559545 14.721885 35.728759 14.999768 
Q 35.897972 15.277651 35.897972 15.724748 
L 35.897972 18.368518 
Q 35.897972 18.666583 35.932126 18.8063 
Q 35.966279 18.944466 36.164989 18.944466 
Q 36.27521 18.944466 36.424243 18.894788 
L 36.424243 19.549909 
z
M 35.053456 16.917006 
Q 34.893557 17.036542 34.634303 17.090877 
Q 34.376602 17.145212 34.094061 17.180917 
Q 33.811521 17.215071 33.522771 17.260091 
Q 33.234021 17.305111 33.005815 17.404466 
Q 32.77761 17.503821 32.633235 17.688558 
Q 32.48886 17.871744 32.48886 18.188437 
Q 32.48886 18.398014 32.57269 18.542389 
Q 32.658073 18.685212 32.791581 18.775252 
Q 32.926642 18.865292 33.10517 18.905655 
Q 33.283698 18.944466 33.482408 18.944466 
Q 33.900009 18.944466 34.198073 18.831139 
Q 34.496138 18.71626 34.683981 18.542389 
Q 34.873376 18.368518 34.963416 18.165151 
Q 35.053456 17.960232 35.053456 17.781704 
L 35.053456 16.917006 
z
M 37.209456 12.475534 
L 37.209456 19.570091 
L 38.053972 19.570091 
L 38.053972 16.668619 
Q 38.053972 16.320877 38.147117 16.029022 
Q 38.241815 15.735615 38.429658 15.516724 
Q 38.619053 15.297833 38.901593 15.178296 
Q 39.185686 15.05876 39.573791 15.05876 
Q 40.059698 15.05876 40.337581 15.338196 
Q 40.617017 15.616079 40.617017 16.092671 
L 40.617017 19.570091 
L 41.461533 19.570091 
L 41.461533 16.192026 
Q 41.461533 15.774425 41.37615 15.432893 
Q 41.292319 15.089808 41.082742 14.841421 
Q 40.874718 14.593034 40.536291 14.453317 
Q 40.199416 14.313599 39.693327 14.313599 
Q 39.463569 14.313599 39.219839 14.363276 
Q 38.977662 14.412954 38.754113 14.518518 
Q 38.530565 14.62253 38.350484 14.787087 
Q 38.171956 14.950091 38.072601 15.189163 
L 38.053972 15.189163 
L 38.053972 12.475534 
L 37.209456 12.475534 
z
M 46.299491 16.510272 
L 43.348342 16.510272 
Q 43.368524 16.212208 43.477193 15.949849 
Q 43.587415 15.685938 43.775258 15.487228 
Q 43.964653 15.288518 44.227012 15.173639 
Q 44.490923 15.05876 44.820036 15.05876 
Q 45.136729 15.05876 45.400641 15.173639 
Q 45.664552 15.288518 45.857052 15.482571 
Q 46.051104 15.675071 46.164431 15.943639 
Q 46.27931 16.212208 46.299491 16.510272 
z
M 47.114512 17.94005 
L 46.27931 17.94005 
Q 46.170641 18.447692 45.827556 18.696079 
Q 45.484471 18.944466 44.948887 18.944466 
Q 44.531286 18.944466 44.222354 18.8063 
Q 43.914975 18.666583 43.716266 18.43372 
Q 43.517556 18.199304 43.427516 17.896583 
Q 43.339028 17.592308 43.348342 17.255433 
L 47.193685 17.255433 
Q 47.213866 16.788155 47.109854 16.2712 
Q 47.005842 15.754244 46.732616 15.318014 
Q 46.459391 14.880232 46.006084 14.597692 
Q 45.55433 14.313599 44.869713 14.313599 
Q 44.341891 14.313599 43.899451 14.512308 
Q 43.458564 14.711018 43.135661 15.069627 
Q 42.812758 15.426683 42.632677 15.914143 
Q 42.454149 16.40005 42.454149 16.986865 
Q 42.47433 17.573679 42.62802 18.070454 
Q 42.783262 18.567228 43.090641 18.924284 
Q 43.39802 19.281341 43.849774 19.48005 
Q 44.30308 19.67876 44.919391 19.67876 
Q 45.793403 19.67876 46.36935 19.24253 
Q 46.945298 18.804748 47.114512 17.94005 
z
M 48.683697 17.045857 
Q 48.683697 16.668619 48.76287 16.311563 
Q 48.843596 15.952954 49.022124 15.675071 
Q 49.200652 15.397188 49.498717 15.227974 
Q 49.796781 15.05876 50.223697 15.05876 
Q 50.661479 15.05876 50.968858 15.223317 
Q 51.27779 15.387873 51.47029 15.656442 
Q 51.664342 15.923458 51.754382 16.277409 
Q 51.844423 16.629808 51.844423 17.007046 
Q 51.844423 17.364103 51.75904 17.711845 
Q 51.675209 18.059587 51.485814 18.332812 
Q 51.297971 18.606038 50.999906 18.775252 
Q 50.701842 18.944466 50.273374 18.944466 
Q 49.86664 18.944466 49.563919 18.786119 
Q 49.261197 18.62622 49.067144 18.357651 
Q 48.873092 18.089083 48.778394 17.74755 
Q 48.683697 17.404466 48.683697 17.045857 
z
M 52.65789 19.570091 
L 52.65789 12.475534 
L 51.813374 12.475534 
L 51.813374 15.119304 
L 51.794745 15.119304 
Q 51.655027 14.891099 51.45166 14.737409 
Q 51.248294 14.582167 51.018535 14.489022 
Q 50.79033 14.394325 50.562124 14.353962 
Q 50.333919 14.313599 50.135209 14.313599 
Q 49.548394 14.313599 49.105955 14.527833 
Q 48.665068 14.742067 48.37166 15.105333 
Q 48.078253 15.467046 47.933878 15.954506 
Q 47.789503 16.440413 47.789503 16.986865 
Q 47.789503 17.533317 47.938535 18.020776 
Q 48.087568 18.506683 48.380975 18.874607 
Q 48.674382 19.24253 49.116822 19.461421 
Q 49.559261 19.67876 50.15539 19.67876 
Q 50.690975 19.67876 51.138072 19.490917 
Q 51.585169 19.301522 51.794745 18.874607 
L 51.813374 18.874607 
L 51.813374 19.570091 
L 52.65789 19.570091 
z
M 53.929631 14.433135 
L 53.929631 19.570091 
L 54.774147 19.570091 
L 54.774147 17.284929 
Q 54.774147 16.788155 54.873502 16.40626 
Q 54.972857 16.022813 55.191748 15.755796 
Q 55.410639 15.487228 55.767696 15.34751 
Q 56.126304 15.207792 56.632393 15.207792 
L 56.632393 14.313599 
Q 55.947776 14.29497 55.500679 14.593034 
Q 55.053583 14.891099 54.744651 15.516724 
L 54.72447 15.516724 
L 54.72447 14.433135 
L 53.929631 14.433135 
z
M 61.819335 19.549909 
Q 61.600444 19.67876 61.212339 19.67876 
Q 60.884779 19.67876 60.690727 19.495575 
Q 60.498227 19.312389 60.498227 18.894788 
Q 60.150485 19.312389 59.687864 19.495575 
Q 59.225243 19.67876 58.689658 19.67876 
Q 58.341916 19.67876 58.028327 19.599587 
Q 57.716291 19.520413 57.486533 19.3512 
Q 57.258327 19.181986 57.123267 18.90876 
Q 56.989759 18.635534 56.989759 18.248982 
Q 56.989759 17.8112 57.138791 17.533317 
Q 57.287823 17.255433 57.531553 17.081563 
Q 57.775283 16.907692 58.087319 16.819204 
Q 58.400908 16.729163 58.728469 16.668619 
Q 59.07621 16.59876 59.389799 16.564607 
Q 59.703388 16.530454 59.940908 16.465252 
Q 60.179981 16.40005 60.318146 16.275857 
Q 60.457864 16.151663 60.457864 15.914143 
Q 60.457864 15.63626 60.353852 15.467046 
Q 60.249839 15.297833 60.085283 15.209345 
Q 59.920727 15.119304 59.71736 15.089808 
Q 59.513993 15.05876 59.315283 15.05876 
Q 58.778146 15.05876 58.421089 15.263679 
Q 58.064033 15.467046 58.032985 16.033679 
L 57.188469 16.033679 
Q 57.20865 15.555534 57.387178 15.227974 
Q 57.567259 14.900413 57.865323 14.697046 
Q 58.163388 14.493679 58.545283 14.403639 
Q 58.927178 14.313599 59.36496 14.313599 
Q 59.712702 14.313599 60.055787 14.363276 
Q 60.398872 14.412954 60.676755 14.568196 
Q 60.954638 14.721885 61.123852 14.999768 
Q 61.293065 15.277651 61.293065 15.724748 
L 61.293065 18.368518 
Q 61.293065 18.666583 61.327219 18.8063 
Q 61.361372 18.944466 61.560081 18.944466 
Q 61.670303 18.944466 61.819335 18.894788 
L 61.819335 19.549909 
z
M 60.448549 16.917006 
Q 60.28865 17.036542 60.029396 17.090877 
Q 59.771694 17.145212 59.489154 17.180917 
Q 59.206614 17.215071 58.917864 17.260091 
Q 58.629114 17.305111 58.400908 17.404466 
Q 58.172702 17.503821 58.028327 17.688558 
Q 57.883952 17.871744 57.883952 18.188437 
Q 57.883952 18.398014 57.967783 18.542389 
Q 58.053166 18.685212 58.186674 18.775252 
Q 58.321735 18.865292 58.500263 18.905655 
Q 58.678791 18.944466 58.877501 18.944466 
Q 59.295102 18.944466 59.593166 18.831139 
Q 59.891231 18.71626 60.079073 18.542389 
Q 60.268469 18.368518 60.358509 18.165151 
Q 60.448549 17.960232 60.448549 17.781704 
L 60.448549 16.917006 
z
M 62.654226 12.475534 
L 62.654226 19.570091 
L 63.498742 19.570091 
L 63.498742 12.475534 
L 62.654226 12.475534 
z
" style="stroke: #ffffff; stroke-width: 2.980645"/>
    <path d="M 16.542722 16.022813 
Q 16.542722 15.487228 16.680887 14.965615 
Q 16.820605 14.444002 17.118669 14.026401 
Q 17.416734 13.6088 17.884012 13.355756 
Q 18.35129 13.102712 18.997097 13.102712 
Q 19.642903 13.102712 20.110181 13.355756 
Q 20.57746 13.6088 20.875524 14.026401 
Q 21.173589 14.444002 21.311754 14.965615 
Q 21.451472 15.487228 21.451472 16.022813 
Q 21.451472 16.55995 21.311754 17.081563 
Q 21.173589 17.603175 20.875524 18.020776 
Q 20.57746 18.436825 20.110181 18.691421 
Q 19.642903 18.944466 18.997097 18.944466 
Q 18.35129 18.944466 17.884012 18.691421 
Q 17.416734 18.436825 17.118669 18.020776 
Q 16.820605 17.603175 16.680887 17.081563 
Q 16.542722 16.55995 16.542722 16.022813 
z
M 15.598851 16.022813 
Q 15.598851 16.747792 15.811532 17.418437 
Q 16.025766 18.089083 16.452681 18.606038 
Q 16.881149 19.122994 17.516089 19.425716 
Q 18.152581 19.728438 18.997097 19.728438 
Q 19.841613 19.728438 20.476552 19.425716 
Q 21.113044 19.122994 21.53996 18.606038 
Q 21.968427 18.089083 22.181109 17.418437 
Q 22.395343 16.747792 22.395343 16.022813 
Q 22.395343 15.297833 22.181109 14.627188 
Q 21.968427 13.956542 21.53996 13.439587 
Q 21.113044 12.922631 20.476552 12.615252 
Q 19.841613 12.307873 18.997097 12.307873 
Q 18.152581 12.307873 17.516089 12.615252 
Q 16.881149 12.922631 16.452681 13.439587 
Q 16.025766 13.956542 15.811532 14.627188 
Q 15.598851 15.297833 15.598851 16.022813 
z
M 26.895805 16.083357 
L 27.769817 16.083357 
Q 27.72014 15.625393 27.530744 15.293175 
Q 27.342902 14.959405 27.049494 14.742067 
Q 26.756087 14.523175 26.374192 14.419163 
Q 25.992297 14.313599 25.554515 14.313599 
Q 24.949071 14.313599 24.491107 14.527833 
Q 24.034696 14.742067 23.730422 15.114647 
Q 23.4277 15.487228 23.278668 15.988659 
Q 23.129636 16.490091 23.129636 17.066038 
Q 23.129636 17.641986 23.283325 18.124788 
Q 23.438567 18.606038 23.741289 18.95378 
Q 24.044011 19.301522 24.495765 19.490917 
Q 24.949071 19.67876 25.534333 19.67876 
Q 26.518567 19.67876 27.089857 19.163357 
Q 27.661148 18.646401 27.799313 17.691663 
L 26.936168 17.691663 
Q 26.855442 18.287792 26.503043 18.616905 
Q 26.150644 18.944466 25.525019 18.944466 
Q 25.127599 18.944466 24.838849 18.786119 
Q 24.551652 18.62622 24.371571 18.363861 
Q 24.193043 18.09995 24.10766 17.763075 
Q 24.023829 17.424647 24.023829 17.066038 
Q 24.023829 16.679486 24.103003 16.31622 
Q 24.183728 15.952954 24.366914 15.675071 
Q 24.551652 15.397188 24.859031 15.227974 
Q 25.16641 15.05876 25.624373 15.05876 
Q 26.159958 15.05876 26.478204 15.327329 
Q 26.79645 15.595897 26.895805 16.083357 
z
M 29.916502 14.433135 
L 29.916502 12.893135 
L 29.071986 12.893135 
L 29.071986 14.433135 
L 28.197974 14.433135 
L 28.197974 15.178296 
L 29.071986 15.178296 
L 29.071986 18.447692 
Q 29.071986 18.804748 29.140293 19.023639 
Q 29.210151 19.24253 29.354526 19.362067 
Q 29.498901 19.48005 29.731764 19.525071 
Q 29.96618 19.570091 30.29374 19.570091 
L 30.939547 19.570091 
L 30.939547 18.824929 
L 30.551442 18.824929 
Q 30.352732 18.824929 30.228539 18.810958 
Q 30.104345 18.795433 30.034486 18.745756 
Q 29.96618 18.696079 29.941341 18.607591 
Q 29.916502 18.51755 29.916502 18.368518 
L 29.916502 15.178296 
L 30.939547 15.178296 
L 30.939547 14.433135 
L 29.916502 14.433135 
z
M 36.424243 19.549909 
Q 36.205352 19.67876 35.817247 19.67876 
Q 35.489686 19.67876 35.295634 19.495575 
Q 35.103134 19.312389 35.103134 18.894788 
Q 34.755392 19.312389 34.292771 19.495575 
Q 33.83015 19.67876 33.294565 19.67876 
Q 32.946823 19.67876 32.633235 19.599587 
Q 32.321198 19.520413 32.09144 19.3512 
Q 31.863235 19.181986 31.728174 18.90876 
Q 31.594666 18.635534 31.594666 18.248982 
Q 31.594666 17.8112 31.743698 17.533317 
Q 31.892731 17.255433 32.13646 17.081563 
Q 32.38019 16.907692 32.692227 16.819204 
Q 33.005815 16.729163 33.333376 16.668619 
Q 33.681118 16.59876 33.994706 16.564607 
Q 34.308295 16.530454 34.545815 16.465252 
Q 34.784888 16.40005 34.923053 16.275857 
Q 35.062771 16.151663 35.062771 15.914143 
Q 35.062771 15.63626 34.958759 15.467046 
Q 34.854747 15.297833 34.69019 15.209345 
Q 34.525634 15.119304 34.322267 15.089808 
Q 34.1189 15.05876 33.92019 15.05876 
Q 33.383053 15.05876 33.025997 15.263679 
Q 32.66894 15.467046 32.637892 16.033679 
L 31.793376 16.033679 
Q 31.813557 15.555534 31.992085 15.227974 
Q 32.172166 14.900413 32.470231 14.697046 
Q 32.768295 14.493679 33.15019 14.403639 
Q 33.532085 14.313599 33.969868 14.313599 
Q 34.31761 14.313599 34.660694 14.363276 
Q 35.003779 14.412954 35.281662 14.568196 
Q 35.559545 14.721885 35.728759 14.999768 
Q 35.897972 15.277651 35.897972 15.724748 
L 35.897972 18.368518 
Q 35.897972 18.666583 35.932126 18.8063 
Q 35.966279 18.944466 36.164989 18.944466 
Q 36.27521 18.944466 36.424243 18.894788 
L 36.424243 19.549909 
z
M 35.053456 16.917006 
Q 34.893557 17.036542 34.634303 17.090877 
Q 34.376602 17.145212 34.094061 17.180917 
Q 33.811521 17.215071 33.522771 17.260091 
Q 33.234021 17.305111 33.005815 17.404466 
Q 32.77761 17.503821 32.633235 17.688558 
Q 32.48886 17.871744 32.48886 18.188437 
Q 32.48886 18.398014 32.57269 18.542389 
Q 32.658073 18.685212 32.791581 18.775252 
Q 32.926642 18.865292 33.10517 18.905655 
Q 33.283698 18.944466 33.482408 18.944466 
Q 33.900009 18.944466 34.198073 18.831139 
Q 34.496138 18.71626 34.683981 18.542389 
Q 34.873376 18.368518 34.963416 18.165151 
Q 35.053456 17.960232 35.053456 17.781704 
L 35.053456 16.917006 
z
M 37.209456 12.475534 
L 37.209456 19.570091 
L 38.053972 19.570091 
L 38.053972 16.668619 
Q 38.053972 16.320877 38.147117 16.029022 
Q 38.241815 15.735615 38.429658 15.516724 
Q 38.619053 15.297833 38.901593 15.178296 
Q 39.185686 15.05876 39.573791 15.05876 
Q 40.059698 15.05876 40.337581 15.338196 
Q 40.617017 15.616079 40.617017 16.092671 
L 40.617017 19.570091 
L 41.461533 19.570091 
L 41.461533 16.192026 
Q 41.461533 15.774425 41.37615 15.432893 
Q 41.292319 15.089808 41.082742 14.841421 
Q 40.874718 14.593034 40.536291 14.453317 
Q 40.199416 14.313599 39.693327 14.313599 
Q 39.463569 14.313599 39.219839 14.363276 
Q 38.977662 14.412954 38.754113 14.518518 
Q 38.530565 14.62253 38.350484 14.787087 
Q 38.171956 14.950091 38.072601 15.189163 
L 38.053972 15.189163 
L 38.053972 12.475534 
L 37.209456 12.475534 
z
M 46.299491 16.510272 
L 43.348342 16.510272 
Q 43.368524 16.212208 43.477193 15.949849 
Q 43.587415 15.685938 43.775258 15.487228 
Q 43.964653 15.288518 44.227012 15.173639 
Q 44.490923 15.05876 44.820036 15.05876 
Q 45.136729 15.05876 45.400641 15.173639 
Q 45.664552 15.288518 45.857052 15.482571 
Q 46.051104 15.675071 46.164431 15.943639 
Q 46.27931 16.212208 46.299491 16.510272 
z
M 47.114512 17.94005 
L 46.27931 17.94005 
Q 46.170641 18.447692 45.827556 18.696079 
Q 45.484471 18.944466 44.948887 18.944466 
Q 44.531286 18.944466 44.222354 18.8063 
Q 43.914975 18.666583 43.716266 18.43372 
Q 43.517556 18.199304 43.427516 17.896583 
Q 43.339028 17.592308 43.348342 17.255433 
L 47.193685 17.255433 
Q 47.213866 16.788155 47.109854 16.2712 
Q 47.005842 15.754244 46.732616 15.318014 
Q 46.459391 14.880232 46.006084 14.597692 
Q 45.55433 14.313599 44.869713 14.313599 
Q 44.341891 14.313599 43.899451 14.512308 
Q 43.458564 14.711018 43.135661 15.069627 
Q 42.812758 15.426683 42.632677 15.914143 
Q 42.454149 16.40005 42.454149 16.986865 
Q 42.47433 17.573679 42.62802 18.070454 
Q 42.783262 18.567228 43.090641 18.924284 
Q 43.39802 19.281341 43.849774 19.48005 
Q 44.30308 19.67876 44.919391 19.67876 
Q 45.793403 19.67876 46.36935 19.24253 
Q 46.945298 18.804748 47.114512 17.94005 
z
M 48.683697 17.045857 
Q 48.683697 16.668619 48.76287 16.311563 
Q 48.843596 15.952954 49.022124 15.675071 
Q 49.200652 15.397188 49.498717 15.227974 
Q 49.796781 15.05876 50.223697 15.05876 
Q 50.661479 15.05876 50.968858 15.223317 
Q 51.27779 15.387873 51.47029 15.656442 
Q 51.664342 15.923458 51.754382 16.277409 
Q 51.844423 16.629808 51.844423 17.007046 
Q 51.844423 17.364103 51.75904 17.711845 
Q 51.675209 18.059587 51.485814 18.332812 
Q 51.297971 18.606038 50.999906 18.775252 
Q 50.701842 18.944466 50.273374 18.944466 
Q 49.86664 18.944466 49.563919 18.786119 
Q 49.261197 18.62622 49.067144 18.357651 
Q 48.873092 18.089083 48.778394 17.74755 
Q 48.683697 17.404466 48.683697 17.045857 
z
M 52.65789 19.570091 
L 52.65789 12.475534 
L 51.813374 12.475534 
L 51.813374 15.119304 
L 51.794745 15.119304 
Q 51.655027 14.891099 51.45166 14.737409 
Q 51.248294 14.582167 51.018535 14.489022 
Q 50.79033 14.394325 50.562124 14.353962 
Q 50.333919 14.313599 50.135209 14.313599 
Q 49.548394 14.313599 49.105955 14.527833 
Q 48.665068 14.742067 48.37166 15.105333 
Q 48.078253 15.467046 47.933878 15.954506 
Q 47.789503 16.440413 47.789503 16.986865 
Q 47.789503 17.533317 47.938535 18.020776 
Q 48.087568 18.506683 48.380975 18.874607 
Q 48.674382 19.24253 49.116822 19.461421 
Q 49.559261 19.67876 50.15539 19.67876 
Q 50.690975 19.67876 51.138072 19.490917 
Q 51.585169 19.301522 51.794745 18.874607 
L 51.813374 18.874607 
L 51.813374 19.570091 
L 52.65789 19.570091 
z
M 53.929631 14.433135 
L 53.929631 19.570091 
L 54.774147 19.570091 
L 54.774147 17.284929 
Q 54.774147 16.788155 54.873502 16.40626 
Q 54.972857 16.022813 55.191748 15.755796 
Q 55.410639 15.487228 55.767696 15.34751 
Q 56.126304 15.207792 56.632393 15.207792 
L 56.632393 14.313599 
Q 55.947776 14.29497 55.500679 14.593034 
Q 55.053583 14.891099 54.744651 15.516724 
L 54.72447 15.516724 
L 54.72447 14.433135 
L 53.929631 14.433135 
z
M 61.819335 19.549909 
Q 61.600444 19.67876 61.212339 19.67876 
Q 60.884779 19.67876 60.690727 19.495575 
Q 60.498227 19.312389 60.498227 18.894788 
Q 60.150485 19.312389 59.687864 19.495575 
Q 59.225243 19.67876 58.689658 19.67876 
Q 58.341916 19.67876 58.028327 19.599587 
Q 57.716291 19.520413 57.486533 19.3512 
Q 57.258327 19.181986 57.123267 18.90876 
Q 56.989759 18.635534 56.989759 18.248982 
Q 56.989759 17.8112 57.138791 17.533317 
Q 57.287823 17.255433 57.531553 17.081563 
Q 57.775283 16.907692 58.087319 16.819204 
Q 58.400908 16.729163 58.728469 16.668619 
Q 59.07621 16.59876 59.389799 16.564607 
Q 59.703388 16.530454 59.940908 16.465252 
Q 60.179981 16.40005 60.318146 16.275857 
Q 60.457864 16.151663 60.457864 15.914143 
Q 60.457864 15.63626 60.353852 15.467046 
Q 60.249839 15.297833 60.085283 15.209345 
Q 59.920727 15.119304 59.71736 15.089808 
Q 59.513993 15.05876 59.315283 15.05876 
Q 58.778146 15.05876 58.421089 15.263679 
Q 58.064033 15.467046 58.032985 16.033679 
L 57.188469 16.033679 
Q 57.20865 15.555534 57.387178 15.227974 
Q 57.567259 14.900413 57.865323 14.697046 
Q 58.163388 14.493679 58.545283 14.403639 
Q 58.927178 14.313599 59.36496 14.313599 
Q 59.712702 14.313599 60.055787 14.363276 
Q 60.398872 14.412954 60.676755 14.568196 
Q 60.954638 14.721885 61.123852 14.999768 
Q 61.293065 15.277651 61.293065 15.724748 
L 61.293065 18.368518 
Q 61.293065 18.666583 61.327219 18.8063 
Q 61.361372 18.944466 61.560081 18.944466 
Q 61.670303 18.944466 61.819335 18.894788 
L 61.819335 19.549909 
z
M 60.448549 16.917006 
Q 60.28865 17.036542 60.029396 17.090877 
Q 59.771694 17.145212 59.489154 17.180917 
Q 59.206614 17.215071 58.917864 17.260091 
Q 58.629114 17.305111 58.400908 17.404466 
Q 58.172702 17.503821 58.028327 17.688558 
Q 57.883952 17.871744 57.883952 18.188437 
Q 57.883952 18.398014 57.967783 18.542389 
Q 58.053166 18.685212 58.186674 18.775252 
Q 58.321735 18.865292 58.500263 18.905655 
Q 58.678791 18.944466 58.877501 18.944466 
Q 59.295102 18.944466 59.593166 18.831139 
Q 59.891231 18.71626 60.079073 18.542389 
Q 60.268469 18.368518 60.358509 18.165151 
Q 60.448549 17.960232 60.448549 17.781704 
L 60.448549 16.917006 
z
M 62.654226 12.475534 
L 62.654226 19.570091 
L 63.498742 19.570091 
L 63.498742 12.475534 
L 62.654226 12.475534 
z
"/>
   </g>
   <g id="text_2">
    <path d="M 17.606129 25.689728 
L 17.606129 31.989446 
L 18.55 31.989446 
L 18.55 25.689728 
L 20.914335 25.689728 
L 20.914335 24.894889 
L 15.241794 24.894889 
L 15.241794 25.689728 
L 17.606129 25.689728 
z
M 24.021657 28.929627 
L 21.070507 28.929627 
Q 21.090689 28.631563 21.199358 28.369204 
Q 21.30958 28.105292 21.497423 27.906583 
Q 21.686818 27.707873 21.949177 27.592994 
Q 22.213088 27.478115 22.542201 27.478115 
Q 22.858895 27.478115 23.122806 27.592994 
Q 23.386717 27.707873 23.579217 27.901925 
Q 23.77327 28.094425 23.886596 28.362994 
Q 24.001475 28.631563 24.021657 28.929627 
z
M 24.836677 30.359405 
L 24.001475 30.359405 
Q 23.892806 30.867046 23.549721 31.115433 
Q 23.206636 31.363821 22.671052 31.363821 
Q 22.253451 31.363821 21.94452 31.225655 
Q 21.637141 31.085938 21.438431 30.853075 
Q 21.239721 30.618659 21.149681 30.315938 
Q 21.061193 30.011663 21.070507 29.674788 
L 24.91585 29.674788 
Q 24.936032 29.20751 24.83202 28.690554 
Q 24.728007 28.173599 24.454782 27.737369 
Q 24.181556 27.299587 23.728249 27.017046 
Q 23.276495 26.732954 22.591878 26.732954 
Q 22.064056 26.732954 21.621616 26.931663 
Q 21.180729 27.130373 20.857826 27.488982 
Q 20.534923 27.846038 20.354842 28.333498 
Q 20.176314 28.819405 20.176314 29.40622 
Q 20.196495 29.993034 20.350185 30.489808 
Q 20.505427 30.986583 20.812806 31.343639 
Q 21.120185 31.700696 21.571939 31.899405 
Q 22.025245 32.098115 22.641556 32.098115 
Q 23.515568 32.098115 24.091516 31.661885 
Q 24.667463 31.224103 24.836677 30.359405 
z
M 26.963181 26.85249 
L 26.963181 25.31249 
L 26.118664 25.31249 
L 26.118664 26.85249 
L 25.244652 26.85249 
L 25.244652 27.597651 
L 26.118664 27.597651 
L 26.118664 30.867046 
Q 26.118664 31.224103 26.186971 31.442994 
Q 26.25683 31.661885 26.401205 31.781421 
Q 26.54558 31.899405 26.778443 31.944425 
Q 27.012858 31.989446 27.340418 31.989446 
L 27.986225 31.989446 
L 27.986225 31.244284 
L 27.59812 31.244284 
Q 27.39941 31.244284 27.275217 31.230313 
Q 27.151023 31.214788 27.081164 31.165111 
Q 27.012858 31.115433 26.988019 31.026946 
Q 26.963181 30.936905 26.963181 30.787873 
L 26.963181 27.597651 
L 27.986225 27.597651 
L 27.986225 26.85249 
L 26.963181 26.85249 
z
M 28.889731 26.85249 
L 28.889731 31.989446 
L 29.734248 31.989446 
L 29.734248 29.704284 
Q 29.734248 29.20751 29.833602 28.825615 
Q 29.932957 28.442167 30.151848 28.175151 
Q 30.37074 27.906583 30.727796 27.766865 
Q 31.086405 27.627147 31.592494 27.627147 
L 31.592494 26.732954 
Q 30.907877 26.714325 30.46078 27.012389 
Q 30.013683 27.310454 29.704752 27.936079 
L 29.68457 27.936079 
L 29.68457 26.85249 
L 28.889731 26.85249 
z
M 36.779436 31.969264 
Q 36.560545 32.098115 36.17244 32.098115 
Q 35.844879 32.098115 35.650827 31.914929 
Q 35.458327 31.731744 35.458327 31.314143 
Q 35.110585 31.731744 34.647964 31.914929 
Q 34.185343 32.098115 33.649758 32.098115 
Q 33.302017 32.098115 32.988428 32.018942 
Q 32.676392 31.939768 32.446633 31.770554 
Q 32.218428 31.601341 32.083367 31.328115 
Q 31.949859 31.054889 31.949859 30.668337 
Q 31.949859 30.230554 32.098892 29.952671 
Q 32.247924 29.674788 32.491654 29.500917 
Q 32.735383 29.327046 33.04742 29.238558 
Q 33.361008 29.148518 33.688569 29.087974 
Q 34.036311 29.018115 34.3499 28.983962 
Q 34.663488 28.949808 34.901008 28.884607 
Q 35.140081 28.819405 35.278246 28.695212 
Q 35.417964 28.571018 35.417964 28.333498 
Q 35.417964 28.055615 35.313952 27.886401 
Q 35.20994 27.717188 35.045383 27.6287 
Q 34.880827 27.538659 34.67746 27.509163 
Q 34.474093 27.478115 34.275383 27.478115 
Q 33.738246 27.478115 33.38119 27.683034 
Q 33.024133 27.886401 32.993085 28.453034 
L 32.148569 28.453034 
Q 32.16875 27.974889 32.347279 27.647329 
Q 32.527359 27.319768 32.825424 27.116401 
Q 33.123488 26.913034 33.505383 26.822994 
Q 33.887279 26.732954 34.325061 26.732954 
Q 34.672803 26.732954 35.015887 26.782631 
Q 35.358972 26.832308 35.636855 26.98755 
Q 35.914738 27.14124 36.083952 27.419123 
Q 36.253166 27.697006 36.253166 28.144103 
L 36.253166 30.787873 
Q 36.253166 31.085938 36.287319 31.225655 
Q 36.321472 31.363821 36.520182 31.363821 
Q 36.630404 31.363821 36.779436 31.314143 
L 36.779436 31.969264 
z
M 35.40865 29.336361 
Q 35.24875 29.455897 34.989496 29.510232 
Q 34.731795 29.564567 34.449254 29.600272 
Q 34.166714 29.634425 33.877964 29.679446 
Q 33.589214 29.724466 33.361008 29.823821 
Q 33.132803 29.923175 32.988428 30.107913 
Q 32.844053 30.291099 32.844053 30.607792 
Q 32.844053 30.817369 32.927883 30.961744 
Q 33.013267 31.104567 33.146775 31.194607 
Q 33.281835 31.284647 33.460363 31.32501 
Q 33.638892 31.363821 33.837601 31.363821 
Q 34.255202 31.363821 34.553267 31.250494 
Q 34.851331 31.135615 35.039174 30.961744 
Q 35.228569 30.787873 35.318609 30.584506 
Q 35.40865 30.379587 35.40865 30.201058 
L 35.40865 29.336361 
z
M 37.564649 24.894889 
L 37.564649 31.989446 
L 38.409165 31.989446 
L 38.409165 29.087974 
Q 38.409165 28.740232 38.502311 28.448377 
Q 38.597008 28.15497 38.784851 27.936079 
Q 38.974246 27.717188 39.256786 27.597651 
Q 39.540879 27.478115 39.928984 27.478115 
Q 40.414891 27.478115 40.692774 27.75755 
Q 40.97221 28.035433 40.97221 28.512026 
L 40.97221 31.989446 
L 41.816726 31.989446 
L 41.816726 28.611381 
Q 41.816726 28.19378 41.731343 27.852248 
Q 41.647512 27.509163 41.437936 27.260776 
Q 41.229911 27.012389 40.891484 26.872671 
Q 40.554609 26.732954 40.04852 26.732954 
Q 39.818762 26.732954 39.575032 26.782631 
Q 39.332855 26.832308 39.109307 26.937873 
Q 38.885758 27.041885 38.705678 27.206442 
Q 38.527149 27.369446 38.427794 27.608518 
L 38.409165 27.608518 
L 38.409165 24.894889 
L 37.564649 24.894889 
z
M 46.654685 28.929627 
L 43.703535 28.929627 
Q 43.723717 28.631563 43.832386 28.369204 
Q 43.942608 28.105292 44.130451 27.906583 
Q 44.319846 27.707873 44.582205 27.592994 
Q 44.846116 27.478115 45.175229 27.478115 
Q 45.491923 27.478115 45.755834 27.592994 
Q 46.019745 27.707873 46.212245 27.901925 
Q 46.406298 28.094425 46.519624 28.362994 
Q 46.634503 28.631563 46.654685 28.929627 
z
M 47.469705 30.359405 
L 46.634503 30.359405 
Q 46.525834 30.867046 46.182749 31.115433 
Q 45.839665 31.363821 45.30408 31.363821 
Q 44.886479 31.363821 44.577548 31.225655 
Q 44.270169 31.085938 44.071459 30.853075 
Q 43.872749 30.618659 43.782709 30.315938 
Q 43.694221 30.011663 43.703535 29.674788 
L 47.548878 29.674788 
Q 47.56906 29.20751 47.465048 28.690554 
Q 47.361035 28.173599 47.08781 27.737369 
Q 46.814584 27.299587 46.361277 27.017046 
Q 45.909523 26.732954 45.224906 26.732954 
Q 44.697084 26.732954 44.254644 26.931663 
Q 43.813757 27.130373 43.490854 27.488982 
Q 43.167951 27.846038 42.98787 28.333498 
Q 42.809342 28.819405 42.809342 29.40622 
Q 42.829523 29.993034 42.983213 30.489808 
Q 43.138455 30.986583 43.445834 31.343639 
Q 43.753213 31.700696 44.204967 31.899405 
Q 44.658273 32.098115 45.274584 32.098115 
Q 46.148596 32.098115 46.724544 31.661885 
Q 47.300491 31.224103 47.469705 30.359405 
z
M 49.03889 29.465212 
Q 49.03889 29.087974 49.118063 28.730917 
Q 49.198789 28.372308 49.377317 28.094425 
Q 49.555846 27.816542 49.85391 27.647329 
Q 50.151975 27.478115 50.57889 27.478115 
Q 51.016672 27.478115 51.324051 27.642671 
Q 51.632983 27.807228 51.825483 28.075796 
Q 52.019535 28.342813 52.109575 28.696764 
Q 52.199616 29.049163 52.199616 29.426401 
Q 52.199616 29.783458 52.114233 30.1312 
Q 52.030402 30.478942 51.841007 30.752167 
Q 51.653164 31.025393 51.3551 31.194607 
Q 51.057035 31.363821 50.628567 31.363821 
Q 50.221834 31.363821 49.919112 31.205474 
Q 49.61639 31.045575 49.422338 30.777006 
Q 49.228285 30.508438 49.133588 30.166905 
Q 49.03889 29.823821 49.03889 29.465212 
z
M 53.013084 31.989446 
L 53.013084 24.894889 
L 52.168567 24.894889 
L 52.168567 27.538659 
L 52.149938 27.538659 
Q 52.010221 27.310454 51.806854 27.156764 
Q 51.603487 27.001522 51.373729 26.908377 
Q 51.145523 26.813679 50.917317 26.773317 
Q 50.689112 26.732954 50.490402 26.732954 
Q 49.903588 26.732954 49.461148 26.947188 
Q 49.020261 27.161421 48.726854 27.524688 
Q 48.433446 27.886401 48.289071 28.373861 
Q 48.144696 28.859768 48.144696 29.40622 
Q 48.144696 29.952671 48.293729 30.440131 
Q 48.442761 30.926038 48.736168 31.293962 
Q 49.029575 31.661885 49.472015 31.880776 
Q 49.914455 32.098115 50.510584 32.098115 
Q 51.046168 32.098115 51.493265 31.910272 
Q 51.940362 31.720877 52.149938 31.293962 
L 52.168567 31.293962 
L 52.168567 31.989446 
L 53.013084 31.989446 
z
M 54.284824 26.85249 
L 54.284824 31.989446 
L 55.12934 31.989446 
L 55.12934 29.704284 
Q 55.12934 29.20751 55.228695 28.825615 
Q 55.32805 28.442167 55.546941 28.175151 
Q 55.765832 27.906583 56.122889 27.766865 
Q 56.481498 27.627147 56.987586 27.627147 
L 56.987586 26.732954 
Q 56.302969 26.714325 55.855873 27.012389 
Q 55.408776 27.310454 55.099844 27.936079 
L 55.079663 27.936079 
L 55.079663 26.85249 
L 54.284824 26.85249 
z
M 62.174529 31.969264 
Q 61.955638 32.098115 61.567533 32.098115 
Q 61.239972 32.098115 61.04592 31.914929 
Q 60.85342 31.731744 60.85342 31.314143 
Q 60.505678 31.731744 60.043057 31.914929 
Q 59.580436 32.098115 59.044851 32.098115 
Q 58.697109 32.098115 58.383521 32.018942 
Q 58.071484 31.939768 57.841726 31.770554 
Q 57.613521 31.601341 57.47846 31.328115 
Q 57.344952 31.054889 57.344952 30.668337 
Q 57.344952 30.230554 57.493984 29.952671 
Q 57.643017 29.674788 57.886746 29.500917 
Q 58.130476 29.327046 58.442513 29.238558 
Q 58.756101 29.148518 59.083662 29.087974 
Q 59.431404 29.018115 59.744992 28.983962 
Q 60.058581 28.949808 60.296101 28.884607 
Q 60.535174 28.819405 60.673339 28.695212 
Q 60.813057 28.571018 60.813057 28.333498 
Q 60.813057 28.055615 60.709045 27.886401 
Q 60.605033 27.717188 60.440476 27.6287 
Q 60.27592 27.538659 60.072553 27.509163 
Q 59.869186 27.478115 59.670476 27.478115 
Q 59.133339 27.478115 58.776283 27.683034 
Q 58.419226 27.886401 58.388178 28.453034 
L 57.543662 28.453034 
Q 57.563843 27.974889 57.742371 27.647329 
Q 57.922452 27.319768 58.220517 27.116401 
Q 58.518581 26.913034 58.900476 26.822994 
Q 59.282371 26.732954 59.720154 26.732954 
Q 60.067896 26.732954 60.41098 26.782631 
Q 60.754065 26.832308 61.031948 26.98755 
Q 61.309831 27.14124 61.479045 27.419123 
Q 61.648259 27.697006 61.648259 28.144103 
L 61.648259 30.787873 
Q 61.648259 31.085938 61.682412 31.225655 
Q 61.716565 31.363821 61.915275 31.363821 
Q 62.025496 31.363821 62.174529 31.314143 
L 62.174529 31.969264 
z
M 60.803742 29.336361 
Q 60.643843 29.455897 60.384589 29.510232 
Q 60.126888 29.564567 59.844347 29.600272 
Q 59.561807 29.634425 59.273057 29.679446 
Q 58.984307 29.724466 58.756101 29.823821 
Q 58.527896 29.923175 58.383521 30.107913 
Q 58.239146 30.291099 58.239146 30.607792 
Q 58.239146 30.817369 58.322976 30.961744 
Q 58.408359 31.104567 58.541867 31.194607 
Q 58.676928 31.284647 58.855456 31.32501 
Q 59.033984 31.363821 59.232694 31.363821 
Q 59.650295 31.363821 59.948359 31.250494 
Q 60.246424 31.135615 60.434267 30.961744 
Q 60.623662 30.787873 60.713702 30.584506 
Q 60.803742 30.379587 60.803742 30.201058 
L 60.803742 29.336361 
z
M 63.00942 24.894889 
L 63.00942 31.989446 
L 63.853936 31.989446 
L 63.853936 24.894889 
L 63.00942 24.894889 
z
" style="stroke: #ffffff; stroke-width: 2.980645"/>
    <path d="M 17.606129 25.689728 
L 17.606129 31.989446 
L 18.55 31.989446 
L 18.55 25.689728 
L 20.914335 25.689728 
L 20.914335 24.894889 
L 15.241794 24.894889 
L 15.241794 25.689728 
L 17.606129 25.689728 
z
M 24.021657 28.929627 
L 21.070507 28.929627 
Q 21.090689 28.631563 21.199358 28.369204 
Q 21.30958 28.105292 21.497423 27.906583 
Q 21.686818 27.707873 21.949177 27.592994 
Q 22.213088 27.478115 22.542201 27.478115 
Q 22.858895 27.478115 23.122806 27.592994 
Q 23.386717 27.707873 23.579217 27.901925 
Q 23.77327 28.094425 23.886596 28.362994 
Q 24.001475 28.631563 24.021657 28.929627 
z
M 24.836677 30.359405 
L 24.001475 30.359405 
Q 23.892806 30.867046 23.549721 31.115433 
Q 23.206636 31.363821 22.671052 31.363821 
Q 22.253451 31.363821 21.94452 31.225655 
Q 21.637141 31.085938 21.438431 30.853075 
Q 21.239721 30.618659 21.149681 30.315938 
Q 21.061193 30.011663 21.070507 29.674788 
L 24.91585 29.674788 
Q 24.936032 29.20751 24.83202 28.690554 
Q 24.728007 28.173599 24.454782 27.737369 
Q 24.181556 27.299587 23.728249 27.017046 
Q 23.276495 26.732954 22.591878 26.732954 
Q 22.064056 26.732954 21.621616 26.931663 
Q 21.180729 27.130373 20.857826 27.488982 
Q 20.534923 27.846038 20.354842 28.333498 
Q 20.176314 28.819405 20.176314 29.40622 
Q 20.196495 29.993034 20.350185 30.489808 
Q 20.505427 30.986583 20.812806 31.343639 
Q 21.120185 31.700696 21.571939 31.899405 
Q 22.025245 32.098115 22.641556 32.098115 
Q 23.515568 32.098115 24.091516 31.661885 
Q 24.667463 31.224103 24.836677 30.359405 
z
M 26.963181 26.85249 
L 26.963181 25.31249 
L 26.118664 25.31249 
L 26.118664 26.85249 
L 25.244652 26.85249 
L 25.244652 27.597651 
L 26.118664 27.597651 
L 26.118664 30.867046 
Q 26.118664 31.224103 26.186971 31.442994 
Q 26.25683 31.661885 26.401205 31.781421 
Q 26.54558 31.899405 26.778443 31.944425 
Q 27.012858 31.989446 27.340418 31.989446 
L 27.986225 31.989446 
L 27.986225 31.244284 
L 27.59812 31.244284 
Q 27.39941 31.244284 27.275217 31.230313 
Q 27.151023 31.214788 27.081164 31.165111 
Q 27.012858 31.115433 26.988019 31.026946 
Q 26.963181 30.936905 26.963181 30.787873 
L 26.963181 27.597651 
L 27.986225 27.597651 
L 27.986225 26.85249 
L 26.963181 26.85249 
z
M 28.889731 26.85249 
L 28.889731 31.989446 
L 29.734248 31.989446 
L 29.734248 29.704284 
Q 29.734248 29.20751 29.833602 28.825615 
Q 29.932957 28.442167 30.151848 28.175151 
Q 30.37074 27.906583 30.727796 27.766865 
Q 31.086405 27.627147 31.592494 27.627147 
L 31.592494 26.732954 
Q 30.907877 26.714325 30.46078 27.012389 
Q 30.013683 27.310454 29.704752 27.936079 
L 29.68457 27.936079 
L 29.68457 26.85249 
L 28.889731 26.85249 
z
M 36.779436 31.969264 
Q 36.560545 32.098115 36.17244 32.098115 
Q 35.844879 32.098115 35.650827 31.914929 
Q 35.458327 31.731744 35.458327 31.314143 
Q 35.110585 31.731744 34.647964 31.914929 
Q 34.185343 32.098115 33.649758 32.098115 
Q 33.302017 32.098115 32.988428 32.018942 
Q 32.676392 31.939768 32.446633 31.770554 
Q 32.218428 31.601341 32.083367 31.328115 
Q 31.949859 31.054889 31.949859 30.668337 
Q 31.949859 30.230554 32.098892 29.952671 
Q 32.247924 29.674788 32.491654 29.500917 
Q 32.735383 29.327046 33.04742 29.238558 
Q 33.361008 29.148518 33.688569 29.087974 
Q 34.036311 29.018115 34.3499 28.983962 
Q 34.663488 28.949808 34.901008 28.884607 
Q 35.140081 28.819405 35.278246 28.695212 
Q 35.417964 28.571018 35.417964 28.333498 
Q 35.417964 28.055615 35.313952 27.886401 
Q 35.20994 27.717188 35.045383 27.6287 
Q 34.880827 27.538659 34.67746 27.509163 
Q 34.474093 27.478115 34.275383 27.478115 
Q 33.738246 27.478115 33.38119 27.683034 
Q 33.024133 27.886401 32.993085 28.453034 
L 32.148569 28.453034 
Q 32.16875 27.974889 32.347279 27.647329 
Q 32.527359 27.319768 32.825424 27.116401 
Q 33.123488 26.913034 33.505383 26.822994 
Q 33.887279 26.732954 34.325061 26.732954 
Q 34.672803 26.732954 35.015887 26.782631 
Q 35.358972 26.832308 35.636855 26.98755 
Q 35.914738 27.14124 36.083952 27.419123 
Q 36.253166 27.697006 36.253166 28.144103 
L 36.253166 30.787873 
Q 36.253166 31.085938 36.287319 31.225655 
Q 36.321472 31.363821 36.520182 31.363821 
Q 36.630404 31.363821 36.779436 31.314143 
L 36.779436 31.969264 
z
M 35.40865 29.336361 
Q 35.24875 29.455897 34.989496 29.510232 
Q 34.731795 29.564567 34.449254 29.600272 
Q 34.166714 29.634425 33.877964 29.679446 
Q 33.589214 29.724466 33.361008 29.823821 
Q 33.132803 29.923175 32.988428 30.107913 
Q 32.844053 30.291099 32.844053 30.607792 
Q 32.844053 30.817369 32.927883 30.961744 
Q 33.013267 31.104567 33.146775 31.194607 
Q 33.281835 31.284647 33.460363 31.32501 
Q 33.638892 31.363821 33.837601 31.363821 
Q 34.255202 31.363821 34.553267 31.250494 
Q 34.851331 31.135615 35.039174 30.961744 
Q 35.228569 30.787873 35.318609 30.584506 
Q 35.40865 30.379587 35.40865 30.201058 
L 35.40865 29.336361 
z
M 37.564649 24.894889 
L 37.564649 31.989446 
L 38.409165 31.989446 
L 38.409165 29.087974 
Q 38.409165 28.740232 38.502311 28.448377 
Q 38.597008 28.15497 38.784851 27.936079 
Q 38.974246 27.717188 39.256786 27.597651 
Q 39.540879 27.478115 39.928984 27.478115 
Q 40.414891 27.478115 40.692774 27.75755 
Q 40.97221 28.035433 40.97221 28.512026 
L 40.97221 31.989446 
L 41.816726 31.989446 
L 41.816726 28.611381 
Q 41.816726 28.19378 41.731343 27.852248 
Q 41.647512 27.509163 41.437936 27.260776 
Q 41.229911 27.012389 40.891484 26.872671 
Q 40.554609 26.732954 40.04852 26.732954 
Q 39.818762 26.732954 39.575032 26.782631 
Q 39.332855 26.832308 39.109307 26.937873 
Q 38.885758 27.041885 38.705678 27.206442 
Q 38.527149 27.369446 38.427794 27.608518 
L 38.409165 27.608518 
L 38.409165 24.894889 
L 37.564649 24.894889 
z
M 46.654685 28.929627 
L 43.703535 28.929627 
Q 43.723717 28.631563 43.832386 28.369204 
Q 43.942608 28.105292 44.130451 27.906583 
Q 44.319846 27.707873 44.582205 27.592994 
Q 44.846116 27.478115 45.175229 27.478115 
Q 45.491923 27.478115 45.755834 27.592994 
Q 46.019745 27.707873 46.212245 27.901925 
Q 46.406298 28.094425 46.519624 28.362994 
Q 46.634503 28.631563 46.654685 28.929627 
z
M 47.469705 30.359405 
L 46.634503 30.359405 
Q 46.525834 30.867046 46.182749 31.115433 
Q 45.839665 31.363821 45.30408 31.363821 
Q 44.886479 31.363821 44.577548 31.225655 
Q 44.270169 31.085938 44.071459 30.853075 
Q 43.872749 30.618659 43.782709 30.315938 
Q 43.694221 30.011663 43.703535 29.674788 
L 47.548878 29.674788 
Q 47.56906 29.20751 47.465048 28.690554 
Q 47.361035 28.173599 47.08781 27.737369 
Q 46.814584 27.299587 46.361277 27.017046 
Q 45.909523 26.732954 45.224906 26.732954 
Q 44.697084 26.732954 44.254644 26.931663 
Q 43.813757 27.130373 43.490854 27.488982 
Q 43.167951 27.846038 42.98787 28.333498 
Q 42.809342 28.819405 42.809342 29.40622 
Q 42.829523 29.993034 42.983213 30.489808 
Q 43.138455 30.986583 43.445834 31.343639 
Q 43.753213 31.700696 44.204967 31.899405 
Q 44.658273 32.098115 45.274584 32.098115 
Q 46.148596 32.098115 46.724544 31.661885 
Q 47.300491 31.224103 47.469705 30.359405 
z
M 49.03889 29.465212 
Q 49.03889 29.087974 49.118063 28.730917 
Q 49.198789 28.372308 49.377317 28.094425 
Q 49.555846 27.816542 49.85391 27.647329 
Q 50.151975 27.478115 50.57889 27.478115 
Q 51.016672 27.478115 51.324051 27.642671 
Q 51.632983 27.807228 51.825483 28.075796 
Q 52.019535 28.342813 52.109575 28.696764 
Q 52.199616 29.049163 52.199616 29.426401 
Q 52.199616 29.783458 52.114233 30.1312 
Q 52.030402 30.478942 51.841007 30.752167 
Q 51.653164 31.025393 51.3551 31.194607 
Q 51.057035 31.363821 50.628567 31.363821 
Q 50.221834 31.363821 49.919112 31.205474 
Q 49.61639 31.045575 49.422338 30.777006 
Q 49.228285 30.508438 49.133588 30.166905 
Q 49.03889 29.823821 49.03889 29.465212 
z
M 53.013084 31.989446 
L 53.013084 24.894889 
L 52.168567 24.894889 
L 52.168567 27.538659 
L 52.149938 27.538659 
Q 52.010221 27.310454 51.806854 27.156764 
Q 51.603487 27.001522 51.373729 26.908377 
Q 51.145523 26.813679 50.917317 26.773317 
Q 50.689112 26.732954 50.490402 26.732954 
Q 49.903588 26.732954 49.461148 26.947188 
Q 49.020261 27.161421 48.726854 27.524688 
Q 48.433446 27.886401 48.289071 28.373861 
Q 48.144696 28.859768 48.144696 29.40622 
Q 48.144696 29.952671 48.293729 30.440131 
Q 48.442761 30.926038 48.736168 31.293962 
Q 49.029575 31.661885 49.472015 31.880776 
Q 49.914455 32.098115 50.510584 32.098115 
Q 51.046168 32.098115 51.493265 31.910272 
Q 51.940362 31.720877 52.149938 31.293962 
L 52.168567 31.293962 
L 52.168567 31.989446 
L 53.013084 31.989446 
z
M 54.284824 26.85249 
L 54.284824 31.989446 
L 55.12934 31.989446 
L 55.12934 29.704284 
Q 55.12934 29.20751 55.228695 28.825615 
Q 55.32805 28.442167 55.546941 28.175151 
Q 55.765832 27.906583 56.122889 27.766865 
Q 56.481498 27.627147 56.987586 27.627147 
L 56.987586 26.732954 
Q 56.302969 26.714325 55.855873 27.012389 
Q 55.408776 27.310454 55.099844 27.936079 
L 55.079663 27.936079 
L 55.079663 26.85249 
L 54.284824 26.85249 
z
M 62.174529 31.969264 
Q 61.955638 32.098115 61.567533 32.098115 
Q 61.239972 32.098115 61.04592 31.914929 
Q 60.85342 31.731744 60.85342 31.314143 
Q 60.505678 31.731744 60.043057 31.914929 
Q 59.580436 32.098115 59.044851 32.098115 
Q 58.697109 32.098115 58.383521 32.018942 
Q 58.071484 31.939768 57.841726 31.770554 
Q 57.613521 31.601341 57.47846 31.328115 
Q 57.344952 31.054889 57.344952 30.668337 
Q 57.344952 30.230554 57.493984 29.952671 
Q 57.643017 29.674788 57.886746 29.500917 
Q 58.130476 29.327046 58.442513 29.238558 
Q 58.756101 29.148518 59.083662 29.087974 
Q 59.431404 29.018115 59.744992 28.983962 
Q 60.058581 28.949808 60.296101 28.884607 
Q 60.535174 28.819405 60.673339 28.695212 
Q 60.813057 28.571018 60.813057 28.333498 
Q 60.813057 28.055615 60.709045 27.886401 
Q 60.605033 27.717188 60.440476 27.6287 
Q 60.27592 27.538659 60.072553 27.509163 
Q 59.869186 27.478115 59.670476 27.478115 
Q 59.133339 27.478115 58.776283 27.683034 
Q 58.419226 27.886401 58.388178 28.453034 
L 57.543662 28.453034 
Q 57.563843 27.974889 57.742371 27.647329 
Q 57.922452 27.319768 58.220517 27.116401 
Q 58.518581 26.913034 58.900476 26.822994 
Q 59.282371 26.732954 59.720154 26.732954 
Q 60.067896 26.732954 60.41098 26.782631 
Q 60.754065 26.832308 61.031948 26.98755 
Q 61.309831 27.14124 61.479045 27.419123 
Q 61.648259 27.697006 61.648259 28.144103 
L 61.648259 30.787873 
Q 61.648259 31.085938 61.682412 31.225655 
Q 61.716565 31.363821 61.915275 31.363821 
Q 62.025496 31.363821 62.174529 31.314143 
L 62.174529 31.969264 
z
M 60.803742 29.336361 
Q 60.643843 29.455897 60.384589 29.510232 
Q 60.126888 29.564567 59.844347 29.600272 
Q 59.561807 29.634425 59.273057 29.679446 
Q 58.984307 29.724466 58.756101 29.823821 
Q 58.527896 29.923175 58.383521 30.107913 
Q 58.239146 30.291099 58.239146 30.607792 
Q 58.239146 30.817369 58.322976 30.961744 
Q 58.408359 31.104567 58.541867 31.194607 
Q 58.676928 31.284647 58.855456 31.32501 
Q 59.033984 31.363821 59.232694 31.363821 
Q 59.650295 31.363821 59.948359 31.250494 
Q 60.246424 31.135615 60.434267 30.961744 
Q 60.623662 30.787873 60.713702 30.584506 
Q 60.803742 30.379587 60.803742 30.201058 
L 60.803742 29.336361 
z
M 63.00942 24.894889 
L 63.00942 31.989446 
L 63.853936 31.989446 
L 63.853936 24.894889 
L 63.00942 24.894889 
z
"/>
   </g>
   <g id="text_3">
    <path d="M 20.099315 39.475212 
L 20.993508 39.475212 
Q 20.974879 38.888397 20.76996 38.466139 
Q 20.566593 38.043881 20.214194 37.765998 
Q 19.861794 37.488115 19.394516 37.359264 
Q 18.927238 37.230413 18.380786 37.230413 
Q 17.894879 37.230413 17.432258 37.354607 
Q 16.969637 37.4788 16.606371 37.731845 
Q 16.244657 37.984889 16.025766 38.377651 
Q 15.808427 38.770413 15.808427 39.305998 
Q 15.808427 39.793458 16.000927 40.116361 
Q 16.19498 40.439264 16.517883 40.642631 
Q 16.840786 40.845998 17.24752 40.970192 
Q 17.655806 41.094385 18.078065 41.189083 
Q 18.500323 41.28378 18.907056 41.373821 
Q 19.315343 41.462308 19.638246 41.606683 
Q 19.961149 41.751058 20.153649 41.979264 
Q 20.347702 42.20747 20.347702 42.575393 
Q 20.347702 42.961946 20.189355 43.210333 
Q 20.031008 43.45872 19.771754 43.603095 
Q 19.514052 43.74747 19.191149 43.808014 
Q 18.868246 43.867006 18.55 43.867006 
Q 18.152581 43.867006 17.775343 43.767651 
Q 17.398105 43.668296 17.114012 43.460272 
Q 16.831472 43.250696 16.657601 42.927792 
Q 16.48373 42.604889 16.48373 42.157792 
L 15.589536 42.157792 
Q 15.589536 42.803599 15.822399 43.275534 
Q 16.056815 43.74747 16.458891 44.050192 
Q 16.860968 44.352913 17.391895 44.501946 
Q 17.924375 44.650978 18.520504 44.650978 
Q 19.006411 44.650978 19.498528 44.536099 
Q 19.990645 44.422772 20.388065 44.169728 
Q 20.785484 43.916683 21.038528 43.514607 
Q 21.291573 43.110978 21.291573 42.545897 
Q 21.291573 42.018075 21.09752 41.670333 
Q 20.90502 41.322591 20.582117 41.094385 
Q 20.259214 40.866179 19.850927 40.732671 
Q 19.444194 40.597611 19.021935 40.498256 
Q 18.599677 40.398901 18.191391 40.315071 
Q 17.784657 40.229687 17.461754 40.100837 
Q 17.138851 39.971986 16.944798 39.768619 
Q 16.752298 39.565252 16.752298 39.236139 
Q 16.752298 38.888397 16.885806 38.655534 
Q 17.019315 38.422671 17.242863 38.282954 
Q 17.466411 38.143236 17.755161 38.084244 
Q 18.043911 38.025252 18.341976 38.025252 
Q 19.07627 38.025252 19.548206 38.368337 
Q 20.020141 38.709869 20.099315 39.475212 
z
M 22.325793 39.355675 
L 22.325793 46.450232 
L 23.170309 46.450232 
L 23.170309 43.806462 
L 23.190491 43.806462 
Q 23.328656 44.03622 23.532023 44.189909 
Q 23.736942 44.343599 23.965148 44.433639 
Q 24.193354 44.522127 24.426217 44.560938 
Q 24.660632 44.6013 24.848475 44.6013 
Q 25.435289 44.6013 25.877729 44.393276 
Q 26.320168 44.185252 26.612023 43.821986 
Q 26.90543 43.45872 27.049805 42.972813 
Q 27.19418 42.485353 27.19418 41.938901 
Q 27.19418 41.39245 27.045148 40.906542 
Q 26.896116 40.419083 26.602708 40.046502 
Q 26.309301 39.673921 25.866862 39.45503 
Q 25.425975 39.236139 24.829846 39.236139 
Q 24.292708 39.236139 23.845612 39.430192 
Q 23.398515 39.624244 23.190491 40.051159 
L 23.170309 40.051159 
L 23.170309 39.355675 
L 22.325793 39.355675 
z
M 26.299987 41.879909 
Q 26.299987 42.257147 26.219261 42.615756 
Q 26.140087 42.972813 25.961559 43.250696 
Q 25.783031 43.528579 25.489624 43.697792 
Q 25.196217 43.867006 24.759987 43.867006 
Q 24.322204 43.867006 24.013273 43.704002 
Q 23.705894 43.539446 23.511842 43.270877 
Q 23.319342 43.002308 23.229301 42.649909 
Q 23.140813 42.29751 23.140813 41.91872 
Q 23.140813 41.561663 23.224644 41.213921 
Q 23.308475 40.866179 23.49787 40.592954 
Q 23.687265 40.319728 23.985329 40.150514 
Q 24.283394 39.9813 24.710309 39.9813 
Q 25.117043 39.9813 25.419765 40.1412 
Q 25.724039 40.299546 25.916539 40.568115 
Q 26.110592 40.836683 26.205289 41.179768 
Q 26.299987 41.5213 26.299987 41.879909 
z
M 28.188038 37.398075 
L 28.188038 44.492631 
L 29.032554 44.492631 
L 29.032554 41.591159 
Q 29.032554 41.243417 29.125699 40.951563 
Q 29.220397 40.658155 29.40824 40.439264 
Q 29.597635 40.220373 29.880175 40.100837 
Q 30.164268 39.9813 30.552373 39.9813 
Q 31.03828 39.9813 31.316163 40.260736 
Q 31.595598 40.538619 31.595598 41.015212 
L 31.595598 44.492631 
L 32.440115 44.492631 
L 32.440115 41.114567 
Q 32.440115 40.696966 32.354731 40.355433 
Q 32.270901 40.012349 32.061324 39.763962 
Q 31.8533 39.515575 31.514873 39.375857 
Q 31.177998 39.236139 30.671909 39.236139 
Q 30.442151 39.236139 30.198421 39.285817 
Q 29.956244 39.335494 29.732695 39.441058 
Q 29.509147 39.545071 29.329066 39.709627 
Q 29.150538 39.872631 29.051183 40.111704 
L 29.032554 40.111704 
L 29.032554 37.398075 
L 28.188038 37.398075 
z
M 37.278073 41.432812 
L 34.326924 41.432812 
Q 34.347106 41.134748 34.455775 40.872389 
Q 34.565997 40.608478 34.753839 40.409768 
Q 34.943235 40.211058 35.205593 40.096179 
Q 35.469505 39.9813 35.798618 39.9813 
Q 36.115311 39.9813 36.379222 40.096179 
Q 36.643134 40.211058 36.835634 40.405111 
Q 37.029686 40.597611 37.143013 40.866179 
Q 37.257892 41.134748 37.278073 41.432812 
z
M 38.093093 42.862591 
L 37.257892 42.862591 
Q 37.149222 43.370232 36.806138 43.618619 
Q 36.463053 43.867006 35.927468 43.867006 
Q 35.509868 43.867006 35.200936 43.728841 
Q 34.893557 43.589123 34.694847 43.35626 
Q 34.496138 43.121845 34.406097 42.819123 
Q 34.31761 42.514849 34.326924 42.177974 
L 38.172267 42.177974 
Q 38.192448 41.710696 38.088436 41.19374 
Q 37.984424 40.676784 37.711198 40.240554 
Q 37.437972 39.802772 36.984666 39.520232 
Q 36.532912 39.236139 35.848295 39.236139 
Q 35.320472 39.236139 34.878033 39.434849 
Q 34.437146 39.633558 34.114243 39.992167 
Q 33.791339 40.349224 33.611259 40.836683 
Q 33.432731 41.322591 33.432731 41.909405 
Q 33.452912 42.49622 33.606602 42.992994 
Q 33.761843 43.489768 34.069222 43.846825 
Q 34.376602 44.203881 34.828356 44.402591 
Q 35.281662 44.6013 35.897972 44.6013 
Q 36.771985 44.6013 37.347932 44.165071 
Q 37.92388 43.727288 38.093093 42.862591 
z
M 39.016472 39.355675 
L 39.016472 44.492631 
L 39.860988 44.492631 
L 39.860988 42.20747 
Q 39.860988 41.710696 39.960343 41.3288 
Q 40.059698 40.945353 40.278589 40.678337 
Q 40.49748 40.409768 40.854537 40.27005 
Q 41.213146 40.130333 41.719234 40.130333 
L 41.719234 39.236139 
Q 41.034617 39.21751 40.587521 39.515575 
Q 40.140424 39.813639 39.831492 40.439264 
L 39.811311 40.439264 
L 39.811311 39.355675 
L 39.016472 39.355675 
z
M 43.250229 38.431986 
L 43.250229 37.398075 
L 42.405713 37.398075 
L 42.405713 38.431986 
L 43.250229 38.431986 
z
M 42.405713 39.355675 
L 42.405713 44.492631 
L 43.250229 44.492631 
L 43.250229 39.355675 
L 42.405713 39.355675 
z
M 48.048446 41.005897 
L 48.922459 41.005897 
Q 48.872781 40.547933 48.683386 40.215716 
Q 48.495543 39.881946 48.202136 39.664607 
Q 47.908729 39.445716 47.526834 39.341704 
Q 47.144938 39.236139 46.707156 39.236139 
Q 46.101713 39.236139 45.643749 39.450373 
Q 45.187338 39.664607 44.883063 40.037188 
Q 44.580342 40.409768 44.431309 40.9112 
Q 44.282277 41.412631 44.282277 41.988579 
Q 44.282277 42.564526 44.435967 43.047329 
Q 44.591209 43.528579 44.89393 43.876321 
Q 45.196652 44.224063 45.648406 44.413458 
Q 46.101713 44.6013 46.686975 44.6013 
Q 47.671209 44.6013 48.242499 44.085897 
Q 48.813789 43.568942 48.951955 42.614204 
L 48.088809 42.614204 
Q 48.008084 43.210333 47.655684 43.539446 
Q 47.303285 43.867006 46.67766 43.867006 
Q 46.280241 43.867006 45.991491 43.708659 
Q 45.704293 43.54876 45.524213 43.286401 
Q 45.345684 43.02249 45.260301 42.685615 
Q 45.176471 42.347187 45.176471 41.988579 
Q 45.176471 41.602026 45.255644 41.23876 
Q 45.33637 40.875494 45.519555 40.597611 
Q 45.704293 40.319728 46.011672 40.150514 
Q 46.319051 39.9813 46.777015 39.9813 
Q 47.3126 39.9813 47.630846 40.249869 
Q 47.949092 40.518437 48.048446 41.005897 
z
M 54.447208 44.47245 
Q 54.228317 44.6013 53.840212 44.6013 
Q 53.512652 44.6013 53.318599 44.418115 
Q 53.126099 44.234929 53.126099 43.817329 
Q 52.778357 44.234929 52.315736 44.418115 
Q 51.853116 44.6013 51.317531 44.6013 
Q 50.969789 44.6013 50.6562 44.522127 
Q 50.344164 44.442954 50.114406 44.27374 
Q 49.8862 44.104526 49.75114 43.8313 
Q 49.617632 43.558075 49.617632 43.171522 
Q 49.617632 42.73374 49.766664 42.455857 
Q 49.915696 42.177974 50.159426 42.004103 
Q 50.403156 41.830232 50.715192 41.741744 
Q 51.028781 41.651704 51.356341 41.591159 
Q 51.704083 41.5213 52.017672 41.487147 
Q 52.331261 41.452994 52.568781 41.387792 
Q 52.807853 41.322591 52.946019 41.198397 
Q 53.085736 41.074204 53.085736 40.836683 
Q 53.085736 40.5588 52.981724 40.389587 
Q 52.877712 40.220373 52.713156 40.131885 
Q 52.548599 40.041845 52.345232 40.012349 
Q 52.141866 39.9813 51.943156 39.9813 
Q 51.406019 39.9813 51.048962 40.18622 
Q 50.691906 40.389587 50.660857 40.95622 
L 49.816341 40.95622 
Q 49.836523 40.478075 50.015051 40.150514 
Q 50.195132 39.822954 50.493196 39.619587 
Q 50.791261 39.41622 51.173156 39.326179 
Q 51.555051 39.236139 51.992833 39.236139 
Q 52.340575 39.236139 52.68366 39.285817 
Q 53.026745 39.335494 53.304628 39.490736 
Q 53.582511 39.644425 53.751724 39.922308 
Q 53.920938 40.200192 53.920938 40.647288 
L 53.920938 43.291058 
Q 53.920938 43.589123 53.955091 43.728841 
Q 53.989245 43.867006 54.187954 43.867006 
Q 54.298176 43.867006 54.447208 43.817329 
L 54.447208 44.47245 
z
M 53.076422 41.839546 
Q 52.916523 41.959083 52.657269 42.013417 
Q 52.399567 42.067752 52.117027 42.103458 
Q 51.834486 42.137611 51.545736 42.182631 
Q 51.256986 42.227651 51.028781 42.327006 
Q 50.800575 42.426361 50.6562 42.611099 
Q 50.511825 42.794284 50.511825 43.110978 
Q 50.511825 43.320554 50.595656 43.464929 
Q 50.681039 43.607752 50.814547 43.697792 
Q 50.949607 43.787833 51.128136 43.828196 
Q 51.306664 43.867006 51.505374 43.867006 
Q 51.922974 43.867006 52.221039 43.753679 
Q 52.519103 43.6388 52.706946 43.464929 
Q 52.896341 43.291058 52.986382 43.087692 
Q 53.076422 42.882772 53.076422 42.704244 
L 53.076422 41.839546 
z
M 55.282099 37.398075 
L 55.282099 44.492631 
L 56.126615 44.492631 
L 56.126615 37.398075 
L 55.282099 37.398075 
z
" style="stroke: #ffffff; stroke-width: 2.980645"/>
    <path d="M 20.099315 39.475212 
L 20.993508 39.475212 
Q 20.974879 38.888397 20.76996 38.466139 
Q 20.566593 38.043881 20.214194 37.765998 
Q 19.861794 37.488115 19.394516 37.359264 
Q 18.927238 37.230413 18.380786 37.230413 
Q 17.894879 37.230413 17.432258 37.354607 
Q 16.969637 37.4788 16.606371 37.731845 
Q 16.244657 37.984889 16.025766 38.377651 
Q 15.808427 38.770413 15.808427 39.305998 
Q 15.808427 39.793458 16.000927 40.116361 
Q 16.19498 40.439264 16.517883 40.642631 
Q 16.840786 40.845998 17.24752 40.970192 
Q 17.655806 41.094385 18.078065 41.189083 
Q 18.500323 41.28378 18.907056 41.373821 
Q 19.315343 41.462308 19.638246 41.606683 
Q 19.961149 41.751058 20.153649 41.979264 
Q 20.347702 42.20747 20.347702 42.575393 
Q 20.347702 42.961946 20.189355 43.210333 
Q 20.031008 43.45872 19.771754 43.603095 
Q 19.514052 43.74747 19.191149 43.808014 
Q 18.868246 43.867006 18.55 43.867006 
Q 18.152581 43.867006 17.775343 43.767651 
Q 17.398105 43.668296 17.114012 43.460272 
Q 16.831472 43.250696 16.657601 42.927792 
Q 16.48373 42.604889 16.48373 42.157792 
L 15.589536 42.157792 
Q 15.589536 42.803599 15.822399 43.275534 
Q 16.056815 43.74747 16.458891 44.050192 
Q 16.860968 44.352913 17.391895 44.501946 
Q 17.924375 44.650978 18.520504 44.650978 
Q 19.006411 44.650978 19.498528 44.536099 
Q 19.990645 44.422772 20.388065 44.169728 
Q 20.785484 43.916683 21.038528 43.514607 
Q 21.291573 43.110978 21.291573 42.545897 
Q 21.291573 42.018075 21.09752 41.670333 
Q 20.90502 41.322591 20.582117 41.094385 
Q 20.259214 40.866179 19.850927 40.732671 
Q 19.444194 40.597611 19.021935 40.498256 
Q 18.599677 40.398901 18.191391 40.315071 
Q 17.784657 40.229687 17.461754 40.100837 
Q 17.138851 39.971986 16.944798 39.768619 
Q 16.752298 39.565252 16.752298 39.236139 
Q 16.752298 38.888397 16.885806 38.655534 
Q 17.019315 38.422671 17.242863 38.282954 
Q 17.466411 38.143236 17.755161 38.084244 
Q 18.043911 38.025252 18.341976 38.025252 
Q 19.07627 38.025252 19.548206 38.368337 
Q 20.020141 38.709869 20.099315 39.475212 
z
M 22.325793 39.355675 
L 22.325793 46.450232 
L 23.170309 46.450232 
L 23.170309 43.806462 
L 23.190491 43.806462 
Q 23.328656 44.03622 23.532023 44.189909 
Q 23.736942 44.343599 23.965148 44.433639 
Q 24.193354 44.522127 24.426217 44.560938 
Q 24.660632 44.6013 24.848475 44.6013 
Q 25.435289 44.6013 25.877729 44.393276 
Q 26.320168 44.185252 26.612023 43.821986 
Q 26.90543 43.45872 27.049805 42.972813 
Q 27.19418 42.485353 27.19418 41.938901 
Q 27.19418 41.39245 27.045148 40.906542 
Q 26.896116 40.419083 26.602708 40.046502 
Q 26.309301 39.673921 25.866862 39.45503 
Q 25.425975 39.236139 24.829846 39.236139 
Q 24.292708 39.236139 23.845612 39.430192 
Q 23.398515 39.624244 23.190491 40.051159 
L 23.170309 40.051159 
L 23.170309 39.355675 
L 22.325793 39.355675 
z
M 26.299987 41.879909 
Q 26.299987 42.257147 26.219261 42.615756 
Q 26.140087 42.972813 25.961559 43.250696 
Q 25.783031 43.528579 25.489624 43.697792 
Q 25.196217 43.867006 24.759987 43.867006 
Q 24.322204 43.867006 24.013273 43.704002 
Q 23.705894 43.539446 23.511842 43.270877 
Q 23.319342 43.002308 23.229301 42.649909 
Q 23.140813 42.29751 23.140813 41.91872 
Q 23.140813 41.561663 23.224644 41.213921 
Q 23.308475 40.866179 23.49787 40.592954 
Q 23.687265 40.319728 23.985329 40.150514 
Q 24.283394 39.9813 24.710309 39.9813 
Q 25.117043 39.9813 25.419765 40.1412 
Q 25.724039 40.299546 25.916539 40.568115 
Q 26.110592 40.836683 26.205289 41.179768 
Q 26.299987 41.5213 26.299987 41.879909 
z
M 28.188038 37.398075 
L 28.188038 44.492631 
L 29.032554 44.492631 
L 29.032554 41.591159 
Q 29.032554 41.243417 29.125699 40.951563 
Q 29.220397 40.658155 29.40824 40.439264 
Q 29.597635 40.220373 29.880175 40.100837 
Q 30.164268 39.9813 30.552373 39.9813 
Q 31.03828 39.9813 31.316163 40.260736 
Q 31.595598 40.538619 31.595598 41.015212 
L 31.595598 44.492631 
L 32.440115 44.492631 
L 32.440115 41.114567 
Q 32.440115 40.696966 32.354731 40.355433 
Q 32.270901 40.012349 32.061324 39.763962 
Q 31.8533 39.515575 31.514873 39.375857 
Q 31.177998 39.236139 30.671909 39.236139 
Q 30.442151 39.236139 30.198421 39.285817 
Q 29.956244 39.335494 29.732695 39.441058 
Q 29.509147 39.545071 29.329066 39.709627 
Q 29.150538 39.872631 29.051183 40.111704 
L 29.032554 40.111704 
L 29.032554 37.398075 
L 28.188038 37.398075 
z
M 37.278073 41.432812 
L 34.326924 41.432812 
Q 34.347106 41.134748 34.455775 40.872389 
Q 34.565997 40.608478 34.753839 40.409768 
Q 34.943235 40.211058 35.205593 40.096179 
Q 35.469505 39.9813 35.798618 39.9813 
Q 36.115311 39.9813 36.379222 40.096179 
Q 36.643134 40.211058 36.835634 40.405111 
Q 37.029686 40.597611 37.143013 40.866179 
Q 37.257892 41.134748 37.278073 41.432812 
z
M 38.093093 42.862591 
L 37.257892 42.862591 
Q 37.149222 43.370232 36.806138 43.618619 
Q 36.463053 43.867006 35.927468 43.867006 
Q 35.509868 43.867006 35.200936 43.728841 
Q 34.893557 43.589123 34.694847 43.35626 
Q 34.496138 43.121845 34.406097 42.819123 
Q 34.31761 42.514849 34.326924 42.177974 
L 38.172267 42.177974 
Q 38.192448 41.710696 38.088436 41.19374 
Q 37.984424 40.676784 37.711198 40.240554 
Q 37.437972 39.802772 36.984666 39.520232 
Q 36.532912 39.236139 35.848295 39.236139 
Q 35.320472 39.236139 34.878033 39.434849 
Q 34.437146 39.633558 34.114243 39.992167 
Q 33.791339 40.349224 33.611259 40.836683 
Q 33.432731 41.322591 33.432731 41.909405 
Q 33.452912 42.49622 33.606602 42.992994 
Q 33.761843 43.489768 34.069222 43.846825 
Q 34.376602 44.203881 34.828356 44.402591 
Q 35.281662 44.6013 35.897972 44.6013 
Q 36.771985 44.6013 37.347932 44.165071 
Q 37.92388 43.727288 38.093093 42.862591 
z
M 39.016472 39.355675 
L 39.016472 44.492631 
L 39.860988 44.492631 
L 39.860988 42.20747 
Q 39.860988 41.710696 39.960343 41.3288 
Q 40.059698 40.945353 40.278589 40.678337 
Q 40.49748 40.409768 40.854537 40.27005 
Q 41.213146 40.130333 41.719234 40.130333 
L 41.719234 39.236139 
Q 41.034617 39.21751 40.587521 39.515575 
Q 40.140424 39.813639 39.831492 40.439264 
L 39.811311 40.439264 
L 39.811311 39.355675 
L 39.016472 39.355675 
z
M 43.250229 38.431986 
L 43.250229 37.398075 
L 42.405713 37.398075 
L 42.405713 38.431986 
L 43.250229 38.431986 
z
M 42.405713 39.355675 
L 42.405713 44.492631 
L 43.250229 44.492631 
L 43.250229 39.355675 
L 42.405713 39.355675 
z
M 48.048446 41.005897 
L 48.922459 41.005897 
Q 48.872781 40.547933 48.683386 40.215716 
Q 48.495543 39.881946 48.202136 39.664607 
Q 47.908729 39.445716 47.526834 39.341704 
Q 47.144938 39.236139 46.707156 39.236139 
Q 46.101713 39.236139 45.643749 39.450373 
Q 45.187338 39.664607 44.883063 40.037188 
Q 44.580342 40.409768 44.431309 40.9112 
Q 44.282277 41.412631 44.282277 41.988579 
Q 44.282277 42.564526 44.435967 43.047329 
Q 44.591209 43.528579 44.89393 43.876321 
Q 45.196652 44.224063 45.648406 44.413458 
Q 46.101713 44.6013 46.686975 44.6013 
Q 47.671209 44.6013 48.242499 44.085897 
Q 48.813789 43.568942 48.951955 42.614204 
L 48.088809 42.614204 
Q 48.008084 43.210333 47.655684 43.539446 
Q 47.303285 43.867006 46.67766 43.867006 
Q 46.280241 43.867006 45.991491 43.708659 
Q 45.704293 43.54876 45.524213 43.286401 
Q 45.345684 43.02249 45.260301 42.685615 
Q 45.176471 42.347187 45.176471 41.988579 
Q 45.176471 41.602026 45.255644 41.23876 
Q 45.33637 40.875494 45.519555 40.597611 
Q 45.704293 40.319728 46.011672 40.150514 
Q 46.319051 39.9813 46.777015 39.9813 
Q 47.3126 39.9813 47.630846 40.249869 
Q 47.949092 40.518437 48.048446 41.005897 
z
M 54.447208 44.47245 
Q 54.228317 44.6013 53.840212 44.6013 
Q 53.512652 44.6013 53.318599 44.418115 
Q 53.126099 44.234929 53.126099 43.817329 
Q 52.778357 44.234929 52.315736 44.418115 
Q 51.853116 44.6013 51.317531 44.6013 
Q 50.969789 44.6013 50.6562 44.522127 
Q 50.344164 44.442954 50.114406 44.27374 
Q 49.8862 44.104526 49.75114 43.8313 
Q 49.617632 43.558075 49.617632 43.171522 
Q 49.617632 42.73374 49.766664 42.455857 
Q 49.915696 42.177974 50.159426 42.004103 
Q 50.403156 41.830232 50.715192 41.741744 
Q 51.028781 41.651704 51.356341 41.591159 
Q 51.704083 41.5213 52.017672 41.487147 
Q 52.331261 41.452994 52.568781 41.387792 
Q 52.807853 41.322591 52.946019 41.198397 
Q 53.085736 41.074204 53.085736 40.836683 
Q 53.085736 40.5588 52.981724 40.389587 
Q 52.877712 40.220373 52.713156 40.131885 
Q 52.548599 40.041845 52.345232 40.012349 
Q 52.141866 39.9813 51.943156 39.9813 
Q 51.406019 39.9813 51.048962 40.18622 
Q 50.691906 40.389587 50.660857 40.95622 
L 49.816341 40.95622 
Q 49.836523 40.478075 50.015051 40.150514 
Q 50.195132 39.822954 50.493196 39.619587 
Q 50.791261 39.41622 51.173156 39.326179 
Q 51.555051 39.236139 51.992833 39.236139 
Q 52.340575 39.236139 52.68366 39.285817 
Q 53.026745 39.335494 53.304628 39.490736 
Q 53.582511 39.644425 53.751724 39.922308 
Q 53.920938 40.200192 53.920938 40.647288 
L 53.920938 43.291058 
Q 53.920938 43.589123 53.955091 43.728841 
Q 53.989245 43.867006 54.187954 43.867006 
Q 54.298176 43.867006 54.447208 43.817329 
L 54.447208 44.47245 
z
M 53.076422 41.839546 
Q 52.916523 41.959083 52.657269 42.013417 
Q 52.399567 42.067752 52.117027 42.103458 
Q 51.834486 42.137611 51.545736 42.182631 
Q 51.256986 42.227651 51.028781 42.327006 
Q 50.800575 42.426361 50.6562 42.611099 
Q 50.511825 42.794284 50.511825 43.110978 
Q 50.511825 43.320554 50.595656 43.464929 
Q 50.681039 43.607752 50.814547 43.697792 
Q 50.949607 43.787833 51.128136 43.828196 
Q 51.306664 43.867006 51.505374 43.867006 
Q 51.922974 43.867006 52.221039 43.753679 
Q 52.519103 43.6388 52.706946 43.464929 
Q 52.896341 43.291058 52.986382 43.087692 
Q 53.076422 42.882772 53.076422 42.704244 
L 53.076422 41.839546 
z
M 55.282099 37.398075 
L 55.282099 44.492631 
L 56.126615 44.492631 
L 56.126615 37.398075 
L 55.282099 37.398075 
z
"/>
   </g>
  </g>
 </g>
 <defs>
  <clipPath id="p6cc4271a60">
   <rect x="-194.874129" y="-154.246387" width="221.76" height="221.76"/>
  </clipPath>
 </defs>
</svg>
