<?xml version="1.0" encoding="utf-8" standalone="no"?>
<!DOCTYPE svg PUBLIC "-//W3C//DTD SVG 1.1//EN"
  "http://www.w3.org/Graphics/SVG/1.1/DTD/svg11.dtd">
<svg xmlns:xlink="http://www.w3.org/1999/xlink" width="39.6pt" height="57.6pt" viewBox="0 0 39.6 57.6" xmlns="http://www.w3.org/2000/svg" version="1.1">
 <metadata>
  <rdf:RDF xmlns:dc="http://purl.org/dc/elements/1.1/" xmlns:cc="http://creativecommons.org/ns#" xmlns:rdf="http://www.w3.org/1999/02/22-rdf-syntax-ns#">
   <cc:Work>
    <dc:type rdf:resource="http://purl.org/dc/dcmitype/StillImage"/>
    <dc:date>2026-02-24T19:27:38.491151</dc:date>
    <dc:format>image/svg+xml</dc:format>
    <dc:creator>
     <cc:Agent>
      <dc:title>Matplotlib v3.10.7, https://matplotlib.org/</dc:title>
     </cc:Agent>
    </dc:creator>
   </cc:Work>
  </rdf:RDF>
 </metadata>
 <defs>
  <style type="text/css">*{stroke-linejoin: round; stroke-linecap: butt}</style>
 </defs>
 <g id="figure_1">
  <g id="patch_1">
   <path d="M 0 57.6 
L 39.6 57.6 
L 39.6 0 
L 0 0 
z
" style="fill: #ffffff"/>
  </g>
  <g id="axes_1">
   <g id="line2d_1">
    <defs>
     <path id="md1262bca96" d="M 0 4.967742 
C 1.317461 4.967742 2.581139 4.444309 3.512724 3.512724 
C 4.444309 2.581139 4.967742 1.317461 4.967742 0 
C 4.967742 -1.317461 4.444309 -2.581139 3.512724 -3.512724 
C 2.581139 -4.444309 1.317461 -4.967742 0 -4.967742 
C -1.317461 -4.967742 -2.581139 -4.444309 -3.512724 -3.512724 
C -4.444309 -2.581139 -4.967742 -1.317461 -4.967742 0 
C -4.967742 1.317461 -4.444309 2.581139 -3.512724 3.512724 
C -2.581139 4.444309 -1.317461 4.967742 0 4.967742 
z
" style="stroke: #262626; stroke-width: 0.993548"/>
    </defs>
    <g clip-path="url(#pd9d675a770)">
     <use xlink:href="#md1262bca96" x="7.289113" y="3.295677" style="fill: #51b04d; stroke: #262626; stroke-width: 0.993548"/>
    </g>
   </g>
   <g id="line2d_2">
    <defs>
     <path id="mc798e04322" d="M 0 4.967742 
C 1.317461 4.967742 2.581139 4.444309 3.512724 3.512724 
C 4.444309 2.581139 4.967742 1.317461 4.967742 0 
C 4.967742 -1.317461 4.444309 -2.581139 3.512724 -3.512724 
C 2.581139 -4.444309 1.317461 -4.967742 0 -4.967742 
C -1.317461 -4.967742 -2.581139 -4.444309 -3.512724 -3.512724 
C -4.444309 -2.581139 -4.967742 -1.317461 -4.967742 0 
C -4.967742 1.317461 -4.444309 2.581139 -3.512724 3.512724 
C -2.581139 4.444309 -1.317461 4.967742 0 4.967742 
z
" style="stroke: #262626; stroke-width: 0.993548"/>
    </defs>
    <g clip-path="url(#pd9d675a770)">
     <use xlink:href="#mc798e04322" x="7.289113" y="23.166645" style="fill: #477b9d; stroke: #262626; stroke-width: 0.993548"/>
    </g>
   </g>
   <g id="line2d_3">
    <defs>
     <path id="md26b39eb49" d="M 0 4.967742 
C 1.317461 4.967742 2.581139 4.444309 3.512724 3.512724 
C 4.444309 2.581139 4.967742 1.317461 4.967742 0 
C 4.967742 -1.317461 4.444309 -2.581139 3.512724 -3.512724 
C 2.581139 -4.444309 1.317461 -4.967742 0 -4.967742 
C -1.317461 -4.967742 -2.581139 -4.444309 -3.512724 -3.512724 
C -4.444309 -2.581139 -4.967742 -1.317461 -4.967742 0 
C -4.967742 1.317461 -4.444309 2.581139 -3.512724 3.512724 
C -2.581139 4.444309 -1.317461 4.967742 0 4.967742 
z
" style="stroke: #262626; stroke-width: 0.993548"/>
    </defs>
    <g clip-path="url(#pd9d675a770)">
     <use xlink:href="#md26b39eb49" x="7.289113" y="43.037613" style="fill: #f03f37; stroke: #262626; stroke-width: 0.993548"/>
    </g>
   </g>
   <g id="line2d_4">
    <defs>
     <path id="m4eb071de7b" d="M 0 -4.967742 
L -4.302191 -2.483871 
L -4.302191 2.483871 
L -0 4.967742 
L 4.302191 2.483871 
L 4.302191 -2.483871 
z
" style="stroke: #262626; stroke-width: 0.993548; stroke-linejoin: miter"/>
    </defs>
    <g clip-path="url(#pd9d675a770)">
     <use xlink:href="#m4eb071de7b" x="7.289113" y="53.469871" style="fill: #80b2ff; stroke: #262626; stroke-width: 0.993548; stroke-linejoin: miter"/>
    </g>
   </g>
   <g id="text_1">
    <path d="M 22.102298 1.758782 
L 22.996492 1.758782 
Q 22.977863 1.171968 22.772943 0.74971 
Q 22.569577 0.327452 22.217177 0.049569 
Q 21.864778 -0.228315 21.3975 -0.357165 
Q 20.930222 -0.486016 20.38377 -0.486016 
Q 19.897863 -0.486016 19.435242 -0.361823 
Q 18.972621 -0.237629 18.609355 0.015415 
Q 18.247641 0.26846 18.02875 0.661222 
Q 17.811411 1.053984 17.811411 1.589569 
Q 17.811411 2.077028 18.003911 2.399931 
Q 18.197964 2.722835 18.520867 2.926202 
Q 18.84377 3.129569 19.250504 3.253762 
Q 19.65879 3.377956 20.081048 3.472653 
Q 20.503306 3.567351 20.91004 3.657391 
Q 21.318327 3.745879 21.64123 3.890254 
Q 21.964133 4.034629 22.156633 4.262835 
Q 22.350685 4.49104 22.350685 4.858964 
Q 22.350685 5.245516 22.192339 5.493903 
Q 22.033992 5.74229 21.774738 5.886665 
Q 21.517036 6.03104 21.194133 6.091585 
Q 20.87123 6.150577 20.552984 6.150577 
Q 20.155564 6.150577 19.778327 6.051222 
Q 19.401089 5.951867 19.116996 5.743843 
Q 18.834456 5.534266 18.660585 5.211363 
Q 18.486714 4.88846 18.486714 4.441363 
L 17.59252 4.441363 
Q 17.59252 5.087169 17.825383 5.559105 
Q 18.059798 6.03104 18.461875 6.333762 
Q 18.863952 6.636484 19.394879 6.785516 
Q 19.927359 6.934548 20.523488 6.934548 
Q 21.009395 6.934548 21.501512 6.819669 
Q 21.993629 6.706343 22.391048 6.453298 
Q 22.788468 6.200254 23.041512 5.798177 
Q 23.294556 5.394548 23.294556 4.829468 
Q 23.294556 4.301645 23.100504 3.953903 
Q 22.908004 3.606161 22.585101 3.377956 
Q 22.262197 3.14975 21.853911 3.016242 
Q 21.447177 2.881181 21.024919 2.781827 
Q 20.602661 2.682472 20.194375 2.598641 
Q 19.787641 2.513258 19.464738 2.384407 
Q 19.141835 2.255556 18.947782 2.05219 
Q 18.755282 1.848823 18.755282 1.51971 
Q 18.755282 1.171968 18.88879 0.939105 
Q 19.022298 0.706242 19.245847 0.566524 
Q 19.469395 0.426806 19.758145 0.367815 
Q 20.046895 0.308823 20.34496 0.308823 
Q 21.079254 0.308823 21.551189 0.651907 
Q 22.023125 0.99344 22.102298 1.758782 
z
M 24.268233 1.639246 
L 24.268233 6.776202 
L 25.112749 6.776202 
L 25.112749 4.49104 
Q 25.112749 3.994266 25.212104 3.612371 
Q 25.311458 3.228923 25.530349 2.961907 
Q 25.749241 2.693339 26.106297 2.553621 
Q 26.464906 2.413903 26.970995 2.413903 
L 26.970995 1.51971 
Q 26.286378 1.501081 25.839281 1.799145 
Q 25.392184 2.09721 25.083253 2.722835 
L 25.063071 2.722835 
L 25.063071 1.639246 
L 24.268233 1.639246 
z
M 28.400849 2.39574 
L 30.794835 2.39574 
L 30.794835 2.972774 
L 27.576049 2.972774 
L 27.576049 2.39574 
Q 27.966172 1.99149 28.639922 1.31122 
Q 29.314759 0.629863 29.487543 0.432085 
Q 29.816811 0.062609 29.947214 -0.193851 
Q 30.078704 -0.45031 30.078704 -0.698077 
Q 30.078704 -1.102327 29.795077 -1.356613 
Q 29.51145 -1.611986 29.056125 -1.611986 
Q 28.733378 -1.611986 28.374769 -1.500056 
Q 28.017246 -1.388127 27.609736 -1.159921 
L 27.609736 -1.853232 
Q 28.023767 -2.019496 28.383462 -2.104258 
Q 28.744244 -2.18902 29.043085 -2.18902 
Q 29.830938 -2.18902 30.299303 -1.79455 
Q 30.767668 -1.401167 30.767668 -0.742631 
Q 30.767668 -0.429663 30.650305 -0.149296 
Q 30.534029 0.129984 30.224321 0.510327 
Q 30.139559 0.609216 29.684234 1.079754 
Q 29.229996 1.550292 28.400849 2.39574 
z
M 34.916302 -1.388127 
L 34.916302 0.503806 
L 36.807148 0.503806 
L 36.807148 1.080841 
L 34.916302 1.080841 
L 34.916302 2.972774 
L 34.345788 2.972774 
L 34.345788 1.080841 
L 32.453854 1.080841 
L 32.453854 0.503806 
L 34.345788 0.503806 
L 34.345788 -1.388127 
L 34.916302 -1.388127 
z
" style="stroke: #ffffff; stroke-width: 2.980645"/>
    <path d="M 22.102298 1.758782 
L 22.996492 1.758782 
Q 22.977863 1.171968 22.772943 0.74971 
Q 22.569577 0.327452 22.217177 0.049569 
Q 21.864778 -0.228315 21.3975 -0.357165 
Q 20.930222 -0.486016 20.38377 -0.486016 
Q 19.897863 -0.486016 19.435242 -0.361823 
Q 18.972621 -0.237629 18.609355 0.015415 
Q 18.247641 0.26846 18.02875 0.661222 
Q 17.811411 1.053984 17.811411 1.589569 
Q 17.811411 2.077028 18.003911 2.399931 
Q 18.197964 2.722835 18.520867 2.926202 
Q 18.84377 3.129569 19.250504 3.253762 
Q 19.65879 3.377956 20.081048 3.472653 
Q 20.503306 3.567351 20.91004 3.657391 
Q 21.318327 3.745879 21.64123 3.890254 
Q 21.964133 4.034629 22.156633 4.262835 
Q 22.350685 4.49104 22.350685 4.858964 
Q 22.350685 5.245516 22.192339 5.493903 
Q 22.033992 5.74229 21.774738 5.886665 
Q 21.517036 6.03104 21.194133 6.091585 
Q 20.87123 6.150577 20.552984 6.150577 
Q 20.155564 6.150577 19.778327 6.051222 
Q 19.401089 5.951867 19.116996 5.743843 
Q 18.834456 5.534266 18.660585 5.211363 
Q 18.486714 4.88846 18.486714 4.441363 
L 17.59252 4.441363 
Q 17.59252 5.087169 17.825383 5.559105 
Q 18.059798 6.03104 18.461875 6.333762 
Q 18.863952 6.636484 19.394879 6.785516 
Q 19.927359 6.934548 20.523488 6.934548 
Q 21.009395 6.934548 21.501512 6.819669 
Q 21.993629 6.706343 22.391048 6.453298 
Q 22.788468 6.200254 23.041512 5.798177 
Q 23.294556 5.394548 23.294556 4.829468 
Q 23.294556 4.301645 23.100504 3.953903 
Q 22.908004 3.606161 22.585101 3.377956 
Q 22.262197 3.14975 21.853911 3.016242 
Q 21.447177 2.881181 21.024919 2.781827 
Q 20.602661 2.682472 20.194375 2.598641 
Q 19.787641 2.513258 19.464738 2.384407 
Q 19.141835 2.255556 18.947782 2.05219 
Q 18.755282 1.848823 18.755282 1.51971 
Q 18.755282 1.171968 18.88879 0.939105 
Q 19.022298 0.706242 19.245847 0.566524 
Q 19.469395 0.426806 19.758145 0.367815 
Q 20.046895 0.308823 20.34496 0.308823 
Q 21.079254 0.308823 21.551189 0.651907 
Q 22.023125 0.99344 22.102298 1.758782 
z
M 24.268233 1.639246 
L 24.268233 6.776202 
L 25.112749 6.776202 
L 25.112749 4.49104 
Q 25.112749 3.994266 25.212104 3.612371 
Q 25.311458 3.228923 25.530349 2.961907 
Q 25.749241 2.693339 26.106297 2.553621 
Q 26.464906 2.413903 26.970995 2.413903 
L 26.970995 1.51971 
Q 26.286378 1.501081 25.839281 1.799145 
Q 25.392184 2.09721 25.083253 2.722835 
L 25.063071 2.722835 
L 25.063071 1.639246 
L 24.268233 1.639246 
z
M 28.400849 2.39574 
L 30.794835 2.39574 
L 30.794835 2.972774 
L 27.576049 2.972774 
L 27.576049 2.39574 
Q 27.966172 1.99149 28.639922 1.31122 
Q 29.314759 0.629863 29.487543 0.432085 
Q 29.816811 0.062609 29.947214 -0.193851 
Q 30.078704 -0.45031 30.078704 -0.698077 
Q 30.078704 -1.102327 29.795077 -1.356613 
Q 29.51145 -1.611986 29.056125 -1.611986 
Q 28.733378 -1.611986 28.374769 -1.500056 
Q 28.017246 -1.388127 27.609736 -1.159921 
L 27.609736 -1.853232 
Q 28.023767 -2.019496 28.383462 -2.104258 
Q 28.744244 -2.18902 29.043085 -2.18902 
Q 29.830938 -2.18902 30.299303 -1.79455 
Q 30.767668 -1.401167 30.767668 -0.742631 
Q 30.767668 -0.429663 30.650305 -0.149296 
Q 30.534029 0.129984 30.224321 0.510327 
Q 30.139559 0.609216 29.684234 1.079754 
Q 29.229996 1.550292 28.400849 2.39574 
z
M 34.916302 -1.388127 
L 34.916302 0.503806 
L 36.807148 0.503806 
L 36.807148 1.080841 
L 34.916302 1.080841 
L 34.916302 2.972774 
L 34.345788 2.972774 
L 34.345788 1.080841 
L 32.453854 1.080841 
L 32.453854 0.503806 
L 34.345788 0.503806 
L 34.345788 -1.388127 
L 34.916302 -1.388127 
z
"/>
   </g>
   <g id="text_2">
    <path d="M 19.609113 20.329599 
L 19.609113 26.629317 
L 20.552984 26.629317 
L 20.552984 20.329599 
L 22.917318 20.329599 
L 22.917318 19.53476 
L 17.244778 19.53476 
L 17.244778 20.329599 
L 19.609113 20.329599 
z
M 24.458249 20.568671 
L 24.458249 19.53476 
L 23.613733 19.53476 
L 23.613733 20.568671 
L 24.458249 20.568671 
z
M 23.613733 21.492361 
L 23.613733 26.629317 
L 24.458249 26.629317 
L 24.458249 21.492361 
L 23.613733 21.492361 
z
" style="stroke: #ffffff; stroke-width: 2.980645"/>
    <path d="M 19.609113 20.329599 
L 19.609113 26.629317 
L 20.552984 26.629317 
L 20.552984 20.329599 
L 22.917318 20.329599 
L 22.917318 19.53476 
L 17.244778 19.53476 
L 17.244778 20.329599 
L 19.609113 20.329599 
z
M 24.458249 20.568671 
L 24.458249 19.53476 
L 23.613733 19.53476 
L 23.613733 20.568671 
L 24.458249 20.568671 
z
M 23.613733 21.492361 
L 23.613733 26.629317 
L 24.458249 26.629317 
L 24.458249 21.492361 
L 23.613733 21.492361 
z
"/>
   </g>
   <g id="text_3">
    <path d="M 18.545706 42.953006 
Q 18.545706 42.417421 18.683871 41.895808 
Q 18.823589 41.374196 19.121653 40.956595 
Q 19.419718 40.538994 19.886996 40.28595 
Q 20.354274 40.032905 21.000081 40.032905 
Q 21.645887 40.032905 22.113165 40.28595 
Q 22.580443 40.538994 22.878508 40.956595 
Q 23.176572 41.374196 23.314738 41.895808 
Q 23.454456 42.417421 23.454456 42.953006 
Q 23.454456 43.490143 23.314738 44.011756 
Q 23.176572 44.533369 22.878508 44.95097 
Q 22.580443 45.367018 22.113165 45.621615 
Q 21.645887 45.874659 21.000081 45.874659 
Q 20.354274 45.874659 19.886996 45.621615 
Q 19.419718 45.367018 19.121653 44.95097 
Q 18.823589 44.533369 18.683871 44.011756 
Q 18.545706 43.490143 18.545706 42.953006 
z
M 17.601835 42.953006 
Q 17.601835 43.677986 17.814516 44.348631 
Q 18.02875 45.019276 18.455665 45.536232 
Q 18.884133 46.053188 19.519072 46.355909 
Q 20.155564 46.658631 21.000081 46.658631 
Q 21.844597 46.658631 22.479536 46.355909 
Q 23.116028 46.053188 23.542943 45.536232 
Q 23.971411 45.019276 24.184093 44.348631 
Q 24.398327 43.677986 24.398327 42.953006 
Q 24.398327 42.228026 24.184093 41.557381 
Q 23.971411 40.886736 23.542943 40.36978 
Q 23.116028 39.852825 22.479536 39.545446 
Q 21.844597 39.238067 21.000081 39.238067 
Q 20.155564 39.238067 19.519072 39.545446 
Q 18.884133 39.852825 18.455665 40.36978 
Q 18.02875 40.886736 17.814516 41.557381 
Q 17.601835 42.228026 17.601835 42.953006 
z
" style="stroke: #ffffff; stroke-width: 2.980645"/>
    <path d="M 18.545706 42.953006 
Q 18.545706 42.417421 18.683871 41.895808 
Q 18.823589 41.374196 19.121653 40.956595 
Q 19.419718 40.538994 19.886996 40.28595 
Q 20.354274 40.032905 21.000081 40.032905 
Q 21.645887 40.032905 22.113165 40.28595 
Q 22.580443 40.538994 22.878508 40.956595 
Q 23.176572 41.374196 23.314738 41.895808 
Q 23.454456 42.417421 23.454456 42.953006 
Q 23.454456 43.490143 23.314738 44.011756 
Q 23.176572 44.533369 22.878508 44.95097 
Q 22.580443 45.367018 22.113165 45.621615 
Q 21.645887 45.874659 21.000081 45.874659 
Q 20.354274 45.874659 19.886996 45.621615 
Q 19.419718 45.367018 19.121653 44.95097 
Q 18.823589 44.533369 18.683871 44.011756 
Q 18.545706 43.490143 18.545706 42.953006 
z
M 17.601835 42.953006 
Q 17.601835 43.677986 17.814516 44.348631 
Q 18.02875 45.019276 18.455665 45.536232 
Q 18.884133 46.053188 19.519072 46.355909 
Q 20.155564 46.658631 21.000081 46.658631 
Q 21.844597 46.658631 22.479536 46.355909 
Q 23.116028 46.053188 23.542943 45.536232 
Q 23.971411 45.019276 24.184093 44.348631 
Q 24.398327 43.677986 24.398327 42.953006 
Q 24.398327 42.228026 24.184093 41.557381 
Q 23.971411 40.886736 23.542943 40.36978 
Q 23.116028 39.852825 22.479536 39.545446 
Q 21.844597 39.238067 21.000081 39.238067 
Q 20.155564 39.238067 19.519072 39.545446 
Q 18.884133 39.852825 18.455665 40.36978 
Q 18.02875 40.886736 17.814516 41.557381 
Q 17.601835 42.228026 17.601835 42.953006 
z
"/>
   </g>
   <g id="text_4">
    <path d="M 19.609113 50.587028 
L 19.609113 56.886746 
L 20.552984 56.886746 
L 20.552984 50.587028 
L 22.917318 50.587028 
L 22.917318 49.79219 
L 17.244778 49.79219 
L 17.244778 50.587028 
L 19.609113 50.587028 
z
M 24.458249 50.826101 
L 24.458249 49.79219 
L 23.613733 49.79219 
L 23.613733 50.826101 
L 24.458249 50.826101 
z
M 23.613733 51.74979 
L 23.613733 56.886746 
L 24.458249 56.886746 
L 24.458249 51.74979 
L 23.613733 51.74979 
z
M 26.45435 53.339468 
Q 26.45435 52.803883 26.592515 52.28227 
Q 26.732233 51.760657 27.030297 51.343056 
Q 27.328362 50.925456 27.79564 50.672411 
Q 28.262918 50.419367 28.908725 50.419367 
Q 29.554531 50.419367 30.021809 50.672411 
Q 30.489088 50.925456 30.787152 51.343056 
Q 31.085217 51.760657 31.223382 52.28227 
Q 31.3631 52.803883 31.3631 53.339468 
Q 31.3631 53.876605 31.223382 54.398218 
Q 31.085217 54.919831 30.787152 55.337431 
Q 30.489088 55.75348 30.021809 56.008077 
Q 29.554531 56.261121 28.908725 56.261121 
Q 28.262918 56.261121 27.79564 56.008077 
Q 27.328362 55.75348 27.030297 55.337431 
Q 26.732233 54.919831 26.592515 54.398218 
Q 26.45435 53.876605 26.45435 53.339468 
z
M 25.510479 53.339468 
Q 25.510479 54.064448 25.72316 54.735093 
Q 25.937394 55.405738 26.364309 55.922694 
Q 26.792777 56.439649 27.427717 56.742371 
Q 28.064209 57.045093 28.908725 57.045093 
Q 29.753241 57.045093 30.38818 56.742371 
Q 31.024672 56.439649 31.451588 55.922694 
Q 31.880055 55.405738 32.092737 54.735093 
Q 32.306971 54.064448 32.306971 53.339468 
Q 32.306971 52.614488 32.092737 51.943843 
Q 31.880055 51.273198 31.451588 50.756242 
Q 31.024672 50.239286 30.38818 49.931907 
Q 29.753241 49.624528 28.908725 49.624528 
Q 28.064209 49.624528 27.427717 49.931907 
Q 26.792777 50.239286 26.364309 50.756242 
Q 25.937394 51.273198 25.72316 51.943843 
Q 25.510479 52.614488 25.510479 53.339468 
z
M 35.075476 55.70877 
Q 34.613632 55.70877 34.343045 56.024998 
Q 34.073545 56.340139 34.073545 56.890006 
Q 34.073545 57.436613 34.343045 57.755014 
Q 34.613632 58.072329 35.075476 58.072329 
Q 35.537321 58.072329 35.806821 57.755014 
Q 36.076321 57.436613 36.076321 56.890006 
Q 36.076321 56.340139 35.806821 56.024998 
Q 35.537321 55.70877 35.075476 55.70877 
z
M 36.437103 53.558204 
L 36.437103 54.183052 
Q 36.17847 54.061343 35.91549 53.997228 
Q 35.652511 53.932026 35.393878 53.932026 
Q 34.714694 53.932026 34.356085 54.390611 
Q 33.998563 54.849196 33.947488 55.776145 
Q 34.14744 55.480565 34.449541 55.322994 
Q 34.752728 55.165423 35.115684 55.165423 
Q 35.87963 55.165423 36.323 55.629442 
Q 36.766371 56.092373 36.766371 56.890006 
Q 36.766371 57.671339 36.304527 58.14405 
Q 35.842682 58.615675 35.075476 58.615675 
Q 34.195255 58.615675 33.73015 57.941925 
Q 33.265045 57.267089 33.265045 55.986964 
Q 33.265045 54.785081 33.835559 54.070036 
Q 34.406073 53.354992 35.36671 53.354992 
Q 35.625343 53.354992 35.888323 53.406067 
Q 36.151303 53.457141 36.437103 53.558204 
z
" style="stroke: #ffffff; stroke-width: 2.980645"/>
    <path d="M 19.609113 50.587028 
L 19.609113 56.886746 
L 20.552984 56.886746 
L 20.552984 50.587028 
L 22.917318 50.587028 
L 22.917318 49.79219 
L 17.244778 49.79219 
L 17.244778 50.587028 
L 19.609113 50.587028 
z
M 24.458249 50.826101 
L 24.458249 49.79219 
L 23.613733 49.79219 
L 23.613733 50.826101 
L 24.458249 50.826101 
z
M 23.613733 51.74979 
L 23.613733 56.886746 
L 24.458249 56.886746 
L 24.458249 51.74979 
L 23.613733 51.74979 
z
M 26.45435 53.339468 
Q 26.45435 52.803883 26.592515 52.28227 
Q 26.732233 51.760657 27.030297 51.343056 
Q 27.328362 50.925456 27.79564 50.672411 
Q 28.262918 50.419367 28.908725 50.419367 
Q 29.554531 50.419367 30.021809 50.672411 
Q 30.489088 50.925456 30.787152 51.343056 
Q 31.085217 51.760657 31.223382 52.28227 
Q 31.3631 52.803883 31.3631 53.339468 
Q 31.3631 53.876605 31.223382 54.398218 
Q 31.085217 54.919831 30.787152 55.337431 
Q 30.489088 55.75348 30.021809 56.008077 
Q 29.554531 56.261121 28.908725 56.261121 
Q 28.262918 56.261121 27.79564 56.008077 
Q 27.328362 55.75348 27.030297 55.337431 
Q 26.732233 54.919831 26.592515 54.398218 
Q 26.45435 53.876605 26.45435 53.339468 
z
M 25.510479 53.339468 
Q 25.510479 54.064448 25.72316 54.735093 
Q 25.937394 55.405738 26.364309 55.922694 
Q 26.792777 56.439649 27.427717 56.742371 
Q 28.064209 57.045093 28.908725 57.045093 
Q 29.753241 57.045093 30.38818 56.742371 
Q 31.024672 56.439649 31.451588 55.922694 
Q 31.880055 55.405738 32.092737 54.735093 
Q 32.306971 54.064448 32.306971 53.339468 
Q 32.306971 52.614488 32.092737 51.943843 
Q 31.880055 51.273198 31.451588 50.756242 
Q 31.024672 50.239286 30.38818 49.931907 
Q 29.753241 49.624528 28.908725 49.624528 
Q 28.064209 49.624528 27.427717 49.931907 
Q 26.792777 50.239286 26.364309 50.756242 
Q 25.937394 51.273198 25.72316 51.943843 
Q 25.510479 52.614488 25.510479 53.339468 
z
M 35.075476 55.70877 
Q 34.613632 55.70877 34.343045 56.024998 
Q 34.073545 56.340139 34.073545 56.890006 
Q 34.073545 57.436613 34.343045 57.755014 
Q 34.613632 58.072329 35.075476 58.072329 
Q 35.537321 58.072329 35.806821 57.755014 
Q 36.076321 57.436613 36.076321 56.890006 
Q 36.076321 56.340139 35.806821 56.024998 
Q 35.537321 55.70877 35.075476 55.70877 
z
M 36.437103 53.558204 
L 36.437103 54.183052 
Q 36.17847 54.061343 35.91549 53.997228 
Q 35.652511 53.932026 35.393878 53.932026 
Q 34.714694 53.932026 34.356085 54.390611 
Q 33.998563 54.849196 33.947488 55.776145 
Q 34.14744 55.480565 34.449541 55.322994 
Q 34.752728 55.165423 35.115684 55.165423 
Q 35.87963 55.165423 36.323 55.629442 
Q 36.766371 56.092373 36.766371 56.890006 
Q 36.766371 57.671339 36.304527 58.14405 
Q 35.842682 58.615675 35.075476 58.615675 
Q 34.195255 58.615675 33.73015 57.941925 
Q 33.265045 57.267089 33.265045 55.986964 
Q 33.265045 54.785081 33.835559 54.070036 
Q 34.406073 53.354992 35.36671 53.354992 
Q 35.625343 53.354992 35.888323 53.406067 
Q 36.151303 53.457141 36.437103 53.558204 
z
"/>
   </g>
  </g>
 </g>
 <defs>
  <clipPath id="pd9d675a770">
   <rect x="-192.871145" y="-141.722645" width="221.76" height="221.76"/>
  </clipPath>
 </defs>
</svg>
