<?xml version="1.0" encoding="utf-8" standalone="no"?>
<!DOCTYPE svg PUBLIC "-//W3C//DTD SVG 1.1//EN"
  "http://www.w3.org/Graphics/SVG/1.1/DTD/svg11.dtd">
<svg xmlns:xlink="http://www.w3.org/1999/xlink" width="39.6pt" height="97.2pt" viewBox="0 0 39.6 97.2" xmlns="http://www.w3.org/2000/svg" version="1.1">
 <metadata>
  <rdf:RDF xmlns:dc="http://purl.org/dc/elements/1.1/" xmlns:cc="http://creativecommons.org/ns#" xmlns:rdf="http://www.w3.org/1999/02/22-rdf-syntax-ns#">
   <cc:Work>
    <dc:type rdf:resource="http://purl.org/dc/dcmitype/StillImage"/>
    <dc:date>2026-02-24T19:34:14.789739</dc:date>
    <dc:format>image/svg+xml</dc:format>
    <dc:creator>
     <cc:Agent>
      <dc:title>Matplotlib v3.10.7, https://matplotlib.org/</dc:title>
     </cc:Agent>
    </dc:creator>
   </cc:Work>
  </rdf:RDF>
 </metadata>
 <defs>
  <style type="text/css">*{stroke-linejoin: round; stroke-linecap: butt}</style>
 </defs>
 <g id="figure_1">
  <g id="patch_1">
   <path d="M 0 97.2 
L 39.6 97.2 
L 39.6 0 
L 0 0 
z
" style="fill: #ffffff"/>
  </g>
  <g id="axes_1">
   <g id="line2d_1">
    <defs>
     <path id="m74c75279e4" d="M 0 4.967742 
C 1.317461 4.967742 2.581139 4.444309 3.512724 3.512724 
C 4.444309 2.581139 4.967742 1.317461 4.967742 0 
C 4.967742 -1.317461 4.444309 -2.581139 3.512724 -3.512724 
C 2.581139 -4.444309 1.317461 -4.967742 0 -4.967742 
C -1.317461 -4.967742 -2.581139 -4.444309 -3.512724 -3.512724 
C -4.444309 -2.581139 -4.967742 -1.317461 -4.967742 0 
C -4.967742 1.317461 -4.444309 2.581139 -3.512724 3.512724 
C -2.581139 4.444309 -1.317461 4.967742 0 4.967742 
z
" style="stroke: #262626; stroke-width: 0.993548"/>
    </defs>
    <g clip-path="url(#pd446bebdef)">
     <use xlink:href="#m74c75279e4" x="4.321581" y="19.452065" style="fill: #51b04d; stroke: #262626; stroke-width: 0.993548"/>
    </g>
   </g>
   <g id="line2d_2">
    <defs>
     <path id="m1bd555c861" d="M 0 4.967742 
C 1.317461 4.967742 2.581139 4.444309 3.512724 3.512724 
C 4.444309 2.581139 4.967742 1.317461 4.967742 0 
C 4.967742 -1.317461 4.444309 -2.581139 3.512724 -3.512724 
C 2.581139 -4.444309 1.317461 -4.967742 0 -4.967742 
C -1.317461 -4.967742 -2.581139 -4.444309 -3.512724 -3.512724 
C -4.444309 -2.581139 -4.967742 -1.317461 -4.967742 0 
C -4.967742 1.317461 -4.444309 2.581139 -3.512724 3.512724 
C -2.581139 4.444309 -1.317461 4.967742 0 4.967742 
z
" style="stroke: #262626; stroke-width: 0.993548"/>
    </defs>
    <g clip-path="url(#pd446bebdef)">
     <use xlink:href="#m1bd555c861" x="4.321581" y="32.616581" style="fill: #477b9d; stroke: #262626; stroke-width: 0.993548"/>
    </g>
   </g>
   <g id="line2d_3">
    <defs>
     <path id="m97484f0b4e" d="M 0 4.967742 
C 1.317461 4.967742 2.581139 4.444309 3.512724 3.512724 
C 4.444309 2.581139 4.967742 1.317461 4.967742 0 
C 4.967742 -1.317461 4.444309 -2.581139 3.512724 -3.512724 
C 2.581139 -4.444309 1.317461 -4.967742 0 -4.967742 
C -1.317461 -4.967742 -2.581139 -4.444309 -3.512724 -3.512724 
C -4.444309 -2.581139 -4.967742 -1.317461 -4.967742 0 
C -4.967742 1.317461 -4.444309 2.581139 -3.512724 3.512724 
C -2.581139 4.444309 -1.317461 4.967742 0 4.967742 
z
" style="stroke: #262626; stroke-width: 0.993548"/>
    </defs>
    <g clip-path="url(#pd446bebdef)">
     <use xlink:href="#m97484f0b4e" x="4.321581" y="45.781097" style="fill: #f03f37; stroke: #262626; stroke-width: 0.993548"/>
    </g>
   </g>
   <g id="line2d_4">
    <defs>
     <path id="m26d2cd0371" d="M 0 -4.967742 
L -4.302191 -2.483871 
L -4.302191 2.483871 
L -0 4.967742 
L 4.302191 2.483871 
L 4.302191 -2.483871 
z
" style="stroke: #262626; stroke-width: 0.993548; stroke-linejoin: miter"/>
    </defs>
    <g clip-path="url(#pd446bebdef)">
     <use xlink:href="#m26d2cd0371" x="4.321581" y="63.664968" style="fill: #80b2ff; stroke: #262626; stroke-width: 0.993548; stroke-linejoin: miter"/>
    </g>
   </g>
   <g id="line2d_5">
    <defs>
     <path id="m7a9bf28fc0" d="M -3.512724 -3.512724 
L -3.512724 3.512724 
L 3.512724 3.512724 
L 3.512724 -3.512724 
z
" style="stroke: #262626; stroke-width: 0.993548; stroke-linejoin: miter"/>
    </defs>
    <g clip-path="url(#pd446bebdef)">
     <use xlink:href="#m7a9bf28fc0" x="4.321581" y="76.829484" style="fill: #d9a6d9; stroke: #262626; stroke-width: 0.993548; stroke-linejoin: miter"/>
    </g>
   </g>
   <g id="text_1">
    <path d="M 19.134767 17.915169 
L 20.02896 17.915169 
Q 20.010331 17.328355 19.805412 16.906097 
Q 19.602045 16.483839 19.249646 16.205956 
Q 18.897246 15.928073 18.429968 15.799222 
Q 17.96269 15.670371 17.416238 15.670371 
Q 16.930331 15.670371 16.46771 15.794565 
Q 16.005089 15.918758 15.641823 16.171802 
Q 15.280109 16.424847 15.061218 16.817609 
Q 14.84388 17.210371 14.84388 17.745956 
Q 14.84388 18.233415 15.03638 18.556319 
Q 15.230432 18.879222 15.553335 19.082589 
Q 15.876238 19.285956 16.282972 19.410149 
Q 16.691259 19.534343 17.113517 19.62904 
Q 17.535775 19.723738 17.942509 19.813778 
Q 18.350795 19.902266 18.673698 20.046641 
Q 18.996601 20.191016 19.189101 20.419222 
Q 19.383154 20.647427 19.383154 21.015351 
Q 19.383154 21.401903 19.224807 21.65029 
Q 19.06646 21.898677 18.807206 22.043052 
Q 18.549505 22.187427 18.226601 22.247972 
Q 17.903698 22.306964 17.585452 22.306964 
Q 17.188033 22.306964 16.810795 22.207609 
Q 16.433557 22.108254 16.149464 21.90023 
Q 15.866924 21.690653 15.693053 21.36775 
Q 15.519182 21.044847 15.519182 20.59775 
L 14.624988 20.59775 
Q 14.624988 21.243556 14.857851 21.715492 
Q 15.092267 22.187427 15.494343 22.490149 
Q 15.89642 22.792871 16.427347 22.941903 
Q 16.959827 23.090935 17.555956 23.090935 
Q 18.041863 23.090935 18.53398 22.976056 
Q 19.026097 22.86273 19.423517 22.609685 
Q 19.820936 22.356641 20.07398 21.954565 
Q 20.327025 21.550935 20.327025 20.985855 
Q 20.327025 20.458032 20.132972 20.11029 
Q 19.940472 19.762548 19.617569 19.534343 
Q 19.294666 19.306137 18.88638 19.172629 
Q 18.479646 19.037569 18.057388 18.938214 
Q 17.63513 18.838859 17.226843 18.755028 
Q 16.820109 18.669645 16.497206 18.540794 
Q 16.174303 18.411944 15.98025 18.208577 
Q 15.78775 18.00521 15.78775 17.676097 
Q 15.78775 17.328355 15.921259 17.095492 
Q 16.054767 16.862629 16.278315 16.722911 
Q 16.501863 16.583194 16.790613 16.524202 
Q 17.079363 16.46521 17.377428 16.46521 
Q 18.111722 16.46521 18.583658 16.808294 
Q 19.055593 17.149827 19.134767 17.915169 
z
M 21.300701 17.795633 
L 21.300701 22.932589 
L 22.145217 22.932589 
L 22.145217 20.647427 
Q 22.145217 20.150653 22.244572 19.768758 
Q 22.343927 19.38531 22.562818 19.118294 
Q 22.781709 18.849726 23.138765 18.710008 
Q 23.497374 18.57029 24.003463 18.57029 
L 24.003463 17.676097 
Q 23.318846 17.657468 22.871749 17.955532 
Q 22.424652 18.253597 22.115721 18.879222 
L 22.09554 18.879222 
L 22.09554 17.795633 
L 21.300701 17.795633 
z
M 25.433318 18.552127 
L 27.827304 18.552127 
L 27.827304 19.129161 
L 24.608517 19.129161 
L 24.608517 18.552127 
Q 24.99864 18.147877 25.67239 17.467607 
Q 26.347227 16.78625 26.520011 16.588472 
Q 26.849279 16.218996 26.979683 15.962536 
Q 27.111172 15.706077 27.111172 15.45831 
Q 27.111172 15.05406 26.827545 14.799774 
Q 26.543918 14.544401 26.088594 14.544401 
Q 25.765846 14.544401 25.407237 14.656331 
Q 25.049715 14.76826 24.642205 14.996466 
L 24.642205 14.303155 
Q 25.056235 14.136891 25.415931 14.052129 
Q 25.776713 13.967367 26.075554 13.967367 
Q 26.863406 13.967367 27.331771 14.361837 
Q 27.800136 14.75522 27.800136 15.413756 
Q 27.800136 15.726724 27.682773 16.007091 
Q 27.566497 16.286371 27.256789 16.666714 
Q 27.172027 16.765603 26.716703 17.236141 
Q 26.262465 17.706679 25.433318 18.552127 
z
M 31.94877 14.76826 
L 31.94877 16.660194 
L 33.839617 16.660194 
L 33.839617 17.237228 
L 31.94877 17.237228 
L 31.94877 19.129161 
L 31.378256 19.129161 
L 31.378256 17.237228 
L 29.486322 17.237228 
L 29.486322 16.660194 
L 31.378256 16.660194 
L 31.378256 14.76826 
L 31.94877 14.76826 
z
" style="stroke: #ffffff; stroke-width: 2.980645"/>
    <path d="M 19.134767 17.915169 
L 20.02896 17.915169 
Q 20.010331 17.328355 19.805412 16.906097 
Q 19.602045 16.483839 19.249646 16.205956 
Q 18.897246 15.928073 18.429968 15.799222 
Q 17.96269 15.670371 17.416238 15.670371 
Q 16.930331 15.670371 16.46771 15.794565 
Q 16.005089 15.918758 15.641823 16.171802 
Q 15.280109 16.424847 15.061218 16.817609 
Q 14.84388 17.210371 14.84388 17.745956 
Q 14.84388 18.233415 15.03638 18.556319 
Q 15.230432 18.879222 15.553335 19.082589 
Q 15.876238 19.285956 16.282972 19.410149 
Q 16.691259 19.534343 17.113517 19.62904 
Q 17.535775 19.723738 17.942509 19.813778 
Q 18.350795 19.902266 18.673698 20.046641 
Q 18.996601 20.191016 19.189101 20.419222 
Q 19.383154 20.647427 19.383154 21.015351 
Q 19.383154 21.401903 19.224807 21.65029 
Q 19.06646 21.898677 18.807206 22.043052 
Q 18.549505 22.187427 18.226601 22.247972 
Q 17.903698 22.306964 17.585452 22.306964 
Q 17.188033 22.306964 16.810795 22.207609 
Q 16.433557 22.108254 16.149464 21.90023 
Q 15.866924 21.690653 15.693053 21.36775 
Q 15.519182 21.044847 15.519182 20.59775 
L 14.624988 20.59775 
Q 14.624988 21.243556 14.857851 21.715492 
Q 15.092267 22.187427 15.494343 22.490149 
Q 15.89642 22.792871 16.427347 22.941903 
Q 16.959827 23.090935 17.555956 23.090935 
Q 18.041863 23.090935 18.53398 22.976056 
Q 19.026097 22.86273 19.423517 22.609685 
Q 19.820936 22.356641 20.07398 21.954565 
Q 20.327025 21.550935 20.327025 20.985855 
Q 20.327025 20.458032 20.132972 20.11029 
Q 19.940472 19.762548 19.617569 19.534343 
Q 19.294666 19.306137 18.88638 19.172629 
Q 18.479646 19.037569 18.057388 18.938214 
Q 17.63513 18.838859 17.226843 18.755028 
Q 16.820109 18.669645 16.497206 18.540794 
Q 16.174303 18.411944 15.98025 18.208577 
Q 15.78775 18.00521 15.78775 17.676097 
Q 15.78775 17.328355 15.921259 17.095492 
Q 16.054767 16.862629 16.278315 16.722911 
Q 16.501863 16.583194 16.790613 16.524202 
Q 17.079363 16.46521 17.377428 16.46521 
Q 18.111722 16.46521 18.583658 16.808294 
Q 19.055593 17.149827 19.134767 17.915169 
z
M 21.300701 17.795633 
L 21.300701 22.932589 
L 22.145217 22.932589 
L 22.145217 20.647427 
Q 22.145217 20.150653 22.244572 19.768758 
Q 22.343927 19.38531 22.562818 19.118294 
Q 22.781709 18.849726 23.138765 18.710008 
Q 23.497374 18.57029 24.003463 18.57029 
L 24.003463 17.676097 
Q 23.318846 17.657468 22.871749 17.955532 
Q 22.424652 18.253597 22.115721 18.879222 
L 22.09554 18.879222 
L 22.09554 17.795633 
L 21.300701 17.795633 
z
M 25.433318 18.552127 
L 27.827304 18.552127 
L 27.827304 19.129161 
L 24.608517 19.129161 
L 24.608517 18.552127 
Q 24.99864 18.147877 25.67239 17.467607 
Q 26.347227 16.78625 26.520011 16.588472 
Q 26.849279 16.218996 26.979683 15.962536 
Q 27.111172 15.706077 27.111172 15.45831 
Q 27.111172 15.05406 26.827545 14.799774 
Q 26.543918 14.544401 26.088594 14.544401 
Q 25.765846 14.544401 25.407237 14.656331 
Q 25.049715 14.76826 24.642205 14.996466 
L 24.642205 14.303155 
Q 25.056235 14.136891 25.415931 14.052129 
Q 25.776713 13.967367 26.075554 13.967367 
Q 26.863406 13.967367 27.331771 14.361837 
Q 27.800136 14.75522 27.800136 15.413756 
Q 27.800136 15.726724 27.682773 16.007091 
Q 27.566497 16.286371 27.256789 16.666714 
Q 27.172027 16.765603 26.716703 17.236141 
Q 26.262465 17.706679 25.433318 18.552127 
z
M 31.94877 14.76826 
L 31.94877 16.660194 
L 33.839617 16.660194 
L 33.839617 17.237228 
L 31.94877 17.237228 
L 31.94877 19.129161 
L 31.378256 19.129161 
L 31.378256 17.237228 
L 29.486322 17.237228 
L 29.486322 16.660194 
L 31.378256 16.660194 
L 31.378256 14.76826 
L 31.94877 14.76826 
z
"/>
   </g>
   <g id="text_2">
    <path d="M 16.641581 29.779534 
L 16.641581 36.079252 
L 17.585452 36.079252 
L 17.585452 29.779534 
L 19.949787 29.779534 
L 19.949787 28.984696 
L 14.277246 28.984696 
L 14.277246 29.779534 
L 16.641581 29.779534 
z
M 21.490718 30.018607 
L 21.490718 28.984696 
L 20.646201 28.984696 
L 20.646201 30.018607 
L 21.490718 30.018607 
z
M 20.646201 30.942296 
L 20.646201 36.079252 
L 21.490718 36.079252 
L 21.490718 30.942296 
L 20.646201 30.942296 
z
" style="stroke: #ffffff; stroke-width: 2.980645"/>
    <path d="M 16.641581 29.779534 
L 16.641581 36.079252 
L 17.585452 36.079252 
L 17.585452 29.779534 
L 19.949787 29.779534 
L 19.949787 28.984696 
L 14.277246 28.984696 
L 14.277246 29.779534 
L 16.641581 29.779534 
z
M 21.490718 30.018607 
L 21.490718 28.984696 
L 20.646201 28.984696 
L 20.646201 30.018607 
L 21.490718 30.018607 
z
M 20.646201 30.942296 
L 20.646201 36.079252 
L 21.490718 36.079252 
L 21.490718 30.942296 
L 20.646201 30.942296 
z
"/>
   </g>
   <g id="text_3">
    <path d="M 15.578174 45.69649 
Q 15.578174 45.160905 15.716339 44.639292 
Q 15.856057 44.117679 16.154121 43.700079 
Q 16.452186 43.282478 16.919464 43.029433 
Q 17.386742 42.776389 18.032549 42.776389 
Q 18.678355 42.776389 19.145634 43.029433 
Q 19.612912 43.282478 19.910976 43.700079 
Q 20.209041 44.117679 20.347206 44.639292 
Q 20.486924 45.160905 20.486924 45.69649 
Q 20.486924 46.233627 20.347206 46.75524 
Q 20.209041 47.276853 19.910976 47.694454 
Q 19.612912 48.110502 19.145634 48.365099 
Q 18.678355 48.618143 18.032549 48.618143 
Q 17.386742 48.618143 16.919464 48.365099 
Q 16.452186 48.110502 16.154121 47.694454 
Q 15.856057 47.276853 15.716339 46.75524 
Q 15.578174 46.233627 15.578174 45.69649 
z
M 14.634303 45.69649 
Q 14.634303 46.42147 14.846984 47.092115 
Q 15.061218 47.76276 15.488134 48.279716 
Q 15.916601 48.796671 16.551541 49.099393 
Q 17.188033 49.402115 18.032549 49.402115 
Q 18.877065 49.402115 19.512005 49.099393 
Q 20.148496 48.796671 20.575412 48.279716 
Q 21.00388 47.76276 21.216561 47.092115 
Q 21.430795 46.42147 21.430795 45.69649 
Q 21.430795 44.97151 21.216561 44.300865 
Q 21.00388 43.63022 20.575412 43.113264 
Q 20.148496 42.596308 19.512005 42.288929 
Q 18.877065 41.98155 18.032549 41.98155 
Q 17.188033 41.98155 16.551541 42.288929 
Q 15.916601 42.596308 15.488134 43.113264 
Q 15.061218 43.63022 14.846984 44.300865 
Q 14.634303 44.97151 14.634303 45.69649 
z
" style="stroke: #ffffff; stroke-width: 2.980645"/>
    <path d="M 15.578174 45.69649 
Q 15.578174 45.160905 15.716339 44.639292 
Q 15.856057 44.117679 16.154121 43.700079 
Q 16.452186 43.282478 16.919464 43.029433 
Q 17.386742 42.776389 18.032549 42.776389 
Q 18.678355 42.776389 19.145634 43.029433 
Q 19.612912 43.282478 19.910976 43.700079 
Q 20.209041 44.117679 20.347206 44.639292 
Q 20.486924 45.160905 20.486924 45.69649 
Q 20.486924 46.233627 20.347206 46.75524 
Q 20.209041 47.276853 19.910976 47.694454 
Q 19.612912 48.110502 19.145634 48.365099 
Q 18.678355 48.618143 18.032549 48.618143 
Q 17.386742 48.618143 16.919464 48.365099 
Q 16.452186 48.110502 16.154121 47.694454 
Q 15.856057 47.276853 15.716339 46.75524 
Q 15.578174 46.233627 15.578174 45.69649 
z
M 14.634303 45.69649 
Q 14.634303 46.42147 14.846984 47.092115 
Q 15.061218 47.76276 15.488134 48.279716 
Q 15.916601 48.796671 16.551541 49.099393 
Q 17.188033 49.402115 18.032549 49.402115 
Q 18.877065 49.402115 19.512005 49.099393 
Q 20.148496 48.796671 20.575412 48.279716 
Q 21.00388 47.76276 21.216561 47.092115 
Q 21.430795 46.42147 21.430795 45.69649 
Q 21.430795 44.97151 21.216561 44.300865 
Q 21.00388 43.63022 20.575412 43.113264 
Q 20.148496 42.596308 19.512005 42.288929 
Q 18.877065 41.98155 18.032549 41.98155 
Q 17.188033 41.98155 16.551541 42.288929 
Q 15.916601 42.596308 15.488134 43.113264 
Q 15.061218 43.63022 14.846984 44.300865 
Q 14.634303 44.97151 14.634303 45.69649 
z
"/>
   </g>
   <g id="text_4">
    <path d="M 16.641581 60.782125 
L 16.641581 67.081843 
L 17.585452 67.081843 
L 17.585452 60.782125 
L 19.949787 60.782125 
L 19.949787 59.987286 
L 14.277246 59.987286 
L 14.277246 60.782125 
L 16.641581 60.782125 
z
M 21.490718 61.021198 
L 21.490718 59.987286 
L 20.646201 59.987286 
L 20.646201 61.021198 
L 21.490718 61.021198 
z
M 20.646201 61.944887 
L 20.646201 67.081843 
L 21.490718 67.081843 
L 21.490718 61.944887 
L 20.646201 61.944887 
z
M 23.486818 63.534565 
Q 23.486818 62.99898 23.624983 62.477367 
Q 23.764701 61.955754 24.062766 61.538153 
Q 24.36083 61.120552 24.828108 60.867508 
Q 25.295387 60.614464 25.941193 60.614464 
Q 26.587 60.614464 27.054278 60.867508 
Q 27.521556 61.120552 27.819621 61.538153 
Q 28.117685 61.955754 28.25585 62.477367 
Q 28.395568 62.99898 28.395568 63.534565 
Q 28.395568 64.071702 28.25585 64.593315 
Q 28.117685 65.114927 27.819621 65.532528 
Q 27.521556 65.948577 27.054278 66.203173 
Q 26.587 66.456218 25.941193 66.456218 
Q 25.295387 66.456218 24.828108 66.203173 
Q 24.36083 65.948577 24.062766 65.532528 
Q 23.764701 65.114927 23.624983 64.593315 
Q 23.486818 64.071702 23.486818 63.534565 
z
M 22.542947 63.534565 
Q 22.542947 64.259544 22.755629 64.93019 
Q 22.969862 65.600835 23.396778 66.11779 
Q 23.825246 66.634746 24.460185 66.937468 
Q 25.096677 67.24019 25.941193 67.24019 
Q 26.785709 67.24019 27.420649 66.937468 
Q 28.057141 66.634746 28.484056 66.11779 
Q 28.912524 65.600835 29.125205 64.93019 
Q 29.339439 64.259544 29.339439 63.534565 
Q 29.339439 62.809585 29.125205 62.13894 
Q 28.912524 61.468294 28.484056 60.951339 
Q 28.057141 60.434383 27.420649 60.127004 
Q 26.785709 59.819625 25.941193 59.819625 
Q 25.096677 59.819625 24.460185 60.127004 
Q 23.825246 60.434383 23.396778 60.951339 
Q 22.969862 61.468294 22.755629 62.13894 
Q 22.542947 62.809585 22.542947 63.534565 
z
M 32.107945 65.903867 
Q 31.6461 65.903867 31.375513 66.220095 
Q 31.106013 66.535236 31.106013 67.085103 
Q 31.106013 67.63171 31.375513 67.950111 
Q 31.6461 68.267425 32.107945 68.267425 
Q 32.569789 68.267425 32.839289 67.950111 
Q 33.108789 67.63171 33.108789 67.085103 
Q 33.108789 66.535236 32.839289 66.220095 
Q 32.569789 65.903867 32.107945 65.903867 
z
M 33.469572 63.7533 
L 33.469572 64.378149 
Q 33.210939 64.25644 32.947959 64.192325 
Q 32.684979 64.127123 32.426346 64.127123 
Q 31.747162 64.127123 31.388554 64.585708 
Q 31.031031 65.044292 30.979957 65.971242 
Q 31.179908 65.675661 31.482009 65.518091 
Q 31.785197 65.36052 32.148152 65.36052 
Q 32.912098 65.36052 33.355469 65.824538 
Q 33.79884 66.28747 33.79884 67.085103 
Q 33.79884 67.866435 33.336995 68.339147 
Q 32.87515 68.810772 32.107945 68.810772 
Q 31.227723 68.810772 30.762618 68.137022 
Q 30.297513 67.462185 30.297513 66.18206 
Q 30.297513 64.980177 30.868027 64.265133 
Q 31.438541 63.550089 32.399179 63.550089 
Q 32.657812 63.550089 32.920791 63.601163 
Q 33.183771 63.652238 33.469572 63.7533 
z
" style="stroke: #ffffff; stroke-width: 2.980645"/>
    <path d="M 16.641581 60.782125 
L 16.641581 67.081843 
L 17.585452 67.081843 
L 17.585452 60.782125 
L 19.949787 60.782125 
L 19.949787 59.987286 
L 14.277246 59.987286 
L 14.277246 60.782125 
L 16.641581 60.782125 
z
M 21.490718 61.021198 
L 21.490718 59.987286 
L 20.646201 59.987286 
L 20.646201 61.021198 
L 21.490718 61.021198 
z
M 20.646201 61.944887 
L 20.646201 67.081843 
L 21.490718 67.081843 
L 21.490718 61.944887 
L 20.646201 61.944887 
z
M 23.486818 63.534565 
Q 23.486818 62.99898 23.624983 62.477367 
Q 23.764701 61.955754 24.062766 61.538153 
Q 24.36083 61.120552 24.828108 60.867508 
Q 25.295387 60.614464 25.941193 60.614464 
Q 26.587 60.614464 27.054278 60.867508 
Q 27.521556 61.120552 27.819621 61.538153 
Q 28.117685 61.955754 28.25585 62.477367 
Q 28.395568 62.99898 28.395568 63.534565 
Q 28.395568 64.071702 28.25585 64.593315 
Q 28.117685 65.114927 27.819621 65.532528 
Q 27.521556 65.948577 27.054278 66.203173 
Q 26.587 66.456218 25.941193 66.456218 
Q 25.295387 66.456218 24.828108 66.203173 
Q 24.36083 65.948577 24.062766 65.532528 
Q 23.764701 65.114927 23.624983 64.593315 
Q 23.486818 64.071702 23.486818 63.534565 
z
M 22.542947 63.534565 
Q 22.542947 64.259544 22.755629 64.93019 
Q 22.969862 65.600835 23.396778 66.11779 
Q 23.825246 66.634746 24.460185 66.937468 
Q 25.096677 67.24019 25.941193 67.24019 
Q 26.785709 67.24019 27.420649 66.937468 
Q 28.057141 66.634746 28.484056 66.11779 
Q 28.912524 65.600835 29.125205 64.93019 
Q 29.339439 64.259544 29.339439 63.534565 
Q 29.339439 62.809585 29.125205 62.13894 
Q 28.912524 61.468294 28.484056 60.951339 
Q 28.057141 60.434383 27.420649 60.127004 
Q 26.785709 59.819625 25.941193 59.819625 
Q 25.096677 59.819625 24.460185 60.127004 
Q 23.825246 60.434383 23.396778 60.951339 
Q 22.969862 61.468294 22.755629 62.13894 
Q 22.542947 62.809585 22.542947 63.534565 
z
M 32.107945 65.903867 
Q 31.6461 65.903867 31.375513 66.220095 
Q 31.106013 66.535236 31.106013 67.085103 
Q 31.106013 67.63171 31.375513 67.950111 
Q 31.6461 68.267425 32.107945 68.267425 
Q 32.569789 68.267425 32.839289 67.950111 
Q 33.108789 67.63171 33.108789 67.085103 
Q 33.108789 66.535236 32.839289 66.220095 
Q 32.569789 65.903867 32.107945 65.903867 
z
M 33.469572 63.7533 
L 33.469572 64.378149 
Q 33.210939 64.25644 32.947959 64.192325 
Q 32.684979 64.127123 32.426346 64.127123 
Q 31.747162 64.127123 31.388554 64.585708 
Q 31.031031 65.044292 30.979957 65.971242 
Q 31.179908 65.675661 31.482009 65.518091 
Q 31.785197 65.36052 32.148152 65.36052 
Q 32.912098 65.36052 33.355469 65.824538 
Q 33.79884 66.28747 33.79884 67.085103 
Q 33.79884 67.866435 33.336995 68.339147 
Q 32.87515 68.810772 32.107945 68.810772 
Q 31.227723 68.810772 30.762618 68.137022 
Q 30.297513 67.462185 30.297513 66.18206 
Q 30.297513 64.980177 30.868027 64.265133 
Q 31.438541 63.550089 32.399179 63.550089 
Q 32.657812 63.550089 32.920791 63.601163 
Q 33.183771 63.652238 33.469572 63.7533 
z
"/>
   </g>
   <g id="text_5">
    <path d="M 19.134767 75.184696 
L 20.02896 75.184696 
Q 20.010331 74.597881 19.805412 74.175623 
Q 19.602045 73.753365 19.249646 73.475482 
Q 18.897246 73.197599 18.429968 73.068748 
Q 17.96269 72.939897 17.416238 72.939897 
Q 16.930331 72.939897 16.46771 73.064091 
Q 16.005089 73.188284 15.641823 73.441329 
Q 15.280109 73.694373 15.061218 74.087135 
Q 14.84388 74.479897 14.84388 75.015482 
Q 14.84388 75.502942 15.03638 75.825845 
Q 15.230432 76.148748 15.553335 76.352115 
Q 15.876238 76.555482 16.282972 76.679675 
Q 16.691259 76.803869 17.113517 76.898567 
Q 17.535775 76.993264 17.942509 77.083304 
Q 18.350795 77.171792 18.673698 77.316167 
Q 18.996601 77.460542 19.189101 77.688748 
Q 19.383154 77.916954 19.383154 78.284877 
Q 19.383154 78.671429 19.224807 78.919817 
Q 19.06646 79.168204 18.807206 79.312579 
Q 18.549505 79.456954 18.226601 79.517498 
Q 17.903698 79.57649 17.585452 79.57649 
Q 17.188033 79.57649 16.810795 79.477135 
Q 16.433557 79.37778 16.149464 79.169756 
Q 15.866924 78.960179 15.693053 78.637276 
Q 15.519182 78.314373 15.519182 77.867276 
L 14.624988 77.867276 
Q 14.624988 78.513083 14.857851 78.985018 
Q 15.092267 79.456954 15.494343 79.759675 
Q 15.89642 80.062397 16.427347 80.211429 
Q 16.959827 80.360462 17.555956 80.360462 
Q 18.041863 80.360462 18.53398 80.245583 
Q 19.026097 80.132256 19.423517 79.879212 
Q 19.820936 79.626167 20.07398 79.224091 
Q 20.327025 78.820462 20.327025 78.255381 
Q 20.327025 77.727558 20.132972 77.379817 
Q 19.940472 77.032075 19.617569 76.803869 
Q 19.294666 76.575663 18.88638 76.442155 
Q 18.479646 76.307095 18.057388 76.20774 
Q 17.63513 76.108385 17.226843 76.024554 
Q 16.820109 75.939171 16.497206 75.810321 
Q 16.174303 75.68147 15.98025 75.478103 
Q 15.78775 75.274736 15.78775 74.945623 
Q 15.78775 74.597881 15.921259 74.365018 
Q 16.054767 74.132155 16.278315 73.992437 
Q 16.501863 73.85272 16.790613 73.793728 
Q 17.079363 73.734736 17.377428 73.734736 
Q 18.111722 73.734736 18.583658 74.077821 
Q 19.055593 74.419353 19.134767 75.184696 
z
M 21.300701 75.065159 
L 21.300701 80.202115 
L 22.145217 80.202115 
L 22.145217 77.916954 
Q 22.145217 77.420179 22.244572 77.038284 
Q 22.343927 76.654837 22.562818 76.387821 
Q 22.781709 76.119252 23.138765 75.979534 
Q 23.497374 75.839817 24.003463 75.839817 
L 24.003463 74.945623 
Q 23.318846 74.926994 22.871749 75.225058 
Q 22.424652 75.523123 22.115721 76.148748 
L 22.09554 76.148748 
L 22.09554 75.065159 
L 21.300701 75.065159 
z
M 25.324881 76.654837 
Q 25.324881 76.119252 25.463046 75.597639 
Q 25.602764 75.076026 25.900829 74.658425 
Q 26.198893 74.240825 26.666171 73.98778 
Q 27.13345 73.734736 27.779256 73.734736 
Q 28.425063 73.734736 28.892341 73.98778 
Q 29.359619 74.240825 29.657684 74.658425 
Q 29.955748 75.076026 30.093913 75.597639 
Q 30.233631 76.119252 30.233631 76.654837 
Q 30.233631 77.191974 30.093913 77.713587 
Q 29.955748 78.2352 29.657684 78.6528 
Q 29.359619 79.068849 28.892341 79.323446 
Q 28.425063 79.57649 27.779256 79.57649 
Q 27.13345 79.57649 26.666171 79.323446 
Q 26.198893 79.068849 25.900829 78.6528 
Q 25.602764 78.2352 25.463046 77.713587 
Q 25.324881 77.191974 25.324881 76.654837 
z
M 24.38101 76.654837 
Q 24.38101 77.379817 24.593692 78.050462 
Q 24.807925 78.721107 25.234841 79.238062 
Q 25.663309 79.755018 26.298248 80.05774 
Q 26.93474 80.360462 27.779256 80.360462 
Q 28.623772 80.360462 29.258712 80.05774 
Q 29.895204 79.755018 30.322119 79.238062 
Q 30.750587 78.721107 30.963268 78.050462 
Q 31.177502 77.379817 31.177502 76.654837 
Q 31.177502 75.929857 30.963268 75.259212 
Q 30.750587 74.588567 30.322119 74.071611 
Q 29.895204 73.554655 29.258712 73.247276 
Q 28.623772 72.939897 27.779256 72.939897 
Q 26.93474 72.939897 26.298248 73.247276 
Q 25.663309 73.554655 25.234841 74.071611 
Q 24.807925 74.588567 24.593692 75.259212 
Q 24.38101 75.929857 24.38101 76.654837 
z
M 32.512659 81.255121 
L 33.63304 81.255121 
L 33.63304 77.386492 
L 32.41377 77.630998 
L 32.41377 77.006149 
L 33.62652 76.761643 
L 34.312223 76.761643 
L 34.312223 81.255121 
L 35.432604 81.255121 
L 35.432604 81.832155 
L 32.512659 81.832155 
L 32.512659 81.255121 
z
M 37.409164 81.255121 
L 39.80315 81.255121 
L 39.80315 81.832155 
L 36.584364 81.832155 
L 36.584364 81.255121 
Q 36.974487 80.850871 37.648237 80.170601 
Q 38.323073 79.489244 38.495858 79.291466 
Q 38.825126 78.92199 38.955529 78.66553 
Q 39.087019 78.409071 39.087019 78.161304 
Q 39.087019 77.757054 38.803392 77.502768 
Q 38.519765 77.247395 38.06444 77.247395 
Q 37.741692 77.247395 37.383083 77.359325 
Q 37.025561 77.471254 36.618051 77.69946 
L 36.618051 77.006149 
Q 37.032081 76.839885 37.391777 76.755123 
Q 37.752559 76.670361 38.0514 76.670361 
Q 38.839253 76.670361 39.307618 77.064831 
Q 39.775983 77.458214 39.775983 78.11675 
Q 39.775983 78.429718 39.65862 78.710085 
Q 39.542344 78.989365 39.232636 79.369708 
Q 39.147874 79.468597 38.692549 79.939135 
Q 38.238311 80.409673 37.409164 81.255121 
z
" style="stroke: #ffffff; stroke-width: 2.980645"/>
    <path d="M 19.134767 75.184696 
L 20.02896 75.184696 
Q 20.010331 74.597881 19.805412 74.175623 
Q 19.602045 73.753365 19.249646 73.475482 
Q 18.897246 73.197599 18.429968 73.068748 
Q 17.96269 72.939897 17.416238 72.939897 
Q 16.930331 72.939897 16.46771 73.064091 
Q 16.005089 73.188284 15.641823 73.441329 
Q 15.280109 73.694373 15.061218 74.087135 
Q 14.84388 74.479897 14.84388 75.015482 
Q 14.84388 75.502942 15.03638 75.825845 
Q 15.230432 76.148748 15.553335 76.352115 
Q 15.876238 76.555482 16.282972 76.679675 
Q 16.691259 76.803869 17.113517 76.898567 
Q 17.535775 76.993264 17.942509 77.083304 
Q 18.350795 77.171792 18.673698 77.316167 
Q 18.996601 77.460542 19.189101 77.688748 
Q 19.383154 77.916954 19.383154 78.284877 
Q 19.383154 78.671429 19.224807 78.919817 
Q 19.06646 79.168204 18.807206 79.312579 
Q 18.549505 79.456954 18.226601 79.517498 
Q 17.903698 79.57649 17.585452 79.57649 
Q 17.188033 79.57649 16.810795 79.477135 
Q 16.433557 79.37778 16.149464 79.169756 
Q 15.866924 78.960179 15.693053 78.637276 
Q 15.519182 78.314373 15.519182 77.867276 
L 14.624988 77.867276 
Q 14.624988 78.513083 14.857851 78.985018 
Q 15.092267 79.456954 15.494343 79.759675 
Q 15.89642 80.062397 16.427347 80.211429 
Q 16.959827 80.360462 17.555956 80.360462 
Q 18.041863 80.360462 18.53398 80.245583 
Q 19.026097 80.132256 19.423517 79.879212 
Q 19.820936 79.626167 20.07398 79.224091 
Q 20.327025 78.820462 20.327025 78.255381 
Q 20.327025 77.727558 20.132972 77.379817 
Q 19.940472 77.032075 19.617569 76.803869 
Q 19.294666 76.575663 18.88638 76.442155 
Q 18.479646 76.307095 18.057388 76.20774 
Q 17.63513 76.108385 17.226843 76.024554 
Q 16.820109 75.939171 16.497206 75.810321 
Q 16.174303 75.68147 15.98025 75.478103 
Q 15.78775 75.274736 15.78775 74.945623 
Q 15.78775 74.597881 15.921259 74.365018 
Q 16.054767 74.132155 16.278315 73.992437 
Q 16.501863 73.85272 16.790613 73.793728 
Q 17.079363 73.734736 17.377428 73.734736 
Q 18.111722 73.734736 18.583658 74.077821 
Q 19.055593 74.419353 19.134767 75.184696 
z
M 21.300701 75.065159 
L 21.300701 80.202115 
L 22.145217 80.202115 
L 22.145217 77.916954 
Q 22.145217 77.420179 22.244572 77.038284 
Q 22.343927 76.654837 22.562818 76.387821 
Q 22.781709 76.119252 23.138765 75.979534 
Q 23.497374 75.839817 24.003463 75.839817 
L 24.003463 74.945623 
Q 23.318846 74.926994 22.871749 75.225058 
Q 22.424652 75.523123 22.115721 76.148748 
L 22.09554 76.148748 
L 22.09554 75.065159 
L 21.300701 75.065159 
z
M 25.324881 76.654837 
Q 25.324881 76.119252 25.463046 75.597639 
Q 25.602764 75.076026 25.900829 74.658425 
Q 26.198893 74.240825 26.666171 73.98778 
Q 27.13345 73.734736 27.779256 73.734736 
Q 28.425063 73.734736 28.892341 73.98778 
Q 29.359619 74.240825 29.657684 74.658425 
Q 29.955748 75.076026 30.093913 75.597639 
Q 30.233631 76.119252 30.233631 76.654837 
Q 30.233631 77.191974 30.093913 77.713587 
Q 29.955748 78.2352 29.657684 78.6528 
Q 29.359619 79.068849 28.892341 79.323446 
Q 28.425063 79.57649 27.779256 79.57649 
Q 27.13345 79.57649 26.666171 79.323446 
Q 26.198893 79.068849 25.900829 78.6528 
Q 25.602764 78.2352 25.463046 77.713587 
Q 25.324881 77.191974 25.324881 76.654837 
z
M 24.38101 76.654837 
Q 24.38101 77.379817 24.593692 78.050462 
Q 24.807925 78.721107 25.234841 79.238062 
Q 25.663309 79.755018 26.298248 80.05774 
Q 26.93474 80.360462 27.779256 80.360462 
Q 28.623772 80.360462 29.258712 80.05774 
Q 29.895204 79.755018 30.322119 79.238062 
Q 30.750587 78.721107 30.963268 78.050462 
Q 31.177502 77.379817 31.177502 76.654837 
Q 31.177502 75.929857 30.963268 75.259212 
Q 30.750587 74.588567 30.322119 74.071611 
Q 29.895204 73.554655 29.258712 73.247276 
Q 28.623772 72.939897 27.779256 72.939897 
Q 26.93474 72.939897 26.298248 73.247276 
Q 25.663309 73.554655 25.234841 74.071611 
Q 24.807925 74.588567 24.593692 75.259212 
Q 24.38101 75.929857 24.38101 76.654837 
z
M 32.512659 81.255121 
L 33.63304 81.255121 
L 33.63304 77.386492 
L 32.41377 77.630998 
L 32.41377 77.006149 
L 33.62652 76.761643 
L 34.312223 76.761643 
L 34.312223 81.255121 
L 35.432604 81.255121 
L 35.432604 81.832155 
L 32.512659 81.832155 
L 32.512659 81.255121 
z
M 37.409164 81.255121 
L 39.80315 81.255121 
L 39.80315 81.832155 
L 36.584364 81.832155 
L 36.584364 81.255121 
Q 36.974487 80.850871 37.648237 80.170601 
Q 38.323073 79.489244 38.495858 79.291466 
Q 38.825126 78.92199 38.955529 78.66553 
Q 39.087019 78.409071 39.087019 78.161304 
Q 39.087019 77.757054 38.803392 77.502768 
Q 38.519765 77.247395 38.06444 77.247395 
Q 37.741692 77.247395 37.383083 77.359325 
Q 37.025561 77.471254 36.618051 77.69946 
L 36.618051 77.006149 
Q 37.032081 76.839885 37.391777 76.755123 
Q 37.752559 76.670361 38.0514 76.670361 
Q 38.839253 76.670361 39.307618 77.064831 
Q 39.775983 77.458214 39.775983 78.11675 
Q 39.775983 78.429718 39.65862 78.710085 
Q 39.542344 78.989365 39.232636 79.369708 
Q 39.147874 79.468597 38.692549 79.939135 
Q 38.238311 80.409673 37.409164 81.255121 
z
"/>
   </g>
  </g>
 </g>
 <defs>
  <clipPath id="pd446bebdef">
   <rect x="-195.838677" y="-118.363032" width="221.76" height="221.76"/>
  </clipPath>
 </defs>
</svg>
