<?xml version="1.0" encoding="utf-8" standalone="no"?>
<!DOCTYPE svg PUBLIC "-//W3C//DTD SVG 1.1//EN"
  "http://www.w3.org/Graphics/SVG/1.1/DTD/svg11.dtd">
<svg xmlns:xlink="http://www.w3.org/1999/xlink" width="72pt" height="43.2pt" viewBox="0 0 72 43.2" xmlns="http://www.w3.org/2000/svg" version="1.1">
 <metadata>
  <rdf:RDF xmlns:dc="http://purl.org/dc/elements/1.1/" xmlns:cc="http://creativecommons.org/ns#" xmlns:rdf="http://www.w3.org/1999/02/22-rdf-syntax-ns#">
   <cc:Work>
    <dc:type rdf:resource="http://purl.org/dc/dcmitype/StillImage"/>
    <dc:date>2026-02-25T15:35:03.217747</dc:date>
    <dc:format>image/svg+xml</dc:format>
    <dc:creator>
     <cc:Agent>
      <dc:title>Matplotlib v3.10.7, https://matplotlib.org/</dc:title>
     </cc:Agent>
    </dc:creator>
   </cc:Work>
  </rdf:RDF>
 </metadata>
 <defs>
  <style type="text/css">*{stroke-linejoin: round; stroke-linecap: butt}</style>
 </defs>
 <g id="figure_1">
  <g id="patch_1">
   <path d="M 0 43.2 
L 72 43.2 
L 72 0 
L 0 0 
z
" style="fill: #ffffff"/>
  </g>
  <g id="axes_1">
   <g id="PolyCollection_1">
    <path d="M 4.016931 12.396671 
L 2.638716 18.998432 
L -2.63482 14.496129 
z
" clip-path="url(#pbb391d5419)" style="fill: #80b2ff; fill-opacity: 0.4; stroke: #262626; stroke-width: 0.993548"/>
    <path d="M 0.230316 9.993826 
L 4.016931 12.396671 
L -2.63482 14.496129 
z
" clip-path="url(#pbb391d5419)" style="fill: #80b2ff; fill-opacity: 0.4; stroke: #262626; stroke-width: 0.993548"/>
    <path d="M 4.016931 12.396671 
L 2.638716 18.998432 
L 5.503852 14.496129 
z
" clip-path="url(#pbb391d5419)" style="fill: #80b2ff; fill-opacity: 0.4; stroke: #262626; stroke-width: 0.993548"/>
    <path d="M -1.147899 16.595587 
L 2.638716 18.998432 
L -2.63482 14.496129 
z
" clip-path="url(#pbb391d5419)" style="fill: #80b2ff; fill-opacity: 0.4; stroke: #262626; stroke-width: 0.993548"/>
    <path d="M 0.230316 9.993826 
L 4.016931 12.396671 
L 5.503852 14.496129 
z
" clip-path="url(#pbb391d5419)" style="fill: #80b2ff; fill-opacity: 0.4; stroke: #262626; stroke-width: 0.993548"/>
    <path d="M 0.230316 9.993826 
L -1.147899 16.595587 
L -2.63482 14.496129 
z
" clip-path="url(#pbb391d5419)" style="fill: #80b2ff; fill-opacity: 0.4; stroke: #262626; stroke-width: 0.993548"/>
    <path d="M -1.147899 16.595587 
L 2.638716 18.998432 
L 5.503852 14.496129 
z
" clip-path="url(#pbb391d5419)" style="fill: #80b2ff; fill-opacity: 0.4; stroke: #262626; stroke-width: 0.993548"/>
    <path d="M 0.230316 9.993826 
L -1.147899 16.595587 
L 5.503852 14.496129 
z
" clip-path="url(#pbb391d5419)" style="fill: #80b2ff; fill-opacity: 0.4; stroke: #262626; stroke-width: 0.993548"/>
   </g>
   <g id="PolyCollection_2">
    <path d="M -1.710629 30.727013 
L 5.970151 28.302767 
L -0.119203 23.103955 
z
" clip-path="url(#pbb391d5419)" style="fill: #d9a6d9; fill-opacity: 0.4; stroke: #262626; stroke-width: 0.993548"/>
    <path d="M 5.970151 28.302767 
L 1.597745 25.528201 
L -0.119203 23.103955 
z
" clip-path="url(#pbb391d5419)" style="fill: #d9a6d9; fill-opacity: 0.4; stroke: #262626; stroke-width: 0.993548"/>
    <path d="M -1.710629 30.727013 
L 1.597745 25.528201 
L -0.119203 23.103955 
z
" clip-path="url(#pbb391d5419)" style="fill: #d9a6d9; fill-opacity: 0.4; stroke: #262626; stroke-width: 0.993548"/>
    <path d="M -1.710629 30.727013 
L 5.970151 28.302767 
L 1.597745 25.528201 
z
" clip-path="url(#pbb391d5419)" style="fill: #d9a6d9; fill-opacity: 0.4; stroke: #262626; stroke-width: 0.993548"/>
   </g>
   <g id="text_1">
    <path d="M 12.691109 14.411522 
Q 12.691109 13.875938 12.829274 13.354325 
Q 12.968992 12.832712 13.267056 12.415111 
Q 13.565121 11.99751 14.032399 11.744466 
Q 14.499677 11.491421 15.145484 11.491421 
Q 15.79129 11.491421 16.258569 11.744466 
Q 16.725847 11.99751 17.023911 12.415111 
Q 17.321976 12.832712 17.460141 13.354325 
Q 17.599859 13.875938 17.599859 14.411522 
Q 17.599859 14.948659 17.460141 15.470272 
Q 17.321976 15.991885 17.023911 16.409486 
Q 16.725847 16.825534 16.258569 17.080131 
Q 15.79129 17.333175 15.145484 17.333175 
Q 14.499677 17.333175 14.032399 17.080131 
Q 13.565121 16.825534 13.267056 16.409486 
Q 12.968992 15.991885 12.829274 15.470272 
Q 12.691109 14.948659 12.691109 14.411522 
z
M 11.747238 14.411522 
Q 11.747238 15.136502 11.959919 15.807147 
Q 12.174153 16.477792 12.601069 16.994748 
Q 13.029536 17.511704 13.664476 17.814425 
Q 14.300968 18.117147 15.145484 18.117147 
Q 15.99 18.117147 16.62494 17.814425 
Q 17.261431 17.511704 17.688347 16.994748 
Q 18.116815 16.477792 18.329496 15.807147 
Q 18.54373 15.136502 18.54373 14.411522 
Q 18.54373 13.686542 18.329496 13.015897 
Q 18.116815 12.345252 17.688347 11.828296 
Q 17.261431 11.311341 16.62494 11.003962 
Q 15.99 10.696583 15.145484 10.696583 
Q 14.300968 10.696583 13.664476 11.003962 
Q 13.029536 11.311341 12.601069 11.828296 
Q 12.174153 12.345252 11.959919 13.015897 
Q 11.747238 13.686542 11.747238 14.411522 
z
M 23.044192 14.472067 
L 23.918204 14.472067 
Q 23.868527 14.014103 23.679132 13.681885 
Q 23.491289 13.348115 23.197882 13.130776 
Q 22.904474 12.911885 22.522579 12.807873 
Q 22.140684 12.702308 21.702902 12.702308 
Q 21.097458 12.702308 20.639494 12.916542 
Q 20.183083 13.130776 19.878809 13.503357 
Q 19.576087 13.875938 19.427055 14.377369 
Q 19.278023 14.8788 19.278023 15.454748 
Q 19.278023 16.030696 19.431712 16.513498 
Q 19.586954 16.994748 19.889676 17.34249 
Q 20.192398 17.690232 20.644152 17.879627 
Q 21.097458 18.06747 21.68272 18.06747 
Q 22.666954 18.06747 23.238244 17.552067 
Q 23.809535 17.035111 23.9477 16.080373 
L 23.084555 16.080373 
Q 23.003829 16.676502 22.65143 17.005615 
Q 22.299031 17.333175 21.673406 17.333175 
Q 21.275986 17.333175 20.987236 17.174829 
Q 20.700039 17.014929 20.519958 16.752571 
Q 20.34143 16.488659 20.256047 16.151784 
Q 20.172216 15.813357 20.172216 15.454748 
Q 20.172216 15.068196 20.25139 14.704929 
Q 20.332115 14.341663 20.515301 14.06378 
Q 20.700039 13.785897 21.007418 13.616683 
Q 21.314797 13.44747 21.772761 13.44747 
Q 22.308345 13.44747 22.626591 13.716038 
Q 22.944837 13.984607 23.044192 14.472067 
z
M 26.064889 12.821845 
L 26.064889 11.281845 
L 25.220373 11.281845 
L 25.220373 12.821845 
L 24.346361 12.821845 
L 24.346361 13.567006 
L 25.220373 13.567006 
L 25.220373 16.836401 
Q 25.220373 17.193458 25.28868 17.412349 
Q 25.358539 17.63124 25.502914 17.750776 
Q 25.647289 17.86876 25.880151 17.91378 
Q 26.114567 17.9588 26.442127 17.9588 
L 27.087934 17.9588 
L 27.087934 17.213639 
L 26.699829 17.213639 
Q 26.501119 17.213639 26.376926 17.199667 
Q 26.252732 17.184143 26.182873 17.134466 
Q 26.114567 17.084788 26.089728 16.9963 
Q 26.064889 16.90626 26.064889 16.757228 
L 26.064889 13.567006 
L 27.087934 13.567006 
L 27.087934 12.821845 
L 26.064889 12.821845 
z
M 32.57263 17.938619 
Q 32.353739 18.06747 31.965634 18.06747 
Q 31.638073 18.06747 31.444021 17.884284 
Q 31.251521 17.701099 31.251521 17.283498 
Q 30.903779 17.701099 30.441158 17.884284 
Q 29.978537 18.06747 29.442952 18.06747 
Q 29.09521 18.06747 28.781622 17.988296 
Q 28.469585 17.909123 28.239827 17.739909 
Q 28.011622 17.570696 27.876561 17.29747 
Q 27.743053 17.024244 27.743053 16.637692 
Q 27.743053 16.199909 27.892085 15.922026 
Q 28.041118 15.644143 28.284847 15.470272 
Q 28.528577 15.296401 28.840614 15.207913 
Q 29.154202 15.117873 29.481763 15.057329 
Q 29.829505 14.98747 30.143093 14.953317 
Q 30.456682 14.919163 30.694202 14.853962 
Q 30.933275 14.78876 31.07144 14.664567 
Q 31.211158 14.540373 31.211158 14.302853 
Q 31.211158 14.02497 31.107146 13.855756 
Q 31.003134 13.686542 30.838577 13.598054 
Q 30.674021 13.508014 30.470654 13.478518 
Q 30.267287 13.44747 30.068577 13.44747 
Q 29.53144 13.44747 29.174384 13.652389 
Q 28.817327 13.855756 28.786279 14.422389 
L 27.941763 14.422389 
Q 27.961944 13.944244 28.140472 13.616683 
Q 28.320553 13.289123 28.618618 13.085756 
Q 28.916682 12.882389 29.298577 12.792349 
Q 29.680472 12.702308 30.118255 12.702308 
Q 30.465997 12.702308 30.809081 12.751986 
Q 31.152166 12.801663 31.430049 12.956905 
Q 31.707932 13.110595 31.877146 13.388478 
Q 32.04636 13.666361 32.04636 14.113458 
L 32.04636 16.757228 
Q 32.04636 17.055292 32.080513 17.19501 
Q 32.114666 17.333175 32.313376 17.333175 
Q 32.423597 17.333175 32.57263 17.283498 
L 32.57263 17.938619 
z
M 31.201843 15.305716 
Q 31.041944 15.425252 30.78269 15.479587 
Q 30.524989 15.533921 30.242448 15.569627 
Q 29.959908 15.60378 29.671158 15.6488 
Q 29.382408 15.693821 29.154202 15.793175 
Q 28.925997 15.89253 28.781622 16.077268 
Q 28.637247 16.260454 28.637247 16.577147 
Q 28.637247 16.786724 28.721077 16.931099 
Q 28.80646 17.073921 28.939968 17.163962 
Q 29.075029 17.254002 29.253557 17.294365 
Q 29.432085 17.333175 29.630795 17.333175 
Q 30.048396 17.333175 30.34646 17.219849 
Q 30.644525 17.10497 30.832368 16.931099 
Q 31.021763 16.757228 31.111803 16.553861 
Q 31.201843 16.348942 31.201843 16.170413 
L 31.201843 15.305716 
z
M 33.357843 10.864244 
L 33.357843 17.9588 
L 34.202359 17.9588 
L 34.202359 15.057329 
Q 34.202359 14.709587 34.295504 14.417732 
Q 34.390202 14.124325 34.578045 13.905433 
Q 34.76744 13.686542 35.04998 13.567006 
Q 35.334073 13.44747 35.722178 13.44747 
Q 36.208085 13.44747 36.485968 13.726905 
Q 36.765404 14.004788 36.765404 14.481381 
L 36.765404 17.9588 
L 37.60992 17.9588 
L 37.60992 14.580736 
Q 37.60992 14.163135 37.524537 13.821603 
Q 37.440706 13.478518 37.231129 13.230131 
Q 37.023105 12.981744 36.684678 12.842026 
Q 36.347803 12.702308 35.841714 12.702308 
Q 35.611956 12.702308 35.368226 12.751986 
Q 35.126049 12.801663 34.9025 12.907228 
Q 34.678952 13.01124 34.498871 13.175796 
Q 34.320343 13.3388 34.220988 13.577873 
L 34.202359 13.577873 
L 34.202359 10.864244 
L 33.357843 10.864244 
z
M 42.447879 14.898982 
L 39.496729 14.898982 
Q 39.516911 14.600917 39.62558 14.338558 
Q 39.735802 14.074647 39.923645 13.875938 
Q 40.11304 13.677228 40.375399 13.562349 
Q 40.63931 13.44747 40.968423 13.44747 
Q 41.285116 13.44747 41.549028 13.562349 
Q 41.812939 13.677228 42.005439 13.87128 
Q 42.199491 14.06378 42.312818 14.332349 
Q 42.427697 14.600917 42.447879 14.898982 
z
M 43.262899 16.32876 
L 42.427697 16.32876 
Q 42.319028 16.836401 41.975943 17.084788 
Q 41.632858 17.333175 41.097274 17.333175 
Q 40.679673 17.333175 40.370741 17.19501 
Q 40.063362 17.055292 39.864653 16.822429 
Q 39.665943 16.588014 39.575903 16.285292 
Q 39.487415 15.981018 39.496729 15.644143 
L 43.342072 15.644143 
Q 43.362254 15.176865 43.258241 14.659909 
Q 43.154229 14.142954 42.881004 13.706724 
Q 42.607778 13.268942 42.154471 12.986401 
Q 41.702717 12.702308 41.0181 12.702308 
Q 40.490278 12.702308 40.047838 12.901018 
Q 39.606951 13.099728 39.284048 13.458337 
Q 38.961145 13.815393 38.781064 14.302853 
Q 38.602536 14.78876 38.602536 15.375575 
Q 38.622717 15.962389 38.776407 16.459163 
Q 38.931649 16.955938 39.239028 17.312994 
Q 39.546407 17.67005 39.998161 17.86876 
Q 40.451467 18.06747 41.067778 18.06747 
Q 41.94179 18.06747 42.517737 17.63124 
Q 43.093685 17.193458 43.262899 16.32876 
z
M 44.832084 15.434567 
Q 44.832084 15.057329 44.911257 14.700272 
Q 44.991983 14.341663 45.170511 14.06378 
Q 45.34904 13.785897 45.647104 13.616683 
Q 45.945169 13.44747 46.372084 13.44747 
Q 46.809866 13.44747 47.117245 13.612026 
Q 47.426177 13.776583 47.618677 14.045151 
Q 47.812729 14.312167 47.902769 14.666119 
Q 47.99281 15.018518 47.99281 15.395756 
Q 47.99281 15.752813 47.907427 16.100554 
Q 47.823596 16.448296 47.634201 16.721522 
Q 47.446358 16.994748 47.148294 17.163962 
Q 46.850229 17.333175 46.421761 17.333175 
Q 46.015027 17.333175 45.712306 17.174829 
Q 45.409584 17.014929 45.215531 16.746361 
Q 45.021479 16.477792 44.926781 16.13626 
Q 44.832084 15.793175 44.832084 15.434567 
z
M 48.806277 17.9588 
L 48.806277 10.864244 
L 47.961761 10.864244 
L 47.961761 13.508014 
L 47.943132 13.508014 
Q 47.803415 13.279808 47.600048 13.126119 
Q 47.396681 12.970877 47.166923 12.877732 
Q 46.938717 12.783034 46.710511 12.742671 
Q 46.482306 12.702308 46.283596 12.702308 
Q 45.696781 12.702308 45.254342 12.916542 
Q 44.813455 13.130776 44.520048 13.494042 
Q 44.22664 13.855756 44.082265 14.343216 
Q 43.93789 14.829123 43.93789 15.375575 
Q 43.93789 15.922026 44.086923 16.409486 
Q 44.235955 16.895393 44.529362 17.263317 
Q 44.822769 17.63124 45.265209 17.850131 
Q 45.707648 18.06747 46.303777 18.06747 
Q 46.839362 18.06747 47.286459 17.879627 
Q 47.733556 17.690232 47.943132 17.263317 
L 47.961761 17.263317 
L 47.961761 17.9588 
L 48.806277 17.9588 
z
M 50.078018 12.821845 
L 50.078018 17.9588 
L 50.922534 17.9588 
L 50.922534 15.673639 
Q 50.922534 15.176865 51.021889 14.79497 
Q 51.121244 14.411522 51.340135 14.144506 
Q 51.559026 13.875938 51.916083 13.73622 
Q 52.274692 13.596502 52.78078 13.596502 
L 52.78078 12.702308 
Q 52.096163 12.683679 51.649067 12.981744 
Q 51.20197 13.279808 50.893038 13.905433 
L 50.872857 13.905433 
L 50.872857 12.821845 
L 50.078018 12.821845 
z
M 57.967723 17.938619 
Q 57.748831 18.06747 57.360727 18.06747 
Q 57.033166 18.06747 56.839114 17.884284 
Q 56.646614 17.701099 56.646614 17.283498 
Q 56.298872 17.701099 55.836251 17.884284 
Q 55.37363 18.06747 54.838045 18.06747 
Q 54.490303 18.06747 54.176714 17.988296 
Q 53.864678 17.909123 53.63492 17.739909 
Q 53.406714 17.570696 53.271654 17.29747 
Q 53.138146 17.024244 53.138146 16.637692 
Q 53.138146 16.199909 53.287178 15.922026 
Q 53.43621 15.644143 53.67994 15.470272 
Q 53.92367 15.296401 54.235706 15.207913 
Q 54.549295 15.117873 54.876856 15.057329 
Q 55.224598 14.98747 55.538186 14.953317 
Q 55.851775 14.919163 56.089295 14.853962 
Q 56.328368 14.78876 56.466533 14.664567 
Q 56.606251 14.540373 56.606251 14.302853 
Q 56.606251 14.02497 56.502239 13.855756 
Q 56.398227 13.686542 56.23367 13.598054 
Q 56.069114 13.508014 55.865747 13.478518 
Q 55.66238 13.44747 55.46367 13.44747 
Q 54.926533 13.44747 54.569477 13.652389 
Q 54.21242 13.855756 54.181372 14.422389 
L 53.336856 14.422389 
Q 53.357037 13.944244 53.535565 13.616683 
Q 53.715646 13.289123 54.01371 13.085756 
Q 54.311775 12.882389 54.69367 12.792349 
Q 55.075565 12.702308 55.513348 12.702308 
Q 55.861089 12.702308 56.204174 12.751986 
Q 56.547259 12.801663 56.825142 12.956905 
Q 57.103025 13.110595 57.272239 13.388478 
Q 57.441452 13.666361 57.441452 14.113458 
L 57.441452 16.757228 
Q 57.441452 17.055292 57.475606 17.19501 
Q 57.509759 17.333175 57.708469 17.333175 
Q 57.81869 17.333175 57.967723 17.283498 
L 57.967723 17.938619 
z
M 56.596936 15.305716 
Q 56.437037 15.425252 56.177783 15.479587 
Q 55.920081 15.533921 55.637541 15.569627 
Q 55.355001 15.60378 55.066251 15.6488 
Q 54.777501 15.693821 54.549295 15.793175 
Q 54.321089 15.89253 54.176714 16.077268 
Q 54.032339 16.260454 54.032339 16.577147 
Q 54.032339 16.786724 54.11617 16.931099 
Q 54.201553 17.073921 54.335061 17.163962 
Q 54.470122 17.254002 54.64865 17.294365 
Q 54.827178 17.333175 55.025888 17.333175 
Q 55.443489 17.333175 55.741553 17.219849 
Q 56.039618 17.10497 56.22746 16.931099 
Q 56.416856 16.757228 56.506896 16.553861 
Q 56.596936 16.348942 56.596936 16.170413 
L 56.596936 15.305716 
z
M 58.802613 10.864244 
L 58.802613 17.9588 
L 59.64713 17.9588 
L 59.64713 10.864244 
L 58.802613 10.864244 
z
" style="stroke: #ffffff; stroke-width: 2.980645"/>
    <path d="M 12.691109 14.411522 
Q 12.691109 13.875938 12.829274 13.354325 
Q 12.968992 12.832712 13.267056 12.415111 
Q 13.565121 11.99751 14.032399 11.744466 
Q 14.499677 11.491421 15.145484 11.491421 
Q 15.79129 11.491421 16.258569 11.744466 
Q 16.725847 11.99751 17.023911 12.415111 
Q 17.321976 12.832712 17.460141 13.354325 
Q 17.599859 13.875938 17.599859 14.411522 
Q 17.599859 14.948659 17.460141 15.470272 
Q 17.321976 15.991885 17.023911 16.409486 
Q 16.725847 16.825534 16.258569 17.080131 
Q 15.79129 17.333175 15.145484 17.333175 
Q 14.499677 17.333175 14.032399 17.080131 
Q 13.565121 16.825534 13.267056 16.409486 
Q 12.968992 15.991885 12.829274 15.470272 
Q 12.691109 14.948659 12.691109 14.411522 
z
M 11.747238 14.411522 
Q 11.747238 15.136502 11.959919 15.807147 
Q 12.174153 16.477792 12.601069 16.994748 
Q 13.029536 17.511704 13.664476 17.814425 
Q 14.300968 18.117147 15.145484 18.117147 
Q 15.99 18.117147 16.62494 17.814425 
Q 17.261431 17.511704 17.688347 16.994748 
Q 18.116815 16.477792 18.329496 15.807147 
Q 18.54373 15.136502 18.54373 14.411522 
Q 18.54373 13.686542 18.329496 13.015897 
Q 18.116815 12.345252 17.688347 11.828296 
Q 17.261431 11.311341 16.62494 11.003962 
Q 15.99 10.696583 15.145484 10.696583 
Q 14.300968 10.696583 13.664476 11.003962 
Q 13.029536 11.311341 12.601069 11.828296 
Q 12.174153 12.345252 11.959919 13.015897 
Q 11.747238 13.686542 11.747238 14.411522 
z
M 23.044192 14.472067 
L 23.918204 14.472067 
Q 23.868527 14.014103 23.679132 13.681885 
Q 23.491289 13.348115 23.197882 13.130776 
Q 22.904474 12.911885 22.522579 12.807873 
Q 22.140684 12.702308 21.702902 12.702308 
Q 21.097458 12.702308 20.639494 12.916542 
Q 20.183083 13.130776 19.878809 13.503357 
Q 19.576087 13.875938 19.427055 14.377369 
Q 19.278023 14.8788 19.278023 15.454748 
Q 19.278023 16.030696 19.431712 16.513498 
Q 19.586954 16.994748 19.889676 17.34249 
Q 20.192398 17.690232 20.644152 17.879627 
Q 21.097458 18.06747 21.68272 18.06747 
Q 22.666954 18.06747 23.238244 17.552067 
Q 23.809535 17.035111 23.9477 16.080373 
L 23.084555 16.080373 
Q 23.003829 16.676502 22.65143 17.005615 
Q 22.299031 17.333175 21.673406 17.333175 
Q 21.275986 17.333175 20.987236 17.174829 
Q 20.700039 17.014929 20.519958 16.752571 
Q 20.34143 16.488659 20.256047 16.151784 
Q 20.172216 15.813357 20.172216 15.454748 
Q 20.172216 15.068196 20.25139 14.704929 
Q 20.332115 14.341663 20.515301 14.06378 
Q 20.700039 13.785897 21.007418 13.616683 
Q 21.314797 13.44747 21.772761 13.44747 
Q 22.308345 13.44747 22.626591 13.716038 
Q 22.944837 13.984607 23.044192 14.472067 
z
M 26.064889 12.821845 
L 26.064889 11.281845 
L 25.220373 11.281845 
L 25.220373 12.821845 
L 24.346361 12.821845 
L 24.346361 13.567006 
L 25.220373 13.567006 
L 25.220373 16.836401 
Q 25.220373 17.193458 25.28868 17.412349 
Q 25.358539 17.63124 25.502914 17.750776 
Q 25.647289 17.86876 25.880151 17.91378 
Q 26.114567 17.9588 26.442127 17.9588 
L 27.087934 17.9588 
L 27.087934 17.213639 
L 26.699829 17.213639 
Q 26.501119 17.213639 26.376926 17.199667 
Q 26.252732 17.184143 26.182873 17.134466 
Q 26.114567 17.084788 26.089728 16.9963 
Q 26.064889 16.90626 26.064889 16.757228 
L 26.064889 13.567006 
L 27.087934 13.567006 
L 27.087934 12.821845 
L 26.064889 12.821845 
z
M 32.57263 17.938619 
Q 32.353739 18.06747 31.965634 18.06747 
Q 31.638073 18.06747 31.444021 17.884284 
Q 31.251521 17.701099 31.251521 17.283498 
Q 30.903779 17.701099 30.441158 17.884284 
Q 29.978537 18.06747 29.442952 18.06747 
Q 29.09521 18.06747 28.781622 17.988296 
Q 28.469585 17.909123 28.239827 17.739909 
Q 28.011622 17.570696 27.876561 17.29747 
Q 27.743053 17.024244 27.743053 16.637692 
Q 27.743053 16.199909 27.892085 15.922026 
Q 28.041118 15.644143 28.284847 15.470272 
Q 28.528577 15.296401 28.840614 15.207913 
Q 29.154202 15.117873 29.481763 15.057329 
Q 29.829505 14.98747 30.143093 14.953317 
Q 30.456682 14.919163 30.694202 14.853962 
Q 30.933275 14.78876 31.07144 14.664567 
Q 31.211158 14.540373 31.211158 14.302853 
Q 31.211158 14.02497 31.107146 13.855756 
Q 31.003134 13.686542 30.838577 13.598054 
Q 30.674021 13.508014 30.470654 13.478518 
Q 30.267287 13.44747 30.068577 13.44747 
Q 29.53144 13.44747 29.174384 13.652389 
Q 28.817327 13.855756 28.786279 14.422389 
L 27.941763 14.422389 
Q 27.961944 13.944244 28.140472 13.616683 
Q 28.320553 13.289123 28.618618 13.085756 
Q 28.916682 12.882389 29.298577 12.792349 
Q 29.680472 12.702308 30.118255 12.702308 
Q 30.465997 12.702308 30.809081 12.751986 
Q 31.152166 12.801663 31.430049 12.956905 
Q 31.707932 13.110595 31.877146 13.388478 
Q 32.04636 13.666361 32.04636 14.113458 
L 32.04636 16.757228 
Q 32.04636 17.055292 32.080513 17.19501 
Q 32.114666 17.333175 32.313376 17.333175 
Q 32.423597 17.333175 32.57263 17.283498 
L 32.57263 17.938619 
z
M 31.201843 15.305716 
Q 31.041944 15.425252 30.78269 15.479587 
Q 30.524989 15.533921 30.242448 15.569627 
Q 29.959908 15.60378 29.671158 15.6488 
Q 29.382408 15.693821 29.154202 15.793175 
Q 28.925997 15.89253 28.781622 16.077268 
Q 28.637247 16.260454 28.637247 16.577147 
Q 28.637247 16.786724 28.721077 16.931099 
Q 28.80646 17.073921 28.939968 17.163962 
Q 29.075029 17.254002 29.253557 17.294365 
Q 29.432085 17.333175 29.630795 17.333175 
Q 30.048396 17.333175 30.34646 17.219849 
Q 30.644525 17.10497 30.832368 16.931099 
Q 31.021763 16.757228 31.111803 16.553861 
Q 31.201843 16.348942 31.201843 16.170413 
L 31.201843 15.305716 
z
M 33.357843 10.864244 
L 33.357843 17.9588 
L 34.202359 17.9588 
L 34.202359 15.057329 
Q 34.202359 14.709587 34.295504 14.417732 
Q 34.390202 14.124325 34.578045 13.905433 
Q 34.76744 13.686542 35.04998 13.567006 
Q 35.334073 13.44747 35.722178 13.44747 
Q 36.208085 13.44747 36.485968 13.726905 
Q 36.765404 14.004788 36.765404 14.481381 
L 36.765404 17.9588 
L 37.60992 17.9588 
L 37.60992 14.580736 
Q 37.60992 14.163135 37.524537 13.821603 
Q 37.440706 13.478518 37.231129 13.230131 
Q 37.023105 12.981744 36.684678 12.842026 
Q 36.347803 12.702308 35.841714 12.702308 
Q 35.611956 12.702308 35.368226 12.751986 
Q 35.126049 12.801663 34.9025 12.907228 
Q 34.678952 13.01124 34.498871 13.175796 
Q 34.320343 13.3388 34.220988 13.577873 
L 34.202359 13.577873 
L 34.202359 10.864244 
L 33.357843 10.864244 
z
M 42.447879 14.898982 
L 39.496729 14.898982 
Q 39.516911 14.600917 39.62558 14.338558 
Q 39.735802 14.074647 39.923645 13.875938 
Q 40.11304 13.677228 40.375399 13.562349 
Q 40.63931 13.44747 40.968423 13.44747 
Q 41.285116 13.44747 41.549028 13.562349 
Q 41.812939 13.677228 42.005439 13.87128 
Q 42.199491 14.06378 42.312818 14.332349 
Q 42.427697 14.600917 42.447879 14.898982 
z
M 43.262899 16.32876 
L 42.427697 16.32876 
Q 42.319028 16.836401 41.975943 17.084788 
Q 41.632858 17.333175 41.097274 17.333175 
Q 40.679673 17.333175 40.370741 17.19501 
Q 40.063362 17.055292 39.864653 16.822429 
Q 39.665943 16.588014 39.575903 16.285292 
Q 39.487415 15.981018 39.496729 15.644143 
L 43.342072 15.644143 
Q 43.362254 15.176865 43.258241 14.659909 
Q 43.154229 14.142954 42.881004 13.706724 
Q 42.607778 13.268942 42.154471 12.986401 
Q 41.702717 12.702308 41.0181 12.702308 
Q 40.490278 12.702308 40.047838 12.901018 
Q 39.606951 13.099728 39.284048 13.458337 
Q 38.961145 13.815393 38.781064 14.302853 
Q 38.602536 14.78876 38.602536 15.375575 
Q 38.622717 15.962389 38.776407 16.459163 
Q 38.931649 16.955938 39.239028 17.312994 
Q 39.546407 17.67005 39.998161 17.86876 
Q 40.451467 18.06747 41.067778 18.06747 
Q 41.94179 18.06747 42.517737 17.63124 
Q 43.093685 17.193458 43.262899 16.32876 
z
M 44.832084 15.434567 
Q 44.832084 15.057329 44.911257 14.700272 
Q 44.991983 14.341663 45.170511 14.06378 
Q 45.34904 13.785897 45.647104 13.616683 
Q 45.945169 13.44747 46.372084 13.44747 
Q 46.809866 13.44747 47.117245 13.612026 
Q 47.426177 13.776583 47.618677 14.045151 
Q 47.812729 14.312167 47.902769 14.666119 
Q 47.99281 15.018518 47.99281 15.395756 
Q 47.99281 15.752813 47.907427 16.100554 
Q 47.823596 16.448296 47.634201 16.721522 
Q 47.446358 16.994748 47.148294 17.163962 
Q 46.850229 17.333175 46.421761 17.333175 
Q 46.015027 17.333175 45.712306 17.174829 
Q 45.409584 17.014929 45.215531 16.746361 
Q 45.021479 16.477792 44.926781 16.13626 
Q 44.832084 15.793175 44.832084 15.434567 
z
M 48.806277 17.9588 
L 48.806277 10.864244 
L 47.961761 10.864244 
L 47.961761 13.508014 
L 47.943132 13.508014 
Q 47.803415 13.279808 47.600048 13.126119 
Q 47.396681 12.970877 47.166923 12.877732 
Q 46.938717 12.783034 46.710511 12.742671 
Q 46.482306 12.702308 46.283596 12.702308 
Q 45.696781 12.702308 45.254342 12.916542 
Q 44.813455 13.130776 44.520048 13.494042 
Q 44.22664 13.855756 44.082265 14.343216 
Q 43.93789 14.829123 43.93789 15.375575 
Q 43.93789 15.922026 44.086923 16.409486 
Q 44.235955 16.895393 44.529362 17.263317 
Q 44.822769 17.63124 45.265209 17.850131 
Q 45.707648 18.06747 46.303777 18.06747 
Q 46.839362 18.06747 47.286459 17.879627 
Q 47.733556 17.690232 47.943132 17.263317 
L 47.961761 17.263317 
L 47.961761 17.9588 
L 48.806277 17.9588 
z
M 50.078018 12.821845 
L 50.078018 17.9588 
L 50.922534 17.9588 
L 50.922534 15.673639 
Q 50.922534 15.176865 51.021889 14.79497 
Q 51.121244 14.411522 51.340135 14.144506 
Q 51.559026 13.875938 51.916083 13.73622 
Q 52.274692 13.596502 52.78078 13.596502 
L 52.78078 12.702308 
Q 52.096163 12.683679 51.649067 12.981744 
Q 51.20197 13.279808 50.893038 13.905433 
L 50.872857 13.905433 
L 50.872857 12.821845 
L 50.078018 12.821845 
z
M 57.967723 17.938619 
Q 57.748831 18.06747 57.360727 18.06747 
Q 57.033166 18.06747 56.839114 17.884284 
Q 56.646614 17.701099 56.646614 17.283498 
Q 56.298872 17.701099 55.836251 17.884284 
Q 55.37363 18.06747 54.838045 18.06747 
Q 54.490303 18.06747 54.176714 17.988296 
Q 53.864678 17.909123 53.63492 17.739909 
Q 53.406714 17.570696 53.271654 17.29747 
Q 53.138146 17.024244 53.138146 16.637692 
Q 53.138146 16.199909 53.287178 15.922026 
Q 53.43621 15.644143 53.67994 15.470272 
Q 53.92367 15.296401 54.235706 15.207913 
Q 54.549295 15.117873 54.876856 15.057329 
Q 55.224598 14.98747 55.538186 14.953317 
Q 55.851775 14.919163 56.089295 14.853962 
Q 56.328368 14.78876 56.466533 14.664567 
Q 56.606251 14.540373 56.606251 14.302853 
Q 56.606251 14.02497 56.502239 13.855756 
Q 56.398227 13.686542 56.23367 13.598054 
Q 56.069114 13.508014 55.865747 13.478518 
Q 55.66238 13.44747 55.46367 13.44747 
Q 54.926533 13.44747 54.569477 13.652389 
Q 54.21242 13.855756 54.181372 14.422389 
L 53.336856 14.422389 
Q 53.357037 13.944244 53.535565 13.616683 
Q 53.715646 13.289123 54.01371 13.085756 
Q 54.311775 12.882389 54.69367 12.792349 
Q 55.075565 12.702308 55.513348 12.702308 
Q 55.861089 12.702308 56.204174 12.751986 
Q 56.547259 12.801663 56.825142 12.956905 
Q 57.103025 13.110595 57.272239 13.388478 
Q 57.441452 13.666361 57.441452 14.113458 
L 57.441452 16.757228 
Q 57.441452 17.055292 57.475606 17.19501 
Q 57.509759 17.333175 57.708469 17.333175 
Q 57.81869 17.333175 57.967723 17.283498 
L 57.967723 17.938619 
z
M 56.596936 15.305716 
Q 56.437037 15.425252 56.177783 15.479587 
Q 55.920081 15.533921 55.637541 15.569627 
Q 55.355001 15.60378 55.066251 15.6488 
Q 54.777501 15.693821 54.549295 15.793175 
Q 54.321089 15.89253 54.176714 16.077268 
Q 54.032339 16.260454 54.032339 16.577147 
Q 54.032339 16.786724 54.11617 16.931099 
Q 54.201553 17.073921 54.335061 17.163962 
Q 54.470122 17.254002 54.64865 17.294365 
Q 54.827178 17.333175 55.025888 17.333175 
Q 55.443489 17.333175 55.741553 17.219849 
Q 56.039618 17.10497 56.22746 16.931099 
Q 56.416856 16.757228 56.506896 16.553861 
Q 56.596936 16.348942 56.596936 16.170413 
L 56.596936 15.305716 
z
M 58.802613 10.864244 
L 58.802613 17.9588 
L 59.64713 17.9588 
L 59.64713 10.864244 
L 58.802613 10.864244 
z
"/>
   </g>
   <g id="text_2">
    <path d="M 13.754516 24.078438 
L 13.754516 30.378155 
L 14.698387 30.378155 
L 14.698387 24.078438 
L 17.062722 24.078438 
L 17.062722 23.283599 
L 11.390181 23.283599 
L 11.390181 24.078438 
L 13.754516 24.078438 
z
M 20.170044 27.318337 
L 17.218895 27.318337 
Q 17.239076 27.020272 17.347745 26.757913 
Q 17.457967 26.494002 17.64581 26.295292 
Q 17.835205 26.096583 18.097564 25.981704 
Q 18.361475 25.866825 18.690588 25.866825 
Q 19.007282 25.866825 19.271193 25.981704 
Q 19.535104 26.096583 19.727604 26.290635 
Q 19.921657 26.483135 20.034983 26.751704 
Q 20.149862 27.020272 20.170044 27.318337 
z
M 20.985064 28.748115 
L 20.149862 28.748115 
Q 20.041193 29.255756 19.698108 29.504143 
Q 19.355024 29.75253 18.819439 29.75253 
Q 18.401838 29.75253 18.092907 29.614365 
Q 17.785528 29.474647 17.586818 29.241784 
Q 17.388108 29.007369 17.298068 28.704647 
Q 17.20958 28.400373 17.218895 28.063498 
L 21.064237 28.063498 
Q 21.084419 27.59622 20.980407 27.079264 
Q 20.876395 26.562308 20.603169 26.126079 
Q 20.329943 25.688296 19.876636 25.405756 
Q 19.424882 25.121663 18.740266 25.121663 
Q 18.212443 25.121663 17.770003 25.320373 
Q 17.329116 25.519083 17.006213 25.877692 
Q 16.68331 26.234748 16.503229 26.722208 
Q 16.324701 27.208115 16.324701 27.794929 
Q 16.344882 28.381744 16.498572 28.878518 
Q 16.653814 29.375292 16.961193 29.732349 
Q 17.268572 30.089405 17.720326 30.288115 
Q 18.173632 30.486825 18.789943 30.486825 
Q 19.663955 30.486825 20.239903 30.050595 
Q 20.81585 29.612813 20.985064 28.748115 
z
M 23.111568 25.2412 
L 23.111568 23.7012 
L 22.267052 23.7012 
L 22.267052 25.2412 
L 21.393039 25.2412 
L 21.393039 25.986361 
L 22.267052 25.986361 
L 22.267052 29.255756 
Q 22.267052 29.612813 22.335358 29.831704 
Q 22.405217 30.050595 22.549592 30.170131 
Q 22.693967 30.288115 22.92683 30.333135 
Q 23.161245 30.378155 23.488806 30.378155 
L 24.134612 30.378155 
L 24.134612 29.632994 
L 23.746507 29.632994 
Q 23.547797 29.632994 23.423604 29.619022 
Q 23.29941 29.603498 23.229552 29.553821 
Q 23.161245 29.504143 23.136406 29.415655 
Q 23.111568 29.325615 23.111568 29.176583 
L 23.111568 25.986361 
L 24.134612 25.986361 
L 24.134612 25.2412 
L 23.111568 25.2412 
z
M 25.038119 25.2412 
L 25.038119 30.378155 
L 25.882635 30.378155 
L 25.882635 28.092994 
Q 25.882635 27.59622 25.98199 27.214325 
Q 26.081344 26.830877 26.300235 26.563861 
Q 26.519127 26.295292 26.876183 26.155575 
Q 27.234792 26.015857 27.740881 26.015857 
L 27.740881 25.121663 
Q 27.056264 25.103034 26.609167 25.401099 
Q 26.16207 25.699163 25.853139 26.324788 
L 25.832957 26.324788 
L 25.832957 25.2412 
L 25.038119 25.2412 
z
M 32.927823 30.357974 
Q 32.708932 30.486825 32.320827 30.486825 
Q 31.993267 30.486825 31.799214 30.303639 
Q 31.606714 30.120454 31.606714 29.702853 
Q 31.258972 30.120454 30.796351 30.303639 
Q 30.33373 30.486825 29.798146 30.486825 
Q 29.450404 30.486825 29.136815 30.407651 
Q 28.824779 30.328478 28.595021 30.159264 
Q 28.366815 29.99005 28.231754 29.716825 
Q 28.098246 29.443599 28.098246 29.057046 
Q 28.098246 28.619264 28.247279 28.341381 
Q 28.396311 28.063498 28.640041 27.889627 
Q 28.883771 27.715756 29.195807 27.627268 
Q 29.509396 27.537228 29.836956 27.476683 
Q 30.184698 27.406825 30.498287 27.372671 
Q 30.811875 27.338518 31.049396 27.273317 
Q 31.288468 27.208115 31.426633 27.083921 
Q 31.566351 26.959728 31.566351 26.722208 
Q 31.566351 26.444325 31.462339 26.275111 
Q 31.358327 26.105897 31.193771 26.017409 
Q 31.029214 25.927369 30.825847 25.897873 
Q 30.62248 25.866825 30.423771 25.866825 
Q 29.886633 25.866825 29.529577 26.071744 
Q 29.172521 26.275111 29.141472 26.841744 
L 28.296956 26.841744 
Q 28.317137 26.363599 28.495666 26.036038 
Q 28.675746 25.708478 28.973811 25.505111 
Q 29.271875 25.301744 29.653771 25.211704 
Q 30.035666 25.121663 30.473448 25.121663 
Q 30.82119 25.121663 31.164275 25.171341 
Q 31.507359 25.221018 31.785242 25.37626 
Q 32.063125 25.52995 32.232339 25.807833 
Q 32.401553 26.085716 32.401553 26.532813 
L 32.401553 29.176583 
Q 32.401553 29.474647 32.435706 29.614365 
Q 32.469859 29.75253 32.668569 29.75253 
Q 32.778791 29.75253 32.927823 29.702853 
L 32.927823 30.357974 
z
M 31.557037 27.725071 
Q 31.397137 27.844607 31.137883 27.898942 
Q 30.880182 27.953276 30.597642 27.988982 
Q 30.315101 28.023135 30.026351 28.068155 
Q 29.737601 28.113175 29.509396 28.21253 
Q 29.28119 28.311885 29.136815 28.496623 
Q 28.99244 28.679808 28.99244 28.996502 
Q 28.99244 29.206079 29.076271 29.350454 
Q 29.161654 29.493276 29.295162 29.583317 
Q 29.430222 29.673357 29.60875 29.71372 
Q 29.787279 29.75253 29.985988 29.75253 
Q 30.403589 29.75253 30.701654 29.639204 
Q 30.999718 29.524325 31.187561 29.350454 
Q 31.376956 29.176583 31.466996 28.973216 
Q 31.557037 28.768296 31.557037 28.589768 
L 31.557037 27.725071 
z
M 33.713036 23.283599 
L 33.713036 30.378155 
L 34.557553 30.378155 
L 34.557553 27.476683 
Q 34.557553 27.128942 34.650698 26.837087 
Q 34.745395 26.543679 34.933238 26.324788 
Q 35.122633 26.105897 35.405173 25.986361 
Q 35.689266 25.866825 36.077371 25.866825 
Q 36.563278 25.866825 36.841161 26.14626 
Q 37.120597 26.424143 37.120597 26.900736 
L 37.120597 30.378155 
L 37.965113 30.378155 
L 37.965113 27.000091 
Q 37.965113 26.58249 37.87973 26.240958 
Q 37.795899 25.897873 37.586323 25.649486 
Q 37.378298 25.401099 37.039871 25.261381 
Q 36.702996 25.121663 36.196907 25.121663 
Q 35.967149 25.121663 35.723419 25.171341 
Q 35.481242 25.221018 35.257694 25.326583 
Q 35.034145 25.430595 34.854065 25.595151 
Q 34.675536 25.758155 34.576182 25.997228 
L 34.557553 25.997228 
L 34.557553 23.283599 
L 33.713036 23.283599 
z
M 42.803072 27.318337 
L 39.851923 27.318337 
Q 39.872104 27.020272 39.980773 26.757913 
Q 40.090995 26.494002 40.278838 26.295292 
Q 40.468233 26.096583 40.730592 25.981704 
Q 40.994503 25.866825 41.323616 25.866825 
Q 41.64031 25.866825 41.904221 25.981704 
Q 42.168132 26.096583 42.360632 26.290635 
Q 42.554685 26.483135 42.668011 26.751704 
Q 42.78289 27.020272 42.803072 27.318337 
z
M 43.618092 28.748115 
L 42.78289 28.748115 
Q 42.674221 29.255756 42.331136 29.504143 
Q 41.988052 29.75253 41.452467 29.75253 
Q 41.034866 29.75253 40.725935 29.614365 
Q 40.418556 29.474647 40.219846 29.241784 
Q 40.021136 29.007369 39.931096 28.704647 
Q 39.842608 28.400373 39.851923 28.063498 
L 43.697265 28.063498 
Q 43.717447 27.59622 43.613435 27.079264 
Q 43.509423 26.562308 43.236197 26.126079 
Q 42.962971 25.688296 42.509665 25.405756 
Q 42.05791 25.121663 41.373294 25.121663 
Q 40.845471 25.121663 40.403031 25.320373 
Q 39.962144 25.519083 39.639241 25.877692 
Q 39.316338 26.234748 39.136257 26.722208 
Q 38.957729 27.208115 38.957729 27.794929 
Q 38.97791 28.381744 39.1316 28.878518 
Q 39.286842 29.375292 39.594221 29.732349 
Q 39.9016 30.089405 40.353354 30.288115 
Q 40.80666 30.486825 41.422971 30.486825 
Q 42.296983 30.486825 42.872931 30.050595 
Q 43.448878 29.612813 43.618092 28.748115 
z
M 45.187277 27.853921 
Q 45.187277 27.476683 45.26645 27.119627 
Q 45.347176 26.761018 45.525705 26.483135 
Q 45.704233 26.205252 46.002297 26.036038 
Q 46.300362 25.866825 46.727277 25.866825 
Q 47.165059 25.866825 47.472438 26.031381 
Q 47.78137 26.195938 47.97387 26.464506 
Q 48.167922 26.731522 48.257963 27.085474 
Q 48.348003 27.437873 48.348003 27.815111 
Q 48.348003 28.172167 48.26262 28.519909 
Q 48.178789 28.867651 47.989394 29.140877 
Q 47.801551 29.414103 47.503487 29.583317 
Q 47.205422 29.75253 46.776955 29.75253 
Q 46.370221 29.75253 46.067499 29.594183 
Q 45.764777 29.434284 45.570725 29.165716 
Q 45.376672 28.897147 45.281975 28.555615 
Q 45.187277 28.21253 45.187277 27.853921 
z
M 49.161471 30.378155 
L 49.161471 23.283599 
L 48.316955 23.283599 
L 48.316955 25.927369 
L 48.298325 25.927369 
Q 48.158608 25.699163 47.955241 25.545474 
Q 47.751874 25.390232 47.522116 25.297087 
Q 47.29391 25.202389 47.065705 25.162026 
Q 46.837499 25.121663 46.638789 25.121663 
Q 46.051975 25.121663 45.609535 25.335897 
Q 45.168648 25.550131 44.875241 25.913397 
Q 44.581834 26.275111 44.437459 26.762571 
Q 44.293084 27.248478 44.293084 27.794929 
Q 44.293084 28.341381 44.442116 28.828841 
Q 44.591148 29.314748 44.884555 29.682671 
Q 45.177963 30.050595 45.620402 30.269486 
Q 46.062842 30.486825 46.658971 30.486825 
Q 47.194555 30.486825 47.641652 30.298982 
Q 48.088749 30.109587 48.298325 29.682671 
L 48.316955 29.682671 
L 48.316955 30.378155 
L 49.161471 30.378155 
z
M 50.433211 25.2412 
L 50.433211 30.378155 
L 51.277728 30.378155 
L 51.277728 28.092994 
Q 51.277728 27.59622 51.377082 27.214325 
Q 51.476437 26.830877 51.695328 26.563861 
Q 51.914219 26.295292 52.271276 26.155575 
Q 52.629885 26.015857 53.135973 26.015857 
L 53.135973 25.121663 
Q 52.451357 25.103034 52.00426 25.401099 
Q 51.557163 25.699163 51.248232 26.324788 
L 51.22805 26.324788 
L 51.22805 25.2412 
L 50.433211 25.2412 
z
M 58.322916 30.357974 
Q 58.104025 30.486825 57.71592 30.486825 
Q 57.388359 30.486825 57.194307 30.303639 
Q 57.001807 30.120454 57.001807 29.702853 
Q 56.654065 30.120454 56.191444 30.303639 
Q 55.728823 30.486825 55.193238 30.486825 
Q 54.845496 30.486825 54.531908 30.407651 
Q 54.219871 30.328478 53.990113 30.159264 
Q 53.761908 29.99005 53.626847 29.716825 
Q 53.493339 29.443599 53.493339 29.057046 
Q 53.493339 28.619264 53.642371 28.341381 
Q 53.791404 28.063498 54.035134 27.889627 
Q 54.278863 27.715756 54.5909 27.627268 
Q 54.904488 27.537228 55.232049 27.476683 
Q 55.579791 27.406825 55.89338 27.372671 
Q 56.206968 27.338518 56.444488 27.273317 
Q 56.683561 27.208115 56.821726 27.083921 
Q 56.961444 26.959728 56.961444 26.722208 
Q 56.961444 26.444325 56.857432 26.275111 
Q 56.75342 26.105897 56.588863 26.017409 
Q 56.424307 25.927369 56.22094 25.897873 
Q 56.017573 25.866825 55.818863 25.866825 
Q 55.281726 25.866825 54.92467 26.071744 
Q 54.567613 26.275111 54.536565 26.841744 
L 53.692049 26.841744 
Q 53.71223 26.363599 53.890759 26.036038 
Q 54.070839 25.708478 54.368904 25.505111 
Q 54.666968 25.301744 55.048863 25.211704 
Q 55.430759 25.121663 55.868541 25.121663 
Q 56.216283 25.121663 56.559367 25.171341 
Q 56.902452 25.221018 57.180335 25.37626 
Q 57.458218 25.52995 57.627432 25.807833 
Q 57.796646 26.085716 57.796646 26.532813 
L 57.796646 29.176583 
Q 57.796646 29.474647 57.830799 29.614365 
Q 57.864952 29.75253 58.063662 29.75253 
Q 58.173884 29.75253 58.322916 29.702853 
L 58.322916 30.357974 
z
M 56.95213 27.725071 
Q 56.79223 27.844607 56.532976 27.898942 
Q 56.275275 27.953276 55.992734 27.988982 
Q 55.710194 28.023135 55.421444 28.068155 
Q 55.132694 28.113175 54.904488 28.21253 
Q 54.676283 28.311885 54.531908 28.496623 
Q 54.387533 28.679808 54.387533 28.996502 
Q 54.387533 29.206079 54.471363 29.350454 
Q 54.556746 29.493276 54.690255 29.583317 
Q 54.825315 29.673357 55.003843 29.71372 
Q 55.182371 29.75253 55.381081 29.75253 
Q 55.798682 29.75253 56.096746 29.639204 
Q 56.394811 29.524325 56.582654 29.350454 
Q 56.772049 29.176583 56.862089 28.973216 
Q 56.95213 28.768296 56.95213 28.589768 
L 56.95213 27.725071 
z
M 59.157807 23.283599 
L 59.157807 30.378155 
L 60.002323 30.378155 
L 60.002323 23.283599 
L 59.157807 23.283599 
z
" style="stroke: #ffffff; stroke-width: 2.980645"/>
    <path d="M 13.754516 24.078438 
L 13.754516 30.378155 
L 14.698387 30.378155 
L 14.698387 24.078438 
L 17.062722 24.078438 
L 17.062722 23.283599 
L 11.390181 23.283599 
L 11.390181 24.078438 
L 13.754516 24.078438 
z
M 20.170044 27.318337 
L 17.218895 27.318337 
Q 17.239076 27.020272 17.347745 26.757913 
Q 17.457967 26.494002 17.64581 26.295292 
Q 17.835205 26.096583 18.097564 25.981704 
Q 18.361475 25.866825 18.690588 25.866825 
Q 19.007282 25.866825 19.271193 25.981704 
Q 19.535104 26.096583 19.727604 26.290635 
Q 19.921657 26.483135 20.034983 26.751704 
Q 20.149862 27.020272 20.170044 27.318337 
z
M 20.985064 28.748115 
L 20.149862 28.748115 
Q 20.041193 29.255756 19.698108 29.504143 
Q 19.355024 29.75253 18.819439 29.75253 
Q 18.401838 29.75253 18.092907 29.614365 
Q 17.785528 29.474647 17.586818 29.241784 
Q 17.388108 29.007369 17.298068 28.704647 
Q 17.20958 28.400373 17.218895 28.063498 
L 21.064237 28.063498 
Q 21.084419 27.59622 20.980407 27.079264 
Q 20.876395 26.562308 20.603169 26.126079 
Q 20.329943 25.688296 19.876636 25.405756 
Q 19.424882 25.121663 18.740266 25.121663 
Q 18.212443 25.121663 17.770003 25.320373 
Q 17.329116 25.519083 17.006213 25.877692 
Q 16.68331 26.234748 16.503229 26.722208 
Q 16.324701 27.208115 16.324701 27.794929 
Q 16.344882 28.381744 16.498572 28.878518 
Q 16.653814 29.375292 16.961193 29.732349 
Q 17.268572 30.089405 17.720326 30.288115 
Q 18.173632 30.486825 18.789943 30.486825 
Q 19.663955 30.486825 20.239903 30.050595 
Q 20.81585 29.612813 20.985064 28.748115 
z
M 23.111568 25.2412 
L 23.111568 23.7012 
L 22.267052 23.7012 
L 22.267052 25.2412 
L 21.393039 25.2412 
L 21.393039 25.986361 
L 22.267052 25.986361 
L 22.267052 29.255756 
Q 22.267052 29.612813 22.335358 29.831704 
Q 22.405217 30.050595 22.549592 30.170131 
Q 22.693967 30.288115 22.92683 30.333135 
Q 23.161245 30.378155 23.488806 30.378155 
L 24.134612 30.378155 
L 24.134612 29.632994 
L 23.746507 29.632994 
Q 23.547797 29.632994 23.423604 29.619022 
Q 23.29941 29.603498 23.229552 29.553821 
Q 23.161245 29.504143 23.136406 29.415655 
Q 23.111568 29.325615 23.111568 29.176583 
L 23.111568 25.986361 
L 24.134612 25.986361 
L 24.134612 25.2412 
L 23.111568 25.2412 
z
M 25.038119 25.2412 
L 25.038119 30.378155 
L 25.882635 30.378155 
L 25.882635 28.092994 
Q 25.882635 27.59622 25.98199 27.214325 
Q 26.081344 26.830877 26.300235 26.563861 
Q 26.519127 26.295292 26.876183 26.155575 
Q 27.234792 26.015857 27.740881 26.015857 
L 27.740881 25.121663 
Q 27.056264 25.103034 26.609167 25.401099 
Q 26.16207 25.699163 25.853139 26.324788 
L 25.832957 26.324788 
L 25.832957 25.2412 
L 25.038119 25.2412 
z
M 32.927823 30.357974 
Q 32.708932 30.486825 32.320827 30.486825 
Q 31.993267 30.486825 31.799214 30.303639 
Q 31.606714 30.120454 31.606714 29.702853 
Q 31.258972 30.120454 30.796351 30.303639 
Q 30.33373 30.486825 29.798146 30.486825 
Q 29.450404 30.486825 29.136815 30.407651 
Q 28.824779 30.328478 28.595021 30.159264 
Q 28.366815 29.99005 28.231754 29.716825 
Q 28.098246 29.443599 28.098246 29.057046 
Q 28.098246 28.619264 28.247279 28.341381 
Q 28.396311 28.063498 28.640041 27.889627 
Q 28.883771 27.715756 29.195807 27.627268 
Q 29.509396 27.537228 29.836956 27.476683 
Q 30.184698 27.406825 30.498287 27.372671 
Q 30.811875 27.338518 31.049396 27.273317 
Q 31.288468 27.208115 31.426633 27.083921 
Q 31.566351 26.959728 31.566351 26.722208 
Q 31.566351 26.444325 31.462339 26.275111 
Q 31.358327 26.105897 31.193771 26.017409 
Q 31.029214 25.927369 30.825847 25.897873 
Q 30.62248 25.866825 30.423771 25.866825 
Q 29.886633 25.866825 29.529577 26.071744 
Q 29.172521 26.275111 29.141472 26.841744 
L 28.296956 26.841744 
Q 28.317137 26.363599 28.495666 26.036038 
Q 28.675746 25.708478 28.973811 25.505111 
Q 29.271875 25.301744 29.653771 25.211704 
Q 30.035666 25.121663 30.473448 25.121663 
Q 30.82119 25.121663 31.164275 25.171341 
Q 31.507359 25.221018 31.785242 25.37626 
Q 32.063125 25.52995 32.232339 25.807833 
Q 32.401553 26.085716 32.401553 26.532813 
L 32.401553 29.176583 
Q 32.401553 29.474647 32.435706 29.614365 
Q 32.469859 29.75253 32.668569 29.75253 
Q 32.778791 29.75253 32.927823 29.702853 
L 32.927823 30.357974 
z
M 31.557037 27.725071 
Q 31.397137 27.844607 31.137883 27.898942 
Q 30.880182 27.953276 30.597642 27.988982 
Q 30.315101 28.023135 30.026351 28.068155 
Q 29.737601 28.113175 29.509396 28.21253 
Q 29.28119 28.311885 29.136815 28.496623 
Q 28.99244 28.679808 28.99244 28.996502 
Q 28.99244 29.206079 29.076271 29.350454 
Q 29.161654 29.493276 29.295162 29.583317 
Q 29.430222 29.673357 29.60875 29.71372 
Q 29.787279 29.75253 29.985988 29.75253 
Q 30.403589 29.75253 30.701654 29.639204 
Q 30.999718 29.524325 31.187561 29.350454 
Q 31.376956 29.176583 31.466996 28.973216 
Q 31.557037 28.768296 31.557037 28.589768 
L 31.557037 27.725071 
z
M 33.713036 23.283599 
L 33.713036 30.378155 
L 34.557553 30.378155 
L 34.557553 27.476683 
Q 34.557553 27.128942 34.650698 26.837087 
Q 34.745395 26.543679 34.933238 26.324788 
Q 35.122633 26.105897 35.405173 25.986361 
Q 35.689266 25.866825 36.077371 25.866825 
Q 36.563278 25.866825 36.841161 26.14626 
Q 37.120597 26.424143 37.120597 26.900736 
L 37.120597 30.378155 
L 37.965113 30.378155 
L 37.965113 27.000091 
Q 37.965113 26.58249 37.87973 26.240958 
Q 37.795899 25.897873 37.586323 25.649486 
Q 37.378298 25.401099 37.039871 25.261381 
Q 36.702996 25.121663 36.196907 25.121663 
Q 35.967149 25.121663 35.723419 25.171341 
Q 35.481242 25.221018 35.257694 25.326583 
Q 35.034145 25.430595 34.854065 25.595151 
Q 34.675536 25.758155 34.576182 25.997228 
L 34.557553 25.997228 
L 34.557553 23.283599 
L 33.713036 23.283599 
z
M 42.803072 27.318337 
L 39.851923 27.318337 
Q 39.872104 27.020272 39.980773 26.757913 
Q 40.090995 26.494002 40.278838 26.295292 
Q 40.468233 26.096583 40.730592 25.981704 
Q 40.994503 25.866825 41.323616 25.866825 
Q 41.64031 25.866825 41.904221 25.981704 
Q 42.168132 26.096583 42.360632 26.290635 
Q 42.554685 26.483135 42.668011 26.751704 
Q 42.78289 27.020272 42.803072 27.318337 
z
M 43.618092 28.748115 
L 42.78289 28.748115 
Q 42.674221 29.255756 42.331136 29.504143 
Q 41.988052 29.75253 41.452467 29.75253 
Q 41.034866 29.75253 40.725935 29.614365 
Q 40.418556 29.474647 40.219846 29.241784 
Q 40.021136 29.007369 39.931096 28.704647 
Q 39.842608 28.400373 39.851923 28.063498 
L 43.697265 28.063498 
Q 43.717447 27.59622 43.613435 27.079264 
Q 43.509423 26.562308 43.236197 26.126079 
Q 42.962971 25.688296 42.509665 25.405756 
Q 42.05791 25.121663 41.373294 25.121663 
Q 40.845471 25.121663 40.403031 25.320373 
Q 39.962144 25.519083 39.639241 25.877692 
Q 39.316338 26.234748 39.136257 26.722208 
Q 38.957729 27.208115 38.957729 27.794929 
Q 38.97791 28.381744 39.1316 28.878518 
Q 39.286842 29.375292 39.594221 29.732349 
Q 39.9016 30.089405 40.353354 30.288115 
Q 40.80666 30.486825 41.422971 30.486825 
Q 42.296983 30.486825 42.872931 30.050595 
Q 43.448878 29.612813 43.618092 28.748115 
z
M 45.187277 27.853921 
Q 45.187277 27.476683 45.26645 27.119627 
Q 45.347176 26.761018 45.525705 26.483135 
Q 45.704233 26.205252 46.002297 26.036038 
Q 46.300362 25.866825 46.727277 25.866825 
Q 47.165059 25.866825 47.472438 26.031381 
Q 47.78137 26.195938 47.97387 26.464506 
Q 48.167922 26.731522 48.257963 27.085474 
Q 48.348003 27.437873 48.348003 27.815111 
Q 48.348003 28.172167 48.26262 28.519909 
Q 48.178789 28.867651 47.989394 29.140877 
Q 47.801551 29.414103 47.503487 29.583317 
Q 47.205422 29.75253 46.776955 29.75253 
Q 46.370221 29.75253 46.067499 29.594183 
Q 45.764777 29.434284 45.570725 29.165716 
Q 45.376672 28.897147 45.281975 28.555615 
Q 45.187277 28.21253 45.187277 27.853921 
z
M 49.161471 30.378155 
L 49.161471 23.283599 
L 48.316955 23.283599 
L 48.316955 25.927369 
L 48.298325 25.927369 
Q 48.158608 25.699163 47.955241 25.545474 
Q 47.751874 25.390232 47.522116 25.297087 
Q 47.29391 25.202389 47.065705 25.162026 
Q 46.837499 25.121663 46.638789 25.121663 
Q 46.051975 25.121663 45.609535 25.335897 
Q 45.168648 25.550131 44.875241 25.913397 
Q 44.581834 26.275111 44.437459 26.762571 
Q 44.293084 27.248478 44.293084 27.794929 
Q 44.293084 28.341381 44.442116 28.828841 
Q 44.591148 29.314748 44.884555 29.682671 
Q 45.177963 30.050595 45.620402 30.269486 
Q 46.062842 30.486825 46.658971 30.486825 
Q 47.194555 30.486825 47.641652 30.298982 
Q 48.088749 30.109587 48.298325 29.682671 
L 48.316955 29.682671 
L 48.316955 30.378155 
L 49.161471 30.378155 
z
M 50.433211 25.2412 
L 50.433211 30.378155 
L 51.277728 30.378155 
L 51.277728 28.092994 
Q 51.277728 27.59622 51.377082 27.214325 
Q 51.476437 26.830877 51.695328 26.563861 
Q 51.914219 26.295292 52.271276 26.155575 
Q 52.629885 26.015857 53.135973 26.015857 
L 53.135973 25.121663 
Q 52.451357 25.103034 52.00426 25.401099 
Q 51.557163 25.699163 51.248232 26.324788 
L 51.22805 26.324788 
L 51.22805 25.2412 
L 50.433211 25.2412 
z
M 58.322916 30.357974 
Q 58.104025 30.486825 57.71592 30.486825 
Q 57.388359 30.486825 57.194307 30.303639 
Q 57.001807 30.120454 57.001807 29.702853 
Q 56.654065 30.120454 56.191444 30.303639 
Q 55.728823 30.486825 55.193238 30.486825 
Q 54.845496 30.486825 54.531908 30.407651 
Q 54.219871 30.328478 53.990113 30.159264 
Q 53.761908 29.99005 53.626847 29.716825 
Q 53.493339 29.443599 53.493339 29.057046 
Q 53.493339 28.619264 53.642371 28.341381 
Q 53.791404 28.063498 54.035134 27.889627 
Q 54.278863 27.715756 54.5909 27.627268 
Q 54.904488 27.537228 55.232049 27.476683 
Q 55.579791 27.406825 55.89338 27.372671 
Q 56.206968 27.338518 56.444488 27.273317 
Q 56.683561 27.208115 56.821726 27.083921 
Q 56.961444 26.959728 56.961444 26.722208 
Q 56.961444 26.444325 56.857432 26.275111 
Q 56.75342 26.105897 56.588863 26.017409 
Q 56.424307 25.927369 56.22094 25.897873 
Q 56.017573 25.866825 55.818863 25.866825 
Q 55.281726 25.866825 54.92467 26.071744 
Q 54.567613 26.275111 54.536565 26.841744 
L 53.692049 26.841744 
Q 53.71223 26.363599 53.890759 26.036038 
Q 54.070839 25.708478 54.368904 25.505111 
Q 54.666968 25.301744 55.048863 25.211704 
Q 55.430759 25.121663 55.868541 25.121663 
Q 56.216283 25.121663 56.559367 25.171341 
Q 56.902452 25.221018 57.180335 25.37626 
Q 57.458218 25.52995 57.627432 25.807833 
Q 57.796646 26.085716 57.796646 26.532813 
L 57.796646 29.176583 
Q 57.796646 29.474647 57.830799 29.614365 
Q 57.864952 29.75253 58.063662 29.75253 
Q 58.173884 29.75253 58.322916 29.702853 
L 58.322916 30.357974 
z
M 56.95213 27.725071 
Q 56.79223 27.844607 56.532976 27.898942 
Q 56.275275 27.953276 55.992734 27.988982 
Q 55.710194 28.023135 55.421444 28.068155 
Q 55.132694 28.113175 54.904488 28.21253 
Q 54.676283 28.311885 54.531908 28.496623 
Q 54.387533 28.679808 54.387533 28.996502 
Q 54.387533 29.206079 54.471363 29.350454 
Q 54.556746 29.493276 54.690255 29.583317 
Q 54.825315 29.673357 55.003843 29.71372 
Q 55.182371 29.75253 55.381081 29.75253 
Q 55.798682 29.75253 56.096746 29.639204 
Q 56.394811 29.524325 56.582654 29.350454 
Q 56.772049 29.176583 56.862089 28.973216 
Q 56.95213 28.768296 56.95213 28.589768 
L 56.95213 27.725071 
z
M 59.157807 23.283599 
L 59.157807 30.378155 
L 60.002323 30.378155 
L 60.002323 23.283599 
L 59.157807 23.283599 
z
"/>
   </g>
  </g>
 </g>
 <defs>
  <clipPath id="pbb391d5419">
   <rect x="-198.725742" y="-168.277032" width="221.76" height="221.76"/>
  </clipPath>
 </defs>
</svg>
