<?xml version="1.0" encoding="utf-8" standalone="no"?>
<!DOCTYPE svg PUBLIC "-//W3C//DTD SVG 1.1//EN"
  "http://www.w3.org/Graphics/SVG/1.1/DTD/svg11.dtd">
<svg xmlns:xlink="http://www.w3.org/1999/xlink" width="39.6pt" height="57.6pt" viewBox="0 0 39.6 57.6" xmlns="http://www.w3.org/2000/svg" version="1.1">
 <metadata>
  <rdf:RDF xmlns:dc="http://purl.org/dc/elements/1.1/" xmlns:cc="http://creativecommons.org/ns#" xmlns:rdf="http://www.w3.org/1999/02/22-rdf-syntax-ns#">
   <cc:Work>
    <dc:type rdf:resource="http://purl.org/dc/dcmitype/StillImage"/>
    <dc:date>2026-02-24T19:27:38.395907</dc:date>
    <dc:format>image/svg+xml</dc:format>
    <dc:creator>
     <cc:Agent>
      <dc:title>Matplotlib v3.10.7, https://matplotlib.org/</dc:title>
     </cc:Agent>
    </dc:creator>
   </cc:Work>
  </rdf:RDF>
 </metadata>
 <defs>
  <style type="text/css">*{stroke-linejoin: round; stroke-linecap: butt}</style>
 </defs>
 <g id="figure_1">
  <g id="patch_1">
   <path d="M 0 57.6 
L 39.6 57.6 
L 39.6 0 
L 0 0 
z
" style="fill: #ffffff"/>
  </g>
  <g id="axes_1">
   <g id="line2d_1">
    <defs>
     <path id="m5991cd93b6" d="M 0 -4.967742 
L -4.302191 -2.483871 
L -4.302191 2.483871 
L -0 4.967742 
L 4.302191 2.483871 
L 4.302191 -2.483871 
z
" style="stroke: #262626; stroke-width: 0.993548; stroke-linejoin: miter"/>
    </defs>
    <g clip-path="url(#pea94a47973)"/>
   </g>
   <g id="line2d_2">
    <defs>
     <path id="m2d590a6b48" d="M -3.512724 -3.512724 
L -3.512724 3.512724 
L 3.512724 3.512724 
L 3.512724 -3.512724 
z
" style="stroke: #262626; stroke-width: 0.993548; stroke-linejoin: miter"/>
    </defs>
    <g clip-path="url(#pea94a47973)"/>
   </g>
   <g id="line2d_3">
    <defs>
     <path id="mfff8e04ccd" d="M 0 4.967742 
C 1.317461 4.967742 2.581139 4.444309 3.512724 3.512724 
C 4.444309 2.581139 4.967742 1.317461 4.967742 0 
C 4.967742 -1.317461 4.444309 -2.581139 3.512724 -3.512724 
C 2.581139 -4.444309 1.317461 -4.967742 0 -4.967742 
C -1.317461 -4.967742 -2.581139 -4.444309 -3.512724 -3.512724 
C -4.444309 -2.581139 -4.967742 -1.317461 -4.967742 0 
C -4.967742 1.317461 -4.444309 2.581139 -3.512724 3.512724 
C -2.581139 4.444309 -1.317461 4.967742 0 4.967742 
z
" style="stroke: #262626; stroke-width: 0.993548"/>
    </defs>
    <g clip-path="url(#pea94a47973)"/>
   </g>
   <g id="text_1">
    <path d="M 3.942722 15.371845 
Q 3.942722 14.83626 4.080887 14.314647 
Q 4.220605 13.793034 4.518669 13.375433 
Q 4.816734 12.957833 5.284012 12.704788 
Q 5.75129 12.451744 6.397097 12.451744 
Q 7.042903 12.451744 7.510181 12.704788 
Q 7.97746 12.957833 8.275524 13.375433 
Q 8.573589 13.793034 8.711754 14.314647 
Q 8.851472 14.83626 8.851472 15.371845 
Q 8.851472 15.908982 8.711754 16.430595 
Q 8.573589 16.952208 8.275524 17.369808 
Q 7.97746 17.785857 7.510181 18.040454 
Q 7.042903 18.293498 6.397097 18.293498 
Q 5.75129 18.293498 5.284012 18.040454 
Q 4.816734 17.785857 4.518669 17.369808 
Q 4.220605 16.952208 4.080887 16.430595 
Q 3.942722 15.908982 3.942722 15.371845 
z
M 2.998851 15.371845 
Q 2.998851 16.096825 3.211532 16.76747 
Q 3.425766 17.438115 3.852681 17.955071 
Q 4.281149 18.472026 4.916089 18.774748 
Q 5.552581 19.07747 6.397097 19.07747 
Q 7.241613 19.07747 7.876552 18.774748 
Q 8.513044 18.472026 8.93996 17.955071 
Q 9.368427 17.438115 9.581109 16.76747 
Q 9.795343 16.096825 9.795343 15.371845 
Q 9.795343 14.646865 9.581109 13.97622 
Q 9.368427 13.305575 8.93996 12.788619 
Q 8.513044 12.271663 7.876552 11.964284 
Q 7.241613 11.656905 6.397097 11.656905 
Q 5.552581 11.656905 4.916089 11.964284 
Q 4.281149 12.271663 3.852681 12.788619 
Q 3.425766 13.305575 3.211532 13.97622 
Q 2.998851 14.646865 2.998851 15.371845 
z
M 14.295805 15.432389 
L 15.169817 15.432389 
Q 15.12014 14.974425 14.930744 14.642208 
Q 14.742902 14.308437 14.449494 14.091099 
Q 14.156087 13.872208 13.774192 13.768196 
Q 13.392297 13.662631 12.954515 13.662631 
Q 12.349071 13.662631 11.891107 13.876865 
Q 11.434696 14.091099 11.130422 14.463679 
Q 10.8277 14.83626 10.678668 15.337692 
Q 10.529636 15.839123 10.529636 16.415071 
Q 10.529636 16.991018 10.683325 17.473821 
Q 10.838567 17.955071 11.141289 18.302812 
Q 11.444011 18.650554 11.895765 18.83995 
Q 12.349071 19.027792 12.934333 19.027792 
Q 13.918567 19.027792 14.489857 18.512389 
Q 15.061148 17.995433 15.199313 17.040696 
L 14.336168 17.040696 
Q 14.255442 17.636825 13.903043 17.965937 
Q 13.550644 18.293498 12.925019 18.293498 
Q 12.527599 18.293498 12.238849 18.135151 
Q 11.951652 17.975252 11.771571 17.712893 
Q 11.593043 17.448982 11.50766 17.112107 
Q 11.423829 16.773679 11.423829 16.415071 
Q 11.423829 16.028518 11.503003 15.665252 
Q 11.583728 15.301986 11.766914 15.024103 
Q 11.951652 14.74622 12.259031 14.577006 
Q 12.56641 14.407792 13.024373 14.407792 
Q 13.559958 14.407792 13.878204 14.676361 
Q 14.19645 14.944929 14.295805 15.432389 
z
M 17.316502 13.782167 
L 17.316502 12.242167 
L 16.471986 12.242167 
L 16.471986 13.782167 
L 15.597974 13.782167 
L 15.597974 14.527329 
L 16.471986 14.527329 
L 16.471986 17.796724 
Q 16.471986 18.15378 16.540293 18.372671 
Q 16.610151 18.591562 16.754526 18.711099 
Q 16.898901 18.829083 17.131764 18.874103 
Q 17.36618 18.919123 17.69374 18.919123 
L 18.339547 18.919123 
L 18.339547 18.173962 
L 17.951442 18.173962 
Q 17.752732 18.173962 17.628539 18.15999 
Q 17.504345 18.144466 17.434486 18.094788 
Q 17.36618 18.045111 17.341341 17.956623 
Q 17.316502 17.866583 17.316502 17.71755 
L 17.316502 14.527329 
L 18.339547 14.527329 
L 18.339547 13.782167 
L 17.316502 13.782167 
z
M 23.824243 18.898942 
Q 23.605352 19.027792 23.217247 19.027792 
Q 22.889686 19.027792 22.695634 18.844607 
Q 22.503134 18.661421 22.503134 18.243821 
Q 22.155392 18.661421 21.692771 18.844607 
Q 21.23015 19.027792 20.694565 19.027792 
Q 20.346823 19.027792 20.033235 18.948619 
Q 19.721198 18.869446 19.49144 18.700232 
Q 19.263235 18.531018 19.128174 18.257792 
Q 18.994666 17.984567 18.994666 17.598014 
Q 18.994666 17.160232 19.143698 16.882349 
Q 19.292731 16.604466 19.53646 16.430595 
Q 19.78019 16.256724 20.092227 16.168236 
Q 20.405815 16.078196 20.733376 16.017651 
Q 21.081118 15.947792 21.394706 15.913639 
Q 21.708295 15.879486 21.945815 15.814284 
Q 22.184888 15.749083 22.323053 15.624889 
Q 22.462771 15.500696 22.462771 15.263175 
Q 22.462771 14.985292 22.358759 14.816079 
Q 22.254747 14.646865 22.09019 14.558377 
Q 21.925634 14.468337 21.722267 14.438841 
Q 21.5189 14.407792 21.32019 14.407792 
Q 20.783053 14.407792 20.425997 14.612712 
Q 20.06894 14.816079 20.037892 15.382712 
L 19.193376 15.382712 
Q 19.213557 14.904567 19.392085 14.577006 
Q 19.572166 14.249446 19.870231 14.046079 
Q 20.168295 13.842712 20.55019 13.752671 
Q 20.932085 13.662631 21.369868 13.662631 
Q 21.71761 13.662631 22.060694 13.712308 
Q 22.403779 13.761986 22.681662 13.917228 
Q 22.959545 14.070917 23.128759 14.3488 
Q 23.297972 14.626683 23.297972 15.07378 
L 23.297972 17.71755 
Q 23.297972 18.015615 23.332126 18.155333 
Q 23.366279 18.293498 23.564989 18.293498 
Q 23.67521 18.293498 23.824243 18.243821 
L 23.824243 18.898942 
z
M 22.453456 16.266038 
Q 22.293557 16.385575 22.034303 16.439909 
Q 21.776602 16.494244 21.494061 16.52995 
Q 21.211521 16.564103 20.922771 16.609123 
Q 20.634021 16.654143 20.405815 16.753498 
Q 20.17761 16.852853 20.033235 17.037591 
Q 19.88886 17.220776 19.88886 17.53747 
Q 19.88886 17.747046 19.97269 17.891421 
Q 20.058073 18.034244 20.191581 18.124284 
Q 20.326642 18.214325 20.50517 18.254687 
Q 20.683698 18.293498 20.882408 18.293498 
Q 21.300009 18.293498 21.598073 18.180171 
Q 21.896138 18.065292 22.083981 17.891421 
Q 22.273376 17.71755 22.363416 17.514183 
Q 22.453456 17.309264 22.453456 17.130736 
L 22.453456 16.266038 
z
M 24.609456 11.824567 
L 24.609456 18.919123 
L 25.453972 18.919123 
L 25.453972 16.017651 
Q 25.453972 15.669909 25.547117 15.378054 
Q 25.641815 15.084647 25.829658 14.865756 
Q 26.019053 14.646865 26.301593 14.527329 
Q 26.585686 14.407792 26.973791 14.407792 
Q 27.459698 14.407792 27.737581 14.687228 
Q 28.017017 14.965111 28.017017 15.441704 
L 28.017017 18.919123 
L 28.861533 18.919123 
L 28.861533 15.541058 
Q 28.861533 15.123458 28.77615 14.781925 
Q 28.692319 14.438841 28.482742 14.190454 
Q 28.274718 13.942067 27.936291 13.802349 
Q 27.599416 13.662631 27.093327 13.662631 
Q 26.863569 13.662631 26.619839 13.712308 
Q 26.377662 13.761986 26.154113 13.86755 
Q 25.930565 13.971562 25.750484 14.136119 
Q 25.571956 14.299123 25.472601 14.538196 
L 25.453972 14.538196 
L 25.453972 11.824567 
L 24.609456 11.824567 
z
M 33.699491 15.859304 
L 30.748342 15.859304 
Q 30.768524 15.56124 30.877193 15.298881 
Q 30.987415 15.03497 31.175258 14.83626 
Q 31.364653 14.63755 31.627012 14.522671 
Q 31.890923 14.407792 32.220036 14.407792 
Q 32.536729 14.407792 32.800641 14.522671 
Q 33.064552 14.63755 33.257052 14.831603 
Q 33.451104 15.024103 33.564431 15.292671 
Q 33.67931 15.56124 33.699491 15.859304 
z
M 34.514512 17.289083 
L 33.67931 17.289083 
Q 33.570641 17.796724 33.227556 18.045111 
Q 32.884471 18.293498 32.348887 18.293498 
Q 31.931286 18.293498 31.622354 18.155333 
Q 31.314975 18.015615 31.116266 17.782752 
Q 30.917556 17.548337 30.827516 17.245615 
Q 30.739028 16.941341 30.748342 16.604466 
L 34.593685 16.604466 
Q 34.613866 16.137187 34.509854 15.620232 
Q 34.405842 15.103276 34.132616 14.667046 
Q 33.859391 14.229264 33.406084 13.946724 
Q 32.95433 13.662631 32.269713 13.662631 
Q 31.741891 13.662631 31.299451 13.861341 
Q 30.858564 14.06005 30.535661 14.418659 
Q 30.212758 14.775716 30.032677 15.263175 
Q 29.854149 15.749083 29.854149 16.335897 
Q 29.87433 16.922712 30.02802 17.419486 
Q 30.183262 17.91626 30.490641 18.273317 
Q 30.79802 18.630373 31.249774 18.829083 
Q 31.70308 19.027792 32.319391 19.027792 
Q 33.193403 19.027792 33.76935 18.591562 
Q 34.345298 18.15378 34.514512 17.289083 
z
M 36.083697 16.394889 
Q 36.083697 16.017651 36.16287 15.660595 
Q 36.243596 15.301986 36.422124 15.024103 
Q 36.600652 14.74622 36.898717 14.577006 
Q 37.196781 14.407792 37.623697 14.407792 
Q 38.061479 14.407792 38.368858 14.572349 
Q 38.67779 14.736905 38.87029 15.005474 
Q 39.064342 15.27249 39.154382 15.626442 
Q 39.244423 15.978841 39.244423 16.356079 
Q 39.244423 16.713135 39.15904 17.060877 
Q 39.075209 17.408619 38.885814 17.681845 
Q 38.697971 17.955071 38.399906 18.124284 
Q 38.101842 18.293498 37.673374 18.293498 
Q 37.26664 18.293498 36.963919 18.135151 
Q 36.661197 17.975252 36.467144 17.706683 
Q 36.273092 17.438115 36.178394 17.096583 
Q 36.083697 16.753498 36.083697 16.394889 
z
M 40.05789 18.919123 
L 40.05789 11.824567 
L 39.213374 11.824567 
L 39.213374 14.468337 
L 39.194745 14.468337 
Q 39.055027 14.240131 38.85166 14.086442 
Q 38.648294 13.9312 38.418535 13.838054 
Q 38.19033 13.743357 37.962124 13.702994 
Q 37.733919 13.662631 37.535209 13.662631 
Q 36.948394 13.662631 36.505955 13.876865 
Q 36.065068 14.091099 35.77166 14.454365 
Q 35.478253 14.816079 35.333878 15.303538 
Q 35.189503 15.789446 35.189503 16.335897 
Q 35.189503 16.882349 35.338535 17.369808 
Q 35.487568 17.855716 35.780975 18.223639 
Q 36.074382 18.591562 36.516822 18.810454 
Q 36.959261 19.027792 37.55539 19.027792 
Q 38.090975 19.027792 38.538072 18.83995 
Q 38.985169 18.650554 39.194745 18.223639 
L 39.213374 18.223639 
L 39.213374 18.919123 
L 40.05789 18.919123 
z
M 41.329631 13.782167 
L 41.329631 18.919123 
L 42.174147 18.919123 
L 42.174147 16.633962 
Q 42.174147 16.137187 42.273502 15.755292 
Q 42.372857 15.371845 42.591748 15.104829 
Q 42.810639 14.83626 43.167696 14.696542 
Q 43.526304 14.556825 44.032393 14.556825 
L 44.032393 13.662631 
Q 43.347776 13.644002 42.900679 13.942067 
Q 42.453583 14.240131 42.144651 14.865756 
L 42.12447 14.865756 
L 42.12447 13.782167 
L 41.329631 13.782167 
z
M 49.219335 18.898942 
Q 49.000444 19.027792 48.612339 19.027792 
Q 48.284779 19.027792 48.090727 18.844607 
Q 47.898227 18.661421 47.898227 18.243821 
Q 47.550485 18.661421 47.087864 18.844607 
Q 46.625243 19.027792 46.089658 19.027792 
Q 45.741916 19.027792 45.428327 18.948619 
Q 45.116291 18.869446 44.886533 18.700232 
Q 44.658327 18.531018 44.523267 18.257792 
Q 44.389759 17.984567 44.389759 17.598014 
Q 44.389759 17.160232 44.538791 16.882349 
Q 44.687823 16.604466 44.931553 16.430595 
Q 45.175283 16.256724 45.487319 16.168236 
Q 45.800908 16.078196 46.128469 16.017651 
Q 46.47621 15.947792 46.789799 15.913639 
Q 47.103388 15.879486 47.340908 15.814284 
Q 47.579981 15.749083 47.718146 15.624889 
Q 47.857864 15.500696 47.857864 15.263175 
Q 47.857864 14.985292 47.753852 14.816079 
Q 47.649839 14.646865 47.485283 14.558377 
Q 47.320727 14.468337 47.11736 14.438841 
Q 46.913993 14.407792 46.715283 14.407792 
Q 46.178146 14.407792 45.821089 14.612712 
Q 45.464033 14.816079 45.432985 15.382712 
L 44.588469 15.382712 
Q 44.60865 14.904567 44.787178 14.577006 
Q 44.967259 14.249446 45.265323 14.046079 
Q 45.563388 13.842712 45.945283 13.752671 
Q 46.327178 13.662631 46.76496 13.662631 
Q 47.112702 13.662631 47.455787 13.712308 
Q 47.798872 13.761986 48.076755 13.917228 
Q 48.354638 14.070917 48.523852 14.3488 
Q 48.693065 14.626683 48.693065 15.07378 
L 48.693065 17.71755 
Q 48.693065 18.015615 48.727219 18.155333 
Q 48.761372 18.293498 48.960081 18.293498 
Q 49.070303 18.293498 49.219335 18.243821 
L 49.219335 18.898942 
z
M 47.848549 16.266038 
Q 47.68865 16.385575 47.429396 16.439909 
Q 47.171694 16.494244 46.889154 16.52995 
Q 46.606614 16.564103 46.317864 16.609123 
Q 46.029114 16.654143 45.800908 16.753498 
Q 45.572702 16.852853 45.428327 17.037591 
Q 45.283952 17.220776 45.283952 17.53747 
Q 45.283952 17.747046 45.367783 17.891421 
Q 45.453166 18.034244 45.586674 18.124284 
Q 45.721735 18.214325 45.900263 18.254687 
Q 46.078791 18.293498 46.277501 18.293498 
Q 46.695102 18.293498 46.993166 18.180171 
Q 47.291231 18.065292 47.479073 17.891421 
Q 47.668469 17.71755 47.758509 17.514183 
Q 47.848549 17.309264 47.848549 17.130736 
L 47.848549 16.266038 
z
M 50.054226 11.824567 
L 50.054226 18.919123 
L 50.898742 18.919123 
L 50.898742 11.824567 
L 50.054226 11.824567 
z
" style="stroke: #ffffff; stroke-width: 2.980645"/>
    <path d="M 3.942722 15.371845 
Q 3.942722 14.83626 4.080887 14.314647 
Q 4.220605 13.793034 4.518669 13.375433 
Q 4.816734 12.957833 5.284012 12.704788 
Q 5.75129 12.451744 6.397097 12.451744 
Q 7.042903 12.451744 7.510181 12.704788 
Q 7.97746 12.957833 8.275524 13.375433 
Q 8.573589 13.793034 8.711754 14.314647 
Q 8.851472 14.83626 8.851472 15.371845 
Q 8.851472 15.908982 8.711754 16.430595 
Q 8.573589 16.952208 8.275524 17.369808 
Q 7.97746 17.785857 7.510181 18.040454 
Q 7.042903 18.293498 6.397097 18.293498 
Q 5.75129 18.293498 5.284012 18.040454 
Q 4.816734 17.785857 4.518669 17.369808 
Q 4.220605 16.952208 4.080887 16.430595 
Q 3.942722 15.908982 3.942722 15.371845 
z
M 2.998851 15.371845 
Q 2.998851 16.096825 3.211532 16.76747 
Q 3.425766 17.438115 3.852681 17.955071 
Q 4.281149 18.472026 4.916089 18.774748 
Q 5.552581 19.07747 6.397097 19.07747 
Q 7.241613 19.07747 7.876552 18.774748 
Q 8.513044 18.472026 8.93996 17.955071 
Q 9.368427 17.438115 9.581109 16.76747 
Q 9.795343 16.096825 9.795343 15.371845 
Q 9.795343 14.646865 9.581109 13.97622 
Q 9.368427 13.305575 8.93996 12.788619 
Q 8.513044 12.271663 7.876552 11.964284 
Q 7.241613 11.656905 6.397097 11.656905 
Q 5.552581 11.656905 4.916089 11.964284 
Q 4.281149 12.271663 3.852681 12.788619 
Q 3.425766 13.305575 3.211532 13.97622 
Q 2.998851 14.646865 2.998851 15.371845 
z
M 14.295805 15.432389 
L 15.169817 15.432389 
Q 15.12014 14.974425 14.930744 14.642208 
Q 14.742902 14.308437 14.449494 14.091099 
Q 14.156087 13.872208 13.774192 13.768196 
Q 13.392297 13.662631 12.954515 13.662631 
Q 12.349071 13.662631 11.891107 13.876865 
Q 11.434696 14.091099 11.130422 14.463679 
Q 10.8277 14.83626 10.678668 15.337692 
Q 10.529636 15.839123 10.529636 16.415071 
Q 10.529636 16.991018 10.683325 17.473821 
Q 10.838567 17.955071 11.141289 18.302812 
Q 11.444011 18.650554 11.895765 18.83995 
Q 12.349071 19.027792 12.934333 19.027792 
Q 13.918567 19.027792 14.489857 18.512389 
Q 15.061148 17.995433 15.199313 17.040696 
L 14.336168 17.040696 
Q 14.255442 17.636825 13.903043 17.965937 
Q 13.550644 18.293498 12.925019 18.293498 
Q 12.527599 18.293498 12.238849 18.135151 
Q 11.951652 17.975252 11.771571 17.712893 
Q 11.593043 17.448982 11.50766 17.112107 
Q 11.423829 16.773679 11.423829 16.415071 
Q 11.423829 16.028518 11.503003 15.665252 
Q 11.583728 15.301986 11.766914 15.024103 
Q 11.951652 14.74622 12.259031 14.577006 
Q 12.56641 14.407792 13.024373 14.407792 
Q 13.559958 14.407792 13.878204 14.676361 
Q 14.19645 14.944929 14.295805 15.432389 
z
M 17.316502 13.782167 
L 17.316502 12.242167 
L 16.471986 12.242167 
L 16.471986 13.782167 
L 15.597974 13.782167 
L 15.597974 14.527329 
L 16.471986 14.527329 
L 16.471986 17.796724 
Q 16.471986 18.15378 16.540293 18.372671 
Q 16.610151 18.591562 16.754526 18.711099 
Q 16.898901 18.829083 17.131764 18.874103 
Q 17.36618 18.919123 17.69374 18.919123 
L 18.339547 18.919123 
L 18.339547 18.173962 
L 17.951442 18.173962 
Q 17.752732 18.173962 17.628539 18.15999 
Q 17.504345 18.144466 17.434486 18.094788 
Q 17.36618 18.045111 17.341341 17.956623 
Q 17.316502 17.866583 17.316502 17.71755 
L 17.316502 14.527329 
L 18.339547 14.527329 
L 18.339547 13.782167 
L 17.316502 13.782167 
z
M 23.824243 18.898942 
Q 23.605352 19.027792 23.217247 19.027792 
Q 22.889686 19.027792 22.695634 18.844607 
Q 22.503134 18.661421 22.503134 18.243821 
Q 22.155392 18.661421 21.692771 18.844607 
Q 21.23015 19.027792 20.694565 19.027792 
Q 20.346823 19.027792 20.033235 18.948619 
Q 19.721198 18.869446 19.49144 18.700232 
Q 19.263235 18.531018 19.128174 18.257792 
Q 18.994666 17.984567 18.994666 17.598014 
Q 18.994666 17.160232 19.143698 16.882349 
Q 19.292731 16.604466 19.53646 16.430595 
Q 19.78019 16.256724 20.092227 16.168236 
Q 20.405815 16.078196 20.733376 16.017651 
Q 21.081118 15.947792 21.394706 15.913639 
Q 21.708295 15.879486 21.945815 15.814284 
Q 22.184888 15.749083 22.323053 15.624889 
Q 22.462771 15.500696 22.462771 15.263175 
Q 22.462771 14.985292 22.358759 14.816079 
Q 22.254747 14.646865 22.09019 14.558377 
Q 21.925634 14.468337 21.722267 14.438841 
Q 21.5189 14.407792 21.32019 14.407792 
Q 20.783053 14.407792 20.425997 14.612712 
Q 20.06894 14.816079 20.037892 15.382712 
L 19.193376 15.382712 
Q 19.213557 14.904567 19.392085 14.577006 
Q 19.572166 14.249446 19.870231 14.046079 
Q 20.168295 13.842712 20.55019 13.752671 
Q 20.932085 13.662631 21.369868 13.662631 
Q 21.71761 13.662631 22.060694 13.712308 
Q 22.403779 13.761986 22.681662 13.917228 
Q 22.959545 14.070917 23.128759 14.3488 
Q 23.297972 14.626683 23.297972 15.07378 
L 23.297972 17.71755 
Q 23.297972 18.015615 23.332126 18.155333 
Q 23.366279 18.293498 23.564989 18.293498 
Q 23.67521 18.293498 23.824243 18.243821 
L 23.824243 18.898942 
z
M 22.453456 16.266038 
Q 22.293557 16.385575 22.034303 16.439909 
Q 21.776602 16.494244 21.494061 16.52995 
Q 21.211521 16.564103 20.922771 16.609123 
Q 20.634021 16.654143 20.405815 16.753498 
Q 20.17761 16.852853 20.033235 17.037591 
Q 19.88886 17.220776 19.88886 17.53747 
Q 19.88886 17.747046 19.97269 17.891421 
Q 20.058073 18.034244 20.191581 18.124284 
Q 20.326642 18.214325 20.50517 18.254687 
Q 20.683698 18.293498 20.882408 18.293498 
Q 21.300009 18.293498 21.598073 18.180171 
Q 21.896138 18.065292 22.083981 17.891421 
Q 22.273376 17.71755 22.363416 17.514183 
Q 22.453456 17.309264 22.453456 17.130736 
L 22.453456 16.266038 
z
M 24.609456 11.824567 
L 24.609456 18.919123 
L 25.453972 18.919123 
L 25.453972 16.017651 
Q 25.453972 15.669909 25.547117 15.378054 
Q 25.641815 15.084647 25.829658 14.865756 
Q 26.019053 14.646865 26.301593 14.527329 
Q 26.585686 14.407792 26.973791 14.407792 
Q 27.459698 14.407792 27.737581 14.687228 
Q 28.017017 14.965111 28.017017 15.441704 
L 28.017017 18.919123 
L 28.861533 18.919123 
L 28.861533 15.541058 
Q 28.861533 15.123458 28.77615 14.781925 
Q 28.692319 14.438841 28.482742 14.190454 
Q 28.274718 13.942067 27.936291 13.802349 
Q 27.599416 13.662631 27.093327 13.662631 
Q 26.863569 13.662631 26.619839 13.712308 
Q 26.377662 13.761986 26.154113 13.86755 
Q 25.930565 13.971562 25.750484 14.136119 
Q 25.571956 14.299123 25.472601 14.538196 
L 25.453972 14.538196 
L 25.453972 11.824567 
L 24.609456 11.824567 
z
M 33.699491 15.859304 
L 30.748342 15.859304 
Q 30.768524 15.56124 30.877193 15.298881 
Q 30.987415 15.03497 31.175258 14.83626 
Q 31.364653 14.63755 31.627012 14.522671 
Q 31.890923 14.407792 32.220036 14.407792 
Q 32.536729 14.407792 32.800641 14.522671 
Q 33.064552 14.63755 33.257052 14.831603 
Q 33.451104 15.024103 33.564431 15.292671 
Q 33.67931 15.56124 33.699491 15.859304 
z
M 34.514512 17.289083 
L 33.67931 17.289083 
Q 33.570641 17.796724 33.227556 18.045111 
Q 32.884471 18.293498 32.348887 18.293498 
Q 31.931286 18.293498 31.622354 18.155333 
Q 31.314975 18.015615 31.116266 17.782752 
Q 30.917556 17.548337 30.827516 17.245615 
Q 30.739028 16.941341 30.748342 16.604466 
L 34.593685 16.604466 
Q 34.613866 16.137187 34.509854 15.620232 
Q 34.405842 15.103276 34.132616 14.667046 
Q 33.859391 14.229264 33.406084 13.946724 
Q 32.95433 13.662631 32.269713 13.662631 
Q 31.741891 13.662631 31.299451 13.861341 
Q 30.858564 14.06005 30.535661 14.418659 
Q 30.212758 14.775716 30.032677 15.263175 
Q 29.854149 15.749083 29.854149 16.335897 
Q 29.87433 16.922712 30.02802 17.419486 
Q 30.183262 17.91626 30.490641 18.273317 
Q 30.79802 18.630373 31.249774 18.829083 
Q 31.70308 19.027792 32.319391 19.027792 
Q 33.193403 19.027792 33.76935 18.591562 
Q 34.345298 18.15378 34.514512 17.289083 
z
M 36.083697 16.394889 
Q 36.083697 16.017651 36.16287 15.660595 
Q 36.243596 15.301986 36.422124 15.024103 
Q 36.600652 14.74622 36.898717 14.577006 
Q 37.196781 14.407792 37.623697 14.407792 
Q 38.061479 14.407792 38.368858 14.572349 
Q 38.67779 14.736905 38.87029 15.005474 
Q 39.064342 15.27249 39.154382 15.626442 
Q 39.244423 15.978841 39.244423 16.356079 
Q 39.244423 16.713135 39.15904 17.060877 
Q 39.075209 17.408619 38.885814 17.681845 
Q 38.697971 17.955071 38.399906 18.124284 
Q 38.101842 18.293498 37.673374 18.293498 
Q 37.26664 18.293498 36.963919 18.135151 
Q 36.661197 17.975252 36.467144 17.706683 
Q 36.273092 17.438115 36.178394 17.096583 
Q 36.083697 16.753498 36.083697 16.394889 
z
M 40.05789 18.919123 
L 40.05789 11.824567 
L 39.213374 11.824567 
L 39.213374 14.468337 
L 39.194745 14.468337 
Q 39.055027 14.240131 38.85166 14.086442 
Q 38.648294 13.9312 38.418535 13.838054 
Q 38.19033 13.743357 37.962124 13.702994 
Q 37.733919 13.662631 37.535209 13.662631 
Q 36.948394 13.662631 36.505955 13.876865 
Q 36.065068 14.091099 35.77166 14.454365 
Q 35.478253 14.816079 35.333878 15.303538 
Q 35.189503 15.789446 35.189503 16.335897 
Q 35.189503 16.882349 35.338535 17.369808 
Q 35.487568 17.855716 35.780975 18.223639 
Q 36.074382 18.591562 36.516822 18.810454 
Q 36.959261 19.027792 37.55539 19.027792 
Q 38.090975 19.027792 38.538072 18.83995 
Q 38.985169 18.650554 39.194745 18.223639 
L 39.213374 18.223639 
L 39.213374 18.919123 
L 40.05789 18.919123 
z
M 41.329631 13.782167 
L 41.329631 18.919123 
L 42.174147 18.919123 
L 42.174147 16.633962 
Q 42.174147 16.137187 42.273502 15.755292 
Q 42.372857 15.371845 42.591748 15.104829 
Q 42.810639 14.83626 43.167696 14.696542 
Q 43.526304 14.556825 44.032393 14.556825 
L 44.032393 13.662631 
Q 43.347776 13.644002 42.900679 13.942067 
Q 42.453583 14.240131 42.144651 14.865756 
L 42.12447 14.865756 
L 42.12447 13.782167 
L 41.329631 13.782167 
z
M 49.219335 18.898942 
Q 49.000444 19.027792 48.612339 19.027792 
Q 48.284779 19.027792 48.090727 18.844607 
Q 47.898227 18.661421 47.898227 18.243821 
Q 47.550485 18.661421 47.087864 18.844607 
Q 46.625243 19.027792 46.089658 19.027792 
Q 45.741916 19.027792 45.428327 18.948619 
Q 45.116291 18.869446 44.886533 18.700232 
Q 44.658327 18.531018 44.523267 18.257792 
Q 44.389759 17.984567 44.389759 17.598014 
Q 44.389759 17.160232 44.538791 16.882349 
Q 44.687823 16.604466 44.931553 16.430595 
Q 45.175283 16.256724 45.487319 16.168236 
Q 45.800908 16.078196 46.128469 16.017651 
Q 46.47621 15.947792 46.789799 15.913639 
Q 47.103388 15.879486 47.340908 15.814284 
Q 47.579981 15.749083 47.718146 15.624889 
Q 47.857864 15.500696 47.857864 15.263175 
Q 47.857864 14.985292 47.753852 14.816079 
Q 47.649839 14.646865 47.485283 14.558377 
Q 47.320727 14.468337 47.11736 14.438841 
Q 46.913993 14.407792 46.715283 14.407792 
Q 46.178146 14.407792 45.821089 14.612712 
Q 45.464033 14.816079 45.432985 15.382712 
L 44.588469 15.382712 
Q 44.60865 14.904567 44.787178 14.577006 
Q 44.967259 14.249446 45.265323 14.046079 
Q 45.563388 13.842712 45.945283 13.752671 
Q 46.327178 13.662631 46.76496 13.662631 
Q 47.112702 13.662631 47.455787 13.712308 
Q 47.798872 13.761986 48.076755 13.917228 
Q 48.354638 14.070917 48.523852 14.3488 
Q 48.693065 14.626683 48.693065 15.07378 
L 48.693065 17.71755 
Q 48.693065 18.015615 48.727219 18.155333 
Q 48.761372 18.293498 48.960081 18.293498 
Q 49.070303 18.293498 49.219335 18.243821 
L 49.219335 18.898942 
z
M 47.848549 16.266038 
Q 47.68865 16.385575 47.429396 16.439909 
Q 47.171694 16.494244 46.889154 16.52995 
Q 46.606614 16.564103 46.317864 16.609123 
Q 46.029114 16.654143 45.800908 16.753498 
Q 45.572702 16.852853 45.428327 17.037591 
Q 45.283952 17.220776 45.283952 17.53747 
Q 45.283952 17.747046 45.367783 17.891421 
Q 45.453166 18.034244 45.586674 18.124284 
Q 45.721735 18.214325 45.900263 18.254687 
Q 46.078791 18.293498 46.277501 18.293498 
Q 46.695102 18.293498 46.993166 18.180171 
Q 47.291231 18.065292 47.479073 17.891421 
Q 47.668469 17.71755 47.758509 17.514183 
Q 47.848549 17.309264 47.848549 17.130736 
L 47.848549 16.266038 
z
M 50.054226 11.824567 
L 50.054226 18.919123 
L 50.898742 18.919123 
L 50.898742 11.824567 
L 50.054226 11.824567 
z
"/>
   </g>
   <g id="text_2">
    <path d="M 5.006129 25.03876 
L 5.006129 31.338478 
L 5.95 31.338478 
L 5.95 25.03876 
L 8.314335 25.03876 
L 8.314335 24.243921 
L 2.641794 24.243921 
L 2.641794 25.03876 
L 5.006129 25.03876 
z
M 11.421657 28.278659 
L 8.470507 28.278659 
Q 8.490689 27.980595 8.599358 27.718236 
Q 8.70958 27.454325 8.897423 27.255615 
Q 9.086818 27.056905 9.349177 26.942026 
Q 9.613088 26.827147 9.942201 26.827147 
Q 10.258895 26.827147 10.522806 26.942026 
Q 10.786717 27.056905 10.979217 27.250958 
Q 11.17327 27.443458 11.286596 27.712026 
Q 11.401475 27.980595 11.421657 28.278659 
z
M 12.236677 29.708437 
L 11.401475 29.708437 
Q 11.292806 30.216079 10.949721 30.464466 
Q 10.606636 30.712853 10.071052 30.712853 
Q 9.653451 30.712853 9.34452 30.574687 
Q 9.037141 30.43497 8.838431 30.202107 
Q 8.639721 29.967692 8.549681 29.66497 
Q 8.461193 29.360696 8.470507 29.023821 
L 12.31585 29.023821 
Q 12.336032 28.556542 12.23202 28.039587 
Q 12.128007 27.522631 11.854782 27.086401 
Q 11.581556 26.648619 11.128249 26.366079 
Q 10.676495 26.081986 9.991878 26.081986 
Q 9.464056 26.081986 9.021616 26.280696 
Q 8.580729 26.479405 8.257826 26.838014 
Q 7.934923 27.195071 7.754842 27.68253 
Q 7.576314 28.168437 7.576314 28.755252 
Q 7.596495 29.342067 7.750185 29.838841 
Q 7.905427 30.335615 8.212806 30.692671 
Q 8.520185 31.049728 8.971939 31.248437 
Q 9.425245 31.447147 10.041556 31.447147 
Q 10.915568 31.447147 11.491516 31.010917 
Q 12.067463 30.573135 12.236677 29.708437 
z
M 14.363181 26.201522 
L 14.363181 24.661522 
L 13.518664 24.661522 
L 13.518664 26.201522 
L 12.644652 26.201522 
L 12.644652 26.946683 
L 13.518664 26.946683 
L 13.518664 30.216079 
Q 13.518664 30.573135 13.586971 30.792026 
Q 13.65683 31.010917 13.801205 31.130454 
Q 13.94558 31.248437 14.178443 31.293458 
Q 14.412858 31.338478 14.740418 31.338478 
L 15.386225 31.338478 
L 15.386225 30.593317 
L 14.99812 30.593317 
Q 14.79941 30.593317 14.675217 30.579345 
Q 14.551023 30.563821 14.481164 30.514143 
Q 14.412858 30.464466 14.388019 30.375978 
Q 14.363181 30.285937 14.363181 30.136905 
L 14.363181 26.946683 
L 15.386225 26.946683 
L 15.386225 26.201522 
L 14.363181 26.201522 
z
M 16.289731 26.201522 
L 16.289731 31.338478 
L 17.134248 31.338478 
L 17.134248 29.053317 
Q 17.134248 28.556542 17.233602 28.174647 
Q 17.332957 27.7912 17.551848 27.524183 
Q 17.77074 27.255615 18.127796 27.115897 
Q 18.486405 26.976179 18.992494 26.976179 
L 18.992494 26.081986 
Q 18.307877 26.063357 17.86078 26.361421 
Q 17.413683 26.659486 17.104752 27.285111 
L 17.08457 27.285111 
L 17.08457 26.201522 
L 16.289731 26.201522 
z
M 24.179436 31.318296 
Q 23.960545 31.447147 23.57244 31.447147 
Q 23.244879 31.447147 23.050827 31.263962 
Q 22.858327 31.080776 22.858327 30.663175 
Q 22.510585 31.080776 22.047964 31.263962 
Q 21.585343 31.447147 21.049758 31.447147 
Q 20.702017 31.447147 20.388428 31.367974 
Q 20.076392 31.2888 19.846633 31.119587 
Q 19.618428 30.950373 19.483367 30.677147 
Q 19.349859 30.403921 19.349859 30.017369 
Q 19.349859 29.579587 19.498892 29.301704 
Q 19.647924 29.023821 19.891654 28.84995 
Q 20.135383 28.676079 20.44742 28.587591 
Q 20.761008 28.49755 21.088569 28.437006 
Q 21.436311 28.367147 21.7499 28.332994 
Q 22.063488 28.298841 22.301008 28.233639 
Q 22.540081 28.168437 22.678246 28.044244 
Q 22.817964 27.92005 22.817964 27.68253 
Q 22.817964 27.404647 22.713952 27.235433 
Q 22.60994 27.06622 22.445383 26.977732 
Q 22.280827 26.887692 22.07746 26.858196 
Q 21.874093 26.827147 21.675383 26.827147 
Q 21.138246 26.827147 20.78119 27.032067 
Q 20.424133 27.235433 20.393085 27.802067 
L 19.548569 27.802067 
Q 19.56875 27.323921 19.747279 26.996361 
Q 19.927359 26.6688 20.225424 26.465433 
Q 20.523488 26.262067 20.905383 26.172026 
Q 21.287279 26.081986 21.725061 26.081986 
Q 22.072803 26.081986 22.415887 26.131663 
Q 22.758972 26.181341 23.036855 26.336583 
Q 23.314738 26.490272 23.483952 26.768155 
Q 23.653166 27.046038 23.653166 27.493135 
L 23.653166 30.136905 
Q 23.653166 30.43497 23.687319 30.574687 
Q 23.721472 30.712853 23.920182 30.712853 
Q 24.030404 30.712853 24.179436 30.663175 
L 24.179436 31.318296 
z
M 22.80865 28.685393 
Q 22.64875 28.804929 22.389496 28.859264 
Q 22.131795 28.913599 21.849254 28.949304 
Q 21.566714 28.983458 21.277964 29.028478 
Q 20.989214 29.073498 20.761008 29.172853 
Q 20.532803 29.272208 20.388428 29.456946 
Q 20.244053 29.640131 20.244053 29.956825 
Q 20.244053 30.166401 20.327883 30.310776 
Q 20.413267 30.453599 20.546775 30.543639 
Q 20.681835 30.633679 20.860363 30.674042 
Q 21.038892 30.712853 21.237601 30.712853 
Q 21.655202 30.712853 21.953267 30.599526 
Q 22.251331 30.484647 22.439174 30.310776 
Q 22.628569 30.136905 22.718609 29.933538 
Q 22.80865 29.728619 22.80865 29.550091 
L 22.80865 28.685393 
z
M 24.964649 24.243921 
L 24.964649 31.338478 
L 25.809165 31.338478 
L 25.809165 28.437006 
Q 25.809165 28.089264 25.902311 27.797409 
Q 25.997008 27.504002 26.184851 27.285111 
Q 26.374246 27.06622 26.656786 26.946683 
Q 26.940879 26.827147 27.328984 26.827147 
Q 27.814891 26.827147 28.092774 27.106583 
Q 28.37221 27.384466 28.37221 27.861058 
L 28.37221 31.338478 
L 29.216726 31.338478 
L 29.216726 27.960413 
Q 29.216726 27.542812 29.131343 27.20128 
Q 29.047512 26.858196 28.837936 26.609808 
Q 28.629911 26.361421 28.291484 26.221704 
Q 27.954609 26.081986 27.44852 26.081986 
Q 27.218762 26.081986 26.975032 26.131663 
Q 26.732855 26.181341 26.509307 26.286905 
Q 26.285758 26.390917 26.105678 26.555474 
Q 25.927149 26.718478 25.827794 26.95755 
L 25.809165 26.95755 
L 25.809165 24.243921 
L 24.964649 24.243921 
z
M 34.054685 28.278659 
L 31.103535 28.278659 
Q 31.123717 27.980595 31.232386 27.718236 
Q 31.342608 27.454325 31.530451 27.255615 
Q 31.719846 27.056905 31.982205 26.942026 
Q 32.246116 26.827147 32.575229 26.827147 
Q 32.891923 26.827147 33.155834 26.942026 
Q 33.419745 27.056905 33.612245 27.250958 
Q 33.806298 27.443458 33.919624 27.712026 
Q 34.034503 27.980595 34.054685 28.278659 
z
M 34.869705 29.708437 
L 34.034503 29.708437 
Q 33.925834 30.216079 33.582749 30.464466 
Q 33.239665 30.712853 32.70408 30.712853 
Q 32.286479 30.712853 31.977548 30.574687 
Q 31.670169 30.43497 31.471459 30.202107 
Q 31.272749 29.967692 31.182709 29.66497 
Q 31.094221 29.360696 31.103535 29.023821 
L 34.948878 29.023821 
Q 34.96906 28.556542 34.865048 28.039587 
Q 34.761035 27.522631 34.48781 27.086401 
Q 34.214584 26.648619 33.761277 26.366079 
Q 33.309523 26.081986 32.624906 26.081986 
Q 32.097084 26.081986 31.654644 26.280696 
Q 31.213757 26.479405 30.890854 26.838014 
Q 30.567951 27.195071 30.38787 27.68253 
Q 30.209342 28.168437 30.209342 28.755252 
Q 30.229523 29.342067 30.383213 29.838841 
Q 30.538455 30.335615 30.845834 30.692671 
Q 31.153213 31.049728 31.604967 31.248437 
Q 32.058273 31.447147 32.674584 31.447147 
Q 33.548596 31.447147 34.124544 31.010917 
Q 34.700491 30.573135 34.869705 29.708437 
z
M 36.43889 28.814244 
Q 36.43889 28.437006 36.518063 28.07995 
Q 36.598789 27.721341 36.777317 27.443458 
Q 36.955846 27.165575 37.25391 26.996361 
Q 37.551975 26.827147 37.97889 26.827147 
Q 38.416672 26.827147 38.724051 26.991704 
Q 39.032983 27.15626 39.225483 27.424829 
Q 39.419535 27.691845 39.509575 28.045796 
Q 39.599616 28.398196 39.599616 28.775433 
Q 39.599616 29.13249 39.514233 29.480232 
Q 39.430402 29.827974 39.241007 30.1012 
Q 39.053164 30.374425 38.7551 30.543639 
Q 38.457035 30.712853 38.028567 30.712853 
Q 37.621834 30.712853 37.319112 30.554506 
Q 37.01639 30.394607 36.822338 30.126038 
Q 36.628285 29.85747 36.533588 29.515937 
Q 36.43889 29.172853 36.43889 28.814244 
z
M 40.413084 31.338478 
L 40.413084 24.243921 
L 39.568567 24.243921 
L 39.568567 26.887692 
L 39.549938 26.887692 
Q 39.410221 26.659486 39.206854 26.505796 
Q 39.003487 26.350554 38.773729 26.257409 
Q 38.545523 26.162712 38.317317 26.122349 
Q 38.089112 26.081986 37.890402 26.081986 
Q 37.303588 26.081986 36.861148 26.29622 
Q 36.420261 26.510454 36.126854 26.87372 
Q 35.833446 27.235433 35.689071 27.722893 
Q 35.544696 28.2088 35.544696 28.755252 
Q 35.544696 29.301704 35.693729 29.789163 
Q 35.842761 30.275071 36.136168 30.642994 
Q 36.429575 31.010917 36.872015 31.229808 
Q 37.314455 31.447147 37.910584 31.447147 
Q 38.446168 31.447147 38.893265 31.259304 
Q 39.340362 31.069909 39.549938 30.642994 
L 39.568567 30.642994 
L 39.568567 31.338478 
L 40.413084 31.338478 
z
M 41.684824 26.201522 
L 41.684824 31.338478 
L 42.52934 31.338478 
L 42.52934 29.053317 
Q 42.52934 28.556542 42.628695 28.174647 
Q 42.72805 27.7912 42.946941 27.524183 
Q 43.165832 27.255615 43.522889 27.115897 
Q 43.881498 26.976179 44.387586 26.976179 
L 44.387586 26.081986 
Q 43.702969 26.063357 43.255873 26.361421 
Q 42.808776 26.659486 42.499844 27.285111 
L 42.479663 27.285111 
L 42.479663 26.201522 
L 41.684824 26.201522 
z
M 49.574529 31.318296 
Q 49.355638 31.447147 48.967533 31.447147 
Q 48.639972 31.447147 48.44592 31.263962 
Q 48.25342 31.080776 48.25342 30.663175 
Q 47.905678 31.080776 47.443057 31.263962 
Q 46.980436 31.447147 46.444851 31.447147 
Q 46.097109 31.447147 45.783521 31.367974 
Q 45.471484 31.2888 45.241726 31.119587 
Q 45.013521 30.950373 44.87846 30.677147 
Q 44.744952 30.403921 44.744952 30.017369 
Q 44.744952 29.579587 44.893984 29.301704 
Q 45.043017 29.023821 45.286746 28.84995 
Q 45.530476 28.676079 45.842513 28.587591 
Q 46.156101 28.49755 46.483662 28.437006 
Q 46.831404 28.367147 47.144992 28.332994 
Q 47.458581 28.298841 47.696101 28.233639 
Q 47.935174 28.168437 48.073339 28.044244 
Q 48.213057 27.92005 48.213057 27.68253 
Q 48.213057 27.404647 48.109045 27.235433 
Q 48.005033 27.06622 47.840476 26.977732 
Q 47.67592 26.887692 47.472553 26.858196 
Q 47.269186 26.827147 47.070476 26.827147 
Q 46.533339 26.827147 46.176283 27.032067 
Q 45.819226 27.235433 45.788178 27.802067 
L 44.943662 27.802067 
Q 44.963843 27.323921 45.142371 26.996361 
Q 45.322452 26.6688 45.620517 26.465433 
Q 45.918581 26.262067 46.300476 26.172026 
Q 46.682371 26.081986 47.120154 26.081986 
Q 47.467896 26.081986 47.81098 26.131663 
Q 48.154065 26.181341 48.431948 26.336583 
Q 48.709831 26.490272 48.879045 26.768155 
Q 49.048259 27.046038 49.048259 27.493135 
L 49.048259 30.136905 
Q 49.048259 30.43497 49.082412 30.574687 
Q 49.116565 30.712853 49.315275 30.712853 
Q 49.425496 30.712853 49.574529 30.663175 
L 49.574529 31.318296 
z
M 48.203742 28.685393 
Q 48.043843 28.804929 47.784589 28.859264 
Q 47.526888 28.913599 47.244347 28.949304 
Q 46.961807 28.983458 46.673057 29.028478 
Q 46.384307 29.073498 46.156101 29.172853 
Q 45.927896 29.272208 45.783521 29.456946 
Q 45.639146 29.640131 45.639146 29.956825 
Q 45.639146 30.166401 45.722976 30.310776 
Q 45.808359 30.453599 45.941867 30.543639 
Q 46.076928 30.633679 46.255456 30.674042 
Q 46.433984 30.712853 46.632694 30.712853 
Q 47.050295 30.712853 47.348359 30.599526 
Q 47.646424 30.484647 47.834267 30.310776 
Q 48.023662 30.136905 48.113702 29.933538 
Q 48.203742 29.728619 48.203742 29.550091 
L 48.203742 28.685393 
z
M 50.40942 24.243921 
L 50.40942 31.338478 
L 51.253936 31.338478 
L 51.253936 24.243921 
L 50.40942 24.243921 
z
" style="stroke: #ffffff; stroke-width: 2.980645"/>
    <path d="M 5.006129 25.03876 
L 5.006129 31.338478 
L 5.95 31.338478 
L 5.95 25.03876 
L 8.314335 25.03876 
L 8.314335 24.243921 
L 2.641794 24.243921 
L 2.641794 25.03876 
L 5.006129 25.03876 
z
M 11.421657 28.278659 
L 8.470507 28.278659 
Q 8.490689 27.980595 8.599358 27.718236 
Q 8.70958 27.454325 8.897423 27.255615 
Q 9.086818 27.056905 9.349177 26.942026 
Q 9.613088 26.827147 9.942201 26.827147 
Q 10.258895 26.827147 10.522806 26.942026 
Q 10.786717 27.056905 10.979217 27.250958 
Q 11.17327 27.443458 11.286596 27.712026 
Q 11.401475 27.980595 11.421657 28.278659 
z
M 12.236677 29.708437 
L 11.401475 29.708437 
Q 11.292806 30.216079 10.949721 30.464466 
Q 10.606636 30.712853 10.071052 30.712853 
Q 9.653451 30.712853 9.34452 30.574687 
Q 9.037141 30.43497 8.838431 30.202107 
Q 8.639721 29.967692 8.549681 29.66497 
Q 8.461193 29.360696 8.470507 29.023821 
L 12.31585 29.023821 
Q 12.336032 28.556542 12.23202 28.039587 
Q 12.128007 27.522631 11.854782 27.086401 
Q 11.581556 26.648619 11.128249 26.366079 
Q 10.676495 26.081986 9.991878 26.081986 
Q 9.464056 26.081986 9.021616 26.280696 
Q 8.580729 26.479405 8.257826 26.838014 
Q 7.934923 27.195071 7.754842 27.68253 
Q 7.576314 28.168437 7.576314 28.755252 
Q 7.596495 29.342067 7.750185 29.838841 
Q 7.905427 30.335615 8.212806 30.692671 
Q 8.520185 31.049728 8.971939 31.248437 
Q 9.425245 31.447147 10.041556 31.447147 
Q 10.915568 31.447147 11.491516 31.010917 
Q 12.067463 30.573135 12.236677 29.708437 
z
M 14.363181 26.201522 
L 14.363181 24.661522 
L 13.518664 24.661522 
L 13.518664 26.201522 
L 12.644652 26.201522 
L 12.644652 26.946683 
L 13.518664 26.946683 
L 13.518664 30.216079 
Q 13.518664 30.573135 13.586971 30.792026 
Q 13.65683 31.010917 13.801205 31.130454 
Q 13.94558 31.248437 14.178443 31.293458 
Q 14.412858 31.338478 14.740418 31.338478 
L 15.386225 31.338478 
L 15.386225 30.593317 
L 14.99812 30.593317 
Q 14.79941 30.593317 14.675217 30.579345 
Q 14.551023 30.563821 14.481164 30.514143 
Q 14.412858 30.464466 14.388019 30.375978 
Q 14.363181 30.285937 14.363181 30.136905 
L 14.363181 26.946683 
L 15.386225 26.946683 
L 15.386225 26.201522 
L 14.363181 26.201522 
z
M 16.289731 26.201522 
L 16.289731 31.338478 
L 17.134248 31.338478 
L 17.134248 29.053317 
Q 17.134248 28.556542 17.233602 28.174647 
Q 17.332957 27.7912 17.551848 27.524183 
Q 17.77074 27.255615 18.127796 27.115897 
Q 18.486405 26.976179 18.992494 26.976179 
L 18.992494 26.081986 
Q 18.307877 26.063357 17.86078 26.361421 
Q 17.413683 26.659486 17.104752 27.285111 
L 17.08457 27.285111 
L 17.08457 26.201522 
L 16.289731 26.201522 
z
M 24.179436 31.318296 
Q 23.960545 31.447147 23.57244 31.447147 
Q 23.244879 31.447147 23.050827 31.263962 
Q 22.858327 31.080776 22.858327 30.663175 
Q 22.510585 31.080776 22.047964 31.263962 
Q 21.585343 31.447147 21.049758 31.447147 
Q 20.702017 31.447147 20.388428 31.367974 
Q 20.076392 31.2888 19.846633 31.119587 
Q 19.618428 30.950373 19.483367 30.677147 
Q 19.349859 30.403921 19.349859 30.017369 
Q 19.349859 29.579587 19.498892 29.301704 
Q 19.647924 29.023821 19.891654 28.84995 
Q 20.135383 28.676079 20.44742 28.587591 
Q 20.761008 28.49755 21.088569 28.437006 
Q 21.436311 28.367147 21.7499 28.332994 
Q 22.063488 28.298841 22.301008 28.233639 
Q 22.540081 28.168437 22.678246 28.044244 
Q 22.817964 27.92005 22.817964 27.68253 
Q 22.817964 27.404647 22.713952 27.235433 
Q 22.60994 27.06622 22.445383 26.977732 
Q 22.280827 26.887692 22.07746 26.858196 
Q 21.874093 26.827147 21.675383 26.827147 
Q 21.138246 26.827147 20.78119 27.032067 
Q 20.424133 27.235433 20.393085 27.802067 
L 19.548569 27.802067 
Q 19.56875 27.323921 19.747279 26.996361 
Q 19.927359 26.6688 20.225424 26.465433 
Q 20.523488 26.262067 20.905383 26.172026 
Q 21.287279 26.081986 21.725061 26.081986 
Q 22.072803 26.081986 22.415887 26.131663 
Q 22.758972 26.181341 23.036855 26.336583 
Q 23.314738 26.490272 23.483952 26.768155 
Q 23.653166 27.046038 23.653166 27.493135 
L 23.653166 30.136905 
Q 23.653166 30.43497 23.687319 30.574687 
Q 23.721472 30.712853 23.920182 30.712853 
Q 24.030404 30.712853 24.179436 30.663175 
L 24.179436 31.318296 
z
M 22.80865 28.685393 
Q 22.64875 28.804929 22.389496 28.859264 
Q 22.131795 28.913599 21.849254 28.949304 
Q 21.566714 28.983458 21.277964 29.028478 
Q 20.989214 29.073498 20.761008 29.172853 
Q 20.532803 29.272208 20.388428 29.456946 
Q 20.244053 29.640131 20.244053 29.956825 
Q 20.244053 30.166401 20.327883 30.310776 
Q 20.413267 30.453599 20.546775 30.543639 
Q 20.681835 30.633679 20.860363 30.674042 
Q 21.038892 30.712853 21.237601 30.712853 
Q 21.655202 30.712853 21.953267 30.599526 
Q 22.251331 30.484647 22.439174 30.310776 
Q 22.628569 30.136905 22.718609 29.933538 
Q 22.80865 29.728619 22.80865 29.550091 
L 22.80865 28.685393 
z
M 24.964649 24.243921 
L 24.964649 31.338478 
L 25.809165 31.338478 
L 25.809165 28.437006 
Q 25.809165 28.089264 25.902311 27.797409 
Q 25.997008 27.504002 26.184851 27.285111 
Q 26.374246 27.06622 26.656786 26.946683 
Q 26.940879 26.827147 27.328984 26.827147 
Q 27.814891 26.827147 28.092774 27.106583 
Q 28.37221 27.384466 28.37221 27.861058 
L 28.37221 31.338478 
L 29.216726 31.338478 
L 29.216726 27.960413 
Q 29.216726 27.542812 29.131343 27.20128 
Q 29.047512 26.858196 28.837936 26.609808 
Q 28.629911 26.361421 28.291484 26.221704 
Q 27.954609 26.081986 27.44852 26.081986 
Q 27.218762 26.081986 26.975032 26.131663 
Q 26.732855 26.181341 26.509307 26.286905 
Q 26.285758 26.390917 26.105678 26.555474 
Q 25.927149 26.718478 25.827794 26.95755 
L 25.809165 26.95755 
L 25.809165 24.243921 
L 24.964649 24.243921 
z
M 34.054685 28.278659 
L 31.103535 28.278659 
Q 31.123717 27.980595 31.232386 27.718236 
Q 31.342608 27.454325 31.530451 27.255615 
Q 31.719846 27.056905 31.982205 26.942026 
Q 32.246116 26.827147 32.575229 26.827147 
Q 32.891923 26.827147 33.155834 26.942026 
Q 33.419745 27.056905 33.612245 27.250958 
Q 33.806298 27.443458 33.919624 27.712026 
Q 34.034503 27.980595 34.054685 28.278659 
z
M 34.869705 29.708437 
L 34.034503 29.708437 
Q 33.925834 30.216079 33.582749 30.464466 
Q 33.239665 30.712853 32.70408 30.712853 
Q 32.286479 30.712853 31.977548 30.574687 
Q 31.670169 30.43497 31.471459 30.202107 
Q 31.272749 29.967692 31.182709 29.66497 
Q 31.094221 29.360696 31.103535 29.023821 
L 34.948878 29.023821 
Q 34.96906 28.556542 34.865048 28.039587 
Q 34.761035 27.522631 34.48781 27.086401 
Q 34.214584 26.648619 33.761277 26.366079 
Q 33.309523 26.081986 32.624906 26.081986 
Q 32.097084 26.081986 31.654644 26.280696 
Q 31.213757 26.479405 30.890854 26.838014 
Q 30.567951 27.195071 30.38787 27.68253 
Q 30.209342 28.168437 30.209342 28.755252 
Q 30.229523 29.342067 30.383213 29.838841 
Q 30.538455 30.335615 30.845834 30.692671 
Q 31.153213 31.049728 31.604967 31.248437 
Q 32.058273 31.447147 32.674584 31.447147 
Q 33.548596 31.447147 34.124544 31.010917 
Q 34.700491 30.573135 34.869705 29.708437 
z
M 36.43889 28.814244 
Q 36.43889 28.437006 36.518063 28.07995 
Q 36.598789 27.721341 36.777317 27.443458 
Q 36.955846 27.165575 37.25391 26.996361 
Q 37.551975 26.827147 37.97889 26.827147 
Q 38.416672 26.827147 38.724051 26.991704 
Q 39.032983 27.15626 39.225483 27.424829 
Q 39.419535 27.691845 39.509575 28.045796 
Q 39.599616 28.398196 39.599616 28.775433 
Q 39.599616 29.13249 39.514233 29.480232 
Q 39.430402 29.827974 39.241007 30.1012 
Q 39.053164 30.374425 38.7551 30.543639 
Q 38.457035 30.712853 38.028567 30.712853 
Q 37.621834 30.712853 37.319112 30.554506 
Q 37.01639 30.394607 36.822338 30.126038 
Q 36.628285 29.85747 36.533588 29.515937 
Q 36.43889 29.172853 36.43889 28.814244 
z
M 40.413084 31.338478 
L 40.413084 24.243921 
L 39.568567 24.243921 
L 39.568567 26.887692 
L 39.549938 26.887692 
Q 39.410221 26.659486 39.206854 26.505796 
Q 39.003487 26.350554 38.773729 26.257409 
Q 38.545523 26.162712 38.317317 26.122349 
Q 38.089112 26.081986 37.890402 26.081986 
Q 37.303588 26.081986 36.861148 26.29622 
Q 36.420261 26.510454 36.126854 26.87372 
Q 35.833446 27.235433 35.689071 27.722893 
Q 35.544696 28.2088 35.544696 28.755252 
Q 35.544696 29.301704 35.693729 29.789163 
Q 35.842761 30.275071 36.136168 30.642994 
Q 36.429575 31.010917 36.872015 31.229808 
Q 37.314455 31.447147 37.910584 31.447147 
Q 38.446168 31.447147 38.893265 31.259304 
Q 39.340362 31.069909 39.549938 30.642994 
L 39.568567 30.642994 
L 39.568567 31.338478 
L 40.413084 31.338478 
z
M 41.684824 26.201522 
L 41.684824 31.338478 
L 42.52934 31.338478 
L 42.52934 29.053317 
Q 42.52934 28.556542 42.628695 28.174647 
Q 42.72805 27.7912 42.946941 27.524183 
Q 43.165832 27.255615 43.522889 27.115897 
Q 43.881498 26.976179 44.387586 26.976179 
L 44.387586 26.081986 
Q 43.702969 26.063357 43.255873 26.361421 
Q 42.808776 26.659486 42.499844 27.285111 
L 42.479663 27.285111 
L 42.479663 26.201522 
L 41.684824 26.201522 
z
M 49.574529 31.318296 
Q 49.355638 31.447147 48.967533 31.447147 
Q 48.639972 31.447147 48.44592 31.263962 
Q 48.25342 31.080776 48.25342 30.663175 
Q 47.905678 31.080776 47.443057 31.263962 
Q 46.980436 31.447147 46.444851 31.447147 
Q 46.097109 31.447147 45.783521 31.367974 
Q 45.471484 31.2888 45.241726 31.119587 
Q 45.013521 30.950373 44.87846 30.677147 
Q 44.744952 30.403921 44.744952 30.017369 
Q 44.744952 29.579587 44.893984 29.301704 
Q 45.043017 29.023821 45.286746 28.84995 
Q 45.530476 28.676079 45.842513 28.587591 
Q 46.156101 28.49755 46.483662 28.437006 
Q 46.831404 28.367147 47.144992 28.332994 
Q 47.458581 28.298841 47.696101 28.233639 
Q 47.935174 28.168437 48.073339 28.044244 
Q 48.213057 27.92005 48.213057 27.68253 
Q 48.213057 27.404647 48.109045 27.235433 
Q 48.005033 27.06622 47.840476 26.977732 
Q 47.67592 26.887692 47.472553 26.858196 
Q 47.269186 26.827147 47.070476 26.827147 
Q 46.533339 26.827147 46.176283 27.032067 
Q 45.819226 27.235433 45.788178 27.802067 
L 44.943662 27.802067 
Q 44.963843 27.323921 45.142371 26.996361 
Q 45.322452 26.6688 45.620517 26.465433 
Q 45.918581 26.262067 46.300476 26.172026 
Q 46.682371 26.081986 47.120154 26.081986 
Q 47.467896 26.081986 47.81098 26.131663 
Q 48.154065 26.181341 48.431948 26.336583 
Q 48.709831 26.490272 48.879045 26.768155 
Q 49.048259 27.046038 49.048259 27.493135 
L 49.048259 30.136905 
Q 49.048259 30.43497 49.082412 30.574687 
Q 49.116565 30.712853 49.315275 30.712853 
Q 49.425496 30.712853 49.574529 30.663175 
L 49.574529 31.318296 
z
M 48.203742 28.685393 
Q 48.043843 28.804929 47.784589 28.859264 
Q 47.526888 28.913599 47.244347 28.949304 
Q 46.961807 28.983458 46.673057 29.028478 
Q 46.384307 29.073498 46.156101 29.172853 
Q 45.927896 29.272208 45.783521 29.456946 
Q 45.639146 29.640131 45.639146 29.956825 
Q 45.639146 30.166401 45.722976 30.310776 
Q 45.808359 30.453599 45.941867 30.543639 
Q 46.076928 30.633679 46.255456 30.674042 
Q 46.433984 30.712853 46.632694 30.712853 
Q 47.050295 30.712853 47.348359 30.599526 
Q 47.646424 30.484647 47.834267 30.310776 
Q 48.023662 30.136905 48.113702 29.933538 
Q 48.203742 29.728619 48.203742 29.550091 
L 48.203742 28.685393 
z
M 50.40942 24.243921 
L 50.40942 31.338478 
L 51.253936 31.338478 
L 51.253936 24.243921 
L 50.40942 24.243921 
z
"/>
   </g>
   <g id="text_3">
    <path d="M 7.499315 38.824244 
L 8.393508 38.824244 
Q 8.374879 38.237429 8.16996 37.815171 
Q 7.966593 37.392913 7.614194 37.11503 
Q 7.261794 36.837147 6.794516 36.708296 
Q 6.327238 36.579446 5.780786 36.579446 
Q 5.294879 36.579446 4.832258 36.703639 
Q 4.369637 36.827833 4.006371 37.080877 
Q 3.644657 37.333921 3.425766 37.726683 
Q 3.208427 38.119446 3.208427 38.65503 
Q 3.208427 39.14249 3.400927 39.465393 
Q 3.59498 39.788296 3.917883 39.991663 
Q 4.240786 40.19503 4.64752 40.319224 
Q 5.055806 40.443417 5.478065 40.538115 
Q 5.900323 40.632812 6.307056 40.722853 
Q 6.715343 40.811341 7.038246 40.955716 
Q 7.361149 41.100091 7.553649 41.328296 
Q 7.747702 41.556502 7.747702 41.924425 
Q 7.747702 42.310978 7.589355 42.559365 
Q 7.431008 42.807752 7.171754 42.952127 
Q 6.914052 43.096502 6.591149 43.157046 
Q 6.268246 43.216038 5.95 43.216038 
Q 5.552581 43.216038 5.175343 43.116683 
Q 4.798105 43.017329 4.514012 42.809304 
Q 4.231472 42.599728 4.057601 42.276825 
Q 3.88373 41.953921 3.88373 41.506825 
L 2.989536 41.506825 
Q 2.989536 42.152631 3.222399 42.624567 
Q 3.456815 43.096502 3.858891 43.399224 
Q 4.260968 43.701946 4.791895 43.850978 
Q 5.324375 44.00001 5.920504 44.00001 
Q 6.406411 44.00001 6.898528 43.885131 
Q 7.390645 43.771804 7.788065 43.51876 
Q 8.185484 43.265716 8.438528 42.863639 
Q 8.691573 42.46001 8.691573 41.894929 
Q 8.691573 41.367107 8.49752 41.019365 
Q 8.30502 40.671623 7.982117 40.443417 
Q 7.659214 40.215212 7.250927 40.081704 
Q 6.844194 39.946643 6.421935 39.847288 
Q 5.999677 39.747933 5.591391 39.664103 
Q 5.184657 39.57872 4.861754 39.449869 
Q 4.538851 39.321018 4.344798 39.117651 
Q 4.152298 38.914284 4.152298 38.585171 
Q 4.152298 38.237429 4.285806 38.004567 
Q 4.419315 37.771704 4.642863 37.631986 
Q 4.866411 37.492268 5.155161 37.433276 
Q 5.443911 37.374284 5.741976 37.374284 
Q 6.47627 37.374284 6.948206 37.717369 
Q 7.420141 38.058901 7.499315 38.824244 
z
M 9.725793 38.704708 
L 9.725793 45.799264 
L 10.570309 45.799264 
L 10.570309 43.155494 
L 10.590491 43.155494 
Q 10.728656 43.385252 10.932023 43.538942 
Q 11.136942 43.692631 11.365148 43.782671 
Q 11.593354 43.871159 11.826217 43.90997 
Q 12.060632 43.950333 12.248475 43.950333 
Q 12.835289 43.950333 13.277729 43.742308 
Q 13.720168 43.534284 14.012023 43.171018 
Q 14.30543 42.807752 14.449805 42.321845 
Q 14.59418 41.834385 14.59418 41.287933 
Q 14.59418 40.741482 14.445148 40.255575 
Q 14.296116 39.768115 14.002708 39.395534 
Q 13.709301 39.022954 13.266862 38.804062 
Q 12.825975 38.585171 12.229846 38.585171 
Q 11.692708 38.585171 11.245612 38.779224 
Q 10.798515 38.973276 10.590491 39.400192 
L 10.570309 39.400192 
L 10.570309 38.704708 
L 9.725793 38.704708 
z
M 13.699987 41.228942 
Q 13.699987 41.606179 13.619261 41.964788 
Q 13.540087 42.321845 13.361559 42.599728 
Q 13.183031 42.877611 12.889624 43.046825 
Q 12.596217 43.216038 12.159987 43.216038 
Q 11.722204 43.216038 11.413273 43.053034 
Q 11.105894 42.888478 10.911842 42.619909 
Q 10.719342 42.351341 10.629301 41.998942 
Q 10.540813 41.646542 10.540813 41.267752 
Q 10.540813 40.910696 10.624644 40.562954 
Q 10.708475 40.215212 10.89787 39.941986 
Q 11.087265 39.66876 11.385329 39.499546 
Q 11.683394 39.330333 12.110309 39.330333 
Q 12.517043 39.330333 12.819765 39.490232 
Q 13.124039 39.648579 13.316539 39.917147 
Q 13.510592 40.185716 13.605289 40.5288 
Q 13.699987 40.870333 13.699987 41.228942 
z
M 15.588038 36.747107 
L 15.588038 43.841663 
L 16.432554 43.841663 
L 16.432554 40.940192 
Q 16.432554 40.59245 16.525699 40.300595 
Q 16.620397 40.007187 16.80824 39.788296 
Q 16.997635 39.569405 17.280175 39.449869 
Q 17.564268 39.330333 17.952373 39.330333 
Q 18.43828 39.330333 18.716163 39.609768 
Q 18.995598 39.887651 18.995598 40.364244 
L 18.995598 43.841663 
L 19.840115 43.841663 
L 19.840115 40.463599 
Q 19.840115 40.045998 19.754731 39.704466 
Q 19.670901 39.361381 19.461324 39.112994 
Q 19.2533 38.864607 18.914873 38.724889 
Q 18.577998 38.585171 18.071909 38.585171 
Q 17.842151 38.585171 17.598421 38.634849 
Q 17.356244 38.684526 17.132695 38.790091 
Q 16.909147 38.894103 16.729066 39.058659 
Q 16.550538 39.221663 16.451183 39.460736 
L 16.432554 39.460736 
L 16.432554 36.747107 
L 15.588038 36.747107 
z
M 24.678073 40.781845 
L 21.726924 40.781845 
Q 21.747106 40.48378 21.855775 40.221421 
Q 21.965997 39.95751 22.153839 39.7588 
Q 22.343235 39.560091 22.605593 39.445212 
Q 22.869505 39.330333 23.198618 39.330333 
Q 23.515311 39.330333 23.779222 39.445212 
Q 24.043134 39.560091 24.235634 39.754143 
Q 24.429686 39.946643 24.543013 40.215212 
Q 24.657892 40.48378 24.678073 40.781845 
z
M 25.493093 42.211623 
L 24.657892 42.211623 
Q 24.549222 42.719264 24.206138 42.967651 
Q 23.863053 43.216038 23.327468 43.216038 
Q 22.909868 43.216038 22.600936 43.077873 
Q 22.293557 42.938155 22.094847 42.705292 
Q 21.896138 42.470877 21.806097 42.168155 
Q 21.71761 41.863881 21.726924 41.527006 
L 25.572267 41.527006 
Q 25.592448 41.059728 25.488436 40.542772 
Q 25.384424 40.025817 25.111198 39.589587 
Q 24.837972 39.151804 24.384666 38.869264 
Q 23.932912 38.585171 23.248295 38.585171 
Q 22.720472 38.585171 22.278033 38.783881 
Q 21.837146 38.982591 21.514243 39.3412 
Q 21.191339 39.698256 21.011259 40.185716 
Q 20.832731 40.671623 20.832731 41.258437 
Q 20.852912 41.845252 21.006602 42.342026 
Q 21.161843 42.8388 21.469222 43.195857 
Q 21.776602 43.552913 22.228356 43.751623 
Q 22.681662 43.950333 23.297972 43.950333 
Q 24.171985 43.950333 24.747932 43.514103 
Q 25.32388 43.076321 25.493093 42.211623 
z
M 26.416472 38.704708 
L 26.416472 43.841663 
L 27.260988 43.841663 
L 27.260988 41.556502 
Q 27.260988 41.059728 27.360343 40.677833 
Q 27.459698 40.294385 27.678589 40.027369 
Q 27.89748 39.7588 28.254537 39.619083 
Q 28.613146 39.479365 29.119234 39.479365 
L 29.119234 38.585171 
Q 28.434617 38.566542 27.987521 38.864607 
Q 27.540424 39.162671 27.231492 39.788296 
L 27.211311 39.788296 
L 27.211311 38.704708 
L 26.416472 38.704708 
z
M 30.650229 37.781018 
L 30.650229 36.747107 
L 29.805713 36.747107 
L 29.805713 37.781018 
L 30.650229 37.781018 
z
M 29.805713 38.704708 
L 29.805713 43.841663 
L 30.650229 43.841663 
L 30.650229 38.704708 
L 29.805713 38.704708 
z
M 35.448446 40.354929 
L 36.322459 40.354929 
Q 36.272781 39.896966 36.083386 39.564748 
Q 35.895543 39.230978 35.602136 39.013639 
Q 35.308729 38.794748 34.926834 38.690736 
Q 34.544938 38.585171 34.107156 38.585171 
Q 33.501713 38.585171 33.043749 38.799405 
Q 32.587338 39.013639 32.283063 39.38622 
Q 31.980342 39.7588 31.831309 40.260232 
Q 31.682277 40.761663 31.682277 41.337611 
Q 31.682277 41.913558 31.835967 42.396361 
Q 31.991209 42.877611 32.29393 43.225353 
Q 32.596652 43.573095 33.048406 43.76249 
Q 33.501713 43.950333 34.086975 43.950333 
Q 35.071209 43.950333 35.642499 43.434929 
Q 36.213789 42.917974 36.351955 41.963236 
L 35.488809 41.963236 
Q 35.408084 42.559365 35.055684 42.888478 
Q 34.703285 43.216038 34.07766 43.216038 
Q 33.680241 43.216038 33.391491 43.057692 
Q 33.104293 42.897792 32.924213 42.635433 
Q 32.745684 42.371522 32.660301 42.034647 
Q 32.576471 41.69622 32.576471 41.337611 
Q 32.576471 40.951058 32.655644 40.587792 
Q 32.73637 40.224526 32.919555 39.946643 
Q 33.104293 39.66876 33.411672 39.499546 
Q 33.719051 39.330333 34.177015 39.330333 
Q 34.7126 39.330333 35.030846 39.598901 
Q 35.349092 39.86747 35.448446 40.354929 
z
M 41.847208 43.821482 
Q 41.628317 43.950333 41.240212 43.950333 
Q 40.912652 43.950333 40.718599 43.767147 
Q 40.526099 43.583962 40.526099 43.166361 
Q 40.178357 43.583962 39.715736 43.767147 
Q 39.253116 43.950333 38.717531 43.950333 
Q 38.369789 43.950333 38.0562 43.871159 
Q 37.744164 43.791986 37.514406 43.622772 
Q 37.2862 43.453558 37.15114 43.180333 
Q 37.017632 42.907107 37.017632 42.520554 
Q 37.017632 42.082772 37.166664 41.804889 
Q 37.315696 41.527006 37.559426 41.353135 
Q 37.803156 41.179264 38.115192 41.090776 
Q 38.428781 41.000736 38.756341 40.940192 
Q 39.104083 40.870333 39.417672 40.836179 
Q 39.731261 40.802026 39.968781 40.736825 
Q 40.207853 40.671623 40.346019 40.547429 
Q 40.485736 40.423236 40.485736 40.185716 
Q 40.485736 39.907833 40.381724 39.738619 
Q 40.277712 39.569405 40.113156 39.480917 
Q 39.948599 39.390877 39.745232 39.361381 
Q 39.541866 39.330333 39.343156 39.330333 
Q 38.806019 39.330333 38.448962 39.535252 
Q 38.091906 39.738619 38.060857 40.305252 
L 37.216341 40.305252 
Q 37.236523 39.827107 37.415051 39.499546 
Q 37.595132 39.171986 37.893196 38.968619 
Q 38.191261 38.765252 38.573156 38.675212 
Q 38.955051 38.585171 39.392833 38.585171 
Q 39.740575 38.585171 40.08366 38.634849 
Q 40.426745 38.684526 40.704628 38.839768 
Q 40.982511 38.993458 41.151724 39.271341 
Q 41.320938 39.549224 41.320938 39.996321 
L 41.320938 42.640091 
Q 41.320938 42.938155 41.355091 43.077873 
Q 41.389245 43.216038 41.587954 43.216038 
Q 41.698176 43.216038 41.847208 43.166361 
L 41.847208 43.821482 
z
M 40.476422 41.188579 
Q 40.316523 41.308115 40.057269 41.36245 
Q 39.799567 41.416784 39.517027 41.45249 
Q 39.234486 41.486643 38.945736 41.531663 
Q 38.656986 41.576683 38.428781 41.676038 
Q 38.200575 41.775393 38.0562 41.960131 
Q 37.911825 42.143317 37.911825 42.46001 
Q 37.911825 42.669587 37.995656 42.813962 
Q 38.081039 42.956784 38.214547 43.046825 
Q 38.349607 43.136865 38.528136 43.177228 
Q 38.706664 43.216038 38.905374 43.216038 
Q 39.322974 43.216038 39.621039 43.102712 
Q 39.919103 42.987833 40.106946 42.813962 
Q 40.296341 42.640091 40.386382 42.436724 
Q 40.476422 42.231804 40.476422 42.053276 
L 40.476422 41.188579 
z
M 42.682099 36.747107 
L 42.682099 43.841663 
L 43.526615 43.841663 
L 43.526615 36.747107 
L 42.682099 36.747107 
z
" style="stroke: #ffffff; stroke-width: 2.980645"/>
    <path d="M 7.499315 38.824244 
L 8.393508 38.824244 
Q 8.374879 38.237429 8.16996 37.815171 
Q 7.966593 37.392913 7.614194 37.11503 
Q 7.261794 36.837147 6.794516 36.708296 
Q 6.327238 36.579446 5.780786 36.579446 
Q 5.294879 36.579446 4.832258 36.703639 
Q 4.369637 36.827833 4.006371 37.080877 
Q 3.644657 37.333921 3.425766 37.726683 
Q 3.208427 38.119446 3.208427 38.65503 
Q 3.208427 39.14249 3.400927 39.465393 
Q 3.59498 39.788296 3.917883 39.991663 
Q 4.240786 40.19503 4.64752 40.319224 
Q 5.055806 40.443417 5.478065 40.538115 
Q 5.900323 40.632812 6.307056 40.722853 
Q 6.715343 40.811341 7.038246 40.955716 
Q 7.361149 41.100091 7.553649 41.328296 
Q 7.747702 41.556502 7.747702 41.924425 
Q 7.747702 42.310978 7.589355 42.559365 
Q 7.431008 42.807752 7.171754 42.952127 
Q 6.914052 43.096502 6.591149 43.157046 
Q 6.268246 43.216038 5.95 43.216038 
Q 5.552581 43.216038 5.175343 43.116683 
Q 4.798105 43.017329 4.514012 42.809304 
Q 4.231472 42.599728 4.057601 42.276825 
Q 3.88373 41.953921 3.88373 41.506825 
L 2.989536 41.506825 
Q 2.989536 42.152631 3.222399 42.624567 
Q 3.456815 43.096502 3.858891 43.399224 
Q 4.260968 43.701946 4.791895 43.850978 
Q 5.324375 44.00001 5.920504 44.00001 
Q 6.406411 44.00001 6.898528 43.885131 
Q 7.390645 43.771804 7.788065 43.51876 
Q 8.185484 43.265716 8.438528 42.863639 
Q 8.691573 42.46001 8.691573 41.894929 
Q 8.691573 41.367107 8.49752 41.019365 
Q 8.30502 40.671623 7.982117 40.443417 
Q 7.659214 40.215212 7.250927 40.081704 
Q 6.844194 39.946643 6.421935 39.847288 
Q 5.999677 39.747933 5.591391 39.664103 
Q 5.184657 39.57872 4.861754 39.449869 
Q 4.538851 39.321018 4.344798 39.117651 
Q 4.152298 38.914284 4.152298 38.585171 
Q 4.152298 38.237429 4.285806 38.004567 
Q 4.419315 37.771704 4.642863 37.631986 
Q 4.866411 37.492268 5.155161 37.433276 
Q 5.443911 37.374284 5.741976 37.374284 
Q 6.47627 37.374284 6.948206 37.717369 
Q 7.420141 38.058901 7.499315 38.824244 
z
M 9.725793 38.704708 
L 9.725793 45.799264 
L 10.570309 45.799264 
L 10.570309 43.155494 
L 10.590491 43.155494 
Q 10.728656 43.385252 10.932023 43.538942 
Q 11.136942 43.692631 11.365148 43.782671 
Q 11.593354 43.871159 11.826217 43.90997 
Q 12.060632 43.950333 12.248475 43.950333 
Q 12.835289 43.950333 13.277729 43.742308 
Q 13.720168 43.534284 14.012023 43.171018 
Q 14.30543 42.807752 14.449805 42.321845 
Q 14.59418 41.834385 14.59418 41.287933 
Q 14.59418 40.741482 14.445148 40.255575 
Q 14.296116 39.768115 14.002708 39.395534 
Q 13.709301 39.022954 13.266862 38.804062 
Q 12.825975 38.585171 12.229846 38.585171 
Q 11.692708 38.585171 11.245612 38.779224 
Q 10.798515 38.973276 10.590491 39.400192 
L 10.570309 39.400192 
L 10.570309 38.704708 
L 9.725793 38.704708 
z
M 13.699987 41.228942 
Q 13.699987 41.606179 13.619261 41.964788 
Q 13.540087 42.321845 13.361559 42.599728 
Q 13.183031 42.877611 12.889624 43.046825 
Q 12.596217 43.216038 12.159987 43.216038 
Q 11.722204 43.216038 11.413273 43.053034 
Q 11.105894 42.888478 10.911842 42.619909 
Q 10.719342 42.351341 10.629301 41.998942 
Q 10.540813 41.646542 10.540813 41.267752 
Q 10.540813 40.910696 10.624644 40.562954 
Q 10.708475 40.215212 10.89787 39.941986 
Q 11.087265 39.66876 11.385329 39.499546 
Q 11.683394 39.330333 12.110309 39.330333 
Q 12.517043 39.330333 12.819765 39.490232 
Q 13.124039 39.648579 13.316539 39.917147 
Q 13.510592 40.185716 13.605289 40.5288 
Q 13.699987 40.870333 13.699987 41.228942 
z
M 15.588038 36.747107 
L 15.588038 43.841663 
L 16.432554 43.841663 
L 16.432554 40.940192 
Q 16.432554 40.59245 16.525699 40.300595 
Q 16.620397 40.007187 16.80824 39.788296 
Q 16.997635 39.569405 17.280175 39.449869 
Q 17.564268 39.330333 17.952373 39.330333 
Q 18.43828 39.330333 18.716163 39.609768 
Q 18.995598 39.887651 18.995598 40.364244 
L 18.995598 43.841663 
L 19.840115 43.841663 
L 19.840115 40.463599 
Q 19.840115 40.045998 19.754731 39.704466 
Q 19.670901 39.361381 19.461324 39.112994 
Q 19.2533 38.864607 18.914873 38.724889 
Q 18.577998 38.585171 18.071909 38.585171 
Q 17.842151 38.585171 17.598421 38.634849 
Q 17.356244 38.684526 17.132695 38.790091 
Q 16.909147 38.894103 16.729066 39.058659 
Q 16.550538 39.221663 16.451183 39.460736 
L 16.432554 39.460736 
L 16.432554 36.747107 
L 15.588038 36.747107 
z
M 24.678073 40.781845 
L 21.726924 40.781845 
Q 21.747106 40.48378 21.855775 40.221421 
Q 21.965997 39.95751 22.153839 39.7588 
Q 22.343235 39.560091 22.605593 39.445212 
Q 22.869505 39.330333 23.198618 39.330333 
Q 23.515311 39.330333 23.779222 39.445212 
Q 24.043134 39.560091 24.235634 39.754143 
Q 24.429686 39.946643 24.543013 40.215212 
Q 24.657892 40.48378 24.678073 40.781845 
z
M 25.493093 42.211623 
L 24.657892 42.211623 
Q 24.549222 42.719264 24.206138 42.967651 
Q 23.863053 43.216038 23.327468 43.216038 
Q 22.909868 43.216038 22.600936 43.077873 
Q 22.293557 42.938155 22.094847 42.705292 
Q 21.896138 42.470877 21.806097 42.168155 
Q 21.71761 41.863881 21.726924 41.527006 
L 25.572267 41.527006 
Q 25.592448 41.059728 25.488436 40.542772 
Q 25.384424 40.025817 25.111198 39.589587 
Q 24.837972 39.151804 24.384666 38.869264 
Q 23.932912 38.585171 23.248295 38.585171 
Q 22.720472 38.585171 22.278033 38.783881 
Q 21.837146 38.982591 21.514243 39.3412 
Q 21.191339 39.698256 21.011259 40.185716 
Q 20.832731 40.671623 20.832731 41.258437 
Q 20.852912 41.845252 21.006602 42.342026 
Q 21.161843 42.8388 21.469222 43.195857 
Q 21.776602 43.552913 22.228356 43.751623 
Q 22.681662 43.950333 23.297972 43.950333 
Q 24.171985 43.950333 24.747932 43.514103 
Q 25.32388 43.076321 25.493093 42.211623 
z
M 26.416472 38.704708 
L 26.416472 43.841663 
L 27.260988 43.841663 
L 27.260988 41.556502 
Q 27.260988 41.059728 27.360343 40.677833 
Q 27.459698 40.294385 27.678589 40.027369 
Q 27.89748 39.7588 28.254537 39.619083 
Q 28.613146 39.479365 29.119234 39.479365 
L 29.119234 38.585171 
Q 28.434617 38.566542 27.987521 38.864607 
Q 27.540424 39.162671 27.231492 39.788296 
L 27.211311 39.788296 
L 27.211311 38.704708 
L 26.416472 38.704708 
z
M 30.650229 37.781018 
L 30.650229 36.747107 
L 29.805713 36.747107 
L 29.805713 37.781018 
L 30.650229 37.781018 
z
M 29.805713 38.704708 
L 29.805713 43.841663 
L 30.650229 43.841663 
L 30.650229 38.704708 
L 29.805713 38.704708 
z
M 35.448446 40.354929 
L 36.322459 40.354929 
Q 36.272781 39.896966 36.083386 39.564748 
Q 35.895543 39.230978 35.602136 39.013639 
Q 35.308729 38.794748 34.926834 38.690736 
Q 34.544938 38.585171 34.107156 38.585171 
Q 33.501713 38.585171 33.043749 38.799405 
Q 32.587338 39.013639 32.283063 39.38622 
Q 31.980342 39.7588 31.831309 40.260232 
Q 31.682277 40.761663 31.682277 41.337611 
Q 31.682277 41.913558 31.835967 42.396361 
Q 31.991209 42.877611 32.29393 43.225353 
Q 32.596652 43.573095 33.048406 43.76249 
Q 33.501713 43.950333 34.086975 43.950333 
Q 35.071209 43.950333 35.642499 43.434929 
Q 36.213789 42.917974 36.351955 41.963236 
L 35.488809 41.963236 
Q 35.408084 42.559365 35.055684 42.888478 
Q 34.703285 43.216038 34.07766 43.216038 
Q 33.680241 43.216038 33.391491 43.057692 
Q 33.104293 42.897792 32.924213 42.635433 
Q 32.745684 42.371522 32.660301 42.034647 
Q 32.576471 41.69622 32.576471 41.337611 
Q 32.576471 40.951058 32.655644 40.587792 
Q 32.73637 40.224526 32.919555 39.946643 
Q 33.104293 39.66876 33.411672 39.499546 
Q 33.719051 39.330333 34.177015 39.330333 
Q 34.7126 39.330333 35.030846 39.598901 
Q 35.349092 39.86747 35.448446 40.354929 
z
M 41.847208 43.821482 
Q 41.628317 43.950333 41.240212 43.950333 
Q 40.912652 43.950333 40.718599 43.767147 
Q 40.526099 43.583962 40.526099 43.166361 
Q 40.178357 43.583962 39.715736 43.767147 
Q 39.253116 43.950333 38.717531 43.950333 
Q 38.369789 43.950333 38.0562 43.871159 
Q 37.744164 43.791986 37.514406 43.622772 
Q 37.2862 43.453558 37.15114 43.180333 
Q 37.017632 42.907107 37.017632 42.520554 
Q 37.017632 42.082772 37.166664 41.804889 
Q 37.315696 41.527006 37.559426 41.353135 
Q 37.803156 41.179264 38.115192 41.090776 
Q 38.428781 41.000736 38.756341 40.940192 
Q 39.104083 40.870333 39.417672 40.836179 
Q 39.731261 40.802026 39.968781 40.736825 
Q 40.207853 40.671623 40.346019 40.547429 
Q 40.485736 40.423236 40.485736 40.185716 
Q 40.485736 39.907833 40.381724 39.738619 
Q 40.277712 39.569405 40.113156 39.480917 
Q 39.948599 39.390877 39.745232 39.361381 
Q 39.541866 39.330333 39.343156 39.330333 
Q 38.806019 39.330333 38.448962 39.535252 
Q 38.091906 39.738619 38.060857 40.305252 
L 37.216341 40.305252 
Q 37.236523 39.827107 37.415051 39.499546 
Q 37.595132 39.171986 37.893196 38.968619 
Q 38.191261 38.765252 38.573156 38.675212 
Q 38.955051 38.585171 39.392833 38.585171 
Q 39.740575 38.585171 40.08366 38.634849 
Q 40.426745 38.684526 40.704628 38.839768 
Q 40.982511 38.993458 41.151724 39.271341 
Q 41.320938 39.549224 41.320938 39.996321 
L 41.320938 42.640091 
Q 41.320938 42.938155 41.355091 43.077873 
Q 41.389245 43.216038 41.587954 43.216038 
Q 41.698176 43.216038 41.847208 43.166361 
L 41.847208 43.821482 
z
M 40.476422 41.188579 
Q 40.316523 41.308115 40.057269 41.36245 
Q 39.799567 41.416784 39.517027 41.45249 
Q 39.234486 41.486643 38.945736 41.531663 
Q 38.656986 41.576683 38.428781 41.676038 
Q 38.200575 41.775393 38.0562 41.960131 
Q 37.911825 42.143317 37.911825 42.46001 
Q 37.911825 42.669587 37.995656 42.813962 
Q 38.081039 42.956784 38.214547 43.046825 
Q 38.349607 43.136865 38.528136 43.177228 
Q 38.706664 43.216038 38.905374 43.216038 
Q 39.322974 43.216038 39.621039 43.102712 
Q 39.919103 42.987833 40.106946 42.813962 
Q 40.296341 42.640091 40.386382 42.436724 
Q 40.476422 42.231804 40.476422 42.053276 
L 40.476422 41.188579 
z
M 42.682099 36.747107 
L 42.682099 43.841663 
L 43.526615 43.841663 
L 43.526615 36.747107 
L 42.682099 36.747107 
z
"/>
   </g>
  </g>
 </g>
 <defs>
  <clipPath id="pea94a47973">
   <rect x="-207.474129" y="-154.897355" width="221.76" height="221.76"/>
  </clipPath>
 </defs>
</svg>
