<?xml version="1.0" encoding="utf-8" standalone="no"?>
<!DOCTYPE svg PUBLIC "-//W3C//DTD SVG 1.1//EN"
  "http://www.w3.org/Graphics/SVG/1.1/DTD/svg11.dtd">
<svg xmlns:xlink="http://www.w3.org/1999/xlink" width="35.797419pt" height="49.415484pt" viewBox="0 0 35.797419 49.415484" xmlns="http://www.w3.org/2000/svg" version="1.1">
 <metadata>
  <rdf:RDF xmlns:dc="http://purl.org/dc/elements/1.1/" xmlns:cc="http://creativecommons.org/ns#" xmlns:rdf="http://www.w3.org/1999/02/22-rdf-syntax-ns#">
   <cc:Work>
    <dc:type rdf:resource="http://purl.org/dc/dcmitype/StillImage"/>
    <dc:date>2026-02-22T07:29:55.876859</dc:date>
    <dc:format>image/svg+xml</dc:format>
    <dc:creator>
     <cc:Agent>
      <dc:title>Matplotlib v3.10.7, https://matplotlib.org/</dc:title>
     </cc:Agent>
    </dc:creator>
   </cc:Work>
  </rdf:RDF>
 </metadata>
 <defs>
  <style type="text/css">*{stroke-linejoin: round; stroke-linecap: butt}</style>
 </defs>
 <g id="figure_1">
  <g id="patch_1">
   <path d="M 0 49.415484 
L 35.797419 49.415484 
L 35.797419 0 
L 0 0 
L 0 49.415484 
z
" style="fill: none"/>
  </g>
  <g id="axes_1">
   <g id="line2d_1">
    <defs>
     <path id="m68ce5ebc64" d="M 0 3.974194 
C 1.053968 3.974194 2.064911 3.555447 2.810179 2.810179 
C 3.555447 2.064911 3.974194 1.053968 3.974194 0 
C 3.974194 -1.053968 3.555447 -2.064911 2.810179 -2.810179 
C 2.064911 -3.555447 1.053968 -3.974194 0 -3.974194 
C -1.053968 -3.974194 -2.064911 -3.555447 -2.810179 -2.810179 
C -3.555447 -2.064911 -3.974194 -1.053968 -3.974194 0 
C -3.974194 1.053968 -3.555447 2.064911 -2.810179 2.810179 
C -2.064911 3.555447 -1.053968 3.974194 0 3.974194 
z
" style="stroke: #262626; stroke-width: 0.993548"/>
    </defs>
    <g clip-path="url(#p2eb6e898ea)">
     <use xlink:href="#m68ce5ebc64" x="10.554839" y="7.574194" style="fill: #51b04d; stroke: #262626; stroke-width: 0.993548"/>
    </g>
   </g>
   <g id="line2d_2">
    <defs>
     <path id="m4f3c594f55" d="M 0 6.954839 
C 1.844445 6.954839 3.613594 6.222033 4.917814 4.917814 
C 6.222033 3.613594 6.954839 1.844445 6.954839 0 
C 6.954839 -1.844445 6.222033 -3.613594 4.917814 -4.917814 
C 3.613594 -6.222033 1.844445 -6.954839 0 -6.954839 
C -1.844445 -6.954839 -3.613594 -6.222033 -4.917814 -4.917814 
C -6.222033 -3.613594 -6.954839 -1.844445 -6.954839 0 
C -6.954839 1.844445 -6.222033 3.613594 -4.917814 4.917814 
C -3.613594 6.222033 -1.844445 6.954839 0 6.954839 
z
" style="stroke: #262626; stroke-width: 0.993548"/>
    </defs>
    <g clip-path="url(#p2eb6e898ea)">
     <use xlink:href="#m4f3c594f55" x="10.554839" y="23.967742" style="fill: #477b9d; stroke: #262626; stroke-width: 0.993548"/>
    </g>
   </g>
   <g id="line2d_3">
    <defs>
     <path id="m0ec8d67bc3" d="M 0 4.967742 
C 1.317461 4.967742 2.581139 4.444309 3.512724 3.512724 
C 4.444309 2.581139 4.967742 1.317461 4.967742 0 
C 4.967742 -1.317461 4.444309 -2.581139 3.512724 -3.512724 
C 2.581139 -4.444309 1.317461 -4.967742 0 -4.967742 
C -1.317461 -4.967742 -2.581139 -4.444309 -3.512724 -3.512724 
C -4.444309 -2.581139 -4.967742 -1.317461 -4.967742 0 
C -4.967742 1.317461 -4.444309 2.581139 -3.512724 3.512724 
C -2.581139 4.444309 -1.317461 4.967742 0 4.967742 
z
" style="stroke: #262626; stroke-width: 0.993548"/>
    </defs>
    <g clip-path="url(#p2eb6e898ea)">
     <use xlink:href="#m0ec8d67bc3" x="10.554839" y="40.36129" style="fill: #f03f37; stroke: #262626; stroke-width: 0.993548"/>
    </g>
   </g>
   <g id="text_1">
    <path d="M 27.355121 6.019446 
L 28.249315 6.019446 
Q 28.230685 5.432631 28.025766 5.010373 
Q 27.822399 4.588115 27.47 4.310232 
Q 27.117601 4.032349 26.650323 3.903498 
Q 26.183044 3.774647 25.636593 3.774647 
Q 25.150685 3.774647 24.688065 3.898841 
Q 24.225444 4.023034 23.862177 4.276079 
Q 23.500464 4.529123 23.281573 4.921885 
Q 23.064234 5.314647 23.064234 5.850232 
Q 23.064234 6.337692 23.256734 6.660595 
Q 23.450786 6.983498 23.77369 7.186865 
Q 24.096593 7.390232 24.503327 7.514425 
Q 24.911613 7.638619 25.333871 7.733317 
Q 25.756129 7.828014 26.162863 7.918054 
Q 26.571149 8.006542 26.894052 8.150917 
Q 27.216956 8.295292 27.409456 8.523498 
Q 27.603508 8.751704 27.603508 9.119627 
Q 27.603508 9.506179 27.445161 9.754567 
Q 27.286815 10.002954 27.02756 10.147329 
Q 26.769859 10.291704 26.446956 10.352248 
Q 26.124052 10.41124 25.805806 10.41124 
Q 25.408387 10.41124 25.031149 10.311885 
Q 24.653911 10.21253 24.369819 10.004506 
Q 24.087278 9.794929 23.913407 9.472026 
Q 23.739536 9.149123 23.739536 8.702026 
L 22.845343 8.702026 
Q 22.845343 9.347833 23.078206 9.819768 
Q 23.312621 10.291704 23.714698 10.594425 
Q 24.116774 10.897147 24.647702 11.046179 
Q 25.180181 11.195212 25.77631 11.195212 
Q 26.262218 11.195212 26.754335 11.080333 
Q 27.246452 10.967006 27.643871 10.713962 
Q 28.04129 10.460917 28.294335 10.058841 
Q 28.547379 9.655212 28.547379 9.090131 
Q 28.547379 8.562308 28.353327 8.214567 
Q 28.160827 7.866825 27.837923 7.638619 
Q 27.51502 7.410413 27.106734 7.276905 
Q 26.7 7.141845 26.277742 7.04249 
Q 25.855484 6.943135 25.447198 6.859304 
Q 25.040464 6.773921 24.71756 6.645071 
Q 24.394657 6.51622 24.200605 6.312853 
Q 24.008105 6.109486 24.008105 5.780373 
Q 24.008105 5.432631 24.141613 5.199768 
Q 24.275121 4.966905 24.498669 4.827188 
Q 24.722218 4.68747 25.010968 4.628478 
Q 25.299718 4.569486 25.597782 4.569486 
Q 26.332077 4.569486 26.804012 4.912571 
Q 27.275948 5.254103 27.355121 6.019446 
z
M 29.521055 5.899909 
L 29.521055 11.036865 
L 30.365571 11.036865 
L 30.365571 8.751704 
Q 30.365571 8.254929 30.464926 7.873034 
Q 30.564281 7.489587 30.783172 7.222571 
Q 31.002063 6.954002 31.35912 6.814284 
Q 31.717729 6.674567 32.223817 6.674567 
L 32.223817 5.780373 
Q 31.5392 5.761744 31.092104 6.059808 
Q 30.645007 6.357873 30.336075 6.983498 
L 30.315894 6.983498 
L 30.315894 5.899909 
L 29.521055 5.899909 
z
" style="stroke: #ffffff; stroke-width: 2.980645"/>
    <path d="M 27.355121 6.019446 
L 28.249315 6.019446 
Q 28.230685 5.432631 28.025766 5.010373 
Q 27.822399 4.588115 27.47 4.310232 
Q 27.117601 4.032349 26.650323 3.903498 
Q 26.183044 3.774647 25.636593 3.774647 
Q 25.150685 3.774647 24.688065 3.898841 
Q 24.225444 4.023034 23.862177 4.276079 
Q 23.500464 4.529123 23.281573 4.921885 
Q 23.064234 5.314647 23.064234 5.850232 
Q 23.064234 6.337692 23.256734 6.660595 
Q 23.450786 6.983498 23.77369 7.186865 
Q 24.096593 7.390232 24.503327 7.514425 
Q 24.911613 7.638619 25.333871 7.733317 
Q 25.756129 7.828014 26.162863 7.918054 
Q 26.571149 8.006542 26.894052 8.150917 
Q 27.216956 8.295292 27.409456 8.523498 
Q 27.603508 8.751704 27.603508 9.119627 
Q 27.603508 9.506179 27.445161 9.754567 
Q 27.286815 10.002954 27.02756 10.147329 
Q 26.769859 10.291704 26.446956 10.352248 
Q 26.124052 10.41124 25.805806 10.41124 
Q 25.408387 10.41124 25.031149 10.311885 
Q 24.653911 10.21253 24.369819 10.004506 
Q 24.087278 9.794929 23.913407 9.472026 
Q 23.739536 9.149123 23.739536 8.702026 
L 22.845343 8.702026 
Q 22.845343 9.347833 23.078206 9.819768 
Q 23.312621 10.291704 23.714698 10.594425 
Q 24.116774 10.897147 24.647702 11.046179 
Q 25.180181 11.195212 25.77631 11.195212 
Q 26.262218 11.195212 26.754335 11.080333 
Q 27.246452 10.967006 27.643871 10.713962 
Q 28.04129 10.460917 28.294335 10.058841 
Q 28.547379 9.655212 28.547379 9.090131 
Q 28.547379 8.562308 28.353327 8.214567 
Q 28.160827 7.866825 27.837923 7.638619 
Q 27.51502 7.410413 27.106734 7.276905 
Q 26.7 7.141845 26.277742 7.04249 
Q 25.855484 6.943135 25.447198 6.859304 
Q 25.040464 6.773921 24.71756 6.645071 
Q 24.394657 6.51622 24.200605 6.312853 
Q 24.008105 6.109486 24.008105 5.780373 
Q 24.008105 5.432631 24.141613 5.199768 
Q 24.275121 4.966905 24.498669 4.827188 
Q 24.722218 4.68747 25.010968 4.628478 
Q 25.299718 4.569486 25.597782 4.569486 
Q 26.332077 4.569486 26.804012 4.912571 
Q 27.275948 5.254103 27.355121 6.019446 
z
M 29.521055 5.899909 
L 29.521055 11.036865 
L 30.365571 11.036865 
L 30.365571 8.751704 
Q 30.365571 8.254929 30.464926 7.873034 
Q 30.564281 7.489587 30.783172 7.222571 
Q 31.002063 6.954002 31.35912 6.814284 
Q 31.717729 6.674567 32.223817 6.674567 
L 32.223817 5.780373 
Q 31.5392 5.761744 31.092104 6.059808 
Q 30.645007 6.357873 30.336075 6.983498 
L 30.315894 6.983498 
L 30.315894 5.899909 
L 29.521055 5.899909 
z
"/>
   </g>
   <g id="text_2">
    <path d="M 24.861935 21.130696 
L 24.861935 27.430413 
L 25.805806 27.430413 
L 25.805806 21.130696 
L 28.170141 21.130696 
L 28.170141 20.335857 
L 22.497601 20.335857 
L 22.497601 21.130696 
L 24.861935 21.130696 
z
M 29.711072 21.369768 
L 29.711072 20.335857 
L 28.866556 20.335857 
L 28.866556 21.369768 
L 29.711072 21.369768 
z
M 28.866556 22.293458 
L 28.866556 27.430413 
L 29.711072 27.430413 
L 29.711072 22.293458 
L 28.866556 22.293458 
z
" style="stroke: #ffffff; stroke-width: 2.980645"/>
    <path d="M 24.861935 21.130696 
L 24.861935 27.430413 
L 25.805806 27.430413 
L 25.805806 21.130696 
L 28.170141 21.130696 
L 28.170141 20.335857 
L 22.497601 20.335857 
L 22.497601 21.130696 
L 24.861935 21.130696 
z
M 29.711072 21.369768 
L 29.711072 20.335857 
L 28.866556 20.335857 
L 28.866556 21.369768 
L 29.711072 21.369768 
z
M 28.866556 22.293458 
L 28.866556 27.430413 
L 29.711072 27.430413 
L 29.711072 22.293458 
L 28.866556 22.293458 
z
"/>
   </g>
   <g id="text_3">
    <path d="M 23.798528 40.276683 
Q 23.798528 39.741099 23.936694 39.219486 
Q 24.076411 38.697873 24.374476 38.280272 
Q 24.67254 37.862671 25.139819 37.609627 
Q 25.607097 37.356583 26.252903 37.356583 
Q 26.89871 37.356583 27.365988 37.609627 
Q 27.833266 37.862671 28.131331 38.280272 
Q 28.429395 38.697873 28.56756 39.219486 
Q 28.707278 39.741099 28.707278 40.276683 
Q 28.707278 40.813821 28.56756 41.335433 
Q 28.429395 41.857046 28.131331 42.274647 
Q 27.833266 42.690696 27.365988 42.945292 
Q 26.89871 43.198337 26.252903 43.198337 
Q 25.607097 43.198337 25.139819 42.945292 
Q 24.67254 42.690696 24.374476 42.274647 
Q 24.076411 41.857046 23.936694 41.335433 
Q 23.798528 40.813821 23.798528 40.276683 
z
M 22.854657 40.276683 
Q 22.854657 41.001663 23.067339 41.672308 
Q 23.281573 42.342954 23.708488 42.859909 
Q 24.136956 43.376865 24.771895 43.679587 
Q 25.408387 43.982308 26.252903 43.982308 
Q 27.097419 43.982308 27.732359 43.679587 
Q 28.368851 43.376865 28.795766 42.859909 
Q 29.224234 42.342954 29.436915 41.672308 
Q 29.651149 41.001663 29.651149 40.276683 
Q 29.651149 39.551704 29.436915 38.881058 
Q 29.224234 38.210413 28.795766 37.693458 
Q 28.368851 37.176502 27.732359 36.869123 
Q 27.097419 36.561744 26.252903 36.561744 
Q 25.408387 36.561744 24.771895 36.869123 
Q 24.136956 37.176502 23.708488 37.693458 
Q 23.281573 38.210413 23.067339 38.881058 
Q 22.854657 39.551704 22.854657 40.276683 
z
" style="stroke: #ffffff; stroke-width: 2.980645"/>
    <path d="M 23.798528 40.276683 
Q 23.798528 39.741099 23.936694 39.219486 
Q 24.076411 38.697873 24.374476 38.280272 
Q 24.67254 37.862671 25.139819 37.609627 
Q 25.607097 37.356583 26.252903 37.356583 
Q 26.89871 37.356583 27.365988 37.609627 
Q 27.833266 37.862671 28.131331 38.280272 
Q 28.429395 38.697873 28.56756 39.219486 
Q 28.707278 39.741099 28.707278 40.276683 
Q 28.707278 40.813821 28.56756 41.335433 
Q 28.429395 41.857046 28.131331 42.274647 
Q 27.833266 42.690696 27.365988 42.945292 
Q 26.89871 43.198337 26.252903 43.198337 
Q 25.607097 43.198337 25.139819 42.945292 
Q 24.67254 42.690696 24.374476 42.274647 
Q 24.076411 41.857046 23.936694 41.335433 
Q 23.798528 40.813821 23.798528 40.276683 
z
M 22.854657 40.276683 
Q 22.854657 41.001663 23.067339 41.672308 
Q 23.281573 42.342954 23.708488 42.859909 
Q 24.136956 43.376865 24.771895 43.679587 
Q 25.408387 43.982308 26.252903 43.982308 
Q 27.097419 43.982308 27.732359 43.679587 
Q 28.368851 43.376865 28.795766 42.859909 
Q 29.224234 42.342954 29.436915 41.672308 
Q 29.651149 41.001663 29.651149 40.276683 
Q 29.651149 39.551704 29.436915 38.881058 
Q 29.224234 38.210413 28.795766 37.693458 
Q 28.368851 37.176502 27.732359 36.869123 
Q 27.097419 36.561744 26.252903 36.561744 
Q 25.408387 36.561744 24.771895 36.869123 
Q 24.136956 37.176502 23.708488 37.693458 
Q 23.281573 38.210413 23.067339 38.881058 
Q 22.854657 39.551704 22.854657 40.276683 
z
"/>
   </g>
  </g>
 </g>
 <defs>
  <clipPath id="p2eb6e898ea">
   <rect x="-187.618323" y="-150.857032" width="221.76" height="221.76"/>
  </clipPath>
 </defs>
</svg>
