<?xml version="1.0" encoding="utf-8" standalone="no"?>
<!DOCTYPE svg PUBLIC "-//W3C//DTD SVG 1.1//EN"
  "http://www.w3.org/Graphics/SVG/1.1/DTD/svg11.dtd">
<svg xmlns:xlink="http://www.w3.org/1999/xlink" width="208.8pt" height="205.419537pt" viewBox="0 0 208.8 205.419537" xmlns="http://www.w3.org/2000/svg" version="1.1">
 <metadata>
  <rdf:RDF xmlns:dc="http://purl.org/dc/elements/1.1/" xmlns:cc="http://creativecommons.org/ns#" xmlns:rdf="http://www.w3.org/1999/02/22-rdf-syntax-ns#">
   <cc:Work>
    <dc:type rdf:resource="http://purl.org/dc/dcmitype/StillImage"/>
    <dc:date>2026-02-21T07:58:39.569197</dc:date>
    <dc:format>image/svg+xml</dc:format>
    <dc:creator>
     <cc:Agent>
      <dc:title>Matplotlib v3.10.7, https://matplotlib.org/</dc:title>
     </cc:Agent>
    </dc:creator>
   </cc:Work>
  </rdf:RDF>
 </metadata>
 <defs>
  <style type="text/css">*{stroke-linejoin: round; stroke-linecap: butt}</style>
 </defs>
 <g id="figure_1">
  <g id="patch_1">
   <path d="M 0 205.419537 
L 208.8 205.419537 
L 208.8 0 
L 0 0 
z
" style="fill: #ffffff"/>
  </g>
  <g id="axes_1">
   <g id="PolyCollection_1">
    <path d="M 107.287574 86.987248 
L 107.245034 86.012913 
L 107.117736 85.045992 
L 106.906651 84.093846 
L 106.613383 83.16372 
L 106.240166 82.262694 
L 105.789839 81.397624 
L 105.26583 80.575095 
L 104.672127 79.801366 
L 104.013249 79.082326 
L 103.294209 78.423448 
L 102.52048 77.829745 
L 101.697951 77.305736 
L 100.832881 76.855409 
L 99.931855 76.482192 
L 99.001729 76.188924 
L 98.049583 75.977838 
L 97.082662 75.850541 
L 96.108327 75.808001 
L 95.133991 75.850541 
L 94.167071 75.977838 
L 93.214925 76.188924 
L 92.284799 76.482192 
L 91.383773 76.855409 
L 90.518703 77.305736 
L 89.696174 77.829745 
L 88.922445 78.423448 
L 88.203405 79.082326 
L 87.544526 79.801366 
L 86.950823 80.575095 
L 86.426814 81.397624 
L 85.976488 82.262694 
L 85.60327 83.16372 
L 85.310003 84.093846 
L 85.098917 85.045992 
L 84.97162 86.012913 
L 84.929079 86.987248 
L 84.97162 87.961584 
L 85.098917 88.928504 
L 85.310003 89.88065 
L 85.60327 90.810776 
L 85.976488 91.711802 
L 86.426814 92.576872 
L 86.950823 93.399401 
L 87.544526 94.17313 
L 88.203405 94.89217 
L 88.922445 95.551049 
L 89.696174 96.144752 
L 90.518703 96.668761 
L 91.383773 97.119087 
L 92.284799 97.492305 
L 93.214925 97.785572 
L 94.167071 97.996658 
L 95.133991 98.123955 
L 96.108327 98.166496 
L 97.082662 98.123955 
L 98.049583 97.996658 
L 99.001729 97.785572 
L 99.931855 97.492305 
L 100.832881 97.119087 
L 101.697951 96.668761 
L 102.52048 96.144752 
L 103.294209 95.551049 
L 104.013249 94.89217 
L 104.672127 94.17313 
L 105.26583 93.399401 
L 105.789839 92.576872 
L 106.240166 91.711802 
L 106.613383 90.810776 
L 106.906651 89.88065 
L 107.117736 88.928504 
L 107.245034 87.961584 
L 107.287574 86.987248 
z
" clip-path="url(#p9717fc1e5f)" style="fill: #f03f37; stroke: #262626"/>
    <path d="M 115.579248 156.297359 
L 115.536707 155.323023 
L 115.40941 154.356103 
L 115.198324 153.403956 
L 114.905056 152.473831 
L 114.531839 151.572804 
L 114.081512 150.707735 
L 113.557504 149.885206 
L 112.9638 149.111477 
L 112.304922 148.392437 
L 111.585882 147.733558 
L 110.812153 147.139855 
L 109.989624 146.615846 
L 109.124554 146.165519 
L 108.223528 145.792302 
L 107.293402 145.499035 
L 106.341256 145.287949 
L 105.374336 145.160651 
L 104.4 145.118111 
L 103.425664 145.160651 
L 102.458744 145.287949 
L 101.506598 145.499035 
L 100.576472 145.792302 
L 99.675446 146.165519 
L 98.810376 146.615846 
L 97.987847 147.139855 
L 97.214118 147.733558 
L 96.495078 148.392437 
L 95.8362 149.111477 
L 95.242496 149.885206 
L 94.718488 150.707735 
L 94.268161 151.572804 
L 93.894944 152.473831 
L 93.601676 153.403956 
L 93.39059 154.356103 
L 93.263293 155.323023 
L 93.220752 156.297359 
L 93.263293 157.271694 
L 93.39059 158.238615 
L 93.601676 159.190761 
L 93.894944 160.120886 
L 94.268161 161.021913 
L 94.718488 161.886982 
L 95.242496 162.709512 
L 95.8362 163.48324 
L 96.495078 164.20228 
L 97.214118 164.861159 
L 97.987847 165.454862 
L 98.810376 165.978871 
L 99.675446 166.429198 
L 100.576472 166.802415 
L 101.506598 167.095683 
L 102.458744 167.306768 
L 103.425664 167.434066 
L 104.4 167.476606 
L 105.374336 167.434066 
L 106.341256 167.306768 
L 107.293402 167.095683 
L 108.223528 166.802415 
L 109.124554 166.429198 
L 109.989624 165.978871 
L 110.812153 165.454862 
L 111.585882 164.861159 
L 112.304922 164.20228 
L 112.9638 163.48324 
L 113.557504 162.709512 
L 114.081512 161.886982 
L 114.531839 161.021913 
L 114.905056 160.120886 
L 115.198324 159.190761 
L 115.40941 158.238615 
L 115.536707 157.271694 
L 115.579248 156.297359 
z
" clip-path="url(#p9717fc1e5f)" style="fill: #f03f37; stroke: #262626"/>
    <path d="M 170.857069 100.35139 
L 170.814529 99.377055 
L 170.687231 98.410134 
L 170.476146 97.457988 
L 170.182878 96.527863 
L 169.809661 95.626836 
L 169.359334 94.761767 
L 168.835325 93.939237 
L 168.241622 93.165509 
L 167.582743 92.446469 
L 166.863703 91.78759 
L 166.089975 91.193887 
L 165.267445 90.669878 
L 164.402376 90.219551 
L 163.501349 89.846334 
L 162.571224 89.553067 
L 161.619078 89.341981 
L 160.652157 89.214683 
L 159.677822 89.172143 
L 158.703486 89.214683 
L 157.736566 89.341981 
L 156.784419 89.553067 
L 155.854294 89.846334 
L 154.953267 90.219551 
L 154.088198 90.669878 
L 153.265669 91.193887 
L 152.49194 91.78759 
L 151.7729 92.446469 
L 151.114021 93.165509 
L 150.520318 93.939237 
L 149.996309 94.761767 
L 149.545982 95.626836 
L 149.172765 96.527863 
L 148.879498 97.457988 
L 148.668412 98.410134 
L 148.541114 99.377055 
L 148.498574 100.35139 
L 148.541114 101.325726 
L 148.668412 102.292646 
L 148.879498 103.244793 
L 149.172765 104.174918 
L 149.545982 105.075945 
L 149.996309 105.941014 
L 150.520318 106.763543 
L 151.114021 107.537272 
L 151.7729 108.256312 
L 152.49194 108.915191 
L 153.265669 109.508894 
L 154.088198 110.032903 
L 154.953267 110.48323 
L 155.854294 110.856447 
L 156.784419 111.149714 
L 157.736566 111.3608 
L 158.703486 111.488098 
L 159.677822 111.530638 
L 160.652157 111.488098 
L 161.619078 111.3608 
L 162.571224 111.149714 
L 163.501349 110.856447 
L 164.402376 110.48323 
L 165.267445 110.032903 
L 166.089975 109.508894 
L 166.863703 108.915191 
L 167.582743 108.256312 
L 168.241622 107.537272 
L 168.835325 106.763543 
L 169.359334 105.941014 
L 169.809661 105.075945 
L 170.182878 104.174918 
L 170.476146 103.244793 
L 170.687231 102.292646 
L 170.814529 101.325726 
L 170.857069 100.35139 
z
" clip-path="url(#p9717fc1e5f)" style="fill: #f03f37; stroke: #262626"/>
    <path d="M 99.896864 100.162278 
L 100.345237 100.769786 
L 100.95756 101.222457 
L 101.684226 101.483618 
L 102.466366 101.532113 
L 103.240615 101.364011 
L 103.944248 100.992933 
L 104.520261 100.448939 
L 104.921988 99.776102 
L 105.116884 99.028931 
L 105.089161 98.267956 
L 104.841062 97.554828 
L 100.186099 88.728171 
L 99.737726 88.120663 
L 99.125403 87.667992 
L 98.398736 87.40683 
L 97.616596 87.358335 
L 96.842347 87.526437 
L 96.138714 87.897516 
L 95.562702 88.441509 
L 95.160974 89.114346 
L 94.966078 89.861518 
L 94.993802 90.622492 
L 95.2419 91.33562 
z
" clip-path="url(#p9717fc1e5f)" style="fill: #808080; stroke: #262626"/>
    <path d="M 107.194812 115.835994 
L 107.081602 115.612039 
L 106.751145 115.406227 
L 106.230213 115.235233 
L 105.561007 115.112908 
L 104.797743 115.049164 
L 104.002257 115.049164 
L 103.238993 115.112908 
L 102.569787 115.235233 
L 102.048855 115.406227 
L 101.718398 115.612039 
L 101.605188 115.835994 
L 101.605188 145.920172 
L 101.718398 146.144129 
L 102.048855 146.349942 
L 102.569787 146.520937 
L 103.238993 146.643262 
L 104.002257 146.707007 
L 104.797743 146.707007 
L 105.561007 146.643262 
L 106.230213 146.520937 
L 106.751145 146.349942 
L 107.081602 146.144129 
L 107.194812 145.920172 
z
" clip-path="url(#p9717fc1e5f)" style="fill: #808080; stroke: #262626"/>
    <path d="M 117.821116 99.339814 
L 117.714066 99.457694 
L 117.625339 99.792237 
L 117.562125 100.316341 
L 117.529543 100.987545 
L 117.530235 101.751474 
L 117.564142 102.546237 
L 117.62852 103.307449 
L 117.718152 103.973439 
L 117.825776 104.490254 
L 117.942674 104.816024 
L 118.059375 104.924358 
L 149.09245 103.60036 
L 149.199502 103.48248 
L 149.28823 103.147937 
L 149.351446 102.623833 
L 149.384028 101.952629 
L 149.383337 101.1887 
L 149.349429 100.393937 
L 149.285051 99.632726 
L 149.195419 98.966735 
L 149.087793 98.44992 
L 148.970894 98.12415 
L 148.854191 98.015817 
z
" clip-path="url(#p9717fc1e5f)" style="fill: #808080; stroke: #262626"/>
    <path d="M 118.374059 102.709769 
L 118.320884 101.491849 
L 118.161762 100.283199 
L 117.897905 99.093016 
L 117.531321 97.930359 
L 117.064799 96.804076 
L 116.50189 95.722739 
L 115.846879 94.694577 
L 115.104751 93.727416 
L 114.281152 92.828616 
L 113.382352 92.005018 
L 112.415191 91.262889 
L 111.38703 90.607878 
L 110.305693 90.04497 
L 109.17941 89.578448 
L 108.016753 89.211864 
L 106.82657 88.948006 
L 105.61792 88.788885 
L 104.4 88.735709 
L 103.18208 88.788885 
L 101.97343 88.948006 
L 100.783247 89.211864 
L 99.62059 89.578448 
L 98.494307 90.04497 
L 97.41297 90.607878 
L 96.384809 91.262889 
L 95.417648 92.005018 
L 94.518848 92.828616 
L 93.695249 93.727416 
L 92.953121 94.694577 
L 92.29811 95.722739 
L 91.735201 96.804076 
L 91.268679 97.930359 
L 90.902095 99.093016 
L 90.638238 100.283199 
L 90.479116 101.491849 
L 90.425941 102.709769 
L 90.479116 103.927688 
L 90.638238 105.136338 
L 90.902095 106.326521 
L 91.268679 107.489178 
L 91.735201 108.615461 
L 92.29811 109.696798 
L 92.953121 110.72496 
L 93.695249 111.692121 
L 94.518848 112.590921 
L 95.417648 113.414519 
L 96.384809 114.156648 
L 97.41297 114.811659 
L 98.494307 115.374567 
L 99.62059 115.841089 
L 100.783247 116.207673 
L 101.97343 116.471531 
L 103.18208 116.630652 
L 104.4 116.683828 
L 105.61792 116.630652 
L 106.82657 116.471531 
L 108.016753 116.207673 
L 109.17941 115.841089 
L 110.305693 115.374567 
L 111.38703 114.811659 
L 112.415191 114.156648 
L 113.382352 113.414519 
L 114.281152 112.590921 
L 115.104751 111.692121 
L 115.846879 110.72496 
L 116.50189 109.696798 
L 117.064799 108.615461 
L 117.531321 107.489178 
L 117.897905 106.326521 
L 118.161762 105.136338 
L 118.320884 103.927688 
L 118.374059 102.709769 
z
" clip-path="url(#p9717fc1e5f)" style="fill: #477b9d; stroke: #262626"/>
    <path d="M 90.978884 106.079723 
L 91.085934 105.961843 
L 91.174661 105.6273 
L 91.237875 105.103196 
L 91.270457 104.431992 
L 91.269765 103.668063 
L 91.235858 102.8733 
L 91.17148 102.112088 
L 91.081848 101.446098 
L 90.974224 100.929283 
L 90.857326 100.603513 
L 90.740625 100.495179 
L 59.707556 101.819177 
L 59.600507 101.937056 
L 59.511782 102.271599 
L 59.448569 102.795703 
L 59.415988 103.466908 
L 59.41668 104.230836 
L 59.450588 105.025599 
L 59.514965 105.786811 
L 59.604596 106.452801 
L 59.712219 106.969616 
L 59.829115 107.295387 
L 59.945815 107.40372 
z
" clip-path="url(#p9717fc1e5f)" style="fill: #808080; stroke: #262626"/>
    <path d="M 60.301426 105.068147 
L 60.258886 104.093811 
L 60.131588 103.126891 
L 59.920502 102.174744 
L 59.627235 101.244619 
L 59.254018 100.343592 
L 58.803691 99.478523 
L 58.279682 98.655994 
L 57.685979 97.882265 
L 57.0271 97.163225 
L 56.30806 96.504346 
L 55.534331 95.910643 
L 54.711802 95.386634 
L 53.846733 94.936307 
L 52.945706 94.56309 
L 52.015581 94.269823 
L 51.063434 94.058737 
L 50.096514 93.931439 
L 49.122178 93.888899 
L 48.147843 93.931439 
L 47.180922 94.058737 
L 46.228776 94.269823 
L 45.298651 94.56309 
L 44.397624 94.936307 
L 43.532555 95.386634 
L 42.710025 95.910643 
L 41.936297 96.504346 
L 41.217257 97.163225 
L 40.558378 97.882265 
L 39.964675 98.655994 
L 39.440666 99.478523 
L 38.990339 100.343592 
L 38.617122 101.244619 
L 38.323854 102.174744 
L 38.112769 103.126891 
L 37.985471 104.093811 
L 37.942931 105.068147 
L 37.985471 106.042482 
L 38.112769 107.009403 
L 38.323854 107.961549 
L 38.617122 108.891674 
L 38.990339 109.792701 
L 39.440666 110.65777 
L 39.964675 111.4803 
L 40.558378 112.254028 
L 41.217257 112.973068 
L 41.936297 113.631947 
L 42.710025 114.22565 
L 43.532555 114.749659 
L 44.397624 115.199986 
L 45.298651 115.573203 
L 46.228776 115.866471 
L 47.180922 116.077556 
L 48.147843 116.204854 
L 49.122178 116.247394 
L 50.096514 116.204854 
L 51.063434 116.077556 
L 52.015581 115.866471 
L 52.945706 115.573203 
L 53.846733 115.199986 
L 54.711802 114.749659 
L 55.534331 114.22565 
L 56.30806 113.631947 
L 57.0271 112.973068 
L 57.685979 112.254028 
L 58.279682 111.4803 
L 58.803691 110.65777 
L 59.254018 109.792701 
L 59.627235 108.891674 
L 59.920502 107.961549 
L 60.131588 107.009403 
L 60.258886 106.042482 
L 60.301426 105.068147 
z
" clip-path="url(#p9717fc1e5f)" style="fill: #f03f37; stroke: #262626"/>
    <path d="M 101.605188 89.583543 
L 101.718398 89.807498 
L 102.048855 90.01331 
L 102.569787 90.184304 
L 103.238993 90.306629 
L 104.002257 90.370373 
L 104.797743 90.370373 
L 105.561007 90.306629 
L 106.230213 90.184304 
L 106.751145 90.01331 
L 107.081602 89.807498 
L 107.194812 89.583543 
L 107.194812 59.499377 
L 107.081602 59.275423 
L 106.751145 59.069613 
L 106.230213 58.898619 
L 105.561007 58.776296 
L 104.797743 58.712552 
L 104.002257 58.712552 
L 103.238993 58.776296 
L 102.569787 58.898619 
L 102.048855 59.069613 
L 101.718398 59.275423 
L 101.605188 59.499377 
z
" clip-path="url(#p9717fc1e5f)" style="fill: #808080; stroke: #262626"/>
    <path d="M 115.579248 49.122178 
L 115.536707 48.147843 
L 115.40941 47.180922 
L 115.198324 46.228776 
L 114.905056 45.298651 
L 114.531839 44.397624 
L 114.081512 43.532555 
L 113.557504 42.710025 
L 112.9638 41.936297 
L 112.304922 41.217257 
L 111.585882 40.558378 
L 110.812153 39.964675 
L 109.989624 39.440666 
L 109.124554 38.990339 
L 108.223528 38.617122 
L 107.293402 38.323854 
L 106.341256 38.112769 
L 105.374336 37.985471 
L 104.4 37.942931 
L 103.425664 37.985471 
L 102.458744 38.112769 
L 101.506598 38.323854 
L 100.576472 38.617122 
L 99.675446 38.990339 
L 98.810376 39.440666 
L 97.987847 39.964675 
L 97.214118 40.558378 
L 96.495078 41.217257 
L 95.8362 41.936297 
L 95.242496 42.710025 
L 94.718488 43.532555 
L 94.268161 44.397624 
L 93.894944 45.298651 
L 93.601676 46.228776 
L 93.39059 47.180922 
L 93.263293 48.147843 
L 93.220752 49.122178 
L 93.263293 50.096514 
L 93.39059 51.063434 
L 93.601676 52.015581 
L 93.894944 52.945706 
L 94.268161 53.846733 
L 94.718488 54.711802 
L 95.242496 55.534331 
L 95.8362 56.30806 
L 96.495078 57.0271 
L 97.214118 57.685979 
L 97.987847 58.279682 
L 98.810376 58.803691 
L 99.675446 59.254018 
L 100.576472 59.627235 
L 101.506598 59.920502 
L 102.458744 60.131588 
L 103.425664 60.258886 
L 104.4 60.301426 
L 105.374336 60.258886 
L 106.341256 60.131588 
L 107.293402 59.920502 
L 108.223528 59.627235 
L 109.124554 59.254018 
L 109.989624 58.803691 
L 110.812153 58.279682 
L 111.585882 57.685979 
L 112.304922 57.0271 
L 112.9638 56.30806 
L 113.557504 55.534331 
L 114.081512 54.711802 
L 114.531839 53.846733 
L 114.905056 52.945706 
L 115.198324 52.015581 
L 115.40941 51.063434 
L 115.536707 50.096514 
L 115.579248 49.122178 
z
" clip-path="url(#p9717fc1e5f)" style="fill: #f03f37; stroke: #262626"/>
    <path d="M 108.903136 105.257259 
L 108.454763 104.649751 
L 107.84244 104.19708 
L 107.115774 103.935919 
L 106.333634 103.887424 
L 105.559385 104.055526 
L 104.855752 104.426604 
L 104.279739 104.970598 
L 103.878012 105.643435 
L 103.683116 106.390606 
L 103.710839 107.151581 
L 103.958938 107.864709 
L 108.613895 116.691355 
L 109.062268 117.298862 
L 109.674591 117.751533 
L 110.401258 118.012695 
L 111.183397 118.061189 
L 111.957646 117.893088 
L 112.661279 117.522009 
L 113.237292 116.978015 
L 113.639019 116.305178 
L 113.833916 115.558007 
L 113.806192 114.797033 
L 113.558094 114.083905 
z
" clip-path="url(#p9717fc1e5f)" style="fill: #808080; stroke: #262626"/>
    <path d="M 123.870921 118.432289 
L 123.82838 117.457953 
L 123.701083 116.491033 
L 123.489997 115.538887 
L 123.19673 114.608761 
L 122.823512 113.707735 
L 122.373186 112.842665 
L 121.849177 112.020136 
L 121.255474 111.246407 
L 120.596595 110.527367 
L 119.877555 109.868488 
L 119.103826 109.274785 
L 118.281297 108.750776 
L 117.416227 108.30045 
L 116.515201 107.927232 
L 115.585075 107.633965 
L 114.632929 107.422879 
L 113.666009 107.295582 
L 112.691673 107.253041 
L 111.717338 107.295582 
L 110.750417 107.422879 
L 109.798271 107.633965 
L 108.868145 107.927232 
L 107.967119 108.30045 
L 107.102049 108.750776 
L 106.27952 109.274785 
L 105.505791 109.868488 
L 104.786751 110.527367 
L 104.127873 111.246407 
L 103.53417 112.020136 
L 103.010161 112.842665 
L 102.559834 113.707735 
L 102.186617 114.608761 
L 101.893349 115.538887 
L 101.682264 116.491033 
L 101.554966 117.457953 
L 101.512426 118.432289 
L 101.554966 119.406624 
L 101.682264 120.373545 
L 101.893349 121.325691 
L 102.186617 122.255817 
L 102.559834 123.156843 
L 103.010161 124.021913 
L 103.53417 124.844442 
L 104.127873 125.618171 
L 104.786751 126.337211 
L 105.505791 126.996089 
L 106.27952 127.589792 
L 107.102049 128.113801 
L 107.967119 128.564128 
L 108.868145 128.937345 
L 109.798271 129.230613 
L 110.750417 129.441699 
L 111.717338 129.568996 
L 112.691673 129.611536 
L 113.666009 129.568996 
L 114.632929 129.441699 
L 115.585075 129.230613 
L 116.515201 128.937345 
L 117.416227 128.564128 
L 118.281297 128.113801 
L 119.103826 127.589792 
L 119.877555 126.996089 
L 120.596595 126.337211 
L 121.255474 125.618171 
L 121.849177 124.844442 
L 122.373186 124.021913 
L 122.823512 123.156843 
L 123.19673 122.255817 
L 123.489997 121.325691 
L 123.701083 120.373545 
L 123.82838 119.406624 
L 123.870921 118.432289 
z
" clip-path="url(#p9717fc1e5f)" style="fill: #f03f37; stroke: #262626"/>
   </g>
  </g>
 </g>
 <defs>
  <clipPath id="p9717fc1e5f">
   <rect x="7.2" y="7.2" width="194.4" height="191.019537"/>
  </clipPath>
 </defs>
</svg>
