<?xml version="1.0" encoding="utf-8" standalone="no"?>
<!DOCTYPE svg PUBLIC "-//W3C//DTD SVG 1.1//EN"
  "http://www.w3.org/Graphics/SVG/1.1/DTD/svg11.dtd">
<svg xmlns:xlink="http://www.w3.org/1999/xlink" width="208.8pt" height="208.8pt" viewBox="0 0 208.8 208.8" xmlns="http://www.w3.org/2000/svg" version="1.1">
 <metadata>
  <rdf:RDF xmlns:dc="http://purl.org/dc/elements/1.1/" xmlns:cc="http://creativecommons.org/ns#" xmlns:rdf="http://www.w3.org/1999/02/22-rdf-syntax-ns#">
   <cc:Work>
    <dc:type rdf:resource="http://purl.org/dc/dcmitype/StillImage"/>
    <dc:date>2026-02-16T17:45:25.803591</dc:date>
    <dc:format>image/svg+xml</dc:format>
    <dc:creator>
     <cc:Agent>
      <dc:title>Matplotlib v3.10.7, https://matplotlib.org/</dc:title>
     </cc:Agent>
    </dc:creator>
   </cc:Work>
  </rdf:RDF>
 </metadata>
 <defs>
  <style type="text/css">*{stroke-linejoin: round; stroke-linecap: butt}</style>
 </defs>
 <g id="figure_1">
  <g id="patch_1">
   <path d="M 0 208.8 
L 208.8 208.8 
L 208.8 0 
L 0 0 
z
" style="fill: #ffffff"/>
  </g>
  <g id="axes_1">
   <g id="PolyCollection_1">
    <path d="M 159.677822 102.041622 
L 104.4 157.98759 
L 96.108327 88.67748 
z
" clip-path="url(#p94381ea2d0)" style="fill: #709cdf; fill-opacity: 0.8; stroke: #262626"/>
    <path d="M 49.122178 106.758378 
L 104.4 157.98759 
L 96.108327 88.67748 
z
" clip-path="url(#p94381ea2d0)" style="fill: #638bc6; fill-opacity: 0.8; stroke: #262626"/>
    <path d="M 104.4 50.81241 
L 159.677822 102.041622 
L 96.108327 88.67748 
z
" clip-path="url(#p94381ea2d0)" style="fill: #5779ad; fill-opacity: 0.8; stroke: #262626"/>
    <path d="M 104.4 50.81241 
L 49.122178 106.758378 
L 96.108327 88.67748 
z
" clip-path="url(#p94381ea2d0)" style="fill: #4a6894; fill-opacity: 0.8; stroke: #262626"/>
    <path d="M 107.287574 88.67748 
L 107.245034 87.703144 
L 107.117736 86.736224 
L 106.906651 85.784077 
L 106.613383 84.853952 
L 106.240166 83.952925 
L 105.789839 83.087856 
L 105.26583 82.265327 
L 104.672127 81.491598 
L 104.013249 80.772558 
L 103.294209 80.113679 
L 102.52048 79.519976 
L 101.697951 78.995967 
L 100.832881 78.545641 
L 99.931855 78.172423 
L 99.001729 77.879156 
L 98.049583 77.66807 
L 97.082662 77.540773 
L 96.108327 77.498232 
L 95.133991 77.540773 
L 94.167071 77.66807 
L 93.214925 77.879156 
L 92.284799 78.172423 
L 91.383773 78.545641 
L 90.518703 78.995967 
L 89.696174 79.519976 
L 88.922445 80.113679 
L 88.203405 80.772558 
L 87.544526 81.491598 
L 86.950823 82.265327 
L 86.426814 83.087856 
L 85.976488 83.952925 
L 85.60327 84.853952 
L 85.310003 85.784077 
L 85.098917 86.736224 
L 84.97162 87.703144 
L 84.929079 88.67748 
L 84.97162 89.651815 
L 85.098917 90.618736 
L 85.310003 91.570882 
L 85.60327 92.501008 
L 85.976488 93.402034 
L 86.426814 94.267103 
L 86.950823 95.089633 
L 87.544526 95.863361 
L 88.203405 96.582401 
L 88.922445 97.24128 
L 89.696174 97.834983 
L 90.518703 98.358992 
L 91.383773 98.809319 
L 92.284799 99.182536 
L 93.214925 99.475804 
L 94.167071 99.686889 
L 95.133991 99.814187 
L 96.108327 99.856727 
L 97.082662 99.814187 
L 98.049583 99.686889 
L 99.001729 99.475804 
L 99.931855 99.182536 
L 100.832881 98.809319 
L 101.697951 98.358992 
L 102.52048 97.834983 
L 103.294209 97.24128 
L 104.013249 96.582401 
L 104.672127 95.863361 
L 105.26583 95.089633 
L 105.789839 94.267103 
L 106.240166 93.402034 
L 106.613383 92.501008 
L 106.906651 91.570882 
L 107.117736 90.618736 
L 107.245034 89.651815 
L 107.287574 88.67748 
z
" clip-path="url(#p94381ea2d0)" style="fill: #e61a1a; stroke: #262626"/>
    <path d="M 118.374059 104.4 
L 118.320884 103.18208 
L 118.161762 101.97343 
L 117.897905 100.783247 
L 117.531321 99.62059 
L 117.064799 98.494307 
L 116.50189 97.41297 
L 115.846879 96.384809 
L 115.104751 95.417648 
L 114.281152 94.518848 
L 113.382352 93.695249 
L 112.415191 92.953121 
L 111.38703 92.29811 
L 110.305693 91.735201 
L 109.17941 91.268679 
L 108.016753 90.902095 
L 106.82657 90.638238 
L 105.61792 90.479116 
L 104.4 90.425941 
L 103.18208 90.479116 
L 101.97343 90.638238 
L 100.783247 90.902095 
L 99.62059 91.268679 
L 98.494307 91.735201 
L 97.41297 92.29811 
L 96.384809 92.953121 
L 95.417648 93.695249 
L 94.518848 94.518848 
L 93.695249 95.417648 
L 92.953121 96.384809 
L 92.29811 97.41297 
L 91.735201 98.494307 
L 91.268679 99.62059 
L 90.902095 100.783247 
L 90.638238 101.97343 
L 90.479116 103.18208 
L 90.425941 104.4 
L 90.479116 105.61792 
L 90.638238 106.82657 
L 90.902095 108.016753 
L 91.268679 109.17941 
L 91.735201 110.305693 
L 92.29811 111.38703 
L 92.953121 112.415191 
L 93.695249 113.382352 
L 94.518848 114.281152 
L 95.417648 115.104751 
L 96.384809 115.846879 
L 97.41297 116.50189 
L 98.494307 117.064799 
L 99.62059 117.531321 
L 100.783247 117.897905 
L 101.97343 118.161762 
L 103.18208 118.320884 
L 104.4 118.374059 
L 105.61792 118.320884 
L 106.82657 118.161762 
L 108.016753 117.897905 
L 109.17941 117.531321 
L 110.305693 117.064799 
L 111.38703 116.50189 
L 112.415191 115.846879 
L 113.382352 115.104751 
L 114.281152 114.281152 
L 115.104751 113.382352 
L 115.846879 112.415191 
L 116.50189 111.38703 
L 117.064799 110.305693 
L 117.531321 109.17941 
L 117.897905 108.016753 
L 118.161762 106.82657 
L 118.320884 105.61792 
L 118.374059 104.4 
z
" clip-path="url(#p94381ea2d0)" style="fill: #3366e6; stroke: #262626"/>
    <path d="M 159.677822 102.041622 
L 104.4 157.98759 
L 112.691673 120.12252 
z
" clip-path="url(#p94381ea2d0)" style="fill: #4a6894; fill-opacity: 0.8; stroke: #262626"/>
    <path d="M 49.122178 106.758378 
L 104.4 157.98759 
L 112.691673 120.12252 
z
" clip-path="url(#p94381ea2d0)" style="fill: #5779ad; fill-opacity: 0.8; stroke: #262626"/>
    <path d="M 115.579248 157.98759 
L 115.536707 157.013254 
L 115.40941 156.046334 
L 115.198324 155.094188 
L 114.905056 154.164062 
L 114.531839 153.263036 
L 114.081512 152.397966 
L 113.557504 151.575437 
L 112.9638 150.801708 
L 112.304922 150.082668 
L 111.585882 149.42379 
L 110.812153 148.830087 
L 109.989624 148.306078 
L 109.124554 147.855751 
L 108.223528 147.482534 
L 107.293402 147.189266 
L 106.341256 146.97818 
L 105.374336 146.850883 
L 104.4 146.808343 
L 103.425664 146.850883 
L 102.458744 146.97818 
L 101.506598 147.189266 
L 100.576472 147.482534 
L 99.675446 147.855751 
L 98.810376 148.306078 
L 97.987847 148.830087 
L 97.214118 149.42379 
L 96.495078 150.082668 
L 95.8362 150.801708 
L 95.242496 151.575437 
L 94.718488 152.397966 
L 94.268161 153.263036 
L 93.894944 154.164062 
L 93.601676 155.094188 
L 93.39059 156.046334 
L 93.263293 157.013254 
L 93.220752 157.98759 
L 93.263293 158.961926 
L 93.39059 159.928846 
L 93.601676 160.880992 
L 93.894944 161.811118 
L 94.268161 162.712144 
L 94.718488 163.577214 
L 95.242496 164.399743 
L 95.8362 165.173472 
L 96.495078 165.892512 
L 97.214118 166.551391 
L 97.987847 167.145094 
L 98.810376 167.669103 
L 99.675446 168.119429 
L 100.576472 168.492647 
L 101.506598 168.785914 
L 102.458744 168.997 
L 103.425664 169.124297 
L 104.4 169.166838 
L 105.374336 169.124297 
L 106.341256 168.997 
L 107.293402 168.785914 
L 108.223528 168.492647 
L 109.124554 168.119429 
L 109.989624 167.669103 
L 110.812153 167.145094 
L 111.585882 166.551391 
L 112.304922 165.892512 
L 112.9638 165.173472 
L 113.557504 164.399743 
L 114.081512 163.577214 
L 114.531839 162.712144 
L 114.905056 161.811118 
L 115.198324 160.880992 
L 115.40941 159.928846 
L 115.536707 158.961926 
L 115.579248 157.98759 
z
" clip-path="url(#p94381ea2d0)" style="fill: #e61a1a; stroke: #262626"/>
    <path d="M 104.4 50.81241 
L 159.677822 102.041622 
L 112.691673 120.12252 
z
" clip-path="url(#p94381ea2d0)" style="fill: #638bc6; fill-opacity: 0.8; stroke: #262626"/>
    <path d="M 104.4 50.81241 
L 49.122178 106.758378 
L 112.691673 120.12252 
z
" clip-path="url(#p94381ea2d0)" style="fill: #709cdf; fill-opacity: 0.8; stroke: #262626"/>
    <path d="M 170.857069 102.041622 
L 170.814529 101.067286 
L 170.687231 100.100366 
L 170.476146 99.14822 
L 170.182878 98.218094 
L 169.809661 97.317068 
L 169.359334 96.451998 
L 168.835325 95.629469 
L 168.241622 94.85574 
L 167.582743 94.1367 
L 166.863703 93.477821 
L 166.089975 92.884118 
L 165.267445 92.36011 
L 164.402376 91.909783 
L 163.501349 91.536566 
L 162.571224 91.243298 
L 161.619078 91.032212 
L 160.652157 90.904915 
L 159.677822 90.862374 
L 158.703486 90.904915 
L 157.736566 91.032212 
L 156.784419 91.243298 
L 155.854294 91.536566 
L 154.953267 91.909783 
L 154.088198 92.36011 
L 153.265669 92.884118 
L 152.49194 93.477821 
L 151.7729 94.1367 
L 151.114021 94.85574 
L 150.520318 95.629469 
L 149.996309 96.451998 
L 149.545982 97.317068 
L 149.172765 98.218094 
L 148.879498 99.14822 
L 148.668412 100.100366 
L 148.541114 101.067286 
L 148.498574 102.041622 
L 148.541114 103.015958 
L 148.668412 103.982878 
L 148.879498 104.935024 
L 149.172765 105.86515 
L 149.545982 106.766176 
L 149.996309 107.631246 
L 150.520318 108.453775 
L 151.114021 109.227504 
L 151.7729 109.946544 
L 152.49194 110.605422 
L 153.265669 111.199125 
L 154.088198 111.723134 
L 154.953267 112.173461 
L 155.854294 112.546678 
L 156.784419 112.839946 
L 157.736566 113.051032 
L 158.703486 113.178329 
L 159.677822 113.22087 
L 160.652157 113.178329 
L 161.619078 113.051032 
L 162.571224 112.839946 
L 163.501349 112.546678 
L 164.402376 112.173461 
L 165.267445 111.723134 
L 166.089975 111.199125 
L 166.863703 110.605422 
L 167.582743 109.946544 
L 168.241622 109.227504 
L 168.835325 108.453775 
L 169.359334 107.631246 
L 169.809661 106.766176 
L 170.182878 105.86515 
L 170.476146 104.935024 
L 170.687231 103.982878 
L 170.814529 103.015958 
L 170.857069 102.041622 
z
" clip-path="url(#p94381ea2d0)" style="fill: #e61a1a; stroke: #262626"/>
    <path d="M 60.301426 106.758378 
L 60.258886 105.784042 
L 60.131588 104.817122 
L 59.920502 103.864976 
L 59.627235 102.93485 
L 59.254018 102.033824 
L 58.803691 101.168754 
L 58.279682 100.346225 
L 57.685979 99.572496 
L 57.0271 98.853456 
L 56.30806 98.194578 
L 55.534331 97.600875 
L 54.711802 97.076866 
L 53.846733 96.626539 
L 52.945706 96.253322 
L 52.015581 95.960054 
L 51.063434 95.748968 
L 50.096514 95.621671 
L 49.122178 95.57913 
L 48.147843 95.621671 
L 47.180922 95.748968 
L 46.228776 95.960054 
L 45.298651 96.253322 
L 44.397624 96.626539 
L 43.532555 97.076866 
L 42.710025 97.600875 
L 41.936297 98.194578 
L 41.217257 98.853456 
L 40.558378 99.572496 
L 39.964675 100.346225 
L 39.440666 101.168754 
L 38.990339 102.033824 
L 38.617122 102.93485 
L 38.323854 103.864976 
L 38.112769 104.817122 
L 37.985471 105.784042 
L 37.942931 106.758378 
L 37.985471 107.732714 
L 38.112769 108.699634 
L 38.323854 109.65178 
L 38.617122 110.581906 
L 38.990339 111.482932 
L 39.440666 112.348002 
L 39.964675 113.170531 
L 40.558378 113.94426 
L 41.217257 114.6633 
L 41.936297 115.322179 
L 42.710025 115.915882 
L 43.532555 116.43989 
L 44.397624 116.890217 
L 45.298651 117.263434 
L 46.228776 117.556702 
L 47.180922 117.767788 
L 48.147843 117.895085 
L 49.122178 117.937626 
L 50.096514 117.895085 
L 51.063434 117.767788 
L 52.015581 117.556702 
L 52.945706 117.263434 
L 53.846733 116.890217 
L 54.711802 116.43989 
L 55.534331 115.915882 
L 56.30806 115.322179 
L 57.0271 114.6633 
L 57.685979 113.94426 
L 58.279682 113.170531 
L 58.803691 112.348002 
L 59.254018 111.482932 
L 59.627235 110.581906 
L 59.920502 109.65178 
L 60.131588 108.699634 
L 60.258886 107.732714 
L 60.301426 106.758378 
z
" clip-path="url(#p94381ea2d0)" style="fill: #e61a1a; stroke: #262626"/>
    <path d="M 115.579248 50.81241 
L 115.536707 49.838074 
L 115.40941 48.871154 
L 115.198324 47.919008 
L 114.905056 46.988882 
L 114.531839 46.087856 
L 114.081512 45.222786 
L 113.557504 44.400257 
L 112.9638 43.626528 
L 112.304922 42.907488 
L 111.585882 42.248609 
L 110.812153 41.654906 
L 109.989624 41.130897 
L 109.124554 40.680571 
L 108.223528 40.307353 
L 107.293402 40.014086 
L 106.341256 39.803 
L 105.374336 39.675703 
L 104.4 39.633162 
L 103.425664 39.675703 
L 102.458744 39.803 
L 101.506598 40.014086 
L 100.576472 40.307353 
L 99.675446 40.680571 
L 98.810376 41.130897 
L 97.987847 41.654906 
L 97.214118 42.248609 
L 96.495078 42.907488 
L 95.8362 43.626528 
L 95.242496 44.400257 
L 94.718488 45.222786 
L 94.268161 46.087856 
L 93.894944 46.988882 
L 93.601676 47.919008 
L 93.39059 48.871154 
L 93.263293 49.838074 
L 93.220752 50.81241 
L 93.263293 51.786746 
L 93.39059 52.753666 
L 93.601676 53.705812 
L 93.894944 54.635938 
L 94.268161 55.536964 
L 94.718488 56.402034 
L 95.242496 57.224563 
L 95.8362 57.998292 
L 96.495078 58.717332 
L 97.214118 59.37621 
L 97.987847 59.969913 
L 98.810376 60.493922 
L 99.675446 60.944249 
L 100.576472 61.317466 
L 101.506598 61.610734 
L 102.458744 61.82182 
L 103.425664 61.949117 
L 104.4 61.991657 
L 105.374336 61.949117 
L 106.341256 61.82182 
L 107.293402 61.610734 
L 108.223528 61.317466 
L 109.124554 60.944249 
L 109.989624 60.493922 
L 110.812153 59.969913 
L 111.585882 59.37621 
L 112.304922 58.717332 
L 112.9638 57.998292 
L 113.557504 57.224563 
L 114.081512 56.402034 
L 114.531839 55.536964 
L 114.905056 54.635938 
L 115.198324 53.705812 
L 115.40941 52.753666 
L 115.536707 51.786746 
L 115.579248 50.81241 
z
" clip-path="url(#p94381ea2d0)" style="fill: #e61a1a; stroke: #262626"/>
    <path d="M 123.870921 120.12252 
L 123.82838 119.148185 
L 123.701083 118.181264 
L 123.489997 117.229118 
L 123.19673 116.298992 
L 122.823512 115.397966 
L 122.373186 114.532897 
L 121.849177 113.710367 
L 121.255474 112.936639 
L 120.596595 112.217599 
L 119.877555 111.55872 
L 119.103826 110.965017 
L 118.281297 110.441008 
L 117.416227 109.990681 
L 116.515201 109.617464 
L 115.585075 109.324196 
L 114.632929 109.113111 
L 113.666009 108.985813 
L 112.691673 108.943273 
L 111.717338 108.985813 
L 110.750417 109.113111 
L 109.798271 109.324196 
L 108.868145 109.617464 
L 107.967119 109.990681 
L 107.102049 110.441008 
L 106.27952 110.965017 
L 105.505791 111.55872 
L 104.786751 112.217599 
L 104.127873 112.936639 
L 103.53417 113.710367 
L 103.010161 114.532897 
L 102.559834 115.397966 
L 102.186617 116.298992 
L 101.893349 117.229118 
L 101.682264 118.181264 
L 101.554966 119.148185 
L 101.512426 120.12252 
L 101.554966 121.096856 
L 101.682264 122.063776 
L 101.893349 123.015923 
L 102.186617 123.946048 
L 102.559834 124.847075 
L 103.010161 125.712144 
L 103.53417 126.534673 
L 104.127873 127.308402 
L 104.786751 128.027442 
L 105.505791 128.686321 
L 106.27952 129.280024 
L 107.102049 129.804033 
L 107.967119 130.254359 
L 108.868145 130.627577 
L 109.798271 130.920844 
L 110.750417 131.13193 
L 111.717338 131.259227 
L 112.691673 131.301768 
L 113.666009 131.259227 
L 114.632929 131.13193 
L 115.585075 130.920844 
L 116.515201 130.627577 
L 117.416227 130.254359 
L 118.281297 129.804033 
L 119.103826 129.280024 
L 119.877555 128.686321 
L 120.596595 128.027442 
L 121.255474 127.308402 
L 121.849177 126.534673 
L 122.373186 125.712144 
L 122.823512 124.847075 
L 123.19673 123.946048 
L 123.489997 123.015923 
L 123.701083 122.063776 
L 123.82838 121.096856 
L 123.870921 120.12252 
z
" clip-path="url(#p94381ea2d0)" style="fill: #e61a1a; stroke: #262626"/>
   </g>
  </g>
 </g>
 <defs>
  <clipPath id="p94381ea2d0">
   <rect x="7.2" y="7.2" width="194.4" height="194.4"/>
  </clipPath>
 </defs>
</svg>
