<?xml version="1.0" encoding="utf-8" standalone="no"?>
<!DOCTYPE svg PUBLIC "-//W3C//DTD SVG 1.1//EN"
  "http://www.w3.org/Graphics/SVG/1.1/DTD/svg11.dtd">
<svg xmlns:xlink="http://www.w3.org/1999/xlink" width="280.8pt" height="271.125195pt" viewBox="0 0 280.8 271.125195" xmlns="http://www.w3.org/2000/svg" version="1.1">
 <metadata>
  <rdf:RDF xmlns:dc="http://purl.org/dc/elements/1.1/" xmlns:cc="http://creativecommons.org/ns#" xmlns:rdf="http://www.w3.org/1999/02/22-rdf-syntax-ns#">
   <cc:Work>
    <dc:type rdf:resource="http://purl.org/dc/dcmitype/StillImage"/>
    <dc:date>2026-02-25T16:16:41.049071</dc:date>
    <dc:format>image/svg+xml</dc:format>
    <dc:creator>
     <cc:Agent>
      <dc:title>Matplotlib v3.10.7, https://matplotlib.org/</dc:title>
     </cc:Agent>
    </dc:creator>
   </cc:Work>
  </rdf:RDF>
 </metadata>
 <defs>
  <style type="text/css">*{stroke-linejoin: round; stroke-linecap: butt}</style>
 </defs>
 <g id="figure_1">
  <g id="patch_1">
   <path d="M 0 271.125195 
L 280.8 271.125195 
L 280.8 0 
L 0 0 
z
" style="fill: #ffffff"/>
  </g>
  <g id="axes_1">
   <g id="PolyCollection_1">
    <path d="M 41.744283 235.277962 
L 174.750074 235.277962 
L 174.750074 235.810762 
L 41.744283 235.810762 
z
" clip-path="url(#p5bc54d1ef0)" style="fill: #4c4c4c"/>
    <path d="M 187.700387 235.277962 
L 239.055717 235.277962 
L 239.055717 235.810762 
L 187.700387 235.810762 
z
" clip-path="url(#p5bc54d1ef0)" style="fill: #4c4c4c"/>
    <path d="M 41.477883 235.544362 
L 41.477883 202.231497 
L 42.010683 202.231497 
L 42.010683 235.544362 
z
" clip-path="url(#p5bc54d1ef0)" style="fill: #4c4c4c"/>
    <path d="M 41.477883 185.766861 
L 41.477883 85.358334 
L 42.010683 85.358334 
L 42.010683 185.766861 
z
" clip-path="url(#p5bc54d1ef0)" style="fill: #4c4c4c"/>
    <path d="M 41.477883 68.893698 
L 41.477883 35.580833 
L 42.010683 35.580833 
L 42.010683 68.893698 
z
" clip-path="url(#p5bc54d1ef0)" style="fill: #4c4c4c"/>
    <path d="M 238.789317 235.544362 
L 238.789317 202.231497 
L 239.322117 202.231497 
L 239.322117 235.544362 
z
" clip-path="url(#p5bc54d1ef0)" style="fill: #4c4c4c"/>
    <path d="M 238.789317 185.766861 
L 238.789317 85.358334 
L 239.322117 85.358334 
L 239.322117 185.766861 
z
" clip-path="url(#p5bc54d1ef0)" style="fill: #4c4c4c"/>
    <path d="M 238.789317 68.893698 
L 238.789317 35.580833 
L 239.322117 35.580833 
L 239.322117 68.893698 
z
" clip-path="url(#p5bc54d1ef0)" style="fill: #4c4c4c"/>
    <path d="M 41.744283 35.314433 
L 93.099613 35.314433 
L 93.099613 35.847233 
L 41.744283 35.847233 
z
" clip-path="url(#p5bc54d1ef0)" style="fill: #4c4c4c"/>
    <path d="M 106.049926 35.314433 
L 239.055717 35.314433 
L 239.055717 35.847233 
L 106.049926 35.847233 
z
" clip-path="url(#p5bc54d1ef0)" style="fill: #4c4c4c"/>
    <path d="M 176.64742 85.364624 
L 176.624172 85.288115 
L 176.556305 85.064787 
L 176.449319 84.712734 
L 176.311881 84.260475 
L 176.155126 83.744651 
L 175.991752 83.20705 
L 175.834995 82.691226 
L 175.697555 82.238968 
L 175.590567 81.886915 
L 175.522697 81.663588 
L 175.499445 81.58708 
L 148.515941 89.787222 
L 148.539192 89.863731 
L 148.607059 90.087058 
L 148.714046 90.439112 
L 148.851485 90.89137 
L 149.008241 91.407194 
L 149.171615 91.944795 
L 149.328371 92.460619 
L 149.46581 92.912878 
L 149.572798 93.264931 
L 149.640666 93.488258 
L 149.663917 93.564767 
z
" clip-path="url(#p5bc54d1ef0)" style="fill: #808080; stroke: #262626"/>
    <path d="M 193.502944 92.617127 
L 193.424222 92.631159 
L 193.194432 92.672123 
L 192.832192 92.736698 
L 192.366848 92.819653 
L 191.836098 92.914269 
L 191.282942 93.01288 
L 190.752193 93.107496 
L 190.286849 93.190453 
L 189.924609 93.255031 
L 189.69482 93.295996 
L 189.616098 93.310031 
L 194.873811 122.803177 
L 194.952533 122.789143 
L 195.182322 122.748179 
L 195.544562 122.683603 
L 196.009907 122.600647 
L 196.540656 122.506031 
L 197.093812 122.40742 
L 197.624561 122.312804 
L 198.089905 122.229848 
L 198.452146 122.165271 
L 198.681935 122.124307 
L 198.760657 122.110273 
z
" clip-path="url(#p5bc54d1ef0)" style="fill: #808080; stroke: #262626"/>
    <path d="M 232.089025 79.473103 
L 232.085303 79.393226 
L 232.074431 79.160068 
L 232.05729 78.792516 
L 232.03527 78.320348 
L 232.010153 77.781817 
L 231.983976 77.22055 
L 231.958858 76.682019 
L 231.936834 76.209851 
L 231.919689 75.8423 
L 231.908812 75.609142 
L 231.905084 75.529265 
L 202.729116 76.890038 
L 202.73284 76.969914 
L 202.743713 77.203073 
L 202.760854 77.570624 
L 202.782876 78.042792 
L 202.807992 78.581323 
L 202.83417 79.14259 
L 202.859288 79.681121 
L 202.88131 80.153289 
L 202.898454 80.52084 
L 202.90933 80.753999 
L 202.913057 80.833875 
z
" clip-path="url(#p5bc54d1ef0)" style="fill: #808080; stroke: #262626"/>
    <path d="M 202.977669 79.499148 
L 202.925085 78.294792 
L 202.767736 77.099601 
L 202.506817 75.922673 
L 202.144315 74.772964 
L 201.682989 73.659224 
L 201.126349 72.589929 
L 200.478633 71.573218 
L 199.744769 70.616827 
L 198.930342 69.728037 
L 198.041552 68.91361 
L 197.085161 68.179746 
L 196.06845 67.53203 
L 194.999155 66.97539 
L 193.885415 66.514064 
L 192.735706 66.151562 
L 191.558778 65.890643 
L 190.363587 65.733294 
L 189.159231 65.68071 
L 187.954875 65.733294 
L 186.759685 65.890643 
L 185.582756 66.151562 
L 184.433047 66.514064 
L 183.319307 66.97539 
L 182.250012 67.53203 
L 181.233301 68.179746 
L 180.276911 68.91361 
L 179.38812 69.728037 
L 178.573694 70.616827 
L 177.83983 71.573218 
L 177.192113 72.589929 
L 176.635473 73.659224 
L 176.174147 74.772964 
L 175.811645 75.922673 
L 175.550726 77.099601 
L 175.393377 78.294792 
L 175.340793 79.499148 
L 175.393377 80.703504 
L 175.550726 81.898694 
L 175.811645 83.075623 
L 176.174147 84.225332 
L 176.635473 85.339072 
L 177.192113 86.408367 
L 177.83983 87.425078 
L 178.573694 88.381468 
L 179.38812 89.270259 
L 180.276911 90.084685 
L 181.233301 90.818549 
L 182.250012 91.466266 
L 183.319307 92.022906 
L 184.433047 92.484232 
L 185.582756 92.846734 
L 186.759685 93.107652 
L 187.954875 93.265002 
L 189.159231 93.317586 
L 190.363587 93.265002 
L 191.558778 93.107652 
L 192.735706 92.846734 
L 193.885415 92.484232 
L 194.999155 92.022906 
L 196.06845 91.466266 
L 197.085161 90.818549 
L 198.041552 90.084685 
L 198.930342 89.270259 
L 199.744769 88.381468 
L 200.478633 87.425078 
L 201.126349 86.408367 
L 201.682989 85.339072 
L 202.144315 84.225332 
L 202.506817 83.075623 
L 202.767736 81.898694 
L 202.925085 80.703504 
L 202.977669 79.499148 
z
" clip-path="url(#p5bc54d1ef0)" style="fill: #8cb5ab; stroke: #262626"/>
    <path d="M 248.332 77.126016 
L 248.30045 76.403402 
L 248.20604 75.686288 
L 248.049488 74.980131 
L 247.831987 74.290306 
L 247.555192 73.622062 
L 247.221208 72.980485 
L 246.832578 72.370458 
L 246.392259 71.796624 
L 245.903604 71.263349 
L 245.370329 70.774694 
L 244.796495 70.334375 
L 244.186468 69.945745 
L 243.544891 69.611761 
L 242.876647 69.334966 
L 242.186822 69.117464 
L 241.480665 68.960913 
L 240.763551 68.866503 
L 240.040937 68.834953 
L 239.318323 68.866503 
L 238.601209 68.960913 
L 237.895052 69.117464 
L 237.205227 69.334966 
L 236.536982 69.611761 
L 235.895406 69.945745 
L 235.285379 70.334375 
L 234.711545 70.774694 
L 234.17827 71.263349 
L 233.689615 71.796624 
L 233.249296 72.370458 
L 232.860666 72.980485 
L 232.526682 73.622062 
L 232.249887 74.290306 
L 232.032385 74.980131 
L 231.875834 75.686288 
L 231.781424 76.403402 
L 231.749874 77.126016 
L 231.781424 77.84863 
L 231.875834 78.565744 
L 232.032385 79.271901 
L 232.249887 79.961726 
L 232.526682 80.62997 
L 232.860666 81.271547 
L 233.249296 81.881574 
L 233.689615 82.455408 
L 234.17827 82.988683 
L 234.711545 83.477338 
L 235.285379 83.917657 
L 235.895406 84.306287 
L 236.536982 84.640271 
L 237.205227 84.917066 
L 237.895052 85.134568 
L 238.601209 85.291119 
L 239.318323 85.385529 
L 240.040937 85.417079 
L 240.763551 85.385529 
L 241.480665 85.291119 
L 242.186822 85.134568 
L 242.876647 84.917066 
L 243.544891 84.640271 
L 244.186468 84.306287 
L 244.796495 83.917657 
L 245.370329 83.477338 
L 245.903604 82.988683 
L 246.392259 82.455408 
L 246.832578 81.881574 
L 247.221208 81.271547 
L 247.555192 80.62997 
L 247.831987 79.961726 
L 248.049488 79.271901 
L 248.20604 78.565744 
L 248.30045 77.84863 
L 248.332 77.126016 
z
" clip-path="url(#p5bc54d1ef0)" style="fill: #facc37; stroke: #262626"/>
    <path d="M 49.050126 193.999179 
L 49.018576 193.276566 
L 48.924166 192.559451 
L 48.767615 191.853294 
L 48.550113 191.163469 
L 48.273318 190.495225 
L 47.939334 189.853648 
L 47.550704 189.243621 
L 47.110385 188.669787 
L 46.62173 188.136513 
L 46.088455 187.647857 
L 45.514621 187.207538 
L 44.904594 186.818908 
L 44.263018 186.484925 
L 43.594773 186.208129 
L 42.904948 185.990628 
L 42.198791 185.834077 
L 41.481677 185.739667 
L 40.759063 185.708117 
L 40.036449 185.739667 
L 39.319335 185.834077 
L 38.613178 185.990628 
L 37.923353 186.208129 
L 37.255109 186.484925 
L 36.613532 186.818908 
L 36.003505 187.207538 
L 35.429671 187.647857 
L 34.896396 188.136513 
L 34.407741 188.669787 
L 33.967422 189.243621 
L 33.578792 189.853648 
L 33.244808 190.495225 
L 32.968013 191.163469 
L 32.750512 191.853294 
L 32.59396 192.559451 
L 32.49955 193.276566 
L 32.468 193.999179 
L 32.49955 194.721793 
L 32.59396 195.438907 
L 32.750512 196.145064 
L 32.968013 196.83489 
L 33.244808 197.503134 
L 33.578792 198.144711 
L 33.967422 198.754737 
L 34.407741 199.328572 
L 34.896396 199.861846 
L 35.429671 200.350502 
L 36.003505 200.79082 
L 36.613532 201.17945 
L 37.255109 201.513434 
L 37.923353 201.79023 
L 38.613178 202.007731 
L 39.319335 202.164282 
L 40.036449 202.258692 
L 40.759063 202.290242 
L 41.481677 202.258692 
L 42.198791 202.164282 
L 42.904948 202.007731 
L 43.594773 201.79023 
L 44.263018 201.513434 
L 44.904594 201.17945 
L 45.514621 200.79082 
L 46.088455 200.350502 
L 46.62173 199.861846 
L 47.110385 199.328572 
L 47.550704 198.754737 
L 47.939334 198.144711 
L 48.273318 197.503134 
L 48.550113 196.83489 
L 48.767615 196.145064 
L 48.924166 195.438907 
L 49.018576 194.721793 
L 49.050126 193.999179 
z
" clip-path="url(#p5bc54d1ef0)" style="fill: #facc37; stroke: #262626"/>
    <path d="M 107.865832 40.759063 
L 107.834282 40.036449 
L 107.739872 39.319335 
L 107.583321 38.613178 
L 107.36582 37.923353 
L 107.089024 37.255109 
L 106.75504 36.613532 
L 106.36641 36.003505 
L 105.926092 35.429671 
L 105.437436 34.896396 
L 104.904162 34.407741 
L 104.330327 33.967422 
L 103.720301 33.578792 
L 103.078724 33.244808 
L 102.41048 32.968013 
L 101.720654 32.750512 
L 101.014497 32.59396 
L 100.297383 32.49955 
L 99.574769 32.468 
L 98.852155 32.49955 
L 98.135041 32.59396 
L 97.428884 32.750512 
L 96.739059 32.968013 
L 96.070815 33.244808 
L 95.429238 33.578792 
L 94.819211 33.967422 
L 94.245377 34.407741 
L 93.712103 34.896396 
L 93.223447 35.429671 
L 92.783128 36.003505 
L 92.394498 36.613532 
L 92.060515 37.255109 
L 91.783719 37.923353 
L 91.566218 38.613178 
L 91.409666 39.319335 
L 91.315257 40.036449 
L 91.283707 40.759063 
L 91.315257 41.481677 
L 91.409666 42.198791 
L 91.566218 42.904948 
L 91.783719 43.594773 
L 92.060515 44.263018 
L 92.394498 44.904594 
L 92.783128 45.514621 
L 93.223447 46.088455 
L 93.712103 46.62173 
L 94.245377 47.110385 
L 94.819211 47.550704 
L 95.429238 47.939334 
L 96.070815 48.273318 
L 96.739059 48.550113 
L 97.428884 48.767615 
L 98.135041 48.924166 
L 98.852155 49.018576 
L 99.574769 49.050126 
L 100.297383 49.018576 
L 101.014497 48.924166 
L 101.720654 48.767615 
L 102.41048 48.550113 
L 103.078724 48.273318 
L 103.720301 47.939334 
L 104.330327 47.550704 
L 104.904162 47.110385 
L 105.437436 46.62173 
L 105.926092 46.088455 
L 106.36641 45.514621 
L 106.75504 44.904594 
L 107.089024 44.263018 
L 107.36582 43.594773 
L 107.583321 42.904948 
L 107.739872 42.198791 
L 107.834282 41.481677 
L 107.865832 40.759063 
z
" clip-path="url(#p5bc54d1ef0)" style="fill: #facc37; stroke: #262626"/>
    <path d="M 90.860576 140.740828 
L 90.829026 140.018214 
L 90.734616 139.3011 
L 90.578065 138.594943 
L 90.360564 137.905117 
L 90.083768 137.236873 
L 89.749784 136.595297 
L 89.361154 135.98527 
L 88.920836 135.411436 
L 88.43218 134.878161 
L 87.898906 134.389505 
L 87.325072 133.949187 
L 86.715045 133.560557 
L 86.073468 133.226573 
L 85.405224 132.949777 
L 84.715398 132.732276 
L 84.009241 132.575725 
L 83.292127 132.481315 
L 82.569514 132.449765 
L 81.8469 132.481315 
L 81.129786 132.575725 
L 80.423629 132.732276 
L 79.733803 132.949777 
L 79.065559 133.226573 
L 78.423982 133.560557 
L 77.813955 133.949187 
L 77.240121 134.389505 
L 76.706847 134.878161 
L 76.218191 135.411436 
L 75.777873 135.98527 
L 75.389243 136.595297 
L 75.055259 137.236873 
L 74.778463 137.905117 
L 74.560962 138.594943 
L 74.404411 139.3011 
L 74.310001 140.018214 
L 74.278451 140.740828 
L 74.310001 141.463442 
L 74.404411 142.180556 
L 74.560962 142.886713 
L 74.778463 143.576538 
L 75.055259 144.244782 
L 75.389243 144.886359 
L 75.777873 145.496386 
L 76.218191 146.07022 
L 76.706847 146.603494 
L 77.240121 147.09215 
L 77.813955 147.532469 
L 78.423982 147.921099 
L 79.065559 148.255082 
L 79.733803 148.531878 
L 80.423629 148.749379 
L 81.129786 148.905931 
L 81.8469 149.00034 
L 82.569514 149.03189 
L 83.292127 149.00034 
L 84.009241 148.905931 
L 84.715398 148.749379 
L 85.405224 148.531878 
L 86.073468 148.255082 
L 86.715045 147.921099 
L 87.325072 147.532469 
L 87.898906 147.09215 
L 88.43218 146.603494 
L 88.920836 146.07022 
L 89.361154 145.496386 
L 89.749784 144.886359 
L 90.083768 144.244782 
L 90.360564 143.576538 
L 90.578065 142.886713 
L 90.734616 142.180556 
L 90.829026 141.463442 
L 90.860576 140.740828 
z
" clip-path="url(#p5bc54d1ef0)" style="fill: #facc37; stroke: #262626"/>
    <path d="M 189.516293 230.366132 
L 189.484743 229.643519 
L 189.390334 228.926404 
L 189.233782 228.220247 
L 189.016281 227.530422 
L 188.739485 226.862178 
L 188.405502 226.220601 
L 188.016872 225.610574 
L 187.576553 225.03674 
L 187.087897 224.503466 
L 186.554623 224.01481 
L 185.980789 223.574491 
L 185.370762 223.185861 
L 184.729185 222.851878 
L 184.060941 222.575082 
L 183.371116 222.357581 
L 182.664959 222.201029 
L 181.947845 222.10662 
L 181.225231 222.07507 
L 180.502617 222.10662 
L 179.785503 222.201029 
L 179.079346 222.357581 
L 178.38952 222.575082 
L 177.721276 222.851878 
L 177.079699 223.185861 
L 176.469673 223.574491 
L 175.895838 224.01481 
L 175.362564 224.503466 
L 174.873908 225.03674 
L 174.43359 225.610574 
L 174.04496 226.220601 
L 173.710976 226.862178 
L 173.43418 227.530422 
L 173.216679 228.220247 
L 173.060128 228.926404 
L 172.965718 229.643519 
L 172.934168 230.366132 
L 172.965718 231.088746 
L 173.060128 231.80586 
L 173.216679 232.512017 
L 173.43418 233.201843 
L 173.710976 233.870087 
L 174.04496 234.511664 
L 174.43359 235.12169 
L 174.873908 235.695525 
L 175.362564 236.228799 
L 175.895838 236.717455 
L 176.469673 237.157773 
L 177.079699 237.546403 
L 177.721276 237.880387 
L 178.38952 238.157183 
L 179.079346 238.374684 
L 179.785503 238.531235 
L 180.502617 238.625645 
L 181.225231 238.657195 
L 181.947845 238.625645 
L 182.664959 238.531235 
L 183.371116 238.374684 
L 184.060941 238.157183 
L 184.729185 237.880387 
L 185.370762 237.546403 
L 185.980789 237.157773 
L 186.554623 236.717455 
L 187.087897 236.228799 
L 187.576553 235.695525 
L 188.016872 235.12169 
L 188.405502 234.511664 
L 188.739485 233.870087 
L 189.016281 233.201843 
L 189.233782 232.512017 
L 189.390334 231.80586 
L 189.484743 231.088746 
L 189.516293 230.366132 
z
" clip-path="url(#p5bc54d1ef0)" style="fill: #facc37; stroke: #262626"/>
    <path d="M 246.36156 193.999179 
L 246.33001 193.276566 
L 246.2356 192.559451 
L 246.079049 191.853294 
L 245.861548 191.163469 
L 245.584752 190.495225 
L 245.250768 189.853648 
L 244.862138 189.243621 
L 244.42182 188.669787 
L 243.933164 188.136513 
L 243.39989 187.647857 
L 242.826056 187.207538 
L 242.216029 186.818908 
L 241.574452 186.484925 
L 240.906208 186.208129 
L 240.216382 185.990628 
L 239.510225 185.834077 
L 238.793111 185.739667 
L 238.070497 185.708117 
L 237.347884 185.739667 
L 236.63077 185.834077 
L 235.924613 185.990628 
L 235.234787 186.208129 
L 234.566543 186.484925 
L 233.924966 186.818908 
L 233.314939 187.207538 
L 232.741105 187.647857 
L 232.207831 188.136513 
L 231.719175 188.669787 
L 231.278857 189.243621 
L 230.890227 189.853648 
L 230.556243 190.495225 
L 230.279447 191.163469 
L 230.061946 191.853294 
L 229.905395 192.559451 
L 229.810985 193.276566 
L 229.779435 193.999179 
L 229.810985 194.721793 
L 229.905395 195.438907 
L 230.061946 196.145064 
L 230.279447 196.83489 
L 230.556243 197.503134 
L 230.890227 198.144711 
L 231.278857 198.754737 
L 231.719175 199.328572 
L 232.207831 199.861846 
L 232.741105 200.350502 
L 233.314939 200.79082 
L 233.924966 201.17945 
L 234.566543 201.513434 
L 235.234787 201.79023 
L 235.924613 202.007731 
L 236.63077 202.164282 
L 237.347884 202.258692 
L 238.070497 202.290242 
L 238.793111 202.258692 
L 239.510225 202.164282 
L 240.216382 202.007731 
L 240.906208 201.79023 
L 241.574452 201.513434 
L 242.216029 201.17945 
L 242.826056 200.79082 
L 243.39989 200.350502 
L 243.933164 199.861846 
L 244.42182 199.328572 
L 244.862138 198.754737 
L 245.250768 198.144711 
L 245.584752 197.503134 
L 245.861548 196.83489 
L 246.079049 196.145064 
L 246.2356 195.438907 
L 246.33001 194.721793 
L 246.36156 193.999179 
z
" clip-path="url(#p5bc54d1ef0)" style="fill: #facc37; stroke: #262626"/>
    <path d="M 206.521549 130.384367 
L 206.489999 129.661754 
L 206.395589 128.94464 
L 206.239038 128.238483 
L 206.021537 127.548657 
L 205.744741 126.880413 
L 205.410757 126.238836 
L 205.022127 125.628809 
L 204.581809 125.054975 
L 204.093153 124.521701 
L 203.559879 124.033045 
L 202.986045 123.592727 
L 202.376018 123.204097 
L 201.734441 122.870113 
L 201.066197 122.593317 
L 200.376371 122.375816 
L 199.670214 122.219265 
L 198.9531 122.124855 
L 198.230486 122.093305 
L 197.507873 122.124855 
L 196.790759 122.219265 
L 196.084602 122.375816 
L 195.394776 122.593317 
L 194.726532 122.870113 
L 194.084955 123.204097 
L 193.474928 123.592727 
L 192.901094 124.033045 
L 192.36782 124.521701 
L 191.879164 125.054975 
L 191.438846 125.628809 
L 191.050216 126.238836 
L 190.716232 126.880413 
L 190.439436 127.548657 
L 190.221935 128.238483 
L 190.065384 128.94464 
L 189.970974 129.661754 
L 189.939424 130.384367 
L 189.970974 131.106981 
L 190.065384 131.824095 
L 190.221935 132.530252 
L 190.439436 133.220078 
L 190.716232 133.888322 
L 191.050216 134.529899 
L 191.438846 135.139926 
L 191.879164 135.71376 
L 192.36782 136.247034 
L 192.901094 136.73569 
L 193.474928 137.176008 
L 194.084955 137.564638 
L 194.726532 137.898622 
L 195.394776 138.175418 
L 196.084602 138.392919 
L 196.790759 138.54947 
L 197.507873 138.64388 
L 198.230486 138.67543 
L 198.9531 138.64388 
L 199.670214 138.54947 
L 200.376371 138.392919 
L 201.066197 138.175418 
L 201.734441 137.898622 
L 202.376018 137.564638 
L 202.986045 137.176008 
L 203.559879 136.73569 
L 204.093153 136.247034 
L 204.581809 135.71376 
L 205.022127 135.139926 
L 205.410757 134.529899 
L 205.744741 133.888322 
L 206.021537 133.220078 
L 206.239038 132.530252 
L 206.395589 131.824095 
L 206.489999 131.106981 
L 206.521549 130.384367 
z
" clip-path="url(#p5bc54d1ef0)" style="fill: #facc37; stroke: #262626"/>
    <path d="M 147.705843 177.107781 
L 147.674293 176.385167 
L 147.579883 175.668053 
L 147.423332 174.961896 
L 147.205831 174.27207 
L 146.929035 173.603826 
L 146.595051 172.96225 
L 146.206421 172.352223 
L 145.766103 171.778389 
L 145.277447 171.245114 
L 144.744173 170.756458 
L 144.170338 170.31614 
L 143.560312 169.92751 
L 142.918735 169.593526 
L 142.250491 169.31673 
L 141.560665 169.099229 
L 140.854508 168.942678 
L 140.137394 168.848268 
L 139.41478 168.816718 
L 138.692167 168.848268 
L 137.975052 168.942678 
L 137.268895 169.099229 
L 136.57907 169.31673 
L 135.910826 169.593526 
L 135.269249 169.92751 
L 134.659222 170.31614 
L 134.085388 170.756458 
L 133.552114 171.245114 
L 133.063458 171.778389 
L 132.623139 172.352223 
L 132.234509 172.96225 
L 131.900526 173.603826 
L 131.62373 174.27207 
L 131.406229 174.961896 
L 131.249677 175.668053 
L 131.155268 176.385167 
L 131.123718 177.107781 
L 131.155268 177.830395 
L 131.249677 178.547509 
L 131.406229 179.253666 
L 131.62373 179.943491 
L 131.900526 180.611735 
L 132.234509 181.253312 
L 132.623139 181.863339 
L 133.063458 182.437173 
L 133.552114 182.970447 
L 134.085388 183.459103 
L 134.659222 183.899422 
L 135.269249 184.288052 
L 135.910826 184.622035 
L 136.57907 184.898831 
L 137.268895 185.116332 
L 137.975052 185.272884 
L 138.692167 185.367293 
L 139.41478 185.398843 
L 140.137394 185.367293 
L 140.854508 185.272884 
L 141.560665 185.116332 
L 142.250491 184.898831 
L 142.918735 184.622035 
L 143.560312 184.288052 
L 144.170338 183.899422 
L 144.744173 183.459103 
L 145.277447 182.970447 
L 145.766103 182.437173 
L 146.206421 181.863339 
L 146.595051 181.253312 
L 146.929035 180.611735 
L 147.205831 179.943491 
L 147.423332 179.253666 
L 147.579883 178.547509 
L 147.674293 177.830395 
L 147.705843 177.107781 
z
" clip-path="url(#p5bc54d1ef0)" style="fill: #facc37; stroke: #262626"/>
    <path d="M 149.676282 94.017414 
L 149.644732 93.294801 
L 149.550323 92.577687 
L 149.393771 91.87153 
L 149.17627 91.181704 
L 148.899474 90.51346 
L 148.565491 89.871883 
L 148.176861 89.261856 
L 147.736542 88.688022 
L 147.247886 88.154748 
L 146.714612 87.666092 
L 146.140778 87.225774 
L 145.530751 86.837144 
L 144.889174 86.50316 
L 144.22093 86.226364 
L 143.531105 86.008863 
L 142.824948 85.852312 
L 142.107833 85.757902 
L 141.38522 85.726352 
L 140.662606 85.757902 
L 139.945492 85.852312 
L 139.239335 86.008863 
L 138.549509 86.226364 
L 137.881265 86.50316 
L 137.239688 86.837144 
L 136.629662 87.225774 
L 136.055827 87.666092 
L 135.522553 88.154748 
L 135.033897 88.688022 
L 134.593579 89.261856 
L 134.204949 89.871883 
L 133.870965 90.51346 
L 133.594169 91.181704 
L 133.376668 91.87153 
L 133.220117 92.577687 
L 133.125707 93.294801 
L 133.094157 94.017414 
L 133.125707 94.740028 
L 133.220117 95.457142 
L 133.376668 96.163299 
L 133.594169 96.853125 
L 133.870965 97.521369 
L 134.204949 98.162946 
L 134.593579 98.772973 
L 135.033897 99.346807 
L 135.522553 99.880081 
L 136.055827 100.368737 
L 136.629662 100.809055 
L 137.239688 101.197685 
L 137.881265 101.531669 
L 138.549509 101.808465 
L 139.239335 102.025966 
L 139.945492 102.182517 
L 140.662606 102.276927 
L 141.38522 102.308477 
L 142.107833 102.276927 
L 142.824948 102.182517 
L 143.531105 102.025966 
L 144.22093 101.808465 
L 144.889174 101.531669 
L 145.530751 101.197685 
L 146.140778 100.809055 
L 146.714612 100.368737 
L 147.247886 99.880081 
L 147.736542 99.346807 
L 148.176861 98.772973 
L 148.565491 98.162946 
L 148.899474 97.521369 
L 149.17627 96.853125 
L 149.393771 96.163299 
L 149.550323 95.457142 
L 149.644732 94.740028 
L 149.676282 94.017414 
z
" clip-path="url(#p5bc54d1ef0)" style="fill: #facc37; stroke: #262626"/>
    <path d="M 104.15258 185.760571 
L 104.175828 185.83708 
L 104.243695 186.060408 
L 104.350681 186.412462 
L 104.488119 186.86472 
L 104.644874 187.380545 
L 104.808248 187.918145 
L 104.965005 188.433969 
L 105.102445 188.886227 
L 105.209433 189.238281 
L 105.277303 189.461607 
L 105.300555 189.538116 
L 132.284059 181.337973 
L 132.260808 181.261465 
L 132.192941 181.038137 
L 132.085954 180.686083 
L 131.948515 180.233825 
L 131.791759 179.718001 
L 131.628385 179.1804 
L 131.471629 178.664576 
L 131.33419 178.212318 
L 131.227202 177.860264 
L 131.159334 177.636937 
L 131.136083 177.560429 
z
" clip-path="url(#p5bc54d1ef0)" style="fill: #808080; stroke: #262626"/>
    <path d="M 87.297056 178.508068 
L 87.375778 178.494036 
L 87.605568 178.453073 
L 87.967808 178.388498 
L 88.433152 178.305542 
L 88.963902 178.210926 
L 89.517058 178.112316 
L 90.047807 178.017699 
L 90.513151 177.934742 
L 90.875391 177.870165 
L 91.10518 177.829199 
L 91.183902 177.815164 
L 85.926189 148.322018 
L 85.847467 148.336052 
L 85.617678 148.377016 
L 85.255438 148.441592 
L 84.790093 148.524548 
L 84.259344 148.619164 
L 83.706188 148.717775 
L 83.175439 148.812391 
L 82.710095 148.895348 
L 82.347854 148.959924 
L 82.118065 149.000888 
L 82.039343 149.014922 
z
" clip-path="url(#p5bc54d1ef0)" style="fill: #808080; stroke: #262626"/>
    <path d="M 48.710975 191.652092 
L 48.714697 191.731969 
L 48.725569 191.965128 
L 48.74271 192.332679 
L 48.76473 192.804847 
L 48.789847 193.343378 
L 48.816024 193.904645 
L 48.841142 194.443176 
L 48.863166 194.915344 
L 48.880311 195.282895 
L 48.891188 195.516054 
L 48.894916 195.59593 
L 78.070884 194.235158 
L 78.06716 194.155281 
L 78.056287 193.922122 
L 78.039146 193.554571 
L 78.017124 193.082403 
L 77.992008 192.543872 
L 77.96583 191.982605 
L 77.940712 191.444074 
L 77.91869 190.971906 
L 77.901546 190.604355 
L 77.89067 190.371196 
L 77.886943 190.29132 
z
" clip-path="url(#p5bc54d1ef0)" style="fill: #808080; stroke: #262626"/>
    <path d="M 105.459207 191.626047 
L 105.406623 190.421691 
L 105.249274 189.226501 
L 104.988355 188.049573 
L 104.625853 186.899863 
L 104.164527 185.786123 
L 103.607887 184.716829 
L 102.96017 183.700117 
L 102.226306 182.743727 
L 101.41188 181.854936 
L 100.523089 181.04051 
L 99.566699 180.306646 
L 98.549988 179.658929 
L 97.480693 179.10229 
L 96.366953 178.640963 
L 95.217244 178.278462 
L 94.040315 178.017543 
L 92.845125 177.860193 
L 91.640769 177.80761 
L 90.436413 177.860193 
L 89.241222 178.017543 
L 88.064294 178.278462 
L 86.914585 178.640963 
L 85.800845 179.10229 
L 84.73155 179.658929 
L 83.714839 180.306646 
L 82.758448 181.04051 
L 81.869658 181.854936 
L 81.055231 182.743727 
L 80.321367 183.700117 
L 79.673651 184.716829 
L 79.117011 185.786123 
L 78.655685 186.899863 
L 78.293183 188.049573 
L 78.032264 189.226501 
L 77.874915 190.421691 
L 77.822331 191.626047 
L 77.874915 192.830404 
L 78.032264 194.025594 
L 78.293183 195.202522 
L 78.655685 196.352231 
L 79.117011 197.465972 
L 79.673651 198.535266 
L 80.321367 199.551978 
L 81.055231 200.508368 
L 81.869658 201.397158 
L 82.758448 202.211585 
L 83.714839 202.945449 
L 84.73155 203.593165 
L 85.800845 204.149805 
L 86.914585 204.611131 
L 88.064294 204.973633 
L 89.241222 205.234552 
L 90.436413 205.391902 
L 91.640769 205.444485 
L 92.845125 205.391902 
L 94.040315 205.234552 
L 95.217244 204.973633 
L 96.366953 204.611131 
L 97.480693 204.149805 
L 98.549988 203.593165 
L 99.566699 202.945449 
L 100.523089 202.211585 
L 101.41188 201.397158 
L 102.226306 200.508368 
L 102.96017 199.551978 
L 103.607887 198.535266 
L 104.164527 197.465972 
L 104.625853 196.352231 
L 104.988355 195.202522 
L 105.249274 194.025594 
L 105.406623 192.830404 
L 105.459207 191.626047 
z
" clip-path="url(#p5bc54d1ef0)" style="fill: #8cb5ab; stroke: #262626"/>
    <path d="M 104.25734 90.309555 
L 104.253613 90.389432 
L 104.242737 90.62259 
L 104.225593 90.990141 
L 104.20357 91.462309 
L 104.178453 92.00084 
L 104.152275 92.562107 
L 104.127158 93.100638 
L 104.105137 93.572806 
L 104.087996 93.940358 
L 104.077122 94.173516 
L 104.073398 94.253393 
L 133.249367 95.614165 
L 133.253092 95.534289 
L 133.263967 95.30113 
L 133.281109 94.933579 
L 133.303131 94.461411 
L 133.328249 93.92288 
L 133.354426 93.361613 
L 133.379543 92.823082 
L 133.401565 92.350914 
L 133.418708 91.983363 
L 133.429582 91.750204 
L 133.433308 91.670327 
z
" clip-path="url(#p5bc54d1ef0)" style="fill: #808080; stroke: #262626"/>
    <path d="M 76.843728 89.556351 
L 76.86698 89.479843 
L 76.934849 89.256516 
L 77.041838 88.904463 
L 77.179277 88.452204 
L 77.336034 87.93638 
L 77.499408 87.39878 
L 77.656164 86.882956 
L 77.793602 86.430697 
L 77.900588 86.078643 
L 77.968454 85.855315 
L 77.991703 85.778806 
L 51.0082 77.578664 
L 50.984946 77.655171 
L 50.917076 77.878498 
L 50.810086 78.230551 
L 50.672646 78.682809 
L 50.515889 79.198633 
L 50.352515 79.736233 
L 50.195759 80.252057 
L 50.058322 80.704316 
L 49.951337 81.056371 
L 49.883472 81.279699 
L 49.860224 81.356208 
z
" clip-path="url(#p5bc54d1ef0)" style="fill: #808080; stroke: #262626"/>
    <path d="M 90.270445 105.460755 
L 90.191506 105.447997 
L 89.961083 105.41076 
L 89.597844 105.35206 
L 89.131217 105.276652 
L 88.599005 105.190646 
L 88.044324 105.10101 
L 87.512112 105.015005 
L 87.045484 104.939598 
L 86.682246 104.8809 
L 86.451823 104.843664 
L 86.372883 104.830909 
L 81.905371 132.476408 
L 81.984311 132.489165 
L 82.214733 132.526402 
L 82.577972 132.585101 
L 83.044599 132.660509 
L 83.576811 132.746514 
L 84.131492 132.836151 
L 84.663705 132.922156 
L 85.130332 132.997563 
L 85.493571 133.056262 
L 85.723993 133.093498 
L 85.802933 133.106254 
z
" clip-path="url(#p5bc54d1ef0)" style="fill: #808080; stroke: #262626"/>
    <path d="M 90.960381 77.833399 
L 91.039103 77.847434 
L 91.268892 77.888399 
L 91.631132 77.952976 
L 92.096476 78.035933 
L 92.627225 78.13055 
L 93.180381 78.22916 
L 93.711131 78.323776 
L 94.176475 78.406732 
L 94.538715 78.471307 
L 94.768505 78.512271 
L 94.847227 78.526303 
L 100.10494 49.033157 
L 100.026218 49.019121 
L 99.796429 48.978155 
L 99.434189 48.913577 
L 98.968845 48.830619 
L 98.438096 48.736002 
L 97.88494 48.637392 
L 97.354191 48.542776 
L 96.888846 48.459821 
L 96.526606 48.395247 
L 96.296816 48.354285 
L 96.218093 48.340253 
z
" clip-path="url(#p5bc54d1ef0)" style="fill: #808080; stroke: #262626"/>
    <path d="M 104.321952 91.644283 
L 104.269368 90.439926 
L 104.112018 89.244736 
L 103.8511 88.067808 
L 103.488598 86.918099 
L 103.027272 85.804358 
L 102.470632 84.735064 
L 101.822915 83.718352 
L 101.089051 82.761962 
L 100.274625 81.873172 
L 99.385834 81.058745 
L 98.429444 80.324881 
L 97.412733 79.677164 
L 96.343438 79.120525 
L 95.229698 78.659199 
L 94.079989 78.296697 
L 92.90306 78.035778 
L 91.70787 77.878428 
L 90.503514 77.825845 
L 89.299158 77.878428 
L 88.103967 78.035778 
L 86.927039 78.296697 
L 85.77733 78.659199 
L 84.66359 79.120525 
L 83.594295 79.677164 
L 82.577584 80.324881 
L 81.621193 81.058745 
L 80.732403 81.873172 
L 79.917976 82.761962 
L 79.184112 83.718352 
L 78.536396 84.735064 
L 77.979756 85.804358 
L 77.51843 86.918099 
L 77.155928 88.067808 
L 76.895009 89.244736 
L 76.737659 90.439926 
L 76.685076 91.644283 
L 76.737659 92.848639 
L 76.895009 94.043829 
L 77.155928 95.220757 
L 77.51843 96.370467 
L 77.979756 97.484207 
L 78.536396 98.553501 
L 79.184112 99.570213 
L 79.917976 100.526603 
L 80.732403 101.415394 
L 81.621193 102.22982 
L 82.577584 102.963684 
L 83.594295 103.611401 
L 84.66359 104.16804 
L 85.77733 104.629367 
L 86.927039 104.991868 
L 88.103967 105.252787 
L 89.299158 105.410137 
L 90.503514 105.46272 
L 91.70787 105.410137 
L 92.90306 105.252787 
L 94.079989 104.991868 
L 95.229698 104.629367 
L 96.343438 104.16804 
L 97.412733 103.611401 
L 98.429444 102.963684 
L 99.385834 102.22982 
L 100.274625 101.415394 
L 101.089051 100.526603 
L 101.822915 99.570213 
L 102.470632 98.553501 
L 103.027272 97.484207 
L 103.488598 96.370467 
L 103.8511 95.220757 
L 104.112018 94.043829 
L 104.269368 92.848639 
L 104.321952 91.644283 
z
" clip-path="url(#p5bc54d1ef0)" style="fill: #8cb5ab; stroke: #262626"/>
    <path d="M 176.54266 180.81564 
L 176.546387 180.735764 
L 176.557263 180.502605 
L 176.574407 180.135054 
L 176.59643 179.662886 
L 176.621547 179.124355 
L 176.647725 178.563088 
L 176.672842 178.024557 
L 176.694863 177.552389 
L 176.712004 177.184838 
L 176.722878 176.951679 
L 176.726602 176.871802 
L 147.550633 175.51103 
L 147.546908 175.590907 
L 147.536033 175.824065 
L 147.518891 176.191617 
L 147.496869 176.663784 
L 147.471751 177.202316 
L 147.445574 177.763582 
L 147.420457 178.302114 
L 147.398435 178.774281 
L 147.381292 179.141833 
L 147.370418 179.374991 
L 147.366692 179.454868 
z
" clip-path="url(#p5bc54d1ef0)" style="fill: #808080; stroke: #262626"/>
    <path d="M 203.956272 181.568845 
L 203.93302 181.645353 
L 203.865151 181.86868 
L 203.758162 182.220733 
L 203.620723 182.672991 
L 203.463966 183.188815 
L 203.300592 183.726415 
L 203.143836 184.24224 
L 203.006398 184.694498 
L 202.899412 185.046552 
L 202.831546 185.26988 
L 202.808297 185.346389 
L 229.7918 193.546532 
L 229.815054 193.470024 
L 229.882924 193.246697 
L 229.989914 192.894645 
L 230.127354 192.442387 
L 230.284111 191.926563 
L 230.447485 191.388962 
L 230.604241 190.873138 
L 230.741678 190.420879 
L 230.848663 190.068825 
L 230.916528 189.845496 
L 230.939776 189.768987 
z
" clip-path="url(#p5bc54d1ef0)" style="fill: #808080; stroke: #262626"/>
    <path d="M 190.529555 165.664441 
L 190.608494 165.677198 
L 190.838917 165.714435 
L 191.202156 165.773136 
L 191.668783 165.848543 
L 192.200995 165.934549 
L 192.755676 166.024185 
L 193.287888 166.11019 
L 193.754516 166.185597 
L 194.117754 166.244296 
L 194.348177 166.281531 
L 194.427117 166.294287 
L 198.894629 138.648787 
L 198.815689 138.63603 
L 198.585267 138.598794 
L 198.222028 138.540094 
L 197.755401 138.464687 
L 197.223189 138.378681 
L 196.668508 138.289045 
L 196.136295 138.203039 
L 195.669668 138.127633 
L 195.306429 138.068934 
L 195.076007 138.031698 
L 194.997067 138.018941 
z
" clip-path="url(#p5bc54d1ef0)" style="fill: #808080; stroke: #262626"/>
    <path d="M 189.839619 193.291796 
L 189.760897 193.277761 
L 189.531108 193.236796 
L 189.168868 193.172219 
L 188.703524 193.089262 
L 188.172775 192.994646 
L 187.619619 192.896035 
L 187.088869 192.801419 
L 186.623525 192.718463 
L 186.261285 192.653888 
L 186.031495 192.612925 
L 185.952773 192.598892 
L 180.69506 222.092038 
L 180.773782 222.106074 
L 181.003571 222.14704 
L 181.365811 222.211618 
L 181.831155 222.294576 
L 182.361904 222.389193 
L 182.91506 222.487804 
L 183.445809 222.582419 
L 183.911154 222.665374 
L 184.273394 222.729948 
L 184.503184 222.770911 
L 184.581907 222.784942 
z
" clip-path="url(#p5bc54d1ef0)" style="fill: #808080; stroke: #262626"/>
    <path d="M 204.114924 179.480913 
L 204.062341 178.276557 
L 203.904991 177.081366 
L 203.644072 175.904438 
L 203.28157 174.754729 
L 202.820244 173.640989 
L 202.263604 172.571694 
L 201.615888 171.554982 
L 200.882024 170.598592 
L 200.067597 169.709802 
L 199.178807 168.895375 
L 198.222416 168.161511 
L 197.205705 167.513795 
L 196.13641 166.957155 
L 195.02267 166.495829 
L 193.872961 166.133327 
L 192.696033 165.872408 
L 191.500842 165.715058 
L 190.296486 165.662475 
L 189.09213 165.715058 
L 187.89694 165.872408 
L 186.720011 166.133327 
L 185.570302 166.495829 
L 184.456562 166.957155 
L 183.387267 167.513795 
L 182.370556 168.161511 
L 181.414166 168.895375 
L 180.525375 169.709802 
L 179.710949 170.598592 
L 178.977085 171.554982 
L 178.329368 172.571694 
L 177.772728 173.640989 
L 177.311402 174.754729 
L 176.9489 175.904438 
L 176.687982 177.081366 
L 176.530632 178.276557 
L 176.478048 179.480913 
L 176.530632 180.685269 
L 176.687982 181.880459 
L 176.9489 183.057388 
L 177.311402 184.207097 
L 177.772728 185.320837 
L 178.329368 186.390132 
L 178.977085 187.406843 
L 179.710949 188.363233 
L 180.525375 189.252024 
L 181.414166 190.06645 
L 182.370556 190.800314 
L 183.387267 191.448031 
L 184.456562 192.00467 
L 185.570302 192.465997 
L 186.720011 192.828499 
L 187.89694 193.089417 
L 189.09213 193.246767 
L 190.296486 193.29935 
L 191.500842 193.246767 
L 192.696033 193.089417 
L 193.872961 192.828499 
L 195.02267 192.465997 
L 196.13641 192.00467 
L 197.205705 191.448031 
L 198.222416 190.800314 
L 199.178807 190.06645 
L 200.067597 189.252024 
L 200.882024 188.363233 
L 201.615888 187.406843 
L 202.263604 186.390132 
L 202.820244 185.320837 
L 203.28157 184.207097 
L 203.644072 183.057388 
L 203.904991 181.880459 
L 204.062341 180.685269 
L 204.114924 179.480913 
z
" clip-path="url(#p5bc54d1ef0)" style="fill: #8cb5ab; stroke: #262626"/>
    <path d="M 51.020565 77.126016 
L 50.989015 76.403402 
L 50.894605 75.686288 
L 50.738054 74.980131 
L 50.520553 74.290306 
L 50.243757 73.622062 
L 49.909773 72.980485 
L 49.521143 72.370458 
L 49.080825 71.796624 
L 48.592169 71.263349 
L 48.058895 70.774694 
L 47.485061 70.334375 
L 46.875034 69.945745 
L 46.233457 69.611761 
L 45.565213 69.334966 
L 44.875387 69.117464 
L 44.16923 68.960913 
L 43.452116 68.866503 
L 42.729503 68.834953 
L 42.006889 68.866503 
L 41.289775 68.960913 
L 40.583618 69.117464 
L 39.893792 69.334966 
L 39.225548 69.611761 
L 38.583971 69.945745 
L 37.973944 70.334375 
L 37.40011 70.774694 
L 36.866836 71.263349 
L 36.37818 71.796624 
L 35.937862 72.370458 
L 35.549232 72.980485 
L 35.215248 73.622062 
L 34.938452 74.290306 
L 34.720951 74.980131 
L 34.5644 75.686288 
L 34.46999 76.403402 
L 34.43844 77.126016 
L 34.46999 77.84863 
L 34.5644 78.565744 
L 34.720951 79.271901 
L 34.938452 79.961726 
L 35.215248 80.62997 
L 35.549232 81.271547 
L 35.937862 81.881574 
L 36.37818 82.455408 
L 36.866836 82.988683 
L 37.40011 83.477338 
L 37.973944 83.917657 
L 38.583971 84.306287 
L 39.225548 84.640271 
L 39.893792 84.917066 
L 40.583618 85.134568 
L 41.289775 85.291119 
L 42.006889 85.385529 
L 42.729503 85.417079 
L 43.452116 85.385529 
L 44.16923 85.291119 
L 44.875387 85.134568 
L 45.565213 84.917066 
L 46.233457 84.640271 
L 46.875034 84.306287 
L 47.485061 83.917657 
L 48.058895 83.477338 
L 48.592169 82.988683 
L 49.080825 82.455408 
L 49.521143 81.881574 
L 49.909773 81.271547 
L 50.243757 80.62997 
L 50.520553 79.961726 
L 50.738054 79.271901 
L 50.894605 78.565744 
L 50.989015 77.84863 
L 51.020565 77.126016 
z
" clip-path="url(#p5bc54d1ef0)" style="fill: #facc37; stroke: #262626"/>
    <path d="M 93.422665 192.629527 
L 93.481941 192.071207 
L 93.381407 191.518758 
L 93.129209 191.016935 
L 92.745777 190.606393 
L 92.262176 190.320391 
L 91.717583 190.1821 
L 91.156119 190.202723 
L 90.62327 190.380589 
L 90.162204 190.70129 
L 89.810274 191.138842 
L 89.595991 191.6578 
L 89.321124 192.740228 
L 89.261849 193.298548 
L 89.362383 193.850997 
L 89.614581 194.35282 
L 89.998013 194.763362 
L 90.481614 195.049364 
L 91.026207 195.187655 
L 91.587671 195.167032 
L 92.12052 194.989166 
L 92.581586 194.668465 
L 92.933516 194.230912 
L 93.147799 193.711955 
z
" clip-path="url(#p5bc54d1ef0)" style="fill: #808080; stroke: #262626"/>
    <path d="M 99.448134 193.530856 
L 99.416584 192.808243 
L 99.322174 192.091129 
L 99.165623 191.384972 
L 98.948122 190.695146 
L 98.671326 190.026902 
L 98.337342 189.385325 
L 97.948712 188.775298 
L 97.508394 188.201464 
L 97.019738 187.66819 
L 96.486464 187.179534 
L 95.912629 186.739216 
L 95.302603 186.350586 
L 94.661026 186.016602 
L 93.992782 185.739806 
L 93.302956 185.522305 
L 92.596799 185.365754 
L 91.879685 185.271344 
L 91.157071 185.239794 
L 90.434458 185.271344 
L 89.717343 185.365754 
L 89.011186 185.522305 
L 88.321361 185.739806 
L 87.653117 186.016602 
L 87.01154 186.350586 
L 86.401513 186.739216 
L 85.827679 187.179534 
L 85.294405 187.66819 
L 84.805749 188.201464 
L 84.36543 188.775298 
L 83.9768 189.385325 
L 83.642817 190.026902 
L 83.366021 190.695146 
L 83.14852 191.384972 
L 82.991968 192.091129 
L 82.897559 192.808243 
L 82.866009 193.530856 
L 82.897559 194.25347 
L 82.991968 194.970584 
L 83.14852 195.676741 
L 83.366021 196.366567 
L 83.642817 197.034811 
L 83.9768 197.676388 
L 84.36543 198.286415 
L 84.805749 198.860249 
L 85.294405 199.393523 
L 85.827679 199.882179 
L 86.401513 200.322497 
L 87.01154 200.711127 
L 87.653117 201.045111 
L 88.321361 201.321907 
L 89.011186 201.539408 
L 89.717343 201.695959 
L 90.434458 201.790369 
L 91.157071 201.821919 
L 91.879685 201.790369 
L 92.596799 201.695959 
L 93.302956 201.539408 
L 93.992782 201.321907 
L 94.661026 201.045111 
L 95.302603 200.711127 
L 95.912629 200.322497 
L 96.486464 199.882179 
L 97.019738 199.393523 
L 97.508394 198.860249 
L 97.948712 198.286415 
L 98.337342 197.676388 
L 98.671326 197.034811 
L 98.948122 196.366567 
L 99.165623 195.676741 
L 99.322174 194.970584 
L 99.416584 194.25347 
L 99.448134 193.530856 
z
" clip-path="url(#p5bc54d1ef0)" style="fill: #facc37; stroke: #262626"/>
    <path d="M 92.548271 91.675954 
L 92.333989 91.156996 
L 91.982059 90.719443 
L 91.520992 90.398743 
L 90.988143 90.220876 
L 90.426679 90.200253 
L 89.882086 90.338544 
L 89.398485 90.624546 
L 89.015053 91.035088 
L 88.762855 91.536912 
L 88.662321 92.089361 
L 88.721597 92.64768 
L 88.996496 93.730238 
L 89.210779 94.249196 
L 89.562709 94.686749 
L 90.023775 95.007449 
L 90.556624 95.185316 
L 91.118088 95.205939 
L 91.662681 95.067648 
L 92.146282 94.781646 
L 92.529714 94.371103 
L 92.781912 93.86928 
L 92.882446 93.316831 
L 92.823171 92.758511 
z
" clip-path="url(#p5bc54d1ef0)" style="fill: #808080; stroke: #262626"/>
    <path d="M 99.278274 93.549092 
L 99.246724 92.826478 
L 99.152314 92.109364 
L 98.995763 91.403207 
L 98.778262 90.713381 
L 98.501466 90.045137 
L 98.167482 89.40356 
L 97.778852 88.793533 
L 97.338534 88.219699 
L 96.849878 87.686425 
L 96.316604 87.197769 
L 95.74277 86.757451 
L 95.132743 86.368821 
L 94.491166 86.034837 
L 93.822922 85.758041 
L 93.133096 85.54054 
L 92.426939 85.383989 
L 91.709825 85.289579 
L 90.987212 85.258029 
L 90.264598 85.289579 
L 89.547484 85.383989 
L 88.841327 85.54054 
L 88.151501 85.758041 
L 87.483257 86.034837 
L 86.84168 86.368821 
L 86.231653 86.757451 
L 85.657819 87.197769 
L 85.124545 87.686425 
L 84.635889 88.219699 
L 84.195571 88.793533 
L 83.806941 89.40356 
L 83.472957 90.045137 
L 83.196161 90.713381 
L 82.97866 91.403207 
L 82.822109 92.109364 
L 82.727699 92.826478 
L 82.696149 93.549092 
L 82.727699 94.271705 
L 82.822109 94.98882 
L 82.97866 95.694977 
L 83.196161 96.384802 
L 83.472957 97.053046 
L 83.806941 97.694623 
L 84.195571 98.30465 
L 84.635889 98.878484 
L 85.124545 99.411758 
L 85.657819 99.900414 
L 86.231653 100.340733 
L 86.84168 100.729362 
L 87.483257 101.063346 
L 88.151501 101.340142 
L 88.841327 101.557643 
L 89.547484 101.714194 
L 90.264598 101.808604 
L 90.987212 101.840154 
L 91.709825 101.808604 
L 92.426939 101.714194 
L 93.133096 101.557643 
L 93.822922 101.340142 
L 94.491166 101.063346 
L 95.132743 100.729362 
L 95.74277 100.340733 
L 96.316604 99.900414 
L 96.849878 99.411758 
L 97.338534 98.878484 
L 97.778852 98.30465 
L 98.167482 97.694623 
L 98.501466 97.053046 
L 98.778262 96.384802 
L 98.995763 95.694977 
L 99.152314 94.98882 
L 99.246724 94.271705 
L 99.278274 93.549092 
z
" clip-path="url(#p5bc54d1ef0)" style="fill: #facc37; stroke: #262626"/>
    <path d="M 187.377335 78.495669 
L 187.318059 79.053988 
L 187.418593 79.606437 
L 187.670791 80.10826 
L 188.054223 80.518803 
L 188.537824 80.804804 
L 189.082417 80.943096 
L 189.643881 80.922472 
L 190.17673 80.744606 
L 190.637796 80.423906 
L 190.989726 79.986353 
L 191.204009 79.467395 
L 191.478876 78.384967 
L 191.538151 77.826648 
L 191.437617 77.274198 
L 191.185419 76.772375 
L 190.801987 76.361833 
L 190.318386 76.075831 
L 189.773793 75.93754 
L 189.212329 75.958163 
L 188.67948 76.13603 
L 188.218414 76.45673 
L 187.866484 76.894283 
L 187.652201 77.41324 
z
" clip-path="url(#p5bc54d1ef0)" style="fill: #808080; stroke: #262626"/>
    <path d="M 197.933991 77.594339 
L 197.902441 76.871725 
L 197.808032 76.154611 
L 197.65148 75.448454 
L 197.433979 74.758628 
L 197.157183 74.090384 
L 196.8232 73.448808 
L 196.43457 72.838781 
L 195.994251 72.264947 
L 195.505595 71.731672 
L 194.972321 71.243016 
L 194.398487 70.802698 
L 193.78846 70.414068 
L 193.146883 70.080084 
L 192.478639 69.803288 
L 191.788814 69.585787 
L 191.082657 69.429236 
L 190.365542 69.334826 
L 189.642929 69.303276 
L 188.920315 69.334826 
L 188.203201 69.429236 
L 187.497044 69.585787 
L 186.807218 69.803288 
L 186.138974 70.080084 
L 185.497397 70.414068 
L 184.887371 70.802698 
L 184.313536 71.243016 
L 183.780262 71.731672 
L 183.291606 72.264947 
L 182.851288 72.838781 
L 182.462658 73.448808 
L 182.128674 74.090384 
L 181.851878 74.758628 
L 181.634377 75.448454 
L 181.477826 76.154611 
L 181.383416 76.871725 
L 181.351866 77.594339 
L 181.383416 78.316953 
L 181.477826 79.034067 
L 181.634377 79.740224 
L 181.851878 80.430049 
L 182.128674 81.098293 
L 182.462658 81.73987 
L 182.851288 82.349897 
L 183.291606 82.923731 
L 183.780262 83.457005 
L 184.313536 83.945661 
L 184.887371 84.38598 
L 185.497397 84.77461 
L 186.138974 85.108593 
L 186.807218 85.385389 
L 187.497044 85.60289 
L 188.203201 85.759442 
L 188.920315 85.853851 
L 189.642929 85.885401 
L 190.365542 85.853851 
L 191.082657 85.759442 
L 191.788814 85.60289 
L 192.478639 85.385389 
L 193.146883 85.108593 
L 193.78846 84.77461 
L 194.398487 84.38598 
L 194.972321 83.945661 
L 195.505595 83.457005 
L 195.994251 82.923731 
L 196.43457 82.349897 
L 196.8232 81.73987 
L 197.157183 81.098293 
L 197.433979 80.430049 
L 197.65148 79.740224 
L 197.808032 79.034067 
L 197.902441 78.316953 
L 197.933991 77.594339 
z
" clip-path="url(#p5bc54d1ef0)" style="fill: #facc37; stroke: #262626"/>
    <path d="M 188.251729 179.449242 
L 188.466011 179.968199 
L 188.817941 180.405752 
L 189.279008 180.726452 
L 189.811857 180.904319 
L 190.373321 180.924942 
L 190.917914 180.786651 
L 191.401515 180.500649 
L 191.784947 180.090107 
L 192.037145 179.588284 
L 192.137679 179.035834 
L 192.078403 178.477515 
L 191.803504 177.394957 
L 191.589221 176.876 
L 191.237291 176.438447 
L 190.776225 176.117746 
L 190.243376 175.93988 
L 189.681912 175.919257 
L 189.137319 176.057548 
L 188.653718 176.34355 
L 188.270286 176.754092 
L 188.018088 177.255915 
L 187.917554 177.808365 
L 187.976829 178.366684 
z
" clip-path="url(#p5bc54d1ef0)" style="fill: #808080; stroke: #262626"/>
    <path d="M 198.103851 177.576104 
L 198.072301 176.85349 
L 197.977891 176.136376 
L 197.82134 175.430219 
L 197.603839 174.740393 
L 197.327043 174.072149 
L 196.993059 173.430572 
L 196.604429 172.820546 
L 196.164111 172.246711 
L 195.675455 171.713437 
L 195.142181 171.224781 
L 194.568347 170.784463 
L 193.95832 170.395833 
L 193.316743 170.061849 
L 192.648499 169.785053 
L 191.958673 169.567552 
L 191.252516 169.411001 
L 190.535402 169.316591 
L 189.812788 169.285041 
L 189.090175 169.316591 
L 188.373061 169.411001 
L 187.666904 169.567552 
L 186.977078 169.785053 
L 186.308834 170.061849 
L 185.667257 170.395833 
L 185.05723 170.784463 
L 184.483396 171.224781 
L 183.950122 171.713437 
L 183.461466 172.246711 
L 183.021148 172.820546 
L 182.632518 173.430572 
L 182.298534 174.072149 
L 182.021738 174.740393 
L 181.804237 175.430219 
L 181.647686 176.136376 
L 181.553276 176.85349 
L 181.521726 177.576104 
L 181.553276 178.298717 
L 181.647686 179.015832 
L 181.804237 179.721989 
L 182.021738 180.411814 
L 182.298534 181.080058 
L 182.632518 181.721635 
L 183.021148 182.331662 
L 183.461466 182.905496 
L 183.950122 183.43877 
L 184.483396 183.927426 
L 185.05723 184.367745 
L 185.667257 184.756375 
L 186.308834 185.090358 
L 186.977078 185.367154 
L 187.666904 185.584655 
L 188.373061 185.741206 
L 189.090175 185.835616 
L 189.812788 185.867166 
L 190.535402 185.835616 
L 191.252516 185.741206 
L 191.958673 185.584655 
L 192.648499 185.367154 
L 193.316743 185.090358 
L 193.95832 184.756375 
L 194.568347 184.367745 
L 195.142181 183.927426 
L 195.675455 183.43877 
L 196.164111 182.905496 
L 196.604429 182.331662 
L 196.993059 181.721635 
L 197.327043 181.080058 
L 197.603839 180.411814 
L 197.82134 179.721989 
L 197.977891 179.015832 
L 198.072301 178.298717 
L 198.103851 177.576104 
z
" clip-path="url(#p5bc54d1ef0)" style="fill: #facc37; stroke: #262626"/>
    <path d="M 41.744283 235.277962 
L 174.750074 235.277962 
L 174.750074 235.810762 
L 41.744283 235.810762 
z
" clip-path="url(#p5bc54d1ef0)" style="fill: #4c4c4c"/>
    <path d="M 187.700387 235.277962 
L 239.055717 235.277962 
L 239.055717 235.810762 
L 187.700387 235.810762 
z
" clip-path="url(#p5bc54d1ef0)" style="fill: #4c4c4c"/>
    <path d="M 41.477883 235.544362 
L 41.477883 202.231497 
L 42.010683 202.231497 
L 42.010683 235.544362 
z
" clip-path="url(#p5bc54d1ef0)" style="fill: #4c4c4c"/>
    <path d="M 41.477883 185.766861 
L 41.477883 85.358334 
L 42.010683 85.358334 
L 42.010683 185.766861 
z
" clip-path="url(#p5bc54d1ef0)" style="fill: #4c4c4c"/>
    <path d="M 41.477883 68.893698 
L 41.477883 35.580833 
L 42.010683 35.580833 
L 42.010683 68.893698 
z
" clip-path="url(#p5bc54d1ef0)" style="fill: #4c4c4c"/>
    <path d="M 238.789317 235.544362 
L 238.789317 202.231497 
L 239.322117 202.231497 
L 239.322117 235.544362 
z
" clip-path="url(#p5bc54d1ef0)" style="fill: #4c4c4c"/>
    <path d="M 238.789317 185.766861 
L 238.789317 85.358334 
L 239.322117 85.358334 
L 239.322117 185.766861 
z
" clip-path="url(#p5bc54d1ef0)" style="fill: #4c4c4c"/>
    <path d="M 238.789317 68.893698 
L 238.789317 35.580833 
L 239.322117 35.580833 
L 239.322117 68.893698 
z
" clip-path="url(#p5bc54d1ef0)" style="fill: #4c4c4c"/>
    <path d="M 41.744283 35.314433 
L 93.099613 35.314433 
L 93.099613 35.847233 
L 41.744283 35.847233 
z
" clip-path="url(#p5bc54d1ef0)" style="fill: #4c4c4c"/>
    <path d="M 106.049926 35.314433 
L 239.055717 35.314433 
L 239.055717 35.847233 
L 106.049926 35.847233 
z
" clip-path="url(#p5bc54d1ef0)" style="fill: #4c4c4c"/>
    <path d="M 189.516293 230.366132 
L 189.484743 229.643519 
L 189.390334 228.926404 
L 189.233782 228.220247 
L 189.016281 227.530422 
L 188.739485 226.862178 
L 188.405502 226.220601 
L 188.016872 225.610574 
L 187.576553 225.03674 
L 187.087897 224.503466 
L 186.554623 224.01481 
L 185.980789 223.574491 
L 185.370762 223.185861 
L 184.729185 222.851878 
L 184.060941 222.575082 
L 183.371116 222.357581 
L 182.664959 222.201029 
L 181.947845 222.10662 
L 181.225231 222.07507 
L 180.502617 222.10662 
L 179.785503 222.201029 
L 179.079346 222.357581 
L 178.38952 222.575082 
L 177.721276 222.851878 
L 177.079699 223.185861 
L 176.469673 223.574491 
L 175.895838 224.01481 
L 175.362564 224.503466 
L 174.873908 225.03674 
L 174.43359 225.610574 
L 174.04496 226.220601 
L 173.710976 226.862178 
L 173.43418 227.530422 
L 173.216679 228.220247 
L 173.060128 228.926404 
L 172.965718 229.643519 
L 172.934168 230.366132 
L 172.965718 231.088746 
L 173.060128 231.80586 
L 173.216679 232.512017 
L 173.43418 233.201843 
L 173.710976 233.870087 
L 174.04496 234.511664 
L 174.43359 235.12169 
L 174.873908 235.695525 
L 175.362564 236.228799 
L 175.895838 236.717455 
L 176.469673 237.157773 
L 177.079699 237.546403 
L 177.721276 237.880387 
L 178.38952 238.157183 
L 179.079346 238.374684 
L 179.785503 238.531235 
L 180.502617 238.625645 
L 181.225231 238.657195 
L 181.947845 238.625645 
L 182.664959 238.531235 
L 183.371116 238.374684 
L 184.060941 238.157183 
L 184.729185 237.880387 
L 185.370762 237.546403 
L 185.980789 237.157773 
L 186.554623 236.717455 
L 187.087897 236.228799 
L 187.576553 235.695525 
L 188.016872 235.12169 
L 188.405502 234.511664 
L 188.739485 233.870087 
L 189.016281 233.201843 
L 189.233782 232.512017 
L 189.390334 231.80586 
L 189.484743 231.088746 
L 189.516293 230.366132 
z
" clip-path="url(#p5bc54d1ef0)" style="fill: #facc37; stroke: #262626"/>
    <path d="M 206.521549 130.384367 
L 206.489999 129.661754 
L 206.395589 128.94464 
L 206.239038 128.238483 
L 206.021537 127.548657 
L 205.744741 126.880413 
L 205.410757 126.238836 
L 205.022127 125.628809 
L 204.581809 125.054975 
L 204.093153 124.521701 
L 203.559879 124.033045 
L 202.986045 123.592727 
L 202.376018 123.204097 
L 201.734441 122.870113 
L 201.066197 122.593317 
L 200.376371 122.375816 
L 199.670214 122.219265 
L 198.9531 122.124855 
L 198.230486 122.093305 
L 197.507873 122.124855 
L 196.790759 122.219265 
L 196.084602 122.375816 
L 195.394776 122.593317 
L 194.726532 122.870113 
L 194.084955 123.204097 
L 193.474928 123.592727 
L 192.901094 124.033045 
L 192.36782 124.521701 
L 191.879164 125.054975 
L 191.438846 125.628809 
L 191.050216 126.238836 
L 190.716232 126.880413 
L 190.439436 127.548657 
L 190.221935 128.238483 
L 190.065384 128.94464 
L 189.970974 129.661754 
L 189.939424 130.384367 
L 189.970974 131.106981 
L 190.065384 131.824095 
L 190.221935 132.530252 
L 190.439436 133.220078 
L 190.716232 133.888322 
L 191.050216 134.529899 
L 191.438846 135.139926 
L 191.879164 135.71376 
L 192.36782 136.247034 
L 192.901094 136.73569 
L 193.474928 137.176008 
L 194.084955 137.564638 
L 194.726532 137.898622 
L 195.394776 138.175418 
L 196.084602 138.392919 
L 196.790759 138.54947 
L 197.507873 138.64388 
L 198.230486 138.67543 
L 198.9531 138.64388 
L 199.670214 138.54947 
L 200.376371 138.392919 
L 201.066197 138.175418 
L 201.734441 137.898622 
L 202.376018 137.564638 
L 202.986045 137.176008 
L 203.559879 136.73569 
L 204.093153 136.247034 
L 204.581809 135.71376 
L 205.022127 135.139926 
L 205.410757 134.529899 
L 205.744741 133.888322 
L 206.021537 133.220078 
L 206.239038 132.530252 
L 206.395589 131.824095 
L 206.489999 131.106981 
L 206.521549 130.384367 
z
" clip-path="url(#p5bc54d1ef0)" style="fill: #facc37; stroke: #262626"/>
    <path d="M 49.050126 193.999179 
L 49.018576 193.276566 
L 48.924166 192.559451 
L 48.767615 191.853294 
L 48.550113 191.163469 
L 48.273318 190.495225 
L 47.939334 189.853648 
L 47.550704 189.243621 
L 47.110385 188.669787 
L 46.62173 188.136513 
L 46.088455 187.647857 
L 45.514621 187.207538 
L 44.904594 186.818908 
L 44.263018 186.484925 
L 43.594773 186.208129 
L 42.904948 185.990628 
L 42.198791 185.834077 
L 41.481677 185.739667 
L 40.759063 185.708117 
L 40.036449 185.739667 
L 39.319335 185.834077 
L 38.613178 185.990628 
L 37.923353 186.208129 
L 37.255109 186.484925 
L 36.613532 186.818908 
L 36.003505 187.207538 
L 35.429671 187.647857 
L 34.896396 188.136513 
L 34.407741 188.669787 
L 33.967422 189.243621 
L 33.578792 189.853648 
L 33.244808 190.495225 
L 32.968013 191.163469 
L 32.750512 191.853294 
L 32.59396 192.559451 
L 32.49955 193.276566 
L 32.468 193.999179 
L 32.49955 194.721793 
L 32.59396 195.438907 
L 32.750512 196.145064 
L 32.968013 196.83489 
L 33.244808 197.503134 
L 33.578792 198.144711 
L 33.967422 198.754737 
L 34.407741 199.328572 
L 34.896396 199.861846 
L 35.429671 200.350502 
L 36.003505 200.79082 
L 36.613532 201.17945 
L 37.255109 201.513434 
L 37.923353 201.79023 
L 38.613178 202.007731 
L 39.319335 202.164282 
L 40.036449 202.258692 
L 40.759063 202.290242 
L 41.481677 202.258692 
L 42.198791 202.164282 
L 42.904948 202.007731 
L 43.594773 201.79023 
L 44.263018 201.513434 
L 44.904594 201.17945 
L 45.514621 200.79082 
L 46.088455 200.350502 
L 46.62173 199.861846 
L 47.110385 199.328572 
L 47.550704 198.754737 
L 47.939334 198.144711 
L 48.273318 197.503134 
L 48.550113 196.83489 
L 48.767615 196.145064 
L 48.924166 195.438907 
L 49.018576 194.721793 
L 49.050126 193.999179 
z
" clip-path="url(#p5bc54d1ef0)" style="fill: #facc37; stroke: #262626"/>
    <path d="M 246.36156 193.999179 
L 246.33001 193.276566 
L 246.2356 192.559451 
L 246.079049 191.853294 
L 245.861548 191.163469 
L 245.584752 190.495225 
L 245.250768 189.853648 
L 244.862138 189.243621 
L 244.42182 188.669787 
L 243.933164 188.136513 
L 243.39989 187.647857 
L 242.826056 187.207538 
L 242.216029 186.818908 
L 241.574452 186.484925 
L 240.906208 186.208129 
L 240.216382 185.990628 
L 239.510225 185.834077 
L 238.793111 185.739667 
L 238.070497 185.708117 
L 237.347884 185.739667 
L 236.63077 185.834077 
L 235.924613 185.990628 
L 235.234787 186.208129 
L 234.566543 186.484925 
L 233.924966 186.818908 
L 233.314939 187.207538 
L 232.741105 187.647857 
L 232.207831 188.136513 
L 231.719175 188.669787 
L 231.278857 189.243621 
L 230.890227 189.853648 
L 230.556243 190.495225 
L 230.279447 191.163469 
L 230.061946 191.853294 
L 229.905395 192.559451 
L 229.810985 193.276566 
L 229.779435 193.999179 
L 229.810985 194.721793 
L 229.905395 195.438907 
L 230.061946 196.145064 
L 230.279447 196.83489 
L 230.556243 197.503134 
L 230.890227 198.144711 
L 231.278857 198.754737 
L 231.719175 199.328572 
L 232.207831 199.861846 
L 232.741105 200.350502 
L 233.314939 200.79082 
L 233.924966 201.17945 
L 234.566543 201.513434 
L 235.234787 201.79023 
L 235.924613 202.007731 
L 236.63077 202.164282 
L 237.347884 202.258692 
L 238.070497 202.290242 
L 238.793111 202.258692 
L 239.510225 202.164282 
L 240.216382 202.007731 
L 240.906208 201.79023 
L 241.574452 201.513434 
L 242.216029 201.17945 
L 242.826056 200.79082 
L 243.39989 200.350502 
L 243.933164 199.861846 
L 244.42182 199.328572 
L 244.862138 198.754737 
L 245.250768 198.144711 
L 245.584752 197.503134 
L 245.861548 196.83489 
L 246.079049 196.145064 
L 246.2356 195.438907 
L 246.33001 194.721793 
L 246.36156 193.999179 
z
" clip-path="url(#p5bc54d1ef0)" style="fill: #facc37; stroke: #262626"/>
    <path d="M 248.332 77.126016 
L 248.30045 76.403402 
L 248.20604 75.686288 
L 248.049488 74.980131 
L 247.831987 74.290306 
L 247.555192 73.622062 
L 247.221208 72.980485 
L 246.832578 72.370458 
L 246.392259 71.796624 
L 245.903604 71.263349 
L 245.370329 70.774694 
L 244.796495 70.334375 
L 244.186468 69.945745 
L 243.544891 69.611761 
L 242.876647 69.334966 
L 242.186822 69.117464 
L 241.480665 68.960913 
L 240.763551 68.866503 
L 240.040937 68.834953 
L 239.318323 68.866503 
L 238.601209 68.960913 
L 237.895052 69.117464 
L 237.205227 69.334966 
L 236.536982 69.611761 
L 235.895406 69.945745 
L 235.285379 70.334375 
L 234.711545 70.774694 
L 234.17827 71.263349 
L 233.689615 71.796624 
L 233.249296 72.370458 
L 232.860666 72.980485 
L 232.526682 73.622062 
L 232.249887 74.290306 
L 232.032385 74.980131 
L 231.875834 75.686288 
L 231.781424 76.403402 
L 231.749874 77.126016 
L 231.781424 77.84863 
L 231.875834 78.565744 
L 232.032385 79.271901 
L 232.249887 79.961726 
L 232.526682 80.62997 
L 232.860666 81.271547 
L 233.249296 81.881574 
L 233.689615 82.455408 
L 234.17827 82.988683 
L 234.711545 83.477338 
L 235.285379 83.917657 
L 235.895406 84.306287 
L 236.536982 84.640271 
L 237.205227 84.917066 
L 237.895052 85.134568 
L 238.601209 85.291119 
L 239.318323 85.385529 
L 240.040937 85.417079 
L 240.763551 85.385529 
L 241.480665 85.291119 
L 242.186822 85.134568 
L 242.876647 84.917066 
L 243.544891 84.640271 
L 244.186468 84.306287 
L 244.796495 83.917657 
L 245.370329 83.477338 
L 245.903604 82.988683 
L 246.392259 82.455408 
L 246.832578 81.881574 
L 247.221208 81.271547 
L 247.555192 80.62997 
L 247.831987 79.961726 
L 248.049488 79.271901 
L 248.20604 78.565744 
L 248.30045 77.84863 
L 248.332 77.126016 
z
" clip-path="url(#p5bc54d1ef0)" style="fill: #facc37; stroke: #262626"/>
    <path d="M 147.705843 177.107781 
L 147.674293 176.385167 
L 147.579883 175.668053 
L 147.423332 174.961896 
L 147.205831 174.27207 
L 146.929035 173.603826 
L 146.595051 172.96225 
L 146.206421 172.352223 
L 145.766103 171.778389 
L 145.277447 171.245114 
L 144.744173 170.756458 
L 144.170338 170.31614 
L 143.560312 169.92751 
L 142.918735 169.593526 
L 142.250491 169.31673 
L 141.560665 169.099229 
L 140.854508 168.942678 
L 140.137394 168.848268 
L 139.41478 168.816718 
L 138.692167 168.848268 
L 137.975052 168.942678 
L 137.268895 169.099229 
L 136.57907 169.31673 
L 135.910826 169.593526 
L 135.269249 169.92751 
L 134.659222 170.31614 
L 134.085388 170.756458 
L 133.552114 171.245114 
L 133.063458 171.778389 
L 132.623139 172.352223 
L 132.234509 172.96225 
L 131.900526 173.603826 
L 131.62373 174.27207 
L 131.406229 174.961896 
L 131.249677 175.668053 
L 131.155268 176.385167 
L 131.123718 177.107781 
L 131.155268 177.830395 
L 131.249677 178.547509 
L 131.406229 179.253666 
L 131.62373 179.943491 
L 131.900526 180.611735 
L 132.234509 181.253312 
L 132.623139 181.863339 
L 133.063458 182.437173 
L 133.552114 182.970447 
L 134.085388 183.459103 
L 134.659222 183.899422 
L 135.269249 184.288052 
L 135.910826 184.622035 
L 136.57907 184.898831 
L 137.268895 185.116332 
L 137.975052 185.272884 
L 138.692167 185.367293 
L 139.41478 185.398843 
L 140.137394 185.367293 
L 140.854508 185.272884 
L 141.560665 185.116332 
L 142.250491 184.898831 
L 142.918735 184.622035 
L 143.560312 184.288052 
L 144.170338 183.899422 
L 144.744173 183.459103 
L 145.277447 182.970447 
L 145.766103 182.437173 
L 146.206421 181.863339 
L 146.595051 181.253312 
L 146.929035 180.611735 
L 147.205831 179.943491 
L 147.423332 179.253666 
L 147.579883 178.547509 
L 147.674293 177.830395 
L 147.705843 177.107781 
z
" clip-path="url(#p5bc54d1ef0)" style="fill: #facc37; stroke: #262626"/>
    <path d="M 149.676282 94.017414 
L 149.644732 93.294801 
L 149.550323 92.577687 
L 149.393771 91.87153 
L 149.17627 91.181704 
L 148.899474 90.51346 
L 148.565491 89.871883 
L 148.176861 89.261856 
L 147.736542 88.688022 
L 147.247886 88.154748 
L 146.714612 87.666092 
L 146.140778 87.225774 
L 145.530751 86.837144 
L 144.889174 86.50316 
L 144.22093 86.226364 
L 143.531105 86.008863 
L 142.824948 85.852312 
L 142.107833 85.757902 
L 141.38522 85.726352 
L 140.662606 85.757902 
L 139.945492 85.852312 
L 139.239335 86.008863 
L 138.549509 86.226364 
L 137.881265 86.50316 
L 137.239688 86.837144 
L 136.629662 87.225774 
L 136.055827 87.666092 
L 135.522553 88.154748 
L 135.033897 88.688022 
L 134.593579 89.261856 
L 134.204949 89.871883 
L 133.870965 90.51346 
L 133.594169 91.181704 
L 133.376668 91.87153 
L 133.220117 92.577687 
L 133.125707 93.294801 
L 133.094157 94.017414 
L 133.125707 94.740028 
L 133.220117 95.457142 
L 133.376668 96.163299 
L 133.594169 96.853125 
L 133.870965 97.521369 
L 134.204949 98.162946 
L 134.593579 98.772973 
L 135.033897 99.346807 
L 135.522553 99.880081 
L 136.055827 100.368737 
L 136.629662 100.809055 
L 137.239688 101.197685 
L 137.881265 101.531669 
L 138.549509 101.808465 
L 139.239335 102.025966 
L 139.945492 102.182517 
L 140.662606 102.276927 
L 141.38522 102.308477 
L 142.107833 102.276927 
L 142.824948 102.182517 
L 143.531105 102.025966 
L 144.22093 101.808465 
L 144.889174 101.531669 
L 145.530751 101.197685 
L 146.140778 100.809055 
L 146.714612 100.368737 
L 147.247886 99.880081 
L 147.736542 99.346807 
L 148.176861 98.772973 
L 148.565491 98.162946 
L 148.899474 97.521369 
L 149.17627 96.853125 
L 149.393771 96.163299 
L 149.550323 95.457142 
L 149.644732 94.740028 
L 149.676282 94.017414 
z
" clip-path="url(#p5bc54d1ef0)" style="fill: #facc37; stroke: #262626"/>
    <path d="M 93.422688 192.629438 
L 93.481964 192.071118 
L 93.38143 191.518669 
L 93.129231 191.016846 
L 92.7458 190.606303 
L 92.262198 190.320301 
L 91.717606 190.18201 
L 91.156142 190.202633 
L 90.623292 190.3805 
L 90.162226 190.7012 
L 89.810296 191.138753 
L 89.596013 191.657711 
L 89.321111 192.740282 
L 89.261835 193.298602 
L 89.362369 193.851051 
L 89.614567 194.352874 
L 89.997999 194.763417 
L 90.4816 195.049419 
L 91.026193 195.18771 
L 91.587657 195.167087 
L 92.120506 194.98922 
L 92.581572 194.66852 
L 92.933503 194.230967 
L 93.147785 193.712009 
z
" clip-path="url(#p5bc54d1ef0)" style="fill: #808080; stroke: #262626"/>
    <path d="M 78.070884 194.235158 
L 78.06716 194.155281 
L 78.056287 193.922122 
L 78.039146 193.554571 
L 78.017124 193.082403 
L 77.992008 192.543872 
L 77.96583 191.982605 
L 77.940712 191.444074 
L 77.91869 190.971906 
L 77.901546 190.604355 
L 77.89067 190.371196 
L 77.886943 190.29132 
L 48.710975 191.652092 
L 48.714697 191.731969 
L 48.725569 191.965128 
L 48.74271 192.332679 
L 48.76473 192.804847 
L 48.789847 193.343378 
L 48.816024 193.904645 
L 48.841142 194.443176 
L 48.863166 194.915344 
L 48.880311 195.282895 
L 48.891188 195.516054 
L 48.894916 195.59593 
z
" clip-path="url(#p5bc54d1ef0)" style="fill: #808080; stroke: #262626"/>
    <path d="M 104.15258 185.760571 
L 104.175828 185.83708 
L 104.243695 186.060408 
L 104.350681 186.412462 
L 104.488119 186.86472 
L 104.644874 187.380545 
L 104.808248 187.918145 
L 104.965005 188.433969 
L 105.102445 188.886227 
L 105.209433 189.238281 
L 105.277303 189.461607 
L 105.300555 189.538116 
L 132.284059 181.337973 
L 132.260808 181.261465 
L 132.192941 181.038137 
L 132.085954 180.686083 
L 131.948515 180.233825 
L 131.791759 179.718001 
L 131.628385 179.1804 
L 131.471629 178.664576 
L 131.33419 178.212318 
L 131.227202 177.860264 
L 131.159334 177.636937 
L 131.136083 177.560429 
z
" clip-path="url(#p5bc54d1ef0)" style="fill: #808080; stroke: #262626"/>
    <path d="M 87.297056 178.508068 
L 87.375778 178.494036 
L 87.605568 178.453073 
L 87.967808 178.388498 
L 88.433152 178.305542 
L 88.963902 178.210926 
L 89.517058 178.112316 
L 90.047807 178.017699 
L 90.513151 177.934742 
L 90.875391 177.870165 
L 91.10518 177.829199 
L 91.183902 177.815164 
L 85.926189 148.322018 
L 85.847467 148.336052 
L 85.617678 148.377016 
L 85.255438 148.441592 
L 84.790093 148.524548 
L 84.259344 148.619164 
L 83.706188 148.717775 
L 83.175439 148.812391 
L 82.710095 148.895348 
L 82.347854 148.959924 
L 82.118065 149.000888 
L 82.039343 149.014922 
z
" clip-path="url(#p5bc54d1ef0)" style="fill: #808080; stroke: #262626"/>
    <path d="M 105.459207 191.626047 
L 105.406623 190.421691 
L 105.249274 189.226501 
L 104.988355 188.049573 
L 104.625853 186.899863 
L 104.164527 185.786123 
L 103.607887 184.716829 
L 102.96017 183.700117 
L 102.226306 182.743727 
L 101.41188 181.854936 
L 100.523089 181.04051 
L 99.566699 180.306646 
L 98.549988 179.658929 
L 97.480693 179.10229 
L 96.366953 178.640963 
L 95.217244 178.278462 
L 94.040315 178.017543 
L 92.845125 177.860193 
L 91.640769 177.80761 
L 90.436413 177.860193 
L 89.241222 178.017543 
L 88.064294 178.278462 
L 86.914585 178.640963 
L 85.800845 179.10229 
L 84.73155 179.658929 
L 83.714839 180.306646 
L 82.758448 181.04051 
L 81.869658 181.854936 
L 81.055231 182.743727 
L 80.321367 183.700117 
L 79.673651 184.716829 
L 79.117011 185.786123 
L 78.655685 186.899863 
L 78.293183 188.049573 
L 78.032264 189.226501 
L 77.874915 190.421691 
L 77.822331 191.626047 
L 77.874915 192.830404 
L 78.032264 194.025594 
L 78.293183 195.202522 
L 78.655685 196.352231 
L 79.117011 197.465972 
L 79.673651 198.535266 
L 80.321367 199.551978 
L 81.055231 200.508368 
L 81.869658 201.397158 
L 82.758448 202.211585 
L 83.714839 202.945449 
L 84.73155 203.593165 
L 85.800845 204.149805 
L 86.914585 204.611131 
L 88.064294 204.973633 
L 89.241222 205.234552 
L 90.436413 205.391902 
L 91.640769 205.444485 
L 92.845125 205.391902 
L 94.040315 205.234552 
L 95.217244 204.973633 
L 96.366953 204.611131 
L 97.480693 204.149805 
L 98.549988 203.593165 
L 99.566699 202.945449 
L 100.523089 202.211585 
L 101.41188 201.397158 
L 102.226306 200.508368 
L 102.96017 199.551978 
L 103.607887 198.535266 
L 104.164527 197.465972 
L 104.625853 196.352231 
L 104.988355 195.202522 
L 105.249274 194.025594 
L 105.406623 192.830404 
L 105.459207 191.626047 
z
" clip-path="url(#p5bc54d1ef0)" style="fill: #8cb5ab; stroke: #262626"/>
    <path d="M 92.54829 91.676027 
L 92.334007 91.15707 
L 91.982077 90.719517 
L 91.521011 90.398817 
L 90.988162 90.22095 
L 90.426698 90.200327 
L 89.882105 90.338618 
L 89.398504 90.62462 
L 89.015072 91.035162 
L 88.762874 91.536986 
L 88.66234 92.089435 
L 88.721615 92.647754 
L 88.996485 93.730196 
L 89.210768 94.249154 
L 89.562698 94.686707 
L 90.023764 95.007407 
L 90.556613 95.185273 
L 91.118078 95.205897 
L 91.66267 95.067605 
L 92.146271 94.781604 
L 92.529703 94.371061 
L 92.781902 93.869238 
L 92.882436 93.316789 
L 92.82316 92.75847 
z
" clip-path="url(#p5bc54d1ef0)" style="fill: #808080; stroke: #262626"/>
    <path d="M 104.25734 90.309555 
L 104.253613 90.389432 
L 104.242737 90.62259 
L 104.225593 90.990141 
L 104.20357 91.462309 
L 104.178453 92.00084 
L 104.152275 92.562107 
L 104.127158 93.100638 
L 104.105137 93.572806 
L 104.087996 93.940358 
L 104.077122 94.173516 
L 104.073398 94.253393 
L 133.249367 95.614165 
L 133.253092 95.534289 
L 133.263967 95.30113 
L 133.281109 94.933579 
L 133.303131 94.461411 
L 133.328249 93.92288 
L 133.354426 93.361613 
L 133.379543 92.823082 
L 133.401565 92.350914 
L 133.418708 91.983363 
L 133.429582 91.750204 
L 133.433308 91.670327 
z
" clip-path="url(#p5bc54d1ef0)" style="fill: #808080; stroke: #262626"/>
    <path d="M 76.843728 89.556351 
L 76.86698 89.479843 
L 76.934849 89.256516 
L 77.041838 88.904463 
L 77.179277 88.452204 
L 77.336034 87.93638 
L 77.499408 87.39878 
L 77.656164 86.882956 
L 77.793602 86.430697 
L 77.900588 86.078643 
L 77.968454 85.855315 
L 77.991703 85.778806 
L 51.0082 77.578664 
L 50.984946 77.655171 
L 50.917076 77.878498 
L 50.810086 78.230551 
L 50.672646 78.682809 
L 50.515889 79.198633 
L 50.352515 79.736233 
L 50.195759 80.252057 
L 50.058322 80.704316 
L 49.951337 81.056371 
L 49.883472 81.279699 
L 49.860224 81.356208 
z
" clip-path="url(#p5bc54d1ef0)" style="fill: #808080; stroke: #262626"/>
    <path d="M 90.270445 105.460755 
L 90.191506 105.447997 
L 89.961083 105.41076 
L 89.597844 105.35206 
L 89.131217 105.276652 
L 88.599005 105.190646 
L 88.044324 105.10101 
L 87.512112 105.015005 
L 87.045484 104.939598 
L 86.682246 104.8809 
L 86.451823 104.843664 
L 86.372883 104.830909 
L 81.905371 132.476408 
L 81.984311 132.489165 
L 82.214733 132.526402 
L 82.577972 132.585101 
L 83.044599 132.660509 
L 83.576811 132.746514 
L 84.131492 132.836151 
L 84.663705 132.922156 
L 85.130332 132.997563 
L 85.493571 133.056262 
L 85.723993 133.093498 
L 85.802933 133.106254 
z
" clip-path="url(#p5bc54d1ef0)" style="fill: #808080; stroke: #262626"/>
    <path d="M 90.960381 77.833399 
L 91.039103 77.847434 
L 91.268892 77.888399 
L 91.631132 77.952976 
L 92.096476 78.035933 
L 92.627225 78.13055 
L 93.180381 78.22916 
L 93.711131 78.323776 
L 94.176475 78.406732 
L 94.538715 78.471307 
L 94.768505 78.512271 
L 94.847227 78.526303 
L 100.10494 49.033157 
L 100.026218 49.019121 
L 99.796429 48.978155 
L 99.434189 48.913577 
L 98.968845 48.830619 
L 98.438096 48.736002 
L 97.88494 48.637392 
L 97.354191 48.542776 
L 96.888846 48.459821 
L 96.526606 48.395247 
L 96.296816 48.354285 
L 96.218093 48.340253 
z
" clip-path="url(#p5bc54d1ef0)" style="fill: #808080; stroke: #262626"/>
    <path d="M 104.321952 91.644283 
L 104.269368 90.439926 
L 104.112018 89.244736 
L 103.8511 88.067808 
L 103.488598 86.918099 
L 103.027272 85.804358 
L 102.470632 84.735064 
L 101.822915 83.718352 
L 101.089051 82.761962 
L 100.274625 81.873172 
L 99.385834 81.058745 
L 98.429444 80.324881 
L 97.412733 79.677164 
L 96.343438 79.120525 
L 95.229698 78.659199 
L 94.079989 78.296697 
L 92.90306 78.035778 
L 91.70787 77.878428 
L 90.503514 77.825845 
L 89.299158 77.878428 
L 88.103967 78.035778 
L 86.927039 78.296697 
L 85.77733 78.659199 
L 84.66359 79.120525 
L 83.594295 79.677164 
L 82.577584 80.324881 
L 81.621193 81.058745 
L 80.732403 81.873172 
L 79.917976 82.761962 
L 79.184112 83.718352 
L 78.536396 84.735064 
L 77.979756 85.804358 
L 77.51843 86.918099 
L 77.155928 88.067808 
L 76.895009 89.244736 
L 76.737659 90.439926 
L 76.685076 91.644283 
L 76.737659 92.848639 
L 76.895009 94.043829 
L 77.155928 95.220757 
L 77.51843 96.370467 
L 77.979756 97.484207 
L 78.536396 98.553501 
L 79.184112 99.570213 
L 79.917976 100.526603 
L 80.732403 101.415394 
L 81.621193 102.22982 
L 82.577584 102.963684 
L 83.594295 103.611401 
L 84.66359 104.16804 
L 85.77733 104.629367 
L 86.927039 104.991868 
L 88.103967 105.252787 
L 89.299158 105.410137 
L 90.503514 105.46272 
L 91.70787 105.410137 
L 92.90306 105.252787 
L 94.079989 104.991868 
L 95.229698 104.629367 
L 96.343438 104.16804 
L 97.412733 103.611401 
L 98.429444 102.963684 
L 99.385834 102.22982 
L 100.274625 101.415394 
L 101.089051 100.526603 
L 101.822915 99.570213 
L 102.470632 98.553501 
L 103.027272 97.484207 
L 103.488598 96.370467 
L 103.8511 95.220757 
L 104.112018 94.043829 
L 104.269368 92.848639 
L 104.321952 91.644283 
z
" clip-path="url(#p5bc54d1ef0)" style="fill: #8cb5ab; stroke: #262626"/>
    <path d="M 188.25171 179.449168 
L 188.465993 179.968125 
L 188.817923 180.405678 
L 189.278989 180.726378 
L 189.811838 180.904245 
L 190.373302 180.924868 
L 190.917895 180.786577 
L 191.401496 180.500575 
L 191.784928 180.090033 
L 192.037126 179.58821 
L 192.13766 179.03576 
L 192.078385 178.477441 
L 191.803515 177.394999 
L 191.589232 176.876042 
L 191.237302 176.438489 
L 190.776236 176.117788 
L 190.243387 175.939922 
L 189.681922 175.919299 
L 189.13733 176.05759 
L 188.653729 176.343592 
L 188.270297 176.754134 
L 188.018098 177.255957 
L 187.917564 177.808406 
L 187.97684 178.366726 
z
" clip-path="url(#p5bc54d1ef0)" style="fill: #808080; stroke: #262626"/>
    <path d="M 176.54266 180.81564 
L 176.546387 180.735764 
L 176.557263 180.502605 
L 176.574407 180.135054 
L 176.59643 179.662886 
L 176.621547 179.124355 
L 176.647725 178.563088 
L 176.672842 178.024557 
L 176.694863 177.552389 
L 176.712004 177.184838 
L 176.722878 176.951679 
L 176.726602 176.871802 
L 147.550633 175.51103 
L 147.546908 175.590907 
L 147.536033 175.824065 
L 147.518891 176.191617 
L 147.496869 176.663784 
L 147.471751 177.202316 
L 147.445574 177.763582 
L 147.420457 178.302114 
L 147.398435 178.774281 
L 147.381292 179.141833 
L 147.370418 179.374991 
L 147.366692 179.454868 
z
" clip-path="url(#p5bc54d1ef0)" style="fill: #808080; stroke: #262626"/>
    <path d="M 203.956272 181.568845 
L 203.93302 181.645353 
L 203.865151 181.86868 
L 203.758162 182.220733 
L 203.620723 182.672991 
L 203.463966 183.188815 
L 203.300592 183.726415 
L 203.143836 184.24224 
L 203.006398 184.694498 
L 202.899412 185.046552 
L 202.831546 185.26988 
L 202.808297 185.346389 
L 229.7918 193.546532 
L 229.815054 193.470024 
L 229.882924 193.246697 
L 229.989914 192.894645 
L 230.127354 192.442387 
L 230.284111 191.926563 
L 230.447485 191.388962 
L 230.604241 190.873138 
L 230.741678 190.420879 
L 230.848663 190.068825 
L 230.916528 189.845496 
L 230.939776 189.768987 
z
" clip-path="url(#p5bc54d1ef0)" style="fill: #808080; stroke: #262626"/>
    <path d="M 190.529555 165.664441 
L 190.608494 165.677198 
L 190.838917 165.714435 
L 191.202156 165.773136 
L 191.668783 165.848543 
L 192.200995 165.934549 
L 192.755676 166.024185 
L 193.287888 166.11019 
L 193.754516 166.185597 
L 194.117754 166.244296 
L 194.348177 166.281531 
L 194.427117 166.294287 
L 198.894629 138.648787 
L 198.815689 138.63603 
L 198.585267 138.598794 
L 198.222028 138.540094 
L 197.755401 138.464687 
L 197.223189 138.378681 
L 196.668508 138.289045 
L 196.136295 138.203039 
L 195.669668 138.127633 
L 195.306429 138.068934 
L 195.076007 138.031698 
L 194.997067 138.018941 
z
" clip-path="url(#p5bc54d1ef0)" style="fill: #808080; stroke: #262626"/>
    <path d="M 189.839619 193.291796 
L 189.760897 193.277761 
L 189.531108 193.236796 
L 189.168868 193.172219 
L 188.703524 193.089262 
L 188.172775 192.994646 
L 187.619619 192.896035 
L 187.088869 192.801419 
L 186.623525 192.718463 
L 186.261285 192.653888 
L 186.031495 192.612925 
L 185.952773 192.598892 
L 180.69506 222.092038 
L 180.773782 222.106074 
L 181.003571 222.14704 
L 181.365811 222.211618 
L 181.831155 222.294576 
L 182.361904 222.389193 
L 182.91506 222.487804 
L 183.445809 222.582419 
L 183.911154 222.665374 
L 184.273394 222.729948 
L 184.503184 222.770911 
L 184.581907 222.784942 
z
" clip-path="url(#p5bc54d1ef0)" style="fill: #808080; stroke: #262626"/>
    <path d="M 204.114924 179.480913 
L 204.062341 178.276557 
L 203.904991 177.081366 
L 203.644072 175.904438 
L 203.28157 174.754729 
L 202.820244 173.640989 
L 202.263604 172.571694 
L 201.615888 171.554982 
L 200.882024 170.598592 
L 200.067597 169.709802 
L 199.178807 168.895375 
L 198.222416 168.161511 
L 197.205705 167.513795 
L 196.13641 166.957155 
L 195.02267 166.495829 
L 193.872961 166.133327 
L 192.696033 165.872408 
L 191.500842 165.715058 
L 190.296486 165.662475 
L 189.09213 165.715058 
L 187.89694 165.872408 
L 186.720011 166.133327 
L 185.570302 166.495829 
L 184.456562 166.957155 
L 183.387267 167.513795 
L 182.370556 168.161511 
L 181.414166 168.895375 
L 180.525375 169.709802 
L 179.710949 170.598592 
L 178.977085 171.554982 
L 178.329368 172.571694 
L 177.772728 173.640989 
L 177.311402 174.754729 
L 176.9489 175.904438 
L 176.687982 177.081366 
L 176.530632 178.276557 
L 176.478048 179.480913 
L 176.530632 180.685269 
L 176.687982 181.880459 
L 176.9489 183.057388 
L 177.311402 184.207097 
L 177.772728 185.320837 
L 178.329368 186.390132 
L 178.977085 187.406843 
L 179.710949 188.363233 
L 180.525375 189.252024 
L 181.414166 190.06645 
L 182.370556 190.800314 
L 183.387267 191.448031 
L 184.456562 192.00467 
L 185.570302 192.465997 
L 186.720011 192.828499 
L 187.89694 193.089417 
L 189.09213 193.246767 
L 190.296486 193.29935 
L 191.500842 193.246767 
L 192.696033 193.089417 
L 193.872961 192.828499 
L 195.02267 192.465997 
L 196.13641 192.00467 
L 197.205705 191.448031 
L 198.222416 190.800314 
L 199.178807 190.06645 
L 200.067597 189.252024 
L 200.882024 188.363233 
L 201.615888 187.406843 
L 202.263604 186.390132 
L 202.820244 185.320837 
L 203.28157 184.207097 
L 203.644072 183.057388 
L 203.904991 181.880459 
L 204.062341 180.685269 
L 204.114924 179.480913 
z
" clip-path="url(#p5bc54d1ef0)" style="fill: #8cb5ab; stroke: #262626"/>
    <path d="M 187.377312 78.495758 
L 187.318036 79.054077 
L 187.41857 79.606526 
L 187.670769 80.10835 
L 188.0542 80.518892 
L 188.537802 80.804894 
L 189.082394 80.943185 
L 189.643858 80.922562 
L 190.176708 80.744695 
L 190.637774 80.423995 
L 190.989704 79.986442 
L 191.203987 79.467484 
L 191.478889 78.384913 
L 191.538165 77.826594 
L 191.437631 77.274144 
L 191.185433 76.772321 
L 190.802001 76.361779 
L 190.3184 76.075777 
L 189.773807 75.937486 
L 189.212343 75.958109 
L 188.679494 76.135975 
L 188.218428 76.456676 
L 187.866497 76.894229 
L 187.652215 77.413186 
z
" clip-path="url(#p5bc54d1ef0)" style="fill: #808080; stroke: #262626"/>
    <path d="M 176.64742 85.364624 
L 176.624172 85.288115 
L 176.556305 85.064787 
L 176.449319 84.712734 
L 176.311881 84.260475 
L 176.155126 83.744651 
L 175.991752 83.20705 
L 175.834995 82.691226 
L 175.697555 82.238968 
L 175.590567 81.886915 
L 175.522697 81.663588 
L 175.499445 81.58708 
L 148.515941 89.787222 
L 148.539192 89.863731 
L 148.607059 90.087058 
L 148.714046 90.439112 
L 148.851485 90.89137 
L 149.008241 91.407194 
L 149.171615 91.944795 
L 149.328371 92.460619 
L 149.46581 92.912878 
L 149.572798 93.264931 
L 149.640666 93.488258 
L 149.663917 93.564767 
z
" clip-path="url(#p5bc54d1ef0)" style="fill: #808080; stroke: #262626"/>
    <path d="M 193.502944 92.617127 
L 193.424222 92.631159 
L 193.194432 92.672123 
L 192.832192 92.736698 
L 192.366848 92.819653 
L 191.836098 92.914269 
L 191.282942 93.01288 
L 190.752193 93.107496 
L 190.286849 93.190453 
L 189.924609 93.255031 
L 189.69482 93.295996 
L 189.616098 93.310031 
L 194.873811 122.803177 
L 194.952533 122.789143 
L 195.182322 122.748179 
L 195.544562 122.683603 
L 196.009907 122.600647 
L 196.540656 122.506031 
L 197.093812 122.40742 
L 197.624561 122.312804 
L 198.089905 122.229848 
L 198.452146 122.165271 
L 198.681935 122.124307 
L 198.760657 122.110273 
z
" clip-path="url(#p5bc54d1ef0)" style="fill: #808080; stroke: #262626"/>
    <path d="M 202.729116 76.890038 
L 202.73284 76.969914 
L 202.743713 77.203073 
L 202.760854 77.570624 
L 202.782876 78.042792 
L 202.807992 78.581323 
L 202.83417 79.14259 
L 202.859288 79.681121 
L 202.88131 80.153289 
L 202.898454 80.52084 
L 202.90933 80.753999 
L 202.913057 80.833875 
L 232.089025 79.473103 
L 232.085303 79.393226 
L 232.074431 79.160068 
L 232.05729 78.792516 
L 232.03527 78.320348 
L 232.010153 77.781817 
L 231.983976 77.22055 
L 231.958858 76.682019 
L 231.936834 76.209851 
L 231.919689 75.8423 
L 231.908812 75.609142 
L 231.905084 75.529265 
z
" clip-path="url(#p5bc54d1ef0)" style="fill: #808080; stroke: #262626"/>
    <path d="M 202.977669 79.499148 
L 202.925085 78.294792 
L 202.767736 77.099601 
L 202.506817 75.922673 
L 202.144315 74.772964 
L 201.682989 73.659224 
L 201.126349 72.589929 
L 200.478633 71.573218 
L 199.744769 70.616827 
L 198.930342 69.728037 
L 198.041552 68.91361 
L 197.085161 68.179746 
L 196.06845 67.53203 
L 194.999155 66.97539 
L 193.885415 66.514064 
L 192.735706 66.151562 
L 191.558778 65.890643 
L 190.363587 65.733294 
L 189.159231 65.68071 
L 187.954875 65.733294 
L 186.759685 65.890643 
L 185.582756 66.151562 
L 184.433047 66.514064 
L 183.319307 66.97539 
L 182.250012 67.53203 
L 181.233301 68.179746 
L 180.276911 68.91361 
L 179.38812 69.728037 
L 178.573694 70.616827 
L 177.83983 71.573218 
L 177.192113 72.589929 
L 176.635473 73.659224 
L 176.174147 74.772964 
L 175.811645 75.922673 
L 175.550726 77.099601 
L 175.393377 78.294792 
L 175.340793 79.499148 
L 175.393377 80.703504 
L 175.550726 81.898694 
L 175.811645 83.075623 
L 176.174147 84.225332 
L 176.635473 85.339072 
L 177.192113 86.408367 
L 177.83983 87.425078 
L 178.573694 88.381468 
L 179.38812 89.270259 
L 180.276911 90.084685 
L 181.233301 90.818549 
L 182.250012 91.466266 
L 183.319307 92.022906 
L 184.433047 92.484232 
L 185.582756 92.846734 
L 186.759685 93.107652 
L 187.954875 93.265002 
L 189.159231 93.317586 
L 190.363587 93.265002 
L 191.558778 93.107652 
L 192.735706 92.846734 
L 193.885415 92.484232 
L 194.999155 92.022906 
L 196.06845 91.466266 
L 197.085161 90.818549 
L 198.041552 90.084685 
L 198.930342 89.270259 
L 199.744769 88.381468 
L 200.478633 87.425078 
L 201.126349 86.408367 
L 201.682989 85.339072 
L 202.144315 84.225332 
L 202.506817 83.075623 
L 202.767736 81.898694 
L 202.925085 80.703504 
L 202.977669 79.499148 
z
" clip-path="url(#p5bc54d1ef0)" style="fill: #8cb5ab; stroke: #262626"/>
    <path d="M 90.860576 140.740828 
L 90.829026 140.018214 
L 90.734616 139.3011 
L 90.578065 138.594943 
L 90.360564 137.905117 
L 90.083768 137.236873 
L 89.749784 136.595297 
L 89.361154 135.98527 
L 88.920836 135.411436 
L 88.43218 134.878161 
L 87.898906 134.389505 
L 87.325072 133.949187 
L 86.715045 133.560557 
L 86.073468 133.226573 
L 85.405224 132.949777 
L 84.715398 132.732276 
L 84.009241 132.575725 
L 83.292127 132.481315 
L 82.569514 132.449765 
L 81.8469 132.481315 
L 81.129786 132.575725 
L 80.423629 132.732276 
L 79.733803 132.949777 
L 79.065559 133.226573 
L 78.423982 133.560557 
L 77.813955 133.949187 
L 77.240121 134.389505 
L 76.706847 134.878161 
L 76.218191 135.411436 
L 75.777873 135.98527 
L 75.389243 136.595297 
L 75.055259 137.236873 
L 74.778463 137.905117 
L 74.560962 138.594943 
L 74.404411 139.3011 
L 74.310001 140.018214 
L 74.278451 140.740828 
L 74.310001 141.463442 
L 74.404411 142.180556 
L 74.560962 142.886713 
L 74.778463 143.576538 
L 75.055259 144.244782 
L 75.389243 144.886359 
L 75.777873 145.496386 
L 76.218191 146.07022 
L 76.706847 146.603494 
L 77.240121 147.09215 
L 77.813955 147.532469 
L 78.423982 147.921099 
L 79.065559 148.255082 
L 79.733803 148.531878 
L 80.423629 148.749379 
L 81.129786 148.905931 
L 81.8469 149.00034 
L 82.569514 149.03189 
L 83.292127 149.00034 
L 84.009241 148.905931 
L 84.715398 148.749379 
L 85.405224 148.531878 
L 86.073468 148.255082 
L 86.715045 147.921099 
L 87.325072 147.532469 
L 87.898906 147.09215 
L 88.43218 146.603494 
L 88.920836 146.07022 
L 89.361154 145.496386 
L 89.749784 144.886359 
L 90.083768 144.244782 
L 90.360564 143.576538 
L 90.578065 142.886713 
L 90.734616 142.180556 
L 90.829026 141.463442 
L 90.860576 140.740828 
z
" clip-path="url(#p5bc54d1ef0)" style="fill: #facc37; stroke: #262626"/>
    <path d="M 51.020565 77.126016 
L 50.989015 76.403402 
L 50.894605 75.686288 
L 50.738054 74.980131 
L 50.520553 74.290306 
L 50.243757 73.622062 
L 49.909773 72.980485 
L 49.521143 72.370458 
L 49.080825 71.796624 
L 48.592169 71.263349 
L 48.058895 70.774694 
L 47.485061 70.334375 
L 46.875034 69.945745 
L 46.233457 69.611761 
L 45.565213 69.334966 
L 44.875387 69.117464 
L 44.16923 68.960913 
L 43.452116 68.866503 
L 42.729503 68.834953 
L 42.006889 68.866503 
L 41.289775 68.960913 
L 40.583618 69.117464 
L 39.893792 69.334966 
L 39.225548 69.611761 
L 38.583971 69.945745 
L 37.973944 70.334375 
L 37.40011 70.774694 
L 36.866836 71.263349 
L 36.37818 71.796624 
L 35.937862 72.370458 
L 35.549232 72.980485 
L 35.215248 73.622062 
L 34.938452 74.290306 
L 34.720951 74.980131 
L 34.5644 75.686288 
L 34.46999 76.403402 
L 34.43844 77.126016 
L 34.46999 77.84863 
L 34.5644 78.565744 
L 34.720951 79.271901 
L 34.938452 79.961726 
L 35.215248 80.62997 
L 35.549232 81.271547 
L 35.937862 81.881574 
L 36.37818 82.455408 
L 36.866836 82.988683 
L 37.40011 83.477338 
L 37.973944 83.917657 
L 38.583971 84.306287 
L 39.225548 84.640271 
L 39.893792 84.917066 
L 40.583618 85.134568 
L 41.289775 85.291119 
L 42.006889 85.385529 
L 42.729503 85.417079 
L 43.452116 85.385529 
L 44.16923 85.291119 
L 44.875387 85.134568 
L 45.565213 84.917066 
L 46.233457 84.640271 
L 46.875034 84.306287 
L 47.485061 83.917657 
L 48.058895 83.477338 
L 48.592169 82.988683 
L 49.080825 82.455408 
L 49.521143 81.881574 
L 49.909773 81.271547 
L 50.243757 80.62997 
L 50.520553 79.961726 
L 50.738054 79.271901 
L 50.894605 78.565744 
L 50.989015 77.84863 
L 51.020565 77.126016 
z
" clip-path="url(#p5bc54d1ef0)" style="fill: #facc37; stroke: #262626"/>
    <path d="M 107.865832 40.759063 
L 107.834282 40.036449 
L 107.739872 39.319335 
L 107.583321 38.613178 
L 107.36582 37.923353 
L 107.089024 37.255109 
L 106.75504 36.613532 
L 106.36641 36.003505 
L 105.926092 35.429671 
L 105.437436 34.896396 
L 104.904162 34.407741 
L 104.330327 33.967422 
L 103.720301 33.578792 
L 103.078724 33.244808 
L 102.41048 32.968013 
L 101.720654 32.750512 
L 101.014497 32.59396 
L 100.297383 32.49955 
L 99.574769 32.468 
L 98.852155 32.49955 
L 98.135041 32.59396 
L 97.428884 32.750512 
L 96.739059 32.968013 
L 96.070815 33.244808 
L 95.429238 33.578792 
L 94.819211 33.967422 
L 94.245377 34.407741 
L 93.712103 34.896396 
L 93.223447 35.429671 
L 92.783128 36.003505 
L 92.394498 36.613532 
L 92.060515 37.255109 
L 91.783719 37.923353 
L 91.566218 38.613178 
L 91.409666 39.319335 
L 91.315257 40.036449 
L 91.283707 40.759063 
L 91.315257 41.481677 
L 91.409666 42.198791 
L 91.566218 42.904948 
L 91.783719 43.594773 
L 92.060515 44.263018 
L 92.394498 44.904594 
L 92.783128 45.514621 
L 93.223447 46.088455 
L 93.712103 46.62173 
L 94.245377 47.110385 
L 94.819211 47.550704 
L 95.429238 47.939334 
L 96.070815 48.273318 
L 96.739059 48.550113 
L 97.428884 48.767615 
L 98.135041 48.924166 
L 98.852155 49.018576 
L 99.574769 49.050126 
L 100.297383 49.018576 
L 101.014497 48.924166 
L 101.720654 48.767615 
L 102.41048 48.550113 
L 103.078724 48.273318 
L 103.720301 47.939334 
L 104.330327 47.550704 
L 104.904162 47.110385 
L 105.437436 46.62173 
L 105.926092 46.088455 
L 106.36641 45.514621 
L 106.75504 44.904594 
L 107.089024 44.263018 
L 107.36582 43.594773 
L 107.583321 42.904948 
L 107.739872 42.198791 
L 107.834282 41.481677 
L 107.865832 40.759063 
z
" clip-path="url(#p5bc54d1ef0)" style="fill: #facc37; stroke: #262626"/>
   </g>
  </g>
 </g>
 <defs>
  <clipPath id="p5bc54d1ef0">
   <rect x="7.2" y="7.2" width="266.4" height="256.725195"/>
  </clipPath>
 </defs>
</svg>
