<?xml version="1.0" encoding="utf-8" standalone="no"?>
<!DOCTYPE svg PUBLIC "-//W3C//DTD SVG 1.1//EN"
  "http://www.w3.org/Graphics/SVG/1.1/DTD/svg11.dtd">
<svg xmlns:xlink="http://www.w3.org/1999/xlink" width="352.8pt" height="340.510383pt" viewBox="0 0 352.8 340.510383" xmlns="http://www.w3.org/2000/svg" version="1.1">
 <metadata>
  <rdf:RDF xmlns:dc="http://purl.org/dc/elements/1.1/" xmlns:cc="http://creativecommons.org/ns#" xmlns:rdf="http://www.w3.org/1999/02/22-rdf-syntax-ns#">
   <cc:Work>
    <dc:type rdf:resource="http://purl.org/dc/dcmitype/StillImage"/>
    <dc:date>2026-02-17T19:13:13.219141</dc:date>
    <dc:format>image/svg+xml</dc:format>
    <dc:creator>
     <cc:Agent>
      <dc:title>Matplotlib v3.10.7, https://matplotlib.org/</dc:title>
     </cc:Agent>
    </dc:creator>
   </cc:Work>
  </rdf:RDF>
 </metadata>
 <defs>
  <style type="text/css">*{stroke-linejoin: round; stroke-linecap: butt}</style>
 </defs>
 <g id="figure_1">
  <g id="patch_1">
   <path d="M 0 340.510383 
L 352.8 340.510383 
L 352.8 0 
L 0 0 
z
" style="fill: #ffffff"/>
  </g>
  <g id="axes_1">
   <g id="PolyCollection_1">
    <path d="M 51.080575 296.920655 
L 220.033878 296.920655 
L 220.033878 297.597455 
L 51.080575 297.597455 
z
" clip-path="url(#p2872636277)" style="fill: #4c4c4c"/>
    <path d="M 236.484276 296.920655 
L 301.719425 296.920655 
L 301.719425 297.597455 
L 236.484276 297.597455 
z
" clip-path="url(#p2872636277)" style="fill: #4c4c4c"/>
    <path d="M 50.742175 297.259055 
L 50.742175 254.942713 
L 51.418975 254.942713 
L 51.418975 297.259055 
z
" clip-path="url(#p2872636277)" style="fill: #4c4c4c"/>
    <path d="M 50.742175 234.028175 
L 50.742175 106.482208 
L 51.418975 106.482208 
L 51.418975 234.028175 
z
" clip-path="url(#p2872636277)" style="fill: #4c4c4c"/>
    <path d="M 50.742175 85.56767 
L 50.742175 43.251328 
L 51.418975 43.251328 
L 51.418975 85.56767 
z
" clip-path="url(#p2872636277)" style="fill: #4c4c4c"/>
    <path d="M 301.381025 297.259055 
L 301.381025 254.942713 
L 302.057825 254.942713 
L 302.057825 297.259055 
z
" clip-path="url(#p2872636277)" style="fill: #4c4c4c"/>
    <path d="M 301.381025 234.028175 
L 301.381025 106.482208 
L 302.057825 106.482208 
L 302.057825 234.028175 
z
" clip-path="url(#p2872636277)" style="fill: #4c4c4c"/>
    <path d="M 301.381025 85.56767 
L 301.381025 43.251328 
L 302.057825 43.251328 
L 302.057825 85.56767 
z
" clip-path="url(#p2872636277)" style="fill: #4c4c4c"/>
    <path d="M 51.080575 42.912928 
L 116.315724 42.912928 
L 116.315724 43.589728 
L 51.080575 43.589728 
z
" clip-path="url(#p2872636277)" style="fill: #4c4c4c"/>
    <path d="M 132.766122 42.912928 
L 301.719425 42.912928 
L 301.719425 43.589728 
L 132.766122 43.589728 
z
" clip-path="url(#p2872636277)" style="fill: #4c4c4c"/>
    <path d="M 222.444021 106.490199 
L 222.414488 106.393011 
L 222.328279 106.109325 
L 222.192378 105.662121 
L 222.017795 105.08763 
L 221.818673 104.432394 
L 221.611144 103.749496 
L 221.412021 103.09426 
L 221.237435 102.51977 
L 221.101531 102.072567 
L 221.015318 101.788882 
L 220.985781 101.691696 
L 186.709439 112.108093 
L 186.738973 112.20528 
L 186.825183 112.488966 
L 186.961086 112.936169 
L 187.13567 113.51066 
L 187.334793 114.165896 
L 187.542322 114.848794 
L 187.741445 115.50403 
L 187.916029 116.07852 
L 188.051932 116.525723 
L 188.138144 116.809409 
L 188.167678 116.906596 
z
" clip-path="url(#p2872636277)" style="fill: #808080; stroke: #262626"/>
    <path d="M 243.855092 115.702837 
L 243.755093 115.720662 
L 243.463198 115.772696 
L 243.003055 115.854724 
L 242.411942 115.9601 
L 241.737747 116.080288 
L 241.035089 116.20555 
L 240.360894 116.325738 
L 239.769781 116.431116 
L 239.309639 116.513147 
L 239.017744 116.565184 
L 238.917746 116.583012 
L 245.596462 154.047279 
L 245.696461 154.029453 
L 245.988355 153.977417 
L 246.448498 153.895388 
L 247.039611 153.790011 
L 247.713806 153.669823 
L 248.416464 153.544561 
L 249.090659 153.424373 
L 249.681772 153.318996 
L 250.141915 153.236966 
L 250.433809 153.18493 
L 250.533808 153.167104 
z
" clip-path="url(#p2872636277)" style="fill: #808080; stroke: #262626"/>
    <path d="M 255.574822 95.725183 
L 255.579553 95.826648 
L 255.593365 96.122822 
L 255.615139 96.589712 
L 255.643112 97.189493 
L 255.675017 97.873573 
L 255.70827 98.586533 
L 255.740176 99.270614 
L 255.768151 99.870394 
L 255.789928 100.337284 
L 255.803743 100.633458 
L 255.808478 100.734923 
L 292.869843 99.006374 
L 292.865114 98.904909 
L 292.851304 98.608735 
L 292.829531 98.141845 
L 292.801559 97.542064 
L 292.769654 96.857984 
L 292.736402 96.145023 
L 292.704495 95.460943 
L 292.676519 94.861163 
L 292.654741 94.394273 
L 292.640924 94.098099 
L 292.636188 93.996634 
z
" clip-path="url(#p2872636277)" style="fill: #808080; stroke: #262626"/>
    <path d="M 255.890552 99.039458 
L 255.823757 97.5096 
L 255.62388 95.991386 
L 255.292443 94.496368 
L 254.831968 93.035927 
L 254.245959 91.621176 
L 253.538876 90.262883 
L 252.716101 88.971385 
L 251.783895 87.75651 
L 250.749353 86.627506 
L 249.620349 85.592965 
L 248.405475 84.660759 
L 247.113977 83.837984 
L 245.755684 83.130901 
L 244.340933 82.544892 
L 242.880491 82.084417 
L 241.385474 81.752979 
L 239.86726 81.553103 
L 238.337402 81.486308 
L 236.807544 81.553103 
L 235.289329 81.752979 
L 233.794312 82.084417 
L 232.333871 82.544892 
L 230.91912 83.130901 
L 229.560826 83.837984 
L 228.269328 84.660759 
L 227.054454 85.592965 
L 225.92545 86.627506 
L 224.890908 87.75651 
L 223.958702 88.971385 
L 223.135927 90.262883 
L 222.428845 91.621176 
L 221.842836 93.035927 
L 221.38236 94.496368 
L 221.050923 95.991386 
L 220.851046 97.5096 
L 220.784251 99.039458 
L 220.851046 100.569316 
L 221.050923 102.087531 
L 221.38236 103.582548 
L 221.842836 105.042989 
L 222.428845 106.45774 
L 223.135927 107.816033 
L 223.958702 109.107532 
L 224.890908 110.322406 
L 225.92545 111.45141 
L 227.054454 112.485952 
L 228.269328 113.418157 
L 229.560826 114.240932 
L 230.91912 114.948015 
L 232.333871 115.534024 
L 233.794312 115.9945 
L 235.289329 116.325937 
L 236.807544 116.525814 
L 238.337402 116.592609 
L 239.86726 116.525814 
L 241.385474 116.325937 
L 242.880491 115.9945 
L 244.340933 115.534024 
L 245.755684 114.948015 
L 247.113977 114.240932 
L 248.405475 113.418157 
L 249.620349 112.485952 
L 250.749353 111.45141 
L 251.783895 110.322406 
L 252.716101 109.107532 
L 253.538876 107.816033 
L 254.245959 106.45774 
L 254.831968 105.042989 
L 255.292443 103.582548 
L 255.62388 102.087531 
L 255.823757 100.569316 
L 255.890552 99.039458 
z
" clip-path="url(#p2872636277)" style="fill: #8cb5ab; stroke: #262626"/>
    <path d="M 313.50281 96.024939 
L 313.462733 95.107025 
L 313.342807 94.196096 
L 313.143945 93.299085 
L 312.86766 92.422821 
L 312.516054 91.57397 
L 312.091805 90.758994 
L 311.598139 89.984095 
L 311.038816 89.255171 
L 310.418091 88.577768 
L 309.740689 87.957043 
L 309.011764 87.39772 
L 308.236865 86.904055 
L 307.421889 86.479805 
L 306.573039 86.1282 
L 305.696774 85.851914 
L 304.799764 85.653052 
L 303.888835 85.533126 
L 302.97092 85.493049 
L 302.053005 85.533126 
L 301.142076 85.653052 
L 300.245066 85.851914 
L 299.368801 86.1282 
L 298.519951 86.479805 
L 297.704975 86.904055 
L 296.930076 87.39772 
L 296.201151 87.957043 
L 295.523749 88.577768 
L 294.903024 89.255171 
L 294.3437 89.984095 
L 293.850035 90.758994 
L 293.425786 91.57397 
L 293.07418 92.422821 
L 292.797895 93.299085 
L 292.599033 94.196096 
L 292.479107 95.107025 
L 292.43903 96.024939 
L 292.479107 96.942854 
L 292.599033 97.853783 
L 292.797895 98.750793 
L 293.07418 99.627058 
L 293.425786 100.475908 
L 293.850035 101.290884 
L 294.3437 102.065783 
L 294.903024 102.794708 
L 295.523749 103.47211 
L 296.201151 104.092835 
L 296.930076 104.652159 
L 297.704975 105.145824 
L 298.519951 105.570073 
L 299.368801 105.921679 
L 300.245066 106.197964 
L 301.142076 106.396827 
L 302.053005 106.516753 
L 302.97092 106.55683 
L 303.888835 106.516753 
L 304.799764 106.396827 
L 305.696774 106.197964 
L 306.573039 105.921679 
L 307.421889 105.570073 
L 308.236865 105.145824 
L 309.011764 104.652159 
L 309.740689 104.092835 
L 310.418091 103.47211 
L 311.038816 102.794708 
L 311.598139 102.065783 
L 312.091805 101.290884 
L 312.516054 100.475908 
L 312.86766 99.627058 
L 313.143945 98.750793 
L 313.342807 97.853783 
L 313.462733 96.942854 
L 313.50281 96.024939 
z
" clip-path="url(#p2872636277)" style="fill: #facc37; stroke: #262626"/>
    <path d="M 60.36097 244.485444 
L 60.320893 243.567529 
L 60.200967 242.6566 
L 60.002105 241.75959 
L 59.72582 240.883325 
L 59.374214 240.034475 
L 58.949965 239.219499 
L 58.4563 238.4446 
L 57.896976 237.715675 
L 57.276251 237.038273 
L 56.598849 236.417548 
L 55.869924 235.858224 
L 55.095025 235.364559 
L 54.280049 234.94031 
L 53.431199 234.588704 
L 52.554934 234.312419 
L 51.657924 234.113557 
L 50.746995 233.993631 
L 49.82908 233.953554 
L 48.911165 233.993631 
L 48.000236 234.113557 
L 47.103226 234.312419 
L 46.226961 234.588704 
L 45.378111 234.94031 
L 44.563135 235.364559 
L 43.788236 235.858224 
L 43.059311 236.417548 
L 42.381909 237.038273 
L 41.761184 237.715675 
L 41.201861 238.4446 
L 40.708195 239.219499 
L 40.283946 240.034475 
L 39.93234 240.883325 
L 39.656055 241.75959 
L 39.457193 242.6566 
L 39.337267 243.567529 
L 39.29719 244.485444 
L 39.337267 245.403359 
L 39.457193 246.314288 
L 39.656055 247.211298 
L 39.93234 248.087563 
L 40.283946 248.936413 
L 40.708195 249.751389 
L 41.201861 250.526288 
L 41.761184 251.255213 
L 42.381909 251.932615 
L 43.059311 252.55334 
L 43.788236 253.112663 
L 44.563135 253.606329 
L 45.378111 254.030578 
L 46.226961 254.382184 
L 47.103226 254.658469 
L 48.000236 254.857331 
L 48.911165 254.977257 
L 49.82908 255.017334 
L 50.746995 254.977257 
L 51.657924 254.857331 
L 52.554934 254.658469 
L 53.431199 254.382184 
L 54.280049 254.030578 
L 55.095025 253.606329 
L 55.869924 253.112663 
L 56.598849 252.55334 
L 57.276251 251.932615 
L 57.896976 251.255213 
L 58.4563 250.526288 
L 58.949965 249.751389 
L 59.374214 248.936413 
L 59.72582 248.087563 
L 60.002105 247.211298 
L 60.200967 246.314288 
L 60.320893 245.403359 
L 60.36097 244.485444 
z
" clip-path="url(#p2872636277)" style="fill: #facc37; stroke: #262626"/>
    <path d="M 135.072813 49.82908 
L 135.032736 48.911165 
L 134.91281 48.000236 
L 134.713948 47.103226 
L 134.437663 46.226961 
L 134.086057 45.378111 
L 133.661808 44.563135 
L 133.168143 43.788236 
L 132.608819 43.059311 
L 131.988094 42.381909 
L 131.310692 41.761184 
L 130.581767 41.201861 
L 129.806868 40.708195 
L 128.991892 40.283946 
L 128.143042 39.93234 
L 127.266777 39.656055 
L 126.369767 39.457193 
L 125.458838 39.337267 
L 124.540923 39.29719 
L 123.623008 39.337267 
L 122.712079 39.457193 
L 121.815069 39.656055 
L 120.938804 39.93234 
L 120.089954 40.283946 
L 119.274978 40.708195 
L 118.500079 41.201861 
L 117.771154 41.761184 
L 117.093752 42.381909 
L 116.473027 43.059311 
L 115.913704 43.788236 
L 115.420038 44.563135 
L 114.995789 45.378111 
L 114.644183 46.226961 
L 114.367898 47.103226 
L 114.169036 48.000236 
L 114.04911 48.911165 
L 114.009033 49.82908 
L 114.04911 50.746995 
L 114.169036 51.657924 
L 114.367898 52.554934 
L 114.644183 53.431199 
L 114.995789 54.280049 
L 115.420038 55.095025 
L 115.913704 55.869924 
L 116.473027 56.598849 
L 117.093752 57.276251 
L 117.771154 57.896976 
L 118.500079 58.4563 
L 119.274978 58.949965 
L 120.089954 59.374214 
L 120.938804 59.72582 
L 121.815069 60.002105 
L 122.712079 60.200967 
L 123.623008 60.320893 
L 124.540923 60.36097 
L 125.458838 60.320893 
L 126.369767 60.200967 
L 127.266777 60.002105 
L 128.143042 59.72582 
L 128.991892 59.374214 
L 129.806868 58.949965 
L 130.581767 58.4563 
L 131.310692 57.896976 
L 131.988094 57.276251 
L 132.608819 56.598849 
L 133.168143 55.869924 
L 133.661808 55.095025 
L 134.086057 54.280049 
L 134.437663 53.431199 
L 134.713948 52.554934 
L 134.91281 51.657924 
L 135.032736 50.746995 
L 135.072813 49.82908 
z
" clip-path="url(#p2872636277)" style="fill: #facc37; stroke: #262626"/>
    <path d="M 113.471543 176.832943 
L 113.431466 175.915029 
L 113.31154 175.0041 
L 113.112677 174.10709 
L 112.836392 173.230825 
L 112.484787 172.381974 
L 112.060537 171.566998 
L 111.566872 170.792099 
L 111.007548 170.063175 
L 110.386823 169.385772 
L 109.709421 168.765047 
L 108.980497 168.205724 
L 108.205598 167.712059 
L 107.390622 167.287809 
L 106.541771 166.936204 
L 105.665506 166.659919 
L 104.768496 166.461056 
L 103.857567 166.34113 
L 102.939652 166.301053 
L 102.021738 166.34113 
L 101.110809 166.461056 
L 100.213799 166.659919 
L 99.337534 166.936204 
L 98.488683 167.287809 
L 97.673707 167.712059 
L 96.898808 168.205724 
L 96.169884 168.765047 
L 95.492481 169.385772 
L 94.871756 170.063175 
L 94.312433 170.792099 
L 93.818768 171.566998 
L 93.394518 172.381974 
L 93.042913 173.230825 
L 92.766627 174.10709 
L 92.567765 175.0041 
L 92.447839 175.915029 
L 92.407762 176.832943 
L 92.447839 177.750858 
L 92.567765 178.661787 
L 92.766627 179.558797 
L 93.042913 180.435062 
L 93.394518 181.283913 
L 93.818768 182.098889 
L 94.312433 182.873788 
L 94.871756 183.602712 
L 95.492481 184.280115 
L 96.169884 184.90084 
L 96.898808 185.460163 
L 97.673707 185.953828 
L 98.488683 186.378078 
L 99.337534 186.729683 
L 100.213799 187.005968 
L 101.110809 187.204831 
L 102.021738 187.324757 
L 102.939652 187.364834 
L 103.857567 187.324757 
L 104.768496 187.204831 
L 105.665506 187.005968 
L 106.541771 186.729683 
L 107.390622 186.378078 
L 108.205598 185.953828 
L 108.980497 185.460163 
L 109.709421 184.90084 
L 110.386823 184.280115 
L 111.007548 183.602712 
L 111.566872 182.873788 
L 112.060537 182.098889 
L 112.484787 181.283913 
L 112.836392 180.435062 
L 113.112677 179.558797 
L 113.31154 178.661787 
L 113.431466 177.750858 
L 113.471543 176.832943 
z
" clip-path="url(#p2872636277)" style="fill: #facc37; stroke: #262626"/>
    <path d="M 238.790967 290.681303 
L 238.75089 289.763388 
L 238.630964 288.85246 
L 238.432102 287.955449 
L 238.155817 287.079184 
L 237.804211 286.230334 
L 237.379962 285.415358 
L 236.886296 284.640459 
L 236.326973 283.911535 
L 235.706248 283.234132 
L 235.028846 282.613407 
L 234.299921 282.054084 
L 233.525022 281.560419 
L 232.710046 281.136169 
L 231.861196 280.784563 
L 230.984931 280.508278 
L 230.087921 280.309416 
L 229.176992 280.18949 
L 228.259077 280.149413 
L 227.341162 280.18949 
L 226.430233 280.309416 
L 225.533223 280.508278 
L 224.656958 280.784563 
L 223.808108 281.136169 
L 222.993132 281.560419 
L 222.218233 282.054084 
L 221.489308 282.613407 
L 220.811906 283.234132 
L 220.191181 283.911535 
L 219.631857 284.640459 
L 219.138192 285.415358 
L 218.713943 286.230334 
L 218.362337 287.079184 
L 218.086052 287.955449 
L 217.88719 288.85246 
L 217.767264 289.763388 
L 217.727187 290.681303 
L 217.767264 291.599218 
L 217.88719 292.510147 
L 218.086052 293.407157 
L 218.362337 294.283422 
L 218.713943 295.132272 
L 219.138192 295.947248 
L 219.631857 296.722147 
L 220.191181 297.451072 
L 220.811906 298.128474 
L 221.489308 298.749199 
L 222.218233 299.308523 
L 222.993132 299.802188 
L 223.808108 300.226437 
L 224.656958 300.578043 
L 225.533223 300.854328 
L 226.430233 301.05319 
L 227.341162 301.173116 
L 228.259077 301.213194 
L 229.176992 301.173116 
L 230.087921 301.05319 
L 230.984931 300.854328 
L 231.861196 300.578043 
L 232.710046 300.226437 
L 233.525022 299.802188 
L 234.299921 299.308523 
L 235.028846 298.749199 
L 235.706248 298.128474 
L 236.326973 297.451072 
L 236.886296 296.722147 
L 237.379962 295.947248 
L 237.804211 295.132272 
L 238.155817 294.283422 
L 238.432102 293.407157 
L 238.630964 292.510147 
L 238.75089 291.599218 
L 238.790967 290.681303 
z
" clip-path="url(#p2872636277)" style="fill: #facc37; stroke: #262626"/>
    <path d="M 310.99982 244.485444 
L 310.959743 243.567529 
L 310.839817 242.6566 
L 310.640954 241.75959 
L 310.364669 240.883325 
L 310.013063 240.034475 
L 309.588814 239.219499 
L 309.095149 238.4446 
L 308.535825 237.715675 
L 307.9151 237.038273 
L 307.237698 236.417548 
L 306.508773 235.858224 
L 305.733874 235.364559 
L 304.918898 234.94031 
L 304.070048 234.588704 
L 303.193783 234.312419 
L 302.296773 234.113557 
L 301.385844 233.993631 
L 300.467929 233.953554 
L 299.550014 233.993631 
L 298.639086 234.113557 
L 297.742075 234.312419 
L 296.865811 234.588704 
L 296.01696 234.94031 
L 295.201984 235.364559 
L 294.427085 235.858224 
L 293.698161 236.417548 
L 293.020758 237.038273 
L 292.400033 237.715675 
L 291.84071 238.4446 
L 291.347045 239.219499 
L 290.922795 240.034475 
L 290.57119 240.883325 
L 290.294904 241.75959 
L 290.096042 242.6566 
L 289.976116 243.567529 
L 289.936039 244.485444 
L 289.976116 245.403359 
L 290.096042 246.314288 
L 290.294904 247.211298 
L 290.57119 248.087563 
L 290.922795 248.936413 
L 291.347045 249.751389 
L 291.84071 250.526288 
L 292.400033 251.255213 
L 293.020758 251.932615 
L 293.698161 252.55334 
L 294.427085 253.112663 
L 295.201984 253.606329 
L 296.01696 254.030578 
L 296.865811 254.382184 
L 297.742075 254.658469 
L 298.639086 254.857331 
L 299.550014 254.977257 
L 300.467929 255.017334 
L 301.385844 254.977257 
L 302.296773 254.857331 
L 303.193783 254.658469 
L 304.070048 254.382184 
L 304.918898 254.030578 
L 305.733874 253.606329 
L 306.508773 253.112663 
L 307.237698 252.55334 
L 307.9151 251.932615 
L 308.535825 251.255213 
L 309.095149 250.526288 
L 309.588814 249.751389 
L 310.013063 248.936413 
L 310.364669 248.087563 
L 310.640954 247.211298 
L 310.839817 246.314288 
L 310.959743 245.403359 
L 310.99982 244.485444 
z
" clip-path="url(#p2872636277)" style="fill: #facc37; stroke: #262626"/>
    <path d="M 260.392238 163.67744 
L 260.352161 162.759525 
L 260.232235 161.848596 
L 260.033373 160.951586 
L 259.757087 160.075321 
L 259.405482 159.226471 
L 258.981232 158.411495 
L 258.487567 157.636596 
L 257.928244 156.907671 
L 257.307519 156.230269 
L 256.630116 155.609544 
L 255.901192 155.05022 
L 255.126293 154.556555 
L 254.311317 154.132305 
L 253.462466 153.7807 
L 252.586201 153.504415 
L 251.689191 153.305552 
L 250.778262 153.185626 
L 249.860348 153.145549 
L 248.942433 153.185626 
L 248.031504 153.305552 
L 247.134494 153.504415 
L 246.258229 153.7807 
L 245.409378 154.132305 
L 244.594402 154.556555 
L 243.819503 155.05022 
L 243.090579 155.609544 
L 242.413177 156.230269 
L 241.792452 156.907671 
L 241.233128 157.636596 
L 240.739463 158.411495 
L 240.315213 159.226471 
L 239.963608 160.075321 
L 239.687323 160.951586 
L 239.48846 161.848596 
L 239.368534 162.759525 
L 239.328457 163.67744 
L 239.368534 164.595354 
L 239.48846 165.506283 
L 239.687323 166.403294 
L 239.963608 167.279558 
L 240.315213 168.128409 
L 240.739463 168.943385 
L 241.233128 169.718284 
L 241.792452 170.447208 
L 242.413177 171.124611 
L 243.090579 171.745336 
L 243.819503 172.304659 
L 244.594402 172.798324 
L 245.409378 173.222574 
L 246.258229 173.574179 
L 247.134494 173.850465 
L 248.031504 174.049327 
L 248.942433 174.169253 
L 249.860348 174.20933 
L 250.778262 174.169253 
L 251.689191 174.049327 
L 252.586201 173.850465 
L 253.462466 173.574179 
L 254.311317 173.222574 
L 255.126293 172.798324 
L 255.901192 172.304659 
L 256.630116 171.745336 
L 257.307519 171.124611 
L 257.928244 170.447208 
L 258.487567 169.718284 
L 258.981232 168.943385 
L 259.405482 168.128409 
L 259.757087 167.279558 
L 260.033373 166.403294 
L 260.232235 165.506283 
L 260.352161 164.595354 
L 260.392238 163.67744 
z
" clip-path="url(#p2872636277)" style="fill: #facc37; stroke: #262626"/>
    <path d="M 185.680395 223.028803 
L 185.640318 222.110888 
L 185.520392 221.199959 
L 185.32153 220.302949 
L 185.045244 219.426684 
L 184.693639 218.577833 
L 184.269389 217.762857 
L 183.775724 216.987959 
L 183.216401 216.259034 
L 182.595676 215.581632 
L 181.918273 214.960907 
L 181.189349 214.401583 
L 180.41445 213.907918 
L 179.599474 213.483668 
L 178.750623 213.132063 
L 177.874358 212.855778 
L 176.977348 212.656915 
L 176.066419 212.536989 
L 175.148505 212.496912 
L 174.23059 212.536989 
L 173.319661 212.656915 
L 172.422651 212.855778 
L 171.546386 213.132063 
L 170.697535 213.483668 
L 169.882559 213.907918 
L 169.10766 214.401583 
L 168.378736 214.960907 
L 167.701334 215.581632 
L 167.080609 216.259034 
L 166.521285 216.987959 
L 166.02762 217.762857 
L 165.60337 218.577833 
L 165.251765 219.426684 
L 164.97548 220.302949 
L 164.776617 221.199959 
L 164.656691 222.110888 
L 164.616614 223.028803 
L 164.656691 223.946717 
L 164.776617 224.857646 
L 164.97548 225.754656 
L 165.251765 226.630921 
L 165.60337 227.479772 
L 166.02762 228.294748 
L 166.521285 229.069647 
L 167.080609 229.798571 
L 167.701334 230.475974 
L 168.378736 231.096699 
L 169.10766 231.656022 
L 169.882559 232.149687 
L 170.697535 232.573937 
L 171.546386 232.925542 
L 172.422651 233.201828 
L 173.319661 233.40069 
L 174.23059 233.520616 
L 175.148505 233.560693 
L 176.066419 233.520616 
L 176.977348 233.40069 
L 177.874358 233.201828 
L 178.750623 232.925542 
L 179.599474 232.573937 
L 180.41445 232.149687 
L 181.189349 231.656022 
L 181.918273 231.096699 
L 182.595676 230.475974 
L 183.216401 229.798571 
L 183.775724 229.069647 
L 184.269389 228.294748 
L 184.693639 227.479772 
L 185.045244 226.630921 
L 185.32153 225.754656 
L 185.520392 224.857646 
L 185.640318 223.946717 
L 185.680395 223.028803 
z
" clip-path="url(#p2872636277)" style="fill: #facc37; stroke: #262626"/>
    <path d="M 188.183386 117.481581 
L 188.143309 116.563666 
L 188.023383 115.652737 
L 187.82452 114.755727 
L 187.548235 113.879462 
L 187.19663 113.030611 
L 186.77238 112.215635 
L 186.278715 111.440736 
L 185.719391 110.711812 
L 185.098666 110.034409 
L 184.421264 109.413684 
L 183.69234 108.854361 
L 182.917441 108.360696 
L 182.102465 107.936446 
L 181.253614 107.584841 
L 180.377349 107.308556 
L 179.480339 107.109693 
L 178.56941 106.989767 
L 177.651495 106.94969 
L 176.733581 106.989767 
L 175.822652 107.109693 
L 174.925642 107.308556 
L 174.049377 107.584841 
L 173.200526 107.936446 
L 172.38555 108.360696 
L 171.610651 108.854361 
L 170.881727 109.413684 
L 170.204324 110.034409 
L 169.583599 110.711812 
L 169.024276 111.440736 
L 168.530611 112.215635 
L 168.106361 113.030611 
L 167.754756 113.879462 
L 167.47847 114.755727 
L 167.279608 115.652737 
L 167.159682 116.563666 
L 167.119605 117.481581 
L 167.159682 118.399495 
L 167.279608 119.310424 
L 167.47847 120.207434 
L 167.754756 121.083699 
L 168.106361 121.93255 
L 168.530611 122.747526 
L 169.024276 123.522425 
L 169.583599 124.251349 
L 170.204324 124.928752 
L 170.881727 125.549477 
L 171.610651 126.1088 
L 172.38555 126.602465 
L 173.200526 127.026715 
L 174.049377 127.37832 
L 174.925642 127.654605 
L 175.822652 127.853468 
L 176.733581 127.973394 
L 177.651495 128.013471 
L 178.56941 127.973394 
L 179.480339 127.853468 
L 180.377349 127.654605 
L 181.253614 127.37832 
L 182.102465 127.026715 
L 182.917441 126.602465 
L 183.69234 126.1088 
L 184.421264 125.549477 
L 185.098666 124.928752 
L 185.719391 124.251349 
L 186.278715 123.522425 
L 186.77238 122.747526 
L 187.19663 121.93255 
L 187.548235 121.083699 
L 187.82452 120.207434 
L 188.023383 119.310424 
L 188.143309 118.399495 
L 188.183386 117.481581 
z
" clip-path="url(#p2872636277)" style="fill: #facc37; stroke: #262626"/>
    <path d="M 130.355979 234.020185 
L 130.385512 234.117372 
L 130.471721 234.401059 
L 130.607622 234.848262 
L 130.782205 235.422753 
L 130.981327 236.077989 
L 131.188856 236.760887 
L 131.387979 237.416123 
L 131.562565 237.990613 
L 131.698469 238.437816 
L 131.784682 238.721501 
L 131.814219 238.818687 
L 166.090561 228.40229 
L 166.061027 228.305104 
L 165.974817 228.021417 
L 165.838914 227.574214 
L 165.66433 226.999724 
L 165.465207 226.344488 
L 165.257678 225.661589 
L 165.058555 225.006353 
L 164.883971 224.431863 
L 164.748068 223.98466 
L 164.661856 223.700974 
L 164.632322 223.603788 
z
" clip-path="url(#p2872636277)" style="fill: #808080; stroke: #262626"/>
    <path d="M 108.944908 224.807546 
L 109.044907 224.789721 
L 109.336802 224.737687 
L 109.796945 224.655659 
L 110.388058 224.550283 
L 111.062253 224.430095 
L 111.764911 224.304833 
L 112.439106 224.184645 
L 113.030219 224.079267 
L 113.490361 223.997236 
L 113.782256 223.945199 
L 113.882254 223.927371 
L 107.203538 186.463104 
L 107.103539 186.480931 
L 106.811645 186.532966 
L 106.351502 186.614995 
L 105.760389 186.720372 
L 105.086194 186.84056 
L 104.383536 186.965822 
L 103.709341 187.08601 
L 103.118228 187.191388 
L 102.658085 187.273417 
L 102.366191 187.325453 
L 102.266192 187.34328 
z
" clip-path="url(#p2872636277)" style="fill: #808080; stroke: #262626"/>
    <path d="M 97.225178 244.7852 
L 97.220447 244.683735 
L 97.206635 244.387561 
L 97.184861 243.920671 
L 97.156888 243.320891 
L 97.124983 242.63681 
L 97.09173 241.92385 
L 97.059824 241.239769 
L 97.031849 240.639989 
L 97.010072 240.173099 
L 96.996257 239.876925 
L 96.991522 239.77546 
L 59.930157 241.504009 
L 59.934886 241.605474 
L 59.948696 241.901649 
L 59.970469 242.368538 
L 59.998441 242.968319 
L 60.030346 243.652399 
L 60.063598 244.36536 
L 60.095505 245.04944 
L 60.123481 245.64922 
L 60.145259 246.11611 
L 60.159076 246.412284 
L 60.163812 246.513749 
z
" clip-path="url(#p2872636277)" style="fill: #808080; stroke: #262626"/>
    <path d="M 132.015749 241.470925 
L 131.948954 239.941067 
L 131.749077 238.422852 
L 131.41764 236.927835 
L 130.957164 235.467394 
L 130.371155 234.052643 
L 129.664073 232.69435 
L 128.841298 231.402851 
L 127.909092 230.187977 
L 126.87455 229.058973 
L 125.745546 228.024432 
L 124.530672 227.092226 
L 123.239174 226.269451 
L 121.88088 225.562368 
L 120.466129 224.976359 
L 119.005688 224.515884 
L 117.510671 224.184446 
L 115.992456 223.984569 
L 114.462598 223.917774 
L 112.93274 223.984569 
L 111.414526 224.184446 
L 109.919509 224.515884 
L 108.459067 224.976359 
L 107.044316 225.562368 
L 105.686023 226.269451 
L 104.394525 227.092226 
L 103.179651 228.024432 
L 102.050647 229.058973 
L 101.016105 230.187977 
L 100.083899 231.402851 
L 99.261124 232.69435 
L 98.554041 234.052643 
L 97.968032 235.467394 
L 97.507557 236.927835 
L 97.17612 238.422852 
L 96.976243 239.941067 
L 96.909448 241.470925 
L 96.976243 243.000783 
L 97.17612 244.518998 
L 97.507557 246.014015 
L 97.968032 247.474456 
L 98.554041 248.889207 
L 99.261124 250.2475 
L 100.083899 251.538999 
L 101.016105 252.753873 
L 102.050647 253.882877 
L 103.179651 254.917419 
L 104.394525 255.849624 
L 105.686023 256.672399 
L 107.044316 257.379482 
L 108.459067 257.965491 
L 109.919509 258.425967 
L 111.414526 258.757404 
L 112.93274 258.957281 
L 114.462598 259.024076 
L 115.992456 258.957281 
L 117.510671 258.757404 
L 119.005688 258.425967 
L 120.466129 257.965491 
L 121.88088 257.379482 
L 123.239174 256.672399 
L 124.530672 255.849624 
L 125.745546 254.917419 
L 126.87455 253.882877 
L 127.909092 252.753873 
L 128.841298 251.538999 
L 129.664073 250.2475 
L 130.371155 248.889207 
L 130.957164 247.474456 
L 131.41764 246.014015 
L 131.749077 244.518998 
L 131.948954 243.000783 
L 132.015749 241.470925 
z
" clip-path="url(#p2872636277)" style="fill: #8cb5ab; stroke: #262626"/>
    <path d="M 130.489053 112.771597 
L 130.484319 112.873062 
L 130.470504 113.169236 
L 130.448726 113.636126 
L 130.420751 114.235906 
L 130.388845 114.919986 
L 130.355593 115.632947 
L 130.323688 116.317027 
L 130.295715 116.916808 
L 130.27394 117.383697 
L 130.260128 117.679872 
L 130.255398 117.781337 
L 167.316763 119.509886 
L 167.321495 119.408421 
L 167.335309 119.112246 
L 167.357085 118.645357 
L 167.385059 118.045576 
L 167.416964 117.361496 
L 167.450217 116.648535 
L 167.482123 115.964455 
L 167.510096 115.364675 
L 167.531872 114.897785 
L 167.545686 114.60161 
L 167.550418 114.500146 
z
" clip-path="url(#p2872636277)" style="fill: #808080; stroke: #262626"/>
    <path d="M 95.666357 111.814824 
L 95.695893 111.717638 
L 95.782106 111.433952 
L 95.91801 110.98675 
L 96.092596 110.41226 
L 96.291719 109.757024 
L 96.499248 109.074126 
L 96.69837 108.41889 
L 96.872954 107.844399 
L 97.008855 107.397195 
L 97.095064 107.113508 
L 97.124596 107.016321 
L 62.848254 96.599924 
L 62.818716 96.69711 
L 62.732501 96.980795 
L 62.596596 97.427997 
L 62.422009 98.002487 
L 62.222885 98.657722 
L 62.015356 99.340621 
L 61.816235 99.995857 
L 61.641652 100.570348 
L 61.505753 101.017552 
L 61.419545 101.301239 
L 61.390015 101.398427 
z
" clip-path="url(#p2872636277)" style="fill: #808080; stroke: #262626"/>
    <path d="M 112.721916 132.017715 
L 112.621642 132.00151 
L 112.328943 131.954208 
L 111.867532 131.879643 
L 111.274789 131.783856 
L 110.598736 131.674605 
L 109.894141 131.560742 
L 109.218088 131.451493 
L 108.625345 131.355706 
L 108.163934 131.281143 
L 107.871234 131.233844 
L 107.77096 131.217641 
L 102.096012 166.334897 
L 102.196286 166.351102 
L 102.488985 166.398402 
L 102.950397 166.472967 
L 103.543139 166.568754 
L 104.219193 166.678004 
L 104.923787 166.791867 
L 105.599841 166.901117 
L 106.192584 166.996904 
L 106.653995 167.071468 
L 106.946694 167.118767 
L 107.046969 167.134971 
z
" clip-path="url(#p2872636277)" style="fill: #808080; stroke: #262626"/>
    <path d="M 113.598322 96.923507 
L 113.69832 96.941335 
L 113.990214 96.993372 
L 114.450357 97.075402 
L 115.04147 97.18078 
L 115.715665 97.300968 
L 116.418322 97.42623 
L 117.092517 97.546418 
L 117.683631 97.651795 
L 118.143774 97.733823 
L 118.435668 97.785857 
L 118.535667 97.803683 
L 125.214383 60.339416 
L 125.114385 60.321587 
L 124.822491 60.269548 
L 124.362349 60.187517 
L 123.771236 60.082138 
L 123.097041 59.961949 
L 122.394383 59.836687 
L 121.720188 59.7165 
L 121.129075 59.611124 
L 120.668932 59.529097 
L 120.377037 59.477064 
L 120.277038 59.459241 
z
" clip-path="url(#p2872636277)" style="fill: #808080; stroke: #262626"/>
    <path d="M 130.571128 114.467062 
L 130.504333 112.937204 
L 130.304456 111.418989 
L 129.973019 109.923972 
L 129.512543 108.463531 
L 128.926534 107.04878 
L 128.219451 105.690486 
L 127.396676 104.398988 
L 126.464471 103.184114 
L 125.429929 102.05511 
L 124.300925 101.020568 
L 123.086051 100.088362 
L 121.794552 99.265587 
L 120.436259 98.558505 
L 119.021508 97.972496 
L 117.561067 97.51202 
L 116.06605 97.180583 
L 114.547835 96.980706 
L 113.017977 96.913911 
L 111.488119 96.980706 
L 109.969904 97.180583 
L 108.474887 97.51202 
L 107.014446 97.972496 
L 105.599695 98.558505 
L 104.241402 99.265587 
L 102.949903 100.088362 
L 101.735029 101.020568 
L 100.606025 102.05511 
L 99.571484 103.184114 
L 98.639278 104.398988 
L 97.816503 105.690486 
L 97.10942 107.04878 
L 96.523411 108.463531 
L 96.062936 109.923972 
L 95.731498 111.418989 
L 95.531621 112.937204 
L 95.464826 114.467062 
L 95.531621 115.99692 
L 95.731498 117.515134 
L 96.062936 119.010151 
L 96.523411 120.470593 
L 97.10942 121.885344 
L 97.816503 123.243637 
L 98.639278 124.535135 
L 99.571484 125.750009 
L 100.606025 126.879013 
L 101.735029 127.913555 
L 102.949903 128.845761 
L 104.241402 129.668536 
L 105.599695 130.375619 
L 107.014446 130.961628 
L 108.474887 131.422103 
L 109.969904 131.75354 
L 111.488119 131.953417 
L 113.017977 132.020212 
L 114.547835 131.953417 
L 116.06605 131.75354 
L 117.561067 131.422103 
L 119.021508 130.961628 
L 120.436259 130.375619 
L 121.794552 129.668536 
L 123.086051 128.845761 
L 124.300925 127.913555 
L 125.429929 126.879013 
L 126.464471 125.750009 
L 127.396676 124.535135 
L 128.219451 123.243637 
L 128.926534 121.885344 
L 129.512543 120.470593 
L 129.973019 119.010151 
L 130.304456 117.515134 
L 130.504333 115.99692 
L 130.571128 114.467062 
z
" clip-path="url(#p2872636277)" style="fill: #8cb5ab; stroke: #262626"/>
    <path d="M 222.310947 227.738786 
L 222.315681 227.637322 
L 222.329496 227.341147 
L 222.351274 226.874258 
L 222.379249 226.274477 
L 222.411155 225.590397 
L 222.444407 224.877436 
L 222.476312 224.193356 
L 222.504285 223.593576 
L 222.52606 223.126686 
L 222.539872 222.830511 
L 222.544602 222.729046 
L 185.483237 221.000498 
L 185.478505 221.101962 
L 185.464691 221.398137 
L 185.442915 221.865027 
L 185.414941 222.464807 
L 185.383036 223.148887 
L 185.349783 223.861848 
L 185.317877 224.545928 
L 185.289904 225.145709 
L 185.268128 225.612598 
L 185.254314 225.908773 
L 185.249582 226.010238 
z
" clip-path="url(#p2872636277)" style="fill: #808080; stroke: #262626"/>
    <path d="M 257.133643 228.695559 
L 257.104107 228.792745 
L 257.017894 229.076431 
L 256.88199 229.523633 
L 256.707404 230.098124 
L 256.508281 230.753359 
L 256.300752 231.436258 
L 256.10163 232.091494 
L 255.927046 232.665984 
L 255.791145 233.113188 
L 255.704936 233.396875 
L 255.675404 233.494062 
L 289.951746 243.910459 
L 289.981284 243.813274 
L 290.067499 243.529589 
L 290.203404 243.082386 
L 290.377991 242.507896 
L 290.577115 241.852661 
L 290.784644 241.169763 
L 290.983765 240.514526 
L 291.158348 239.940035 
L 291.294247 239.492831 
L 291.380455 239.209144 
L 291.409985 239.111956 
z
" clip-path="url(#p2872636277)" style="fill: #808080; stroke: #262626"/>
    <path d="M 240.078084 208.492668 
L 240.178358 208.508873 
L 240.471057 208.556175 
L 240.932468 208.63074 
L 241.525211 208.726528 
L 242.201264 208.835778 
L 242.905859 208.949641 
L 243.581912 209.058891 
L 244.174655 209.154677 
L 244.636066 209.22924 
L 244.928766 209.276539 
L 245.02904 209.292742 
L 250.703988 174.175486 
L 250.603714 174.159282 
L 250.311015 174.111981 
L 249.849603 174.037417 
L 249.256861 173.941629 
L 248.580807 173.832379 
L 247.876213 173.718516 
L 247.200159 173.609266 
L 246.607416 173.513479 
L 246.146005 173.438916 
L 245.853306 173.391616 
L 245.753031 173.375412 
z
" clip-path="url(#p2872636277)" style="fill: #808080; stroke: #262626"/>
    <path d="M 239.201678 243.586876 
L 239.10168 243.569048 
L 238.809786 243.517011 
L 238.349643 243.434981 
L 237.75853 243.329603 
L 237.084335 243.209415 
L 236.381678 243.084153 
L 235.707483 242.963965 
L 235.116369 242.858589 
L 234.656226 242.77656 
L 234.364332 242.724526 
L 234.264333 242.7067 
L 227.585617 280.170967 
L 227.685615 280.188797 
L 227.977509 280.240835 
L 228.437651 280.322867 
L 229.028764 280.428245 
L 229.702959 280.548434 
L 230.405617 280.673696 
L 231.079812 280.793884 
L 231.670925 280.899259 
L 232.131068 280.981286 
L 232.422963 281.033319 
L 232.522962 281.051142 
z
" clip-path="url(#p2872636277)" style="fill: #808080; stroke: #262626"/>
    <path d="M 257.335174 226.043322 
L 257.268379 224.513464 
L 257.068502 222.995249 
L 256.737064 221.500232 
L 256.276589 220.03979 
L 255.69058 218.62504 
L 254.983497 217.266746 
L 254.160722 215.975248 
L 253.228516 214.760374 
L 252.193975 213.63137 
L 251.064971 212.596828 
L 249.850097 211.664622 
L 248.558598 210.841847 
L 247.200305 210.134764 
L 245.785554 209.548755 
L 244.325113 209.08828 
L 242.830096 208.756843 
L 241.311881 208.556966 
L 239.782023 208.490171 
L 238.252165 208.556966 
L 236.73395 208.756843 
L 235.238933 209.08828 
L 233.778492 209.548755 
L 232.363741 210.134764 
L 231.005448 210.841847 
L 229.713949 211.664622 
L 228.499075 212.596828 
L 227.370071 213.63137 
L 226.335529 214.760374 
L 225.403324 215.975248 
L 224.580549 217.266746 
L 223.873466 218.62504 
L 223.287457 220.03979 
L 222.826981 221.500232 
L 222.495544 222.995249 
L 222.295667 224.513464 
L 222.228872 226.043322 
L 222.295667 227.573179 
L 222.495544 229.091394 
L 222.826981 230.586411 
L 223.287457 232.046853 
L 223.873466 233.461604 
L 224.580549 234.819897 
L 225.403324 236.111395 
L 226.335529 237.326269 
L 227.370071 238.455273 
L 228.499075 239.489815 
L 229.713949 240.422021 
L 231.005448 241.244796 
L 232.363741 241.951879 
L 233.778492 242.537888 
L 235.238933 242.998363 
L 236.73395 243.3298 
L 238.252165 243.529677 
L 239.782023 243.596472 
L 241.311881 243.529677 
L 242.830096 243.3298 
L 244.325113 242.998363 
L 245.785554 242.537888 
L 247.200305 241.951879 
L 248.558598 241.244796 
L 249.850097 240.422021 
L 251.064971 239.489815 
L 252.193975 238.455273 
L 253.228516 237.326269 
L 254.160722 236.111395 
L 254.983497 234.819897 
L 255.69058 233.461604 
L 256.276589 232.046853 
L 256.737064 230.586411 
L 257.068502 229.091394 
L 257.268379 227.573179 
L 257.335174 226.043322 
z
" clip-path="url(#p2872636277)" style="fill: #8cb5ab; stroke: #262626"/>
    <path d="M 62.863961 96.024939 
L 62.823884 95.107025 
L 62.703958 94.196096 
L 62.505096 93.299085 
L 62.22881 92.422821 
L 61.877205 91.57397 
L 61.452955 90.758994 
L 60.95929 89.984095 
L 60.399967 89.255171 
L 59.779242 88.577768 
L 59.101839 87.957043 
L 58.372915 87.39772 
L 57.598016 86.904055 
L 56.78304 86.479805 
L 55.934189 86.1282 
L 55.057925 85.851914 
L 54.160914 85.653052 
L 53.249986 85.533126 
L 52.332071 85.493049 
L 51.414156 85.533126 
L 50.503227 85.653052 
L 49.606217 85.851914 
L 48.729952 86.1282 
L 47.881102 86.479805 
L 47.066126 86.904055 
L 46.291227 87.39772 
L 45.562302 87.957043 
L 44.8849 88.577768 
L 44.264175 89.255171 
L 43.704851 89.984095 
L 43.211186 90.758994 
L 42.786937 91.57397 
L 42.435331 92.422821 
L 42.159046 93.299085 
L 41.960183 94.196096 
L 41.840257 95.107025 
L 41.80018 96.024939 
L 41.840257 96.942854 
L 41.960183 97.853783 
L 42.159046 98.750793 
L 42.435331 99.627058 
L 42.786937 100.475908 
L 43.211186 101.290884 
L 43.704851 102.065783 
L 44.264175 102.794708 
L 44.8849 103.47211 
L 45.562302 104.092835 
L 46.291227 104.652159 
L 47.066126 105.145824 
L 47.881102 105.570073 
L 48.729952 105.921679 
L 49.606217 106.197964 
L 50.503227 106.396827 
L 51.414156 106.516753 
L 52.332071 106.55683 
L 53.249986 106.516753 
L 54.160914 106.396827 
L 55.057925 106.197964 
L 55.934189 105.921679 
L 56.78304 105.570073 
L 57.598016 105.145824 
L 58.372915 104.652159 
L 59.101839 104.092835 
L 59.779242 103.47211 
L 60.399967 102.794708 
L 60.95929 102.065783 
L 61.452955 101.290884 
L 61.877205 100.475908 
L 62.22881 99.627058 
L 62.505096 98.750793 
L 62.703958 97.853783 
L 62.823884 96.942854 
L 62.863961 96.024939 
z
" clip-path="url(#p2872636277)" style="fill: #facc37; stroke: #262626"/>
    <path d="M 116.726089 242.745615 
L 116.801384 242.036399 
L 116.673679 241.334639 
L 116.353319 240.697188 
L 115.866257 240.175688 
L 115.251953 239.812388 
L 114.560173 239.636721 
L 113.846962 239.662918 
L 113.170099 239.888857 
L 112.584421 240.296233 
L 112.137374 240.852043 
L 111.865178 241.511259 
L 111.516023 242.886236 
L 111.440727 243.595452 
L 111.568432 244.297212 
L 111.888792 244.934663 
L 112.375854 245.456163 
L 112.990159 245.819462 
L 113.681938 245.99513 
L 114.39515 245.968933 
L 115.072012 245.742994 
L 115.657691 245.335618 
L 116.104737 244.779808 
L 116.376934 244.120592 
z
" clip-path="url(#p2872636277)" style="fill: #808080; stroke: #262626"/>
    <path d="M 124.380062 243.890547 
L 124.339985 242.972633 
L 124.220059 242.061704 
L 124.021196 241.164694 
L 123.744911 240.288429 
L 123.393306 239.439578 
L 122.969056 238.624602 
L 122.475391 237.849703 
L 121.916068 237.120779 
L 121.295343 236.443376 
L 120.61794 235.822651 
L 119.889016 235.263328 
L 119.114117 234.769663 
L 118.299141 234.345413 
L 117.45029 233.993808 
L 116.574025 233.717522 
L 115.677015 233.51866 
L 114.766086 233.398734 
L 113.848172 233.358657 
L 112.930257 233.398734 
L 112.019328 233.51866 
L 111.122318 233.717522 
L 110.246053 233.993808 
L 109.397202 234.345413 
L 108.582226 234.769663 
L 107.807327 235.263328 
L 107.078403 235.822651 
L 106.401 236.443376 
L 105.780275 237.120779 
L 105.220952 237.849703 
L 104.727287 238.624602 
L 104.303037 239.439578 
L 103.951432 240.288429 
L 103.675147 241.164694 
L 103.476284 242.061704 
L 103.356358 242.972633 
L 103.316281 243.890547 
L 103.356358 244.808462 
L 103.476284 245.719391 
L 103.675147 246.616401 
L 103.951432 247.492666 
L 104.303037 248.341517 
L 104.727287 249.156493 
L 105.220952 249.931392 
L 105.780275 250.660316 
L 106.401 251.337718 
L 107.078403 251.958443 
L 107.807327 252.517767 
L 108.582226 253.011432 
L 109.397202 253.435682 
L 110.246053 253.787287 
L 111.122318 254.063572 
L 112.019328 254.262435 
L 112.930257 254.382361 
L 113.848172 254.422438 
L 114.766086 254.382361 
L 115.677015 254.262435 
L 116.574025 254.063572 
L 117.45029 253.787287 
L 118.299141 253.435682 
L 119.114117 253.011432 
L 119.889016 252.517767 
L 120.61794 251.958443 
L 121.295343 251.337718 
L 121.916068 250.660316 
L 122.475391 249.931392 
L 122.969056 249.156493 
L 123.393306 248.341517 
L 123.744911 247.492666 
L 124.021196 246.616401 
L 124.220059 245.719391 
L 124.339985 244.808462 
L 124.380062 243.890547 
z
" clip-path="url(#p2872636277)" style="fill: #facc37; stroke: #262626"/>
    <path d="M 115.615372 114.507293 
L 115.343175 113.848076 
L 114.896128 113.292266 
L 114.31045 112.88489 
L 113.633587 112.658951 
L 112.920376 112.632754 
L 112.228596 112.808421 
L 111.614292 113.171721 
L 111.12723 113.693221 
L 110.80687 114.330672 
L 110.679165 115.032432 
L 110.754461 115.741648 
L 111.103657 117.116789 
L 111.375854 117.776005 
L 111.8229 118.331816 
L 112.408579 118.739192 
L 113.085441 118.965131 
L 113.798653 118.991328 
L 114.490432 118.81566 
L 115.104737 118.452361 
L 115.591799 117.930861 
L 115.912159 117.29341 
L 116.039864 116.59165 
L 115.964568 115.882433 
z
" clip-path="url(#p2872636277)" style="fill: #808080; stroke: #262626"/>
    <path d="M 124.164294 116.886684 
L 124.124217 115.968769 
L 124.004291 115.05784 
L 123.805429 114.16083 
L 123.529144 113.284565 
L 123.177538 112.435715 
L 122.753288 111.620739 
L 122.259623 110.84584 
L 121.7003 110.116915 
L 121.079575 109.439513 
L 120.402173 108.818788 
L 119.673248 108.259464 
L 118.898349 107.765799 
L 118.083373 107.34155 
L 117.234523 106.989944 
L 116.358258 106.713659 
L 115.461247 106.514797 
L 114.550319 106.394871 
L 113.632404 106.354794 
L 112.714489 106.394871 
L 111.80356 106.514797 
L 110.90655 106.713659 
L 110.030285 106.989944 
L 109.181435 107.34155 
L 108.366459 107.765799 
L 107.59156 108.259464 
L 106.862635 108.818788 
L 106.185233 109.439513 
L 105.564508 110.116915 
L 105.005184 110.84584 
L 104.511519 111.620739 
L 104.08727 112.435715 
L 103.735664 113.284565 
L 103.459379 114.16083 
L 103.260517 115.05784 
L 103.140591 115.968769 
L 103.100513 116.886684 
L 103.140591 117.804599 
L 103.260517 118.715528 
L 103.459379 119.612538 
L 103.735664 120.488803 
L 104.08727 121.337653 
L 104.511519 122.152629 
L 105.005184 122.927528 
L 105.564508 123.656453 
L 106.185233 124.333855 
L 106.862635 124.95458 
L 107.59156 125.513903 
L 108.366459 126.007569 
L 109.181435 126.431818 
L 110.030285 126.783424 
L 110.90655 127.059709 
L 111.80356 127.258571 
L 112.714489 127.378497 
L 113.632404 127.418574 
L 114.550319 127.378497 
L 115.461247 127.258571 
L 116.358258 127.059709 
L 117.234523 126.783424 
L 118.083373 126.431818 
L 118.898349 126.007569 
L 119.673248 125.513903 
L 120.402173 124.95458 
L 121.079575 124.333855 
L 121.7003 123.656453 
L 122.259623 122.927528 
L 122.753288 122.152629 
L 123.177538 121.337653 
L 123.529144 120.488803 
L 123.805429 119.612538 
L 124.004291 118.715528 
L 124.124217 117.804599 
L 124.164294 116.886684 
z
" clip-path="url(#p2872636277)" style="fill: #facc37; stroke: #262626"/>
    <path d="M 236.073911 97.764768 
L 235.998616 98.473985 
L 236.126321 99.175744 
L 236.446681 99.813196 
L 236.933743 100.334695 
L 237.548047 100.697995 
L 238.239827 100.873662 
L 238.953038 100.847465 
L 239.629901 100.621526 
L 240.215579 100.21415 
L 240.662626 99.65834 
L 240.934822 98.999124 
L 241.283977 97.624147 
L 241.359273 96.914931 
L 241.231568 96.213171 
L 240.911208 95.57572 
L 240.424146 95.05422 
L 239.809841 94.690921 
L 239.118062 94.515254 
L 238.40485 94.541451 
L 237.727988 94.767389 
L 237.142309 95.174765 
L 236.695263 95.730576 
L 236.423066 96.389792 
z
" clip-path="url(#p2872636277)" style="fill: #808080; stroke: #262626"/>
    <path d="M 249.483719 96.619836 
L 249.443642 95.701921 
L 249.323716 94.790992 
L 249.124853 93.893982 
L 248.848568 93.017717 
L 248.496963 92.168867 
L 248.072713 91.353891 
L 247.579048 90.578992 
L 247.019725 89.850067 
L 246.399 89.172665 
L 245.721597 88.55194 
L 244.992673 87.992616 
L 244.217774 87.498951 
L 243.402798 87.074702 
L 242.553947 86.723096 
L 241.677682 86.446811 
L 240.780672 86.247949 
L 239.869743 86.128022 
L 238.951828 86.087945 
L 238.033914 86.128022 
L 237.122985 86.247949 
L 236.225975 86.446811 
L 235.34971 86.723096 
L 234.500859 87.074702 
L 233.685883 87.498951 
L 232.910984 87.992616 
L 232.18206 88.55194 
L 231.504657 89.172665 
L 230.883932 89.850067 
L 230.324609 90.578992 
L 229.830944 91.353891 
L 229.406694 92.168867 
L 229.055089 93.017717 
L 228.778804 93.893982 
L 228.579941 94.790992 
L 228.460015 95.701921 
L 228.419938 96.619836 
L 228.460015 97.537751 
L 228.579941 98.448679 
L 228.778804 99.34569 
L 229.055089 100.221954 
L 229.406694 101.070805 
L 229.830944 101.885781 
L 230.324609 102.66068 
L 230.883932 103.389604 
L 231.504657 104.067007 
L 232.18206 104.687732 
L 232.910984 105.247055 
L 233.685883 105.74072 
L 234.500859 106.16497 
L 235.34971 106.516575 
L 236.225975 106.792861 
L 237.122985 106.991723 
L 238.033914 107.111649 
L 238.951828 107.151726 
L 239.869743 107.111649 
L 240.780672 106.991723 
L 241.677682 106.792861 
L 242.553947 106.516575 
L 243.402798 106.16497 
L 244.217774 105.74072 
L 244.992673 105.247055 
L 245.721597 104.687732 
L 246.399 104.067007 
L 247.019725 103.389604 
L 247.579048 102.66068 
L 248.072713 101.885781 
L 248.496963 101.070805 
L 248.848568 100.221954 
L 249.124853 99.34569 
L 249.323716 98.448679 
L 249.443642 97.537751 
L 249.483719 96.619836 
z
" clip-path="url(#p2872636277)" style="fill: #facc37; stroke: #262626"/>
    <path d="M 237.184628 226.003091 
L 237.456825 226.662307 
L 237.903872 227.218117 
L 238.48955 227.625494 
L 239.166413 227.851432 
L 239.879624 227.877629 
L 240.571404 227.701962 
L 241.185708 227.338662 
L 241.67277 226.817163 
L 241.99313 226.179712 
L 242.120835 225.477952 
L 242.045539 224.768735 
L 241.696343 223.393594 
L 241.424146 222.734378 
L 240.9771 222.178567 
L 240.391421 221.771191 
L 239.714559 221.545253 
L 239.001347 221.519056 
L 238.309568 221.694723 
L 237.695263 222.058022 
L 237.208201 222.579522 
L 236.887841 223.216973 
L 236.760136 223.918733 
L 236.835432 224.62795 
z
" clip-path="url(#p2872636277)" style="fill: #808080; stroke: #262626"/>
    <path d="M 249.699487 223.623699 
L 249.659409 222.705785 
L 249.539483 221.794856 
L 249.340621 220.897845 
L 249.064336 220.021581 
L 248.71273 219.17273 
L 248.288481 218.357754 
L 247.794816 217.582855 
L 247.235492 216.853931 
L 246.614767 216.176528 
L 245.937365 215.555803 
L 245.20844 214.99648 
L 244.433541 214.502815 
L 243.618565 214.078565 
L 242.769715 213.72696 
L 241.89345 213.450674 
L 240.99644 213.251812 
L 240.085511 213.131886 
L 239.167596 213.091809 
L 238.249681 213.131886 
L 237.338753 213.251812 
L 236.441742 213.450674 
L 235.565477 213.72696 
L 234.716627 214.078565 
L 233.901651 214.502815 
L 233.126752 214.99648 
L 232.397827 215.555803 
L 231.720425 216.176528 
L 231.0997 216.853931 
L 230.540377 217.582855 
L 230.046712 218.357754 
L 229.622462 219.17273 
L 229.270856 220.021581 
L 228.994571 220.897845 
L 228.795709 221.794856 
L 228.675783 222.705785 
L 228.635706 223.623699 
L 228.675783 224.541614 
L 228.795709 225.452543 
L 228.994571 226.349553 
L 229.270856 227.225818 
L 229.622462 228.074668 
L 230.046712 228.889644 
L 230.540377 229.664543 
L 231.0997 230.393468 
L 231.720425 231.07087 
L 232.397827 231.691595 
L 233.126752 232.250919 
L 233.901651 232.744584 
L 234.716627 233.168834 
L 235.565477 233.520439 
L 236.441742 233.796724 
L 237.338753 233.995587 
L 238.249681 234.115513 
L 239.167596 234.15559 
L 240.085511 234.115513 
L 240.99644 233.995587 
L 241.89345 233.796724 
L 242.769715 233.520439 
L 243.618565 233.168834 
L 244.433541 232.744584 
L 245.20844 232.250919 
L 245.937365 231.691595 
L 246.614767 231.07087 
L 247.235492 230.393468 
L 247.794816 229.664543 
L 248.288481 228.889644 
L 248.71273 228.074668 
L 249.064336 227.225818 
L 249.340621 226.349553 
L 249.539483 225.452543 
L 249.659409 224.541614 
L 249.699487 223.623699 
z
" clip-path="url(#p2872636277)" style="fill: #facc37; stroke: #262626"/>
    <path d="M 51.080575 296.920655 
L 220.033878 296.920655 
L 220.033878 297.597455 
L 51.080575 297.597455 
z
" clip-path="url(#p2872636277)" style="fill: #4c4c4c"/>
    <path d="M 236.484276 296.920655 
L 301.719425 296.920655 
L 301.719425 297.597455 
L 236.484276 297.597455 
z
" clip-path="url(#p2872636277)" style="fill: #4c4c4c"/>
    <path d="M 50.742175 297.259055 
L 50.742175 254.942713 
L 51.418975 254.942713 
L 51.418975 297.259055 
z
" clip-path="url(#p2872636277)" style="fill: #4c4c4c"/>
    <path d="M 50.742175 234.028175 
L 50.742175 106.482208 
L 51.418975 106.482208 
L 51.418975 234.028175 
z
" clip-path="url(#p2872636277)" style="fill: #4c4c4c"/>
    <path d="M 50.742175 85.56767 
L 50.742175 43.251328 
L 51.418975 43.251328 
L 51.418975 85.56767 
z
" clip-path="url(#p2872636277)" style="fill: #4c4c4c"/>
    <path d="M 301.381025 297.259055 
L 301.381025 254.942713 
L 302.057825 254.942713 
L 302.057825 297.259055 
z
" clip-path="url(#p2872636277)" style="fill: #4c4c4c"/>
    <path d="M 301.381025 234.028175 
L 301.381025 106.482208 
L 302.057825 106.482208 
L 302.057825 234.028175 
z
" clip-path="url(#p2872636277)" style="fill: #4c4c4c"/>
    <path d="M 301.381025 85.56767 
L 301.381025 43.251328 
L 302.057825 43.251328 
L 302.057825 85.56767 
z
" clip-path="url(#p2872636277)" style="fill: #4c4c4c"/>
    <path d="M 51.080575 42.912928 
L 116.315724 42.912928 
L 116.315724 43.589728 
L 51.080575 43.589728 
z
" clip-path="url(#p2872636277)" style="fill: #4c4c4c"/>
    <path d="M 132.766122 42.912928 
L 301.719425 42.912928 
L 301.719425 43.589728 
L 132.766122 43.589728 
z
" clip-path="url(#p2872636277)" style="fill: #4c4c4c"/>
    <path d="M 238.790967 290.681303 
L 238.75089 289.763388 
L 238.630964 288.85246 
L 238.432102 287.955449 
L 238.155817 287.079184 
L 237.804211 286.230334 
L 237.379962 285.415358 
L 236.886296 284.640459 
L 236.326973 283.911535 
L 235.706248 283.234132 
L 235.028846 282.613407 
L 234.299921 282.054084 
L 233.525022 281.560419 
L 232.710046 281.136169 
L 231.861196 280.784563 
L 230.984931 280.508278 
L 230.087921 280.309416 
L 229.176992 280.18949 
L 228.259077 280.149413 
L 227.341162 280.18949 
L 226.430233 280.309416 
L 225.533223 280.508278 
L 224.656958 280.784563 
L 223.808108 281.136169 
L 222.993132 281.560419 
L 222.218233 282.054084 
L 221.489308 282.613407 
L 220.811906 283.234132 
L 220.191181 283.911535 
L 219.631857 284.640459 
L 219.138192 285.415358 
L 218.713943 286.230334 
L 218.362337 287.079184 
L 218.086052 287.955449 
L 217.88719 288.85246 
L 217.767264 289.763388 
L 217.727187 290.681303 
L 217.767264 291.599218 
L 217.88719 292.510147 
L 218.086052 293.407157 
L 218.362337 294.283422 
L 218.713943 295.132272 
L 219.138192 295.947248 
L 219.631857 296.722147 
L 220.191181 297.451072 
L 220.811906 298.128474 
L 221.489308 298.749199 
L 222.218233 299.308523 
L 222.993132 299.802188 
L 223.808108 300.226437 
L 224.656958 300.578043 
L 225.533223 300.854328 
L 226.430233 301.05319 
L 227.341162 301.173116 
L 228.259077 301.213194 
L 229.176992 301.173116 
L 230.087921 301.05319 
L 230.984931 300.854328 
L 231.861196 300.578043 
L 232.710046 300.226437 
L 233.525022 299.802188 
L 234.299921 299.308523 
L 235.028846 298.749199 
L 235.706248 298.128474 
L 236.326973 297.451072 
L 236.886296 296.722147 
L 237.379962 295.947248 
L 237.804211 295.132272 
L 238.155817 294.283422 
L 238.432102 293.407157 
L 238.630964 292.510147 
L 238.75089 291.599218 
L 238.790967 290.681303 
z
" clip-path="url(#p2872636277)" style="fill: #facc37; stroke: #262626"/>
    <path d="M 260.392238 163.67744 
L 260.352161 162.759525 
L 260.232235 161.848596 
L 260.033373 160.951586 
L 259.757087 160.075321 
L 259.405482 159.226471 
L 258.981232 158.411495 
L 258.487567 157.636596 
L 257.928244 156.907671 
L 257.307519 156.230269 
L 256.630116 155.609544 
L 255.901192 155.05022 
L 255.126293 154.556555 
L 254.311317 154.132305 
L 253.462466 153.7807 
L 252.586201 153.504415 
L 251.689191 153.305552 
L 250.778262 153.185626 
L 249.860348 153.145549 
L 248.942433 153.185626 
L 248.031504 153.305552 
L 247.134494 153.504415 
L 246.258229 153.7807 
L 245.409378 154.132305 
L 244.594402 154.556555 
L 243.819503 155.05022 
L 243.090579 155.609544 
L 242.413177 156.230269 
L 241.792452 156.907671 
L 241.233128 157.636596 
L 240.739463 158.411495 
L 240.315213 159.226471 
L 239.963608 160.075321 
L 239.687323 160.951586 
L 239.48846 161.848596 
L 239.368534 162.759525 
L 239.328457 163.67744 
L 239.368534 164.595354 
L 239.48846 165.506283 
L 239.687323 166.403294 
L 239.963608 167.279558 
L 240.315213 168.128409 
L 240.739463 168.943385 
L 241.233128 169.718284 
L 241.792452 170.447208 
L 242.413177 171.124611 
L 243.090579 171.745336 
L 243.819503 172.304659 
L 244.594402 172.798324 
L 245.409378 173.222574 
L 246.258229 173.574179 
L 247.134494 173.850465 
L 248.031504 174.049327 
L 248.942433 174.169253 
L 249.860348 174.20933 
L 250.778262 174.169253 
L 251.689191 174.049327 
L 252.586201 173.850465 
L 253.462466 173.574179 
L 254.311317 173.222574 
L 255.126293 172.798324 
L 255.901192 172.304659 
L 256.630116 171.745336 
L 257.307519 171.124611 
L 257.928244 170.447208 
L 258.487567 169.718284 
L 258.981232 168.943385 
L 259.405482 168.128409 
L 259.757087 167.279558 
L 260.033373 166.403294 
L 260.232235 165.506283 
L 260.352161 164.595354 
L 260.392238 163.67744 
z
" clip-path="url(#p2872636277)" style="fill: #facc37; stroke: #262626"/>
    <path d="M 310.99982 244.485444 
L 310.959743 243.567529 
L 310.839817 242.6566 
L 310.640954 241.75959 
L 310.364669 240.883325 
L 310.013063 240.034475 
L 309.588814 239.219499 
L 309.095149 238.4446 
L 308.535825 237.715675 
L 307.9151 237.038273 
L 307.237698 236.417548 
L 306.508773 235.858224 
L 305.733874 235.364559 
L 304.918898 234.94031 
L 304.070048 234.588704 
L 303.193783 234.312419 
L 302.296773 234.113557 
L 301.385844 233.993631 
L 300.467929 233.953554 
L 299.550014 233.993631 
L 298.639086 234.113557 
L 297.742075 234.312419 
L 296.865811 234.588704 
L 296.01696 234.94031 
L 295.201984 235.364559 
L 294.427085 235.858224 
L 293.698161 236.417548 
L 293.020758 237.038273 
L 292.400033 237.715675 
L 291.84071 238.4446 
L 291.347045 239.219499 
L 290.922795 240.034475 
L 290.57119 240.883325 
L 290.294904 241.75959 
L 290.096042 242.6566 
L 289.976116 243.567529 
L 289.936039 244.485444 
L 289.976116 245.403359 
L 290.096042 246.314288 
L 290.294904 247.211298 
L 290.57119 248.087563 
L 290.922795 248.936413 
L 291.347045 249.751389 
L 291.84071 250.526288 
L 292.400033 251.255213 
L 293.020758 251.932615 
L 293.698161 252.55334 
L 294.427085 253.112663 
L 295.201984 253.606329 
L 296.01696 254.030578 
L 296.865811 254.382184 
L 297.742075 254.658469 
L 298.639086 254.857331 
L 299.550014 254.977257 
L 300.467929 255.017334 
L 301.385844 254.977257 
L 302.296773 254.857331 
L 303.193783 254.658469 
L 304.070048 254.382184 
L 304.918898 254.030578 
L 305.733874 253.606329 
L 306.508773 253.112663 
L 307.237698 252.55334 
L 307.9151 251.932615 
L 308.535825 251.255213 
L 309.095149 250.526288 
L 309.588814 249.751389 
L 310.013063 248.936413 
L 310.364669 248.087563 
L 310.640954 247.211298 
L 310.839817 246.314288 
L 310.959743 245.403359 
L 310.99982 244.485444 
z
" clip-path="url(#p2872636277)" style="fill: #facc37; stroke: #262626"/>
    <path d="M 60.36097 244.485444 
L 60.320893 243.567529 
L 60.200967 242.6566 
L 60.002105 241.75959 
L 59.72582 240.883325 
L 59.374214 240.034475 
L 58.949965 239.219499 
L 58.4563 238.4446 
L 57.896976 237.715675 
L 57.276251 237.038273 
L 56.598849 236.417548 
L 55.869924 235.858224 
L 55.095025 235.364559 
L 54.280049 234.94031 
L 53.431199 234.588704 
L 52.554934 234.312419 
L 51.657924 234.113557 
L 50.746995 233.993631 
L 49.82908 233.953554 
L 48.911165 233.993631 
L 48.000236 234.113557 
L 47.103226 234.312419 
L 46.226961 234.588704 
L 45.378111 234.94031 
L 44.563135 235.364559 
L 43.788236 235.858224 
L 43.059311 236.417548 
L 42.381909 237.038273 
L 41.761184 237.715675 
L 41.201861 238.4446 
L 40.708195 239.219499 
L 40.283946 240.034475 
L 39.93234 240.883325 
L 39.656055 241.75959 
L 39.457193 242.6566 
L 39.337267 243.567529 
L 39.29719 244.485444 
L 39.337267 245.403359 
L 39.457193 246.314288 
L 39.656055 247.211298 
L 39.93234 248.087563 
L 40.283946 248.936413 
L 40.708195 249.751389 
L 41.201861 250.526288 
L 41.761184 251.255213 
L 42.381909 251.932615 
L 43.059311 252.55334 
L 43.788236 253.112663 
L 44.563135 253.606329 
L 45.378111 254.030578 
L 46.226961 254.382184 
L 47.103226 254.658469 
L 48.000236 254.857331 
L 48.911165 254.977257 
L 49.82908 255.017334 
L 50.746995 254.977257 
L 51.657924 254.857331 
L 52.554934 254.658469 
L 53.431199 254.382184 
L 54.280049 254.030578 
L 55.095025 253.606329 
L 55.869924 253.112663 
L 56.598849 252.55334 
L 57.276251 251.932615 
L 57.896976 251.255213 
L 58.4563 250.526288 
L 58.949965 249.751389 
L 59.374214 248.936413 
L 59.72582 248.087563 
L 60.002105 247.211298 
L 60.200967 246.314288 
L 60.320893 245.403359 
L 60.36097 244.485444 
z
" clip-path="url(#p2872636277)" style="fill: #facc37; stroke: #262626"/>
    <path d="M 62.863961 96.024939 
L 62.823884 95.107025 
L 62.703958 94.196096 
L 62.505096 93.299085 
L 62.22881 92.422821 
L 61.877205 91.57397 
L 61.452955 90.758994 
L 60.95929 89.984095 
L 60.399967 89.255171 
L 59.779242 88.577768 
L 59.101839 87.957043 
L 58.372915 87.39772 
L 57.598016 86.904055 
L 56.78304 86.479805 
L 55.934189 86.1282 
L 55.057925 85.851914 
L 54.160914 85.653052 
L 53.249986 85.533126 
L 52.332071 85.493049 
L 51.414156 85.533126 
L 50.503227 85.653052 
L 49.606217 85.851914 
L 48.729952 86.1282 
L 47.881102 86.479805 
L 47.066126 86.904055 
L 46.291227 87.39772 
L 45.562302 87.957043 
L 44.8849 88.577768 
L 44.264175 89.255171 
L 43.704851 89.984095 
L 43.211186 90.758994 
L 42.786937 91.57397 
L 42.435331 92.422821 
L 42.159046 93.299085 
L 41.960183 94.196096 
L 41.840257 95.107025 
L 41.80018 96.024939 
L 41.840257 96.942854 
L 41.960183 97.853783 
L 42.159046 98.750793 
L 42.435331 99.627058 
L 42.786937 100.475908 
L 43.211186 101.290884 
L 43.704851 102.065783 
L 44.264175 102.794708 
L 44.8849 103.47211 
L 45.562302 104.092835 
L 46.291227 104.652159 
L 47.066126 105.145824 
L 47.881102 105.570073 
L 48.729952 105.921679 
L 49.606217 106.197964 
L 50.503227 106.396827 
L 51.414156 106.516753 
L 52.332071 106.55683 
L 53.249986 106.516753 
L 54.160914 106.396827 
L 55.057925 106.197964 
L 55.934189 105.921679 
L 56.78304 105.570073 
L 57.598016 105.145824 
L 58.372915 104.652159 
L 59.101839 104.092835 
L 59.779242 103.47211 
L 60.399967 102.794708 
L 60.95929 102.065783 
L 61.452955 101.290884 
L 61.877205 100.475908 
L 62.22881 99.627058 
L 62.505096 98.750793 
L 62.703958 97.853783 
L 62.823884 96.942854 
L 62.863961 96.024939 
z
" clip-path="url(#p2872636277)" style="fill: #facc37; stroke: #262626"/>
    <path d="M 185.680395 223.028803 
L 185.640318 222.110888 
L 185.520392 221.199959 
L 185.32153 220.302949 
L 185.045244 219.426684 
L 184.693639 218.577833 
L 184.269389 217.762857 
L 183.775724 216.987959 
L 183.216401 216.259034 
L 182.595676 215.581632 
L 181.918273 214.960907 
L 181.189349 214.401583 
L 180.41445 213.907918 
L 179.599474 213.483668 
L 178.750623 213.132063 
L 177.874358 212.855778 
L 176.977348 212.656915 
L 176.066419 212.536989 
L 175.148505 212.496912 
L 174.23059 212.536989 
L 173.319661 212.656915 
L 172.422651 212.855778 
L 171.546386 213.132063 
L 170.697535 213.483668 
L 169.882559 213.907918 
L 169.10766 214.401583 
L 168.378736 214.960907 
L 167.701334 215.581632 
L 167.080609 216.259034 
L 166.521285 216.987959 
L 166.02762 217.762857 
L 165.60337 218.577833 
L 165.251765 219.426684 
L 164.97548 220.302949 
L 164.776617 221.199959 
L 164.656691 222.110888 
L 164.616614 223.028803 
L 164.656691 223.946717 
L 164.776617 224.857646 
L 164.97548 225.754656 
L 165.251765 226.630921 
L 165.60337 227.479772 
L 166.02762 228.294748 
L 166.521285 229.069647 
L 167.080609 229.798571 
L 167.701334 230.475974 
L 168.378736 231.096699 
L 169.10766 231.656022 
L 169.882559 232.149687 
L 170.697535 232.573937 
L 171.546386 232.925542 
L 172.422651 233.201828 
L 173.319661 233.40069 
L 174.23059 233.520616 
L 175.148505 233.560693 
L 176.066419 233.520616 
L 176.977348 233.40069 
L 177.874358 233.201828 
L 178.750623 232.925542 
L 179.599474 232.573937 
L 180.41445 232.149687 
L 181.189349 231.656022 
L 181.918273 231.096699 
L 182.595676 230.475974 
L 183.216401 229.798571 
L 183.775724 229.069647 
L 184.269389 228.294748 
L 184.693639 227.479772 
L 185.045244 226.630921 
L 185.32153 225.754656 
L 185.520392 224.857646 
L 185.640318 223.946717 
L 185.680395 223.028803 
z
" clip-path="url(#p2872636277)" style="fill: #facc37; stroke: #262626"/>
    <path d="M 188.183386 117.481581 
L 188.143309 116.563666 
L 188.023383 115.652737 
L 187.82452 114.755727 
L 187.548235 113.879462 
L 187.19663 113.030611 
L 186.77238 112.215635 
L 186.278715 111.440736 
L 185.719391 110.711812 
L 185.098666 110.034409 
L 184.421264 109.413684 
L 183.69234 108.854361 
L 182.917441 108.360696 
L 182.102465 107.936446 
L 181.253614 107.584841 
L 180.377349 107.308556 
L 179.480339 107.109693 
L 178.56941 106.989767 
L 177.651495 106.94969 
L 176.733581 106.989767 
L 175.822652 107.109693 
L 174.925642 107.308556 
L 174.049377 107.584841 
L 173.200526 107.936446 
L 172.38555 108.360696 
L 171.610651 108.854361 
L 170.881727 109.413684 
L 170.204324 110.034409 
L 169.583599 110.711812 
L 169.024276 111.440736 
L 168.530611 112.215635 
L 168.106361 113.030611 
L 167.754756 113.879462 
L 167.47847 114.755727 
L 167.279608 115.652737 
L 167.159682 116.563666 
L 167.119605 117.481581 
L 167.159682 118.399495 
L 167.279608 119.310424 
L 167.47847 120.207434 
L 167.754756 121.083699 
L 168.106361 121.93255 
L 168.530611 122.747526 
L 169.024276 123.522425 
L 169.583599 124.251349 
L 170.204324 124.928752 
L 170.881727 125.549477 
L 171.610651 126.1088 
L 172.38555 126.602465 
L 173.200526 127.026715 
L 174.049377 127.37832 
L 174.925642 127.654605 
L 175.822652 127.853468 
L 176.733581 127.973394 
L 177.651495 128.013471 
L 178.56941 127.973394 
L 179.480339 127.853468 
L 180.377349 127.654605 
L 181.253614 127.37832 
L 182.102465 127.026715 
L 182.917441 126.602465 
L 183.69234 126.1088 
L 184.421264 125.549477 
L 185.098666 124.928752 
L 185.719391 124.251349 
L 186.278715 123.522425 
L 186.77238 122.747526 
L 187.19663 121.93255 
L 187.548235 121.083699 
L 187.82452 120.207434 
L 188.023383 119.310424 
L 188.143309 118.399495 
L 188.183386 117.481581 
z
" clip-path="url(#p2872636277)" style="fill: #facc37; stroke: #262626"/>
    <path d="M 111.516005 242.886305 
L 111.440709 243.595521 
L 111.568415 244.297281 
L 111.888775 244.934732 
L 112.375837 245.456232 
L 112.990141 245.819532 
L 113.681921 245.995199 
L 114.395132 245.969002 
L 115.071995 245.743063 
L 115.657673 245.335687 
L 116.104719 244.779876 
L 116.376916 244.12066 
L 116.726117 242.745502 
L 116.801413 242.036285 
L 116.673708 241.334525 
L 116.353348 240.697074 
L 115.866286 240.175574 
L 115.251982 239.812275 
L 114.560202 239.636608 
L 113.846991 239.662805 
L 113.170128 239.888743 
L 112.58445 240.296119 
L 112.137403 240.85193 
L 111.865206 241.511146 
z
" clip-path="url(#p2872636277)" style="fill: #808080; stroke: #262626"/>
    <path d="M 130.355979 234.020185 
L 130.385512 234.117372 
L 130.471721 234.401059 
L 130.607622 234.848262 
L 130.782205 235.422753 
L 130.981327 236.077989 
L 131.188856 236.760887 
L 131.387979 237.416123 
L 131.562565 237.990613 
L 131.698469 238.437816 
L 131.784682 238.721501 
L 131.814219 238.818687 
L 166.090561 228.40229 
L 166.061027 228.305104 
L 165.974817 228.021417 
L 165.838914 227.574214 
L 165.66433 226.999724 
L 165.465207 226.344488 
L 165.257678 225.661589 
L 165.058555 225.006353 
L 164.883971 224.431863 
L 164.748068 223.98466 
L 164.661856 223.700974 
L 164.632322 223.603788 
z
" clip-path="url(#p2872636277)" style="fill: #808080; stroke: #262626"/>
    <path d="M 97.225178 244.7852 
L 97.220447 244.683735 
L 97.206635 244.387561 
L 97.184861 243.920671 
L 97.156888 243.320891 
L 97.124983 242.63681 
L 97.09173 241.92385 
L 97.059824 241.239769 
L 97.031849 240.639989 
L 97.010072 240.173099 
L 96.996257 239.876925 
L 96.991522 239.77546 
L 59.930157 241.504009 
L 59.934886 241.605474 
L 59.948696 241.901649 
L 59.970469 242.368538 
L 59.998441 242.968319 
L 60.030346 243.652399 
L 60.063598 244.36536 
L 60.095505 245.04944 
L 60.123481 245.64922 
L 60.145259 246.11611 
L 60.159076 246.412284 
L 60.163812 246.513749 
z
" clip-path="url(#p2872636277)" style="fill: #808080; stroke: #262626"/>
    <path d="M 108.944908 224.807546 
L 109.044907 224.789721 
L 109.336802 224.737687 
L 109.796945 224.655659 
L 110.388058 224.550283 
L 111.062253 224.430095 
L 111.764911 224.304833 
L 112.439106 224.184645 
L 113.030219 224.079267 
L 113.490361 223.997236 
L 113.782256 223.945199 
L 113.882254 223.927371 
L 107.203538 186.463104 
L 107.103539 186.480931 
L 106.811645 186.532966 
L 106.351502 186.614995 
L 105.760389 186.720372 
L 105.086194 186.84056 
L 104.383536 186.965822 
L 103.709341 187.08601 
L 103.118228 187.191388 
L 102.658085 187.273417 
L 102.366191 187.325453 
L 102.266192 187.34328 
z
" clip-path="url(#p2872636277)" style="fill: #808080; stroke: #262626"/>
    <path d="M 132.015749 241.470925 
L 131.948954 239.941067 
L 131.749077 238.422852 
L 131.41764 236.927835 
L 130.957164 235.467394 
L 130.371155 234.052643 
L 129.664073 232.69435 
L 128.841298 231.402851 
L 127.909092 230.187977 
L 126.87455 229.058973 
L 125.745546 228.024432 
L 124.530672 227.092226 
L 123.239174 226.269451 
L 121.88088 225.562368 
L 120.466129 224.976359 
L 119.005688 224.515884 
L 117.510671 224.184446 
L 115.992456 223.984569 
L 114.462598 223.917774 
L 112.93274 223.984569 
L 111.414526 224.184446 
L 109.919509 224.515884 
L 108.459067 224.976359 
L 107.044316 225.562368 
L 105.686023 226.269451 
L 104.394525 227.092226 
L 103.179651 228.024432 
L 102.050647 229.058973 
L 101.016105 230.187977 
L 100.083899 231.402851 
L 99.261124 232.69435 
L 98.554041 234.052643 
L 97.968032 235.467394 
L 97.507557 236.927835 
L 97.17612 238.422852 
L 96.976243 239.941067 
L 96.909448 241.470925 
L 96.976243 243.000783 
L 97.17612 244.518998 
L 97.507557 246.014015 
L 97.968032 247.474456 
L 98.554041 248.889207 
L 99.261124 250.2475 
L 100.083899 251.538999 
L 101.016105 252.753873 
L 102.050647 253.882877 
L 103.179651 254.917419 
L 104.394525 255.849624 
L 105.686023 256.672399 
L 107.044316 257.379482 
L 108.459067 257.965491 
L 109.919509 258.425967 
L 111.414526 258.757404 
L 112.93274 258.957281 
L 114.462598 259.024076 
L 115.992456 258.957281 
L 117.510671 258.757404 
L 119.005688 258.425967 
L 120.466129 257.965491 
L 121.88088 257.379482 
L 123.239174 256.672399 
L 124.530672 255.849624 
L 125.745546 254.917419 
L 126.87455 253.882877 
L 127.909092 252.753873 
L 128.841298 251.538999 
L 129.664073 250.2475 
L 130.371155 248.889207 
L 130.957164 247.474456 
L 131.41764 246.014015 
L 131.749077 244.518998 
L 131.948954 243.000783 
L 132.015749 241.470925 
z
" clip-path="url(#p2872636277)" style="fill: #8cb5ab; stroke: #262626"/>
    <path d="M 111.103644 117.116736 
L 111.375841 117.775952 
L 111.822887 118.331762 
L 112.408565 118.739138 
L 113.085428 118.965077 
L 113.798639 118.991274 
L 114.490419 118.815607 
L 115.104723 118.452307 
L 115.591785 117.930808 
L 115.912145 117.293357 
L 116.039851 116.591597 
L 115.964555 115.88238 
L 115.615395 114.507386 
L 115.343198 113.84817 
L 114.896152 113.29236 
L 114.310474 112.884983 
L 113.633611 112.659045 
L 112.9204 112.632848 
L 112.22862 112.808515 
L 111.614316 113.171815 
L 111.127254 113.693314 
L 110.806894 114.330765 
L 110.679188 115.032525 
L 110.754484 115.741742 
z
" clip-path="url(#p2872636277)" style="fill: #808080; stroke: #262626"/>
    <path d="M 130.489053 112.771597 
L 130.484319 112.873062 
L 130.470504 113.169236 
L 130.448726 113.636126 
L 130.420751 114.235906 
L 130.388845 114.919986 
L 130.355593 115.632947 
L 130.323688 116.317027 
L 130.295715 116.916808 
L 130.27394 117.383697 
L 130.260128 117.679872 
L 130.255398 117.781337 
L 167.316763 119.509886 
L 167.321495 119.408421 
L 167.335309 119.112246 
L 167.357085 118.645357 
L 167.385059 118.045576 
L 167.416964 117.361496 
L 167.450217 116.648535 
L 167.482123 115.964455 
L 167.510096 115.364675 
L 167.531872 114.897785 
L 167.545686 114.60161 
L 167.550418 114.500146 
z
" clip-path="url(#p2872636277)" style="fill: #808080; stroke: #262626"/>
    <path d="M 95.666357 111.814824 
L 95.695893 111.717638 
L 95.782106 111.433952 
L 95.91801 110.98675 
L 96.092596 110.41226 
L 96.291719 109.757024 
L 96.499248 109.074126 
L 96.69837 108.41889 
L 96.872954 107.844399 
L 97.008855 107.397195 
L 97.095064 107.113508 
L 97.124596 107.016321 
L 62.848254 96.599924 
L 62.818716 96.69711 
L 62.732501 96.980795 
L 62.596596 97.427997 
L 62.422009 98.002487 
L 62.222885 98.657722 
L 62.015356 99.340621 
L 61.816235 99.995857 
L 61.641652 100.570348 
L 61.505753 101.017552 
L 61.419545 101.301239 
L 61.390015 101.398427 
z
" clip-path="url(#p2872636277)" style="fill: #808080; stroke: #262626"/>
    <path d="M 112.721916 132.017715 
L 112.621642 132.00151 
L 112.328943 131.954208 
L 111.867532 131.879643 
L 111.274789 131.783856 
L 110.598736 131.674605 
L 109.894141 131.560742 
L 109.218088 131.451493 
L 108.625345 131.355706 
L 108.163934 131.281143 
L 107.871234 131.233844 
L 107.77096 131.217641 
L 102.096012 166.334897 
L 102.196286 166.351102 
L 102.488985 166.398402 
L 102.950397 166.472967 
L 103.543139 166.568754 
L 104.219193 166.678004 
L 104.923787 166.791867 
L 105.599841 166.901117 
L 106.192584 166.996904 
L 106.653995 167.071468 
L 106.946694 167.118767 
L 107.046969 167.134971 
z
" clip-path="url(#p2872636277)" style="fill: #808080; stroke: #262626"/>
    <path d="M 113.598322 96.923507 
L 113.69832 96.941335 
L 113.990214 96.993372 
L 114.450357 97.075402 
L 115.04147 97.18078 
L 115.715665 97.300968 
L 116.418322 97.42623 
L 117.092517 97.546418 
L 117.683631 97.651795 
L 118.143774 97.733823 
L 118.435668 97.785857 
L 118.535667 97.803683 
L 125.214383 60.339416 
L 125.114385 60.321587 
L 124.822491 60.269548 
L 124.362349 60.187517 
L 123.771236 60.082138 
L 123.097041 59.961949 
L 122.394383 59.836687 
L 121.720188 59.7165 
L 121.129075 59.611124 
L 120.668932 59.529097 
L 120.377037 59.477064 
L 120.277038 59.459241 
z
" clip-path="url(#p2872636277)" style="fill: #808080; stroke: #262626"/>
    <path d="M 130.571128 114.467062 
L 130.504333 112.937204 
L 130.304456 111.418989 
L 129.973019 109.923972 
L 129.512543 108.463531 
L 128.926534 107.04878 
L 128.219451 105.690486 
L 127.396676 104.398988 
L 126.464471 103.184114 
L 125.429929 102.05511 
L 124.300925 101.020568 
L 123.086051 100.088362 
L 121.794552 99.265587 
L 120.436259 98.558505 
L 119.021508 97.972496 
L 117.561067 97.51202 
L 116.06605 97.180583 
L 114.547835 96.980706 
L 113.017977 96.913911 
L 111.488119 96.980706 
L 109.969904 97.180583 
L 108.474887 97.51202 
L 107.014446 97.972496 
L 105.599695 98.558505 
L 104.241402 99.265587 
L 102.949903 100.088362 
L 101.735029 101.020568 
L 100.606025 102.05511 
L 99.571484 103.184114 
L 98.639278 104.398988 
L 97.816503 105.690486 
L 97.10942 107.04878 
L 96.523411 108.463531 
L 96.062936 109.923972 
L 95.731498 111.418989 
L 95.531621 112.937204 
L 95.464826 114.467062 
L 95.531621 115.99692 
L 95.731498 117.515134 
L 96.062936 119.010151 
L 96.523411 120.470593 
L 97.10942 121.885344 
L 97.816503 123.243637 
L 98.639278 124.535135 
L 99.571484 125.750009 
L 100.606025 126.879013 
L 101.735029 127.913555 
L 102.949903 128.845761 
L 104.241402 129.668536 
L 105.599695 130.375619 
L 107.014446 130.961628 
L 108.474887 131.422103 
L 109.969904 131.75354 
L 111.488119 131.953417 
L 113.017977 132.020212 
L 114.547835 131.953417 
L 116.06605 131.75354 
L 117.561067 131.422103 
L 119.021508 130.961628 
L 120.436259 130.375619 
L 121.794552 129.668536 
L 123.086051 128.845761 
L 124.300925 127.913555 
L 125.429929 126.879013 
L 126.464471 125.750009 
L 127.396676 124.535135 
L 128.219451 123.243637 
L 128.926534 121.885344 
L 129.512543 120.470593 
L 129.973019 119.010151 
L 130.304456 117.515134 
L 130.504333 115.99692 
L 130.571128 114.467062 
z
" clip-path="url(#p2872636277)" style="fill: #8cb5ab; stroke: #262626"/>
    <path d="M 241.696356 223.393647 
L 241.424159 222.734431 
L 240.977113 222.178621 
L 240.391435 221.771245 
L 239.714572 221.545306 
L 239.001361 221.519109 
L 238.309581 221.694776 
L 237.695277 222.058076 
L 237.208215 222.579576 
L 236.887855 223.217027 
L 236.760149 223.918787 
L 236.835445 224.628003 
L 237.184605 226.002997 
L 237.456802 226.662213 
L 237.903848 227.218024 
L 238.489526 227.6254 
L 239.166389 227.851338 
L 239.8796 227.877535 
L 240.57138 227.701868 
L 241.185684 227.338569 
L 241.672746 226.817069 
L 241.993106 226.179618 
L 242.120812 225.477858 
L 242.045516 224.768642 
z
" clip-path="url(#p2872636277)" style="fill: #808080; stroke: #262626"/>
    <path d="M 222.310947 227.738786 
L 222.315681 227.637322 
L 222.329496 227.341147 
L 222.351274 226.874258 
L 222.379249 226.274477 
L 222.411155 225.590397 
L 222.444407 224.877436 
L 222.476312 224.193356 
L 222.504285 223.593576 
L 222.52606 223.126686 
L 222.539872 222.830511 
L 222.544602 222.729046 
L 185.483237 221.000498 
L 185.478505 221.101962 
L 185.464691 221.398137 
L 185.442915 221.865027 
L 185.414941 222.464807 
L 185.383036 223.148887 
L 185.349783 223.861848 
L 185.317877 224.545928 
L 185.289904 225.145709 
L 185.268128 225.612598 
L 185.254314 225.908773 
L 185.249582 226.010238 
z
" clip-path="url(#p2872636277)" style="fill: #808080; stroke: #262626"/>
    <path d="M 257.133643 228.695559 
L 257.104107 228.792745 
L 257.017894 229.076431 
L 256.88199 229.523633 
L 256.707404 230.098124 
L 256.508281 230.753359 
L 256.300752 231.436258 
L 256.10163 232.091494 
L 255.927046 232.665984 
L 255.791145 233.113188 
L 255.704936 233.396875 
L 255.675404 233.494062 
L 289.951746 243.910459 
L 289.981284 243.813274 
L 290.067499 243.529589 
L 290.203404 243.082386 
L 290.377991 242.507896 
L 290.577115 241.852661 
L 290.784644 241.169763 
L 290.983765 240.514526 
L 291.158348 239.940035 
L 291.294247 239.492831 
L 291.380455 239.209144 
L 291.409985 239.111956 
z
" clip-path="url(#p2872636277)" style="fill: #808080; stroke: #262626"/>
    <path d="M 240.078084 208.492668 
L 240.178358 208.508873 
L 240.471057 208.556175 
L 240.932468 208.63074 
L 241.525211 208.726528 
L 242.201264 208.835778 
L 242.905859 208.949641 
L 243.581912 209.058891 
L 244.174655 209.154677 
L 244.636066 209.22924 
L 244.928766 209.276539 
L 245.02904 209.292742 
L 250.703988 174.175486 
L 250.603714 174.159282 
L 250.311015 174.111981 
L 249.849603 174.037417 
L 249.256861 173.941629 
L 248.580807 173.832379 
L 247.876213 173.718516 
L 247.200159 173.609266 
L 246.607416 173.513479 
L 246.146005 173.438916 
L 245.853306 173.391616 
L 245.753031 173.375412 
z
" clip-path="url(#p2872636277)" style="fill: #808080; stroke: #262626"/>
    <path d="M 239.201678 243.586876 
L 239.10168 243.569048 
L 238.809786 243.517011 
L 238.349643 243.434981 
L 237.75853 243.329603 
L 237.084335 243.209415 
L 236.381678 243.084153 
L 235.707483 242.963965 
L 235.116369 242.858589 
L 234.656226 242.77656 
L 234.364332 242.724526 
L 234.264333 242.7067 
L 227.585617 280.170967 
L 227.685615 280.188797 
L 227.977509 280.240835 
L 228.437651 280.322867 
L 229.028764 280.428245 
L 229.702959 280.548434 
L 230.405617 280.673696 
L 231.079812 280.793884 
L 231.670925 280.899259 
L 232.131068 280.981286 
L 232.422963 281.033319 
L 232.522962 281.051142 
z
" clip-path="url(#p2872636277)" style="fill: #808080; stroke: #262626"/>
    <path d="M 257.335174 226.043322 
L 257.268379 224.513464 
L 257.068502 222.995249 
L 256.737064 221.500232 
L 256.276589 220.03979 
L 255.69058 218.62504 
L 254.983497 217.266746 
L 254.160722 215.975248 
L 253.228516 214.760374 
L 252.193975 213.63137 
L 251.064971 212.596828 
L 249.850097 211.664622 
L 248.558598 210.841847 
L 247.200305 210.134764 
L 245.785554 209.548755 
L 244.325113 209.08828 
L 242.830096 208.756843 
L 241.311881 208.556966 
L 239.782023 208.490171 
L 238.252165 208.556966 
L 236.73395 208.756843 
L 235.238933 209.08828 
L 233.778492 209.548755 
L 232.363741 210.134764 
L 231.005448 210.841847 
L 229.713949 211.664622 
L 228.499075 212.596828 
L 227.370071 213.63137 
L 226.335529 214.760374 
L 225.403324 215.975248 
L 224.580549 217.266746 
L 223.873466 218.62504 
L 223.287457 220.03979 
L 222.826981 221.500232 
L 222.495544 222.995249 
L 222.295667 224.513464 
L 222.228872 226.043322 
L 222.295667 227.573179 
L 222.495544 229.091394 
L 222.826981 230.586411 
L 223.287457 232.046853 
L 223.873466 233.461604 
L 224.580549 234.819897 
L 225.403324 236.111395 
L 226.335529 237.326269 
L 227.370071 238.455273 
L 228.499075 239.489815 
L 229.713949 240.422021 
L 231.005448 241.244796 
L 232.363741 241.951879 
L 233.778492 242.537888 
L 235.238933 242.998363 
L 236.73395 243.3298 
L 238.252165 243.529677 
L 239.782023 243.596472 
L 241.311881 243.529677 
L 242.830096 243.3298 
L 244.325113 242.998363 
L 245.785554 242.537888 
L 247.200305 241.951879 
L 248.558598 241.244796 
L 249.850097 240.422021 
L 251.064971 239.489815 
L 252.193975 238.455273 
L 253.228516 237.326269 
L 254.160722 236.111395 
L 254.983497 234.819897 
L 255.69058 233.461604 
L 256.276589 232.046853 
L 256.737064 230.586411 
L 257.068502 229.091394 
L 257.268379 227.573179 
L 257.335174 226.043322 
z
" clip-path="url(#p2872636277)" style="fill: #8cb5ab; stroke: #262626"/>
    <path d="M 241.283995 97.624079 
L 241.359291 96.914862 
L 241.231585 96.213102 
L 240.911225 95.575651 
L 240.424163 95.054151 
L 239.809859 94.690852 
L 239.118079 94.515184 
L 238.404868 94.541381 
L 237.728005 94.76732 
L 237.142327 95.174696 
L 236.695281 95.730507 
L 236.423084 96.389723 
L 236.073883 97.764881 
L 235.998587 98.474098 
L 236.126292 99.175858 
L 236.446652 99.813309 
L 236.933714 100.334809 
L 237.548018 100.698109 
L 238.239798 100.873776 
L 238.953009 100.847579 
L 239.629872 100.62164 
L 240.21555 100.214264 
L 240.662597 99.658453 
L 240.934794 98.999237 
z
" clip-path="url(#p2872636277)" style="fill: #808080; stroke: #262626"/>
    <path d="M 222.444021 106.490199 
L 222.414488 106.393011 
L 222.328279 106.109325 
L 222.192378 105.662121 
L 222.017795 105.08763 
L 221.818673 104.432394 
L 221.611144 103.749496 
L 221.412021 103.09426 
L 221.237435 102.51977 
L 221.101531 102.072567 
L 221.015318 101.788882 
L 220.985781 101.691696 
L 186.709439 112.108093 
L 186.738973 112.20528 
L 186.825183 112.488966 
L 186.961086 112.936169 
L 187.13567 113.51066 
L 187.334793 114.165896 
L 187.542322 114.848794 
L 187.741445 115.50403 
L 187.916029 116.07852 
L 188.051932 116.525723 
L 188.138144 116.809409 
L 188.167678 116.906596 
z
" clip-path="url(#p2872636277)" style="fill: #808080; stroke: #262626"/>
    <path d="M 255.574822 95.725183 
L 255.579553 95.826648 
L 255.593365 96.122822 
L 255.615139 96.589712 
L 255.643112 97.189493 
L 255.675017 97.873573 
L 255.70827 98.586533 
L 255.740176 99.270614 
L 255.768151 99.870394 
L 255.789928 100.337284 
L 255.803743 100.633458 
L 255.808478 100.734923 
L 292.869843 99.006374 
L 292.865114 98.904909 
L 292.851304 98.608735 
L 292.829531 98.141845 
L 292.801559 97.542064 
L 292.769654 96.857984 
L 292.736402 96.145023 
L 292.704495 95.460943 
L 292.676519 94.861163 
L 292.654741 94.394273 
L 292.640924 94.098099 
L 292.636188 93.996634 
z
" clip-path="url(#p2872636277)" style="fill: #808080; stroke: #262626"/>
    <path d="M 243.855092 115.702837 
L 243.755093 115.720662 
L 243.463198 115.772696 
L 243.003055 115.854724 
L 242.411942 115.9601 
L 241.737747 116.080288 
L 241.035089 116.20555 
L 240.360894 116.325738 
L 239.769781 116.431116 
L 239.309639 116.513147 
L 239.017744 116.565184 
L 238.917746 116.583012 
L 245.596462 154.047279 
L 245.696461 154.029453 
L 245.988355 153.977417 
L 246.448498 153.895388 
L 247.039611 153.790011 
L 247.713806 153.669823 
L 248.416464 153.544561 
L 249.090659 153.424373 
L 249.681772 153.318996 
L 250.141915 153.236966 
L 250.433809 153.18493 
L 250.533808 153.167104 
z
" clip-path="url(#p2872636277)" style="fill: #808080; stroke: #262626"/>
    <path d="M 255.890552 99.039458 
L 255.823757 97.5096 
L 255.62388 95.991386 
L 255.292443 94.496368 
L 254.831968 93.035927 
L 254.245959 91.621176 
L 253.538876 90.262883 
L 252.716101 88.971385 
L 251.783895 87.75651 
L 250.749353 86.627506 
L 249.620349 85.592965 
L 248.405475 84.660759 
L 247.113977 83.837984 
L 245.755684 83.130901 
L 244.340933 82.544892 
L 242.880491 82.084417 
L 241.385474 81.752979 
L 239.86726 81.553103 
L 238.337402 81.486308 
L 236.807544 81.553103 
L 235.289329 81.752979 
L 233.794312 82.084417 
L 232.333871 82.544892 
L 230.91912 83.130901 
L 229.560826 83.837984 
L 228.269328 84.660759 
L 227.054454 85.592965 
L 225.92545 86.627506 
L 224.890908 87.75651 
L 223.958702 88.971385 
L 223.135927 90.262883 
L 222.428845 91.621176 
L 221.842836 93.035927 
L 221.38236 94.496368 
L 221.050923 95.991386 
L 220.851046 97.5096 
L 220.784251 99.039458 
L 220.851046 100.569316 
L 221.050923 102.087531 
L 221.38236 103.582548 
L 221.842836 105.042989 
L 222.428845 106.45774 
L 223.135927 107.816033 
L 223.958702 109.107532 
L 224.890908 110.322406 
L 225.92545 111.45141 
L 227.054454 112.485952 
L 228.269328 113.418157 
L 229.560826 114.240932 
L 230.91912 114.948015 
L 232.333871 115.534024 
L 233.794312 115.9945 
L 235.289329 116.325937 
L 236.807544 116.525814 
L 238.337402 116.592609 
L 239.86726 116.525814 
L 241.385474 116.325937 
L 242.880491 115.9945 
L 244.340933 115.534024 
L 245.755684 114.948015 
L 247.113977 114.240932 
L 248.405475 113.418157 
L 249.620349 112.485952 
L 250.749353 111.45141 
L 251.783895 110.322406 
L 252.716101 109.107532 
L 253.538876 107.816033 
L 254.245959 106.45774 
L 254.831968 105.042989 
L 255.292443 103.582548 
L 255.62388 102.087531 
L 255.823757 100.569316 
L 255.890552 99.039458 
z
" clip-path="url(#p2872636277)" style="fill: #8cb5ab; stroke: #262626"/>
    <path d="M 113.471543 176.832943 
L 113.431466 175.915029 
L 113.31154 175.0041 
L 113.112677 174.10709 
L 112.836392 173.230825 
L 112.484787 172.381974 
L 112.060537 171.566998 
L 111.566872 170.792099 
L 111.007548 170.063175 
L 110.386823 169.385772 
L 109.709421 168.765047 
L 108.980497 168.205724 
L 108.205598 167.712059 
L 107.390622 167.287809 
L 106.541771 166.936204 
L 105.665506 166.659919 
L 104.768496 166.461056 
L 103.857567 166.34113 
L 102.939652 166.301053 
L 102.021738 166.34113 
L 101.110809 166.461056 
L 100.213799 166.659919 
L 99.337534 166.936204 
L 98.488683 167.287809 
L 97.673707 167.712059 
L 96.898808 168.205724 
L 96.169884 168.765047 
L 95.492481 169.385772 
L 94.871756 170.063175 
L 94.312433 170.792099 
L 93.818768 171.566998 
L 93.394518 172.381974 
L 93.042913 173.230825 
L 92.766627 174.10709 
L 92.567765 175.0041 
L 92.447839 175.915029 
L 92.407762 176.832943 
L 92.447839 177.750858 
L 92.567765 178.661787 
L 92.766627 179.558797 
L 93.042913 180.435062 
L 93.394518 181.283913 
L 93.818768 182.098889 
L 94.312433 182.873788 
L 94.871756 183.602712 
L 95.492481 184.280115 
L 96.169884 184.90084 
L 96.898808 185.460163 
L 97.673707 185.953828 
L 98.488683 186.378078 
L 99.337534 186.729683 
L 100.213799 187.005968 
L 101.110809 187.204831 
L 102.021738 187.324757 
L 102.939652 187.364834 
L 103.857567 187.324757 
L 104.768496 187.204831 
L 105.665506 187.005968 
L 106.541771 186.729683 
L 107.390622 186.378078 
L 108.205598 185.953828 
L 108.980497 185.460163 
L 109.709421 184.90084 
L 110.386823 184.280115 
L 111.007548 183.602712 
L 111.566872 182.873788 
L 112.060537 182.098889 
L 112.484787 181.283913 
L 112.836392 180.435062 
L 113.112677 179.558797 
L 113.31154 178.661787 
L 113.431466 177.750858 
L 113.471543 176.832943 
z
" clip-path="url(#p2872636277)" style="fill: #facc37; stroke: #262626"/>
    <path d="M 313.50281 96.024939 
L 313.462733 95.107025 
L 313.342807 94.196096 
L 313.143945 93.299085 
L 312.86766 92.422821 
L 312.516054 91.57397 
L 312.091805 90.758994 
L 311.598139 89.984095 
L 311.038816 89.255171 
L 310.418091 88.577768 
L 309.740689 87.957043 
L 309.011764 87.39772 
L 308.236865 86.904055 
L 307.421889 86.479805 
L 306.573039 86.1282 
L 305.696774 85.851914 
L 304.799764 85.653052 
L 303.888835 85.533126 
L 302.97092 85.493049 
L 302.053005 85.533126 
L 301.142076 85.653052 
L 300.245066 85.851914 
L 299.368801 86.1282 
L 298.519951 86.479805 
L 297.704975 86.904055 
L 296.930076 87.39772 
L 296.201151 87.957043 
L 295.523749 88.577768 
L 294.903024 89.255171 
L 294.3437 89.984095 
L 293.850035 90.758994 
L 293.425786 91.57397 
L 293.07418 92.422821 
L 292.797895 93.299085 
L 292.599033 94.196096 
L 292.479107 95.107025 
L 292.43903 96.024939 
L 292.479107 96.942854 
L 292.599033 97.853783 
L 292.797895 98.750793 
L 293.07418 99.627058 
L 293.425786 100.475908 
L 293.850035 101.290884 
L 294.3437 102.065783 
L 294.903024 102.794708 
L 295.523749 103.47211 
L 296.201151 104.092835 
L 296.930076 104.652159 
L 297.704975 105.145824 
L 298.519951 105.570073 
L 299.368801 105.921679 
L 300.245066 106.197964 
L 301.142076 106.396827 
L 302.053005 106.516753 
L 302.97092 106.55683 
L 303.888835 106.516753 
L 304.799764 106.396827 
L 305.696774 106.197964 
L 306.573039 105.921679 
L 307.421889 105.570073 
L 308.236865 105.145824 
L 309.011764 104.652159 
L 309.740689 104.092835 
L 310.418091 103.47211 
L 311.038816 102.794708 
L 311.598139 102.065783 
L 312.091805 101.290884 
L 312.516054 100.475908 
L 312.86766 99.627058 
L 313.143945 98.750793 
L 313.342807 97.853783 
L 313.462733 96.942854 
L 313.50281 96.024939 
z
" clip-path="url(#p2872636277)" style="fill: #facc37; stroke: #262626"/>
    <path d="M 135.072813 49.82908 
L 135.032736 48.911165 
L 134.91281 48.000236 
L 134.713948 47.103226 
L 134.437663 46.226961 
L 134.086057 45.378111 
L 133.661808 44.563135 
L 133.168143 43.788236 
L 132.608819 43.059311 
L 131.988094 42.381909 
L 131.310692 41.761184 
L 130.581767 41.201861 
L 129.806868 40.708195 
L 128.991892 40.283946 
L 128.143042 39.93234 
L 127.266777 39.656055 
L 126.369767 39.457193 
L 125.458838 39.337267 
L 124.540923 39.29719 
L 123.623008 39.337267 
L 122.712079 39.457193 
L 121.815069 39.656055 
L 120.938804 39.93234 
L 120.089954 40.283946 
L 119.274978 40.708195 
L 118.500079 41.201861 
L 117.771154 41.761184 
L 117.093752 42.381909 
L 116.473027 43.059311 
L 115.913704 43.788236 
L 115.420038 44.563135 
L 114.995789 45.378111 
L 114.644183 46.226961 
L 114.367898 47.103226 
L 114.169036 48.000236 
L 114.04911 48.911165 
L 114.009033 49.82908 
L 114.04911 50.746995 
L 114.169036 51.657924 
L 114.367898 52.554934 
L 114.644183 53.431199 
L 114.995789 54.280049 
L 115.420038 55.095025 
L 115.913704 55.869924 
L 116.473027 56.598849 
L 117.093752 57.276251 
L 117.771154 57.896976 
L 118.500079 58.4563 
L 119.274978 58.949965 
L 120.089954 59.374214 
L 120.938804 59.72582 
L 121.815069 60.002105 
L 122.712079 60.200967 
L 123.623008 60.320893 
L 124.540923 60.36097 
L 125.458838 60.320893 
L 126.369767 60.200967 
L 127.266777 60.002105 
L 128.143042 59.72582 
L 128.991892 59.374214 
L 129.806868 58.949965 
L 130.581767 58.4563 
L 131.310692 57.896976 
L 131.988094 57.276251 
L 132.608819 56.598849 
L 133.168143 55.869924 
L 133.661808 55.095025 
L 134.086057 54.280049 
L 134.437663 53.431199 
L 134.713948 52.554934 
L 134.91281 51.657924 
L 135.032736 50.746995 
L 135.072813 49.82908 
z
" clip-path="url(#p2872636277)" style="fill: #facc37; stroke: #262626"/>
   </g>
  </g>
 </g>
 <defs>
  <clipPath id="p2872636277">
   <rect x="7.2" y="7.2" width="338.4" height="326.110383"/>
  </clipPath>
 </defs>
</svg>
