<?xml version="1.0" encoding="utf-8" standalone="no"?>
<!DOCTYPE svg PUBLIC "-//W3C//DTD SVG 1.1//EN"
  "http://www.w3.org/Graphics/SVG/1.1/DTD/svg11.dtd">
<svg xmlns:xlink="http://www.w3.org/1999/xlink" width="279.169026pt" height="280.8pt" viewBox="0 0 279.169026 280.8" xmlns="http://www.w3.org/2000/svg" version="1.1">
 <metadata>
  <rdf:RDF xmlns:dc="http://purl.org/dc/elements/1.1/" xmlns:cc="http://creativecommons.org/ns#" xmlns:rdf="http://www.w3.org/1999/02/22-rdf-syntax-ns#">
   <cc:Work>
    <dc:type rdf:resource="http://purl.org/dc/dcmitype/StillImage"/>
    <dc:date>2026-02-21T07:19:35.332772</dc:date>
    <dc:format>image/svg+xml</dc:format>
    <dc:creator>
     <cc:Agent>
      <dc:title>Matplotlib v3.10.7, https://matplotlib.org/</dc:title>
     </cc:Agent>
    </dc:creator>
   </cc:Work>
  </rdf:RDF>
 </metadata>
 <defs>
  <style type="text/css">*{stroke-linejoin: round; stroke-linecap: butt}</style>
 </defs>
 <g id="figure_1">
  <g id="patch_1">
   <path d="M 0 280.8 
L 279.169026 280.8 
L 279.169026 0 
L 0 0 
z
" style="fill: #ffffff"/>
  </g>
  <g id="axes_1">
   <g id="PolyCollection_1">
    <path d="M 195.887739 182.61861 
L 195.835011 181.410944 
L 195.677229 180.212469 
L 195.415593 179.032307 
L 195.052095 177.879438 
L 194.589501 176.762638 
L 194.031331 175.690404 
L 193.381835 174.670899 
L 192.645954 173.711881 
L 191.82929 172.820648 
L 190.938057 172.003983 
L 189.979038 171.268103 
L 188.959533 170.618606 
L 187.8873 170.060437 
L 186.770499 169.597843 
L 185.617631 169.234345 
L 184.437468 168.972709 
L 183.238993 168.814927 
L 182.031328 168.762199 
L 180.823662 168.814927 
L 179.625187 168.972709 
L 178.445025 169.234345 
L 177.292156 169.597843 
L 176.175355 170.060437 
L 175.103122 170.618606 
L 174.083617 171.268103 
L 173.124598 172.003983 
L 172.233366 172.820648 
L 171.416701 173.711881 
L 170.68082 174.670899 
L 170.031324 175.690404 
L 169.473155 176.762638 
L 169.010561 177.879438 
L 168.647063 179.032307 
L 168.385427 180.212469 
L 168.227645 181.410944 
L 168.174917 182.61861 
L 168.227645 183.826276 
L 168.385427 185.02475 
L 168.647063 186.204913 
L 169.010561 187.357781 
L 169.473155 188.474582 
L 170.031324 189.546815 
L 170.68082 190.566321 
L 171.416701 191.525339 
L 172.233366 192.416572 
L 173.124598 193.233236 
L 174.083617 193.969117 
L 175.103122 194.618614 
L 176.175355 195.176783 
L 177.292156 195.639377 
L 178.445025 196.002875 
L 179.625187 196.264511 
L 180.823662 196.422293 
L 182.031328 196.475021 
L 183.238993 196.422293 
L 184.437468 196.264511 
L 185.617631 196.002875 
L 186.770499 195.639377 
L 187.8873 195.176783 
L 188.959533 194.618614 
L 189.979038 193.969117 
L 190.938057 193.233236 
L 191.82929 192.416572 
L 192.645954 191.525339 
L 193.381835 190.566321 
L 194.031331 189.546815 
L 194.589501 188.474582 
L 195.052095 187.357781 
L 195.415593 186.204913 
L 195.677229 185.02475 
L 195.835011 183.826276 
L 195.887739 182.61861 
z
" clip-path="url(#p313a7116f3)" style="fill: #477b9d"/>
    <path d="M 181.808399 168.973124 
L 181.808399 140.249375 
L 182.254257 140.249375 
L 182.254257 168.973124 
z
" clip-path="url(#p313a7116f3)" style="fill: #4c4c4c"/>
    <path d="M 168.451744 183.313748 
L 139.850417 184.308032 
L 139.834927 183.862443 
L 168.436254 182.868159 
z
" clip-path="url(#p313a7116f3)" style="fill: #4c4c4c"/>
    <path d="M 178.705789 169.371945 
L 178.840497 169.534799 
L 179.233707 169.684459 
L 179.853563 169.808801 
L 180.649849 169.897751 
L 181.558054 169.944104 
L 182.504601 169.944104 
L 183.412806 169.897751 
L 184.209092 169.808801 
L 184.828949 169.684459 
L 185.222159 169.534799 
L 185.356866 169.371945 
L 185.356866 154.559252 
L 178.705789 154.559252 
z
" clip-path="url(#p313a7116f3)" style="fill: #477b9d"/>
    <path d="M 178.705789 154.559252 
L 185.356866 154.559252 
L 185.356866 139.746558 
L 185.222159 139.583706 
L 184.828949 139.434048 
L 184.209092 139.309707 
L 183.412806 139.220758 
L 182.504601 139.174405 
L 181.558054 139.174405 
L 180.649849 139.220758 
L 179.853563 139.309707 
L 179.233707 139.434048 
L 178.840497 139.583706 
L 178.705789 139.746558 
z
" clip-path="url(#p313a7116f3)" style="fill: #f03f37"/>
    <path d="M 193.116456 129.332986 
L 193.074274 128.366853 
L 192.948048 127.408073 
L 192.73874 126.463943 
L 192.447941 125.541648 
L 192.077866 124.648208 
L 191.631331 123.790421 
L 191.111733 122.974817 
L 190.523029 122.207602 
L 189.869697 121.494616 
L 189.156711 120.841285 
L 188.389496 120.25258 
L 187.573892 119.732983 
L 186.716105 119.286447 
L 185.822665 118.916372 
L 184.90037 118.625574 
L 183.95624 118.416265 
L 182.99746 118.290039 
L 182.031328 118.247857 
L 181.065195 118.290039 
L 180.106415 118.416265 
L 179.162285 118.625574 
L 178.23999 118.916372 
L 177.34655 119.286447 
L 176.488763 119.732983 
L 175.673159 120.25258 
L 174.905944 120.841285 
L 174.192958 121.494616 
L 173.539626 122.207602 
L 172.950922 122.974817 
L 172.431325 123.790421 
L 171.984789 124.648208 
L 171.614714 125.541648 
L 171.323916 126.463943 
L 171.114607 127.408073 
L 170.988381 128.366853 
L 170.946199 129.332986 
L 170.988381 130.299118 
L 171.114607 131.257898 
L 171.323916 132.202028 
L 171.614714 133.124323 
L 171.984789 134.017764 
L 172.431325 134.87555 
L 172.950922 135.691154 
L 173.539626 136.458369 
L 174.192958 137.171355 
L 174.905944 137.824687 
L 175.673159 138.413392 
L 176.488763 138.932989 
L 177.34655 139.379524 
L 178.23999 139.749599 
L 179.162285 140.040398 
L 180.106415 140.249706 
L 181.065195 140.375932 
L 182.031328 140.418114 
L 182.99746 140.375932 
L 183.95624 140.249706 
L 184.90037 140.040398 
L 185.822665 139.749599 
L 186.716105 139.379524 
L 187.573892 138.932989 
L 188.389496 138.413392 
L 189.156711 137.824687 
L 189.869697 137.171355 
L 190.523029 136.458369 
L 191.111733 135.691154 
L 191.631331 134.87555 
L 192.077866 134.017764 
L 192.447941 133.124323 
L 192.73874 132.202028 
L 192.948048 131.257898 
L 193.074274 130.299118 
L 193.116456 129.332986 
z
" clip-path="url(#p313a7116f3)" style="fill: #f03f37"/>
    <path d="M 168.956659 186.400679 
L 169.132818 186.259766 
L 169.285345 185.861016 
L 169.401884 185.236734 
L 169.472993 184.437495 
L 169.492912 183.528049 
L 169.460026 182.582074 
L 169.377001 181.676206 
L 169.250561 180.883834 
L 169.090952 180.269152 
L 168.911102 179.881957 
L 168.725583 179.753617 
L 153.976022 180.266364 
L 154.207098 186.913426 
z
" clip-path="url(#p313a7116f3)" style="fill: #477b9d"/>
    <path d="M 154.207098 186.913426 
L 153.976022 180.266364 
L 139.226461 180.779111 
L 139.050304 180.920024 
L 138.897778 181.318774 
L 138.781241 181.943056 
L 138.710132 182.742295 
L 138.690214 183.651741 
L 138.7231 184.597717 
L 138.806125 185.503584 
L 138.932563 186.295956 
L 139.092171 186.910638 
L 139.272019 187.297834 
L 139.457536 187.426173 
z
" clip-path="url(#p313a7116f3)" style="fill: #f03f37"/>
    <path d="M 140.057938 184.463112 
L 140.015756 183.49698 
L 139.88953 182.5382 
L 139.680221 181.59407 
L 139.389423 180.671775 
L 139.019348 179.778334 
L 138.572812 178.920548 
L 138.053215 178.104944 
L 137.46451 177.337729 
L 136.811179 176.624743 
L 136.098192 175.971411 
L 135.330978 175.382706 
L 134.515373 174.863109 
L 133.657587 174.416574 
L 132.764146 174.046499 
L 131.841852 173.7557 
L 130.897722 173.546392 
L 129.938942 173.420166 
L 128.972809 173.377984 
L 128.006676 173.420166 
L 127.047897 173.546392 
L 126.103767 173.7557 
L 125.181472 174.046499 
L 124.288031 174.416574 
L 123.430245 174.863109 
L 122.614641 175.382706 
L 121.847426 175.971411 
L 121.134439 176.624743 
L 120.481108 177.337729 
L 119.892403 178.104944 
L 119.372806 178.920548 
L 118.926271 179.778334 
L 118.556196 180.671775 
L 118.265397 181.59407 
L 118.056088 182.5382 
L 117.929863 183.49698 
L 117.88768 184.463112 
L 117.929863 185.429245 
L 118.056088 186.388025 
L 118.265397 187.332155 
L 118.556196 188.25445 
L 118.926271 189.14789 
L 119.372806 190.005677 
L 119.892403 190.821281 
L 120.481108 191.588496 
L 121.134439 192.301482 
L 121.847426 192.954813 
L 122.614641 193.543518 
L 123.430245 194.063115 
L 124.288031 194.509651 
L 125.181472 194.879726 
L 126.103767 195.170524 
L 127.047897 195.379833 
L 128.006676 195.506059 
L 128.972809 195.548241 
L 129.938942 195.506059 
L 130.897722 195.379833 
L 131.841852 195.170524 
L 132.764146 194.879726 
L 133.657587 194.509651 
L 134.515373 194.063115 
L 135.330978 193.543518 
L 136.098192 192.954813 
L 136.811179 192.301482 
L 137.46451 191.588496 
L 138.053215 190.821281 
L 138.572812 190.005677 
L 139.019348 189.14789 
L 139.389423 188.25445 
L 139.680221 187.332155 
L 139.88953 186.388025 
L 140.015756 185.429245 
L 140.057938 184.463112 
z
" clip-path="url(#p313a7116f3)" style="fill: #f03f37"/>
    <path d="M 181.808399 118.416597 
L 181.808399 89.692848 
L 182.254257 89.692848 
L 182.254257 118.416597 
z
" clip-path="url(#p313a7116f3)" style="fill: #4c4c4c"/>
    <path d="M 118.110691 185.063782 
L 89.509364 186.058065 
L 89.493874 185.612477 
L 118.095201 184.618193 
z
" clip-path="url(#p313a7116f3)" style="fill: #4c4c4c"/>
    <path d="M 184.895029 184.812066 
L 185.997777 185.770451 
L 185.705306 186.106977 
L 184.602558 185.148592 
z
" clip-path="url(#p313a7116f3)" style="fill: #4c4c4c"/>
    <path d="M 185.356866 89.294035 
L 185.222159 89.131185 
L 184.828949 88.981529 
L 184.209092 88.857189 
L 183.412806 88.768241 
L 182.504601 88.721889 
L 181.558054 88.721889 
L 180.649849 88.768241 
L 179.853563 88.857189 
L 179.233707 88.981529 
L 178.840497 89.131185 
L 178.705789 89.294035 
L 178.705789 104.106724 
L 185.356866 104.106724 
z
" clip-path="url(#p313a7116f3)" style="fill: #477b9d"/>
    <path d="M 185.356866 104.106724 
L 178.705789 104.106724 
L 178.705789 118.919414 
L 178.840497 119.082265 
L 179.233707 119.231924 
L 179.853563 119.356264 
L 180.649849 119.445214 
L 181.558054 119.491566 
L 182.504601 119.491566 
L 183.412806 119.445214 
L 184.209092 119.356264 
L 184.828949 119.231924 
L 185.222159 119.082265 
L 185.356866 118.919414 
z
" clip-path="url(#p313a7116f3)" style="fill: #f03f37"/>
    <path d="M 195.887739 76.047362 
L 195.835011 74.839696 
L 195.677229 73.641221 
L 195.415593 72.461059 
L 195.052095 71.30819 
L 194.589501 70.191389 
L 194.031331 69.119156 
L 193.381835 68.099651 
L 192.645954 67.140632 
L 191.82929 66.2494 
L 190.938057 65.432735 
L 189.979038 64.696854 
L 188.959533 64.047358 
L 187.8873 63.489189 
L 186.770499 63.026595 
L 185.617631 62.663097 
L 184.437468 62.401461 
L 183.238993 62.243679 
L 182.031328 62.190951 
L 180.823662 62.243679 
L 179.625187 62.401461 
L 178.445025 62.663097 
L 177.292156 63.026595 
L 176.175355 63.489189 
L 175.103122 64.047358 
L 174.083617 64.696854 
L 173.124598 65.432735 
L 172.233366 66.2494 
L 171.416701 67.140632 
L 170.68082 68.099651 
L 170.031324 69.119156 
L 169.473155 70.191389 
L 169.010561 71.30819 
L 168.647063 72.461059 
L 168.385427 73.641221 
L 168.227645 74.839696 
L 168.174917 76.047362 
L 168.227645 77.255027 
L 168.385427 78.453502 
L 168.647063 79.633665 
L 169.010561 80.786533 
L 169.473155 81.903334 
L 170.031324 82.975567 
L 170.68082 83.995072 
L 171.416701 84.954091 
L 172.233366 85.845324 
L 173.124598 86.661988 
L 174.083617 87.397869 
L 175.103122 88.047365 
L 176.175355 88.605535 
L 177.292156 89.068129 
L 178.445025 89.431627 
L 179.625187 89.693263 
L 180.823662 89.851045 
L 182.031328 89.903773 
L 183.238993 89.851045 
L 184.437468 89.693263 
L 185.617631 89.431627 
L 186.770499 89.068129 
L 187.8873 88.605535 
L 188.959533 88.047365 
L 189.979038 87.397869 
L 190.938057 86.661988 
L 191.82929 85.845324 
L 192.645954 84.954091 
L 193.381835 83.995072 
L 194.031331 82.975567 
L 194.589501 81.903334 
L 195.052095 80.786533 
L 195.415593 79.633665 
L 195.677229 78.453502 
L 195.835011 77.255027 
L 195.887739 76.047362 
z
" clip-path="url(#p313a7116f3)" style="fill: #477b9d"/>
    <path d="M 185.997777 185.770451 
L 186.422245 186.139352 
L 186.129774 186.475878 
L 185.705306 186.106977 
z
" clip-path="url(#p313a7116f3)" style="fill: #4c4c4c"/>
    <path d="M 88.988969 182.525545 
L 88.812814 182.666458 
L 88.66029 183.065207 
L 88.543754 183.689489 
L 88.472647 184.488728 
L 88.452729 185.398175 
L 88.485614 186.34415 
L 88.568639 187.250018 
L 88.695076 188.042389 
L 88.854683 188.657072 
L 89.034529 189.044267 
L 89.220045 189.172607 
L 103.969601 188.65986 
L 103.738526 182.012798 
z
" clip-path="url(#p313a7116f3)" style="fill: #477b9d"/>
    <path d="M 103.738526 182.012798 
L 103.969601 188.65986 
L 118.719158 188.147113 
L 118.895315 188.0062 
L 119.04784 187.60745 
L 119.164378 186.983168 
L 119.235486 186.183929 
L 119.255404 185.274483 
L 119.222519 184.328508 
L 119.139494 183.42264 
L 119.013055 182.630268 
L 118.853447 182.015586 
L 118.673599 181.628391 
L 118.488082 181.500051 
z
" clip-path="url(#p313a7116f3)" style="fill: #f03f37"/>
    <path d="M 89.770701 186.307615 
L 89.717974 185.099949 
L 89.560191 183.901474 
L 89.298556 182.721312 
L 88.935058 181.568443 
L 88.472464 180.451642 
L 87.914294 179.379409 
L 87.264798 178.359904 
L 86.528917 177.400885 
L 85.712253 176.509653 
L 84.82102 175.692988 
L 83.862001 174.957107 
L 82.842496 174.307611 
L 81.770263 173.749442 
L 80.653462 173.286848 
L 79.500594 172.92335 
L 78.320431 172.661714 
L 77.121956 172.503932 
L 75.914291 172.451204 
L 74.706625 172.503932 
L 73.50815 172.661714 
L 72.327988 172.92335 
L 71.175119 173.286848 
L 70.058318 173.749442 
L 68.986085 174.307611 
L 67.96658 174.957107 
L 67.007561 175.692988 
L 66.116328 176.509653 
L 65.299664 177.400885 
L 64.563783 178.359904 
L 63.914287 179.379409 
L 63.356118 180.451642 
L 62.893524 181.568443 
L 62.530025 182.721312 
L 62.26839 183.901474 
L 62.110608 185.099949 
L 62.05788 186.307615 
L 62.110608 187.51528 
L 62.26839 188.713755 
L 62.530025 189.893918 
L 62.893524 191.046786 
L 63.356118 192.163587 
L 63.914287 193.23582 
L 64.563783 194.255325 
L 65.299664 195.214344 
L 66.116328 196.105577 
L 67.007561 196.922241 
L 67.96658 197.658122 
L 68.986085 198.307618 
L 70.058318 198.865788 
L 71.175119 199.328382 
L 72.327988 199.69188 
L 73.50815 199.953515 
L 74.706625 200.111298 
L 75.914291 200.164025 
L 77.121956 200.111298 
L 78.320431 199.953515 
L 79.500594 199.69188 
L 80.653462 199.328382 
L 81.770263 198.865788 
L 82.842496 198.307618 
L 83.862001 197.658122 
L 84.82102 196.922241 
L 85.712253 196.105577 
L 86.528917 195.214344 
L 87.264798 194.255325 
L 87.914294 193.23582 
L 88.472464 192.163587 
L 88.935058 191.046786 
L 89.298556 189.893918 
L 89.560191 188.713755 
L 89.717974 187.51528 
L 89.770701 186.307615 
z
" clip-path="url(#p313a7116f3)" style="fill: #477b9d"/>
    <path d="M 168.451744 76.7425 
L 139.850417 77.736783 
L 139.834927 77.291195 
L 168.436254 76.296911 
z
" clip-path="url(#p313a7116f3)" style="fill: #4c4c4c"/>
    <path d="M 186.422245 186.139352 
L 188.120117 187.614953 
L 187.827646 187.95148 
L 186.129774 186.475878 
z
" clip-path="url(#p313a7116f3)" style="fill: #4c4c4c"/>
    <path d="M 75.691362 172.662128 
L 75.691362 143.93838 
L 76.137219 143.93838 
L 76.137219 172.662128 
z
" clip-path="url(#p313a7116f3)" style="fill: #4c4c4c"/>
    <path d="M 168.956659 79.829431 
L 169.132818 79.688518 
L 169.285345 79.289768 
L 169.401884 78.665486 
L 169.472994 77.866247 
L 169.492912 76.956801 
L 169.460027 76.010825 
L 169.377001 75.104958 
L 169.250562 74.312586 
L 169.090952 73.697904 
L 168.911103 73.310709 
L 168.725584 73.182369 
L 153.976022 73.695116 
L 154.207098 80.342178 
z
" clip-path="url(#p313a7116f3)" style="fill: #477b9d"/>
    <path d="M 154.207098 80.342178 
L 153.976022 73.695116 
L 139.22646 74.207863 
L 139.050303 74.348776 
L 138.897778 74.747526 
L 138.78124 75.371808 
L 138.710132 76.171047 
L 138.690213 77.080493 
L 138.723099 78.026469 
L 138.806124 78.932336 
L 138.932562 79.724708 
L 139.092171 80.33939 
L 139.272019 80.726585 
L 139.457536 80.854925 
z
" clip-path="url(#p313a7116f3)" style="fill: #f03f37"/>
    <path d="M 140.057938 77.891864 
L 140.015756 76.925731 
L 139.88953 75.966952 
L 139.680221 75.022822 
L 139.389423 74.100527 
L 139.019348 73.207086 
L 138.572812 72.3493 
L 138.053215 71.533695 
L 137.46451 70.766481 
L 136.811179 70.053494 
L 136.098192 69.400163 
L 135.330978 68.811458 
L 134.515373 68.291861 
L 133.657587 67.845326 
L 132.764146 67.47525 
L 131.841852 67.184452 
L 130.897722 66.975143 
L 129.938942 66.848918 
L 128.972809 66.806735 
L 128.006676 66.848918 
L 127.047897 66.975143 
L 126.103767 67.184452 
L 125.181472 67.47525 
L 124.288031 67.845326 
L 123.430245 68.291861 
L 122.614641 68.811458 
L 121.847426 69.400163 
L 121.134439 70.053494 
L 120.481108 70.766481 
L 119.892403 71.533695 
L 119.372806 72.3493 
L 118.926271 73.207086 
L 118.556196 74.100527 
L 118.265397 75.022822 
L 118.056088 75.966952 
L 117.929863 76.925731 
L 117.88768 77.891864 
L 117.929863 78.857997 
L 118.056088 79.816776 
L 118.265397 80.760906 
L 118.556196 81.683201 
L 118.926271 82.576642 
L 119.372806 83.434428 
L 119.892403 84.250033 
L 120.481108 85.017247 
L 121.134439 85.730234 
L 121.847426 86.383565 
L 122.614641 86.97227 
L 123.430245 87.491867 
L 124.288031 87.938402 
L 125.181472 88.308478 
L 126.103767 88.599276 
L 127.047897 88.808585 
L 128.006676 88.93481 
L 128.972809 88.976993 
L 129.938942 88.93481 
L 130.897722 88.808585 
L 131.841852 88.599276 
L 132.764146 88.308478 
L 133.657587 87.938402 
L 134.515373 87.491867 
L 135.330978 86.97227 
L 136.098192 86.383565 
L 136.811179 85.730234 
L 137.46451 85.017247 
L 138.053215 84.250033 
L 138.572812 83.434428 
L 139.019348 82.576642 
L 139.389423 81.683201 
L 139.680221 80.760906 
L 139.88953 79.816776 
L 140.015756 78.857997 
L 140.057938 77.891864 
z
" clip-path="url(#p313a7116f3)" style="fill: #f03f37"/>
    <path d="M 188.120117 187.614953 
L 188.332351 187.799404 
L 188.03988 188.13593 
L 187.827646 187.95148 
z
" clip-path="url(#p313a7116f3)" style="fill: #4c4c4c"/>
    <path d="M 72.588752 173.06095 
L 72.72346 173.223804 
L 73.116669 173.373464 
L 73.736526 173.497806 
L 74.532812 173.586757 
L 75.441017 173.63311 
L 76.387564 173.63311 
L 77.295769 173.586757 
L 78.092055 173.497806 
L 78.711912 173.373464 
L 79.105121 173.223804 
L 79.239829 173.06095 
L 79.239829 158.248256 
L 72.588752 158.248256 
z
" clip-path="url(#p313a7116f3)" style="fill: #477b9d"/>
    <path d="M 72.588752 158.248256 
L 79.239829 158.248256 
L 79.239829 143.435562 
L 79.105121 143.272711 
L 78.711912 143.123052 
L 78.092055 142.998711 
L 77.295769 142.909762 
L 76.387564 142.863409 
L 75.441017 142.863409 
L 74.532812 142.909762 
L 73.736526 142.998711 
L 73.116669 143.123052 
L 72.72346 143.272711 
L 72.588752 143.435562 
z
" clip-path="url(#p313a7116f3)" style="fill: #f03f37"/>
    <path d="M 86.999419 133.021991 
L 86.957237 132.055858 
L 86.831011 131.097078 
L 86.621703 130.152948 
L 86.330904 129.230653 
L 85.960829 128.337213 
L 85.514294 127.479426 
L 84.994696 126.663822 
L 84.405992 125.896607 
L 83.75266 125.183621 
L 83.039674 124.530289 
L 82.272459 123.941585 
L 81.456855 123.421987 
L 80.599068 122.975452 
L 79.705628 122.605377 
L 78.783333 122.314578 
L 77.839203 122.10527 
L 76.880423 121.979044 
L 75.914291 121.936862 
L 74.948158 121.979044 
L 73.989378 122.10527 
L 73.045248 122.314578 
L 72.122953 122.605377 
L 71.229513 122.975452 
L 70.371726 123.421987 
L 69.556122 123.941585 
L 68.788907 124.530289 
L 68.075921 125.183621 
L 67.422589 125.896607 
L 66.833885 126.663822 
L 66.314288 127.479426 
L 65.867752 128.337213 
L 65.497677 129.230653 
L 65.206878 130.152948 
L 64.99757 131.097078 
L 64.871344 132.055858 
L 64.829162 133.021991 
L 64.871344 133.988123 
L 64.99757 134.946903 
L 65.206878 135.891033 
L 65.497677 136.813328 
L 65.867752 137.706768 
L 66.314288 138.564555 
L 66.833885 139.380159 
L 67.422589 140.147374 
L 68.075921 140.86036 
L 68.788907 141.513692 
L 69.556122 142.102396 
L 70.371726 142.621994 
L 71.229513 143.068529 
L 72.122953 143.438604 
L 73.045248 143.729403 
L 73.989378 143.938711 
L 74.948158 144.064937 
L 75.914291 144.107119 
L 76.880423 144.064937 
L 77.839203 143.938711 
L 78.783333 143.729403 
L 79.705628 143.438604 
L 80.599068 143.068529 
L 81.456855 142.621994 
L 82.272459 142.102396 
L 83.039674 141.513692 
L 83.75266 140.86036 
L 84.405992 140.147374 
L 84.994696 139.380159 
L 85.514294 138.564555 
L 85.960829 137.706768 
L 86.330904 136.813328 
L 86.621703 135.891033 
L 86.831011 134.946903 
L 86.957237 133.988123 
L 86.999419 133.021991 
z
" clip-path="url(#p313a7116f3)" style="fill: #f03f37"/>
    <path d="M 118.110691 78.492533 
L 89.509364 79.486817 
L 89.493874 79.041228 
L 118.095201 78.046945 
z
" clip-path="url(#p313a7116f3)" style="fill: #4c4c4c"/>
    <path d="M 75.691362 122.105601 
L 75.691362 93.381853 
L 76.137219 93.381853 
L 76.137219 122.105601 
z
" clip-path="url(#p313a7116f3)" style="fill: #4c4c4c"/>
    <path d="M 188.332351 187.799404 
L 190.242458 189.459456 
L 189.949987 189.795982 
L 188.03988 188.13593 
z
" clip-path="url(#p313a7116f3)" style="fill: #4c4c4c"/>
    <path d="M 184.895029 78.240817 
L 186.422245 79.568103 
L 186.129774 79.904629 
L 184.602558 78.577344 
z
" clip-path="url(#p313a7116f3)" style="fill: #4c4c4c"/>
    <path d="M 78.777992 188.50107 
L 79.880739 189.459456 
L 79.588268 189.795982 
L 78.485521 188.837596 
z
" clip-path="url(#p313a7116f3)" style="fill: #4c4c4c"/>
    <path d="M 88.988969 75.954297 
L 88.812814 76.09521 
L 88.66029 76.493959 
L 88.543753 77.118241 
L 88.472646 77.91748 
L 88.452728 78.826926 
L 88.485614 79.772902 
L 88.568638 80.67877 
L 88.695076 81.471141 
L 88.854683 82.085824 
L 89.034529 82.473019 
L 89.220044 82.601359 
L 103.969601 82.088612 
L 103.738526 75.44155 
z
" clip-path="url(#p313a7116f3)" style="fill: #477b9d"/>
    <path d="M 103.738526 75.44155 
L 103.969601 82.088612 
L 118.719158 81.575865 
L 118.895315 81.434952 
L 119.047841 81.036202 
L 119.164378 80.41192 
L 119.235487 79.612681 
L 119.255405 78.703235 
L 119.222519 77.757259 
L 119.139494 76.851392 
L 119.013056 76.05902 
L 118.853448 75.444338 
L 118.6736 75.057143 
L 118.488082 74.928803 
z
" clip-path="url(#p313a7116f3)" style="fill: #f03f37"/>
    <path d="M 79.239829 92.98304 
L 79.105121 92.82019 
L 78.711912 92.670533 
L 78.092055 92.546193 
L 77.295769 92.457245 
L 76.387564 92.410893 
L 75.441017 92.410893 
L 74.532812 92.457245 
L 73.736526 92.546193 
L 73.116669 92.670533 
L 72.72346 92.82019 
L 72.588752 92.98304 
L 72.588752 107.795729 
L 79.239829 107.795729 
z
" clip-path="url(#p313a7116f3)" style="fill: #477b9d"/>
    <path d="M 79.239829 107.795729 
L 72.588752 107.795729 
L 72.588752 122.608419 
L 72.72346 122.77127 
L 73.116669 122.920929 
L 73.736526 123.04527 
L 74.532812 123.134219 
L 75.441017 123.180572 
L 76.387564 123.180572 
L 77.295769 123.134219 
L 78.092055 123.04527 
L 78.711912 122.920929 
L 79.105121 122.77127 
L 79.239829 122.608419 
z
" clip-path="url(#p313a7116f3)" style="fill: #f03f37"/>
    <path d="M 89.770701 79.736366 
L 89.717974 78.528701 
L 89.560191 77.330226 
L 89.298556 76.150063 
L 88.935058 74.997195 
L 88.472464 73.880394 
L 87.914294 72.808161 
L 87.264798 71.788656 
L 86.528917 70.829637 
L 85.712253 69.938404 
L 84.82102 69.12174 
L 83.862001 68.385859 
L 82.842496 67.736363 
L 81.770263 67.178193 
L 80.653462 66.715599 
L 79.500594 66.352101 
L 78.320431 66.090466 
L 77.121956 65.932683 
L 75.914291 65.879956 
L 74.706625 65.932683 
L 73.50815 66.090466 
L 72.327988 66.352101 
L 71.175119 66.715599 
L 70.058318 67.178193 
L 68.986085 67.736363 
L 67.96658 68.385859 
L 67.007561 69.12174 
L 66.116328 69.938404 
L 65.299664 70.829637 
L 64.563783 71.788656 
L 63.914287 72.808161 
L 63.356118 73.880394 
L 62.893524 74.997195 
L 62.530025 76.150063 
L 62.26839 77.330226 
L 62.110608 78.528701 
L 62.05788 79.736366 
L 62.110608 80.944032 
L 62.26839 82.142507 
L 62.530025 83.322669 
L 62.893524 84.475538 
L 63.356118 85.592339 
L 63.914287 86.664572 
L 64.563783 87.684077 
L 65.299664 88.643096 
L 66.116328 89.534328 
L 67.007561 90.350993 
L 67.96658 91.086874 
L 68.986085 91.73637 
L 70.058318 92.294539 
L 71.175119 92.757133 
L 72.327988 93.120632 
L 73.50815 93.382267 
L 74.706625 93.540049 
L 75.914291 93.592777 
L 77.121956 93.540049 
L 78.320431 93.382267 
L 79.500594 93.120632 
L 80.653462 92.757133 
L 81.770263 92.294539 
L 82.842496 91.73637 
L 83.862001 91.086874 
L 84.82102 90.350993 
L 85.712253 89.534328 
L 86.528917 88.643096 
L 87.264798 87.684077 
L 87.914294 86.664572 
L 88.472464 85.592339 
L 88.935058 84.475538 
L 89.298556 83.322669 
L 89.560191 82.142507 
L 89.717974 80.944032 
L 89.770701 79.736366 
z
" clip-path="url(#p313a7116f3)" style="fill: #477b9d"/>
    <path d="M 190.242458 189.459456 
L 190.615294 189.783484 
L 190.322823 190.12001 
L 189.949987 189.795982 
z
" clip-path="url(#p313a7116f3)" style="fill: #4c4c4c"/>
    <path d="M 186.422245 79.568103 
L 188.969054 81.781506 
L 188.676583 82.118032 
L 186.129774 79.904629 
z
" clip-path="url(#p313a7116f3)" style="fill: #4c4c4c"/>
    <path d="M 79.880739 189.459456 
L 82.427548 191.672859 
L 82.135077 192.009385 
L 79.588268 189.795982 
z
" clip-path="url(#p313a7116f3)" style="fill: #4c4c4c"/>
    <path d="M 186.850857 182.401259 
L 186.079615 181.909453 
L 185.194125 181.66084 
L 184.266124 181.675562 
L 183.370793 181.952426 
L 182.580667 182.469002 
L 181.959757 183.183441 
L 181.558365 184.037861 
L 181.40901 184.963044 
L 181.523792 185.884037 
L 181.893412 186.726226 
L 182.487924 187.421383 
L 185.437816 189.9851 
L 189.800749 184.964976 
z
" clip-path="url(#p313a7116f3)" style="fill: #477b9d"/>
    <path d="M 189.800749 184.964976 
L 185.437816 189.9851 
L 188.387707 192.548817 
L 189.158949 193.040623 
L 190.044439 193.289235 
L 190.97244 193.274513 
L 191.867771 192.997649 
L 192.657897 192.481073 
L 193.278807 191.766635 
L 193.680199 190.912214 
L 193.829553 189.987031 
L 193.714772 189.066038 
L 193.345152 188.223849 
L 192.75064 187.528693 
z
" clip-path="url(#p313a7116f3)" style="fill: #f03f37"/>
    <path d="M 203.72816 191.841122 
L 203.685978 190.874989 
L 203.559752 189.916209 
L 203.350443 188.972079 
L 203.059645 188.049784 
L 202.68957 187.156344 
L 202.243034 186.298557 
L 201.723437 185.482953 
L 201.134733 184.715738 
L 200.481401 184.002752 
L 199.768415 183.34942 
L 199.0012 182.760716 
L 198.185596 182.241119 
L 197.327809 181.794583 
L 196.434369 181.424508 
L 195.512074 181.13371 
L 194.567944 180.924401 
L 193.609164 180.798175 
L 192.643031 180.755993 
L 191.676899 180.798175 
L 190.718119 180.924401 
L 189.773989 181.13371 
L 188.851694 181.424508 
L 187.958254 181.794583 
L 187.100467 182.241119 
L 186.284863 182.760716 
L 185.517648 183.34942 
L 184.804662 184.002752 
L 184.15133 184.715738 
L 183.562626 185.482953 
L 183.043028 186.298557 
L 182.596493 187.156344 
L 182.226418 188.049784 
L 181.935619 188.972079 
L 181.726311 189.916209 
L 181.600085 190.874989 
L 181.557903 191.841122 
L 181.600085 192.807254 
L 181.726311 193.766034 
L 181.935619 194.710164 
L 182.226418 195.632459 
L 182.596493 196.5259 
L 183.043028 197.383686 
L 183.562626 198.19929 
L 184.15133 198.966505 
L 184.804662 199.679491 
L 185.517648 200.332823 
L 186.284863 200.921528 
L 187.100467 201.441125 
L 187.958254 201.88766 
L 188.851694 202.257735 
L 189.773989 202.548534 
L 190.718119 202.757842 
L 191.676899 202.884068 
L 192.643031 202.92625 
L 193.609164 202.884068 
L 194.567944 202.757842 
L 195.512074 202.548534 
L 196.434369 202.257735 
L 197.327809 201.88766 
L 198.185596 201.441125 
L 199.0012 200.921528 
L 199.768415 200.332823 
L 200.481401 199.679491 
L 201.134733 198.966505 
L 201.723437 198.19929 
L 202.243034 197.383686 
L 202.68957 196.5259 
L 203.059645 195.632459 
L 203.350443 194.710164 
L 203.559752 193.766034 
L 203.685978 192.807254 
L 203.72816 191.841122 
z
" clip-path="url(#p313a7116f3)" style="fill: #f03f37"/>
    <path d="M 188.969054 81.781506 
L 190.615294 83.212235 
L 190.322823 83.548762 
L 188.676583 82.118032 
z
" clip-path="url(#p313a7116f3)" style="fill: #4c4c4c"/>
    <path d="M 82.427548 191.672859 
L 84.498257 193.472488 
L 84.205786 193.809014 
L 82.135077 192.009385 
z
" clip-path="url(#p313a7116f3)" style="fill: #4c4c4c"/>
    <path d="M 78.777992 81.929822 
L 82.427548 85.10161 
L 82.135077 85.438137 
L 78.485521 82.266348 
z
" clip-path="url(#p313a7116f3)" style="fill: #4c4c4c"/>
    <path d="M 194.96324 193.562234 
L 196.60948 194.992963 
L 196.317009 195.329489 
L 194.670768 193.89876 
z
" clip-path="url(#p313a7116f3)" style="fill: #4c4c4c"/>
    <path d="M 186.850833 75.829989 
L 186.07959 75.338183 
L 185.194099 75.08957 
L 184.266098 75.104292 
L 183.370767 75.381155 
L 182.580641 75.897731 
L 181.959731 76.612169 
L 181.558339 77.46659 
L 181.408984 78.391774 
L 181.523766 79.312767 
L 181.893386 80.154956 
L 182.4879 80.850113 
L 185.437813 83.413849 
L 189.800746 78.393725 
z
" clip-path="url(#p313a7116f3)" style="fill: #477b9d"/>
    <path d="M 189.800746 78.393725 
L 185.437813 83.413849 
L 188.387726 85.977586 
L 189.158969 86.469392 
L 190.044459 86.718005 
L 190.972461 86.703283 
L 191.867792 86.426419 
L 192.657918 85.909843 
L 193.278828 85.195405 
L 193.680219 84.340984 
L 193.829574 83.415801 
L 193.714792 82.494808 
L 193.345172 81.652618 
L 192.750659 80.957462 
z
" clip-path="url(#p313a7116f3)" style="fill: #f03f37"/>
    <path d="M 203.72816 85.269874 
L 203.685978 84.303741 
L 203.559752 83.344961 
L 203.350443 82.400831 
L 203.059645 81.478536 
L 202.68957 80.585096 
L 202.243034 79.727309 
L 201.723437 78.911705 
L 201.134733 78.14449 
L 200.481401 77.431504 
L 199.768415 76.778172 
L 199.0012 76.189468 
L 198.185596 75.669871 
L 197.327809 75.223335 
L 196.434369 74.85326 
L 195.512074 74.562461 
L 194.567944 74.353153 
L 193.609164 74.226927 
L 192.643031 74.184745 
L 191.676899 74.226927 
L 190.718119 74.353153 
L 189.773989 74.562461 
L 188.851694 74.85326 
L 187.958254 75.223335 
L 187.100467 75.669871 
L 186.284863 76.189468 
L 185.517648 76.778172 
L 184.804662 77.431504 
L 184.15133 78.14449 
L 183.562626 78.911705 
L 183.043028 79.727309 
L 182.596493 80.585096 
L 182.226418 81.478536 
L 181.935619 82.400831 
L 181.726311 83.344961 
L 181.600085 84.303741 
L 181.557903 85.269874 
L 181.600085 86.236006 
L 181.726311 87.194786 
L 181.935619 88.138916 
L 182.226418 89.061211 
L 182.596493 89.954651 
L 183.043028 90.812438 
L 183.562626 91.628042 
L 184.15133 92.395257 
L 184.804662 93.108243 
L 185.517648 93.761575 
L 186.284863 94.350279 
L 187.100467 94.869877 
L 187.958254 95.316412 
L 188.851694 95.686487 
L 189.773989 95.977286 
L 190.718119 96.186594 
L 191.676899 96.31282 
L 192.643031 96.355002 
L 193.609164 96.31282 
L 194.567944 96.186594 
L 195.512074 95.977286 
L 196.434369 95.686487 
L 197.327809 95.316412 
L 198.185596 94.869877 
L 199.0012 94.350279 
L 199.768415 93.761575 
L 200.481401 93.108243 
L 201.134733 92.395257 
L 201.723437 91.628042 
L 202.243034 90.812438 
L 202.68957 89.954651 
L 203.059645 89.061211 
L 203.350443 88.138916 
L 203.559752 87.194786 
L 203.685978 86.236006 
L 203.72816 85.269874 
z
" clip-path="url(#p313a7116f3)" style="fill: #f03f37"/>
    <path d="M 82.427548 85.10161 
L 82.639782 85.286061 
L 82.347311 85.622587 
L 82.135077 85.438137 
z
" clip-path="url(#p313a7116f3)" style="fill: #4c4c4c"/>
    <path d="M 196.60948 194.992963 
L 196.821714 195.177413 
L 196.529243 195.513939 
L 196.317009 195.329489 
z
" clip-path="url(#p313a7116f3)" style="fill: #4c4c4c"/>
    <path d="M 158.983488 140.4 
L 158.909669 138.709268 
L 158.688774 137.031403 
L 158.322484 135.379176 
L 157.813587 133.76516 
L 157.165955 132.201639 
L 156.384518 130.700512 
L 155.475223 129.273205 
L 154.44499 127.930579 
L 153.30166 126.682853 
L 152.053934 125.539523 
L 150.711308 124.50929 
L 149.284 123.599995 
L 147.782874 122.818558 
L 146.219353 122.170926 
L 144.605337 121.662029 
L 142.95311 121.295739 
L 141.275245 121.074844 
L 139.584513 121.001025 
L 137.893781 121.074844 
L 136.215916 121.295739 
L 134.563689 121.662029 
L 132.949673 122.170926 
L 131.386152 122.818558 
L 129.885025 123.599995 
L 128.457718 124.50929 
L 127.115092 125.539523 
L 125.867366 126.682853 
L 124.724036 127.930579 
L 123.693803 129.273205 
L 122.784508 130.700512 
L 122.003071 132.201639 
L 121.355439 133.76516 
L 120.846542 135.379176 
L 120.480252 137.031403 
L 120.259357 138.709268 
L 120.185538 140.4 
L 120.259357 142.090732 
L 120.480252 143.768597 
L 120.846542 145.420824 
L 121.355439 147.03484 
L 122.003071 148.598361 
L 122.784508 150.099488 
L 123.693803 151.526795 
L 124.724036 152.869421 
L 125.867366 154.117147 
L 127.115092 155.260477 
L 128.457718 156.29071 
L 129.885025 157.200005 
L 131.386152 157.981442 
L 132.949673 158.629074 
L 134.563689 159.137971 
L 136.215916 159.504261 
L 137.893781 159.725156 
L 139.584513 159.798975 
L 141.275245 159.725156 
L 142.95311 159.504261 
L 144.605337 159.137971 
L 146.219353 158.629074 
L 147.782874 157.981442 
L 149.284 157.200005 
L 150.711308 156.29071 
L 152.053934 155.260477 
L 153.30166 154.117147 
L 154.44499 152.869421 
L 155.475223 151.526795 
L 156.384518 150.099488 
L 157.165955 148.598361 
L 157.813587 147.03484 
L 158.322484 145.420824 
L 158.688774 143.768597 
L 158.909669 142.090732 
L 158.983488 140.4 
z
" clip-path="url(#p313a7116f3)" style="fill: #51b04d"/>
    <path d="M 196.821714 195.177413 
L 197.033948 195.361863 
L 196.741477 195.69839 
L 196.529243 195.513939 
z
" clip-path="url(#p313a7116f3)" style="fill: #4c4c4c"/>
    <path d="M 82.639782 85.286061 
L 82.852016 85.470511 
L 82.559545 85.807037 
L 82.347311 85.622587 
z
" clip-path="url(#p313a7116f3)" style="fill: #4c4c4c"/>
    <path d="M 80.733793 186.09024 
L 79.96255 185.598433 
L 79.077059 185.34982 
L 78.149058 185.364542 
L 77.253727 185.641406 
L 76.463601 186.157982 
L 75.84269 186.87242 
L 75.441299 187.726841 
L 75.291944 188.652024 
L 75.406727 189.573017 
L 75.776346 190.415207 
L 76.37086 191.110364 
L 79.320775 193.674102 
L 83.683708 188.653978 
z
" clip-path="url(#p313a7116f3)" style="fill: #477b9d"/>
    <path d="M 83.683708 188.653978 
L 79.320775 193.674102 
L 82.270691 196.23784 
L 83.041934 196.729647 
L 83.927424 196.97826 
L 84.855426 196.963538 
L 85.750757 196.686674 
L 86.540883 196.170098 
L 87.161793 195.45566 
L 87.563185 194.601239 
L 87.712539 193.676056 
L 87.597757 192.755063 
L 87.228137 191.912873 
L 86.633624 191.217717 
z
" clip-path="url(#p313a7116f3)" style="fill: #f03f37"/>
    <path d="M 97.611123 195.530126 
L 97.568941 194.563994 
L 97.442715 193.605214 
L 97.233406 192.661084 
L 96.942608 191.738789 
L 96.572533 190.845349 
L 96.125997 189.987562 
L 95.6064 189.171958 
L 95.017695 188.404743 
L 94.364364 187.691757 
L 93.651378 187.038425 
L 92.884163 186.449721 
L 92.068559 185.930123 
L 91.210772 185.483588 
L 90.317332 185.113513 
L 89.395037 184.822714 
L 88.450907 184.613406 
L 87.492127 184.48718 
L 86.525994 184.444998 
L 85.559862 184.48718 
L 84.601082 184.613406 
L 83.656952 184.822714 
L 82.734657 185.113513 
L 81.841216 185.483588 
L 80.98343 185.930123 
L 80.167826 186.449721 
L 79.400611 187.038425 
L 78.687625 187.691757 
L 78.034293 188.404743 
L 77.445588 189.171958 
L 76.925991 189.987562 
L 76.479456 190.845349 
L 76.109381 191.738789 
L 75.818582 192.661084 
L 75.609274 193.605214 
L 75.483048 194.563994 
L 75.440866 195.530126 
L 75.483048 196.496259 
L 75.609274 197.455039 
L 75.818582 198.399169 
L 76.109381 199.321464 
L 76.479456 200.214904 
L 76.925991 201.072691 
L 77.445588 201.888295 
L 78.034293 202.65551 
L 78.687625 203.368496 
L 79.400611 204.021828 
L 80.167826 204.610532 
L 80.98343 205.130129 
L 81.841216 205.576665 
L 82.734657 205.94674 
L 83.656952 206.237539 
L 84.601082 206.446847 
L 85.559862 206.573073 
L 86.525994 206.615255 
L 87.492127 206.573073 
L 88.450907 206.446847 
L 89.395037 206.237539 
L 90.317332 205.94674 
L 91.210772 205.576665 
L 92.068559 205.130129 
L 92.884163 204.610532 
L 93.651378 204.021828 
L 94.364364 203.368496 
L 95.017695 202.65551 
L 95.6064 201.888295 
L 96.125997 201.072691 
L 96.572533 200.214904 
L 96.942608 199.321464 
L 97.233406 198.399169 
L 97.442715 197.455039 
L 97.568941 196.496259 
L 97.611123 195.530126 
z
" clip-path="url(#p313a7116f3)" style="fill: #f03f37"/>
    <path d="M 82.852016 85.470511 
L 84.498257 86.90124 
L 84.205786 87.237766 
L 82.559545 85.807037 
z
" clip-path="url(#p313a7116f3)" style="fill: #4c4c4c"/>
    <path d="M 197.033948 195.361863 
L 200.683505 198.533652 
L 200.391034 198.870178 
L 196.741477 195.69839 
z
" clip-path="url(#p313a7116f3)" style="fill: #4c4c4c"/>
    <path d="M 194.96324 86.990986 
L 197.033948 88.790615 
L 196.741477 89.127141 
L 194.670768 87.327512 
z
" clip-path="url(#p313a7116f3)" style="fill: #4c4c4c"/>
    <path d="M 88.846202 197.251238 
L 90.492443 198.681968 
L 90.199972 199.018494 
L 88.553731 197.587765 
z
" clip-path="url(#p313a7116f3)" style="fill: #4c4c4c"/>
    <path d="M 80.733768 79.51897 
L 79.962525 79.027163 
L 79.077034 78.77855 
L 78.149032 78.793271 
L 77.253701 79.070135 
L 76.463574 79.586711 
L 75.842664 80.301149 
L 75.441273 81.15557 
L 75.291918 82.080753 
L 75.406701 83.001747 
L 75.776321 83.843937 
L 76.370835 84.539094 
L 79.320773 87.102852 
L 83.683706 82.082728 
z
" clip-path="url(#p313a7116f3)" style="fill: #477b9d"/>
    <path d="M 83.683706 82.082728 
L 79.320773 87.102852 
L 82.270711 89.666609 
L 83.041954 90.158416 
L 83.927445 90.407029 
L 84.855447 90.392308 
L 85.750778 90.115444 
L 86.540904 89.598868 
L 87.161814 88.88443 
L 87.563206 88.030009 
L 87.71256 87.104826 
L 87.597778 86.183832 
L 87.228157 85.341642 
L 86.633644 84.646485 
z
" clip-path="url(#p313a7116f3)" style="fill: #f03f37"/>
    <path d="M 97.611123 88.958878 
L 97.568941 87.992746 
L 97.442715 87.033966 
L 97.233406 86.089836 
L 96.942608 85.167541 
L 96.572533 84.2741 
L 96.125997 83.416314 
L 95.6064 82.60071 
L 95.017695 81.833495 
L 94.364364 81.120509 
L 93.651378 80.467177 
L 92.884163 79.878472 
L 92.068559 79.358875 
L 91.210772 78.91234 
L 90.317332 78.542265 
L 89.395037 78.251466 
L 88.450907 78.042158 
L 87.492127 77.915932 
L 86.525994 77.87375 
L 85.559862 77.915932 
L 84.601082 78.042158 
L 83.656952 78.251466 
L 82.734657 78.542265 
L 81.841216 78.91234 
L 80.98343 79.358875 
L 80.167826 79.878472 
L 79.400611 80.467177 
L 78.687625 81.120509 
L 78.034293 81.833495 
L 77.445588 82.60071 
L 76.925991 83.416314 
L 76.479456 84.2741 
L 76.109381 85.167541 
L 75.818582 86.089836 
L 75.609274 87.033966 
L 75.483048 87.992746 
L 75.440866 88.958878 
L 75.483048 89.925011 
L 75.609274 90.883791 
L 75.818582 91.827921 
L 76.109381 92.750216 
L 76.479456 93.643656 
L 76.925991 94.501443 
L 77.445588 95.317047 
L 78.034293 96.084262 
L 78.687625 96.797248 
L 79.400611 97.45058 
L 80.167826 98.039284 
L 80.98343 98.558881 
L 81.841216 99.005417 
L 82.734657 99.375492 
L 83.656952 99.66629 
L 84.601082 99.875599 
L 85.559862 100.001825 
L 86.525994 100.044007 
L 87.492127 100.001825 
L 88.450907 99.875599 
L 89.395037 99.66629 
L 90.317332 99.375492 
L 91.210772 99.005417 
L 92.068559 98.558881 
L 92.884163 98.039284 
L 93.651378 97.45058 
L 94.364364 96.797248 
L 95.017695 96.084262 
L 95.6064 95.317047 
L 96.125997 94.501443 
L 96.572533 93.643656 
L 96.942608 92.750216 
L 97.233406 91.827921 
L 97.442715 90.883791 
L 97.568941 89.925011 
L 97.611123 88.958878 
z
" clip-path="url(#p313a7116f3)" style="fill: #f03f37"/>
    <path d="M 197.033948 88.790615 
L 199.580757 91.004018 
L 199.288286 91.340544 
L 196.741477 89.127141 
z
" clip-path="url(#p313a7116f3)" style="fill: #4c4c4c"/>
    <path d="M 90.492443 198.681968 
L 93.039252 200.895371 
L 92.746781 201.231897 
L 90.199972 199.018494 
z
" clip-path="url(#p313a7116f3)" style="fill: #4c4c4c"/>
    <path d="M 88.846202 90.67999 
L 89.219039 91.004018 
L 88.926568 91.340544 
L 88.553731 91.016516 
z
" clip-path="url(#p313a7116f3)" style="fill: #4c4c4c"/>
    <path d="M 198.435195 201.280976 
L 199.206438 201.772782 
L 200.091928 202.021394 
L 201.019929 202.006672 
L 201.915259 201.729808 
L 202.705385 201.213232 
L 203.326295 200.498794 
L 203.727687 199.644373 
L 203.877042 198.71919 
L 203.76226 197.798197 
L 203.392641 196.956008 
L 202.798128 196.260852 
L 199.848242 193.697139 
L 195.485309 198.717263 
z
" clip-path="url(#p313a7116f3)" style="fill: #477b9d"/>
    <path d="M 195.485309 198.717263 
L 199.848242 193.697139 
L 196.898356 191.133427 
L 196.127114 190.641621 
L 195.241624 190.393008 
L 194.313623 190.40773 
L 193.418292 190.684594 
L 192.628166 191.20117 
L 192.007256 191.915608 
L 191.605864 192.770029 
L 191.456509 193.695212 
L 191.571291 194.616205 
L 191.94091 195.458394 
L 192.535423 196.15355 
z
" clip-path="url(#p313a7116f3)" style="fill: #f03f37"/>
    <path d="M 217.111146 201.063634 
L 217.058418 199.855968 
L 216.900636 198.657493 
L 216.639 197.477331 
L 216.275502 196.324462 
L 215.812908 195.207661 
L 215.254739 194.135428 
L 214.605242 193.115923 
L 213.869362 192.156904 
L 213.052697 191.265672 
L 212.161464 190.449007 
L 211.202446 189.713126 
L 210.182941 189.06363 
L 209.110707 188.505461 
L 207.993907 188.042867 
L 206.841038 187.679368 
L 205.660876 187.417733 
L 204.462401 187.259951 
L 203.254735 187.207223 
L 202.047069 187.259951 
L 200.848595 187.417733 
L 199.668432 187.679368 
L 198.515563 188.042867 
L 197.398763 188.505461 
L 196.32653 189.06363 
L 195.307024 189.713126 
L 194.348006 190.449007 
L 193.456773 191.265672 
L 192.640109 192.156904 
L 191.904228 193.115923 
L 191.254731 194.135428 
L 190.696562 195.207661 
L 190.233968 196.324462 
L 189.87047 197.477331 
L 189.608834 198.657493 
L 189.451052 199.855968 
L 189.398324 201.063634 
L 189.451052 202.271299 
L 189.608834 203.469774 
L 189.87047 204.649937 
L 190.233968 205.802805 
L 190.696562 206.919606 
L 191.254731 207.991839 
L 191.904228 209.011344 
L 192.640109 209.970363 
L 193.456773 210.861596 
L 194.348006 211.67826 
L 195.307024 212.414141 
L 196.32653 213.063637 
L 197.398763 213.621807 
L 198.515563 214.084401 
L 199.668432 214.447899 
L 200.848595 214.709534 
L 202.047069 214.867317 
L 203.254735 214.920044 
L 204.462401 214.867317 
L 205.660876 214.709534 
L 206.841038 214.447899 
L 207.993907 214.084401 
L 209.110707 213.621807 
L 210.182941 213.063637 
L 211.202446 212.414141 
L 212.161464 211.67826 
L 213.052697 210.861596 
L 213.869362 209.970363 
L 214.605242 209.011344 
L 215.254739 207.991839 
L 215.812908 206.919606 
L 216.275502 205.802805 
L 216.639 204.649937 
L 216.900636 203.469774 
L 217.058418 202.271299 
L 217.111146 201.063634 
z
" clip-path="url(#p313a7116f3)" style="fill: #477b9d"/>
    <path d="M 199.580757 91.004018 
L 200.683505 91.962404 
L 200.391034 92.29893 
L 199.288286 91.340544 
z
" clip-path="url(#p313a7116f3)" style="fill: #4c4c4c"/>
    <path d="M 93.039252 200.895371 
L 94.566468 202.222656 
L 94.273997 202.559183 
L 92.746781 201.231897 
z
" clip-path="url(#p313a7116f3)" style="fill: #4c4c4c"/>
    <path d="M 89.219039 91.004018 
L 91.129145 92.66407 
L 90.836674 93.000596 
L 88.926568 91.340544 
z
" clip-path="url(#p313a7116f3)" style="fill: #4c4c4c"/>
    <path d="M 203.031806 187.418147 
L 203.031806 158.694399 
L 203.477664 158.694399 
L 203.477664 187.418147 
z
" clip-path="url(#p313a7116f3)" style="fill: #4c4c4c"/>
    <path d="M 189.675152 201.758772 
L 161.073825 202.753055 
L 161.058334 202.307467 
L 189.659661 201.313183 
z
" clip-path="url(#p313a7116f3)" style="fill: #4c4c4c"/>
    <path d="M 199.929197 187.816971 
L 200.063904 187.979825 
L 200.457114 188.129485 
L 201.07697 188.253828 
L 201.873256 188.342779 
L 202.781462 188.389132 
L 203.728009 188.389132 
L 204.636214 188.342779 
L 205.4325 188.253828 
L 206.052356 188.129485 
L 206.445566 187.979825 
L 206.580274 187.816971 
L 206.580274 173.004275 
L 199.929197 173.004275 
z
" clip-path="url(#p313a7116f3)" style="fill: #477b9d"/>
    <path d="M 199.929197 173.004275 
L 206.580274 173.004275 
L 206.580274 158.19158 
L 206.445566 158.028728 
L 206.052356 157.879069 
L 205.4325 157.754728 
L 204.636214 157.665778 
L 203.728009 157.619426 
L 202.781462 157.619426 
L 201.873256 157.665778 
L 201.07697 157.754728 
L 200.457114 157.879069 
L 200.063904 158.028728 
L 199.929197 158.19158 
z
" clip-path="url(#p313a7116f3)" style="fill: #f03f37"/>
    <path d="M 214.339864 147.778009 
L 214.297682 146.811877 
L 214.171456 145.853097 
L 213.962147 144.908967 
L 213.671349 143.986672 
L 213.301274 143.093232 
L 212.854738 142.235445 
L 212.335141 141.419841 
L 211.746436 140.652626 
L 211.093105 139.93964 
L 210.380118 139.286308 
L 209.612904 138.697604 
L 208.797299 138.178006 
L 207.939513 137.731471 
L 207.046072 137.361396 
L 206.123778 137.070597 
L 205.179648 136.861289 
L 204.220868 136.735063 
L 203.254735 136.692881 
L 202.288602 136.735063 
L 201.329823 136.861289 
L 200.385693 137.070597 
L 199.463398 137.361396 
L 198.569957 137.731471 
L 197.712171 138.178006 
L 196.896567 138.697604 
L 196.129352 139.286308 
L 195.416365 139.93964 
L 194.763034 140.652626 
L 194.174329 141.419841 
L 193.654732 142.235445 
L 193.208197 143.093232 
L 192.838122 143.986672 
L 192.547323 144.908967 
L 192.338014 145.853097 
L 192.211789 146.811877 
L 192.169606 147.778009 
L 192.211789 148.744142 
L 192.338014 149.702922 
L 192.547323 150.647052 
L 192.838122 151.569347 
L 193.208197 152.462787 
L 193.654732 153.320574 
L 194.174329 154.136178 
L 194.763034 154.903393 
L 195.416365 155.616379 
L 196.129352 156.269711 
L 196.896567 156.858415 
L 197.712171 157.378013 
L 198.569957 157.824548 
L 199.463398 158.194623 
L 200.385693 158.485422 
L 201.329823 158.69473 
L 202.288602 158.820956 
L 203.254735 158.863138 
L 204.220868 158.820956 
L 205.179648 158.69473 
L 206.123778 158.485422 
L 207.046072 158.194623 
L 207.939513 157.824548 
L 208.797299 157.378013 
L 209.612904 156.858415 
L 210.380118 156.269711 
L 211.093105 155.616379 
L 211.746436 154.903393 
L 212.335141 154.136178 
L 212.854738 153.320574 
L 213.301274 152.462787 
L 213.671349 151.569347 
L 213.962147 150.647052 
L 214.171456 149.702922 
L 214.297682 148.744142 
L 214.339864 147.778009 
z
" clip-path="url(#p313a7116f3)" style="fill: #f03f37"/>
    <path d="M 91.129145 92.66407 
L 91.341379 92.84852 
L 91.048908 93.185047 
L 90.836674 93.000596 
z
" clip-path="url(#p313a7116f3)" style="fill: #4c4c4c"/>
    <path d="M 190.180068 204.845703 
L 190.356228 204.70479 
L 190.508756 204.30604 
L 190.625295 203.681758 
L 190.696404 202.882519 
L 190.716323 201.973073 
L 190.683438 201.027097 
L 190.600412 200.12123 
L 190.473973 199.328858 
L 190.314362 198.714176 
L 190.134512 198.326981 
L 189.948993 198.198641 
L 175.19943 198.711388 
L 175.430505 205.35845 
z
" clip-path="url(#p313a7116f3)" style="fill: #477b9d"/>
    <path d="M 175.430505 205.35845 
L 175.19943 198.711388 
L 160.449867 199.224135 
L 160.273709 199.365048 
L 160.121183 199.763798 
L 160.004645 200.38808 
L 159.933536 201.187319 
L 159.913618 202.096765 
L 159.946503 203.042741 
L 160.029528 203.948608 
L 160.155967 204.74098 
L 160.315576 205.355662 
L 160.495424 205.742857 
L 160.680942 205.871197 
z
" clip-path="url(#p313a7116f3)" style="fill: #f03f37"/>
    <path d="M 161.281345 202.908136 
L 161.239163 201.942003 
L 161.112937 200.983224 
L 160.903629 200.039094 
L 160.61283 199.116799 
L 160.242755 198.223358 
L 159.79622 197.365572 
L 159.276622 196.549967 
L 158.687918 195.782753 
L 158.034586 195.069766 
L 157.3216 194.416435 
L 156.554385 193.82773 
L 155.738781 193.308133 
L 154.880994 192.861598 
L 153.987554 192.491522 
L 153.065259 192.200724 
L 152.121129 191.991415 
L 151.162349 191.86519 
L 150.196217 191.823007 
L 149.230084 191.86519 
L 148.271304 191.991415 
L 147.327174 192.200724 
L 146.404879 192.491522 
L 145.511439 192.861598 
L 144.653652 193.308133 
L 143.838048 193.82773 
L 143.070833 194.416435 
L 142.357847 195.069766 
L 141.704515 195.782753 
L 141.115811 196.549967 
L 140.596214 197.365572 
L 140.149678 198.223358 
L 139.779603 199.116799 
L 139.488804 200.039094 
L 139.279496 200.983224 
L 139.15327 201.942003 
L 139.111088 202.908136 
L 139.15327 203.874269 
L 139.279496 204.833048 
L 139.488804 205.777178 
L 139.779603 206.699473 
L 140.149678 207.592914 
L 140.596214 208.4507 
L 141.115811 209.266305 
L 141.704515 210.033519 
L 142.357847 210.746506 
L 143.070833 211.399837 
L 143.838048 211.988542 
L 144.653652 212.508139 
L 145.511439 212.954674 
L 146.404879 213.32475 
L 147.327174 213.615548 
L 148.271304 213.824857 
L 149.230084 213.951082 
L 150.196217 213.993265 
L 151.162349 213.951082 
L 152.121129 213.824857 
L 153.065259 213.615548 
L 153.987554 213.32475 
L 154.880994 212.954674 
L 155.738781 212.508139 
L 156.554385 211.988542 
L 157.3216 211.399837 
L 158.034586 210.746506 
L 158.687918 210.033519 
L 159.276622 209.266305 
L 159.79622 208.4507 
L 160.242755 207.592914 
L 160.61283 206.699473 
L 160.903629 205.777178 
L 161.112937 204.833048 
L 161.239163 203.874269 
L 161.281345 202.908136 
z
" clip-path="url(#p313a7116f3)" style="fill: #f03f37"/>
    <path d="M 203.031806 136.86162 
L 203.031806 108.137872 
L 203.477664 108.137872 
L 203.477664 136.86162 
z
" clip-path="url(#p313a7116f3)" style="fill: #4c4c4c"/>
    <path d="M 91.341379 92.84852 
L 93.039252 94.324122 
L 92.746781 94.660648 
L 91.048908 93.185047 
z
" clip-path="url(#p313a7116f3)" style="fill: #4c4c4c"/>
    <path d="M 139.334099 203.508805 
L 110.732772 204.503089 
L 110.717282 204.0575 
L 139.318608 203.063217 
z
" clip-path="url(#p313a7116f3)" style="fill: #4c4c4c"/>
    <path d="M 198.43522 94.709749 
L 199.206463 95.201556 
L 200.091953 95.450168 
L 201.019954 95.435446 
L 201.915285 95.158582 
L 202.705412 94.642007 
L 203.326322 93.927568 
L 203.727713 93.073148 
L 203.877068 92.147964 
L 203.762286 91.226971 
L 203.392666 90.384782 
L 202.798153 89.689625 
L 199.848245 87.125893 
L 195.485312 92.146017 
z
" clip-path="url(#p313a7116f3)" style="fill: #477b9d"/>
    <path d="M 195.485312 92.146017 
L 199.848245 87.125893 
L 196.898337 84.562161 
L 196.127094 84.070355 
L 195.241603 83.821742 
L 194.313602 83.836464 
L 193.418271 84.113328 
L 192.628145 84.629904 
L 192.007235 85.344342 
L 191.605843 86.198763 
L 191.456489 87.123946 
L 191.571271 88.044939 
L 191.94089 88.887129 
L 192.535404 89.582285 
z
" clip-path="url(#p313a7116f3)" style="fill: #f03f37"/>
    <path d="M 206.580274 107.739057 
L 206.445566 107.576207 
L 206.052356 107.42655 
L 205.4325 107.30221 
L 204.636214 107.213261 
L 203.728009 107.166909 
L 202.781462 107.166909 
L 201.873256 107.213261 
L 201.07697 107.30221 
L 200.457114 107.42655 
L 200.063904 107.576207 
L 199.929197 107.739057 
L 199.929197 122.551748 
L 206.580274 122.551748 
z
" clip-path="url(#p313a7116f3)" style="fill: #477b9d"/>
    <path d="M 206.580274 122.551748 
L 199.929197 122.551748 
L 199.929197 137.364439 
L 200.063904 137.527291 
L 200.457114 137.67695 
L 201.07697 137.801291 
L 201.873256 137.890241 
L 202.781462 137.936593 
L 203.728009 137.936593 
L 204.636214 137.890241 
L 205.4325 137.801291 
L 206.052356 137.67695 
L 206.445566 137.527291 
L 206.580274 137.364439 
z
" clip-path="url(#p313a7116f3)" style="fill: #f03f37"/>
    <path d="M 217.111146 94.492385 
L 217.058418 93.28472 
L 216.900636 92.086245 
L 216.639 90.906082 
L 216.275502 89.753214 
L 215.812908 88.636413 
L 215.254739 87.56418 
L 214.605242 86.544675 
L 213.869362 85.585656 
L 213.052697 84.694423 
L 212.161464 83.877759 
L 211.202446 83.141878 
L 210.182941 82.492382 
L 209.110707 81.934212 
L 207.993907 81.471618 
L 206.841038 81.10812 
L 205.660876 80.846485 
L 204.462401 80.688702 
L 203.254735 80.635975 
L 202.047069 80.688702 
L 200.848595 80.846485 
L 199.668432 81.10812 
L 198.515563 81.471618 
L 197.398763 81.934212 
L 196.32653 82.492382 
L 195.307024 83.141878 
L 194.348006 83.877759 
L 193.456773 84.694423 
L 192.640109 85.585656 
L 191.904228 86.544675 
L 191.254731 87.56418 
L 190.696562 88.636413 
L 190.233968 89.753214 
L 189.87047 90.906082 
L 189.608834 92.086245 
L 189.451052 93.28472 
L 189.398324 94.492385 
L 189.451052 95.700051 
L 189.608834 96.898526 
L 189.87047 98.078688 
L 190.233968 99.231557 
L 190.696562 100.348358 
L 191.254731 101.420591 
L 191.904228 102.440096 
L 192.640109 103.399115 
L 193.456773 104.290347 
L 194.348006 105.107012 
L 195.307024 105.842893 
L 196.32653 106.492389 
L 197.398763 107.050558 
L 198.515563 107.513152 
L 199.668432 107.87665 
L 200.848595 108.138286 
L 202.047069 108.296068 
L 203.254735 108.348796 
L 204.462401 108.296068 
L 205.660876 108.138286 
L 206.841038 107.87665 
L 207.993907 107.513152 
L 209.110707 107.050558 
L 210.182941 106.492389 
L 211.202446 105.842893 
L 212.161464 105.107012 
L 213.052697 104.290347 
L 213.869362 103.399115 
L 214.605242 102.440096 
L 215.254739 101.420591 
L 215.812908 100.348358 
L 216.275502 99.231557 
L 216.639 98.078688 
L 216.900636 96.898526 
L 217.058418 95.700051 
L 217.111146 94.492385 
z
" clip-path="url(#p313a7116f3)" style="fill: #477b9d"/>
    <path d="M 93.039252 94.324122 
L 93.46372 94.693023 
L 93.171249 95.029549 
L 92.746781 94.660648 
z
" clip-path="url(#p313a7116f3)" style="fill: #4c4c4c"/>
    <path d="M 92.318186 204.970005 
L 93.089428 205.461811 
L 93.974919 205.710424 
L 94.90292 205.695702 
L 95.798251 205.418838 
L 96.588377 204.902262 
L 97.209287 204.187824 
L 97.610679 203.333403 
L 97.760034 202.40822 
L 97.645252 201.487227 
L 97.275632 200.645037 
L 96.681119 199.949881 
L 93.731208 197.386147 
L 89.368275 202.40627 
z
" clip-path="url(#p313a7116f3)" style="fill: #477b9d"/>
    <path d="M 89.368275 202.40627 
L 93.731208 197.386147 
L 90.781297 194.822412 
L 90.010055 194.330606 
L 89.124564 194.081993 
L 88.196563 194.096715 
L 87.301232 194.373579 
L 86.511105 194.890155 
L 85.890195 195.604593 
L 85.488804 196.459014 
L 85.339449 197.384197 
L 85.454231 198.30519 
L 85.823851 199.14738 
L 86.418364 199.842536 
z
" clip-path="url(#p313a7116f3)" style="fill: #f03f37"/>
    <path d="M 110.212375 200.970569 
L 110.036219 201.111482 
L 109.883694 201.510231 
L 109.767158 202.134513 
L 109.69605 202.933752 
L 109.676132 203.843198 
L 109.709018 204.789174 
L 109.792042 205.695042 
L 109.91848 206.487413 
L 110.078087 207.102096 
L 110.257934 207.489291 
L 110.44345 207.617631 
L 125.193008 207.104884 
L 124.961933 200.457822 
z
" clip-path="url(#p313a7116f3)" style="fill: #477b9d"/>
    <path d="M 124.961933 200.457822 
L 125.193008 207.104884 
L 139.942567 206.592137 
L 140.118724 206.451224 
L 140.27125 206.052474 
L 140.387788 205.428192 
L 140.458897 204.628953 
L 140.478815 203.719507 
L 140.44593 202.773531 
L 140.362905 201.867664 
L 140.236466 201.075292 
L 140.076857 200.46061 
L 139.897009 200.073415 
L 139.711491 199.945075 
z
" clip-path="url(#p313a7116f3)" style="fill: #f03f37"/>
    <path d="M 110.994109 204.752638 
L 110.941381 203.544973 
L 110.783599 202.346498 
L 110.521963 201.166335 
L 110.158465 200.013467 
L 109.695871 198.896666 
L 109.137702 197.824433 
L 108.488205 196.804928 
L 107.752325 195.845909 
L 106.93566 194.954676 
L 106.044427 194.138012 
L 105.085409 193.402131 
L 104.065903 192.752635 
L 102.99367 192.194465 
L 101.87687 191.731871 
L 100.724001 191.368373 
L 99.543838 191.106737 
L 98.345364 190.948955 
L 97.137698 190.896227 
L 95.930032 190.948955 
L 94.731557 191.106737 
L 93.551395 191.368373 
L 92.398526 191.731871 
L 91.281726 192.194465 
L 90.209493 192.752635 
L 89.189987 193.402131 
L 88.230969 194.138012 
L 87.339736 194.954676 
L 86.523071 195.845909 
L 85.787191 196.804928 
L 85.137694 197.824433 
L 84.579525 198.896666 
L 84.116931 200.013467 
L 83.753433 201.166335 
L 83.491797 202.346498 
L 83.334015 203.544973 
L 83.281287 204.752638 
L 83.334015 205.960304 
L 83.491797 207.158779 
L 83.753433 208.338941 
L 84.116931 209.49181 
L 84.579525 210.608611 
L 85.137694 211.680844 
L 85.787191 212.700349 
L 86.523071 213.659368 
L 87.339736 214.5506 
L 88.230969 215.367265 
L 89.189987 216.103146 
L 90.209493 216.752642 
L 91.281726 217.310811 
L 92.398526 217.773405 
L 93.551395 218.136903 
L 94.731557 218.398539 
L 95.930032 218.556321 
L 97.137698 218.609049 
L 98.345364 218.556321 
L 99.543838 218.398539 
L 100.724001 218.136903 
L 101.87687 217.773405 
L 102.99367 217.310811 
L 104.065903 216.752642 
L 105.085409 216.103146 
L 106.044427 215.367265 
L 106.93566 214.5506 
L 107.752325 213.659368 
L 108.488205 212.700349 
L 109.137702 211.680844 
L 109.695871 210.608611 
L 110.158465 209.49181 
L 110.521963 208.338941 
L 110.783599 207.158779 
L 110.941381 205.960304 
L 110.994109 204.752638 
z
" clip-path="url(#p313a7116f3)" style="fill: #477b9d"/>
    <path d="M 93.46372 94.693023 
L 94.566468 95.651408 
L 94.273997 95.987934 
L 93.171249 95.029549 
z
" clip-path="url(#p313a7116f3)" style="fill: #4c4c4c"/>
    <path d="M 189.675152 95.187523 
L 161.073825 96.181807 
L 161.058334 95.736218 
L 189.659661 94.741935 
z
" clip-path="url(#p313a7116f3)" style="fill: #4c4c4c"/>
    <path d="M 96.914769 191.107152 
L 96.914769 162.383403 
L 97.360627 162.383403 
L 97.360627 191.107152 
z
" clip-path="url(#p313a7116f3)" style="fill: #4c4c4c"/>
    <path d="M 190.180069 98.274455 
L 190.356228 98.133542 
L 190.508756 97.734792 
L 190.625296 97.11051 
L 190.696405 96.311271 
L 190.716324 95.401824 
L 190.683439 94.455849 
L 190.600413 93.549981 
L 190.473973 92.75761 
L 190.314363 92.142928 
L 190.134513 91.755732 
L 189.948993 91.627393 
L 175.19943 92.14014 
L 175.430505 98.787202 
z
" clip-path="url(#p313a7116f3)" style="fill: #477b9d"/>
    <path d="M 175.430505 98.787202 
L 175.19943 92.14014 
L 160.449866 92.652887 
L 160.273709 92.7938 
L 160.121182 93.19255 
L 160.004644 93.816832 
L 159.933535 94.616071 
L 159.913617 95.525517 
L 159.946502 96.471493 
L 160.029528 97.37736 
L 160.155966 98.169732 
L 160.315575 98.784414 
L 160.495424 99.171609 
L 160.680942 99.299949 
z
" clip-path="url(#p313a7116f3)" style="fill: #f03f37"/>
    <path d="M 161.281345 96.336888 
L 161.239163 95.370755 
L 161.112937 94.411975 
L 160.903629 93.467845 
L 160.61283 92.54555 
L 160.242755 91.65211 
L 159.79622 90.794323 
L 159.276622 89.978719 
L 158.687918 89.211504 
L 158.034586 88.498518 
L 157.3216 87.845187 
L 156.554385 87.256482 
L 155.738781 86.736885 
L 154.880994 86.290349 
L 153.987554 85.920274 
L 153.065259 85.629476 
L 152.121129 85.420167 
L 151.162349 85.293941 
L 150.196217 85.251759 
L 149.230084 85.293941 
L 148.271304 85.420167 
L 147.327174 85.629476 
L 146.404879 85.920274 
L 145.511439 86.290349 
L 144.653652 86.736885 
L 143.838048 87.256482 
L 143.070833 87.845187 
L 142.357847 88.498518 
L 141.704515 89.211504 
L 141.115811 89.978719 
L 140.596214 90.794323 
L 140.149678 91.65211 
L 139.779603 92.54555 
L 139.488804 93.467845 
L 139.279496 94.411975 
L 139.15327 95.370755 
L 139.111088 96.336888 
L 139.15327 97.30302 
L 139.279496 98.2618 
L 139.488804 99.20593 
L 139.779603 100.128225 
L 140.149678 101.021666 
L 140.596214 101.879452 
L 141.115811 102.695056 
L 141.704515 103.462271 
L 142.357847 104.175257 
L 143.070833 104.828589 
L 143.838048 105.417294 
L 144.653652 105.936891 
L 145.511439 106.383426 
L 146.404879 106.753501 
L 147.327174 107.0443 
L 148.271304 107.253608 
L 149.230084 107.379834 
L 150.196217 107.422016 
L 151.162349 107.379834 
L 152.121129 107.253608 
L 153.065259 107.0443 
L 153.987554 106.753501 
L 154.880994 106.383426 
L 155.738781 105.936891 
L 156.554385 105.417294 
L 157.3216 104.828589 
L 158.034586 104.175257 
L 158.687918 103.462271 
L 159.276622 102.695056 
L 159.79622 101.879452 
L 160.242755 101.021666 
L 160.61283 100.128225 
L 160.903629 99.20593 
L 161.112937 98.2618 
L 161.239163 97.30302 
L 161.281345 96.336888 
z
" clip-path="url(#p313a7116f3)" style="fill: #f03f37"/>
    <path d="M 93.812159 191.505976 
L 93.946867 191.66883 
L 94.340077 191.81849 
L 94.959933 191.942833 
L 95.756219 192.031784 
L 96.664424 192.078137 
L 97.610971 192.078137 
L 98.519177 192.031784 
L 99.315463 191.942833 
L 99.935319 191.81849 
L 100.328529 191.66883 
L 100.463237 191.505976 
L 100.463237 176.69328 
L 93.812159 176.69328 
z
" clip-path="url(#p313a7116f3)" style="fill: #477b9d"/>
    <path d="M 93.812159 176.69328 
L 100.463237 176.69328 
L 100.463237 161.880585 
L 100.328529 161.717733 
L 99.935319 161.568074 
L 99.315463 161.443732 
L 98.519177 161.354782 
L 97.610971 161.30843 
L 96.664424 161.30843 
L 95.756219 161.354782 
L 94.959933 161.443732 
L 94.340077 161.568074 
L 93.946867 161.717733 
L 93.812159 161.880585 
z
" clip-path="url(#p313a7116f3)" style="fill: #f03f37"/>
    <path d="M 108.222827 151.467014 
L 108.180644 150.500882 
L 108.054419 149.542102 
L 107.84511 148.597972 
L 107.554312 147.675677 
L 107.184236 146.782236 
L 106.737701 145.92445 
L 106.218104 145.108846 
L 105.629399 144.341631 
L 104.976068 143.628645 
L 104.263081 142.975313 
L 103.495867 142.386608 
L 102.680262 141.867011 
L 101.822476 141.420476 
L 100.929035 141.050401 
L 100.00674 140.759602 
L 99.06261 140.550294 
L 98.103831 140.424068 
L 97.137698 140.381886 
L 96.171565 140.424068 
L 95.212786 140.550294 
L 94.268656 140.759602 
L 93.346361 141.050401 
L 92.45292 141.420476 
L 91.595134 141.867011 
L 90.779529 142.386608 
L 90.012315 142.975313 
L 89.299328 143.628645 
L 88.645997 144.341631 
L 88.057292 145.108846 
L 87.537695 145.92445 
L 87.09116 146.782236 
L 86.721084 147.675677 
L 86.430286 148.597972 
L 86.220977 149.542102 
L 86.094752 150.500882 
L 86.052569 151.467014 
L 86.094752 152.433147 
L 86.220977 153.391927 
L 86.430286 154.336057 
L 86.721084 155.258352 
L 87.09116 156.151792 
L 87.537695 157.009579 
L 88.057292 157.825183 
L 88.645997 158.592398 
L 89.299328 159.305384 
L 90.012315 159.958715 
L 90.779529 160.54742 
L 91.595134 161.067017 
L 92.45292 161.513553 
L 93.346361 161.883628 
L 94.268656 162.174426 
L 95.212786 162.383735 
L 96.171565 162.509961 
L 97.137698 162.552143 
L 98.103831 162.509961 
L 99.06261 162.383735 
L 100.00674 162.174426 
L 100.929035 161.883628 
L 101.822476 161.513553 
L 102.680262 161.067017 
L 103.495867 160.54742 
L 104.263081 159.958715 
L 104.976068 159.305384 
L 105.629399 158.592398 
L 106.218104 157.825183 
L 106.737701 157.009579 
L 107.184236 156.151792 
L 107.554312 155.258352 
L 107.84511 154.336057 
L 108.054419 153.391927 
L 108.180644 152.433147 
L 108.222827 151.467014 
z
" clip-path="url(#p313a7116f3)" style="fill: #f03f37"/>
    <path d="M 139.334099 96.937557 
L 110.732772 97.931841 
L 110.717282 97.486252 
L 139.318608 96.491968 
z
" clip-path="url(#p313a7116f3)" style="fill: #4c4c4c"/>
    <path d="M 96.914769 140.550625 
L 96.914769 111.826876 
L 97.360627 111.826876 
L 97.360627 140.550625 
z
" clip-path="url(#p313a7116f3)" style="fill: #4c4c4c"/>
    <path d="M 92.318211 98.398778 
L 93.089454 98.890585 
L 93.974945 99.139198 
L 94.902946 99.124476 
L 95.798277 98.847613 
L 96.588404 98.331037 
L 97.209314 97.616599 
L 97.610705 96.762178 
L 97.76006 95.836994 
L 97.645277 94.916001 
L 97.275657 94.073811 
L 96.681144 93.378654 
L 93.731211 90.814901 
L 89.368278 95.835025 
z
" clip-path="url(#p313a7116f3)" style="fill: #477b9d"/>
    <path d="M 89.368278 95.835025 
L 93.731211 90.814901 
L 90.781278 88.251147 
L 90.010035 87.759341 
L 89.124544 87.510727 
L 88.196542 87.525449 
L 87.301211 87.802312 
L 86.511084 88.318888 
L 85.890174 89.033326 
L 85.488783 89.887747 
L 85.339429 90.812931 
L 85.454211 91.733924 
L 85.823831 92.576114 
L 86.418345 93.271271 
z
" clip-path="url(#p313a7116f3)" style="fill: #f03f37"/>
    <path d="M 110.212374 94.399321 
L 110.036218 94.540233 
L 109.883694 94.938983 
L 109.767157 95.563265 
L 109.696049 96.362504 
L 109.676131 97.27195 
L 109.709017 98.217926 
L 109.792041 99.123793 
L 109.918479 99.916165 
L 110.078087 100.530847 
L 110.257934 100.918043 
L 110.44345 101.046382 
L 125.193008 100.533635 
L 124.961933 93.886574 
z
" clip-path="url(#p313a7116f3)" style="fill: #477b9d"/>
    <path d="M 124.961933 93.886574 
L 125.193008 100.533635 
L 139.942567 100.020888 
L 140.118725 99.879976 
L 140.271251 99.481226 
L 140.387789 98.856944 
L 140.458898 98.057705 
L 140.478816 97.148258 
L 140.445931 96.202283 
L 140.362905 95.296415 
L 140.236467 94.504044 
L 140.076858 93.889362 
L 139.897009 93.502166 
L 139.711491 93.373827 
z
" clip-path="url(#p313a7116f3)" style="fill: #f03f37"/>
    <path d="M 100.463237 111.428062 
L 100.328529 111.265211 
L 99.935319 111.115554 
L 99.315463 110.991214 
L 98.519177 110.902265 
L 97.610971 110.855913 
L 96.664424 110.855913 
L 95.756219 110.902265 
L 94.959933 110.991214 
L 94.340077 111.115554 
L 93.946867 111.265211 
L 93.812159 111.428062 
L 93.812159 126.240753 
L 100.463237 126.240753 
z
" clip-path="url(#p313a7116f3)" style="fill: #477b9d"/>
    <path d="M 100.463237 126.240753 
L 93.812159 126.240753 
L 93.812159 141.053444 
L 93.946867 141.216296 
L 94.340077 141.365955 
L 94.959933 141.490296 
L 95.756219 141.579246 
L 96.664424 141.625599 
L 97.610971 141.625599 
L 98.519177 141.579246 
L 99.315463 141.490296 
L 99.935319 141.365955 
L 100.328529 141.216296 
L 100.463237 141.053444 
z
" clip-path="url(#p313a7116f3)" style="fill: #f03f37"/>
    <path d="M 110.994109 98.18139 
L 110.941381 96.973724 
L 110.783599 95.77525 
L 110.521963 94.595087 
L 110.158465 93.442219 
L 109.695871 92.325418 
L 109.137702 91.253185 
L 108.488205 90.233679 
L 107.752325 89.274661 
L 106.93566 88.383428 
L 106.044427 87.566764 
L 105.085409 86.830883 
L 104.065903 86.181386 
L 102.99367 85.623217 
L 101.87687 85.160623 
L 100.724001 84.797125 
L 99.543838 84.535489 
L 98.345364 84.377707 
L 97.137698 84.324979 
L 95.930032 84.377707 
L 94.731557 84.535489 
L 93.551395 84.797125 
L 92.398526 85.160623 
L 91.281726 85.623217 
L 90.209493 86.181386 
L 89.189987 86.830883 
L 88.230969 87.566764 
L 87.339736 88.383428 
L 86.523071 89.274661 
L 85.787191 90.233679 
L 85.137694 91.253185 
L 84.579525 92.325418 
L 84.116931 93.442219 
L 83.753433 94.595087 
L 83.491797 95.77525 
L 83.334015 96.973724 
L 83.281287 98.18139 
L 83.334015 99.389056 
L 83.491797 100.587531 
L 83.753433 101.767693 
L 84.116931 102.920562 
L 84.579525 104.037362 
L 85.137694 105.109596 
L 85.787191 106.129101 
L 86.523071 107.088119 
L 87.339736 107.979352 
L 88.230969 108.796017 
L 89.189987 109.531897 
L 90.209493 110.181394 
L 91.281726 110.739563 
L 92.398526 111.202157 
L 93.551395 111.565655 
L 94.731557 111.827291 
L 95.930032 111.985073 
L 97.137698 112.037801 
L 98.345364 111.985073 
L 99.543838 111.827291 
L 100.724001 111.565655 
L 101.87687 111.202157 
L 102.99367 110.739563 
L 104.065903 110.181394 
L 105.085409 109.531897 
L 106.044427 108.796017 
L 106.93566 107.979352 
L 107.752325 107.088119 
L 108.488205 106.129101 
L 109.137702 105.109596 
L 109.695871 104.037362 
L 110.158465 102.920562 
L 110.521963 101.767693 
L 110.783599 100.587531 
L 110.941381 99.389056 
L 110.994109 98.18139 
z
" clip-path="url(#p313a7116f3)" style="fill: #477b9d"/>
   </g>
   <g id="line2d_1">
    <path d="M 43.041677 237.636 
L 43.041677 221.895311 
" clip-path="url(#p313a7116f3)" style="fill: none; stroke: #4c4c4c; stroke-width: 0.993548; stroke-linecap: round"/>
   </g>
   <g id="line2d_2">
    <path d="M 43.041677 237.636 
L 27.368075 238.18087 
" clip-path="url(#p313a7116f3)" style="fill: none; stroke: #4c4c4c; stroke-width: 0.993548; stroke-linecap: round"/>
   </g>
   <g id="line2d_3">
    <path d="M 43.041677 237.636 
L 46.176397 240.36035 
" clip-path="url(#p313a7116f3)" style="fill: none; stroke: #4c4c4c; stroke-width: 0.993548; stroke-linecap: round"/>
   </g>
   <g id="text_1">
    <path d="M 40.761949 212.647026 
L 40.761949 219.741582 
L 41.606465 219.741582 
L 41.606465 219.055413 
L 41.626647 219.055413 
Q 41.764812 219.285171 41.968179 219.43886 
Q 42.173098 219.59255 42.401304 219.68259 
Q 42.62951 219.771078 42.862372 219.809889 
Q 43.096788 219.850251 43.284631 219.850251 
Q 43.871445 219.850251 44.313885 219.642227 
Q 44.756324 219.434203 45.048179 219.070937 
Q 45.341586 218.707671 45.485961 218.221764 
Q 45.630336 217.734304 45.630336 217.187852 
Q 45.630336 216.641401 45.481304 216.155493 
Q 45.332272 215.668034 45.038864 215.295453 
Q 44.745457 214.922872 44.303018 214.703981 
Q 43.862131 214.48509 43.266002 214.48509 
Q 42.728864 214.48509 42.281768 214.679143 
Q 41.834671 214.873195 41.626647 215.30011 
L 41.606465 215.30011 
L 41.606465 212.647026 
L 40.761949 212.647026 
z
M 44.736143 217.12886 
Q 44.736143 217.506098 44.655417 217.864707 
Q 44.576243 218.221764 44.397715 218.499647 
Q 44.219187 218.77753 43.92578 218.946743 
Q 43.632372 219.115957 43.196143 219.115957 
Q 42.75836 219.115957 42.449429 218.952953 
Q 42.14205 218.788397 41.947997 218.519828 
Q 41.755497 218.25126 41.665457 217.89886 
Q 41.576969 217.546461 41.576969 217.167671 
Q 41.576969 216.810614 41.6608 216.462872 
Q 41.744631 216.115131 41.934026 215.841905 
Q 42.123421 215.568679 42.421485 215.399465 
Q 42.71955 215.230251 43.146465 215.230251 
Q 43.553199 215.230251 43.855921 215.390151 
Q 44.160195 215.548497 44.352695 215.817066 
Q 44.546747 216.085635 44.641445 216.428719 
Q 44.736143 216.770251 44.736143 217.12886 
z
" style="fill: #4c4c4c; stroke: #ffffff; stroke-width: 2.980645"/>
    <path d="M 40.761949 212.647026 
L 40.761949 219.741582 
L 41.606465 219.741582 
L 41.606465 219.055413 
L 41.626647 219.055413 
Q 41.764812 219.285171 41.968179 219.43886 
Q 42.173098 219.59255 42.401304 219.68259 
Q 42.62951 219.771078 42.862372 219.809889 
Q 43.096788 219.850251 43.284631 219.850251 
Q 43.871445 219.850251 44.313885 219.642227 
Q 44.756324 219.434203 45.048179 219.070937 
Q 45.341586 218.707671 45.485961 218.221764 
Q 45.630336 217.734304 45.630336 217.187852 
Q 45.630336 216.641401 45.481304 216.155493 
Q 45.332272 215.668034 45.038864 215.295453 
Q 44.745457 214.922872 44.303018 214.703981 
Q 43.862131 214.48509 43.266002 214.48509 
Q 42.728864 214.48509 42.281768 214.679143 
Q 41.834671 214.873195 41.626647 215.30011 
L 41.606465 215.30011 
L 41.606465 212.647026 
L 40.761949 212.647026 
z
M 44.736143 217.12886 
Q 44.736143 217.506098 44.655417 217.864707 
Q 44.576243 218.221764 44.397715 218.499647 
Q 44.219187 218.77753 43.92578 218.946743 
Q 43.632372 219.115957 43.196143 219.115957 
Q 42.75836 219.115957 42.449429 218.952953 
Q 42.14205 218.788397 41.947997 218.519828 
Q 41.755497 218.25126 41.665457 217.89886 
Q 41.576969 217.546461 41.576969 217.167671 
Q 41.576969 216.810614 41.6608 216.462872 
Q 41.744631 216.115131 41.934026 215.841905 
Q 42.123421 215.568679 42.421485 215.399465 
Q 42.71955 215.230251 43.146465 215.230251 
Q 43.553199 215.230251 43.855921 215.390151 
Q 44.160195 215.548497 44.352695 215.817066 
Q 44.546747 216.085635 44.641445 216.428719 
Q 44.736143 216.770251 44.736143 217.12886 
z
" style="fill: #4c4c4c"/>
   </g>
   <g id="text_2">
    <path d="M 24.121388 237.426075 
L 24.9954 237.426075 
Q 24.945723 236.968111 24.756328 236.635894 
Q 24.568485 236.302123 24.275078 236.084785 
Q 23.98167 235.865894 23.599775 235.761881 
Q 23.21788 235.656317 22.780098 235.656317 
Q 22.174654 235.656317 21.716691 235.870551 
Q 21.260279 236.084785 20.956005 236.457365 
Q 20.653283 236.829946 20.504251 237.331377 
Q 20.355219 237.832809 20.355219 238.408756 
Q 20.355219 238.984704 20.508908 239.467506 
Q 20.66415 239.948756 20.966872 240.296498 
Q 21.269594 240.64424 21.721348 240.833635 
Q 22.174654 241.021478 22.759916 241.021478 
Q 23.74415 241.021478 24.315441 240.506075 
Q 24.886731 239.989119 25.024896 239.034381 
L 24.161751 239.034381 
Q 24.081025 239.63051 23.728626 239.959623 
Q 23.376227 240.287184 22.750602 240.287184 
Q 22.353182 240.287184 22.064432 240.128837 
Q 21.777235 239.968938 21.597154 239.706579 
Q 21.418626 239.442668 21.333243 239.105793 
Q 21.249412 238.767365 21.249412 238.408756 
Q 21.249412 238.022204 21.328586 237.658938 
Q 21.409311 237.295672 21.592497 237.017789 
Q 21.777235 236.739906 22.084614 236.570692 
Q 22.391993 236.401478 22.849957 236.401478 
Q 23.385541 236.401478 23.703787 236.670047 
Q 24.022033 236.938615 24.121388 237.426075 
z
" style="fill: #4c4c4c; stroke: #ffffff; stroke-width: 2.980645"/>
    <path d="M 24.121388 237.426075 
L 24.9954 237.426075 
Q 24.945723 236.968111 24.756328 236.635894 
Q 24.568485 236.302123 24.275078 236.084785 
Q 23.98167 235.865894 23.599775 235.761881 
Q 23.21788 235.656317 22.780098 235.656317 
Q 22.174654 235.656317 21.716691 235.870551 
Q 21.260279 236.084785 20.956005 236.457365 
Q 20.653283 236.829946 20.504251 237.331377 
Q 20.355219 237.832809 20.355219 238.408756 
Q 20.355219 238.984704 20.508908 239.467506 
Q 20.66415 239.948756 20.966872 240.296498 
Q 21.269594 240.64424 21.721348 240.833635 
Q 22.174654 241.021478 22.759916 241.021478 
Q 23.74415 241.021478 24.315441 240.506075 
Q 24.886731 239.989119 25.024896 239.034381 
L 24.161751 239.034381 
Q 24.081025 239.63051 23.728626 239.959623 
Q 23.376227 240.287184 22.750602 240.287184 
Q 22.353182 240.287184 22.064432 240.128837 
Q 21.777235 239.968938 21.597154 239.706579 
Q 21.418626 239.442668 21.333243 239.105793 
Q 21.249412 238.767365 21.249412 238.408756 
Q 21.249412 238.022204 21.328586 237.658938 
Q 21.409311 237.295672 21.592497 237.017789 
Q 21.777235 236.739906 22.084614 236.570692 
Q 22.391993 236.401478 22.849957 236.401478 
Q 23.385541 236.401478 23.703787 236.670047 
Q 24.022033 236.938615 24.121388 237.426075 
z
" style="fill: #4c4c4c"/>
   </g>
   <g id="text_3">
    <path d="M 50.150859 244.634748 
Q 49.931968 244.763599 49.543863 244.763599 
Q 49.216302 244.763599 49.02225 244.580413 
Q 48.82975 244.397228 48.82975 243.979627 
Q 48.482008 244.397228 48.019387 244.580413 
Q 47.556766 244.763599 47.021181 244.763599 
Q 46.673439 244.763599 46.359851 244.684425 
Q 46.047814 244.605252 45.818056 244.436038 
Q 45.589851 244.266825 45.45479 243.993599 
Q 45.321282 243.720373 45.321282 243.333821 
Q 45.321282 242.896038 45.470314 242.618155 
Q 45.619347 242.340272 45.863076 242.166401 
Q 46.106806 241.99253 46.418843 241.904042 
Q 46.732431 241.814002 47.059992 241.753458 
Q 47.407734 241.683599 47.721322 241.649446 
Q 48.034911 241.615292 48.272431 241.550091 
Q 48.511504 241.484889 48.649669 241.360696 
Q 48.789387 241.236502 48.789387 240.998982 
Q 48.789387 240.721099 48.685375 240.551885 
Q 48.581363 240.382671 48.416806 240.294183 
Q 48.25225 240.204143 48.048883 240.174647 
Q 47.845516 240.143599 47.646806 240.143599 
Q 47.109669 240.143599 46.752613 240.348518 
Q 46.395556 240.551885 46.364508 241.118518 
L 45.519992 241.118518 
Q 45.540173 240.640373 45.718701 240.312812 
Q 45.898782 239.985252 46.196847 239.781885 
Q 46.494911 239.578518 46.876806 239.488478 
Q 47.258701 239.398437 47.696484 239.398437 
Q 48.044226 239.398437 48.38731 239.448115 
Q 48.730395 239.497792 49.008278 239.653034 
Q 49.286161 239.806724 49.455375 240.084607 
Q 49.624589 240.36249 49.624589 240.809587 
L 49.624589 243.453357 
Q 49.624589 243.751421 49.658742 243.891139 
Q 49.692895 244.029304 49.891605 244.029304 
Q 50.001826 244.029304 50.150859 243.979627 
L 50.150859 244.634748 
z
M 48.780072 242.001845 
Q 48.620173 242.121381 48.360919 242.175716 
Q 48.103218 242.23005 47.820677 242.265756 
Q 47.538137 242.299909 47.249387 242.344929 
Q 46.960637 242.38995 46.732431 242.489304 
Q 46.504226 242.588659 46.359851 242.773397 
Q 46.215476 242.956583 46.215476 243.273276 
Q 46.215476 243.482853 46.299306 243.627228 
Q 46.384689 243.77005 46.518197 243.860091 
Q 46.653258 243.950131 46.831786 243.990494 
Q 47.010314 244.029304 47.209024 244.029304 
Q 47.626625 244.029304 47.924689 243.915978 
Q 48.222754 243.801099 48.410597 243.627228 
Q 48.599992 243.453357 48.690032 243.24999 
Q 48.780072 243.045071 48.780072 242.866542 
L 48.780072 242.001845 
z
" style="fill: #4c4c4c; stroke: #ffffff; stroke-width: 2.980645"/>
    <path d="M 50.150859 244.634748 
Q 49.931968 244.763599 49.543863 244.763599 
Q 49.216302 244.763599 49.02225 244.580413 
Q 48.82975 244.397228 48.82975 243.979627 
Q 48.482008 244.397228 48.019387 244.580413 
Q 47.556766 244.763599 47.021181 244.763599 
Q 46.673439 244.763599 46.359851 244.684425 
Q 46.047814 244.605252 45.818056 244.436038 
Q 45.589851 244.266825 45.45479 243.993599 
Q 45.321282 243.720373 45.321282 243.333821 
Q 45.321282 242.896038 45.470314 242.618155 
Q 45.619347 242.340272 45.863076 242.166401 
Q 46.106806 241.99253 46.418843 241.904042 
Q 46.732431 241.814002 47.059992 241.753458 
Q 47.407734 241.683599 47.721322 241.649446 
Q 48.034911 241.615292 48.272431 241.550091 
Q 48.511504 241.484889 48.649669 241.360696 
Q 48.789387 241.236502 48.789387 240.998982 
Q 48.789387 240.721099 48.685375 240.551885 
Q 48.581363 240.382671 48.416806 240.294183 
Q 48.25225 240.204143 48.048883 240.174647 
Q 47.845516 240.143599 47.646806 240.143599 
Q 47.109669 240.143599 46.752613 240.348518 
Q 46.395556 240.551885 46.364508 241.118518 
L 45.519992 241.118518 
Q 45.540173 240.640373 45.718701 240.312812 
Q 45.898782 239.985252 46.196847 239.781885 
Q 46.494911 239.578518 46.876806 239.488478 
Q 47.258701 239.398437 47.696484 239.398437 
Q 48.044226 239.398437 48.38731 239.448115 
Q 48.730395 239.497792 49.008278 239.653034 
Q 49.286161 239.806724 49.455375 240.084607 
Q 49.624589 240.36249 49.624589 240.809587 
L 49.624589 243.453357 
Q 49.624589 243.751421 49.658742 243.891139 
Q 49.692895 244.029304 49.891605 244.029304 
Q 50.001826 244.029304 50.150859 243.979627 
L 50.150859 244.634748 
z
M 48.780072 242.001845 
Q 48.620173 242.121381 48.360919 242.175716 
Q 48.103218 242.23005 47.820677 242.265756 
Q 47.538137 242.299909 47.249387 242.344929 
Q 46.960637 242.38995 46.732431 242.489304 
Q 46.504226 242.588659 46.359851 242.773397 
Q 46.215476 242.956583 46.215476 243.273276 
Q 46.215476 243.482853 46.299306 243.627228 
Q 46.384689 243.77005 46.518197 243.860091 
Q 46.653258 243.950131 46.831786 243.990494 
Q 47.010314 244.029304 47.209024 244.029304 
Q 47.626625 244.029304 47.924689 243.915978 
Q 48.222754 243.801099 48.410597 243.627228 
Q 48.599992 243.453357 48.690032 243.24999 
Q 48.780072 243.045071 48.780072 242.866542 
L 48.780072 242.001845 
z
" style="fill: #4c4c4c"/>
   </g>
  </g>
 </g>
 <defs>
  <clipPath id="p313a7116f3">
   <rect x="7.2" y="7.2" width="264.769026" height="266.4"/>
  </clipPath>
 </defs>
</svg>
