<?xml version="1.0" encoding="utf-8" standalone="no"?>
<!DOCTYPE svg PUBLIC "-//W3C//DTD SVG 1.1//EN"
  "http://www.w3.org/Graphics/SVG/1.1/DTD/svg11.dtd">
<svg xmlns:xlink="http://www.w3.org/1999/xlink" width="424.8pt" height="424.8pt" viewBox="0 0 424.8 424.8" xmlns="http://www.w3.org/2000/svg" version="1.1">
 <metadata>
  <rdf:RDF xmlns:dc="http://purl.org/dc/elements/1.1/" xmlns:cc="http://creativecommons.org/ns#" xmlns:rdf="http://www.w3.org/1999/02/22-rdf-syntax-ns#">
   <cc:Work>
    <dc:type rdf:resource="http://purl.org/dc/dcmitype/StillImage"/>
    <dc:date>2026-02-15T20:54:03.506081</dc:date>
    <dc:format>image/svg+xml</dc:format>
    <dc:creator>
     <cc:Agent>
      <dc:title>Matplotlib v3.10.7, https://matplotlib.org/</dc:title>
     </cc:Agent>
    </dc:creator>
   </cc:Work>
  </rdf:RDF>
 </metadata>
 <defs>
  <style type="text/css">*{stroke-linejoin: round; stroke-linecap: butt}</style>
 </defs>
 <g id="figure_1">
  <g id="patch_1">
   <path d="M 0 424.8 
L 424.8 424.8 
L 424.8 0 
L 0 0 
z
" style="fill: #ffffff"/>
  </g>
  <g id="axes_1">
   <g id="PolyCollection_1">
    <path d="M 280.204007 251.920623 
L 279.542923 246.899191 
L 277.604722 242.21996 
L 274.52149 238.201814 
L 270.503344 235.118582 
L 265.824113 233.180381 
L 260.802681 232.519297 
L 255.781248 233.180381 
L 251.102018 235.118582 
L 247.083871 238.201814 
L 244.000639 242.21996 
L 242.062439 246.899191 
L 241.401354 251.920623 
L 242.062439 256.942056 
L 244.000639 261.621286 
L 247.083871 265.639433 
L 251.102018 268.722665 
L 255.781248 270.660865 
L 260.802681 271.32195 
L 265.824113 270.660865 
L 270.503344 268.722665 
L 274.52149 265.639433 
L 277.604722 261.621286 
L 279.542923 256.942056 
L 280.204007 251.920623 
z
" clip-path="url(#pb415c19648)" style="fill: #00cc33; stroke: #262626; stroke-width: 1.5"/>
    <path d="M 183.398646 271.680935 
L 182.737561 266.659502 
L 180.799361 261.980272 
L 177.716129 257.962126 
L 173.697982 254.878894 
L 169.018752 252.940693 
L 163.997319 252.279609 
L 158.975887 252.940693 
L 154.296656 254.878894 
L 150.27851 257.962126 
L 147.195278 261.980272 
L 145.257077 266.659502 
L 144.595993 271.680935 
L 145.257077 276.702368 
L 147.195278 281.381598 
L 150.27851 285.399744 
L 154.296656 288.482976 
L 158.975887 290.421177 
L 163.997319 291.082261 
L 169.018752 290.421177 
L 173.697982 288.482976 
L 177.716129 285.399744 
L 180.799361 281.381598 
L 182.737561 276.702368 
L 183.398646 271.680935 
z
" clip-path="url(#pb415c19648)" style="fill: #00cc33; stroke: #262626; stroke-width: 1.5"/>
    <path d="M 280.204007 153.119065 
L 279.542923 148.097632 
L 277.604722 143.418402 
L 274.52149 139.400256 
L 270.503344 136.317024 
L 265.824113 134.378823 
L 260.802681 133.717739 
L 255.781248 134.378823 
L 251.102018 136.317024 
L 247.083871 139.400256 
L 244.000639 143.418402 
L 242.062439 148.097632 
L 241.401354 153.119065 
L 242.062439 158.140498 
L 244.000639 162.819728 
L 247.083871 166.837874 
L 251.102018 169.921106 
L 255.781248 171.859307 
L 260.802681 172.520391 
L 265.824113 171.859307 
L 270.503344 169.921106 
L 274.52149 166.837874 
L 277.604722 162.819728 
L 279.542923 158.140498 
L 280.204007 153.119065 
z
" clip-path="url(#pb415c19648)" style="fill: #00cc33; stroke: #262626; stroke-width: 1.5"/>
    <path d="M 223.486472 212.4 
L 223.10871 209.53061 
L 222.001167 206.856764 
L 220.23932 204.56068 
L 217.943236 202.798833 
L 215.26939 201.69129 
L 212.4 201.313528 
L 209.53061 201.69129 
L 206.856764 202.798833 
L 204.56068 204.56068 
L 202.798833 206.856764 
L 201.69129 209.53061 
L 201.313528 212.4 
L 201.69129 215.26939 
L 202.798833 217.943236 
L 204.56068 220.23932 
L 206.856764 222.001167 
L 209.53061 223.10871 
L 212.4 223.486472 
L 215.26939 223.10871 
L 217.943236 222.001167 
L 220.23932 220.23932 
L 222.001167 217.943236 
L 223.10871 215.26939 
L 223.486472 212.4 
z
" clip-path="url(#pb415c19648)" style="fill: #e61a1a; stroke: #262626; stroke-width: 1.5"/>
    <path d="M 285.004021 222.280156 
L 236.60134 281.561091 
L 212.4 212.4 
z
" clip-path="url(#pb415c19648)" style="fill: #7bacf6; fill-opacity: 0.25; stroke: #4c4c4c; stroke-width: 0.8"/>
    <path d="M 296.090493 222.280156 
L 295.712731 219.410766 
L 294.605188 216.73692 
L 292.843341 214.440836 
L 290.547257 212.678989 
L 287.873411 211.571446 
L 285.004021 211.193684 
L 282.134631 211.571446 
L 279.460785 212.678989 
L 277.164701 214.440836 
L 275.402855 216.73692 
L 274.295311 219.410766 
L 273.917549 222.280156 
L 274.295311 225.149546 
L 275.402855 227.823392 
L 277.164701 230.119475 
L 279.460785 231.881322 
L 282.134631 232.988866 
L 285.004021 233.366628 
L 287.873411 232.988866 
L 290.547257 231.881322 
L 292.843341 230.119475 
L 294.605188 227.823392 
L 295.712731 225.149546 
L 296.090493 222.280156 
z
" clip-path="url(#pb415c19648)" style="fill: #e61a1a; stroke: #262626; stroke-width: 1.5"/>
    <path d="M 247.687813 281.561091 
L 247.31005 278.691701 
L 246.202507 276.017855 
L 244.44066 273.721771 
L 242.144576 271.959924 
L 239.470731 270.852381 
L 236.60134 270.474619 
L 233.73195 270.852381 
L 231.058104 271.959924 
L 228.762021 273.721771 
L 227.000174 276.017855 
L 225.892631 278.691701 
L 225.514868 281.561091 
L 225.892631 284.430481 
L 227.000174 287.104327 
L 228.762021 289.40041 
L 231.058104 291.162257 
L 233.73195 292.269801 
L 236.60134 292.647563 
L 239.470731 292.269801 
L 242.144576 291.162257 
L 244.44066 289.40041 
L 246.202507 287.104327 
L 247.31005 284.430481 
L 247.687813 281.561091 
z
" clip-path="url(#pb415c19648)" style="fill: #e61a1a; stroke: #262626; stroke-width: 1.5"/>
    <path d="M 188.19866 242.040467 
L 236.60134 281.561091 
L 212.4 212.4 
z
" clip-path="url(#pb415c19648)" style="fill: #577aae; fill-opacity: 0.25; stroke: #4c4c4c; stroke-width: 0.8"/>
    <path d="M 236.60134 182.759533 
L 285.004021 222.280156 
L 212.4 212.4 
z
" clip-path="url(#pb415c19648)" style="fill: #577aae; fill-opacity: 0.25; stroke: #4c4c4c; stroke-width: 0.8"/>
    <path d="M 285.004021 222.280156 
L 236.60134 281.561091 
L 260.802681 251.920623 
z
" clip-path="url(#pb415c19648)" style="fill: #334766; fill-opacity: 0.25; stroke: #4c4c4c; stroke-width: 0.8"/>
    <path d="M 236.60134 182.759533 
L 188.19866 242.040467 
L 212.4 212.4 
z
" clip-path="url(#pb415c19648)" style="fill: #334766; fill-opacity: 0.25; stroke: #4c4c4c; stroke-width: 0.8"/>
    <path d="M 86.593284 291.441247 
L 85.9322 286.419814 
L 83.993999 281.740584 
L 80.910767 277.722437 
L 76.892621 274.639205 
L 72.213391 272.701005 
L 67.191958 272.03992 
L 62.170525 272.701005 
L 57.491295 274.639205 
L 53.473148 277.722437 
L 50.389916 281.740584 
L 48.451716 286.419814 
L 47.790632 291.441247 
L 48.451716 296.462679 
L 50.389916 301.14191 
L 53.473148 305.160056 
L 57.491295 308.243288 
L 62.170525 310.181489 
L 67.191958 310.842573 
L 72.213391 310.181489 
L 76.892621 308.243288 
L 80.910767 305.160056 
L 83.993999 301.14191 
L 85.9322 296.462679 
L 86.593284 291.441247 
z
" clip-path="url(#pb415c19648)" style="fill: #00cc33; stroke: #262626; stroke-width: 1.5"/>
    <path d="M 183.398646 172.879377 
L 182.737561 167.857944 
L 180.799361 163.178714 
L 177.716129 159.160567 
L 173.697982 156.077335 
L 169.018752 154.139135 
L 163.997319 153.47805 
L 158.975887 154.139135 
L 154.296656 156.077335 
L 150.27851 159.160567 
L 147.195278 163.178714 
L 145.257077 167.857944 
L 144.595993 172.879377 
L 145.257077 177.900809 
L 147.195278 182.58004 
L 150.27851 186.598186 
L 154.296656 189.681418 
L 158.975887 191.619619 
L 163.997319 192.280703 
L 169.018752 191.619619 
L 173.697982 189.681418 
L 177.716129 186.598186 
L 180.799361 182.58004 
L 182.737561 177.900809 
L 183.398646 172.879377 
z
" clip-path="url(#pb415c19648)" style="fill: #00cc33; stroke: #262626; stroke-width: 1.5"/>
    <path d="M 280.204007 54.317507 
L 279.542923 49.296074 
L 277.604722 44.616844 
L 274.52149 40.598697 
L 270.503344 37.515465 
L 265.824113 35.577265 
L 260.802681 34.91618 
L 255.781248 35.577265 
L 251.102018 37.515465 
L 247.083871 40.598697 
L 244.000639 44.616844 
L 242.062439 49.296074 
L 241.401354 54.317507 
L 242.062439 59.338939 
L 244.000639 64.01817 
L 247.083871 68.036316 
L 251.102018 71.119548 
L 255.781248 73.057749 
L 260.802681 73.718833 
L 265.824113 73.057749 
L 270.503344 71.119548 
L 274.52149 68.036316 
L 277.604722 64.01817 
L 279.542923 59.338939 
L 280.204007 54.317507 
z
" clip-path="url(#pb415c19648)" style="fill: #00cc33; stroke: #262626; stroke-width: 1.5"/>
    <path d="M 223.486472 113.598442 
L 223.10871 110.729052 
L 222.001167 108.055206 
L 220.23932 105.759122 
L 217.943236 103.997275 
L 215.26939 102.889732 
L 212.4 102.51197 
L 209.53061 102.889732 
L 206.856764 103.997275 
L 204.56068 105.759122 
L 202.798833 108.055206 
L 201.69129 110.729052 
L 201.313528 113.598442 
L 201.69129 116.467832 
L 202.798833 119.141678 
L 204.56068 121.437761 
L 206.856764 123.199608 
L 209.53061 124.307151 
L 212.4 124.684914 
L 215.26939 124.307151 
L 217.943236 123.199608 
L 220.23932 121.437761 
L 222.001167 119.141678 
L 223.10871 116.467832 
L 223.486472 113.598442 
z
" clip-path="url(#pb415c19648)" style="fill: #e61a1a; stroke: #262626; stroke-width: 1.5"/>
    <path d="M 126.681111 232.160312 
L 126.303348 229.290922 
L 125.195805 226.617076 
L 123.433958 224.320992 
L 121.137875 222.559145 
L 118.464029 221.451602 
L 115.594639 221.07384 
L 112.725248 221.451602 
L 110.051402 222.559145 
L 107.755319 224.320992 
L 105.993472 226.617076 
L 104.885929 229.290922 
L 104.508166 232.160312 
L 104.885929 235.029702 
L 105.993472 237.703548 
L 107.755319 239.999631 
L 110.051402 241.761478 
L 112.725248 242.869021 
L 115.594639 243.246784 
L 118.464029 242.869021 
L 121.137875 241.761478 
L 123.433958 239.999631 
L 125.195805 237.703548 
L 126.303348 235.029702 
L 126.681111 232.160312 
z
" clip-path="url(#pb415c19648)" style="fill: #e61a1a; stroke: #262626; stroke-width: 1.5"/>
    <path d="M 228.48143 229.824205 
L 230.584939 230.284096 
L 232.688449 228.965449 
L 233.559752 226.640709 
L 232.68845 224.671678 
L 219.233161 213.68548 
L 217.129651 213.225588 
L 215.02614 214.544235 
L 214.154838 216.868975 
L 215.02614 218.838007 
z
" clip-path="url(#pb415c19648)" style="fill: #666666; stroke: #262626"/>
    <path d="M 247.968929 226.445387 
L 247.223039 227.591875 
L 247.303739 229.975694 
L 248.163757 232.200435 
L 249.299306 232.962875 
L 276.209919 227.469769 
L 276.955813 226.323281 
L 276.875114 223.939462 
L 276.015095 221.714721 
L 274.879542 220.952281 
z
" clip-path="url(#pb415c19648)" style="fill: #666666; stroke: #262626"/>
    <path d="M 239.927282 244.441214 
L 238.953136 243.481095 
L 236.60134 243.083401 
L 234.249544 243.481095 
L 233.275399 244.441214 
L 233.275399 271.906743 
L 234.249544 272.866865 
L 236.60134 273.26456 
L 238.953136 272.866865 
L 239.927282 271.906743 
z
" clip-path="url(#pb415c19648)" style="fill: #666666; stroke: #262626"/>
    <path d="M 250.459431 232.160312 
L 249.987228 228.573574 
L 248.602799 225.231267 
L 246.40049 222.361162 
L 243.530385 220.158854 
L 240.188078 218.774424 
L 236.60134 218.302221 
L 233.014603 218.774424 
L 229.672295 220.158854 
L 226.802191 222.361162 
L 224.599882 225.231267 
L 223.215453 228.573574 
L 222.74325 232.160312 
L 223.215453 235.747049 
L 224.599882 239.089357 
L 226.802191 241.959461 
L 229.672295 244.16177 
L 233.014603 245.546199 
L 236.60134 246.018402 
L 240.188078 245.546199 
L 243.530385 244.16177 
L 246.40049 241.959461 
L 248.602799 239.089357 
L 249.987228 235.747049 
L 250.459431 232.160312 
z
" clip-path="url(#pb415c19648)" style="fill: #3366e6; stroke: #262626; stroke-width: 1.5"/>
    <path d="M 328.606688 291.441247 
L 327.945604 286.419814 
L 326.007403 281.740584 
L 322.924171 277.722437 
L 318.906025 274.639205 
L 314.226794 272.701005 
L 309.205361 272.03992 
L 304.183929 272.701005 
L 299.504698 274.639205 
L 295.486552 277.722437 
L 292.40332 281.740584 
L 290.465119 286.419814 
L 289.804035 291.441247 
L 290.465119 296.462679 
L 292.40332 301.14191 
L 295.486552 305.160056 
L 299.504698 308.243288 
L 304.183929 310.181489 
L 309.205361 310.842573 
L 314.226794 310.181489 
L 318.906025 308.243288 
L 322.924171 305.160056 
L 326.007403 301.14191 
L 327.945604 296.462679 
L 328.606688 291.441247 
z
" clip-path="url(#pb415c19648)" style="fill: #00cc33; stroke: #262626; stroke-width: 1.5"/>
    <path d="M 188.19866 242.040467 
L 236.60134 281.561091 
L 260.802681 251.920623 
z
" clip-path="url(#pb415c19648)" style="fill: #577aae; fill-opacity: 0.25; stroke: #4c4c4c; stroke-width: 0.8"/>
    <path d="M 236.60134 182.759533 
L 285.004021 222.280156 
L 260.802681 251.920623 
z
" clip-path="url(#pb415c19648)" style="fill: #577aae; fill-opacity: 0.25; stroke: #4c4c4c; stroke-width: 0.8"/>
    <path d="M 150.882451 301.321402 
L 150.504689 298.452012 
L 149.397145 295.778166 
L 147.635299 293.482083 
L 145.339215 291.720236 
L 142.665369 290.612693 
L 139.795979 290.23493 
L 136.926589 290.612693 
L 134.252743 291.720236 
L 131.956659 293.482083 
L 130.194812 295.778166 
L 129.087269 298.452012 
L 128.709507 301.321402 
L 129.087269 304.190793 
L 130.194812 306.864639 
L 131.956659 309.160722 
L 134.252743 310.922569 
L 136.926589 312.030112 
L 139.795979 312.407875 
L 142.665369 312.030112 
L 145.339215 310.922569 
L 147.635299 309.160722 
L 149.397145 306.864639 
L 150.504689 304.190793 
L 150.882451 301.321402 
z
" clip-path="url(#pb415c19648)" style="fill: #e61a1a; stroke: #262626; stroke-width: 1.5"/>
    <path d="M 296.090493 123.478598 
L 295.712731 120.609207 
L 294.605188 117.935361 
L 292.843341 115.639278 
L 290.547257 113.877431 
L 287.873411 112.769888 
L 285.004021 112.392125 
L 282.134631 112.769888 
L 279.460785 113.877431 
L 277.164701 115.639278 
L 275.402855 117.935361 
L 274.295311 120.609207 
L 273.917549 123.478598 
L 274.295311 126.347988 
L 275.402855 129.021834 
L 277.164701 131.317917 
L 279.460785 133.079764 
L 282.134631 134.187307 
L 285.004021 134.56507 
L 287.873411 134.187307 
L 290.547257 133.079764 
L 292.843341 131.317917 
L 294.605188 129.021834 
L 295.712731 126.347988 
L 296.090493 123.478598 
z
" clip-path="url(#pb415c19648)" style="fill: #e61a1a; stroke: #262626; stroke-width: 1.5"/>
    <path d="M 233.275399 219.87941 
L 234.249544 220.839528 
L 236.60134 221.237222 
L 238.953136 220.839528 
L 239.927282 219.87941 
L 239.927282 192.413896 
L 238.953136 191.453782 
L 236.60134 191.056089 
L 234.249544 191.453782 
L 233.275399 192.413896 
z
" clip-path="url(#pb415c19648)" style="fill: #666666; stroke: #262626"/>
    <path d="M 247.687813 182.759533 
L 247.31005 179.890142 
L 246.202507 177.216296 
L 244.44066 174.920213 
L 242.144576 173.158366 
L 239.470731 172.050823 
L 236.60134 171.67306 
L 233.73195 172.050823 
L 231.058104 173.158366 
L 228.762021 174.920213 
L 227.000174 177.216296 
L 225.892631 179.890142 
L 225.514868 182.759533 
L 225.892631 185.628923 
L 227.000174 188.302769 
L 228.762021 190.598852 
L 231.058104 192.360699 
L 233.73195 193.468242 
L 236.60134 193.846005 
L 239.470731 193.468242 
L 242.144576 192.360699 
L 244.44066 190.598852 
L 246.202507 188.302769 
L 247.31005 185.628923 
L 247.687813 182.759533 
z
" clip-path="url(#pb415c19648)" style="fill: #e61a1a; stroke: #262626; stroke-width: 1.5"/>
    <path d="M 225.233751 237.875236 
L 225.979642 236.728748 
L 225.898942 234.34493 
L 225.038924 232.120188 
L 223.903375 231.357748 
L 196.992777 236.850851 
L 196.24689 237.997338 
L 196.327592 240.381156 
L 197.187609 242.605898 
L 198.323154 243.368339 
z
" clip-path="url(#pb415c19648)" style="fill: #666666; stroke: #262626"/>
    <path d="M 199.285132 242.040467 
L 198.907369 239.171077 
L 197.799826 236.497231 
L 196.037979 234.201148 
L 193.741896 232.439301 
L 191.06805 231.331758 
L 188.19866 230.953995 
L 185.329269 231.331758 
L 182.655424 232.439301 
L 180.35934 234.201148 
L 178.597493 236.497231 
L 177.48995 239.171077 
L 177.112187 242.040467 
L 177.48995 244.909858 
L 178.597493 247.583704 
L 180.35934 249.879787 
L 182.655424 251.641634 
L 185.329269 252.749177 
L 188.19866 253.12694 
L 191.06805 252.749177 
L 193.741896 251.641634 
L 196.037979 249.879787 
L 197.799826 247.583704 
L 198.907369 244.909858 
L 199.285132 242.040467 
z
" clip-path="url(#pb415c19648)" style="fill: #e61a1a; stroke: #262626; stroke-width: 1.5"/>
    <path d="M 131.676088 249.584532 
L 133.779599 250.044425 
L 135.88311 248.725779 
L 136.754412 246.401039 
L 135.883108 244.432006 
L 122.427784 233.44578 
L 120.324272 232.985886 
L 118.220761 234.304531 
L 117.349459 236.629272 
L 118.220764 238.598306 
z
" clip-path="url(#pb415c19648)" style="fill: #666666; stroke: #262626"/>
    <path d="M 179.404542 247.230084 
L 180.150429 246.083597 
L 180.069727 243.699779 
L 179.209711 241.475037 
L 178.074165 240.712596 
L 151.163587 246.205695 
L 150.417704 247.352181 
L 150.498407 249.735999 
L 151.358422 251.960741 
L 152.493964 252.723183 
z
" clip-path="url(#pb415c19648)" style="fill: #666666; stroke: #262626"/>
    <path d="M 143.121921 264.201521 
L 142.147775 263.241402 
L 139.795979 262.843707 
L 137.444183 263.241402 
L 136.470037 264.201521 
L 136.470037 291.667057 
L 137.444183 292.627181 
L 139.795979 293.024877 
L 142.147775 292.627181 
L 143.121921 291.667057 
z
" clip-path="url(#pb415c19648)" style="fill: #666666; stroke: #262626"/>
    <path d="M 236.60134 182.759533 
L 188.19866 242.040467 
L 260.802681 251.920623 
z
" clip-path="url(#pb415c19648)" style="fill: #7bacf6; fill-opacity: 0.25; stroke: #4c4c4c; stroke-width: 0.8"/>
    <path d="M 153.654069 251.920623 
L 153.181866 248.333886 
L 151.797437 244.991578 
L 149.595128 242.121474 
L 146.725024 239.919165 
L 143.382717 238.534736 
L 139.795979 238.062533 
L 136.209241 238.534736 
L 132.866934 239.919165 
L 129.996829 242.121474 
L 127.794521 244.991578 
L 126.410092 248.333886 
L 125.937889 251.920623 
L 126.410092 255.507361 
L 127.794521 258.849668 
L 129.996829 261.719773 
L 132.866934 263.922081 
L 136.209241 265.306511 
L 139.795979 265.778714 
L 143.382717 265.306511 
L 146.725024 263.922081 
L 149.595128 261.719773 
L 151.797437 258.849668 
L 153.181866 255.507361 
L 153.654069 251.920623 
z
" clip-path="url(#pb415c19648)" style="fill: #3366e6; stroke: #262626; stroke-width: 1.5"/>
    <path d="M 86.593284 192.639688 
L 85.9322 187.618256 
L 83.993999 182.939025 
L 80.910767 178.920879 
L 76.892621 175.837647 
L 72.213391 173.899446 
L 67.191958 173.238362 
L 62.170525 173.899446 
L 57.491295 175.837647 
L 53.473148 178.920879 
L 50.389916 182.939025 
L 48.451716 187.618256 
L 47.790632 192.639688 
L 48.451716 197.661121 
L 50.389916 202.340351 
L 53.473148 206.358498 
L 57.491295 209.44173 
L 62.170525 211.37993 
L 67.191958 212.041015 
L 72.213391 211.37993 
L 76.892621 209.44173 
L 80.910767 206.358498 
L 83.993999 202.340351 
L 85.9322 197.661121 
L 86.593284 192.639688 
z
" clip-path="url(#pb415c19648)" style="fill: #00cc33; stroke: #262626; stroke-width: 1.5"/>
    <path d="M 231.801326 311.201558 
L 231.140242 306.180126 
L 229.202041 301.500895 
L 226.118809 297.482749 
L 222.100663 294.399517 
L 217.421433 292.461316 
L 212.4 291.800232 
L 207.378567 292.461316 
L 202.699337 294.399517 
L 198.681191 297.482749 
L 195.597959 301.500895 
L 193.659758 306.180126 
L 192.998674 311.201558 
L 193.659758 316.222991 
L 195.597959 320.902221 
L 198.681191 324.920368 
L 202.699337 328.0036 
L 207.378567 329.9418 
L 212.4 330.602885 
L 217.421433 329.9418 
L 222.100663 328.0036 
L 226.118809 324.920368 
L 229.202041 320.902221 
L 231.140242 316.222991 
L 231.801326 311.201558 
z
" clip-path="url(#pb415c19648)" style="fill: #00cc33; stroke: #262626; stroke-width: 1.5"/>
    <path d="M 228.481449 131.022662 
L 230.584961 131.482555 
L 232.688471 130.163909 
L 233.559773 127.839169 
L 232.68847 125.870136 
L 219.233146 114.88391 
L 217.129633 114.424016 
L 215.026122 115.742661 
L 214.154821 118.067402 
L 215.026125 120.036436 
z
" clip-path="url(#pb415c19648)" style="fill: #666666; stroke: #262626"/>
    <path d="M 233.275399 173.105169 
L 234.249544 174.065283 
L 236.60134 174.462976 
L 238.953136 174.065283 
L 239.927282 173.105169 
L 239.927282 145.639675 
L 238.953136 144.679564 
L 236.60134 144.281873 
L 234.249544 144.679564 
L 233.275399 145.639675 
z
" clip-path="url(#pb415c19648)" style="fill: #666666; stroke: #262626"/>
    <path d="M 247.968925 127.64383 
L 247.223033 128.790318 
L 247.303733 131.174137 
L 248.163752 133.398878 
L 249.299302 134.161318 
L 276.209922 128.668211 
L 276.955818 127.521722 
L 276.87512 125.137903 
L 276.015099 122.913162 
L 274.879545 122.150723 
z
" clip-path="url(#pb415c19648)" style="fill: #666666; stroke: #262626"/>
    <path d="M 250.459431 133.358753 
L 249.987228 129.772016 
L 248.602799 126.429708 
L 246.40049 123.559604 
L 243.530385 121.357295 
L 240.188078 119.972866 
L 236.60134 119.500663 
L 233.014603 119.972866 
L 229.672295 121.357295 
L 226.802191 123.559604 
L 224.599882 126.429708 
L 223.215453 129.772016 
L 222.74325 133.358753 
L 223.215453 136.945491 
L 224.599882 140.287798 
L 226.802191 143.157903 
L 229.672295 145.360211 
L 233.014603 146.744641 
L 236.60134 147.216844 
L 240.188078 146.744641 
L 243.530385 145.360211 
L 246.40049 143.157903 
L 248.602799 140.287798 
L 249.987228 136.945491 
L 250.459431 133.358753 
z
" clip-path="url(#pb415c19648)" style="fill: #3366e6; stroke: #262626; stroke-width: 1.5"/>
    <path d="M 328.606688 192.639688 
L 327.945604 187.618256 
L 326.007403 182.939025 
L 322.924171 178.920879 
L 318.906025 175.837647 
L 314.226794 173.899446 
L 309.205361 173.238362 
L 304.183929 173.899446 
L 299.504698 175.837647 
L 295.486552 178.920879 
L 292.40332 182.939025 
L 290.465119 187.618256 
L 289.804035 192.639688 
L 290.465119 197.661121 
L 292.40332 202.340351 
L 295.486552 206.358498 
L 299.504698 209.44173 
L 304.183929 211.37993 
L 309.205361 212.041015 
L 314.226794 211.37993 
L 318.906025 209.44173 
L 322.924171 206.358498 
L 326.007403 202.340351 
L 327.945604 197.661121 
L 328.606688 192.639688 
z
" clip-path="url(#pb415c19648)" style="fill: #00cc33; stroke: #262626; stroke-width: 1.5"/>
    <path d="M 126.681111 133.358753 
L 126.303348 130.489363 
L 125.195805 127.815517 
L 123.433958 125.519434 
L 121.137875 123.757587 
L 118.464029 122.650044 
L 115.594639 122.272281 
L 112.725248 122.650044 
L 110.051402 123.757587 
L 107.755319 125.519434 
L 105.993472 127.815517 
L 104.885929 130.489363 
L 104.508166 133.358753 
L 104.885929 136.228143 
L 105.993472 138.901989 
L 107.755319 141.198073 
L 110.051402 142.95992 
L 112.725248 144.067463 
L 115.594639 144.445225 
L 118.464029 144.067463 
L 121.137875 142.95992 
L 123.433958 141.198073 
L 125.195805 138.901989 
L 126.303348 136.228143 
L 126.681111 133.358753 
z
" clip-path="url(#pb415c19648)" style="fill: #e61a1a; stroke: #262626; stroke-width: 1.5"/>
    <path d="M 244.721251 234.496418 
L 242.617742 234.036527 
L 240.514232 235.355174 
L 239.642929 237.679914 
L 240.51423 239.648945 
L 253.969505 250.635131 
L 256.073013 251.095021 
L 258.176522 249.776374 
L 259.047825 247.451634 
L 258.176525 245.482604 
z
" clip-path="url(#pb415c19648)" style="fill: #666666; stroke: #262626"/>
    <path d="M 271.889153 251.920623 
L 271.511391 249.051233 
L 270.403847 246.377387 
L 268.642 244.081304 
L 266.345917 242.319457 
L 263.672071 241.211914 
L 260.802681 240.834151 
L 257.933291 241.211914 
L 255.259445 242.319457 
L 252.963361 244.081304 
L 251.201514 246.377387 
L 250.093971 249.051233 
L 249.716209 251.920623 
L 250.093971 254.790013 
L 251.201514 257.463859 
L 252.963361 259.759943 
L 255.259445 261.52179 
L 257.933291 262.629333 
L 260.802681 263.007095 
L 263.672071 262.629333 
L 266.345917 261.52179 
L 268.642 259.759943 
L 270.403847 257.463859 
L 271.511391 254.790013 
L 271.889153 251.920623 
z
" clip-path="url(#pb415c19648)" style="fill: #e61a1a; stroke: #262626; stroke-width: 1.5"/>
    <path d="M 183.398646 74.077818 
L 182.737561 69.056386 
L 180.799361 64.377155 
L 177.716129 60.359009 
L 173.697982 57.275777 
L 169.018752 55.337576 
L 163.997319 54.676492 
L 158.975887 55.337576 
L 154.296656 57.275777 
L 150.27851 60.359009 
L 147.195278 64.377155 
L 145.257077 69.056386 
L 144.595993 74.077818 
L 145.257077 79.099251 
L 147.195278 83.778481 
L 150.27851 87.796628 
L 154.296656 90.87986 
L 158.975887 92.81806 
L 163.997319 93.479145 
L 169.018752 92.81806 
L 173.697982 90.87986 
L 177.716129 87.796628 
L 180.799361 83.778481 
L 182.737561 79.099251 
L 183.398646 74.077818 
z
" clip-path="url(#pb415c19648)" style="fill: #00cc33; stroke: #262626; stroke-width: 1.5"/>
    <path d="M 225.233755 139.073677 
L 225.979647 137.927189 
L 225.898948 135.54337 
L 225.038929 133.318629 
L 223.903379 132.556189 
L 196.992774 138.049293 
L 196.246886 139.19578 
L 196.327587 141.579599 
L 197.187604 143.80434 
L 198.323151 144.566781 
z
" clip-path="url(#pb415c19648)" style="fill: #666666; stroke: #262626"/>
    <path d="M 199.285132 143.238909 
L 198.907369 140.369519 
L 197.799826 137.695673 
L 196.037979 135.39959 
L 193.741896 133.637743 
L 191.06805 132.530199 
L 188.19866 132.152437 
L 185.329269 132.530199 
L 182.655424 133.637743 
L 180.35934 135.39959 
L 178.597493 137.695673 
L 177.48995 140.369519 
L 177.112187 143.238909 
L 177.48995 146.108299 
L 178.597493 148.782145 
L 180.35934 151.078229 
L 182.655424 152.840076 
L 185.329269 153.947619 
L 188.19866 154.325381 
L 191.06805 153.947619 
L 193.741896 152.840076 
L 196.037979 151.078229 
L 197.799826 148.782145 
L 198.907369 146.108299 
L 199.285132 143.238909 
z
" clip-path="url(#pb415c19648)" style="fill: #e61a1a; stroke: #262626; stroke-width: 1.5"/>
    <path d="M 136.470037 239.639725 
L 137.444183 240.599845 
L 139.795979 240.99754 
L 142.147775 240.599845 
L 143.121921 239.639725 
L 143.121921 212.174205 
L 142.147775 211.214089 
L 139.795979 210.816396 
L 137.444183 211.214089 
L 136.470037 212.174205 
z
" clip-path="url(#pb415c19648)" style="fill: #666666; stroke: #262626"/>
    <path d="M 150.882451 202.519844 
L 150.504689 199.650454 
L 149.397145 196.976608 
L 147.635299 194.680525 
L 145.339215 192.918678 
L 142.665369 191.811134 
L 139.795979 191.433372 
L 136.926589 191.811134 
L 134.252743 192.918678 
L 131.956659 194.680525 
L 130.194812 196.976608 
L 129.087269 199.650454 
L 128.709507 202.519844 
L 129.087269 205.389234 
L 130.194812 208.06308 
L 131.956659 210.359164 
L 134.252743 212.121011 
L 136.926589 213.228554 
L 139.795979 213.606316 
L 142.665369 213.228554 
L 145.339215 212.121011 
L 147.635299 210.359164 
L 149.397145 208.06308 
L 150.504689 205.389234 
L 150.882451 202.519844 
z
" clip-path="url(#pb415c19648)" style="fill: #e61a1a; stroke: #262626; stroke-width: 1.5"/>
    <path d="M 296.090493 321.081714 
L 295.712731 318.212324 
L 294.605188 315.538478 
L 292.843341 313.242395 
L 290.547257 311.480548 
L 287.873411 310.373004 
L 285.004021 309.995242 
L 282.134631 310.373004 
L 279.460785 311.480548 
L 277.164701 313.242395 
L 275.402855 315.538478 
L 274.295311 318.212324 
L 273.917549 321.081714 
L 274.295311 323.951104 
L 275.402855 326.62495 
L 277.164701 328.921034 
L 279.460785 330.682881 
L 282.134631 331.790424 
L 285.004021 332.168186 
L 287.873411 331.790424 
L 290.547257 330.682881 
L 292.843341 328.921034 
L 294.605188 326.62495 
L 295.712731 323.951104 
L 296.090493 321.081714 
z
" clip-path="url(#pb415c19648)" style="fill: #e61a1a; stroke: #262626; stroke-width: 1.5"/>
    <path d="M 128.428371 257.635552 
L 129.174254 256.489065 
L 129.093551 254.105247 
L 128.233536 251.880506 
L 127.097994 251.118064 
L 100.187431 256.611159 
L 99.441551 257.757645 
L 99.522256 260.141463 
L 100.38227 262.366205 
L 101.517807 263.128647 
z
" clip-path="url(#pb415c19648)" style="fill: #666666; stroke: #262626"/>
    <path d="M 102.47977 261.800779 
L 102.102008 258.931389 
L 100.994465 256.257543 
L 99.232618 253.96146 
L 96.936534 252.199613 
L 94.262688 251.092069 
L 91.393298 250.714307 
L 88.523908 251.092069 
L 85.850062 252.199613 
L 83.553979 253.96146 
L 81.792132 256.257543 
L 80.684588 258.931389 
L 80.306826 261.800779 
L 80.684588 264.670169 
L 81.792132 267.344015 
L 83.553979 269.640099 
L 85.850062 271.401946 
L 88.523908 272.509489 
L 91.393298 272.887251 
L 94.262688 272.509489 
L 96.936534 271.401946 
L 99.232618 269.640099 
L 100.994465 267.344015 
L 102.102008 264.670169 
L 102.47977 261.800779 
z
" clip-path="url(#pb415c19648)" style="fill: #e61a1a; stroke: #262626; stroke-width: 1.5"/>
    <path d="M 233.275399 121.077832 
L 234.249544 122.037942 
L 236.60134 122.435633 
L 238.953136 122.037942 
L 239.927282 121.077832 
L 239.927282 93.612353 
L 238.953136 92.652246 
L 236.60134 92.254557 
L 234.249544 92.652246 
L 233.275399 93.612353 
z
" clip-path="url(#pb415c19648)" style="fill: #666666; stroke: #262626"/>
    <path d="M 247.687813 83.957974 
L 247.31005 81.088584 
L 246.202507 78.414738 
L 244.44066 76.118655 
L 242.144576 74.356808 
L 239.470731 73.249264 
L 236.60134 72.871502 
L 233.73195 73.249264 
L 231.058104 74.356808 
L 228.762021 76.118655 
L 227.000174 78.414738 
L 225.892631 81.088584 
L 225.514868 83.957974 
L 225.892631 86.827364 
L 227.000174 89.50121 
L 228.762021 91.797294 
L 231.058104 93.559141 
L 233.73195 94.666684 
L 236.60134 95.044446 
L 239.470731 94.666684 
L 242.144576 93.559141 
L 244.44066 91.797294 
L 246.202507 89.50121 
L 247.31005 86.827364 
L 247.687813 83.957974 
z
" clip-path="url(#pb415c19648)" style="fill: #e61a1a; stroke: #262626; stroke-width: 1.5"/>
    <path d="M 344.493174 261.800779 
L 344.115412 258.931389 
L 343.007868 256.257543 
L 341.246021 253.96146 
L 338.949938 252.199613 
L 336.276092 251.092069 
L 333.406702 250.714307 
L 330.537312 251.092069 
L 327.863466 252.199613 
L 325.567382 253.96146 
L 323.805535 256.257543 
L 322.697992 258.931389 
L 322.32023 261.800779 
L 322.697992 264.670169 
L 323.805535 267.344015 
L 325.567382 269.640099 
L 327.863466 271.401946 
L 330.537312 272.509489 
L 333.406702 272.887251 
L 336.276092 272.509489 
L 338.949938 271.401946 
L 341.246021 269.640099 
L 343.007868 267.344015 
L 344.115412 264.670169 
L 344.493174 261.800779 
z
" clip-path="url(#pb415c19648)" style="fill: #e61a1a; stroke: #262626; stroke-width: 1.5"/>
    <path d="M 131.676107 150.78299 
L 133.779621 151.242885 
L 135.883132 149.924239 
L 136.754433 147.599498 
L 135.883127 145.630463 
L 122.427769 134.644209 
L 120.324254 134.184313 
L 118.220742 135.502958 
L 117.349442 137.8277 
L 118.220749 139.796736 
z
" clip-path="url(#pb415c19648)" style="fill: #666666; stroke: #262626"/>
    <path d="M 151.163583 147.404138 
L 150.417698 148.550624 
L 150.498401 150.934442 
L 151.358417 153.159184 
L 152.49396 153.921625 
L 179.404545 148.428525 
L 180.150434 147.282038 
L 180.069732 144.898219 
L 179.209715 142.673478 
L 178.074168 141.911037 
z
" clip-path="url(#pb415c19648)" style="fill: #666666; stroke: #262626"/>
    <path d="M 143.121921 165.399983 
L 142.147775 164.43987 
L 139.795979 164.042179 
L 137.444183 164.43987 
L 136.470037 165.399983 
L 136.470037 192.865484 
L 137.444183 193.8256 
L 139.795979 194.223293 
L 142.147775 193.8256 
L 143.121921 192.865484 
z
" clip-path="url(#pb415c19648)" style="fill: #666666; stroke: #262626"/>
    <path d="M 153.654069 153.119065 
L 153.181866 149.532327 
L 151.797437 146.19002 
L 149.595128 143.319915 
L 146.725024 141.117607 
L 143.382717 139.733178 
L 139.795979 139.260975 
L 136.209241 139.733178 
L 132.866934 141.117607 
L 129.996829 143.319915 
L 127.794521 146.19002 
L 126.410092 149.532327 
L 125.937889 153.119065 
L 126.410092 156.705803 
L 127.794521 160.04811 
L 129.996829 162.918215 
L 132.866934 165.120523 
L 136.209241 166.504952 
L 139.795979 166.977155 
L 143.382717 166.504952 
L 146.725024 165.120523 
L 149.595128 162.918215 
L 151.797437 160.04811 
L 153.181866 156.705803 
L 153.654069 153.119065 
z
" clip-path="url(#pb415c19648)" style="fill: #3366e6; stroke: #262626; stroke-width: 1.5"/>
    <path d="M 231.801326 212.4 
L 231.140242 207.378567 
L 229.202041 202.699337 
L 226.118809 198.681191 
L 222.100663 195.597959 
L 217.421433 193.659758 
L 212.4 192.998674 
L 207.378567 193.659758 
L 202.699337 195.597959 
L 198.681191 198.681191 
L 195.597959 202.699337 
L 193.659758 207.378567 
L 192.998674 212.4 
L 193.659758 217.421433 
L 195.597959 222.100663 
L 198.681191 226.118809 
L 202.699337 229.202041 
L 207.378567 231.140242 
L 212.4 231.801326 
L 217.421433 231.140242 
L 222.100663 229.202041 
L 226.118809 226.118809 
L 229.202041 222.100663 
L 231.140242 217.421433 
L 231.801326 212.4 
z
" clip-path="url(#pb415c19648)" style="fill: #00cc33; stroke: #262626; stroke-width: 1.5"/>
    <path d="M 147.91587 254.256714 
L 145.812359 253.796821 
L 143.708848 255.115468 
L 142.837546 257.440208 
L 143.70885 259.409241 
L 157.164158 270.395455 
L 159.267669 270.855347 
L 161.371179 269.5367 
L 162.242481 267.21196 
L 161.371179 265.242928 
z
" clip-path="url(#pb415c19648)" style="fill: #666666; stroke: #262626"/>
    <path d="M 175.083791 271.680935 
L 174.706029 268.811545 
L 173.598486 266.137699 
L 171.836639 263.841615 
L 169.540555 262.079768 
L 166.866709 260.972225 
L 163.997319 260.594463 
L 161.127929 260.972225 
L 158.454083 262.079768 
L 156.158 263.841615 
L 154.396153 266.137699 
L 153.288609 268.811545 
L 152.910847 271.680935 
L 153.288609 274.550325 
L 154.396153 277.224171 
L 156.158 279.520255 
L 158.454083 281.282102 
L 161.127929 282.389645 
L 163.997319 282.767407 
L 166.866709 282.389645 
L 169.540555 281.282102 
L 171.836639 279.520255 
L 173.598486 277.224171 
L 174.706029 274.550325 
L 175.083791 271.680935 
z
" clip-path="url(#pb415c19648)" style="fill: #e61a1a; stroke: #262626; stroke-width: 1.5"/>
    <path d="M 267.635857 253.206116 
L 265.532349 252.746226 
L 263.42884 254.064873 
L 262.557536 256.389612 
L 263.428836 258.358643 
L 276.884092 269.344813 
L 278.987598 269.804702 
L 281.091107 268.486054 
L 281.962411 266.161315 
L 281.091112 264.192286 
z
" clip-path="url(#pb415c19648)" style="fill: #666666; stroke: #262626"/>
    <path d="M 296.371602 265.966012 
L 295.625709 267.1125 
L 295.706408 269.496319 
L 296.566427 271.72106 
L 297.701979 272.4835 
L 324.612605 266.990392 
L 325.358503 265.843903 
L 325.277805 263.460083 
L 324.417785 261.235343 
L 323.282229 260.472904 
z
" clip-path="url(#pb415c19648)" style="fill: #666666; stroke: #262626"/>
    <path d="M 288.329963 283.961829 
L 287.355817 283.001708 
L 285.004021 282.604013 
L 282.652225 283.001708 
L 281.678079 283.961829 
L 281.678079 311.427372 
L 282.652225 312.387497 
L 285.004021 312.785194 
L 287.355817 312.387497 
L 288.329963 311.427372 
z
" clip-path="url(#pb415c19648)" style="fill: #666666; stroke: #262626"/>
    <path d="M 298.862111 271.680935 
L 298.389908 268.094197 
L 297.005479 264.75189 
L 294.803171 261.881785 
L 291.933066 259.679477 
L 288.590759 258.295048 
L 285.004021 257.822845 
L 281.417283 258.295048 
L 278.074976 259.679477 
L 275.204872 261.881785 
L 273.002563 264.75189 
L 271.618134 268.094197 
L 271.145931 271.680935 
L 271.618134 275.267673 
L 273.002563 278.60998 
L 275.204872 281.480085 
L 278.074976 283.682393 
L 281.417283 285.066822 
L 285.004021 285.539025 
L 288.590759 285.066822 
L 291.933066 283.682393 
L 294.803171 281.480085 
L 297.005479 278.60998 
L 298.389908 275.267673 
L 298.862111 271.680935 
z
" clip-path="url(#pb415c19648)" style="fill: #3366e6; stroke: #262626; stroke-width: 1.5"/>
    <path d="M 244.721232 135.694844 
L 242.61772 135.234951 
L 240.514209 136.553598 
L 239.642907 138.878338 
L 240.514211 140.847371 
L 253.96952 151.833585 
L 256.07303 152.293477 
L 258.17654 150.97483 
L 259.047843 148.65009 
L 258.17654 146.681058 
z
" clip-path="url(#pb415c19648)" style="fill: #666666; stroke: #262626"/>
    <path d="M 271.889153 153.119065 
L 271.511391 150.249675 
L 270.403847 147.575829 
L 268.642 145.279745 
L 266.345917 143.517898 
L 263.672071 142.410355 
L 260.802681 142.032593 
L 257.933291 142.410355 
L 255.259445 143.517898 
L 252.963361 145.279745 
L 251.201514 147.575829 
L 250.093971 150.249675 
L 249.716209 153.119065 
L 250.093971 155.988455 
L 251.201514 158.662301 
L 252.963361 160.958385 
L 255.259445 162.720232 
L 257.933291 163.827775 
L 260.802681 164.205537 
L 263.672071 163.827775 
L 266.345917 162.720232 
L 268.642 160.958385 
L 270.403847 158.662301 
L 271.511391 155.988455 
L 271.889153 153.119065 
z
" clip-path="url(#pb415c19648)" style="fill: #e61a1a; stroke: #262626; stroke-width: 1.5"/>
    <path d="M 86.593284 93.83813 
L 85.9322 88.816697 
L 83.993999 84.137467 
L 80.910767 80.119321 
L 76.892621 77.036089 
L 72.213391 75.097888 
L 67.191958 74.436804 
L 62.170525 75.097888 
L 57.491295 77.036089 
L 53.473148 80.119321 
L 50.389916 84.137467 
L 48.451716 88.816697 
L 47.790632 93.83813 
L 48.451716 98.859563 
L 50.389916 103.538793 
L 53.473148 107.556939 
L 57.491295 110.640171 
L 62.170525 112.578372 
L 67.191958 113.239456 
L 72.213391 112.578372 
L 76.892621 110.640171 
L 80.910767 107.556939 
L 83.993999 103.538793 
L 85.9322 98.859563 
L 86.593284 93.83813 
z
" clip-path="url(#pb415c19648)" style="fill: #00cc33; stroke: #262626; stroke-width: 1.5"/>
    <path d="M 134.995965 330.96187 
L 134.334881 325.940437 
L 132.39668 321.261207 
L 129.313448 317.243061 
L 125.295302 314.159829 
L 120.616071 312.221628 
L 115.594639 311.560544 
L 110.573206 312.221628 
L 105.893975 314.159829 
L 101.875829 317.243061 
L 98.792597 321.261207 
L 96.854396 325.940437 
L 96.193312 330.96187 
L 96.854396 335.983303 
L 98.792597 340.662533 
L 101.875829 344.680679 
L 105.893975 347.763911 
L 110.573206 349.702112 
L 115.594639 350.363196 
L 120.616071 349.702112 
L 125.295302 347.763911 
L 129.313448 344.680679 
L 132.39668 340.662533 
L 134.334881 335.983303 
L 134.995965 330.96187 
z
" clip-path="url(#pb415c19648)" style="fill: #00cc33; stroke: #262626; stroke-width: 1.5"/>
    <path d="M 377.009368 330.96187 
L 376.348284 325.940437 
L 374.410084 321.261207 
L 371.326852 317.243061 
L 367.308705 314.159829 
L 362.629475 312.221628 
L 357.608042 311.560544 
L 352.586609 312.221628 
L 347.907379 314.159829 
L 343.889233 317.243061 
L 340.806001 321.261207 
L 338.8678 325.940437 
L 338.206716 330.96187 
L 338.8678 335.983303 
L 340.806001 340.662533 
L 343.889233 344.680679 
L 347.907379 347.763911 
L 352.586609 349.702112 
L 357.608042 350.363196 
L 362.629475 349.702112 
L 367.308705 347.763911 
L 371.326852 344.680679 
L 374.410084 340.662533 
L 376.348284 335.983303 
L 377.009368 330.96187 
z
" clip-path="url(#pb415c19648)" style="fill: #00cc33; stroke: #262626; stroke-width: 1.5"/>
    <path d="M 328.606688 93.83813 
L 327.945604 88.816697 
L 326.007403 84.137467 
L 322.924171 80.119321 
L 318.906025 77.036089 
L 314.226794 75.097888 
L 309.205361 74.436804 
L 304.183929 75.097888 
L 299.504698 77.036089 
L 295.486552 80.119321 
L 292.40332 84.137467 
L 290.465119 88.816697 
L 289.804035 93.83813 
L 290.465119 98.859563 
L 292.40332 103.538793 
L 295.486552 107.556939 
L 299.504698 110.640171 
L 304.183929 112.578372 
L 309.205361 113.239456 
L 314.226794 112.578372 
L 318.906025 110.640171 
L 322.924171 107.556939 
L 326.007403 103.538793 
L 327.945604 98.859563 
L 328.606688 93.83813 
z
" clip-path="url(#pb415c19648)" style="fill: #00cc33; stroke: #262626; stroke-width: 1.5"/>
    <path d="M 136.470037 140.838147 
L 137.444183 141.79826 
L 139.795979 142.195951 
L 142.147775 141.79826 
L 143.121921 140.838147 
L 143.121921 113.372662 
L 142.147775 112.412554 
L 139.795979 112.014864 
L 137.444183 112.412554 
L 136.470037 113.372662 
z
" clip-path="url(#pb415c19648)" style="fill: #666666; stroke: #262626"/>
    <path d="M 150.882451 103.718286 
L 150.504689 100.848896 
L 149.397145 98.17505 
L 147.635299 95.878966 
L 145.339215 94.117119 
L 142.665369 93.009576 
L 139.795979 92.631814 
L 136.926589 93.009576 
L 134.252743 94.117119 
L 131.956659 95.878966 
L 130.194812 98.17505 
L 129.087269 100.848896 
L 128.709507 103.718286 
L 129.087269 106.587676 
L 130.194812 109.261522 
L 131.956659 111.557605 
L 134.252743 113.319452 
L 136.926589 114.426996 
L 139.795979 114.804758 
L 142.665369 114.426996 
L 145.339215 113.319452 
L 147.635299 111.557605 
L 149.397145 109.261522 
L 150.504689 106.587676 
L 150.882451 103.718286 
z
" clip-path="url(#pb415c19648)" style="fill: #e61a1a; stroke: #262626; stroke-width: 1.5"/>
    <path d="M 281.678079 259.400041 
L 282.652225 260.360162 
L 285.004021 260.757857 
L 287.355817 260.360162 
L 288.329963 259.400041 
L 288.329963 231.934513 
L 287.355817 230.974396 
L 285.004021 230.576702 
L 282.652225 230.974396 
L 281.678079 231.934513 
z
" clip-path="url(#pb415c19648)" style="fill: #666666; stroke: #262626"/>
    <path d="M 296.090493 222.280156 
L 295.712731 219.410766 
L 294.605188 216.73692 
L 292.843341 214.440836 
L 290.547257 212.678989 
L 287.873411 211.571446 
L 285.004021 211.193684 
L 282.134631 211.571446 
L 279.460785 212.678989 
L 277.164701 214.440836 
L 275.402855 216.73692 
L 274.295311 219.410766 
L 273.917549 222.280156 
L 274.295311 225.149546 
L 275.402855 227.823392 
L 277.164701 230.119475 
L 279.460785 231.881322 
L 282.134631 232.988866 
L 285.004021 233.366628 
L 287.873411 232.988866 
L 290.547257 231.881322 
L 292.843341 230.119475 
L 294.605188 227.823392 
L 295.712731 225.149546 
L 296.090493 222.280156 
z
" clip-path="url(#pb415c19648)" style="fill: #e61a1a; stroke: #262626; stroke-width: 1.5"/>
    <path d="M 273.63644 277.395858 
L 274.382334 276.24937 
L 274.301635 273.865551 
L 273.441615 271.64081 
L 272.306063 270.87837 
L 245.395452 276.371475 
L 244.649562 277.517963 
L 244.730262 279.901782 
L 245.59028 282.126523 
L 246.725829 282.888963 
z
" clip-path="url(#pb415c19648)" style="fill: #666666; stroke: #262626"/>
    <path d="M 247.687813 281.561091 
L 247.31005 278.691701 
L 246.202507 276.017855 
L 244.44066 273.721771 
L 242.144576 271.959924 
L 239.470731 270.852381 
L 236.60134 270.474619 
L 233.73195 270.852381 
L 231.058104 271.959924 
L 228.762021 273.721771 
L 227.000174 276.017855 
L 225.892631 278.691701 
L 225.514868 281.561091 
L 225.892631 284.430481 
L 227.000174 287.104327 
L 228.762021 289.40041 
L 231.058104 291.162257 
L 233.73195 292.269801 
L 236.60134 292.647563 
L 239.470731 292.269801 
L 242.144576 291.162257 
L 244.44066 289.40041 
L 246.202507 287.104327 
L 247.31005 284.430481 
L 247.687813 281.561091 
z
" clip-path="url(#pb415c19648)" style="fill: #e61a1a; stroke: #262626; stroke-width: 1.5"/>
    <path d="M 199.285132 340.842026 
L 198.907369 337.972636 
L 197.799826 335.29879 
L 196.037979 333.002706 
L 193.741896 331.240859 
L 191.06805 330.133316 
L 188.19866 329.755554 
L 185.329269 330.133316 
L 182.655424 331.240859 
L 180.35934 333.002706 
L 178.597493 335.29879 
L 177.48995 337.972636 
L 177.112187 340.842026 
L 177.48995 343.711416 
L 178.597493 346.385262 
L 180.35934 348.681345 
L 182.655424 350.443192 
L 185.329269 351.550736 
L 188.19866 351.928498 
L 191.06805 351.550736 
L 193.741896 350.443192 
L 196.037979 348.681345 
L 197.799826 346.385262 
L 198.907369 343.711416 
L 199.285132 340.842026 
z
" clip-path="url(#pb415c19648)" style="fill: #e61a1a; stroke: #262626; stroke-width: 1.5"/>
    <path d="M 128.428375 158.833992 
L 129.174259 157.687506 
L 129.093557 155.303688 
L 128.233541 153.078946 
L 127.097998 152.316505 
L 100.187428 157.809602 
L 99.441547 158.956087 
L 99.522251 161.339905 
L 100.382265 163.564647 
L 101.517804 164.32709 
z
" clip-path="url(#pb415c19648)" style="fill: #666666; stroke: #262626"/>
    <path d="M 102.47977 162.999221 
L 102.102008 160.129831 
L 100.994465 157.455985 
L 99.232618 155.159901 
L 96.936534 153.398054 
L 94.262688 152.290511 
L 91.393298 151.912749 
L 88.523908 152.290511 
L 85.850062 153.398054 
L 83.553979 155.159901 
L 81.792132 157.455985 
L 80.684588 160.129831 
L 80.306826 162.999221 
L 80.684588 165.868611 
L 81.792132 168.542457 
L 83.553979 170.83854 
L 85.850062 172.600387 
L 88.523908 173.707931 
L 91.393298 174.085693 
L 94.262688 173.707931 
L 96.936534 172.600387 
L 99.232618 170.83854 
L 100.994465 168.542457 
L 102.102008 165.868611 
L 102.47977 162.999221 
z
" clip-path="url(#pb415c19648)" style="fill: #e61a1a; stroke: #262626; stroke-width: 1.5"/>
    <path d="M 344.493174 162.999221 
L 344.115412 160.129831 
L 343.007868 157.455985 
L 341.246021 155.159901 
L 338.949938 153.398054 
L 336.276092 152.290511 
L 333.406702 151.912749 
L 330.537312 152.290511 
L 327.863466 153.398054 
L 325.567382 155.159901 
L 323.805535 157.455985 
L 322.697992 160.129831 
L 322.32023 162.999221 
L 322.697992 165.868611 
L 323.805535 168.542457 
L 325.567382 170.83854 
L 327.863466 172.600387 
L 330.537312 173.707931 
L 333.406702 174.085693 
L 336.276092 173.707931 
L 338.949938 172.600387 
L 341.246021 170.83854 
L 343.007868 168.542457 
L 344.115412 165.868611 
L 344.493174 162.999221 
z
" clip-path="url(#pb415c19648)" style="fill: #e61a1a; stroke: #262626; stroke-width: 1.5"/>
    <path d="M 147.915851 155.45514 
L 145.812337 154.995245 
L 143.708825 156.313891 
L 142.837524 158.638632 
L 143.70883 160.607667 
L 157.164173 171.593909 
L 159.267686 172.053803 
L 161.371197 170.735157 
L 162.242499 168.410416 
L 161.371194 166.441382 
z
" clip-path="url(#pb415c19648)" style="fill: #666666; stroke: #262626"/>
    <path d="M 175.083791 172.879377 
L 174.706029 170.009987 
L 173.598486 167.336141 
L 171.836639 165.040057 
L 169.540555 163.27821 
L 166.866709 162.170667 
L 163.997319 161.792905 
L 161.127929 162.170667 
L 158.454083 163.27821 
L 156.158 165.040057 
L 154.396153 167.336141 
L 153.288609 170.009987 
L 152.910847 172.879377 
L 153.288609 175.748767 
L 154.396153 178.422613 
L 156.158 180.718696 
L 158.454083 182.480543 
L 161.127929 183.588086 
L 163.997319 183.965849 
L 166.866709 183.588086 
L 169.540555 182.480543 
L 171.836639 180.718696 
L 173.598486 178.422613 
L 174.706029 175.748767 
L 175.083791 172.879377 
z
" clip-path="url(#pb415c19648)" style="fill: #e61a1a; stroke: #262626; stroke-width: 1.5"/>
    <path d="M 293.123951 274.017057 
L 291.020444 273.557168 
L 288.916935 274.875816 
L 288.045631 277.200555 
L 288.91693 279.169584 
L 302.37217 290.155742 
L 304.475676 290.61563 
L 306.579184 289.296982 
L 307.450489 286.972243 
L 306.579191 285.003215 
z
" clip-path="url(#pb415c19648)" style="fill: #666666; stroke: #262626"/>
    <path d="M 320.291834 291.441247 
L 319.914071 288.571857 
L 318.806528 285.898011 
L 317.044681 283.601927 
L 314.748598 281.84008 
L 312.074752 280.732537 
L 309.205361 280.354775 
L 306.335971 280.732537 
L 303.662125 281.84008 
L 301.366042 283.601927 
L 299.604195 285.898011 
L 298.496652 288.571857 
L 298.118889 291.441247 
L 298.496652 294.310637 
L 299.604195 296.984483 
L 301.366042 299.280566 
L 303.662125 301.042413 
L 306.335971 302.149956 
L 309.205361 302.527719 
L 312.074752 302.149956 
L 314.748598 301.042413 
L 317.044681 299.280566 
L 318.806528 296.984483 
L 319.914071 294.310637 
L 320.291834 291.441247 
z
" clip-path="url(#pb415c19648)" style="fill: #e61a1a; stroke: #262626; stroke-width: 1.5"/>
    <path d="M 280.204007 350.722182 
L 279.542923 345.700749 
L 277.604722 341.021519 
L 274.52149 337.003372 
L 270.503344 333.92014 
L 265.824113 331.98194 
L 260.802681 331.320855 
L 255.781248 331.98194 
L 251.102018 333.92014 
L 247.083871 337.003372 
L 244.000639 341.021519 
L 242.062439 345.700749 
L 241.401354 350.722182 
L 242.062439 355.743614 
L 244.000639 360.422845 
L 247.083871 364.440991 
L 251.102018 367.524223 
L 255.781248 369.462424 
L 260.802681 370.123508 
L 265.824113 369.462424 
L 270.503344 367.524223 
L 274.52149 364.440991 
L 277.604722 360.422845 
L 279.542923 355.743614 
L 280.204007 350.722182 
z
" clip-path="url(#pb415c19648)" style="fill: #00cc33; stroke: #262626; stroke-width: 1.5"/>
    <path d="M 377.009368 232.160312 
L 376.348284 227.138879 
L 374.410084 222.459649 
L 371.326852 218.441502 
L 367.308705 215.35827 
L 362.629475 213.42007 
L 357.608042 212.758985 
L 352.586609 213.42007 
L 347.907379 215.35827 
L 343.889233 218.441502 
L 340.806001 222.459649 
L 338.8678 227.138879 
L 338.206716 232.160312 
L 338.8678 237.181744 
L 340.806001 241.860975 
L 343.889233 245.879121 
L 347.907379 248.962353 
L 352.586609 250.900554 
L 357.608042 251.561638 
L 362.629475 250.900554 
L 367.308705 248.962353 
L 371.326852 245.879121 
L 374.410084 241.860975 
L 376.348284 237.181744 
L 377.009368 232.160312 
z
" clip-path="url(#pb415c19648)" style="fill: #00cc33; stroke: #262626; stroke-width: 1.5"/>
    <path d="M 134.995965 232.160312 
L 134.334881 227.138879 
L 132.39668 222.459649 
L 129.313448 218.441502 
L 125.295302 215.35827 
L 120.616071 213.42007 
L 115.594639 212.758985 
L 110.573206 213.42007 
L 105.893975 215.35827 
L 101.875829 218.441502 
L 98.792597 222.459649 
L 96.854396 227.138879 
L 96.193312 232.160312 
L 96.854396 237.181744 
L 98.792597 241.860975 
L 101.875829 245.879121 
L 105.893975 248.962353 
L 110.573206 250.900554 
L 115.594639 251.561638 
L 120.616071 250.900554 
L 125.295302 248.962353 
L 129.313448 245.879121 
L 132.39668 241.860975 
L 134.334881 237.181744 
L 134.995965 232.160312 
z
" clip-path="url(#pb415c19648)" style="fill: #00cc33; stroke: #262626; stroke-width: 1.5"/>
    <path d="M 180.078749 289.10514 
L 182.182258 289.565031 
L 184.285768 288.246384 
L 185.157071 285.921644 
L 184.28577 283.952613 
L 170.83048 272.966415 
L 168.72697 272.506523 
L 166.62346 273.82517 
L 165.752157 276.14991 
L 166.62346 278.118942 
z
" clip-path="url(#pb415c19648)" style="fill: #666666; stroke: #262626"/>
    <path d="M 199.56626 285.72632 
L 198.820374 286.872807 
L 198.901076 289.256625 
L 199.761092 291.481367 
L 200.896637 292.243808 
L 227.807229 286.750706 
L 228.553119 285.604219 
L 228.472418 283.2204 
L 227.6124 280.995659 
L 226.476852 280.233218 
z
" clip-path="url(#pb415c19648)" style="fill: #666666; stroke: #262626"/>
    <path d="M 191.524601 303.722137 
L 190.550456 302.762014 
L 188.19866 302.364318 
L 185.846864 302.762014 
L 184.872718 303.722137 
L 184.872718 331.187687 
L 185.846864 332.147813 
L 188.19866 332.545511 
L 190.550456 332.147813 
L 191.524601 331.187687 
z
" clip-path="url(#pb415c19648)" style="fill: #666666; stroke: #262626"/>
    <path d="M 202.05675 291.441247 
L 201.584547 287.854509 
L 200.200118 284.512202 
L 197.997809 281.642097 
L 195.127705 279.439789 
L 191.785397 278.055359 
L 188.19866 277.583156 
L 184.611922 278.055359 
L 181.269615 279.439789 
L 178.39951 281.642097 
L 176.197201 284.512202 
L 174.812772 287.854509 
L 174.340569 291.441247 
L 174.812772 295.027984 
L 176.197201 298.370292 
L 178.39951 301.240396 
L 181.269615 303.442705 
L 184.611922 304.827134 
L 188.19866 305.299337 
L 191.785397 304.827134 
L 195.127705 303.442705 
L 197.997809 301.240396 
L 200.200118 298.370292 
L 201.584547 295.027984 
L 202.05675 291.441247 
z
" clip-path="url(#pb415c19648)" style="fill: #3366e6; stroke: #262626; stroke-width: 1.5"/>
    <path d="M 231.801326 113.598442 
L 231.140242 108.577009 
L 229.202041 103.897779 
L 226.118809 99.879632 
L 222.100663 96.7964 
L 217.421433 94.8582 
L 212.4 94.197115 
L 207.378567 94.8582 
L 202.699337 96.7964 
L 198.681191 99.879632 
L 195.597959 103.897779 
L 193.659758 108.577009 
L 192.998674 113.598442 
L 193.659758 118.619874 
L 195.597959 123.299105 
L 198.681191 127.317251 
L 202.699337 130.400483 
L 207.378567 132.338684 
L 212.4 132.999768 
L 217.421433 132.338684 
L 222.100663 130.400483 
L 226.118809 127.317251 
L 229.202041 123.299105 
L 231.140242 118.619874 
L 231.801326 113.598442 
z
" clip-path="url(#pb415c19648)" style="fill: #00cc33; stroke: #262626; stroke-width: 1.5"/>
    <path d="M 276.884111 170.54327 
L 278.98762 171.003161 
L 281.091129 169.684514 
L 281.962432 167.359774 
L 281.091131 165.390743 
L 267.635842 154.404545 
L 265.532331 153.944653 
L 263.428821 155.2633 
L 262.557519 157.58804 
L 263.428821 159.557072 
z
" clip-path="url(#pb415c19648)" style="fill: #666666; stroke: #262626"/>
    <path d="M 288.329963 185.16029 
L 287.355817 184.200177 
L 285.004021 183.802485 
L 282.652225 184.200177 
L 281.678079 185.16029 
L 281.678079 212.625798 
L 282.652225 213.585916 
L 285.004021 213.983609 
L 287.355817 213.585916 
L 288.329963 212.625798 
z
" clip-path="url(#pb415c19648)" style="fill: #666666; stroke: #262626"/>
    <path d="M 296.371599 167.164455 
L 295.625703 168.310943 
L 295.706402 170.694762 
L 296.566422 172.919503 
L 297.701975 173.681943 
L 324.612608 168.188833 
L 325.358507 167.042343 
L 325.277811 164.658524 
L 324.417789 162.433783 
L 323.282232 161.671345 
z
" clip-path="url(#pb415c19648)" style="fill: #666666; stroke: #262626"/>
    <path d="M 298.862111 172.879377 
L 298.389908 169.292639 
L 297.005479 165.950332 
L 294.803171 163.080227 
L 291.933066 160.877919 
L 288.590759 159.493489 
L 285.004021 159.021286 
L 281.417283 159.493489 
L 278.074976 160.877919 
L 275.204872 163.080227 
L 273.002563 165.950332 
L 271.618134 169.292639 
L 271.145931 172.879377 
L 271.618134 176.466114 
L 273.002563 179.808422 
L 275.204872 182.678526 
L 278.074976 184.880835 
L 281.417283 186.265264 
L 285.004021 186.737467 
L 288.590759 186.265264 
L 291.933066 184.880835 
L 294.803171 182.678526 
L 297.005479 179.808422 
L 298.389908 176.466114 
L 298.862111 172.879377 
z
" clip-path="url(#pb415c19648)" style="fill: #3366e6; stroke: #262626; stroke-width: 1.5"/>
    <path d="M 184.872718 279.160357 
L 185.846864 280.120479 
L 188.19866 280.518175 
L 190.550456 280.120479 
L 191.524601 279.160357 
L 191.524601 251.694822 
L 190.550456 250.734703 
L 188.19866 250.337009 
L 185.846864 250.734703 
L 184.872718 251.694822 
z
" clip-path="url(#pb415c19648)" style="fill: #666666; stroke: #262626"/>
    <path d="M 199.285132 242.040467 
L 198.907369 239.171077 
L 197.799826 236.497231 
L 196.037979 234.201148 
L 193.741896 232.439301 
L 191.06805 231.331758 
L 188.19866 230.953995 
L 185.329269 231.331758 
L 182.655424 232.439301 
L 180.35934 234.201148 
L 178.597493 236.497231 
L 177.48995 239.171077 
L 177.112187 242.040467 
L 177.48995 244.909858 
L 178.597493 247.583704 
L 180.35934 249.879787 
L 182.655424 251.641634 
L 185.329269 252.749177 
L 188.19866 253.12694 
L 191.06805 252.749177 
L 193.741896 251.641634 
L 196.037979 249.879787 
L 197.799826 247.583704 
L 198.907369 244.909858 
L 199.285132 242.040467 
z
" clip-path="url(#pb415c19648)" style="fill: #e61a1a; stroke: #262626; stroke-width: 1.5"/>
    <path d="M 281.678079 160.598463 
L 282.652225 161.558577 
L 285.004021 161.956269 
L 287.355817 161.558577 
L 288.329963 160.598463 
L 288.329963 133.13297 
L 287.355817 132.172861 
L 285.004021 131.77517 
L 282.652225 132.172861 
L 281.678079 133.13297 
z
" clip-path="url(#pb415c19648)" style="fill: #666666; stroke: #262626"/>
    <path d="M 296.090493 123.478598 
L 295.712731 120.609207 
L 294.605188 117.935361 
L 292.843341 115.639278 
L 290.547257 113.877431 
L 287.873411 112.769888 
L 285.004021 112.392125 
L 282.134631 112.769888 
L 279.460785 113.877431 
L 277.164701 115.639278 
L 275.402855 117.935361 
L 274.295311 120.609207 
L 273.917549 123.478598 
L 274.295311 126.347988 
L 275.402855 129.021834 
L 277.164701 131.317917 
L 279.460785 133.079764 
L 282.134631 134.187307 
L 285.004021 134.56507 
L 287.873411 134.187307 
L 290.547257 133.079764 
L 292.843341 131.317917 
L 294.605188 129.021834 
L 295.712731 126.347988 
L 296.090493 123.478598 
z
" clip-path="url(#pb415c19648)" style="fill: #e61a1a; stroke: #262626; stroke-width: 1.5"/>
    <path d="M 176.831059 297.156173 
L 177.576945 296.009687 
L 177.496243 293.625868 
L 176.636227 291.401127 
L 175.500683 290.638685 
L 148.590105 296.131784 
L 147.844223 297.27827 
L 147.924927 299.662088 
L 148.784941 301.88683 
L 149.920482 302.649272 
z
" clip-path="url(#pb415c19648)" style="fill: #666666; stroke: #262626"/>
    <path d="M 150.882451 301.321402 
L 150.504689 298.452012 
L 149.397145 295.778166 
L 147.635299 293.482083 
L 145.339215 291.720236 
L 142.665369 290.612693 
L 139.795979 290.23493 
L 136.926589 290.612693 
L 134.252743 291.720236 
L 131.956659 293.482083 
L 130.194812 295.778166 
L 129.087269 298.452012 
L 128.709507 301.321402 
L 129.087269 304.190793 
L 130.194812 306.864639 
L 131.956659 309.160722 
L 134.252743 310.922569 
L 136.926589 312.030112 
L 139.795979 312.407875 
L 142.665369 312.030112 
L 145.339215 310.922569 
L 147.635299 309.160722 
L 149.397145 306.864639 
L 150.504689 304.190793 
L 150.882451 301.321402 
z
" clip-path="url(#pb415c19648)" style="fill: #e61a1a; stroke: #262626; stroke-width: 1.5"/>
    <path d="M 273.636444 178.594299 
L 274.382339 177.44781 
L 274.301641 175.063991 
L 273.441621 172.83925 
L 272.306067 172.076811 
L 245.395449 177.569918 
L 244.649557 178.716405 
L 244.730257 181.100224 
L 245.590276 183.324965 
L 246.725826 184.087406 
z
" clip-path="url(#pb415c19648)" style="fill: #666666; stroke: #262626"/>
    <path d="M 247.687813 182.759533 
L 247.31005 179.890142 
L 246.202507 177.216296 
L 244.44066 174.920213 
L 242.144576 173.158366 
L 239.470731 172.050823 
L 236.60134 171.67306 
L 233.73195 172.050823 
L 231.058104 173.158366 
L 228.762021 174.920213 
L 227.000174 177.216296 
L 225.892631 179.890142 
L 225.514868 182.759533 
L 225.892631 185.628923 
L 227.000174 188.302769 
L 228.762021 190.598852 
L 231.058104 192.360699 
L 233.73195 193.468242 
L 236.60134 193.846005 
L 239.470731 193.468242 
L 242.144576 192.360699 
L 244.44066 190.598852 
L 246.202507 188.302769 
L 247.31005 185.628923 
L 247.687813 182.759533 
z
" clip-path="url(#pb415c19648)" style="fill: #e61a1a; stroke: #262626; stroke-width: 1.5"/>
    <path d="M 280.204007 251.920623 
L 279.542923 246.899191 
L 277.604722 242.21996 
L 274.52149 238.201814 
L 270.503344 235.118582 
L 265.824113 233.180381 
L 260.802681 232.519297 
L 255.781248 233.180381 
L 251.102018 235.118582 
L 247.083871 238.201814 
L 244.000639 242.21996 
L 242.062439 246.899191 
L 241.401354 251.920623 
L 242.062439 256.942056 
L 244.000639 261.621286 
L 247.083871 265.639433 
L 251.102018 268.722665 
L 255.781248 270.660865 
L 260.802681 271.32195 
L 265.824113 270.660865 
L 270.503344 268.722665 
L 274.52149 265.639433 
L 277.604722 261.621286 
L 279.542923 256.942056 
L 280.204007 251.920623 
z
" clip-path="url(#pb415c19648)" style="fill: #00cc33; stroke: #262626; stroke-width: 1.5"/>
    <path d="M 377.009368 133.358753 
L 376.348284 128.337321 
L 374.410084 123.65809 
L 371.326852 119.639944 
L 367.308705 116.556712 
L 362.629475 114.618511 
L 357.608042 113.957427 
L 352.586609 114.618511 
L 347.907379 116.556712 
L 343.889233 119.639944 
L 340.806001 123.65809 
L 338.8678 128.337321 
L 338.206716 133.358753 
L 338.8678 138.380186 
L 340.806001 143.059416 
L 343.889233 147.077563 
L 347.907379 150.160795 
L 352.586609 152.098995 
L 357.608042 152.76008 
L 362.629475 152.098995 
L 367.308705 150.160795 
L 371.326852 147.077563 
L 374.410084 143.059416 
L 376.348284 138.380186 
L 377.009368 133.358753 
z
" clip-path="url(#pb415c19648)" style="fill: #00cc33; stroke: #262626; stroke-width: 1.5"/>
    <path d="M 183.398646 370.482493 
L 182.737561 365.461061 
L 180.799361 360.78183 
L 177.716129 356.763684 
L 173.697982 353.680452 
L 169.018752 351.742251 
L 163.997319 351.081167 
L 158.975887 351.742251 
L 154.296656 353.680452 
L 150.27851 356.763684 
L 147.195278 360.78183 
L 145.257077 365.461061 
L 144.595993 370.482493 
L 145.257077 375.503926 
L 147.195278 380.183156 
L 150.27851 384.201303 
L 154.296656 387.284535 
L 158.975887 389.222735 
L 163.997319 389.88382 
L 169.018752 389.222735 
L 173.697982 387.284535 
L 177.716129 384.201303 
L 180.799361 380.183156 
L 182.737561 375.503926 
L 183.398646 370.482493 
z
" clip-path="url(#pb415c19648)" style="fill: #00cc33; stroke: #262626; stroke-width: 1.5"/>
    <path d="M 196.31857 293.777353 
L 194.215061 293.317462 
L 192.111551 294.636109 
L 191.240248 296.960849 
L 192.11155 298.92988 
L 205.566824 309.916066 
L 207.670332 310.375956 
L 209.773841 309.057309 
L 210.645145 306.732569 
L 209.773844 304.763539 
z
" clip-path="url(#pb415c19648)" style="fill: #666666; stroke: #262626"/>
    <path d="M 223.486472 311.201558 
L 223.10871 308.332168 
L 222.001167 305.658322 
L 220.23932 303.362239 
L 217.943236 301.600392 
L 215.26939 300.492849 
L 212.4 300.115086 
L 209.53061 300.492849 
L 206.856764 301.600392 
L 204.56068 303.362239 
L 202.798833 305.658322 
L 201.69129 308.332168 
L 201.313528 311.201558 
L 201.69129 314.070948 
L 202.798833 316.744794 
L 204.56068 319.040878 
L 206.856764 320.802725 
L 209.53061 321.910268 
L 212.4 322.28803 
L 215.26939 321.910268 
L 217.943236 320.802725 
L 220.23932 319.040878 
L 222.001167 316.744794 
L 223.10871 314.070948 
L 223.486472 311.201558 
z
" clip-path="url(#pb415c19648)" style="fill: #e61a1a; stroke: #262626; stroke-width: 1.5"/>
    <path d="M 293.123931 175.215483 
L 291.020422 174.755592 
L 288.916913 176.074239 
L 288.04561 178.398979 
L 288.916911 180.36801 
L 302.372186 191.354196 
L 304.475693 191.814086 
L 306.579203 190.495439 
L 307.450506 188.170699 
L 306.579206 186.201669 
z
" clip-path="url(#pb415c19648)" style="fill: #666666; stroke: #262626"/>
    <path d="M 320.291834 192.639688 
L 319.914071 189.770298 
L 318.806528 187.096452 
L 317.044681 184.800369 
L 314.748598 183.038522 
L 312.074752 181.930979 
L 309.205361 181.553216 
L 306.335971 181.930979 
L 303.662125 183.038522 
L 301.366042 184.800369 
L 299.604195 187.096452 
L 298.496652 189.770298 
L 298.118889 192.639688 
L 298.496652 195.509078 
L 299.604195 198.182924 
L 301.366042 200.479008 
L 303.662125 202.240855 
L 306.335971 203.348398 
L 309.205361 203.72616 
L 312.074752 203.348398 
L 314.748598 202.240855 
L 317.044681 200.479008 
L 318.806528 198.182924 
L 319.914071 195.509078 
L 320.291834 192.639688 
z
" clip-path="url(#pb415c19648)" style="fill: #e61a1a; stroke: #262626; stroke-width: 1.5"/>
    <path d="M 180.078768 190.303597 
L 182.18228 190.76349 
L 184.285791 189.444844 
L 185.157093 187.120104 
L 184.285789 185.151071 
L 170.830465 174.164845 
L 168.726952 173.704951 
L 166.623441 175.023596 
L 165.75214 177.348337 
L 166.623445 179.317371 
z
" clip-path="url(#pb415c19648)" style="fill: #666666; stroke: #262626"/>
    <path d="M 199.566256 186.924762 
L 198.820369 188.071249 
L 198.90107 190.455068 
L 199.761087 192.679809 
L 200.896633 193.44225 
L 227.807232 187.949147 
L 228.553123 186.80266 
L 228.472423 184.418841 
L 227.612405 182.1941 
L 226.476855 181.431659 
z
" clip-path="url(#pb415c19648)" style="fill: #666666; stroke: #262626"/>
    <path d="M 191.524601 204.920598 
L 190.550456 203.960483 
L 188.19866 203.56279 
L 185.846864 203.960483 
L 184.872718 204.920598 
L 184.872718 232.386113 
L 185.846864 233.346232 
L 188.19866 233.743926 
L 190.550456 233.346232 
L 191.524601 232.386113 
z
" clip-path="url(#pb415c19648)" style="fill: #666666; stroke: #262626"/>
    <path d="M 202.05675 192.639688 
L 201.584547 189.052951 
L 200.200118 185.710643 
L 197.997809 182.840539 
L 195.127705 180.63823 
L 191.785397 179.253801 
L 188.19866 178.781598 
L 184.611922 179.253801 
L 181.269615 180.63823 
L 178.39951 182.840539 
L 176.197201 185.710643 
L 174.812772 189.052951 
L 174.340569 192.639688 
L 174.812772 196.226426 
L 176.197201 199.568733 
L 178.39951 202.438838 
L 181.269615 204.641146 
L 184.611922 206.025576 
L 188.19866 206.497779 
L 191.785397 206.025576 
L 195.127705 204.641146 
L 197.997809 202.438838 
L 200.200118 199.568733 
L 201.584547 196.226426 
L 202.05675 192.639688 
z
" clip-path="url(#pb415c19648)" style="fill: #3366e6; stroke: #262626; stroke-width: 1.5"/>
    <path d="M 134.995965 133.358753 
L 134.334881 128.337321 
L 132.39668 123.65809 
L 129.313448 119.639944 
L 125.295302 116.556712 
L 120.616071 114.618511 
L 115.594639 113.957427 
L 110.573206 114.618511 
L 105.893975 116.556712 
L 101.875829 119.639944 
L 98.792597 123.65809 
L 96.854396 128.337321 
L 96.193312 133.358753 
L 96.854396 138.380186 
L 98.792597 143.059416 
L 101.875829 147.077563 
L 105.893975 150.160795 
L 110.573206 152.098995 
L 115.594639 152.76008 
L 120.616071 152.098995 
L 125.295302 150.160795 
L 129.313448 147.077563 
L 132.39668 143.059416 
L 134.334881 138.380186 
L 134.995965 133.358753 
z
" clip-path="url(#pb415c19648)" style="fill: #00cc33; stroke: #262626; stroke-width: 1.5"/>
    <path d="M 184.872718 180.358779 
L 185.846864 181.318894 
L 188.19866 181.716586 
L 190.550456 181.318894 
L 191.524601 180.358779 
L 191.524601 152.893279 
L 190.550456 151.933168 
L 188.19866 151.535477 
L 185.846864 151.933168 
L 184.872718 152.893279 
z
" clip-path="url(#pb415c19648)" style="fill: #666666; stroke: #262626"/>
    <path d="M 199.285132 143.238909 
L 198.907369 140.369519 
L 197.799826 137.695673 
L 196.037979 135.39959 
L 193.741896 133.637743 
L 191.06805 132.530199 
L 188.19866 132.152437 
L 185.329269 132.530199 
L 182.655424 133.637743 
L 180.35934 135.39959 
L 178.597493 137.695673 
L 177.48995 140.369519 
L 177.112187 143.238909 
L 177.48995 146.108299 
L 178.597493 148.782145 
L 180.35934 151.078229 
L 182.655424 152.840076 
L 185.329269 153.947619 
L 188.19866 154.325381 
L 191.06805 153.947619 
L 193.741896 152.840076 
L 196.037979 151.078229 
L 197.799826 148.782145 
L 198.907369 146.108299 
L 199.285132 143.238909 
z
" clip-path="url(#pb415c19648)" style="fill: #e61a1a; stroke: #262626; stroke-width: 1.5"/>
    <path d="M 176.831063 198.354614 
L 177.576951 197.208127 
L 177.496249 194.824309 
L 176.636232 192.599567 
L 175.500686 191.837126 
L 148.590102 197.330226 
L 147.844218 198.476713 
L 147.924922 200.860531 
L 148.784937 203.085272 
L 149.920479 203.847714 
z
" clip-path="url(#pb415c19648)" style="fill: #666666; stroke: #262626"/>
    <path d="M 150.882451 202.519844 
L 150.504689 199.650454 
L 149.397145 196.976608 
L 147.635299 194.680525 
L 145.339215 192.918678 
L 142.665369 191.811134 
L 139.795979 191.433372 
L 136.926589 191.811134 
L 134.252743 192.918678 
L 131.956659 194.680525 
L 130.194812 196.976608 
L 129.087269 199.650454 
L 128.709507 202.519844 
L 129.087269 205.389234 
L 130.194812 208.06308 
L 131.956659 210.359164 
L 134.252743 212.121011 
L 136.926589 213.228554 
L 139.795979 213.606316 
L 142.665369 213.228554 
L 145.339215 212.121011 
L 147.635299 210.359164 
L 149.397145 208.06308 
L 150.504689 205.389234 
L 150.882451 202.519844 
z
" clip-path="url(#pb415c19648)" style="fill: #e61a1a; stroke: #262626; stroke-width: 1.5"/>
    <path d="M 280.204007 153.119065 
L 279.542923 148.097632 
L 277.604722 143.418402 
L 274.52149 139.400256 
L 270.503344 136.317024 
L 265.824113 134.378823 
L 260.802681 133.717739 
L 255.781248 134.378823 
L 251.102018 136.317024 
L 247.083871 139.400256 
L 244.000639 143.418402 
L 242.062439 148.097632 
L 241.401354 153.119065 
L 242.062439 158.140498 
L 244.000639 162.819728 
L 247.083871 166.837874 
L 251.102018 169.921106 
L 255.781248 171.859307 
L 260.802681 172.520391 
L 265.824113 171.859307 
L 270.503344 169.921106 
L 274.52149 166.837874 
L 277.604722 162.819728 
L 279.542923 158.140498 
L 280.204007 153.119065 
z
" clip-path="url(#pb415c19648)" style="fill: #00cc33; stroke: #262626; stroke-width: 1.5"/>
    <path d="M 196.318551 194.975779 
L 194.215039 194.515886 
L 192.111529 195.834533 
L 191.240227 198.159273 
L 192.11153 200.128306 
L 205.566839 211.11452 
L 207.670349 211.574412 
L 209.77386 210.255765 
L 210.645162 207.931025 
L 209.77386 205.961993 
z
" clip-path="url(#pb415c19648)" style="fill: #666666; stroke: #262626"/>
    <path d="M 223.486472 212.4 
L 223.10871 209.53061 
L 222.001167 206.856764 
L 220.23932 204.56068 
L 217.943236 202.798833 
L 215.26939 201.69129 
L 212.4 201.313528 
L 209.53061 201.69129 
L 206.856764 202.798833 
L 204.56068 204.56068 
L 202.798833 206.856764 
L 201.69129 209.53061 
L 201.313528 212.4 
L 201.69129 215.26939 
L 202.798833 217.943236 
L 204.56068 220.23932 
L 206.856764 222.001167 
L 209.53061 223.10871 
L 212.4 223.486472 
L 215.26939 223.10871 
L 217.943236 222.001167 
L 220.23932 220.23932 
L 222.001167 217.943236 
L 223.10871 215.26939 
L 223.486472 212.4 
z
" clip-path="url(#pb415c19648)" style="fill: #e61a1a; stroke: #262626; stroke-width: 1.5"/>
    <path d="M 183.398646 271.680935 
L 182.737561 266.659502 
L 180.799361 261.980272 
L 177.716129 257.962126 
L 173.697982 254.878894 
L 169.018752 252.940693 
L 163.997319 252.279609 
L 158.975887 252.940693 
L 154.296656 254.878894 
L 150.27851 257.962126 
L 147.195278 261.980272 
L 145.257077 266.659502 
L 144.595993 271.680935 
L 145.257077 276.702368 
L 147.195278 281.381598 
L 150.27851 285.399744 
L 154.296656 288.482976 
L 158.975887 290.421177 
L 163.997319 291.082261 
L 169.018752 290.421177 
L 173.697982 288.482976 
L 177.716129 285.399744 
L 180.799361 281.381598 
L 182.737561 276.702368 
L 183.398646 271.680935 
z
" clip-path="url(#pb415c19648)" style="fill: #00cc33; stroke: #262626; stroke-width: 1.5"/>
    <path d="M 183.398646 172.879377 
L 182.737561 167.857944 
L 180.799361 163.178714 
L 177.716129 159.160567 
L 173.697982 156.077335 
L 169.018752 154.139135 
L 163.997319 153.47805 
L 158.975887 154.139135 
L 154.296656 156.077335 
L 150.27851 159.160567 
L 147.195278 163.178714 
L 145.257077 167.857944 
L 144.595993 172.879377 
L 145.257077 177.900809 
L 147.195278 182.58004 
L 150.27851 186.598186 
L 154.296656 189.681418 
L 158.975887 191.619619 
L 163.997319 192.280703 
L 169.018752 191.619619 
L 173.697982 189.681418 
L 177.716129 186.598186 
L 180.799361 182.58004 
L 182.737561 177.900809 
L 183.398646 172.879377 
z
" clip-path="url(#pb415c19648)" style="fill: #00cc33; stroke: #262626; stroke-width: 1.5"/>
   </g>
  </g>
 </g>
 <defs>
  <clipPath id="pb415c19648">
   <rect x="7.2" y="7.2" width="410.4" height="410.4"/>
  </clipPath>
 </defs>
</svg>
