<?xml version="1.0" encoding="utf-8" standalone="no"?>
<!DOCTYPE svg PUBLIC "-//W3C//DTD SVG 1.1//EN"
  "http://www.w3.org/Graphics/SVG/1.1/DTD/svg11.dtd">
<svg xmlns:xlink="http://www.w3.org/1999/xlink" width="424.8pt" height="424.8pt" viewBox="0 0 424.8 424.8" xmlns="http://www.w3.org/2000/svg" version="1.1">
 <metadata>
  <rdf:RDF xmlns:dc="http://purl.org/dc/elements/1.1/" xmlns:cc="http://creativecommons.org/ns#" xmlns:rdf="http://www.w3.org/1999/02/22-rdf-syntax-ns#">
   <cc:Work>
    <dc:type rdf:resource="http://purl.org/dc/dcmitype/StillImage"/>
    <dc:date>2026-02-16T14:30:30.607013</dc:date>
    <dc:format>image/svg+xml</dc:format>
    <dc:creator>
     <cc:Agent>
      <dc:title>Matplotlib v3.10.7, https://matplotlib.org/</dc:title>
     </cc:Agent>
    </dc:creator>
   </cc:Work>
  </rdf:RDF>
 </metadata>
 <defs>
  <style type="text/css">*{stroke-linejoin: round; stroke-linecap: butt}</style>
 </defs>
 <g id="figure_1">
  <g id="patch_1">
   <path d="M 0 424.8 
L 424.8 424.8 
L 424.8 0 
L 0 0 
z
" style="fill: #ffffff"/>
  </g>
  <g id="axes_1">
   <g id="PolyCollection_1">
    <path d="M 264.858087 247.988485 
L 264.858087 212.212393 
L 265.678887 212.212393 
L 265.678887 247.988485 
z
" clip-path="url(#p30b59e1001)" style="fill: #4c4c4c"/>
    <path d="M 248.359414 265.98272 
L 212.735802 267.221123 
L 212.707285 266.400819 
L 248.330898 265.162415 
z
" clip-path="url(#p30b59e1001)" style="fill: #4c4c4c"/>
    <path d="M 264.858087 185.019164 
L 264.858087 183.867229 
L 265.678887 183.867229 
L 265.678887 185.019164 
z
" clip-path="url(#p30b59e1001)" style="fill: #4c4c4c"/>
    <path d="M 331.354096 262.686882 
L 265.268487 331.352727 
L 278.485609 276.471104 
z
" clip-path="url(#p30b59e1001)" style="fill: #4d6c9b; stroke: #4c4c4c"/>
    <path d="M 264.858087 183.867229 
L 264.858087 149.243072 
L 265.678887 149.243072 
L 265.678887 183.867229 
z
" clip-path="url(#p30b59e1001)" style="fill: #4c4c4c"/>
    <path d="M 185.658471 268.162427 
L 150.034859 269.40083 
L 150.006342 268.580526 
L 185.629955 267.342123 
z
" clip-path="url(#p30b59e1001)" style="fill: #4c4c4c"/>
    <path d="M 268.922365 267.616065 
L 270.295863 268.809756 
L 269.757439 269.429282 
L 268.383942 268.235591 
z
" clip-path="url(#p30b59e1001)" style="fill: #4c4c4c"/>
    <path d="M 265.268487 198.615778 
L 331.354096 262.686882 
L 278.485609 276.471104 
z
" clip-path="url(#p30b59e1001)" style="fill: #5d82ba; stroke: #4c4c4c"/>
    <path d="M 199.182878 267.281623 
L 265.268487 331.352727 
L 278.485609 276.471104 
z
" clip-path="url(#p30b59e1001)" style="fill: #5f84bd; stroke: #4c4c4c"/>
    <path d="M 270.295863 268.809756 
L 270.824548 269.26923 
L 270.286124 269.888756 
L 269.757439 269.429282 
z
" clip-path="url(#p30b59e1001)" style="fill: #4c4c4c"/>
    <path d="M 248.359414 133.245771 
L 212.735802 134.484175 
L 212.707285 133.66387 
L 248.330898 132.425467 
z
" clip-path="url(#p30b59e1001)" style="fill: #4c4c4c"/>
    <path d="M 270.824548 269.26923 
L 272.674945 270.877389 
L 272.136521 271.496916 
L 270.286124 269.888756 
z
" clip-path="url(#p30b59e1001)" style="fill: #4c4c4c"/>
    <path d="M 132.686869 252.583225 
L 132.686869 217.959069 
L 133.507669 217.959069 
L 133.507669 252.583225 
z
" clip-path="url(#p30b59e1001)" style="fill: #4c4c4c"/>
    <path d="M 265.268487 198.615778 
L 199.182878 267.281623 
L 278.485609 276.471104 
z
" clip-path="url(#p30b59e1001)" style="fill: #6e9adc; stroke: #4c4c4c"/>
    <path d="M 132.686869 217.959069 
L 132.686869 216.807133 
L 133.507669 216.807133 
L 133.507669 217.959069 
z
" clip-path="url(#p30b59e1001)" style="fill: #4c4c4c"/>
    <path d="M 272.674945 270.877389 
L 272.939287 271.107126 
L 272.400864 271.726653 
L 272.136521 271.496916 
z
" clip-path="url(#p30b59e1001)" style="fill: #4c4c4c"/>
    <path d="M 272.939287 271.107126 
L 273.20363 271.336863 
L 272.665206 271.95639 
L 272.400864 271.726653 
z
" clip-path="url(#p30b59e1001)" style="fill: #4c4c4c"/>
    <path d="M 265.268487 198.615778 
L 331.354096 129.949934 
L 278.485609 143.734156 
z
" clip-path="url(#p30b59e1001)" style="fill: #4d6c9b; stroke: #4c4c4c"/>
    <path d="M 273.20363 271.336863 
L 273.467972 271.5666 
L 272.929549 272.186127 
L 272.665206 271.95639 
z
" clip-path="url(#p30b59e1001)" style="fill: #4c4c4c"/>
    <path d="M 185.658471 135.425479 
L 150.034859 136.663882 
L 150.006342 135.843577 
L 185.629955 134.605174 
z
" clip-path="url(#p30b59e1001)" style="fill: #4c4c4c"/>
    <path d="M 132.686869 189.613905 
L 132.686869 153.837813 
L 133.507669 153.837813 
L 133.507669 189.613905 
z
" clip-path="url(#p30b59e1001)" style="fill: #4c4c4c"/>
    <path d="M 273.467972 271.5666 
L 275.582712 273.404496 
L 275.044288 274.024023 
L 272.929549 272.186127 
z
" clip-path="url(#p30b59e1001)" style="fill: #4c4c4c"/>
    <path d="M 268.922365 134.879116 
L 270.824548 136.532282 
L 270.286124 137.151808 
L 268.383942 135.498643 
z
" clip-path="url(#p30b59e1001)" style="fill: #4c4c4c"/>
    <path d="M 136.751147 272.210805 
L 138.124645 273.404496 
L 137.586221 274.024023 
L 136.212724 272.830332 
z
" clip-path="url(#p30b59e1001)" style="fill: #4c4c4c"/>
    <path d="M 199.182878 267.281623 
L 133.097269 335.947467 
L 146.314391 281.065844 
z
" clip-path="url(#p30b59e1001)" style="fill: #4d6c9b; stroke: #4c4c4c"/>
    <path d="M 331.354096 129.949934 
L 265.268487 65.87883 
L 278.485609 143.734156 
z
" clip-path="url(#p30b59e1001)" style="fill: #5d82ba; stroke: #4c4c4c"/>
    <path d="M 265.268487 198.615778 
L 199.182878 134.544674 
L 278.485609 143.734156 
z
" clip-path="url(#p30b59e1001)" style="fill: #5f84bd; stroke: #4c4c4c"/>
    <path d="M 133.097269 203.210519 
L 199.182878 267.281623 
L 146.314391 281.065844 
z
" clip-path="url(#p30b59e1001)" style="fill: #5d82ba; stroke: #4c4c4c"/>
    <path d="M 67.01166 271.876363 
L 133.097269 335.947467 
L 146.314391 281.065844 
z
" clip-path="url(#p30b59e1001)" style="fill: #5f84bd; stroke: #4c4c4c"/>
    <path d="M 275.582712 273.404496 
L 276.047088 273.808081 
L 275.508664 274.427607 
L 275.044288 274.024023 
z
" clip-path="url(#p30b59e1001)" style="fill: #4c4c4c"/>
    <path d="M 270.824548 136.532282 
L 273.20363 138.599915 
L 272.665206 139.219441 
L 270.286124 137.151808 
z
" clip-path="url(#p30b59e1001)" style="fill: #4c4c4c"/>
    <path d="M 138.124645 273.404496 
L 140.503727 275.47213 
L 139.965303 276.091656 
L 137.586221 274.024023 
z
" clip-path="url(#p30b59e1001)" style="fill: #4c4c4c"/>
    <path d="M 199.182878 134.544674 
L 265.268487 65.87883 
L 278.485609 143.734156 
z
" clip-path="url(#p30b59e1001)" style="fill: #6e9adc; stroke: #4c4c4c"/>
    <path d="M 133.097269 203.210519 
L 67.01166 271.876363 
L 146.314391 281.065844 
z
" clip-path="url(#p30b59e1001)" style="fill: #6e9adc; stroke: #4c4c4c"/>
    <path d="M 273.20363 138.599915 
L 273.467972 138.829652 
L 272.929549 139.449178 
L 272.665206 139.219441 
z
" clip-path="url(#p30b59e1001)" style="fill: #4c4c4c"/>
    <path d="M 140.503727 275.47213 
L 140.768069 275.701867 
L 140.229646 276.321393 
L 139.965303 276.091656 
z
" clip-path="url(#p30b59e1001)" style="fill: #4c4c4c"/>
    <path d="M 273.467972 138.829652 
L 273.996657 139.289126 
L 273.458234 139.908652 
L 272.929549 139.449178 
z
" clip-path="url(#p30b59e1001)" style="fill: #4c4c4c"/>
    <path d="M 140.768069 275.701867 
L 141.296754 276.161341 
L 140.758331 276.780867 
L 140.229646 276.321393 
z
" clip-path="url(#p30b59e1001)" style="fill: #4c4c4c"/>
    <path d="M 133.097269 203.210519 
L 199.182878 134.544674 
L 146.314391 148.328896 
z
" clip-path="url(#p30b59e1001)" style="fill: #4d6c9b; stroke: #4c4c4c"/>
    <path d="M 273.996657 139.289126 
L 276.047088 141.071132 
L 275.508664 141.690658 
L 273.458234 139.908652 
z
" clip-path="url(#p30b59e1001)" style="fill: #4c4c4c"/>
    <path d="M 141.296754 276.161341 
L 143.87587 278.402821 
L 143.337446 279.022347 
L 140.758331 276.780867 
z
" clip-path="url(#p30b59e1001)" style="fill: #4c4c4c"/>
    <path d="M 136.751147 139.473857 
L 141.296754 143.424392 
L 140.758331 144.043919 
L 136.212724 140.093383 
z
" clip-path="url(#p30b59e1001)" style="fill: #4c4c4c"/>
    <path d="M 281.462554 278.514601 
L 283.512985 280.296607 
L 282.974561 280.916134 
L 280.92413 279.134127 
z
" clip-path="url(#p30b59e1001)" style="fill: #4c4c4c"/>
    <path d="M 199.182878 134.544674 
L 133.097269 70.47357 
L 146.314391 148.328896 
z
" clip-path="url(#p30b59e1001)" style="fill: #5d82ba; stroke: #4c4c4c"/>
    <path d="M 133.097269 203.210519 
L 67.01166 139.139415 
L 146.314391 148.328896 
z
" clip-path="url(#p30b59e1001)" style="fill: #5f84bd; stroke: #4c4c4c"/>
    <path d="M 67.01166 139.139415 
L 133.097269 70.47357 
L 146.314391 148.328896 
z
" clip-path="url(#p30b59e1001)" style="fill: #6e9adc; stroke: #4c4c4c"/>
    <path d="M 141.296754 143.424392 
L 141.561096 143.654129 
L 141.022673 144.273656 
L 140.758331 144.043919 
z
" clip-path="url(#p30b59e1001)" style="fill: #4c4c4c"/>
    <path d="M 283.512985 280.296607 
L 283.777327 280.526344 
L 283.238904 281.145871 
L 282.974561 280.916134 
z
" clip-path="url(#p30b59e1001)" style="fill: #4c4c4c"/>
    <path d="M 236.561871 212.4 
L 236.469928 210.294154 
L 236.194798 208.204335 
L 235.738575 206.146448 
L 235.104732 204.136153 
L 234.298092 202.188752 
L 233.324794 200.319064 
L 232.192246 198.54132 
L 230.909067 196.869049 
L 229.485023 195.314977 
L 227.930951 193.890933 
L 226.25868 192.607754 
L 224.480936 191.475206 
L 222.611248 190.501908 
L 220.663847 189.695268 
L 218.653552 189.061425 
L 216.595665 188.605202 
L 214.505846 188.330072 
L 212.4 188.238129 
L 210.294154 188.330072 
L 208.204335 188.605202 
L 206.146448 189.061425 
L 204.136153 189.695268 
L 202.188752 190.501908 
L 200.319064 191.475206 
L 198.54132 192.607754 
L 196.869049 193.890933 
L 195.314977 195.314977 
L 193.890933 196.869049 
L 192.607754 198.54132 
L 191.475206 200.319064 
L 190.501908 202.188752 
L 189.695268 204.136153 
L 189.061425 206.146448 
L 188.605202 208.204335 
L 188.330072 210.294154 
L 188.238129 212.4 
L 188.330072 214.505846 
L 188.605202 216.595665 
L 189.061425 218.653552 
L 189.695268 220.663847 
L 190.501908 222.611248 
L 191.475206 224.480936 
L 192.607754 226.25868 
L 193.890933 227.930951 
L 195.314977 229.485023 
L 196.869049 230.909067 
L 198.54132 232.192246 
L 200.319064 233.324794 
L 202.188752 234.298092 
L 204.136153 235.104732 
L 206.146448 235.738575 
L 208.204335 236.194798 
L 210.294154 236.469928 
L 212.4 236.561871 
L 214.505846 236.469928 
L 216.595665 236.194798 
L 218.653552 235.738575 
L 220.663847 235.104732 
L 222.611248 234.298092 
L 224.480936 233.324794 
L 226.25868 232.192246 
L 227.930951 230.909067 
L 229.485023 229.485023 
L 230.909067 227.930951 
L 232.192246 226.25868 
L 233.324794 224.480936 
L 234.298092 222.611248 
L 235.104732 220.663847 
L 235.738575 218.653552 
L 236.194798 216.595665 
L 236.469928 214.505846 
L 236.561871 212.4 
z
" clip-path="url(#p30b59e1001)" style="fill: #00cc33; stroke: #262626"/>
    <path d="M 283.777327 280.526344 
L 284.041669 280.756081 
L 283.503246 281.375608 
L 283.238904 281.145871 
z
" clip-path="url(#p30b59e1001)" style="fill: #4c4c4c"/>
    <path d="M 141.561096 143.654129 
L 141.825439 143.883866 
L 141.287015 144.503393 
L 141.022673 144.273656 
z
" clip-path="url(#p30b59e1001)" style="fill: #4c4c4c"/>
    <path d="M 141.825439 143.883866 
L 143.87587 145.665873 
L 143.337446 146.285399 
L 141.287015 144.503393 
z
" clip-path="url(#p30b59e1001)" style="fill: #4c4c4c"/>
    <path d="M 284.041669 280.756081 
L 288.587276 284.706617 
L 288.048853 285.326143 
L 283.503246 281.375608 
z
" clip-path="url(#p30b59e1001)" style="fill: #4c4c4c"/>
    <path d="M 281.462554 145.777653 
L 284.041669 148.019133 
L 283.503246 148.638659 
L 280.92413 146.397179 
z
" clip-path="url(#p30b59e1001)" style="fill: #4c4c4c"/>
    <path d="M 149.291336 283.109342 
L 151.341766 284.891348 
L 150.803343 285.510874 
L 148.752912 283.728868 
z
" clip-path="url(#p30b59e1001)" style="fill: #4c4c4c"/>
    <path d="M 284.041669 148.019133 
L 284.570354 148.478607 
L 284.031931 149.098133 
L 283.503246 148.638659 
z
" clip-path="url(#p30b59e1001)" style="fill: #4c4c4c"/>
    <path d="M 151.341766 284.891348 
L 151.870451 285.350822 
L 151.332028 285.970348 
L 150.803343 285.510874 
z
" clip-path="url(#p30b59e1001)" style="fill: #4c4c4c"/>
    <path d="M 284.570354 148.478607 
L 284.834697 148.708344 
L 284.296273 149.32787 
L 284.031931 149.098133 
z
" clip-path="url(#p30b59e1001)" style="fill: #4c4c4c"/>
    <path d="M 151.870451 285.350822 
L 152.134794 285.580559 
L 151.59637 286.200085 
L 151.332028 285.970348 
z
" clip-path="url(#p30b59e1001)" style="fill: #4c4c4c"/>
    <path d="M 284.834697 148.708344 
L 287.213779 150.775977 
L 286.675355 151.395504 
L 284.296273 149.32787 
z
" clip-path="url(#p30b59e1001)" style="fill: #4c4c4c"/>
    <path d="M 152.134794 285.580559 
L 154.513876 287.648192 
L 153.975452 288.267718 
L 151.59637 286.200085 
z
" clip-path="url(#p30b59e1001)" style="fill: #4c4c4c"/>
    <path d="M 149.291336 150.372393 
L 149.755712 150.775977 
L 149.217288 151.395504 
L 148.752912 150.991919 
z
" clip-path="url(#p30b59e1001)" style="fill: #4c4c4c"/>
    <path d="M 287.213779 150.775977 
L 288.587276 151.969668 
L 288.048853 152.589195 
L 286.675355 151.395504 
z
" clip-path="url(#p30b59e1001)" style="fill: #4c4c4c"/>
    <path d="M 154.513876 287.648192 
L 156.416058 289.301357 
L 155.877635 289.920884 
L 153.975452 288.267718 
z
" clip-path="url(#p30b59e1001)" style="fill: #4c4c4c"/>
    <path d="M 149.755712 150.775977 
L 151.870451 152.613873 
L 151.332028 153.2334 
L 149.217288 151.395504 
z
" clip-path="url(#p30b59e1001)" style="fill: #4c4c4c"/>
    <path d="M 291.292331 270.962187 
L 291.292331 235.186095 
L 292.113131 235.186095 
L 292.113131 270.962187 
z
" clip-path="url(#p30b59e1001)" style="fill: #4c4c4c"/>
    <path d="M 274.793658 288.956423 
L 239.170045 290.194826 
L 239.141529 289.374521 
L 274.765141 288.136118 
z
" clip-path="url(#p30b59e1001)" style="fill: #4c4c4c"/>
    <path d="M 151.870451 152.613873 
L 152.134794 152.84361 
L 151.59637 153.463137 
L 151.332028 153.2334 
z
" clip-path="url(#p30b59e1001)" style="fill: #4c4c4c"/>
    <path d="M 152.134794 152.84361 
L 152.399136 153.073347 
L 151.860713 153.692874 
L 151.59637 153.463137 
z
" clip-path="url(#p30b59e1001)" style="fill: #4c4c4c"/>
    <path d="M 152.399136 153.073347 
L 152.663479 153.303084 
L 152.125055 153.922611 
L 151.860713 153.692874 
z
" clip-path="url(#p30b59e1001)" style="fill: #4c4c4c"/>
    <path d="M 291.292331 207.992867 
L 291.292331 206.840931 
L 292.113131 206.840931 
L 292.113131 207.992867 
z
" clip-path="url(#p30b59e1001)" style="fill: #4c4c4c"/>
    <path d="M 357.78834 285.660585 
L 291.702731 354.32643 
L 304.919853 299.444807 
z
" clip-path="url(#p30b59e1001)" style="fill: #4d6c9b; stroke: #4c4c4c"/>
    <path d="M 291.292331 206.840931 
L 291.292331 172.216775 
L 292.113131 172.216775 
L 292.113131 206.840931 
z
" clip-path="url(#p30b59e1001)" style="fill: #4c4c4c"/>
    <path d="M 152.663479 153.303084 
L 154.513876 154.911244 
L 153.975452 155.53077 
L 152.125055 153.922611 
z
" clip-path="url(#p30b59e1001)" style="fill: #4c4c4c"/>
    <path d="M 212.092715 291.13613 
L 176.469102 292.374533 
L 176.440586 291.554229 
L 212.064198 290.315825 
z
" clip-path="url(#p30b59e1001)" style="fill: #4c4c4c"/>
    <path d="M 291.702731 221.589481 
L 357.78834 285.660585 
L 304.919853 299.444807 
z
" clip-path="url(#p30b59e1001)" style="fill: #5d82ba; stroke: #4c4c4c"/>
    <path d="M 225.617122 290.255326 
L 291.702731 354.32643 
L 304.919853 299.444807 
z
" clip-path="url(#p30b59e1001)" style="fill: #5f84bd; stroke: #4c4c4c"/>
    <path d="M 154.513876 154.911244 
L 155.042561 155.370718 
L 154.504137 155.990244 
L 153.975452 155.53077 
z
" clip-path="url(#p30b59e1001)" style="fill: #4c4c4c"/>
    <path d="M 155.042561 155.370718 
L 156.416058 156.564409 
L 155.877635 157.183935 
L 154.504137 155.990244 
z
" clip-path="url(#p30b59e1001)" style="fill: #4c4c4c"/>
    <path d="M 274.793658 156.219474 
L 239.170045 157.457877 
L 239.141529 156.637573 
L 274.765141 155.39917 
z
" clip-path="url(#p30b59e1001)" style="fill: #4c4c4c"/>
    <path d="M 159.121113 275.556928 
L 159.121113 240.932771 
L 159.941913 240.932771 
L 159.941913 275.556928 
z
" clip-path="url(#p30b59e1001)" style="fill: #4c4c4c"/>
    <path d="M 291.702731 221.589481 
L 225.617122 290.255326 
L 304.919853 299.444807 
z
" clip-path="url(#p30b59e1001)" style="fill: #6e9adc; stroke: #4c4c4c"/>
    <path d="M 159.121113 240.932771 
L 159.121113 239.780836 
L 159.941913 239.780836 
L 159.941913 240.932771 
z
" clip-path="url(#p30b59e1001)" style="fill: #4c4c4c"/>
    <path d="M 291.702731 221.589481 
L 357.78834 152.923637 
L 304.919853 166.707858 
z
" clip-path="url(#p30b59e1001)" style="fill: #4d6c9b; stroke: #4c4c4c"/>
    <path d="M 212.092715 158.399181 
L 176.469102 159.637585 
L 176.440586 158.81728 
L 212.064198 157.578877 
z
" clip-path="url(#p30b59e1001)" style="fill: #4c4c4c"/>
    <path d="M 159.121113 212.587607 
L 159.121113 176.811515 
L 159.941913 176.811515 
L 159.941913 212.587607 
z
" clip-path="url(#p30b59e1001)" style="fill: #4c4c4c"/>
    <path d="M 225.617122 290.255326 
L 159.531513 358.92117 
L 172.748635 304.039547 
z
" clip-path="url(#p30b59e1001)" style="fill: #4d6c9b; stroke: #4c4c4c"/>
    <path d="M 357.78834 152.923637 
L 291.702731 88.852533 
L 304.919853 166.707858 
z
" clip-path="url(#p30b59e1001)" style="fill: #5d82ba; stroke: #4c4c4c"/>
    <path d="M 291.702731 221.589481 
L 225.617122 157.518377 
L 304.919853 166.707858 
z
" clip-path="url(#p30b59e1001)" style="fill: #5f84bd; stroke: #4c4c4c"/>
    <path d="M 159.531513 226.184222 
L 225.617122 290.255326 
L 172.748635 304.039547 
z
" clip-path="url(#p30b59e1001)" style="fill: #5d82ba; stroke: #4c4c4c"/>
    <path d="M 93.445904 294.850066 
L 159.531513 358.92117 
L 172.748635 304.039547 
z
" clip-path="url(#p30b59e1001)" style="fill: #5f84bd; stroke: #4c4c4c"/>
    <path d="M 225.617122 157.518377 
L 291.702731 88.852533 
L 304.919853 166.707858 
z
" clip-path="url(#p30b59e1001)" style="fill: #6e9adc; stroke: #4c4c4c"/>
    <path d="M 159.531513 226.184222 
L 93.445904 294.850066 
L 172.748635 304.039547 
z
" clip-path="url(#p30b59e1001)" style="fill: #6e9adc; stroke: #4c4c4c"/>
    <path d="M 159.531513 226.184222 
L 225.617122 157.518377 
L 172.748635 171.302599 
z
" clip-path="url(#p30b59e1001)" style="fill: #4d6c9b; stroke: #4c4c4c"/>
    <path d="M 225.617122 157.518377 
L 159.531513 93.447273 
L 172.748635 171.302599 
z
" clip-path="url(#p30b59e1001)" style="fill: #5d82ba; stroke: #4c4c4c"/>
    <path d="M 159.531513 226.184222 
L 93.445904 162.113118 
L 172.748635 171.302599 
z
" clip-path="url(#p30b59e1001)" style="fill: #5f84bd; stroke: #4c4c4c"/>
    <path d="M 93.445904 162.113118 
L 159.531513 93.447273 
L 172.748635 171.302599 
z
" clip-path="url(#p30b59e1001)" style="fill: #6e9adc; stroke: #4c4c4c"/>
   </g>
   <g id="line2d_1">
    <path d="M 54.396 370.404 
L 54.396 354.237887 
" clip-path="url(#p30b59e1001)" style="fill: none; stroke: #4c4c4c; stroke-width: 1.5; stroke-linecap: round"/>
   </g>
   <g id="line2d_2">
    <path d="M 54.396 370.404 
L 38.298788 370.963596 
" clip-path="url(#p30b59e1001)" style="fill: none; stroke: #4c4c4c; stroke-width: 1.5; stroke-linecap: round"/>
   </g>
   <g id="line2d_3">
    <path d="M 54.396 370.404 
L 57.615442 373.201981 
" clip-path="url(#p30b59e1001)" style="fill: none; stroke: #4c4c4c; stroke-width: 1.5; stroke-linecap: round"/>
   </g>
   <g id="text_1">
    <path d="M 50.954203 342.55485 
L 50.954203 353.265787 
L 52.229203 353.265787 
L 52.229203 352.22985 
L 52.259672 352.22985 
Q 52.468266 352.576725 52.775297 352.808756 
Q 53.084672 353.040787 53.429203 353.176725 
Q 53.773734 353.310319 54.125297 353.368912 
Q 54.479203 353.42985 54.762797 353.42985 
Q 55.648734 353.42985 56.316703 353.115787 
Q 56.984672 352.801725 57.425297 352.253287 
Q 57.868266 351.70485 58.086234 350.971256 
Q 58.304203 350.235319 58.304203 349.410319 
Q 58.304203 348.585319 58.079203 347.851725 
Q 57.854203 347.115787 57.411234 346.553287 
Q 56.968266 345.990787 56.300297 345.660319 
Q 55.634672 345.32985 54.734672 345.32985 
Q 53.923734 345.32985 53.248734 345.622819 
Q 52.573734 345.915787 52.259672 346.560319 
L 52.229203 346.560319 
L 52.229203 342.55485 
L 50.954203 342.55485 
z
M 56.954203 349.321256 
Q 56.954203 349.890787 56.832328 350.432194 
Q 56.712797 350.971256 56.443266 351.390787 
Q 56.173734 351.810319 55.730766 352.065787 
Q 55.287797 352.321256 54.629203 352.321256 
Q 53.968266 352.321256 53.501859 352.075162 
Q 53.037797 351.826725 52.744828 351.421256 
Q 52.454203 351.015787 52.318266 350.483756 
Q 52.184672 349.951725 52.184672 349.37985 
Q 52.184672 348.840787 52.311234 348.315787 
Q 52.437797 347.790787 52.723734 347.378287 
Q 53.009672 346.965787 53.459672 346.710319 
Q 53.909672 346.45485 54.554203 346.45485 
Q 55.168266 346.45485 55.625297 346.696256 
Q 56.084672 346.935319 56.375297 347.340787 
Q 56.668266 347.746256 56.811234 348.264225 
Q 56.954203 348.77985 56.954203 349.321256 
z
" style="fill: #4c4c4c; stroke: #ffffff; stroke-width: 4.5"/>
    <path d="M 50.954203 342.55485 
L 50.954203 353.265787 
L 52.229203 353.265787 
L 52.229203 352.22985 
L 52.259672 352.22985 
Q 52.468266 352.576725 52.775297 352.808756 
Q 53.084672 353.040787 53.429203 353.176725 
Q 53.773734 353.310319 54.125297 353.368912 
Q 54.479203 353.42985 54.762797 353.42985 
Q 55.648734 353.42985 56.316703 353.115787 
Q 56.984672 352.801725 57.425297 352.253287 
Q 57.868266 351.70485 58.086234 350.971256 
Q 58.304203 350.235319 58.304203 349.410319 
Q 58.304203 348.585319 58.079203 347.851725 
Q 57.854203 347.115787 57.411234 346.553287 
Q 56.968266 345.990787 56.300297 345.660319 
Q 55.634672 345.32985 54.734672 345.32985 
Q 53.923734 345.32985 53.248734 345.622819 
Q 52.573734 345.915787 52.259672 346.560319 
L 52.229203 346.560319 
L 52.229203 342.55485 
L 50.954203 342.55485 
z
M 56.954203 349.321256 
Q 56.954203 349.890787 56.832328 350.432194 
Q 56.712797 350.971256 56.443266 351.390787 
Q 56.173734 351.810319 55.730766 352.065787 
Q 55.287797 352.321256 54.629203 352.321256 
Q 53.968266 352.321256 53.501859 352.075162 
Q 53.037797 351.826725 52.744828 351.421256 
Q 52.454203 351.015787 52.318266 350.483756 
Q 52.184672 349.951725 52.184672 349.37985 
Q 52.184672 348.840787 52.311234 348.315787 
Q 52.437797 347.790787 52.723734 347.378287 
Q 53.009672 346.965787 53.459672 346.710319 
Q 53.909672 346.45485 54.554203 346.45485 
Q 55.168266 346.45485 55.625297 346.696256 
Q 56.084672 346.935319 56.375297 347.340787 
Q 56.668266 347.746256 56.811234 348.264225 
Q 56.954203 348.77985 56.954203 349.321256 
z
" style="fill: #4c4c4c"/>
   </g>
   <g id="text_2">
    <path d="M 35.66689 369.745147 
L 36.986421 369.745147 
Q 36.911421 369.053741 36.625483 368.552178 
Q 36.34189 368.048272 35.898921 367.720147 
Q 35.455952 367.389678 34.87939 367.232647 
Q 34.302827 367.073272 33.64189 367.073272 
Q 32.727827 367.073272 32.036421 367.396709 
Q 31.347358 367.720147 30.887983 368.282647 
Q 30.430952 368.845147 30.205952 369.602178 
Q 29.980952 370.359209 29.980952 371.228741 
Q 29.980952 372.098272 30.212983 372.827178 
Q 30.447358 373.553741 30.90439 374.078741 
Q 31.361421 374.603741 32.043452 374.889678 
Q 32.727827 375.173272 33.611421 375.173272 
Q 35.097358 375.173272 35.959858 374.395147 
Q 36.822358 373.614678 37.030952 372.173272 
L 35.727827 372.173272 
Q 35.605952 373.073272 35.073921 373.570147 
Q 34.54189 374.064678 33.597358 374.064678 
Q 32.997358 374.064678 32.561421 373.825616 
Q 32.127827 373.584209 31.855952 373.188116 
Q 31.586421 372.789678 31.457515 372.281084 
Q 31.330952 371.770147 31.330952 371.228741 
Q 31.330952 370.645147 31.450483 370.096709 
Q 31.572358 369.548272 31.848921 369.128741 
Q 32.127827 368.709209 32.59189 368.453741 
Q 33.055952 368.198272 33.747358 368.198272 
Q 34.555952 368.198272 35.036421 368.603741 
Q 35.51689 369.009209 35.66689 369.745147 
z
" style="fill: #4c4c4c; stroke: #ffffff; stroke-width: 4.5"/>
    <path d="M 35.66689 369.745147 
L 36.986421 369.745147 
Q 36.911421 369.053741 36.625483 368.552178 
Q 36.34189 368.048272 35.898921 367.720147 
Q 35.455952 367.389678 34.87939 367.232647 
Q 34.302827 367.073272 33.64189 367.073272 
Q 32.727827 367.073272 32.036421 367.396709 
Q 31.347358 367.720147 30.887983 368.282647 
Q 30.430952 368.845147 30.205952 369.602178 
Q 29.980952 370.359209 29.980952 371.228741 
Q 29.980952 372.098272 30.212983 372.827178 
Q 30.447358 373.553741 30.90439 374.078741 
Q 31.361421 374.603741 32.043452 374.889678 
Q 32.727827 375.173272 33.611421 375.173272 
Q 35.097358 375.173272 35.959858 374.395147 
Q 36.822358 373.614678 37.030952 372.173272 
L 35.727827 372.173272 
Q 35.605952 373.073272 35.073921 373.570147 
Q 34.54189 374.064678 33.597358 374.064678 
Q 32.997358 374.064678 32.561421 373.825616 
Q 32.127827 373.584209 31.855952 373.188116 
Q 31.586421 372.789678 31.457515 372.281084 
Q 31.330952 371.770147 31.330952 371.228741 
Q 31.330952 370.645147 31.450483 370.096709 
Q 31.572358 369.548272 31.848921 369.128741 
Q 32.127827 368.709209 32.59189 368.453741 
Q 33.055952 368.198272 33.747358 368.198272 
Q 34.555952 368.198272 35.036421 368.603741 
Q 35.51689 369.009209 35.66689 369.745147 
z
" style="fill: #4c4c4c"/>
   </g>
   <g id="text_3">
    <path d="M 62.91318 378.822 
Q 62.582711 379.016531 61.996774 379.016531 
Q 61.502243 379.016531 61.209274 378.739968 
Q 60.918649 378.463406 60.918649 377.832937 
Q 60.393649 378.463406 59.695211 378.739968 
Q 58.996774 379.016531 58.18818 379.016531 
Q 57.66318 379.016531 57.189743 378.897 
Q 56.718649 378.777468 56.371774 378.522 
Q 56.027243 378.266531 55.823336 377.854031 
Q 55.621774 377.441531 55.621774 376.857937 
Q 55.621774 376.197 55.846774 375.777468 
Q 56.071774 375.357937 56.439743 375.095437 
Q 56.807711 374.832937 57.278805 374.699343 
Q 57.752243 374.563406 58.246774 374.472 
Q 58.771774 374.366531 59.245211 374.314968 
Q 59.718649 374.263406 60.077243 374.164968 
Q 60.43818 374.066531 60.646774 373.879031 
Q 60.857711 373.691531 60.857711 373.332937 
Q 60.857711 372.913406 60.70068 372.657937 
Q 60.543649 372.402468 60.295211 372.268875 
Q 60.046774 372.132937 59.739743 372.088406 
Q 59.432711 372.041531 59.132711 372.041531 
Q 58.321774 372.041531 57.782711 372.350906 
Q 57.243649 372.657937 57.196774 373.513406 
L 55.921774 373.513406 
Q 55.952243 372.791531 56.221774 372.297 
Q 56.493649 371.802468 56.943649 371.495437 
Q 57.393649 371.188406 57.970211 371.052468 
Q 58.546774 370.916531 59.207711 370.916531 
Q 59.732711 370.916531 60.25068 370.991531 
Q 60.768649 371.066531 61.18818 371.300906 
Q 61.607711 371.532937 61.86318 371.952468 
Q 62.118649 372.372 62.118649 373.047 
L 62.118649 377.038406 
Q 62.118649 377.488406 62.170211 377.699343 
Q 62.221774 377.907937 62.521774 377.907937 
Q 62.68818 377.907937 62.91318 377.832937 
L 62.91318 378.822 
z
M 60.843649 374.847 
Q 60.602243 375.027468 60.210836 375.1095 
Q 59.821774 375.191531 59.395211 375.245437 
Q 58.968649 375.297 58.532711 375.364968 
Q 58.096774 375.432937 57.752243 375.582937 
Q 57.407711 375.732937 57.189743 376.011843 
Q 56.971774 376.288406 56.971774 376.766531 
Q 56.971774 377.082937 57.098336 377.300906 
Q 57.227243 377.516531 57.428805 377.652468 
Q 57.632711 377.788406 57.902243 377.849343 
Q 58.171774 377.907937 58.471774 377.907937 
Q 59.102243 377.907937 59.552243 377.736843 
Q 60.002243 377.563406 60.285836 377.300906 
Q 60.571774 377.038406 60.707711 376.731375 
Q 60.843649 376.422 60.843649 376.152468 
L 60.843649 374.847 
z
" style="fill: #4c4c4c; stroke: #ffffff; stroke-width: 4.5"/>
    <path d="M 62.91318 378.822 
Q 62.582711 379.016531 61.996774 379.016531 
Q 61.502243 379.016531 61.209274 378.739968 
Q 60.918649 378.463406 60.918649 377.832937 
Q 60.393649 378.463406 59.695211 378.739968 
Q 58.996774 379.016531 58.18818 379.016531 
Q 57.66318 379.016531 57.189743 378.897 
Q 56.718649 378.777468 56.371774 378.522 
Q 56.027243 378.266531 55.823336 377.854031 
Q 55.621774 377.441531 55.621774 376.857937 
Q 55.621774 376.197 55.846774 375.777468 
Q 56.071774 375.357937 56.439743 375.095437 
Q 56.807711 374.832937 57.278805 374.699343 
Q 57.752243 374.563406 58.246774 374.472 
Q 58.771774 374.366531 59.245211 374.314968 
Q 59.718649 374.263406 60.077243 374.164968 
Q 60.43818 374.066531 60.646774 373.879031 
Q 60.857711 373.691531 60.857711 373.332937 
Q 60.857711 372.913406 60.70068 372.657937 
Q 60.543649 372.402468 60.295211 372.268875 
Q 60.046774 372.132937 59.739743 372.088406 
Q 59.432711 372.041531 59.132711 372.041531 
Q 58.321774 372.041531 57.782711 372.350906 
Q 57.243649 372.657937 57.196774 373.513406 
L 55.921774 373.513406 
Q 55.952243 372.791531 56.221774 372.297 
Q 56.493649 371.802468 56.943649 371.495437 
Q 57.393649 371.188406 57.970211 371.052468 
Q 58.546774 370.916531 59.207711 370.916531 
Q 59.732711 370.916531 60.25068 370.991531 
Q 60.768649 371.066531 61.18818 371.300906 
Q 61.607711 371.532937 61.86318 371.952468 
Q 62.118649 372.372 62.118649 373.047 
L 62.118649 377.038406 
Q 62.118649 377.488406 62.170211 377.699343 
Q 62.221774 377.907937 62.521774 377.907937 
Q 62.68818 377.907937 62.91318 377.832937 
L 62.91318 378.822 
z
M 60.843649 374.847 
Q 60.602243 375.027468 60.210836 375.1095 
Q 59.821774 375.191531 59.395211 375.245437 
Q 58.968649 375.297 58.532711 375.364968 
Q 58.096774 375.432937 57.752243 375.582937 
Q 57.407711 375.732937 57.189743 376.011843 
Q 56.971774 376.288406 56.971774 376.766531 
Q 56.971774 377.082937 57.098336 377.300906 
Q 57.227243 377.516531 57.428805 377.652468 
Q 57.632711 377.788406 57.902243 377.849343 
Q 58.171774 377.907937 58.471774 377.907937 
Q 59.102243 377.907937 59.552243 377.736843 
Q 60.002243 377.563406 60.285836 377.300906 
Q 60.571774 377.038406 60.707711 376.731375 
Q 60.843649 376.422 60.843649 376.152468 
L 60.843649 374.847 
z
" style="fill: #4c4c4c"/>
   </g>
  </g>
 </g>
 <defs>
  <clipPath id="p30b59e1001">
   <rect x="7.2" y="7.2" width="410.4" height="410.4"/>
  </clipPath>
 </defs>
</svg>
