<?xml version="1.0" encoding="utf-8" standalone="no"?>
<!DOCTYPE svg PUBLIC "-//W3C//DTD SVG 1.1//EN"
  "http://www.w3.org/Graphics/SVG/1.1/DTD/svg11.dtd">
<svg xmlns:xlink="http://www.w3.org/1999/xlink" width="280.8pt" height="280.8pt" viewBox="0 0 280.8 280.8" xmlns="http://www.w3.org/2000/svg" version="1.1">
 <metadata>
  <rdf:RDF xmlns:dc="http://purl.org/dc/elements/1.1/" xmlns:cc="http://creativecommons.org/ns#" xmlns:rdf="http://www.w3.org/1999/02/22-rdf-syntax-ns#">
   <cc:Work>
    <dc:type rdf:resource="http://purl.org/dc/dcmitype/StillImage"/>
    <dc:date>2026-02-16T18:02:49.502554</dc:date>
    <dc:format>image/svg+xml</dc:format>
    <dc:creator>
     <cc:Agent>
      <dc:title>Matplotlib v3.10.7, https://matplotlib.org/</dc:title>
     </cc:Agent>
    </dc:creator>
   </cc:Work>
  </rdf:RDF>
 </metadata>
 <defs>
  <style type="text/css">*{stroke-linejoin: round; stroke-linecap: butt}</style>
 </defs>
 <g id="figure_1">
  <g id="patch_1">
   <path d="M 0 280.8 
L 280.8 280.8 
L 280.8 0 
L 0 0 
z
" style="fill: #ffffff"/>
  </g>
  <g id="axes_1">
   <g id="PolyCollection_1">
    <path d="M 207.682355 190.851239 
L 207.619345 189.408078 
L 207.430795 187.975901 
L 207.118141 186.565607 
L 206.68376 185.187929 
L 206.130961 183.853352 
L 205.463948 182.572033 
L 204.6878 181.353724 
L 203.808422 180.207697 
L 202.832508 179.142674 
L 201.767485 178.16676 
L 200.621458 177.287383 
L 199.403149 176.511234 
L 198.121831 175.844222 
L 196.787254 175.291422 
L 195.409576 174.857042 
L 193.999282 174.544387 
L 192.567104 174.355838 
L 191.123944 174.292828 
L 189.680783 174.355838 
L 188.248606 174.544387 
L 186.838312 174.857042 
L 185.460634 175.291422 
L 184.126057 175.844222 
L 182.844738 176.511234 
L 181.626429 177.287383 
L 180.480402 178.16676 
L 179.415379 179.142674 
L 178.439465 180.207697 
L 177.560088 181.353724 
L 176.783939 182.572033 
L 176.116927 183.853352 
L 175.564127 185.187929 
L 175.129747 186.565607 
L 174.817092 187.975901 
L 174.628543 189.408078 
L 174.565533 190.851239 
L 174.628543 192.294399 
L 174.817092 193.726577 
L 175.129747 195.136871 
L 175.564127 196.514549 
L 176.116927 197.849126 
L 176.783939 199.130444 
L 177.560088 200.348753 
L 178.439465 201.49478 
L 179.415379 202.559803 
L 180.480402 203.535717 
L 181.626429 204.415095 
L 182.844738 205.191243 
L 184.126057 205.858256 
L 185.460634 206.411055 
L 186.838312 206.845436 
L 188.248606 207.15809 
L 189.680783 207.34664 
L 191.123944 207.40965 
L 192.567104 207.34664 
L 193.999282 207.15809 
L 195.409576 206.845436 
L 196.787254 206.411055 
L 198.121831 205.858256 
L 199.403149 205.191243 
L 200.621458 204.415095 
L 201.767485 203.535717 
L 202.832508 202.559803 
L 203.808422 201.49478 
L 204.6878 200.348753 
L 205.463948 199.130444 
L 206.130961 197.849126 
L 206.68376 196.514549 
L 207.118141 195.136871 
L 207.430795 193.726577 
L 207.619345 192.294399 
L 207.682355 190.851239 
z
" clip-path="url(#p29116f1b48)" style="fill: #477b9d"/>
    <path d="M 190.857544 174.544883 
L 190.857544 140.220003 
L 191.390344 140.220003 
L 191.390344 174.544883 
z
" clip-path="url(#p29116f1b48)" style="fill: #4c4c4c"/>
    <path d="M 174.896341 191.681929 
L 140.717756 192.870098 
L 140.699245 192.337619 
L 174.877831 191.14945 
z
" clip-path="url(#p29116f1b48)" style="fill: #4c4c4c"/>
    <path d="M 187.149925 175.021475 
L 187.310901 175.216084 
L 187.780787 175.394928 
L 188.521515 175.543517 
L 189.473077 175.649813 
L 190.558382 175.705205 
L 191.689506 175.705205 
L 192.774811 175.649813 
L 193.726373 175.543517 
L 194.467101 175.394928 
L 194.936987 175.216084 
L 195.097962 175.021475 
L 195.097962 157.320306 
L 187.149925 157.320306 
z
" clip-path="url(#p29116f1b48)" style="fill: #477b9d"/>
    <path d="M 187.149925 157.320306 
L 195.097962 157.320306 
L 195.097962 139.619137 
L 194.936987 139.424529 
L 194.467101 139.245687 
L 193.726373 139.0971 
L 192.774811 138.990805 
L 191.689506 138.935414 
L 190.558382 138.935414 
L 189.473077 138.990805 
L 188.521515 139.0971 
L 187.780787 139.245687 
L 187.310901 139.424529 
L 187.149925 139.619137 
z
" clip-path="url(#p29116f1b48)" style="fill: #f03f37"/>
    <path d="M 204.370673 127.174918 
L 204.320265 126.02039 
L 204.169425 124.874648 
L 203.919301 123.746412 
L 203.571797 122.64427 
L 203.129557 121.576609 
L 202.595947 120.551554 
L 201.975029 119.576907 
L 201.271527 118.660085 
L 200.490795 117.808066 
L 199.638777 117.027335 
L 198.721955 116.323833 
L 197.747308 115.702914 
L 196.722253 115.169305 
L 195.654592 114.727065 
L 194.552449 114.379561 
L 193.424214 114.129437 
L 192.278472 113.978597 
L 191.123944 113.928189 
L 189.969415 113.978597 
L 188.823673 114.129437 
L 187.695438 114.379561 
L 186.593296 114.727065 
L 185.525634 115.169305 
L 184.500579 115.702914 
L 183.525932 116.323833 
L 182.609111 117.027335 
L 181.757092 117.808066 
L 180.976361 118.660085 
L 180.272859 119.576907 
L 179.65194 120.551554 
L 179.11833 121.576609 
L 178.67609 122.64427 
L 178.328586 123.746412 
L 178.078463 124.874648 
L 177.927623 126.02039 
L 177.877215 127.174918 
L 177.927623 128.329446 
L 178.078463 129.475188 
L 178.328586 130.603424 
L 178.67609 131.705566 
L 179.11833 132.773227 
L 179.65194 133.798282 
L 180.272859 134.772929 
L 180.976361 135.689751 
L 181.757092 136.54177 
L 182.609111 137.322501 
L 183.525932 138.026003 
L 184.500579 138.646922 
L 185.525634 139.180531 
L 186.593296 139.622771 
L 187.695438 139.970275 
L 188.823673 140.220399 
L 189.969415 140.371239 
L 191.123944 140.421647 
L 192.278472 140.371239 
L 193.424214 140.220399 
L 194.552449 139.970275 
L 195.654592 139.622771 
L 196.722253 139.180531 
L 197.747308 138.646922 
L 198.721955 138.026003 
L 199.638777 137.322501 
L 200.490795 136.54177 
L 201.271527 135.689751 
L 201.975029 134.772929 
L 202.595947 133.798282 
L 203.129557 132.773227 
L 203.571797 131.705566 
L 203.919301 130.603424 
L 204.169425 129.475188 
L 204.320265 128.329446 
L 204.370673 127.174918 
z
" clip-path="url(#p29116f1b48)" style="fill: #f03f37"/>
    <path d="M 175.499715 195.370812 
L 175.710224 195.202421 
L 175.892494 194.725915 
L 176.031758 193.979897 
L 176.116734 193.024807 
L 176.140537 191.938019 
L 176.101238 190.807578 
L 176.002023 189.725066 
L 175.850928 188.778182 
L 175.660195 188.043637 
L 175.445274 187.580939 
L 175.223579 187.427573 
L 157.597854 188.040305 
L 157.873989 195.983544 
z
" clip-path="url(#p29116f1b48)" style="fill: #477b9d"/>
    <path d="M 157.873989 195.983544 
L 157.597854 188.040305 
L 139.972128 188.653038 
L 139.76162 188.821429 
L 139.579352 189.297935 
L 139.44009 190.043952 
L 139.355115 190.999043 
L 139.331313 192.085831 
L 139.370611 193.216272 
L 139.469826 194.298783 
L 139.62092 195.245667 
L 139.811652 195.980213 
L 140.02657 196.442911 
L 140.248263 196.596277 
z
" clip-path="url(#p29116f1b48)" style="fill: #f03f37"/>
    <path d="M 140.965743 193.055419 
L 140.915335 191.900891 
L 140.764495 190.755149 
L 140.514371 189.626913 
L 140.166867 188.524771 
L 139.724627 187.45711 
L 139.191018 186.432055 
L 138.570099 185.457408 
L 137.866597 184.540586 
L 137.085866 183.688567 
L 136.233847 182.907836 
L 135.317026 182.204334 
L 134.342378 181.583415 
L 133.317324 181.049806 
L 132.249662 180.607566 
L 131.14752 180.260062 
L 130.019284 180.009938 
L 128.873543 179.859098 
L 127.719014 179.80869 
L 126.564486 179.859098 
L 125.418744 180.009938 
L 124.290508 180.260062 
L 123.188366 180.607566 
L 122.120705 181.049806 
L 121.09565 181.583415 
L 120.121003 182.204334 
L 119.204181 182.907836 
L 118.352162 183.688567 
L 117.571431 184.540586 
L 116.867929 185.457408 
L 116.24701 186.432055 
L 115.713401 187.45711 
L 115.271161 188.524771 
L 114.923657 189.626913 
L 114.673533 190.755149 
L 114.522693 191.900891 
L 114.472285 193.055419 
L 114.522693 194.209948 
L 114.673533 195.355689 
L 114.923657 196.483925 
L 115.271161 197.586067 
L 115.713401 198.653729 
L 116.24701 199.678783 
L 116.867929 200.653431 
L 117.571431 201.570252 
L 118.352162 202.422271 
L 119.204181 203.203002 
L 120.121003 203.906504 
L 121.09565 204.527423 
L 122.120705 205.061033 
L 123.188366 205.503272 
L 124.290508 205.850777 
L 125.418744 206.1009 
L 126.564486 206.25174 
L 127.719014 206.302148 
L 128.873543 206.25174 
L 130.019284 206.1009 
L 131.14752 205.850777 
L 132.249662 205.503272 
L 133.317324 205.061033 
L 134.342378 204.527423 
L 135.317026 203.906504 
L 136.233847 203.203002 
L 137.085866 202.422271 
L 137.866597 201.570252 
L 138.570099 200.653431 
L 139.191018 199.678783 
L 139.724627 198.653729 
L 140.166867 197.586067 
L 140.514371 196.483925 
L 140.764495 195.355689 
L 140.915335 194.209948 
L 140.965743 193.055419 
z
" clip-path="url(#p29116f1b48)" style="fill: #f03f37"/>
    <path d="M 190.857544 114.129833 
L 190.857544 79.804953 
L 191.390344 79.804953 
L 191.390344 114.129833 
z
" clip-path="url(#p29116f1b48)" style="fill: #4c4c4c"/>
    <path d="M 114.738783 193.773219 
L 80.560198 194.961388 
L 80.541687 194.428909 
L 114.720272 193.240741 
z
" clip-path="url(#p29116f1b48)" style="fill: #4c4c4c"/>
    <path d="M 194.546067 193.472418 
L 195.86385 194.617689 
L 195.514347 195.019838 
L 194.196564 193.874567 
z
" clip-path="url(#p29116f1b48)" style="fill: #4c4c4c"/>
    <path d="M 187.149925 114.730699 
L 187.310901 114.925307 
L 187.780787 115.104149 
L 188.521515 115.252736 
L 189.473077 115.359031 
L 190.558382 115.414422 
L 191.689506 115.414422 
L 192.774811 115.359031 
L 193.726373 115.252736 
L 194.467101 115.104149 
L 194.936987 114.925307 
L 195.097962 114.730699 
L 195.097962 97.029536 
L 187.149925 97.029536 
z
" clip-path="url(#p29116f1b48)" style="fill: #f03f37"/>
    <path d="M 187.149925 97.029536 
L 195.097962 97.029536 
L 195.097962 79.328372 
L 194.936987 79.133767 
L 194.467101 78.954927 
L 193.726373 78.806341 
L 192.774811 78.700048 
L 191.689506 78.644657 
L 190.558382 78.644657 
L 189.473077 78.700048 
L 188.521515 78.806341 
L 187.780787 78.954927 
L 187.310901 79.133767 
L 187.149925 79.328372 
z
" clip-path="url(#p29116f1b48)" style="fill: #477b9d"/>
    <path d="M 207.682355 63.498597 
L 207.619345 62.055437 
L 207.430795 60.623259 
L 207.118141 59.212965 
L 206.68376 57.835287 
L 206.130961 56.50071 
L 205.463948 55.219392 
L 204.6878 54.001083 
L 203.808422 52.855056 
L 202.832508 51.790033 
L 201.767485 50.814119 
L 200.621458 49.934741 
L 199.403149 49.158593 
L 198.121831 48.49158 
L 196.787254 47.938781 
L 195.409576 47.5044 
L 193.999282 47.191746 
L 192.567104 47.003196 
L 191.123944 46.940186 
L 189.680783 47.003196 
L 188.248606 47.191746 
L 186.838312 47.5044 
L 185.460634 47.938781 
L 184.126057 48.49158 
L 182.844738 49.158593 
L 181.626429 49.934741 
L 180.480402 50.814119 
L 179.415379 51.790033 
L 178.439465 52.855056 
L 177.560088 54.001083 
L 176.783939 55.219392 
L 176.116927 56.50071 
L 175.564127 57.835287 
L 175.129747 59.212965 
L 174.817092 60.623259 
L 174.628543 62.055437 
L 174.565533 63.498597 
L 174.628543 64.941758 
L 174.817092 66.373935 
L 175.129747 67.784229 
L 175.564127 69.161907 
L 176.116927 70.496484 
L 176.783939 71.777803 
L 177.560088 72.996112 
L 178.439465 74.142139 
L 179.415379 75.207162 
L 180.480402 76.183076 
L 181.626429 77.062453 
L 182.844738 77.838602 
L 184.126057 78.505614 
L 185.460634 79.058414 
L 186.838312 79.492794 
L 188.248606 79.805449 
L 189.680783 79.993998 
L 191.123944 80.057008 
L 192.567104 79.993998 
L 193.999282 79.805449 
L 195.409576 79.492794 
L 196.787254 79.058414 
L 198.121831 78.505614 
L 199.403149 77.838602 
L 200.621458 77.062453 
L 201.767485 76.183076 
L 202.832508 75.207162 
L 203.808422 74.142139 
L 204.6878 72.996112 
L 205.463948 71.777803 
L 206.130961 70.496484 
L 206.68376 69.161907 
L 207.118141 67.784229 
L 207.430795 66.373935 
L 207.619345 64.941758 
L 207.682355 63.498597 
z
" clip-path="url(#p29116f1b48)" style="fill: #477b9d"/>
    <path d="M 195.86385 194.617689 
L 196.37109 195.058525 
L 196.021587 195.460674 
L 195.514347 195.019838 
z
" clip-path="url(#p29116f1b48)" style="fill: #4c4c4c"/>
    <path d="M 115.4659 197.4578 
L 115.676408 197.289409 
L 115.858676 196.812903 
L 115.997938 196.066886 
L 116.082913 195.111796 
L 116.106715 194.025007 
L 116.067417 192.894567 
L 115.968202 191.812055 
L 115.817108 190.865171 
L 115.626376 190.130625 
L 115.411458 189.667927 
L 115.189765 189.514561 
L 97.564045 190.127294 
L 97.840181 198.070533 
z
" clip-path="url(#p29116f1b48)" style="fill: #f03f37"/>
    <path d="M 97.840181 198.070533 
L 97.564045 190.127294 
L 79.938325 190.740026 
L 79.72782 190.908417 
L 79.545554 191.384923 
L 79.406293 192.13094 
L 79.32132 193.08603 
L 79.297518 194.172819 
L 79.336816 195.303259 
L 79.436031 196.385771 
L 79.587123 197.332655 
L 79.777854 198.067201 
L 79.99277 198.529899 
L 80.214461 198.683265 
z
" clip-path="url(#p29116f1b48)" style="fill: #477b9d"/>
    <path d="M 80.872495 195.259599 
L 80.809486 193.816439 
L 80.620936 192.384262 
L 80.308281 190.973967 
L 79.873901 189.596289 
L 79.321101 188.261713 
L 78.654089 186.980394 
L 77.877941 185.762085 
L 76.998563 184.616058 
L 76.022649 183.551035 
L 74.957626 182.575121 
L 73.811599 181.695743 
L 72.59329 180.919595 
L 71.311971 180.252583 
L 69.977394 179.699783 
L 68.599716 179.265403 
L 67.189422 178.952748 
L 65.757245 178.764198 
L 64.314084 178.701188 
L 62.870924 178.764198 
L 61.438746 178.952748 
L 60.028452 179.265403 
L 58.650774 179.699783 
L 57.316198 180.252583 
L 56.034879 180.919595 
L 54.81657 181.695743 
L 53.670543 182.575121 
L 52.60552 183.551035 
L 51.629606 184.616058 
L 50.750228 185.762085 
L 49.97408 186.980394 
L 49.307068 188.261713 
L 48.754268 189.596289 
L 48.319888 190.973967 
L 48.007233 192.384262 
L 47.818683 193.816439 
L 47.755673 195.259599 
L 47.818683 196.70276 
L 48.007233 198.134937 
L 48.319888 199.545232 
L 48.754268 200.92291 
L 49.307068 202.257486 
L 49.97408 203.538805 
L 50.750228 204.757114 
L 51.629606 205.903141 
L 52.60552 206.968164 
L 53.670543 207.944078 
L 54.81657 208.823456 
L 56.034879 209.599604 
L 57.316198 210.266616 
L 58.650774 210.819416 
L 60.028452 211.253796 
L 61.438746 211.566451 
L 62.870924 211.755001 
L 64.314084 211.81801 
L 65.757245 211.755001 
L 67.189422 211.566451 
L 68.599716 211.253796 
L 69.977394 210.819416 
L 71.311971 210.266616 
L 72.59329 209.599604 
L 73.811599 208.823456 
L 74.957626 207.944078 
L 76.022649 206.968164 
L 76.998563 205.903141 
L 77.877941 204.757114 
L 78.654089 203.538805 
L 79.321101 202.257486 
L 79.873901 200.92291 
L 80.308281 199.545232 
L 80.620936 198.134937 
L 80.809486 196.70276 
L 80.872495 195.259599 
z
" clip-path="url(#p29116f1b48)" style="fill: #477b9d"/>
    <path d="M 174.896341 64.329287 
L 140.717756 65.517456 
L 140.699245 64.984978 
L 174.877831 63.796809 
z
" clip-path="url(#p29116f1b48)" style="fill: #4c4c4c"/>
    <path d="M 196.37109 195.058525 
L 198.400047 196.821869 
L 198.050544 197.224018 
L 196.021587 195.460674 
z
" clip-path="url(#p29116f1b48)" style="fill: #4c4c4c"/>
    <path d="M 64.047684 178.953243 
L 64.047684 144.628364 
L 64.580484 144.628364 
L 64.580484 178.953243 
z
" clip-path="url(#p29116f1b48)" style="fill: #4c4c4c"/>
    <path d="M 175.499715 68.01817 
L 175.710225 67.849779 
L 175.892495 67.373273 
L 176.031759 66.627256 
L 176.116735 65.672165 
L 176.140537 64.585377 
L 176.101239 63.454936 
L 176.002024 62.372425 
L 175.850929 61.425541 
L 175.660195 60.690995 
L 175.445275 60.228297 
L 175.22358 60.074931 
L 157.597854 60.687664 
L 157.873989 68.630903 
z
" clip-path="url(#p29116f1b48)" style="fill: #477b9d"/>
    <path d="M 157.873989 68.630903 
L 157.597854 60.687664 
L 139.972127 61.300397 
L 139.76162 61.468788 
L 139.579351 61.945293 
L 139.440089 62.691311 
L 139.355115 63.646401 
L 139.331312 64.733189 
L 139.37061 65.86363 
L 139.469825 66.946142 
L 139.620919 67.893026 
L 139.811651 68.627571 
L 140.026569 69.09027 
L 140.248263 69.243636 
z
" clip-path="url(#p29116f1b48)" style="fill: #f03f37"/>
    <path d="M 140.965743 65.702778 
L 140.915335 64.548249 
L 140.764495 63.402507 
L 140.514371 62.274272 
L 140.166867 61.172129 
L 139.724627 60.104468 
L 139.191018 59.079413 
L 138.570099 58.104766 
L 137.866597 57.187944 
L 137.085866 56.335926 
L 136.233847 55.555195 
L 135.317026 54.851693 
L 134.342378 54.230774 
L 133.317324 53.697164 
L 132.249662 53.254924 
L 131.14752 52.90742 
L 130.019284 52.657296 
L 128.873543 52.506457 
L 127.719014 52.456049 
L 126.564486 52.506457 
L 125.418744 52.657296 
L 124.290508 52.90742 
L 123.188366 53.254924 
L 122.120705 53.697164 
L 121.09565 54.230774 
L 120.121003 54.851693 
L 119.204181 55.555195 
L 118.352162 56.335926 
L 117.571431 57.187944 
L 116.867929 58.104766 
L 116.24701 59.079413 
L 115.713401 60.104468 
L 115.271161 61.172129 
L 114.923657 62.274272 
L 114.673533 63.402507 
L 114.522693 64.548249 
L 114.472285 65.702778 
L 114.522693 66.857306 
L 114.673533 68.003048 
L 114.923657 69.131283 
L 115.271161 70.233426 
L 115.713401 71.301087 
L 116.24701 72.326142 
L 116.867929 73.300789 
L 117.571431 74.217611 
L 118.352162 75.069629 
L 119.204181 75.850361 
L 120.121003 76.553862 
L 121.09565 77.174781 
L 122.120705 77.708391 
L 123.188366 78.150631 
L 124.290508 78.498135 
L 125.418744 78.748259 
L 126.564486 78.899099 
L 127.719014 78.949506 
L 128.873543 78.899099 
L 130.019284 78.748259 
L 131.14752 78.498135 
L 132.249662 78.150631 
L 133.317324 77.708391 
L 134.342378 77.174781 
L 135.317026 76.553862 
L 136.233847 75.850361 
L 137.085866 75.069629 
L 137.866597 74.217611 
L 138.570099 73.300789 
L 139.191018 72.326142 
L 139.724627 71.301087 
L 140.166867 70.233426 
L 140.514371 69.131283 
L 140.764495 68.003048 
L 140.915335 66.857306 
L 140.965743 65.702778 
z
" clip-path="url(#p29116f1b48)" style="fill: #f03f37"/>
    <path d="M 198.400047 196.821869 
L 198.653667 197.042287 
L 198.304164 197.444436 
L 198.050544 197.224018 
z
" clip-path="url(#p29116f1b48)" style="fill: #4c4c4c"/>
    <path d="M 60.340066 179.429836 
L 60.501041 179.624446 
L 60.970927 179.803289 
L 61.711656 179.951878 
L 62.663217 180.058174 
L 63.748523 180.113566 
L 64.879646 180.113566 
L 65.964951 180.058174 
L 66.916513 179.951878 
L 67.657242 179.803289 
L 68.127127 179.624446 
L 68.288103 179.429836 
L 68.288103 161.728666 
L 60.340066 161.728666 
z
" clip-path="url(#p29116f1b48)" style="fill: #477b9d"/>
    <path d="M 60.340066 161.728666 
L 68.288103 161.728666 
L 68.288103 144.027497 
L 68.127127 143.832889 
L 67.657242 143.654047 
L 66.916513 143.50546 
L 65.964951 143.399165 
L 64.879646 143.343774 
L 63.748523 143.343774 
L 62.663217 143.399165 
L 61.711656 143.50546 
L 60.970927 143.654047 
L 60.501041 143.832889 
L 60.340066 144.027497 
z
" clip-path="url(#p29116f1b48)" style="fill: #f03f37"/>
    <path d="M 77.560813 131.583279 
L 77.510405 130.42875 
L 77.359566 129.283008 
L 77.109442 128.154773 
L 76.761938 127.052631 
L 76.319698 125.984969 
L 75.786088 124.959914 
L 75.165169 123.985267 
L 74.461667 123.068446 
L 73.680936 122.216427 
L 72.828917 121.435696 
L 71.912096 120.732194 
L 70.937449 120.111275 
L 69.912394 119.577665 
L 68.844732 119.135425 
L 67.74259 118.787921 
L 66.614355 118.537797 
L 65.468613 118.386958 
L 64.314084 118.33655 
L 63.159556 118.386958 
L 62.013814 118.537797 
L 60.885579 118.787921 
L 59.783436 119.135425 
L 58.715775 119.577665 
L 57.69072 120.111275 
L 56.716073 120.732194 
L 55.799251 121.435696 
L 54.947233 122.216427 
L 54.166501 123.068446 
L 53.462999 123.985267 
L 52.842081 124.959914 
L 52.308471 125.984969 
L 51.866231 127.052631 
L 51.518727 128.154773 
L 51.268603 129.283008 
L 51.117763 130.42875 
L 51.067356 131.583279 
L 51.117763 132.737807 
L 51.268603 133.883549 
L 51.518727 135.011784 
L 51.866231 136.113927 
L 52.308471 137.181588 
L 52.842081 138.206643 
L 53.462999 139.18129 
L 54.166501 140.098112 
L 54.947233 140.95013 
L 55.799251 141.730862 
L 56.716073 142.434364 
L 57.69072 143.055282 
L 58.715775 143.588892 
L 59.783436 144.031132 
L 60.885579 144.378636 
L 62.013814 144.62876 
L 63.159556 144.7796 
L 64.314084 144.830007 
L 65.468613 144.7796 
L 66.614355 144.62876 
L 67.74259 144.378636 
L 68.844732 144.031132 
L 69.912394 143.588892 
L 70.937449 143.055282 
L 71.912096 142.434364 
L 72.828917 141.730862 
L 73.680936 140.95013 
L 74.461667 140.098112 
L 75.165169 139.18129 
L 75.786088 138.206643 
L 76.319698 137.181588 
L 76.761938 136.113927 
L 77.109442 135.011784 
L 77.359566 133.883549 
L 77.510405 132.737807 
L 77.560813 131.583279 
z
" clip-path="url(#p29116f1b48)" style="fill: #f03f37"/>
    <path d="M 114.738783 66.420577 
L 80.560198 67.608746 
L 80.541687 67.076268 
L 114.720272 65.888099 
z
" clip-path="url(#p29116f1b48)" style="fill: #4c4c4c"/>
    <path d="M 64.047684 118.538194 
L 64.047684 84.213314 
L 64.580484 84.213314 
L 64.580484 118.538194 
z
" clip-path="url(#p29116f1b48)" style="fill: #4c4c4c"/>
    <path d="M 198.653667 197.042287 
L 200.936245 199.02605 
L 200.586742 199.428198 
L 198.304164 197.444436 
z
" clip-path="url(#p29116f1b48)" style="fill: #4c4c4c"/>
    <path d="M 194.546067 66.119777 
L 196.37109 67.705884 
L 196.021587 68.108032 
L 194.196564 66.521926 
z
" clip-path="url(#p29116f1b48)" style="fill: #4c4c4c"/>
    <path d="M 67.736207 197.880779 
L 69.053991 199.02605 
L 68.704488 199.428198 
L 67.386704 198.282928 
z
" clip-path="url(#p29116f1b48)" style="fill: #4c4c4c"/>
    <path d="M 79.938325 63.387385 
L 79.727819 63.555775 
L 79.545553 64.032281 
L 79.406292 64.778298 
L 79.321319 65.733389 
L 79.297517 66.820177 
L 79.336815 67.950618 
L 79.43603 69.03313 
L 79.587122 69.980014 
L 79.777853 70.714559 
L 79.992769 71.177257 
L 80.21446 71.330624 
L 97.84018 70.717891 
L 97.564045 62.774652 
z
" clip-path="url(#p29116f1b48)" style="fill: #477b9d"/>
    <path d="M 97.564045 62.774652 
L 97.84018 70.717891 
L 115.465901 70.105158 
L 115.676408 69.936768 
L 115.858677 69.460262 
L 115.997939 68.714245 
L 116.082914 67.759154 
L 116.106716 66.672366 
L 116.067418 65.541925 
L 115.968203 64.459413 
L 115.817109 63.512529 
L 115.626377 62.777984 
L 115.411459 62.315286 
L 115.189766 62.161919 
z
" clip-path="url(#p29116f1b48)" style="fill: #f03f37"/>
    <path d="M 68.288103 83.736732 
L 68.127127 83.542127 
L 67.657242 83.363287 
L 66.916513 83.214701 
L 65.964951 83.108407 
L 64.879646 83.053017 
L 63.748523 83.053017 
L 62.663217 83.108407 
L 61.711656 83.214701 
L 60.970927 83.363287 
L 60.501041 83.542127 
L 60.340066 83.736732 
L 60.340066 101.437896 
L 68.288103 101.437896 
z
" clip-path="url(#p29116f1b48)" style="fill: #477b9d"/>
    <path d="M 68.288103 101.437896 
L 60.340066 101.437896 
L 60.340066 119.13906 
L 60.501041 119.333668 
L 60.970927 119.51251 
L 61.711656 119.661097 
L 62.663217 119.767392 
L 63.748523 119.822783 
L 64.879646 119.822783 
L 65.964951 119.767392 
L 66.916513 119.661097 
L 67.657242 119.51251 
L 68.127127 119.333668 
L 68.288103 119.13906 
z
" clip-path="url(#p29116f1b48)" style="fill: #f03f37"/>
    <path d="M 80.872495 67.906958 
L 80.809486 66.463797 
L 80.620936 65.03162 
L 80.308281 63.621326 
L 79.873901 62.243648 
L 79.321101 60.909071 
L 78.654089 59.627752 
L 77.877941 58.409444 
L 76.998563 57.263416 
L 76.022649 56.198393 
L 74.957626 55.222479 
L 73.811599 54.343102 
L 72.59329 53.566953 
L 71.311971 52.899941 
L 69.977394 52.347141 
L 68.599716 51.912761 
L 67.189422 51.600106 
L 65.757245 51.411557 
L 64.314084 51.348547 
L 62.870924 51.411557 
L 61.438746 51.600106 
L 60.028452 51.912761 
L 58.650774 52.347141 
L 57.316198 52.899941 
L 56.034879 53.566953 
L 54.81657 54.343102 
L 53.670543 55.222479 
L 52.60552 56.198393 
L 51.629606 57.263416 
L 50.750228 58.409444 
L 49.97408 59.627752 
L 49.307068 60.909071 
L 48.754268 62.243648 
L 48.319888 63.621326 
L 48.007233 65.03162 
L 47.818683 66.463797 
L 47.755673 67.906958 
L 47.818683 69.350118 
L 48.007233 70.782296 
L 48.319888 72.19259 
L 48.754268 73.570268 
L 49.307068 74.904845 
L 49.97408 76.186163 
L 50.750228 77.404472 
L 51.629606 78.550499 
L 52.60552 79.615523 
L 53.670543 80.591437 
L 54.81657 81.470814 
L 56.034879 82.246962 
L 57.316198 82.913975 
L 58.650774 83.466774 
L 60.028452 83.901155 
L 61.438746 84.213809 
L 62.870924 84.402359 
L 64.314084 84.465369 
L 65.757245 84.402359 
L 67.189422 84.213809 
L 68.599716 83.901155 
L 69.977394 83.466774 
L 71.311971 82.913975 
L 72.59329 82.246962 
L 73.811599 81.470814 
L 74.957626 80.591437 
L 76.022649 79.615523 
L 76.998563 78.550499 
L 77.877941 77.404472 
L 78.654089 76.186163 
L 79.321101 74.904845 
L 79.873901 73.570268 
L 80.308281 72.19259 
L 80.620936 70.782296 
L 80.809486 69.350118 
L 80.872495 67.906958 
z
" clip-path="url(#p29116f1b48)" style="fill: #477b9d"/>
    <path d="M 200.936245 199.02605 
L 201.381784 199.413263 
L 201.032281 199.815412 
L 200.586742 199.428198 
z
" clip-path="url(#p29116f1b48)" style="fill: #4c4c4c"/>
    <path d="M 196.37109 67.705884 
L 199.414526 70.3509 
L 199.065023 70.753049 
L 196.021587 68.108032 
z
" clip-path="url(#p29116f1b48)" style="fill: #4c4c4c"/>
    <path d="M 69.053991 199.02605 
L 72.097427 201.671066 
L 71.747924 202.073215 
L 68.704488 199.428198 
z
" clip-path="url(#p29116f1b48)" style="fill: #4c4c4c"/>
    <path d="M 196.883282 190.591504 
L 195.961647 190.003796 
L 194.903486 189.706704 
L 193.794525 189.724297 
L 192.724605 190.05515 
L 191.780404 190.672458 
L 191.038417 191.526211 
L 190.558754 192.547244 
L 190.380275 193.652838 
L 190.517439 194.753425 
L 190.959134 195.759841 
L 191.669577 196.590552 
L 195.194697 199.654194 
L 200.408402 193.655146 
z
" clip-path="url(#p29116f1b48)" style="fill: #477b9d"/>
    <path d="M 200.408402 193.655146 
L 195.194697 199.654194 
L 198.719817 202.717836 
L 199.641451 203.305544 
L 200.699612 203.602636 
L 201.808573 203.585043 
L 202.878493 203.254191 
L 203.822694 202.636882 
L 204.564681 201.783129 
L 205.044344 200.762096 
L 205.222824 199.656502 
L 205.085659 198.555916 
L 204.643964 197.5495 
L 203.933522 196.718788 
z
" clip-path="url(#p29116f1b48)" style="fill: #f03f37"/>
    <path d="M 217.051658 201.87214 
L 217.001251 200.717612 
L 216.850411 199.57187 
L 216.600287 198.443635 
L 216.252783 197.341492 
L 215.810543 196.273831 
L 215.276933 195.248776 
L 214.656015 194.274129 
L 213.952513 193.357307 
L 213.171781 192.505289 
L 212.319763 191.724557 
L 211.402941 191.021056 
L 210.428294 190.400137 
L 209.403239 189.866527 
L 208.335578 189.424287 
L 207.233435 189.076783 
L 206.1052 188.826659 
L 204.959458 188.675819 
L 203.80493 188.625412 
L 202.650401 188.675819 
L 201.504659 188.826659 
L 200.376424 189.076783 
L 199.274282 189.424287 
L 198.20662 189.866527 
L 197.181565 190.400137 
L 196.206918 191.021056 
L 195.290097 191.724557 
L 194.438078 192.505289 
L 193.657347 193.357307 
L 192.953845 194.274129 
L 192.332926 195.248776 
L 191.799316 196.273831 
L 191.357076 197.341492 
L 191.009572 198.443635 
L 190.759449 199.57187 
L 190.608609 200.717612 
L 190.558201 201.87214 
L 190.608609 203.026669 
L 190.759449 204.172411 
L 191.009572 205.300646 
L 191.357076 206.402789 
L 191.799316 207.47045 
L 192.332926 208.495505 
L 192.953845 209.470152 
L 193.657347 210.386974 
L 194.438078 211.238992 
L 195.290097 212.019723 
L 196.206918 212.723225 
L 197.181565 213.344144 
L 198.20662 213.877754 
L 199.274282 214.319994 
L 200.376424 214.667498 
L 201.504659 214.917622 
L 202.650401 215.068461 
L 203.80493 215.118869 
L 204.959458 215.068461 
L 206.1052 214.917622 
L 207.233435 214.667498 
L 208.335578 214.319994 
L 209.403239 213.877754 
L 210.428294 213.344144 
L 211.402941 212.723225 
L 212.319763 212.019723 
L 213.171781 211.238992 
L 213.952513 210.386974 
L 214.656015 209.470152 
L 215.276933 208.495505 
L 215.810543 207.47045 
L 216.252783 206.402789 
L 216.600287 205.300646 
L 216.850411 204.172411 
L 217.001251 203.026669 
L 217.051658 201.87214 
z
" clip-path="url(#p29116f1b48)" style="fill: #f03f37"/>
    <path d="M 199.414526 70.3509 
L 201.381784 72.060621 
L 201.032281 72.46277 
L 199.065023 70.753049 
z
" clip-path="url(#p29116f1b48)" style="fill: #4c4c4c"/>
    <path d="M 72.097427 201.671066 
L 74.571925 203.821624 
L 74.222422 204.223772 
L 71.747924 202.073215 
z
" clip-path="url(#p29116f1b48)" style="fill: #4c4c4c"/>
    <path d="M 67.736207 70.528137 
L 72.097427 74.318425 
L 71.747924 74.720573 
L 67.386704 70.930286 
z
" clip-path="url(#p29116f1b48)" style="fill: #4c4c4c"/>
    <path d="M 206.577578 203.928869 
L 208.544836 205.638591 
L 208.195333 206.040739 
L 206.228075 204.331018 
z
" clip-path="url(#p29116f1b48)" style="fill: #4c4c4c"/>
    <path d="M 196.883252 63.238837 
L 195.961617 62.651128 
L 194.903456 62.354036 
L 193.794494 62.371629 
L 192.724574 62.702481 
L 191.780373 63.319789 
L 191.038385 64.173542 
L 190.558722 65.194575 
L 190.380243 66.30017 
L 190.517408 67.400756 
L 190.959104 68.407173 
L 191.669547 69.237885 
L 195.194694 72.30155 
L 200.408398 66.302502 
z
" clip-path="url(#p29116f1b48)" style="fill: #477b9d"/>
    <path d="M 200.408398 66.302502 
L 195.194694 72.30155 
L 198.71984 75.365215 
L 199.641475 75.952923 
L 200.699636 76.250016 
L 201.808598 76.232423 
L 202.878518 75.901571 
L 203.822719 75.284263 
L 204.564707 74.430509 
L 205.044369 73.409476 
L 205.222848 72.303882 
L 205.085684 71.203295 
L 204.643988 70.196879 
L 203.933545 69.366167 
z
" clip-path="url(#p29116f1b48)" style="fill: #f03f37"/>
    <path d="M 217.051658 74.519499 
L 217.001251 73.36497 
L 216.850411 72.219229 
L 216.600287 71.090993 
L 216.252783 69.988851 
L 215.810543 68.921189 
L 215.276933 67.896135 
L 214.656015 66.921487 
L 213.952513 66.004666 
L 213.171781 65.152647 
L 212.319763 64.371916 
L 211.402941 63.668414 
L 210.428294 63.047495 
L 209.403239 62.513885 
L 208.335578 62.071646 
L 207.233435 61.724141 
L 206.1052 61.474018 
L 204.959458 61.323178 
L 203.80493 61.27277 
L 202.650401 61.323178 
L 201.504659 61.474018 
L 200.376424 61.724141 
L 199.274282 62.071646 
L 198.20662 62.513885 
L 197.181565 63.047495 
L 196.206918 63.668414 
L 195.290097 64.371916 
L 194.438078 65.152647 
L 193.657347 66.004666 
L 192.953845 66.921487 
L 192.332926 67.896135 
L 191.799316 68.921189 
L 191.357076 69.988851 
L 191.009572 71.090993 
L 190.759449 72.219229 
L 190.608609 73.36497 
L 190.558201 74.519499 
L 190.608609 75.674027 
L 190.759449 76.819769 
L 191.009572 77.948005 
L 191.357076 79.050147 
L 191.799316 80.117808 
L 192.332926 81.142863 
L 192.953845 82.11751 
L 193.657347 83.034332 
L 194.438078 83.886351 
L 195.290097 84.667082 
L 196.206918 85.370584 
L 197.181565 85.991503 
L 198.20662 86.525112 
L 199.274282 86.967352 
L 200.376424 87.314856 
L 201.504659 87.56498 
L 202.650401 87.71582 
L 203.80493 87.766228 
L 204.959458 87.71582 
L 206.1052 87.56498 
L 207.233435 87.314856 
L 208.335578 86.967352 
L 209.403239 86.525112 
L 210.428294 85.991503 
L 211.402941 85.370584 
L 212.319763 84.667082 
L 213.171781 83.886351 
L 213.952513 83.034332 
L 214.656015 82.11751 
L 215.276933 81.142863 
L 215.810543 80.117808 
L 216.252783 79.050147 
L 216.600287 77.948005 
L 216.850411 76.819769 
L 217.001251 75.674027 
L 217.051658 74.519499 
z
" clip-path="url(#p29116f1b48)" style="fill: #f03f37"/>
    <path d="M 72.097427 74.318425 
L 72.351047 74.538843 
L 72.001544 74.940991 
L 71.747924 74.720573 
z
" clip-path="url(#p29116f1b48)" style="fill: #4c4c4c"/>
    <path d="M 208.544836 205.638591 
L 208.798456 205.859009 
L 208.448953 206.261157 
L 208.195333 206.040739 
z
" clip-path="url(#p29116f1b48)" style="fill: #4c4c4c"/>
    <path d="M 163.581775 140.4 
L 163.493562 138.379575 
L 163.229592 136.374527 
L 162.791875 134.400115 
L 162.183743 132.471366 
L 161.409823 130.602958 
L 160.476006 128.809112 
L 159.389399 127.10348 
L 158.15827 125.499042 
L 156.791991 124.008009 
L 155.300958 122.64173 
L 153.69652 121.410601 
L 151.990888 120.323994 
L 150.197042 119.390177 
L 148.328634 118.616257 
L 146.399885 118.008125 
L 144.425473 117.570408 
L 142.420425 117.306438 
L 140.4 117.218225 
L 138.379575 117.306438 
L 136.374527 117.570408 
L 134.400115 118.008125 
L 132.471366 118.616257 
L 130.602958 119.390177 
L 128.809112 120.323994 
L 127.10348 121.410601 
L 125.499042 122.64173 
L 124.008009 124.008009 
L 122.64173 125.499042 
L 121.410601 127.10348 
L 120.323994 128.809112 
L 119.390177 130.602958 
L 118.616257 132.471366 
L 118.008125 134.400115 
L 117.570408 136.374527 
L 117.306438 138.379575 
L 117.218225 140.4 
L 117.306438 142.420425 
L 117.570408 144.425473 
L 118.008125 146.399885 
L 118.616257 148.328634 
L 119.390177 150.197042 
L 120.323994 151.990888 
L 121.410601 153.69652 
L 122.64173 155.300958 
L 124.008009 156.791991 
L 125.499042 158.15827 
L 127.10348 159.389399 
L 128.809112 160.476006 
L 130.602958 161.409823 
L 132.471366 162.183743 
L 134.400115 162.791875 
L 136.374527 163.229592 
L 138.379575 163.493562 
L 140.4 163.581775 
L 142.420425 163.493562 
L 144.425473 163.229592 
L 146.399885 162.791875 
L 148.328634 162.183743 
L 150.197042 161.409823 
L 151.990888 160.476006 
L 153.69652 159.389399 
L 155.300958 158.15827 
L 156.791991 156.791991 
L 158.15827 155.300958 
L 159.389399 153.69652 
L 160.476006 151.990888 
L 161.409823 150.197042 
L 162.183743 148.328634 
L 162.791875 146.399885 
L 163.229592 144.425473 
L 163.493562 142.420425 
L 163.581775 140.4 
z
" clip-path="url(#p29116f1b48)" style="fill: #51b04d"/>
    <path d="M 208.798456 205.859009 
L 209.052076 206.079427 
L 208.702573 206.481575 
L 208.448953 206.261157 
z
" clip-path="url(#p29116f1b48)" style="fill: #4c4c4c"/>
    <path d="M 72.351047 74.538843 
L 72.604667 74.759261 
L 72.255164 75.161409 
L 72.001544 74.940991 
z
" clip-path="url(#p29116f1b48)" style="fill: #4c4c4c"/>
    <path d="M 70.07339 194.999836 
L 69.151754 194.412128 
L 68.093593 194.115035 
L 66.984631 194.132628 
L 65.914711 194.46348 
L 64.97051 195.080788 
L 64.228522 195.934542 
L 63.748859 196.955575 
L 63.570381 198.061169 
L 63.707545 199.161756 
L 64.149241 200.168172 
L 64.859685 200.998884 
L 68.384834 204.062552 
L 73.598539 198.063504 
z
" clip-path="url(#p29116f1b48)" style="fill: #477b9d"/>
    <path d="M 73.598539 198.063504 
L 68.384834 204.062552 
L 71.909983 207.126219 
L 72.831618 207.713928 
L 73.889779 208.01102 
L 74.998741 207.993428 
L 76.068662 207.662576 
L 77.012862 207.045267 
L 77.75485 206.191514 
L 78.234513 205.170481 
L 78.412992 204.064887 
L 78.275827 202.9643 
L 77.834131 201.957883 
L 77.123688 201.127171 
z
" clip-path="url(#p29116f1b48)" style="fill: #f03f37"/>
    <path d="M 90.241799 206.280501 
L 90.191391 205.125973 
L 90.040551 203.980231 
L 89.790428 202.851995 
L 89.442924 201.749853 
L 89.000684 200.682192 
L 88.467074 199.657137 
L 87.846155 198.68249 
L 87.142653 197.765668 
L 86.361922 196.913649 
L 85.509903 196.132918 
L 84.593082 195.429416 
L 83.618435 194.808497 
L 82.59338 194.274888 
L 81.525718 193.832648 
L 80.423576 193.485144 
L 79.295341 193.23502 
L 78.149599 193.08418 
L 76.99507 193.033772 
L 75.840542 193.08418 
L 74.6948 193.23502 
L 73.566565 193.485144 
L 72.464422 193.832648 
L 71.396761 194.274888 
L 70.371706 194.808497 
L 69.397059 195.429416 
L 68.480237 196.132918 
L 67.628219 196.913649 
L 66.847487 197.765668 
L 66.143985 198.68249 
L 65.523067 199.657137 
L 64.989457 200.682192 
L 64.547217 201.749853 
L 64.199713 202.851995 
L 63.949589 203.980231 
L 63.798749 205.125973 
L 63.748342 206.280501 
L 63.798749 207.43503 
L 63.949589 208.580771 
L 64.199713 209.709007 
L 64.547217 210.811149 
L 64.989457 211.878811 
L 65.523067 212.903865 
L 66.143985 213.878513 
L 66.847487 214.795334 
L 67.628219 215.647353 
L 68.480237 216.428084 
L 69.397059 217.131586 
L 70.371706 217.752505 
L 71.396761 218.286115 
L 72.464422 218.728354 
L 73.566565 219.075859 
L 74.6948 219.325982 
L 75.840542 219.476822 
L 76.99507 219.52723 
L 78.149599 219.476822 
L 79.295341 219.325982 
L 80.423576 219.075859 
L 81.525718 218.728354 
L 82.59338 218.286115 
L 83.618435 217.752505 
L 84.593082 217.131586 
L 85.509903 216.428084 
L 86.361922 215.647353 
L 87.142653 214.795334 
L 87.846155 213.878513 
L 88.467074 212.903865 
L 89.000684 211.878811 
L 89.442924 210.811149 
L 89.790428 209.709007 
L 90.040551 208.580771 
L 90.191391 207.43503 
L 90.241799 206.280501 
z
" clip-path="url(#p29116f1b48)" style="fill: #f03f37"/>
    <path d="M 72.604667 74.759261 
L 74.571925 76.468982 
L 74.222422 76.871131 
L 72.255164 75.161409 
z
" clip-path="url(#p29116f1b48)" style="fill: #4c4c4c"/>
    <path d="M 209.052076 206.079427 
L 213.413296 209.869714 
L 213.063793 210.271863 
L 208.702573 206.481575 
z
" clip-path="url(#p29116f1b48)" style="fill: #4c4c4c"/>
    <path d="M 206.577578 76.576228 
L 209.052076 78.726785 
L 208.702573 79.128934 
L 206.228075 76.978376 
z
" clip-path="url(#p29116f1b48)" style="fill: #4c4c4c"/>
    <path d="M 79.767719 208.33723 
L 81.734977 210.046951 
L 81.385474 210.4491 
L 79.418216 208.739379 
z
" clip-path="url(#p29116f1b48)" style="fill: #4c4c4c"/>
    <path d="M 70.07336 67.647169 
L 69.151724 67.05946 
L 68.093562 66.762367 
L 66.9846 66.779959 
L 65.914679 67.110811 
L 64.970478 67.728119 
L 64.228491 68.581873 
L 63.748828 69.602906 
L 63.57035 70.7085 
L 63.707515 71.809087 
L 64.149211 72.815504 
L 64.859655 73.646217 
L 68.384831 76.709908 
L 73.598536 70.71086 
z
" clip-path="url(#p29116f1b48)" style="fill: #477b9d"/>
    <path d="M 73.598536 70.71086 
L 68.384831 76.709908 
L 71.910006 79.773598 
L 72.831642 80.361307 
L 73.889804 80.6584 
L 74.998766 80.640808 
L 76.068687 80.309956 
L 77.012888 79.692648 
L 77.754875 78.838894 
L 78.234538 77.817861 
L 78.413016 76.712267 
L 78.275851 75.611679 
L 77.834155 74.605263 
L 77.123711 73.77455 
z
" clip-path="url(#p29116f1b48)" style="fill: #f03f37"/>
    <path d="M 90.241799 78.92786 
L 90.191391 77.773331 
L 90.040551 76.627589 
L 89.790428 75.499354 
L 89.442924 74.397211 
L 89.000684 73.32955 
L 88.467074 72.304495 
L 87.846155 71.329848 
L 87.142653 70.413026 
L 86.361922 69.561008 
L 85.509903 68.780277 
L 84.593082 68.076775 
L 83.618435 67.455856 
L 82.59338 66.922246 
L 81.525718 66.480006 
L 80.423576 66.132502 
L 79.295341 65.882378 
L 78.149599 65.731539 
L 76.99507 65.681131 
L 75.840542 65.731539 
L 74.6948 65.882378 
L 73.566565 66.132502 
L 72.464422 66.480006 
L 71.396761 66.922246 
L 70.371706 67.455856 
L 69.397059 68.076775 
L 68.480237 68.780277 
L 67.628219 69.561008 
L 66.847487 70.413026 
L 66.143985 71.329848 
L 65.523067 72.304495 
L 64.989457 73.32955 
L 64.547217 74.397211 
L 64.199713 75.499354 
L 63.949589 76.627589 
L 63.798749 77.773331 
L 63.748342 78.92786 
L 63.798749 80.082388 
L 63.949589 81.22813 
L 64.199713 82.356365 
L 64.547217 83.458508 
L 64.989457 84.526169 
L 65.523067 85.551224 
L 66.143985 86.525871 
L 66.847487 87.442693 
L 67.628219 88.294711 
L 68.480237 89.075443 
L 69.397059 89.778944 
L 70.371706 90.399863 
L 71.396761 90.933473 
L 72.464422 91.375713 
L 73.566565 91.723217 
L 74.6948 91.973341 
L 75.840542 92.124181 
L 76.99507 92.174588 
L 78.149599 92.124181 
L 79.295341 91.973341 
L 80.423576 91.723217 
L 81.525718 91.375713 
L 82.59338 90.933473 
L 83.618435 90.399863 
L 84.593082 89.778944 
L 85.509903 89.075443 
L 86.361922 88.294711 
L 87.142653 87.442693 
L 87.846155 86.525871 
L 88.467074 85.551224 
L 89.000684 84.526169 
L 89.442924 83.458508 
L 89.790428 82.356365 
L 90.040551 81.22813 
L 90.191391 80.082388 
L 90.241799 78.92786 
z
" clip-path="url(#p29116f1b48)" style="fill: #f03f37"/>
    <path d="M 209.052076 78.726785 
L 212.095512 81.371802 
L 211.746009 81.77395 
L 208.702573 79.128934 
z
" clip-path="url(#p29116f1b48)" style="fill: #4c4c4c"/>
    <path d="M 81.734977 210.046951 
L 84.778413 212.691968 
L 84.42891 213.094116 
L 81.385474 210.4491 
z
" clip-path="url(#p29116f1b48)" style="fill: #4c4c4c"/>
    <path d="M 79.767719 80.984588 
L 80.213258 81.371802 
L 79.863755 81.77395 
L 79.418216 81.386737 
z
" clip-path="url(#p29116f1b48)" style="fill: #4c4c4c"/>
    <path d="M 208.890043 201.026445 
L 207.968408 200.438737 
L 206.910248 200.141645 
L 205.801286 200.159238 
L 204.731366 200.49009 
L 203.787166 201.107399 
L 203.045178 201.961152 
L 202.565515 202.982185 
L 202.387036 204.087779 
L 202.5242 205.188365 
L 202.965895 206.194781 
L 203.676338 207.025493 
L 207.201452 210.089129 
L 212.415157 204.090081 
z
" clip-path="url(#p29116f1b48)" style="fill: #f03f37"/>
    <path d="M 212.415157 204.090081 
L 207.201452 210.089129 
L 210.726566 213.152766 
L 211.6482 213.740474 
L 212.706361 214.037566 
L 213.815322 214.019973 
L 214.885242 213.68912 
L 215.829442 213.071812 
L 216.57143 212.218058 
L 217.051093 211.197026 
L 217.229572 210.091432 
L 217.092408 208.990846 
L 216.650713 207.98443 
L 215.940271 207.153718 
z
" clip-path="url(#p29116f1b48)" style="fill: #477b9d"/>
    <path d="M 233.044327 212.893042 
L 232.981317 211.449882 
L 232.792767 210.017704 
L 232.480112 208.60741 
L 232.045732 207.229732 
L 231.492932 205.895155 
L 230.82592 204.613837 
L 230.049772 203.395528 
L 229.170394 202.249501 
L 228.19448 201.184477 
L 227.129457 200.208563 
L 225.98343 199.329186 
L 224.765121 198.553038 
L 223.483802 197.886025 
L 222.149226 197.333226 
L 220.771548 196.898845 
L 219.361254 196.586191 
L 217.929076 196.397641 
L 216.485916 196.334631 
L 215.042755 196.397641 
L 213.610578 196.586191 
L 212.200284 196.898845 
L 210.822606 197.333226 
L 209.488029 197.886025 
L 208.20671 198.553038 
L 206.988401 199.329186 
L 205.842374 200.208563 
L 204.777351 201.184477 
L 203.801437 202.249501 
L 202.922059 203.395528 
L 202.145911 204.613837 
L 201.478899 205.895155 
L 200.926099 207.229732 
L 200.491719 208.60741 
L 200.179064 210.017704 
L 199.990514 211.449882 
L 199.927505 212.893042 
L 199.990514 214.336203 
L 200.179064 215.76838 
L 200.491719 217.178674 
L 200.926099 218.556352 
L 201.478899 219.890929 
L 202.145911 221.172248 
L 202.922059 222.390556 
L 203.801437 223.536584 
L 204.777351 224.601607 
L 205.842374 225.577521 
L 206.988401 226.456898 
L 208.20671 227.233047 
L 209.488029 227.900059 
L 210.822606 228.452859 
L 212.200284 228.887239 
L 213.610578 229.199894 
L 215.042755 229.388443 
L 216.485916 229.451453 
L 217.929076 229.388443 
L 219.361254 229.199894 
L 220.771548 228.887239 
L 222.149226 228.452859 
L 223.483802 227.900059 
L 224.765121 227.233047 
L 225.98343 226.456898 
L 227.129457 225.577521 
L 228.19448 224.601607 
L 229.170394 223.536584 
L 230.049772 222.390556 
L 230.82592 221.172248 
L 231.492932 219.890929 
L 232.045732 218.556352 
L 232.480112 217.178674 
L 232.792767 215.76838 
L 232.981317 214.336203 
L 233.044327 212.893042 
z
" clip-path="url(#p29116f1b48)" style="fill: #477b9d"/>
    <path d="M 212.095512 81.371802 
L 213.413296 82.517072 
L 213.063793 82.919221 
L 211.746009 81.77395 
z
" clip-path="url(#p29116f1b48)" style="fill: #4c4c4c"/>
    <path d="M 84.778413 212.691968 
L 86.603436 214.278074 
L 86.253933 214.680223 
L 84.42891 213.094116 
z
" clip-path="url(#p29116f1b48)" style="fill: #4c4c4c"/>
    <path d="M 80.213258 81.371802 
L 82.495836 83.355564 
L 82.146333 83.757713 
L 79.863755 81.77395 
z
" clip-path="url(#p29116f1b48)" style="fill: #4c4c4c"/>
    <path d="M 216.219516 196.586686 
L 216.219516 162.261806 
L 216.752316 162.261806 
L 216.752316 196.586686 
z
" clip-path="url(#p29116f1b48)" style="fill: #4c4c4c"/>
    <path d="M 200.258313 213.723732 
L 166.079728 214.911901 
L 166.061217 214.379423 
L 200.239802 213.191254 
z
" clip-path="url(#p29116f1b48)" style="fill: #4c4c4c"/>
    <path d="M 212.511897 197.06328 
L 212.672873 197.25789 
L 213.142758 197.436735 
L 213.883487 197.585324 
L 214.835049 197.69162 
L 215.920354 197.747012 
L 217.051477 197.747012 
L 218.136783 197.69162 
L 219.088344 197.585324 
L 219.829073 197.436735 
L 220.298959 197.25789 
L 220.459934 197.06328 
L 220.459934 179.362109 
L 212.511897 179.362109 
z
" clip-path="url(#p29116f1b48)" style="fill: #477b9d"/>
    <path d="M 212.511897 179.362109 
L 220.459934 179.362109 
L 220.459934 161.660939 
L 220.298959 161.46633 
L 219.829073 161.287488 
L 219.088344 161.1389 
L 218.136783 161.032605 
L 217.051477 160.977214 
L 215.920354 160.977214 
L 214.835049 161.032605 
L 213.883487 161.1389 
L 213.142758 161.287488 
L 212.672873 161.46633 
L 212.511897 161.660939 
z
" clip-path="url(#p29116f1b48)" style="fill: #f03f37"/>
    <path d="M 229.732644 149.216721 
L 229.682237 148.062193 
L 229.531397 146.916451 
L 229.281273 145.788216 
L 228.933769 144.686073 
L 228.491529 143.618412 
L 227.957919 142.593357 
L 227.337001 141.61871 
L 226.633499 140.701888 
L 225.852767 139.84987 
L 225.000749 139.069138 
L 224.083927 138.365636 
L 223.10928 137.744718 
L 222.084225 137.211108 
L 221.016564 136.768868 
L 219.914421 136.421364 
L 218.786186 136.17124 
L 217.640444 136.0204 
L 216.485916 135.969993 
L 215.331387 136.0204 
L 214.185645 136.17124 
L 213.05741 136.421364 
L 211.955268 136.768868 
L 210.887606 137.211108 
L 209.862551 137.744718 
L 208.887904 138.365636 
L 207.971083 139.069138 
L 207.119064 139.84987 
L 206.338333 140.701888 
L 205.634831 141.61871 
L 205.013912 142.593357 
L 204.480302 143.618412 
L 204.038062 144.686073 
L 203.690558 145.788216 
L 203.440434 146.916451 
L 203.289595 148.062193 
L 203.239187 149.216721 
L 203.289595 150.37125 
L 203.440434 151.516992 
L 203.690558 152.645227 
L 204.038062 153.747369 
L 204.480302 154.815031 
L 205.013912 155.840086 
L 205.634831 156.814733 
L 206.338333 157.731554 
L 207.119064 158.583573 
L 207.971083 159.364304 
L 208.887904 160.067806 
L 209.862551 160.688725 
L 210.887606 161.222335 
L 211.955268 161.664575 
L 213.05741 162.012079 
L 214.185645 162.262203 
L 215.331387 162.413042 
L 216.485916 162.46345 
L 217.640444 162.413042 
L 218.786186 162.262203 
L 219.914421 162.012079 
L 221.016564 161.664575 
L 222.084225 161.222335 
L 223.10928 160.688725 
L 224.083927 160.067806 
L 225.000749 159.364304 
L 225.852767 158.583573 
L 226.633499 157.731554 
L 227.337001 156.814733 
L 227.957919 155.840086 
L 228.491529 154.815031 
L 228.933769 153.747369 
L 229.281273 152.645227 
L 229.531397 151.516992 
L 229.682237 150.37125 
L 229.732644 149.216721 
z
" clip-path="url(#p29116f1b48)" style="fill: #f03f37"/>
    <path d="M 82.495836 83.355564 
L 82.749456 83.575982 
L 82.399953 83.978131 
L 82.146333 83.757713 
z
" clip-path="url(#p29116f1b48)" style="fill: #4c4c4c"/>
    <path d="M 200.861689 217.412615 
L 201.072199 217.244224 
L 201.25447 216.767718 
L 201.393735 216.021701 
L 201.47871 215.06661 
L 201.502514 213.979822 
L 201.463215 212.849381 
L 201.364 211.766869 
L 201.212904 210.819985 
L 201.02217 210.08544 
L 200.807249 209.622742 
L 200.585554 209.469376 
L 182.959826 210.082109 
L 183.235961 218.025348 
z
" clip-path="url(#p29116f1b48)" style="fill: #477b9d"/>
    <path d="M 183.235961 218.025348 
L 182.959826 210.082109 
L 165.334098 210.694842 
L 165.123589 210.863233 
L 164.941321 211.339738 
L 164.802058 212.085756 
L 164.717083 213.040846 
L 164.69328 214.127634 
L 164.732578 215.258075 
L 164.831794 216.340587 
L 164.982888 217.287471 
L 165.17362 218.022016 
L 165.388539 218.484715 
L 165.610233 218.638081 
z
" clip-path="url(#p29116f1b48)" style="fill: #f03f37"/>
    <path d="M 166.327715 215.097222 
L 166.277307 213.942694 
L 166.126467 212.796952 
L 165.876343 211.668717 
L 165.528839 210.566574 
L 165.086599 209.498913 
L 164.55299 208.473858 
L 163.932071 207.499211 
L 163.228569 206.582389 
L 162.447838 205.730371 
L 161.595819 204.949639 
L 160.678997 204.246138 
L 159.70435 203.625219 
L 158.679295 203.091609 
L 157.611634 202.649369 
L 156.509492 202.301865 
L 155.381256 202.051741 
L 154.235514 201.900901 
L 153.080986 201.850494 
L 151.926457 201.900901 
L 150.780716 202.051741 
L 149.65248 202.301865 
L 148.550338 202.649369 
L 147.482676 203.091609 
L 146.457622 203.625219 
L 145.482974 204.246138 
L 144.566153 204.949639 
L 143.714134 205.730371 
L 142.933403 206.582389 
L 142.229901 207.499211 
L 141.608982 208.473858 
L 141.075373 209.498913 
L 140.633133 210.566574 
L 140.285629 211.668717 
L 140.035505 212.796952 
L 139.884665 213.942694 
L 139.834257 215.097222 
L 139.884665 216.251751 
L 140.035505 217.397493 
L 140.285629 218.525728 
L 140.633133 219.627871 
L 141.075373 220.695532 
L 141.608982 221.720587 
L 142.229901 222.695234 
L 142.933403 223.612056 
L 143.714134 224.464074 
L 144.566153 225.244805 
L 145.482974 225.948307 
L 146.457622 226.569226 
L 147.482676 227.102836 
L 148.550338 227.545076 
L 149.65248 227.89258 
L 150.780716 228.142704 
L 151.926457 228.293543 
L 153.080986 228.343951 
L 154.235514 228.293543 
L 155.381256 228.142704 
L 156.509492 227.89258 
L 157.611634 227.545076 
L 158.679295 227.102836 
L 159.70435 226.569226 
L 160.678997 225.948307 
L 161.595819 225.244805 
L 162.447838 224.464074 
L 163.228569 223.612056 
L 163.932071 222.695234 
L 164.55299 221.720587 
L 165.086599 220.695532 
L 165.528839 219.627871 
L 165.876343 218.525728 
L 166.126467 217.397493 
L 166.277307 216.251751 
L 166.327715 215.097222 
z
" clip-path="url(#p29116f1b48)" style="fill: #f03f37"/>
    <path d="M 216.219516 136.171636 
L 216.219516 101.846757 
L 216.752316 101.846757 
L 216.752316 136.171636 
z
" clip-path="url(#p29116f1b48)" style="fill: #4c4c4c"/>
    <path d="M 82.749456 83.575982 
L 84.778413 85.339326 
L 84.42891 85.741475 
L 82.399953 83.978131 
z
" clip-path="url(#p29116f1b48)" style="fill: #4c4c4c"/>
    <path d="M 140.100755 215.815022 
L 105.922169 217.003191 
L 105.903659 216.470713 
L 140.082244 215.282544 
z
" clip-path="url(#p29116f1b48)" style="fill: #4c4c4c"/>
    <path d="M 210.726595 85.80015 
L 211.64823 86.387859 
L 212.706391 86.684951 
L 213.815353 86.667358 
L 214.885273 86.336506 
L 215.829474 85.719198 
L 216.571462 84.865444 
L 217.051125 83.844411 
L 217.229603 82.738817 
L 217.092439 81.638231 
L 216.650743 80.631814 
L 215.9403 79.801102 
L 212.41516 76.737443 
L 207.201455 82.736491 
z
" clip-path="url(#p29116f1b48)" style="fill: #477b9d"/>
    <path d="M 207.201455 82.736491 
L 212.41516 76.737443 
L 208.890019 73.673783 
L 207.968385 73.086074 
L 206.910223 72.788982 
L 205.801262 72.806575 
L 204.731341 73.137427 
L 203.78714 73.754735 
L 203.045153 74.608489 
L 202.56549 75.629522 
L 202.387011 76.735116 
L 202.524176 77.835702 
L 202.965871 78.842119 
L 203.676315 79.672831 
z
" clip-path="url(#p29116f1b48)" style="fill: #f03f37"/>
    <path d="M 220.459934 101.370174 
L 220.298959 101.175567 
L 219.829073 100.996727 
L 219.088344 100.848141 
L 218.136783 100.741847 
L 217.051477 100.686456 
L 215.920354 100.686456 
L 214.835049 100.741847 
L 213.883487 100.848141 
L 213.142758 100.996727 
L 212.672873 101.175567 
L 212.511897 101.370174 
L 212.511897 119.071339 
L 220.459934 119.071339 
z
" clip-path="url(#p29116f1b48)" style="fill: #477b9d"/>
    <path d="M 220.459934 119.071339 
L 212.511897 119.071339 
L 212.511897 136.772504 
L 212.672873 136.967112 
L 213.142758 137.145955 
L 213.883487 137.294543 
L 214.835049 137.400838 
L 215.920354 137.456229 
L 217.051477 137.456229 
L 218.136783 137.400838 
L 219.088344 137.294543 
L 219.829073 137.145955 
L 220.298959 136.967112 
L 220.459934 136.772504 
z
" clip-path="url(#p29116f1b48)" style="fill: #f03f37"/>
    <path d="M 233.044327 85.540401 
L 232.981317 84.09724 
L 232.792767 82.665063 
L 232.480112 81.254768 
L 232.045732 79.87709 
L 231.492932 78.542514 
L 230.82592 77.261195 
L 230.049772 76.042886 
L 229.170394 74.896859 
L 228.19448 73.831836 
L 227.129457 72.855922 
L 225.98343 71.976544 
L 224.765121 71.200396 
L 223.483802 70.533384 
L 222.149226 69.980584 
L 220.771548 69.546204 
L 219.361254 69.233549 
L 217.929076 69.044999 
L 216.485916 68.98199 
L 215.042755 69.044999 
L 213.610578 69.233549 
L 212.200284 69.546204 
L 210.822606 69.980584 
L 209.488029 70.533384 
L 208.20671 71.200396 
L 206.988401 71.976544 
L 205.842374 72.855922 
L 204.777351 73.831836 
L 203.801437 74.896859 
L 202.922059 76.042886 
L 202.145911 77.261195 
L 201.478899 78.542514 
L 200.926099 79.87709 
L 200.491719 81.254768 
L 200.179064 82.665063 
L 199.990514 84.09724 
L 199.927505 85.540401 
L 199.990514 86.983561 
L 200.179064 88.415738 
L 200.491719 89.826033 
L 200.926099 91.203711 
L 201.478899 92.538287 
L 202.145911 93.819606 
L 202.922059 95.037915 
L 203.801437 96.183942 
L 204.777351 97.248965 
L 205.842374 98.224879 
L 206.988401 99.104257 
L 208.20671 99.880405 
L 209.488029 100.547417 
L 210.822606 101.100217 
L 212.200284 101.534597 
L 213.610578 101.847252 
L 215.042755 102.035802 
L 216.485916 102.098812 
L 217.929076 102.035802 
L 219.361254 101.847252 
L 220.771548 101.534597 
L 222.149226 101.100217 
L 223.483802 100.547417 
L 224.765121 99.880405 
L 225.98343 99.104257 
L 227.129457 98.224879 
L 228.19448 97.248965 
L 229.170394 96.183942 
L 230.049772 95.037915 
L 230.82592 93.819606 
L 231.492932 92.538287 
L 232.045732 91.203711 
L 232.480112 89.826033 
L 232.792767 88.415738 
L 232.981317 86.983561 
L 233.044327 85.540401 
z
" clip-path="url(#p29116f1b48)" style="fill: #477b9d"/>
    <path d="M 84.778413 85.339326 
L 85.285653 85.780162 
L 84.93615 86.182311 
L 84.42891 85.741475 
z
" clip-path="url(#p29116f1b48)" style="fill: #4c4c4c"/>
    <path d="M 83.916739 217.561155 
L 84.838374 218.148864 
L 85.896535 218.445956 
L 87.005497 218.428364 
L 88.075417 218.097511 
L 89.019618 217.480203 
L 89.761606 216.62645 
L 90.241269 215.605417 
L 90.419747 214.499823 
L 90.282583 213.399236 
L 89.840887 212.39282 
L 89.130444 211.562107 
L 85.605301 208.498445 
L 80.391596 214.497493 
z
" clip-path="url(#p29116f1b48)" style="fill: #477b9d"/>
    <path d="M 80.391596 214.497493 
L 85.605301 208.498445 
L 82.080158 205.434783 
L 81.158523 204.847074 
L 80.100361 204.549982 
L 78.9914 204.567574 
L 77.921479 204.898427 
L 76.977278 205.515735 
L 76.235291 206.369488 
L 75.755628 207.390521 
L 75.577149 208.496116 
L 75.714314 209.596702 
L 76.156009 210.603119 
L 76.866453 211.433831 
z
" clip-path="url(#p29116f1b48)" style="fill: #f03f37"/>
    <path d="M 105.300295 212.78183 
L 105.089789 212.95022 
L 104.907522 213.426726 
L 104.768261 214.172743 
L 104.683287 215.127834 
L 104.659485 216.214622 
L 104.698783 217.345063 
L 104.797998 218.427575 
L 104.949091 219.374459 
L 105.139822 220.109004 
L 105.354738 220.571702 
L 105.57643 220.725069 
L 123.202152 220.112336 
L 122.926017 212.169097 
z
" clip-path="url(#p29116f1b48)" style="fill: #477b9d"/>
    <path d="M 122.926017 212.169097 
L 123.202152 220.112336 
L 140.827874 219.499603 
L 141.038383 219.331212 
L 141.220651 218.854706 
L 141.359914 218.108689 
L 141.444889 217.153599 
L 141.468692 216.06681 
L 141.429393 214.93637 
L 141.330178 213.853858 
L 141.179084 212.906974 
L 140.988352 212.172429 
L 140.773433 211.70973 
L 140.551739 211.556364 
z
" clip-path="url(#p29116f1b48)" style="fill: #f03f37"/>
    <path d="M 106.234467 217.301403 
L 106.171457 215.858242 
L 105.982908 214.426065 
L 105.670253 213.015771 
L 105.235873 211.638093 
L 104.683073 210.303516 
L 104.016061 209.022197 
L 103.239912 207.803888 
L 102.360535 206.657861 
L 101.384621 205.592838 
L 100.319598 204.616924 
L 99.173571 203.737547 
L 97.955262 202.961398 
L 96.673943 202.294386 
L 95.339366 201.741586 
L 93.961688 201.307206 
L 92.551394 200.994551 
L 91.119217 200.806002 
L 89.676056 200.742992 
L 88.232896 200.806002 
L 86.800718 200.994551 
L 85.390424 201.307206 
L 84.012746 201.741586 
L 82.678169 202.294386 
L 81.396851 202.961398 
L 80.178542 203.737547 
L 79.032515 204.616924 
L 77.967492 205.592838 
L 76.991578 206.657861 
L 76.1122 207.803888 
L 75.336052 209.022197 
L 74.669039 210.303516 
L 74.11624 211.638093 
L 73.681859 213.015771 
L 73.369205 214.426065 
L 73.180655 215.858242 
L 73.117645 217.301403 
L 73.180655 218.744563 
L 73.369205 220.176741 
L 73.681859 221.587035 
L 74.11624 222.964713 
L 74.669039 224.29929 
L 75.336052 225.580608 
L 76.1122 226.798917 
L 76.991578 227.944944 
L 77.967492 229.009967 
L 79.032515 229.985881 
L 80.178542 230.865259 
L 81.396851 231.641407 
L 82.678169 232.30842 
L 84.012746 232.861219 
L 85.390424 233.2956 
L 86.800718 233.608254 
L 88.232896 233.796804 
L 89.676056 233.859814 
L 91.119217 233.796804 
L 92.551394 233.608254 
L 93.961688 233.2956 
L 95.339366 232.861219 
L 96.673943 232.30842 
L 97.955262 231.641407 
L 99.173571 230.865259 
L 100.319598 229.985881 
L 101.384621 229.009967 
L 102.360535 227.944944 
L 103.239912 226.798917 
L 104.016061 225.580608 
L 104.683073 224.29929 
L 105.235873 222.964713 
L 105.670253 221.587035 
L 105.982908 220.176741 
L 106.171457 218.744563 
L 106.234467 217.301403 
z
" clip-path="url(#p29116f1b48)" style="fill: #477b9d"/>
    <path d="M 85.285653 85.780162 
L 86.603436 86.925433 
L 86.253933 87.327582 
L 84.93615 86.182311 
z
" clip-path="url(#p29116f1b48)" style="fill: #4c4c4c"/>
    <path d="M 200.258313 86.371091 
L 166.079728 87.559259 
L 166.061217 87.026781 
L 200.239802 85.838612 
z
" clip-path="url(#p29116f1b48)" style="fill: #4c4c4c"/>
    <path d="M 89.409656 200.995047 
L 89.409656 166.670167 
L 89.942456 166.670167 
L 89.942456 200.995047 
z
" clip-path="url(#p29116f1b48)" style="fill: #4c4c4c"/>
    <path d="M 200.861689 90.059973 
L 201.0722 89.891582 
L 201.254471 89.415076 
L 201.393735 88.669059 
L 201.478711 87.713968 
L 201.502514 86.62718 
L 201.463216 85.496739 
L 201.364001 84.414228 
L 201.212905 83.467344 
L 201.022171 82.732798 
L 200.80725 82.2701 
L 200.585554 82.116734 
L 182.959826 82.729467 
L 183.235961 90.672706 
z
" clip-path="url(#p29116f1b48)" style="fill: #477b9d"/>
    <path d="M 183.235961 90.672706 
L 182.959826 82.729467 
L 165.334097 83.3422 
L 165.123589 83.510591 
L 164.94132 83.987097 
L 164.802057 84.733114 
L 164.717082 85.688205 
L 164.693279 86.774993 
L 164.732578 87.905434 
L 164.831793 88.987945 
L 164.982887 89.934829 
L 165.17362 90.669375 
L 165.388539 91.132073 
L 165.610233 91.285439 
z
" clip-path="url(#p29116f1b48)" style="fill: #f03f37"/>
    <path d="M 166.327715 87.744581 
L 166.277307 86.590052 
L 166.126467 85.444311 
L 165.876343 84.316075 
L 165.528839 83.213933 
L 165.086599 82.146271 
L 164.55299 81.121217 
L 163.932071 80.146569 
L 163.228569 79.229748 
L 162.447838 78.377729 
L 161.595819 77.596998 
L 160.678997 76.893496 
L 159.70435 76.272577 
L 158.679295 75.738967 
L 157.611634 75.296728 
L 156.509492 74.949223 
L 155.381256 74.6991 
L 154.235514 74.54826 
L 153.080986 74.497852 
L 151.926457 74.54826 
L 150.780716 74.6991 
L 149.65248 74.949223 
L 148.550338 75.296728 
L 147.482676 75.738967 
L 146.457622 76.272577 
L 145.482974 76.893496 
L 144.566153 77.596998 
L 143.714134 78.377729 
L 142.933403 79.229748 
L 142.229901 80.146569 
L 141.608982 81.121217 
L 141.075373 82.146271 
L 140.633133 83.213933 
L 140.285629 84.316075 
L 140.035505 85.444311 
L 139.884665 86.590052 
L 139.834257 87.744581 
L 139.884665 88.899109 
L 140.035505 90.044851 
L 140.285629 91.173087 
L 140.633133 92.275229 
L 141.075373 93.34289 
L 141.608982 94.367945 
L 142.229901 95.342592 
L 142.933403 96.259414 
L 143.714134 97.111433 
L 144.566153 97.892164 
L 145.482974 98.595666 
L 146.457622 99.216585 
L 147.482676 99.750194 
L 148.550338 100.192434 
L 149.65248 100.539938 
L 150.780716 100.790062 
L 151.926457 100.940902 
L 153.080986 100.99131 
L 154.235514 100.940902 
L 155.381256 100.790062 
L 156.509492 100.539938 
L 157.611634 100.192434 
L 158.679295 99.750194 
L 159.70435 99.216585 
L 160.678997 98.595666 
L 161.595819 97.892164 
L 162.447838 97.111433 
L 163.228569 96.259414 
L 163.932071 95.342592 
L 164.55299 94.367945 
L 165.086599 93.34289 
L 165.528839 92.275229 
L 165.876343 91.173087 
L 166.126467 90.044851 
L 166.277307 88.899109 
L 166.327715 87.744581 
z
" clip-path="url(#p29116f1b48)" style="fill: #f03f37"/>
    <path d="M 85.702038 201.471641 
L 85.863013 201.666252 
L 86.332899 201.845096 
L 87.073627 201.993685 
L 88.025189 202.099982 
L 89.110494 202.155374 
L 90.241618 202.155374 
L 91.326923 202.099982 
L 92.278485 201.993685 
L 93.019213 201.845096 
L 93.489099 201.666252 
L 93.650075 201.471641 
L 93.650075 183.77047 
L 85.702038 183.77047 
z
" clip-path="url(#p29116f1b48)" style="fill: #477b9d"/>
    <path d="M 85.702038 183.77047 
L 93.650075 183.77047 
L 93.650075 166.069299 
L 93.489099 165.87469 
L 93.019213 165.695848 
L 92.278485 165.54726 
L 91.326923 165.440965 
L 90.241618 165.385573 
L 89.110494 165.385573 
L 88.025189 165.440965 
L 87.073627 165.54726 
L 86.332899 165.695848 
L 85.863013 165.87469 
L 85.702038 166.069299 
z
" clip-path="url(#p29116f1b48)" style="fill: #f03f37"/>
    <path d="M 102.922785 153.625082 
L 102.872377 152.470554 
L 102.721537 151.324812 
L 102.471414 150.196576 
L 102.12391 149.094434 
L 101.68167 148.026773 
L 101.14806 147.001718 
L 100.527141 146.027071 
L 99.823639 145.110249 
L 99.042908 144.25823 
L 98.190889 143.477499 
L 97.274068 142.773997 
L 96.299421 142.153078 
L 95.274366 141.619469 
L 94.206704 141.177229 
L 93.104562 140.829725 
L 91.976327 140.579601 
L 90.830585 140.428761 
L 89.676056 140.378353 
L 88.521528 140.428761 
L 87.375786 140.579601 
L 86.247551 140.829725 
L 85.145408 141.177229 
L 84.077747 141.619469 
L 83.052692 142.153078 
L 82.078045 142.773997 
L 81.161223 143.477499 
L 80.309205 144.25823 
L 79.528473 145.110249 
L 78.824971 146.027071 
L 78.204053 147.001718 
L 77.670443 148.026773 
L 77.228203 149.094434 
L 76.880699 150.196576 
L 76.630575 151.324812 
L 76.479735 152.470554 
L 76.429327 153.625082 
L 76.479735 154.77961 
L 76.630575 155.925352 
L 76.880699 157.053588 
L 77.228203 158.15573 
L 77.670443 159.223391 
L 78.204053 160.248446 
L 78.824971 161.223093 
L 79.528473 162.139915 
L 80.309205 162.991934 
L 81.161223 163.772665 
L 82.078045 164.476167 
L 83.052692 165.097086 
L 84.077747 165.630695 
L 85.145408 166.072935 
L 86.247551 166.420439 
L 87.375786 166.670563 
L 88.521528 166.821403 
L 89.676056 166.871811 
L 90.830585 166.821403 
L 91.976327 166.670563 
L 93.104562 166.420439 
L 94.206704 166.072935 
L 95.274366 165.630695 
L 96.299421 165.097086 
L 97.274068 164.476167 
L 98.190889 163.772665 
L 99.042908 162.991934 
L 99.823639 162.139915 
L 100.527141 161.223093 
L 101.14806 160.248446 
L 101.68167 159.223391 
L 102.12391 158.15573 
L 102.471414 157.053588 
L 102.721537 155.925352 
L 102.872377 154.77961 
L 102.922785 153.625082 
z
" clip-path="url(#p29116f1b48)" style="fill: #f03f37"/>
    <path d="M 140.100755 88.462381 
L 105.922169 89.65055 
L 105.903659 89.118071 
L 140.082244 87.929902 
z
" clip-path="url(#p29116f1b48)" style="fill: #4c4c4c"/>
    <path d="M 89.409656 140.579997 
L 89.409656 106.255117 
L 89.942456 106.255117 
L 89.942456 140.579997 
z
" clip-path="url(#p29116f1b48)" style="fill: #4c4c4c"/>
    <path d="M 83.916769 90.20854 
L 84.838404 90.796249 
L 85.896566 91.093341 
L 87.005528 91.075749 
L 88.075449 90.744897 
L 89.01965 90.127589 
L 89.761637 89.273835 
L 90.2413 88.252802 
L 90.419779 87.147208 
L 90.282614 86.046621 
L 89.840917 85.040204 
L 89.130474 84.209492 
L 85.605304 81.145806 
L 80.391599 87.144854 
z
" clip-path="url(#p29116f1b48)" style="fill: #477b9d"/>
    <path d="M 80.391599 87.144854 
L 85.605304 81.145806 
L 82.080134 78.082121 
L 81.158499 77.494412 
L 80.100337 77.197319 
L 78.991375 77.214911 
L 77.921454 77.545763 
L 76.977253 78.163071 
L 76.235265 79.016825 
L 75.755603 80.037858 
L 75.577124 81.143452 
L 75.714289 82.24404 
L 76.155986 83.250457 
L 76.866429 84.081169 
z
" clip-path="url(#p29116f1b48)" style="fill: #f03f37"/>
    <path d="M 105.300295 85.429188 
L 105.089788 85.597579 
L 104.907521 86.074085 
L 104.76826 86.820102 
L 104.683286 87.775192 
L 104.659484 88.861981 
L 104.698782 89.992421 
L 104.797997 91.074933 
L 104.94909 92.021817 
L 105.139821 92.756363 
L 105.354738 93.219061 
L 105.57643 93.372427 
L 123.202152 92.759694 
L 122.926017 84.816455 
z
" clip-path="url(#p29116f1b48)" style="fill: #477b9d"/>
    <path d="M 122.926017 84.816455 
L 123.202152 92.759694 
L 140.827874 92.146962 
L 141.038383 91.978571 
L 141.220652 91.502065 
L 141.359915 90.756048 
L 141.44489 89.800957 
L 141.468692 88.714169 
L 141.429394 87.583728 
L 141.330179 86.501216 
L 141.179085 85.554332 
L 140.988352 84.819787 
L 140.773433 84.357089 
L 140.551739 84.203723 
z
" clip-path="url(#p29116f1b48)" style="fill: #f03f37"/>
    <path d="M 93.650075 105.778534 
L 93.489099 105.583927 
L 93.019213 105.405087 
L 92.278485 105.256501 
L 91.326923 105.150207 
L 90.241618 105.094816 
L 89.110494 105.094816 
L 88.025189 105.150207 
L 87.073627 105.256501 
L 86.332899 105.405087 
L 85.863013 105.583927 
L 85.702038 105.778534 
L 85.702038 123.479699 
L 93.650075 123.479699 
z
" clip-path="url(#p29116f1b48)" style="fill: #477b9d"/>
    <path d="M 93.650075 123.479699 
L 85.702038 123.479699 
L 85.702038 141.180865 
L 85.863013 141.375474 
L 86.332899 141.554316 
L 87.073627 141.702904 
L 88.025189 141.809199 
L 89.110494 141.864591 
L 90.241618 141.864591 
L 91.326923 141.809199 
L 92.278485 141.702904 
L 93.019213 141.554316 
L 93.489099 141.375474 
L 93.650075 141.180865 
z
" clip-path="url(#p29116f1b48)" style="fill: #f03f37"/>
    <path d="M 106.234467 89.948761 
L 106.171457 88.505601 
L 105.982908 87.073423 
L 105.670253 85.663129 
L 105.235873 84.285451 
L 104.683073 82.950874 
L 104.016061 81.669556 
L 103.239912 80.451247 
L 102.360535 79.30522 
L 101.384621 78.240197 
L 100.319598 77.264283 
L 99.173571 76.384905 
L 97.955262 75.608757 
L 96.673943 74.941744 
L 95.339366 74.388945 
L 93.961688 73.954564 
L 92.551394 73.64191 
L 91.119217 73.45336 
L 89.676056 73.39035 
L 88.232896 73.45336 
L 86.800718 73.64191 
L 85.390424 73.954564 
L 84.012746 74.388945 
L 82.678169 74.941744 
L 81.396851 75.608757 
L 80.178542 76.384905 
L 79.032515 77.264283 
L 77.967492 78.240197 
L 76.991578 79.30522 
L 76.1122 80.451247 
L 75.336052 81.669556 
L 74.669039 82.950874 
L 74.11624 84.285451 
L 73.681859 85.663129 
L 73.369205 87.073423 
L 73.180655 88.505601 
L 73.117645 89.948761 
L 73.180655 91.391922 
L 73.369205 92.824099 
L 73.681859 94.234393 
L 74.11624 95.612071 
L 74.669039 96.946648 
L 75.336052 98.227967 
L 76.1122 99.446276 
L 76.991578 100.592303 
L 77.967492 101.657326 
L 79.032515 102.63324 
L 80.178542 103.512617 
L 81.396851 104.288766 
L 82.678169 104.955778 
L 84.012746 105.508578 
L 85.390424 105.942958 
L 86.800718 106.255613 
L 88.232896 106.444162 
L 89.676056 106.507172 
L 91.119217 106.444162 
L 92.551394 106.255613 
L 93.961688 105.942958 
L 95.339366 105.508578 
L 96.673943 104.955778 
L 97.955262 104.288766 
L 99.173571 103.512617 
L 100.319598 102.63324 
L 101.384621 101.657326 
L 102.360535 100.592303 
L 103.239912 99.446276 
L 104.016061 98.227967 
L 104.683073 96.946648 
L 105.235873 95.612071 
L 105.670253 94.234393 
L 105.982908 92.824099 
L 106.171457 91.391922 
L 106.234467 89.948761 
z
" clip-path="url(#p29116f1b48)" style="fill: #477b9d"/>
   </g>
   <g id="line2d_1">
    <path d="M 37.836 242.964 
L 37.836 232.470207 
" clip-path="url(#p29116f1b48)" style="fill: none; stroke: #4c4c4c; stroke-width: 1; stroke-linecap: round"/>
   </g>
   <g id="line2d_2">
    <path d="M 37.836 242.964 
L 27.386932 243.327247 
" clip-path="url(#p29116f1b48)" style="fill: none; stroke: #4c4c4c; stroke-width: 1; stroke-linecap: round"/>
   </g>
   <g id="line2d_3">
    <path d="M 37.836 242.964 
L 39.925814 244.780233 
" clip-path="url(#p29116f1b48)" style="fill: none; stroke: #4c4c4c; stroke-width: 1; stroke-linecap: round"/>
   </g>
   <g id="text_1">
    <path d="M 35.541469 224.766601 
L 35.541469 231.907226 
L 36.391469 231.907226 
L 36.391469 231.216601 
L 36.411781 231.216601 
Q 36.550844 231.447851 36.755531 231.602538 
Q 36.961781 231.757226 37.191469 231.847851 
Q 37.421156 231.936913 37.655531 231.975976 
Q 37.891469 232.016601 38.080531 232.016601 
Q 38.671156 232.016601 39.116469 231.807226 
Q 39.561781 231.597851 39.855531 231.232226 
Q 40.150844 230.866601 40.296156 230.377538 
Q 40.441469 229.886913 40.441469 229.336913 
Q 40.441469 228.786913 40.291469 228.297851 
Q 40.141469 227.807226 39.846156 227.432226 
Q 39.550844 227.057226 39.105531 226.836913 
Q 38.661781 226.616601 38.061781 226.616601 
Q 37.521156 226.616601 37.071156 226.811913 
Q 36.621156 227.007226 36.411781 227.436913 
L 36.391469 227.436913 
L 36.391469 224.766601 
L 35.541469 224.766601 
z
M 39.541469 229.277538 
Q 39.541469 229.657226 39.460219 230.018163 
Q 39.380531 230.377538 39.200844 230.657226 
Q 39.021156 230.936913 38.725844 231.107226 
Q 38.430531 231.277538 37.991469 231.277538 
Q 37.550844 231.277538 37.239906 231.113476 
Q 36.930531 230.947851 36.735219 230.677538 
Q 36.541469 230.407226 36.450844 230.052538 
Q 36.361781 229.697851 36.361781 229.316601 
Q 36.361781 228.957226 36.446156 228.607226 
Q 36.530531 228.257226 36.721156 227.982226 
Q 36.911781 227.707226 37.211781 227.536913 
Q 37.511781 227.366601 37.941469 227.366601 
Q 38.350844 227.366601 38.655531 227.527538 
Q 38.961781 227.686913 39.155531 227.957226 
Q 39.350844 228.227538 39.446156 228.572851 
Q 39.541469 228.916601 39.541469 229.277538 
z
" style="fill: #4c4c4c; stroke: #ffffff; stroke-width: 3"/>
    <path d="M 35.541469 224.766601 
L 35.541469 231.907226 
L 36.391469 231.907226 
L 36.391469 231.216601 
L 36.411781 231.216601 
Q 36.550844 231.447851 36.755531 231.602538 
Q 36.961781 231.757226 37.191469 231.847851 
Q 37.421156 231.936913 37.655531 231.975976 
Q 37.891469 232.016601 38.080531 232.016601 
Q 38.671156 232.016601 39.116469 231.807226 
Q 39.561781 231.597851 39.855531 231.232226 
Q 40.150844 230.866601 40.296156 230.377538 
Q 40.441469 229.886913 40.441469 229.336913 
Q 40.441469 228.786913 40.291469 228.297851 
Q 40.141469 227.807226 39.846156 227.432226 
Q 39.550844 227.057226 39.105531 226.836913 
Q 38.661781 226.616601 38.061781 226.616601 
Q 37.521156 226.616601 37.071156 226.811913 
Q 36.621156 227.007226 36.411781 227.436913 
L 36.391469 227.436913 
L 36.391469 224.766601 
L 35.541469 224.766601 
z
M 39.541469 229.277538 
Q 39.541469 229.657226 39.460219 230.018163 
Q 39.380531 230.377538 39.200844 230.657226 
Q 39.021156 230.936913 38.725844 231.107226 
Q 38.430531 231.277538 37.991469 231.277538 
Q 37.550844 231.277538 37.239906 231.113476 
Q 36.930531 230.947851 36.735219 230.677538 
Q 36.541469 230.407226 36.450844 230.052538 
Q 36.361781 229.697851 36.361781 229.316601 
Q 36.361781 228.957226 36.446156 228.607226 
Q 36.530531 228.257226 36.721156 227.982226 
Q 36.911781 227.707226 37.211781 227.536913 
Q 37.511781 227.366601 37.941469 227.366601 
Q 38.350844 227.366601 38.655531 227.527538 
Q 38.961781 227.686913 39.155531 227.957226 
Q 39.350844 228.227538 39.446156 228.572851 
Q 39.541469 228.916601 39.541469 229.277538 
z
" style="fill: #4c4c4c"/>
   </g>
   <g id="text_2">
    <path d="M 25.717056 242.512002 
L 26.596743 242.512002 
Q 26.546743 242.051064 26.356118 241.716689 
Q 26.167056 241.380752 25.871743 241.162002 
Q 25.576431 240.941689 25.192056 240.837002 
Q 24.807681 240.730752 24.367056 240.730752 
Q 23.757681 240.730752 23.296743 240.946377 
Q 22.837368 241.162002 22.531118 241.537002 
Q 22.226431 241.912002 22.076431 242.416689 
Q 21.926431 242.921377 21.926431 243.501064 
Q 21.926431 244.080752 22.081118 244.566689 
Q 22.237368 245.051064 22.542056 245.401064 
Q 22.846743 245.751064 23.301431 245.941689 
Q 23.757681 246.130752 24.346743 246.130752 
Q 25.337368 246.130752 25.912368 245.612002 
Q 26.487368 245.091689 26.626431 244.130752 
L 25.757681 244.130752 
Q 25.676431 244.730752 25.321743 245.062002 
Q 24.967056 245.391689 24.337368 245.391689 
Q 23.937368 245.391689 23.646743 245.232314 
Q 23.357681 245.071377 23.176431 244.807314 
Q 22.996743 244.541689 22.910806 244.202627 
Q 22.826431 243.862002 22.826431 243.501064 
Q 22.826431 243.112002 22.906118 242.746377 
Q 22.987368 242.380752 23.171743 242.101064 
Q 23.357681 241.821377 23.667056 241.651064 
Q 23.976431 241.480752 24.437368 241.480752 
Q 24.976431 241.480752 25.296743 241.751064 
Q 25.617056 242.021377 25.717056 242.512002 
z
" style="fill: #4c4c4c; stroke: #ffffff; stroke-width: 3"/>
    <path d="M 25.717056 242.512002 
L 26.596743 242.512002 
Q 26.546743 242.051064 26.356118 241.716689 
Q 26.167056 241.380752 25.871743 241.162002 
Q 25.576431 240.941689 25.192056 240.837002 
Q 24.807681 240.730752 24.367056 240.730752 
Q 23.757681 240.730752 23.296743 240.946377 
Q 22.837368 241.162002 22.531118 241.537002 
Q 22.226431 241.912002 22.076431 242.416689 
Q 21.926431 242.921377 21.926431 243.501064 
Q 21.926431 244.080752 22.081118 244.566689 
Q 22.237368 245.051064 22.542056 245.401064 
Q 22.846743 245.751064 23.301431 245.941689 
Q 23.757681 246.130752 24.346743 246.130752 
Q 25.337368 246.130752 25.912368 245.612002 
Q 26.487368 245.091689 26.626431 244.130752 
L 25.757681 244.130752 
Q 25.676431 244.730752 25.321743 245.062002 
Q 24.967056 245.391689 24.337368 245.391689 
Q 23.937368 245.391689 23.646743 245.232314 
Q 23.357681 245.071377 23.176431 244.807314 
Q 22.996743 244.541689 22.910806 244.202627 
Q 22.826431 243.862002 22.826431 243.501064 
Q 22.826431 243.112002 22.906118 242.746377 
Q 22.987368 242.380752 23.171743 242.101064 
Q 23.357681 241.821377 23.667056 241.651064 
Q 23.976431 241.480752 24.437368 241.480752 
Q 24.976431 241.480752 25.296743 241.751064 
Q 25.617056 242.021377 25.717056 242.512002 
z
" style="fill: #4c4c4c"/>
   </g>
   <g id="text_3">
    <path d="M 43.431411 248.495811 
Q 43.211098 248.625499 42.820473 248.625499 
Q 42.490786 248.625499 42.295473 248.441124 
Q 42.101723 248.256749 42.101723 247.836436 
Q 41.751723 248.256749 41.286098 248.441124 
Q 40.820473 248.625499 40.281411 248.625499 
Q 39.931411 248.625499 39.615786 248.545811 
Q 39.301723 248.466124 39.070473 248.295811 
Q 38.840786 248.125499 38.704848 247.850499 
Q 38.570473 247.575499 38.570473 247.186436 
Q 38.570473 246.745811 38.720473 246.466124 
Q 38.870473 246.186436 39.115786 246.011436 
Q 39.361098 245.836436 39.675161 245.747374 
Q 39.990786 245.656749 40.320473 245.595811 
Q 40.670473 245.525499 40.986098 245.491124 
Q 41.301723 245.456749 41.540786 245.391124 
Q 41.781411 245.325499 41.920473 245.200499 
Q 42.061098 245.075499 42.061098 244.836436 
Q 42.061098 244.556749 41.956411 244.386436 
Q 41.851723 244.216124 41.686098 244.127061 
Q 41.520473 244.036436 41.315786 244.006749 
Q 41.111098 243.975499 40.911098 243.975499 
Q 40.370473 243.975499 40.011098 244.181749 
Q 39.651723 244.386436 39.620473 244.956749 
L 38.770473 244.956749 
Q 38.790786 244.475499 38.970473 244.145811 
Q 39.151723 243.816124 39.451723 243.611436 
Q 39.751723 243.406749 40.136098 243.316124 
Q 40.520473 243.225499 40.961098 243.225499 
Q 41.311098 243.225499 41.656411 243.275499 
Q 42.001723 243.325499 42.281411 243.481749 
Q 42.561098 243.636436 42.731411 243.916124 
Q 42.901723 244.195811 42.901723 244.645811 
L 42.901723 247.306749 
Q 42.901723 247.606749 42.936098 247.747374 
Q 42.970473 247.886436 43.170473 247.886436 
Q 43.281411 247.886436 43.431411 247.836436 
L 43.431411 248.495811 
z
M 42.051723 245.845811 
Q 41.890786 245.966124 41.629848 246.020811 
Q 41.370473 246.075499 41.086098 246.111436 
Q 40.801723 246.145811 40.511098 246.191124 
Q 40.220473 246.236436 39.990786 246.336436 
Q 39.761098 246.436436 39.615786 246.622374 
Q 39.470473 246.806749 39.470473 247.125499 
Q 39.470473 247.336436 39.554848 247.481749 
Q 39.640786 247.625499 39.775161 247.716124 
Q 39.911098 247.806749 40.090786 247.847374 
Q 40.270473 247.886436 40.470473 247.886436 
Q 40.890786 247.886436 41.190786 247.772374 
Q 41.490786 247.656749 41.679848 247.481749 
Q 41.870473 247.306749 41.961098 247.102061 
Q 42.051723 246.895811 42.051723 246.716124 
L 42.051723 245.845811 
z
" style="fill: #4c4c4c; stroke: #ffffff; stroke-width: 3"/>
    <path d="M 43.431411 248.495811 
Q 43.211098 248.625499 42.820473 248.625499 
Q 42.490786 248.625499 42.295473 248.441124 
Q 42.101723 248.256749 42.101723 247.836436 
Q 41.751723 248.256749 41.286098 248.441124 
Q 40.820473 248.625499 40.281411 248.625499 
Q 39.931411 248.625499 39.615786 248.545811 
Q 39.301723 248.466124 39.070473 248.295811 
Q 38.840786 248.125499 38.704848 247.850499 
Q 38.570473 247.575499 38.570473 247.186436 
Q 38.570473 246.745811 38.720473 246.466124 
Q 38.870473 246.186436 39.115786 246.011436 
Q 39.361098 245.836436 39.675161 245.747374 
Q 39.990786 245.656749 40.320473 245.595811 
Q 40.670473 245.525499 40.986098 245.491124 
Q 41.301723 245.456749 41.540786 245.391124 
Q 41.781411 245.325499 41.920473 245.200499 
Q 42.061098 245.075499 42.061098 244.836436 
Q 42.061098 244.556749 41.956411 244.386436 
Q 41.851723 244.216124 41.686098 244.127061 
Q 41.520473 244.036436 41.315786 244.006749 
Q 41.111098 243.975499 40.911098 243.975499 
Q 40.370473 243.975499 40.011098 244.181749 
Q 39.651723 244.386436 39.620473 244.956749 
L 38.770473 244.956749 
Q 38.790786 244.475499 38.970473 244.145811 
Q 39.151723 243.816124 39.451723 243.611436 
Q 39.751723 243.406749 40.136098 243.316124 
Q 40.520473 243.225499 40.961098 243.225499 
Q 41.311098 243.225499 41.656411 243.275499 
Q 42.001723 243.325499 42.281411 243.481749 
Q 42.561098 243.636436 42.731411 243.916124 
Q 42.901723 244.195811 42.901723 244.645811 
L 42.901723 247.306749 
Q 42.901723 247.606749 42.936098 247.747374 
Q 42.970473 247.886436 43.170473 247.886436 
Q 43.281411 247.886436 43.431411 247.836436 
L 43.431411 248.495811 
z
M 42.051723 245.845811 
Q 41.890786 245.966124 41.629848 246.020811 
Q 41.370473 246.075499 41.086098 246.111436 
Q 40.801723 246.145811 40.511098 246.191124 
Q 40.220473 246.236436 39.990786 246.336436 
Q 39.761098 246.436436 39.615786 246.622374 
Q 39.470473 246.806749 39.470473 247.125499 
Q 39.470473 247.336436 39.554848 247.481749 
Q 39.640786 247.625499 39.775161 247.716124 
Q 39.911098 247.806749 40.090786 247.847374 
Q 40.270473 247.886436 40.470473 247.886436 
Q 40.890786 247.886436 41.190786 247.772374 
Q 41.490786 247.656749 41.679848 247.481749 
Q 41.870473 247.306749 41.961098 247.102061 
Q 42.051723 246.895811 42.051723 246.716124 
L 42.051723 245.845811 
z
" style="fill: #4c4c4c"/>
   </g>
  </g>
 </g>
 <defs>
  <clipPath id="p29116f1b48">
   <rect x="7.2" y="7.2" width="266.4" height="266.4"/>
  </clipPath>
 </defs>
</svg>
