<?xml version="1.0" encoding="utf-8" standalone="no"?>
<!DOCTYPE svg PUBLIC "-//W3C//DTD SVG 1.1//EN"
  "http://www.w3.org/Graphics/SVG/1.1/DTD/svg11.dtd">
<svg xmlns:xlink="http://www.w3.org/1999/xlink" width="280.8pt" height="280.8pt" viewBox="0 0 280.8 280.8" xmlns="http://www.w3.org/2000/svg" version="1.1">
 <metadata>
  <rdf:RDF xmlns:dc="http://purl.org/dc/elements/1.1/" xmlns:cc="http://creativecommons.org/ns#" xmlns:rdf="http://www.w3.org/1999/02/22-rdf-syntax-ns#">
   <cc:Work>
    <dc:type rdf:resource="http://purl.org/dc/dcmitype/StillImage"/>
    <dc:date>2026-02-16T17:45:25.501165</dc:date>
    <dc:format>image/svg+xml</dc:format>
    <dc:creator>
     <cc:Agent>
      <dc:title>Matplotlib v3.10.7, https://matplotlib.org/</dc:title>
     </cc:Agent>
    </dc:creator>
   </cc:Work>
  </rdf:RDF>
 </metadata>
 <defs>
  <style type="text/css">*{stroke-linejoin: round; stroke-linecap: butt}</style>
 </defs>
 <g id="figure_1">
  <g id="patch_1">
   <path d="M 0 280.8 
L 280.8 280.8 
L 280.8 0 
L 0 0 
z
" style="fill: #ffffff"/>
  </g>
  <g id="axes_1">
   <g id="PolyCollection_1">
    <path d="M 211.812349 183.372431 
L 211.705011 180.913973 
L 211.383812 178.474226 
L 210.851197 176.071756 
L 210.111221 173.72485 
L 209.169513 171.451367 
L 208.033242 169.268611 
L 206.711056 167.193194 
L 205.213016 165.24091 
L 203.550523 163.426618 
L 201.736231 161.764126 
L 199.783947 160.266085 
L 197.70853 158.943899 
L 195.525774 157.807628 
L 193.252291 156.86592 
L 190.905385 156.125944 
L 188.502915 155.593329 
L 186.063168 155.27213 
L 183.60471 155.164792 
L 181.146253 155.27213 
L 178.706505 155.593329 
L 176.304036 156.125944 
L 173.95713 156.86592 
L 171.683647 157.807628 
L 169.500891 158.943899 
L 167.425473 160.266085 
L 165.473189 161.764126 
L 163.658897 163.426618 
L 161.996405 165.24091 
L 160.498365 167.193194 
L 159.176178 169.268611 
L 158.039907 171.451367 
L 157.0982 173.72485 
L 156.358223 176.071756 
L 155.825609 178.474226 
L 155.50441 180.913973 
L 155.397071 183.372431 
L 155.50441 185.830888 
L 155.825609 188.270636 
L 156.358223 190.673105 
L 157.0982 193.020011 
L 158.039907 195.293494 
L 159.176178 197.47625 
L 160.498365 199.551668 
L 161.996405 201.503952 
L 163.658897 203.318244 
L 165.473189 204.980736 
L 167.425473 206.478776 
L 169.500891 207.800963 
L 171.683647 208.937234 
L 173.95713 209.878941 
L 176.304036 210.618918 
L 178.706505 211.151532 
L 181.146253 211.472731 
L 183.60471 211.58007 
L 186.063168 211.472731 
L 188.502915 211.151532 
L 190.905385 210.618918 
L 193.252291 209.878941 
L 195.525774 208.937234 
L 197.70853 207.800963 
L 199.783947 206.478776 
L 201.736231 204.980736 
L 203.550523 203.318244 
L 205.213016 201.503952 
L 206.711056 199.551668 
L 208.033242 197.47625 
L 209.169513 195.293494 
L 210.111221 193.020011 
L 210.851197 190.673105 
L 211.383812 188.270636 
L 211.705011 185.830888 
L 211.812349 183.372431 
z
" clip-path="url(#p9496fd349b)" style="fill: #3366e6; stroke: #262626"/>
    <path d="M 183.33831 155.594173 
L 183.33831 151.357989 
L 183.87111 151.357989 
L 183.87111 155.594173 
z
" clip-path="url(#p9496fd349b)" style="fill: #4c4c4c"/>
    <path d="M 155.9541 184.600225 
L 151.73597 184.746862 
L 151.71746 184.214384 
L 155.935589 184.067747 
z
" clip-path="url(#p9496fd349b)" style="fill: #4c4c4c"/>
    <path d="M 206.170822 129.135382 
L 206.084951 127.168616 
L 205.827992 125.216818 
L 205.4019 123.294843 
L 204.809919 121.417318 
L 204.056553 119.598532 
L 203.147536 117.852327 
L 202.089787 116.191993 
L 200.891354 114.630166 
L 199.561361 113.178732 
L 198.109927 111.848738 
L 196.5481 110.650306 
L 194.887766 109.592557 
L 193.141561 108.68354 
L 191.322775 107.930174 
L 189.44525 107.338193 
L 187.523274 106.912101 
L 185.571477 106.655142 
L 183.60471 106.569271 
L 181.637944 106.655142 
L 179.686146 106.912101 
L 177.764171 107.338193 
L 175.886646 107.930174 
L 174.06786 108.68354 
L 172.321655 109.592557 
L 170.661321 110.650306 
L 169.099494 111.848738 
L 167.64806 113.178732 
L 166.318066 114.630166 
L 165.119634 116.191993 
L 164.061885 117.852327 
L 163.152868 119.598532 
L 162.399502 121.417318 
L 161.807521 123.294843 
L 161.381429 125.216818 
L 161.12447 127.168616 
L 161.038599 129.135382 
L 161.12447 131.102148 
L 161.381429 133.053946 
L 161.807521 134.975922 
L 162.399502 136.853447 
L 163.152868 138.672233 
L 164.061885 140.418438 
L 165.119634 142.078772 
L 166.318066 143.640599 
L 167.64806 145.092033 
L 169.099494 146.422026 
L 170.661321 147.620458 
L 172.321655 148.678208 
L 174.06786 149.587225 
L 175.886646 150.34059 
L 177.764171 150.932572 
L 179.686146 151.358664 
L 181.637944 151.615623 
L 183.60471 151.701493 
L 185.571477 151.615623 
L 187.523274 151.358664 
L 189.44525 150.932572 
L 191.322775 150.34059 
L 193.141561 149.587225 
L 194.887766 148.678208 
L 196.5481 147.620458 
L 198.109927 146.422026 
L 199.561361 145.092033 
L 200.891354 143.640599 
L 202.089787 142.078772 
L 203.147536 140.418438 
L 204.056553 138.672233 
L 204.809919 136.853447 
L 205.4019 134.975922 
L 205.827992 133.053946 
L 206.084951 131.102148 
L 206.170822 129.135382 
z
" clip-path="url(#p9496fd349b)" style="fill: #e61a1a; stroke: #262626"/>
    <path d="M 152.164934 185.249867 
L 152.079063 183.283101 
L 151.822104 181.331303 
L 151.396012 179.409328 
L 150.804031 177.531802 
L 150.050665 175.713016 
L 149.141648 173.966811 
L 148.083899 172.306477 
L 146.885467 170.74465 
L 145.555473 169.293217 
L 144.104039 167.963223 
L 142.542212 166.764791 
L 140.881878 165.707041 
L 139.135673 164.798025 
L 137.316887 164.044659 
L 135.439362 163.452677 
L 133.517387 163.026586 
L 131.565589 162.769627 
L 129.598822 162.683756 
L 127.632056 162.769627 
L 125.680258 163.026586 
L 123.758283 163.452677 
L 121.880758 164.044659 
L 120.061972 164.798025 
L 118.315767 165.707041 
L 116.655433 166.764791 
L 115.093606 167.963223 
L 113.642172 169.293217 
L 112.312178 170.74465 
L 111.113746 172.306477 
L 110.055997 173.966811 
L 109.14698 175.713016 
L 108.393614 177.531802 
L 107.801633 179.409328 
L 107.375541 181.331303 
L 107.118582 183.283101 
L 107.032711 185.249867 
L 107.118582 187.216633 
L 107.375541 189.168431 
L 107.801633 191.090406 
L 108.393614 192.967932 
L 109.14698 194.786718 
L 110.055997 196.532923 
L 111.113746 198.193257 
L 112.312178 199.755084 
L 113.642172 201.206517 
L 115.093606 202.536511 
L 116.655433 203.734943 
L 118.315767 204.792693 
L 120.061972 205.701709 
L 121.880758 206.455075 
L 123.758283 207.047057 
L 125.680258 207.473148 
L 127.632056 207.730107 
L 129.598822 207.815978 
L 131.565589 207.730107 
L 133.517387 207.473148 
L 135.439362 207.047057 
L 137.316887 206.455075 
L 139.135673 205.701709 
L 140.881878 204.792693 
L 142.542212 203.734943 
L 144.104039 202.536511 
L 145.555473 201.206517 
L 146.885467 199.755084 
L 148.083899 198.193257 
L 149.141648 196.532923 
L 150.050665 194.786718 
L 150.804031 192.967932 
L 151.396012 191.090406 
L 151.822104 189.168431 
L 152.079063 187.216633 
L 152.164934 185.249867 
z
" clip-path="url(#p9496fd349b)" style="fill: #e61a1a; stroke: #262626"/>
    <path d="M 183.33831 106.912776 
L 183.33831 102.676592 
L 183.87111 102.676592 
L 183.87111 106.912776 
z
" clip-path="url(#p9496fd349b)" style="fill: #4c4c4c"/>
    <path d="M 107.480185 186.28535 
L 103.262056 186.431987 
L 103.243545 185.899509 
L 107.461674 185.752872 
z
" clip-path="url(#p9496fd349b)" style="fill: #4c4c4c"/>
    <path d="M 211.812349 74.898334 
L 211.705011 72.439876 
L 211.383812 70.000129 
L 210.851197 67.59766 
L 210.111221 65.250753 
L 209.169513 62.97727 
L 208.033242 60.794514 
L 206.711056 58.719097 
L 205.213016 56.766813 
L 203.550523 54.952521 
L 201.736231 53.290029 
L 199.783947 51.791989 
L 197.70853 50.469802 
L 195.525774 49.333531 
L 193.252291 48.391823 
L 190.905385 47.651847 
L 188.502915 47.119232 
L 186.063168 46.798033 
L 183.60471 46.690695 
L 181.146253 46.798033 
L 178.706505 47.119232 
L 176.304036 47.651847 
L 173.95713 48.391823 
L 171.683647 49.333531 
L 169.500891 50.469802 
L 167.425473 51.791989 
L 165.473189 53.290029 
L 163.658897 54.952521 
L 161.996405 56.766813 
L 160.498365 58.719097 
L 159.176178 60.794514 
L 158.039907 62.97727 
L 157.0982 65.250753 
L 156.358223 67.59766 
L 155.825609 70.000129 
L 155.50441 72.439876 
L 155.397071 74.898334 
L 155.50441 77.356792 
L 155.825609 79.796539 
L 156.358223 82.199008 
L 157.0982 84.545915 
L 158.039907 86.819397 
L 159.176178 89.002153 
L 160.498365 91.077571 
L 161.996405 93.029855 
L 163.658897 94.844147 
L 165.473189 96.506639 
L 167.425473 98.004679 
L 169.500891 99.326866 
L 171.683647 100.463137 
L 173.95713 101.404844 
L 176.304036 102.144821 
L 178.706505 102.677435 
L 181.146253 102.998634 
L 183.60471 103.105973 
L 186.063168 102.998634 
L 188.502915 102.677435 
L 190.905385 102.144821 
L 193.252291 101.404844 
L 195.525774 100.463137 
L 197.70853 99.326866 
L 199.783947 98.004679 
L 201.736231 96.506639 
L 203.550523 94.844147 
L 205.213016 93.029855 
L 206.711056 91.077571 
L 208.033242 89.002153 
L 209.169513 86.819397 
L 210.111221 84.545915 
L 210.851197 82.199008 
L 211.383812 79.796539 
L 211.705011 77.356792 
L 211.812349 74.898334 
z
" clip-path="url(#p9496fd349b)" style="fill: #3366e6; stroke: #262626"/>
    <path d="M 103.800574 187.127303 
L 103.693235 184.668846 
L 103.372036 182.229098 
L 102.839422 179.826629 
L 102.099445 177.479723 
L 101.157737 175.20624 
L 100.021466 173.023484 
L 98.69928 170.948066 
L 97.20124 168.995782 
L 95.538747 167.18149 
L 93.724455 165.518998 
L 91.772172 164.020958 
L 89.696754 162.698771 
L 87.513998 161.5625 
L 85.240515 160.620793 
L 82.893609 159.880816 
L 80.49114 159.348202 
L 78.051392 159.027003 
L 75.592934 158.919664 
L 73.134477 159.027003 
L 70.694729 159.348202 
L 68.29226 159.880816 
L 65.945354 160.620793 
L 63.671871 161.5625 
L 61.489115 162.698771 
L 59.413697 164.020958 
L 57.461414 165.518998 
L 55.647122 167.18149 
L 53.984629 168.995782 
L 52.486589 170.948066 
L 51.164402 173.023484 
L 50.028132 175.20624 
L 49.086424 177.479723 
L 48.346447 179.826629 
L 47.813833 182.229098 
L 47.492634 184.668846 
L 47.385295 187.127303 
L 47.492634 189.585761 
L 47.813833 192.025508 
L 48.346447 194.427978 
L 49.086424 196.774884 
L 50.028132 199.048367 
L 51.164402 201.231123 
L 52.486589 203.30654 
L 53.984629 205.258824 
L 55.647122 207.073116 
L 57.461414 208.735608 
L 59.413697 210.233649 
L 61.489115 211.555835 
L 63.671871 212.692106 
L 65.945354 213.633814 
L 68.29226 214.37379 
L 70.694729 214.906405 
L 73.134477 215.227604 
L 75.592934 215.334942 
L 78.051392 215.227604 
L 80.49114 214.906405 
L 82.893609 214.37379 
L 85.240515 213.633814 
L 87.513998 212.692106 
L 89.696754 211.555835 
L 91.772172 210.233649 
L 93.724455 208.735608 
L 95.538747 207.073116 
L 97.20124 205.258824 
L 98.69928 203.30654 
L 100.021466 201.231123 
L 101.157737 199.048367 
L 102.099445 196.774884 
L 102.839422 194.427978 
L 103.372036 192.025508 
L 103.693235 189.585761 
L 103.800574 187.127303 
z
" clip-path="url(#p9496fd349b)" style="fill: #3366e6; stroke: #262626"/>
    <path d="M 155.9541 76.126128 
L 151.73597 76.272765 
L 151.71746 75.740287 
L 155.935589 75.59365 
z
" clip-path="url(#p9496fd349b)" style="fill: #4c4c4c"/>
    <path d="M 75.326534 159.349045 
L 75.326534 155.112861 
L 75.859334 155.112861 
L 75.859334 159.349045 
z
" clip-path="url(#p9496fd349b)" style="fill: #4c4c4c"/>
    <path d="M 189.311435 187.979132 
L 189.828121 188.428178 
L 189.478618 188.830327 
L 188.961932 188.38128 
z
" clip-path="url(#p9496fd349b)" style="fill: #4c4c4c"/>
    <path d="M 152.164934 76.77577 
L 152.079063 74.809004 
L 151.822104 72.857206 
L 151.396012 70.935231 
L 150.804031 69.057705 
L 150.050665 67.238919 
L 149.141648 65.492714 
L 148.083899 63.83238 
L 146.885467 62.270553 
L 145.555473 60.81912 
L 144.104039 59.489126 
L 142.542212 58.290694 
L 140.881878 57.232944 
L 139.135673 56.323928 
L 137.316887 55.570562 
L 135.439362 54.97858 
L 133.517387 54.552489 
L 131.565589 54.29553 
L 129.598822 54.209659 
L 127.632056 54.29553 
L 125.680258 54.552489 
L 123.758283 54.97858 
L 121.880758 55.570562 
L 120.061972 56.323928 
L 118.315767 57.232944 
L 116.655433 58.290694 
L 115.093606 59.489126 
L 113.642172 60.81912 
L 112.312178 62.270553 
L 111.113746 63.83238 
L 110.055997 65.492714 
L 109.14698 67.238919 
L 108.393614 69.057705 
L 107.801633 70.935231 
L 107.375541 72.857206 
L 107.118582 74.809004 
L 107.032711 76.77577 
L 107.118582 78.742536 
L 107.375541 80.694334 
L 107.801633 82.616309 
L 108.393614 84.493835 
L 109.14698 86.312621 
L 110.055997 88.058826 
L 111.113746 89.71916 
L 112.312178 91.280987 
L 113.642172 92.73242 
L 115.093606 94.062414 
L 116.655433 95.260846 
L 118.315767 96.318596 
L 120.061972 97.227612 
L 121.880758 97.980978 
L 123.758283 98.57296 
L 125.680258 98.999051 
L 127.632056 99.25601 
L 129.598822 99.341881 
L 131.565589 99.25601 
L 133.517387 98.999051 
L 135.439362 98.57296 
L 137.316887 97.980978 
L 139.135673 97.227612 
L 140.881878 96.318596 
L 142.542212 95.260846 
L 144.104039 94.062414 
L 145.555473 92.73242 
L 146.885467 91.280987 
L 148.083899 89.71916 
L 149.141648 88.058826 
L 150.050665 86.312621 
L 150.804031 84.493835 
L 151.396012 82.616309 
L 151.822104 80.694334 
L 152.079063 78.742536 
L 152.164934 76.77577 
z
" clip-path="url(#p9496fd349b)" style="fill: #e61a1a; stroke: #262626"/>
    <path d="M 189.828121 188.428178 
L 190.044145 188.615922 
L 189.694642 189.01807 
L 189.478618 188.830327 
z
" clip-path="url(#p9496fd349b)" style="fill: #4c4c4c"/>
    <path d="M 98.159046 132.890255 
L 98.073175 130.923489 
L 97.816216 128.971691 
L 97.390124 127.049715 
L 96.798143 125.17219 
L 96.044777 123.353404 
L 95.13576 121.607199 
L 94.078011 119.946865 
L 92.879579 118.385038 
L 91.549585 116.933605 
L 90.098151 115.603611 
L 88.536324 114.405179 
L 86.87599 113.347429 
L 85.129785 112.438412 
L 83.310999 111.685047 
L 81.433474 111.093065 
L 79.511499 110.666974 
L 77.559701 110.410014 
L 75.592934 110.324144 
L 73.626168 110.410014 
L 71.67437 110.666974 
L 69.752395 111.093065 
L 67.87487 111.685047 
L 66.056084 112.438412 
L 64.309879 113.347429 
L 62.649545 114.405179 
L 61.087718 115.603611 
L 59.636284 116.933605 
L 58.30629 118.385038 
L 57.107858 119.946865 
L 56.050109 121.607199 
L 55.141092 123.353404 
L 54.387726 125.17219 
L 53.795745 127.049715 
L 53.369653 128.971691 
L 53.112694 130.923489 
L 53.026823 132.890255 
L 53.112694 134.857021 
L 53.369653 136.808819 
L 53.795745 138.730794 
L 54.387726 140.608319 
L 55.141092 142.427106 
L 56.050109 144.17331 
L 57.107858 145.833645 
L 58.30629 147.395472 
L 59.636284 148.846905 
L 61.087718 150.176899 
L 62.649545 151.375331 
L 64.309879 152.43308 
L 66.056084 153.342097 
L 67.87487 154.095463 
L 69.752395 154.687444 
L 71.67437 155.113536 
L 73.626168 155.370495 
L 75.592934 155.456366 
L 77.559701 155.370495 
L 79.511499 155.113536 
L 81.433474 154.687444 
L 83.310999 154.095463 
L 85.129785 153.342097 
L 86.87599 152.43308 
L 88.536324 151.375331 
L 90.098151 150.176899 
L 91.549585 148.846905 
L 92.879579 147.395472 
L 94.078011 145.833645 
L 95.13576 144.17331 
L 96.044777 142.427106 
L 96.798143 140.608319 
L 97.390124 138.730794 
L 97.816216 136.808819 
L 98.073175 134.857021 
L 98.159046 132.890255 
z
" clip-path="url(#p9496fd349b)" style="fill: #e61a1a; stroke: #262626"/>
    <path d="M 190.044145 188.615922 
L 190.155061 188.712318 
L 189.805558 189.114466 
L 189.694642 189.01807 
z
" clip-path="url(#p9496fd349b)" style="fill: #4c4c4c"/>
    <path d="M 107.480185 77.811253 
L 103.262056 77.95789 
L 103.243545 77.425412 
L 107.461674 77.278775 
z
" clip-path="url(#p9496fd349b)" style="fill: #4c4c4c"/>
    <path d="M 75.326534 110.667649 
L 75.326534 106.431464 
L 75.859334 106.431464 
L 75.859334 110.667649 
z
" clip-path="url(#p9496fd349b)" style="fill: #4c4c4c"/>
    <path d="M 103.800574 78.653206 
L 103.693235 76.194749 
L 103.372036 73.755001 
L 102.839422 71.352532 
L 102.099445 69.005626 
L 101.157737 66.732143 
L 100.021466 64.549387 
L 98.69928 62.473969 
L 97.20124 60.521685 
L 95.538747 58.707393 
L 93.724455 57.044901 
L 91.772172 55.546861 
L 89.696754 54.224674 
L 87.513998 53.088403 
L 85.240515 52.146696 
L 82.893609 51.406719 
L 80.49114 50.874105 
L 78.051392 50.552906 
L 75.592934 50.445567 
L 73.134477 50.552906 
L 70.694729 50.874105 
L 68.29226 51.406719 
L 65.945354 52.146696 
L 63.671871 53.088403 
L 61.489115 54.224674 
L 59.413697 55.546861 
L 57.461414 57.044901 
L 55.647122 58.707393 
L 53.984629 60.521685 
L 52.486589 62.473969 
L 51.164402 64.549387 
L 50.028132 66.732143 
L 49.086424 69.005626 
L 48.346447 71.352532 
L 47.813833 73.755001 
L 47.492634 76.194749 
L 47.385295 78.653206 
L 47.492634 81.111664 
L 47.813833 83.551411 
L 48.346447 85.953881 
L 49.086424 88.300787 
L 50.028132 90.57427 
L 51.164402 92.757026 
L 52.486589 94.832443 
L 53.984629 96.784727 
L 55.647122 98.599019 
L 57.461414 100.261512 
L 59.413697 101.759552 
L 61.489115 103.081738 
L 63.671871 104.218009 
L 65.945354 105.159717 
L 68.29226 105.899693 
L 70.694729 106.432308 
L 73.134477 106.753507 
L 75.592934 106.860845 
L 78.051392 106.753507 
L 80.49114 106.432308 
L 82.893609 105.899693 
L 85.240515 105.159717 
L 87.513998 104.218009 
L 89.696754 103.081738 
L 91.772172 101.759552 
L 93.724455 100.261512 
L 95.538747 98.599019 
L 97.20124 96.784727 
L 98.69928 94.832443 
L 100.021466 92.757026 
L 101.157737 90.57427 
L 102.099445 88.300787 
L 102.839422 85.953881 
L 103.372036 83.551411 
L 103.693235 81.111664 
L 103.800574 78.653206 
z
" clip-path="url(#p9496fd349b)" style="fill: #3366e6; stroke: #262626"/>
    <path d="M 189.311435 79.505035 
L 190.155061 80.238221 
L 189.805558 80.640369 
L 188.961932 79.907184 
z
" clip-path="url(#p9496fd349b)" style="fill: #4c4c4c"/>
    <path d="M 81.299659 191.734004 
L 82.143285 192.46719 
L 81.793782 192.869339 
L 80.950156 192.136153 
z
" clip-path="url(#p9496fd349b)" style="fill: #4c4c4c"/>
    <path d="M 216.971999 192.759612 
L 216.886128 190.792846 
L 216.629169 188.841048 
L 216.203078 186.919073 
L 215.611096 185.041548 
L 214.85773 183.222761 
L 213.948714 181.476557 
L 212.890964 179.816222 
L 211.692532 178.254395 
L 210.362538 176.802962 
L 208.911105 175.472968 
L 207.349278 174.274536 
L 205.688944 173.216787 
L 203.942739 172.30777 
L 202.123953 171.554404 
L 200.246427 170.962423 
L 198.324452 170.536331 
L 196.372654 170.279372 
L 194.405888 170.193501 
L 192.439122 170.279372 
L 190.487324 170.536331 
L 188.565349 170.962423 
L 186.687823 171.554404 
L 184.869037 172.30777 
L 183.122832 173.216787 
L 181.462498 174.274536 
L 179.900671 175.472968 
L 178.449238 176.802962 
L 177.119244 178.254395 
L 175.920812 179.816222 
L 174.863062 181.476557 
L 173.954046 183.222761 
L 173.20068 185.041548 
L 172.608698 186.919073 
L 172.182607 188.841048 
L 171.925648 190.792846 
L 171.839777 192.759612 
L 171.925648 194.726378 
L 172.182607 196.678176 
L 172.608698 198.600152 
L 173.20068 200.477677 
L 173.954046 202.296463 
L 174.863062 204.042668 
L 175.920812 205.703002 
L 177.119244 207.264829 
L 178.449238 208.716262 
L 179.900671 210.046256 
L 181.462498 211.244688 
L 183.122832 212.302438 
L 184.869037 213.211455 
L 186.687823 213.96482 
L 188.565349 214.556802 
L 190.487324 214.982893 
L 192.439122 215.239853 
L 194.405888 215.325723 
L 196.372654 215.239853 
L 198.324452 214.982893 
L 200.246427 214.556802 
L 202.123953 213.96482 
L 203.942739 213.211455 
L 205.688944 212.302438 
L 207.349278 211.244688 
L 208.911105 210.046256 
L 210.362538 208.716262 
L 211.692532 207.264829 
L 212.890964 205.703002 
L 213.948714 204.042668 
L 214.85773 202.296463 
L 215.611096 200.477677 
L 216.203078 198.600152 
L 216.629169 196.678176 
L 216.886128 194.726378 
L 216.971999 192.759612 
z
" clip-path="url(#p9496fd349b)" style="fill: #e61a1a; stroke: #262626"/>
    <path d="M 81.299659 83.259907 
L 82.143285 83.993093 
L 81.793782 84.395242 
L 80.950156 83.662056 
z
" clip-path="url(#p9496fd349b)" style="fill: #4c4c4c"/>
    <path d="M 216.971999 84.285515 
L 216.886128 82.318749 
L 216.629169 80.366951 
L 216.203078 78.444976 
L 215.611096 76.567451 
L 214.85773 74.748665 
L 213.948714 73.00246 
L 212.890964 71.342126 
L 211.692532 69.780299 
L 210.362538 68.328865 
L 208.911105 66.998871 
L 207.349278 65.800439 
L 205.688944 64.74269 
L 203.942739 63.833673 
L 202.123953 63.080307 
L 200.246427 62.488326 
L 198.324452 62.062234 
L 196.372654 61.805275 
L 194.405888 61.719404 
L 192.439122 61.805275 
L 190.487324 62.062234 
L 188.565349 62.488326 
L 186.687823 63.080307 
L 184.869037 63.833673 
L 183.122832 64.74269 
L 181.462498 65.800439 
L 179.900671 66.998871 
L 178.449238 68.328865 
L 177.119244 69.780299 
L 175.920812 71.342126 
L 174.863062 73.00246 
L 173.954046 74.748665 
L 173.20068 76.567451 
L 172.608698 78.444976 
L 172.182607 80.366951 
L 171.925648 82.318749 
L 171.839777 84.285515 
L 171.925648 86.252281 
L 172.182607 88.204079 
L 172.608698 90.126055 
L 173.20068 92.00358 
L 173.954046 93.822366 
L 174.863062 95.568571 
L 175.920812 97.228905 
L 177.119244 98.790732 
L 178.449238 100.242166 
L 179.900671 101.572159 
L 181.462498 102.770591 
L 183.122832 103.828341 
L 184.869037 104.737358 
L 186.687823 105.490723 
L 188.565349 106.082705 
L 190.487324 106.508797 
L 192.439122 106.765756 
L 194.405888 106.851626 
L 196.372654 106.765756 
L 198.324452 106.508797 
L 200.246427 106.082705 
L 202.123953 105.490723 
L 203.942739 104.737358 
L 205.688944 103.828341 
L 207.349278 102.770591 
L 208.911105 101.572159 
L 210.362538 100.242166 
L 211.692532 98.790732 
L 212.890964 97.228905 
L 213.948714 95.568571 
L 214.85773 93.822366 
L 215.611096 92.00358 
L 216.203078 90.126055 
L 216.629169 88.204079 
L 216.886128 86.252281 
L 216.971999 84.285515 
z
" clip-path="url(#p9496fd349b)" style="fill: #e61a1a; stroke: #262626"/>
    <path d="M 179.890695 140.4 
L 179.740421 136.958159 
L 179.290742 133.542513 
L 178.545082 130.179056 
L 177.509114 126.893387 
L 176.190724 123.710511 
L 174.599945 120.654653 
L 172.748883 117.749068 
L 170.651627 115.015871 
L 168.324138 112.475862 
L 165.784129 110.148373 
L 163.050932 108.051117 
L 160.145347 106.200055 
L 157.089489 104.609276 
L 153.906613 103.290886 
L 150.620944 102.254918 
L 147.257487 101.509258 
L 143.841841 101.059579 
L 140.4 100.909305 
L 136.958159 101.059579 
L 133.542513 101.509258 
L 130.179056 102.254918 
L 126.893387 103.290886 
L 123.710511 104.609276 
L 120.654653 106.200055 
L 117.749068 108.051117 
L 115.015871 110.148373 
L 112.475862 112.475862 
L 110.148373 115.015871 
L 108.051117 117.749068 
L 106.200055 120.654653 
L 104.609276 123.710511 
L 103.290886 126.893387 
L 102.254918 130.179056 
L 101.509258 133.542513 
L 101.059579 136.958159 
L 100.909305 140.4 
L 101.059579 143.841841 
L 101.509258 147.257487 
L 102.254918 150.620944 
L 103.290886 153.906613 
L 104.609276 157.089489 
L 106.200055 160.145347 
L 108.051117 163.050932 
L 110.148373 165.784129 
L 112.475862 168.324138 
L 115.015871 170.651627 
L 117.749068 172.748883 
L 120.654653 174.599945 
L 123.710511 176.190724 
L 126.893387 177.509114 
L 130.179056 178.545082 
L 133.542513 179.290742 
L 136.958159 179.740421 
L 140.4 179.890695 
L 143.841841 179.740421 
L 147.257487 179.290742 
L 150.620944 178.545082 
L 153.906613 177.509114 
L 157.089489 176.190724 
L 160.145347 174.599945 
L 163.050932 172.748883 
L 165.784129 170.651627 
L 168.324138 168.324138 
L 170.651627 165.784129 
L 172.748883 163.050932 
L 174.599945 160.145347 
L 176.190724 157.089489 
L 177.509114 153.906613 
L 178.545082 150.620944 
L 179.290742 147.257487 
L 179.740421 143.841841 
L 179.890695 140.4 
z
" clip-path="url(#p9496fd349b)" style="fill: #00cc33; stroke: #262626"/>
    <path d="M 108.960223 196.514485 
L 108.874352 194.547719 
L 108.617393 192.595921 
L 108.191302 190.673945 
L 107.59932 188.79642 
L 106.845954 186.977634 
L 105.936938 185.231429 
L 104.879188 183.571095 
L 103.680756 182.009268 
L 102.350762 180.557834 
L 100.899329 179.227841 
L 99.337502 178.029409 
L 97.677168 176.971659 
L 95.930963 176.062642 
L 94.112177 175.309277 
L 92.234651 174.717295 
L 90.312676 174.291203 
L 88.360878 174.034244 
L 86.394112 173.948374 
L 84.427346 174.034244 
L 82.475548 174.291203 
L 80.553573 174.717295 
L 78.676047 175.309277 
L 76.857261 176.062642 
L 75.111056 176.971659 
L 73.450722 178.029409 
L 71.888895 179.227841 
L 70.437462 180.557834 
L 69.107468 182.009268 
L 67.909036 183.571095 
L 66.851286 185.231429 
L 65.94227 186.977634 
L 65.188904 188.79642 
L 64.596922 190.673945 
L 64.170831 192.595921 
L 63.913872 194.547719 
L 63.828001 196.514485 
L 63.913872 198.481251 
L 64.170831 200.433049 
L 64.596922 202.355024 
L 65.188904 204.232549 
L 65.94227 206.051335 
L 66.851286 207.79754 
L 67.909036 209.457874 
L 69.107468 211.019701 
L 70.437462 212.471135 
L 71.888895 213.801129 
L 73.450722 214.999561 
L 75.111056 216.05731 
L 76.857261 216.966327 
L 78.676047 217.719693 
L 80.553573 218.311674 
L 82.475548 218.737766 
L 84.427346 218.994725 
L 86.394112 219.080596 
L 88.360878 218.994725 
L 90.312676 218.737766 
L 92.234651 218.311674 
L 94.112177 217.719693 
L 95.930963 216.966327 
L 97.677168 216.05731 
L 99.337502 214.999561 
L 100.899329 213.801129 
L 102.350762 212.471135 
L 103.680756 211.019701 
L 104.879188 209.457874 
L 105.936938 207.79754 
L 106.845954 206.051335 
L 107.59932 204.232549 
L 108.191302 202.355024 
L 108.617393 200.433049 
L 108.874352 198.481251 
L 108.960223 196.514485 
z
" clip-path="url(#p9496fd349b)" style="fill: #e61a1a; stroke: #262626"/>
    <path d="M 199.006218 196.404758 
L 199.849844 197.137944 
L 199.500341 197.540093 
L 198.656715 196.806907 
z
" clip-path="url(#p9496fd349b)" style="fill: #4c4c4c"/>
    <path d="M 108.960223 88.040388 
L 108.874352 86.073622 
L 108.617393 84.121824 
L 108.191302 82.199848 
L 107.59932 80.322323 
L 106.845954 78.503537 
L 105.936938 76.757332 
L 104.879188 75.096998 
L 103.680756 73.535171 
L 102.350762 72.083738 
L 100.899329 70.753744 
L 99.337502 69.555312 
L 97.677168 68.497562 
L 95.930963 67.588545 
L 94.112177 66.83518 
L 92.234651 66.243198 
L 90.312676 65.817107 
L 88.360878 65.560147 
L 86.394112 65.474277 
L 84.427346 65.560147 
L 82.475548 65.817107 
L 80.553573 66.243198 
L 78.676047 66.83518 
L 76.857261 67.588545 
L 75.111056 68.497562 
L 73.450722 69.555312 
L 71.888895 70.753744 
L 70.437462 72.083738 
L 69.107468 73.535171 
L 67.909036 75.096998 
L 66.851286 76.757332 
L 65.94227 78.503537 
L 65.188904 80.322323 
L 64.596922 82.199848 
L 64.170831 84.121824 
L 63.913872 86.073622 
L 63.828001 88.040388 
L 63.913872 90.007154 
L 64.170831 91.958952 
L 64.596922 93.880927 
L 65.188904 95.758452 
L 65.94227 97.577239 
L 66.851286 99.323443 
L 67.909036 100.983778 
L 69.107468 102.545605 
L 70.437462 103.997038 
L 71.888895 105.327032 
L 73.450722 106.525464 
L 75.111056 107.583213 
L 76.857261 108.49223 
L 78.676047 109.245596 
L 80.553573 109.837577 
L 82.475548 110.263669 
L 84.427346 110.520628 
L 86.394112 110.606499 
L 88.360878 110.520628 
L 90.312676 110.263669 
L 92.234651 109.837577 
L 94.112177 109.245596 
L 95.930963 108.49223 
L 97.677168 107.583213 
L 99.337502 106.525464 
L 100.899329 105.327032 
L 102.350762 103.997038 
L 103.680756 102.545605 
L 104.879188 100.983778 
L 105.936938 99.323443 
L 106.845954 97.577239 
L 107.59932 95.758452 
L 108.191302 93.880927 
L 108.617393 91.958952 
L 108.874352 90.007154 
L 108.960223 88.040388 
z
" clip-path="url(#p9496fd349b)" style="fill: #e61a1a; stroke: #262626"/>
    <path d="M 199.006218 87.930661 
L 199.849844 88.663847 
L 199.500341 89.065996 
L 198.656715 88.33281 
z
" clip-path="url(#p9496fd349b)" style="fill: #4c4c4c"/>
    <path d="M 90.994442 200.159631 
L 91.838068 200.892816 
L 91.488565 201.294965 
L 90.644939 200.561779 
z
" clip-path="url(#p9496fd349b)" style="fill: #4c4c4c"/>
    <path d="M 233.414705 202.146794 
L 233.307366 199.688336 
L 232.986167 197.248589 
L 232.453553 194.846119 
L 231.713576 192.499213 
L 230.771868 190.22573 
L 229.635598 188.042974 
L 228.313411 185.967557 
L 226.815371 184.015273 
L 225.152878 182.200981 
L 223.338586 180.538488 
L 221.386303 179.040448 
L 219.310885 177.718262 
L 217.128129 176.581991 
L 214.854646 175.640283 
L 212.50774 174.900307 
L 210.105271 174.367692 
L 207.665523 174.046493 
L 205.207066 173.939155 
L 202.748608 174.046493 
L 200.30886 174.367692 
L 197.906391 174.900307 
L 195.559485 175.640283 
L 193.286002 176.581991 
L 191.103246 177.718262 
L 189.027828 179.040448 
L 187.075545 180.538488 
L 185.261253 182.200981 
L 183.59876 184.015273 
L 182.10072 185.967557 
L 180.778534 188.042974 
L 179.642263 190.22573 
L 178.700555 192.499213 
L 177.960578 194.846119 
L 177.427964 197.248589 
L 177.106765 199.688336 
L 176.999426 202.146794 
L 177.106765 204.605251 
L 177.427964 207.044999 
L 177.960578 209.447468 
L 178.700555 211.794374 
L 179.642263 214.067857 
L 180.778534 216.250613 
L 182.10072 218.326031 
L 183.59876 220.278315 
L 185.261253 222.092607 
L 187.075545 223.755099 
L 189.027828 225.253139 
L 191.103246 226.575326 
L 193.286002 227.711597 
L 195.559485 228.653304 
L 197.906391 229.393281 
L 200.30886 229.925895 
L 202.748608 230.247094 
L 205.207066 230.354433 
L 207.665523 230.247094 
L 210.105271 229.925895 
L 212.50774 229.393281 
L 214.854646 228.653304 
L 217.128129 227.711597 
L 219.310885 226.575326 
L 221.386303 225.253139 
L 223.338586 223.755099 
L 225.152878 222.092607 
L 226.815371 220.278315 
L 228.313411 218.326031 
L 229.635598 216.250613 
L 230.771868 214.067857 
L 231.713576 211.794374 
L 232.453553 209.447468 
L 232.986167 207.044999 
L 233.307366 204.605251 
L 233.414705 202.146794 
z
" clip-path="url(#p9496fd349b)" style="fill: #3366e6; stroke: #262626"/>
    <path d="M 204.940666 174.368536 
L 204.940666 170.132351 
L 205.473466 170.132351 
L 205.473466 174.368536 
z
" clip-path="url(#p9496fd349b)" style="fill: #4c4c4c"/>
    <path d="M 177.556455 203.374588 
L 173.338326 203.521225 
L 173.319815 202.988747 
L 177.537944 202.84211 
z
" clip-path="url(#p9496fd349b)" style="fill: #4c4c4c"/>
    <path d="M 90.994442 91.685534 
L 91.105358 91.78193 
L 90.755855 92.184078 
L 90.644939 92.087682 
z
" clip-path="url(#p9496fd349b)" style="fill: #4c4c4c"/>
    <path d="M 227.773177 147.909745 
L 227.687306 145.942979 
L 227.430347 143.991181 
L 227.004255 142.069206 
L 226.412274 140.191681 
L 225.658908 138.372894 
L 224.749891 136.62669 
L 223.692142 134.966355 
L 222.49371 133.404528 
L 221.163716 131.953095 
L 219.712282 130.623101 
L 218.150455 129.424669 
L 216.490121 128.36692 
L 214.743916 127.457903 
L 212.92513 126.704537 
L 211.047605 126.112556 
L 209.12563 125.686464 
L 207.173832 125.429505 
L 205.207066 125.343634 
L 203.240299 125.429505 
L 201.288501 125.686464 
L 199.366526 126.112556 
L 197.489001 126.704537 
L 195.670215 127.457903 
L 193.92401 128.36692 
L 192.263676 129.424669 
L 190.701849 130.623101 
L 189.250415 131.953095 
L 187.920421 133.404528 
L 186.721989 134.966355 
L 185.66424 136.62669 
L 184.755223 138.372894 
L 184.001857 140.191681 
L 183.409876 142.069206 
L 182.983784 143.991181 
L 182.726825 145.942979 
L 182.640954 147.909745 
L 182.726825 149.876511 
L 182.983784 151.828309 
L 183.409876 153.750285 
L 184.001857 155.62781 
L 184.755223 157.446596 
L 185.66424 159.192801 
L 186.721989 160.853135 
L 187.920421 162.414962 
L 189.250415 163.866395 
L 190.701849 165.196389 
L 192.263676 166.394821 
L 193.92401 167.452571 
L 195.670215 168.361588 
L 197.489001 169.114953 
L 199.366526 169.706935 
L 201.288501 170.133026 
L 203.240299 170.389986 
L 205.207066 170.475856 
L 207.173832 170.389986 
L 209.12563 170.133026 
L 211.047605 169.706935 
L 212.92513 169.114953 
L 214.743916 168.361588 
L 216.490121 167.452571 
L 218.150455 166.394821 
L 219.712282 165.196389 
L 221.163716 163.866395 
L 222.49371 162.414962 
L 223.692142 160.853135 
L 224.749891 159.192801 
L 225.658908 157.446596 
L 226.412274 155.62781 
L 227.004255 153.750285 
L 227.430347 151.828309 
L 227.687306 149.876511 
L 227.773177 147.909745 
z
" clip-path="url(#p9496fd349b)" style="fill: #e61a1a; stroke: #262626"/>
    <path d="M 91.105358 91.78193 
L 91.321382 91.969673 
L 90.971879 92.371822 
L 90.755855 92.184078 
z
" clip-path="url(#p9496fd349b)" style="fill: #4c4c4c"/>
    <path d="M 173.767289 204.02423 
L 173.681418 202.057464 
L 173.424459 200.105666 
L 172.998367 198.183691 
L 172.406386 196.306165 
L 171.65302 194.487379 
L 170.744003 192.741174 
L 169.686254 191.08084 
L 168.487822 189.519013 
L 167.157828 188.06758 
L 165.706394 186.737586 
L 164.144567 185.539154 
L 162.484233 184.481404 
L 160.738028 183.572388 
L 158.919242 182.819022 
L 157.041717 182.22704 
L 155.119742 181.800949 
L 153.167944 181.54399 
L 151.201178 181.458119 
L 149.234411 181.54399 
L 147.282613 181.800949 
L 145.360638 182.22704 
L 143.483113 182.819022 
L 141.664327 183.572388 
L 139.918122 184.481404 
L 138.257788 185.539154 
L 136.695961 186.737586 
L 135.244527 188.06758 
L 133.914533 189.519013 
L 132.716101 191.08084 
L 131.658352 192.741174 
L 130.749335 194.487379 
L 129.995969 196.306165 
L 129.403988 198.183691 
L 128.977896 200.105666 
L 128.720937 202.057464 
L 128.635066 204.02423 
L 128.720937 205.990996 
L 128.977896 207.942794 
L 129.403988 209.864769 
L 129.995969 211.742295 
L 130.749335 213.561081 
L 131.658352 215.307286 
L 132.716101 216.96762 
L 133.914533 218.529447 
L 135.244527 219.98088 
L 136.695961 221.310874 
L 138.257788 222.509306 
L 139.918122 223.567056 
L 141.664327 224.476072 
L 143.483113 225.229438 
L 145.360638 225.82142 
L 147.282613 226.247511 
L 149.234411 226.50447 
L 151.201178 226.590341 
L 153.167944 226.50447 
L 155.119742 226.247511 
L 157.041717 225.82142 
L 158.919242 225.229438 
L 160.738028 224.476072 
L 162.484233 223.567056 
L 164.144567 222.509306 
L 165.706394 221.310874 
L 167.157828 219.98088 
L 168.487822 218.529447 
L 169.686254 216.96762 
L 170.744003 215.307286 
L 171.65302 213.561081 
L 172.406386 211.742295 
L 172.998367 209.864769 
L 173.424459 207.942794 
L 173.681418 205.990996 
L 173.767289 204.02423 
z
" clip-path="url(#p9496fd349b)" style="fill: #e61a1a; stroke: #262626"/>
    <path d="M 91.321382 91.969673 
L 91.838068 92.41872 
L 91.488565 92.820868 
L 90.971879 92.371822 
z
" clip-path="url(#p9496fd349b)" style="fill: #4c4c4c"/>
    <path d="M 204.940666 125.687139 
L 204.940666 121.450955 
L 205.473466 121.450955 
L 205.473466 125.687139 
z
" clip-path="url(#p9496fd349b)" style="fill: #4c4c4c"/>
    <path d="M 129.08254 205.059713 
L 124.864411 205.20635 
L 124.8459 204.673872 
L 129.06403 204.527235 
z
" clip-path="url(#p9496fd349b)" style="fill: #4c4c4c"/>
    <path d="M 233.414705 93.672697 
L 233.307366 91.214239 
L 232.986167 88.774492 
L 232.453553 86.372022 
L 231.713576 84.025116 
L 230.771868 81.751633 
L 229.635598 79.568877 
L 228.313411 77.49346 
L 226.815371 75.541176 
L 225.152878 73.726884 
L 223.338586 72.064392 
L 221.386303 70.566351 
L 219.310885 69.244165 
L 217.128129 68.107894 
L 214.854646 67.166186 
L 212.50774 66.42621 
L 210.105271 65.893595 
L 207.665523 65.572396 
L 205.207066 65.465058 
L 202.748608 65.572396 
L 200.30886 65.893595 
L 197.906391 66.42621 
L 195.559485 67.166186 
L 193.286002 68.107894 
L 191.103246 69.244165 
L 189.027828 70.566351 
L 187.075545 72.064392 
L 185.261253 73.726884 
L 183.59876 75.541176 
L 182.10072 77.49346 
L 180.778534 79.568877 
L 179.642263 81.751633 
L 178.700555 84.025116 
L 177.960578 86.372022 
L 177.427964 88.774492 
L 177.106765 91.214239 
L 176.999426 93.672697 
L 177.106765 96.131154 
L 177.427964 98.570902 
L 177.960578 100.973371 
L 178.700555 103.320277 
L 179.642263 105.59376 
L 180.778534 107.776516 
L 182.10072 109.851934 
L 183.59876 111.804218 
L 185.261253 113.61851 
L 187.075545 115.281002 
L 189.027828 116.779042 
L 191.103246 118.101229 
L 193.286002 119.2375 
L 195.559485 120.179207 
L 197.906391 120.919184 
L 200.30886 121.451798 
L 202.748608 121.772997 
L 205.207066 121.880336 
L 207.665523 121.772997 
L 210.105271 121.451798 
L 212.50774 120.919184 
L 214.854646 120.179207 
L 217.128129 119.2375 
L 219.310885 118.101229 
L 221.386303 116.779042 
L 223.338586 115.281002 
L 225.152878 113.61851 
L 226.815371 111.804218 
L 228.313411 109.851934 
L 229.635598 107.776516 
L 230.771868 105.59376 
L 231.713576 103.320277 
L 232.453553 100.973371 
L 232.986167 98.570902 
L 233.307366 96.131154 
L 233.414705 93.672697 
z
" clip-path="url(#p9496fd349b)" style="fill: #3366e6; stroke: #262626"/>
    <path d="M 125.402929 205.901666 
L 125.29559 203.443208 
L 124.974391 201.003461 
L 124.441777 198.600992 
L 123.7018 196.254085 
L 122.760093 193.980603 
L 121.623822 191.797847 
L 120.301635 189.722429 
L 118.803595 187.770145 
L 117.141103 185.955853 
L 115.326811 184.293361 
L 113.374527 182.795321 
L 111.299109 181.473134 
L 109.116353 180.336863 
L 106.84287 179.395156 
L 104.495964 178.655179 
L 102.093495 178.122565 
L 99.653747 177.801366 
L 97.19529 177.694027 
L 94.736832 177.801366 
L 92.297085 178.122565 
L 89.894615 178.655179 
L 87.547709 179.395156 
L 85.274226 180.336863 
L 83.09147 181.473134 
L 81.016053 182.795321 
L 79.063769 184.293361 
L 77.249477 185.955853 
L 75.586984 187.770145 
L 74.088944 189.722429 
L 72.766758 191.797847 
L 71.630487 193.980603 
L 70.688779 196.254085 
L 69.948803 198.600992 
L 69.416188 201.003461 
L 69.094989 203.443208 
L 68.987651 205.901666 
L 69.094989 208.360124 
L 69.416188 210.799871 
L 69.948803 213.20234 
L 70.688779 215.549247 
L 71.630487 217.82273 
L 72.766758 220.005486 
L 74.088944 222.080903 
L 75.586984 224.033187 
L 77.249477 225.847479 
L 79.063769 227.509971 
L 81.016053 229.008011 
L 83.09147 230.330198 
L 85.274226 231.466469 
L 87.547709 232.408177 
L 89.894615 233.148153 
L 92.297085 233.680768 
L 94.736832 234.001967 
L 97.19529 234.109305 
L 99.653747 234.001967 
L 102.093495 233.680768 
L 104.495964 233.148153 
L 106.84287 232.408177 
L 109.116353 231.466469 
L 111.299109 230.330198 
L 113.374527 229.008011 
L 115.326811 227.509971 
L 117.141103 225.847479 
L 118.803595 224.033187 
L 120.301635 222.080903 
L 121.623822 220.005486 
L 122.760093 217.82273 
L 123.7018 215.549247 
L 124.441777 213.20234 
L 124.974391 210.799871 
L 125.29559 208.360124 
L 125.402929 205.901666 
z
" clip-path="url(#p9496fd349b)" style="fill: #3366e6; stroke: #262626"/>
    <path d="M 177.556455 94.900491 
L 173.338326 95.047128 
L 173.319815 94.51465 
L 177.537944 94.368013 
z
" clip-path="url(#p9496fd349b)" style="fill: #4c4c4c"/>
    <path d="M 96.92889 178.123408 
L 96.92889 173.887224 
L 97.46169 173.887224 
L 97.46169 178.123408 
z
" clip-path="url(#p9496fd349b)" style="fill: #4c4c4c"/>
    <path d="M 173.767289 95.550133 
L 173.681418 93.583367 
L 173.424459 91.631569 
L 172.998367 89.709594 
L 172.406386 87.832068 
L 171.65302 86.013282 
L 170.744003 84.267077 
L 169.686254 82.606743 
L 168.487822 81.044916 
L 167.157828 79.593483 
L 165.706394 78.263489 
L 164.144567 77.065057 
L 162.484233 76.007307 
L 160.738028 75.098291 
L 158.919242 74.344925 
L 157.041717 73.752943 
L 155.119742 73.326852 
L 153.167944 73.069893 
L 151.201178 72.984022 
L 149.234411 73.069893 
L 147.282613 73.326852 
L 145.360638 73.752943 
L 143.483113 74.344925 
L 141.664327 75.098291 
L 139.918122 76.007307 
L 138.257788 77.065057 
L 136.695961 78.263489 
L 135.244527 79.593483 
L 133.914533 81.044916 
L 132.716101 82.606743 
L 131.658352 84.267077 
L 130.749335 86.013282 
L 129.995969 87.832068 
L 129.403988 89.709594 
L 128.977896 91.631569 
L 128.720937 93.583367 
L 128.635066 95.550133 
L 128.720937 97.516899 
L 128.977896 99.468697 
L 129.403988 101.390672 
L 129.995969 103.268198 
L 130.749335 105.086984 
L 131.658352 106.833189 
L 132.716101 108.493523 
L 133.914533 110.05535 
L 135.244527 111.506783 
L 136.695961 112.836777 
L 138.257788 114.035209 
L 139.918122 115.092959 
L 141.664327 116.001975 
L 143.483113 116.755341 
L 145.360638 117.347323 
L 147.282613 117.773414 
L 149.234411 118.030373 
L 151.201178 118.116244 
L 153.167944 118.030373 
L 155.119742 117.773414 
L 157.041717 117.347323 
L 158.919242 116.755341 
L 160.738028 116.001975 
L 162.484233 115.092959 
L 164.144567 114.035209 
L 165.706394 112.836777 
L 167.157828 111.506783 
L 168.487822 110.05535 
L 169.686254 108.493523 
L 170.744003 106.833189 
L 171.65302 105.086984 
L 172.406386 103.268198 
L 172.998367 101.390672 
L 173.424459 99.468697 
L 173.681418 97.516899 
L 173.767289 95.550133 
z
" clip-path="url(#p9496fd349b)" style="fill: #e61a1a; stroke: #262626"/>
    <path d="M 119.761401 151.664618 
L 119.67553 149.697852 
L 119.418571 147.746054 
L 118.992479 145.824078 
L 118.400498 143.946553 
L 117.647132 142.127767 
L 116.738115 140.381562 
L 115.680366 138.721228 
L 114.481934 137.159401 
L 113.15194 135.707967 
L 111.700506 134.377974 
L 110.138679 133.179542 
L 108.478345 132.121792 
L 106.73214 131.212775 
L 104.913354 130.45941 
L 103.035829 129.867428 
L 101.113854 129.441336 
L 99.162056 129.184377 
L 97.19529 129.098507 
L 95.228523 129.184377 
L 93.276726 129.441336 
L 91.35475 129.867428 
L 89.477225 130.45941 
L 87.658439 131.212775 
L 85.912234 132.121792 
L 84.2519 133.179542 
L 82.690073 134.377974 
L 81.238639 135.707967 
L 79.908646 137.159401 
L 78.710213 138.721228 
L 77.652464 140.381562 
L 76.743447 142.127767 
L 75.990081 143.946553 
L 75.3981 145.824078 
L 74.972008 147.746054 
L 74.715049 149.697852 
L 74.629178 151.664618 
L 74.715049 153.631384 
L 74.972008 155.583182 
L 75.3981 157.505157 
L 75.990081 159.382682 
L 76.743447 161.201468 
L 77.652464 162.947673 
L 78.710213 164.608007 
L 79.908646 166.169834 
L 81.238639 167.621268 
L 82.690073 168.951262 
L 84.2519 170.149694 
L 85.912234 171.207443 
L 87.658439 172.11646 
L 89.477225 172.869826 
L 91.35475 173.461807 
L 93.276726 173.887899 
L 95.228523 174.144858 
L 97.19529 174.230729 
L 99.162056 174.144858 
L 101.113854 173.887899 
L 103.035829 173.461807 
L 104.913354 172.869826 
L 106.73214 172.11646 
L 108.478345 171.207443 
L 110.138679 170.149694 
L 111.700506 168.951262 
L 113.15194 167.621268 
L 114.481934 166.169834 
L 115.680366 164.608007 
L 116.738115 162.947673 
L 117.647132 161.201468 
L 118.400498 159.382682 
L 118.992479 157.505157 
L 119.418571 155.583182 
L 119.67553 153.631384 
L 119.761401 151.664618 
z
" clip-path="url(#p9496fd349b)" style="fill: #e61a1a; stroke: #262626"/>
    <path d="M 129.08254 96.585616 
L 124.864411 96.732253 
L 124.8459 96.199775 
L 129.06403 96.053138 
z
" clip-path="url(#p9496fd349b)" style="fill: #4c4c4c"/>
    <path d="M 96.92889 129.442011 
L 96.92889 125.205827 
L 97.46169 125.205827 
L 97.46169 129.442011 
z
" clip-path="url(#p9496fd349b)" style="fill: #4c4c4c"/>
    <path d="M 125.402929 97.427569 
L 125.29559 94.969112 
L 124.974391 92.529364 
L 124.441777 90.126895 
L 123.7018 87.779989 
L 122.760093 85.506506 
L 121.623822 83.32375 
L 120.301635 81.248332 
L 118.803595 79.296048 
L 117.141103 77.481756 
L 115.326811 75.819264 
L 113.374527 74.321224 
L 111.299109 72.999037 
L 109.116353 71.862766 
L 106.84287 70.921059 
L 104.495964 70.181082 
L 102.093495 69.648468 
L 99.653747 69.327269 
L 97.19529 69.21993 
L 94.736832 69.327269 
L 92.297085 69.648468 
L 89.894615 70.181082 
L 87.547709 70.921059 
L 85.274226 71.862766 
L 83.09147 72.999037 
L 81.016053 74.321224 
L 79.063769 75.819264 
L 77.249477 77.481756 
L 75.586984 79.296048 
L 74.088944 81.248332 
L 72.766758 83.32375 
L 71.630487 85.506506 
L 70.688779 87.779989 
L 69.948803 90.126895 
L 69.416188 92.529364 
L 69.094989 94.969112 
L 68.987651 97.427569 
L 69.094989 99.886027 
L 69.416188 102.325774 
L 69.948803 104.728244 
L 70.688779 107.07515 
L 71.630487 109.348633 
L 72.766758 111.531389 
L 74.088944 113.606806 
L 75.586984 115.55909 
L 77.249477 117.373382 
L 79.063769 119.035874 
L 81.016053 120.533915 
L 83.09147 121.856101 
L 85.274226 122.992372 
L 87.547709 123.93408 
L 89.894615 124.674056 
L 92.297085 125.206671 
L 94.736832 125.52787 
L 97.19529 125.635208 
L 99.653747 125.52787 
L 102.093495 125.206671 
L 104.495964 124.674056 
L 106.84287 123.93408 
L 109.116353 122.992372 
L 111.299109 121.856101 
L 113.374527 120.533915 
L 115.326811 119.035874 
L 117.141103 117.373382 
L 118.803595 115.55909 
L 120.301635 113.606806 
L 121.623822 111.531389 
L 122.760093 109.348633 
L 123.7018 107.07515 
L 124.441777 104.728244 
L 124.974391 102.325774 
L 125.29559 99.886027 
L 125.402929 97.427569 
z
" clip-path="url(#p9496fd349b)" style="fill: #3366e6; stroke: #262626"/>
   </g>
   <g id="line2d_1">
    <path d="M 37.836 242.964 
L 37.836 232.470207 
" clip-path="url(#p9496fd349b)" style="fill: none; stroke: #4c4c4c; stroke-linecap: round"/>
   </g>
   <g id="line2d_2">
    <path d="M 37.836 242.964 
L 27.386932 243.327247 
" clip-path="url(#p9496fd349b)" style="fill: none; stroke: #4c4c4c; stroke-linecap: round"/>
   </g>
   <g id="line2d_3">
    <path d="M 37.836 242.964 
L 39.925814 244.780233 
" clip-path="url(#p9496fd349b)" style="fill: none; stroke: #4c4c4c; stroke-linecap: round"/>
   </g>
   <g id="text_1">
    <path d="M 35.541469 224.766601 
L 35.541469 231.907226 
L 36.391469 231.907226 
L 36.391469 231.216601 
L 36.411781 231.216601 
Q 36.550844 231.447851 36.755531 231.602538 
Q 36.961781 231.757226 37.191469 231.847851 
Q 37.421156 231.936913 37.655531 231.975976 
Q 37.891469 232.016601 38.080531 232.016601 
Q 38.671156 232.016601 39.116469 231.807226 
Q 39.561781 231.597851 39.855531 231.232226 
Q 40.150844 230.866601 40.296156 230.377538 
Q 40.441469 229.886913 40.441469 229.336913 
Q 40.441469 228.786913 40.291469 228.297851 
Q 40.141469 227.807226 39.846156 227.432226 
Q 39.550844 227.057226 39.105531 226.836913 
Q 38.661781 226.616601 38.061781 226.616601 
Q 37.521156 226.616601 37.071156 226.811913 
Q 36.621156 227.007226 36.411781 227.436913 
L 36.391469 227.436913 
L 36.391469 224.766601 
L 35.541469 224.766601 
z
M 39.541469 229.277538 
Q 39.541469 229.657226 39.460219 230.018163 
Q 39.380531 230.377538 39.200844 230.657226 
Q 39.021156 230.936913 38.725844 231.107226 
Q 38.430531 231.277538 37.991469 231.277538 
Q 37.550844 231.277538 37.239906 231.113476 
Q 36.930531 230.947851 36.735219 230.677538 
Q 36.541469 230.407226 36.450844 230.052538 
Q 36.361781 229.697851 36.361781 229.316601 
Q 36.361781 228.957226 36.446156 228.607226 
Q 36.530531 228.257226 36.721156 227.982226 
Q 36.911781 227.707226 37.211781 227.536913 
Q 37.511781 227.366601 37.941469 227.366601 
Q 38.350844 227.366601 38.655531 227.527538 
Q 38.961781 227.686913 39.155531 227.957226 
Q 39.350844 228.227538 39.446156 228.572851 
Q 39.541469 228.916601 39.541469 229.277538 
z
" style="fill: #4c4c4c; stroke: #ffffff; stroke-width: 3"/>
    <path d="M 35.541469 224.766601 
L 35.541469 231.907226 
L 36.391469 231.907226 
L 36.391469 231.216601 
L 36.411781 231.216601 
Q 36.550844 231.447851 36.755531 231.602538 
Q 36.961781 231.757226 37.191469 231.847851 
Q 37.421156 231.936913 37.655531 231.975976 
Q 37.891469 232.016601 38.080531 232.016601 
Q 38.671156 232.016601 39.116469 231.807226 
Q 39.561781 231.597851 39.855531 231.232226 
Q 40.150844 230.866601 40.296156 230.377538 
Q 40.441469 229.886913 40.441469 229.336913 
Q 40.441469 228.786913 40.291469 228.297851 
Q 40.141469 227.807226 39.846156 227.432226 
Q 39.550844 227.057226 39.105531 226.836913 
Q 38.661781 226.616601 38.061781 226.616601 
Q 37.521156 226.616601 37.071156 226.811913 
Q 36.621156 227.007226 36.411781 227.436913 
L 36.391469 227.436913 
L 36.391469 224.766601 
L 35.541469 224.766601 
z
M 39.541469 229.277538 
Q 39.541469 229.657226 39.460219 230.018163 
Q 39.380531 230.377538 39.200844 230.657226 
Q 39.021156 230.936913 38.725844 231.107226 
Q 38.430531 231.277538 37.991469 231.277538 
Q 37.550844 231.277538 37.239906 231.113476 
Q 36.930531 230.947851 36.735219 230.677538 
Q 36.541469 230.407226 36.450844 230.052538 
Q 36.361781 229.697851 36.361781 229.316601 
Q 36.361781 228.957226 36.446156 228.607226 
Q 36.530531 228.257226 36.721156 227.982226 
Q 36.911781 227.707226 37.211781 227.536913 
Q 37.511781 227.366601 37.941469 227.366601 
Q 38.350844 227.366601 38.655531 227.527538 
Q 38.961781 227.686913 39.155531 227.957226 
Q 39.350844 228.227538 39.446156 228.572851 
Q 39.541469 228.916601 39.541469 229.277538 
z
" style="fill: #4c4c4c"/>
   </g>
   <g id="text_2">
    <path d="M 25.717056 242.512002 
L 26.596743 242.512002 
Q 26.546743 242.051064 26.356118 241.716689 
Q 26.167056 241.380752 25.871743 241.162002 
Q 25.576431 240.941689 25.192056 240.837002 
Q 24.807681 240.730752 24.367056 240.730752 
Q 23.757681 240.730752 23.296743 240.946377 
Q 22.837368 241.162002 22.531118 241.537002 
Q 22.226431 241.912002 22.076431 242.416689 
Q 21.926431 242.921377 21.926431 243.501064 
Q 21.926431 244.080752 22.081118 244.566689 
Q 22.237368 245.051064 22.542056 245.401064 
Q 22.846743 245.751064 23.301431 245.941689 
Q 23.757681 246.130752 24.346743 246.130752 
Q 25.337368 246.130752 25.912368 245.612002 
Q 26.487368 245.091689 26.626431 244.130752 
L 25.757681 244.130752 
Q 25.676431 244.730752 25.321743 245.062002 
Q 24.967056 245.391689 24.337368 245.391689 
Q 23.937368 245.391689 23.646743 245.232314 
Q 23.357681 245.071377 23.176431 244.807314 
Q 22.996743 244.541689 22.910806 244.202627 
Q 22.826431 243.862002 22.826431 243.501064 
Q 22.826431 243.112002 22.906118 242.746377 
Q 22.987368 242.380752 23.171743 242.101064 
Q 23.357681 241.821377 23.667056 241.651064 
Q 23.976431 241.480752 24.437368 241.480752 
Q 24.976431 241.480752 25.296743 241.751064 
Q 25.617056 242.021377 25.717056 242.512002 
z
" style="fill: #4c4c4c; stroke: #ffffff; stroke-width: 3"/>
    <path d="M 25.717056 242.512002 
L 26.596743 242.512002 
Q 26.546743 242.051064 26.356118 241.716689 
Q 26.167056 241.380752 25.871743 241.162002 
Q 25.576431 240.941689 25.192056 240.837002 
Q 24.807681 240.730752 24.367056 240.730752 
Q 23.757681 240.730752 23.296743 240.946377 
Q 22.837368 241.162002 22.531118 241.537002 
Q 22.226431 241.912002 22.076431 242.416689 
Q 21.926431 242.921377 21.926431 243.501064 
Q 21.926431 244.080752 22.081118 244.566689 
Q 22.237368 245.051064 22.542056 245.401064 
Q 22.846743 245.751064 23.301431 245.941689 
Q 23.757681 246.130752 24.346743 246.130752 
Q 25.337368 246.130752 25.912368 245.612002 
Q 26.487368 245.091689 26.626431 244.130752 
L 25.757681 244.130752 
Q 25.676431 244.730752 25.321743 245.062002 
Q 24.967056 245.391689 24.337368 245.391689 
Q 23.937368 245.391689 23.646743 245.232314 
Q 23.357681 245.071377 23.176431 244.807314 
Q 22.996743 244.541689 22.910806 244.202627 
Q 22.826431 243.862002 22.826431 243.501064 
Q 22.826431 243.112002 22.906118 242.746377 
Q 22.987368 242.380752 23.171743 242.101064 
Q 23.357681 241.821377 23.667056 241.651064 
Q 23.976431 241.480752 24.437368 241.480752 
Q 24.976431 241.480752 25.296743 241.751064 
Q 25.617056 242.021377 25.717056 242.512002 
z
" style="fill: #4c4c4c"/>
   </g>
   <g id="text_3">
    <path d="M 43.431411 248.495811 
Q 43.211098 248.625499 42.820473 248.625499 
Q 42.490786 248.625499 42.295473 248.441124 
Q 42.101723 248.256749 42.101723 247.836436 
Q 41.751723 248.256749 41.286098 248.441124 
Q 40.820473 248.625499 40.281411 248.625499 
Q 39.931411 248.625499 39.615786 248.545811 
Q 39.301723 248.466124 39.070473 248.295811 
Q 38.840786 248.125499 38.704848 247.850499 
Q 38.570473 247.575499 38.570473 247.186436 
Q 38.570473 246.745811 38.720473 246.466124 
Q 38.870473 246.186436 39.115786 246.011436 
Q 39.361098 245.836436 39.675161 245.747374 
Q 39.990786 245.656749 40.320473 245.595811 
Q 40.670473 245.525499 40.986098 245.491124 
Q 41.301723 245.456749 41.540786 245.391124 
Q 41.781411 245.325499 41.920473 245.200499 
Q 42.061098 245.075499 42.061098 244.836436 
Q 42.061098 244.556749 41.956411 244.386436 
Q 41.851723 244.216124 41.686098 244.127061 
Q 41.520473 244.036436 41.315786 244.006749 
Q 41.111098 243.975499 40.911098 243.975499 
Q 40.370473 243.975499 40.011098 244.181749 
Q 39.651723 244.386436 39.620473 244.956749 
L 38.770473 244.956749 
Q 38.790786 244.475499 38.970473 244.145811 
Q 39.151723 243.816124 39.451723 243.611436 
Q 39.751723 243.406749 40.136098 243.316124 
Q 40.520473 243.225499 40.961098 243.225499 
Q 41.311098 243.225499 41.656411 243.275499 
Q 42.001723 243.325499 42.281411 243.481749 
Q 42.561098 243.636436 42.731411 243.916124 
Q 42.901723 244.195811 42.901723 244.645811 
L 42.901723 247.306749 
Q 42.901723 247.606749 42.936098 247.747374 
Q 42.970473 247.886436 43.170473 247.886436 
Q 43.281411 247.886436 43.431411 247.836436 
L 43.431411 248.495811 
z
M 42.051723 245.845811 
Q 41.890786 245.966124 41.629848 246.020811 
Q 41.370473 246.075499 41.086098 246.111436 
Q 40.801723 246.145811 40.511098 246.191124 
Q 40.220473 246.236436 39.990786 246.336436 
Q 39.761098 246.436436 39.615786 246.622374 
Q 39.470473 246.806749 39.470473 247.125499 
Q 39.470473 247.336436 39.554848 247.481749 
Q 39.640786 247.625499 39.775161 247.716124 
Q 39.911098 247.806749 40.090786 247.847374 
Q 40.270473 247.886436 40.470473 247.886436 
Q 40.890786 247.886436 41.190786 247.772374 
Q 41.490786 247.656749 41.679848 247.481749 
Q 41.870473 247.306749 41.961098 247.102061 
Q 42.051723 246.895811 42.051723 246.716124 
L 42.051723 245.845811 
z
" style="fill: #4c4c4c; stroke: #ffffff; stroke-width: 3"/>
    <path d="M 43.431411 248.495811 
Q 43.211098 248.625499 42.820473 248.625499 
Q 42.490786 248.625499 42.295473 248.441124 
Q 42.101723 248.256749 42.101723 247.836436 
Q 41.751723 248.256749 41.286098 248.441124 
Q 40.820473 248.625499 40.281411 248.625499 
Q 39.931411 248.625499 39.615786 248.545811 
Q 39.301723 248.466124 39.070473 248.295811 
Q 38.840786 248.125499 38.704848 247.850499 
Q 38.570473 247.575499 38.570473 247.186436 
Q 38.570473 246.745811 38.720473 246.466124 
Q 38.870473 246.186436 39.115786 246.011436 
Q 39.361098 245.836436 39.675161 245.747374 
Q 39.990786 245.656749 40.320473 245.595811 
Q 40.670473 245.525499 40.986098 245.491124 
Q 41.301723 245.456749 41.540786 245.391124 
Q 41.781411 245.325499 41.920473 245.200499 
Q 42.061098 245.075499 42.061098 244.836436 
Q 42.061098 244.556749 41.956411 244.386436 
Q 41.851723 244.216124 41.686098 244.127061 
Q 41.520473 244.036436 41.315786 244.006749 
Q 41.111098 243.975499 40.911098 243.975499 
Q 40.370473 243.975499 40.011098 244.181749 
Q 39.651723 244.386436 39.620473 244.956749 
L 38.770473 244.956749 
Q 38.790786 244.475499 38.970473 244.145811 
Q 39.151723 243.816124 39.451723 243.611436 
Q 39.751723 243.406749 40.136098 243.316124 
Q 40.520473 243.225499 40.961098 243.225499 
Q 41.311098 243.225499 41.656411 243.275499 
Q 42.001723 243.325499 42.281411 243.481749 
Q 42.561098 243.636436 42.731411 243.916124 
Q 42.901723 244.195811 42.901723 244.645811 
L 42.901723 247.306749 
Q 42.901723 247.606749 42.936098 247.747374 
Q 42.970473 247.886436 43.170473 247.886436 
Q 43.281411 247.886436 43.431411 247.836436 
L 43.431411 248.495811 
z
M 42.051723 245.845811 
Q 41.890786 245.966124 41.629848 246.020811 
Q 41.370473 246.075499 41.086098 246.111436 
Q 40.801723 246.145811 40.511098 246.191124 
Q 40.220473 246.236436 39.990786 246.336436 
Q 39.761098 246.436436 39.615786 246.622374 
Q 39.470473 246.806749 39.470473 247.125499 
Q 39.470473 247.336436 39.554848 247.481749 
Q 39.640786 247.625499 39.775161 247.716124 
Q 39.911098 247.806749 40.090786 247.847374 
Q 40.270473 247.886436 40.470473 247.886436 
Q 40.890786 247.886436 41.190786 247.772374 
Q 41.490786 247.656749 41.679848 247.481749 
Q 41.870473 247.306749 41.961098 247.102061 
Q 42.051723 246.895811 42.051723 246.716124 
L 42.051723 245.845811 
z
" style="fill: #4c4c4c"/>
   </g>
  </g>
 </g>
 <defs>
  <clipPath id="p9496fd349b">
   <rect x="7.2" y="7.2" width="266.4" height="266.4"/>
  </clipPath>
 </defs>
</svg>
