<?xml version="1.0" encoding="utf-8" standalone="no"?>
<!DOCTYPE svg PUBLIC "-//W3C//DTD SVG 1.1//EN"
  "http://www.w3.org/Graphics/SVG/1.1/DTD/svg11.dtd">
<svg xmlns:xlink="http://www.w3.org/1999/xlink" width="424.8pt" height="424.8pt" viewBox="0 0 424.8 424.8" xmlns="http://www.w3.org/2000/svg" version="1.1">
 <metadata>
  <rdf:RDF xmlns:dc="http://purl.org/dc/elements/1.1/" xmlns:cc="http://creativecommons.org/ns#" xmlns:rdf="http://www.w3.org/1999/02/22-rdf-syntax-ns#">
   <cc:Work>
    <dc:type rdf:resource="http://purl.org/dc/dcmitype/StillImage"/>
    <dc:date>2026-02-16T06:48:36.761158</dc:date>
    <dc:format>image/svg+xml</dc:format>
    <dc:creator>
     <cc:Agent>
      <dc:title>Matplotlib v3.10.7, https://matplotlib.org/</dc:title>
     </cc:Agent>
    </dc:creator>
   </cc:Work>
  </rdf:RDF>
 </metadata>
 <defs>
  <style type="text/css">*{stroke-linejoin: round; stroke-linecap: butt}</style>
 </defs>
 <g id="figure_1">
  <g id="patch_1">
   <path d="M 0 424.8 
L 424.8 424.8 
L 424.8 0 
L 0 0 
z
" style="fill: #ffffff"/>
  </g>
  <g id="axes_1">
   <g id="PolyCollection_1">
    <path d="M 265.858149 253.497401 
L 265.387694 249.923943 
L 264.008391 246.59401 
L 261.814236 243.734531 
L 258.954757 241.540376 
L 255.624824 240.161073 
L 252.051365 239.690618 
L 248.477907 240.161073 
L 245.147974 241.540376 
L 242.288495 243.734531 
L 240.09434 246.59401 
L 238.715037 249.923943 
L 238.244582 253.497401 
L 238.715037 257.07086 
L 240.09434 260.400793 
L 242.288495 263.260272 
L 245.147974 265.454427 
L 248.477907 266.83373 
L 252.051365 267.304185 
L 255.624824 266.83373 
L 258.954757 265.454427 
L 261.814236 263.260272 
L 264.008391 260.400793 
L 265.387694 257.07086 
L 265.858149 253.497401 
z
" clip-path="url(#pe12866cbdf)" style="fill: #e61a1a; stroke: #262626; stroke-width: 1.5"/>
    <path d="M 265.858149 120.760453 
L 265.387694 117.186994 
L 264.008391 113.857061 
L 261.814236 110.997583 
L 258.954757 108.803428 
L 255.624824 107.424124 
L 252.051365 106.953669 
L 248.477907 107.424124 
L 245.147974 108.803428 
L 242.288495 110.997583 
L 240.09434 113.857061 
L 238.715037 117.186994 
L 238.244582 120.760453 
L 238.715037 124.333911 
L 240.09434 127.663845 
L 242.288495 130.523323 
L 245.147974 132.717478 
L 248.477907 134.096782 
L 252.051365 134.567236 
L 255.624824 134.096782 
L 258.954757 132.717478 
L 261.814236 130.523323 
L 264.008391 127.663845 
L 265.387694 124.333911 
L 265.858149 120.760453 
z
" clip-path="url(#pe12866cbdf)" style="fill: #e61a1a; stroke: #262626; stroke-width: 1.5"/>
    <path d="M 133.686931 258.092142 
L 133.216476 254.518683 
L 131.837173 251.18875 
L 129.643018 248.329272 
L 126.783539 246.135117 
L 123.453606 244.755813 
L 119.880147 244.285358 
L 116.306689 244.755813 
L 112.976756 246.135117 
L 110.117277 248.329272 
L 107.923122 251.18875 
L 106.543819 254.518683 
L 106.073364 258.092142 
L 106.543819 261.6656 
L 107.923122 264.995534 
L 110.117277 267.855012 
L 112.976756 270.049167 
L 116.306689 271.428471 
L 119.880147 271.898925 
L 123.453606 271.428471 
L 126.783539 270.049167 
L 129.643018 267.855012 
L 131.837173 264.995534 
L 133.216476 261.6656 
L 133.686931 258.092142 
z
" clip-path="url(#pe12866cbdf)" style="fill: #e61a1a; stroke: #262626; stroke-width: 1.5"/>
    <path d="M 331.354096 262.686882 
L 265.268487 331.352727 
L 252.051365 253.497401 
z
" clip-path="url(#pe12866cbdf)" style="fill: #6e9adc; fill-opacity: 0.25; stroke: #4c4c4c; stroke-width: 0.8"/>
    <path d="M 265.268487 198.615778 
L 331.354096 262.686882 
L 252.051365 253.497401 
z
" clip-path="url(#pe12866cbdf)" style="fill: #5f84bd; fill-opacity: 0.25; stroke: #4c4c4c; stroke-width: 0.8"/>
    <path d="M 199.182878 267.281623 
L 265.268487 331.352727 
L 252.051365 253.497401 
z
" clip-path="url(#pe12866cbdf)" style="fill: #5d82ba; fill-opacity: 0.25; stroke: #4c4c4c; stroke-width: 0.8"/>
    <path d="M 133.686931 125.355193 
L 133.216476 121.781735 
L 131.837173 118.451802 
L 129.643018 115.592323 
L 126.783539 113.398168 
L 123.453606 112.018865 
L 119.880147 111.54841 
L 116.306689 112.018865 
L 112.976756 113.398168 
L 110.117277 115.592323 
L 107.923122 118.451802 
L 106.543819 121.781735 
L 106.073364 125.355193 
L 106.543819 128.928652 
L 107.923122 132.258585 
L 110.117277 135.118064 
L 112.976756 137.312219 
L 116.306689 138.691522 
L 119.880147 139.161977 
L 123.453606 138.691522 
L 126.783539 137.312219 
L 129.643018 135.118064 
L 131.837173 132.258585 
L 133.216476 128.928652 
L 133.686931 125.355193 
z
" clip-path="url(#pe12866cbdf)" style="fill: #e61a1a; stroke: #262626; stroke-width: 1.5"/>
    <path d="M 265.268487 198.615778 
L 199.182878 267.281623 
L 252.051365 253.497401 
z
" clip-path="url(#pe12866cbdf)" style="fill: #4d6c9b; fill-opacity: 0.25; stroke: #4c4c4c; stroke-width: 0.8"/>
    <path d="M 345.16088 262.686882 
L 344.690425 259.113424 
L 343.311122 255.783491 
L 341.116967 252.924012 
L 338.257488 250.729857 
L 334.927555 249.350554 
L 331.354096 248.880099 
L 327.780638 249.350554 
L 324.450705 250.729857 
L 321.591226 252.924012 
L 319.397071 255.783491 
L 318.017768 259.113424 
L 317.547313 262.686882 
L 318.017768 266.260341 
L 319.397071 269.590274 
L 321.591226 272.449753 
L 324.450705 274.643908 
L 327.780638 276.023211 
L 331.354096 276.493666 
L 334.927555 276.023211 
L 338.257488 274.643908 
L 341.116967 272.449753 
L 343.311122 269.590274 
L 344.690425 266.260341 
L 345.16088 262.686882 
z
" clip-path="url(#pe12866cbdf)" style="fill: #e61a1a; stroke: #262626; stroke-width: 1.5"/>
    <path d="M 279.075271 331.352727 
L 278.604816 327.779268 
L 277.225513 324.449335 
L 275.031358 321.589857 
L 272.171879 319.395702 
L 268.841946 318.016398 
L 265.268487 317.545943 
L 261.695029 318.016398 
L 258.365096 319.395702 
L 255.505617 321.589857 
L 253.311462 324.449335 
L 251.932158 327.779268 
L 251.461704 331.352727 
L 251.932158 334.926185 
L 253.311462 338.256119 
L 255.505617 341.115597 
L 258.365096 343.309752 
L 261.695029 344.689056 
L 265.268487 345.15951 
L 268.841946 344.689056 
L 272.171879 343.309752 
L 275.031358 341.115597 
L 277.225513 338.256119 
L 278.604816 334.926185 
L 279.075271 331.352727 
z
" clip-path="url(#pe12866cbdf)" style="fill: #e61a1a; stroke: #262626; stroke-width: 1.5"/>
    <path d="M 259.265652 265.254968 
L 262.19619 266.194553 
L 265.00168 264.752374 
L 266.038703 261.77324 
L 264.699786 259.002288 
L 257.351461 252.615942 
L 254.420922 251.676358 
L 251.615432 253.118537 
L 250.578409 256.09767 
L 251.917327 258.868622 
z
" clip-path="url(#pe12866cbdf)" style="fill: #666666; stroke: #262626"/>
    <path d="M 281.553289 260.273598 
L 281.030122 261.505692 
L 280.897716 264.440925 
L 281.233634 267.359878 
L 281.841099 268.552667 
L 318.582946 267.27539 
L 319.106119 266.043296 
L 319.238527 263.108063 
L 318.902607 260.18911 
L 318.295137 258.996321 
z
" clip-path="url(#pe12866cbdf)" style="fill: #666666; stroke: #262626"/>
    <path d="M 269.410522 281.483279 
L 268.197348 280.974187 
L 265.268487 280.763314 
L 262.339626 280.974187 
L 261.126452 281.483279 
L 261.126452 318.382391 
L 262.339626 318.891489 
L 265.268487 319.102365 
L 268.197348 318.891489 
L 269.410522 318.382391 
z
" clip-path="url(#pe12866cbdf)" style="fill: #666666; stroke: #262626"/>
    <path d="M 265.268487 198.615778 
L 331.354096 129.949934 
L 252.051365 120.760453 
z
" clip-path="url(#pe12866cbdf)" style="fill: #6e9adc; fill-opacity: 0.25; stroke: #4c4c4c; stroke-width: 0.8"/>
    <path d="M 199.182878 267.281623 
L 133.097269 335.947467 
L 119.880147 258.092142 
z
" clip-path="url(#pe12866cbdf)" style="fill: #6e9adc; fill-opacity: 0.25; stroke: #4c4c4c; stroke-width: 0.8"/>
    <path d="M 282.526967 264.984253 
L 281.938898 260.51743 
L 280.214769 256.355013 
L 277.472075 252.780665 
L 273.897727 250.037971 
L 269.73531 248.313842 
L 265.268487 247.725773 
L 260.801664 248.313842 
L 256.639248 250.037971 
L 253.064899 252.780665 
L 250.322206 256.355013 
L 248.598076 260.51743 
L 248.010008 264.984253 
L 248.598076 269.451076 
L 250.322206 273.613492 
L 253.064899 277.18784 
L 256.639248 279.930534 
L 260.801664 281.654664 
L 265.268487 282.242732 
L 269.73531 281.654664 
L 273.897727 279.930534 
L 277.472075 277.18784 
L 280.214769 273.613492 
L 281.938898 269.451076 
L 282.526967 264.984253 
z
" clip-path="url(#pe12866cbdf)" style="fill: #3366e6; stroke: #262626; stroke-width: 1.5"/>
    <path d="M 331.354096 129.949934 
L 265.268487 65.87883 
L 252.051365 120.760453 
z
" clip-path="url(#pe12866cbdf)" style="fill: #5f84bd; fill-opacity: 0.25; stroke: #4c4c4c; stroke-width: 0.8"/>
    <path d="M 265.268487 198.615778 
L 199.182878 134.544674 
L 252.051365 120.760453 
z
" clip-path="url(#pe12866cbdf)" style="fill: #5d82ba; fill-opacity: 0.25; stroke: #4c4c4c; stroke-width: 0.8"/>
    <path d="M 133.097269 203.210519 
L 199.182878 267.281623 
L 119.880147 258.092142 
z
" clip-path="url(#pe12866cbdf)" style="fill: #5f84bd; fill-opacity: 0.25; stroke: #4c4c4c; stroke-width: 0.8"/>
    <path d="M 67.01166 271.876363 
L 133.097269 335.947467 
L 119.880147 258.092142 
z
" clip-path="url(#pe12866cbdf)" style="fill: #5d82ba; fill-opacity: 0.25; stroke: #4c4c4c; stroke-width: 0.8"/>
    <path d="M 199.182878 134.544674 
L 265.268487 65.87883 
L 252.051365 120.760453 
z
" clip-path="url(#pe12866cbdf)" style="fill: #4d6c9b; fill-opacity: 0.25; stroke: #4c4c4c; stroke-width: 0.8"/>
    <path d="M 345.16088 129.949934 
L 344.690425 126.376475 
L 343.311122 123.046542 
L 341.116967 120.187064 
L 338.257488 117.992909 
L 334.927555 116.613605 
L 331.354096 116.14315 
L 327.780638 116.613605 
L 324.450705 117.992909 
L 321.591226 120.187064 
L 319.397071 123.046542 
L 318.017768 126.376475 
L 317.547313 129.949934 
L 318.017768 133.523392 
L 319.397071 136.853326 
L 321.591226 139.712804 
L 324.450705 141.906959 
L 327.780638 143.286263 
L 331.354096 143.756717 
L 334.927555 143.286263 
L 338.257488 141.906959 
L 341.116967 139.712804 
L 343.311122 136.853326 
L 344.690425 133.523392 
L 345.16088 129.949934 
z
" clip-path="url(#pe12866cbdf)" style="fill: #e61a1a; stroke: #262626; stroke-width: 1.5"/>
    <path d="M 261.126452 248.485226 
L 262.339626 248.994319 
L 265.268487 249.205192 
L 268.197348 248.994319 
L 269.410522 248.485226 
L 269.410522 211.586123 
L 268.197348 211.077036 
L 265.268487 210.866165 
L 262.339626 211.077036 
L 261.126452 211.586123 
z
" clip-path="url(#pe12866cbdf)" style="fill: #666666; stroke: #262626"/>
    <path d="M 279.075271 198.615778 
L 278.604816 195.04232 
L 277.225513 191.712387 
L 275.031358 188.852908 
L 272.171879 186.658753 
L 268.841946 185.27945 
L 265.268487 184.808995 
L 261.695029 185.27945 
L 258.365096 186.658753 
L 255.505617 188.852908 
L 253.311462 191.712387 
L 251.932158 195.04232 
L 251.461704 198.615778 
L 251.932158 202.189237 
L 253.311462 205.51917 
L 255.505617 208.378649 
L 258.365096 210.572804 
L 261.695029 211.952107 
L 265.268487 212.422562 
L 268.841946 211.952107 
L 272.171879 210.572804 
L 275.031358 208.378649 
L 277.225513 205.51917 
L 278.604816 202.189237 
L 279.075271 198.615778 
z
" clip-path="url(#pe12866cbdf)" style="fill: #e61a1a; stroke: #262626; stroke-width: 1.5"/>
    <path d="M 248.983686 269.694907 
L 249.506853 268.462813 
L 249.639258 265.52758 
L 249.303341 262.608627 
L 248.695876 261.415838 
L 211.954038 262.693115 
L 211.430876 263.925209 
L 211.298473 266.860442 
L 211.634388 269.779395 
L 212.241848 270.972184 
z
" clip-path="url(#pe12866cbdf)" style="fill: #666666; stroke: #262626"/>
    <path d="M 133.097269 203.210519 
L 67.01166 271.876363 
L 119.880147 258.092142 
z
" clip-path="url(#pe12866cbdf)" style="fill: #4d6c9b; fill-opacity: 0.25; stroke: #4c4c4c; stroke-width: 0.8"/>
    <path d="M 212.989662 267.281623 
L 212.519207 263.708164 
L 211.139903 260.378231 
L 208.945748 257.518753 
L 206.08627 255.324598 
L 202.756337 253.945294 
L 199.182878 253.474839 
L 195.60942 253.945294 
L 192.279486 255.324598 
L 189.420008 257.518753 
L 187.225853 260.378231 
L 185.846549 263.708164 
L 185.376095 267.281623 
L 185.846549 270.855081 
L 187.225853 274.185015 
L 189.420008 277.044493 
L 192.279486 279.238648 
L 195.60942 280.617952 
L 199.182878 281.088406 
L 202.756337 280.617952 
L 206.08627 279.238648 
L 208.945748 277.044493 
L 211.139903 274.185015 
L 212.519207 270.855081 
L 212.989662 267.281623 
z
" clip-path="url(#pe12866cbdf)" style="fill: #e61a1a; stroke: #262626; stroke-width: 1.5"/>
    <path d="M 331.354096 262.686882 
L 265.268487 331.352727 
L 278.485609 276.471104 
z
" clip-path="url(#pe12866cbdf)" style="fill: #4d6c9b; fill-opacity: 0.25; stroke: #4c4c4c; stroke-width: 0.8"/>
    <path d="M 146.904053 335.947467 
L 146.433598 332.374009 
L 145.054294 329.044076 
L 142.860139 326.184597 
L 140.000661 323.990442 
L 136.670728 322.611139 
L 133.097269 322.140684 
L 129.523811 322.611139 
L 126.193877 323.990442 
L 123.334399 326.184597 
L 121.140244 329.044076 
L 119.76094 332.374009 
L 119.290486 335.947467 
L 119.76094 339.520926 
L 121.140244 342.850859 
L 123.334399 345.710338 
L 126.193877 347.904493 
L 129.523811 349.283796 
L 133.097269 349.754251 
L 136.670728 349.283796 
L 140.000661 347.904493 
L 142.860139 345.710338 
L 145.054294 342.850859 
L 146.433598 339.520926 
L 146.904053 335.947467 
z
" clip-path="url(#pe12866cbdf)" style="fill: #e61a1a; stroke: #262626; stroke-width: 1.5"/>
    <path d="M 259.265683 132.518047 
L 262.196223 133.457632 
L 265.001713 132.015454 
L 266.038735 129.03632 
L 264.699816 126.265367 
L 257.351437 119.878973 
L 254.420896 118.939387 
L 251.615406 120.381565 
L 250.578384 123.360699 
L 251.917303 126.131653 
z
" clip-path="url(#pe12866cbdf)" style="fill: #666666; stroke: #262626"/>
    <path d="M 281.553288 127.53665 
L 281.030121 128.768744 
L 280.897715 131.703977 
L 281.233633 134.622929 
L 281.841098 135.815719 
L 318.582947 134.538442 
L 319.10612 133.306347 
L 319.238528 130.371114 
L 318.902608 127.452162 
L 318.295137 126.259373 
z
" clip-path="url(#pe12866cbdf)" style="fill: #666666; stroke: #262626"/>
    <path d="M 261.126452 185.645434 
L 262.339626 186.154521 
L 265.268487 186.365392 
L 268.197348 186.154521 
L 269.410522 185.645434 
L 269.410522 148.746342 
L 268.197348 148.23726 
L 265.268487 148.026392 
L 262.339626 148.23726 
L 261.126452 148.746342 
z
" clip-path="url(#pe12866cbdf)" style="fill: #666666; stroke: #262626"/>
    <path d="M 133.097269 203.210519 
L 199.182878 134.544674 
L 119.880147 125.355193 
z
" clip-path="url(#pe12866cbdf)" style="fill: #6e9adc; fill-opacity: 0.25; stroke: #4c4c4c; stroke-width: 0.8"/>
    <path d="M 265.268487 198.615778 
L 331.354096 262.686882 
L 278.485609 276.471104 
z
" clip-path="url(#pe12866cbdf)" style="fill: #5d82ba; fill-opacity: 0.25; stroke: #4c4c4c; stroke-width: 0.8"/>
    <path d="M 199.182878 267.281623 
L 265.268487 331.352727 
L 278.485609 276.471104 
z
" clip-path="url(#pe12866cbdf)" style="fill: #5f84bd; fill-opacity: 0.25; stroke: #4c4c4c; stroke-width: 0.8"/>
    <path d="M 282.526967 132.247304 
L 281.938898 127.780481 
L 280.214769 123.618064 
L 277.472075 120.043716 
L 273.897727 117.301023 
L 269.73531 115.576893 
L 265.268487 114.988825 
L 260.801664 115.576893 
L 256.639248 117.301023 
L 253.064899 120.043716 
L 250.322206 123.618064 
L 248.598076 127.780481 
L 248.010008 132.247304 
L 248.598076 136.714127 
L 250.322206 140.876544 
L 253.064899 144.450892 
L 256.639248 147.193586 
L 260.801664 148.917715 
L 265.268487 149.505784 
L 269.73531 148.917715 
L 273.897727 147.193586 
L 277.472075 144.450892 
L 280.214769 140.876544 
L 281.938898 136.714127 
L 282.526967 132.247304 
z
" clip-path="url(#pe12866cbdf)" style="fill: #3366e6; stroke: #262626; stroke-width: 1.5"/>
    <path d="M 127.094468 269.849739 
L 130.025008 270.789324 
L 132.830498 269.347146 
L 133.867521 266.368012 
L 132.528602 263.597059 
L 125.180216 257.210659 
L 122.249675 256.271073 
L 119.444185 257.713252 
L 118.407163 260.692386 
L 119.746082 263.463339 
z
" clip-path="url(#pe12866cbdf)" style="fill: #666666; stroke: #262626"/>
    <path d="M 186.411719 271.870131 
L 186.93488 270.638037 
L 187.067284 267.702804 
L 186.731368 264.783851 
L 186.123909 263.591062 
L 149.382083 264.868338 
L 148.858927 266.100432 
L 148.726526 269.035665 
L 149.062439 271.954618 
L 149.669893 273.147407 
z
" clip-path="url(#pe12866cbdf)" style="fill: #666666; stroke: #262626"/>
    <path d="M 137.239304 286.078019 
L 136.02613 285.568926 
L 133.097269 285.358053 
L 130.168408 285.568926 
L 128.955234 286.078019 
L 128.955234 322.977132 
L 130.168408 323.48623 
L 133.097269 323.697106 
L 136.02613 323.48623 
L 137.239304 322.977132 
z
" clip-path="url(#pe12866cbdf)" style="fill: #666666; stroke: #262626"/>
    <path d="M 150.355749 269.578993 
L 149.76768 265.11217 
L 148.043551 260.949753 
L 145.300857 257.375405 
L 141.726509 254.632712 
L 137.564092 252.908582 
L 133.097269 252.320514 
L 128.630446 252.908582 
L 124.468029 254.632712 
L 120.893681 257.375405 
L 118.150988 260.949753 
L 116.426858 265.11217 
L 115.83879 269.578993 
L 116.426858 274.045816 
L 118.150988 278.208233 
L 120.893681 281.782581 
L 124.468029 284.525275 
L 128.630446 286.249404 
L 133.097269 286.837473 
L 137.564092 286.249404 
L 141.726509 284.525275 
L 145.300857 281.782581 
L 148.043551 278.208233 
L 149.76768 274.045816 
L 150.355749 269.578993 
z
" clip-path="url(#pe12866cbdf)" style="fill: #3366e6; stroke: #262626; stroke-width: 1.5"/>
    <path d="M 261.126452 115.748267 
L 262.339626 116.257348 
L 265.268487 116.468216 
L 268.197348 116.257348 
L 269.410522 115.748267 
L 269.410522 78.849183 
L 268.197348 78.340107 
L 265.268487 78.129241 
L 262.339626 78.340107 
L 261.126452 78.849183 
z
" clip-path="url(#pe12866cbdf)" style="fill: #666666; stroke: #262626"/>
    <path d="M 199.182878 134.544674 
L 133.097269 70.47357 
L 119.880147 125.355193 
z
" clip-path="url(#pe12866cbdf)" style="fill: #5f84bd; fill-opacity: 0.25; stroke: #4c4c4c; stroke-width: 0.8"/>
    <path d="M 133.097269 203.210519 
L 67.01166 139.139415 
L 119.880147 125.355193 
z
" clip-path="url(#pe12866cbdf)" style="fill: #5d82ba; fill-opacity: 0.25; stroke: #4c4c4c; stroke-width: 0.8"/>
    <path d="M 265.268487 198.615778 
L 199.182878 267.281623 
L 278.485609 276.471104 
z
" clip-path="url(#pe12866cbdf)" style="fill: #6e9adc; fill-opacity: 0.25; stroke: #4c4c4c; stroke-width: 0.8"/>
    <path d="M 279.075271 65.87883 
L 278.604816 62.305371 
L 277.225513 58.975438 
L 275.031358 56.11596 
L 272.171879 53.921805 
L 268.841946 52.542501 
L 265.268487 52.072046 
L 261.695029 52.542501 
L 258.365096 53.921805 
L 255.505617 56.11596 
L 253.311462 58.975438 
L 251.932158 62.305371 
L 251.461704 65.87883 
L 251.932158 69.452288 
L 253.311462 72.782222 
L 255.505617 75.6417 
L 258.365096 77.835855 
L 261.695029 79.215159 
L 265.268487 79.685613 
L 268.841946 79.215159 
L 272.171879 77.835855 
L 275.031358 75.6417 
L 277.225513 72.782222 
L 278.604816 69.452288 
L 279.075271 65.87883 
z
" clip-path="url(#pe12866cbdf)" style="fill: #e61a1a; stroke: #262626; stroke-width: 1.5"/>
    <path d="M 248.983686 136.957959 
L 249.506854 135.725865 
L 249.639259 132.790632 
L 249.303342 129.871679 
L 248.695876 128.67889 
L 211.954037 129.956167 
L 211.430875 131.18826 
L 211.298472 134.123493 
L 211.634387 137.042446 
L 212.241847 138.235235 
z
" clip-path="url(#pe12866cbdf)" style="fill: #666666; stroke: #262626"/>
    <path d="M 67.01166 139.139415 
L 133.097269 70.47357 
L 119.880147 125.355193 
z
" clip-path="url(#pe12866cbdf)" style="fill: #4d6c9b; fill-opacity: 0.25; stroke: #4c4c4c; stroke-width: 0.8"/>
    <path d="M 212.989662 134.544674 
L 212.519207 130.971216 
L 211.139903 127.641283 
L 208.945748 124.781804 
L 206.08627 122.587649 
L 202.756337 121.208346 
L 199.182878 120.737891 
L 195.60942 121.208346 
L 192.279486 122.587649 
L 189.420008 124.781804 
L 187.225853 127.641283 
L 185.846549 130.971216 
L 185.376095 134.544674 
L 185.846549 138.118133 
L 187.225853 141.448066 
L 189.420008 144.307545 
L 192.279486 146.5017 
L 195.60942 147.881003 
L 199.182878 148.351458 
L 202.756337 147.881003 
L 206.08627 146.5017 
L 208.945748 144.307545 
L 211.139903 141.448066 
L 212.519207 138.118133 
L 212.989662 134.544674 
z
" clip-path="url(#pe12866cbdf)" style="fill: #e61a1a; stroke: #262626; stroke-width: 1.5"/>
    <path d="M 128.955234 253.079967 
L 130.168408 253.58906 
L 133.097269 253.799933 
L 136.02613 253.58906 
L 137.239304 253.079967 
L 137.239304 216.180863 
L 136.02613 215.671776 
L 133.097269 215.460905 
L 130.168408 215.671776 
L 128.955234 216.180863 
z
" clip-path="url(#pe12866cbdf)" style="fill: #666666; stroke: #262626"/>
    <path d="M 265.268487 198.615778 
L 331.354096 129.949934 
L 278.485609 143.734156 
z
" clip-path="url(#pe12866cbdf)" style="fill: #4d6c9b; fill-opacity: 0.25; stroke: #4c4c4c; stroke-width: 0.8"/>
    <path d="M 146.904053 203.210519 
L 146.433598 199.63706 
L 145.054294 196.307127 
L 142.860139 193.447649 
L 140.000661 191.253494 
L 136.670728 189.87419 
L 133.097269 189.403735 
L 129.523811 189.87419 
L 126.193877 191.253494 
L 123.334399 193.447649 
L 121.140244 196.307127 
L 119.76094 199.63706 
L 119.290486 203.210519 
L 119.76094 206.783977 
L 121.140244 210.113911 
L 123.334399 212.973389 
L 126.193877 215.167544 
L 129.523811 216.546848 
L 133.097269 217.017302 
L 136.670728 216.546848 
L 140.000661 215.167544 
L 142.860139 212.973389 
L 145.054294 210.113911 
L 146.433598 206.783977 
L 146.904053 203.210519 
z
" clip-path="url(#pe12866cbdf)" style="fill: #e61a1a; stroke: #262626; stroke-width: 1.5"/>
    <path d="M 116.812455 274.289648 
L 117.335611 273.057555 
L 117.468012 270.122322 
L 117.132099 267.203369 
L 116.524645 266.010579 
L 79.782829 267.287855 
L 79.259679 268.519949 
L 79.12728 271.455182 
L 79.463191 274.374134 
L 80.070639 275.566924 
z
" clip-path="url(#pe12866cbdf)" style="fill: #666666; stroke: #262626"/>
    <path d="M 80.818444 271.876363 
L 80.347989 268.302905 
L 78.968685 264.972972 
L 76.77453 262.113493 
L 73.915052 259.919338 
L 70.585119 258.540035 
L 67.01166 258.06958 
L 63.438202 258.540035 
L 60.108268 259.919338 
L 57.24879 262.113493 
L 55.054635 264.972972 
L 53.675331 268.302905 
L 53.204877 271.876363 
L 53.675331 275.449822 
L 55.054635 278.779755 
L 57.24879 281.639234 
L 60.108268 283.833389 
L 63.438202 285.212692 
L 67.01166 285.683147 
L 70.585119 285.212692 
L 73.915052 283.833389 
L 76.77453 281.639234 
L 78.968685 278.779755 
L 80.347989 275.449822 
L 80.818444 271.876363 
z
" clip-path="url(#pe12866cbdf)" style="fill: #e61a1a; stroke: #262626; stroke-width: 1.5"/>
    <path d="M 127.094499 137.112817 
L 130.02504 138.052404 
L 132.830531 136.610226 
L 133.867553 133.631091 
L 132.528632 130.860137 
L 125.180192 124.47369 
L 122.24965 123.534103 
L 119.444159 124.97628 
L 118.407137 127.955415 
L 119.746058 130.72637 
z
" clip-path="url(#pe12866cbdf)" style="fill: #666666; stroke: #262626"/>
    <path d="M 149.382083 132.13139 
L 148.858926 133.363483 
L 148.726525 136.298716 
L 149.062438 139.217669 
L 149.669892 140.410459 
L 186.411719 139.133182 
L 186.934881 137.901089 
L 187.067284 134.965855 
L 186.731369 132.046903 
L 186.123909 130.854113 
z
" clip-path="url(#pe12866cbdf)" style="fill: #666666; stroke: #262626"/>
    <path d="M 137.239304 153.341082 
L 136.02613 152.832 
L 133.097269 152.621132 
L 130.168408 152.832 
L 128.955234 153.341082 
L 128.955234 190.240175 
L 130.168408 190.749262 
L 133.097269 190.960133 
L 136.02613 190.749262 
L 137.239304 190.240175 
z
" clip-path="url(#pe12866cbdf)" style="fill: #666666; stroke: #262626"/>
    <path d="M 199.182878 267.281623 
L 133.097269 335.947467 
L 146.314391 281.065844 
z
" clip-path="url(#pe12866cbdf)" style="fill: #4d6c9b; fill-opacity: 0.25; stroke: #4c4c4c; stroke-width: 0.8"/>
    <path d="M 331.354096 129.949934 
L 265.268487 65.87883 
L 278.485609 143.734156 
z
" clip-path="url(#pe12866cbdf)" style="fill: #5d82ba; fill-opacity: 0.25; stroke: #4c4c4c; stroke-width: 0.8"/>
    <path d="M 265.268487 198.615778 
L 199.182878 134.544674 
L 278.485609 143.734156 
z
" clip-path="url(#pe12866cbdf)" style="fill: #5f84bd; fill-opacity: 0.25; stroke: #4c4c4c; stroke-width: 0.8"/>
    <path d="M 133.097269 203.210519 
L 199.182878 267.281623 
L 146.314391 281.065844 
z
" clip-path="url(#pe12866cbdf)" style="fill: #5d82ba; fill-opacity: 0.25; stroke: #4c4c4c; stroke-width: 0.8"/>
    <path d="M 67.01166 271.876363 
L 133.097269 335.947467 
L 146.314391 281.065844 
z
" clip-path="url(#pe12866cbdf)" style="fill: #5f84bd; fill-opacity: 0.25; stroke: #4c4c4c; stroke-width: 0.8"/>
    <path d="M 150.355749 136.842045 
L 149.76768 132.375222 
L 148.043551 128.212805 
L 145.300857 124.638457 
L 141.726509 121.895763 
L 137.564092 120.171634 
L 133.097269 119.583565 
L 128.630446 120.171634 
L 124.468029 121.895763 
L 120.893681 124.638457 
L 118.150988 128.212805 
L 116.426858 132.375222 
L 115.83879 136.842045 
L 116.426858 141.308868 
L 118.150988 145.471284 
L 120.893681 149.045633 
L 124.468029 151.788326 
L 128.630446 153.512456 
L 133.097269 154.100524 
L 137.564092 153.512456 
L 141.726509 151.788326 
L 145.300857 149.045633 
L 148.043551 145.471284 
L 149.76768 141.308868 
L 150.355749 136.842045 
z
" clip-path="url(#pe12866cbdf)" style="fill: #3366e6; stroke: #262626; stroke-width: 1.5"/>
    <path d="M 128.955234 120.343008 
L 130.168408 120.852089 
L 133.097269 121.062958 
L 136.02613 120.852089 
L 137.239304 120.343008 
L 137.239304 83.443923 
L 136.02613 82.934847 
L 133.097269 82.723981 
L 130.168408 82.934847 
L 128.955234 83.443923 
z
" clip-path="url(#pe12866cbdf)" style="fill: #666666; stroke: #262626"/>
    <path d="M 199.182878 134.544674 
L 265.268487 65.87883 
L 278.485609 143.734156 
z
" clip-path="url(#pe12866cbdf)" style="fill: #6e9adc; fill-opacity: 0.25; stroke: #4c4c4c; stroke-width: 0.8"/>
    <path d="M 133.097269 203.210519 
L 67.01166 271.876363 
L 146.314391 281.065844 
z
" clip-path="url(#pe12866cbdf)" style="fill: #6e9adc; fill-opacity: 0.25; stroke: #4c4c4c; stroke-width: 0.8"/>
    <path d="M 146.904053 70.47357 
L 146.433598 66.900112 
L 145.054294 63.570179 
L 142.860139 60.7107 
L 140.000661 58.516545 
L 136.670728 57.137242 
L 133.097269 56.666787 
L 129.523811 57.137242 
L 126.193877 58.516545 
L 123.334399 60.7107 
L 121.140244 63.570179 
L 119.76094 66.900112 
L 119.290486 70.47357 
L 119.76094 74.047029 
L 121.140244 77.376962 
L 123.334399 80.236441 
L 126.193877 82.430596 
L 129.523811 83.809899 
L 133.097269 84.280354 
L 136.670728 83.809899 
L 140.000661 82.430596 
L 142.860139 80.236441 
L 145.054294 77.376962 
L 146.433598 74.047029 
L 146.904053 70.47357 
z
" clip-path="url(#pe12866cbdf)" style="fill: #e61a1a; stroke: #262626; stroke-width: 1.5"/>
    <path d="M 116.812456 141.5527 
L 117.335612 140.320606 
L 117.468013 137.385373 
L 117.1321 134.46642 
L 116.524646 133.273631 
L 79.782829 134.550907 
L 79.259678 135.783 
L 79.127279 138.718233 
L 79.46319 141.637186 
L 80.070639 142.829976 
z
" clip-path="url(#pe12866cbdf)" style="fill: #666666; stroke: #262626"/>
    <path d="M 80.818444 139.139415 
L 80.347989 135.565956 
L 78.968685 132.236023 
L 76.77453 129.376545 
L 73.915052 127.18239 
L 70.585119 125.803086 
L 67.01166 125.332631 
L 63.438202 125.803086 
L 60.108268 127.18239 
L 57.24879 129.376545 
L 55.054635 132.236023 
L 53.675331 135.565956 
L 53.204877 139.139415 
L 53.675331 142.712874 
L 55.054635 146.042807 
L 57.24879 148.902285 
L 60.108268 151.09644 
L 63.438202 152.475744 
L 67.01166 152.946198 
L 70.585119 152.475744 
L 73.915052 151.09644 
L 76.77453 148.902285 
L 78.968685 146.042807 
L 80.347989 142.712874 
L 80.818444 139.139415 
z
" clip-path="url(#pe12866cbdf)" style="fill: #e61a1a; stroke: #262626; stroke-width: 1.5"/>
    <path d="M 271.271323 264.713537 
L 268.340784 263.773953 
L 265.535294 265.216132 
L 264.498271 268.195265 
L 265.837189 270.966217 
L 273.185504 277.352555 
L 276.116042 278.292139 
L 278.921532 276.84996 
L 279.958555 273.870826 
L 278.619638 271.099875 
z
" clip-path="url(#pe12866cbdf)" style="fill: #666666; stroke: #262626"/>
    <path d="M 133.097269 203.210519 
L 199.182878 134.544674 
L 146.314391 148.328896 
z
" clip-path="url(#pe12866cbdf)" style="fill: #4d6c9b; fill-opacity: 0.25; stroke: #4c4c4c; stroke-width: 0.8"/>
    <path d="M 292.292393 276.471104 
L 291.821938 272.897645 
L 290.442634 269.567712 
L 288.248479 266.708234 
L 285.389001 264.514079 
L 282.059068 263.134775 
L 278.485609 262.66432 
L 274.912151 263.134775 
L 271.582217 264.514079 
L 268.722739 266.708234 
L 266.528584 269.567712 
L 265.14928 272.897645 
L 264.678826 276.471104 
L 265.14928 280.044563 
L 266.528584 283.374496 
L 268.722739 286.233974 
L 271.582217 288.428129 
L 274.912151 289.807433 
L 278.485609 290.277887 
L 282.059068 289.807433 
L 285.389001 288.428129 
L 288.248479 286.233974 
L 290.442634 283.374496 
L 291.821938 280.044563 
L 292.292393 276.471104 
z
" clip-path="url(#pe12866cbdf)" style="fill: #e61a1a; stroke: #262626; stroke-width: 1.5"/>
    <path d="M 271.271292 131.976562 
L 268.340752 131.036976 
L 265.535262 132.479155 
L 264.498239 135.458289 
L 265.837158 138.229242 
L 273.185528 144.615627 
L 276.116068 145.555213 
L 278.921558 144.113034 
L 279.958581 141.1339 
L 278.619662 138.362947 
z
" clip-path="url(#pe12866cbdf)" style="fill: #666666; stroke: #262626"/>
    <path d="M 199.182878 134.544674 
L 133.097269 70.47357 
L 146.314391 148.328896 
z
" clip-path="url(#pe12866cbdf)" style="fill: #5d82ba; fill-opacity: 0.25; stroke: #4c4c4c; stroke-width: 0.8"/>
    <path d="M 133.097269 203.210519 
L 67.01166 139.139415 
L 146.314391 148.328896 
z
" clip-path="url(#pe12866cbdf)" style="fill: #5f84bd; fill-opacity: 0.25; stroke: #4c4c4c; stroke-width: 0.8"/>
    <path d="M 67.01166 139.139415 
L 133.097269 70.47357 
L 146.314391 148.328896 
z
" clip-path="url(#pe12866cbdf)" style="fill: #6e9adc; fill-opacity: 0.25; stroke: #4c4c4c; stroke-width: 0.8"/>
    <path d="M 292.292393 143.734156 
L 291.821938 140.160697 
L 290.442634 136.830764 
L 288.248479 133.971285 
L 285.389001 131.77713 
L 282.059068 130.397827 
L 278.485609 129.927372 
L 274.912151 130.397827 
L 271.582217 131.77713 
L 268.722739 133.971285 
L 266.528584 136.830764 
L 265.14928 140.160697 
L 264.678826 143.734156 
L 265.14928 147.307614 
L 266.528584 150.637547 
L 268.722739 153.497026 
L 271.582217 155.691181 
L 274.912151 157.070484 
L 278.485609 157.540939 
L 282.059068 157.070484 
L 285.389001 155.691181 
L 288.248479 153.497026 
L 290.442634 150.637547 
L 291.821938 147.307614 
L 292.292393 143.734156 
z
" clip-path="url(#pe12866cbdf)" style="fill: #e61a1a; stroke: #262626; stroke-width: 1.5"/>
    <path d="M 236.561871 212.4 
L 235.738575 206.146448 
L 233.324794 200.319064 
L 229.485023 195.314977 
L 224.480936 191.475206 
L 218.653552 189.061425 
L 212.4 188.238129 
L 206.146448 189.061425 
L 200.319064 191.475206 
L 195.314977 195.314977 
L 191.475206 200.319064 
L 189.061425 206.146448 
L 188.238129 212.4 
L 189.061425 218.653552 
L 191.475206 224.480936 
L 195.314977 229.485023 
L 200.319064 233.324794 
L 206.146448 235.738575 
L 212.4 236.561871 
L 218.653552 235.738575 
L 224.480936 233.324794 
L 229.485023 229.485023 
L 233.324794 224.480936 
L 235.738575 218.653552 
L 236.561871 212.4 
z
" clip-path="url(#pe12866cbdf)" style="fill: #00cc33; stroke: #262626; stroke-width: 1.5"/>
    <path d="M 139.10007 269.308248 
L 136.16953 268.368662 
L 133.36404 269.810841 
L 132.327017 272.789975 
L 133.665937 275.560928 
L 141.014313 281.947319 
L 143.944853 282.886904 
L 146.750343 281.444725 
L 147.787365 278.465591 
L 146.448446 275.694638 
z
" clip-path="url(#pe12866cbdf)" style="fill: #666666; stroke: #262626"/>
    <path d="M 160.121174 281.065844 
L 159.65072 277.492386 
L 158.271416 274.162453 
L 156.077261 271.302974 
L 153.217783 269.108819 
L 149.887849 267.729516 
L 146.314391 267.259061 
L 142.740932 267.729516 
L 139.410999 269.108819 
L 136.551521 271.302974 
L 134.357366 274.162453 
L 132.978062 277.492386 
L 132.507607 281.065844 
L 132.978062 284.639303 
L 134.357366 287.969236 
L 136.551521 290.828715 
L 139.410999 293.02287 
L 142.740932 294.402173 
L 146.314391 294.872628 
L 149.887849 294.402173 
L 153.217783 293.02287 
L 156.077261 290.828715 
L 158.271416 287.969236 
L 159.65072 284.639303 
L 160.121174 281.065844 
z
" clip-path="url(#pe12866cbdf)" style="fill: #e61a1a; stroke: #262626; stroke-width: 1.5"/>
    <path d="M 139.100039 136.571273 
L 136.169498 135.631686 
L 133.364007 137.073864 
L 132.326985 140.052998 
L 133.665906 142.823953 
L 141.014337 149.210391 
L 143.944878 150.149978 
L 146.750369 148.7078 
L 147.787391 145.728665 
L 146.448471 142.957711 
z
" clip-path="url(#pe12866cbdf)" style="fill: #666666; stroke: #262626"/>
    <path d="M 357.78834 285.660585 
L 291.702731 354.32643 
L 278.485609 276.471104 
z
" clip-path="url(#pe12866cbdf)" style="fill: #6e9adc; fill-opacity: 0.25; stroke: #4c4c4c; stroke-width: 0.8"/>
    <path d="M 291.702731 221.589481 
L 357.78834 285.660585 
L 278.485609 276.471104 
z
" clip-path="url(#pe12866cbdf)" style="fill: #5f84bd; fill-opacity: 0.25; stroke: #4c4c4c; stroke-width: 0.8"/>
    <path d="M 225.617122 290.255326 
L 291.702731 354.32643 
L 278.485609 276.471104 
z
" clip-path="url(#pe12866cbdf)" style="fill: #5d82ba; fill-opacity: 0.25; stroke: #4c4c4c; stroke-width: 0.8"/>
    <path d="M 160.121174 148.328896 
L 159.65072 144.755437 
L 158.271416 141.425504 
L 156.077261 138.566026 
L 153.217783 136.371871 
L 149.887849 134.992567 
L 146.314391 134.522113 
L 142.740932 134.992567 
L 139.410999 136.371871 
L 136.551521 138.566026 
L 134.357366 141.425504 
L 132.978062 144.755437 
L 132.507607 148.328896 
L 132.978062 151.902355 
L 134.357366 155.232288 
L 136.551521 158.091766 
L 139.410999 160.285921 
L 142.740932 161.665225 
L 146.314391 162.13568 
L 149.887849 161.665225 
L 153.217783 160.285921 
L 156.077261 158.091766 
L 158.271416 155.232288 
L 159.65072 151.902355 
L 160.121174 148.328896 
z
" clip-path="url(#pe12866cbdf)" style="fill: #e61a1a; stroke: #262626; stroke-width: 1.5"/>
    <path d="M 291.702731 221.589481 
L 225.617122 290.255326 
L 278.485609 276.471104 
z
" clip-path="url(#pe12866cbdf)" style="fill: #4d6c9b; fill-opacity: 0.25; stroke: #4c4c4c; stroke-width: 0.8"/>
    <path d="M 371.595123 285.660585 
L 371.124669 282.087126 
L 369.745365 278.757193 
L 367.55121 275.897715 
L 364.691732 273.70356 
L 361.361798 272.324256 
L 357.78834 271.853802 
L 354.214881 272.324256 
L 350.884948 273.70356 
L 348.02547 275.897715 
L 345.831315 278.757193 
L 344.452011 282.087126 
L 343.981556 285.660585 
L 344.452011 289.234044 
L 345.831315 292.563977 
L 348.02547 295.423455 
L 350.884948 297.61761 
L 354.214881 298.996914 
L 357.78834 299.467369 
L 361.361798 298.996914 
L 364.691732 297.61761 
L 367.55121 295.423455 
L 369.745365 292.563977 
L 371.124669 289.234044 
L 371.595123 285.660585 
z
" clip-path="url(#pe12866cbdf)" style="fill: #e61a1a; stroke: #262626; stroke-width: 1.5"/>
    <path d="M 305.509514 354.32643 
L 305.03906 350.752971 
L 303.659756 347.423038 
L 301.465601 344.563559 
L 298.606123 342.369404 
L 295.276189 340.990101 
L 291.702731 340.519646 
L 288.129272 340.990101 
L 284.799339 342.369404 
L 281.939861 344.563559 
L 279.745706 347.423038 
L 278.366402 350.752971 
L 277.895947 354.32643 
L 278.366402 357.899888 
L 279.745706 361.229821 
L 281.939861 364.0893 
L 284.799339 366.283455 
L 288.129272 367.662758 
L 291.702731 368.133213 
L 295.276189 367.662758 
L 298.606123 366.283455 
L 301.465601 364.0893 
L 303.659756 361.229821 
L 305.03906 357.899888 
L 305.509514 354.32643 
z
" clip-path="url(#pe12866cbdf)" style="fill: #e61a1a; stroke: #262626; stroke-width: 1.5"/>
    <path d="M 283.785714 275.589653 
L 280.855176 274.650069 
L 278.049686 276.092248 
L 277.012663 279.071382 
L 278.35158 281.842333 
L 285.699883 288.22866 
L 288.630421 289.168244 
L 291.435911 287.726065 
L 292.472934 284.746931 
L 291.134017 281.97598 
z
" clip-path="url(#pe12866cbdf)" style="fill: #666666; stroke: #262626"/>
    <path d="M 307.98753 283.247301 
L 307.464361 284.479395 
L 307.331954 287.414628 
L 307.667873 290.333581 
L 308.27534 291.52637 
L 345.017192 290.249093 
L 345.540367 289.016998 
L 345.672776 286.081765 
L 345.336855 283.162813 
L 344.729382 281.970024 
z
" clip-path="url(#pe12866cbdf)" style="fill: #666666; stroke: #262626"/>
    <path d="M 295.844766 304.45698 
L 294.631592 303.947885 
L 291.702731 303.737012 
L 288.77387 303.947885 
L 287.560696 304.45698 
L 287.560696 341.356095 
L 288.77387 341.865195 
L 291.702731 342.076071 
L 294.631592 341.865195 
L 295.844766 341.356095 
z
" clip-path="url(#pe12866cbdf)" style="fill: #666666; stroke: #262626"/>
    <path d="M 291.702731 221.589481 
L 357.78834 152.923637 
L 278.485609 143.734156 
z
" clip-path="url(#pe12866cbdf)" style="fill: #6e9adc; fill-opacity: 0.25; stroke: #4c4c4c; stroke-width: 0.8"/>
    <path d="M 225.617122 290.255326 
L 159.531513 358.92117 
L 146.314391 281.065844 
z
" clip-path="url(#pe12866cbdf)" style="fill: #6e9adc; fill-opacity: 0.25; stroke: #4c4c4c; stroke-width: 0.8"/>
    <path d="M 308.96121 287.957955 
L 308.373142 283.491132 
L 306.649012 279.328716 
L 303.906319 275.754367 
L 300.331971 273.011674 
L 296.169554 271.287544 
L 291.702731 270.699476 
L 287.235908 271.287544 
L 283.073491 273.011674 
L 279.499143 275.754367 
L 276.756449 279.328716 
L 275.03232 283.491132 
L 274.444251 287.957955 
L 275.03232 292.424778 
L 276.756449 296.587195 
L 279.499143 300.161543 
L 283.073491 302.904237 
L 287.235908 304.628366 
L 291.702731 305.216435 
L 296.169554 304.628366 
L 300.331971 302.904237 
L 303.906319 300.161543 
L 306.649012 296.587195 
L 308.373142 292.424778 
L 308.96121 287.957955 
z
" clip-path="url(#pe12866cbdf)" style="fill: #3366e6; stroke: #262626; stroke-width: 1.5"/>
    <path d="M 357.78834 152.923637 
L 291.702731 88.852533 
L 278.485609 143.734156 
z
" clip-path="url(#pe12866cbdf)" style="fill: #5f84bd; fill-opacity: 0.25; stroke: #4c4c4c; stroke-width: 0.8"/>
    <path d="M 291.702731 221.589481 
L 225.617122 157.518377 
L 278.485609 143.734156 
z
" clip-path="url(#pe12866cbdf)" style="fill: #5d82ba; fill-opacity: 0.25; stroke: #4c4c4c; stroke-width: 0.8"/>
    <path d="M 159.531513 226.184222 
L 225.617122 290.255326 
L 146.314391 281.065844 
z
" clip-path="url(#pe12866cbdf)" style="fill: #5f84bd; fill-opacity: 0.25; stroke: #4c4c4c; stroke-width: 0.8"/>
    <path d="M 93.445904 294.850066 
L 159.531513 358.92117 
L 146.314391 281.065844 
z
" clip-path="url(#pe12866cbdf)" style="fill: #5d82ba; fill-opacity: 0.25; stroke: #4c4c4c; stroke-width: 0.8"/>
    <path d="M 225.617122 157.518377 
L 291.702731 88.852533 
L 278.485609 143.734156 
z
" clip-path="url(#pe12866cbdf)" style="fill: #4d6c9b; fill-opacity: 0.25; stroke: #4c4c4c; stroke-width: 0.8"/>
    <path d="M 371.595123 152.923637 
L 371.124669 149.350178 
L 369.745365 146.020245 
L 367.55121 143.160766 
L 364.691732 140.966611 
L 361.361798 139.587308 
L 357.78834 139.116853 
L 354.214881 139.587308 
L 350.884948 140.966611 
L 348.02547 143.160766 
L 345.831315 146.020245 
L 344.452011 149.350178 
L 343.981556 152.923637 
L 344.452011 156.497095 
L 345.831315 159.827028 
L 348.02547 162.686507 
L 350.884948 164.880662 
L 354.214881 166.259965 
L 357.78834 166.73042 
L 361.361798 166.259965 
L 364.691732 164.880662 
L 367.55121 162.686507 
L 369.745365 159.827028 
L 371.124669 156.497095 
L 371.595123 152.923637 
z
" clip-path="url(#pe12866cbdf)" style="fill: #e61a1a; stroke: #262626; stroke-width: 1.5"/>
    <path d="M 287.560696 271.458931 
L 288.77387 271.968025 
L 291.702731 272.178899 
L 294.631592 271.968025 
L 295.844766 271.458931 
L 295.844766 234.559824 
L 294.631592 234.050735 
L 291.702731 233.839864 
L 288.77387 234.050735 
L 287.560696 234.559824 
z
" clip-path="url(#pe12866cbdf)" style="fill: #666666; stroke: #262626"/>
    <path d="M 305.509514 221.589481 
L 305.03906 218.016023 
L 303.659756 214.686089 
L 301.465601 211.826611 
L 298.606123 209.632456 
L 295.276189 208.253152 
L 291.702731 207.782698 
L 288.129272 208.253152 
L 284.799339 209.632456 
L 281.939861 211.826611 
L 279.745706 214.686089 
L 278.366402 218.016023 
L 277.895947 221.589481 
L 278.366402 225.16294 
L 279.745706 228.492873 
L 281.939861 231.352351 
L 284.799339 233.546506 
L 288.129272 234.92581 
L 291.702731 235.396265 
L 295.276189 234.92581 
L 298.606123 233.546506 
L 301.465601 231.352351 
L 303.659756 228.492873 
L 305.03906 225.16294 
L 305.509514 221.589481 
z
" clip-path="url(#pe12866cbdf)" style="fill: #e61a1a; stroke: #262626; stroke-width: 1.5"/>
    <path d="M 275.417932 292.66861 
L 275.941101 291.436516 
L 276.073508 288.501283 
L 275.737589 285.58233 
L 275.130122 284.389541 
L 238.38828 285.666818 
L 237.865116 286.898912 
L 237.732711 289.834145 
L 238.068628 292.753097 
L 238.676089 293.945887 
z
" clip-path="url(#pe12866cbdf)" style="fill: #666666; stroke: #262626"/>
    <path d="M 159.531513 226.184222 
L 93.445904 294.850066 
L 146.314391 281.065844 
z
" clip-path="url(#pe12866cbdf)" style="fill: #4d6c9b; fill-opacity: 0.25; stroke: #4c4c4c; stroke-width: 0.8"/>
    <path d="M 239.423905 290.255326 
L 238.953451 286.681867 
L 237.574147 283.351934 
L 235.379992 280.492455 
L 232.520514 278.2983 
L 229.19058 276.918997 
L 225.617122 276.448542 
L 222.043663 276.918997 
L 218.71373 278.2983 
L 215.854252 280.492455 
L 213.660097 283.351934 
L 212.280793 286.681867 
L 211.810338 290.255326 
L 212.280793 293.828784 
L 213.660097 297.158717 
L 215.854252 300.018196 
L 218.71373 302.212351 
L 222.043663 303.591654 
L 225.617122 304.062109 
L 229.19058 303.591654 
L 232.520514 302.212351 
L 235.379992 300.018196 
L 237.574147 297.158717 
L 238.953451 293.828784 
L 239.423905 290.255326 
z
" clip-path="url(#pe12866cbdf)" style="fill: #e61a1a; stroke: #262626; stroke-width: 1.5"/>
    <path d="M 357.78834 285.660585 
L 291.702731 354.32643 
L 304.919853 299.444807 
z
" clip-path="url(#pe12866cbdf)" style="fill: #4d6c9b; fill-opacity: 0.25; stroke: #4c4c4c; stroke-width: 0.8"/>
    <path d="M 173.338296 358.92117 
L 172.867842 355.347712 
L 171.488538 352.017778 
L 169.294383 349.1583 
L 166.434904 346.964145 
L 163.104971 345.584841 
L 159.531513 345.114387 
L 155.958054 345.584841 
L 152.628121 346.964145 
L 149.768642 349.1583 
L 147.574487 352.017778 
L 146.195184 355.347712 
L 145.724729 358.92117 
L 146.195184 362.494629 
L 147.574487 365.824562 
L 149.768642 368.68404 
L 152.628121 370.878195 
L 155.958054 372.257499 
L 159.531513 372.727954 
L 163.104971 372.257499 
L 166.434904 370.878195 
L 169.294383 368.68404 
L 171.488538 365.824562 
L 172.867842 362.494629 
L 173.338296 358.92117 
z
" clip-path="url(#pe12866cbdf)" style="fill: #e61a1a; stroke: #262626; stroke-width: 1.5"/>
    <path d="M 285.699914 155.491739 
L 288.630453 156.431324 
L 291.435943 154.989145 
L 292.472966 152.010011 
L 291.134048 149.239058 
L 283.78569 142.852684 
L 280.85515 141.913098 
L 278.04966 143.355277 
L 277.012637 146.334411 
L 278.351556 149.105364 
z
" clip-path="url(#pe12866cbdf)" style="fill: #666666; stroke: #262626"/>
    <path d="M 307.98753 150.510352 
L 307.46436 151.742446 
L 307.331953 154.67768 
L 307.667872 157.596632 
L 308.275339 158.789421 
L 345.017192 157.512144 
L 345.540368 156.28005 
L 345.672776 153.344817 
L 345.336855 150.425864 
L 344.729383 149.233075 
z
" clip-path="url(#pe12866cbdf)" style="fill: #666666; stroke: #262626"/>
    <path d="M 295.844766 171.720042 
L 294.631592 171.210959 
L 291.702731 171.00009 
L 288.77387 171.210959 
L 287.560696 171.720042 
L 287.560696 208.619138 
L 288.77387 209.128227 
L 291.702731 209.339098 
L 294.631592 209.128227 
L 295.844766 208.619138 
z
" clip-path="url(#pe12866cbdf)" style="fill: #666666; stroke: #262626"/>
    <path d="M 159.531513 226.184222 
L 225.617122 157.518377 
L 146.314391 148.328896 
z
" clip-path="url(#pe12866cbdf)" style="fill: #6e9adc; fill-opacity: 0.25; stroke: #4c4c4c; stroke-width: 0.8"/>
    <path d="M 291.702731 221.589481 
L 357.78834 285.660585 
L 304.919853 299.444807 
z
" clip-path="url(#pe12866cbdf)" style="fill: #5d82ba; fill-opacity: 0.25; stroke: #4c4c4c; stroke-width: 0.8"/>
    <path d="M 225.617122 290.255326 
L 291.702731 354.32643 
L 304.919853 299.444807 
z
" clip-path="url(#pe12866cbdf)" style="fill: #5f84bd; fill-opacity: 0.25; stroke: #4c4c4c; stroke-width: 0.8"/>
    <path d="M 308.96121 155.221007 
L 308.373142 150.754184 
L 306.649012 146.591767 
L 303.906319 143.017419 
L 300.331971 140.274725 
L 296.169554 138.550596 
L 291.702731 137.962527 
L 287.235908 138.550596 
L 283.073491 140.274725 
L 279.499143 143.017419 
L 276.756449 146.591767 
L 275.03232 150.754184 
L 274.444251 155.221007 
L 275.03232 159.68783 
L 276.756449 163.850247 
L 279.499143 167.424595 
L 283.073491 170.167288 
L 287.235908 171.891418 
L 291.702731 172.479486 
L 296.169554 171.891418 
L 300.331971 170.167288 
L 303.906319 167.424595 
L 306.649012 163.850247 
L 308.373142 159.68783 
L 308.96121 155.221007 
z
" clip-path="url(#pe12866cbdf)" style="fill: #3366e6; stroke: #262626; stroke-width: 1.5"/>
    <path d="M 153.528699 292.82343 
L 156.459239 293.763016 
L 159.264729 292.320837 
L 160.301751 289.341703 
L 158.962833 286.57075 
L 151.614469 280.18437 
L 148.683929 279.244785 
L 145.878439 280.686964 
L 144.841416 283.666098 
L 146.180335 286.437051 
z
" clip-path="url(#pe12866cbdf)" style="fill: #666666; stroke: #262626"/>
    <path d="M 175.816324 287.842041 
L 175.293166 289.074135 
L 175.160764 292.009368 
L 175.496678 294.92832 
L 176.104134 296.12111 
L 212.845964 294.843833 
L 213.369128 293.61174 
L 213.501532 290.676506 
L 213.165616 287.757554 
L 212.558154 286.564764 
z
" clip-path="url(#pe12866cbdf)" style="fill: #666666; stroke: #262626"/>
    <path d="M 163.673548 309.05172 
L 162.460374 308.542625 
L 159.531513 308.331751 
L 156.602652 308.542625 
L 155.389478 309.05172 
L 155.389478 345.950836 
L 156.602652 346.459937 
L 159.531513 346.670813 
L 162.460374 346.459937 
L 163.673548 345.950836 
z
" clip-path="url(#pe12866cbdf)" style="fill: #666666; stroke: #262626"/>
    <path d="M 176.789992 292.552696 
L 176.201924 288.085873 
L 174.477794 283.923456 
L 171.735101 280.349108 
L 168.160752 277.606414 
L 163.998336 275.882285 
L 159.531513 275.294216 
L 155.06469 275.882285 
L 150.902273 277.606414 
L 147.327925 280.349108 
L 144.585231 283.923456 
L 142.861102 288.085873 
L 142.273033 292.552696 
L 142.861102 297.019519 
L 144.585231 301.181936 
L 147.327925 304.756284 
L 150.902273 307.498977 
L 155.06469 309.223107 
L 159.531513 309.811175 
L 163.998336 309.223107 
L 168.160752 307.498977 
L 171.735101 304.756284 
L 174.477794 301.181936 
L 176.201924 297.019519 
L 176.789992 292.552696 
z
" clip-path="url(#pe12866cbdf)" style="fill: #3366e6; stroke: #262626; stroke-width: 1.5"/>
    <path d="M 287.560696 138.721971 
L 288.77387 139.231054 
L 291.702731 139.441924 
L 294.631592 139.231054 
L 295.844766 138.721971 
L 295.844766 101.822884 
L 294.631592 101.313807 
L 291.702731 101.10294 
L 288.77387 101.313807 
L 287.560696 101.822884 
z
" clip-path="url(#pe12866cbdf)" style="fill: #666666; stroke: #262626"/>
    <path d="M 225.617122 157.518377 
L 159.531513 93.447273 
L 146.314391 148.328896 
z
" clip-path="url(#pe12866cbdf)" style="fill: #5f84bd; fill-opacity: 0.25; stroke: #4c4c4c; stroke-width: 0.8"/>
    <path d="M 159.531513 226.184222 
L 93.445904 162.113118 
L 146.314391 148.328896 
z
" clip-path="url(#pe12866cbdf)" style="fill: #5d82ba; fill-opacity: 0.25; stroke: #4c4c4c; stroke-width: 0.8"/>
    <path d="M 291.702731 221.589481 
L 225.617122 290.255326 
L 304.919853 299.444807 
z
" clip-path="url(#pe12866cbdf)" style="fill: #6e9adc; fill-opacity: 0.25; stroke: #4c4c4c; stroke-width: 0.8"/>
    <path d="M 305.509514 88.852533 
L 305.03906 85.279074 
L 303.659756 81.949141 
L 301.465601 79.089662 
L 298.606123 76.895507 
L 295.276189 75.516204 
L 291.702731 75.045749 
L 288.129272 75.516204 
L 284.799339 76.895507 
L 281.939861 79.089662 
L 279.745706 81.949141 
L 278.366402 85.279074 
L 277.895947 88.852533 
L 278.366402 92.425991 
L 279.745706 95.755924 
L 281.939861 98.615403 
L 284.799339 100.809558 
L 288.129272 102.188861 
L 291.702731 102.659316 
L 295.276189 102.188861 
L 298.606123 100.809558 
L 301.465601 98.615403 
L 303.659756 95.755924 
L 305.03906 92.425991 
L 305.509514 88.852533 
z
" clip-path="url(#pe12866cbdf)" style="fill: #e61a1a; stroke: #262626; stroke-width: 1.5"/>
    <path d="M 275.417932 159.931661 
L 275.941102 158.699567 
L 276.073508 155.764334 
L 275.73759 152.845381 
L 275.130122 151.652592 
L 238.388279 152.929869 
L 237.865115 154.161963 
L 237.732711 157.097196 
L 238.068627 160.016149 
L 238.676089 161.208938 
z
" clip-path="url(#pe12866cbdf)" style="fill: #666666; stroke: #262626"/>
    <path d="M 93.445904 162.113118 
L 159.531513 93.447273 
L 146.314391 148.328896 
z
" clip-path="url(#pe12866cbdf)" style="fill: #4d6c9b; fill-opacity: 0.25; stroke: #4c4c4c; stroke-width: 0.8"/>
    <path d="M 239.423905 157.518377 
L 238.953451 153.944919 
L 237.574147 150.614985 
L 235.379992 147.755507 
L 232.520514 145.561352 
L 229.19058 144.182048 
L 225.617122 143.711594 
L 222.043663 144.182048 
L 218.71373 145.561352 
L 215.854252 147.755507 
L 213.660097 150.614985 
L 212.280793 153.944919 
L 211.810338 157.518377 
L 212.280793 161.091836 
L 213.660097 164.421769 
L 215.854252 167.281247 
L 218.71373 169.475402 
L 222.043663 170.854706 
L 225.617122 171.325161 
L 229.19058 170.854706 
L 232.520514 169.475402 
L 235.379992 167.281247 
L 237.574147 164.421769 
L 238.953451 161.091836 
L 239.423905 157.518377 
z
" clip-path="url(#pe12866cbdf)" style="fill: #e61a1a; stroke: #262626; stroke-width: 1.5"/>
    <path d="M 155.389478 276.053672 
L 156.602652 276.562766 
L 159.531513 276.77364 
L 162.460374 276.562766 
L 163.673548 276.053672 
L 163.673548 239.154564 
L 162.460374 238.645475 
L 159.531513 238.434603 
L 156.602652 238.645475 
L 155.389478 239.154564 
z
" clip-path="url(#pe12866cbdf)" style="fill: #666666; stroke: #262626"/>
    <path d="M 291.702731 221.589481 
L 357.78834 152.923637 
L 304.919853 166.707858 
z
" clip-path="url(#pe12866cbdf)" style="fill: #4d6c9b; fill-opacity: 0.25; stroke: #4c4c4c; stroke-width: 0.8"/>
    <path d="M 173.338296 226.184222 
L 172.867842 222.610763 
L 171.488538 219.28083 
L 169.294383 216.421351 
L 166.434904 214.227196 
L 163.104971 212.847893 
L 159.531513 212.377438 
L 155.958054 212.847893 
L 152.628121 214.227196 
L 149.768642 216.421351 
L 147.574487 219.28083 
L 146.195184 222.610763 
L 145.724729 226.184222 
L 146.195184 229.75768 
L 147.574487 233.087613 
L 149.768642 235.947092 
L 152.628121 238.141247 
L 155.958054 239.52055 
L 159.531513 239.991005 
L 163.104971 239.52055 
L 166.434904 238.141247 
L 169.294383 235.947092 
L 171.488538 233.087613 
L 172.867842 229.75768 
L 173.338296 226.184222 
z
" clip-path="url(#pe12866cbdf)" style="fill: #e61a1a; stroke: #262626; stroke-width: 1.5"/>
    <path d="M 143.246701 297.263351 
L 143.76986 296.031257 
L 143.902261 293.096024 
L 143.566347 290.177071 
L 142.958891 288.984282 
L 106.217071 290.261558 
L 105.693918 291.493651 
L 105.561519 294.428884 
L 105.89743 297.347837 
L 106.504881 298.540627 
z
" clip-path="url(#pe12866cbdf)" style="fill: #666666; stroke: #262626"/>
    <path d="M 107.252687 294.850066 
L 106.782232 291.276608 
L 105.402929 287.946674 
L 103.208774 285.087196 
L 100.349295 282.893041 
L 97.019362 281.513737 
L 93.445904 281.043283 
L 89.872445 281.513737 
L 86.542512 282.893041 
L 83.683033 285.087196 
L 81.488878 287.946674 
L 80.109575 291.276608 
L 79.63912 294.850066 
L 80.109575 298.423525 
L 81.488878 301.753458 
L 83.683033 304.612936 
L 86.542512 306.807091 
L 89.872445 308.186395 
L 93.445904 308.65685 
L 97.019362 308.186395 
L 100.349295 306.807091 
L 103.208774 304.612936 
L 105.402929 301.753458 
L 106.782232 298.423525 
L 107.252687 294.850066 
z
" clip-path="url(#pe12866cbdf)" style="fill: #e61a1a; stroke: #262626; stroke-width: 1.5"/>
    <path d="M 153.52873 160.086509 
L 156.459271 161.026095 
L 159.264762 159.583917 
L 160.301784 156.604783 
L 158.962864 153.833829 
L 151.614445 147.447401 
L 148.683904 146.507814 
L 145.878413 147.949992 
L 144.841391 150.929127 
L 146.180311 153.700081 
z
" clip-path="url(#pe12866cbdf)" style="fill: #666666; stroke: #262626"/>
    <path d="M 175.816324 155.105092 
L 175.293165 156.337186 
L 175.160763 159.272419 
L 175.496677 162.191372 
L 176.104134 163.384161 
L 212.845964 162.106885 
L 213.369129 160.874791 
L 213.501533 157.939558 
L 213.165617 155.020605 
L 212.558155 153.827816 
z
" clip-path="url(#pe12866cbdf)" style="fill: #666666; stroke: #262626"/>
    <path d="M 163.673548 176.314783 
L 162.460374 175.805699 
L 159.531513 175.59483 
L 156.602652 175.805699 
L 155.389478 176.314783 
L 155.389478 213.213879 
L 156.602652 213.722968 
L 159.531513 213.93384 
L 162.460374 213.722968 
L 163.673548 213.213879 
z
" clip-path="url(#pe12866cbdf)" style="fill: #666666; stroke: #262626"/>
    <path d="M 225.617122 290.255326 
L 159.531513 358.92117 
L 172.748635 304.039547 
z
" clip-path="url(#pe12866cbdf)" style="fill: #4d6c9b; fill-opacity: 0.25; stroke: #4c4c4c; stroke-width: 0.8"/>
    <path d="M 357.78834 152.923637 
L 291.702731 88.852533 
L 304.919853 166.707858 
z
" clip-path="url(#pe12866cbdf)" style="fill: #5d82ba; fill-opacity: 0.25; stroke: #4c4c4c; stroke-width: 0.8"/>
    <path d="M 291.702731 221.589481 
L 225.617122 157.518377 
L 304.919853 166.707858 
z
" clip-path="url(#pe12866cbdf)" style="fill: #5f84bd; fill-opacity: 0.25; stroke: #4c4c4c; stroke-width: 0.8"/>
    <path d="M 159.531513 226.184222 
L 225.617122 290.255326 
L 172.748635 304.039547 
z
" clip-path="url(#pe12866cbdf)" style="fill: #5d82ba; fill-opacity: 0.25; stroke: #4c4c4c; stroke-width: 0.8"/>
    <path d="M 93.445904 294.850066 
L 159.531513 358.92117 
L 172.748635 304.039547 
z
" clip-path="url(#pe12866cbdf)" style="fill: #5f84bd; fill-opacity: 0.25; stroke: #4c4c4c; stroke-width: 0.8"/>
    <path d="M 176.789992 159.815747 
L 176.201924 155.348924 
L 174.477794 151.186508 
L 171.735101 147.61216 
L 168.160752 144.869466 
L 163.998336 143.145336 
L 159.531513 142.557268 
L 155.06469 143.145336 
L 150.902273 144.869466 
L 147.327925 147.61216 
L 144.585231 151.186508 
L 142.861102 155.348924 
L 142.273033 159.815747 
L 142.861102 164.28257 
L 144.585231 168.444987 
L 147.327925 172.019335 
L 150.902273 174.762029 
L 155.06469 176.486158 
L 159.531513 177.074227 
L 163.998336 176.486158 
L 168.160752 174.762029 
L 171.735101 172.019335 
L 174.477794 168.444987 
L 176.201924 164.28257 
L 176.789992 159.815747 
z
" clip-path="url(#pe12866cbdf)" style="fill: #3366e6; stroke: #262626; stroke-width: 1.5"/>
    <path d="M 155.389478 143.316712 
L 156.602652 143.825796 
L 159.531513 144.036665 
L 162.460374 143.825796 
L 163.673548 143.316712 
L 163.673548 106.417625 
L 162.460374 105.908546 
L 159.531513 105.697679 
L 156.602652 105.908546 
L 155.389478 106.417625 
z
" clip-path="url(#pe12866cbdf)" style="fill: #666666; stroke: #262626"/>
    <path d="M 225.617122 157.518377 
L 291.702731 88.852533 
L 304.919853 166.707858 
z
" clip-path="url(#pe12866cbdf)" style="fill: #6e9adc; fill-opacity: 0.25; stroke: #4c4c4c; stroke-width: 0.8"/>
    <path d="M 159.531513 226.184222 
L 93.445904 294.850066 
L 172.748635 304.039547 
z
" clip-path="url(#pe12866cbdf)" style="fill: #6e9adc; fill-opacity: 0.25; stroke: #4c4c4c; stroke-width: 0.8"/>
    <path d="M 173.338296 93.447273 
L 172.867842 89.873815 
L 171.488538 86.543881 
L 169.294383 83.684403 
L 166.434904 81.490248 
L 163.104971 80.110944 
L 159.531513 79.64049 
L 155.958054 80.110944 
L 152.628121 81.490248 
L 149.768642 83.684403 
L 147.574487 86.543881 
L 146.195184 89.873815 
L 145.724729 93.447273 
L 146.195184 97.020732 
L 147.574487 100.350665 
L 149.768642 103.210143 
L 152.628121 105.404298 
L 155.958054 106.783602 
L 159.531513 107.254057 
L 163.104971 106.783602 
L 166.434904 105.404298 
L 169.294383 103.210143 
L 171.488538 100.350665 
L 172.867842 97.020732 
L 173.338296 93.447273 
z
" clip-path="url(#pe12866cbdf)" style="fill: #e61a1a; stroke: #262626; stroke-width: 1.5"/>
    <path d="M 143.246702 164.526402 
L 143.76986 163.294309 
L 143.902262 160.359076 
L 143.566348 157.440123 
L 142.958892 156.247333 
L 106.217071 157.524609 
L 105.693917 158.756703 
L 105.561518 161.691936 
L 105.89743 164.610889 
L 106.504881 165.803678 
z
" clip-path="url(#pe12866cbdf)" style="fill: #666666; stroke: #262626"/>
    <path d="M 107.252687 162.113118 
L 106.782232 158.539659 
L 105.402929 155.209726 
L 103.208774 152.350247 
L 100.349295 150.156092 
L 97.019362 148.776789 
L 93.445904 148.306334 
L 89.872445 148.776789 
L 86.542512 150.156092 
L 83.683033 152.350247 
L 81.488878 155.209726 
L 80.109575 158.539659 
L 79.63912 162.113118 
L 80.109575 165.686576 
L 81.488878 169.016509 
L 83.683033 171.875988 
L 86.542512 174.070143 
L 89.872445 175.449446 
L 93.445904 175.919901 
L 97.019362 175.449446 
L 100.349295 174.070143 
L 103.208774 171.875988 
L 105.402929 169.016509 
L 106.782232 165.686576 
L 107.252687 162.113118 
z
" clip-path="url(#pe12866cbdf)" style="fill: #e61a1a; stroke: #262626; stroke-width: 1.5"/>
    <path d="M 297.705579 287.68725 
L 294.775041 286.747667 
L 291.969551 288.189846 
L 290.932528 291.168979 
L 292.271445 293.93993 
L 299.619738 300.326249 
L 302.550276 301.265832 
L 305.355765 299.823653 
L 306.392788 296.84452 
L 305.053872 294.073569 
z
" clip-path="url(#pe12866cbdf)" style="fill: #666666; stroke: #262626"/>
    <path d="M 159.531513 226.184222 
L 225.617122 157.518377 
L 172.748635 171.302599 
z
" clip-path="url(#pe12866cbdf)" style="fill: #4d6c9b; fill-opacity: 0.25; stroke: #4c4c4c; stroke-width: 0.8"/>
    <path d="M 318.726636 299.444807 
L 318.256181 295.871348 
L 316.876878 292.541415 
L 314.682723 289.681936 
L 311.823244 287.487781 
L 308.493311 286.108478 
L 304.919853 285.638023 
L 301.346394 286.108478 
L 298.016461 287.487781 
L 295.156982 289.681936 
L 292.962827 292.541415 
L 291.583524 295.871348 
L 291.113069 299.444807 
L 291.583524 303.018265 
L 292.962827 306.348198 
L 295.156982 309.207677 
L 298.016461 311.401832 
L 301.346394 312.781135 
L 304.919853 313.25159 
L 308.493311 312.781135 
L 311.823244 311.401832 
L 314.682723 309.207677 
L 316.876878 306.348198 
L 318.256181 303.018265 
L 318.726636 299.444807 
z
" clip-path="url(#pe12866cbdf)" style="fill: #e61a1a; stroke: #262626; stroke-width: 1.5"/>
    <path d="M 297.705548 154.950275 
L 294.775008 154.01069 
L 291.969518 155.452869 
L 290.932496 158.432003 
L 292.271414 161.202955 
L 299.619762 167.589321 
L 302.550301 168.528906 
L 305.355791 167.086727 
L 306.392814 164.107594 
L 305.053896 161.336641 
z
" clip-path="url(#pe12866cbdf)" style="fill: #666666; stroke: #262626"/>
    <path d="M 225.617122 157.518377 
L 159.531513 93.447273 
L 172.748635 171.302599 
z
" clip-path="url(#pe12866cbdf)" style="fill: #5d82ba; fill-opacity: 0.25; stroke: #4c4c4c; stroke-width: 0.8"/>
    <path d="M 159.531513 226.184222 
L 93.445904 162.113118 
L 172.748635 171.302599 
z
" clip-path="url(#pe12866cbdf)" style="fill: #5f84bd; fill-opacity: 0.25; stroke: #4c4c4c; stroke-width: 0.8"/>
    <path d="M 93.445904 162.113118 
L 159.531513 93.447273 
L 172.748635 171.302599 
z
" clip-path="url(#pe12866cbdf)" style="fill: #6e9adc; fill-opacity: 0.25; stroke: #4c4c4c; stroke-width: 0.8"/>
    <path d="M 318.726636 166.707858 
L 318.256181 163.1344 
L 316.876878 159.804466 
L 314.682723 156.944988 
L 311.823244 154.750833 
L 308.493311 153.371529 
L 304.919853 152.901075 
L 301.346394 153.371529 
L 298.016461 154.750833 
L 295.156982 156.944988 
L 292.962827 159.804466 
L 291.583524 163.1344 
L 291.113069 166.707858 
L 291.583524 170.281317 
L 292.962827 173.61125 
L 295.156982 176.470728 
L 298.016461 178.664883 
L 301.346394 180.044187 
L 304.919853 180.514642 
L 308.493311 180.044187 
L 311.823244 178.664883 
L 314.682723 176.470728 
L 316.876878 173.61125 
L 318.256181 170.281317 
L 318.726636 166.707858 
z
" clip-path="url(#pe12866cbdf)" style="fill: #e61a1a; stroke: #262626; stroke-width: 1.5"/>
    <path d="M 165.534326 292.281961 
L 162.603787 291.342376 
L 159.798297 292.784555 
L 158.761274 295.763688 
L 160.100193 298.534641 
L 167.448547 304.921013 
L 170.379086 305.860598 
L 173.184576 304.418419 
L 174.221599 301.439285 
L 172.88268 298.668333 
z
" clip-path="url(#pe12866cbdf)" style="fill: #666666; stroke: #262626"/>
    <path d="M 186.555418 304.039547 
L 186.084963 300.466089 
L 184.70566 297.136155 
L 182.511505 294.276677 
L 179.652026 292.082522 
L 176.322093 290.703218 
L 172.748635 290.232764 
L 169.175176 290.703218 
L 165.845243 292.082522 
L 162.985764 294.276677 
L 160.791609 297.136155 
L 159.412306 300.466089 
L 158.941851 304.039547 
L 159.412306 307.613006 
L 160.791609 310.942939 
L 162.985764 313.802417 
L 165.845243 315.996572 
L 169.175176 317.375876 
L 172.748635 317.846331 
L 176.322093 317.375876 
L 179.652026 315.996572 
L 182.511505 313.802417 
L 184.70566 310.942939 
L 186.084963 307.613006 
L 186.555418 304.039547 
z
" clip-path="url(#pe12866cbdf)" style="fill: #e61a1a; stroke: #262626; stroke-width: 1.5"/>
    <path d="M 165.534296 159.544986 
L 162.603755 158.605399 
L 159.798264 160.047578 
L 158.761242 163.026712 
L 160.100162 165.797666 
L 167.448571 172.184085 
L 170.379112 173.123671 
L 173.184602 171.681493 
L 174.221624 168.702359 
L 172.882705 165.931405 
z
" clip-path="url(#pe12866cbdf)" style="fill: #666666; stroke: #262626"/>
    <path d="M 186.555418 171.302599 
L 186.084963 167.72914 
L 184.70566 164.399207 
L 182.511505 161.539728 
L 179.652026 159.345573 
L 176.322093 157.96627 
L 172.748635 157.495815 
L 169.175176 157.96627 
L 165.845243 159.345573 
L 162.985764 161.539728 
L 160.791609 164.399207 
L 159.412306 167.72914 
L 158.941851 171.302599 
L 159.412306 174.876057 
L 160.791609 178.20599 
L 162.985764 181.065469 
L 165.845243 183.259624 
L 169.175176 184.638927 
L 172.748635 185.109382 
L 176.322093 184.638927 
L 179.652026 183.259624 
L 182.511505 181.065469 
L 184.70566 178.20599 
L 186.084963 174.876057 
L 186.555418 171.302599 
z
" clip-path="url(#pe12866cbdf)" style="fill: #e61a1a; stroke: #262626; stroke-width: 1.5"/>
   </g>
  </g>
 </g>
 <defs>
  <clipPath id="pe12866cbdf">
   <rect x="7.2" y="7.2" width="410.4" height="410.4"/>
  </clipPath>
 </defs>
</svg>
