<?xml version="1.0" encoding="utf-8" standalone="no"?>
<!DOCTYPE svg PUBLIC "-//W3C//DTD SVG 1.1//EN"
  "http://www.w3.org/Graphics/SVG/1.1/DTD/svg11.dtd">
<svg xmlns:xlink="http://www.w3.org/1999/xlink" width="280.8pt" height="280.8pt" viewBox="0 0 280.8 280.8" xmlns="http://www.w3.org/2000/svg" version="1.1">
 <metadata>
  <rdf:RDF xmlns:dc="http://purl.org/dc/elements/1.1/" xmlns:cc="http://creativecommons.org/ns#" xmlns:rdf="http://www.w3.org/1999/02/22-rdf-syntax-ns#">
   <cc:Work>
    <dc:type rdf:resource="http://purl.org/dc/dcmitype/StillImage"/>
    <dc:date>2026-02-15T20:50:39.021718</dc:date>
    <dc:format>image/svg+xml</dc:format>
    <dc:creator>
     <cc:Agent>
      <dc:title>Matplotlib v3.10.7, https://matplotlib.org/</dc:title>
     </cc:Agent>
    </dc:creator>
   </cc:Work>
  </rdf:RDF>
 </metadata>
 <defs>
  <style type="text/css">*{stroke-linejoin: round; stroke-linecap: butt}</style>
 </defs>
 <g id="figure_1">
  <g id="patch_1">
   <path d="M 0 280.8 
L 280.8 280.8 
L 280.8 0 
L 0 0 
z
" style="fill: #ffffff"/>
  </g>
  <g id="axes_1">
   <g id="PolyCollection_1">
    <path d="M 151.812609 173.423143 
L 151.291337 169.463692 
L 149.763046 165.774071 
L 147.331886 162.605722 
L 144.163537 160.174562 
L 140.473916 158.646271 
L 136.514465 158.124999 
L 132.555014 158.646271 
L 128.865393 160.174562 
L 125.697044 162.605722 
L 123.265884 165.774071 
L 121.737593 169.463692 
L 121.216321 173.423143 
L 121.737593 177.382594 
L 123.265884 181.072215 
L 125.697044 184.240564 
L 128.865393 186.671724 
L 132.555014 188.200015 
L 136.514465 188.721287 
L 140.473916 188.200015 
L 144.163537 186.671724 
L 147.331886 184.240564 
L 149.763046 181.072215 
L 151.291337 177.382594 
L 151.812609 173.423143 
z
" clip-path="url(#pbb229331c0)" style="fill: #00cc33"/>
    <path d="M 131.125429 96.077216 
L 130.604157 92.117766 
L 129.075866 88.428145 
L 126.644706 85.259795 
L 123.476357 82.828635 
L 119.786736 81.300344 
L 115.827285 80.779073 
L 111.867834 81.300344 
L 108.178213 82.828635 
L 105.009864 85.259795 
L 102.578704 88.428145 
L 101.050413 92.117766 
L 100.529141 96.077216 
L 101.050413 100.036667 
L 102.578704 103.726288 
L 105.009864 106.894638 
L 108.178213 109.325798 
L 111.867834 110.854089 
L 115.827285 111.37536 
L 119.786736 110.854089 
L 123.476357 109.325798 
L 126.644706 106.894638 
L 129.075866 103.726288 
L 130.604157 100.036667 
L 131.125429 96.077216 
z
" clip-path="url(#pbb229331c0)" style="fill: #00cc33"/>
    <path d="M 169.866621 134.75018 
L 169.568752 132.487636 
L 168.695443 130.379281 
L 167.306208 128.568796 
L 165.495723 127.179562 
L 163.387368 126.306253 
L 161.124825 126.008383 
L 158.862281 126.306253 
L 156.753927 127.179562 
L 154.943441 128.568796 
L 153.554207 130.379281 
L 152.680898 132.487636 
L 152.383028 134.75018 
L 152.680898 137.012723 
L 153.554207 139.121078 
L 154.943441 140.931563 
L 156.753927 142.320797 
L 158.862281 143.194107 
L 161.124825 143.491976 
L 163.387368 143.194107 
L 165.495723 142.320797 
L 167.306208 140.931563 
L 168.695443 139.121078 
L 169.568752 137.012723 
L 169.866621 134.75018 
z
" clip-path="url(#pbb229331c0)" style="fill: #e61a1a"/>
    <path d="M 112.730771 152.783679 
L 112.432902 150.521135 
L 111.559592 148.41278 
L 110.170358 146.602295 
L 108.359873 145.213061 
L 106.251518 144.339752 
L 103.988975 144.041882 
L 101.726431 144.339752 
L 99.618076 145.213061 
L 97.807591 146.602295 
L 96.418357 148.41278 
L 95.545048 150.521135 
L 95.247178 152.783679 
L 95.545048 155.046222 
L 96.418357 157.154577 
L 97.807591 158.965062 
L 99.618076 160.354296 
L 101.726431 161.227605 
L 103.988975 161.525475 
L 106.251518 161.227605 
L 108.359873 160.354296 
L 110.170358 158.965062 
L 111.559592 157.154577 
L 112.432902 155.046222 
L 112.730771 152.783679 
z
" clip-path="url(#pbb229331c0)" style="fill: #e61a1a"/>
    <path d="M 161.124825 134.75018 
L 149.286514 191.456642 
L 103.988975 152.783679 
z
" clip-path="url(#pbb229331c0)" style="fill: #7caef9; fill-opacity: 0.25; stroke: #4c4c4c; stroke-width: 0.8"/>
    <path d="M 221.720508 173.423143 
L 221.199237 169.463692 
L 219.670946 165.774071 
L 217.239786 162.605722 
L 214.071436 160.174562 
L 210.381816 158.646271 
L 206.422365 158.124999 
L 202.462914 158.646271 
L 198.773293 160.174562 
L 195.604943 162.605722 
L 193.173784 165.774071 
L 191.645493 169.463692 
L 191.124221 173.423143 
L 191.645493 177.382594 
L 193.173784 181.072215 
L 195.604943 184.240564 
L 198.773293 186.671724 
L 202.462914 188.200015 
L 206.422365 188.721287 
L 210.381816 188.200015 
L 214.071436 186.671724 
L 217.239786 184.240564 
L 219.670946 181.072215 
L 221.199237 177.382594 
L 221.720508 173.423143 
z
" clip-path="url(#pbb229331c0)" style="fill: #00cc33"/>
    <path d="M 158.028311 191.456642 
L 157.730441 189.194098 
L 156.857132 187.085744 
L 155.467898 185.275258 
L 153.657413 183.886024 
L 151.549058 183.012715 
L 149.286514 182.714845 
L 147.023971 183.012715 
L 144.915616 183.886024 
L 143.105131 185.275258 
L 141.715897 187.085744 
L 140.842588 189.194098 
L 140.544718 191.456642 
L 140.842588 193.719185 
L 141.715897 195.82754 
L 143.105131 197.638025 
L 144.915616 199.02726 
L 147.023971 199.900569 
L 149.286514 200.198438 
L 151.549058 199.900569 
L 153.657413 199.02726 
L 155.467898 197.638025 
L 156.857132 195.82754 
L 157.730441 193.719185 
L 158.028311 191.456642 
z
" clip-path="url(#pbb229331c0)" style="fill: #e61a1a"/>
    <path d="M 128.599334 114.110715 
L 161.124825 134.75018 
L 103.988975 152.783679 
z
" clip-path="url(#pbb229331c0)" style="fill: #5e83bc; fill-opacity: 0.25; stroke: #4c4c4c; stroke-width: 0.8"/>
    <path d="M 107.448808 209.490141 
L 106.927536 205.53069 
L 105.399245 201.841069 
L 102.968085 198.67272 
L 99.799736 196.24156 
L 96.110115 194.713269 
L 92.150664 194.191997 
L 88.191213 194.713269 
L 84.501592 196.24156 
L 81.333243 198.67272 
L 78.902083 201.841069 
L 77.373792 205.53069 
L 76.852521 209.490141 
L 77.373792 213.449592 
L 78.902083 217.139213 
L 81.333243 220.307562 
L 84.501592 222.738722 
L 88.191213 224.267013 
L 92.150664 224.788284 
L 96.110115 224.267013 
L 99.799736 222.738722 
L 102.968085 220.307562 
L 105.399245 217.139213 
L 106.927536 213.449592 
L 107.448808 209.490141 
z
" clip-path="url(#pbb229331c0)" style="fill: #00cc33"/>
    <path d="M 161.124825 134.75018 
L 149.286514 191.456642 
L 173.896874 152.783679 
z
" clip-path="url(#pbb229331c0)" style="fill: #4a6793; fill-opacity: 0.25; stroke: #4c4c4c; stroke-width: 0.8"/>
    <path d="M 116.761024 170.817177 
L 149.286514 191.456642 
L 103.988975 152.783679 
z
" clip-path="url(#pbb229331c0)" style="fill: #3b5276; fill-opacity: 0.25; stroke: #4c4c4c; stroke-width: 0.8"/>
    <path d="M 149.179441 57.404253 
L 148.881572 55.14171 
L 148.008263 53.033355 
L 146.619028 51.22287 
L 144.808543 49.833636 
L 142.700188 48.960326 
L 140.437645 48.662457 
L 138.175101 48.960326 
L 136.066747 49.833636 
L 134.256261 51.22287 
L 132.867027 53.033355 
L 131.993718 55.14171 
L 131.695848 57.404253 
L 131.993718 59.666797 
L 132.867027 61.775151 
L 134.256261 63.585637 
L 136.066747 64.974871 
L 138.175101 65.84818 
L 140.437645 66.14605 
L 142.700188 65.84818 
L 144.808543 64.974871 
L 146.619028 63.585637 
L 148.008263 61.775151 
L 148.881572 59.666797 
L 149.179441 57.404253 
z
" clip-path="url(#pbb229331c0)" style="fill: #e61a1a"/>
    <path d="M 142.802945 146.265687 
L 142.219248 147.730161 
L 142.946567 149.528787 
L 144.558846 150.607956 
L 146.111635 150.335504 
L 158.444181 140.309358 
L 159.027879 138.844884 
L 158.300561 137.046257 
L 156.688282 135.967089 
L 155.135491 136.239542 
z
" clip-path="url(#pbb229331c0)" style="fill: #666666"/>
    <path d="M 130.253463 155.406217 
L 131.317112 154.638094 
L 131.75769 152.783679 
L 131.317112 150.929264 
L 130.253463 150.16114 
L 110.819992 150.16114 
L 109.756341 150.929264 
L 109.315762 152.783679 
L 109.756341 154.638094 
L 110.819992 155.406217 
z
" clip-path="url(#pbb229331c0)" style="fill: #666666"/>
    <path d="M 144.047799 161.720061 
L 143.139884 161.298351 
L 141.279731 161.52061 
L 139.556994 162.256642 
L 138.980828 163.075289 
L 144.73159 184.576433 
L 145.639507 184.998146 
L 147.49966 184.775888 
L 149.222396 184.039855 
L 149.798561 183.221205 
z
" clip-path="url(#pbb229331c0)" style="fill: #666666"/>
    <path d="M 149.87017 152.783679 
L 149.497833 149.955499 
L 148.406197 147.320056 
L 146.669654 145.056949 
L 144.406547 143.320406 
L 141.771104 142.22877 
L 138.942924 141.856433 
L 136.114745 142.22877 
L 133.479302 143.320406 
L 131.216195 145.056949 
L 129.479652 147.320056 
L 128.388016 149.955499 
L 128.015679 152.783679 
L 128.388016 155.611858 
L 129.479652 158.247301 
L 131.216195 160.510408 
L 133.479302 162.246951 
L 136.114745 163.338587 
L 138.942924 163.710924 
L 141.771104 163.338587 
L 144.406547 162.246951 
L 146.669654 160.510408 
L 148.406197 158.247301 
L 149.497833 155.611858 
L 149.87017 152.783679 
z
" clip-path="url(#pbb229331c0)" style="fill: #3366e6"/>
    <path d="M 128.599334 114.110715 
L 161.124825 134.75018 
L 173.896874 152.783679 
z
" clip-path="url(#pbb229331c0)" style="fill: #3b5276; fill-opacity: 0.25; stroke: #4c4c4c; stroke-width: 0.8"/>
    <path d="M 92.043591 75.437752 
L 91.745721 73.175209 
L 90.872412 71.066854 
L 89.483178 69.256369 
L 87.672693 67.867134 
L 85.564338 66.993825 
L 83.301795 66.695956 
L 81.039251 66.993825 
L 78.930896 67.867134 
L 77.120411 69.256369 
L 75.731177 71.066854 
L 74.857868 73.175209 
L 74.559998 75.437752 
L 74.857868 77.700296 
L 75.731177 79.80865 
L 77.120411 81.619136 
L 78.930896 83.00837 
L 81.039251 83.881679 
L 83.301795 84.179549 
L 85.564338 83.881679 
L 87.672693 83.00837 
L 89.483178 81.619136 
L 90.872412 79.80865 
L 91.745721 77.700296 
L 92.043591 75.437752 
z
" clip-path="url(#pbb229331c0)" style="fill: #e61a1a"/>
    <path d="M 140.437645 57.404253 
L 128.599334 114.110715 
L 83.301795 75.437752 
z
" clip-path="url(#pbb229331c0)" style="fill: #7caef9; fill-opacity: 0.25; stroke: #4c4c4c; stroke-width: 0.8"/>
    <path d="M 128.599334 114.110715 
L 116.761024 170.817177 
L 103.988975 152.783679 
z
" clip-path="url(#pbb229331c0)" style="fill: #4a6793; fill-opacity: 0.25; stroke: #4c4c4c; stroke-width: 0.8"/>
    <path d="M 201.033328 96.077216 
L 200.512057 92.117766 
L 198.983766 88.428145 
L 196.552606 85.259795 
L 193.384256 82.828635 
L 189.694636 81.300344 
L 185.735185 80.779073 
L 181.775734 81.300344 
L 178.086113 82.828635 
L 174.917763 85.259795 
L 172.486603 88.428145 
L 170.958312 92.117766 
L 170.437041 96.077216 
L 170.958312 100.036667 
L 172.486603 103.726288 
L 174.917763 106.894638 
L 178.086113 109.325798 
L 181.775734 110.854089 
L 185.735185 111.37536 
L 189.694636 110.854089 
L 193.384256 109.325798 
L 196.552606 106.894638 
L 198.983766 103.726288 
L 200.512057 100.036667 
L 201.033328 96.077216 
z
" clip-path="url(#pbb229331c0)" style="fill: #00cc33"/>
    <path d="M 133.83805 143.847296 
L 134.745965 144.269006 
L 136.606118 144.046747 
L 138.328855 143.310715 
L 138.905021 142.492068 
L 133.154261 120.990935 
L 132.246347 120.569228 
L 130.386194 120.791488 
L 128.663457 121.527518 
L 128.08729 122.346162 
z
" clip-path="url(#pbb229331c0)" style="fill: #666666"/>
    <path d="M 116.761024 170.817177 
L 149.286514 191.456642 
L 173.896874 152.783679 
z
" clip-path="url(#pbb229331c0)" style="fill: #5e83bc; fill-opacity: 0.25; stroke: #4c4c4c; stroke-width: 0.8"/>
    <path d="M 137.341131 114.110715 
L 137.043261 111.848172 
L 136.169952 109.739817 
L 134.780718 107.929332 
L 132.970233 106.540098 
L 130.861878 105.666788 
L 128.599334 105.368919 
L 126.336791 105.666788 
L 124.228436 106.540098 
L 122.417951 107.929332 
L 121.028717 109.739817 
L 120.155407 111.848172 
L 119.857538 114.110715 
L 120.155407 116.373259 
L 121.028717 118.481614 
L 122.417951 120.292099 
L 124.228436 121.681333 
L 126.336791 122.554642 
L 128.599334 122.852512 
L 130.861878 122.554642 
L 132.970233 121.681333 
L 134.780718 120.292099 
L 136.169952 118.481614 
L 137.043261 116.373259 
L 137.341131 114.110715 
z
" clip-path="url(#pbb229331c0)" style="fill: #e61a1a"/>
    <path d="M 239.774521 134.75018 
L 239.476651 132.487636 
L 238.603342 130.379281 
L 237.214108 128.568796 
L 235.403623 127.179562 
L 233.295268 126.306253 
L 231.032724 126.008383 
L 228.770181 126.306253 
L 226.661826 127.179562 
L 224.851341 128.568796 
L 223.462107 130.379281 
L 222.588797 132.487636 
L 222.290928 134.75018 
L 222.588797 137.012723 
L 223.462107 139.121078 
L 224.851341 140.931563 
L 226.661826 142.320797 
L 228.770181 143.194107 
L 231.032724 143.491976 
L 233.295268 143.194107 
L 235.403623 142.320797 
L 237.214108 140.931563 
L 238.603342 139.121078 
L 239.476651 137.012723 
L 239.774521 134.75018 
z
" clip-path="url(#pbb229331c0)" style="fill: #e61a1a"/>
    <path d="M 86.761628 132.144214 
L 86.240356 128.184763 
L 84.712065 124.495142 
L 82.280905 121.326793 
L 79.112556 118.895633 
L 75.422935 117.367342 
L 71.463484 116.846071 
L 67.504033 117.367342 
L 63.814412 118.895633 
L 60.646063 121.326793 
L 58.214903 124.495142 
L 56.686612 128.184763 
L 56.16534 132.144214 
L 56.686612 136.103665 
L 58.214903 139.793286 
L 60.646063 142.961635 
L 63.814412 145.392795 
L 67.504033 146.921086 
L 71.463484 147.442358 
L 75.422935 146.921086 
L 79.112556 145.392795 
L 82.280905 142.961635 
L 84.712065 139.793286 
L 86.240356 136.103665 
L 86.761628 132.144214 
z
" clip-path="url(#pbb229331c0)" style="fill: #00cc33"/>
    <path d="M 147.632385 150.16114 
L 146.568737 150.929264 
L 146.128159 152.783679 
L 146.568737 154.638094 
L 147.632385 155.406217 
L 167.065841 155.406217 
L 168.129488 154.638094 
L 168.570065 152.783679 
L 168.129488 150.929264 
L 167.065841 150.16114 
z
" clip-path="url(#pbb229331c0)" style="fill: #666666"/>
    <path d="M 140.437645 57.404253 
L 128.599334 114.110715 
L 153.209694 75.437752 
z
" clip-path="url(#pbb229331c0)" style="fill: #4a6793; fill-opacity: 0.25; stroke: #4c4c4c; stroke-width: 0.8"/>
    <path d="M 128.599334 114.110715 
L 116.761024 170.817177 
L 173.896874 152.783679 
z
" clip-path="url(#pbb229331c0)" style="fill: #7caef9; fill-opacity: 0.25; stroke: #4c4c4c; stroke-width: 0.8"/>
    <path d="M 182.638671 152.783679 
L 182.340801 150.521135 
L 181.467492 148.41278 
L 180.078258 146.602295 
L 178.267772 145.213061 
L 176.159418 144.339752 
L 173.896874 144.041882 
L 171.634331 144.339752 
L 169.525976 145.213061 
L 167.715491 146.602295 
L 166.326256 148.41278 
L 165.452947 150.521135 
L 165.155078 152.783679 
L 165.452947 155.046222 
L 166.326256 157.154577 
L 167.715491 158.965062 
L 169.525976 160.354296 
L 171.634331 161.227605 
L 173.896874 161.525475 
L 176.159418 161.227605 
L 178.267772 160.354296 
L 180.078258 158.965062 
L 181.467492 157.154577 
L 182.340801 155.046222 
L 182.638671 152.783679 
z
" clip-path="url(#pbb229331c0)" style="fill: #e61a1a"/>
    <path d="M 122.115756 68.919768 
L 121.532058 70.384243 
L 122.259375 72.18287 
L 123.871655 73.262038 
L 125.424446 72.989585 
L 137.757008 62.963426 
L 138.340707 61.49895 
L 137.613391 59.700323 
L 136.00111 58.621155 
L 134.448318 58.893609 
z
" clip-path="url(#pbb229331c0)" style="fill: #666666"/>
    <path d="M 109.566289 78.060291 
L 110.629939 77.292167 
L 111.070518 75.437752 
L 110.629939 73.583337 
L 109.566289 72.815213 
L 90.132808 72.815213 
L 89.069155 73.583337 
L 88.628575 75.437752 
L 89.069155 77.292167 
L 90.132808 78.060291 
z
" clip-path="url(#pbb229331c0)" style="fill: #666666"/>
    <path d="M 123.360623 84.374148 
L 122.452709 83.952444 
L 120.592557 84.174705 
L 118.869819 84.910735 
L 118.293651 85.729376 
L 124.044407 107.230496 
L 124.952322 107.652203 
L 126.812474 107.429943 
L 128.535212 106.693912 
L 129.111379 105.875268 
z
" clip-path="url(#pbb229331c0)" style="fill: #666666"/>
    <path d="M 219.194414 191.456642 
L 231.032724 134.75018 
L 173.896874 152.783679 
z
" clip-path="url(#pbb229331c0)" style="fill: #7caef9; fill-opacity: 0.25; stroke: #4c4c4c; stroke-width: 0.8"/>
    <path d="M 96.073844 93.471251 
L 128.599334 114.110715 
L 83.301795 75.437752 
z
" clip-path="url(#pbb229331c0)" style="fill: #3b5276; fill-opacity: 0.25; stroke: #4c4c4c; stroke-width: 0.8"/>
    <path d="M 140.437645 57.404253 
L 153.209694 75.437752 
L 96.073844 93.471251 
L 83.301795 75.437752 
z
" clip-path="url(#pbb229331c0)" style="fill: #4d6c9b; fill-opacity: 0.25; stroke: #4c4c4c; stroke-width: 0.8"/>
    <path d="M 129.18299 75.437752 
L 128.810653 72.609573 
L 127.719017 69.974129 
L 125.982474 67.711023 
L 123.719367 65.97448 
L 121.083924 64.882844 
L 118.255744 64.510507 
L 115.427565 64.882844 
L 112.792122 65.97448 
L 110.529015 67.711023 
L 108.792472 69.974129 
L 107.700836 72.609573 
L 107.328499 75.437752 
L 107.700836 78.265931 
L 108.792472 80.901375 
L 110.529015 83.164482 
L 112.792122 84.901024 
L 115.427565 85.992661 
L 118.255744 86.364998 
L 121.083924 85.992661 
L 123.719367 84.901024 
L 125.982474 83.164482 
L 127.719017 80.901375 
L 128.810653 78.265931 
L 129.18299 75.437752 
z
" clip-path="url(#pbb229331c0)" style="fill: #3366e6"/>
    <path d="M 135.082904 159.30167 
L 135.6666 157.837197 
L 134.939282 156.03857 
L 133.327003 154.959401 
L 131.774214 155.231853 
L 119.44168 165.257988 
L 118.857985 166.722461 
L 119.585304 168.521087 
L 121.197582 169.600256 
L 122.75037 169.327805 
z
" clip-path="url(#pbb229331c0)" style="fill: #666666"/>
    <path d="M 125.50282 170.817177 
L 125.204951 168.554634 
L 124.331642 166.446279 
L 122.942408 164.635794 
L 121.131922 163.24656 
L 119.023567 162.373251 
L 116.761024 162.075381 
L 114.498481 162.373251 
L 112.390126 163.24656 
L 110.57964 164.635794 
L 109.190406 166.446279 
L 108.317097 168.554634 
L 108.019228 170.817177 
L 108.317097 173.079721 
L 109.190406 175.188076 
L 110.57964 176.998561 
L 112.390126 178.387795 
L 114.498481 179.261104 
L 116.761024 179.558974 
L 119.023567 179.261104 
L 121.131922 178.387795 
L 122.942408 176.998561 
L 124.331642 175.188076 
L 125.204951 173.079721 
L 125.50282 170.817177 
z
" clip-path="url(#pbb229331c0)" style="fill: #e61a1a"/>
    <path d="M 227.93621 191.456642 
L 227.638341 189.194098 
L 226.765032 187.085744 
L 225.375797 185.275258 
L 223.565312 183.886024 
L 221.456957 183.012715 
L 219.194414 182.714845 
L 216.931871 183.012715 
L 214.823516 183.886024 
L 213.01303 185.275258 
L 211.623796 187.085744 
L 210.750487 189.194098 
L 210.452618 191.456642 
L 210.750487 193.719185 
L 211.623796 195.82754 
L 213.01303 197.638025 
L 214.823516 199.02726 
L 216.931871 199.900569 
L 219.194414 200.198438 
L 221.456957 199.900569 
L 223.565312 199.02726 
L 225.375797 197.638025 
L 226.765032 195.82754 
L 227.638341 193.719185 
L 227.93621 191.456642 
z
" clip-path="url(#pbb229331c0)" style="fill: #e61a1a"/>
    <path d="M 198.507234 114.110715 
L 231.032724 134.75018 
L 173.896874 152.783679 
z
" clip-path="url(#pbb229331c0)" style="fill: #5e83bc; fill-opacity: 0.25; stroke: #4c4c4c; stroke-width: 0.8"/>
    <path d="M 68.36697 188.850676 
L 68.069101 186.588133 
L 67.195792 184.479778 
L 65.806557 182.669293 
L 63.996072 181.280059 
L 61.887717 180.406749 
L 59.625174 180.10888 
L 57.36263 180.406749 
L 55.254276 181.280059 
L 53.44379 182.669293 
L 52.054556 184.479778 
L 51.181247 186.588133 
L 50.883377 188.850676 
L 51.181247 191.11322 
L 52.054556 193.221575 
L 53.44379 195.03206 
L 55.254276 196.421294 
L 57.36263 197.294603 
L 59.625174 197.592473 
L 61.887717 197.294603 
L 63.996072 196.421294 
L 65.806557 195.03206 
L 67.195792 193.221575 
L 68.069101 191.11322 
L 68.36697 188.850676 
z
" clip-path="url(#pbb229331c0)" style="fill: #e61a1a"/>
    <path d="M 116.761024 170.817177 
L 104.922714 227.52364 
L 59.625174 188.850676 
z
" clip-path="url(#pbb229331c0)" style="fill: #7caef9; fill-opacity: 0.25; stroke: #4c4c4c; stroke-width: 0.8"/>
    <path d="M 177.356707 209.490141 
L 176.835436 205.53069 
L 175.307145 201.841069 
L 172.875985 198.67272 
L 169.707636 196.24156 
L 166.018015 194.713269 
L 162.058564 194.191997 
L 158.099113 194.713269 
L 154.409492 196.24156 
L 151.241143 198.67272 
L 148.809983 201.841069 
L 147.281692 205.53069 
L 146.76042 209.490141 
L 147.281692 213.449592 
L 148.809983 217.139213 
L 151.241143 220.307562 
L 154.409492 222.738722 
L 158.099113 224.267013 
L 162.058564 224.788284 
L 166.018015 224.267013 
L 169.707636 222.738722 
L 172.875985 220.307562 
L 175.307145 217.139213 
L 176.835436 213.449592 
L 177.356707 209.490141 
z
" clip-path="url(#pbb229331c0)" style="fill: #00cc33"/>
    <path d="M 96.073844 93.471251 
L 128.599334 114.110715 
L 153.209694 75.437752 
z
" clip-path="url(#pbb229331c0)" style="fill: #5e83bc; fill-opacity: 0.25; stroke: #4c4c4c; stroke-width: 0.8"/>
    <path d="M 186.668924 170.817177 
L 219.194414 191.456642 
L 173.896874 152.783679 
z
" clip-path="url(#pbb229331c0)" style="fill: #3b5276; fill-opacity: 0.25; stroke: #4c4c4c; stroke-width: 0.8"/>
    <path d="M 219.087341 57.404253 
L 218.789471 55.14171 
L 217.916162 53.033355 
L 216.526928 51.22287 
L 214.716442 49.833636 
L 212.608088 48.960326 
L 210.345544 48.662457 
L 208.083001 48.960326 
L 205.974646 49.833636 
L 204.164161 51.22287 
L 202.774927 53.033355 
L 201.901617 55.14171 
L 201.603748 57.404253 
L 201.901617 59.666797 
L 202.774927 61.775151 
L 204.164161 63.585637 
L 205.974646 64.974871 
L 208.083001 65.84818 
L 210.345544 66.14605 
L 212.608088 65.84818 
L 214.716442 64.974871 
L 216.526928 63.585637 
L 217.916162 61.775151 
L 218.789471 59.666797 
L 219.087341 57.404253 
z
" clip-path="url(#pbb229331c0)" style="fill: #e61a1a"/>
    <path d="M 113.66451 227.52364 
L 113.366641 225.261096 
L 112.493331 223.152741 
L 111.104097 221.342256 
L 109.293612 219.953022 
L 107.185257 219.079713 
L 104.922714 218.781843 
L 102.66017 219.079713 
L 100.551815 219.953022 
L 98.74133 221.342256 
L 97.352096 223.152741 
L 96.478787 225.261096 
L 96.180917 227.52364 
L 96.478787 229.786183 
L 97.352096 231.894538 
L 98.74133 233.705023 
L 100.551815 235.094257 
L 102.66017 235.967566 
L 104.922714 236.265436 
L 107.185257 235.967566 
L 109.293612 235.094257 
L 111.104097 233.705023 
L 112.493331 231.894538 
L 113.366641 229.786183 
L 113.66451 227.52364 
z
" clip-path="url(#pbb229331c0)" style="fill: #e61a1a"/>
    <path d="M 212.710829 146.265699 
L 212.12713 147.730175 
L 212.854448 149.528802 
L 214.466728 150.60797 
L 216.019519 150.335516 
L 228.352093 140.309349 
L 228.935793 138.844872 
L 228.208476 137.046244 
L 226.596195 135.967077 
L 225.043402 136.239532 
z
" clip-path="url(#pbb229331c0)" style="fill: #666666"/>
    <path d="M 200.161343 155.406217 
L 201.224988 154.638094 
L 201.665563 152.783679 
L 201.224988 150.929264 
L 200.161343 150.16114 
L 180.727907 150.16114 
L 179.664261 150.929264 
L 179.223684 152.783679 
L 179.664261 154.638094 
L 180.727907 155.406217 
z
" clip-path="url(#pbb229331c0)" style="fill: #666666"/>
    <path d="M 213.955698 161.720058 
L 213.047782 161.298347 
L 211.187629 161.520605 
L 209.464892 162.256638 
L 208.888727 163.075286 
L 214.63949 184.576435 
L 215.547407 184.99815 
L 217.40756 184.775893 
L 219.130297 184.039859 
L 219.706462 183.221207 
z
" clip-path="url(#pbb229331c0)" style="fill: #666666"/>
    <path d="M 186.668924 170.817177 
L 198.507234 114.110715 
L 231.032724 134.75018 
L 219.194414 191.456642 
z
" clip-path="url(#pbb229331c0)" style="fill: #5f85be; fill-opacity: 0.25; stroke: #4c4c4c; stroke-width: 0.8"/>
    <path d="M 219.778069 152.783679 
L 219.405733 149.955499 
L 218.314096 147.320056 
L 216.577553 145.056949 
L 214.314447 143.320406 
L 211.679003 142.22877 
L 208.850824 141.856433 
L 206.022645 142.22877 
L 203.387201 143.320406 
L 201.124095 145.056949 
L 199.387552 147.320056 
L 198.295915 149.955499 
L 197.923578 152.783679 
L 198.295915 155.611858 
L 199.387552 158.247301 
L 201.124095 160.510408 
L 203.387201 162.246951 
L 206.022645 163.338587 
L 208.850824 163.710924 
L 211.679003 163.338587 
L 214.314447 162.246951 
L 216.577553 160.510408 
L 218.314096 158.247301 
L 219.405733 155.611858 
L 219.778069 152.783679 
z
" clip-path="url(#pbb229331c0)" style="fill: #3366e6"/>
    <path d="M 126.9452 72.815213 
L 125.881549 73.583337 
L 125.440971 75.437752 
L 125.881549 77.292167 
L 126.9452 78.060291 
L 146.378666 78.060291 
L 147.442314 77.292167 
L 147.882891 75.437752 
L 147.442314 73.583337 
L 146.378666 72.815213 
z
" clip-path="url(#pbb229331c0)" style="fill: #666666"/>
    <path d="M 84.235534 150.177713 
L 116.761024 170.817177 
L 59.625174 188.850676 
z
" clip-path="url(#pbb229331c0)" style="fill: #5e83bc; fill-opacity: 0.25; stroke: #4c4c4c; stroke-width: 0.8"/>
    <path d="M 161.951491 75.437752 
L 161.653621 73.175209 
L 160.780312 71.066854 
L 159.391078 69.256369 
L 157.580592 67.867134 
L 155.472238 66.993825 
L 153.209694 66.695956 
L 150.947151 66.993825 
L 148.838796 67.867134 
L 147.028311 69.256369 
L 145.639076 71.066854 
L 144.765767 73.175209 
L 144.467898 75.437752 
L 144.765767 77.700296 
L 145.639076 79.80865 
L 147.028311 81.619136 
L 148.838796 83.00837 
L 150.947151 83.881679 
L 153.209694 84.179549 
L 155.472238 83.881679 
L 157.580592 83.00837 
L 159.391078 81.619136 
L 160.780312 79.80865 
L 161.653621 77.700296 
L 161.951491 75.437752 
z
" clip-path="url(#pbb229331c0)" style="fill: #e61a1a"/>
    <path d="M 114.395733 81.955736 
L 114.979431 80.491262 
L 114.252113 78.692634 
L 112.639833 77.613466 
L 111.087043 77.885919 
L 98.754493 87.912068 
L 98.170796 89.376542 
L 98.898114 91.175168 
L 100.510394 92.254337 
L 102.063183 91.981885 
z
" clip-path="url(#pbb229331c0)" style="fill: #666666"/>
    <path d="M 198.507234 114.110715 
L 210.345544 57.404253 
L 153.209694 75.437752 
z
" clip-path="url(#pbb229331c0)" style="fill: #7caef9; fill-opacity: 0.25; stroke: #4c4c4c; stroke-width: 0.8"/>
    <path d="M 116.761024 170.817177 
L 104.922714 227.52364 
L 129.533073 188.850676 
z
" clip-path="url(#pbb229331c0)" style="fill: #4a6793; fill-opacity: 0.25; stroke: #4c4c4c; stroke-width: 0.8"/>
    <path d="M 186.668924 170.817177 
L 198.507234 114.110715 
L 173.896874 152.783679 
z
" clip-path="url(#pbb229331c0)" style="fill: #4a6793; fill-opacity: 0.25; stroke: #4c4c4c; stroke-width: 0.8"/>
    <path d="M 104.81564 93.471251 
L 104.517771 91.208708 
L 103.644462 89.100353 
L 102.255227 87.289868 
L 100.444742 85.900633 
L 98.336387 85.027324 
L 96.073844 84.729455 
L 93.811301 85.027324 
L 91.702946 85.900633 
L 89.89246 87.289868 
L 88.503226 89.100353 
L 87.629917 91.208708 
L 87.332048 93.471251 
L 87.629917 95.733794 
L 88.503226 97.842149 
L 89.89246 99.652635 
L 91.702946 101.041869 
L 93.811301 101.915178 
L 96.073844 102.213047 
L 98.336387 101.915178 
L 100.444742 101.041869 
L 102.255227 99.652635 
L 103.644462 97.842149 
L 104.517771 95.733794 
L 104.81564 93.471251 
z
" clip-path="url(#pbb229331c0)" style="fill: #e61a1a"/>
    <path d="M 98.43916 182.332672 
L 97.855466 183.797143 
L 98.582785 185.595769 
L 100.195064 186.674939 
L 101.74785 186.402489 
L 114.080368 176.376366 
L 114.664063 174.911894 
L 113.936744 173.113268 
L 112.324466 172.034099 
L 110.771678 172.30655 
z
" clip-path="url(#pbb229331c0)" style="fill: #666666"/>
    <path d="M 85.889675 191.473215 
L 86.953327 190.705091 
L 87.393906 188.850676 
L 86.953327 186.996261 
L 85.889675 186.228137 
L 66.456182 186.228137 
L 65.392527 186.996261 
L 64.951947 188.850676 
L 65.392527 190.705091 
L 66.456182 191.473215 
z
" clip-path="url(#pbb229331c0)" style="fill: #666666"/>
    <path d="M 99.683997 197.787055 
L 98.776081 197.365343 
L 96.915929 197.587602 
L 95.193191 198.323634 
L 94.617026 199.142283 
L 100.36779 220.643433 
L 101.275707 221.065149 
L 103.13586 220.842892 
L 104.858597 220.106858 
L 105.434761 219.288206 
z
" clip-path="url(#pbb229331c0)" style="fill: #666666"/>
    <path d="M 104.922714 227.52364 
L 129.533073 188.850676 
L 84.235534 150.177713 
L 59.625174 188.850676 
z
" clip-path="url(#pbb229331c0)" style="fill: #6c97d8; fill-opacity: 0.25; stroke: #4c4c4c; stroke-width: 0.8"/>
    <path d="M 105.506369 188.850676 
L 105.134032 186.022497 
L 104.042396 183.387054 
L 102.305853 181.123947 
L 100.042746 179.387404 
L 97.407303 178.295768 
L 94.579124 177.923431 
L 91.750944 178.295768 
L 89.115501 179.387404 
L 86.852394 181.123947 
L 85.115851 183.387054 
L 84.024215 186.022497 
L 83.651878 188.850676 
L 84.024215 191.678856 
L 85.115851 194.314299 
L 86.852394 196.577406 
L 89.115501 198.313949 
L 91.750944 199.405585 
L 94.579124 199.777922 
L 97.407303 199.405585 
L 100.042746 198.313949 
L 102.305853 196.577406 
L 104.042396 194.314299 
L 105.134032 191.678856 
L 105.506369 188.850676 
z
" clip-path="url(#pbb229331c0)" style="fill: #3366e6"/>
    <path d="M 203.74595 143.847299 
L 204.653866 144.26901 
L 206.514019 144.046752 
L 208.236756 143.31072 
L 208.812921 142.492071 
L 203.06216 120.990932 
L 202.154245 120.569224 
L 200.294093 120.791484 
L 198.571355 121.527515 
L 197.995189 122.34616 
z
" clip-path="url(#pbb229331c0)" style="fill: #666666"/>
    <path d="M 207.24903 114.110715 
L 206.951161 111.848172 
L 206.077852 109.739817 
L 204.688617 107.929332 
L 202.878132 106.540098 
L 200.769777 105.666788 
L 198.507234 105.368919 
L 196.244691 105.666788 
L 194.136336 106.540098 
L 192.32585 107.929332 
L 190.936616 109.739817 
L 190.063307 111.848172 
L 189.765438 114.110715 
L 190.063307 116.373259 
L 190.936616 118.481614 
L 192.32585 120.292099 
L 194.136336 121.681333 
L 196.244691 122.554642 
L 198.507234 122.852512 
L 200.769777 122.554642 
L 202.878132 121.681333 
L 204.688617 120.292099 
L 206.077852 118.481614 
L 206.951161 116.373259 
L 207.24903 114.110715 
z
" clip-path="url(#pbb229331c0)" style="fill: #e61a1a"/>
    <path d="M 84.235534 150.177713 
L 116.761024 170.817177 
L 129.533073 188.850676 
z
" clip-path="url(#pbb229331c0)" style="fill: #3b5276; fill-opacity: 0.25; stroke: #4c4c4c; stroke-width: 0.8"/>
    <path d="M 47.67979 111.50475 
L 47.381921 109.242207 
L 46.508611 107.133852 
L 45.119377 105.323366 
L 43.308892 103.934132 
L 41.200537 103.060823 
L 38.937994 102.762954 
L 36.67545 103.060823 
L 34.567096 103.934132 
L 32.75661 105.323366 
L 31.367376 107.133852 
L 30.494067 109.242207 
L 30.196197 111.50475 
L 30.494067 113.767293 
L 31.367376 115.875648 
L 32.75661 117.686133 
L 34.567096 119.075368 
L 36.67545 119.948677 
L 38.937994 120.246546 
L 41.200537 119.948677 
L 43.308892 119.075368 
L 45.119377 117.686133 
L 46.508611 115.875648 
L 47.381921 113.767293 
L 47.67979 111.50475 
z
" clip-path="url(#pbb229331c0)" style="fill: #e61a1a"/>
    <path d="M 96.073844 93.471251 
L 84.235534 150.177713 
L 38.937994 111.50475 
z
" clip-path="url(#pbb229331c0)" style="fill: #7caef9; fill-opacity: 0.25; stroke: #4c4c4c; stroke-width: 0.8"/>
    <path d="M 165.981743 93.471251 
L 210.345544 57.404253 
L 153.209694 75.437752 
z
" clip-path="url(#pbb229331c0)" style="fill: #4d6c9b; fill-opacity: 0.25; stroke: #4c4c4c; stroke-width: 0.8"/>
    <path d="M 156.669527 132.144214 
L 156.148256 128.184763 
L 154.619965 124.495142 
L 152.188805 121.326793 
L 149.020456 118.895633 
L 145.330835 117.367342 
L 141.371384 116.846071 
L 137.411933 117.367342 
L 133.722312 118.895633 
L 130.553963 121.326793 
L 128.122803 124.495142 
L 126.594512 128.184763 
L 126.07324 132.144214 
L 126.594512 136.103665 
L 128.122803 139.793286 
L 130.553963 142.961635 
L 133.722312 145.392795 
L 137.411933 146.921086 
L 141.371384 147.442358 
L 145.330835 146.921086 
L 149.020456 145.392795 
L 152.188805 142.961635 
L 154.619965 139.793286 
L 156.148256 136.103665 
L 156.669527 132.144214 
z
" clip-path="url(#pbb229331c0)" style="fill: #00cc33"/>
    <path d="M 89.47425 179.914297 
L 90.382166 180.336009 
L 92.242319 180.113751 
L 93.965056 179.377719 
L 94.541221 178.55907 
L 88.79046 157.05793 
L 87.882544 156.636221 
L 86.022392 156.85848 
L 84.299655 157.594511 
L 83.723488 158.413157 
z
" clip-path="url(#pbb229331c0)" style="fill: #666666"/>
    <path d="M 165.981743 93.471251 
L 198.507234 114.110715 
L 210.345544 57.404253 
z
" clip-path="url(#pbb229331c0)" style="fill: #5f85be; fill-opacity: 0.25; stroke: #4c4c4c; stroke-width: 0.8"/>
    <path d="M 165.981743 93.471251 
L 198.507234 114.110715 
L 153.209694 75.437752 
z
" clip-path="url(#pbb229331c0)" style="fill: #3b5276; fill-opacity: 0.25; stroke: #4c4c4c; stroke-width: 0.8"/>
    <path d="M 92.97733 150.177713 
L 92.67946 147.91517 
L 91.806151 145.806815 
L 90.416917 143.99633 
L 88.606432 142.607095 
L 86.498077 141.733786 
L 84.235534 141.435917 
L 81.97299 141.733786 
L 79.864635 142.607095 
L 78.05415 143.99633 
L 76.664916 145.806815 
L 75.791607 147.91517 
L 75.493737 150.177713 
L 75.791607 152.440257 
L 76.664916 154.548611 
L 78.05415 156.359097 
L 79.864635 157.748331 
L 81.97299 158.62164 
L 84.235534 158.91951 
L 86.498077 158.62164 
L 88.606432 157.748331 
L 90.416917 156.359097 
L 91.806151 154.548611 
L 92.67946 152.440257 
L 92.97733 150.177713 
z
" clip-path="url(#pbb229331c0)" style="fill: #e61a1a"/>
    <path d="M 192.02364 68.91978 
L 191.43994 70.384257 
L 192.167256 72.182885 
L 193.779537 73.262052 
L 195.33233 72.989597 
L 207.66492 62.963416 
L 208.248621 61.498939 
L 207.521305 59.70031 
L 205.909024 58.621144 
L 204.35623 58.8936 
z
" clip-path="url(#pbb229331c0)" style="fill: #666666"/>
    <path d="M 179.474169 78.060291 
L 180.537815 77.292167 
L 180.978391 75.437752 
L 180.537815 73.583337 
L 179.474169 72.815213 
L 160.040722 72.815213 
L 158.977074 73.583337 
L 158.536497 75.437752 
L 158.977074 77.292167 
L 160.040722 78.060291 
z
" clip-path="url(#pbb229331c0)" style="fill: #666666"/>
    <path d="M 193.268521 84.374145 
L 192.360607 83.95244 
L 190.500455 84.1747 
L 188.777717 84.91073 
L 188.20155 85.729373 
L 193.952307 107.230498 
L 194.860223 107.652207 
L 196.720375 107.429947 
L 198.443113 106.693916 
L 199.019279 105.875271 
z
" clip-path="url(#pbb229331c0)" style="fill: #666666"/>
    <path d="M 199.090889 75.437752 
L 198.718553 72.609573 
L 197.626916 69.974129 
L 195.890373 67.711023 
L 193.627267 65.97448 
L 190.991823 64.882844 
L 188.163644 64.510507 
L 185.335465 64.882844 
L 182.700021 65.97448 
L 180.436914 67.711023 
L 178.700372 69.974129 
L 177.608735 72.609573 
L 177.236398 75.437752 
L 177.608735 78.265931 
L 178.700372 80.901375 
L 180.436914 83.164482 
L 182.700021 84.901024 
L 185.335465 85.992661 
L 188.163644 86.364998 
L 190.991823 85.992661 
L 193.627267 84.901024 
L 195.890373 83.164482 
L 197.626916 80.901375 
L 198.718553 78.265931 
L 199.090889 75.437752 
z
" clip-path="url(#pbb229331c0)" style="fill: #3366e6"/>
    <path d="M 204.990819 159.301658 
L 205.574517 157.837182 
L 204.8472 156.038555 
L 203.23492 154.959387 
L 201.682128 155.231841 
L 189.349568 165.257998 
L 188.76587 166.722473 
L 189.493188 168.5211 
L 191.105468 169.600268 
L 192.658258 169.327815 
z
" clip-path="url(#pbb229331c0)" style="fill: #666666"/>
    <path d="M 195.41072 170.817177 
L 195.11285 168.554634 
L 194.239541 166.446279 
L 192.850307 164.635794 
L 191.039822 163.24656 
L 188.931467 162.373251 
L 186.668924 162.075381 
L 184.40638 162.373251 
L 182.298025 163.24656 
L 180.48754 164.635794 
L 179.098306 166.446279 
L 178.224997 168.554634 
L 177.927127 170.817177 
L 178.224997 173.079721 
L 179.098306 175.188076 
L 180.48754 176.998561 
L 182.298025 178.387795 
L 184.40638 179.261104 
L 186.668924 179.558974 
L 188.931467 179.261104 
L 191.039822 178.387795 
L 192.850307 176.998561 
L 194.239541 175.188076 
L 195.11285 173.079721 
L 195.41072 170.817177 
z
" clip-path="url(#pbb229331c0)" style="fill: #e61a1a"/>
    <path d="M 103.268572 186.228137 
L 102.20492 186.996261 
L 101.764341 188.850676 
L 102.20492 190.705091 
L 103.268572 191.473215 
L 122.70205 191.473215 
L 123.7657 190.705091 
L 124.206278 188.850676 
L 123.7657 186.996261 
L 122.70205 186.228137 
z
" clip-path="url(#pbb229331c0)" style="fill: #666666"/>
    <path d="M 96.073844 93.471251 
L 108.845893 111.50475 
L 38.937994 111.50475 
z
" clip-path="url(#pbb229331c0)" style="fill: #4d6c9b; fill-opacity: 0.25; stroke: #4c4c4c; stroke-width: 0.8"/>
    <path d="M 96.073844 93.471251 
L 84.235534 150.177713 
L 108.845893 111.50475 
z
" clip-path="url(#pbb229331c0)" style="fill: #4a6793; fill-opacity: 0.25; stroke: #4c4c4c; stroke-width: 0.8"/>
    <path d="M 138.27487 188.850676 
L 137.977 186.588133 
L 137.103691 184.479778 
L 135.714457 182.669293 
L 133.903972 181.280059 
L 131.795617 180.406749 
L 129.533073 180.10888 
L 127.27053 180.406749 
L 125.162175 181.280059 
L 123.35169 182.669293 
L 121.962456 184.479778 
L 121.089146 186.588133 
L 120.791277 188.850676 
L 121.089146 191.11322 
L 121.962456 193.221575 
L 123.35169 195.03206 
L 125.162175 196.421294 
L 127.27053 197.294603 
L 129.533073 197.592473 
L 131.795617 197.294603 
L 133.903972 196.421294 
L 135.714457 195.03206 
L 137.103691 193.221575 
L 137.977 191.11322 
L 138.27487 188.850676 
z
" clip-path="url(#pbb229331c0)" style="fill: #e61a1a"/>
    <path d="M 77.751971 104.986753 
L 77.168275 106.451226 
L 77.895594 108.249852 
L 79.507873 109.329021 
L 81.060661 109.05657 
L 93.393195 99.030434 
L 93.976892 97.56596 
L 93.249574 95.767334 
L 91.637294 94.688165 
L 90.084505 94.960617 
z
" clip-path="url(#pbb229331c0)" style="fill: #666666"/>
    <path d="M 65.202501 114.127289 
L 66.266154 113.359165 
L 66.706734 111.50475 
L 66.266154 109.650335 
L 65.202501 108.882211 
L 45.768997 108.882211 
L 44.705341 109.650335 
L 44.26476 111.50475 
L 44.705341 113.359165 
L 45.768997 114.127289 
z
" clip-path="url(#pbb229331c0)" style="fill: #666666"/>
    <path d="M 78.996821 120.441142 
L 78.088906 120.019436 
L 76.228754 120.241697 
L 74.506016 120.977727 
L 73.929849 121.79637 
L 79.680607 143.297497 
L 80.588523 143.719206 
L 82.448675 143.496946 
L 84.171412 142.760915 
L 84.747579 141.942269 
z
" clip-path="url(#pbb229331c0)" style="fill: #666666"/>
    <path d="M 84.235534 150.177713 
L 108.845893 111.50475 
L 38.937994 111.50475 
z
" clip-path="url(#pbb229331c0)" style="fill: #6c97d8; fill-opacity: 0.25; stroke: #4c4c4c; stroke-width: 0.8"/>
    <path d="M 174.830613 227.52364 
L 186.668924 170.817177 
L 129.533073 188.850676 
z
" clip-path="url(#pbb229331c0)" style="fill: #7caef9; fill-opacity: 0.25; stroke: #4c4c4c; stroke-width: 0.8"/>
    <path d="M 84.819189 111.50475 
L 84.446852 108.676571 
L 83.355216 106.041127 
L 81.618673 103.778021 
L 79.355566 102.041478 
L 76.720123 100.949841 
L 73.891944 100.577504 
L 71.063764 100.949841 
L 68.428321 102.041478 
L 66.165214 103.778021 
L 64.428671 106.041127 
L 63.337035 108.676571 
L 62.964698 111.50475 
L 63.337035 114.332929 
L 64.428671 116.968373 
L 66.165214 119.231479 
L 68.428321 120.968022 
L 71.063764 122.059659 
L 73.891944 122.431995 
L 76.720123 122.059659 
L 79.355566 120.968022 
L 81.618673 119.231479 
L 83.355216 116.968373 
L 84.446852 114.332929 
L 84.819189 111.50475 
z
" clip-path="url(#pbb229331c0)" style="fill: #3366e6"/>
    <path d="M 183.57241 227.52364 
L 183.27454 225.261096 
L 182.401231 223.152741 
L 181.011997 221.342256 
L 179.201511 219.953022 
L 177.093157 219.079713 
L 174.830613 218.781843 
L 172.56807 219.079713 
L 170.459715 219.953022 
L 168.64923 221.342256 
L 167.259995 223.152741 
L 166.386686 225.261096 
L 166.088817 227.52364 
L 166.386686 229.786183 
L 167.259995 231.894538 
L 168.64923 233.705023 
L 170.459715 235.094257 
L 172.56807 235.967566 
L 174.830613 236.265436 
L 177.093157 235.967566 
L 179.201511 235.094257 
L 181.011997 233.705023 
L 182.401231 231.894538 
L 183.27454 229.786183 
L 183.57241 227.52364 
z
" clip-path="url(#pbb229331c0)" style="fill: #e61a1a"/>
    <path d="M 184.303648 81.955724 
L 184.887348 80.491247 
L 184.160031 78.692619 
L 182.547751 77.613452 
L 180.994958 77.885907 
L 168.66238 87.912078 
L 168.078682 89.376553 
L 168.805999 91.175181 
L 170.418279 92.254349 
L 171.971071 91.981895 
z
" clip-path="url(#pbb229331c0)" style="fill: #666666"/>
    <path d="M 154.143433 150.177713 
L 186.668924 170.817177 
L 129.533073 188.850676 
z
" clip-path="url(#pbb229331c0)" style="fill: #5e83bc; fill-opacity: 0.25; stroke: #4c4c4c; stroke-width: 0.8"/>
    <path d="M 154.143433 150.177713 
L 174.830613 227.52364 
L 186.668924 170.817177 
z
" clip-path="url(#pbb229331c0)" style="fill: #5f85be; fill-opacity: 0.25; stroke: #4c4c4c; stroke-width: 0.8"/>
    <path d="M 154.143433 150.177713 
L 174.830613 227.52364 
L 129.533073 188.850676 
z
" clip-path="url(#pbb229331c0)" style="fill: #6c97d8; fill-opacity: 0.25; stroke: #4c4c4c; stroke-width: 0.8"/>
    <path d="M 174.72354 93.471251 
L 174.42567 91.208708 
L 173.552361 89.100353 
L 172.163127 87.289868 
L 170.352642 85.900633 
L 168.244287 85.027324 
L 165.981743 84.729455 
L 163.7192 85.027324 
L 161.610845 85.900633 
L 159.80036 87.289868 
L 158.411126 89.100353 
L 157.537817 91.208708 
L 157.239947 93.471251 
L 157.537817 95.733794 
L 158.411126 97.842149 
L 159.80036 99.652635 
L 161.610845 101.041869 
L 163.7192 101.915178 
L 165.981743 102.213047 
L 168.244287 101.915178 
L 170.352642 101.041869 
L 172.163127 99.652635 
L 173.552361 97.842149 
L 174.42567 95.733794 
L 174.72354 93.471251 
z
" clip-path="url(#pbb229331c0)" style="fill: #e61a1a"/>
    <path d="M 168.347044 182.332684 
L 167.763348 183.797158 
L 168.490666 185.595784 
L 170.102946 186.674953 
L 171.655735 186.402501 
L 183.988279 176.376357 
L 184.571977 174.911882 
L 183.844659 173.113255 
L 182.232379 172.034087 
L 180.679589 172.30654 
z
" clip-path="url(#pbb229331c0)" style="fill: #666666"/>
    <path d="M 155.797555 191.473215 
L 156.861202 190.705091 
L 157.301779 188.850676 
L 156.861202 186.996261 
L 155.797555 186.228137 
L 136.364096 186.228137 
L 135.300447 186.996261 
L 134.859869 188.850676 
L 135.300447 190.705091 
L 136.364096 191.473215 
z
" clip-path="url(#pbb229331c0)" style="fill: #666666"/>
    <path d="M 169.591896 197.787052 
L 168.68398 197.365339 
L 166.823827 197.587597 
L 165.10109 198.32363 
L 164.524925 199.14228 
L 170.27569 220.643436 
L 171.183608 221.065152 
L 173.043761 220.842896 
L 174.766497 220.106861 
L 175.342662 219.288208 
z
" clip-path="url(#pbb229331c0)" style="fill: #666666"/>
    <path d="M 175.414269 188.850676 
L 175.041932 186.022497 
L 173.950295 183.387054 
L 172.213753 181.123947 
L 169.950646 179.387404 
L 167.315202 178.295768 
L 164.487023 177.923431 
L 161.658844 178.295768 
L 159.0234 179.387404 
L 156.760294 181.123947 
L 155.023751 183.387054 
L 153.932114 186.022497 
L 153.559778 188.850676 
L 153.932114 191.678856 
L 155.023751 194.314299 
L 156.760294 196.577406 
L 159.0234 198.313949 
L 161.658844 199.405585 
L 164.487023 199.777922 
L 167.315202 199.405585 
L 169.950646 198.313949 
L 172.213753 196.577406 
L 173.950295 194.314299 
L 175.041932 191.678856 
L 175.414269 188.850676 
z
" clip-path="url(#pbb229331c0)" style="fill: #3366e6"/>
    <path d="M 82.581386 108.882211 
L 81.517733 109.650335 
L 81.077153 111.50475 
L 81.517733 113.359165 
L 82.581386 114.127289 
L 102.014875 114.127289 
L 103.078526 113.359165 
L 103.519104 111.50475 
L 103.078526 109.650335 
L 102.014875 108.882211 
z
" clip-path="url(#pbb229331c0)" style="fill: #666666"/>
    <path d="M 117.58769 111.50475 
L 117.28982 109.242207 
L 116.416511 107.133852 
L 115.027277 105.323366 
L 113.216791 103.934132 
L 111.108437 103.060823 
L 108.845893 102.762954 
L 106.58335 103.060823 
L 104.474995 103.934132 
L 102.66451 105.323366 
L 101.275276 107.133852 
L 100.401966 109.242207 
L 100.104097 111.50475 
L 100.401966 113.767293 
L 101.275276 115.875648 
L 102.66451 117.686133 
L 104.474995 119.075368 
L 106.58335 119.948677 
L 108.845893 120.246546 
L 111.108437 119.948677 
L 113.216791 119.075368 
L 115.027277 117.686133 
L 116.416511 115.875648 
L 117.28982 113.767293 
L 117.58769 111.50475 
z
" clip-path="url(#pbb229331c0)" style="fill: #e61a1a"/>
    <path d="M 159.38215 179.9143 
L 160.290067 180.336014 
L 162.150219 180.113756 
L 163.872956 179.377723 
L 164.449121 178.559073 
L 158.698359 157.057927 
L 157.790443 156.636217 
L 155.93029 156.858476 
L 154.207553 157.594508 
L 153.631387 158.413155 
z
" clip-path="url(#pbb229331c0)" style="fill: #666666"/>
    <path d="M 165.981743 93.471251 
L 154.143433 150.177713 
L 108.845893 111.50475 
z
" clip-path="url(#pbb229331c0)" style="fill: #7caef9; fill-opacity: 0.25; stroke: #4c4c4c; stroke-width: 0.8"/>
    <path d="M 162.885229 150.177713 
L 162.58736 147.91517 
L 161.714051 145.806815 
L 160.324817 143.99633 
L 158.514331 142.607095 
L 156.405976 141.733786 
L 154.143433 141.435917 
L 151.88089 141.733786 
L 149.772535 142.607095 
L 147.96205 143.99633 
L 146.572815 145.806815 
L 145.699506 147.91517 
L 145.401637 150.177713 
L 145.699506 152.440257 
L 146.572815 154.548611 
L 147.96205 156.359097 
L 149.772535 157.748331 
L 151.88089 158.62164 
L 154.143433 158.91951 
L 156.405976 158.62164 
L 158.514331 157.748331 
L 160.324817 156.359097 
L 161.714051 154.548611 
L 162.58736 152.440257 
L 162.885229 150.177713 
z
" clip-path="url(#pbb229331c0)" style="fill: #e61a1a"/>
    <path d="M 147.659855 104.986765 
L 147.076157 106.45124 
L 147.803475 108.249867 
L 149.415755 109.329035 
L 150.968545 109.056582 
L 163.301107 99.030425 
L 163.884805 97.565949 
L 163.157488 95.767321 
L 161.545208 94.688154 
L 159.992416 94.960608 
z
" clip-path="url(#pbb229331c0)" style="fill: #666666"/>
    <path d="M 135.110381 114.127289 
L 136.174029 113.359165 
L 136.614607 111.50475 
L 136.174029 109.650335 
L 135.110381 108.882211 
L 115.676912 108.882211 
L 114.613261 109.650335 
L 114.172682 111.50475 
L 114.613261 113.359165 
L 115.676912 114.127289 
z
" clip-path="url(#pbb229331c0)" style="fill: #666666"/>
    <path d="M 148.90472 120.441139 
L 147.996805 120.019432 
L 146.136652 120.241692 
L 144.413915 120.977723 
L 143.837748 121.796367 
L 149.588507 143.297499 
L 150.496423 143.719209 
L 152.356576 143.496951 
L 154.079313 142.760919 
L 154.655479 141.942271 
z
" clip-path="url(#pbb229331c0)" style="fill: #666666"/>
    <path d="M 154.727089 111.50475 
L 154.354752 108.676571 
L 153.263115 106.041127 
L 151.526572 103.778021 
L 149.263466 102.041478 
L 146.628022 100.949841 
L 143.799843 100.577504 
L 140.971664 100.949841 
L 138.33622 102.041478 
L 136.073114 103.778021 
L 134.336571 106.041127 
L 133.244934 108.676571 
L 132.872598 111.50475 
L 133.244934 114.332929 
L 134.336571 116.968373 
L 136.073114 119.231479 
L 138.33622 120.968022 
L 140.971664 122.059659 
L 143.799843 122.431995 
L 146.628022 122.059659 
L 149.263466 120.968022 
L 151.526572 119.231479 
L 153.263115 116.968373 
L 154.354752 114.332929 
L 154.727089 111.50475 
z
" clip-path="url(#pbb229331c0)" style="fill: #3366e6"/>
   </g>
  </g>
 </g>
 <defs>
  <clipPath id="pbb229331c0">
   <rect x="7.2" y="7.2" width="266.4" height="266.4"/>
  </clipPath>
 </defs>
</svg>
