<?xml version="1.0" encoding="utf-8" standalone="no"?>
<!DOCTYPE svg PUBLIC "-//W3C//DTD SVG 1.1//EN"
  "http://www.w3.org/Graphics/SVG/1.1/DTD/svg11.dtd">
<svg xmlns:xlink="http://www.w3.org/1999/xlink" width="279.410799pt" height="280.8pt" viewBox="0 0 279.410799 280.8" xmlns="http://www.w3.org/2000/svg" version="1.1">
 <metadata>
  <rdf:RDF xmlns:dc="http://purl.org/dc/elements/1.1/" xmlns:cc="http://creativecommons.org/ns#" xmlns:rdf="http://www.w3.org/1999/02/22-rdf-syntax-ns#">
   <cc:Work>
    <dc:type rdf:resource="http://purl.org/dc/dcmitype/StillImage"/>
    <dc:date>2026-02-18T12:14:01.972789</dc:date>
    <dc:format>image/svg+xml</dc:format>
    <dc:creator>
     <cc:Agent>
      <dc:title>Matplotlib v3.10.7, https://matplotlib.org/</dc:title>
     </cc:Agent>
    </dc:creator>
   </cc:Work>
  </rdf:RDF>
 </metadata>
 <defs>
  <style type="text/css">*{stroke-linejoin: round; stroke-linecap: butt}</style>
 </defs>
 <g id="figure_1">
  <g id="patch_1">
   <path d="M 0 280.8 
L 279.410799 280.8 
L 279.410799 0 
L 0 0 
z
" style="fill: #ffffff"/>
  </g>
  <g id="axes_1">
   <g id="PolyCollection_1">
    <path d="M 199.464688 176.360193 
L 199.374864 174.302906 
L 199.106079 172.261277 
L 198.660376 170.250842 
L 198.041149 168.286904 
L 197.253109 166.384408 
L 196.302255 164.557834 
L 195.195822 162.821083 
L 193.942232 161.187372 
L 192.551025 159.669136 
L 191.032789 158.277929 
L 189.399079 157.024339 
L 187.662328 155.917907 
L 185.835754 154.967053 
L 183.933258 154.179013 
L 181.969319 153.559785 
L 179.958885 153.114083 
L 177.917255 152.845297 
L 175.859969 152.755474 
L 173.802682 152.845297 
L 171.761052 153.114083 
L 169.750618 153.559785 
L 167.786679 154.179013 
L 165.884183 154.967053 
L 164.057609 155.917907 
L 162.320858 157.024339 
L 160.687148 158.277929 
L 159.168912 159.669136 
L 157.777705 161.187372 
L 156.524115 162.821083 
L 155.417682 164.557834 
L 154.466828 166.384408 
L 153.678788 168.286904 
L 153.059561 170.250842 
L 152.613858 172.261277 
L 152.345073 174.302906 
L 152.25525 176.360193 
L 152.345073 178.41748 
L 152.613858 180.459109 
L 153.059561 182.469544 
L 153.678788 184.433482 
L 154.466828 186.335978 
L 155.417682 188.162553 
L 156.524115 189.899304 
L 157.777705 191.533014 
L 159.168912 193.05125 
L 160.687148 194.442457 
L 162.320858 195.696047 
L 164.057609 196.802479 
L 165.884183 197.753334 
L 167.786679 198.541373 
L 169.750618 199.160601 
L 171.761052 199.606303 
L 173.802682 199.875089 
L 175.859969 199.964912 
L 177.917255 199.875089 
L 179.958885 199.606303 
L 181.969319 199.160601 
L 183.933258 198.541373 
L 185.835754 197.753334 
L 187.662328 196.802479 
L 189.399079 195.696047 
L 191.032789 194.442457 
L 192.551025 193.05125 
L 193.942232 191.533014 
L 195.195822 189.899304 
L 196.302255 188.162553 
L 197.253109 186.335978 
L 198.041149 184.433482 
L 198.660376 182.469544 
L 199.106079 180.459109 
L 199.374864 178.41748 
L 199.464688 176.360193 
z
" clip-path="url(#p8ebc0d2441)" style="fill: #477b9d; stroke: #262626"/>
    <path d="M 175.63704 153.114789 
L 175.63704 149.569865 
L 176.082898 149.569865 
L 176.082898 153.114789 
z
" clip-path="url(#p8ebc0d2441)" style="fill: #4c4c4c"/>
    <path d="M 152.721383 177.387636 
L 149.191567 177.510345 
L 149.176077 177.064756 
L 152.705892 176.942047 
z
" clip-path="url(#p8ebc0d2441)" style="fill: #4c4c4c"/>
    <path d="M 194.743744 130.973542 
L 194.671885 129.327712 
L 194.456857 127.694408 
L 194.100295 126.086061 
L 193.604913 124.51491 
L 192.974481 122.992913 
L 192.213798 121.531654 
L 191.328652 120.142253 
L 190.32578 118.835285 
L 189.212814 117.620696 
L 187.998225 116.507731 
L 186.691257 115.504859 
L 185.301856 114.619713 
L 183.840597 113.859029 
L 182.3186 113.228597 
L 180.747449 112.733216 
L 179.139102 112.376653 
L 177.505798 112.161625 
L 175.859969 112.089767 
L 174.214139 112.161625 
L 172.580835 112.376653 
L 170.972488 112.733216 
L 169.401337 113.228597 
L 167.87934 113.859029 
L 166.418081 114.619713 
L 165.02868 115.504859 
L 163.721712 116.507731 
L 162.507123 117.620696 
L 161.394158 118.835285 
L 160.391286 120.142253 
L 159.50614 121.531654 
L 158.745456 122.992913 
L 158.115025 124.51491 
L 157.619643 126.086061 
L 157.26308 127.694408 
L 157.048052 129.327712 
L 156.976194 130.973542 
L 157.048052 132.619371 
L 157.26308 134.252675 
L 157.619643 135.861022 
L 158.115025 137.432173 
L 158.745456 138.95417 
L 159.50614 140.415429 
L 160.391286 141.80483 
L 161.394158 143.111798 
L 162.507123 144.326387 
L 163.721712 145.439353 
L 165.02868 146.442225 
L 166.418081 147.327371 
L 167.87934 148.088054 
L 169.401337 148.718486 
L 170.972488 149.213868 
L 172.580835 149.57043 
L 174.214139 149.785458 
L 175.859969 149.857317 
L 177.505798 149.785458 
L 179.139102 149.57043 
L 180.747449 149.213868 
L 182.3186 148.718486 
L 183.840597 148.088054 
L 185.301856 147.327371 
L 186.691257 146.442225 
L 187.998225 145.439353 
L 189.212814 144.326387 
L 190.32578 143.111798 
L 191.328652 141.80483 
L 192.213798 140.415429 
L 192.974481 138.95417 
L 193.604913 137.432173 
L 194.100295 135.861022 
L 194.456857 134.252675 
L 194.671885 132.619371 
L 194.743744 130.973542 
z
" clip-path="url(#p8ebc0d2441)" style="fill: #f03f37; stroke: #262626"/>
    <path d="M 149.550532 177.931269 
L 149.478674 176.28544 
L 149.263645 174.652136 
L 148.907083 173.043789 
L 148.411701 171.472638 
L 147.781269 169.950641 
L 147.020586 168.489382 
L 146.13544 167.099981 
L 145.132568 165.793013 
L 144.019602 164.578424 
L 142.805014 163.465458 
L 141.498045 162.462586 
L 140.108645 161.57744 
L 138.647385 160.816757 
L 137.125388 160.186325 
L 135.554238 159.690943 
L 133.94589 159.334381 
L 132.312586 159.119353 
L 130.666757 159.047494 
L 129.020928 159.119353 
L 127.387624 159.334381 
L 125.779276 159.690943 
L 124.208125 160.186325 
L 122.686129 160.816757 
L 121.224869 161.57744 
L 119.835469 162.462586 
L 118.5285 163.465458 
L 117.313912 164.578424 
L 116.200946 165.793013 
L 115.198074 167.099981 
L 114.312928 168.489382 
L 113.552245 169.950641 
L 112.921813 171.472638 
L 112.426431 173.043789 
L 112.069869 174.652136 
L 111.85484 176.28544 
L 111.782982 177.931269 
L 111.85484 179.577099 
L 112.069869 181.210403 
L 112.426431 182.81875 
L 112.921813 184.389901 
L 113.552245 185.911898 
L 114.312928 187.373157 
L 115.198074 188.762558 
L 116.200946 190.069526 
L 117.313912 191.284115 
L 118.5285 192.39708 
L 119.835469 193.399952 
L 121.224869 194.285098 
L 122.686129 195.045782 
L 124.208125 195.676214 
L 125.779276 196.171596 
L 127.387624 196.528158 
L 129.020928 196.743186 
L 130.666757 196.815045 
L 132.312586 196.743186 
L 133.94589 196.528158 
L 135.554238 196.171596 
L 137.125388 195.676214 
L 138.647385 195.045782 
L 140.108645 194.285098 
L 141.498045 193.399952 
L 142.805014 192.39708 
L 144.019602 191.284115 
L 145.132568 190.069526 
L 146.13544 188.762558 
L 147.020586 187.373157 
L 147.781269 185.911898 
L 148.411701 184.389901 
L 148.907083 182.81875 
L 149.263645 181.210403 
L 149.478674 179.577099 
L 149.550532 177.931269 
z
" clip-path="url(#p8ebc0d2441)" style="fill: #f03f37; stroke: #262626"/>
    <path d="M 175.63704 112.377218 
L 175.63704 108.832294 
L 176.082898 108.832294 
L 176.082898 112.377218 
z
" clip-path="url(#p8ebc0d2441)" style="fill: #4c4c4c"/>
    <path d="M 112.157437 178.797783 
L 108.627622 178.920492 
L 108.612131 178.474903 
L 112.141947 178.352194 
z
" clip-path="url(#p8ebc0d2441)" style="fill: #4c4c4c"/>
    <path d="M 199.464688 85.58689 
L 199.374864 83.529603 
L 199.106079 81.487974 
L 198.660376 79.477539 
L 198.041149 77.513601 
L 197.253109 75.611105 
L 196.302255 73.784531 
L 195.195822 72.04778 
L 193.942232 70.414069 
L 192.551025 68.895833 
L 191.032789 67.504626 
L 189.399079 66.251036 
L 187.662328 65.144604 
L 185.835754 64.19375 
L 183.933258 63.40571 
L 181.969319 62.786483 
L 179.958885 62.34078 
L 177.917255 62.071994 
L 175.859969 61.982171 
L 173.802682 62.071994 
L 171.761052 62.34078 
L 169.750618 62.786483 
L 167.786679 63.40571 
L 165.884183 64.19375 
L 164.057609 65.144604 
L 162.320858 66.251036 
L 160.687148 67.504626 
L 159.168912 68.895833 
L 157.777705 70.414069 
L 156.524115 72.04778 
L 155.417682 73.784531 
L 154.466828 75.611105 
L 153.678788 77.513601 
L 153.059561 79.477539 
L 152.613858 81.487974 
L 152.345073 83.529603 
L 152.25525 85.58689 
L 152.345073 87.644177 
L 152.613858 89.685807 
L 153.059561 91.696241 
L 153.678788 93.66018 
L 154.466828 95.562675 
L 155.417682 97.38925 
L 156.524115 99.126001 
L 157.777705 100.759711 
L 159.168912 102.277947 
L 160.687148 103.669154 
L 162.320858 104.922744 
L 164.057609 106.029176 
L 165.884183 106.980031 
L 167.786679 107.76807 
L 169.750618 108.387298 
L 171.761052 108.833 
L 173.802682 109.101786 
L 175.859969 109.191609 
L 177.917255 109.101786 
L 179.958885 108.833 
L 181.969319 108.387298 
L 183.933258 107.76807 
L 185.835754 106.980031 
L 187.662328 106.029176 
L 189.399079 104.922744 
L 191.032789 103.669154 
L 192.551025 102.277947 
L 193.942232 100.759711 
L 195.195822 99.126001 
L 196.302255 97.38925 
L 197.253109 95.562675 
L 198.041149 93.66018 
L 198.660376 91.696241 
L 199.106079 89.685807 
L 199.374864 87.644177 
L 199.464688 85.58689 
z
" clip-path="url(#p8ebc0d2441)" style="fill: #477b9d; stroke: #262626"/>
    <path d="M 109.078264 179.502346 
L 108.988441 177.445059 
L 108.719655 175.403429 
L 108.273953 173.392995 
L 107.654725 171.429057 
L 106.866686 169.526561 
L 105.915832 167.699986 
L 104.809399 165.963235 
L 103.555809 164.329525 
L 102.164602 162.811289 
L 100.646366 161.420082 
L 99.012656 160.166492 
L 97.275905 159.06006 
L 95.449331 158.109205 
L 93.546835 157.321166 
L 91.582896 156.701938 
L 89.572462 156.256236 
L 87.530832 155.98745 
L 85.473545 155.897627 
L 83.416258 155.98745 
L 81.374629 156.256236 
L 79.364195 156.701938 
L 77.400256 157.321166 
L 75.49776 158.109205 
L 73.671186 159.06006 
L 71.934435 160.166492 
L 70.300724 161.420082 
L 68.782489 162.811289 
L 67.391282 164.329525 
L 66.137692 165.963235 
L 65.031259 167.699986 
L 64.080405 169.526561 
L 63.292365 171.429057 
L 62.673138 173.392995 
L 62.227435 175.403429 
L 61.958649 177.445059 
L 61.868826 179.502346 
L 61.958649 181.559633 
L 62.227435 183.601262 
L 62.673138 185.611697 
L 63.292365 187.575635 
L 64.080405 189.478131 
L 65.031259 191.304705 
L 66.137692 193.041456 
L 67.391282 194.675167 
L 68.782489 196.193403 
L 70.300724 197.58461 
L 71.934435 198.8382 
L 73.671186 199.944632 
L 75.49776 200.895486 
L 77.400256 201.683526 
L 79.364195 202.302753 
L 81.374629 202.748456 
L 83.416258 203.017242 
L 85.473545 203.107065 
L 87.530832 203.017242 
L 89.572462 202.748456 
L 91.582896 202.302753 
L 93.546835 201.683526 
L 95.449331 200.895486 
L 97.275905 199.944632 
L 99.012656 198.8382 
L 100.646366 197.58461 
L 102.164602 196.193403 
L 103.555809 194.675167 
L 104.809399 193.041456 
L 105.915832 191.304705 
L 106.866686 189.478131 
L 107.654725 187.575635 
L 108.273953 185.611697 
L 108.719655 183.601262 
L 108.988441 181.559633 
L 109.078264 179.502346 
z
" clip-path="url(#p8ebc0d2441)" style="fill: #477b9d; stroke: #262626"/>
    <path d="M 152.721383 86.614333 
L 149.191567 86.737042 
L 149.176077 86.291453 
L 152.705892 86.168745 
z
" clip-path="url(#p8ebc0d2441)" style="fill: #4c4c4c"/>
    <path d="M 85.250616 156.256942 
L 85.250616 152.712018 
L 85.696474 152.712018 
L 85.696474 156.256942 
z
" clip-path="url(#p8ebc0d2441)" style="fill: #4c4c4c"/>
    <path d="M 180.63547 180.215173 
L 181.067844 180.590944 
L 180.775373 180.92747 
L 180.342999 180.551699 
z
" clip-path="url(#p8ebc0d2441)" style="fill: #4c4c4c"/>
    <path d="M 149.550532 87.157967 
L 149.478674 85.512137 
L 149.263645 83.878833 
L 148.907083 82.270486 
L 148.411701 80.699335 
L 147.781269 79.177338 
L 147.020586 77.716079 
L 146.13544 76.326678 
L 145.132568 75.01971 
L 144.019602 73.805121 
L 142.805014 72.692156 
L 141.498045 71.689284 
L 140.108645 70.804138 
L 138.647385 70.043454 
L 137.125388 69.413022 
L 135.554238 68.917641 
L 133.94589 68.561078 
L 132.312586 68.34605 
L 130.666757 68.274191 
L 129.020928 68.34605 
L 127.387624 68.561078 
L 125.779276 68.917641 
L 124.208125 69.413022 
L 122.686129 70.043454 
L 121.224869 70.804138 
L 119.835469 71.689284 
L 118.5285 72.692156 
L 117.313912 73.805121 
L 116.200946 75.01971 
L 115.198074 76.326678 
L 114.312928 77.716079 
L 113.552245 79.177338 
L 112.921813 80.699335 
L 112.426431 82.270486 
L 112.069869 83.878833 
L 111.85484 85.512137 
L 111.782982 87.157967 
L 111.85484 88.803796 
L 112.069869 90.4371 
L 112.426431 92.045447 
L 112.921813 93.616598 
L 113.552245 95.138595 
L 114.312928 96.599854 
L 115.198074 97.989255 
L 116.200946 99.296223 
L 117.313912 100.510812 
L 118.5285 101.623778 
L 119.835469 102.62665 
L 121.224869 103.511796 
L 122.686129 104.272479 
L 124.208125 104.902911 
L 125.779276 105.398293 
L 127.387624 105.754855 
L 129.020928 105.969883 
L 130.666757 106.041742 
L 132.312586 105.969883 
L 133.94589 105.754855 
L 135.554238 105.398293 
L 137.125388 104.902911 
L 138.647385 104.272479 
L 140.108645 103.511796 
L 141.498045 102.62665 
L 142.805014 101.623778 
L 144.019602 100.510812 
L 145.132568 99.296223 
L 146.13544 97.989255 
L 147.020586 96.599854 
L 147.781269 95.138595 
L 148.411701 93.616598 
L 148.907083 92.045447 
L 149.263645 90.4371 
L 149.478674 88.803796 
L 149.550532 87.157967 
z
" clip-path="url(#p8ebc0d2441)" style="fill: #f03f37; stroke: #262626"/>
    <path d="M 181.067844 180.590944 
L 181.248617 180.748052 
L 180.956146 181.084578 
L 180.775373 180.92747 
z
" clip-path="url(#p8ebc0d2441)" style="fill: #4c4c4c"/>
    <path d="M 104.35732 134.115694 
L 104.285462 132.469865 
L 104.070433 130.836561 
L 103.713871 129.228214 
L 103.218489 127.657063 
L 102.588058 126.135066 
L 101.827374 124.673807 
L 100.942228 123.284406 
L 99.939356 121.977438 
L 98.826391 120.762849 
L 97.611802 119.649883 
L 96.304834 118.647011 
L 94.915433 117.761865 
L 93.454174 117.001182 
L 91.932177 116.37075 
L 90.361026 115.875368 
L 88.752678 115.518806 
L 87.119375 115.303778 
L 85.473545 115.231919 
L 83.827716 115.303778 
L 82.194412 115.518806 
L 80.586065 115.875368 
L 79.014914 116.37075 
L 77.492917 117.001182 
L 76.031658 117.761865 
L 74.642257 118.647011 
L 73.335289 119.649883 
L 72.1207 120.762849 
L 71.007734 121.977438 
L 70.004862 123.284406 
L 69.119716 124.673807 
L 68.359033 126.135066 
L 67.728601 127.657063 
L 67.233219 129.228214 
L 66.876657 130.836561 
L 66.661629 132.469865 
L 66.58977 134.115694 
L 66.661629 135.761524 
L 66.876657 137.394828 
L 67.233219 139.003175 
L 67.728601 140.574326 
L 68.359033 142.096323 
L 69.119716 143.557582 
L 70.004862 144.946983 
L 71.007734 146.253951 
L 72.1207 147.46854 
L 73.335289 148.581505 
L 74.642257 149.584377 
L 76.031658 150.469523 
L 77.492917 151.230207 
L 79.014914 151.860639 
L 80.586065 152.35602 
L 82.194412 152.712583 
L 83.827716 152.927611 
L 85.473545 152.99947 
L 87.119375 152.927611 
L 88.752678 152.712583 
L 90.361026 152.35602 
L 91.932177 151.860639 
L 93.454174 151.230207 
L 94.915433 150.469523 
L 96.304834 149.584377 
L 97.611802 148.581505 
L 98.826391 147.46854 
L 99.939356 146.253951 
L 100.942228 144.946983 
L 101.827374 143.557582 
L 102.588058 142.096323 
L 103.218489 140.574326 
L 103.713871 139.003175 
L 104.070433 137.394828 
L 104.285462 135.761524 
L 104.35732 134.115694 
z
" clip-path="url(#p8ebc0d2441)" style="fill: #f03f37; stroke: #262626"/>
    <path d="M 181.248617 180.748052 
L 181.341433 180.828718 
L 181.048962 181.165244 
L 180.956146 181.084578 
z
" clip-path="url(#p8ebc0d2441)" style="fill: #4c4c4c"/>
    <path d="M 112.157437 88.02448 
L 108.627622 88.147189 
L 108.612131 87.7016 
L 112.141947 87.578891 
z
" clip-path="url(#p8ebc0d2441)" style="fill: #4c4c4c"/>
    <path d="M 85.250616 115.519371 
L 85.250616 111.974447 
L 85.696474 111.974447 
L 85.696474 115.519371 
z
" clip-path="url(#p8ebc0d2441)" style="fill: #4c4c4c"/>
    <path d="M 109.078264 88.729043 
L 108.988441 86.671756 
L 108.719655 84.630127 
L 108.273953 82.619692 
L 107.654725 80.655754 
L 106.866686 78.753258 
L 105.915832 76.926684 
L 104.809399 75.189932 
L 103.555809 73.556222 
L 102.164602 72.037986 
L 100.646366 70.646779 
L 99.012656 69.393189 
L 97.275905 68.286757 
L 95.449331 67.335902 
L 93.546835 66.547863 
L 91.582896 65.928635 
L 89.572462 65.482933 
L 87.530832 65.214147 
L 85.473545 65.124324 
L 83.416258 65.214147 
L 81.374629 65.482933 
L 79.364195 65.928635 
L 77.400256 66.547863 
L 75.49776 67.335902 
L 73.671186 68.286757 
L 71.934435 69.393189 
L 70.300724 70.646779 
L 68.782489 72.037986 
L 67.391282 73.556222 
L 66.137692 75.189932 
L 65.031259 76.926684 
L 64.080405 78.753258 
L 63.292365 80.655754 
L 62.673138 82.619692 
L 62.227435 84.630127 
L 61.958649 86.671756 
L 61.868826 88.729043 
L 61.958649 90.78633 
L 62.227435 92.827959 
L 62.673138 94.838394 
L 63.292365 96.802332 
L 64.080405 98.704828 
L 65.031259 100.531402 
L 66.137692 102.268154 
L 67.391282 103.901864 
L 68.782489 105.4201 
L 70.300724 106.811307 
L 71.934435 108.064897 
L 73.671186 109.171329 
L 75.49776 110.122184 
L 77.400256 110.910223 
L 79.364195 111.529451 
L 81.374629 111.975153 
L 83.416258 112.243939 
L 85.473545 112.333762 
L 87.530832 112.243939 
L 89.572462 111.975153 
L 91.582896 111.529451 
L 93.546835 110.910223 
L 95.449331 110.122184 
L 97.275905 109.171329 
L 99.012656 108.064897 
L 100.646366 106.811307 
L 102.164602 105.4201 
L 103.555809 103.901864 
L 104.809399 102.268154 
L 105.915832 100.531402 
L 106.866686 98.704828 
L 107.654725 96.802332 
L 108.273953 94.838394 
L 108.719655 92.827959 
L 108.988441 90.78633 
L 109.078264 88.729043 
z
" clip-path="url(#p8ebc0d2441)" style="fill: #477b9d; stroke: #262626"/>
    <path d="M 180.63547 89.44187 
L 181.341433 90.055415 
L 181.048962 90.391941 
L 180.342999 89.778396 
z
" clip-path="url(#p8ebc0d2441)" style="fill: #4c4c4c"/>
    <path d="M 90.249047 183.357326 
L 90.95501 183.97087 
L 90.662539 184.307396 
L 89.956576 183.693852 
z
" clip-path="url(#p8ebc0d2441)" style="fill: #4c4c4c"/>
    <path d="M 203.782386 184.215575 
L 203.710528 182.569746 
L 203.495499 180.936442 
L 203.138937 179.328094 
L 202.643555 177.756944 
L 202.013123 176.234947 
L 201.25244 174.773687 
L 200.367294 173.384287 
L 199.364422 172.077318 
L 198.251456 170.86273 
L 197.036868 169.749764 
L 195.729899 168.746892 
L 194.340499 167.861746 
L 192.879239 167.101063 
L 191.357242 166.470631 
L 189.786092 165.975249 
L 188.177744 165.618687 
L 186.54444 165.403658 
L 184.898611 165.3318 
L 183.252782 165.403658 
L 181.619478 165.618687 
L 180.01113 165.975249 
L 178.439979 166.470631 
L 176.917983 167.101063 
L 175.456723 167.861746 
L 174.067323 168.746892 
L 172.760354 169.749764 
L 171.545766 170.86273 
L 170.4328 172.077318 
L 169.429928 173.384287 
L 168.544782 174.773687 
L 167.784099 176.234947 
L 167.153667 177.756944 
L 166.658285 179.328094 
L 166.301723 180.936442 
L 166.086694 182.569746 
L 166.014836 184.215575 
L 166.086694 185.861404 
L 166.301723 187.494708 
L 166.658285 189.103056 
L 167.153667 190.674207 
L 167.784099 192.196203 
L 168.544782 193.657463 
L 169.429928 195.046863 
L 170.4328 196.353832 
L 171.545766 197.56842 
L 172.760354 198.681386 
L 174.067323 199.684258 
L 175.456723 200.569404 
L 176.917983 201.330087 
L 178.439979 201.960519 
L 180.01113 202.455901 
L 181.619478 202.812463 
L 183.252782 203.027492 
L 184.898611 203.09935 
L 186.54444 203.027492 
L 188.177744 202.812463 
L 189.786092 202.455901 
L 191.357242 201.960519 
L 192.879239 201.330087 
L 194.340499 200.569404 
L 195.729899 199.684258 
L 197.036868 198.681386 
L 198.251456 197.56842 
L 199.364422 196.353832 
L 200.367294 195.046863 
L 201.25244 193.657463 
L 202.013123 192.196203 
L 202.643555 190.674207 
L 203.138937 189.103056 
L 203.495499 187.494708 
L 203.710528 185.861404 
L 203.782386 184.215575 
z
" clip-path="url(#p8ebc0d2441)" style="fill: #f03f37; stroke: #262626"/>
    <path d="M 90.249047 92.584023 
L 90.95501 93.197567 
L 90.662539 93.534094 
L 89.956576 92.920549 
z
" clip-path="url(#p8ebc0d2441)" style="fill: #4c4c4c"/>
    <path d="M 203.782386 93.442272 
L 203.710528 91.796443 
L 203.495499 90.163139 
L 203.138937 88.554792 
L 202.643555 86.983641 
L 202.013123 85.461644 
L 201.25244 84.000385 
L 200.367294 82.610984 
L 199.364422 81.304016 
L 198.251456 80.089427 
L 197.036868 78.976461 
L 195.729899 77.973589 
L 194.340499 77.088443 
L 192.879239 76.32776 
L 191.357242 75.697328 
L 189.786092 75.201946 
L 188.177744 74.845384 
L 186.54444 74.630356 
L 184.898611 74.558497 
L 183.252782 74.630356 
L 181.619478 74.845384 
L 180.01113 75.201946 
L 178.439979 75.697328 
L 176.917983 76.32776 
L 175.456723 77.088443 
L 174.067323 77.973589 
L 172.760354 78.976461 
L 171.545766 80.089427 
L 170.4328 81.304016 
L 169.429928 82.610984 
L 168.544782 84.000385 
L 167.784099 85.461644 
L 167.153667 86.983641 
L 166.658285 88.554792 
L 166.301723 90.163139 
L 166.086694 91.796443 
L 166.014836 93.442272 
L 166.086694 95.088102 
L 166.301723 96.721405 
L 166.658285 98.329753 
L 167.153667 99.900904 
L 167.784099 101.4229 
L 168.544782 102.88416 
L 169.429928 104.273561 
L 170.4328 105.580529 
L 171.545766 106.795118 
L 172.760354 107.908083 
L 174.067323 108.910955 
L 175.456723 109.796101 
L 176.917983 110.556785 
L 178.439979 111.187216 
L 180.01113 111.682598 
L 181.619478 112.03916 
L 183.252782 112.254189 
L 184.898611 112.326047 
L 186.54444 112.254189 
L 188.177744 112.03916 
L 189.786092 111.682598 
L 191.357242 111.187216 
L 192.879239 110.556785 
L 194.340499 109.796101 
L 195.729899 108.910955 
L 197.036868 107.908083 
L 198.251456 106.795118 
L 199.364422 105.580529 
L 200.367294 104.273561 
L 201.25244 102.88416 
L 202.013123 101.4229 
L 202.643555 99.900904 
L 203.138937 98.329753 
L 203.495499 96.721405 
L 203.710528 95.088102 
L 203.782386 93.442272 
z
" clip-path="url(#p8ebc0d2441)" style="fill: #f03f37; stroke: #262626"/>
    <path d="M 172.752006 140.4 
L 172.626253 137.519798 
L 172.249954 134.661517 
L 171.62597 131.846909 
L 170.759052 129.097395 
L 169.655796 126.433901 
L 168.3246 123.876697 
L 166.775595 121.445245 
L 165.020569 119.158051 
L 163.072879 117.03252 
L 160.947348 115.084831 
L 158.660154 113.329805 
L 156.228703 111.780799 
L 153.671499 110.449603 
L 151.008004 109.346348 
L 148.25849 108.479429 
L 145.443882 107.855446 
L 142.585601 107.479146 
L 139.705399 107.353394 
L 136.825198 107.479146 
L 133.966916 107.855446 
L 131.152308 108.479429 
L 128.402794 109.346348 
L 125.7393 110.449603 
L 123.182096 111.780799 
L 120.750645 113.329805 
L 118.46345 115.084831 
L 116.33792 117.03252 
L 114.39023 119.158051 
L 112.635204 121.445245 
L 111.086199 123.876697 
L 109.755003 126.433901 
L 108.651747 129.097395 
L 107.784829 131.846909 
L 107.160845 134.661517 
L 106.784545 137.519798 
L 106.658793 140.4 
L 106.784545 143.280202 
L 107.160845 146.138483 
L 107.784829 148.953091 
L 108.651747 151.702605 
L 109.755003 154.366099 
L 111.086199 156.923303 
L 112.635204 159.354755 
L 114.39023 161.641949 
L 116.33792 163.76748 
L 118.46345 165.715169 
L 120.750645 167.470195 
L 123.182096 169.019201 
L 125.7393 170.350397 
L 128.402794 171.453652 
L 131.152308 172.320571 
L 133.966916 172.944554 
L 136.825198 173.320854 
L 139.705399 173.446606 
L 142.585601 173.320854 
L 145.443882 172.944554 
L 148.25849 172.320571 
L 151.008004 171.453652 
L 153.671499 170.350397 
L 156.228703 169.019201 
L 158.660154 167.470195 
L 160.947348 165.715169 
L 163.072879 163.76748 
L 165.020569 161.641949 
L 166.775595 159.354755 
L 168.3246 156.923303 
L 169.655796 154.366099 
L 170.759052 151.702605 
L 171.62597 148.953091 
L 172.249954 146.138483 
L 172.626253 143.280202 
L 172.752006 140.4 
z
" clip-path="url(#p8ebc0d2441)" style="fill: #51b04d; stroke: #262626"/>
    <path d="M 113.395963 187.357728 
L 113.324104 185.711898 
L 113.109076 184.078595 
L 112.752514 182.470247 
L 112.257132 180.899096 
L 111.6267 179.3771 
L 110.866017 177.91584 
L 109.980871 176.526439 
L 108.977999 175.219471 
L 107.865033 174.004882 
L 106.650444 172.891917 
L 105.343476 171.889045 
L 103.954075 171.003899 
L 102.492816 170.243215 
L 100.970819 169.612784 
L 99.399668 169.117402 
L 97.791321 168.76084 
L 96.158017 168.545811 
L 94.512188 168.473953 
L 92.866358 168.545811 
L 91.233055 168.76084 
L 89.624707 169.117402 
L 88.053556 169.612784 
L 86.531559 170.243215 
L 85.0703 171.003899 
L 83.680899 171.889045 
L 82.373931 172.891917 
L 81.159342 174.004882 
L 80.046377 175.219471 
L 79.043505 176.526439 
L 78.158359 177.91584 
L 77.397675 179.3771 
L 76.767244 180.899096 
L 76.271862 182.470247 
L 75.9153 184.078595 
L 75.700271 185.711898 
L 75.628413 187.357728 
L 75.700271 189.003557 
L 75.9153 190.636861 
L 76.271862 192.245208 
L 76.767244 193.816359 
L 77.397675 195.338356 
L 78.158359 196.799615 
L 79.043505 198.189016 
L 80.046377 199.495984 
L 81.159342 200.710573 
L 82.373931 201.823539 
L 83.680899 202.826411 
L 85.0703 203.711557 
L 86.531559 204.47224 
L 88.053556 205.102672 
L 89.624707 205.598054 
L 91.233055 205.954616 
L 92.866358 206.169644 
L 94.512188 206.241503 
L 96.158017 206.169644 
L 97.791321 205.954616 
L 99.399668 205.598054 
L 100.970819 205.102672 
L 102.492816 204.47224 
L 103.954075 203.711557 
L 105.343476 202.826411 
L 106.650444 201.823539 
L 107.865033 200.710573 
L 108.977999 199.495984 
L 109.980871 198.189016 
L 110.866017 196.799615 
L 111.6267 195.338356 
L 112.257132 193.816359 
L 112.752514 192.245208 
L 113.109076 190.636861 
L 113.324104 189.003557 
L 113.395963 187.357728 
z
" clip-path="url(#p8ebc0d2441)" style="fill: #f03f37; stroke: #262626"/>
    <path d="M 188.748259 187.265906 
L 189.454223 187.879451 
L 189.161752 188.215977 
L 188.455788 187.602433 
z
" clip-path="url(#p8ebc0d2441)" style="fill: #4c4c4c"/>
    <path d="M 113.395963 96.584425 
L 113.324104 94.938596 
L 113.109076 93.305292 
L 112.752514 91.696944 
L 112.257132 90.125793 
L 111.6267 88.603797 
L 110.866017 87.142537 
L 109.980871 85.753137 
L 108.977999 84.446168 
L 107.865033 83.23158 
L 106.650444 82.118614 
L 105.343476 81.115742 
L 103.954075 80.230596 
L 102.492816 79.469913 
L 100.970819 78.839481 
L 99.399668 78.344099 
L 97.791321 77.987537 
L 96.158017 77.772508 
L 94.512188 77.70065 
L 92.866358 77.772508 
L 91.233055 77.987537 
L 89.624707 78.344099 
L 88.053556 78.839481 
L 86.531559 79.469913 
L 85.0703 80.230596 
L 83.680899 81.115742 
L 82.373931 82.118614 
L 81.159342 83.23158 
L 80.046377 84.446168 
L 79.043505 85.753137 
L 78.158359 87.142537 
L 77.397675 88.603797 
L 76.767244 90.125793 
L 76.271862 91.696944 
L 75.9153 93.305292 
L 75.700271 94.938596 
L 75.628413 96.584425 
L 75.700271 98.230254 
L 75.9153 99.863558 
L 76.271862 101.471906 
L 76.767244 103.043056 
L 77.397675 104.565053 
L 78.158359 106.026313 
L 79.043505 107.415713 
L 80.046377 108.722682 
L 81.159342 109.93727 
L 82.373931 111.050236 
L 83.680899 112.053108 
L 85.0703 112.938254 
L 86.531559 113.698937 
L 88.053556 114.329369 
L 89.624707 114.824751 
L 91.233055 115.181313 
L 92.866358 115.396342 
L 94.512188 115.4682 
L 96.158017 115.396342 
L 97.791321 115.181313 
L 99.399668 114.824751 
L 100.970819 114.329369 
L 102.492816 113.698937 
L 103.954075 112.938254 
L 105.343476 112.053108 
L 106.650444 111.050236 
L 107.865033 109.93727 
L 108.977999 108.722682 
L 109.980871 107.415713 
L 110.866017 106.026313 
L 111.6267 104.565053 
L 112.257132 103.043056 
L 112.752514 101.471906 
L 113.109076 99.863558 
L 113.324104 98.230254 
L 113.395963 96.584425 
z
" clip-path="url(#p8ebc0d2441)" style="fill: #f03f37; stroke: #262626"/>
    <path d="M 188.748259 96.492604 
L 189.454223 97.106148 
L 189.161752 97.442674 
L 188.455788 96.82913 
z
" clip-path="url(#p8ebc0d2441)" style="fill: #4c4c4c"/>
    <path d="M 98.361836 190.408059 
L 99.067799 191.021604 
L 98.775328 191.35813 
L 98.069365 190.744585 
z
" clip-path="url(#p8ebc0d2441)" style="fill: #4c4c4c"/>
    <path d="M 217.541972 192.070957 
L 217.452149 190.01367 
L 217.183363 187.972041 
L 216.737661 185.961606 
L 216.118433 183.997668 
L 215.330394 182.095172 
L 214.37954 180.268598 
L 213.273107 178.531846 
L 212.019517 176.898136 
L 210.62831 175.3799 
L 209.110074 173.988693 
L 207.476364 172.735103 
L 205.739613 171.628671 
L 203.913039 170.677816 
L 202.010543 169.889777 
L 200.046604 169.270549 
L 198.03617 168.824847 
L 195.99454 168.556061 
L 193.937253 168.466238 
L 191.879966 168.556061 
L 189.838337 168.824847 
L 187.827902 169.270549 
L 185.863964 169.889777 
L 183.961468 170.677816 
L 182.134894 171.628671 
L 180.398143 172.735103 
L 178.764432 173.988693 
L 177.246197 175.3799 
L 175.85499 176.898136 
L 174.6014 178.531846 
L 173.494967 180.268598 
L 172.544113 182.095172 
L 171.756073 183.997668 
L 171.136846 185.961606 
L 170.691143 187.972041 
L 170.422357 190.01367 
L 170.332534 192.070957 
L 170.422357 194.128244 
L 170.691143 196.169873 
L 171.136846 198.180308 
L 171.756073 200.144246 
L 172.544113 202.046742 
L 173.494967 203.873316 
L 174.6014 205.610068 
L 175.85499 207.243778 
L 177.246197 208.762014 
L 178.764432 210.153221 
L 180.398143 211.406811 
L 182.134894 212.513243 
L 183.961468 213.464098 
L 185.863964 214.252137 
L 187.827902 214.871365 
L 189.838337 215.317067 
L 191.879966 215.585853 
L 193.937253 215.675676 
L 195.99454 215.585853 
L 198.03617 215.317067 
L 200.046604 214.871365 
L 202.010543 214.252137 
L 203.913039 213.464098 
L 205.739613 212.513243 
L 207.476364 211.406811 
L 209.110074 210.153221 
L 210.62831 208.762014 
L 212.019517 207.243778 
L 213.273107 205.610068 
L 214.37954 203.873316 
L 215.330394 202.046742 
L 216.118433 200.144246 
L 216.737661 198.180308 
L 217.183363 196.169873 
L 217.452149 194.128244 
L 217.541972 192.070957 
z
" clip-path="url(#p8ebc0d2441)" style="fill: #477b9d; stroke: #262626"/>
    <path d="M 193.714324 168.825553 
L 193.714324 165.280629 
L 194.160182 165.280629 
L 194.160182 168.825553 
z
" clip-path="url(#p8ebc0d2441)" style="fill: #4c4c4c"/>
    <path d="M 170.798667 193.0984 
L 167.268852 193.221109 
L 167.253361 192.77552 
L 170.783177 192.652811 
z
" clip-path="url(#p8ebc0d2441)" style="fill: #4c4c4c"/>
    <path d="M 98.361836 99.634756 
L 98.454653 99.715422 
L 98.162182 100.051948 
L 98.069365 99.971282 
z
" clip-path="url(#p8ebc0d2441)" style="fill: #4c4c4c"/>
    <path d="M 212.821028 146.684306 
L 212.74917 145.038476 
L 212.534141 143.405172 
L 212.177579 141.796825 
L 211.682197 140.225674 
L 211.051766 138.703677 
L 210.291082 137.242418 
L 209.405936 135.853017 
L 208.403064 134.546049 
L 207.290099 133.33146 
L 206.07551 132.218495 
L 204.768542 131.215623 
L 203.379141 130.330477 
L 201.917882 129.569793 
L 200.395885 128.939361 
L 198.824734 128.44398 
L 197.216386 128.087417 
L 195.583083 127.872389 
L 193.937253 127.80053 
L 192.291424 127.872389 
L 190.65812 128.087417 
L 189.049773 128.44398 
L 187.478622 128.939361 
L 185.956625 129.569793 
L 184.495366 130.330477 
L 183.105965 131.215623 
L 181.798997 132.218495 
L 180.584408 133.33146 
L 179.471442 134.546049 
L 178.46857 135.853017 
L 177.583424 137.242418 
L 176.822741 138.703677 
L 176.192309 140.225674 
L 175.696927 141.796825 
L 175.340365 143.405172 
L 175.125337 145.038476 
L 175.053478 146.684306 
L 175.125337 148.330135 
L 175.340365 149.963439 
L 175.696927 151.571786 
L 176.192309 153.142937 
L 176.822741 154.664934 
L 177.583424 156.126193 
L 178.46857 157.515594 
L 179.471442 158.822562 
L 180.584408 160.037151 
L 181.798997 161.150117 
L 183.105965 162.152989 
L 184.495366 163.038135 
L 185.956625 163.798818 
L 187.478622 164.42925 
L 189.049773 164.924632 
L 190.65812 165.281194 
L 192.291424 165.496222 
L 193.937253 165.568081 
L 195.583083 165.496222 
L 197.216386 165.281194 
L 198.824734 164.924632 
L 200.395885 164.42925 
L 201.917882 163.798818 
L 203.379141 163.038135 
L 204.768542 162.152989 
L 206.07551 161.150117 
L 207.290099 160.037151 
L 208.403064 158.822562 
L 209.405936 157.515594 
L 210.291082 156.126193 
L 211.051766 154.664934 
L 211.682197 153.142937 
L 212.177579 151.571786 
L 212.534141 149.963439 
L 212.74917 148.330135 
L 212.821028 146.684306 
z
" clip-path="url(#p8ebc0d2441)" style="fill: #f03f37; stroke: #262626"/>
    <path d="M 98.454653 99.715422 
L 98.635426 99.87253 
L 98.342955 100.209056 
L 98.162182 100.051948 
z
" clip-path="url(#p8ebc0d2441)" style="fill: #4c4c4c"/>
    <path d="M 167.627817 193.642033 
L 167.555958 191.996204 
L 167.34093 190.3629 
L 166.984368 188.754553 
L 166.488986 187.183402 
L 165.858554 185.661405 
L 165.097871 184.200146 
L 164.212725 182.810745 
L 163.209853 181.503777 
L 162.096887 180.289188 
L 160.882298 179.176222 
L 159.57533 178.17335 
L 158.185929 177.288204 
L 156.72467 176.527521 
L 155.202673 175.897089 
L 153.631522 175.401707 
L 152.023175 175.045145 
L 150.389871 174.830117 
L 148.744042 174.758258 
L 147.098212 174.830117 
L 145.464908 175.045145 
L 143.856561 175.401707 
L 142.28541 175.897089 
L 140.763413 176.527521 
L 139.302154 177.288204 
L 137.912753 178.17335 
L 136.605785 179.176222 
L 135.391196 180.289188 
L 134.278231 181.503777 
L 133.275359 182.810745 
L 132.390213 184.200146 
L 131.629529 185.661405 
L 130.999098 187.183402 
L 130.503716 188.754553 
L 130.147153 190.3629 
L 129.932125 191.996204 
L 129.860267 193.642033 
L 129.932125 195.287863 
L 130.147153 196.921167 
L 130.503716 198.529514 
L 130.999098 200.100665 
L 131.629529 201.622662 
L 132.390213 203.083921 
L 133.275359 204.473322 
L 134.278231 205.78029 
L 135.391196 206.994879 
L 136.605785 208.107844 
L 137.912753 209.110716 
L 139.302154 209.995862 
L 140.763413 210.756546 
L 142.28541 211.386978 
L 143.856561 211.882359 
L 145.464908 212.238922 
L 147.098212 212.45395 
L 148.744042 212.525809 
L 150.389871 212.45395 
L 152.023175 212.238922 
L 153.631522 211.882359 
L 155.202673 211.386978 
L 156.72467 210.756546 
L 158.185929 209.995862 
L 159.57533 209.110716 
L 160.882298 208.107844 
L 162.096887 206.994879 
L 163.209853 205.78029 
L 164.212725 204.473322 
L 165.097871 203.083921 
L 165.858554 201.622662 
L 166.488986 200.100665 
L 166.984368 198.529514 
L 167.34093 196.921167 
L 167.555958 195.287863 
L 167.627817 193.642033 
z
" clip-path="url(#p8ebc0d2441)" style="fill: #f03f37; stroke: #262626"/>
    <path d="M 98.635426 99.87253 
L 99.067799 100.248301 
L 98.775328 100.584827 
L 98.342955 100.209056 
z
" clip-path="url(#p8ebc0d2441)" style="fill: #4c4c4c"/>
    <path d="M 193.714324 128.087982 
L 193.714324 124.543058 
L 194.160182 124.543058 
L 194.160182 128.087982 
z
" clip-path="url(#p8ebc0d2441)" style="fill: #4c4c4c"/>
    <path d="M 130.234722 194.508547 
L 126.704906 194.631255 
L 126.689416 194.185667 
L 130.219232 194.062958 
z
" clip-path="url(#p8ebc0d2441)" style="fill: #4c4c4c"/>
    <path d="M 217.541972 101.297654 
L 217.452149 99.240367 
L 217.183363 97.198738 
L 216.737661 95.188303 
L 216.118433 93.224365 
L 215.330394 91.321869 
L 214.37954 89.495295 
L 213.273107 87.758544 
L 212.019517 86.124833 
L 210.62831 84.606597 
L 209.110074 83.21539 
L 207.476364 81.9618 
L 205.739613 80.855368 
L 203.913039 79.904514 
L 202.010543 79.116474 
L 200.046604 78.497247 
L 198.03617 78.051544 
L 195.99454 77.782758 
L 193.937253 77.692935 
L 191.879966 77.782758 
L 189.838337 78.051544 
L 187.827902 78.497247 
L 185.863964 79.116474 
L 183.961468 79.904514 
L 182.134894 80.855368 
L 180.398143 81.9618 
L 178.764432 83.21539 
L 177.246197 84.606597 
L 175.85499 86.124833 
L 174.6014 87.758544 
L 173.494967 89.495295 
L 172.544113 91.321869 
L 171.756073 93.224365 
L 171.136846 95.188303 
L 170.691143 97.198738 
L 170.422357 99.240367 
L 170.332534 101.297654 
L 170.422357 103.354941 
L 170.691143 105.396571 
L 171.136846 107.407005 
L 171.756073 109.370943 
L 172.544113 111.273439 
L 173.494967 113.100014 
L 174.6014 114.836765 
L 175.85499 116.470475 
L 177.246197 117.988711 
L 178.764432 119.379918 
L 180.398143 120.633508 
L 182.134894 121.73994 
L 183.961468 122.690795 
L 185.863964 123.478834 
L 187.827902 124.098062 
L 189.838337 124.543764 
L 191.879966 124.81255 
L 193.937253 124.902373 
L 195.99454 124.81255 
L 198.03617 124.543764 
L 200.046604 124.098062 
L 202.010543 123.478834 
L 203.913039 122.690795 
L 205.739613 121.73994 
L 207.476364 120.633508 
L 209.110074 119.379918 
L 210.62831 117.988711 
L 212.019517 116.470475 
L 213.273107 114.836765 
L 214.37954 113.100014 
L 215.330394 111.273439 
L 216.118433 109.370943 
L 216.737661 107.407005 
L 217.183363 105.396571 
L 217.452149 103.354941 
L 217.541972 101.297654 
z
" clip-path="url(#p8ebc0d2441)" style="fill: #477b9d; stroke: #262626"/>
    <path d="M 127.155549 195.21311 
L 127.065726 193.155823 
L 126.79694 191.114193 
L 126.351238 189.103759 
L 125.73201 187.13982 
L 124.943971 185.237325 
L 123.993116 183.41075 
L 122.886684 181.673999 
L 121.633094 180.040289 
L 120.241887 178.522053 
L 118.723651 177.130846 
L 117.089941 175.877256 
L 115.353189 174.770824 
L 113.526615 173.819969 
L 111.624119 173.03193 
L 109.660181 172.412702 
L 107.649746 171.967 
L 105.608117 171.698214 
L 103.55083 171.608391 
L 101.493543 171.698214 
L 99.451914 171.967 
L 97.441479 172.412702 
L 95.477541 173.03193 
L 93.575045 173.819969 
L 91.748471 174.770824 
L 90.011719 175.877256 
L 88.378009 177.130846 
L 86.859773 178.522053 
L 85.468566 180.040289 
L 84.214976 181.673999 
L 83.108544 183.41075 
L 82.157689 185.237325 
L 81.36965 187.13982 
L 80.750422 189.103759 
L 80.30472 191.114193 
L 80.035934 193.155823 
L 79.946111 195.21311 
L 80.035934 197.270397 
L 80.30472 199.312026 
L 80.750422 201.322461 
L 81.36965 203.286399 
L 82.157689 205.188895 
L 83.108544 207.015469 
L 84.214976 208.75222 
L 85.468566 210.385931 
L 86.859773 211.904167 
L 88.378009 213.295374 
L 90.011719 214.548964 
L 91.748471 215.655396 
L 93.575045 216.60625 
L 95.477541 217.39429 
L 97.441479 218.013517 
L 99.451914 218.45922 
L 101.493543 218.728006 
L 103.55083 218.817829 
L 105.608117 218.728006 
L 107.649746 218.45922 
L 109.660181 218.013517 
L 111.624119 217.39429 
L 113.526615 216.60625 
L 115.353189 215.655396 
L 117.089941 214.548964 
L 118.723651 213.295374 
L 120.241887 211.904167 
L 121.633094 210.385931 
L 122.886684 208.75222 
L 123.993116 207.015469 
L 124.943971 205.188895 
L 125.73201 203.286399 
L 126.351238 201.322461 
L 126.79694 199.312026 
L 127.065726 197.270397 
L 127.155549 195.21311 
z
" clip-path="url(#p8ebc0d2441)" style="fill: #477b9d; stroke: #262626"/>
    <path d="M 170.798667 102.325097 
L 167.268852 102.447806 
L 167.253361 102.002217 
L 170.783177 101.879508 
z
" clip-path="url(#p8ebc0d2441)" style="fill: #4c4c4c"/>
    <path d="M 103.327901 171.967706 
L 103.327901 168.422782 
L 103.773759 168.422782 
L 103.773759 171.967706 
z
" clip-path="url(#p8ebc0d2441)" style="fill: #4c4c4c"/>
    <path d="M 167.627817 102.868731 
L 167.555958 101.222901 
L 167.34093 99.589597 
L 166.984368 97.98125 
L 166.488986 96.410099 
L 165.858554 94.888102 
L 165.097871 93.426843 
L 164.212725 92.037442 
L 163.209853 90.730474 
L 162.096887 89.515885 
L 160.882298 88.40292 
L 159.57533 87.400048 
L 158.185929 86.514902 
L 156.72467 85.754218 
L 155.202673 85.123786 
L 153.631522 84.628404 
L 152.023175 84.271842 
L 150.389871 84.056814 
L 148.744042 83.984955 
L 147.098212 84.056814 
L 145.464908 84.271842 
L 143.856561 84.628404 
L 142.28541 85.123786 
L 140.763413 85.754218 
L 139.302154 86.514902 
L 137.912753 87.400048 
L 136.605785 88.40292 
L 135.391196 89.515885 
L 134.278231 90.730474 
L 133.275359 92.037442 
L 132.390213 93.426843 
L 131.629529 94.888102 
L 130.999098 96.410099 
L 130.503716 97.98125 
L 130.147153 99.589597 
L 129.932125 101.222901 
L 129.860267 102.868731 
L 129.932125 104.51456 
L 130.147153 106.147864 
L 130.503716 107.756211 
L 130.999098 109.327362 
L 131.629529 110.849359 
L 132.390213 112.310618 
L 133.275359 113.700019 
L 134.278231 115.006987 
L 135.391196 116.221576 
L 136.605785 117.334542 
L 137.912753 118.337414 
L 139.302154 119.22256 
L 140.763413 119.983243 
L 142.28541 120.613675 
L 143.856561 121.109057 
L 145.464908 121.465619 
L 147.098212 121.680647 
L 148.744042 121.752506 
L 150.389871 121.680647 
L 152.023175 121.465619 
L 153.631522 121.109057 
L 155.202673 120.613675 
L 156.72467 119.983243 
L 158.185929 119.22256 
L 159.57533 118.337414 
L 160.882298 117.334542 
L 162.096887 116.221576 
L 163.209853 115.006987 
L 164.212725 113.700019 
L 165.097871 112.310618 
L 165.858554 110.849359 
L 166.488986 109.327362 
L 166.984368 107.756211 
L 167.34093 106.147864 
L 167.555958 104.51456 
L 167.627817 102.868731 
z
" clip-path="url(#p8ebc0d2441)" style="fill: #f03f37; stroke: #262626"/>
    <path d="M 122.434605 149.826458 
L 122.362747 148.180629 
L 122.147718 146.547325 
L 121.791156 144.938978 
L 121.295774 143.367827 
L 120.665342 141.84583 
L 119.904659 140.384571 
L 119.019513 138.99517 
L 118.016641 137.688202 
L 116.903675 136.473613 
L 115.689087 135.360647 
L 114.382118 134.357775 
L 112.992718 133.472629 
L 111.531458 132.711946 
L 110.009461 132.081514 
L 108.438311 131.586132 
L 106.829963 131.22957 
L 105.196659 131.014542 
L 103.55083 130.942683 
L 101.905001 131.014542 
L 100.271697 131.22957 
L 98.663349 131.586132 
L 97.092198 132.081514 
L 95.570202 132.711946 
L 94.108942 133.472629 
L 92.719542 134.357775 
L 91.412573 135.360647 
L 90.197985 136.473613 
L 89.085019 137.688202 
L 88.082147 138.99517 
L 87.197001 140.384571 
L 86.436318 141.84583 
L 85.805886 143.367827 
L 85.310504 144.938978 
L 84.953942 146.547325 
L 84.738913 148.180629 
L 84.667055 149.826458 
L 84.738913 151.472288 
L 84.953942 153.105592 
L 85.310504 154.713939 
L 85.805886 156.28509 
L 86.436318 157.807087 
L 87.197001 159.268346 
L 88.082147 160.657747 
L 89.085019 161.964715 
L 90.197985 163.179304 
L 91.412573 164.292269 
L 92.719542 165.295141 
L 94.108942 166.180287 
L 95.570202 166.940971 
L 97.092198 167.571403 
L 98.663349 168.066784 
L 100.271697 168.423347 
L 101.905001 168.638375 
L 103.55083 168.710233 
L 105.196659 168.638375 
L 106.829963 168.423347 
L 108.438311 168.066784 
L 110.009461 167.571403 
L 111.531458 166.940971 
L 112.992718 166.180287 
L 114.382118 165.295141 
L 115.689087 164.292269 
L 116.903675 163.179304 
L 118.016641 161.964715 
L 119.019513 160.657747 
L 119.904659 159.268346 
L 120.665342 157.807087 
L 121.295774 156.28509 
L 121.791156 154.713939 
L 122.147718 153.105592 
L 122.362747 151.472288 
L 122.434605 149.826458 
z
" clip-path="url(#p8ebc0d2441)" style="fill: #f03f37; stroke: #262626"/>
    <path d="M 130.234722 103.735244 
L 126.704906 103.857953 
L 126.689416 103.412364 
L 130.219232 103.289655 
z
" clip-path="url(#p8ebc0d2441)" style="fill: #4c4c4c"/>
    <path d="M 103.327901 131.230135 
L 103.327901 127.685211 
L 103.773759 127.685211 
L 103.773759 131.230135 
z
" clip-path="url(#p8ebc0d2441)" style="fill: #4c4c4c"/>
    <path d="M 127.155549 104.439807 
L 127.065726 102.38252 
L 126.79694 100.340891 
L 126.351238 98.330456 
L 125.73201 96.366518 
L 124.943971 94.464022 
L 123.993116 92.637447 
L 122.886684 90.900696 
L 121.633094 89.266986 
L 120.241887 87.74875 
L 118.723651 86.357543 
L 117.089941 85.103953 
L 115.353189 83.997521 
L 113.526615 83.046666 
L 111.624119 82.258627 
L 109.660181 81.639399 
L 107.649746 81.193697 
L 105.608117 80.924911 
L 103.55083 80.835088 
L 101.493543 80.924911 
L 99.451914 81.193697 
L 97.441479 81.639399 
L 95.477541 82.258627 
L 93.575045 83.046666 
L 91.748471 83.997521 
L 90.011719 85.103953 
L 88.378009 86.357543 
L 86.859773 87.74875 
L 85.468566 89.266986 
L 84.214976 90.900696 
L 83.108544 92.637447 
L 82.157689 94.464022 
L 81.36965 96.366518 
L 80.750422 98.330456 
L 80.30472 100.340891 
L 80.035934 102.38252 
L 79.946111 104.439807 
L 80.035934 106.497094 
L 80.30472 108.538723 
L 80.750422 110.549158 
L 81.36965 112.513096 
L 82.157689 114.415592 
L 83.108544 116.242166 
L 84.214976 117.978917 
L 85.468566 119.612628 
L 86.859773 121.130864 
L 88.378009 122.522071 
L 90.011719 123.775661 
L 91.748471 124.882093 
L 93.575045 125.832947 
L 95.477541 126.620987 
L 97.441479 127.240215 
L 99.451914 127.685917 
L 101.493543 127.954703 
L 103.55083 128.044526 
L 105.608117 127.954703 
L 107.649746 127.685917 
L 109.660181 127.240215 
L 111.624119 126.620987 
L 113.526615 125.832947 
L 115.353189 124.882093 
L 117.089941 123.775661 
L 118.723651 122.522071 
L 120.241887 121.130864 
L 121.633094 119.612628 
L 122.886684 117.978917 
L 123.993116 116.242166 
L 124.943971 114.415592 
L 125.73201 112.513096 
L 126.351238 110.549158 
L 126.79694 108.538723 
L 127.065726 106.497094 
L 127.155549 104.439807 
z
" clip-path="url(#p8ebc0d2441)" style="fill: #477b9d; stroke: #262626"/>
   </g>
   <g id="line2d_1">
    <path d="M 43.05981 237.636 
L 43.05981 221.895311 
" clip-path="url(#p8ebc0d2441)" style="fill: none; stroke: #4c4c4c; stroke-width: 0.993548; stroke-linecap: round"/>
   </g>
   <g id="line2d_2">
    <path d="M 43.05981 237.636 
L 27.386208 238.18087 
" clip-path="url(#p8ebc0d2441)" style="fill: none; stroke: #4c4c4c; stroke-width: 0.993548; stroke-linecap: round"/>
   </g>
   <g id="line2d_3">
    <path d="M 43.05981 237.636 
L 46.19453 240.36035 
" clip-path="url(#p8ebc0d2441)" style="fill: none; stroke: #4c4c4c; stroke-width: 0.993548; stroke-linecap: round"/>
   </g>
   <g id="text_1">
    <path d="M 40.780082 212.647026 
L 40.780082 219.741582 
L 41.624598 219.741582 
L 41.624598 219.055413 
L 41.64478 219.055413 
Q 41.782945 219.285171 41.986312 219.43886 
Q 42.191231 219.59255 42.419437 219.68259 
Q 42.647643 219.771078 42.880505 219.809889 
Q 43.114921 219.850251 43.302764 219.850251 
Q 43.889578 219.850251 44.332018 219.642227 
Q 44.774457 219.434203 45.066312 219.070937 
Q 45.359719 218.707671 45.504094 218.221764 
Q 45.648469 217.734304 45.648469 217.187852 
Q 45.648469 216.641401 45.499437 216.155493 
Q 45.350405 215.668034 45.056997 215.295453 
Q 44.76359 214.922872 44.321151 214.703981 
Q 43.880264 214.48509 43.284134 214.48509 
Q 42.746997 214.48509 42.299901 214.679143 
Q 41.852804 214.873195 41.64478 215.30011 
L 41.624598 215.30011 
L 41.624598 212.647026 
L 40.780082 212.647026 
z
M 44.754276 217.12886 
Q 44.754276 217.506098 44.67355 217.864707 
Q 44.594376 218.221764 44.415848 218.499647 
Q 44.23732 218.77753 43.943913 218.946743 
Q 43.650505 219.115957 43.214276 219.115957 
Q 42.776493 219.115957 42.467562 218.952953 
Q 42.160183 218.788397 41.96613 218.519828 
Q 41.77363 218.25126 41.68359 217.89886 
Q 41.595102 217.546461 41.595102 217.167671 
Q 41.595102 216.810614 41.678933 216.462872 
Q 41.762764 216.115131 41.952159 215.841905 
Q 42.141554 215.568679 42.439618 215.399465 
Q 42.737683 215.230251 43.164598 215.230251 
Q 43.571332 215.230251 43.874054 215.390151 
Q 44.178328 215.548497 44.370828 215.817066 
Q 44.56488 216.085635 44.659578 216.428719 
Q 44.754276 216.770251 44.754276 217.12886 
z
" style="fill: #4c4c4c; stroke: #ffffff; stroke-width: 2.980645"/>
    <path d="M 40.780082 212.647026 
L 40.780082 219.741582 
L 41.624598 219.741582 
L 41.624598 219.055413 
L 41.64478 219.055413 
Q 41.782945 219.285171 41.986312 219.43886 
Q 42.191231 219.59255 42.419437 219.68259 
Q 42.647643 219.771078 42.880505 219.809889 
Q 43.114921 219.850251 43.302764 219.850251 
Q 43.889578 219.850251 44.332018 219.642227 
Q 44.774457 219.434203 45.066312 219.070937 
Q 45.359719 218.707671 45.504094 218.221764 
Q 45.648469 217.734304 45.648469 217.187852 
Q 45.648469 216.641401 45.499437 216.155493 
Q 45.350405 215.668034 45.056997 215.295453 
Q 44.76359 214.922872 44.321151 214.703981 
Q 43.880264 214.48509 43.284134 214.48509 
Q 42.746997 214.48509 42.299901 214.679143 
Q 41.852804 214.873195 41.64478 215.30011 
L 41.624598 215.30011 
L 41.624598 212.647026 
L 40.780082 212.647026 
z
M 44.754276 217.12886 
Q 44.754276 217.506098 44.67355 217.864707 
Q 44.594376 218.221764 44.415848 218.499647 
Q 44.23732 218.77753 43.943913 218.946743 
Q 43.650505 219.115957 43.214276 219.115957 
Q 42.776493 219.115957 42.467562 218.952953 
Q 42.160183 218.788397 41.96613 218.519828 
Q 41.77363 218.25126 41.68359 217.89886 
Q 41.595102 217.546461 41.595102 217.167671 
Q 41.595102 216.810614 41.678933 216.462872 
Q 41.762764 216.115131 41.952159 215.841905 
Q 42.141554 215.568679 42.439618 215.399465 
Q 42.737683 215.230251 43.164598 215.230251 
Q 43.571332 215.230251 43.874054 215.390151 
Q 44.178328 215.548497 44.370828 215.817066 
Q 44.56488 216.085635 44.659578 216.428719 
Q 44.754276 216.770251 44.754276 217.12886 
z
" style="fill: #4c4c4c"/>
   </g>
   <g id="text_2">
    <path d="M 24.139521 237.426075 
L 25.013533 237.426075 
Q 24.963856 236.968111 24.774461 236.635894 
Q 24.586618 236.302123 24.293211 236.084785 
Q 23.999803 235.865894 23.617908 235.761881 
Q 23.236013 235.656317 22.798231 235.656317 
Q 22.192787 235.656317 21.734823 235.870551 
Q 21.278412 236.084785 20.974138 236.457365 
Q 20.671416 236.829946 20.522384 237.331377 
Q 20.373352 237.832809 20.373352 238.408756 
Q 20.373352 238.984704 20.527041 239.467506 
Q 20.682283 239.948756 20.985005 240.296498 
Q 21.287727 240.64424 21.739481 240.833635 
Q 22.192787 241.021478 22.778049 241.021478 
Q 23.762283 241.021478 24.333573 240.506075 
Q 24.904864 239.989119 25.043029 239.034381 
L 24.179884 239.034381 
Q 24.099158 239.63051 23.746759 239.959623 
Q 23.39436 240.287184 22.768735 240.287184 
Q 22.371315 240.287184 22.082565 240.128837 
Q 21.795368 239.968938 21.615287 239.706579 
Q 21.436759 239.442668 21.351376 239.105793 
Q 21.267545 238.767365 21.267545 238.408756 
Q 21.267545 238.022204 21.346719 237.658938 
Q 21.427444 237.295672 21.61063 237.017789 
Q 21.795368 236.739906 22.102747 236.570692 
Q 22.410126 236.401478 22.86809 236.401478 
Q 23.403674 236.401478 23.72192 236.670047 
Q 24.040166 236.938615 24.139521 237.426075 
z
" style="fill: #4c4c4c; stroke: #ffffff; stroke-width: 2.980645"/>
    <path d="M 24.139521 237.426075 
L 25.013533 237.426075 
Q 24.963856 236.968111 24.774461 236.635894 
Q 24.586618 236.302123 24.293211 236.084785 
Q 23.999803 235.865894 23.617908 235.761881 
Q 23.236013 235.656317 22.798231 235.656317 
Q 22.192787 235.656317 21.734823 235.870551 
Q 21.278412 236.084785 20.974138 236.457365 
Q 20.671416 236.829946 20.522384 237.331377 
Q 20.373352 237.832809 20.373352 238.408756 
Q 20.373352 238.984704 20.527041 239.467506 
Q 20.682283 239.948756 20.985005 240.296498 
Q 21.287727 240.64424 21.739481 240.833635 
Q 22.192787 241.021478 22.778049 241.021478 
Q 23.762283 241.021478 24.333573 240.506075 
Q 24.904864 239.989119 25.043029 239.034381 
L 24.179884 239.034381 
Q 24.099158 239.63051 23.746759 239.959623 
Q 23.39436 240.287184 22.768735 240.287184 
Q 22.371315 240.287184 22.082565 240.128837 
Q 21.795368 239.968938 21.615287 239.706579 
Q 21.436759 239.442668 21.351376 239.105793 
Q 21.267545 238.767365 21.267545 238.408756 
Q 21.267545 238.022204 21.346719 237.658938 
Q 21.427444 237.295672 21.61063 237.017789 
Q 21.795368 236.739906 22.102747 236.570692 
Q 22.410126 236.401478 22.86809 236.401478 
Q 23.403674 236.401478 23.72192 236.670047 
Q 24.040166 236.938615 24.139521 237.426075 
z
" style="fill: #4c4c4c"/>
   </g>
   <g id="text_3">
    <path d="M 50.168992 244.634748 
Q 49.950101 244.763599 49.561996 244.763599 
Q 49.234435 244.763599 49.040383 244.580413 
Q 48.847883 244.397228 48.847883 243.979627 
Q 48.500141 244.397228 48.03752 244.580413 
Q 47.574899 244.763599 47.039314 244.763599 
Q 46.691572 244.763599 46.377984 244.684425 
Q 46.065947 244.605252 45.836189 244.436038 
Q 45.607984 244.266825 45.472923 243.993599 
Q 45.339415 243.720373 45.339415 243.333821 
Q 45.339415 242.896038 45.488447 242.618155 
Q 45.63748 242.340272 45.881209 242.166401 
Q 46.124939 241.99253 46.436976 241.904042 
Q 46.750564 241.814002 47.078125 241.753458 
Q 47.425867 241.683599 47.739455 241.649446 
Q 48.053044 241.615292 48.290564 241.550091 
Q 48.529637 241.484889 48.667802 241.360696 
Q 48.80752 241.236502 48.80752 240.998982 
Q 48.80752 240.721099 48.703508 240.551885 
Q 48.599496 240.382671 48.434939 240.294183 
Q 48.270383 240.204143 48.067016 240.174647 
Q 47.863649 240.143599 47.664939 240.143599 
Q 47.127802 240.143599 46.770746 240.348518 
Q 46.413689 240.551885 46.382641 241.118518 
L 45.538125 241.118518 
Q 45.558306 240.640373 45.736834 240.312812 
Q 45.916915 239.985252 46.21498 239.781885 
Q 46.513044 239.578518 46.894939 239.488478 
Q 47.276834 239.398437 47.714617 239.398437 
Q 48.062359 239.398437 48.405443 239.448115 
Q 48.748528 239.497792 49.026411 239.653034 
Q 49.304294 239.806724 49.473508 240.084607 
Q 49.642722 240.36249 49.642722 240.809587 
L 49.642722 243.453357 
Q 49.642722 243.751421 49.676875 243.891139 
Q 49.711028 244.029304 49.909738 244.029304 
Q 50.019959 244.029304 50.168992 243.979627 
L 50.168992 244.634748 
z
M 48.798205 242.001845 
Q 48.638306 242.121381 48.379052 242.175716 
Q 48.121351 242.23005 47.83881 242.265756 
Q 47.55627 242.299909 47.26752 242.344929 
Q 46.97877 242.38995 46.750564 242.489304 
Q 46.522359 242.588659 46.377984 242.773397 
Q 46.233609 242.956583 46.233609 243.273276 
Q 46.233609 243.482853 46.317439 243.627228 
Q 46.402822 243.77005 46.53633 243.860091 
Q 46.671391 243.950131 46.849919 243.990494 
Q 47.028447 244.029304 47.227157 244.029304 
Q 47.644758 244.029304 47.942822 243.915978 
Q 48.240887 243.801099 48.42873 243.627228 
Q 48.618125 243.453357 48.708165 243.24999 
Q 48.798205 243.045071 48.798205 242.866542 
L 48.798205 242.001845 
z
" style="fill: #4c4c4c; stroke: #ffffff; stroke-width: 2.980645"/>
    <path d="M 50.168992 244.634748 
Q 49.950101 244.763599 49.561996 244.763599 
Q 49.234435 244.763599 49.040383 244.580413 
Q 48.847883 244.397228 48.847883 243.979627 
Q 48.500141 244.397228 48.03752 244.580413 
Q 47.574899 244.763599 47.039314 244.763599 
Q 46.691572 244.763599 46.377984 244.684425 
Q 46.065947 244.605252 45.836189 244.436038 
Q 45.607984 244.266825 45.472923 243.993599 
Q 45.339415 243.720373 45.339415 243.333821 
Q 45.339415 242.896038 45.488447 242.618155 
Q 45.63748 242.340272 45.881209 242.166401 
Q 46.124939 241.99253 46.436976 241.904042 
Q 46.750564 241.814002 47.078125 241.753458 
Q 47.425867 241.683599 47.739455 241.649446 
Q 48.053044 241.615292 48.290564 241.550091 
Q 48.529637 241.484889 48.667802 241.360696 
Q 48.80752 241.236502 48.80752 240.998982 
Q 48.80752 240.721099 48.703508 240.551885 
Q 48.599496 240.382671 48.434939 240.294183 
Q 48.270383 240.204143 48.067016 240.174647 
Q 47.863649 240.143599 47.664939 240.143599 
Q 47.127802 240.143599 46.770746 240.348518 
Q 46.413689 240.551885 46.382641 241.118518 
L 45.538125 241.118518 
Q 45.558306 240.640373 45.736834 240.312812 
Q 45.916915 239.985252 46.21498 239.781885 
Q 46.513044 239.578518 46.894939 239.488478 
Q 47.276834 239.398437 47.714617 239.398437 
Q 48.062359 239.398437 48.405443 239.448115 
Q 48.748528 239.497792 49.026411 239.653034 
Q 49.304294 239.806724 49.473508 240.084607 
Q 49.642722 240.36249 49.642722 240.809587 
L 49.642722 243.453357 
Q 49.642722 243.751421 49.676875 243.891139 
Q 49.711028 244.029304 49.909738 244.029304 
Q 50.019959 244.029304 50.168992 243.979627 
L 50.168992 244.634748 
z
M 48.798205 242.001845 
Q 48.638306 242.121381 48.379052 242.175716 
Q 48.121351 242.23005 47.83881 242.265756 
Q 47.55627 242.299909 47.26752 242.344929 
Q 46.97877 242.38995 46.750564 242.489304 
Q 46.522359 242.588659 46.377984 242.773397 
Q 46.233609 242.956583 46.233609 243.273276 
Q 46.233609 243.482853 46.317439 243.627228 
Q 46.402822 243.77005 46.53633 243.860091 
Q 46.671391 243.950131 46.849919 243.990494 
Q 47.028447 244.029304 47.227157 244.029304 
Q 47.644758 244.029304 47.942822 243.915978 
Q 48.240887 243.801099 48.42873 243.627228 
Q 48.618125 243.453357 48.708165 243.24999 
Q 48.798205 243.045071 48.798205 242.866542 
L 48.798205 242.001845 
z
" style="fill: #4c4c4c"/>
   </g>
  </g>
 </g>
 <defs>
  <clipPath id="p8ebc0d2441">
   <rect x="7.2" y="7.2" width="265.010799" height="266.4"/>
  </clipPath>
 </defs>
</svg>
