<?xml version="1.0" encoding="utf-8" standalone="no"?>
<!DOCTYPE svg PUBLIC "-//W3C//DTD SVG 1.1//EN"
  "http://www.w3.org/Graphics/SVG/1.1/DTD/svg11.dtd">
<svg xmlns:xlink="http://www.w3.org/1999/xlink" width="207.60983pt" height="208.8pt" viewBox="0 0 207.60983 208.8" xmlns="http://www.w3.org/2000/svg" version="1.1">
 <metadata>
  <rdf:RDF xmlns:dc="http://purl.org/dc/elements/1.1/" xmlns:cc="http://creativecommons.org/ns#" xmlns:rdf="http://www.w3.org/1999/02/22-rdf-syntax-ns#">
   <cc:Work>
    <dc:type rdf:resource="http://purl.org/dc/dcmitype/StillImage"/>
    <dc:date>2026-02-25T16:16:41.903802</dc:date>
    <dc:format>image/svg+xml</dc:format>
    <dc:creator>
     <cc:Agent>
      <dc:title>Matplotlib v3.10.7, https://matplotlib.org/</dc:title>
     </cc:Agent>
    </dc:creator>
   </cc:Work>
  </rdf:RDF>
 </metadata>
 <defs>
  <style type="text/css">*{stroke-linejoin: round; stroke-linecap: butt}</style>
 </defs>
 <g id="figure_1">
  <g id="patch_1">
   <path d="M 0 208.8 
L 207.60983 208.8 
L 207.60983 0 
L 0 0 
z
" style="fill: #ffffff"/>
  </g>
  <g id="axes_1">
   <g id="PolyCollection_1">
    <path d="M 144.891052 135.208175 
L 144.852575 134.326905 
L 144.737437 133.452343 
L 144.546514 132.591143 
L 144.281258 131.74986 
L 143.94369 130.934898 
L 143.536377 130.152457 
L 143.06242 129.408494 
L 142.525426 128.70867 
L 141.929482 128.058311 
L 141.279123 127.462366 
L 140.579298 126.925372 
L 139.835335 126.451415 
L 139.052895 126.044103 
L 138.237932 125.706534 
L 137.396649 125.441279 
L 136.53545 125.250355 
L 135.660887 125.135217 
L 134.779617 125.09674 
L 133.898348 125.135217 
L 133.023785 125.250355 
L 132.162586 125.441279 
L 131.321303 125.706534 
L 130.50634 126.044103 
L 129.7239 126.451415 
L 128.979937 126.925372 
L 128.280112 127.462366 
L 127.629753 128.058311 
L 127.033809 128.70867 
L 126.496815 129.408494 
L 126.022858 130.152457 
L 125.615545 130.934898 
L 125.277977 131.74986 
L 125.012721 132.591143 
L 124.821798 133.452343 
L 124.70666 134.326905 
L 124.668183 135.208175 
L 124.70666 136.089444 
L 124.821798 136.964007 
L 125.012721 137.825207 
L 125.277977 138.666489 
L 125.615545 139.481452 
L 126.022858 140.263892 
L 126.496815 141.007856 
L 127.033809 141.70768 
L 127.629753 142.358039 
L 128.280112 142.953983 
L 128.979937 143.490977 
L 129.7239 143.964934 
L 130.50634 144.372247 
L 131.321303 144.709816 
L 132.162586 144.975071 
L 133.023785 145.165994 
L 133.898348 145.281133 
L 134.779617 145.31961 
L 135.660887 145.281133 
L 136.53545 145.165994 
L 137.396649 144.975071 
L 138.237932 144.709816 
L 139.052895 144.372247 
L 139.835335 143.964934 
L 140.579298 143.490977 
L 141.279123 142.953983 
L 141.929482 142.358039 
L 142.525426 141.70768 
L 143.06242 141.007856 
L 143.536377 140.263892 
L 143.94369 139.481452 
L 144.281258 138.666489 
L 144.546514 137.825207 
L 144.737437 136.964007 
L 144.852575 136.089444 
L 144.891052 135.208175 
z
" clip-path="url(#p03ad721b1b)" style="fill: #477b9d; stroke: #262626"/>
    <path d="M 134.61694 125.250658 
L 134.61694 104.290084 
L 134.942295 104.290084 
L 134.942295 125.250658 
z
" clip-path="url(#p03ad721b1b)" style="fill: #4c4c4c"/>
    <path d="M 124.870192 135.715438 
L 103.998953 136.440996 
L 103.987649 136.115837 
L 124.858888 135.390278 
z
" clip-path="url(#p03ad721b1b)" style="fill: #4c4c4c"/>
    <path d="M 132.352873 125.54169 
L 132.451173 125.660529 
L 132.73811 125.76974 
L 133.190438 125.860476 
L 133.771511 125.925386 
L 134.434256 125.959211 
L 135.124979 125.959211 
L 135.787724 125.925386 
L 136.368797 125.860476 
L 136.821125 125.76974 
L 137.108062 125.660529 
L 137.206362 125.54169 
L 137.206362 114.732427 
L 132.352873 114.732427 
z
" clip-path="url(#p03ad721b1b)" style="fill: #477b9d; stroke: #262626"/>
    <path d="M 132.352873 114.732427 
L 137.206362 114.732427 
L 137.206362 103.923164 
L 137.108062 103.804326 
L 136.821125 103.695116 
L 136.368797 103.604381 
L 135.787724 103.539472 
L 135.124979 103.505647 
L 134.434256 103.505647 
L 133.771511 103.539472 
L 133.190438 103.604381 
L 132.73811 103.695116 
L 132.451173 103.804326 
L 132.352873 103.923164 
z
" clip-path="url(#p03ad721b1b)" style="fill: #f03f37; stroke: #262626"/>
    <path d="M 142.868765 96.324071 
L 142.837984 95.619055 
L 142.745873 94.919405 
L 142.593134 94.230445 
L 142.38093 93.557419 
L 142.110875 92.905449 
L 141.785025 92.279497 
L 141.40586 91.684326 
L 140.976264 91.124467 
L 140.499509 90.604179 
L 139.979222 90.127424 
L 139.419362 89.697829 
L 138.824191 89.318663 
L 138.198239 88.992813 
L 137.546269 88.722758 
L 136.873243 88.510554 
L 136.184283 88.357815 
L 135.484633 88.265704 
L 134.779617 88.234923 
L 134.074602 88.265704 
L 133.374952 88.357815 
L 132.685992 88.510554 
L 132.012966 88.722758 
L 131.360996 88.992813 
L 130.735044 89.318663 
L 130.139873 89.697829 
L 129.580013 90.127424 
L 129.059726 90.604179 
L 128.582971 91.124467 
L 128.153375 91.684326 
L 127.77421 92.279497 
L 127.44836 92.905449 
L 127.178305 93.557419 
L 126.966101 94.230445 
L 126.813362 94.919405 
L 126.721251 95.619055 
L 126.69047 96.324071 
L 126.721251 97.029086 
L 126.813362 97.728736 
L 126.966101 98.417696 
L 127.178305 99.090722 
L 127.44836 99.742692 
L 127.77421 100.368645 
L 128.153375 100.963815 
L 128.582971 101.523675 
L 129.059726 102.043962 
L 129.580013 102.520718 
L 130.139873 102.950313 
L 130.735044 103.329478 
L 131.360996 103.655328 
L 132.012966 103.925383 
L 132.685992 104.137588 
L 133.374952 104.290326 
L 134.074602 104.382437 
L 134.779617 104.413219 
L 135.484633 104.382437 
L 136.184283 104.290326 
L 136.873243 104.137588 
L 137.546269 103.925383 
L 138.198239 103.655328 
L 138.824191 103.329478 
L 139.419362 102.950313 
L 139.979222 102.520718 
L 140.499509 102.043962 
L 140.976264 101.523675 
L 141.40586 100.963815 
L 141.785025 100.368645 
L 142.110875 99.742692 
L 142.38093 99.090722 
L 142.593134 98.417696 
L 142.745873 97.728736 
L 142.837984 97.029086 
L 142.868765 96.324071 
z
" clip-path="url(#p03ad721b1b)" style="fill: #f03f37; stroke: #262626"/>
    <path d="M 125.238643 137.968063 
L 125.367191 137.865235 
L 125.478495 137.574255 
L 125.563537 137.118698 
L 125.615427 136.53547 
L 125.629963 135.87182 
L 125.605965 135.181513 
L 125.545379 134.520475 
L 125.453112 133.942258 
L 125.336641 133.493706 
L 125.205399 133.211158 
L 125.07002 133.117504 
L 114.306827 133.491671 
L 114.47545 138.34223 
z
" clip-path="url(#p03ad721b1b)" style="fill: #477b9d; stroke: #262626"/>
    <path d="M 114.47545 138.34223 
L 114.306827 133.491671 
L 103.543633 133.865838 
L 103.415087 133.968666 
L 103.303784 134.259646 
L 103.218743 134.715203 
L 103.166853 135.298432 
L 103.152318 135.962082 
L 103.176316 136.652388 
L 103.236902 137.313426 
L 103.329168 137.891644 
L 103.445638 138.340196 
L 103.576879 138.622743 
L 103.712256 138.716397 
z
" clip-path="url(#p03ad721b1b)" style="fill: #f03f37; stroke: #262626"/>
    <path d="M 104.150387 136.554163 
L 104.119605 135.849147 
L 104.027495 135.149497 
L 103.874756 134.460537 
L 103.662552 133.787511 
L 103.392497 133.135541 
L 103.066647 132.509589 
L 102.687481 131.914418 
L 102.257886 131.354559 
L 101.78113 130.834272 
L 101.260843 130.357516 
L 100.700984 129.927921 
L 100.105813 129.548755 
L 99.479861 129.222905 
L 98.827891 128.95285 
L 98.154865 128.740646 
L 97.465905 128.587907 
L 96.766255 128.495797 
L 96.061239 128.465015 
L 95.356223 128.495797 
L 94.656573 128.587907 
L 93.967614 128.740646 
L 93.294588 128.95285 
L 92.642617 129.222905 
L 92.016665 129.548755 
L 91.421494 129.927921 
L 90.861635 130.357516 
L 90.341348 130.834272 
L 89.864592 131.354559 
L 89.434997 131.914418 
L 89.055831 132.509589 
L 88.729981 133.135541 
L 88.459926 133.787511 
L 88.247722 134.460537 
L 88.094983 135.149497 
L 88.002873 135.849147 
L 87.972091 136.554163 
L 88.002873 137.259179 
L 88.094983 137.958829 
L 88.247722 138.647789 
L 88.459926 139.320815 
L 88.729981 139.972785 
L 89.055831 140.598737 
L 89.434997 141.193908 
L 89.864592 141.753767 
L 90.341348 142.274054 
L 90.861635 142.75081 
L 91.421494 143.180405 
L 92.016665 143.559571 
L 92.642617 143.885421 
L 93.294588 144.155476 
L 93.967614 144.36768 
L 94.656573 144.520419 
L 95.356223 144.612529 
L 96.061239 144.643311 
L 96.766255 144.612529 
L 97.465905 144.520419 
L 98.154865 144.36768 
L 98.827891 144.155476 
L 99.479861 143.885421 
L 100.105813 143.559571 
L 100.700984 143.180405 
L 101.260843 142.75081 
L 101.78113 142.274054 
L 102.257886 141.753767 
L 102.687481 141.193908 
L 103.066647 140.598737 
L 103.392497 139.972785 
L 103.662552 139.320815 
L 103.874756 138.647789 
L 104.027495 137.958829 
L 104.119605 137.259179 
L 104.150387 136.554163 
z
" clip-path="url(#p03ad721b1b)" style="fill: #f03f37; stroke: #262626"/>
    <path d="M 134.61694 88.358057 
L 134.61694 67.397484 
L 134.942295 67.397484 
L 134.942295 88.358057 
z
" clip-path="url(#p03ad721b1b)" style="fill: #4c4c4c"/>
    <path d="M 88.134829 136.992489 
L 67.26359 137.718048 
L 67.252287 137.392888 
L 88.123525 136.66733 
z
" clip-path="url(#p03ad721b1b)" style="fill: #4c4c4c"/>
    <path d="M 136.869345 136.808805 
L 137.674053 137.508167 
L 137.460628 137.75374 
L 136.655921 137.054378 
z
" clip-path="url(#p03ad721b1b)" style="fill: #4c4c4c"/>
    <path d="M 137.206362 67.106458 
L 137.108062 66.987622 
L 136.821125 66.878413 
L 136.368797 66.787679 
L 135.787724 66.72277 
L 135.124979 66.688946 
L 134.434256 66.688946 
L 133.771511 66.72277 
L 133.190438 66.787679 
L 132.73811 66.878413 
L 132.451173 66.987622 
L 132.352873 67.106458 
L 132.352873 77.915718 
L 137.206362 77.915718 
z
" clip-path="url(#p03ad721b1b)" style="fill: #477b9d; stroke: #262626"/>
    <path d="M 137.206362 77.915718 
L 132.352873 77.915718 
L 132.352873 88.724977 
L 132.451173 88.843815 
L 132.73811 88.953025 
L 133.190438 89.04376 
L 133.771511 89.10867 
L 134.434256 89.142494 
L 135.124979 89.142494 
L 135.787724 89.10867 
L 136.368797 89.04376 
L 136.821125 88.953025 
L 137.108062 88.843815 
L 137.206362 88.724977 
z
" clip-path="url(#p03ad721b1b)" style="fill: #f03f37; stroke: #262626"/>
    <path d="M 144.891052 57.439967 
L 144.852575 56.558697 
L 144.737437 55.684134 
L 144.546514 54.822935 
L 144.281258 53.981652 
L 143.94369 53.16669 
L 143.536377 52.384249 
L 143.06242 51.640286 
L 142.525426 50.940462 
L 141.929482 50.290102 
L 141.279123 49.694158 
L 140.579298 49.157164 
L 139.835335 48.683207 
L 139.052895 48.275894 
L 138.237932 47.938326 
L 137.396649 47.67307 
L 136.53545 47.482147 
L 135.660887 47.367009 
L 134.779617 47.328532 
L 133.898348 47.367009 
L 133.023785 47.482147 
L 132.162586 47.67307 
L 131.321303 47.938326 
L 130.50634 48.275894 
L 129.7239 48.683207 
L 128.979937 49.157164 
L 128.280112 49.694158 
L 127.629753 50.290102 
L 127.033809 50.940462 
L 126.496815 51.640286 
L 126.022858 52.384249 
L 125.615545 53.16669 
L 125.277977 53.981652 
L 125.012721 54.822935 
L 124.821798 55.684134 
L 124.70666 56.558697 
L 124.668183 57.439967 
L 124.70666 58.321236 
L 124.821798 59.195799 
L 125.012721 60.056999 
L 125.277977 60.898281 
L 125.615545 61.713244 
L 126.022858 62.495684 
L 126.496815 63.239647 
L 127.033809 63.939472 
L 127.629753 64.589831 
L 128.280112 65.185775 
L 128.979937 65.722769 
L 129.7239 66.196726 
L 130.50634 66.604039 
L 131.321303 66.941607 
L 132.162586 67.206863 
L 133.023785 67.397786 
L 133.898348 67.512925 
L 134.779617 67.551402 
L 135.660887 67.512925 
L 136.53545 67.397786 
L 137.396649 67.206863 
L 138.237932 66.941607 
L 139.052895 66.604039 
L 139.835335 66.196726 
L 140.579298 65.722769 
L 141.279123 65.185775 
L 141.929482 64.589831 
L 142.525426 63.939472 
L 143.06242 63.239647 
L 143.536377 62.495684 
L 143.94369 61.713244 
L 144.281258 60.898281 
L 144.546514 60.056999 
L 144.737437 59.195799 
L 144.852575 58.321236 
L 144.891052 57.439967 
z
" clip-path="url(#p03ad721b1b)" style="fill: #477b9d; stroke: #262626"/>
    <path d="M 137.674053 137.508167 
L 137.9838 137.777365 
L 137.770375 138.022938 
L 137.460628 137.75374 
z
" clip-path="url(#p03ad721b1b)" style="fill: #4c4c4c"/>
    <path d="M 66.883842 135.140263 
L 66.755297 135.243091 
L 66.643995 135.53407 
L 66.558956 135.989627 
L 66.507066 136.572856 
L 66.492532 137.236506 
L 66.516529 137.926812 
L 66.577115 138.587851 
L 66.66938 139.166068 
L 66.78585 139.61462 
L 66.917089 139.897168 
L 67.052465 139.990821 
L 77.815655 139.616655 
L 77.647032 134.766096 
z
" clip-path="url(#p03ad721b1b)" style="fill: #477b9d; stroke: #262626"/>
    <path d="M 77.647032 134.766096 
L 77.815655 139.616655 
L 88.578845 139.242488 
L 88.707392 139.13966 
L 88.818694 138.84868 
L 88.903735 138.393123 
L 88.955625 137.809894 
L 88.97016 137.146244 
L 88.946162 136.455938 
L 88.885576 135.794899 
L 88.793311 135.216682 
L 88.67684 134.76813 
L 88.545599 134.485583 
L 88.410222 134.391929 
z
" clip-path="url(#p03ad721b1b)" style="fill: #f03f37; stroke: #262626"/>
    <path d="M 67.454296 137.900151 
L 67.415819 137.018882 
L 67.30068 136.144319 
L 67.109757 135.283119 
L 66.844501 134.441837 
L 66.506933 133.626874 
L 66.09962 132.844434 
L 65.625663 132.10047 
L 65.088669 131.400646 
L 64.492725 130.750287 
L 63.842366 130.154343 
L 63.142541 129.617349 
L 62.398578 129.143392 
L 61.616138 128.736079 
L 60.801175 128.39851 
L 59.959893 128.133255 
L 59.098693 127.942332 
L 58.22413 127.827193 
L 57.342861 127.788716 
L 56.461591 127.827193 
L 55.587028 127.942332 
L 54.725829 128.133255 
L 53.884546 128.39851 
L 53.069584 128.736079 
L 52.287143 129.143392 
L 51.54318 129.617349 
L 50.843356 130.154343 
L 50.192996 130.750287 
L 49.597052 131.400646 
L 49.060058 132.10047 
L 48.586101 132.844434 
L 48.178788 133.626874 
L 47.84122 134.441837 
L 47.575965 135.283119 
L 47.385041 136.144319 
L 47.269903 137.018882 
L 47.231426 137.900151 
L 47.269903 138.781421 
L 47.385041 139.655983 
L 47.575965 140.517183 
L 47.84122 141.358466 
L 48.178788 142.173428 
L 48.586101 142.955869 
L 49.060058 143.699832 
L 49.597052 144.399656 
L 50.192996 145.050015 
L 50.843356 145.64596 
L 51.54318 146.182954 
L 52.287143 146.656911 
L 53.069584 147.064223 
L 53.884546 147.401792 
L 54.725829 147.667047 
L 55.587028 147.857971 
L 56.461591 147.973109 
L 57.342861 148.011586 
L 58.22413 147.973109 
L 59.098693 147.857971 
L 59.959893 147.667047 
L 60.801175 147.401792 
L 61.616138 147.064223 
L 62.398578 146.656911 
L 63.142541 146.182954 
L 63.842366 145.64596 
L 64.492725 145.050015 
L 65.088669 144.399656 
L 65.625663 143.699832 
L 66.09962 142.955869 
L 66.506933 142.173428 
L 66.844501 141.358466 
L 67.109757 140.517183 
L 67.30068 139.655983 
L 67.415819 138.781421 
L 67.454296 137.900151 
z
" clip-path="url(#p03ad721b1b)" style="fill: #477b9d; stroke: #262626"/>
    <path d="M 124.870192 57.94723 
L 103.998953 58.672788 
L 103.987649 58.347629 
L 124.858888 57.62207 
z
" clip-path="url(#p03ad721b1b)" style="fill: #4c4c4c"/>
    <path d="M 137.9838 137.777365 
L 139.222788 138.854155 
L 139.009363 139.099728 
L 137.770375 138.022938 
z
" clip-path="url(#p03ad721b1b)" style="fill: #4c4c4c"/>
    <path d="M 57.180183 127.942634 
L 57.180183 106.982061 
L 57.505539 106.982061 
L 57.505539 127.942634 
z
" clip-path="url(#p03ad721b1b)" style="fill: #4c4c4c"/>
    <path d="M 125.238643 60.199855 
L 125.367192 60.097027 
L 125.478495 59.806047 
L 125.563537 59.35049 
L 125.615428 58.767261 
L 125.629963 58.103611 
L 125.605966 57.413305 
L 125.545379 56.752267 
L 125.453113 56.174049 
L 125.336641 55.725498 
L 125.205399 55.44295 
L 125.070021 55.349296 
L 114.306827 55.723463 
L 114.47545 60.574022 
z
" clip-path="url(#p03ad721b1b)" style="fill: #477b9d; stroke: #262626"/>
    <path d="M 114.47545 60.574022 
L 114.306827 55.723463 
L 103.543633 56.09763 
L 103.415086 56.200458 
L 103.303784 56.491438 
L 103.218743 56.946995 
L 103.166853 57.530223 
L 103.152318 58.193873 
L 103.176315 58.88418 
L 103.236901 59.545218 
L 103.329167 60.123435 
L 103.445638 60.571987 
L 103.576878 60.854535 
L 103.712256 60.948189 
z
" clip-path="url(#p03ad721b1b)" style="fill: #f03f37; stroke: #262626"/>
    <path d="M 104.150387 58.785955 
L 104.119605 58.080939 
L 104.027495 57.381289 
L 103.874756 56.692329 
L 103.662552 56.019303 
L 103.392497 55.367333 
L 103.066647 54.741381 
L 102.687481 54.14621 
L 102.257886 53.586351 
L 101.78113 53.066063 
L 101.260843 52.589308 
L 100.700984 52.159713 
L 100.105813 51.780547 
L 99.479861 51.454697 
L 98.827891 51.184642 
L 98.154865 50.972438 
L 97.465905 50.819699 
L 96.766255 50.727589 
L 96.061239 50.696807 
L 95.356223 50.727589 
L 94.656573 50.819699 
L 93.967614 50.972438 
L 93.294588 51.184642 
L 92.642617 51.454697 
L 92.016665 51.780547 
L 91.421494 52.159713 
L 90.861635 52.589308 
L 90.341348 53.066063 
L 89.864592 53.586351 
L 89.434997 54.14621 
L 89.055831 54.741381 
L 88.729981 55.367333 
L 88.459926 56.019303 
L 88.247722 56.692329 
L 88.094983 57.381289 
L 88.002873 58.080939 
L 87.972091 58.785955 
L 88.002873 59.490971 
L 88.094983 60.190621 
L 88.247722 60.87958 
L 88.459926 61.552606 
L 88.729981 62.204576 
L 89.055831 62.830529 
L 89.434997 63.4257 
L 89.864592 63.985559 
L 90.341348 64.505846 
L 90.861635 64.982602 
L 91.421494 65.412197 
L 92.016665 65.791362 
L 92.642617 66.117213 
L 93.294588 66.387267 
L 93.967614 66.599472 
L 94.656573 66.75221 
L 95.356223 66.844321 
L 96.061239 66.875103 
L 96.766255 66.844321 
L 97.465905 66.75221 
L 98.154865 66.599472 
L 98.827891 66.387267 
L 99.479861 66.117213 
L 100.105813 65.791362 
L 100.700984 65.412197 
L 101.260843 64.982602 
L 101.78113 64.505846 
L 102.257886 63.985559 
L 102.687481 63.4257 
L 103.066647 62.830529 
L 103.392497 62.204576 
L 103.662552 61.552606 
L 103.874756 60.87958 
L 104.027495 60.190621 
L 104.119605 59.490971 
L 104.150387 58.785955 
z
" clip-path="url(#p03ad721b1b)" style="fill: #f03f37; stroke: #262626"/>
    <path d="M 139.222788 138.854155 
L 139.377662 138.988754 
L 139.164237 139.234327 
L 139.009363 139.099728 
z
" clip-path="url(#p03ad721b1b)" style="fill: #4c4c4c"/>
    <path d="M 54.916116 128.233666 
L 55.014416 128.352506 
L 55.301353 128.461717 
L 55.753681 128.552453 
L 56.334755 128.617363 
L 56.997499 128.651188 
L 57.688222 128.651188 
L 58.350967 128.617363 
L 58.93204 128.552453 
L 59.384368 128.461717 
L 59.671305 128.352506 
L 59.769605 128.233666 
L 59.769605 117.424403 
L 54.916116 117.424403 
z
" clip-path="url(#p03ad721b1b)" style="fill: #477b9d; stroke: #262626"/>
    <path d="M 54.916116 117.424403 
L 59.769605 117.424403 
L 59.769605 106.61514 
L 59.671305 106.496302 
L 59.384368 106.387092 
L 58.93204 106.296357 
L 58.350967 106.231448 
L 57.688222 106.197623 
L 56.997499 106.197623 
L 56.334755 106.231448 
L 55.753681 106.296357 
L 55.301353 106.387092 
L 55.014416 106.496302 
L 54.916116 106.61514 
z
" clip-path="url(#p03ad721b1b)" style="fill: #f03f37; stroke: #262626"/>
    <path d="M 65.432009 99.016047 
L 65.401227 98.311031 
L 65.309116 97.611381 
L 65.156378 96.922422 
L 64.944173 96.249396 
L 64.674118 95.597425 
L 64.348268 94.971473 
L 63.969103 94.376302 
L 63.539508 93.816443 
L 63.062752 93.296156 
L 62.542465 92.8194 
L 61.982605 92.389805 
L 61.387435 92.01064 
L 60.761482 91.684789 
L 60.109512 91.414734 
L 59.436486 91.20253 
L 58.747526 91.049792 
L 58.047876 90.957681 
L 57.342861 90.926899 
L 56.637845 90.957681 
L 55.938195 91.049792 
L 55.249235 91.20253 
L 54.576209 91.414734 
L 53.924239 91.684789 
L 53.298287 92.01064 
L 52.703116 92.389805 
L 52.143257 92.8194 
L 51.622969 93.296156 
L 51.146214 93.816443 
L 50.716619 94.376302 
L 50.337453 94.971473 
L 50.011603 95.597425 
L 49.741548 96.249396 
L 49.529344 96.922422 
L 49.376605 97.611381 
L 49.284494 98.311031 
L 49.253713 99.016047 
L 49.284494 99.721063 
L 49.376605 100.420713 
L 49.529344 101.109673 
L 49.741548 101.782699 
L 50.011603 102.434669 
L 50.337453 103.060621 
L 50.716619 103.655792 
L 51.146214 104.215651 
L 51.622969 104.735938 
L 52.143257 105.212694 
L 52.703116 105.642289 
L 53.298287 106.021455 
L 53.924239 106.347305 
L 54.576209 106.61736 
L 55.249235 106.829564 
L 55.938195 106.982303 
L 56.637845 107.074413 
L 57.342861 107.105195 
L 58.047876 107.074413 
L 58.747526 106.982303 
L 59.436486 106.829564 
L 60.109512 106.61736 
L 60.761482 106.347305 
L 61.387435 106.021455 
L 61.982605 105.642289 
L 62.542465 105.212694 
L 63.062752 104.735938 
L 63.539508 104.215651 
L 63.969103 103.655792 
L 64.348268 103.060621 
L 64.674118 102.434669 
L 64.944173 101.782699 
L 65.156378 101.109673 
L 65.309116 100.420713 
L 65.401227 99.721063 
L 65.432009 99.016047 
z
" clip-path="url(#p03ad721b1b)" style="fill: #f03f37; stroke: #262626"/>
    <path d="M 88.134829 59.224281 
L 67.26359 59.949839 
L 67.252287 59.62468 
L 88.123525 58.899122 
z
" clip-path="url(#p03ad721b1b)" style="fill: #4c4c4c"/>
    <path d="M 57.180183 91.050033 
L 57.180183 70.08946 
L 57.505539 70.08946 
L 57.505539 91.050033 
z
" clip-path="url(#p03ad721b1b)" style="fill: #4c4c4c"/>
    <path d="M 139.377662 138.988754 
L 140.771523 140.200143 
L 140.558099 140.445717 
L 139.164237 139.234327 
z
" clip-path="url(#p03ad721b1b)" style="fill: #4c4c4c"/>
    <path d="M 136.869345 59.040596 
L 137.9838 60.009157 
L 137.770375 60.25473 
L 136.655921 59.28617 
z
" clip-path="url(#p03ad721b1b)" style="fill: #4c4c4c"/>
    <path d="M 59.432589 139.500781 
L 60.237296 140.200143 
L 60.023872 140.445717 
L 59.219164 139.746354 
z
" clip-path="url(#p03ad721b1b)" style="fill: #4c4c4c"/>
    <path d="M 66.883842 57.372054 
L 66.755296 57.474883 
L 66.643995 57.765862 
L 66.558955 58.221419 
L 66.507066 58.804648 
L 66.492531 59.468298 
L 66.516529 60.158604 
L 66.577114 60.819643 
L 66.669379 61.39786 
L 66.785849 61.846412 
L 66.917089 62.12896 
L 67.052465 62.222613 
L 77.815655 61.848446 
L 77.647032 56.997888 
z
" clip-path="url(#p03ad721b1b)" style="fill: #477b9d; stroke: #262626"/>
    <path d="M 77.647032 56.997888 
L 77.815655 61.848446 
L 88.578845 61.47428 
L 88.707392 61.371451 
L 88.818694 61.080472 
L 88.903735 60.624915 
L 88.955625 60.041686 
L 88.97016 59.378036 
L 88.946163 58.68773 
L 88.885577 58.026691 
L 88.793311 57.448474 
L 88.67684 56.999922 
L 88.5456 56.717374 
L 88.410222 56.623721 
z
" clip-path="url(#p03ad721b1b)" style="fill: #f03f37; stroke: #262626"/>
    <path d="M 59.769605 69.798434 
L 59.671305 69.679598 
L 59.384368 69.570389 
L 58.93204 69.479655 
L 58.350967 69.414746 
L 57.688222 69.380922 
L 56.997499 69.380922 
L 56.334755 69.414746 
L 55.753681 69.479655 
L 55.301353 69.570389 
L 55.014416 69.679598 
L 54.916116 69.798434 
L 54.916116 80.607694 
L 59.769605 80.607694 
z
" clip-path="url(#p03ad721b1b)" style="fill: #477b9d; stroke: #262626"/>
    <path d="M 59.769605 80.607694 
L 54.916116 80.607694 
L 54.916116 91.416954 
L 55.014416 91.535792 
L 55.301353 91.645002 
L 55.753681 91.735737 
L 56.334755 91.800646 
L 56.997499 91.834471 
L 57.688222 91.834471 
L 58.350967 91.800646 
L 58.93204 91.735737 
L 59.384368 91.645002 
L 59.671305 91.535792 
L 59.769605 91.416954 
z
" clip-path="url(#p03ad721b1b)" style="fill: #f03f37; stroke: #262626"/>
    <path d="M 67.454296 60.131943 
L 67.415819 59.250673 
L 67.30068 58.376111 
L 67.109757 57.514911 
L 66.844501 56.673629 
L 66.506933 55.858666 
L 66.09962 55.076226 
L 65.625663 54.332262 
L 65.088669 53.632438 
L 64.492725 52.982079 
L 63.842366 52.386135 
L 63.142541 51.84914 
L 62.398578 51.375184 
L 61.616138 50.967871 
L 60.801175 50.630302 
L 59.959893 50.365047 
L 59.098693 50.174124 
L 58.22413 50.058985 
L 57.342861 50.020508 
L 56.461591 50.058985 
L 55.587028 50.174124 
L 54.725829 50.365047 
L 53.884546 50.630302 
L 53.069584 50.967871 
L 52.287143 51.375184 
L 51.54318 51.84914 
L 50.843356 52.386135 
L 50.192996 52.982079 
L 49.597052 53.632438 
L 49.060058 54.332262 
L 48.586101 55.076226 
L 48.178788 55.858666 
L 47.84122 56.673629 
L 47.575965 57.514911 
L 47.385041 58.376111 
L 47.269903 59.250673 
L 47.231426 60.131943 
L 47.269903 61.013213 
L 47.385041 61.887775 
L 47.575965 62.748975 
L 47.84122 63.590257 
L 48.178788 64.40522 
L 48.586101 65.187661 
L 49.060058 65.931624 
L 49.597052 66.631448 
L 50.192996 67.281807 
L 50.843356 67.877752 
L 51.54318 68.414746 
L 52.287143 68.888703 
L 53.069584 69.296015 
L 53.884546 69.633584 
L 54.725829 69.898839 
L 55.587028 70.089763 
L 56.461591 70.204901 
L 57.342861 70.243378 
L 58.22413 70.204901 
L 59.098693 70.089763 
L 59.959893 69.898839 
L 60.801175 69.633584 
L 61.616138 69.296015 
L 62.398578 68.888703 
L 63.142541 68.414746 
L 63.842366 67.877752 
L 64.492725 67.281807 
L 65.088669 66.631448 
L 65.625663 65.931624 
L 66.09962 65.187661 
L 66.506933 64.40522 
L 66.844501 63.590257 
L 67.109757 62.748975 
L 67.30068 61.887775 
L 67.415819 61.013213 
L 67.454296 60.131943 
z
" clip-path="url(#p03ad721b1b)" style="fill: #477b9d; stroke: #262626"/>
    <path d="M 140.771523 140.200143 
L 141.043593 140.436596 
L 140.830168 140.682169 
L 140.558099 140.445717 
z
" clip-path="url(#p03ad721b1b)" style="fill: #4c4c4c"/>
    <path d="M 137.9838 60.009157 
L 139.842282 61.624342 
L 139.628858 61.869915 
L 137.770375 60.25473 
z
" clip-path="url(#p03ad721b1b)" style="fill: #4c4c4c"/>
    <path d="M 60.237296 140.200143 
L 62.095778 141.815329 
L 61.882354 142.060902 
L 60.023872 140.445717 
z
" clip-path="url(#p03ad721b1b)" style="fill: #4c4c4c"/>
    <path d="M 138.296572 135.049567 
L 137.733773 134.690682 
L 137.087605 134.509262 
L 136.410415 134.520005 
L 135.757065 134.722041 
L 135.180487 135.099002 
L 134.72739 135.620348 
L 134.434483 136.243845 
L 134.325494 136.918978 
L 134.409254 137.591054 
L 134.678976 138.205625 
L 135.11281 138.712901 
L 137.265433 140.583721 
L 140.449195 136.920388 
z
" clip-path="url(#p03ad721b1b)" style="fill: #477b9d; stroke: #262626"/>
    <path d="M 140.449195 136.920388 
L 137.265433 140.583721 
L 139.418056 142.454542 
L 139.980855 142.813427 
L 140.627023 142.994847 
L 141.304213 142.984104 
L 141.957562 142.782068 
L 142.534141 142.405107 
L 142.987237 141.883761 
L 143.280145 141.260264 
L 143.389134 140.585131 
L 143.305374 139.913055 
L 143.035652 139.298485 
L 142.601818 138.791208 
z
" clip-path="url(#p03ad721b1b)" style="fill: #f03f37; stroke: #262626"/>
    <path d="M 150.612441 141.938116 
L 150.581659 141.2331 
L 150.489549 140.53345 
L 150.33681 139.84449 
L 150.124606 139.171464 
L 149.854551 138.519494 
L 149.528701 137.893542 
L 149.149535 137.298371 
L 148.71994 136.738512 
L 148.243185 136.218224 
L 147.722897 135.741469 
L 147.163038 135.311874 
L 146.567867 134.932708 
L 145.941915 134.606858 
L 145.289945 134.336803 
L 144.616919 134.124599 
L 143.927959 133.97186 
L 143.228309 133.87975 
L 142.523293 133.848968 
L 141.818277 133.87975 
L 141.118627 133.97186 
L 140.429668 134.124599 
L 139.756642 134.336803 
L 139.104672 134.606858 
L 138.478719 134.932708 
L 137.883549 135.311874 
L 137.323689 135.741469 
L 136.803402 136.218224 
L 136.326646 136.738512 
L 135.897051 137.298371 
L 135.517886 137.893542 
L 135.192035 138.519494 
L 134.921981 139.171464 
L 134.709776 139.84449 
L 134.557038 140.53345 
L 134.464927 141.2331 
L 134.434145 141.938116 
L 134.464927 142.643132 
L 134.557038 143.342782 
L 134.709776 144.031741 
L 134.921981 144.704767 
L 135.192035 145.356737 
L 135.517886 145.98269 
L 135.897051 146.57786 
L 136.326646 147.13772 
L 136.803402 147.658007 
L 137.323689 148.134763 
L 137.883549 148.564358 
L 138.478719 148.943523 
L 139.104672 149.269374 
L 139.756642 149.539428 
L 140.429668 149.751633 
L 141.118627 149.904371 
L 141.818277 149.996482 
L 142.523293 150.027264 
L 143.228309 149.996482 
L 143.927959 149.904371 
L 144.616919 149.751633 
L 145.289945 149.539428 
L 145.941915 149.269374 
L 146.567867 148.943523 
L 147.163038 148.564358 
L 147.722897 148.134763 
L 148.243185 147.658007 
L 148.71994 147.13772 
L 149.149535 146.57786 
L 149.528701 145.98269 
L 149.854551 145.356737 
L 150.124606 144.704767 
L 150.33681 144.031741 
L 150.489549 143.342782 
L 150.581659 142.643132 
L 150.612441 141.938116 
z
" clip-path="url(#p03ad721b1b)" style="fill: #f03f37; stroke: #262626"/>
    <path d="M 139.842282 61.624342 
L 141.043593 62.668388 
L 140.830168 62.913961 
L 139.628858 61.869915 
z
" clip-path="url(#p03ad721b1b)" style="fill: #4c4c4c"/>
    <path d="M 62.095778 141.815329 
L 63.606836 143.128573 
L 63.393412 143.374146 
L 61.882354 142.060902 
z
" clip-path="url(#p03ad721b1b)" style="fill: #4c4c4c"/>
    <path d="M 59.432589 61.732573 
L 62.095778 64.047121 
L 61.882354 64.292694 
L 59.219164 61.978146 
z
" clip-path="url(#p03ad721b1b)" style="fill: #4c4c4c"/>
    <path d="M 144.216418 143.194062 
L 145.417729 144.238108 
L 145.204304 144.483681 
L 144.002993 143.439636 
z
" clip-path="url(#p03ad721b1b)" style="fill: #4c4c4c"/>
    <path d="M 138.296554 57.281343 
L 137.733755 56.922458 
L 137.087586 56.741037 
L 136.410396 56.75178 
L 135.757046 56.953816 
L 135.180467 57.330777 
L 134.727371 57.852124 
L 134.434464 58.47562 
L 134.325475 59.150754 
L 134.409235 59.82283 
L 134.678958 60.437401 
L 135.112792 60.944677 
L 137.265431 62.815512 
L 140.449193 59.152178 
z
" clip-path="url(#p03ad721b1b)" style="fill: #477b9d; stroke: #262626"/>
    <path d="M 140.449193 59.152178 
L 137.265431 62.815512 
L 139.41807 64.686346 
L 139.980869 65.045232 
L 140.627038 65.226652 
L 141.304228 65.215909 
L 141.957578 65.013873 
L 142.534156 64.636913 
L 142.987253 64.115566 
L 143.28016 63.49207 
L 143.389149 62.816936 
L 143.305389 62.14486 
L 143.035666 61.530289 
L 142.601832 61.023013 
z
" clip-path="url(#p03ad721b1b)" style="fill: #f03f37; stroke: #262626"/>
    <path d="M 150.612441 64.169908 
L 150.581659 63.464892 
L 150.489549 62.765242 
L 150.33681 62.076282 
L 150.124606 61.403256 
L 149.854551 60.751286 
L 149.528701 60.125334 
L 149.149535 59.530163 
L 148.71994 58.970304 
L 148.243185 58.450016 
L 147.722897 57.973261 
L 147.163038 57.543666 
L 146.567867 57.1645 
L 145.941915 56.83865 
L 145.289945 56.568595 
L 144.616919 56.356391 
L 143.927959 56.203652 
L 143.228309 56.111541 
L 142.523293 56.08076 
L 141.818277 56.111541 
L 141.118627 56.203652 
L 140.429668 56.356391 
L 139.756642 56.568595 
L 139.104672 56.83865 
L 138.478719 57.1645 
L 137.883549 57.543666 
L 137.323689 57.973261 
L 136.803402 58.450016 
L 136.326646 58.970304 
L 135.897051 59.530163 
L 135.517886 60.125334 
L 135.192035 60.751286 
L 134.921981 61.403256 
L 134.709776 62.076282 
L 134.557038 62.765242 
L 134.464927 63.464892 
L 134.434145 64.169908 
L 134.464927 64.874923 
L 134.557038 65.574574 
L 134.709776 66.263533 
L 134.921981 66.936559 
L 135.192035 67.588529 
L 135.517886 68.214482 
L 135.897051 68.809652 
L 136.326646 69.369512 
L 136.803402 69.889799 
L 137.323689 70.366555 
L 137.883549 70.79615 
L 138.478719 71.175315 
L 139.104672 71.501165 
L 139.756642 71.77122 
L 140.429668 71.983425 
L 141.118627 72.136163 
L 141.818277 72.228274 
L 142.523293 72.259056 
L 143.228309 72.228274 
L 143.927959 72.136163 
L 144.616919 71.983425 
L 145.289945 71.77122 
L 145.941915 71.501165 
L 146.567867 71.175315 
L 147.163038 70.79615 
L 147.722897 70.366555 
L 148.243185 69.889799 
L 148.71994 69.369512 
L 149.149535 68.809652 
L 149.528701 68.214482 
L 149.854551 67.588529 
L 150.124606 66.936559 
L 150.33681 66.263533 
L 150.489549 65.574574 
L 150.581659 64.874923 
L 150.612441 64.169908 
z
" clip-path="url(#p03ad721b1b)" style="fill: #f03f37; stroke: #262626"/>
    <path d="M 62.095778 64.047121 
L 62.250652 64.18172 
L 62.037227 64.427293 
L 61.882354 64.292694 
z
" clip-path="url(#p03ad721b1b)" style="fill: #4c4c4c"/>
    <path d="M 145.417729 144.238108 
L 145.572602 144.372707 
L 145.359178 144.61828 
L 145.204304 144.483681 
z
" clip-path="url(#p03ad721b1b)" style="fill: #4c4c4c"/>
    <path d="M 117.960924 104.4 
L 117.907056 103.166223 
L 117.745862 101.941835 
L 117.478569 100.736155 
L 117.107212 99.55836 
L 116.634616 98.417412 
L 116.064378 97.321996 
L 115.400838 96.280447 
L 114.649047 95.300693 
L 113.814725 94.39019 
L 112.904222 93.555868 
L 111.924468 92.804076 
L 110.882919 92.140537 
L 109.787503 91.570299 
L 108.646555 91.097703 
L 107.468759 90.726345 
L 106.26308 90.459053 
L 105.038692 90.297859 
L 103.804915 90.243991 
L 102.571137 90.297859 
L 101.34675 90.459053 
L 100.14107 90.726345 
L 98.963275 91.097703 
L 97.822327 91.570299 
L 96.72691 92.140537 
L 95.685362 92.804076 
L 94.705608 93.555868 
L 93.795105 94.39019 
L 92.960783 95.300693 
L 92.208991 96.280447 
L 91.545451 97.321996 
L 90.975214 98.417412 
L 90.502618 99.55836 
L 90.13126 100.736155 
L 89.863967 101.941835 
L 89.702774 103.166223 
L 89.648906 104.4 
L 89.702774 105.633777 
L 89.863967 106.858165 
L 90.13126 108.063845 
L 90.502618 109.24164 
L 90.975214 110.382588 
L 91.545451 111.478004 
L 92.208991 112.519553 
L 92.960783 113.499307 
L 93.795105 114.40981 
L 94.705608 115.244132 
L 95.685362 115.995924 
L 96.72691 116.659463 
L 97.822327 117.229701 
L 98.963275 117.702297 
L 100.14107 118.073655 
L 101.34675 118.340947 
L 102.571137 118.502141 
L 103.804915 118.556009 
L 105.038692 118.502141 
L 106.26308 118.340947 
L 107.468759 118.073655 
L 108.646555 117.702297 
L 109.787503 117.229701 
L 110.882919 116.659463 
L 111.924468 115.995924 
L 112.904222 115.244132 
L 113.814725 114.40981 
L 114.649047 113.499307 
L 115.400838 112.519553 
L 116.064378 111.478004 
L 116.634616 110.382588 
L 117.107212 109.24164 
L 117.478569 108.063845 
L 117.745862 106.858165 
L 117.907056 105.633777 
L 117.960924 104.4 
z
" clip-path="url(#p03ad721b1b)" style="fill: #51b04d; stroke: #262626"/>
    <path d="M 145.572602 144.372707 
L 145.727476 144.507306 
L 145.514051 144.752879 
L 145.359178 144.61828 
z
" clip-path="url(#p03ad721b1b)" style="fill: #4c4c4c"/>
    <path d="M 62.250652 64.18172 
L 62.405526 64.316319 
L 62.192101 64.561892 
L 62.037227 64.427293 
z
" clip-path="url(#p03ad721b1b)" style="fill: #4c4c4c"/>
    <path d="M 60.859795 137.741526 
L 60.296996 137.38264 
L 59.650827 137.20122 
L 58.973637 137.211963 
L 58.320287 137.413999 
L 57.743709 137.79096 
L 57.290612 138.312306 
L 56.997705 138.935803 
L 56.888716 139.610936 
L 56.972476 140.283013 
L 57.242199 140.897583 
L 57.676033 141.40486 
L 59.828674 143.275696 
L 63.012436 139.612362 
z
" clip-path="url(#p03ad721b1b)" style="fill: #477b9d; stroke: #262626"/>
    <path d="M 63.012436 139.612362 
L 59.828674 143.275696 
L 61.981315 145.146532 
L 62.544114 145.505418 
L 63.190283 145.686838 
L 63.867473 145.676095 
L 64.520823 145.474059 
L 65.097401 145.097099 
L 65.550498 144.575752 
L 65.843405 143.952256 
L 65.952394 143.277122 
L 65.868634 142.605046 
L 65.598911 141.990475 
L 65.165077 141.483199 
z
" clip-path="url(#p03ad721b1b)" style="fill: #f03f37; stroke: #262626"/>
    <path d="M 73.175684 144.630092 
L 73.144903 143.925077 
L 73.052792 143.225426 
L 72.900053 142.536467 
L 72.687849 141.863441 
L 72.417794 141.211471 
L 72.091944 140.585518 
L 71.712778 139.990348 
L 71.283183 139.430488 
L 70.806428 138.910201 
L 70.28614 138.433445 
L 69.726281 138.00385 
L 69.13111 137.624685 
L 68.505158 137.298835 
L 67.853188 137.02878 
L 67.180162 136.816575 
L 66.491202 136.663837 
L 65.791552 136.571726 
L 65.086536 136.540944 
L 64.381521 136.571726 
L 63.681871 136.663837 
L 62.992911 136.816575 
L 62.319885 137.02878 
L 61.667915 137.298835 
L 61.041962 137.624685 
L 60.446792 138.00385 
L 59.886932 138.433445 
L 59.366645 138.910201 
L 58.88989 139.430488 
L 58.460294 139.990348 
L 58.081129 140.585518 
L 57.755279 141.211471 
L 57.485224 141.863441 
L 57.273019 142.536467 
L 57.120281 143.225426 
L 57.02817 143.925077 
L 56.997388 144.630092 
L 57.02817 145.335108 
L 57.120281 146.034758 
L 57.273019 146.723718 
L 57.485224 147.396744 
L 57.755279 148.048714 
L 58.081129 148.674666 
L 58.460294 149.269837 
L 58.88989 149.829696 
L 59.366645 150.349984 
L 59.886932 150.826739 
L 60.446792 151.256334 
L 61.041962 151.6355 
L 61.667915 151.96135 
L 62.319885 152.231405 
L 62.992911 152.443609 
L 63.681871 152.596348 
L 64.381521 152.688459 
L 65.086536 152.71924 
L 65.791552 152.688459 
L 66.491202 152.596348 
L 67.180162 152.443609 
L 67.853188 152.231405 
L 68.505158 151.96135 
L 69.13111 151.6355 
L 69.726281 151.256334 
L 70.28614 150.826739 
L 70.806428 150.349984 
L 71.283183 149.829696 
L 71.712778 149.269837 
L 72.091944 148.674666 
L 72.417794 148.048714 
L 72.687849 147.396744 
L 72.900053 146.723718 
L 73.052792 146.034758 
L 73.144903 145.335108 
L 73.175684 144.630092 
z
" clip-path="url(#p03ad721b1b)" style="fill: #f03f37; stroke: #262626"/>
    <path d="M 62.405526 64.316319 
L 63.606836 65.360364 
L 63.393412 65.605938 
L 62.192101 64.561892 
z
" clip-path="url(#p03ad721b1b)" style="fill: #4c4c4c"/>
    <path d="M 145.727476 144.507306 
L 148.390666 146.821854 
L 148.177241 147.067427 
L 145.514051 144.752879 
z
" clip-path="url(#p03ad721b1b)" style="fill: #4c4c4c"/>
    <path d="M 144.216418 65.425854 
L 145.727476 66.739098 
L 145.514051 66.984671 
L 144.002993 65.671427 
z
" clip-path="url(#p03ad721b1b)" style="fill: #4c4c4c"/>
    <path d="M 66.779661 145.886039 
L 67.980972 146.930085 
L 67.767547 147.175658 
L 66.566236 146.131612 
z
" clip-path="url(#p03ad721b1b)" style="fill: #4c4c4c"/>
    <path d="M 60.859777 59.973302 
L 60.296978 59.614416 
L 59.650808 59.432996 
L 58.973618 59.443739 
L 58.320268 59.645774 
L 57.743689 60.022735 
L 57.290593 60.544082 
L 56.997685 61.167578 
L 56.888697 61.842712 
L 56.972457 62.514788 
L 57.24218 63.129359 
L 57.676015 63.636636 
L 59.828672 65.507486 
L 63.012434 61.844153 
z
" clip-path="url(#p03ad721b1b)" style="fill: #477b9d; stroke: #262626"/>
    <path d="M 63.012434 61.844153 
L 59.828672 65.507486 
L 61.981329 67.378336 
L 62.544128 67.737222 
L 63.190298 67.918643 
L 63.867488 67.9079 
L 64.520838 67.705865 
L 65.097417 67.328904 
L 65.550513 66.807557 
L 65.84342 66.184061 
L 65.952409 65.508927 
L 65.868649 64.836851 
L 65.598926 64.22228 
L 65.165091 63.715003 
z
" clip-path="url(#p03ad721b1b)" style="fill: #f03f37; stroke: #262626"/>
    <path d="M 73.175684 66.861884 
L 73.144903 66.156868 
L 73.052792 65.457218 
L 72.900053 64.768259 
L 72.687849 64.095233 
L 72.417794 63.443263 
L 72.091944 62.81731 
L 71.712778 62.22214 
L 71.283183 61.66228 
L 70.806428 61.141993 
L 70.28614 60.665237 
L 69.726281 60.235642 
L 69.13111 59.856477 
L 68.505158 59.530626 
L 67.853188 59.260572 
L 67.180162 59.048367 
L 66.491202 58.895629 
L 65.791552 58.803518 
L 65.086536 58.772736 
L 64.381521 58.803518 
L 63.681871 58.895629 
L 62.992911 59.048367 
L 62.319885 59.260572 
L 61.667915 59.530626 
L 61.041962 59.856477 
L 60.446792 60.235642 
L 59.886932 60.665237 
L 59.366645 61.141993 
L 58.88989 61.66228 
L 58.460294 62.22214 
L 58.081129 62.81731 
L 57.755279 63.443263 
L 57.485224 64.095233 
L 57.273019 64.768259 
L 57.120281 65.457218 
L 57.02817 66.156868 
L 56.997388 66.861884 
L 57.02817 67.5669 
L 57.120281 68.26655 
L 57.273019 68.95551 
L 57.485224 69.628536 
L 57.755279 70.280506 
L 58.081129 70.906458 
L 58.460294 71.501629 
L 58.88989 72.061488 
L 59.366645 72.581776 
L 59.886932 73.058531 
L 60.446792 73.488126 
L 61.041962 73.867292 
L 61.667915 74.193142 
L 62.319885 74.463197 
L 62.992911 74.675401 
L 63.681871 74.82814 
L 64.381521 74.92025 
L 65.086536 74.951032 
L 65.791552 74.92025 
L 66.491202 74.82814 
L 67.180162 74.675401 
L 67.853188 74.463197 
L 68.505158 74.193142 
L 69.13111 73.867292 
L 69.726281 73.488126 
L 70.28614 73.058531 
L 70.806428 72.581776 
L 71.283183 72.061488 
L 71.712778 71.501629 
L 72.091944 70.906458 
L 72.417794 70.280506 
L 72.687849 69.628536 
L 72.900053 68.95551 
L 73.052792 68.26655 
L 73.144903 67.5669 
L 73.175684 66.861884 
z
" clip-path="url(#p03ad721b1b)" style="fill: #f03f37; stroke: #262626"/>
    <path d="M 145.727476 66.739098 
L 147.585958 68.354283 
L 147.372533 68.599857 
L 145.514051 66.984671 
z
" clip-path="url(#p03ad721b1b)" style="fill: #4c4c4c"/>
    <path d="M 67.980972 146.930085 
L 69.839454 148.54527 
L 69.626029 148.790843 
L 67.767547 147.175658 
z
" clip-path="url(#p03ad721b1b)" style="fill: #4c4c4c"/>
    <path d="M 66.779661 68.117831 
L 67.051731 68.354283 
L 66.838306 68.599857 
L 66.566236 68.363404 
z
" clip-path="url(#p03ad721b1b)" style="fill: #4c4c4c"/>
    <path d="M 146.750008 148.826658 
L 147.312806 149.185543 
L 147.958974 149.366963 
L 148.636164 149.35622 
L 149.289513 149.154184 
L 149.866092 148.777223 
L 150.319188 148.255876 
L 150.612096 147.63238 
L 150.721085 146.957247 
L 150.637325 146.285171 
L 150.367603 145.670601 
L 149.933769 145.163324 
L 147.78115 143.292507 
L 144.597388 146.955841 
z
" clip-path="url(#p03ad721b1b)" style="fill: #477b9d; stroke: #262626"/>
    <path d="M 144.597388 146.955841 
L 147.78115 143.292507 
L 145.62853 141.42169 
L 145.065732 141.062804 
L 144.419563 140.881384 
L 143.742373 140.892128 
L 143.089024 141.094163 
L 142.512445 141.471124 
L 142.059349 141.992471 
L 141.766441 142.615967 
L 141.657453 143.291101 
L 141.741212 143.963177 
L 142.010935 144.577747 
L 142.444768 145.085023 
z
" clip-path="url(#p03ad721b1b)" style="fill: #f03f37; stroke: #262626"/>
    <path d="M 160.378404 148.668057 
L 160.339927 147.786787 
L 160.224788 146.912225 
L 160.033865 146.051025 
L 159.76861 145.209743 
L 159.431041 144.39478 
L 159.023728 143.612339 
L 158.549771 142.868376 
L 158.012777 142.168552 
L 157.416833 141.518193 
L 156.766474 140.922248 
L 156.06665 140.385254 
L 155.322686 139.911297 
L 154.540246 139.503985 
L 153.725283 139.166416 
L 152.884001 138.901161 
L 152.022801 138.710237 
L 151.148238 138.595099 
L 150.266969 138.556622 
L 149.385699 138.595099 
L 148.511137 138.710237 
L 147.649937 138.901161 
L 146.808654 139.166416 
L 145.993692 139.503985 
L 145.211251 139.911297 
L 144.467288 140.385254 
L 143.767464 140.922248 
L 143.117105 141.518193 
L 142.52116 142.168552 
L 141.984166 142.868376 
L 141.510209 143.612339 
L 141.102897 144.39478 
L 140.765328 145.209743 
L 140.500073 146.051025 
L 140.309149 146.912225 
L 140.194011 147.786787 
L 140.155534 148.668057 
L 140.194011 149.549327 
L 140.309149 150.423889 
L 140.500073 151.285089 
L 140.765328 152.126371 
L 141.102897 152.941334 
L 141.510209 153.723774 
L 141.984166 154.467738 
L 142.52116 155.167562 
L 143.117105 155.817921 
L 143.767464 156.413865 
L 144.467288 156.95086 
L 145.211251 157.424816 
L 145.993692 157.832129 
L 146.808654 158.169698 
L 147.649937 158.434953 
L 148.511137 158.625876 
L 149.385699 158.741015 
L 150.266969 158.779492 
L 151.148238 158.741015 
L 152.022801 158.625876 
L 152.884001 158.434953 
L 153.725283 158.169698 
L 154.540246 157.832129 
L 155.322686 157.424816 
L 156.06665 156.95086 
L 156.766474 156.413865 
L 157.416833 155.817921 
L 158.012777 155.167562 
L 158.549771 154.467738 
L 159.023728 153.723774 
L 159.431041 152.941334 
L 159.76861 152.126371 
L 160.033865 151.285089 
L 160.224788 150.423889 
L 160.339927 149.549327 
L 160.378404 148.668057 
z
" clip-path="url(#p03ad721b1b)" style="fill: #477b9d; stroke: #262626"/>
    <path d="M 147.585958 68.354283 
L 148.390666 69.053646 
L 148.177241 69.299219 
L 147.372533 68.599857 
z
" clip-path="url(#p03ad721b1b)" style="fill: #4c4c4c"/>
    <path d="M 69.839454 148.54527 
L 70.953909 149.51383 
L 70.740484 149.759404 
L 69.626029 148.790843 
z
" clip-path="url(#p03ad721b1b)" style="fill: #4c4c4c"/>
    <path d="M 67.051731 68.354283 
L 68.445593 69.565673 
L 68.232168 69.811246 
L 66.838306 68.599857 
z
" clip-path="url(#p03ad721b1b)" style="fill: #4c4c4c"/>
    <path d="M 150.104291 138.71054 
L 150.104291 117.749967 
L 150.429647 117.749967 
L 150.429647 138.71054 
z
" clip-path="url(#p03ad721b1b)" style="fill: #4c4c4c"/>
    <path d="M 140.357543 149.17532 
L 119.486304 149.900878 
L 119.475001 149.575719 
L 140.346239 148.850161 
z
" clip-path="url(#p03ad721b1b)" style="fill: #4c4c4c"/>
    <path d="M 147.840224 139.001573 
L 147.938525 139.120413 
L 148.225462 139.229624 
L 148.677789 139.320361 
L 149.258863 139.385271 
L 149.921607 139.419096 
L 150.612331 139.419096 
L 151.275075 139.385271 
L 151.856148 139.320361 
L 152.308476 139.229624 
L 152.595413 139.120413 
L 152.693713 139.001573 
L 152.693713 128.192309 
L 147.840224 128.192309 
z
" clip-path="url(#p03ad721b1b)" style="fill: #477b9d; stroke: #262626"/>
    <path d="M 147.840224 128.192309 
L 152.693713 128.192309 
L 152.693713 117.383045 
L 152.595413 117.264207 
L 152.308476 117.154996 
L 151.856148 117.064261 
L 151.275075 116.999352 
L 150.612331 116.965527 
L 149.921607 116.965527 
L 149.258863 116.999352 
L 148.677789 117.064261 
L 148.225462 117.154996 
L 147.938525 117.264207 
L 147.840224 117.383045 
z
" clip-path="url(#p03ad721b1b)" style="fill: #f03f37; stroke: #262626"/>
    <path d="M 158.356117 109.783953 
L 158.325335 109.078937 
L 158.233224 108.379287 
L 158.080486 107.690327 
L 157.868281 107.017301 
L 157.598227 106.365331 
L 157.272376 105.739379 
L 156.893211 105.144208 
L 156.463616 104.584349 
L 155.98686 104.064062 
L 155.466573 103.587306 
L 154.906714 103.157711 
L 154.311543 102.778545 
L 153.685591 102.452695 
L 153.03362 102.18264 
L 152.360594 101.970436 
L 151.671635 101.817697 
L 150.971985 101.725587 
L 150.266969 101.694805 
L 149.561953 101.725587 
L 148.862303 101.817697 
L 148.173343 101.970436 
L 147.500317 102.18264 
L 146.848347 102.452695 
L 146.222395 102.778545 
L 145.627224 103.157711 
L 145.067365 103.587306 
L 144.547077 104.064062 
L 144.070322 104.584349 
L 143.640727 105.144208 
L 143.261561 105.739379 
L 142.935711 106.365331 
L 142.665656 107.017301 
L 142.453452 107.690327 
L 142.300713 108.379287 
L 142.208603 109.078937 
L 142.177821 109.783953 
L 142.208603 110.488969 
L 142.300713 111.188619 
L 142.453452 111.877578 
L 142.665656 112.550604 
L 142.935711 113.202575 
L 143.261561 113.828527 
L 143.640727 114.423698 
L 144.070322 114.983557 
L 144.547077 115.503844 
L 145.067365 115.9806 
L 145.627224 116.410195 
L 146.222395 116.78936 
L 146.848347 117.115211 
L 147.500317 117.385266 
L 148.173343 117.59747 
L 148.862303 117.750208 
L 149.561953 117.842319 
L 150.266969 117.873101 
L 150.971985 117.842319 
L 151.671635 117.750208 
L 152.360594 117.59747 
L 153.03362 117.385266 
L 153.685591 117.115211 
L 154.311543 116.78936 
L 154.906714 116.410195 
L 155.466573 115.9806 
L 155.98686 115.503844 
L 156.463616 114.983557 
L 156.893211 114.423698 
L 157.272376 113.828527 
L 157.598227 113.202575 
L 157.868281 112.550604 
L 158.080486 111.877578 
L 158.233224 111.188619 
L 158.325335 110.488969 
L 158.356117 109.783953 
z
" clip-path="url(#p03ad721b1b)" style="fill: #f03f37; stroke: #262626"/>
    <path d="M 68.445593 69.565673 
L 68.600466 69.700272 
L 68.387041 69.945845 
L 68.232168 69.811246 
z
" clip-path="url(#p03ad721b1b)" style="fill: #4c4c4c"/>
    <path d="M 140.725996 151.427945 
L 140.854545 151.325117 
L 140.965849 151.034137 
L 141.050891 150.57858 
L 141.102782 149.995352 
L 141.117317 149.331702 
L 141.09332 148.641395 
L 141.032733 147.980357 
L 140.940467 147.40214 
L 140.823994 146.953588 
L 140.692752 146.67104 
L 140.557373 146.577387 
L 129.794178 146.951553 
L 129.962801 151.802112 
z
" clip-path="url(#p03ad721b1b)" style="fill: #477b9d; stroke: #262626"/>
    <path d="M 129.962801 151.802112 
L 129.794178 146.951553 
L 119.030984 147.32572 
L 118.902436 147.428549 
L 118.791133 147.719528 
L 118.706092 148.175085 
L 118.654202 148.758314 
L 118.639667 149.421964 
L 118.663664 150.11227 
L 118.72425 150.773309 
L 118.816516 151.351526 
L 118.932988 151.800078 
L 119.064228 152.082626 
L 119.199606 152.176279 
z
" clip-path="url(#p03ad721b1b)" style="fill: #f03f37; stroke: #262626"/>
    <path d="M 119.637738 150.014045 
L 119.606957 149.309029 
L 119.514846 148.609379 
L 119.362107 147.92042 
L 119.149903 147.247394 
L 118.879848 146.595424 
L 118.553998 145.969471 
L 118.174833 145.3743 
L 117.745237 144.814441 
L 117.268482 144.294154 
L 116.748195 143.817398 
L 116.188335 143.387803 
L 115.593164 143.008638 
L 114.967212 142.682787 
L 114.315242 142.412733 
L 113.642216 142.200528 
L 112.953256 142.04779 
L 112.253606 141.955679 
L 111.54859 141.924897 
L 110.843575 141.955679 
L 110.143925 142.04779 
L 109.454965 142.200528 
L 108.781939 142.412733 
L 108.129969 142.682787 
L 107.504016 143.008638 
L 106.908846 143.387803 
L 106.348986 143.817398 
L 105.828699 144.294154 
L 105.351944 144.814441 
L 104.922348 145.3743 
L 104.543183 145.969471 
L 104.217333 146.595424 
L 103.947278 147.247394 
L 103.735074 147.92042 
L 103.582335 148.609379 
L 103.490224 149.309029 
L 103.459443 150.014045 
L 103.490224 150.719061 
L 103.582335 151.418711 
L 103.735074 152.107671 
L 103.947278 152.780697 
L 104.217333 153.432667 
L 104.543183 154.058619 
L 104.922348 154.65379 
L 105.351944 155.213649 
L 105.828699 155.733937 
L 106.348986 156.210692 
L 106.908846 156.640287 
L 107.504016 157.019453 
L 108.129969 157.345303 
L 108.781939 157.615358 
L 109.454965 157.827562 
L 110.143925 157.980301 
L 110.843575 158.072411 
L 111.54859 158.103193 
L 112.253606 158.072411 
L 112.953256 157.980301 
L 113.642216 157.827562 
L 114.315242 157.615358 
L 114.967212 157.345303 
L 115.593164 157.019453 
L 116.188335 156.640287 
L 116.748195 156.210692 
L 117.268482 155.733937 
L 117.745237 155.213649 
L 118.174833 154.65379 
L 118.553998 154.058619 
L 118.879848 153.432667 
L 119.149903 152.780697 
L 119.362107 152.107671 
L 119.514846 151.418711 
L 119.606957 150.719061 
L 119.637738 150.014045 
z
" clip-path="url(#p03ad721b1b)" style="fill: #f03f37; stroke: #262626"/>
    <path d="M 150.104291 101.817939 
L 150.104291 80.857366 
L 150.429647 80.857366 
L 150.429647 101.817939 
z
" clip-path="url(#p03ad721b1b)" style="fill: #4c4c4c"/>
    <path d="M 68.600466 69.700272 
L 69.839454 70.777062 
L 69.626029 71.022635 
L 68.387041 69.945845 
z
" clip-path="url(#p03ad721b1b)" style="fill: #4c4c4c"/>
    <path d="M 103.62218 150.452371 
L 82.750942 151.17793 
L 82.739638 150.85277 
L 103.610876 150.127212 
z
" clip-path="url(#p03ad721b1b)" style="fill: #4c4c4c"/>
    <path d="M 146.750026 71.058466 
L 147.312824 71.417351 
L 147.958993 71.598771 
L 148.636183 71.588028 
L 149.289533 71.385993 
L 149.866111 71.009032 
L 150.319208 70.487685 
L 150.612115 69.864189 
L 150.721104 69.189055 
L 150.637344 68.516979 
L 150.367621 67.902408 
L 149.933787 67.395132 
L 147.781152 65.524301 
L 144.59739 69.187634 
z
" clip-path="url(#p03ad721b1b)" style="fill: #477b9d; stroke: #262626"/>
    <path d="M 144.59739 69.187634 
L 147.781152 65.524301 
L 145.628516 63.653469 
L 145.065717 63.294583 
L 144.419548 63.113163 
L 143.742358 63.123906 
L 143.089009 63.325942 
L 142.51243 63.702903 
L 142.059334 64.22425 
L 141.766426 64.847746 
L 141.657438 65.52288 
L 141.741198 66.194956 
L 142.01092 66.809526 
L 142.444754 67.316803 
z
" clip-path="url(#p03ad721b1b)" style="fill: #f03f37; stroke: #262626"/>
    <path d="M 152.693713 80.566339 
L 152.595413 80.447502 
L 152.308476 80.338293 
L 151.856148 80.247559 
L 151.275075 80.18265 
L 150.612331 80.148825 
L 149.921607 80.148825 
L 149.258863 80.18265 
L 148.677789 80.247559 
L 148.225462 80.338293 
L 147.938525 80.447502 
L 147.840224 80.566339 
L 147.840224 91.3756 
L 152.693713 91.3756 
z
" clip-path="url(#p03ad721b1b)" style="fill: #477b9d; stroke: #262626"/>
    <path d="M 152.693713 91.3756 
L 147.840224 91.3756 
L 147.840224 102.184861 
L 147.938525 102.303699 
L 148.225462 102.412909 
L 148.677789 102.503645 
L 149.258863 102.568554 
L 149.921607 102.602379 
L 150.612331 102.602379 
L 151.275075 102.568554 
L 151.856148 102.503645 
L 152.308476 102.412909 
L 152.595413 102.303699 
L 152.693713 102.184861 
z
" clip-path="url(#p03ad721b1b)" style="fill: #f03f37; stroke: #262626"/>
    <path d="M 160.378404 70.899849 
L 160.339927 70.018579 
L 160.224788 69.144017 
L 160.033865 68.282817 
L 159.76861 67.441534 
L 159.431041 66.626572 
L 159.023728 65.844131 
L 158.549771 65.100168 
L 158.012777 64.400344 
L 157.416833 63.749985 
L 156.766474 63.15404 
L 156.06665 62.617046 
L 155.322686 62.143089 
L 154.540246 61.735777 
L 153.725283 61.398208 
L 152.884001 61.132953 
L 152.022801 60.942029 
L 151.148238 60.826891 
L 150.266969 60.788414 
L 149.385699 60.826891 
L 148.511137 60.942029 
L 147.649937 61.132953 
L 146.808654 61.398208 
L 145.993692 61.735777 
L 145.211251 62.143089 
L 144.467288 62.617046 
L 143.767464 63.15404 
L 143.117105 63.749985 
L 142.52116 64.400344 
L 141.984166 65.100168 
L 141.510209 65.844131 
L 141.102897 66.626572 
L 140.765328 67.441534 
L 140.500073 68.282817 
L 140.309149 69.144017 
L 140.194011 70.018579 
L 140.155534 70.899849 
L 140.194011 71.781118 
L 140.309149 72.655681 
L 140.500073 73.516881 
L 140.765328 74.358163 
L 141.102897 75.173126 
L 141.510209 75.955566 
L 141.984166 76.69953 
L 142.52116 77.399354 
L 143.117105 78.049713 
L 143.767464 78.645657 
L 144.467288 79.182651 
L 145.211251 79.656608 
L 145.993692 80.063921 
L 146.808654 80.40149 
L 147.649937 80.666745 
L 148.511137 80.857668 
L 149.385699 80.972807 
L 150.266969 81.011284 
L 151.148238 80.972807 
L 152.022801 80.857668 
L 152.884001 80.666745 
L 153.725283 80.40149 
L 154.540246 80.063921 
L 155.322686 79.656608 
L 156.06665 79.182651 
L 156.766474 78.645657 
L 157.416833 78.049713 
L 158.012777 77.399354 
L 158.549771 76.69953 
L 159.023728 75.955566 
L 159.431041 75.173126 
L 159.76861 74.358163 
L 160.033865 73.516881 
L 160.224788 72.655681 
L 160.339927 71.781118 
L 160.378404 70.899849 
z
" clip-path="url(#p03ad721b1b)" style="fill: #477b9d; stroke: #262626"/>
    <path d="M 69.839454 70.777062 
L 70.149201 71.04626 
L 69.935776 71.291833 
L 69.626029 71.022635 
z
" clip-path="url(#p03ad721b1b)" style="fill: #4c4c4c"/>
    <path d="M 69.313271 151.518652 
L 69.876069 151.877538 
L 70.522238 152.058958 
L 71.199428 152.048215 
L 71.852778 151.846179 
L 72.429356 151.469218 
L 72.882453 150.947871 
L 73.17536 150.324375 
L 73.284349 149.649241 
L 73.200589 148.977165 
L 72.930867 148.362595 
L 72.497033 147.855318 
L 70.344395 145.984485 
L 67.160633 149.647819 
z
" clip-path="url(#p03ad721b1b)" style="fill: #477b9d; stroke: #262626"/>
    <path d="M 67.160633 149.647819 
L 70.344395 145.984485 
L 68.191758 144.113652 
L 67.628959 143.754767 
L 66.98279 143.573346 
L 66.3056 143.584089 
L 65.65225 143.786125 
L 65.075672 144.163086 
L 64.622575 144.684433 
L 64.329668 145.307929 
L 64.220679 145.983063 
L 64.304439 146.655139 
L 64.574162 147.26971 
L 65.007996 147.776986 
z
" clip-path="url(#p03ad721b1b)" style="fill: #f03f37; stroke: #262626"/>
    <path d="M 82.371192 148.600145 
L 82.242646 148.702973 
L 82.131344 148.993952 
L 82.046304 149.44951 
L 81.994415 150.032738 
L 81.97988 150.696388 
L 82.003878 151.386695 
L 82.064463 152.047733 
L 82.156729 152.62595 
L 82.273199 153.074502 
L 82.404438 153.35705 
L 82.539815 153.450703 
L 93.303006 153.076537 
L 93.134383 148.225978 
z
" clip-path="url(#p03ad721b1b)" style="fill: #477b9d; stroke: #262626"/>
    <path d="M 93.134383 148.225978 
L 93.303006 153.076537 
L 104.066197 152.70237 
L 104.194745 152.599542 
L 104.306048 152.308562 
L 104.391089 151.853005 
L 104.442979 151.269776 
L 104.457514 150.606126 
L 104.433516 149.91582 
L 104.372931 149.254782 
L 104.280664 148.676564 
L 104.164193 148.228012 
L 104.032952 147.945465 
L 103.897575 147.851811 
z
" clip-path="url(#p03ad721b1b)" style="fill: #f03f37; stroke: #262626"/>
    <path d="M 82.941647 151.360033 
L 82.90317 150.478764 
L 82.788032 149.604201 
L 82.597108 148.743001 
L 82.331853 147.901719 
L 81.994284 147.086756 
L 81.586972 146.304316 
L 81.113015 145.560353 
L 80.576021 144.860528 
L 79.980076 144.210169 
L 79.329717 143.614225 
L 78.629893 143.077231 
L 77.88593 142.603274 
L 77.103489 142.195961 
L 76.288526 141.858393 
L 75.447244 141.593137 
L 74.586044 141.402214 
L 73.711482 141.287075 
L 72.830212 141.248598 
L 71.948942 141.287075 
L 71.07438 141.402214 
L 70.21318 141.593137 
L 69.371898 141.858393 
L 68.556935 142.195961 
L 67.774495 142.603274 
L 67.030531 143.077231 
L 66.330707 143.614225 
L 65.680348 144.210169 
L 65.084404 144.860528 
L 64.547409 145.560353 
L 64.073453 146.304316 
L 63.66614 147.086756 
L 63.328571 147.901719 
L 63.063316 148.743001 
L 62.872393 149.604201 
L 62.757254 150.478764 
L 62.718777 151.360033 
L 62.757254 152.241303 
L 62.872393 153.115866 
L 63.063316 153.977065 
L 63.328571 154.818348 
L 63.66614 155.63331 
L 64.073453 156.415751 
L 64.547409 157.159714 
L 65.084404 157.859538 
L 65.680348 158.509898 
L 66.330707 159.105842 
L 67.030531 159.642836 
L 67.774495 160.116793 
L 68.556935 160.524106 
L 69.371898 160.861674 
L 70.21318 161.12693 
L 71.07438 161.317853 
L 71.948942 161.432991 
L 72.830212 161.471468 
L 73.711482 161.432991 
L 74.586044 161.317853 
L 75.447244 161.12693 
L 76.288526 160.861674 
L 77.103489 160.524106 
L 77.88593 160.116793 
L 78.629893 159.642836 
L 79.329717 159.105842 
L 79.980076 158.509898 
L 80.576021 157.859538 
L 81.113015 157.159714 
L 81.586972 156.415751 
L 81.994284 155.63331 
L 82.331853 154.818348 
L 82.597108 153.977065 
L 82.788032 153.115866 
L 82.90317 152.241303 
L 82.941647 151.360033 
z
" clip-path="url(#p03ad721b1b)" style="fill: #477b9d; stroke: #262626"/>
    <path d="M 70.149201 71.04626 
L 70.953909 71.745622 
L 70.740484 71.991195 
L 69.935776 71.291833 
z
" clip-path="url(#p03ad721b1b)" style="fill: #4c4c4c"/>
    <path d="M 140.357543 71.407112 
L 119.486304 72.13267 
L 119.475001 71.807511 
L 140.346239 71.081952 
z
" clip-path="url(#p03ad721b1b)" style="fill: #4c4c4c"/>
    <path d="M 72.667534 141.402516 
L 72.667534 120.441943 
L 72.99289 120.441943 
L 72.99289 141.402516 
z
" clip-path="url(#p03ad721b1b)" style="fill: #4c4c4c"/>
    <path d="M 140.725996 73.659737 
L 140.854545 73.556909 
L 140.965849 73.265929 
L 141.050891 72.810372 
L 141.102782 72.227143 
L 141.117318 71.563494 
L 141.09332 70.873187 
L 141.032734 70.212149 
L 140.940467 69.633932 
L 140.823995 69.18538 
L 140.692753 68.902832 
L 140.557373 68.809178 
L 129.794178 69.183345 
L 129.962801 74.033904 
z
" clip-path="url(#p03ad721b1b)" style="fill: #477b9d; stroke: #262626"/>
    <path d="M 129.962801 74.033904 
L 129.794178 69.183345 
L 119.030984 69.557512 
L 118.902436 69.660341 
L 118.791133 69.95132 
L 118.706092 70.406877 
L 118.654202 70.990106 
L 118.639666 71.653756 
L 118.663664 72.344062 
L 118.72425 73.005101 
L 118.816516 73.583318 
L 118.932987 74.03187 
L 119.064228 74.314418 
L 119.199606 74.408071 
z
" clip-path="url(#p03ad721b1b)" style="fill: #f03f37; stroke: #262626"/>
    <path d="M 119.637738 72.245837 
L 119.606957 71.540821 
L 119.514846 70.841171 
L 119.362107 70.152211 
L 119.149903 69.479185 
L 118.879848 68.827215 
L 118.553998 68.201263 
L 118.174833 67.606092 
L 117.745237 67.046233 
L 117.268482 66.525946 
L 116.748195 66.04919 
L 116.188335 65.619595 
L 115.593164 65.240429 
L 114.967212 64.914579 
L 114.315242 64.644524 
L 113.642216 64.43232 
L 112.953256 64.279581 
L 112.253606 64.187471 
L 111.54859 64.156689 
L 110.843575 64.187471 
L 110.143925 64.279581 
L 109.454965 64.43232 
L 108.781939 64.644524 
L 108.129969 64.914579 
L 107.504016 65.240429 
L 106.908846 65.619595 
L 106.348986 66.04919 
L 105.828699 66.525946 
L 105.351944 67.046233 
L 104.922348 67.606092 
L 104.543183 68.201263 
L 104.217333 68.827215 
L 103.947278 69.479185 
L 103.735074 70.152211 
L 103.582335 70.841171 
L 103.490224 71.540821 
L 103.459443 72.245837 
L 103.490224 72.950853 
L 103.582335 73.650503 
L 103.735074 74.339463 
L 103.947278 75.012489 
L 104.217333 75.664459 
L 104.543183 76.290411 
L 104.922348 76.885582 
L 105.351944 77.445441 
L 105.828699 77.965728 
L 106.348986 78.442484 
L 106.908846 78.872079 
L 107.504016 79.251245 
L 108.129969 79.577095 
L 108.781939 79.84715 
L 109.454965 80.059354 
L 110.143925 80.212093 
L 110.843575 80.304203 
L 111.54859 80.334985 
L 112.253606 80.304203 
L 112.953256 80.212093 
L 113.642216 80.059354 
L 114.315242 79.84715 
L 114.967212 79.577095 
L 115.593164 79.251245 
L 116.188335 78.872079 
L 116.748195 78.442484 
L 117.268482 77.965728 
L 117.745237 77.445441 
L 118.174833 76.885582 
L 118.553998 76.290411 
L 118.879848 75.664459 
L 119.149903 75.012489 
L 119.362107 74.339463 
L 119.514846 73.650503 
L 119.606957 72.950853 
L 119.637738 72.245837 
z
" clip-path="url(#p03ad721b1b)" style="fill: #f03f37; stroke: #262626"/>
    <path d="M 70.403468 141.69355 
L 70.501768 141.812389 
L 70.788705 141.921601 
L 71.241032 142.012338 
L 71.822106 142.077248 
L 72.48485 142.111073 
L 73.175574 142.111073 
L 73.838318 142.077248 
L 74.419392 142.012338 
L 74.871719 141.921601 
L 75.158656 141.812389 
L 75.256956 141.69355 
L 75.256956 130.884286 
L 70.403468 130.884286 
z
" clip-path="url(#p03ad721b1b)" style="fill: #477b9d; stroke: #262626"/>
    <path d="M 70.403468 130.884286 
L 75.256956 130.884286 
L 75.256956 120.075021 
L 75.158656 119.956183 
L 74.871719 119.846973 
L 74.419392 119.756237 
L 73.838318 119.691328 
L 73.175574 119.657503 
L 72.48485 119.657503 
L 71.822106 119.691328 
L 71.241032 119.756237 
L 70.788705 119.846973 
L 70.501768 119.956183 
L 70.403468 120.075021 
z
" clip-path="url(#p03ad721b1b)" style="fill: #f03f37; stroke: #262626"/>
    <path d="M 80.91936 112.475929 
L 80.888578 111.770914 
L 80.796468 111.071264 
L 80.643729 110.382304 
L 80.431525 109.709278 
L 80.16147 109.057308 
L 79.83562 108.431355 
L 79.456454 107.836185 
L 79.026859 107.276325 
L 78.550103 106.756038 
L 78.029816 106.279282 
L 77.469957 105.849687 
L 76.874786 105.470522 
L 76.248834 105.144672 
L 75.596864 104.874617 
L 74.923838 104.662412 
L 74.234878 104.509674 
L 73.535228 104.417563 
L 72.830212 104.386781 
L 72.125196 104.417563 
L 71.425546 104.509674 
L 70.736586 104.662412 
L 70.063561 104.874617 
L 69.41159 105.144672 
L 68.785638 105.470522 
L 68.190467 105.849687 
L 67.630608 106.279282 
L 67.110321 106.756038 
L 66.633565 107.276325 
L 66.20397 107.836185 
L 65.824804 108.431355 
L 65.498954 109.057308 
L 65.228899 109.709278 
L 65.016695 110.382304 
L 64.863956 111.071264 
L 64.771846 111.770914 
L 64.741064 112.475929 
L 64.771846 113.180945 
L 64.863956 113.880595 
L 65.016695 114.569555 
L 65.228899 115.242581 
L 65.498954 115.894551 
L 65.824804 116.520503 
L 66.20397 117.115674 
L 66.633565 117.675533 
L 67.110321 118.195821 
L 67.630608 118.672576 
L 68.190467 119.102171 
L 68.785638 119.481337 
L 69.41159 119.807187 
L 70.063561 120.077242 
L 70.736586 120.289446 
L 71.425546 120.442185 
L 72.125196 120.534296 
L 72.830212 120.565077 
L 73.535228 120.534296 
L 74.234878 120.442185 
L 74.923838 120.289446 
L 75.596864 120.077242 
L 76.248834 119.807187 
L 76.874786 119.481337 
L 77.469957 119.102171 
L 78.029816 118.672576 
L 78.550103 118.195821 
L 79.026859 117.675533 
L 79.456454 117.115674 
L 79.83562 116.520503 
L 80.16147 115.894551 
L 80.431525 115.242581 
L 80.643729 114.569555 
L 80.796468 113.880595 
L 80.888578 113.180945 
L 80.91936 112.475929 
z
" clip-path="url(#p03ad721b1b)" style="fill: #f03f37; stroke: #262626"/>
    <path d="M 103.62218 72.684163 
L 82.750942 73.409722 
L 82.739638 73.084562 
L 103.610876 72.359004 
z
" clip-path="url(#p03ad721b1b)" style="fill: #4c4c4c"/>
    <path d="M 72.667534 104.509916 
L 72.667534 83.549342 
L 72.99289 83.549342 
L 72.99289 104.509916 
z
" clip-path="url(#p03ad721b1b)" style="fill: #4c4c4c"/>
    <path d="M 69.313289 73.75046 
L 69.876088 74.109346 
L 70.522257 74.290766 
L 71.199447 74.280023 
L 71.852797 74.077988 
L 72.429376 73.701027 
L 72.882472 73.17968 
L 73.17538 72.556184 
L 73.284368 71.88105 
L 73.200608 71.208974 
L 72.930885 70.594403 
L 72.497051 70.087126 
L 70.344397 68.216279 
L 67.160635 71.879613 
z
" clip-path="url(#p03ad721b1b)" style="fill: #477b9d; stroke: #262626"/>
    <path d="M 67.160635 71.879613 
L 70.344397 68.216279 
L 68.191743 66.345432 
L 67.628944 65.986546 
L 66.982775 65.805125 
L 66.305585 65.815868 
L 65.652235 66.017904 
L 65.075656 66.394864 
L 64.62256 66.916211 
L 64.329652 67.539707 
L 64.220664 68.214841 
L 64.304424 68.886918 
L 64.574147 69.501489 
L 65.007981 70.008766 
z
" clip-path="url(#p03ad721b1b)" style="fill: #f03f37; stroke: #262626"/>
    <path d="M 82.371192 70.831937 
L 82.242646 70.934765 
L 82.131344 71.225744 
L 82.046304 71.681302 
L 81.994414 72.26453 
L 81.97988 72.92818 
L 82.003877 73.618486 
L 82.064463 74.279525 
L 82.156728 74.857742 
L 82.273198 75.306294 
L 82.404438 75.588842 
L 82.539815 75.682495 
L 93.303006 75.308329 
L 93.134383 70.45777 
z
" clip-path="url(#p03ad721b1b)" style="fill: #477b9d; stroke: #262626"/>
    <path d="M 93.134383 70.45777 
L 93.303006 75.308329 
L 104.066197 74.934162 
L 104.194745 74.831334 
L 104.306048 74.540354 
L 104.391089 74.084797 
L 104.442979 73.501568 
L 104.457514 72.837918 
L 104.433517 72.147612 
L 104.372931 71.486573 
L 104.280665 70.908356 
L 104.164194 70.459804 
L 104.032953 70.177257 
L 103.897575 70.083603 
z
" clip-path="url(#p03ad721b1b)" style="fill: #f03f37; stroke: #262626"/>
    <path d="M 75.256956 83.258315 
L 75.158656 83.139478 
L 74.871719 83.030269 
L 74.419392 82.939535 
L 73.838318 82.874626 
L 73.175574 82.840801 
L 72.48485 82.840801 
L 71.822106 82.874626 
L 71.241032 82.939535 
L 70.788705 83.030269 
L 70.501768 83.139478 
L 70.403468 83.258315 
L 70.403468 94.067576 
L 75.256956 94.067576 
z
" clip-path="url(#p03ad721b1b)" style="fill: #477b9d; stroke: #262626"/>
    <path d="M 75.256956 94.067576 
L 70.403468 94.067576 
L 70.403468 104.876837 
L 70.501768 104.995675 
L 70.788705 105.104886 
L 71.241032 105.195622 
L 71.822106 105.260531 
L 72.48485 105.294356 
L 73.175574 105.294356 
L 73.838318 105.260531 
L 74.419392 105.195622 
L 74.871719 105.104886 
L 75.158656 104.995675 
L 75.256956 104.876837 
z
" clip-path="url(#p03ad721b1b)" style="fill: #f03f37; stroke: #262626"/>
    <path d="M 82.941647 73.591825 
L 82.90317 72.710556 
L 82.788032 71.835993 
L 82.597108 70.974793 
L 82.331853 70.133511 
L 81.994284 69.318548 
L 81.586972 68.536108 
L 81.113015 67.792144 
L 80.576021 67.09232 
L 79.980076 66.441961 
L 79.329717 65.846017 
L 78.629893 65.309023 
L 77.88593 64.835066 
L 77.103489 64.427753 
L 76.288526 64.090184 
L 75.447244 63.824929 
L 74.586044 63.634006 
L 73.711482 63.518867 
L 72.830212 63.48039 
L 71.948942 63.518867 
L 71.07438 63.634006 
L 70.21318 63.824929 
L 69.371898 64.090184 
L 68.556935 64.427753 
L 67.774495 64.835066 
L 67.030531 65.309023 
L 66.330707 65.846017 
L 65.680348 66.441961 
L 65.084404 67.09232 
L 64.547409 67.792144 
L 64.073453 68.536108 
L 63.66614 69.318548 
L 63.328571 70.133511 
L 63.063316 70.974793 
L 62.872393 71.835993 
L 62.757254 72.710556 
L 62.718777 73.591825 
L 62.757254 74.473095 
L 62.872393 75.347657 
L 63.063316 76.208857 
L 63.328571 77.05014 
L 63.66614 77.865102 
L 64.073453 78.647543 
L 64.547409 79.391506 
L 65.084404 80.09133 
L 65.680348 80.741689 
L 66.330707 81.337634 
L 67.030531 81.874628 
L 67.774495 82.348585 
L 68.556935 82.755897 
L 69.371898 83.093466 
L 70.21318 83.358721 
L 71.07438 83.549645 
L 71.948942 83.664783 
L 72.830212 83.70326 
L 73.711482 83.664783 
L 74.586044 83.549645 
L 75.447244 83.358721 
L 76.288526 83.093466 
L 77.103489 82.755897 
L 77.88593 82.348585 
L 78.629893 81.874628 
L 79.329717 81.337634 
L 79.980076 80.741689 
L 80.576021 80.09133 
L 81.113015 79.391506 
L 81.586972 78.647543 
L 81.994284 77.865102 
L 82.331853 77.05014 
L 82.597108 76.208857 
L 82.788032 75.347657 
L 82.90317 74.473095 
L 82.941647 73.591825 
z
" clip-path="url(#p03ad721b1b)" style="fill: #477b9d; stroke: #262626"/>
   </g>
   <g id="line2d_1">
    <path d="M 33.354737 175.356 
L 33.354737 163.869551 
" clip-path="url(#p03ad721b1b)" style="fill: none; stroke: #4c4c4c; stroke-width: 0.745161; stroke-linecap: round"/>
   </g>
   <g id="line2d_2">
    <path d="M 33.354737 175.356 
L 21.917244 175.753608 
" clip-path="url(#p03ad721b1b)" style="fill: none; stroke: #4c4c4c; stroke-width: 0.745161; stroke-linecap: round"/>
   </g>
   <g id="line2d_3">
    <path d="M 33.354737 175.356 
L 35.642236 177.344039 
" clip-path="url(#p03ad721b1b)" style="fill: none; stroke: #4c4c4c; stroke-width: 0.745161; stroke-linecap: round"/>
   </g>
   <g id="text_1">
    <path d="M 31.644941 157.029058 
L 31.644941 162.349975 
L 32.278328 162.349975 
L 32.278328 161.835348 
L 32.293465 161.835348 
Q 32.397089 162.007667 32.549614 162.122934 
Q 32.703303 162.238201 32.874457 162.305731 
Q 33.045612 162.372097 33.220259 162.401205 
Q 33.39607 162.431477 33.536952 162.431477 
Q 33.977063 162.431477 34.308893 162.275459 
Q 34.640723 162.119441 34.859614 161.846991 
Q 35.079669 161.574542 35.18795 161.210111 
Q 35.296232 160.844516 35.296232 160.434678 
Q 35.296232 160.024839 35.184457 159.660409 
Q 35.072683 159.294814 34.852628 159.015378 
Q 34.632572 158.735943 34.300743 158.571774 
Q 33.970077 158.407606 33.522981 158.407606 
Q 33.120128 158.407606 32.784805 158.553145 
Q 32.449483 158.698685 32.293465 159.018871 
L 32.278328 159.018871 
L 32.278328 157.029058 
L 31.644941 157.029058 
z
M 34.625587 160.390434 
Q 34.625587 160.673362 34.565042 160.942319 
Q 34.505662 161.210111 34.371766 161.418523 
Q 34.23787 161.626936 34.017814 161.753846 
Q 33.797759 161.880756 33.470587 161.880756 
Q 33.14225 161.880756 32.910551 161.758503 
Q 32.680017 161.635086 32.534478 161.43366 
Q 32.390103 161.232233 32.322572 160.967934 
Q 32.256206 160.703634 32.256206 160.419542 
Q 32.256206 160.151749 32.319079 159.890943 
Q 32.381952 159.630136 32.523999 159.425217 
Q 32.666045 159.220298 32.889594 159.093387 
Q 33.113142 158.966477 33.433328 158.966477 
Q 33.738379 158.966477 33.96542 159.086401 
Q 34.193626 159.205162 34.338001 159.406588 
Q 34.48354 159.608014 34.554563 159.865328 
Q 34.625587 160.121477 34.625587 160.390434 
z
" style="fill: #4c4c4c; stroke: #ffffff; stroke-width: 2.235484"/>
    <path d="M 31.644941 157.029058 
L 31.644941 162.349975 
L 32.278328 162.349975 
L 32.278328 161.835348 
L 32.293465 161.835348 
Q 32.397089 162.007667 32.549614 162.122934 
Q 32.703303 162.238201 32.874457 162.305731 
Q 33.045612 162.372097 33.220259 162.401205 
Q 33.39607 162.431477 33.536952 162.431477 
Q 33.977063 162.431477 34.308893 162.275459 
Q 34.640723 162.119441 34.859614 161.846991 
Q 35.079669 161.574542 35.18795 161.210111 
Q 35.296232 160.844516 35.296232 160.434678 
Q 35.296232 160.024839 35.184457 159.660409 
Q 35.072683 159.294814 34.852628 159.015378 
Q 34.632572 158.735943 34.300743 158.571774 
Q 33.970077 158.407606 33.522981 158.407606 
Q 33.120128 158.407606 32.784805 158.553145 
Q 32.449483 158.698685 32.293465 159.018871 
L 32.278328 159.018871 
L 32.278328 157.029058 
L 31.644941 157.029058 
z
M 34.625587 160.390434 
Q 34.625587 160.673362 34.565042 160.942319 
Q 34.505662 161.210111 34.371766 161.418523 
Q 34.23787 161.626936 34.017814 161.753846 
Q 33.797759 161.880756 33.470587 161.880756 
Q 33.14225 161.880756 32.910551 161.758503 
Q 32.680017 161.635086 32.534478 161.43366 
Q 32.390103 161.232233 32.322572 160.967934 
Q 32.256206 160.703634 32.256206 160.419542 
Q 32.256206 160.151749 32.319079 159.890943 
Q 32.381952 159.630136 32.523999 159.425217 
Q 32.666045 159.220298 32.889594 159.093387 
Q 33.113142 158.966477 33.433328 158.966477 
Q 33.738379 158.966477 33.96542 159.086401 
Q 34.193626 159.205162 34.338001 159.406588 
Q 34.48354 159.608014 34.554563 159.865328 
Q 34.625587 160.121477 34.625587 160.390434 
z
" style="fill: #4c4c4c"/>
   </g>
   <g id="text_2">
    <path d="M 19.577541 175.184198 
L 20.23305 175.184198 
Q 20.195792 174.840725 20.053746 174.591562 
Q 19.912864 174.341234 19.692808 174.17823 
Q 19.472753 174.014062 19.186331 173.936053 
Q 18.89991 173.85688 18.571573 173.85688 
Q 18.117491 173.85688 17.774018 174.017555 
Q 17.43171 174.17823 17.203504 174.457666 
Q 16.976463 174.737101 16.864688 175.113175 
Q 16.752914 175.489249 16.752914 175.921209 
Q 16.752914 176.35317 16.868181 176.715272 
Q 16.984613 177.076209 17.211654 177.337016 
Q 17.438695 177.597822 17.777511 177.739869 
Q 18.117491 177.880751 18.556437 177.880751 
Q 19.294613 177.880751 19.72308 177.494198 
Q 20.151548 177.106481 20.255172 176.390428 
L 19.607813 176.390428 
Q 19.547269 176.837525 19.28297 177.084359 
Q 19.01867 177.33003 18.549451 177.33003 
Q 18.251387 177.33003 18.034824 177.21127 
Q 17.819426 177.091345 17.684366 176.894576 
Q 17.55047 176.696643 17.486432 176.443986 
Q 17.423559 176.190166 17.423559 175.921209 
Q 17.423559 175.631295 17.482939 175.358845 
Q 17.543484 175.086396 17.680873 174.877983 
Q 17.819426 174.669571 18.049961 174.542661 
Q 18.280495 174.415751 18.623968 174.415751 
Q 19.025656 174.415751 19.264341 174.617177 
Q 19.503025 174.818603 19.577541 175.184198 
z
" style="fill: #4c4c4c; stroke: #ffffff; stroke-width: 2.235484"/>
    <path d="M 19.577541 175.184198 
L 20.23305 175.184198 
Q 20.195792 174.840725 20.053746 174.591562 
Q 19.912864 174.341234 19.692808 174.17823 
Q 19.472753 174.014062 19.186331 173.936053 
Q 18.89991 173.85688 18.571573 173.85688 
Q 18.117491 173.85688 17.774018 174.017555 
Q 17.43171 174.17823 17.203504 174.457666 
Q 16.976463 174.737101 16.864688 175.113175 
Q 16.752914 175.489249 16.752914 175.921209 
Q 16.752914 176.35317 16.868181 176.715272 
Q 16.984613 177.076209 17.211654 177.337016 
Q 17.438695 177.597822 17.777511 177.739869 
Q 18.117491 177.880751 18.556437 177.880751 
Q 19.294613 177.880751 19.72308 177.494198 
Q 20.151548 177.106481 20.255172 176.390428 
L 19.607813 176.390428 
Q 19.547269 176.837525 19.28297 177.084359 
Q 19.01867 177.33003 18.549451 177.33003 
Q 18.251387 177.33003 18.034824 177.21127 
Q 17.819426 177.091345 17.684366 176.894576 
Q 17.55047 176.696643 17.486432 176.443986 
Q 17.423559 176.190166 17.423559 175.921209 
Q 17.423559 175.631295 17.482939 175.358845 
Q 17.543484 175.086396 17.680873 174.877983 
Q 17.819426 174.669571 18.049961 174.542661 
Q 18.280495 174.415751 18.623968 174.415751 
Q 19.025656 174.415751 19.264341 174.617177 
Q 19.503025 174.818603 19.577541 175.184198 
z
" style="fill: #4c4c4c"/>
   </g>
   <g id="text_3">
    <path d="M 38.593575 180.514849 
Q 38.429407 180.611487 38.138328 180.611487 
Q 37.892658 180.611487 37.747119 180.474098 
Q 37.602744 180.336709 37.602744 180.023508 
Q 37.341937 180.336709 36.994971 180.474098 
Q 36.648006 180.611487 36.246317 180.611487 
Q 35.985511 180.611487 35.750319 180.552107 
Q 35.516292 180.492727 35.343973 180.365817 
Q 35.172819 180.238907 35.071524 180.033987 
Q 34.971393 179.829068 34.971393 179.539154 
Q 34.971393 179.210817 35.083167 179.002405 
Q 35.194941 178.793992 35.377739 178.663589 
Q 35.560536 178.533186 35.794563 178.46682 
Q 36.029755 178.39929 36.275425 178.353881 
Q 36.536232 178.301487 36.771423 178.275872 
Q 37.006615 178.250257 37.184755 178.201356 
Q 37.364059 178.152455 37.467683 178.05931 
Q 37.572471 177.966165 37.572471 177.788025 
Q 37.572471 177.579612 37.494462 177.452702 
Q 37.416453 177.325792 37.293036 177.259426 
Q 37.169619 177.191895 37.017093 177.169774 
Q 36.864568 177.146487 36.715536 177.146487 
Q 36.312683 177.146487 36.044891 177.300177 
Q 35.777098 177.452702 35.753812 177.877677 
L 35.120425 177.877677 
Q 35.135561 177.519068 35.269457 177.273398 
Q 35.404518 177.027727 35.628066 176.875202 
Q 35.851615 176.722677 36.138036 176.655147 
Q 36.424457 176.587616 36.752794 176.587616 
Q 37.013601 176.587616 37.270914 176.624874 
Q 37.528228 176.662132 37.73664 176.778564 
Q 37.945052 176.893831 38.071962 177.102243 
Q 38.198873 177.310656 38.198873 177.645978 
L 38.198873 179.628806 
Q 38.198873 179.852354 38.224488 179.957142 
Q 38.250103 180.060766 38.399135 180.060766 
Q 38.481801 180.060766 38.593575 180.023508 
L 38.593575 180.514849 
z
M 37.565486 178.540172 
Q 37.445561 178.629824 37.251121 178.670575 
Q 37.057844 178.711326 36.845939 178.738105 
Q 36.634034 178.76372 36.417471 178.797485 
Q 36.200909 178.83125 36.029755 178.905766 
Q 35.858601 178.980283 35.750319 179.118836 
Q 35.642038 179.256225 35.642038 179.493745 
Q 35.642038 179.650928 35.704911 179.759209 
Q 35.768948 179.866326 35.869079 179.933856 
Q 35.970375 180.001386 36.104271 180.031659 
Q 36.238167 180.060766 36.387199 180.060766 
Q 36.7004 180.060766 36.923948 179.975772 
Q 37.147497 179.889612 37.288379 179.759209 
Q 37.430425 179.628806 37.497955 179.476281 
Q 37.565486 179.322591 37.565486 179.188695 
L 37.565486 178.540172 
z
" style="fill: #4c4c4c; stroke: #ffffff; stroke-width: 2.235484"/>
    <path d="M 38.593575 180.514849 
Q 38.429407 180.611487 38.138328 180.611487 
Q 37.892658 180.611487 37.747119 180.474098 
Q 37.602744 180.336709 37.602744 180.023508 
Q 37.341937 180.336709 36.994971 180.474098 
Q 36.648006 180.611487 36.246317 180.611487 
Q 35.985511 180.611487 35.750319 180.552107 
Q 35.516292 180.492727 35.343973 180.365817 
Q 35.172819 180.238907 35.071524 180.033987 
Q 34.971393 179.829068 34.971393 179.539154 
Q 34.971393 179.210817 35.083167 179.002405 
Q 35.194941 178.793992 35.377739 178.663589 
Q 35.560536 178.533186 35.794563 178.46682 
Q 36.029755 178.39929 36.275425 178.353881 
Q 36.536232 178.301487 36.771423 178.275872 
Q 37.006615 178.250257 37.184755 178.201356 
Q 37.364059 178.152455 37.467683 178.05931 
Q 37.572471 177.966165 37.572471 177.788025 
Q 37.572471 177.579612 37.494462 177.452702 
Q 37.416453 177.325792 37.293036 177.259426 
Q 37.169619 177.191895 37.017093 177.169774 
Q 36.864568 177.146487 36.715536 177.146487 
Q 36.312683 177.146487 36.044891 177.300177 
Q 35.777098 177.452702 35.753812 177.877677 
L 35.120425 177.877677 
Q 35.135561 177.519068 35.269457 177.273398 
Q 35.404518 177.027727 35.628066 176.875202 
Q 35.851615 176.722677 36.138036 176.655147 
Q 36.424457 176.587616 36.752794 176.587616 
Q 37.013601 176.587616 37.270914 176.624874 
Q 37.528228 176.662132 37.73664 176.778564 
Q 37.945052 176.893831 38.071962 177.102243 
Q 38.198873 177.310656 38.198873 177.645978 
L 38.198873 179.628806 
Q 38.198873 179.852354 38.224488 179.957142 
Q 38.250103 180.060766 38.399135 180.060766 
Q 38.481801 180.060766 38.593575 180.023508 
L 38.593575 180.514849 
z
M 37.565486 178.540172 
Q 37.445561 178.629824 37.251121 178.670575 
Q 37.057844 178.711326 36.845939 178.738105 
Q 36.634034 178.76372 36.417471 178.797485 
Q 36.200909 178.83125 36.029755 178.905766 
Q 35.858601 178.980283 35.750319 179.118836 
Q 35.642038 179.256225 35.642038 179.493745 
Q 35.642038 179.650928 35.704911 179.759209 
Q 35.768948 179.866326 35.869079 179.933856 
Q 35.970375 180.001386 36.104271 180.031659 
Q 36.238167 180.060766 36.387199 180.060766 
Q 36.7004 180.060766 36.923948 179.975772 
Q 37.147497 179.889612 37.288379 179.759209 
Q 37.430425 179.628806 37.497955 179.476281 
Q 37.565486 179.322591 37.565486 179.188695 
L 37.565486 178.540172 
z
" style="fill: #4c4c4c"/>
   </g>
  </g>
 </g>
 <defs>
  <clipPath id="p03ad721b1b">
   <rect x="7.2" y="7.2" width="193.20983" height="194.4"/>
  </clipPath>
 </defs>
</svg>
