<?xml version="1.0" encoding="utf-8" standalone="no"?>
<!DOCTYPE svg PUBLIC "-//W3C//DTD SVG 1.1//EN"
  "http://www.w3.org/Graphics/SVG/1.1/DTD/svg11.dtd">
<svg xmlns:xlink="http://www.w3.org/1999/xlink" width="208.8pt" height="208.8pt" viewBox="0 0 208.8 208.8" xmlns="http://www.w3.org/2000/svg" version="1.1">
 <metadata>
  <rdf:RDF xmlns:dc="http://purl.org/dc/elements/1.1/" xmlns:cc="http://creativecommons.org/ns#" xmlns:rdf="http://www.w3.org/1999/02/22-rdf-syntax-ns#">
   <cc:Work>
    <dc:type rdf:resource="http://purl.org/dc/dcmitype/StillImage"/>
    <dc:date>2026-02-16T18:02:50.210935</dc:date>
    <dc:format>image/svg+xml</dc:format>
    <dc:creator>
     <cc:Agent>
      <dc:title>Matplotlib v3.10.7, https://matplotlib.org/</dc:title>
     </cc:Agent>
    </dc:creator>
   </cc:Work>
  </rdf:RDF>
 </metadata>
 <defs>
  <style type="text/css">*{stroke-linejoin: round; stroke-linecap: butt}</style>
 </defs>
 <g id="figure_1">
  <g id="patch_1">
   <path d="M 0 208.8 
L 208.8 208.8 
L 208.8 0 
L 0 0 
z
" style="fill: #ffffff"/>
  </g>
  <g id="axes_1">
   <g id="PolyCollection_1">
    <path d="M 147.528267 136.731653 
L 147.487848 135.805897 
L 147.366897 134.887188 
L 147.166336 133.982515 
L 146.887691 133.098766 
L 146.533082 132.242664 
L 146.105209 131.420727 
L 145.607327 130.639209 
L 145.043226 129.904058 
L 144.417199 129.22087 
L 143.73401 128.594843 
L 142.998859 128.030742 
L 142.217341 127.53286 
L 141.395404 127.104986 
L 140.539303 126.750377 
L 139.655553 126.471732 
L 138.750881 126.271171 
L 137.832171 126.150221 
L 136.906416 126.109801 
L 135.98066 126.150221 
L 135.06195 126.271171 
L 134.157278 126.471732 
L 133.273528 126.750377 
L 132.417427 127.104986 
L 131.59549 127.53286 
L 130.813972 128.030742 
L 130.078821 128.594843 
L 129.395632 129.22087 
L 128.769605 129.904058 
L 128.205504 130.639209 
L 127.707623 131.420727 
L 127.279749 132.242664 
L 126.92514 133.098766 
L 126.646495 133.982515 
L 126.445934 134.887188 
L 126.324984 135.805897 
L 126.284564 136.731653 
L 126.324984 137.657408 
L 126.445934 138.576118 
L 126.646495 139.48079 
L 126.92514 140.36454 
L 127.279749 141.220641 
L 127.707623 142.042578 
L 128.205504 142.824096 
L 128.769605 143.559247 
L 129.395632 144.242436 
L 130.078821 144.868463 
L 130.813972 145.432564 
L 131.59549 145.930446 
L 132.417427 146.358319 
L 133.273528 146.712928 
L 134.157278 146.991573 
L 135.06195 147.192134 
L 135.98066 147.313085 
L 136.906416 147.353504 
L 137.832171 147.313085 
L 138.750881 147.192134 
L 139.655553 146.991573 
L 140.539303 146.712928 
L 141.395404 146.358319 
L 142.217341 145.930446 
L 142.998859 145.432564 
L 143.73401 144.868463 
L 144.417199 144.242436 
L 145.043226 143.559247 
L 145.607327 142.824096 
L 146.105209 142.042578 
L 146.533082 141.220641 
L 146.887691 140.36454 
L 147.166336 139.48079 
L 147.366897 138.576118 
L 147.487848 137.657408 
L 147.528267 136.731653 
z
" clip-path="url(#pbf38b0c4e5)" style="fill: #477b9d; stroke: #262626"/>
    <path d="M 136.837506 126.363843 
L 137.104825 104.280902 
L 137.493596 104.285608 
L 137.226278 126.36855 
z
" clip-path="url(#pbf38b0c4e5)" style="fill: #4c4c4c"/>
    <path d="M 126.605317 137.427831 
L 104.609814 138.498765 
L 104.590906 138.110425 
L 126.58641 137.039491 
z
" clip-path="url(#pbf38b0c4e5)" style="fill: #4c4c4c"/>
    <path d="M 134.476858 126.829041 
L 134.577603 127.037589 
L 134.876696 127.231743 
L 135.349906 127.395772 
L 135.958896 127.516387 
L 136.65433 127.583817 
L 137.379868 127.5926 
L 138.07673 127.542024 
L 138.688462 127.436185 
L 139.165504 127.28366 
L 139.469209 127.096803 
L 139.574973 126.890754 
L 139.732695 115.431097 
L 134.596585 115.368923 
z
" clip-path="url(#pbf38b0c4e5)" style="fill: #477b9d; stroke: #262626"/>
    <path d="M 134.596585 115.368923 
L 139.732695 115.431097 
L 139.890418 103.971439 
L 139.786864 103.867708 
L 139.482112 103.769842 
L 139.000851 103.685772 
L 138.38207 103.622308 
L 137.675898 103.584591 
L 136.939546 103.575678 
L 136.232668 103.596289 
L 135.612532 103.644756 
L 135.129377 103.717152 
L 134.822345 103.807611 
L 134.716311 103.908806 
z
" clip-path="url(#pbf38b0c4e5)" style="fill: #f03f37; stroke: #262626"/>
    <path d="M 146.026099 95.795512 
L 145.993282 95.043868 
L 145.895079 94.297945 
L 145.732238 93.563419 
L 145.506 92.845881 
L 145.218084 92.150792 
L 144.870683 91.483441 
L 144.46644 90.848907 
L 144.008433 90.25202 
L 143.500146 89.697322 
L 142.945449 89.189035 
L 142.348562 88.731028 
L 141.714028 88.326785 
L 141.046677 87.979384 
L 140.351587 87.691469 
L 139.634049 87.46523 
L 138.899523 87.30239 
L 138.1536 87.204187 
L 137.401957 87.171369 
L 136.650313 87.204187 
L 135.90439 87.30239 
L 135.169865 87.46523 
L 134.452326 87.691469 
L 133.757237 87.979384 
L 133.089886 88.326785 
L 132.455352 88.731028 
L 131.858465 89.189035 
L 131.303767 89.697322 
L 130.795481 90.25202 
L 130.337473 90.848907 
L 129.933231 91.483441 
L 129.58583 92.150792 
L 129.297914 92.845881 
L 129.071675 93.563419 
L 128.908835 94.297945 
L 128.810632 95.043868 
L 128.777815 95.795512 
L 128.810632 96.547155 
L 128.908835 97.293078 
L 129.071675 98.027604 
L 129.297914 98.745142 
L 129.58583 99.440232 
L 129.933231 100.107583 
L 130.337473 100.742116 
L 130.795481 101.339003 
L 131.303767 101.893701 
L 131.858465 102.401988 
L 132.455352 102.859995 
L 133.089886 103.264238 
L 133.757237 103.611639 
L 134.452326 103.899554 
L 135.169865 104.125793 
L 135.90439 104.288634 
L 136.650313 104.386836 
L 137.401957 104.419654 
L 138.1536 104.386836 
L 138.899523 104.288634 
L 139.634049 104.125793 
L 140.351587 103.899554 
L 141.046677 103.611639 
L 141.714028 103.264238 
L 142.348562 102.859995 
L 142.945449 102.401988 
L 143.500146 101.893701 
L 144.008433 101.339003 
L 144.46644 100.742116 
L 144.870683 100.107583 
L 145.218084 99.440232 
L 145.506 98.745142 
L 145.732238 98.027604 
L 145.895079 97.293078 
L 145.993282 96.547155 
L 146.026099 95.795512 
z
" clip-path="url(#pbf38b0c4e5)" style="fill: #f03f37; stroke: #262626"/>
    <path d="M 127.217839 139.755642 
L 127.430722 139.641892 
L 127.616315 139.331077 
L 127.759582 138.848378 
L 127.848917 138.2329 
L 127.877082 137.534505 
L 127.841796 136.809773 
L 127.745917 136.117417 
L 127.597213 135.513529 
L 127.40773 135.047031 
L 127.19282 134.755716 
L 126.969894 134.663186 
L 115.554483 135.197766 
L 115.80449 140.332566 
z
" clip-path="url(#pbf38b0c4e5)" style="fill: #477b9d; stroke: #262626"/>
    <path d="M 115.80449 140.332566 
L 115.554483 135.197766 
L 104.139073 135.732346 
L 104.029981 135.842761 
L 103.939938 136.153942 
L 103.876238 136.640679 
L 103.844042 137.263538 
L 103.845958 137.97206 
L 103.881831 138.708844 
L 103.948755 139.414201 
L 104.041308 140.030987 
L 104.151992 140.509233 
L 104.271839 140.810194 
L 104.391141 140.909489 
z
" clip-path="url(#pbf38b0c4e5)" style="fill: #f03f37; stroke: #262626"/>
    <path d="M 104.774306 138.716738 
L 104.741433 137.963817 
L 104.643063 137.216627 
L 104.479946 136.480853 
L 104.253323 135.762096 
L 103.964918 135.065826 
L 103.616927 134.397341 
L 103.211998 133.761729 
L 102.753212 133.163828 
L 102.244062 132.608188 
L 101.688422 132.099038 
L 101.090521 131.640252 
L 100.454909 131.235323 
L 99.786424 130.887332 
L 99.090154 130.598927 
L 98.371397 130.372304 
L 97.635623 130.209187 
L 96.888433 130.110817 
L 96.135512 130.077944 
L 95.382592 130.110817 
L 94.635401 130.209187 
L 93.899628 130.372304 
L 93.180871 130.598927 
L 92.4846 130.887332 
L 91.816115 131.235323 
L 91.180504 131.640252 
L 90.582603 132.099038 
L 90.026963 132.608188 
L 89.517812 133.163828 
L 89.059027 133.761729 
L 88.654097 134.397341 
L 88.306106 135.065826 
L 88.017702 135.762096 
L 87.791078 136.480853 
L 87.627961 137.216627 
L 87.529592 137.963817 
L 87.496719 138.716738 
L 87.529592 139.469658 
L 87.627961 140.216848 
L 87.791078 140.952622 
L 88.017702 141.671379 
L 88.306106 142.36765 
L 88.654097 143.036135 
L 89.059027 143.671746 
L 89.517812 144.269647 
L 90.026963 144.825287 
L 90.582603 145.334438 
L 91.180504 145.793223 
L 91.816115 146.198152 
L 92.4846 146.546144 
L 93.180871 146.834548 
L 93.899628 147.061172 
L 94.635401 147.224289 
L 95.382592 147.322658 
L 96.135512 147.355531 
L 96.888433 147.322658 
L 97.635623 147.224289 
L 98.371397 147.061172 
L 99.090154 146.834548 
L 99.786424 146.546144 
L 100.454909 146.198152 
L 101.090521 145.793223 
L 101.688422 145.334438 
L 102.244062 144.825287 
L 102.753212 144.269647 
L 103.211998 143.671746 
L 103.616927 143.036135 
L 103.964918 142.36765 
L 104.253323 141.671379 
L 104.479946 140.952622 
L 104.643063 140.216848 
L 104.741433 139.469658 
L 104.774306 138.716738 
z
" clip-path="url(#pbf38b0c4e5)" style="fill: #f03f37; stroke: #262626"/>
    <path d="M 137.310961 87.252234 
L 137.586126 64.521141 
L 137.974897 64.525847 
L 137.699732 87.25694 
z
" clip-path="url(#pbf38b0c4e5)" style="fill: #4c4c4c"/>
    <path d="M 87.621066 139.325926 
L 64.905842 140.431902 
L 64.886934 140.043562 
L 87.602158 138.937586 
z
" clip-path="url(#pbf38b0c4e5)" style="fill: #4c4c4c"/>
    <path d="M 139.872573 139.141065 
L 141.059082 140.209513 
L 140.79891 140.498434 
L 139.6124 139.429986 
z
" clip-path="url(#pbf38b0c4e5)" style="fill: #4c4c4c"/>
    <path d="M 134.913496 87.619584 
L 135.017049 87.723316 
L 135.321801 87.821181 
L 135.803062 87.905251 
L 136.421844 87.968715 
L 137.128015 88.006432 
L 137.864367 88.015345 
L 138.571245 87.994734 
L 139.191381 87.946267 
L 139.674536 87.873872 
L 139.981568 87.783412 
L 140.087602 87.682217 
L 140.249959 75.967444 
L 135.034765 75.904313 
z
" clip-path="url(#pbf38b0c4e5)" style="fill: #f03f37; stroke: #262626"/>
    <path d="M 135.034765 75.904313 
L 140.249959 75.967444 
L 140.412316 64.252671 
L 140.306014 64.238421 
L 139.995409 64.222748 
L 139.505662 64.206922 
L 138.876451 64.192225 
L 138.15875 64.179847 
L 137.410703 64.170792 
L 136.692913 64.165792 
L 136.06353 64.165254 
L 135.573544 64.169221 
L 135.26265 64.17737 
L 135.156035 64.189043 
z
" clip-path="url(#pbf38b0c4e5)" style="fill: #477b9d; stroke: #262626"/>
    <path d="M 148.864228 53.591955 
L 148.822555 52.637478 
L 148.697852 51.690266 
L 148.491069 50.757527 
L 148.203779 49.84636 
L 147.838168 48.963698 
L 147.39702 48.116261 
L 146.883692 47.310497 
L 146.30209 46.552538 
L 145.656641 45.848154 
L 144.952257 45.202705 
L 144.194298 44.621103 
L 143.388534 44.107775 
L 142.541097 43.666627 
L 141.658436 43.301016 
L 140.747268 43.013726 
L 139.814529 42.806943 
L 138.867317 42.68224 
L 137.91284 42.640567 
L 136.958364 42.68224 
L 136.011152 42.806943 
L 135.078413 43.013726 
L 134.167245 43.301016 
L 133.284584 43.666627 
L 132.437146 44.107775 
L 131.631382 44.621103 
L 130.873424 45.202705 
L 130.16904 45.848154 
L 129.523591 46.552538 
L 128.941989 47.310497 
L 128.42866 48.116261 
L 127.987512 48.963698 
L 127.621902 49.84636 
L 127.334612 50.757527 
L 127.127829 51.690266 
L 127.003126 52.637478 
L 126.961453 53.591955 
L 127.003126 54.546431 
L 127.127829 55.493643 
L 127.334612 56.426382 
L 127.621902 57.33755 
L 127.987512 58.220211 
L 128.42866 59.067649 
L 128.941989 59.873413 
L 129.523591 60.631371 
L 130.16904 61.335755 
L 130.873424 61.981204 
L 131.631382 62.562806 
L 132.437146 63.076135 
L 133.284584 63.517283 
L 134.167245 63.882893 
L 135.078413 64.170183 
L 136.011152 64.376966 
L 136.958364 64.501669 
L 137.91284 64.543342 
L 138.867317 64.501669 
L 139.814529 64.376966 
L 140.747268 64.170183 
L 141.658436 63.882893 
L 142.541097 63.517283 
L 143.388534 63.076135 
L 144.194298 62.562806 
L 144.952257 61.981204 
L 145.656641 61.335755 
L 146.30209 60.631371 
L 146.883692 59.873413 
L 147.39702 59.067649 
L 147.838168 58.220211 
L 148.203779 57.33755 
L 148.491069 56.426382 
L 148.697852 55.493643 
L 148.822555 54.546431 
L 148.864228 53.591955 
z
" clip-path="url(#pbf38b0c4e5)" style="fill: #477b9d; stroke: #262626"/>
    <path d="M 141.059082 140.209513 
L 141.521464 140.625886 
L 141.261292 140.914808 
L 140.79891 140.498434 
z
" clip-path="url(#pbf38b0c4e5)" style="fill: #4c4c4c"/>
    <path d="M 88.131952 141.701129 
L 88.241043 141.590714 
L 88.331087 141.279533 
L 88.394786 140.792797 
L 88.426982 140.169937 
L 88.425066 139.461415 
L 88.389193 138.724631 
L 88.322269 138.019274 
L 88.229716 137.402489 
L 88.119033 136.924243 
L 87.999185 136.623281 
L 87.879883 136.523986 
L 76.182141 137.070614 
L 76.436436 142.29349 
z
" clip-path="url(#pbf38b0c4e5)" style="fill: #f03f37; stroke: #262626"/>
    <path d="M 76.436436 142.29349 
L 76.182141 137.070614 
L 64.484398 137.617242 
L 64.488303 137.724013 
L 64.502282 138.035549 
L 64.525203 138.526613 
L 64.555209 139.15742 
L 64.58987 139.876867 
L 64.626377 140.626668 
L 64.661772 141.346079 
L 64.693189 141.976818 
L 64.718082 142.467785 
L 64.734434 142.779206 
L 64.74092 142.885851 
z
" clip-path="url(#pbf38b0c4e5)" style="fill: #477b9d; stroke: #262626"/>
    <path d="M 64.946483 140.770347 
L 64.904665 139.812569 
L 64.779531 138.86208 
L 64.572032 137.926114 
L 64.283748 137.011795 
L 63.916873 136.126081 
L 63.474199 135.275712 
L 62.959095 134.46716 
L 62.375482 133.70658 
L 61.7278 132.999759 
L 61.020979 132.352077 
L 60.260399 131.768463 
L 59.451847 131.253359 
L 58.601478 130.810685 
L 57.715764 130.44381 
L 56.801444 130.155527 
L 55.865479 129.948028 
L 54.91499 129.822894 
L 53.957212 129.781076 
L 52.999434 129.822894 
L 52.048945 129.948028 
L 51.112979 130.155527 
L 50.19866 130.44381 
L 49.312945 130.810685 
L 48.462576 131.253359 
L 47.654025 131.768463 
L 46.893445 132.352077 
L 46.186624 132.999759 
L 45.538942 133.70658 
L 44.955328 134.46716 
L 44.440224 135.275712 
L 43.99755 136.126081 
L 43.630675 137.011795 
L 43.342391 137.926114 
L 43.134893 138.86208 
L 43.009759 139.812569 
L 42.967941 140.770347 
L 43.009759 141.728125 
L 43.134893 142.678614 
L 43.342391 143.61458 
L 43.630675 144.528899 
L 43.99755 145.414614 
L 44.440224 146.264982 
L 44.955328 147.073534 
L 45.538942 147.834114 
L 46.186624 148.540935 
L 46.893445 149.188617 
L 47.654025 149.772231 
L 48.462576 150.287335 
L 49.312945 150.730009 
L 50.19866 151.096884 
L 51.112979 151.385167 
L 52.048945 151.592666 
L 52.999434 151.7178 
L 53.957212 151.759618 
L 54.91499 151.7178 
L 55.865479 151.592666 
L 56.801444 151.385167 
L 57.715764 151.096884 
L 58.601478 150.730009 
L 59.451847 150.287335 
L 60.260399 149.772231 
L 61.020979 149.188617 
L 61.7278 148.540935 
L 62.375482 147.834114 
L 62.959095 147.073534 
L 63.474199 146.264982 
L 63.916873 145.414614 
L 64.283748 144.528899 
L 64.572032 143.61458 
L 64.779531 142.678614 
L 64.904665 141.728125 
L 64.946483 140.770347 
z
" clip-path="url(#pbf38b0c4e5)" style="fill: #477b9d; stroke: #262626"/>
    <path d="M 127.288846 53.936127 
L 104.60939 54.255811 
L 104.60391 53.86705 
L 127.283366 53.547366 
z
" clip-path="url(#pbf38b0c4e5)" style="fill: #4c4c4c"/>
    <path d="M 141.521464 140.625886 
L 143.403362 142.320529 
L 143.143189 142.609451 
L 141.261292 140.914808 
z
" clip-path="url(#pbf38b0c4e5)" style="fill: #4c4c4c"/>
    <path d="M 53.561387 130.065436 
L 53.132011 107.241999 
L 53.520742 107.234685 
L 53.950118 130.058123 
z
" clip-path="url(#pbf38b0c4e5)" style="fill: #4c4c4c"/>
    <path d="M 127.868654 56.362129 
L 128.102026 56.252363 
L 128.31349 55.938579 
L 128.485915 55.446197 
L 128.605332 54.815108 
L 128.662067 54.096439 
L 128.651523 53.348412 
L 128.574554 52.631627 
L 128.437397 52.004155 
L 128.251162 51.516829 
L 128.030937 51.20913 
L 127.794565 51.105985 
L 116.008423 51.249588 
L 116.083147 56.550787 
z
" clip-path="url(#pbf38b0c4e5)" style="fill: #477b9d; stroke: #262626"/>
    <path d="M 116.083147 56.550787 
L 116.008423 51.249588 
L 104.222282 51.39319 
L 104.100238 51.503212 
L 103.991135 51.820882 
L 103.90381 52.320464 
L 103.845338 52.961484 
L 103.820457 53.692011 
L 103.831182 54.452862 
L 103.876644 55.182398 
L 103.95316 55.821516 
L 104.054531 56.318437 
L 104.172545 56.632906 
L 104.297641 56.739444 
z
" clip-path="url(#pbf38b0c4e5)" style="fill: #f03f37; stroke: #262626"/>
    <path d="M 104.786468 54.184507 
L 104.752557 53.407836 
L 104.651085 52.637075 
L 104.482822 51.878091 
L 104.24905 51.13666 
L 103.951547 50.418426 
L 103.592579 49.728853 
L 103.174876 49.073191 
L 102.701617 48.456429 
L 102.176406 47.883261 
L 101.603238 47.358049 
L 100.986476 46.884791 
L 100.330813 46.467088 
L 99.641241 46.108119 
L 98.923006 45.810616 
L 98.181575 45.576844 
L 97.422591 45.408582 
L 96.651831 45.307109 
L 95.875159 45.273199 
L 95.098487 45.307109 
L 94.327726 45.408582 
L 93.568742 45.576844 
L 92.827312 45.810616 
L 92.109077 46.108119 
L 91.419505 46.467088 
L 90.763842 46.884791 
L 90.14708 47.358049 
L 89.573912 47.883261 
L 89.0487 48.456429 
L 88.575442 49.073191 
L 88.157739 49.728853 
L 87.79877 50.418426 
L 87.501268 51.13666 
L 87.267496 51.878091 
L 87.099233 52.637075 
L 86.99776 53.407836 
L 86.96385 54.184507 
L 86.99776 54.961179 
L 87.099233 55.73194 
L 87.267496 56.490924 
L 87.501268 57.232354 
L 87.79877 57.950589 
L 88.157739 58.640162 
L 88.575442 59.295824 
L 89.0487 59.912586 
L 89.573912 60.485754 
L 90.14708 61.010966 
L 90.763842 61.484224 
L 91.419505 61.901927 
L 92.109077 62.260896 
L 92.827312 62.558398 
L 93.568742 62.792171 
L 94.327726 62.960433 
L 95.098487 63.061906 
L 95.875159 63.095816 
L 96.651831 63.061906 
L 97.422591 62.960433 
L 98.181575 62.792171 
L 98.923006 62.558398 
L 99.641241 62.260896 
L 100.330813 61.901927 
L 100.986476 61.484224 
L 101.603238 61.010966 
L 102.176406 60.485754 
L 102.701617 59.912586 
L 103.174876 59.295824 
L 103.592579 58.640162 
L 103.951547 57.950589 
L 104.24905 57.232354 
L 104.482822 56.490924 
L 104.651085 55.73194 
L 104.752557 54.961179 
L 104.786468 54.184507 
z
" clip-path="url(#pbf38b0c4e5)" style="fill: #f03f37; stroke: #262626"/>
    <path d="M 143.403362 142.320529 
L 143.642311 142.535702 
L 143.382138 142.824623 
L 143.143189 142.609451 
z
" clip-path="url(#pbf38b0c4e5)" style="fill: #4c4c4c"/>
    <path d="M 51.129022 130.655073 
L 51.240072 130.878146 
L 51.555756 131.079128 
L 52.050499 131.241736 
L 52.68422 131.352798 
L 53.405579 131.403315 
L 54.156136 131.389195 
L 54.875085 131.311581 
L 55.50418 131.176763 
L 55.992457 130.99566 
L 56.300358 130.782947 
L 56.402939 130.555855 
L 56.200121 118.694209 
L 50.88555 118.794192 
z
" clip-path="url(#pbf38b0c4e5)" style="fill: #477b9d; stroke: #262626"/>
    <path d="M 50.88555 118.794192 
L 56.200121 118.694209 
L 55.997303 106.832564 
L 55.886739 106.722901 
L 55.568208 106.626203 
L 55.067516 106.550304 
L 54.425226 106.501353 
L 53.693371 106.483316 
L 52.931243 106.497654 
L 52.200585 106.543205 
L 51.56059 106.61628 
L 51.063107 106.710957 
L 50.748439 106.819568 
L 50.642078 106.933312 
z
" clip-path="url(#pbf38b0c4e5)" style="fill: #f03f37; stroke: #262626"/>
    <path d="M 62.088232 98.462534 
L 62.054262 97.684499 
L 61.952611 96.912385 
L 61.784053 96.152068 
L 61.54987 95.409336 
L 61.251845 94.68984 
L 60.892246 93.999057 
L 60.47381 93.342244 
L 59.999721 92.724399 
L 59.473587 92.150224 
L 58.899413 91.624091 
L 58.281568 91.150002 
L 57.624755 90.731565 
L 56.933971 90.371966 
L 56.214476 90.073941 
L 55.471743 89.839759 
L 54.711427 89.671201 
L 53.939313 89.56955 
L 53.161278 89.53558 
L 52.383242 89.56955 
L 51.611129 89.671201 
L 50.850812 89.839759 
L 50.10808 90.073941 
L 49.388584 90.371966 
L 48.697801 90.731565 
L 48.040987 91.150002 
L 47.423142 91.624091 
L 46.848968 92.150224 
L 46.322834 92.724399 
L 45.848745 93.342244 
L 45.430309 93.999057 
L 45.07071 94.68984 
L 44.772685 95.409336 
L 44.538503 96.152068 
L 44.369944 96.912385 
L 44.268294 97.684499 
L 44.234324 98.462534 
L 44.268294 99.240569 
L 44.369944 100.012683 
L 44.538503 100.773 
L 44.772685 101.515732 
L 45.07071 102.235228 
L 45.430309 102.926011 
L 45.848745 103.582824 
L 46.322834 104.200669 
L 46.848968 104.774844 
L 47.423142 105.300977 
L 48.040987 105.775066 
L 48.697801 106.193503 
L 49.388584 106.553102 
L 50.10808 106.851127 
L 50.850812 107.085309 
L 51.611129 107.253867 
L 52.383242 107.355518 
L 53.161278 107.389488 
L 53.939313 107.355518 
L 54.711427 107.253867 
L 55.471743 107.085309 
L 56.214476 106.851127 
L 56.933971 106.553102 
L 57.624755 106.193503 
L 58.281568 105.775066 
L 58.899413 105.300977 
L 59.473587 104.774844 
L 59.999721 104.200669 
L 60.47381 103.582824 
L 60.892246 102.926011 
L 61.251845 102.235228 
L 61.54987 101.515732 
L 61.784053 100.773 
L 61.952611 100.012683 
L 62.054262 99.240569 
L 62.088232 98.462534 
z
" clip-path="url(#pbf38b0c4e5)" style="fill: #f03f37; stroke: #262626"/>
    <path d="M 87.08357 54.502851 
L 63.638242 54.83333 
L 63.632763 54.444569 
L 87.07809 54.114089 
z
" clip-path="url(#pbf38b0c4e5)" style="fill: #4c4c4c"/>
    <path d="M 52.800743 89.633462 
L 52.358316 66.116294 
L 52.747047 66.108981 
L 53.189474 89.626149 
z
" clip-path="url(#pbf38b0c4e5)" style="fill: #4c4c4c"/>
    <path d="M 143.642311 142.535702 
L 145.83116 144.506754 
L 145.570987 144.795675 
L 143.382138 142.824623 
z
" clip-path="url(#pbf38b0c4e5)" style="fill: #4c4c4c"/>
    <path d="M 140.910028 54.166197 
L 142.626132 54.609961 
L 142.528794 54.98638 
L 140.812691 54.542616 
z
" clip-path="url(#pbf38b0c4e5)" style="fill: #4c4c4c"/>
    <path d="M 55.200049 143.435304 
L 55.644663 144.580877 
L 55.282205 144.721552 
L 54.837591 143.575979 
z
" clip-path="url(#pbf38b0c4e5)" style="fill: #4c4c4c"/>
    <path d="M 63.311242 51.921073 
L 63.311397 52.031349 
L 63.314647 52.353204 
L 63.32073 52.860563 
L 63.329153 53.512322 
L 63.339232 54.255681 
L 63.350153 55.030416 
L 63.361029 55.773764 
L 63.370981 56.425502 
L 63.379201 56.932831 
L 63.385023 57.25465 
L 63.387977 57.364886 
L 75.458007 57.170355 
L 75.38196 51.775322 
z
" clip-path="url(#pbf38b0c4e5)" style="fill: #477b9d; stroke: #262626"/>
    <path d="M 75.38196 51.775322 
L 75.458007 57.170355 
L 87.528036 56.975825 
L 87.65008 56.865802 
L 87.759183 56.548133 
L 87.846508 56.048551 
L 87.904979 55.407531 
L 87.929861 54.677004 
L 87.919136 53.916152 
L 87.873674 53.186617 
L 87.797158 52.547499 
L 87.695787 52.050577 
L 87.577773 51.736109 
L 87.452677 51.62957 
z
" clip-path="url(#pbf38b0c4e5)" style="fill: #f03f37; stroke: #262626"/>
    <path d="M 55.268594 65.754043 
L 55.15808 65.741963 
L 54.836023 65.73501 
L 54.328516 65.733747 
L 53.676672 65.738277 
L 52.933301 65.748232 
L 52.158625 65.762806 
L 51.415405 65.780818 
L 50.763853 65.800809 
L 50.256751 65.82116 
L 49.935184 65.840221 
L 49.825203 65.856449 
L 50.075228 77.974476 
L 55.474536 77.8729 
z
" clip-path="url(#pbf38b0c4e5)" style="fill: #477b9d; stroke: #262626"/>
    <path d="M 55.474536 77.8729 
L 50.075228 77.974476 
L 50.325253 90.092504 
L 50.435817 90.202167 
L 50.754347 90.298865 
L 51.255039 90.374764 
L 51.89733 90.423715 
L 52.629184 90.441752 
L 53.391312 90.427414 
L 54.121971 90.381863 
L 54.761966 90.308788 
L 55.259449 90.214111 
L 55.574117 90.1055 
L 55.680478 89.991756 
z
" clip-path="url(#pbf38b0c4e5)" style="fill: #f03f37; stroke: #262626"/>
    <path d="M 63.682228 54.798171 
L 63.639066 53.809615 
L 63.509911 52.828583 
L 63.295745 51.86254 
L 62.998197 50.91884 
L 62.619533 50.004663 
L 62.162634 49.126968 
L 61.630977 48.292435 
L 61.028609 47.507413 
L 60.360114 46.777879 
L 59.63058 46.109385 
L 58.845559 45.507017 
L 58.011025 44.97536 
L 57.13333 44.518461 
L 56.219154 44.139797 
L 55.275453 43.842249 
L 54.309411 43.628083 
L 53.328379 43.498927 
L 52.339823 43.455766 
L 51.351267 43.498927 
L 50.370235 43.628083 
L 49.404193 43.842249 
L 48.460492 44.139797 
L 47.546316 44.518461 
L 46.668621 44.97536 
L 45.834087 45.507017 
L 45.049066 46.109385 
L 44.319532 46.777879 
L 43.651037 47.507413 
L 43.048669 48.292435 
L 42.517012 49.126968 
L 42.060113 50.004663 
L 41.681449 50.91884 
L 41.383901 51.86254 
L 41.169735 52.828583 
L 41.04058 53.809615 
L 40.997418 54.798171 
L 41.04058 55.786726 
L 41.169735 56.767759 
L 41.383901 57.733801 
L 41.681449 58.677501 
L 42.060113 59.591678 
L 42.517012 60.469373 
L 43.048669 61.303907 
L 43.651037 62.088928 
L 44.319532 62.818462 
L 45.049066 63.486957 
L 45.834087 64.089325 
L 46.668621 64.620981 
L 47.546316 65.07788 
L 48.460492 65.456545 
L 49.404193 65.754092 
L 50.370235 65.968259 
L 51.351267 66.097414 
L 52.339823 66.140575 
L 53.328379 66.097414 
L 54.309411 65.968259 
L 55.275453 65.754092 
L 56.219154 65.456545 
L 57.13333 65.07788 
L 58.011025 64.620981 
L 58.845559 64.089325 
L 59.63058 63.486957 
L 60.360114 62.818462 
L 61.028609 62.088928 
L 61.630977 61.303907 
L 62.162634 60.469373 
L 62.619533 59.591678 
L 62.998197 58.677501 
L 63.295745 57.733801 
L 63.509911 56.767759 
L 63.639066 55.786726 
L 63.682228 54.798171 
z
" clip-path="url(#pbf38b0c4e5)" style="fill: #477b9d; stroke: #262626"/>
    <path d="M 145.83116 144.506754 
L 146.266617 144.898881 
L 146.006444 145.187802 
L 145.570987 144.795675 
z
" clip-path="url(#pbf38b0c4e5)" style="fill: #4c4c4c"/>
    <path d="M 142.626132 54.609961 
L 145.587927 55.375846 
L 145.49059 55.752265 
L 142.528794 54.98638 
z
" clip-path="url(#pbf38b0c4e5)" style="fill: #4c4c4c"/>
    <path d="M 55.644663 144.580877 
L 56.703644 147.309403 
L 56.341186 147.450078 
L 55.282205 144.721552 
z
" clip-path="url(#pbf38b0c4e5)" style="fill: #4c4c4c"/>
    <path d="M 141.823177 137.728676 
L 141.269489 137.369041 
L 140.622458 137.192012 
L 139.934502 137.211932 
L 139.261355 137.427185 
L 138.657552 137.820334 
L 138.17201 138.359528 
L 137.844064 139.001085 
L 137.700281 139.693029 
L 137.752312 140.379304 
L 137.99594 141.004311 
L 138.411428 141.517416 
L 141.047079 144.046483 
L 144.613648 140.085815 
z
" clip-path="url(#pbf38b0c4e5)" style="fill: #477b9d; stroke: #262626"/>
    <path d="M 144.613648 140.085815 
L 141.047079 144.046483 
L 143.68273 146.575549 
L 144.267143 146.95024 
L 144.954953 147.127177 
L 145.690437 147.092025 
L 146.414012 146.847632 
L 147.067056 146.413797 
L 147.596665 145.825668 
L 147.959932 145.13089 
L 148.127429 144.385751 
L 148.085584 143.650617 
L 147.837789 142.985044 
L 147.404118 142.442954 
z
" clip-path="url(#pbf38b0c4e5)" style="fill: #f03f37; stroke: #262626"/>
    <path d="M 157.999783 147.379741 
L 157.964513 146.571922 
L 157.858971 145.77025 
L 157.68396 144.980828 
L 157.440813 144.209663 
L 157.131379 143.462625 
L 156.758015 142.745398 
L 156.32356 142.063441 
L 155.831323 141.421944 
L 155.285048 140.82579 
L 154.688894 140.279515 
L 154.047397 139.787278 
L 153.36544 139.352823 
L 152.648213 138.979459 
L 151.901175 138.670025 
L 151.13001 138.426878 
L 150.340588 138.251867 
L 149.538916 138.146325 
L 148.731097 138.111055 
L 147.923278 138.146325 
L 147.121607 138.251867 
L 146.332185 138.426878 
L 145.56102 138.670025 
L 144.813981 138.979459 
L 144.096754 139.352823 
L 143.414797 139.787278 
L 142.773301 140.279515 
L 142.177147 140.82579 
L 141.630872 141.421944 
L 141.138634 142.063441 
L 140.70418 142.745398 
L 140.330815 143.462625 
L 140.021382 144.209663 
L 139.778234 144.980828 
L 139.603224 145.77025 
L 139.497682 146.571922 
L 139.462411 147.379741 
L 139.497682 148.18756 
L 139.603224 148.989231 
L 139.778234 149.778653 
L 140.021382 150.549818 
L 140.330815 151.296857 
L 140.70418 152.014084 
L 141.138634 152.69604 
L 141.630872 153.337537 
L 142.177147 153.933691 
L 142.773301 154.479966 
L 143.414797 154.972204 
L 144.096754 155.406658 
L 144.813981 155.780023 
L 145.56102 156.089456 
L 146.332185 156.332604 
L 147.121607 156.507614 
L 147.923278 156.613156 
L 148.731097 156.648427 
L 149.538916 156.613156 
L 150.340588 156.507614 
L 151.13001 156.332604 
L 151.901175 156.089456 
L 152.648213 155.780023 
L 153.36544 155.406658 
L 154.047397 154.972204 
L 154.688894 154.479966 
L 155.285048 153.933691 
L 155.831323 153.337537 
L 156.32356 152.69604 
L 156.758015 152.014084 
L 157.131379 151.296857 
L 157.440813 150.549818 
L 157.68396 149.778653 
L 157.858971 148.989231 
L 157.964513 148.18756 
L 157.999783 147.379741 
z
" clip-path="url(#pbf38b0c4e5)" style="fill: #f03f37; stroke: #262626"/>
    <path d="M 145.587927 55.375846 
L 147.572246 55.888968 
L 147.474909 56.265386 
L 145.49059 55.752265 
z
" clip-path="url(#pbf38b0c4e5)" style="fill: #4c4c4c"/>
    <path d="M 56.703644 147.309403 
L 57.599374 149.617304 
L 57.236916 149.757979 
L 56.341186 147.450078 
z
" clip-path="url(#pbf38b0c4e5)" style="fill: #4c4c4c"/>
    <path d="M 53.517409 55.462771 
L 55.019502 56.623939 
L 54.781713 56.931545 
L 53.279619 55.770377 
z
" clip-path="url(#pbf38b0c4e5)" style="fill: #4c4c4c"/>
    <path d="M 151.554341 149.66046 
L 153.662817 151.559135 
L 153.402644 151.848057 
L 151.294168 149.949381 
z
" clip-path="url(#pbf38b0c4e5)" style="fill: #4c4c4c"/>
    <path d="M 141.840862 51.892908 
L 141.134444 51.820204 
L 140.431948 51.959542 
L 139.790285 52.299632 
L 139.26144 52.812923 
L 138.888256 53.457831 
L 138.700966 54.182109 
L 138.714744 54.927081 
L 138.928473 55.632392 
L 139.324839 56.240904 
L 139.871729 56.703319 
L 140.524839 56.982173 
L 143.365485 57.844092 
L 144.743248 52.516069 
z
" clip-path="url(#pbf38b0c4e5)" style="fill: #477b9d; stroke: #262626"/>
    <path d="M 144.743248 52.516069 
L 143.365485 57.844092 
L 146.20613 58.70601 
L 146.962664 58.781355 
L 147.716218 58.625102 
L 148.405744 58.24991 
L 148.97538 57.686175 
L 149.378978 56.979567 
L 149.583841 56.187331 
L 149.573372 55.37365 
L 149.348418 54.604444 
L 148.927206 53.942028 
L 148.343857 53.440068 
L 147.645633 53.13923 
z
" clip-path="url(#pbf38b0c4e5)" style="fill: #f03f37; stroke: #262626"/>
    <path d="M 159.815918 56.777742 
L 159.779451 55.942516 
L 159.670328 55.113646 
L 159.48938 54.297441 
L 159.237983 53.500113 
L 158.918051 52.727729 
L 158.532019 51.986169 
L 158.082825 51.281075 
L 157.573887 50.617814 
L 157.009079 50.001434 
L 156.392699 49.436626 
L 155.729438 48.927688 
L 155.024344 48.478494 
L 154.282784 48.092462 
L 153.5104 47.77253 
L 152.713072 47.521133 
L 151.896867 47.340185 
L 151.067997 47.231062 
L 150.232771 47.194595 
L 149.397545 47.231062 
L 148.568675 47.340185 
L 147.75247 47.521133 
L 146.955142 47.77253 
L 146.182758 48.092462 
L 145.441198 48.478494 
L 144.736104 48.927688 
L 144.072843 49.436626 
L 143.456463 50.001434 
L 142.891655 50.617814 
L 142.382717 51.281075 
L 141.933522 51.986169 
L 141.54749 52.727729 
L 141.227559 53.500113 
L 140.976162 54.297441 
L 140.795214 55.113646 
L 140.686091 55.942516 
L 140.649624 56.777742 
L 140.686091 57.612968 
L 140.795214 58.441838 
L 140.976162 59.258043 
L 141.227559 60.055371 
L 141.54749 60.827755 
L 141.933522 61.569315 
L 142.382717 62.274409 
L 142.891655 62.93767 
L 143.456463 63.55405 
L 144.072843 64.118858 
L 144.736104 64.627796 
L 145.441198 65.076991 
L 146.182758 65.463023 
L 146.955142 65.782954 
L 147.75247 66.034351 
L 148.568675 66.215299 
L 149.397545 66.324422 
L 150.232771 66.360889 
L 151.067997 66.324422 
L 151.896867 66.215299 
L 152.713072 66.034351 
L 153.5104 65.782954 
L 154.282784 65.463023 
L 155.024344 65.076991 
L 155.729438 64.627796 
L 156.392699 64.118858 
L 157.009079 63.55405 
L 157.573887 62.93767 
L 158.082825 62.274409 
L 158.532019 61.569315 
L 158.918051 60.827755 
L 159.237983 60.055371 
L 159.48938 59.258043 
L 159.670328 58.441838 
L 159.779451 57.612968 
L 159.815918 56.777742 
z
" clip-path="url(#pbf38b0c4e5)" style="fill: #f03f37; stroke: #262626"/>
    <path d="M 55.019502 56.623939 
L 55.109851 56.693782 
L 54.872061 57.001388 
L 54.781713 56.931545 
z
" clip-path="url(#pbf38b0c4e5)" style="fill: #4c4c4c"/>
    <path d="M 153.662817 151.559135 
L 153.93913 151.807955 
L 153.678958 152.096876 
L 153.402644 151.848057 
z
" clip-path="url(#pbf38b0c4e5)" style="fill: #4c4c4c"/>
    <path d="M 121.230014 104.4 
L 121.165971 102.933168 
L 120.974329 101.477499 
L 120.656545 100.044072 
L 120.21504 98.643796 
L 119.653173 97.287329 
L 118.97522 95.984993 
L 118.186341 94.7467 
L 117.292539 93.581875 
L 116.300617 92.499383 
L 115.218125 91.507461 
L 114.0533 90.613659 
L 112.815007 89.82478 
L 111.512671 89.146827 
L 110.156204 88.58496 
L 108.755928 88.143455 
L 107.322501 87.825671 
L 105.866832 87.634029 
L 104.4 87.569986 
L 102.933168 87.634029 
L 101.477499 87.825671 
L 100.044072 88.143455 
L 98.643796 88.58496 
L 97.287329 89.146827 
L 95.984993 89.82478 
L 94.7467 90.613659 
L 93.581875 91.507461 
L 92.499383 92.499383 
L 91.507461 93.581875 
L 90.613659 94.7467 
L 89.82478 95.984993 
L 89.146827 97.287329 
L 88.58496 98.643796 
L 88.143455 100.044072 
L 87.825671 101.477499 
L 87.634029 102.933168 
L 87.569986 104.4 
L 87.634029 105.866832 
L 87.825671 107.322501 
L 88.143455 108.755928 
L 88.58496 110.156204 
L 89.146827 111.512671 
L 89.82478 112.815007 
L 90.613659 114.0533 
L 91.507461 115.218125 
L 92.499383 116.300617 
L 93.581875 117.292539 
L 94.7467 118.186341 
L 95.984993 118.97522 
L 97.287329 119.653173 
L 98.643796 120.21504 
L 100.044072 120.656545 
L 101.477499 120.974329 
L 102.933168 121.165971 
L 104.4 121.230014 
L 105.866832 121.165971 
L 107.322501 120.974329 
L 108.755928 120.656545 
L 110.156204 120.21504 
L 111.512671 119.653173 
L 112.815007 118.97522 
L 114.0533 118.186341 
L 115.218125 117.292539 
L 116.300617 116.300617 
L 117.292539 115.218125 
L 118.186341 114.0533 
L 118.97522 112.815007 
L 119.653173 111.512671 
L 120.21504 110.156204 
L 120.656545 108.755928 
L 120.974329 107.322501 
L 121.165971 105.866832 
L 121.230014 104.4 
z
" clip-path="url(#pbf38b0c4e5)" style="fill: #51b04d; stroke: #262626"/>
    <path d="M 153.93913 151.807955 
L 154.216488 152.057714 
L 153.956315 152.346636 
L 153.678958 152.096876 
z
" clip-path="url(#pbf38b0c4e5)" style="fill: #4c4c4c"/>
    <path d="M 55.109851 56.693782 
L 55.200541 56.763888 
L 54.962751 57.071494 
L 54.872061 57.001388 
z
" clip-path="url(#pbf38b0c4e5)" style="fill: #4c4c4c"/>
    <path d="M 57.585411 142.829269 
L 57.229603 142.207777 
L 56.703427 141.713943 
L 56.049513 141.387776 
L 55.320836 141.2557 
L 54.576429 141.328414 
L 53.8766 141.600028 
L 53.278045 142.048537 
L 52.829255 142.637606 
L 52.566588 143.319511 
L 52.511325 144.03901 
L 52.667942 144.737812 
L 53.593182 147.465009 
L 58.74222 145.466591 
z
" clip-path="url(#pbf38b0c4e5)" style="fill: #477b9d; stroke: #262626"/>
    <path d="M 58.74222 145.466591 
L 53.593182 147.465009 
L 54.518422 150.192206 
L 54.902183 150.857908 
L 55.472805 151.385088 
L 56.184062 151.731037 
L 56.97833 151.867729 
L 57.791264 151.784089 
L 58.557005 151.486894 
L 59.213515 151.000221 
L 59.70761 150.363496 
L 59.99926 149.628304 
L 60.064837 148.854206 
L 59.899029 148.103914 
z
" clip-path="url(#pbf38b0c4e5)" style="fill: #f03f37; stroke: #262626"/>
    <path d="M 68.013483 152.202175 
L 67.976878 151.363788 
L 67.867342 150.531782 
L 67.685709 149.712488 
L 67.433361 148.912143 
L 67.112219 148.136837 
L 66.724726 147.39247 
L 66.273832 146.684708 
L 65.762968 146.018937 
L 65.196023 145.400225 
L 64.57731 144.833279 
L 63.91154 144.322416 
L 63.203778 143.871521 
L 62.459411 143.484029 
L 61.684105 143.162886 
L 60.883759 142.910538 
L 60.064466 142.728905 
L 59.23246 142.61937 
L 58.394073 142.582765 
L 57.555686 142.61937 
L 56.72368 142.728905 
L 55.904386 142.910538 
L 55.104041 143.162886 
L 54.328734 143.484029 
L 53.584368 143.871521 
L 52.876606 144.322416 
L 52.210835 144.833279 
L 51.592123 145.400225 
L 51.025177 146.018937 
L 50.514313 146.684708 
L 50.063419 147.39247 
L 49.675927 148.136837 
L 49.354784 148.912143 
L 49.102436 149.712488 
L 48.920803 150.531782 
L 48.811267 151.363788 
L 48.774663 152.202175 
L 48.811267 153.040562 
L 48.920803 153.872568 
L 49.102436 154.691861 
L 49.354784 155.492207 
L 49.675927 156.267513 
L 50.063419 157.01188 
L 50.514313 157.719642 
L 51.025177 158.385413 
L 51.592123 159.004125 
L 52.210835 159.571071 
L 52.876606 160.081934 
L 53.584368 160.532828 
L 54.328734 160.920321 
L 55.104041 161.241464 
L 55.904386 161.493812 
L 56.72368 161.675445 
L 57.555686 161.78498 
L 58.394073 161.821585 
L 59.23246 161.78498 
L 60.064466 161.675445 
L 60.883759 161.493812 
L 61.684105 161.241464 
L 62.459411 160.920321 
L 63.203778 160.532828 
L 63.91154 160.081934 
L 64.57731 159.571071 
L 65.196023 159.004125 
L 65.762968 158.385413 
L 66.273832 157.719642 
L 66.724726 157.01188 
L 67.112219 156.267513 
L 67.433361 155.492207 
L 67.685709 154.691861 
L 67.867342 153.872568 
L 67.976878 153.040562 
L 68.013483 152.202175 
z
" clip-path="url(#pbf38b0c4e5)" style="fill: #f03f37; stroke: #262626"/>
    <path d="M 55.200541 56.763888 
L 55.915807 57.316812 
L 55.678017 57.624418 
L 54.962751 57.071494 
z
" clip-path="url(#pbf38b0c4e5)" style="fill: #4c4c4c"/>
    <path d="M 154.216488 152.057714 
L 159.155338 156.505133 
L 158.895165 156.794055 
L 153.956315 152.346636 
z
" clip-path="url(#pbf38b0c4e5)" style="fill: #4c4c4c"/>
    <path d="M 153.097135 57.317638 
L 155.883975 58.038282 
L 155.786637 58.4147 
L 152.999797 57.694056 
z
" clip-path="url(#pbf38b0c4e5)" style="fill: #4c4c4c"/>
    <path d="M 59.589742 154.745601 
L 60.384966 156.794542 
L 60.022508 156.935217 
L 59.227284 154.886277 
z
" clip-path="url(#pbf38b0c4e5)" style="fill: #4c4c4c"/>
    <path d="M 54.166289 52.769382 
L 53.492187 52.387652 
L 52.737818 52.211326 
L 51.964296 52.254692 
L 51.234288 52.514234 
L 50.606934 52.968927 
L 50.13306 53.581933 
L 49.851055 54.303592 
L 49.783766 55.075438 
L 49.936644 55.83494 
L 50.297304 56.52057 
L 50.836527 57.07678 
L 52.808231 58.768697 
L 56.300308 54.251326 
z
" clip-path="url(#pbf38b0c4e5)" style="fill: #477b9d; stroke: #262626"/>
    <path d="M 56.300308 54.251326 
L 52.808231 58.768697 
L 54.779934 60.460613 
L 55.519706 60.879521 
L 56.347575 61.073 
L 57.196471 61.025377 
L 57.997623 60.740509 
L 58.686125 60.241476 
L 59.206199 59.568705 
L 59.515713 58.7767 
L 59.58959 57.929625 
L 59.421846 57.096106 
L 59.026071 56.343668 
L 58.434328 55.73327 
z
" clip-path="url(#pbf38b0c4e5)" style="fill: #f03f37; stroke: #262626"/>
    <path d="M 66.733293 58.226491 
L 66.695397 57.358544 
L 66.582 56.497202 
L 66.393963 55.649022 
L 66.132717 54.820457 
L 65.800252 54.017815 
L 65.399097 53.247203 
L 64.932305 52.514486 
L 64.403429 51.825242 
L 63.816493 51.184714 
L 63.175966 50.597779 
L 62.486721 50.068903 
L 61.754005 49.602111 
L 60.983393 49.200956 
L 60.18075 48.86849 
L 59.352186 48.607245 
L 58.504005 48.419208 
L 57.642664 48.30581 
L 56.774717 48.267915 
L 55.90677 48.30581 
L 55.045428 48.419208 
L 54.197248 48.607245 
L 53.368683 48.86849 
L 52.566041 49.200956 
L 51.795429 49.602111 
L 51.062712 50.068903 
L 50.373467 50.597779 
L 49.73294 51.184714 
L 49.146005 51.825242 
L 48.617129 52.514486 
L 48.150337 53.247203 
L 47.749182 54.017815 
L 47.416716 54.820457 
L 47.155471 55.649022 
L 46.967434 56.497202 
L 46.854036 57.358544 
L 46.816141 58.226491 
L 46.854036 59.094438 
L 46.967434 59.955779 
L 47.155471 60.80396 
L 47.416716 61.632525 
L 47.749182 62.435167 
L 48.150337 63.205779 
L 48.617129 63.938495 
L 49.146005 64.62774 
L 49.73294 65.268268 
L 50.373467 65.855203 
L 51.062712 66.384079 
L 51.795429 66.850871 
L 52.566041 67.252026 
L 53.368683 67.584491 
L 54.197248 67.845737 
L 55.045428 68.033774 
L 55.90677 68.147172 
L 56.774717 68.185067 
L 57.642664 68.147172 
L 58.504005 68.033774 
L 59.352186 67.845737 
L 60.18075 67.584491 
L 60.983393 67.252026 
L 61.754005 66.850871 
L 62.486721 66.384079 
L 63.175966 65.855203 
L 63.816493 65.268268 
L 64.403429 64.62774 
L 64.932305 63.938495 
L 65.399097 63.205779 
L 65.800252 62.435167 
L 66.132717 61.632525 
L 66.393963 60.80396 
L 66.582 59.955779 
L 66.695397 59.094438 
L 66.733293 58.226491 
z
" clip-path="url(#pbf38b0c4e5)" style="fill: #f03f37; stroke: #262626"/>
    <path d="M 155.883975 58.038282 
L 159.4609 58.963232 
L 159.363562 59.33965 
L 155.786637 58.4147 
z
" clip-path="url(#pbf38b0c4e5)" style="fill: #4c4c4c"/>
    <path d="M 60.384966 156.794542 
L 61.663886 160.089751 
L 61.301427 160.230427 
L 60.022508 156.935217 
z
" clip-path="url(#pbf38b0c4e5)" style="fill: #4c4c4c"/>
    <path d="M 57.911389 58.859464 
L 58.090132 58.997638 
L 57.852343 59.305244 
L 57.673599 59.16707 
z
" clip-path="url(#pbf38b0c4e5)" style="fill: #4c4c4c"/>
    <path d="M 153.779465 148.183933 
L 153.195051 147.809242 
L 152.507241 147.632305 
L 151.771757 147.667457 
L 151.048183 147.91185 
L 150.395138 148.345684 
L 149.86553 148.933814 
L 149.502262 149.628591 
L 149.334766 150.373731 
L 149.37661 151.108865 
L 149.624405 151.774437 
L 150.058076 152.316528 
L 152.840068 155.010398 
L 156.74912 150.669403 
z
" clip-path="url(#pbf38b0c4e5)" style="fill: #f03f37; stroke: #262626"/>
    <path d="M 156.74912 150.669403 
L 152.840068 155.010398 
L 155.62206 157.704268 
L 156.231167 158.085909 
L 156.956873 158.252349 
L 157.740387 158.190104 
L 158.518233 157.904218 
L 159.227393 157.41785 
L 159.810416 156.770403 
L 160.22007 156.014331 
L 160.423166 155.210884 
L 160.40325 154.425154 
L 160.161937 153.720796 
L 159.718776 153.154872 
z
" clip-path="url(#pbf38b0c4e5)" style="fill: #477b9d; stroke: #262626"/>
    <path d="M 175.67802 160.160089 
L 175.629486 159.048473 
L 175.484253 157.945316 
L 175.243426 156.859015 
L 174.908838 155.797838 
L 174.483035 154.769859 
L 173.969259 153.782904 
L 173.371419 152.844483 
L 172.694065 151.961738 
L 171.942352 151.141388 
L 171.122001 150.389675 
L 170.239256 149.712321 
L 169.300835 149.114481 
L 168.31388 148.600704 
L 167.285902 148.174902 
L 166.224724 147.840314 
L 165.138423 147.599487 
L 164.035267 147.454253 
L 162.92365 147.405719 
L 161.812034 147.454253 
L 160.708877 147.599487 
L 159.622576 147.840314 
L 158.561399 148.174902 
L 157.53342 148.600704 
L 156.546465 149.114481 
L 155.608044 149.712321 
L 154.725299 150.389675 
L 153.904949 151.141388 
L 153.153236 151.961738 
L 152.475882 152.844483 
L 151.878042 153.782904 
L 151.364265 154.769859 
L 150.938463 155.797838 
L 150.603875 156.859015 
L 150.363048 157.945316 
L 150.217814 159.048473 
L 150.16928 160.160089 
L 150.217814 161.271706 
L 150.363048 162.374862 
L 150.603875 163.461163 
L 150.938463 164.522341 
L 151.364265 165.550319 
L 151.878042 166.537274 
L 152.475882 167.475695 
L 153.153236 168.35844 
L 153.904949 169.178791 
L 154.725299 169.930503 
L 155.608044 170.607857 
L 156.546465 171.205698 
L 157.53342 171.719474 
L 158.561399 172.145277 
L 159.622576 172.479865 
L 160.708877 172.720692 
L 161.812034 172.865925 
L 162.92365 172.914459 
L 164.035267 172.865925 
L 165.138423 172.720692 
L 166.224724 172.479865 
L 167.285902 172.145277 
L 168.31388 171.719474 
L 169.300835 171.205698 
L 170.239256 170.607857 
L 171.122001 169.930503 
L 171.942352 169.178791 
L 172.694065 168.35844 
L 173.371419 167.475695 
L 173.969259 166.537274 
L 174.483035 165.550319 
L 174.908838 164.522341 
L 175.243426 163.461163 
L 175.484253 162.374862 
L 175.629486 161.271706 
L 175.67802 160.160089 
z
" clip-path="url(#pbf38b0c4e5)" style="fill: #477b9d; stroke: #262626"/>
    <path d="M 159.4609 58.963232 
L 161.063572 59.377664 
L 160.966234 59.754082 
L 159.363562 59.33965 
z
" clip-path="url(#pbf38b0c4e5)" style="fill: #4c4c4c"/>
    <path d="M 61.663886 160.089751 
L 62.460711 162.142819 
L 62.098253 162.283494 
L 61.301427 160.230427 
z
" clip-path="url(#pbf38b0c4e5)" style="fill: #4c4c4c"/>
    <path d="M 58.090132 58.997638 
L 59.025953 59.721058 
L 58.788163 60.028664 
L 57.852343 59.305244 
z
" clip-path="url(#pbf38b0c4e5)" style="fill: #4c4c4c"/>
    <path d="M 163.000648 147.8137 
L 163.580144 121.455833 
L 163.968851 121.464379 
L 163.389354 147.822246 
z
" clip-path="url(#pbf38b0c4e5)" style="fill: #4c4c4c"/>
    <path d="M 150.683355 161.077963 
L 124.476118 162.626241 
L 124.453188 162.238118 
L 150.660426 160.68984 
z
" clip-path="url(#pbf38b0c4e5)" style="fill: #4c4c4c"/>
    <path d="M 160.113561 148.711787 
L 160.23007 149.053611 
L 160.585068 149.373193 
L 161.149795 149.644643 
L 161.878501 149.845969 
L 162.71215 149.960862 
L 163.583205 149.980013 
L 164.421098 149.90187 
L 165.157948 149.732765 
L 165.734059 149.486398 
L 166.10276 149.182726 
L 166.234179 148.846354 
L 166.566717 134.965445 
L 160.391413 134.829677 
z
" clip-path="url(#pbf38b0c4e5)" style="fill: #477b9d; stroke: #262626"/>
    <path d="M 160.391413 134.829677 
L 166.566717 134.965445 
L 166.899255 121.084537 
L 166.776886 120.908439 
L 166.412073 120.74106 
L 165.83437 120.595959 
L 165.090579 120.484891 
L 164.240958 120.416855 
L 163.354338 120.397362 
L 162.502548 120.427991 
L 161.754595 120.506262 
L 161.171073 120.625833 
L 160.799256 120.777017 
L 160.669266 120.947566 
z
" clip-path="url(#pbf38b0c4e5)" style="fill: #f03f37; stroke: #262626"/>
    <path d="M 174.383565 111.306096 
L 174.344044 110.400912 
L 174.225781 109.502617 
L 174.029677 108.618047 
L 173.757223 107.753935 
L 173.410494 106.916857 
L 172.992129 106.113184 
L 172.50531 105.349032 
L 171.953744 104.630217 
L 171.341628 103.96221 
L 170.67362 103.350093 
L 169.954805 102.798527 
L 169.190653 102.311709 
L 168.38698 101.893343 
L 167.549902 101.546614 
L 166.68579 101.27416 
L 165.80122 101.078056 
L 164.902925 100.959793 
L 163.997741 100.920272 
L 163.092557 100.959793 
L 162.194261 101.078056 
L 161.309692 101.27416 
L 160.44558 101.546614 
L 159.608502 101.893343 
L 158.804829 102.311709 
L 158.040677 102.798527 
L 157.321862 103.350093 
L 156.653854 103.96221 
L 156.041738 104.630217 
L 155.490171 105.349032 
L 155.003353 106.113184 
L 154.584987 106.916857 
L 154.238258 107.753935 
L 153.965805 108.618047 
L 153.7697 109.502617 
L 153.651438 110.400912 
L 153.611916 111.306096 
L 153.651438 112.211281 
L 153.7697 113.109576 
L 153.965805 113.994146 
L 154.238258 114.858258 
L 154.584987 115.695336 
L 155.003353 116.499009 
L 155.490171 117.263161 
L 156.041738 117.981976 
L 156.653854 118.649983 
L 157.321862 119.2621 
L 158.040677 119.813666 
L 158.804829 120.300484 
L 159.608502 120.71885 
L 160.44558 121.065579 
L 161.309692 121.338033 
L 162.194261 121.534137 
L 163.092557 121.6524 
L 163.997741 121.691921 
L 164.902925 121.6524 
L 165.80122 121.534137 
L 166.68579 121.338033 
L 167.549902 121.065579 
L 168.38698 120.71885 
L 169.190653 120.300484 
L 169.954805 119.813666 
L 170.67362 119.2621 
L 171.341628 118.649983 
L 171.953744 117.981976 
L 172.50531 117.263161 
L 172.992129 116.499009 
L 173.410494 115.695336 
L 173.757223 114.858258 
L 174.029677 113.994146 
L 174.225781 113.109576 
L 174.344044 112.211281 
L 174.383565 111.306096 
z
" clip-path="url(#pbf38b0c4e5)" style="fill: #f03f37; stroke: #262626"/>
    <path d="M 59.025953 59.721058 
L 59.132057 59.803081 
L 58.894268 60.110687 
L 58.788163 60.028664 
z
" clip-path="url(#pbf38b0c4e5)" style="fill: #4c4c4c"/>
    <path d="M 151.852442 163.880543 
L 152.201437 163.735715 
L 152.507534 163.355063 
L 152.745934 162.769427 
L 152.897323 162.02625 
L 152.949437 161.18574 
L 152.898054 160.315992 
L 152.747336 159.487465 
L 152.509494 158.767283 
L 152.203797 158.213791 
L 151.855009 157.871829 
L 151.491388 157.769101 
L 137.663497 158.555437 
L 138.028153 164.72785 
z
" clip-path="url(#pbf38b0c4e5)" style="fill: #477b9d; stroke: #262626"/>
    <path d="M 138.028153 164.72785 
L 137.663497 158.555437 
L 123.835606 159.341773 
L 123.649434 159.47946 
L 123.49326 159.858489 
L 123.379739 160.448152 
L 123.318066 161.200678 
L 123.313239 162.055103 
L 123.365647 162.942206 
L 123.471046 163.790119 
L 123.620896 164.53015 
L 123.803058 165.102344 
L 124.002774 165.460348 
L 124.203864 165.575156 
z
" clip-path="url(#pbf38b0c4e5)" style="fill: #f03f37; stroke: #262626"/>
    <path d="M 124.760341 163.029543 
L 124.720738 162.122506 
L 124.602234 161.222372 
L 124.405728 160.335991 
L 124.132716 159.47011 
L 123.785278 158.631318 
L 123.366055 157.826 
L 122.87824 157.060284 
L 122.325545 156.339997 
L 121.712175 155.670622 
L 121.0428 155.057252 
L 120.322514 154.504557 
L 119.556797 154.016742 
L 118.751479 153.59752 
L 117.912687 153.250081 
L 117.046806 152.977069 
L 116.160425 152.780564 
L 115.260291 152.662059 
L 114.353254 152.622457 
L 113.446216 152.662059 
L 112.546082 152.780564 
L 111.659702 152.977069 
L 110.793821 153.250081 
L 109.955029 153.59752 
L 109.14971 154.016742 
L 108.383994 154.504557 
L 107.663707 155.057252 
L 106.994332 155.670622 
L 106.380963 156.339997 
L 105.828267 157.060284 
L 105.340452 157.826 
L 104.92123 158.631318 
L 104.573791 159.47011 
L 104.30078 160.335991 
L 104.104274 161.222372 
L 103.985769 162.122506 
L 103.946167 163.029543 
L 103.985769 163.936581 
L 104.104274 164.836715 
L 104.30078 165.723096 
L 104.573791 166.588977 
L 104.92123 167.427768 
L 105.340452 168.233087 
L 105.828267 168.998803 
L 106.380963 169.71909 
L 106.994332 170.388465 
L 107.663707 171.001834 
L 108.383994 171.55453 
L 109.14971 172.042345 
L 109.955029 172.461567 
L 110.793821 172.809006 
L 111.659702 173.082017 
L 112.546082 173.278523 
L 113.446216 173.397028 
L 114.353254 173.43663 
L 115.260291 173.397028 
L 116.160425 173.278523 
L 117.046806 173.082017 
L 117.912687 172.809006 
L 118.751479 172.461567 
L 119.556797 172.042345 
L 120.322514 171.55453 
L 121.0428 171.001834 
L 121.712175 170.388465 
L 122.325545 169.71909 
L 122.87824 168.998803 
L 123.366055 168.233087 
L 123.785278 167.427768 
L 124.132716 166.588977 
L 124.405728 165.723096 
L 124.602234 164.836715 
L 124.720738 163.936581 
L 124.760341 163.029543 
z
" clip-path="url(#pbf38b0c4e5)" style="fill: #f03f37; stroke: #262626"/>
    <path d="M 164.028316 101.07117 
L 164.628351 73.779138 
L 165.017057 73.787684 
L 164.417022 101.079716 
z
" clip-path="url(#pbf38b0c4e5)" style="fill: #4c4c4c"/>
    <path d="M 59.132057 59.803081 
L 59.996766 60.471529 
L 59.758976 60.779135 
L 58.894268 60.110687 
z
" clip-path="url(#pbf38b0c4e5)" style="fill: #4c4c4c"/>
    <path d="M 104.168306 163.825991 
L 76.924863 165.435486 
L 76.901933 165.047363 
L 104.145377 163.437868 
z
" clip-path="url(#pbf38b0c4e5)" style="fill: #4c4c4c"/>
    <path d="M 158.711554 62.250569 
L 159.517036 62.325981 
L 160.321676 62.146189 
L 161.060287 61.725758 
L 161.67303 61.098749 
L 162.110265 60.315958 
L 162.336569 59.440803 
L 162.33361 58.544183 
L 162.101626 57.698738 
L 161.659412 56.972959 
L 161.042793 56.425647 
L 160.301723 56.101139 
L 157.280567 55.475307 
L 155.765731 61.333412 
z
" clip-path="url(#pbf38b0c4e5)" style="fill: #477b9d; stroke: #262626"/>
    <path d="M 155.765731 61.333412 
L 157.280567 55.475307 
L 154.259412 54.849474 
L 153.502877 54.774129 
L 152.749323 54.930382 
L 152.059798 55.305574 
L 151.490161 55.86931 
L 151.086564 56.575917 
L 150.881701 57.368153 
L 150.89217 58.181834 
L 151.117124 58.95104 
L 151.538336 59.613456 
L 152.121684 60.115416 
L 152.819908 60.416254 
z
" clip-path="url(#pbf38b0c4e5)" style="fill: #f03f37; stroke: #262626"/>
    <path d="M 168.004806 73.534033 
L 167.876681 73.508991 
L 167.50171 73.480323 
L 166.91027 73.45035 
L 166.150276 73.421502 
L 165.283299 73.396115 
L 164.379576 73.376246 
L 163.512321 73.363504 
L 162.751794 73.358923 
L 162.159609 73.362873 
L 161.78374 73.375034 
L 161.654638 73.39442 
L 161.375432 87.461038 
L 167.665511 87.59933 
z
" clip-path="url(#pbf38b0c4e5)" style="fill: #477b9d; stroke: #262626"/>
    <path d="M 167.665511 87.59933 
L 161.375432 87.461038 
L 161.096227 101.527656 
L 161.218595 101.703754 
L 161.583408 101.871133 
L 162.161112 102.016234 
L 162.904902 102.127302 
L 163.754523 102.195338 
L 164.641143 102.214831 
L 165.492933 102.184202 
L 166.240887 102.105931 
L 166.824409 101.98636 
L 167.196226 101.835176 
L 167.326216 101.664627 
z
" clip-path="url(#pbf38b0c4e5)" style="fill: #f03f37; stroke: #262626"/>
    <path d="M 178.344707 60.625332 
L 178.294353 59.472025 
L 178.143673 58.327496 
L 177.893814 57.200454 
L 177.546677 56.099478 
L 177.104905 55.032946 
L 176.57186 54.008976 
L 175.951598 53.03536 
L 175.248841 52.119508 
L 174.468936 51.268391 
L 173.617818 50.488486 
L 172.701967 49.785728 
L 171.728351 49.165466 
L 170.704381 48.632421 
L 169.637849 48.190649 
L 168.536873 47.843513 
L 167.409831 47.593654 
L 166.265301 47.442973 
L 165.111994 47.392619 
L 163.958687 47.442973 
L 162.814158 47.593654 
L 161.687116 47.843513 
L 160.58614 48.190649 
L 159.519608 48.632421 
L 158.495638 49.165466 
L 157.522022 49.785728 
L 156.60617 50.488486 
L 155.755053 51.268391 
L 154.975148 52.119508 
L 154.27239 53.03536 
L 153.652129 54.008976 
L 153.119083 55.032946 
L 152.677311 56.099478 
L 152.330175 57.200454 
L 152.080316 58.327496 
L 151.929636 59.472025 
L 151.879281 60.625332 
L 151.929636 61.778639 
L 152.080316 62.923169 
L 152.330175 64.05021 
L 152.677311 65.151187 
L 153.119083 66.217718 
L 153.652129 67.241689 
L 154.27239 68.215305 
L 154.975148 69.131156 
L 155.755053 69.982273 
L 156.60617 70.762178 
L 157.522022 71.464936 
L 158.495638 72.085198 
L 159.519608 72.618243 
L 160.58614 73.060015 
L 161.687116 73.407151 
L 162.814158 73.657011 
L 163.958687 73.807691 
L 165.111994 73.858045 
L 166.265301 73.807691 
L 167.409831 73.657011 
L 168.536873 73.407151 
L 169.637849 73.060015 
L 170.704381 72.618243 
L 171.728351 72.085198 
L 172.701967 71.464936 
L 173.617818 70.762178 
L 174.468936 69.982273 
L 175.248841 69.131156 
L 175.951598 68.215305 
L 176.57186 67.241689 
L 177.104905 66.217718 
L 177.546677 65.151187 
L 177.893814 64.05021 
L 178.143673 62.923169 
L 178.294353 61.778639 
L 178.344707 60.625332 
z
" clip-path="url(#pbf38b0c4e5)" style="fill: #477b9d; stroke: #262626"/>
    <path d="M 59.996766 60.471529 
L 60.217452 60.642127 
L 59.979663 60.949733 
L 59.758976 60.779135 
z
" clip-path="url(#pbf38b0c4e5)" style="fill: #4c4c4c"/>
    <path d="M 58.766887 161.976936 
L 59.1805 162.685596 
L 59.801464 163.243363 
L 60.579474 163.60505 
L 61.4515 163.741356 
L 62.346894 163.641237 
L 63.193119 163.312805 
L 63.921617 162.782667 
L 64.47337 162.093772 
L 64.803678 161.30193 
L 64.885782 160.471292 
L 64.71303 159.66915 
L 63.491377 156.940647 
L 57.828002 159.138686 
z
" clip-path="url(#pbf38b0c4e5)" style="fill: #477b9d; stroke: #262626"/>
    <path d="M 57.828002 159.138686 
L 63.491377 156.940647 
L 62.269723 154.212143 
L 61.885963 153.546442 
L 61.31534 153.019262 
L 60.604084 152.673313 
L 59.809815 152.536621 
L 58.996881 152.620261 
L 58.231141 152.917456 
L 57.57463 153.404129 
L 57.080536 154.040854 
L 56.788886 154.776046 
L 56.723308 155.550144 
L 56.889116 156.300436 
z
" clip-path="url(#pbf38b0c4e5)" style="fill: #f03f37; stroke: #262626"/>
    <path d="M 76.445619 162.074358 
L 76.451012 162.203447 
L 76.471206 162.579994 
L 76.504564 163.173493 
L 76.548384 163.935862 
L 76.599116 164.805338 
L 76.652649 165.711483 
L 76.704647 166.580884 
L 76.750898 167.34311 
L 76.787654 167.936408 
L 76.811937 168.312713 
L 76.821781 168.441539 
L 90.846341 167.579427 
L 90.474131 161.279144 
z
" clip-path="url(#pbf38b0c4e5)" style="fill: #477b9d; stroke: #262626"/>
    <path d="M 90.474131 161.279144 
L 90.846341 167.579427 
L 104.870901 166.717314 
L 105.057074 166.579627 
L 105.213247 166.200598 
L 105.326769 165.610935 
L 105.388441 164.858408 
L 105.393269 164.003983 
L 105.34086 163.11688 
L 105.235461 162.268967 
L 105.085611 161.528937 
L 104.903449 160.956742 
L 104.703734 160.598739 
L 104.502644 160.48393 
z
" clip-path="url(#pbf38b0c4e5)" style="fill: #f03f37; stroke: #262626"/>
    <path d="M 77.044564 166.018713 
L 76.993999 164.860579 
L 76.842689 163.71126 
L 76.591784 162.579502 
L 76.243195 161.473918 
L 75.799574 160.402923 
L 75.264298 159.374668 
L 74.641441 158.396977 
L 73.935742 157.477293 
L 73.152573 156.622614 
L 72.297894 155.839445 
L 71.37821 155.133747 
L 70.40052 154.510889 
L 69.372264 153.975613 
L 68.301269 153.531993 
L 67.195685 153.183403 
L 66.063927 152.932499 
L 64.914608 152.781188 
L 63.756475 152.730623 
L 62.598341 152.781188 
L 61.449022 152.932499 
L 60.317264 153.183403 
L 59.21168 153.531993 
L 58.140685 153.975613 
L 57.11243 154.510889 
L 56.134739 155.133747 
L 55.215055 155.839445 
L 54.360376 156.622614 
L 53.577207 157.477293 
L 52.871509 158.396977 
L 52.248651 159.374668 
L 51.713375 160.402923 
L 51.269755 161.473918 
L 50.921166 162.579502 
L 50.670261 163.71126 
L 50.51895 164.860579 
L 50.468385 166.018713 
L 50.51895 167.176846 
L 50.670261 168.326165 
L 50.921166 169.457923 
L 51.269755 170.563507 
L 51.713375 171.634502 
L 52.248651 172.662758 
L 52.871509 173.640448 
L 53.577207 174.560132 
L 54.360376 175.414811 
L 55.215055 176.19798 
L 56.134739 176.903679 
L 57.11243 177.526536 
L 58.140685 178.061812 
L 59.21168 178.505433 
L 60.317264 178.854022 
L 61.449022 179.104926 
L 62.598341 179.256237 
L 63.756475 179.306802 
L 64.914608 179.256237 
L 66.063927 179.104926 
L 67.195685 178.854022 
L 68.301269 178.505433 
L 69.372264 178.061812 
L 70.40052 177.526536 
L 71.37821 176.903679 
L 72.297894 176.19798 
L 73.152573 175.414811 
L 73.935742 174.560132 
L 74.641441 173.640448 
L 75.264298 172.662758 
L 75.799574 171.634502 
L 76.243195 170.563507 
L 76.591784 169.457923 
L 76.842689 168.326165 
L 76.993999 167.176846 
L 77.044564 166.018713 
z
" clip-path="url(#pbf38b0c4e5)" style="fill: #477b9d; stroke: #262626"/>
    <path d="M 60.217452 60.642127 
L 60.799486 61.092058 
L 60.561696 61.399664 
L 59.979663 60.949733 
z
" clip-path="url(#pbf38b0c4e5)" style="fill: #4c4c4c"/>
    <path d="M 152.414711 61.038394 
L 125.230868 61.506471 
L 125.224174 61.117729 
L 152.408018 60.649652 
z
" clip-path="url(#pbf38b0c4e5)" style="fill: #4c4c4c"/>
    <path d="M 63.36575 153.190467 
L 62.946175 125.771435 
L 63.334929 125.765486 
L 63.754504 153.184518 
z
" clip-path="url(#pbf38b0c4e5)" style="fill: #4c4c4c"/>
    <path d="M 153.696691 63.998213 
L 154.097068 63.862656 
L 154.460579 63.48083 
L 154.757775 62.883669 
L 154.964578 62.119552 
L 155.064235 61.250381 
L 155.048673 60.346574 
L 154.919151 59.48135 
L 154.686163 58.724805 
L 154.368585 58.13823 
L 153.992144 57.769145 
L 153.587338 57.647452 
L 139.130902 57.863505 
L 139.241387 64.27999 
z
" clip-path="url(#pbf38b0c4e5)" style="fill: #477b9d; stroke: #262626"/>
    <path d="M 139.241387 64.27999 
L 139.130902 57.863505 
L 124.674467 58.079558 
L 124.45477 58.214668 
L 124.257393 58.601406 
L 124.098326 59.208443 
L 123.990455 59.986599 
L 123.942521 60.872832 
L 123.958406 61.795347 
L 124.036823 62.679405 
L 124.171419 63.453386 
L 124.351291 64.054586 
L 124.561865 64.4343 
L 124.786084 64.561766 
z
" clip-path="url(#pbf38b0c4e5)" style="fill: #f03f37; stroke: #262626"/>
    <path d="M 125.538607 61.492799 
L 125.497489 60.551056 
L 125.37445 59.616481 
L 125.170426 58.696186 
L 124.886969 57.797175 
L 124.526236 56.92629 
L 124.090974 56.090158 
L 123.584494 55.295144 
L 123.010651 54.547298 
L 122.373813 53.852311 
L 121.678827 53.215474 
L 120.93098 52.641631 
L 120.135966 52.135151 
L 119.299835 51.699889 
L 118.42895 51.339156 
L 117.529939 51.055699 
L 116.609643 50.851675 
L 115.675068 50.728635 
L 114.733326 50.687518 
L 113.791584 50.728635 
L 112.857009 50.851675 
L 111.936714 51.055699 
L 111.037702 51.339156 
L 110.166817 51.699889 
L 109.330686 52.135151 
L 108.535672 52.641631 
L 107.787826 53.215474 
L 107.092839 53.852311 
L 106.456001 54.547298 
L 105.882158 55.295144 
L 105.375678 56.090158 
L 104.940416 56.92629 
L 104.579684 57.797175 
L 104.296226 58.696186 
L 104.092202 59.616481 
L 103.969163 60.551056 
L 103.928045 61.492799 
L 103.969163 62.434541 
L 104.092202 63.369116 
L 104.296226 64.289411 
L 104.579684 65.188422 
L 104.940416 66.059308 
L 105.375678 66.895439 
L 105.882158 67.690453 
L 106.456001 68.438299 
L 107.092839 69.133286 
L 107.787826 69.770124 
L 108.535672 70.343967 
L 109.330686 70.850446 
L 110.166817 71.285709 
L 111.037702 71.646441 
L 111.936714 71.929898 
L 112.857009 72.133923 
L 113.791584 72.256962 
L 114.733326 72.298079 
L 115.675068 72.256962 
L 116.609643 72.133923 
L 117.529939 71.929898 
L 118.42895 71.646441 
L 119.299835 71.285709 
L 120.135966 70.850446 
L 120.93098 70.343967 
L 121.678827 69.770124 
L 122.373813 69.133286 
L 123.010651 68.438299 
L 123.584494 67.690453 
L 124.090974 66.895439 
L 124.526236 66.059308 
L 124.886969 65.188422 
L 125.170426 64.289411 
L 125.37445 63.369116 
L 125.497489 62.434541 
L 125.538607 61.492799 
z
" clip-path="url(#pbf38b0c4e5)" style="fill: #f03f37; stroke: #262626"/>
    <path d="M 60.389705 154.435194 
L 60.524812 154.821353 
L 60.907308 155.172273 
L 61.506206 155.459527 
L 62.272987 155.659843 
L 63.145531 155.756992 
L 64.053149 155.743103 
L 64.922312 155.619302 
L 65.682605 155.395619 
L 66.272433 155.090175 
L 66.644013 154.727715 
L 66.767241 154.337603 
L 66.574173 139.781293 
L 60.137296 139.879792 
z
" clip-path="url(#pbf38b0c4e5)" style="fill: #477b9d; stroke: #262626"/>
    <path d="M 60.137296 139.879792 
L 66.574173 139.781293 
L 66.381105 125.224983 
L 66.246452 125.025596 
L 65.859565 124.846389 
L 65.251788 124.70188 
L 64.472359 124.603777 
L 63.584422 124.560026 
L 62.659914 124.574173 
L 61.773732 124.645072 
L 60.997669 124.766978 
L 60.394598 124.930016 
L 60.013376 125.120977 
L 59.884887 125.32439 
z
" clip-path="url(#pbf38b0c4e5)" style="fill: #f03f37; stroke: #262626"/>
    <path d="M 73.807122 115.199603 
L 73.765918 114.255855 
L 73.642616 113.319289 
L 73.438157 112.397033 
L 73.154096 111.496107 
L 72.792595 110.623366 
L 72.356405 109.785454 
L 71.848847 108.988746 
L 71.273782 108.239307 
L 70.635587 107.542839 
L 69.93912 106.904645 
L 69.189681 106.32958 
L 68.392973 105.822021 
L 67.55506 105.385831 
L 66.68232 105.02433 
L 65.781394 104.740269 
L 64.859138 104.53581 
L 63.922572 104.412509 
L 62.978824 104.371304 
L 62.035075 104.412509 
L 61.098509 104.53581 
L 60.176254 104.740269 
L 59.275327 105.02433 
L 58.402587 105.385831 
L 57.564674 105.822021 
L 56.767966 106.32958 
L 56.018527 106.904645 
L 55.32206 107.542839 
L 54.683865 108.239307 
L 54.1088 108.988746 
L 53.601242 109.785454 
L 53.165052 110.623366 
L 52.803551 111.496107 
L 52.51949 112.397033 
L 52.315031 113.319289 
L 52.19173 114.255855 
L 52.150525 115.199603 
L 52.19173 116.143351 
L 52.315031 117.079917 
L 52.51949 118.002173 
L 52.803551 118.903099 
L 53.165052 119.77584 
L 53.601242 120.613752 
L 54.1088 121.41046 
L 54.683865 122.159899 
L 55.32206 122.856367 
L 56.018527 123.494561 
L 56.767966 124.069626 
L 57.564674 124.577185 
L 58.402587 125.013375 
L 59.275327 125.374876 
L 60.176254 125.658937 
L 61.098509 125.863396 
L 62.035075 125.986697 
L 62.978824 126.027902 
L 63.922572 125.986697 
L 64.859138 125.863396 
L 65.781394 125.658937 
L 66.68232 125.374876 
L 67.55506 125.013375 
L 68.392973 124.577185 
L 69.189681 124.069626 
L 69.93912 123.494561 
L 70.635587 122.856367 
L 71.273782 122.159899 
L 71.848847 121.41046 
L 72.356405 120.613752 
L 72.792595 119.77584 
L 73.154096 118.903099 
L 73.438157 118.002173 
L 73.642616 117.079917 
L 73.765918 116.143351 
L 73.807122 115.199603 
z
" clip-path="url(#pbf38b0c4e5)" style="fill: #f03f37; stroke: #262626"/>
    <path d="M 104.150863 61.869446 
L 75.850319 62.356751 
L 75.843625 61.968009 
L 104.144169 61.480704 
z
" clip-path="url(#pbf38b0c4e5)" style="fill: #4c4c4c"/>
    <path d="M 62.621445 104.550538 
L 62.186356 76.117655 
L 62.57511 76.111706 
L 63.0102 104.54459 
z
" clip-path="url(#pbf38b0c4e5)" style="fill: #4c4c4c"/>
    <path d="M 59.847658 64.790678 
L 60.668146 65.25527 
L 61.586363 65.469812 
L 62.527921 65.416925 
L 63.416541 65.100891 
L 64.180233 64.547315 
L 64.757125 63.801043 
L 65.100483 62.922535 
L 65.182488 61.982962 
L 64.996499 61.058442 
L 64.557581 60.223875 
L 63.901295 59.546872 
L 61.335397 57.76962 
L 57.481382 62.755195 
z
" clip-path="url(#pbf38b0c4e5)" style="fill: #477b9d; stroke: #262626"/>
    <path d="M 57.481382 62.755195 
L 61.335397 57.76962 
L 58.769499 55.992369 
L 58.029727 55.573461 
L 57.201859 55.379982 
L 56.352962 55.427605 
L 55.551811 55.712472 
L 54.863309 56.211506 
L 54.343234 56.884277 
L 54.033721 57.676282 
L 53.959844 58.523356 
L 54.127587 59.356876 
L 54.523363 60.109314 
L 55.115106 60.719712 
z
" clip-path="url(#pbf38b0c4e5)" style="fill: #f03f37; stroke: #262626"/>
    <path d="M 75.516357 58.853616 
L 75.516102 58.98788 
L 75.520489 59.379703 
L 75.529163 59.997345 
L 75.541423 60.790766 
L 75.556274 61.695689 
L 75.572513 62.638802 
L 75.588825 63.5437 
L 75.603889 64.337073 
L 75.616483 64.954647 
L 75.625588 65.34639 
L 75.630466 65.480565 
L 90.211326 65.193302 
L 90.098463 58.638724 
z
" clip-path="url(#pbf38b0c4e5)" style="fill: #477b9d; stroke: #262626"/>
    <path d="M 90.098463 58.638724 
L 90.211326 65.193302 
L 104.792185 64.906039 
L 105.011882 64.77093 
L 105.20926 64.384191 
L 105.368327 63.777155 
L 105.476197 62.998999 
L 105.524131 62.112765 
L 105.508247 61.190251 
L 105.42983 60.306193 
L 105.295233 59.532212 
L 105.115362 58.931011 
L 104.904787 58.551297 
L 104.680569 58.423832 
z
" clip-path="url(#pbf38b0c4e5)" style="fill: #f03f37; stroke: #262626"/>
    <path d="M 65.68943 75.745026 
L 65.554809 75.721119 
L 65.162649 75.703257 
L 64.544718 75.692887 
L 63.751079 75.690849 
L 62.846028 75.697307 
L 61.902885 75.711739 
L 60.99806 75.732976 
L 60.204855 75.759297 
L 59.587531 75.78857 
L 59.196101 75.818422 
L 59.062275 75.846437 
L 59.319408 90.51033 
L 65.881095 90.409921 
z
" clip-path="url(#pbf38b0c4e5)" style="fill: #477b9d; stroke: #262626"/>
    <path d="M 65.881095 90.409921 
L 59.319408 90.51033 
L 59.576542 105.174223 
L 59.711195 105.37361 
L 60.098082 105.552817 
L 60.705859 105.697326 
L 61.485288 105.795429 
L 62.373225 105.83918 
L 63.297733 105.825033 
L 64.183915 105.754134 
L 64.959978 105.632228 
L 65.563049 105.46919 
L 65.944271 105.278229 
L 66.072761 105.074816 
z
" clip-path="url(#pbf38b0c4e5)" style="fill: #f03f37; stroke: #262626"/>
    <path d="M 75.979023 62.397869 
L 75.926478 61.194406 
L 75.769245 60.000102 
L 75.50852 58.824046 
L 75.146287 57.67519 
L 74.685303 56.562276 
L 74.129076 55.493774 
L 73.48184 54.477817 
L 72.74852 53.522136 
L 71.934698 52.634004 
L 71.046566 51.820182 
L 70.090886 51.086862 
L 69.074928 50.439626 
L 68.006427 49.883399 
L 66.893512 49.422415 
L 65.744656 49.060182 
L 64.568601 48.799457 
L 63.374297 48.642224 
L 62.170834 48.58968 
L 60.967371 48.642224 
L 59.773067 48.799457 
L 58.597011 49.060182 
L 57.448155 49.422415 
L 56.335241 49.883399 
L 55.266739 50.439626 
L 54.250782 51.086862 
L 53.295101 51.820182 
L 52.40697 52.634004 
L 51.593147 53.522136 
L 50.859827 54.477817 
L 50.212591 55.493774 
L 49.656364 56.562276 
L 49.19538 57.67519 
L 48.833147 58.824046 
L 48.572422 60.000102 
L 48.415189 61.194406 
L 48.362645 62.397869 
L 48.415189 63.601332 
L 48.572422 64.795635 
L 48.833147 65.971691 
L 49.19538 67.120547 
L 49.656364 68.233461 
L 50.212591 69.301963 
L 50.859827 70.31792 
L 51.593147 71.273601 
L 52.40697 72.161733 
L 53.295101 72.975555 
L 54.250782 73.708875 
L 55.266739 74.356111 
L 56.335241 74.912338 
L 57.448155 75.373322 
L 58.597011 75.735555 
L 59.773067 75.99628 
L 60.967371 76.153513 
L 62.170834 76.206058 
L 63.374297 76.153513 
L 64.568601 75.99628 
L 65.744656 75.735555 
L 66.893512 75.373322 
L 68.006427 74.912338 
L 69.074928 74.356111 
L 70.090886 73.708875 
L 71.046566 72.975555 
L 71.934698 72.161733 
L 72.74852 71.273601 
L 73.48184 70.31792 
L 74.129076 69.301963 
L 74.685303 68.233461 
L 75.146287 67.120547 
L 75.50852 65.971691 
L 75.769245 64.795635 
L 75.926478 63.601332 
L 75.979023 62.397869 
z
" clip-path="url(#pbf38b0c4e5)" style="fill: #477b9d; stroke: #262626"/>
   </g>
   <g id="line2d_1">
    <path d="M 29.556 179.244 
L 29.556 171.586368 
" clip-path="url(#pbf38b0c4e5)" style="fill: none; stroke: #4c4c4c; stroke-width: 0.75; stroke-linecap: round"/>
   </g>
   <g id="line2d_2">
    <path d="M 29.556 179.244 
L 21.931005 179.509072 
" clip-path="url(#pbf38b0c4e5)" style="fill: none; stroke: #4c4c4c; stroke-width: 0.75; stroke-linecap: round"/>
   </g>
   <g id="line2d_3">
    <path d="M 29.556 179.244 
L 31.080999 180.569359 
" clip-path="url(#pbf38b0c4e5)" style="fill: none; stroke: #4c4c4c; stroke-width: 0.75; stroke-linecap: round"/>
   </g>
   <g id="text_1">
    <path d="M 27.835102 165.872476 
L 27.835102 171.227945 
L 28.472602 171.227945 
L 28.472602 170.709976 
L 28.487836 170.709976 
Q 28.592133 170.883414 28.745648 170.999429 
Q 28.900336 171.115445 29.072602 171.183414 
Q 29.244867 171.250211 29.420648 171.279507 
Q 29.597602 171.309976 29.739398 171.309976 
Q 30.182367 171.309976 30.516352 171.152945 
Q 30.850336 170.995914 31.070648 170.721695 
Q 31.292133 170.447476 31.401117 170.080679 
Q 31.510102 169.712711 31.510102 169.300211 
Q 31.510102 168.887711 31.397602 168.520914 
Q 31.285102 168.152945 31.063617 167.871695 
Q 30.842133 167.590445 30.508148 167.425211 
Q 30.175336 167.259976 29.725336 167.259976 
Q 29.319867 167.259976 28.982367 167.406461 
Q 28.644867 167.552945 28.487836 167.875211 
L 28.472602 167.875211 
L 28.472602 165.872476 
L 27.835102 165.872476 
z
M 30.835102 169.255679 
Q 30.835102 169.540445 30.774164 169.811148 
Q 30.714398 170.080679 30.579633 170.290445 
Q 30.444867 170.500211 30.223383 170.627945 
Q 30.001898 170.755679 29.672602 170.755679 
Q 29.342133 170.755679 29.10893 170.632632 
Q 28.876898 170.508414 28.730414 170.305679 
Q 28.585102 170.102945 28.517133 169.836929 
Q 28.450336 169.570914 28.450336 169.284976 
Q 28.450336 169.015445 28.513617 168.752945 
Q 28.576898 168.490445 28.719867 168.284195 
Q 28.862836 168.077945 29.087836 167.950211 
Q 29.312836 167.822476 29.635102 167.822476 
Q 29.942133 167.822476 30.170648 167.943179 
Q 30.400336 168.062711 30.545648 168.265445 
Q 30.692133 168.468179 30.763617 168.727164 
Q 30.835102 168.984976 30.835102 169.255679 
z
" style="fill: #4c4c4c; stroke: #ffffff; stroke-width: 2.25"/>
    <path d="M 27.835102 165.872476 
L 27.835102 171.227945 
L 28.472602 171.227945 
L 28.472602 170.709976 
L 28.487836 170.709976 
Q 28.592133 170.883414 28.745648 170.999429 
Q 28.900336 171.115445 29.072602 171.183414 
Q 29.244867 171.250211 29.420648 171.279507 
Q 29.597602 171.309976 29.739398 171.309976 
Q 30.182367 171.309976 30.516352 171.152945 
Q 30.850336 170.995914 31.070648 170.721695 
Q 31.292133 170.447476 31.401117 170.080679 
Q 31.510102 169.712711 31.510102 169.300211 
Q 31.510102 168.887711 31.397602 168.520914 
Q 31.285102 168.152945 31.063617 167.871695 
Q 30.842133 167.590445 30.508148 167.425211 
Q 30.175336 167.259976 29.725336 167.259976 
Q 29.319867 167.259976 28.982367 167.406461 
Q 28.644867 167.552945 28.487836 167.875211 
L 28.472602 167.875211 
L 28.472602 165.872476 
L 27.835102 165.872476 
z
M 30.835102 169.255679 
Q 30.835102 169.540445 30.774164 169.811148 
Q 30.714398 170.080679 30.579633 170.290445 
Q 30.444867 170.500211 30.223383 170.627945 
Q 30.001898 170.755679 29.672602 170.755679 
Q 29.342133 170.755679 29.10893 170.632632 
Q 28.876898 170.508414 28.730414 170.305679 
Q 28.585102 170.102945 28.517133 169.836929 
Q 28.450336 169.570914 28.450336 169.284976 
Q 28.450336 169.015445 28.513617 168.752945 
Q 28.576898 168.490445 28.719867 168.284195 
Q 28.862836 168.077945 29.087836 167.950211 
Q 29.312836 167.822476 29.635102 167.822476 
Q 29.942133 167.822476 30.170648 167.943179 
Q 30.400336 168.062711 30.545648 168.265445 
Q 30.692133 168.468179 30.763617 168.727164 
Q 30.835102 168.984976 30.835102 169.255679 
z
" style="fill: #4c4c4c"/>
   </g>
   <g id="text_2">
    <path d="M 20.742139 178.895429 
L 21.401905 178.895429 
Q 21.364405 178.549726 21.221436 178.298945 
Q 21.079639 178.046992 20.858155 177.882929 
Q 20.63667 177.717695 20.348389 177.639179 
Q 20.060108 177.559492 19.729639 177.559492 
Q 19.272608 177.559492 18.926905 177.721211 
Q 18.582373 177.882929 18.352686 178.164179 
Q 18.12417 178.445429 18.01167 178.823945 
Q 17.89917 179.202461 17.89917 179.637226 
Q 17.89917 180.071992 18.015186 180.436445 
Q 18.132373 180.799726 18.360889 181.062226 
Q 18.589405 181.324726 18.93042 181.467695 
Q 19.272608 181.609492 19.714405 181.609492 
Q 20.457373 181.609492 20.888623 181.220429 
Q 21.319873 180.830195 21.42417 180.109492 
L 20.772608 180.109492 
Q 20.71167 180.559492 20.445655 180.807929 
Q 20.179639 181.055195 19.707373 181.055195 
Q 19.407373 181.055195 19.189405 180.935664 
Q 18.972608 180.814961 18.83667 180.616914 
Q 18.701905 180.417695 18.637451 180.163398 
Q 18.57417 179.907929 18.57417 179.637226 
Q 18.57417 179.345429 18.633936 179.071211 
Q 18.694873 178.796992 18.833155 178.587226 
Q 18.972608 178.377461 19.204639 178.249726 
Q 19.43667 178.121992 19.782373 178.121992 
Q 20.18667 178.121992 20.426905 178.324726 
Q 20.667139 178.527461 20.742139 178.895429 
z
" style="fill: #4c4c4c; stroke: #ffffff; stroke-width: 2.25"/>
    <path d="M 20.742139 178.895429 
L 21.401905 178.895429 
Q 21.364405 178.549726 21.221436 178.298945 
Q 21.079639 178.046992 20.858155 177.882929 
Q 20.63667 177.717695 20.348389 177.639179 
Q 20.060108 177.559492 19.729639 177.559492 
Q 19.272608 177.559492 18.926905 177.721211 
Q 18.582373 177.882929 18.352686 178.164179 
Q 18.12417 178.445429 18.01167 178.823945 
Q 17.89917 179.202461 17.89917 179.637226 
Q 17.89917 180.071992 18.015186 180.436445 
Q 18.132373 180.799726 18.360889 181.062226 
Q 18.589405 181.324726 18.93042 181.467695 
Q 19.272608 181.609492 19.714405 181.609492 
Q 20.457373 181.609492 20.888623 181.220429 
Q 21.319873 180.830195 21.42417 180.109492 
L 20.772608 180.109492 
Q 20.71167 180.559492 20.445655 180.807929 
Q 20.179639 181.055195 19.707373 181.055195 
Q 19.407373 181.055195 19.189405 180.935664 
Q 18.972608 180.814961 18.83667 180.616914 
Q 18.701905 180.417695 18.637451 180.163398 
Q 18.57417 179.907929 18.57417 179.637226 
Q 18.57417 179.345429 18.633936 179.071211 
Q 18.694873 178.796992 18.833155 178.587226 
Q 18.972608 178.377461 19.204639 178.249726 
Q 19.43667 178.121992 19.782373 178.121992 
Q 20.18667 178.121992 20.426905 178.324726 
Q 20.667139 178.527461 20.742139 178.895429 
z
" style="fill: #4c4c4c"/>
   </g>
   <g id="text_3">
    <path d="M 33.690526 183.332717 
Q 33.525291 183.429983 33.232323 183.429983 
Q 32.985057 183.429983 32.838573 183.291702 
Q 32.69326 183.153421 32.69326 182.838186 
Q 32.43076 183.153421 32.081541 183.291702 
Q 31.732323 183.429983 31.328026 183.429983 
Q 31.065526 183.429983 30.828807 183.370217 
Q 30.59326 183.310452 30.419823 183.182717 
Q 30.247557 183.054983 30.145604 182.848733 
Q 30.044823 182.642483 30.044823 182.350686 
Q 30.044823 182.020217 30.157323 181.810452 
Q 30.269823 181.600686 30.453807 181.469436 
Q 30.637791 181.338186 30.873338 181.271389 
Q 31.110057 181.203421 31.357323 181.157717 
Q 31.619823 181.104983 31.856541 181.079202 
Q 32.09326 181.053421 32.272557 181.004202 
Q 32.453026 180.954983 32.557323 180.861233 
Q 32.662791 180.767483 32.662791 180.588186 
Q 32.662791 180.378421 32.584276 180.250686 
Q 32.50576 180.122952 32.381541 180.056155 
Q 32.257323 179.988186 32.103807 179.965921 
Q 31.950291 179.942483 31.800291 179.942483 
Q 31.394823 179.942483 31.125291 180.097171 
Q 30.85576 180.250686 30.832323 180.678421 
L 30.194823 180.678421 
Q 30.210057 180.317483 30.344823 180.070217 
Q 30.48076 179.822952 30.70576 179.669436 
Q 30.93076 179.515921 31.219041 179.447952 
Q 31.507323 179.379983 31.837791 179.379983 
Q 32.100291 179.379983 32.359276 179.417483 
Q 32.61826 179.454983 32.828026 179.572171 
Q 33.037791 179.688186 33.165526 179.897952 
Q 33.29326 180.107717 33.29326 180.445217 
L 33.29326 182.440921 
Q 33.29326 182.665921 33.319041 182.771389 
Q 33.344823 182.875686 33.494823 182.875686 
Q 33.578026 182.875686 33.690526 182.838186 
L 33.690526 183.332717 
z
M 32.65576 181.345217 
Q 32.535057 181.435452 32.339354 181.476467 
Q 32.144823 181.517483 31.931541 181.544436 
Q 31.71826 181.570217 31.500291 181.604202 
Q 31.282323 181.638186 31.110057 181.713186 
Q 30.937791 181.788186 30.828807 181.927639 
Q 30.719823 182.065921 30.719823 182.304983 
Q 30.719823 182.463186 30.783104 182.572171 
Q 30.847557 182.679983 30.948338 182.747952 
Q 31.050291 182.815921 31.185057 182.846389 
Q 31.319823 182.875686 31.469823 182.875686 
Q 31.785057 182.875686 32.010057 182.790139 
Q 32.235057 182.703421 32.376854 182.572171 
Q 32.519823 182.440921 32.587791 182.287405 
Q 32.65576 182.132717 32.65576 181.997952 
L 32.65576 181.345217 
z
" style="fill: #4c4c4c; stroke: #ffffff; stroke-width: 2.25"/>
    <path d="M 33.690526 183.332717 
Q 33.525291 183.429983 33.232323 183.429983 
Q 32.985057 183.429983 32.838573 183.291702 
Q 32.69326 183.153421 32.69326 182.838186 
Q 32.43076 183.153421 32.081541 183.291702 
Q 31.732323 183.429983 31.328026 183.429983 
Q 31.065526 183.429983 30.828807 183.370217 
Q 30.59326 183.310452 30.419823 183.182717 
Q 30.247557 183.054983 30.145604 182.848733 
Q 30.044823 182.642483 30.044823 182.350686 
Q 30.044823 182.020217 30.157323 181.810452 
Q 30.269823 181.600686 30.453807 181.469436 
Q 30.637791 181.338186 30.873338 181.271389 
Q 31.110057 181.203421 31.357323 181.157717 
Q 31.619823 181.104983 31.856541 181.079202 
Q 32.09326 181.053421 32.272557 181.004202 
Q 32.453026 180.954983 32.557323 180.861233 
Q 32.662791 180.767483 32.662791 180.588186 
Q 32.662791 180.378421 32.584276 180.250686 
Q 32.50576 180.122952 32.381541 180.056155 
Q 32.257323 179.988186 32.103807 179.965921 
Q 31.950291 179.942483 31.800291 179.942483 
Q 31.394823 179.942483 31.125291 180.097171 
Q 30.85576 180.250686 30.832323 180.678421 
L 30.194823 180.678421 
Q 30.210057 180.317483 30.344823 180.070217 
Q 30.48076 179.822952 30.70576 179.669436 
Q 30.93076 179.515921 31.219041 179.447952 
Q 31.507323 179.379983 31.837791 179.379983 
Q 32.100291 179.379983 32.359276 179.417483 
Q 32.61826 179.454983 32.828026 179.572171 
Q 33.037791 179.688186 33.165526 179.897952 
Q 33.29326 180.107717 33.29326 180.445217 
L 33.29326 182.440921 
Q 33.29326 182.665921 33.319041 182.771389 
Q 33.344823 182.875686 33.494823 182.875686 
Q 33.578026 182.875686 33.690526 182.838186 
L 33.690526 183.332717 
z
M 32.65576 181.345217 
Q 32.535057 181.435452 32.339354 181.476467 
Q 32.144823 181.517483 31.931541 181.544436 
Q 31.71826 181.570217 31.500291 181.604202 
Q 31.282323 181.638186 31.110057 181.713186 
Q 30.937791 181.788186 30.828807 181.927639 
Q 30.719823 182.065921 30.719823 182.304983 
Q 30.719823 182.463186 30.783104 182.572171 
Q 30.847557 182.679983 30.948338 182.747952 
Q 31.050291 182.815921 31.185057 182.846389 
Q 31.319823 182.875686 31.469823 182.875686 
Q 31.785057 182.875686 32.010057 182.790139 
Q 32.235057 182.703421 32.376854 182.572171 
Q 32.519823 182.440921 32.587791 182.287405 
Q 32.65576 182.132717 32.65576 181.997952 
L 32.65576 181.345217 
z
" style="fill: #4c4c4c"/>
   </g>
  </g>
 </g>
 <defs>
  <clipPath id="pbf38b0c4e5">
   <rect x="7.2" y="7.2" width="194.4" height="194.4"/>
  </clipPath>
 </defs>
</svg>
