<?xml version="1.0" encoding="utf-8" standalone="no"?>
<!DOCTYPE svg PUBLIC "-//W3C//DTD SVG 1.1//EN"
  "http://www.w3.org/Graphics/SVG/1.1/DTD/svg11.dtd">
<svg xmlns:xlink="http://www.w3.org/1999/xlink" width="208.8pt" height="208.454587pt" viewBox="0 0 208.8 208.454587" xmlns="http://www.w3.org/2000/svg" version="1.1">
 <metadata>
  <rdf:RDF xmlns:dc="http://purl.org/dc/elements/1.1/" xmlns:cc="http://creativecommons.org/ns#" xmlns:rdf="http://www.w3.org/1999/02/22-rdf-syntax-ns#">
   <cc:Work>
    <dc:type rdf:resource="http://purl.org/dc/dcmitype/StillImage"/>
    <dc:date>2026-02-25T16:16:41.938842</dc:date>
    <dc:format>image/svg+xml</dc:format>
    <dc:creator>
     <cc:Agent>
      <dc:title>Matplotlib v3.10.7, https://matplotlib.org/</dc:title>
     </cc:Agent>
    </dc:creator>
   </cc:Work>
  </rdf:RDF>
 </metadata>
 <defs>
  <style type="text/css">*{stroke-linejoin: round; stroke-linecap: butt}</style>
 </defs>
 <g id="figure_1">
  <g id="patch_1">
   <path d="M 0 208.454587 
L 208.8 208.454587 
L 208.8 0 
L 0 0 
z
" style="fill: #ffffff"/>
  </g>
  <g id="axes_1">
   <g id="PolyCollection_1">
    <path d="M 136.870593 126.759778 
L 136.836769 125.985087 
L 136.735555 125.216292 
L 136.567722 124.459244 
L 136.334546 123.719705 
L 136.037802 123.003302 
L 135.679749 122.315489 
L 135.263111 121.661499 
L 134.79106 121.04631 
L 134.267188 120.474604 
L 133.695482 119.950732 
L 133.080293 119.478681 
L 132.426303 119.062043 
L 131.73849 118.70399 
L 131.022087 118.407246 
L 130.282548 118.17407 
L 129.5255 118.006237 
L 128.756705 117.905023 
L 127.982014 117.871199 
L 127.207323 117.905023 
L 126.438529 118.006237 
L 125.681481 118.17407 
L 124.941941 118.407246 
L 124.225539 118.70399 
L 123.537725 119.062043 
L 122.883735 119.478681 
L 122.268546 119.950732 
L 121.69684 120.474604 
L 121.172968 121.04631 
L 120.700917 121.661499 
L 120.284279 122.315489 
L 119.926226 123.003302 
L 119.629483 123.719705 
L 119.396307 124.459244 
L 119.228473 125.216292 
L 119.127259 125.985087 
L 119.093436 126.759778 
L 119.127259 127.534469 
L 119.228473 128.303263 
L 119.396307 129.060311 
L 119.629483 129.799851 
L 119.926226 130.516253 
L 120.284279 131.204067 
L 120.700917 131.858057 
L 121.172968 132.473246 
L 121.69684 133.044952 
L 122.268546 133.568824 
L 122.883735 134.040875 
L 123.537725 134.457513 
L 124.225539 134.815566 
L 124.941941 135.112309 
L 125.681481 135.345485 
L 126.438529 135.513319 
L 127.207323 135.614533 
L 127.982014 135.648356 
L 128.756705 135.614533 
L 129.5255 135.513319 
L 130.282548 135.345485 
L 131.022087 135.112309 
L 131.73849 134.815566 
L 132.426303 134.457513 
L 133.080293 134.040875 
L 133.695482 133.568824 
L 134.267188 133.044952 
L 134.79106 132.473246 
L 135.263111 131.858057 
L 135.679749 131.204067 
L 136.037802 130.516253 
L 136.334546 129.799851 
L 136.567722 129.060311 
L 136.735555 128.303263 
L 136.836769 127.534469 
L 136.870593 126.759778 
z
" clip-path="url(#pbf7b878745)" style="fill: #477b9d; stroke: #262626"/>
    <path d="M 127.924349 118.083787 
L 128.148047 99.604338 
L 128.473379 99.608276 
L 128.249681 118.087725 
z
" clip-path="url(#pbf7b878745)" style="fill: #4c4c4c"/>
    <path d="M 119.361848 127.342354 
L 100.955569 128.238533 
L 100.939747 127.913562 
L 119.346026 127.017383 
z
" clip-path="url(#pbf7b878745)" style="fill: #4c4c4c"/>
    <path d="M 125.948911 118.473073 
L 126.033217 118.647591 
L 126.283504 118.810062 
L 126.679496 118.947325 
L 127.189111 119.048258 
L 127.771064 119.104686 
L 128.378208 119.112035 
L 128.961357 119.069712 
L 129.473266 118.981144 
L 129.872464 118.853508 
L 130.126611 118.697142 
L 130.215117 118.524716 
L 130.347102 108.935045 
L 126.049101 108.883017 
z
" clip-path="url(#pbf7b878745)" style="fill: #477b9d; stroke: #262626"/>
    <path d="M 126.049101 108.883017 
L 130.347102 108.935045 
L 130.479087 99.345373 
L 130.392431 99.258569 
L 130.137409 99.176673 
L 129.73468 99.106321 
L 129.216871 99.053213 
L 128.625933 99.021651 
L 128.009738 99.014192 
L 127.418209 99.03144 
L 126.899267 99.071998 
L 126.494953 99.13258 
L 126.238022 99.208279 
L 126.149291 99.29296 
z
" clip-path="url(#pbf7b878745)" style="fill: #f03f37; stroke: #262626"/>
    <path d="M 135.613548 92.503593 
L 135.586086 91.874602 
L 135.503908 91.250399 
L 135.36764 90.635733 
L 135.178319 90.035283 
L 134.937385 89.453618 
L 134.646673 88.895165 
L 134.308395 88.364175 
L 133.925125 87.864688 
L 133.49978 87.400505 
L 133.035598 86.975161 
L 132.536111 86.591891 
L 132.005121 86.253613 
L 131.446668 85.962901 
L 130.865003 85.721967 
L 130.264553 85.532646 
L 129.649887 85.396378 
L 129.025683 85.3142 
L 128.396693 85.286737 
L 127.767703 85.3142 
L 127.143499 85.396378 
L 126.528833 85.532646 
L 125.928383 85.721967 
L 125.346718 85.962901 
L 124.788265 86.253613 
L 124.257275 86.591891 
L 123.757788 86.975161 
L 123.293606 87.400505 
L 122.868261 87.864688 
L 122.484991 88.364175 
L 122.146713 88.895165 
L 121.856001 89.453618 
L 121.615067 90.035283 
L 121.425746 90.635733 
L 121.289478 91.250399 
L 121.2073 91.874602 
L 121.179838 92.503593 
L 121.2073 93.132583 
L 121.289478 93.756787 
L 121.425746 94.371452 
L 121.615067 94.971903 
L 121.856001 95.553568 
L 122.146713 96.112021 
L 122.484991 96.643011 
L 122.868261 97.142498 
L 123.293606 97.60668 
L 123.757788 98.032025 
L 124.257275 98.415295 
L 124.788265 98.753573 
L 125.346718 99.044285 
L 125.928383 99.285219 
L 126.528833 99.47454 
L 127.143499 99.610808 
L 127.767703 99.692986 
L 128.396693 99.720448 
L 129.025683 99.692986 
L 129.649887 99.610808 
L 130.264553 99.47454 
L 130.865003 99.285219 
L 131.446668 99.044285 
L 132.005121 98.753573 
L 132.536111 98.415295 
L 133.035598 98.032025 
L 133.49978 97.60668 
L 133.925125 97.142498 
L 134.308395 96.643011 
L 134.646673 96.112021 
L 134.937385 95.553568 
L 135.178319 94.971903 
L 135.36764 94.371452 
L 135.503908 93.756787 
L 135.586086 93.132583 
L 135.613548 92.503593 
z
" clip-path="url(#pbf7b878745)" style="fill: #f03f37; stroke: #262626"/>
    <path d="M 119.874419 129.290313 
L 120.052564 129.195125 
L 120.207871 128.935029 
L 120.32776 128.531096 
L 120.402518 128.016052 
L 120.426087 127.431621 
L 120.396558 126.82515 
L 120.316325 126.245773 
L 120.191886 125.740427 
L 120.033323 125.350052 
L 119.853483 125.106274 
L 119.666933 125.028843 
L 110.114288 125.47619 
L 110.323499 129.773094 
z
" clip-path="url(#pbf7b878745)" style="fill: #477b9d; stroke: #262626"/>
    <path d="M 110.323499 129.773094 
L 110.114288 125.47619 
L 100.561644 125.923538 
L 100.470353 126.015936 
L 100.395004 126.276338 
L 100.341698 126.683649 
L 100.314756 127.20487 
L 100.316359 127.797776 
L 100.346379 128.414332 
L 100.402382 129.004588 
L 100.479832 129.520727 
L 100.572454 129.920933 
L 100.672745 130.172783 
L 100.77258 130.255876 
z
" clip-path="url(#pbf7b878745)" style="fill: #f03f37; stroke: #262626"/>
    <path d="M 101.093219 128.420937 
L 101.065711 127.790878 
L 100.983393 127.165614 
L 100.846893 126.549904 
L 100.65725 125.948433 
L 100.415908 125.36578 
L 100.124702 124.806379 
L 99.785849 124.274486 
L 99.401928 123.774151 
L 98.97586 123.30918 
L 98.51089 122.883113 
L 98.010554 122.499192 
L 97.478661 122.160339 
L 96.91926 121.869133 
L 96.336607 121.62779 
L 95.735136 121.438147 
L 95.119426 121.301647 
L 94.494162 121.21933 
L 93.864103 121.191821 
L 93.234044 121.21933 
L 92.608781 121.301647 
L 91.99307 121.438147 
L 91.3916 121.62779 
L 90.808947 121.869133 
L 90.249545 122.160339 
L 89.717653 122.499192 
L 89.217317 122.883113 
L 88.752346 123.30918 
L 88.326279 123.774151 
L 87.942358 124.274486 
L 87.603505 124.806379 
L 87.312299 125.36578 
L 87.070956 125.948433 
L 86.881313 126.549904 
L 86.744814 127.165614 
L 86.662496 127.790878 
L 86.634987 128.420937 
L 86.662496 129.050996 
L 86.744814 129.67626 
L 86.881313 130.29197 
L 87.070956 130.89344 
L 87.312299 131.476093 
L 87.603505 132.035495 
L 87.942358 132.567387 
L 88.326279 133.067723 
L 88.752346 133.532694 
L 89.217317 133.958761 
L 89.717653 134.342682 
L 90.249545 134.681535 
L 90.808947 134.972741 
L 91.3916 135.214084 
L 91.99307 135.403727 
L 92.608781 135.540226 
L 93.234044 135.622544 
L 93.864103 135.650053 
L 94.494162 135.622544 
L 95.119426 135.540226 
L 95.735136 135.403727 
L 96.336607 135.214084 
L 96.91926 134.972741 
L 97.478661 134.681535 
L 98.010554 134.342682 
L 98.51089 133.958761 
L 98.97586 133.532694 
L 99.401928 133.067723 
L 99.785849 132.567387 
L 100.124702 132.035495 
L 100.415908 131.476093 
L 100.65725 130.89344 
L 100.846893 130.29197 
L 100.983393 129.67626 
L 101.065711 129.050996 
L 101.093219 128.420937 
z
" clip-path="url(#pbf7b878745)" style="fill: #f03f37; stroke: #262626"/>
    <path d="M 128.320546 85.354406 
L 128.550809 66.332571 
L 128.876141 66.336509 
L 128.645878 85.358344 
z
" clip-path="url(#pbf7b878745)" style="fill: #4c4c4c"/>
    <path d="M 86.739044 128.930718 
L 67.730488 129.856221 
L 67.714665 129.53125 
L 86.723221 128.605747 
z
" clip-path="url(#pbf7b878745)" style="fill: #4c4c4c"/>
    <path d="M 130.464154 128.776022 
L 131.457049 129.670121 
L 131.239331 129.911896 
L 130.246436 129.017797 
z
" clip-path="url(#pbf7b878745)" style="fill: #4c4c4c"/>
    <path d="M 130.915822 66.107911 
L 130.826867 66.095986 
L 130.566946 66.08287 
L 130.157116 66.069627 
L 129.630579 66.057328 
L 129.029992 66.04697 
L 128.404012 66.039392 
L 127.803351 66.035209 
L 127.276671 66.034758 
L 126.86664 66.038077 
L 126.606478 66.044897 
L 126.51726 66.054665 
L 126.41578 75.858239 
L 130.779958 75.911068 
z
" clip-path="url(#pbf7b878745)" style="fill: #477b9d; stroke: #262626"/>
    <path d="M 130.779958 75.911068 
L 126.41578 75.858239 
L 126.314299 85.661812 
L 126.400955 85.748617 
L 126.655977 85.830513 
L 127.058706 85.900864 
L 127.576515 85.953972 
L 128.167453 85.985534 
L 128.783648 85.992994 
L 129.375177 85.975745 
L 129.894119 85.935187 
L 130.298433 85.874605 
L 130.555364 85.798907 
L 130.644095 85.714225 
z
" clip-path="url(#pbf7b878745)" style="fill: #f03f37; stroke: #262626"/>
    <path d="M 137.988552 57.186809 
L 137.953679 56.388084 
L 137.849325 55.595438 
L 137.676284 54.814903 
L 137.435874 54.05242 
L 137.129924 53.313791 
L 136.760763 52.604638 
L 136.331199 51.930359 
L 135.844503 51.296084 
L 135.304378 50.706641 
L 134.714936 50.166516 
L 134.080661 49.67982 
L 133.406381 49.250257 
L 132.697229 48.881095 
L 131.9586 48.575145 
L 131.196117 48.334735 
L 130.415582 48.161695 
L 129.622936 48.057341 
L 128.824211 48.022468 
L 128.025486 48.057341 
L 127.232839 48.161695 
L 126.452305 48.334735 
L 125.689821 48.575145 
L 124.951193 48.881095 
L 124.24204 49.250257 
L 123.56776 49.67982 
L 122.933486 50.166516 
L 122.344043 50.706641 
L 121.803918 51.296084 
L 121.317222 51.930359 
L 120.887658 52.604638 
L 120.518497 53.313791 
L 120.212547 54.05242 
L 119.972137 54.814903 
L 119.799096 55.595438 
L 119.694742 56.388084 
L 119.659869 57.186809 
L 119.694742 57.985534 
L 119.799096 58.77818 
L 119.972137 59.558715 
L 120.212547 60.321198 
L 120.518497 61.059827 
L 120.887658 61.768979 
L 121.317222 62.443259 
L 121.803918 63.077534 
L 122.344043 63.666977 
L 122.933486 64.207101 
L 123.56776 64.693798 
L 124.24204 65.123361 
L 124.951193 65.492523 
L 125.689821 65.798473 
L 126.452305 66.038883 
L 127.232839 66.211923 
L 128.025486 66.316277 
L 128.824211 66.35115 
L 129.622936 66.316277 
L 130.415582 66.211923 
L 131.196117 66.038883 
L 131.9586 65.798473 
L 132.697229 65.492523 
L 133.406381 65.123361 
L 134.080661 64.693798 
L 134.714936 64.207101 
L 135.304378 63.666977 
L 135.844503 63.077534 
L 136.331199 62.443259 
L 136.760763 61.768979 
L 137.129924 61.059827 
L 137.435874 60.321198 
L 137.676284 59.558715 
L 137.849325 58.77818 
L 137.953679 57.985534 
L 137.988552 57.186809 
z
" clip-path="url(#pbf7b878745)" style="fill: #477b9d; stroke: #262626"/>
    <path d="M 131.457049 129.670121 
L 131.84398 130.018551 
L 131.626262 130.260326 
L 131.239331 129.911896 
z
" clip-path="url(#pbf7b878745)" style="fill: #4c4c4c"/>
    <path d="M 67.377816 127.500857 
L 67.381083 127.590205 
L 67.392781 127.850905 
L 67.411962 128.261836 
L 67.437072 128.789708 
L 67.466076 129.391756 
L 67.496626 130.019205 
L 67.526246 130.621222 
L 67.552536 131.149037 
L 67.573367 131.559888 
L 67.58705 131.820492 
L 67.592478 131.909734 
L 77.379521 131.414035 
L 77.166721 127.043427 
z
" clip-path="url(#pbf7b878745)" style="fill: #477b9d; stroke: #262626"/>
    <path d="M 77.166721 127.043427 
L 77.379521 131.414035 
L 87.166563 130.918336 
L 87.257853 130.825938 
L 87.333203 130.565535 
L 87.386509 130.158225 
L 87.413451 129.637003 
L 87.411847 129.044098 
L 87.381828 128.427542 
L 87.325825 127.837285 
L 87.248375 127.321147 
L 87.155752 126.920941 
L 87.055462 126.66909 
L 86.955627 126.585998 
z
" clip-path="url(#pbf7b878745)" style="fill: #f03f37; stroke: #262626"/>
    <path d="M 67.764497 130.139438 
L 67.729503 129.33795 
L 67.624788 128.542562 
L 67.451149 127.759327 
L 67.209908 126.994207 
L 66.902899 126.253023 
L 66.532461 125.541417 
L 66.101412 124.864805 
L 65.613032 124.228336 
L 65.071039 123.636854 
L 64.479557 123.094861 
L 63.843088 122.606481 
L 63.166476 122.175432 
L 62.45487 121.804993 
L 61.713686 121.497985 
L 60.948565 121.256743 
L 60.165331 121.083104 
L 59.369942 120.97839 
L 58.568455 120.943396 
L 57.766967 120.97839 
L 56.971579 121.083104 
L 56.188344 121.256743 
L 55.423223 121.497985 
L 54.682039 121.804993 
L 53.970433 122.175432 
L 53.293821 122.606481 
L 52.657352 123.094861 
L 52.065871 123.636854 
L 51.523877 124.228336 
L 51.035498 124.864805 
L 50.604448 125.541417 
L 50.23401 126.253023 
L 49.927001 126.994207 
L 49.68576 127.759327 
L 49.512121 128.542562 
L 49.407406 129.33795 
L 49.372412 130.139438 
L 49.407406 130.940926 
L 49.512121 131.736314 
L 49.68576 132.519549 
L 49.927001 133.28467 
L 50.23401 134.025854 
L 50.604448 134.73746 
L 51.035498 135.414072 
L 51.523877 136.05054 
L 52.065871 136.642022 
L 52.657352 137.184016 
L 53.293821 137.672395 
L 53.970433 138.103445 
L 54.682039 138.473883 
L 55.423223 138.780892 
L 56.188344 139.022133 
L 56.971579 139.195772 
L 57.766967 139.300487 
L 58.568455 139.335481 
L 59.369942 139.300487 
L 60.165331 139.195772 
L 60.948565 139.022133 
L 61.713686 138.780892 
L 62.45487 138.473883 
L 63.166476 138.103445 
L 63.843088 137.672395 
L 64.479557 137.184016 
L 65.071039 136.642022 
L 65.613032 136.05054 
L 66.101412 135.414072 
L 66.532461 134.73746 
L 66.902899 134.025854 
L 67.209908 133.28467 
L 67.451149 132.519549 
L 67.624788 131.736314 
L 67.729503 130.940926 
L 67.764497 130.139438 
z
" clip-path="url(#pbf7b878745)" style="fill: #477b9d; stroke: #262626"/>
    <path d="M 119.933838 57.474819 
L 100.955214 57.742337 
L 100.950628 57.417014 
L 119.929253 57.149496 
z
" clip-path="url(#pbf7b878745)" style="fill: #4c4c4c"/>
    <path d="M 131.84398 130.018551 
L 133.418789 131.436662 
L 133.201072 131.678437 
L 131.626262 130.260326 
z
" clip-path="url(#pbf7b878745)" style="fill: #4c4c4c"/>
    <path d="M 58.23722 121.181354 
L 57.87791 102.082243 
L 58.203208 102.076123 
L 58.562518 121.175234 
z
" clip-path="url(#pbf7b878745)" style="fill: #4c4c4c"/>
    <path d="M 120.419034 59.504946 
L 120.614324 59.413092 
L 120.791281 59.150511 
L 120.93557 58.738476 
L 121.035501 58.210368 
L 121.082977 57.608972 
L 121.074154 56.983007 
L 121.009745 56.383188 
L 120.894969 55.858106 
L 120.739124 55.450302 
L 120.554836 55.192813 
L 120.357034 55.1065 
L 110.494154 55.226669 
L 110.556685 59.662819 
z
" clip-path="url(#pbf7b878745)" style="fill: #477b9d; stroke: #262626"/>
    <path d="M 110.556685 59.662819 
L 110.494154 55.226669 
L 100.631274 55.346839 
L 100.529146 55.438907 
L 100.437846 55.70474 
L 100.364771 56.1228 
L 100.315841 56.659218 
L 100.29502 57.270538 
L 100.303994 57.907234 
L 100.342038 58.517724 
L 100.406068 59.05255 
L 100.490897 59.468384 
L 100.589654 59.731538 
L 100.694337 59.820691 
z
" clip-path="url(#pbf7b878745)" style="fill: #f03f37; stroke: #262626"/>
    <path d="M 101.103397 57.682669 
L 101.07502 57.032734 
L 100.990105 56.387746 
L 100.8493 55.752613 
L 100.653675 55.132169 
L 100.404719 54.531136 
L 100.104326 53.954088 
L 99.754784 53.405416 
L 99.358752 52.889297 
L 98.919244 52.409659 
L 98.439606 51.970151 
L 97.923487 51.574119 
L 97.374816 51.224577 
L 96.797767 50.924185 
L 96.196734 50.675229 
L 95.57629 50.479603 
L 94.941157 50.338798 
L 94.296169 50.253883 
L 93.646234 50.225507 
L 92.9963 50.253883 
L 92.351312 50.338798 
L 91.716179 50.479603 
L 91.095735 50.675229 
L 90.494702 50.924185 
L 89.917653 51.224577 
L 89.368982 51.574119 
L 88.852863 51.970151 
L 88.373225 52.409659 
L 87.933717 52.889297 
L 87.537685 53.405416 
L 87.188143 53.954088 
L 86.88775 54.531136 
L 86.638794 55.132169 
L 86.443169 55.752613 
L 86.302363 56.387746 
L 86.217449 57.032734 
L 86.189072 57.682669 
L 86.217449 58.332603 
L 86.302363 58.977591 
L 86.443169 59.612724 
L 86.638794 60.233168 
L 86.88775 60.834202 
L 87.188143 61.41125 
L 87.537685 61.959921 
L 87.933717 62.47604 
L 88.373225 62.955679 
L 88.852863 63.395186 
L 89.368982 63.791218 
L 89.917653 64.140761 
L 90.494702 64.441153 
L 91.095735 64.690109 
L 91.716179 64.885734 
L 92.351312 65.02654 
L 92.9963 65.111454 
L 93.646234 65.139831 
L 94.296169 65.111454 
L 94.941157 65.02654 
L 95.57629 64.885734 
L 96.196734 64.690109 
L 96.797767 64.441153 
L 97.374816 64.140761 
L 97.923487 63.791218 
L 98.439606 63.395186 
L 98.919244 62.955679 
L 99.358752 62.47604 
L 99.754784 61.959921 
L 100.104326 61.41125 
L 100.404719 60.834202 
L 100.653675 60.233168 
L 100.8493 59.612724 
L 100.990105 58.977591 
L 101.07502 58.332603 
L 101.103397 57.682669 
z
" clip-path="url(#pbf7b878745)" style="fill: #f03f37; stroke: #262626"/>
    <path d="M 133.418789 131.436662 
L 133.618747 131.616723 
L 133.401029 131.858498 
L 133.201072 131.678437 
z
" clip-path="url(#pbf7b878745)" style="fill: #4c4c4c"/>
    <path d="M 56.201769 121.674774 
L 56.294697 121.861446 
L 56.558868 122.029631 
L 56.972879 122.165706 
L 57.50319 122.258644 
L 58.106837 122.300918 
L 58.734918 122.289102 
L 59.336549 122.224153 
L 59.862989 122.111334 
L 60.271589 121.959784 
L 60.529246 121.781781 
L 60.615088 121.591746 
L 60.445366 111.665683 
L 55.998026 111.749351 
z
" clip-path="url(#pbf7b878745)" style="fill: #477b9d; stroke: #262626"/>
    <path d="M 55.998026 111.749351 
L 60.445366 111.665683 
L 60.275643 101.73962 
L 60.183122 101.647852 
L 59.916569 101.566933 
L 59.49758 101.503419 
L 58.960098 101.462456 
L 58.347667 101.447362 
L 57.709903 101.459361 
L 57.098474 101.497479 
L 56.562913 101.558629 
L 56.146609 101.637857 
L 55.883289 101.728744 
L 55.794284 101.823928 
z
" clip-path="url(#pbf7b878745)" style="fill: #f03f37; stroke: #262626"/>
    <path d="M 65.372655 94.735411 
L 65.344229 94.084335 
L 65.259165 93.438215 
L 65.118112 92.801967 
L 64.922144 92.180433 
L 64.67275 91.578345 
L 64.371831 91.000284 
L 64.021675 90.450649 
L 63.624948 89.933624 
L 63.184668 89.453143 
L 62.704188 89.012864 
L 62.187163 88.616137 
L 61.637528 88.265981 
L 61.059467 87.965061 
L 60.457378 87.715668 
L 59.835845 87.519699 
L 59.199597 87.378646 
L 58.553476 87.293583 
L 57.902401 87.265157 
L 57.251325 87.293583 
L 56.605205 87.378646 
L 55.968957 87.519699 
L 55.347424 87.715668 
L 54.745335 87.965061 
L 54.167274 88.265981 
L 53.617639 88.616137 
L 53.100614 89.012864 
L 52.620134 89.453143 
L 52.179854 89.933624 
L 51.783127 90.450649 
L 51.432971 91.000284 
L 51.132051 91.578345 
L 50.882658 92.180433 
L 50.686689 92.801967 
L 50.545637 93.438215 
L 50.460573 94.084335 
L 50.432147 94.735411 
L 50.460573 95.386486 
L 50.545637 96.032607 
L 50.686689 96.668855 
L 50.882658 97.290388 
L 51.132051 97.892477 
L 51.432971 98.470538 
L 51.783127 99.020173 
L 52.179854 99.537198 
L 52.620134 100.017678 
L 53.100614 100.457957 
L 53.617639 100.854685 
L 54.167274 101.204841 
L 54.745335 101.50576 
L 55.347424 101.755153 
L 55.968957 101.951122 
L 56.605205 102.092175 
L 57.251325 102.177238 
L 57.902401 102.205665 
L 58.553476 102.177238 
L 59.199597 102.092175 
L 59.835845 101.951122 
L 60.457378 101.755153 
L 61.059467 101.50576 
L 61.637528 101.204841 
L 62.187163 100.854685 
L 62.704188 100.457957 
L 63.184668 100.017678 
L 63.624948 99.537198 
L 64.021675 99.020173 
L 64.371831 98.470538 
L 64.67275 97.892477 
L 64.922144 97.290388 
L 65.118112 96.668855 
L 65.259165 96.032607 
L 65.344229 95.386486 
L 65.372655 94.735411 
z
" clip-path="url(#pbf7b878745)" style="fill: #f03f37; stroke: #262626"/>
    <path d="M 86.289256 57.949065 
L 66.669735 58.225617 
L 66.66515 57.900293 
L 86.284671 57.623742 
z
" clip-path="url(#pbf7b878745)" style="fill: #4c4c4c"/>
    <path d="M 57.600698 87.347066 
L 57.230466 67.667428 
L 57.555764 67.661308 
L 57.925996 87.340946 
z
" clip-path="url(#pbf7b878745)" style="fill: #4c4c4c"/>
    <path d="M 133.618747 131.616723 
L 135.45042 133.266138 
L 135.232702 133.507914 
L 133.401029 131.858498 
z
" clip-path="url(#pbf7b878745)" style="fill: #4c4c4c"/>
    <path d="M 131.332318 57.667347 
L 132.768388 58.038697 
L 132.686934 58.353692 
L 131.250864 57.982341 
z
" clip-path="url(#pbf7b878745)" style="fill: #4c4c4c"/>
    <path d="M 59.608486 132.369528 
L 59.980547 133.328166 
L 59.677235 133.445886 
L 59.305173 132.487248 
z
" clip-path="url(#pbf7b878745)" style="fill: #4c4c4c"/>
    <path d="M 66.396095 55.788581 
L 66.396225 55.880862 
L 66.398945 56.150197 
L 66.404035 56.574765 
L 66.411083 57.120171 
L 66.419518 57.742228 
L 66.428656 58.390542 
L 66.437758 59.012591 
L 66.446085 59.557978 
L 66.452964 59.982521 
L 66.457837 60.251825 
L 66.460308 60.344074 
L 76.560751 60.181286 
L 76.497114 55.666614 
z
" clip-path="url(#pbf7b878745)" style="fill: #477b9d; stroke: #262626"/>
    <path d="M 76.497114 55.666614 
L 76.560751 60.181286 
L 86.661195 60.018499 
L 86.763323 59.92643 
L 86.854623 59.660598 
L 86.927698 59.242538 
L 86.976628 58.706119 
L 86.997449 58.094799 
L 86.988475 57.458104 
L 86.950431 56.847614 
L 86.886401 56.312787 
L 86.801571 55.896953 
L 86.702815 55.6338 
L 86.598132 55.544646 
z
" clip-path="url(#pbf7b878745)" style="fill: #f03f37; stroke: #262626"/>
    <path d="M 59.665845 67.364288 
L 59.573365 67.35418 
L 59.303862 67.348361 
L 58.879169 67.347305 
L 58.333693 67.351095 
L 57.711625 67.359426 
L 57.063361 67.371621 
L 56.44142 67.386694 
L 55.896187 67.403423 
L 55.471835 67.420453 
L 55.202741 67.436404 
L 55.110706 67.449984 
L 55.319932 77.590593 
L 59.838182 77.505591 
z
" clip-path="url(#pbf7b878745)" style="fill: #477b9d; stroke: #262626"/>
    <path d="M 59.838182 77.505591 
L 55.319932 77.590593 
L 55.529158 87.731201 
L 55.62168 87.82297 
L 55.888233 87.903889 
L 56.307222 87.967402 
L 56.844704 88.008365 
L 57.457135 88.023459 
L 58.094899 88.011461 
L 58.706328 87.973343 
L 59.241889 87.912192 
L 59.658193 87.832965 
L 59.921513 87.742077 
L 60.010518 87.646894 
z
" clip-path="url(#pbf7b878745)" style="fill: #f03f37; stroke: #262626"/>
    <path d="M 66.706543 58.196195 
L 66.670425 57.368951 
L 66.562345 56.548004 
L 66.383126 55.7396 
L 66.134132 54.949893 
L 65.817259 54.184891 
L 65.434916 53.450419 
L 64.990015 52.752064 
L 64.485942 52.095143 
L 63.926532 51.484654 
L 63.316043 50.925244 
L 62.659122 50.42117 
L 61.960767 49.976269 
L 61.226294 49.593927 
L 60.461293 49.277053 
L 59.671585 49.028059 
L 58.863182 48.848841 
L 58.042234 48.740761 
L 57.214991 48.704643 
L 56.387748 48.740761 
L 55.5668 48.848841 
L 54.758397 49.028059 
L 53.968689 49.277053 
L 53.203688 49.593927 
L 52.469215 49.976269 
L 51.770861 50.42117 
L 51.113939 50.925244 
L 50.50345 51.484654 
L 49.94404 52.095143 
L 49.439967 52.752064 
L 48.995066 53.450419 
L 48.612724 54.184891 
L 48.29585 54.949893 
L 48.046856 55.7396 
L 47.867637 56.548004 
L 47.759557 57.368951 
L 47.723439 58.196195 
L 47.759557 59.023438 
L 47.867637 59.844385 
L 48.046856 60.652789 
L 48.29585 61.442496 
L 48.612724 62.207498 
L 48.995066 62.94197 
L 49.439967 63.640325 
L 49.94404 64.297247 
L 50.50345 64.907735 
L 51.113939 65.467145 
L 51.770861 65.971219 
L 52.469215 66.41612 
L 53.203688 66.798462 
L 53.968689 67.115336 
L 54.758397 67.36433 
L 55.5668 67.543548 
L 56.387748 67.651628 
L 57.214991 67.687746 
L 58.042234 67.651628 
L 58.863182 67.543548 
L 59.671585 67.36433 
L 60.461293 67.115336 
L 61.226294 66.798462 
L 61.960767 66.41612 
L 62.659122 65.971219 
L 63.316043 65.467145 
L 63.926532 64.907735 
L 64.485942 64.297247 
L 64.990015 63.640325 
L 65.434916 62.94197 
L 65.817259 62.207498 
L 66.134132 61.442496 
L 66.383126 60.652789 
L 66.562345 59.844385 
L 66.670425 59.023438 
L 66.706543 58.196195 
z
" clip-path="url(#pbf7b878745)" style="fill: #477b9d; stroke: #262626"/>
    <path d="M 135.45042 133.266138 
L 135.814819 133.594278 
L 135.597101 133.836054 
L 135.232702 133.507914 
z
" clip-path="url(#pbf7b878745)" style="fill: #4c4c4c"/>
    <path d="M 132.768388 58.038697 
L 135.246877 58.679605 
L 135.165423 58.9946 
L 132.686934 58.353692 
z
" clip-path="url(#pbf7b878745)" style="fill: #4c4c4c"/>
    <path d="M 59.980547 133.328166 
L 60.866724 135.611452 
L 60.563412 135.729172 
L 59.677235 133.445886 
z
" clip-path="url(#pbf7b878745)" style="fill: #4c4c4c"/>
    <path d="M 132.096459 127.594107 
L 131.633122 127.293157 
L 131.091673 127.145016 
L 130.515977 127.161685 
L 129.952675 127.341813 
L 129.447401 127.670808 
L 129.041089 128.122017 
L 128.766657 128.658884 
L 128.646337 129.237917 
L 128.689877 129.812206 
L 128.89375 130.335224 
L 129.241439 130.764601 
L 131.447004 132.880974 
L 134.431581 129.566608 
z
" clip-path="url(#pbf7b878745)" style="fill: #477b9d; stroke: #262626"/>
    <path d="M 134.431581 129.566608 
L 131.447004 132.880974 
L 133.65257 134.997348 
L 134.141619 135.310897 
L 134.717192 135.458961 
L 135.33266 135.429545 
L 135.938162 135.225032 
L 136.484642 134.861991 
L 136.92783 134.369832 
L 137.231819 133.788428 
L 137.371983 133.164881 
L 137.336967 132.549706 
L 137.129607 131.992741 
L 136.766703 131.539109 
z
" clip-path="url(#pbf7b878745)" style="fill: #f03f37; stroke: #262626"/>
    <path d="M 145.633368 135.670312 
L 145.603853 134.994312 
L 145.515533 134.323458 
L 145.369081 133.662854 
L 145.16561 133.017527 
L 144.90667 132.39239 
L 144.594231 131.792201 
L 144.230671 131.221525 
L 143.818756 130.684708 
L 143.361623 130.185834 
L 142.862749 129.728701 
L 142.325932 129.316786 
L 141.755256 128.953226 
L 141.155067 128.640787 
L 140.52993 128.381847 
L 139.884603 128.178376 
L 139.223999 128.031924 
L 138.553145 127.943604 
L 137.877145 127.914089 
L 137.201146 127.943604 
L 136.530291 128.031924 
L 135.869687 128.178376 
L 135.224361 128.381847 
L 134.599224 128.640787 
L 133.999034 128.953226 
L 133.428359 129.316786 
L 132.891542 129.728701 
L 132.392668 130.185834 
L 131.935534 130.684708 
L 131.52362 131.221525 
L 131.16006 131.792201 
L 130.84762 132.39239 
L 130.58868 133.017527 
L 130.38521 133.662854 
L 130.238757 134.323458 
L 130.150438 134.994312 
L 130.120923 135.670312 
L 130.150438 136.346311 
L 130.238757 137.017166 
L 130.38521 137.67777 
L 130.58868 138.323096 
L 130.84762 138.948233 
L 131.16006 139.548423 
L 131.52362 140.119098 
L 131.935534 140.655915 
L 132.392668 141.154789 
L 132.891542 141.611923 
L 133.428359 142.023837 
L 133.999034 142.387397 
L 134.599224 142.699837 
L 135.224361 142.958777 
L 135.869687 143.162247 
L 136.530291 143.3087 
L 137.201146 143.397019 
L 137.877145 143.426534 
L 138.553145 143.397019 
L 139.223999 143.3087 
L 139.884603 143.162247 
L 140.52993 142.958777 
L 141.155067 142.699837 
L 141.755256 142.387397 
L 142.325932 142.023837 
L 142.862749 141.611923 
L 143.361623 141.154789 
L 143.818756 140.655915 
L 144.230671 140.119098 
L 144.594231 139.548423 
L 144.90667 138.948233 
L 145.16561 138.323096 
L 145.369081 137.67777 
L 145.515533 137.017166 
L 145.603853 136.346311 
L 145.633368 135.670312 
z
" clip-path="url(#pbf7b878745)" style="fill: #f03f37; stroke: #262626"/>
    <path d="M 135.246877 58.679605 
L 136.907396 59.108995 
L 136.825942 59.42399 
L 135.165423 58.9946 
z
" clip-path="url(#pbf7b878745)" style="fill: #4c4c4c"/>
    <path d="M 60.866724 135.611452 
L 61.616289 137.542749 
L 61.312977 137.660469 
L 60.563412 135.729172 
z
" clip-path="url(#pbf7b878745)" style="fill: #4c4c4c"/>
    <path d="M 58.200419 58.752345 
L 59.457401 59.724034 
L 59.258413 59.981445 
L 58.001431 59.009756 
z
" clip-path="url(#pbf7b878745)" style="fill: #4c4c4c"/>
    <path d="M 140.239692 137.578863 
L 142.004107 139.167713 
L 141.786389 139.409488 
L 140.021974 137.820638 
z
" clip-path="url(#pbf7b878745)" style="fill: #4c4c4c"/>
    <path d="M 132.111258 55.765012 
L 131.520113 55.704173 
L 130.93225 55.820773 
L 130.395294 56.105368 
L 129.952746 56.5349 
L 129.640458 57.074571 
L 129.48373 57.680662 
L 129.49526 58.304069 
L 129.674113 58.894288 
L 130.005799 59.403503 
L 130.463448 59.790461 
L 131.009983 60.023812 
L 133.387093 60.745082 
L 134.540033 56.286486 
z
" clip-path="url(#pbf7b878745)" style="fill: #477b9d; stroke: #262626"/>
    <path d="M 134.540033 56.286486 
L 133.387093 60.745082 
L 135.764202 61.466353 
L 136.397285 61.529403 
L 137.027874 61.398647 
L 137.604883 61.084679 
L 138.081566 60.612934 
L 138.419305 60.021631 
L 138.590738 59.358672 
L 138.581977 58.677768 
L 138.393732 58.03408 
L 138.041253 57.479757 
L 137.553095 57.059707 
L 136.968807 56.807959 
z
" clip-path="url(#pbf7b878745)" style="fill: #f03f37; stroke: #262626"/>
    <path d="M 147.153146 59.85274 
L 147.122629 59.153806 
L 147.031313 58.460191 
L 146.879892 57.777174 
L 146.669518 57.109954 
L 146.401793 56.463608 
L 146.078754 55.843055 
L 145.702859 55.253018 
L 145.27697 54.697988 
L 144.804327 54.182189 
L 144.288527 53.709546 
L 143.733497 53.283657 
L 143.143461 52.907762 
L 142.522908 52.584722 
L 141.876562 52.316997 
L 141.209342 52.106623 
L 140.526325 51.955202 
L 139.83271 51.863886 
L 139.133776 51.83337 
L 138.434842 51.863886 
L 137.741227 51.955202 
L 137.05821 52.106623 
L 136.39099 52.316997 
L 135.744644 52.584722 
L 135.124091 52.907762 
L 134.534054 53.283657 
L 133.979024 53.709546 
L 133.463225 54.182189 
L 132.990582 54.697988 
L 132.564693 55.253018 
L 132.188798 55.843055 
L 131.865759 56.463608 
L 131.598033 57.109954 
L 131.38766 57.777174 
L 131.236239 58.460191 
L 131.144922 59.153806 
L 131.114406 59.85274 
L 131.144922 60.551674 
L 131.236239 61.245289 
L 131.38766 61.928305 
L 131.598033 62.595526 
L 131.865759 63.241872 
L 132.188798 63.862424 
L 132.564693 64.452461 
L 132.990582 65.007491 
L 133.463225 65.52329 
L 133.979024 65.995933 
L 134.534054 66.421823 
L 135.124091 66.797717 
L 135.744644 67.120757 
L 136.39099 67.388482 
L 137.05821 67.598856 
L 137.741227 67.750277 
L 138.434842 67.841593 
L 139.133776 67.872109 
L 139.83271 67.841593 
L 140.526325 67.750277 
L 141.209342 67.598856 
L 141.876562 67.388482 
L 142.522908 67.120757 
L 143.143461 66.797717 
L 143.733497 66.421823 
L 144.288527 65.995933 
L 144.804327 65.52329 
L 145.27697 65.007491 
L 145.702859 64.452461 
L 146.078754 63.862424 
L 146.401793 63.241872 
L 146.669518 62.595526 
L 146.879892 61.928305 
L 147.031313 61.245289 
L 147.122629 60.551674 
L 147.153146 59.85274 
z
" clip-path="url(#pbf7b878745)" style="fill: #f03f37; stroke: #262626"/>
    <path d="M 59.457401 59.724034 
L 59.533006 59.78248 
L 59.334019 60.039891 
L 59.258413 59.981445 
z
" clip-path="url(#pbf7b878745)" style="fill: #4c4c4c"/>
    <path d="M 142.004107 139.167713 
L 142.235332 139.37593 
L 142.017614 139.617705 
L 141.786389 139.409488 
z
" clip-path="url(#pbf7b878745)" style="fill: #4c4c4c"/>
    <path d="M 114.863687 99.704002 
L 114.810094 98.476527 
L 114.649724 97.258394 
L 114.383796 96.058873 
L 114.014336 94.887095 
L 113.544154 93.751975 
L 112.976829 92.662155 
L 112.316679 91.625927 
L 111.568728 90.651178 
L 110.738668 89.745326 
L 109.832817 88.915266 
L 108.858068 88.167315 
L 107.82184 87.507165 
L 106.732019 86.93984 
L 105.5969 86.469658 
L 104.425121 86.100198 
L 103.225601 85.834271 
L 102.007468 85.6739 
L 100.779993 85.620308 
L 99.552518 85.6739 
L 98.334385 85.834271 
L 97.134865 86.100198 
L 95.963086 86.469658 
L 94.827967 86.93984 
L 93.738146 87.507165 
L 92.701918 88.167315 
L 91.727169 88.915266 
L 90.821317 89.745326 
L 89.991257 90.651178 
L 89.243306 91.625927 
L 88.583156 92.662155 
L 88.015831 93.751975 
L 87.545649 94.887095 
L 87.176189 96.058873 
L 86.910262 97.258394 
L 86.749892 98.476527 
L 86.696299 99.704002 
L 86.749892 100.931476 
L 86.910262 102.149609 
L 87.176189 103.34913 
L 87.545649 104.520909 
L 88.015831 105.656028 
L 88.583156 106.745848 
L 89.243306 107.782076 
L 89.991257 108.756825 
L 90.821317 109.662677 
L 91.727169 110.492737 
L 92.701918 111.240688 
L 93.738146 111.900838 
L 94.827967 112.468163 
L 95.963086 112.938345 
L 97.134865 113.307805 
L 98.334385 113.573732 
L 99.552518 113.734103 
L 100.779993 113.787695 
L 102.007468 113.734103 
L 103.225601 113.573732 
L 104.425121 113.307805 
L 105.5969 112.938345 
L 106.732019 112.468163 
L 107.82184 111.900838 
L 108.858068 111.240688 
L 109.832817 110.492737 
L 110.738668 109.662677 
L 111.568728 108.756825 
L 112.316679 107.782076 
L 112.976829 106.745848 
L 113.544154 105.656028 
L 114.014336 104.520909 
L 114.383796 103.34913 
L 114.649724 102.149609 
L 114.810094 100.931476 
L 114.863687 99.704002 
z
" clip-path="url(#pbf7b878745)" style="fill: #51b04d; stroke: #262626"/>
    <path d="M 142.235332 139.37593 
L 142.46743 139.584934 
L 142.249712 139.826709 
L 142.017614 139.617705 
z
" clip-path="url(#pbf7b878745)" style="fill: #4c4c4c"/>
    <path d="M 59.533006 59.78248 
L 59.608897 59.841146 
L 59.40991 60.098557 
L 59.334019 60.039891 
z
" clip-path="url(#pbf7b878745)" style="fill: #4c4c4c"/>
    <path d="M 61.604605 131.862386 
L 61.306857 131.342308 
L 60.866543 130.929059 
L 60.319334 130.656115 
L 59.709562 130.545591 
L 59.086628 130.60644 
L 58.500997 130.833732 
L 58.000114 131.209053 
L 57.624558 131.701998 
L 57.404753 132.27263 
L 57.358507 132.874721 
L 57.489567 133.459492 
L 58.263827 135.741666 
L 62.572646 134.06935 
z
" clip-path="url(#pbf7b878745)" style="fill: #477b9d; stroke: #262626"/>
    <path d="M 62.572646 134.06935 
L 58.263827 135.741666 
L 59.038087 138.02384 
L 59.359225 138.580912 
L 59.836733 139.022067 
L 60.431927 139.311564 
L 61.096587 139.42595 
L 61.776867 139.355959 
L 62.417654 139.10726 
L 62.967035 138.700002 
L 63.380503 138.167178 
L 63.624562 137.551955 
L 63.679438 136.904174 
L 63.540687 136.276314 
z
" clip-path="url(#pbf7b878745)" style="fill: #f03f37; stroke: #262626"/>
    <path d="M 70.331024 139.705822 
L 70.300393 139.004243 
L 70.208731 138.308003 
L 70.056737 137.622402 
L 69.845567 136.952657 
L 69.576829 136.303865 
L 69.252567 135.680964 
L 68.87525 135.088694 
L 68.447749 134.531564 
L 67.973317 134.013813 
L 67.455566 133.539382 
L 66.898436 133.111881 
L 66.306167 132.734563 
L 65.683266 132.410302 
L 65.034474 132.141563 
L 64.364729 131.930393 
L 63.679127 131.778399 
L 62.982888 131.686738 
L 62.281309 131.656106 
L 61.57973 131.686738 
L 60.88349 131.778399 
L 60.197889 131.930393 
L 59.528144 132.141563 
L 58.879352 132.410302 
L 58.256451 132.734563 
L 57.664182 133.111881 
L 57.107051 133.539382 
L 56.5893 134.013813 
L 56.114869 134.531564 
L 55.687368 135.088694 
L 55.310051 135.680964 
L 54.985789 136.303865 
L 54.717051 136.952657 
L 54.505881 137.622402 
L 54.353887 138.308003 
L 54.262225 139.004243 
L 54.231593 139.705822 
L 54.262225 140.4074 
L 54.353887 141.10364 
L 54.505881 141.789241 
L 54.717051 142.458986 
L 54.985789 143.107778 
L 55.310051 143.730679 
L 55.687368 144.322949 
L 56.114869 144.880079 
L 56.5893 145.39783 
L 57.107051 145.872261 
L 57.664182 146.299762 
L 58.256451 146.67708 
L 58.879352 147.001341 
L 59.528144 147.27008 
L 60.197889 147.48125 
L 60.88349 147.633244 
L 61.57973 147.724905 
L 62.281309 147.755537 
L 62.982888 147.724905 
L 63.679127 147.633244 
L 64.364729 147.48125 
L 65.034474 147.27008 
L 65.683266 147.001341 
L 66.306167 146.67708 
L 66.898436 146.299762 
L 67.455566 145.872261 
L 67.973317 145.39783 
L 68.447749 144.880079 
L 68.87525 144.322949 
L 69.252567 143.730679 
L 69.576829 143.107778 
L 69.845567 142.458986 
L 70.056737 141.789241 
L 70.208731 141.10364 
L 70.300393 140.4074 
L 70.331024 139.705822 
z
" clip-path="url(#pbf7b878745)" style="fill: #f03f37; stroke: #262626"/>
    <path d="M 59.608897 59.841146 
L 60.207446 60.303844 
L 60.008459 60.561255 
L 59.40991 60.098557 
z
" clip-path="url(#pbf7b878745)" style="fill: #4c4c4c"/>
    <path d="M 142.46743 139.584934 
L 146.600359 143.306623 
L 146.382642 143.548399 
L 142.249712 139.826709 
z
" clip-path="url(#pbf7b878745)" style="fill: #4c4c4c"/>
    <path d="M 141.530733 60.304535 
L 143.862817 60.907584 
L 143.781363 61.222579 
L 141.449279 60.61953 
z
" clip-path="url(#pbf7b878745)" style="fill: #4c4c4c"/>
    <path d="M 63.281869 141.834212 
L 63.947329 143.548807 
L 63.644016 143.666526 
L 62.978557 141.951932 
z
" clip-path="url(#pbf7b878745)" style="fill: #4c4c4c"/>
    <path d="M 58.743414 56.498464 
L 58.179312 56.179024 
L 57.548041 56.031471 
L 56.900743 56.06776 
L 56.289857 56.28495 
L 55.764875 56.665446 
L 55.368327 57.178423 
L 55.13234 57.782321 
L 55.076031 58.428217 
L 55.203962 59.063784 
L 55.50577 59.637533 
L 55.957003 60.102981 
L 57.606964 61.51881 
L 60.529205 57.738584 
z
" clip-path="url(#pbf7b878745)" style="fill: #477b9d; stroke: #262626"/>
    <path d="M 60.529205 57.738584 
L 57.606964 61.51881 
L 59.256925 62.93464 
L 59.875981 63.28519 
L 60.568758 63.447098 
L 61.279132 63.407246 
L 61.949551 63.168863 
L 62.525704 62.751262 
L 62.960913 62.188273 
L 63.21992 61.525508 
L 63.281742 60.816659 
L 63.14137 60.119153 
L 62.810178 59.489498 
L 62.314995 58.978704 
z
" clip-path="url(#pbf7b878745)" style="fill: #f03f37; stroke: #262626"/>
    <path d="M 69.259736 61.065082 
L 69.228024 60.338766 
L 69.133131 59.617978 
L 68.975777 58.908204 
L 68.757162 58.214844 
L 68.478948 57.543177 
L 68.143254 56.898314 
L 67.752633 56.285162 
L 67.310059 55.708388 
L 66.818899 55.172382 
L 66.282893 54.681222 
L 65.706119 54.238648 
L 65.092967 53.848027 
L 64.448104 53.512333 
L 63.776437 53.234119 
L 63.083077 53.015504 
L 62.373303 52.85815 
L 61.652515 52.763257 
L 60.926199 52.731545 
L 60.199884 52.763257 
L 59.479096 52.85815 
L 58.769321 53.015504 
L 58.075962 53.234119 
L 57.404295 53.512333 
L 56.759431 53.848027 
L 56.146279 54.238648 
L 55.569505 54.681222 
L 55.033499 55.172382 
L 54.54234 55.708388 
L 54.099766 56.285162 
L 53.709145 56.898314 
L 53.37345 57.543177 
L 53.095237 58.214844 
L 52.876621 58.908204 
L 52.719268 59.617978 
L 52.624374 60.338766 
L 52.592663 61.065082 
L 52.624374 61.791397 
L 52.719268 62.512185 
L 52.876621 63.22196 
L 53.095237 63.915319 
L 53.37345 64.586986 
L 53.709145 65.23185 
L 54.099766 65.845002 
L 54.54234 66.421776 
L 55.033499 66.957782 
L 55.569505 67.448941 
L 56.146279 67.891515 
L 56.759431 68.282136 
L 57.404295 68.617831 
L 58.075962 68.896044 
L 58.769321 69.11466 
L 59.479096 69.272013 
L 60.199884 69.366907 
L 60.926199 69.398618 
L 61.652515 69.366907 
L 62.373303 69.272013 
L 63.083077 69.11466 
L 63.776437 68.896044 
L 64.448104 68.617831 
L 65.092967 68.282136 
L 65.706119 67.891515 
L 66.282893 67.448941 
L 66.818899 66.957782 
L 67.310059 66.421776 
L 67.752633 65.845002 
L 68.143254 65.23185 
L 68.478948 64.586986 
L 68.757162 63.915319 
L 68.975777 63.22196 
L 69.133131 62.512185 
L 69.228024 61.791397 
L 69.259736 61.065082 
z
" clip-path="url(#pbf7b878745)" style="fill: #f03f37; stroke: #262626"/>
    <path d="M 143.862817 60.907584 
L 146.85606 61.681601 
L 146.774606 61.996596 
L 143.781363 61.222579 
z
" clip-path="url(#pbf7b878745)" style="fill: #4c4c4c"/>
    <path d="M 63.947329 143.548807 
L 65.017554 146.306304 
L 64.714242 146.424024 
L 63.644016 143.666526 
z
" clip-path="url(#pbf7b878745)" style="fill: #4c4c4c"/>
    <path d="M 61.87739 61.594766 
L 62.026965 61.710393 
L 61.827978 61.967804 
L 61.678402 61.852177 
z
" clip-path="url(#pbf7b878745)" style="fill: #4c4c4c"/>
    <path d="M 143.643641 144.310083 
L 144.153354 144.629448 
L 144.76064 144.768729 
L 145.4163 144.716641 
L 146.067217 144.477405 
L 146.660656 144.070403 
L 147.148542 143.528607 
L 147.491348 142.89591 
L 147.661303 142.22357 
L 147.644637 141.566055 
L 147.442701 140.976634 
L 147.071855 140.503058 
L 144.586788 138.423167 
L 141.315614 142.055799 
z
" clip-path="url(#pbf7b878745)" style="fill: #477b9d; stroke: #262626"/>
    <path d="M 141.315614 142.055799 
L 144.586788 138.423167 
L 142.101721 136.343276 
L 141.612672 136.029727 
L 141.037099 135.881662 
L 140.42163 135.911078 
L 139.816129 136.115591 
L 139.269648 136.478633 
L 138.826461 136.970791 
L 138.522472 137.552195 
L 138.382307 138.175743 
L 138.417323 138.790918 
L 138.624683 139.347882 
L 138.987588 139.801514 
z
" clip-path="url(#pbf7b878745)" style="fill: #f03f37; stroke: #262626"/>
    <path d="M 160.426872 146.365164 
L 160.386257 145.434941 
L 160.264723 144.511797 
L 160.063194 143.602759 
L 159.783204 142.714744 
L 159.426884 141.854511 
L 158.996946 141.028607 
L 158.496661 140.243318 
L 157.929838 139.504619 
L 157.300789 138.818133 
L 156.614303 138.189085 
L 155.875605 137.622262 
L 155.090315 137.121977 
L 154.264411 136.692038 
L 153.404178 136.335718 
L 152.516164 136.055728 
L 151.607125 135.854199 
L 150.683982 135.732665 
L 149.753759 135.692051 
L 148.823535 135.732665 
L 147.900392 135.854199 
L 146.991354 136.055728 
L 146.103339 136.335718 
L 145.243106 136.692038 
L 144.417202 137.121977 
L 143.631912 137.622262 
L 142.893214 138.189085 
L 142.206728 138.818133 
L 141.57768 139.504619 
L 141.010856 140.243318 
L 140.510572 141.028607 
L 140.080633 141.854511 
L 139.724313 142.714744 
L 139.444323 143.602759 
L 139.242794 144.511797 
L 139.12126 145.434941 
L 139.080646 146.365164 
L 139.12126 147.295387 
L 139.242794 148.218531 
L 139.444323 149.127569 
L 139.724313 150.015584 
L 140.080633 150.875816 
L 140.510572 151.701721 
L 141.010856 152.48701 
L 141.57768 153.225709 
L 142.206728 153.912195 
L 142.893214 154.541243 
L 143.631912 155.108066 
L 144.417202 155.608351 
L 145.243106 156.038289 
L 146.103339 156.39461 
L 146.991354 156.6746 
L 147.900392 156.876128 
L 148.823535 156.997663 
L 149.753759 157.038277 
L 150.683982 156.997663 
L 151.607125 156.876128 
L 152.516164 156.6746 
L 153.404178 156.39461 
L 154.264411 156.038289 
L 155.090315 155.608351 
L 155.875605 155.108066 
L 156.614303 154.541243 
L 157.300789 153.912195 
L 157.929838 153.225709 
L 158.496661 152.48701 
L 158.996946 151.701721 
L 159.426884 150.875816 
L 159.783204 150.015584 
L 160.063194 149.127569 
L 160.264723 148.218531 
L 160.386257 147.295387 
L 160.426872 146.365164 
z
" clip-path="url(#pbf7b878745)" style="fill: #477b9d; stroke: #262626"/>
    <path d="M 146.85606 61.681601 
L 148.197208 62.028406 
L 148.115754 62.343401 
L 146.774606 61.996596 
z
" clip-path="url(#pbf7b878745)" style="fill: #4c4c4c"/>
    <path d="M 65.017554 146.306304 
L 65.684354 148.024352 
L 65.381041 148.142072 
L 64.714242 146.424024 
z
" clip-path="url(#pbf7b878745)" style="fill: #4c4c4c"/>
    <path d="M 62.026965 61.710393 
L 62.810079 62.315766 
L 62.611091 62.573177 
L 61.827978 61.967804 
z
" clip-path="url(#pbf7b878745)" style="fill: #4c4c4c"/>
    <path d="M 149.818192 136.033458 
L 150.303126 113.976665 
L 150.628403 113.983816 
L 150.143469 136.040609 
z
" clip-path="url(#pbf7b878745)" style="fill: #4c4c4c"/>
    <path d="M 139.510834 147.13326 
L 117.580091 148.428889 
L 117.560903 148.1041 
L 139.491646 146.80847 
z
" clip-path="url(#pbf7b878745)" style="fill: #4c4c4c"/>
    <path d="M 147.402219 136.784995 
L 147.499716 137.07104 
L 147.796786 137.338473 
L 148.269361 137.565628 
L 148.879156 137.734101 
L 149.576771 137.830246 
L 150.305687 137.846272 
L 151.006853 137.78088 
L 151.623464 137.63937 
L 152.105566 137.433205 
L 152.414102 137.179086 
L 152.524076 136.897603 
L 152.80235 125.28178 
L 147.634732 125.168166 
z
" clip-path="url(#pbf7b878745)" style="fill: #477b9d; stroke: #262626"/>
    <path d="M 147.634732 125.168166 
L 152.80235 125.28178 
L 153.080625 113.665957 
L 152.978224 113.518595 
L 152.672941 113.378529 
L 152.189507 113.257105 
L 151.567088 113.164161 
L 150.856109 113.107227 
L 150.114167 113.090915 
L 149.401372 113.116547 
L 148.77547 113.182045 
L 148.287167 113.282104 
L 147.976023 113.408618 
L 147.867244 113.551337 
z
" clip-path="url(#pbf7b878745)" style="fill: #f03f37; stroke: #262626"/>
    <path d="M 159.343646 105.483162 
L 159.310574 104.725685 
L 159.211609 103.973974 
L 159.047505 103.233748 
L 158.81951 102.510642 
L 158.52936 101.810158 
L 158.179264 101.137628 
L 157.771884 100.498171 
L 157.310322 99.896652 
L 156.798091 99.33765 
L 156.239089 98.825419 
L 155.63757 98.363857 
L 154.998112 97.956477 
L 154.325583 97.606381 
L 153.625099 97.316231 
L 152.901993 97.088236 
L 152.161767 96.924132 
L 151.410056 96.825167 
L 150.652579 96.792095 
L 149.895103 96.825167 
L 149.143391 96.924132 
L 148.403166 97.088236 
L 147.680059 97.316231 
L 146.979576 97.606381 
L 146.307046 97.956477 
L 145.667588 98.363857 
L 145.066069 98.825419 
L 144.507067 99.33765 
L 143.994836 99.896652 
L 143.533274 100.498171 
L 143.125895 101.137628 
L 142.775798 101.810158 
L 142.485648 102.510642 
L 142.257654 103.233748 
L 142.09355 103.973974 
L 141.994585 104.725685 
L 141.961513 105.483162 
L 141.994585 106.240638 
L 142.09355 106.99235 
L 142.257654 107.732575 
L 142.485648 108.455682 
L 142.775798 109.156165 
L 143.125895 109.828695 
L 143.533274 110.468153 
L 143.994836 111.069672 
L 144.507067 111.628674 
L 145.066069 112.140905 
L 145.667588 112.602467 
L 146.307046 113.009846 
L 146.979576 113.359943 
L 147.680059 113.650093 
L 148.403166 113.878087 
L 149.143391 114.042191 
L 149.895103 114.141156 
L 150.652579 114.174228 
L 151.410056 114.141156 
L 152.161767 114.042191 
L 152.901993 113.878087 
L 153.625099 113.650093 
L 154.325583 113.359943 
L 154.998112 113.009846 
L 155.63757 112.602467 
L 156.239089 112.140905 
L 156.798091 111.628674 
L 157.310322 111.069672 
L 157.771884 110.468153 
L 158.179264 109.828695 
L 158.52936 109.156165 
L 158.81951 108.455682 
L 159.047505 107.732575 
L 159.211609 106.99235 
L 159.310574 106.240638 
L 159.343646 105.483162 
z
" clip-path="url(#pbf7b878745)" style="fill: #f03f37; stroke: #262626"/>
    <path d="M 62.810079 62.315766 
L 62.898869 62.384404 
L 62.699882 62.641815 
L 62.611091 62.573177 
z
" clip-path="url(#pbf7b878745)" style="fill: #4c4c4c"/>
    <path d="M 140.489149 149.478514 
L 140.781196 149.357319 
L 141.037344 149.038782 
L 141.236841 148.54871 
L 141.363527 147.926805 
L 141.407137 147.22345 
L 141.364139 146.495626 
L 141.238015 145.802299 
L 141.038984 145.199636 
L 140.78317 144.736463 
L 140.491298 144.450302 
L 140.187012 144.364337 
L 128.615555 145.022359 
L 128.920706 150.187558 
z
" clip-path="url(#pbf7b878745)" style="fill: #477b9d; stroke: #262626"/>
    <path d="M 128.920706 150.187558 
L 128.615555 145.022359 
L 117.044098 145.68038 
L 116.888305 145.7956 
L 116.757617 146.112779 
L 116.66262 146.60622 
L 116.611011 147.23595 
L 116.606971 147.95095 
L 116.650827 148.693296 
L 116.739027 149.402846 
L 116.864425 150.022119 
L 117.016862 150.500943 
L 117.183988 150.800527 
L 117.352264 150.896601 
z
" clip-path="url(#pbf7b878745)" style="fill: #f03f37; stroke: #262626"/>
    <path d="M 117.817935 148.766381 
L 117.784795 148.007354 
L 117.685628 147.254103 
L 117.521187 146.512362 
L 117.292726 145.787776 
L 117.001982 145.085858 
L 116.651169 144.411951 
L 116.242955 143.771184 
L 115.780449 143.168434 
L 115.267169 142.608287 
L 114.707022 142.095008 
L 114.104272 141.632501 
L 113.463505 141.224288 
L 112.789598 140.873474 
L 112.087681 140.58273 
L 111.363094 140.354269 
L 110.621353 140.189829 
L 109.868103 140.090661 
L 109.109075 140.057522 
L 108.350048 140.090661 
L 107.596798 140.189829 
L 106.855057 140.354269 
L 106.13047 140.58273 
L 105.428552 140.873474 
L 104.754646 141.224288 
L 104.113879 141.632501 
L 103.511129 142.095008 
L 102.950982 142.608287 
L 102.437702 143.168434 
L 101.975196 143.771184 
L 101.566982 144.411951 
L 101.216169 145.085858 
L 100.925425 145.787776 
L 100.696963 146.512362 
L 100.532523 147.254103 
L 100.433356 148.007354 
L 100.400216 148.766381 
L 100.433356 149.525408 
L 100.532523 150.278658 
L 100.696963 151.020399 
L 100.925425 151.744986 
L 101.216169 152.446904 
L 101.566982 153.12081 
L 101.975196 153.761577 
L 102.437702 154.364328 
L 102.950982 154.924474 
L 103.511129 155.437754 
L 104.113879 155.900261 
L 104.754646 156.308474 
L 105.428552 156.659288 
L 106.13047 156.950032 
L 106.855057 157.178493 
L 107.596798 157.342933 
L 108.350048 157.4421 
L 109.109075 157.47524 
L 109.868103 157.4421 
L 110.621353 157.342933 
L 111.363094 157.178493 
L 112.087681 156.950032 
L 112.789598 156.659288 
L 113.463505 156.308474 
L 114.104272 155.900261 
L 114.707022 155.437754 
L 115.267169 154.924474 
L 115.780449 154.364328 
L 116.242955 153.761577 
L 116.651169 153.12081 
L 117.001982 152.446904 
L 117.292726 151.744986 
L 117.521187 151.020399 
L 117.685628 150.278658 
L 117.784795 149.525408 
L 117.817935 148.766381 
z
" clip-path="url(#pbf7b878745)" style="fill: #f03f37; stroke: #262626"/>
    <path d="M 150.678165 96.918369 
L 151.180287 74.079849 
L 151.505564 74.087001 
L 151.003442 96.925521 
z
" clip-path="url(#pbf7b878745)" style="fill: #4c4c4c"/>
    <path d="M 62.898869 62.384404 
L 63.622474 62.943775 
L 63.423487 63.201186 
L 62.699882 62.641815 
z
" clip-path="url(#pbf7b878745)" style="fill: #4c4c4c"/>
    <path d="M 100.586107 149.432864 
L 77.788246 150.779722 
L 77.769058 150.454933 
L 100.566919 149.108075 
z
" clip-path="url(#pbf7b878745)" style="fill: #4c4c4c"/>
    <path d="M 146.228992 64.432511 
L 146.903036 64.495617 
L 147.576375 64.345164 
L 148.194459 63.993338 
L 148.707214 63.468645 
L 149.073101 62.81359 
L 149.262478 62.081242 
L 149.260001 61.330933 
L 149.065872 60.623447 
L 148.695818 60.016101 
L 148.179819 59.558099 
L 147.559678 59.286545 
L 145.031514 58.762835 
L 143.763868 63.665015 
z
" clip-path="url(#pbf7b878745)" style="fill: #477b9d; stroke: #262626"/>
    <path d="M 143.763868 63.665015 
L 145.031514 58.762835 
L 142.50335 58.239126 
L 141.870267 58.176076 
L 141.239678 58.306832 
L 140.662669 58.6208 
L 140.185986 59.092545 
L 139.848247 59.683849 
L 139.676814 60.346807 
L 139.685575 61.027712 
L 139.87382 61.671399 
L 140.226299 62.225722 
L 140.714457 62.645772 
L 141.298745 62.89752 
z
" clip-path="url(#pbf7b878745)" style="fill: #f03f37; stroke: #262626"/>
    <path d="M 154.005772 73.874741 
L 153.898554 73.853785 
L 153.584771 73.829795 
L 153.089842 73.804713 
L 152.453864 73.780572 
L 151.72836 73.759328 
L 150.972107 73.742701 
L 150.24637 73.732039 
L 149.609946 73.728205 
L 149.114393 73.73151 
L 148.799859 73.741687 
L 148.691824 73.75791 
L 148.458179 85.529138 
L 153.721843 85.644864 
z
" clip-path="url(#pbf7b878745)" style="fill: #477b9d; stroke: #262626"/>
    <path d="M 153.721843 85.644864 
L 148.458179 85.529138 
L 148.224534 97.300367 
L 148.326934 97.447728 
L 148.632217 97.587795 
L 149.115651 97.709218 
L 149.73807 97.802162 
L 150.44905 97.859096 
L 151.190991 97.875408 
L 151.903786 97.849777 
L 152.529689 97.784278 
L 153.017992 97.684219 
L 153.329136 97.557705 
L 153.437914 97.414987 
z
" clip-path="url(#pbf7b878745)" style="fill: #f03f37; stroke: #262626"/>
    <path d="M 162.658409 63.07248 
L 162.616271 62.10737 
L 162.490179 61.149604 
L 162.281092 60.206473 
L 161.990601 59.285154 
L 161.620918 58.392659 
L 161.174855 57.53578 
L 160.655807 56.721039 
L 160.067726 55.954636 
L 159.415085 55.242404 
L 158.702853 54.589764 
L 157.93645 54.001682 
L 157.121709 53.482634 
L 156.26483 53.036571 
L 155.372335 52.666888 
L 154.451016 52.376397 
L 153.507885 52.16731 
L 152.550119 52.041218 
L 151.585009 51.99908 
L 150.619899 52.041218 
L 149.662133 52.16731 
L 148.719002 52.376397 
L 147.797683 52.666888 
L 146.905188 53.036571 
L 146.048309 53.482634 
L 145.233568 54.001682 
L 144.467165 54.589764 
L 143.754933 55.242404 
L 143.102292 55.954636 
L 142.514211 56.721039 
L 141.995163 57.53578 
L 141.5491 58.392659 
L 141.179417 59.285154 
L 140.888926 60.206473 
L 140.679839 61.149604 
L 140.553746 62.10737 
L 140.511609 63.07248 
L 140.553746 64.037591 
L 140.679839 64.995356 
L 140.888926 65.938487 
L 141.179417 66.859806 
L 141.5491 67.752301 
L 141.995163 68.60918 
L 142.514211 69.423922 
L 143.102292 70.190325 
L 143.754933 70.902557 
L 144.467165 71.555197 
L 145.233568 72.143279 
L 146.048309 72.662326 
L 146.905188 73.108389 
L 147.797683 73.478073 
L 148.719002 73.768563 
L 149.662133 73.977651 
L 150.619899 74.103743 
L 151.585009 74.14588 
L 152.550119 74.103743 
L 153.507885 73.977651 
L 154.451016 73.768563 
L 155.372335 73.478073 
L 156.26483 73.108389 
L 157.121709 72.662326 
L 157.93645 72.143279 
L 158.702853 71.555197 
L 159.415085 70.902557 
L 160.067726 70.190325 
L 160.655807 69.423922 
L 161.174855 68.60918 
L 161.620918 67.752301 
L 161.990601 66.859806 
L 162.281092 65.938487 
L 162.490179 64.995356 
L 162.616271 64.037591 
L 162.658409 63.07248 
z
" clip-path="url(#pbf7b878745)" style="fill: #477b9d; stroke: #262626"/>
    <path d="M 63.622474 62.943775 
L 63.807149 63.086535 
L 63.608162 63.343946 
L 63.423487 63.201186 
z
" clip-path="url(#pbf7b878745)" style="fill: #4c4c4c"/>
    <path d="M 62.593287 147.885538 
L 62.939407 148.478559 
L 63.459042 148.94531 
L 64.110097 149.247977 
L 64.839825 149.36204 
L 65.589109 149.278259 
L 66.297247 149.00342 
L 66.906869 148.55979 
L 67.368587 147.983309 
L 67.644995 147.320679 
L 67.713702 146.625585 
L 67.569139 145.954336 
L 66.546835 143.67107 
L 61.807609 145.510433 
z
" clip-path="url(#pbf7b878745)" style="fill: #477b9d; stroke: #262626"/>
    <path d="M 61.807609 145.510433 
L 66.546835 143.67107 
L 65.524531 141.387804 
L 65.203393 140.830731 
L 64.725884 140.389576 
L 64.13069 140.100079 
L 63.46603 139.985693 
L 62.785751 140.055684 
L 62.144964 140.304383 
L 61.595583 140.711641 
L 61.182115 141.244465 
L 60.938056 141.859688 
L 60.88318 142.507469 
L 61.021931 143.135329 
z
" clip-path="url(#pbf7b878745)" style="fill: #f03f37; stroke: #262626"/>
    <path d="M 77.387205 147.967063 
L 77.391718 148.075087 
L 77.408617 148.390189 
L 77.436532 148.886841 
L 77.473201 149.524806 
L 77.515654 150.252402 
L 77.560452 151.010682 
L 77.603965 151.738214 
L 77.642669 152.37606 
L 77.673427 152.872544 
L 77.693747 153.187443 
L 77.701985 153.295248 
L 89.438019 152.573815 
L 89.126546 147.301612 
z
" clip-path="url(#pbf7b878745)" style="fill: #477b9d; stroke: #262626"/>
    <path d="M 89.126546 147.301612 
L 89.438019 152.573815 
L 101.174052 151.852381 
L 101.329846 151.737162 
L 101.460534 151.419983 
L 101.555531 150.926541 
L 101.60714 150.296812 
L 101.61118 149.581812 
L 101.567324 148.839466 
L 101.479124 148.129915 
L 101.353726 147.510643 
L 101.201289 147.031819 
L 101.034163 146.732235 
L 100.865887 146.636161 
z
" clip-path="url(#pbf7b878745)" style="fill: #f03f37; stroke: #262626"/>
    <path d="M 77.888415 151.267778 
L 77.846101 150.298629 
L 77.719481 149.336855 
L 77.509519 148.389777 
L 77.217813 147.464603 
L 76.846582 146.568372 
L 76.398652 145.707908 
L 75.877433 144.889757 
L 75.28689 144.120146 
L 74.631518 143.404934 
L 73.916306 142.749562 
L 73.146696 142.15902 
L 72.328545 141.6378 
L 71.46808 141.18987 
L 70.57185 140.81864 
L 69.646675 140.526933 
L 68.699597 140.316971 
L 67.737824 140.190351 
L 66.768674 140.148037 
L 65.799525 140.190351 
L 64.837752 140.316971 
L 63.890674 140.526933 
L 62.965499 140.81864 
L 62.069269 141.18987 
L 61.208804 141.6378 
L 60.390653 142.15902 
L 59.621043 142.749562 
L 58.905831 143.404934 
L 58.250459 144.120146 
L 57.659916 144.889757 
L 57.138697 145.707908 
L 56.690767 146.568372 
L 56.319536 147.464603 
L 56.02783 148.389777 
L 55.817868 149.336855 
L 55.691248 150.298629 
L 55.648934 151.267778 
L 55.691248 152.236927 
L 55.817868 153.1987 
L 56.02783 154.145778 
L 56.319536 155.070953 
L 56.690767 155.967183 
L 57.138697 156.827648 
L 57.659916 157.645799 
L 58.250459 158.415409 
L 58.905831 159.130622 
L 59.621043 159.785993 
L 60.390653 160.376536 
L 61.208804 160.897755 
L 62.069269 161.345685 
L 62.965499 161.716916 
L 63.890674 162.008622 
L 64.837752 162.218584 
L 65.799525 162.345204 
L 66.768674 162.387518 
L 67.737824 162.345204 
L 68.699597 162.218584 
L 69.646675 162.008622 
L 70.57185 161.716916 
L 71.46808 161.345685 
L 72.328545 160.897755 
L 73.146696 160.376536 
L 73.916306 159.785993 
L 74.631518 159.130622 
L 75.28689 158.415409 
L 75.877433 157.645799 
L 76.398652 156.827648 
L 76.846582 155.967183 
L 77.217813 155.070953 
L 77.509519 154.145778 
L 77.719481 153.1987 
L 77.846101 152.236927 
L 77.888415 151.267778 
z
" clip-path="url(#pbf7b878745)" style="fill: #477b9d; stroke: #262626"/>
    <path d="M 63.807149 63.086535 
L 64.294207 63.463046 
L 64.09522 63.720457 
L 63.608162 63.343946 
z
" clip-path="url(#pbf7b878745)" style="fill: #4c4c4c"/>
    <path d="M 140.959667 63.418139 
L 118.211681 63.809835 
L 118.20608 63.484528 
L 140.954066 63.092832 
z
" clip-path="url(#pbf7b878745)" style="fill: #4c4c4c"/>
    <path d="M 66.441708 140.532844 
L 66.090599 117.588048 
L 66.415917 117.583069 
L 66.767026 140.527866 
z
" clip-path="url(#pbf7b878745)" style="fill: #4c4c4c"/>
    <path d="M 142.032454 65.894975 
L 142.367497 65.781538 
L 142.671691 65.462018 
L 142.92039 64.962302 
L 143.093447 64.322873 
L 143.176842 63.595534 
L 143.163819 62.83921 
L 143.055433 62.115173 
L 142.860464 61.482081 
L 142.594708 60.991223 
L 142.279695 60.682366 
L 141.940945 60.580531 
L 129.843509 60.761328 
L 129.935966 66.130771 
z
" clip-path="url(#pbf7b878745)" style="fill: #477b9d; stroke: #262626"/>
    <path d="M 129.935966 66.130771 
L 129.843509 60.761328 
L 117.746074 60.942126 
L 117.562227 61.055188 
L 117.397058 61.378818 
L 117.263947 61.886799 
L 117.173679 62.537975 
L 117.133567 63.279593 
L 117.146859 64.051572 
L 117.21248 64.79137 
L 117.325113 65.439052 
L 117.475633 65.942149 
L 117.651847 66.259901 
L 117.839477 66.366567 
z
" clip-path="url(#pbf7b878745)" style="fill: #f03f37; stroke: #262626"/>
    <path d="M 118.469203 63.798394 
L 118.434796 63.010325 
L 118.331834 62.228254 
L 118.161102 61.458132 
L 117.9239 60.705822 
L 117.622031 59.977047 
L 117.257795 59.277356 
L 116.833963 58.612072 
L 116.35376 57.986259 
L 115.820841 57.404681 
L 115.239262 56.871762 
L 114.613449 56.391559 
L 113.948166 55.967726 
L 113.248474 55.60349 
L 112.5197 55.301622 
L 111.767389 55.064419 
L 110.997268 54.893687 
L 110.215196 54.790726 
L 109.427128 54.756318 
L 108.639059 54.790726 
L 107.856988 54.893687 
L 107.086866 55.064419 
L 106.334555 55.301622 
L 105.605781 55.60349 
L 104.90609 55.967726 
L 104.240806 56.391559 
L 103.614993 56.871762 
L 103.033414 57.404681 
L 102.500496 57.986259 
L 102.020293 58.612072 
L 101.59646 59.277356 
L 101.232224 59.977047 
L 100.930356 60.705822 
L 100.693153 61.458132 
L 100.522421 62.228254 
L 100.419459 63.010325 
L 100.385052 63.798394 
L 100.419459 64.586463 
L 100.522421 65.368534 
L 100.693153 66.138655 
L 100.930356 66.890966 
L 101.232224 67.61974 
L 101.59646 68.319432 
L 102.020293 68.984715 
L 102.500496 69.610528 
L 103.033414 70.192107 
L 103.614993 70.725026 
L 104.240806 71.205229 
L 104.90609 71.629061 
L 105.605781 71.993298 
L 106.334555 72.295166 
L 107.086866 72.532368 
L 107.856988 72.7031 
L 108.639059 72.806062 
L 109.427128 72.84047 
L 110.215196 72.806062 
L 110.997268 72.7031 
L 111.767389 72.532368 
L 112.5197 72.295166 
L 113.248474 71.993298 
L 113.948166 71.629061 
L 114.613449 71.205229 
L 115.239262 70.725026 
L 115.820841 70.192107 
L 116.35376 69.610528 
L 116.833963 68.984715 
L 117.257795 68.319432 
L 117.622031 67.61974 
L 117.9239 66.890966 
L 118.161102 66.138655 
L 118.331834 65.368534 
L 118.434796 64.586463 
L 118.469203 63.798394 
z
" clip-path="url(#pbf7b878745)" style="fill: #f03f37; stroke: #262626"/>
    <path d="M 63.951294 141.574457 
L 64.064354 141.897602 
L 64.384435 142.19126 
L 64.885605 142.43164 
L 65.527263 142.599268 
L 66.257425 142.680563 
L 67.016938 142.668941 
L 67.74427 142.565342 
L 68.380499 142.37816 
L 68.874079 142.122558 
L 69.185025 141.819244 
L 69.288144 141.492791 
L 69.126581 129.311778 
L 63.740073 129.394204 
z
" clip-path="url(#pbf7b878745)" style="fill: #477b9d; stroke: #262626"/>
    <path d="M 63.740073 129.394204 
L 69.126581 129.311778 
L 68.965018 117.130766 
L 68.852338 116.963915 
L 68.528583 116.813951 
L 68.019983 116.693023 
L 67.367741 116.610927 
L 66.624698 116.574316 
L 65.85105 116.586155 
L 65.109476 116.645484 
L 64.460051 116.747498 
L 63.955389 116.883931 
L 63.636374 117.043731 
L 63.528852 117.213952 
z
" clip-path="url(#pbf7b878745)" style="fill: #f03f37; stroke: #262626"/>
    <path d="M 75.179258 108.741326 
L 75.144777 107.951579 
L 75.041596 107.167841 
L 74.870501 106.396079 
L 74.632793 105.642166 
L 74.330282 104.911839 
L 73.965269 104.210657 
L 73.540534 103.543956 
L 73.059308 102.91681 
L 72.525254 102.333993 
L 71.942436 101.799939 
L 71.31529 101.318713 
L 70.648589 100.893977 
L 69.947407 100.528965 
L 69.217081 100.226454 
L 68.463167 99.988746 
L 67.691405 99.81765 
L 66.907668 99.714469 
L 66.11792 99.679988 
L 65.328173 99.714469 
L 64.544436 99.81765 
L 63.772674 99.988746 
L 63.01876 100.226454 
L 62.288434 100.528965 
L 61.587251 100.893977 
L 60.92055 101.318713 
L 60.293405 101.799939 
L 59.710587 102.333993 
L 59.176533 102.91681 
L 58.695307 103.543956 
L 58.270572 104.210657 
L 57.905559 104.911839 
L 57.603048 105.642166 
L 57.36534 106.396079 
L 57.194245 107.167841 
L 57.091064 107.951579 
L 57.056582 108.741326 
L 57.091064 109.531074 
L 57.194245 110.314811 
L 57.36534 111.086573 
L 57.603048 111.840486 
L 57.905559 112.570813 
L 58.270572 113.271995 
L 58.695307 113.938696 
L 59.176533 114.565842 
L 59.710587 115.14866 
L 60.293405 115.682714 
L 60.92055 116.16394 
L 61.587251 116.588675 
L 62.288434 116.953687 
L 63.01876 117.256199 
L 63.772674 117.493907 
L 64.544436 117.665002 
L 65.328173 117.768183 
L 66.11792 117.802664 
L 66.907668 117.768183 
L 67.691405 117.665002 
L 68.463167 117.493907 
L 69.217081 117.256199 
L 69.947407 116.953687 
L 70.648589 116.588675 
L 71.31529 116.16394 
L 71.942436 115.682714 
L 72.525254 115.14866 
L 73.059308 114.565842 
L 73.540534 113.938696 
L 73.965269 113.271995 
L 74.330282 112.570813 
L 74.632793 111.840486 
L 74.870501 111.086573 
L 75.041596 110.314811 
L 75.144777 109.531074 
L 75.179258 108.741326 
z
" clip-path="url(#pbf7b878745)" style="fill: #f03f37; stroke: #262626"/>
    <path d="M 100.57151 64.11358 
L 76.889046 64.521367 
L 76.883445 64.196059 
L 100.565908 63.788273 
z
" clip-path="url(#pbf7b878745)" style="fill: #4c4c4c"/>
    <path d="M 65.818859 99.829975 
L 65.454767 76.036767 
L 65.780085 76.031789 
L 66.144177 99.824997 
z
" clip-path="url(#pbf7b878745)" style="fill: #4c4c4c"/>
    <path d="M 63.497699 66.558125 
L 64.184299 66.946905 
L 64.952681 67.126439 
L 65.740596 67.082181 
L 66.484211 66.817718 
L 67.123284 66.354474 
L 67.606039 65.729979 
L 67.893367 64.994826 
L 67.961991 64.208572 
L 67.806351 63.434916 
L 67.439057 62.736533 
L 66.889863 62.170003 
L 64.742668 60.682763 
L 61.517551 64.854792 
z
" clip-path="url(#pbf7b878745)" style="fill: #477b9d; stroke: #262626"/>
    <path d="M 61.517551 64.854792 
L 64.742668 60.682763 
L 62.595473 59.195524 
L 61.976417 58.844973 
L 61.28364 58.683066 
L 60.573267 58.722918 
L 59.902847 58.961301 
L 59.326695 59.378902 
L 58.891486 59.94189 
L 58.632479 60.604656 
L 58.570657 61.313505 
L 58.711028 62.011011 
L 59.042221 62.640666 
L 59.537404 63.151459 
z
" clip-path="url(#pbf7b878745)" style="fill: #f03f37; stroke: #262626"/>
    <path d="M 76.60958 61.589873 
L 76.609366 61.702227 
L 76.613038 62.030113 
L 76.620297 62.546968 
L 76.630556 63.210919 
L 76.642983 63.968177 
L 76.656573 64.757393 
L 76.670223 65.514629 
L 76.682829 66.17854 
L 76.693368 66.695338 
L 76.700987 67.023156 
L 76.705069 67.135436 
L 88.906625 66.895049 
L 88.812179 61.410047 
z
" clip-path="url(#pbf7b878745)" style="fill: #477b9d; stroke: #262626"/>
    <path d="M 88.812179 61.410047 
L 88.906625 66.895049 
L 101.108181 66.654662 
L 101.292028 66.5416 
L 101.457197 66.217969 
L 101.590308 65.709989 
L 101.680576 65.058812 
L 101.720688 64.317194 
L 101.707396 63.545216 
L 101.641775 62.805418 
L 101.529142 62.157735 
L 101.378622 61.654639 
L 101.202409 61.336886 
L 101.014778 61.230221 
z
" clip-path="url(#pbf7b878745)" style="fill: #f03f37; stroke: #262626"/>
    <path d="M 68.38621 75.724944 
L 68.273557 75.704938 
L 67.945389 75.689991 
L 67.428293 75.681313 
L 66.76416 75.679607 
L 66.006794 75.685012 
L 65.217554 75.697089 
L 64.460378 75.71486 
L 63.796608 75.736886 
L 63.280019 75.761382 
L 62.952462 75.786363 
L 62.840474 75.809807 
L 63.055648 88.080847 
L 68.5466 87.996822 
z
" clip-path="url(#pbf7b878745)" style="fill: #477b9d; stroke: #262626"/>
    <path d="M 68.5466 87.996822 
L 63.055648 88.080847 
L 63.270823 100.351887 
L 63.383503 100.518738 
L 63.707258 100.668702 
L 64.215858 100.78963 
L 64.8681 100.871725 
L 65.611143 100.908336 
L 66.38479 100.896498 
L 67.126365 100.837168 
L 67.77579 100.735155 
L 68.280452 100.598721 
L 68.599467 100.438921 
L 68.706989 100.268701 
z
" clip-path="url(#pbf7b878745)" style="fill: #f03f37; stroke: #262626"/>
    <path d="M 76.996748 64.555774 
L 76.952778 63.548692 
L 76.821202 62.549275 
L 76.603022 61.565128 
L 76.299898 60.603742 
L 75.914137 59.672433 
L 75.448676 58.778289 
L 74.907055 57.928116 
L 74.293399 57.128383 
L 73.612376 56.385177 
L 72.86917 55.704154 
L 72.069437 55.090497 
L 71.219263 54.548877 
L 70.32512 54.083415 
L 69.393811 53.697654 
L 68.432425 53.394531 
L 67.448278 53.17635 
L 66.44886 53.044775 
L 65.441778 53.000805 
L 64.434696 53.044775 
L 63.435279 53.17635 
L 62.451132 53.394531 
L 61.489746 53.697654 
L 60.558437 54.083415 
L 59.664293 54.548877 
L 58.81412 55.090497 
L 58.014387 55.704154 
L 57.271181 56.385177 
L 56.590158 57.128383 
L 55.976501 57.928116 
L 55.434881 58.778289 
L 54.969419 59.672433 
L 54.583658 60.603742 
L 54.280534 61.565128 
L 54.062354 62.549275 
L 53.930779 63.548692 
L 53.886808 64.555774 
L 53.930779 65.562856 
L 54.062354 66.562274 
L 54.280534 67.546421 
L 54.583658 68.507807 
L 54.969419 69.439116 
L 55.434881 70.333259 
L 55.976501 71.183433 
L 56.590158 71.983166 
L 57.271181 72.726372 
L 58.014387 73.407395 
L 58.81412 74.021052 
L 59.664293 74.562672 
L 60.558437 75.028134 
L 61.489746 75.413894 
L 62.451132 75.717018 
L 63.435279 75.935198 
L 64.434696 76.066774 
L 65.441778 76.110744 
L 66.44886 76.066774 
L 67.448278 75.935198 
L 68.432425 75.717018 
L 69.393811 75.413894 
L 70.32512 75.028134 
L 71.219263 74.562672 
L 72.069437 74.021052 
L 72.86917 73.407395 
L 73.612376 72.726372 
L 74.293399 71.983166 
L 74.907055 71.183433 
L 75.448676 70.333259 
L 75.914137 69.439116 
L 76.299898 68.507807 
L 76.603022 67.546421 
L 76.821202 66.562274 
L 76.952778 65.562856 
L 76.996748 64.555774 
z
" clip-path="url(#pbf7b878745)" style="fill: #477b9d; stroke: #262626"/>
   </g>
   <g id="line2d_1">
    <path d="M 33.444 175.036493 
L 33.444 163.550044 
" clip-path="url(#pbf7b878745)" style="fill: none; stroke: #4c4c4c; stroke-width: 0.746488; stroke-linecap: round"/>
   </g>
   <g id="line2d_2">
    <path d="M 33.444 175.036493 
L 22.006507 175.4341 
" clip-path="url(#pbf7b878745)" style="fill: none; stroke: #4c4c4c; stroke-width: 0.746488; stroke-linecap: round"/>
   </g>
   <g id="line2d_3">
    <path d="M 33.444 175.036493 
L 35.731499 177.024532 
" clip-path="url(#pbf7b878745)" style="fill: none; stroke: #4c4c4c; stroke-width: 0.746488; stroke-linecap: round"/>
   </g>
   <g id="text_1">
    <path d="M 31.731161 156.703508 
L 31.731161 162.033896 
L 32.365675 162.033896 
L 32.365675 161.518353 
L 32.380838 161.518353 
Q 32.484647 161.690979 32.637443 161.806451 
Q 32.791406 161.921923 32.962865 161.989574 
Q 33.134324 162.056058 33.309282 162.085218 
Q 33.485407 162.115544 33.62654 162.115544 
Q 34.067434 162.115544 34.399854 161.959248 
Q 34.732274 161.802952 34.951555 161.530017 
Q 35.172002 161.257083 35.280476 160.892004 
Q 35.38895 160.525758 35.38895 160.11519 
Q 35.38895 159.704622 35.276977 159.339543 
Q 35.165004 158.973297 34.944557 158.693364 
Q 34.72411 158.413431 34.391689 158.248971 
Q 34.060436 158.08451 33.612543 158.08451 
Q 33.208973 158.08451 32.873054 158.230309 
Q 32.537134 158.376107 32.380838 158.696863 
L 32.365675 158.696863 
L 32.365675 156.703508 
L 31.731161 156.703508 
z
M 34.717111 160.070867 
Q 34.717111 160.354299 34.656459 160.623735 
Q 34.596974 160.892004 34.462839 161.100787 
Q 34.328705 161.30957 34.108257 161.436706 
Q 33.88781 161.563843 33.560056 161.563843 
Q 33.231134 161.563843 32.999023 161.441372 
Q 32.768079 161.317735 32.62228 161.11595 
Q 32.477648 160.914165 32.409998 160.649395 
Q 32.343514 160.384625 32.343514 160.100027 
Q 32.343514 159.831758 32.406499 159.570487 
Q 32.469484 159.309217 32.611783 159.103932 
Q 32.754082 158.898648 32.978028 158.771512 
Q 33.201975 158.644376 33.522731 158.644376 
Q 33.828325 158.644376 34.05577 158.764514 
Q 34.284382 158.883485 34.429014 159.08527 
Q 34.574812 159.287055 34.645962 159.544827 
Q 34.717111 159.801432 34.717111 160.070867 
z
" style="fill: #4c4c4c; stroke: #ffffff; stroke-width: 2.239463"/>
    <path d="M 31.731161 156.703508 
L 31.731161 162.033896 
L 32.365675 162.033896 
L 32.365675 161.518353 
L 32.380838 161.518353 
Q 32.484647 161.690979 32.637443 161.806451 
Q 32.791406 161.921923 32.962865 161.989574 
Q 33.134324 162.056058 33.309282 162.085218 
Q 33.485407 162.115544 33.62654 162.115544 
Q 34.067434 162.115544 34.399854 161.959248 
Q 34.732274 161.802952 34.951555 161.530017 
Q 35.172002 161.257083 35.280476 160.892004 
Q 35.38895 160.525758 35.38895 160.11519 
Q 35.38895 159.704622 35.276977 159.339543 
Q 35.165004 158.973297 34.944557 158.693364 
Q 34.72411 158.413431 34.391689 158.248971 
Q 34.060436 158.08451 33.612543 158.08451 
Q 33.208973 158.08451 32.873054 158.230309 
Q 32.537134 158.376107 32.380838 158.696863 
L 32.365675 158.696863 
L 32.365675 156.703508 
L 31.731161 156.703508 
z
M 34.717111 160.070867 
Q 34.717111 160.354299 34.656459 160.623735 
Q 34.596974 160.892004 34.462839 161.100787 
Q 34.328705 161.30957 34.108257 161.436706 
Q 33.88781 161.563843 33.560056 161.563843 
Q 33.231134 161.563843 32.999023 161.441372 
Q 32.768079 161.317735 32.62228 161.11595 
Q 32.477648 160.914165 32.409998 160.649395 
Q 32.343514 160.384625 32.343514 160.100027 
Q 32.343514 159.831758 32.406499 159.570487 
Q 32.469484 159.309217 32.611783 159.103932 
Q 32.754082 158.898648 32.978028 158.771512 
Q 33.201975 158.644376 33.522731 158.644376 
Q 33.828325 158.644376 34.05577 158.764514 
Q 34.284382 158.883485 34.429014 159.08527 
Q 34.574812 159.287055 34.645962 159.544827 
Q 34.717111 159.801432 34.717111 160.070867 
z
" style="fill: #4c4c4c"/>
   </g>
   <g id="text_2">
    <path d="M 19.668747 174.863465 
L 20.325423 174.863465 
Q 20.288098 174.519381 20.145799 174.269774 
Q 20.004666 174.019001 19.784219 173.855707 
Q 19.563772 173.691246 19.276841 173.613098 
Q 18.98991 173.533784 18.660989 173.533784 
Q 18.206098 173.533784 17.862013 173.694745 
Q 17.519096 173.855707 17.290484 174.135639 
Q 17.063038 174.415572 16.951065 174.792315 
Q 16.839092 175.169058 16.839092 175.601788 
Q 16.839092 176.034517 16.954564 176.397264 
Q 17.071203 176.758844 17.298649 177.020114 
Q 17.526094 177.281385 17.865513 177.423684 
Q 18.206098 177.564817 18.645826 177.564817 
Q 19.385315 177.564817 19.814545 177.177577 
Q 20.243776 176.78917 20.347584 176.071842 
L 19.699073 176.071842 
Q 19.638421 176.519734 19.373651 176.767008 
Q 19.108881 177.013116 18.638827 177.013116 
Q 18.340232 177.013116 18.123284 176.894145 
Q 17.907503 176.774007 17.772202 176.576887 
Q 17.638067 176.378602 17.573916 176.125496 
Q 17.510931 175.871223 17.510931 175.601788 
Q 17.510931 175.311357 17.570417 175.038423 
Q 17.631069 174.765488 17.768703 174.556705 
Q 17.907503 174.347922 18.138447 174.220786 
Q 18.369392 174.093649 18.713476 174.093649 
Q 19.115879 174.093649 19.354989 174.295434 
Q 19.594098 174.497219 19.668747 174.863465 
z
" style="fill: #4c4c4c; stroke: #ffffff; stroke-width: 2.239463"/>
    <path d="M 19.668747 174.863465 
L 20.325423 174.863465 
Q 20.288098 174.519381 20.145799 174.269774 
Q 20.004666 174.019001 19.784219 173.855707 
Q 19.563772 173.691246 19.276841 173.613098 
Q 18.98991 173.533784 18.660989 173.533784 
Q 18.206098 173.533784 17.862013 173.694745 
Q 17.519096 173.855707 17.290484 174.135639 
Q 17.063038 174.415572 16.951065 174.792315 
Q 16.839092 175.169058 16.839092 175.601788 
Q 16.839092 176.034517 16.954564 176.397264 
Q 17.071203 176.758844 17.298649 177.020114 
Q 17.526094 177.281385 17.865513 177.423684 
Q 18.206098 177.564817 18.645826 177.564817 
Q 19.385315 177.564817 19.814545 177.177577 
Q 20.243776 176.78917 20.347584 176.071842 
L 19.699073 176.071842 
Q 19.638421 176.519734 19.373651 176.767008 
Q 19.108881 177.013116 18.638827 177.013116 
Q 18.340232 177.013116 18.123284 176.894145 
Q 17.907503 176.774007 17.772202 176.576887 
Q 17.638067 176.378602 17.573916 176.125496 
Q 17.510931 175.871223 17.510931 175.601788 
Q 17.510931 175.311357 17.570417 175.038423 
Q 17.631069 174.765488 17.768703 174.556705 
Q 17.907503 174.347922 18.138447 174.220786 
Q 18.369392 174.093649 18.713476 174.093649 
Q 19.115879 174.093649 19.354989 174.295434 
Q 19.594098 174.497219 19.668747 174.863465 
z
" style="fill: #4c4c4c"/>
   </g>
   <g id="text_3">
    <path d="M 38.686201 180.198744 
Q 38.52174 180.295554 38.230143 180.295554 
Q 37.984036 180.295554 37.838237 180.15792 
Q 37.693605 180.020286 37.693605 179.706528 
Q 37.432335 180.020286 37.084751 180.15792 
Q 36.737168 180.295554 36.334765 180.295554 
Q 36.073494 180.295554 35.837884 180.236068 
Q 35.60344 180.176582 35.430815 180.049446 
Q 35.259356 179.92231 35.15788 179.717026 
Q 35.057571 179.511742 35.057571 179.221311 
Q 35.057571 178.89239 35.169544 178.683607 
Q 35.281517 178.474824 35.46464 178.344188 
Q 35.647763 178.213553 35.882206 178.147069 
Q 36.117817 178.079419 36.363924 178.033929 
Q 36.625195 177.981442 36.860805 177.955781 
Q 37.096415 177.930121 37.274872 177.881133 
Q 37.454496 177.832144 37.558304 177.738834 
Q 37.663279 177.645523 37.663279 177.467065 
Q 37.663279 177.258282 37.585131 177.131146 
Q 37.506983 177.00401 37.383346 176.937526 
Q 37.259709 176.869875 37.106913 176.847714 
Q 36.954116 176.824386 36.804818 176.824386 
Q 36.401249 176.824386 36.13298 176.978349 
Q 35.864711 177.131146 35.841383 177.556877 
L 35.206868 177.556877 
Q 35.222031 177.19763 35.356166 176.951522 
Q 35.491467 176.705415 35.715413 176.552618 
Q 35.939359 176.399821 36.226291 176.332171 
Q 36.513222 176.26452 36.842143 176.26452 
Q 37.103414 176.26452 37.361185 176.301845 
Q 37.618957 176.339169 37.82774 176.455808 
Q 38.036523 176.57128 38.163659 176.780063 
Q 38.290795 176.988847 38.290795 177.324766 
L 38.290795 179.311123 
Q 38.290795 179.535069 38.316456 179.640044 
Q 38.342116 179.743853 38.491414 179.743853 
Q 38.574228 179.743853 38.686201 179.706528 
L 38.686201 180.198744 
z
M 37.656281 178.220551 
Q 37.536143 178.310363 37.341356 178.351187 
Q 37.147736 178.39201 36.935454 178.418837 
Q 36.723171 178.444498 36.506223 178.478323 
Q 36.289275 178.512148 36.117817 178.586797 
Q 35.946358 178.661446 35.837884 178.800246 
Q 35.72941 178.937879 35.72941 179.175822 
Q 35.72941 179.333285 35.792395 179.441758 
Q 35.856546 179.549066 35.956855 179.616717 
Q 36.058331 179.684367 36.192465 179.714693 
Q 36.3266 179.743853 36.475897 179.743853 
Q 36.789655 179.743853 37.013602 179.658706 
Q 37.237548 179.572394 37.378681 179.441758 
Q 37.52098 179.311123 37.588631 179.158326 
Q 37.656281 179.004363 37.656281 178.870229 
L 37.656281 178.220551 
z
" style="fill: #4c4c4c; stroke: #ffffff; stroke-width: 2.239463"/>
    <path d="M 38.686201 180.198744 
Q 38.52174 180.295554 38.230143 180.295554 
Q 37.984036 180.295554 37.838237 180.15792 
Q 37.693605 180.020286 37.693605 179.706528 
Q 37.432335 180.020286 37.084751 180.15792 
Q 36.737168 180.295554 36.334765 180.295554 
Q 36.073494 180.295554 35.837884 180.236068 
Q 35.60344 180.176582 35.430815 180.049446 
Q 35.259356 179.92231 35.15788 179.717026 
Q 35.057571 179.511742 35.057571 179.221311 
Q 35.057571 178.89239 35.169544 178.683607 
Q 35.281517 178.474824 35.46464 178.344188 
Q 35.647763 178.213553 35.882206 178.147069 
Q 36.117817 178.079419 36.363924 178.033929 
Q 36.625195 177.981442 36.860805 177.955781 
Q 37.096415 177.930121 37.274872 177.881133 
Q 37.454496 177.832144 37.558304 177.738834 
Q 37.663279 177.645523 37.663279 177.467065 
Q 37.663279 177.258282 37.585131 177.131146 
Q 37.506983 177.00401 37.383346 176.937526 
Q 37.259709 176.869875 37.106913 176.847714 
Q 36.954116 176.824386 36.804818 176.824386 
Q 36.401249 176.824386 36.13298 176.978349 
Q 35.864711 177.131146 35.841383 177.556877 
L 35.206868 177.556877 
Q 35.222031 177.19763 35.356166 176.951522 
Q 35.491467 176.705415 35.715413 176.552618 
Q 35.939359 176.399821 36.226291 176.332171 
Q 36.513222 176.26452 36.842143 176.26452 
Q 37.103414 176.26452 37.361185 176.301845 
Q 37.618957 176.339169 37.82774 176.455808 
Q 38.036523 176.57128 38.163659 176.780063 
Q 38.290795 176.988847 38.290795 177.324766 
L 38.290795 179.311123 
Q 38.290795 179.535069 38.316456 179.640044 
Q 38.342116 179.743853 38.491414 179.743853 
Q 38.574228 179.743853 38.686201 179.706528 
L 38.686201 180.198744 
z
M 37.656281 178.220551 
Q 37.536143 178.310363 37.341356 178.351187 
Q 37.147736 178.39201 36.935454 178.418837 
Q 36.723171 178.444498 36.506223 178.478323 
Q 36.289275 178.512148 36.117817 178.586797 
Q 35.946358 178.661446 35.837884 178.800246 
Q 35.72941 178.937879 35.72941 179.175822 
Q 35.72941 179.333285 35.792395 179.441758 
Q 35.856546 179.549066 35.956855 179.616717 
Q 36.058331 179.684367 36.192465 179.714693 
Q 36.3266 179.743853 36.475897 179.743853 
Q 36.789655 179.743853 37.013602 179.658706 
Q 37.237548 179.572394 37.378681 179.441758 
Q 37.52098 179.311123 37.588631 179.158326 
Q 37.656281 179.004363 37.656281 178.870229 
L 37.656281 178.220551 
z
" style="fill: #4c4c4c"/>
   </g>
  </g>
 </g>
 <defs>
  <clipPath id="pbf7b878745">
   <rect x="7.2" y="7.2" width="194.4" height="194.054587"/>
  </clipPath>
 </defs>
</svg>
