<?xml version="1.0" encoding="utf-8" standalone="no"?>
<!DOCTYPE svg PUBLIC "-//W3C//DTD SVG 1.1//EN"
  "http://www.w3.org/Graphics/SVG/1.1/DTD/svg11.dtd">
<svg xmlns:xlink="http://www.w3.org/1999/xlink" width="424.8pt" height="424.8pt" viewBox="0 0 424.8 424.8" xmlns="http://www.w3.org/2000/svg" version="1.1">
 <metadata>
  <rdf:RDF xmlns:dc="http://purl.org/dc/elements/1.1/" xmlns:cc="http://creativecommons.org/ns#" xmlns:rdf="http://www.w3.org/1999/02/22-rdf-syntax-ns#">
   <cc:Work>
    <dc:type rdf:resource="http://purl.org/dc/dcmitype/StillImage"/>
    <dc:date>2026-02-15T20:50:38.958771</dc:date>
    <dc:format>image/svg+xml</dc:format>
    <dc:creator>
     <cc:Agent>
      <dc:title>Matplotlib v3.10.7, https://matplotlib.org/</dc:title>
     </cc:Agent>
    </dc:creator>
   </cc:Work>
  </rdf:RDF>
 </metadata>
 <defs>
  <style type="text/css">*{stroke-linejoin: round; stroke-linecap: butt}</style>
 </defs>
 <g id="figure_1">
  <g id="patch_1">
   <path d="M 0 424.8 
L 424.8 424.8 
L 424.8 0 
L 0 0 
z
" style="fill: #ffffff"/>
  </g>
  <g id="axes_1">
   <g id="PolyCollection_1">
    <path d="M 229.981587 263.27349 
L 229.178546 257.173796 
L 226.824152 251.489785 
L 223.078852 246.608815 
L 218.197881 242.863514 
L 212.513871 240.50912 
L 206.414176 239.70608 
L 200.314481 240.50912 
L 194.630471 242.863514 
L 189.7495 246.608815 
L 186.0042 251.489785 
L 183.649805 257.173796 
L 182.846765 263.27349 
L 183.649805 269.373185 
L 186.0042 275.057196 
L 189.7495 279.938166 
L 194.630471 283.683467 
L 200.314481 286.037861 
L 206.414176 286.840901 
L 212.513871 286.037861 
L 218.197881 283.683467 
L 223.078852 279.938166 
L 226.824152 275.057196 
L 229.178546 269.373185 
L 229.981587 263.27349 
z
" clip-path="url(#p030f47ac70)" style="fill: #00cc33; stroke: #262626; stroke-width: 1.5"/>
    <path d="M 198.112147 144.118955 
L 197.309107 138.01926 
L 194.954713 132.33525 
L 191.209412 127.454279 
L 186.328442 123.708979 
L 180.644431 121.354585 
L 174.544736 120.551545 
L 168.445042 121.354585 
L 162.761031 123.708979 
L 157.880061 127.454279 
L 154.13476 132.33525 
L 151.780366 138.01926 
L 150.977326 144.118955 
L 151.780366 150.21865 
L 154.13476 155.90266 
L 157.880061 160.783631 
L 162.761031 164.528931 
L 168.445042 166.883326 
L 174.544736 167.686366 
L 180.644431 166.883326 
L 186.328442 164.528931 
L 191.209412 160.783631 
L 194.954713 155.90266 
L 197.309107 150.21865 
L 198.112147 144.118955 
z
" clip-path="url(#p030f47ac70)" style="fill: #00cc33; stroke: #262626; stroke-width: 1.5"/>
    <path d="M 257.794525 203.696223 
L 257.335645 200.210683 
L 255.990276 196.962677 
L 253.850105 194.173551 
L 251.060979 192.033379 
L 247.812973 190.688011 
L 244.327433 190.229131 
L 240.841893 190.688011 
L 237.593887 192.033379 
L 234.804761 194.173551 
L 232.664589 196.962677 
L 231.319221 200.210683 
L 230.860341 203.696223 
L 231.319221 207.181763 
L 232.664589 210.429769 
L 234.804761 213.218895 
L 237.593887 215.359066 
L 240.841893 216.704434 
L 244.327433 217.163314 
L 247.812973 216.704434 
L 251.060979 215.359066 
L 253.850105 213.218895 
L 255.990276 210.429769 
L 257.335645 207.181763 
L 257.794525 203.696223 
z
" clip-path="url(#p030f47ac70)" style="fill: #e61a1a; stroke: #262626; stroke-width: 1.5"/>
    <path d="M 169.774431 231.477559 
L 169.315551 227.992019 
L 167.970183 224.744013 
L 165.830011 221.954887 
L 163.040885 219.814715 
L 159.792879 218.469347 
L 156.307339 218.010467 
L 152.821799 218.469347 
L 149.573793 219.814715 
L 146.784667 221.954887 
L 144.644496 224.744013 
L 143.299128 227.992019 
L 142.840248 231.477559 
L 143.299128 234.963099 
L 144.644496 238.211105 
L 146.784667 241.000231 
L 149.573793 243.140402 
L 152.821799 244.485771 
L 156.307339 244.944651 
L 159.792879 244.485771 
L 163.040885 243.140402 
L 165.830011 241.000231 
L 167.970183 238.211105 
L 169.315551 234.963099 
L 169.774431 231.477559 
z
" clip-path="url(#p030f47ac70)" style="fill: #e61a1a; stroke: #262626; stroke-width: 1.5"/>
    <path d="M 244.327433 203.696223 
L 226.090036 291.054827 
L 156.307339 231.477559 
z
" clip-path="url(#p030f47ac70)" style="fill: #7caef9; fill-opacity: 0.25; stroke: #4c4c4c; stroke-width: 0.8"/>
    <path d="M 337.67754 263.27349 
L 336.8745 257.173796 
L 334.520106 251.489785 
L 330.774805 246.608815 
L 325.893835 242.863514 
L 320.209824 240.50912 
L 314.110129 239.70608 
L 308.010435 240.50912 
L 302.326424 242.863514 
L 297.445453 246.608815 
L 293.700153 251.489785 
L 291.345759 257.173796 
L 290.542719 263.27349 
L 291.345759 269.373185 
L 293.700153 275.057196 
L 297.445453 279.938166 
L 302.326424 283.683467 
L 308.010435 286.037861 
L 314.110129 286.840901 
L 320.209824 286.037861 
L 325.893835 283.683467 
L 330.774805 279.938166 
L 334.520106 275.057196 
L 336.8745 269.373185 
L 337.67754 263.27349 
z
" clip-path="url(#p030f47ac70)" style="fill: #00cc33; stroke: #262626; stroke-width: 1.5"/>
    <path d="M 239.557128 291.054827 
L 239.098247 287.569287 
L 237.752879 284.321281 
L 235.612708 281.532155 
L 232.823582 279.391983 
L 229.575576 278.046615 
L 226.090036 277.587735 
L 222.604496 278.046615 
L 219.35649 279.391983 
L 216.567364 281.532155 
L 214.427192 284.321281 
L 213.081824 287.569287 
L 212.622944 291.054827 
L 213.081824 294.540366 
L 214.427192 297.788372 
L 216.567364 300.577498 
L 219.35649 302.71767 
L 222.604496 304.063038 
L 226.090036 304.521918 
L 229.575576 304.063038 
L 232.823582 302.71767 
L 235.612708 300.577498 
L 237.752879 297.788372 
L 239.098247 294.540366 
L 239.557128 291.054827 
z
" clip-path="url(#p030f47ac70)" style="fill: #e61a1a; stroke: #262626; stroke-width: 1.5"/>
    <path d="M 194.220596 171.900291 
L 244.327433 203.696223 
L 156.307339 231.477559 
z
" clip-path="url(#p030f47ac70)" style="fill: #5e83bc; fill-opacity: 0.25; stroke: #4c4c4c; stroke-width: 0.8"/>
    <path d="M 161.637353 318.836163 
L 160.834313 312.736468 
L 158.479918 307.052457 
L 154.734618 302.171487 
L 149.853648 298.426186 
L 144.169637 296.071792 
L 138.069942 295.268752 
L 131.970248 296.071792 
L 126.286237 298.426186 
L 121.405266 302.171487 
L 117.659966 307.052457 
L 115.305572 312.736468 
L 114.502532 318.836163 
L 115.305572 324.935857 
L 117.659966 330.619868 
L 121.405266 335.500838 
L 126.286237 339.246139 
L 131.970248 341.600533 
L 138.069942 342.403573 
L 144.169637 341.600533 
L 149.853648 339.246139 
L 154.734618 335.500838 
L 158.479918 330.619868 
L 160.834313 324.935857 
L 161.637353 318.836163 
z
" clip-path="url(#p030f47ac70)" style="fill: #00cc33; stroke: #262626; stroke-width: 1.5"/>
    <path d="M 244.327433 203.696223 
L 226.090036 291.054827 
L 264.003293 231.477559 
z
" clip-path="url(#p030f47ac70)" style="fill: #4a6793; fill-opacity: 0.25; stroke: #4c4c4c; stroke-width: 0.8"/>
    <path d="M 175.983199 259.258895 
L 226.090036 291.054827 
L 156.307339 231.477559 
z
" clip-path="url(#p030f47ac70)" style="fill: #3b5276; fill-opacity: 0.25; stroke: #4c4c4c; stroke-width: 0.8"/>
    <path d="M 225.925085 84.541687 
L 225.466205 81.056148 
L 224.120837 77.808142 
L 221.980665 75.019016 
L 219.191539 72.878844 
L 215.943533 71.533476 
L 212.457993 71.074596 
L 208.972453 71.533476 
L 205.724447 72.878844 
L 202.935321 75.019016 
L 200.79515 77.808142 
L 199.449782 81.056148 
L 198.990902 84.541687 
L 199.449782 88.027227 
L 200.79515 91.275233 
L 202.935321 94.064359 
L 205.724447 96.204531 
L 208.972453 97.549899 
L 212.457993 98.008779 
L 215.943533 97.549899 
L 219.191539 96.204531 
L 221.980665 94.064359 
L 224.120837 91.275233 
L 225.466205 88.027227 
L 225.925085 84.541687 
z
" clip-path="url(#p030f47ac70)" style="fill: #e61a1a; stroke: #262626; stroke-width: 1.5"/>
    <path d="M 216.101834 221.436329 
L 215.202626 223.69241 
L 216.323089 226.463267 
L 218.806871 228.12577 
L 221.199005 227.706047 
L 240.197793 212.260363 
L 241.097003 210.00428 
L 239.97654 207.233423 
L 237.492758 205.57092 
L 235.100621 205.990645 
z
" clip-path="url(#p030f47ac70)" style="fill: #666666; stroke: #262626"/>
    <path d="M 196.768849 235.517686 
L 198.407443 234.33436 
L 199.086171 231.477559 
L 198.407443 228.620757 
L 196.768849 227.437431 
L 166.830799 227.437431 
L 165.192201 228.620757 
L 164.513471 231.477559 
L 165.192201 234.33436 
L 166.830799 235.517686 
z
" clip-path="url(#p030f47ac70)" style="fill: #666666; stroke: #262626"/>
    <path d="M 218.019583 245.244419 
L 216.620902 244.594757 
L 213.755261 244.937156 
L 211.101315 246.071043 
L 210.213708 247.332202 
L 219.07299 280.455585 
L 220.471672 281.105252 
L 223.337313 280.762855 
L 225.991259 279.628966 
L 226.878865 278.367802 
z
" clip-path="url(#p030f47ac70)" style="fill: #666666; stroke: #262626"/>
    <path d="M 226.989181 231.477559 
L 226.415581 227.120634 
L 224.73387 223.060627 
L 222.058656 219.574219 
L 218.572248 216.899004 
L 214.512241 215.217294 
L 210.155316 214.643694 
L 205.798391 215.217294 
L 201.738384 216.899004 
L 198.251976 219.574219 
L 195.576762 223.060627 
L 193.895051 227.120634 
L 193.321451 231.477559 
L 193.895051 235.834484 
L 195.576762 239.894491 
L 198.251976 243.380899 
L 201.738384 246.056113 
L 205.798391 247.737824 
L 210.155316 248.311424 
L 214.512241 247.737824 
L 218.572248 246.056113 
L 222.058656 243.380899 
L 224.73387 239.894491 
L 226.415581 235.834484 
L 226.989181 231.477559 
z
" clip-path="url(#p030f47ac70)" style="fill: #3366e6; stroke: #262626; stroke-width: 1.5"/>
    <path d="M 194.220596 171.900291 
L 244.327433 203.696223 
L 264.003293 231.477559 
z
" clip-path="url(#p030f47ac70)" style="fill: #3b5276; fill-opacity: 0.25; stroke: #4c4c4c; stroke-width: 0.8"/>
    <path d="M 137.904991 112.323024 
L 137.446111 108.837484 
L 136.100743 105.589478 
L 133.960572 102.800352 
L 131.171446 100.66018 
L 127.92344 99.314812 
L 124.4379 98.855932 
L 120.95236 99.314812 
L 117.704354 100.66018 
L 114.915228 102.800352 
L 112.775056 105.589478 
L 111.429688 108.837484 
L 110.970808 112.323024 
L 111.429688 115.808563 
L 112.775056 119.056569 
L 114.915228 121.845696 
L 117.704354 123.985867 
L 120.95236 125.331235 
L 124.4379 125.790115 
L 127.92344 125.331235 
L 131.171446 123.985867 
L 133.960572 121.845696 
L 136.100743 119.056569 
L 137.446111 115.808563 
L 137.904991 112.323024 
z
" clip-path="url(#p030f47ac70)" style="fill: #e61a1a; stroke: #262626; stroke-width: 1.5"/>
    <path d="M 212.457993 84.541687 
L 194.220596 171.900291 
L 124.4379 112.323024 
z
" clip-path="url(#p030f47ac70)" style="fill: #7caef9; fill-opacity: 0.25; stroke: #4c4c4c; stroke-width: 0.8"/>
    <path d="M 194.220596 171.900291 
L 175.983199 259.258895 
L 156.307339 231.477559 
z
" clip-path="url(#p030f47ac70)" style="fill: #4a6793; fill-opacity: 0.25; stroke: #4c4c4c; stroke-width: 0.8"/>
    <path d="M 305.8081 144.118955 
L 305.00506 138.01926 
L 302.650666 132.33525 
L 298.905366 127.454279 
L 294.024395 123.708979 
L 288.340384 121.354585 
L 282.24069 120.551545 
L 276.140995 121.354585 
L 270.456984 123.708979 
L 265.576014 127.454279 
L 261.830713 132.33525 
L 259.476319 138.01926 
L 258.673279 144.118955 
L 259.476319 150.21865 
L 261.830713 155.90266 
L 265.576014 160.783631 
L 270.456984 164.528931 
L 276.140995 166.883326 
L 282.24069 167.686366 
L 288.340384 166.883326 
L 294.024395 164.528931 
L 298.905366 160.783631 
L 302.650666 155.90266 
L 305.00506 150.21865 
L 305.8081 144.118955 
z
" clip-path="url(#p030f47ac70)" style="fill: #00cc33; stroke: #262626; stroke-width: 1.5"/>
    <path d="M 202.291049 217.710699 
L 203.68973 218.360361 
L 206.555371 218.017962 
L 209.209317 216.884075 
L 210.096924 215.622916 
L 201.237646 182.499548 
L 199.838966 181.849891 
L 196.973326 182.192292 
L 194.319379 183.326177 
L 193.431771 184.587331 
z
" clip-path="url(#p030f47ac70)" style="fill: #666666; stroke: #262626"/>
    <path d="M 175.983199 259.258895 
L 226.090036 291.054827 
L 264.003293 231.477559 
z
" clip-path="url(#p030f47ac70)" style="fill: #5e83bc; fill-opacity: 0.25; stroke: #4c4c4c; stroke-width: 0.8"/>
    <path d="M 207.687688 171.900291 
L 207.228808 168.414751 
L 205.88344 165.166745 
L 203.743268 162.377619 
L 200.954142 160.237448 
L 197.706136 158.89208 
L 194.220596 158.4332 
L 190.735056 158.89208 
L 187.48705 160.237448 
L 184.697924 162.377619 
L 182.557753 165.166745 
L 181.212384 168.414751 
L 180.753504 171.900291 
L 181.212384 175.385831 
L 182.557753 178.633837 
L 184.697924 181.422963 
L 187.48705 183.563135 
L 190.735056 184.908503 
L 194.220596 185.367383 
L 197.706136 184.908503 
L 200.954142 183.563135 
L 203.743268 181.422963 
L 205.88344 178.633837 
L 207.228808 175.385831 
L 207.687688 171.900291 
z
" clip-path="url(#p030f47ac70)" style="fill: #e61a1a; stroke: #262626; stroke-width: 1.5"/>
    <path d="M 365.490478 203.696223 
L 365.031598 200.210683 
L 363.68623 196.962677 
L 361.546058 194.173551 
L 358.756932 192.033379 
L 355.508926 190.688011 
L 352.023386 190.229131 
L 348.537846 190.688011 
L 345.28984 192.033379 
L 342.500714 194.173551 
L 340.360543 196.962677 
L 339.015174 200.210683 
L 338.556294 203.696223 
L 339.015174 207.181763 
L 340.360543 210.429769 
L 342.500714 213.218895 
L 345.28984 215.359066 
L 348.537846 216.704434 
L 352.023386 217.163314 
L 355.508926 216.704434 
L 358.756932 215.359066 
L 361.546058 213.218895 
L 363.68623 210.429769 
L 365.031598 207.181763 
L 365.490478 203.696223 
z
" clip-path="url(#p030f47ac70)" style="fill: #e61a1a; stroke: #262626; stroke-width: 1.5"/>
    <path d="M 129.767913 199.681627 
L 128.964873 193.581933 
L 126.610479 187.897922 
L 122.865178 183.016952 
L 117.984208 179.271651 
L 112.300197 176.917257 
L 106.200503 176.114217 
L 100.100808 176.917257 
L 94.416797 179.271651 
L 89.535827 183.016952 
L 85.790526 187.897922 
L 83.436132 193.581933 
L 82.633092 199.681627 
L 83.436132 205.781322 
L 85.790526 211.465333 
L 89.535827 216.346303 
L 94.416797 220.091604 
L 100.100808 222.445998 
L 106.200503 223.249038 
L 112.300197 222.445998 
L 117.984208 220.091604 
L 122.865178 216.346303 
L 126.610479 211.465333 
L 128.964873 205.781322 
L 129.767913 199.681627 
z
" clip-path="url(#p030f47ac70)" style="fill: #00cc33; stroke: #262626; stroke-width: 1.5"/>
    <path d="M 223.541783 227.437431 
L 221.903189 228.620757 
L 221.224461 231.477559 
L 221.903189 234.33436 
L 223.541783 235.517686 
L 253.47981 235.517686 
L 255.1184 234.33436 
L 255.797127 231.477559 
L 255.1184 228.620757 
L 253.47981 227.437431 
z
" clip-path="url(#p030f47ac70)" style="fill: #666666; stroke: #262626"/>
    <path d="M 212.457993 84.541687 
L 194.220596 171.900291 
L 232.133853 112.323024 
z
" clip-path="url(#p030f47ac70)" style="fill: #4a6793; fill-opacity: 0.25; stroke: #4c4c4c; stroke-width: 0.8"/>
    <path d="M 194.220596 171.900291 
L 175.983199 259.258895 
L 264.003293 231.477559 
z
" clip-path="url(#p030f47ac70)" style="fill: #7caef9; fill-opacity: 0.25; stroke: #4c4c4c; stroke-width: 0.8"/>
    <path d="M 277.470384 231.477559 
L 277.011504 227.992019 
L 275.666136 224.744013 
L 273.525965 221.954887 
L 270.736839 219.814715 
L 267.488832 218.469347 
L 264.003293 218.010467 
L 260.517753 218.469347 
L 257.269747 219.814715 
L 254.480621 221.954887 
L 252.340449 224.744013 
L 250.995081 227.992019 
L 250.536201 231.477559 
L 250.995081 234.963099 
L 252.340449 238.211105 
L 254.480621 241.000231 
L 257.269747 243.140402 
L 260.517753 244.485771 
L 264.003293 244.944651 
L 267.488832 244.485771 
L 270.736839 243.140402 
L 273.525965 241.000231 
L 275.666136 238.211105 
L 277.011504 234.963099 
L 277.470384 231.477559 
z
" clip-path="url(#p030f47ac70)" style="fill: #e61a1a; stroke: #262626; stroke-width: 1.5"/>
    <path d="M 184.23238 102.281805 
L 183.33317 104.537888 
L 184.453632 107.308746 
L 186.937415 108.971248 
L 189.329552 108.551523 
L 208.328364 93.105819 
L 209.227576 90.849734 
L 208.107115 88.078876 
L 205.623332 86.416374 
L 203.231193 86.836101 
z
" clip-path="url(#p030f47ac70)" style="fill: #666666; stroke: #262626"/>
    <path d="M 164.899418 116.363151 
L 166.538015 115.179825 
L 167.216744 112.323024 
L 166.538015 109.466222 
L 164.899418 108.282896 
L 134.961352 108.282896 
L 133.322752 109.466222 
L 132.644022 112.323024 
L 133.322752 115.179825 
L 134.961352 116.363151 
z
" clip-path="url(#p030f47ac70)" style="fill: #666666; stroke: #262626"/>
    <path d="M 186.150148 126.089904 
L 184.75147 125.440251 
L 181.885831 125.782654 
L 179.231883 126.916537 
L 178.344274 128.177687 
L 187.203546 161.301034 
L 188.602226 161.950691 
L 191.467866 161.608291 
L 194.121813 160.474406 
L 195.009421 159.213251 
z
" clip-path="url(#p030f47ac70)" style="fill: #666666; stroke: #262626"/>
    <path d="M 333.785989 291.054827 
L 352.023386 203.696223 
L 264.003293 231.477559 
z
" clip-path="url(#p030f47ac70)" style="fill: #7caef9; fill-opacity: 0.25; stroke: #4c4c4c; stroke-width: 0.8"/>
    <path d="M 144.11376 140.10436 
L 194.220596 171.900291 
L 124.4379 112.323024 
z
" clip-path="url(#p030f47ac70)" style="fill: #3b5276; fill-opacity: 0.25; stroke: #4c4c4c; stroke-width: 0.8"/>
    <path d="M 212.457993 84.541687 
L 232.133853 112.323024 
L 144.11376 140.10436 
L 124.4379 112.323024 
z
" clip-path="url(#p030f47ac70)" style="fill: #4d6c9b; fill-opacity: 0.25; stroke: #4c4c4c; stroke-width: 0.8"/>
    <path d="M 195.119741 112.323024 
L 194.546141 107.966099 
L 192.864431 103.906091 
L 190.189216 100.419684 
L 186.702809 97.744469 
L 182.642801 96.062759 
L 178.285876 95.489159 
L 173.928952 96.062759 
L 169.868944 97.744469 
L 166.382537 100.419684 
L 163.707322 103.906091 
L 162.025612 107.966099 
L 161.452012 112.323024 
L 162.025612 116.679948 
L 163.707322 120.739956 
L 166.382537 124.226363 
L 169.868944 126.901578 
L 173.928952 128.583288 
L 178.285876 129.156888 
L 182.642801 128.583288 
L 186.702809 126.901578 
L 190.189216 124.226363 
L 192.864431 120.739956 
L 194.546141 116.679948 
L 195.119741 112.323024 
z
" clip-path="url(#p030f47ac70)" style="fill: #3366e6; stroke: #262626; stroke-width: 1.5"/>
    <path d="M 204.208798 241.518789 
L 205.108006 239.262708 
L 203.987543 236.491851 
L 201.503761 234.829348 
L 199.111627 235.249071 
L 180.112858 250.694739 
L 179.213653 252.950818 
L 180.334116 255.721675 
L 182.817897 257.384179 
L 185.21003 256.964457 
z
" clip-path="url(#p030f47ac70)" style="fill: #666666; stroke: #262626"/>
    <path d="M 189.450291 259.258895 
L 188.991411 255.773355 
L 187.646043 252.525349 
L 185.505871 249.736223 
L 182.716745 247.596051 
L 179.468739 246.250683 
L 175.983199 245.791803 
L 172.497659 246.250683 
L 169.249653 247.596051 
L 166.460527 249.736223 
L 164.320356 252.525349 
L 162.974987 255.773355 
L 162.516107 259.258895 
L 162.974987 262.744435 
L 164.320356 265.992441 
L 166.460527 268.781567 
L 169.249653 270.921739 
L 172.497659 272.267107 
L 175.983199 272.725987 
L 179.468739 272.267107 
L 182.716745 270.921739 
L 185.505871 268.781567 
L 187.646043 265.992441 
L 188.991411 262.744435 
L 189.450291 259.258895 
z
" clip-path="url(#p030f47ac70)" style="fill: #e61a1a; stroke: #262626; stroke-width: 1.5"/>
    <path d="M 347.253081 291.054827 
L 346.794201 287.569287 
L 345.448833 284.321281 
L 343.308661 281.532155 
L 340.519535 279.391983 
L 337.271529 278.046615 
L 333.785989 277.587735 
L 330.300449 278.046615 
L 327.052443 279.391983 
L 324.263317 281.532155 
L 322.123146 284.321281 
L 320.777777 287.569287 
L 320.318897 291.054827 
L 320.777777 294.540366 
L 322.123146 297.788372 
L 324.263317 300.577498 
L 327.052443 302.71767 
L 330.300449 304.063038 
L 333.785989 304.521918 
L 337.271529 304.063038 
L 340.519535 302.71767 
L 343.308661 300.577498 
L 345.448833 297.788372 
L 346.794201 294.540366 
L 347.253081 291.054827 
z
" clip-path="url(#p030f47ac70)" style="fill: #e61a1a; stroke: #262626; stroke-width: 1.5"/>
    <path d="M 301.91655 171.900291 
L 352.023386 203.696223 
L 264.003293 231.477559 
z
" clip-path="url(#p030f47ac70)" style="fill: #5e83bc; fill-opacity: 0.25; stroke: #4c4c4c; stroke-width: 0.8"/>
    <path d="M 101.430197 287.040231 
L 100.971317 283.554691 
L 99.625949 280.306685 
L 97.485777 277.517559 
L 94.696651 275.377388 
L 91.448645 274.032019 
L 87.963106 273.573139 
L 84.477566 274.032019 
L 81.22956 275.377388 
L 78.440434 277.517559 
L 76.300262 280.306685 
L 74.954894 283.554691 
L 74.496014 287.040231 
L 74.954894 290.525771 
L 76.300262 293.773777 
L 78.440434 296.562903 
L 81.22956 298.703075 
L 84.477566 300.048443 
L 87.963106 300.507323 
L 91.448645 300.048443 
L 94.696651 298.703075 
L 97.485777 296.562903 
L 99.625949 293.773777 
L 100.971317 290.525771 
L 101.430197 287.040231 
z
" clip-path="url(#p030f47ac70)" style="fill: #e61a1a; stroke: #262626; stroke-width: 1.5"/>
    <path d="M 175.983199 259.258895 
L 157.745802 346.617499 
L 87.963106 287.040231 
z
" clip-path="url(#p030f47ac70)" style="fill: #7caef9; fill-opacity: 0.25; stroke: #4c4c4c; stroke-width: 0.8"/>
    <path d="M 269.333306 318.836163 
L 268.530266 312.736468 
L 266.175872 307.052457 
L 262.430571 302.171487 
L 257.549601 298.426186 
L 251.86559 296.071792 
L 245.765896 295.268752 
L 239.666201 296.071792 
L 233.98219 298.426186 
L 229.10122 302.171487 
L 225.355919 307.052457 
L 223.001525 312.736468 
L 222.198485 318.836163 
L 223.001525 324.935857 
L 225.355919 330.619868 
L 229.10122 335.500838 
L 233.98219 339.246139 
L 239.666201 341.600533 
L 245.765896 342.403573 
L 251.86559 341.600533 
L 257.549601 339.246139 
L 262.430571 335.500838 
L 266.175872 330.619868 
L 268.530266 324.935857 
L 269.333306 318.836163 
z
" clip-path="url(#p030f47ac70)" style="fill: #00cc33; stroke: #262626; stroke-width: 1.5"/>
    <path d="M 144.11376 140.10436 
L 194.220596 171.900291 
L 232.133853 112.323024 
z
" clip-path="url(#p030f47ac70)" style="fill: #5e83bc; fill-opacity: 0.25; stroke: #4c4c4c; stroke-width: 0.8"/>
    <path d="M 283.679152 259.258895 
L 333.785989 291.054827 
L 264.003293 231.477559 
z
" clip-path="url(#p030f47ac70)" style="fill: #3b5276; fill-opacity: 0.25; stroke: #4c4c4c; stroke-width: 0.8"/>
    <path d="M 333.621038 84.541687 
L 333.162158 81.056148 
L 331.81679 77.808142 
L 329.676619 75.019016 
L 326.887492 72.878844 
L 323.639486 71.533476 
L 320.153947 71.074596 
L 316.668407 71.533476 
L 313.420401 72.878844 
L 310.631275 75.019016 
L 308.491103 77.808142 
L 307.145735 81.056148 
L 306.686855 84.541687 
L 307.145735 88.027227 
L 308.491103 91.275233 
L 310.631275 94.064359 
L 313.420401 96.204531 
L 316.668407 97.549899 
L 320.153947 98.008779 
L 323.639486 97.549899 
L 326.887492 96.204531 
L 329.676619 94.064359 
L 331.81679 91.275233 
L 333.162158 88.027227 
L 333.621038 84.541687 
z
" clip-path="url(#p030f47ac70)" style="fill: #e61a1a; stroke: #262626; stroke-width: 1.5"/>
    <path d="M 171.212894 346.617499 
L 170.754014 343.131959 
L 169.408646 339.883953 
L 167.268474 337.094827 
L 164.479348 334.954655 
L 161.231342 333.609287 
L 157.745802 333.150407 
L 154.260262 333.609287 
L 151.012256 334.954655 
L 148.22313 337.094827 
L 146.082958 339.883953 
L 144.73759 343.131959 
L 144.27871 346.617499 
L 144.73759 350.103039 
L 146.082958 353.351045 
L 148.22313 356.140171 
L 151.012256 358.280342 
L 154.260262 359.625711 
L 157.745802 360.084591 
L 161.231342 359.625711 
L 164.479348 358.280342 
L 167.268474 356.140171 
L 169.408646 353.351045 
L 170.754014 350.103039 
L 171.212894 346.617499 
z
" clip-path="url(#p030f47ac70)" style="fill: #e61a1a; stroke: #262626; stroke-width: 1.5"/>
    <path d="M 323.797764 221.436348 
L 322.898552 223.692432 
L 324.019014 226.46329 
L 326.502797 228.125792 
L 328.894935 227.706066 
L 347.893765 212.260348 
L 348.792978 210.004262 
L 347.672517 207.233403 
L 345.188733 205.570902 
L 342.796593 205.99063 
z
" clip-path="url(#p030f47ac70)" style="fill: #666666; stroke: #262626"/>
    <path d="M 304.464772 235.517686 
L 306.103359 234.33436 
L 306.782084 231.477559 
L 306.103359 228.620757 
L 304.464772 227.437431 
L 274.526776 227.437431 
L 272.888185 228.620757 
L 272.209459 231.477559 
L 272.888185 234.33436 
L 274.526776 235.517686 
z
" clip-path="url(#p030f47ac70)" style="fill: #666666; stroke: #262626"/>
    <path d="M 325.715535 245.244414 
L 324.316853 244.59475 
L 321.451213 244.937148 
L 318.797266 246.071036 
L 317.90966 247.332198 
L 326.768944 280.455589 
L 328.167627 281.105258 
L 331.033268 280.762862 
L 333.687214 279.628972 
L 334.574819 278.367806 
z
" clip-path="url(#p030f47ac70)" style="fill: #666666; stroke: #262626"/>
    <path d="M 283.679152 259.258895 
L 301.91655 171.900291 
L 352.023386 203.696223 
L 333.785989 291.054827 
z
" clip-path="url(#p030f47ac70)" style="fill: #5f85be; fill-opacity: 0.25; stroke: #4c4c4c; stroke-width: 0.8"/>
    <path d="M 334.685134 231.477559 
L 334.111534 227.120634 
L 332.429824 223.060627 
L 329.754609 219.574219 
L 326.268202 216.899004 
L 322.208194 215.217294 
L 317.851269 214.643694 
L 313.494345 215.217294 
L 309.434337 216.899004 
L 305.947929 219.574219 
L 303.272715 223.060627 
L 301.591005 227.120634 
L 301.017405 231.477559 
L 301.591005 235.834484 
L 303.272715 239.894491 
L 305.947929 243.380899 
L 309.434337 246.056113 
L 313.494345 247.737824 
L 317.851269 248.311424 
L 322.208194 247.737824 
L 326.268202 246.056113 
L 329.754609 243.380899 
L 332.429824 239.894491 
L 334.111534 235.834484 
L 334.685134 231.477559 
z
" clip-path="url(#p030f47ac70)" style="fill: #3366e6; stroke: #262626; stroke-width: 1.5"/>
    <path d="M 191.672334 108.282896 
L 190.033738 109.466222 
L 189.355009 112.323024 
L 190.033738 115.179825 
L 191.672334 116.363151 
L 221.610377 116.363151 
L 223.24897 115.179825 
L 223.927697 112.323024 
L 223.24897 109.466222 
L 221.610377 108.282896 
z
" clip-path="url(#p030f47ac70)" style="fill: #666666; stroke: #262626"/>
    <path d="M 125.876362 227.462964 
L 175.983199 259.258895 
L 87.963106 287.040231 
z
" clip-path="url(#p030f47ac70)" style="fill: #5e83bc; fill-opacity: 0.25; stroke: #4c4c4c; stroke-width: 0.8"/>
    <path d="M 245.600945 112.323024 
L 245.142065 108.837484 
L 243.796697 105.589478 
L 241.656525 102.800352 
L 238.867399 100.66018 
L 235.619393 99.314812 
L 232.133853 98.855932 
L 228.648313 99.314812 
L 225.400307 100.66018 
L 222.611181 102.800352 
L 220.47101 105.589478 
L 219.125641 108.837484 
L 218.666761 112.323024 
L 219.125641 115.808563 
L 220.47101 119.056569 
L 222.611181 121.845696 
L 225.400307 123.985867 
L 228.648313 125.331235 
L 232.133853 125.790115 
L 235.619393 125.331235 
L 238.867399 123.985867 
L 241.656525 121.845696 
L 243.796697 119.056569 
L 245.142065 115.808563 
L 245.600945 112.323024 
z
" clip-path="url(#p030f47ac70)" style="fill: #e61a1a; stroke: #262626; stroke-width: 1.5"/>
    <path d="M 172.339373 122.364243 
L 173.238583 120.10816 
L 172.118121 117.337302 
L 169.634338 115.6748 
L 167.242201 116.094525 
L 148.243408 131.540213 
L 147.3442 133.796294 
L 148.464663 136.567151 
L 150.948444 138.229654 
L 153.340579 137.809931 
z
" clip-path="url(#p030f47ac70)" style="fill: #666666; stroke: #262626"/>
    <path d="M 301.91655 171.900291 
L 320.153947 84.541687 
L 232.133853 112.323024 
z
" clip-path="url(#p030f47ac70)" style="fill: #7caef9; fill-opacity: 0.25; stroke: #4c4c4c; stroke-width: 0.8"/>
    <path d="M 175.983199 259.258895 
L 157.745802 346.617499 
L 195.659059 287.040231 
z
" clip-path="url(#p030f47ac70)" style="fill: #4a6793; fill-opacity: 0.25; stroke: #4c4c4c; stroke-width: 0.8"/>
    <path d="M 283.679152 259.258895 
L 301.91655 171.900291 
L 264.003293 231.477559 
z
" clip-path="url(#p030f47ac70)" style="fill: #4a6793; fill-opacity: 0.25; stroke: #4c4c4c; stroke-width: 0.8"/>
    <path d="M 157.580851 140.10436 
L 157.121971 136.61882 
L 155.776603 133.370814 
L 153.636431 130.581688 
L 150.847305 128.441516 
L 147.599299 127.096148 
L 144.11376 126.637268 
L 140.62822 127.096148 
L 137.380214 128.441516 
L 134.591088 130.581688 
L 132.450916 133.370814 
L 131.105548 136.61882 
L 130.646668 140.10436 
L 131.105548 143.5899 
L 132.450916 146.837906 
L 134.591088 149.627032 
L 137.380214 151.767203 
L 140.62822 153.112571 
L 144.11376 153.571452 
L 147.599299 153.112571 
L 150.847305 151.767203 
L 153.636431 149.627032 
L 155.776603 146.837906 
L 157.121971 143.5899 
L 157.580851 140.10436 
z
" clip-path="url(#p030f47ac70)" style="fill: #e61a1a; stroke: #262626; stroke-width: 1.5"/>
    <path d="M 147.757625 276.998981 
L 146.858421 279.255059 
L 147.978885 282.025915 
L 150.462665 283.688419 
L 152.854796 283.268699 
L 171.85354 267.823051 
L 172.752746 265.566972 
L 171.632282 262.796115 
L 169.148501 261.133612 
L 166.756368 261.553333 
z
" clip-path="url(#p030f47ac70)" style="fill: #666666; stroke: #262626"/>
    <path d="M 128.424634 291.080359 
L 130.063233 289.897033 
L 130.741963 287.040231 
L 130.063233 284.18343 
L 128.424634 283.000104 
L 98.48655 283.000104 
L 96.847947 284.18343 
L 96.169216 287.040231 
L 96.847947 289.897033 
L 98.48655 291.080359 
z
" clip-path="url(#p030f47ac70)" style="fill: #666666; stroke: #262626"/>
    <path d="M 149.675347 300.807085 
L 148.276666 300.157421 
L 145.411025 300.499819 
L 142.757079 301.633707 
L 141.869473 302.894869 
L 150.728758 336.018262 
L 152.127441 336.667932 
L 154.993082 336.325536 
L 157.647028 335.191646 
L 158.534633 333.930479 
z
" clip-path="url(#p030f47ac70)" style="fill: #666666; stroke: #262626"/>
    <path d="M 157.745802 346.617499 
L 195.659059 287.040231 
L 125.876362 227.462964 
L 87.963106 287.040231 
z
" clip-path="url(#p030f47ac70)" style="fill: #6c97d8; fill-opacity: 0.25; stroke: #4c4c4c; stroke-width: 0.8"/>
    <path d="M 158.644947 287.040231 
L 158.071347 282.683306 
L 156.389637 278.623299 
L 153.714422 275.136891 
L 150.228015 272.461677 
L 146.168007 270.779967 
L 141.811082 270.206367 
L 137.454157 270.779967 
L 133.39415 272.461677 
L 129.907742 275.136891 
L 127.232528 278.623299 
L 125.550818 282.683306 
L 124.977218 287.040231 
L 125.550818 291.397156 
L 127.232528 295.457164 
L 129.907742 298.943571 
L 133.39415 301.618786 
L 137.454157 303.300496 
L 141.811082 303.874096 
L 146.168007 303.300496 
L 150.228015 301.618786 
L 153.714422 298.943571 
L 156.389637 295.457164 
L 158.071347 291.397156 
L 158.644947 287.040231 
z
" clip-path="url(#p030f47ac70)" style="fill: #3366e6; stroke: #262626; stroke-width: 1.5"/>
    <path d="M 309.987004 217.710704 
L 311.385685 218.360367 
L 314.251326 218.017969 
L 316.905272 216.884082 
L 317.792879 215.62292 
L 308.933598 182.499544 
L 307.534918 181.849885 
L 304.669278 182.192285 
L 302.015331 183.326171 
L 301.127724 184.587328 
z
" clip-path="url(#p030f47ac70)" style="fill: #666666; stroke: #262626"/>
    <path d="M 315.383641 171.900291 
L 314.924761 168.414751 
L 313.579393 165.166745 
L 311.439221 162.377619 
L 308.650095 160.237448 
L 305.402089 158.89208 
L 301.91655 158.4332 
L 298.43101 158.89208 
L 295.183004 160.237448 
L 292.393878 162.377619 
L 290.253706 165.166745 
L 288.908338 168.414751 
L 288.449458 171.900291 
L 288.908338 175.385831 
L 290.253706 178.633837 
L 292.393878 181.422963 
L 295.183004 183.563135 
L 298.43101 184.908503 
L 301.91655 185.367383 
L 305.402089 184.908503 
L 308.650095 183.563135 
L 311.439221 181.422963 
L 313.579393 178.633837 
L 314.924761 175.385831 
L 315.383641 171.900291 
z
" clip-path="url(#p030f47ac70)" style="fill: #e61a1a; stroke: #262626; stroke-width: 1.5"/>
    <path d="M 125.876362 227.462964 
L 175.983199 259.258895 
L 195.659059 287.040231 
z
" clip-path="url(#p030f47ac70)" style="fill: #3b5276; fill-opacity: 0.25; stroke: #4c4c4c; stroke-width: 0.8"/>
    <path d="M 69.560758 167.885696 
L 69.101878 164.400156 
L 67.75651 161.15215 
L 65.616338 158.363024 
L 62.827212 156.222852 
L 59.579206 154.877484 
L 56.093666 154.418604 
L 52.608126 154.877484 
L 49.36012 156.222852 
L 46.570994 158.363024 
L 44.430822 161.15215 
L 43.085454 164.400156 
L 42.626574 167.885696 
L 43.085454 171.371236 
L 44.430822 174.619242 
L 46.570994 177.408368 
L 49.36012 179.548539 
L 52.608126 180.893908 
L 56.093666 181.352788 
L 59.579206 180.893908 
L 62.827212 179.548539 
L 65.616338 177.408368 
L 67.75651 174.619242 
L 69.101878 171.371236 
L 69.560758 167.885696 
z
" clip-path="url(#p030f47ac70)" style="fill: #e61a1a; stroke: #262626; stroke-width: 1.5"/>
    <path d="M 144.11376 140.10436 
L 125.876362 227.462964 
L 56.093666 167.885696 
z
" clip-path="url(#p030f47ac70)" style="fill: #7caef9; fill-opacity: 0.25; stroke: #4c4c4c; stroke-width: 0.8"/>
    <path d="M 251.809713 140.10436 
L 320.153947 84.541687 
L 232.133853 112.323024 
z
" clip-path="url(#p030f47ac70)" style="fill: #4d6c9b; fill-opacity: 0.25; stroke: #4c4c4c; stroke-width: 0.8"/>
    <path d="M 237.463867 199.681627 
L 236.660827 193.581933 
L 234.306432 187.897922 
L 230.561132 183.016952 
L 225.680161 179.271651 
L 219.996151 176.917257 
L 213.896456 176.114217 
L 207.796761 176.917257 
L 202.112751 179.271651 
L 197.23178 183.016952 
L 193.48648 187.897922 
L 191.132085 193.581933 
L 190.329045 199.681627 
L 191.132085 205.781322 
L 193.48648 211.465333 
L 197.23178 216.346303 
L 202.112751 220.091604 
L 207.796761 222.445998 
L 213.896456 223.249038 
L 219.996151 222.445998 
L 225.680161 220.091604 
L 230.561132 216.346303 
L 234.306432 211.465333 
L 236.660827 205.781322 
L 237.463867 199.681627 
z
" clip-path="url(#p030f47ac70)" style="fill: #00cc33; stroke: #262626; stroke-width: 1.5"/>
    <path d="M 133.946817 273.273377 
L 135.345499 273.923042 
L 138.21114 273.580644 
L 140.865086 272.446756 
L 141.752692 271.185594 
L 132.893411 238.062216 
L 131.494731 237.412556 
L 128.62909 237.754956 
L 125.975144 238.888842 
L 125.087536 240.149999 
z
" clip-path="url(#p030f47ac70)" style="fill: #666666; stroke: #262626"/>
    <path d="M 251.809713 140.10436 
L 301.91655 171.900291 
L 320.153947 84.541687 
z
" clip-path="url(#p030f47ac70)" style="fill: #5f85be; fill-opacity: 0.25; stroke: #4c4c4c; stroke-width: 0.8"/>
    <path d="M 251.809713 140.10436 
L 301.91655 171.900291 
L 232.133853 112.323024 
z
" clip-path="url(#p030f47ac70)" style="fill: #3b5276; fill-opacity: 0.25; stroke: #4c4c4c; stroke-width: 0.8"/>
    <path d="M 139.343454 227.462964 
L 138.884574 223.977424 
L 137.539206 220.729418 
L 135.399034 217.940292 
L 132.609908 215.80012 
L 129.361902 214.454752 
L 125.876362 213.995872 
L 122.390823 214.454752 
L 119.142817 215.80012 
L 116.353691 217.940292 
L 114.213519 220.729418 
L 112.868151 223.977424 
L 112.409271 227.462964 
L 112.868151 230.948503 
L 114.213519 234.196509 
L 116.353691 236.985635 
L 119.142817 239.125807 
L 122.390823 240.471175 
L 125.876362 240.930055 
L 129.361902 240.471175 
L 132.609908 239.125807 
L 135.399034 236.985635 
L 137.539206 234.196509 
L 138.884574 230.948503 
L 139.343454 227.462964 
z
" clip-path="url(#p030f47ac70)" style="fill: #e61a1a; stroke: #262626; stroke-width: 1.5"/>
    <path d="M 291.92831 102.281824 
L 291.029096 104.53791 
L 292.149557 107.308769 
L 294.633341 108.97127 
L 297.025482 108.551542 
L 316.024336 93.105804 
L 316.923552 90.849716 
L 315.803092 88.078857 
L 313.319307 86.416356 
L 310.927165 86.836086 
z
" clip-path="url(#p030f47ac70)" style="fill: #666666; stroke: #262626"/>
    <path d="M 272.595342 116.363151 
L 274.233931 115.179825 
L 274.912656 112.323024 
L 274.233931 109.466222 
L 272.595342 108.282896 
L 242.657329 108.282896 
L 241.018736 109.466222 
L 240.340009 112.323024 
L 241.018736 115.179825 
L 242.657329 116.363151 
z
" clip-path="url(#p030f47ac70)" style="fill: #666666; stroke: #262626"/>
    <path d="M 293.846101 126.089899 
L 292.447422 125.440245 
L 289.581782 125.782647 
L 286.927835 126.91653 
L 286.040226 128.177682 
L 294.899501 161.301038 
L 296.298181 161.950697 
L 299.163821 161.608297 
L 301.817768 160.474411 
L 302.705376 159.213255 
z
" clip-path="url(#p030f47ac70)" style="fill: #666666; stroke: #262626"/>
    <path d="M 302.815694 112.323024 
L 302.242094 107.966099 
L 300.560384 103.906091 
L 297.88517 100.419684 
L 294.398762 97.744469 
L 290.338755 96.062759 
L 285.98183 95.489159 
L 281.624905 96.062759 
L 277.564897 97.744469 
L 274.07849 100.419684 
L 271.403275 103.906091 
L 269.721565 107.966099 
L 269.147965 112.323024 
L 269.721565 116.679948 
L 271.403275 120.739956 
L 274.07849 124.226363 
L 277.564897 126.901578 
L 281.624905 128.583288 
L 285.98183 129.156888 
L 290.338755 128.583288 
L 294.398762 126.901578 
L 297.88517 124.226363 
L 300.560384 120.739956 
L 302.242094 116.679948 
L 302.815694 112.323024 
z
" clip-path="url(#p030f47ac70)" style="fill: #3366e6; stroke: #262626; stroke-width: 1.5"/>
    <path d="M 311.904775 241.51877 
L 312.803986 239.262686 
L 311.683525 236.491828 
L 309.199742 234.829326 
L 306.807603 235.249052 
L 287.808793 250.694754 
L 286.909584 252.950836 
L 288.030046 255.721694 
L 290.513829 257.384197 
L 292.905965 256.964472 
z
" clip-path="url(#p030f47ac70)" style="fill: #666666; stroke: #262626"/>
    <path d="M 297.146244 259.258895 
L 296.687364 255.773355 
L 295.341996 252.525349 
L 293.201824 249.736223 
L 290.412698 247.596051 
L 287.164692 246.250683 
L 283.679152 245.791803 
L 280.193613 246.250683 
L 276.945607 247.596051 
L 274.156481 249.736223 
L 272.016309 252.525349 
L 270.670941 255.773355 
L 270.212061 259.258895 
L 270.670941 262.744435 
L 272.016309 265.992441 
L 274.156481 268.781567 
L 276.945607 270.921739 
L 280.193613 272.267107 
L 283.679152 272.725987 
L 287.164692 272.267107 
L 290.412698 270.921739 
L 293.201824 268.781567 
L 295.341996 265.992441 
L 296.687364 262.744435 
L 297.146244 259.258895 
z
" clip-path="url(#p030f47ac70)" style="fill: #e61a1a; stroke: #262626; stroke-width: 1.5"/>
    <path d="M 155.19753 283.000104 
L 153.558931 284.18343 
L 152.880201 287.040231 
L 153.558931 289.897033 
L 155.19753 291.080359 
L 185.135591 291.080359 
L 186.774186 289.897033 
L 187.452915 287.040231 
L 186.774186 284.18343 
L 185.135591 283.000104 
z
" clip-path="url(#p030f47ac70)" style="fill: #666666; stroke: #262626"/>
    <path d="M 144.11376 140.10436 
L 163.789619 167.885696 
L 56.093666 167.885696 
z
" clip-path="url(#p030f47ac70)" style="fill: #4d6c9b; fill-opacity: 0.25; stroke: #4c4c4c; stroke-width: 0.8"/>
    <path d="M 144.11376 140.10436 
L 125.876362 227.462964 
L 163.789619 167.885696 
z
" clip-path="url(#p030f47ac70)" style="fill: #4a6793; fill-opacity: 0.25; stroke: #4c4c4c; stroke-width: 0.8"/>
    <path d="M 209.126151 287.040231 
L 208.667271 283.554691 
L 207.321903 280.306685 
L 205.181731 277.517559 
L 202.392605 275.377388 
L 199.144599 274.032019 
L 195.659059 273.573139 
L 192.173519 274.032019 
L 188.925513 275.377388 
L 186.136387 277.517559 
L 183.996215 280.306685 
L 182.650847 283.554691 
L 182.191967 287.040231 
L 182.650847 290.525771 
L 183.996215 293.773777 
L 186.136387 296.562903 
L 188.925513 298.703075 
L 192.173519 300.048443 
L 195.659059 300.507323 
L 199.144599 300.048443 
L 202.392605 298.703075 
L 205.181731 296.562903 
L 207.321903 293.773777 
L 208.667271 290.525771 
L 209.126151 287.040231 
z
" clip-path="url(#p030f47ac70)" style="fill: #e61a1a; stroke: #262626; stroke-width: 1.5"/>
    <path d="M 115.888171 157.844457 
L 114.988965 160.100537 
L 116.109429 162.871393 
L 118.59321 164.533897 
L 120.985343 164.114175 
L 139.984111 148.668507 
L 140.883319 146.412426 
L 139.762857 143.641568 
L 137.279075 141.979065 
L 134.88694 142.398789 
z
" clip-path="url(#p030f47ac70)" style="fill: #666666; stroke: #262626"/>
    <path d="M 96.555204 171.925823 
L 98.193805 170.742497 
L 98.872536 167.885696 
L 98.193805 165.028894 
L 96.555204 163.845568 
L 66.617103 163.845568 
L 64.978499 165.028894 
L 64.299766 167.885696 
L 64.978499 170.742497 
L 66.617103 171.925823 
z
" clip-path="url(#p030f47ac70)" style="fill: #666666; stroke: #262626"/>
    <path d="M 117.805913 181.65257 
L 116.407234 181.002915 
L 113.541594 181.345317 
L 110.887647 182.479201 
L 110.000038 183.740353 
L 118.859314 216.863711 
L 120.257994 217.513371 
L 123.123634 217.170971 
L 125.777581 216.037085 
L 126.665189 214.775928 
z
" clip-path="url(#p030f47ac70)" style="fill: #666666; stroke: #262626"/>
    <path d="M 125.876362 227.462964 
L 163.789619 167.885696 
L 56.093666 167.885696 
z
" clip-path="url(#p030f47ac70)" style="fill: #6c97d8; fill-opacity: 0.25; stroke: #4c4c4c; stroke-width: 0.8"/>
    <path d="M 265.441755 346.617499 
L 283.679152 259.258895 
L 195.659059 287.040231 
z
" clip-path="url(#p030f47ac70)" style="fill: #7caef9; fill-opacity: 0.25; stroke: #4c4c4c; stroke-width: 0.8"/>
    <path d="M 126.775507 167.885696 
L 126.201907 163.528771 
L 124.520197 159.468764 
L 121.844983 155.982356 
L 118.358575 153.307141 
L 114.298567 151.625431 
L 109.941643 151.051831 
L 105.584718 151.625431 
L 101.52471 153.307141 
L 98.038303 155.982356 
L 95.363088 159.468764 
L 93.681378 163.528771 
L 93.107778 167.885696 
L 93.681378 172.242621 
L 95.363088 176.302628 
L 98.038303 179.789036 
L 101.52471 182.46425 
L 105.584718 184.145961 
L 109.941643 184.719561 
L 114.298567 184.145961 
L 118.358575 182.46425 
L 121.844983 179.789036 
L 124.520197 176.302628 
L 126.201907 172.242621 
L 126.775507 167.885696 
z
" clip-path="url(#p030f47ac70)" style="fill: #3366e6; stroke: #262626; stroke-width: 1.5"/>
    <path d="M 278.908847 346.617499 
L 278.449967 343.131959 
L 277.104599 339.883953 
L 274.964427 337.094827 
L 272.175301 334.954655 
L 268.927295 333.609287 
L 265.441755 333.150407 
L 261.956216 333.609287 
L 258.70821 334.954655 
L 255.919084 337.094827 
L 253.778912 339.883953 
L 252.433544 343.131959 
L 251.974664 346.617499 
L 252.433544 350.103039 
L 253.778912 353.351045 
L 255.919084 356.140171 
L 258.70821 358.280342 
L 261.956216 359.625711 
L 265.441755 360.084591 
L 268.927295 359.625711 
L 272.175301 358.280342 
L 274.964427 356.140171 
L 277.104599 353.351045 
L 278.449967 350.103039 
L 278.908847 346.617499 
z
" clip-path="url(#p030f47ac70)" style="fill: #e61a1a; stroke: #262626; stroke-width: 1.5"/>
    <path d="M 280.035349 122.364224 
L 280.934563 120.108138 
L 279.814103 117.337278 
L 277.330318 115.674778 
L 274.938178 116.094506 
L 255.939343 131.540228 
L 255.040131 133.796312 
L 256.160592 136.567171 
L 258.644376 138.229672 
L 261.036514 137.809946 
z
" clip-path="url(#p030f47ac70)" style="fill: #666666; stroke: #262626"/>
    <path d="M 233.572316 227.462964 
L 283.679152 259.258895 
L 195.659059 287.040231 
z
" clip-path="url(#p030f47ac70)" style="fill: #5e83bc; fill-opacity: 0.25; stroke: #4c4c4c; stroke-width: 0.8"/>
    <path d="M 233.572316 227.462964 
L 265.441755 346.617499 
L 283.679152 259.258895 
z
" clip-path="url(#p030f47ac70)" style="fill: #5f85be; fill-opacity: 0.25; stroke: #4c4c4c; stroke-width: 0.8"/>
    <path d="M 233.572316 227.462964 
L 265.441755 346.617499 
L 195.659059 287.040231 
z
" clip-path="url(#p030f47ac70)" style="fill: #6c97d8; fill-opacity: 0.25; stroke: #4c4c4c; stroke-width: 0.8"/>
    <path d="M 265.276805 140.10436 
L 264.817925 136.61882 
L 263.472556 133.370814 
L 261.332385 130.581688 
L 258.543259 128.441516 
L 255.295253 127.096148 
L 251.809713 126.637268 
L 248.324173 127.096148 
L 245.076167 128.441516 
L 242.287041 130.581688 
L 240.146869 133.370814 
L 238.801501 136.61882 
L 238.342621 140.10436 
L 238.801501 143.5899 
L 240.146869 146.837906 
L 242.287041 149.627032 
L 245.076167 151.767203 
L 248.324173 153.112571 
L 251.809713 153.571452 
L 255.295253 153.112571 
L 258.543259 151.767203 
L 261.332385 149.627032 
L 263.472556 146.837906 
L 264.817925 143.5899 
L 265.276805 140.10436 
z
" clip-path="url(#p030f47ac70)" style="fill: #e61a1a; stroke: #262626; stroke-width: 1.5"/>
    <path d="M 255.453555 276.999 
L 254.554347 279.255081 
L 255.67481 282.025938 
L 258.158592 283.688441 
L 260.550726 283.268718 
L 279.549512 267.823036 
L 280.448721 265.566954 
L 279.328259 262.796096 
L 276.844476 261.133594 
L 274.45234 261.553318 
z
" clip-path="url(#p030f47ac70)" style="fill: #666666; stroke: #262626"/>
    <path d="M 236.120558 291.080359 
L 237.759149 289.897033 
L 238.437876 287.040231 
L 237.759149 284.18343 
L 236.120558 283.000104 
L 206.182527 283.000104 
L 204.543932 284.18343 
L 203.865203 287.040231 
L 204.543932 289.897033 
L 206.182527 291.080359 
z
" clip-path="url(#p030f47ac70)" style="fill: #666666; stroke: #262626"/>
    <path d="M 257.3713 300.807081 
L 255.972617 300.157414 
L 253.106976 300.499811 
L 250.45303 301.6337 
L 249.565425 302.894864 
L 258.424712 336.018266 
L 259.823395 336.667937 
L 262.689037 336.325542 
L 265.342983 335.191651 
L 266.230587 333.930483 
z
" clip-path="url(#p030f47ac70)" style="fill: #666666; stroke: #262626"/>
    <path d="M 266.3409 287.040231 
L 265.7673 282.683306 
L 264.08559 278.623299 
L 261.410375 275.136891 
L 257.923968 272.461677 
L 253.86396 270.779967 
L 249.507036 270.206367 
L 245.150111 270.779967 
L 241.090103 272.461677 
L 237.603696 275.136891 
L 234.928481 278.623299 
L 233.246771 282.683306 
L 232.673171 287.040231 
L 233.246771 291.397156 
L 234.928481 295.457164 
L 237.603696 298.943571 
L 241.090103 301.618786 
L 245.150111 303.300496 
L 249.507036 303.874096 
L 253.86396 303.300496 
L 257.923968 301.618786 
L 261.410375 298.943571 
L 264.08559 295.457164 
L 265.7673 291.397156 
L 266.3409 287.040231 
z
" clip-path="url(#p030f47ac70)" style="fill: #3366e6; stroke: #262626; stroke-width: 1.5"/>
    <path d="M 123.328082 163.845568 
L 121.689481 165.028894 
L 121.01075 167.885696 
L 121.689481 170.742497 
L 123.328082 171.925823 
L 153.266158 171.925823 
L 154.904756 170.742497 
L 155.583485 167.885696 
L 154.904756 165.028894 
L 153.266158 163.845568 
z
" clip-path="url(#p030f47ac70)" style="fill: #666666; stroke: #262626"/>
    <path d="M 177.256711 167.885696 
L 176.797831 164.400156 
L 175.452463 161.15215 
L 173.312291 158.363024 
L 170.523165 156.222852 
L 167.275159 154.877484 
L 163.789619 154.418604 
L 160.30408 154.877484 
L 157.056073 156.222852 
L 154.266947 158.363024 
L 152.126776 161.15215 
L 150.781408 164.400156 
L 150.322528 167.885696 
L 150.781408 171.371236 
L 152.126776 174.619242 
L 154.266947 177.408368 
L 157.056073 179.548539 
L 160.30408 180.893908 
L 163.789619 181.352788 
L 167.275159 180.893908 
L 170.523165 179.548539 
L 173.312291 177.408368 
L 175.452463 174.619242 
L 176.797831 171.371236 
L 177.256711 167.885696 
z
" clip-path="url(#p030f47ac70)" style="fill: #e61a1a; stroke: #262626; stroke-width: 1.5"/>
    <path d="M 241.642772 273.273382 
L 243.041454 273.923048 
L 245.907095 273.580651 
L 248.561041 272.446762 
L 249.448647 271.185598 
L 240.589363 238.062212 
L 239.190682 237.41255 
L 236.325042 237.754949 
L 233.671095 238.888836 
L 232.783489 240.149996 
z
" clip-path="url(#p030f47ac70)" style="fill: #666666; stroke: #262626"/>
    <path d="M 251.809713 140.10436 
L 233.572316 227.462964 
L 163.789619 167.885696 
z
" clip-path="url(#p030f47ac70)" style="fill: #7caef9; fill-opacity: 0.25; stroke: #4c4c4c; stroke-width: 0.8"/>
    <path d="M 247.039408 227.462964 
L 246.580528 223.977424 
L 245.235159 220.729418 
L 243.094988 217.940292 
L 240.305862 215.80012 
L 237.057856 214.454752 
L 233.572316 213.995872 
L 230.086776 214.454752 
L 226.83877 215.80012 
L 224.049644 217.940292 
L 221.909472 220.729418 
L 220.564104 223.977424 
L 220.105224 227.462964 
L 220.564104 230.948503 
L 221.909472 234.196509 
L 224.049644 236.985635 
L 226.83877 239.125807 
L 230.086776 240.471175 
L 233.572316 240.930055 
L 237.057856 240.471175 
L 240.305862 239.125807 
L 243.094988 236.985635 
L 245.235159 234.196509 
L 246.580528 230.948503 
L 247.039408 227.462964 
z
" clip-path="url(#p030f47ac70)" style="fill: #e61a1a; stroke: #262626; stroke-width: 1.5"/>
    <path d="M 223.584101 157.844476 
L 222.684891 160.100559 
L 223.805353 162.871417 
L 226.289136 164.533919 
L 228.681273 164.114194 
L 247.680083 148.668492 
L 248.579295 146.412408 
L 247.458833 143.641549 
L 244.97505 141.979047 
L 242.582911 142.398774 
z
" clip-path="url(#p030f47ac70)" style="fill: #666666; stroke: #262626"/>
    <path d="M 204.251127 171.925823 
L 205.889721 170.742497 
L 206.568448 167.885696 
L 205.889721 165.028894 
L 204.251127 163.845568 
L 174.31308 163.845568 
L 172.674483 165.028894 
L 171.995754 167.885696 
L 172.674483 170.742497 
L 174.31308 171.925823 
z
" clip-path="url(#p030f47ac70)" style="fill: #666666; stroke: #262626"/>
    <path d="M 225.501865 181.652565 
L 224.103186 181.002908 
L 221.237546 181.345309 
L 218.583599 182.479194 
L 217.695991 183.740349 
L 226.555268 216.863715 
L 227.953949 217.513377 
L 230.81959 217.170978 
L 233.473536 216.037091 
L 234.361143 214.775932 
z
" clip-path="url(#p030f47ac70)" style="fill: #666666; stroke: #262626"/>
    <path d="M 234.471461 167.885696 
L 233.897861 163.528771 
L 232.216151 159.468764 
L 229.540936 155.982356 
L 226.054528 153.307141 
L 221.994521 151.625431 
L 217.637596 151.051831 
L 213.280671 151.625431 
L 209.220664 153.307141 
L 205.734256 155.982356 
L 203.059042 159.468764 
L 201.377331 163.528771 
L 200.803731 167.885696 
L 201.377331 172.242621 
L 203.059042 176.302628 
L 205.734256 179.789036 
L 209.220664 182.46425 
L 213.280671 184.145961 
L 217.637596 184.719561 
L 221.994521 184.145961 
L 226.054528 182.46425 
L 229.540936 179.789036 
L 232.216151 176.302628 
L 233.897861 172.242621 
L 234.471461 167.885696 
z
" clip-path="url(#p030f47ac70)" style="fill: #3366e6; stroke: #262626; stroke-width: 1.5"/>
   </g>
  </g>
 </g>
 <defs>
  <clipPath id="p030f47ac70">
   <rect x="7.2" y="7.2" width="410.4" height="410.4"/>
  </clipPath>
 </defs>
</svg>
