<?xml version="1.0" encoding="utf-8" standalone="no"?>
<!DOCTYPE svg PUBLIC "-//W3C//DTD SVG 1.1//EN"
  "http://www.w3.org/Graphics/SVG/1.1/DTD/svg11.dtd">
<svg xmlns:xlink="http://www.w3.org/1999/xlink" width="280.8pt" height="280.8pt" viewBox="0 0 280.8 280.8" xmlns="http://www.w3.org/2000/svg" version="1.1">
 <metadata>
  <rdf:RDF xmlns:dc="http://purl.org/dc/elements/1.1/" xmlns:cc="http://creativecommons.org/ns#" xmlns:rdf="http://www.w3.org/1999/02/22-rdf-syntax-ns#">
   <cc:Work>
    <dc:type rdf:resource="http://purl.org/dc/dcmitype/StillImage"/>
    <dc:date>2026-02-15T20:50:38.992301</dc:date>
    <dc:format>image/svg+xml</dc:format>
    <dc:creator>
     <cc:Agent>
      <dc:title>Matplotlib v3.10.7, https://matplotlib.org/</dc:title>
     </cc:Agent>
    </dc:creator>
   </cc:Work>
  </rdf:RDF>
 </metadata>
 <defs>
  <style type="text/css">*{stroke-linejoin: round; stroke-linecap: butt}</style>
 </defs>
 <g id="figure_1">
  <g id="patch_1">
   <path d="M 0 280.8 
L 280.8 280.8 
L 280.8 0 
L 0 0 
z
" style="fill: #ffffff"/>
  </g>
  <g id="axes_1">
   <g id="PolyCollection_1">
    <path d="M 164.359035 170.021129 
L 163.423894 162.918025 
L 160.682198 156.298986 
L 156.32079 150.615088 
L 150.636892 146.25368 
L 144.017853 143.511984 
L 136.914749 142.576843 
L 129.811646 143.511984 
L 123.192607 146.25368 
L 117.508709 150.615088 
L 113.147301 156.298986 
L 110.405605 162.918025 
L 109.470464 170.021129 
L 110.405605 177.124233 
L 113.147301 183.743272 
L 117.508709 189.427169 
L 123.192607 193.788577 
L 129.811646 196.530273 
L 136.914749 197.465414 
L 144.017853 196.530273 
L 150.636892 193.788577 
L 156.32079 189.427169 
L 160.682198 183.743272 
L 163.423894 177.124233 
L 164.359035 170.021129 
z
" clip-path="url(#pde9ac3ef8d)" style="fill: #00cc33; stroke: #262626; stroke-width: 1.5"/>
    <path d="M 145.803029 100.643309 
L 144.867888 93.540206 
L 142.126192 86.921166 
L 137.764784 81.237269 
L 132.080887 76.875861 
L 125.461848 74.134165 
L 118.358744 73.199024 
L 111.25564 74.134165 
L 104.636601 76.875861 
L 98.952703 81.237269 
L 94.591295 86.921166 
L 91.849599 93.540206 
L 90.914458 100.643309 
L 91.849599 107.746413 
L 94.591295 114.365452 
L 98.952703 120.04935 
L 104.636601 124.410758 
L 111.25564 127.152454 
L 118.358744 128.087595 
L 125.461848 127.152454 
L 132.080887 124.410758 
L 137.764784 120.04935 
L 142.126192 114.365452 
L 144.867888 107.746413 
L 145.803029 100.643309 
z
" clip-path="url(#pde9ac3ef8d)" style="fill: #00cc33; stroke: #262626; stroke-width: 1.5"/>
    <path d="M 174.672221 135.332219 
L 174.137855 131.273303 
L 172.571171 127.490995 
L 170.078938 124.243053 
L 166.830997 121.75082 
L 163.048689 120.184137 
L 158.989772 119.64977 
L 154.930856 120.184137 
L 151.148548 121.75082 
L 147.900606 124.243053 
L 145.408373 127.490995 
L 143.84169 131.273303 
L 143.307323 135.332219 
L 143.84169 139.391135 
L 145.408373 143.173444 
L 147.900606 146.421385 
L 151.148548 148.913618 
L 154.930856 150.480301 
L 158.989772 151.014668 
L 163.048689 150.480301 
L 166.830997 148.913618 
L 170.078938 146.421385 
L 172.571171 143.173444 
L 174.137855 139.391135 
L 174.672221 135.332219 
z
" clip-path="url(#pde9ac3ef8d)" style="fill: #e61a1a; stroke: #262626; stroke-width: 1.5"/>
    <path d="M 123.422454 151.507923 
L 122.888088 147.449007 
L 121.321405 143.666699 
L 118.829171 140.418757 
L 115.58123 137.926524 
L 111.798922 136.359841 
L 107.740005 135.825474 
L 103.681089 136.359841 
L 99.898781 137.926524 
L 96.650839 140.418757 
L 94.158606 143.666699 
L 92.591923 147.449007 
L 92.057556 151.507923 
L 92.591923 155.56684 
L 94.158606 159.349148 
L 96.650839 162.597089 
L 99.898781 165.089322 
L 103.681089 166.656006 
L 107.740005 167.190372 
L 111.798922 166.656006 
L 115.58123 165.089322 
L 118.829171 162.597089 
L 121.321405 159.349148 
L 122.888088 155.56684 
L 123.422454 151.507923 
z
" clip-path="url(#pde9ac3ef8d)" style="fill: #e61a1a; stroke: #262626; stroke-width: 1.5"/>
    <path d="M 227.065086 170.021129 
L 226.129945 162.918025 
L 223.388249 156.298986 
L 219.026841 150.615088 
L 213.342944 146.25368 
L 206.723904 143.511984 
L 199.620801 142.576843 
L 192.517697 143.511984 
L 185.898658 146.25368 
L 180.21476 150.615088 
L 175.853352 156.298986 
L 173.111656 162.918025 
L 172.176515 170.021129 
L 173.111656 177.124233 
L 175.853352 183.743272 
L 180.21476 189.427169 
L 185.898658 193.788577 
L 192.517697 196.530273 
L 199.620801 197.465414 
L 206.723904 196.530273 
L 213.342944 193.788577 
L 219.026841 189.427169 
L 223.388249 183.743272 
L 226.129945 177.124233 
L 227.065086 170.021129 
z
" clip-path="url(#pde9ac3ef8d)" style="fill: #00cc33; stroke: #262626; stroke-width: 1.5"/>
    <path d="M 164.053483 186.196833 
L 163.519116 182.137917 
L 161.952433 178.355609 
L 159.4602 175.107667 
L 156.212258 172.615434 
L 152.42995 171.048751 
L 148.371034 170.514384 
L 144.312117 171.048751 
L 140.529809 172.615434 
L 137.281868 175.107667 
L 134.789635 178.355609 
L 133.222951 182.137917 
L 132.688585 186.196833 
L 133.222951 190.255749 
L 134.789635 194.038057 
L 137.281868 197.285999 
L 140.529809 199.778232 
L 144.312117 201.344915 
L 148.371034 201.879282 
L 152.42995 201.344915 
L 156.212258 199.778232 
L 159.4602 197.285999 
L 161.952433 194.038057 
L 163.519116 190.255749 
L 164.053483 186.196833 
z
" clip-path="url(#pde9ac3ef8d)" style="fill: #e61a1a; stroke: #262626; stroke-width: 1.5"/>
    <path d="M 124.565553 202.372537 
L 123.630411 195.269433 
L 120.888716 188.650394 
L 116.527307 182.966497 
L 110.84341 178.605089 
L 104.224371 175.863393 
L 97.121267 174.928252 
L 90.018163 175.863393 
L 83.399124 178.605089 
L 77.715226 182.966497 
L 73.353818 188.650394 
L 70.612123 195.269433 
L 69.676981 202.372537 
L 70.612123 209.475641 
L 73.353818 216.09468 
L 77.715226 221.778578 
L 83.399124 226.139986 
L 90.018163 228.881682 
L 97.121267 229.816823 
L 104.224371 228.881682 
L 110.84341 226.139986 
L 116.527307 221.778578 
L 120.888716 216.09468 
L 123.630411 209.475641 
L 124.565553 202.372537 
z
" clip-path="url(#pde9ac3ef8d)" style="fill: #00cc33; stroke: #262626; stroke-width: 1.5"/>
    <path d="M 156.116216 65.9544 
L 155.581849 61.895483 
L 154.015166 58.113175 
L 151.522933 54.865234 
L 148.274991 52.373 
L 144.492683 50.806317 
L 140.433767 50.271951 
L 136.37485 50.806317 
L 132.592542 52.373 
L 129.344601 54.865234 
L 126.852367 58.113175 
L 125.285684 61.895483 
L 124.751318 65.9544 
L 125.285684 70.013316 
L 126.852367 73.795624 
L 129.344601 77.043566 
L 132.592542 79.535799 
L 136.37485 81.102482 
L 140.433767 81.636849 
L 144.492683 81.102482 
L 148.274991 79.535799 
L 151.522933 77.043566 
L 154.015166 73.795624 
L 155.581849 70.013316 
L 156.116216 65.9544 
z
" clip-path="url(#pde9ac3ef8d)" style="fill: #e61a1a; stroke: #262626; stroke-width: 1.5"/>
    <path d="M 158.696092 151.507923 
L 158.028134 146.434278 
L 156.06978 141.706393 
L 152.954489 137.646466 
L 148.894562 134.531174 
L 144.166677 132.57282 
L 139.093031 131.904862 
L 134.019385 132.57282 
L 129.2915 134.531174 
L 125.231574 137.646466 
L 122.116282 141.706393 
L 120.157928 146.434278 
L 119.48997 151.507923 
L 120.157928 156.581569 
L 122.116282 161.309454 
L 125.231574 165.369381 
L 129.2915 168.484672 
L 134.019385 170.443026 
L 139.093031 171.110984 
L 144.166677 170.443026 
L 148.894562 168.484672 
L 152.954489 165.369381 
L 156.06978 161.309454 
L 158.028134 156.581569 
L 158.696092 151.507923 
z
" clip-path="url(#pde9ac3ef8d)" style="fill: #3366e6; stroke: #262626; stroke-width: 1.5"/>
    <path d="M 104.866449 82.130104 
L 104.332082 78.071187 
L 102.765399 74.288879 
L 100.273166 71.040938 
L 97.025224 68.548705 
L 93.242916 66.982021 
L 89.184 66.447655 
L 85.125083 66.982021 
L 81.342775 68.548705 
L 78.094834 71.040938 
L 75.602601 74.288879 
L 74.035917 78.071187 
L 73.501551 82.130104 
L 74.035917 86.18902 
L 75.602601 89.971328 
L 78.094834 93.21927 
L 81.342775 95.711503 
L 85.125083 97.278186 
L 89.184 97.812553 
L 93.242916 97.278186 
L 97.025224 95.711503 
L 100.273166 93.21927 
L 102.765399 89.971328 
L 104.332082 86.18902 
L 104.866449 82.130104 
z
" clip-path="url(#pde9ac3ef8d)" style="fill: #e61a1a; stroke: #262626; stroke-width: 1.5"/>
    <path d="M 208.509081 100.643309 
L 207.573939 93.540206 
L 204.832244 86.921166 
L 200.470836 81.237269 
L 194.786938 76.875861 
L 188.167899 74.134165 
L 181.064795 73.199024 
L 173.961691 74.134165 
L 167.342652 76.875861 
L 161.658755 81.237269 
L 157.297346 86.921166 
L 154.555651 93.540206 
L 153.620509 100.643309 
L 154.555651 107.746413 
L 157.297346 114.365452 
L 161.658755 120.04935 
L 167.342652 124.410758 
L 173.961691 127.152454 
L 181.064795 128.087595 
L 188.167899 127.152454 
L 194.786938 124.410758 
L 200.470836 120.04935 
L 204.832244 114.365452 
L 207.573939 107.746413 
L 208.509081 100.643309 
z
" clip-path="url(#pde9ac3ef8d)" style="fill: #00cc33; stroke: #262626; stroke-width: 1.5"/>
    <path d="M 145.497477 116.819014 
L 144.963111 112.760097 
L 143.396427 108.977789 
L 140.904194 105.729848 
L 137.656253 103.237614 
L 133.873945 101.670931 
L 129.815028 101.136565 
L 125.756112 101.670931 
L 121.973804 103.237614 
L 118.725862 105.729848 
L 116.233629 108.977789 
L 114.666946 112.760097 
L 114.132579 116.819014 
L 114.666946 120.87793 
L 116.233629 124.660238 
L 118.725862 127.90818 
L 121.973804 130.400413 
L 125.756112 131.967096 
L 129.815028 132.501463 
L 133.873945 131.967096 
L 137.656253 130.400413 
L 140.904194 127.90818 
L 143.396427 124.660238 
L 144.963111 120.87793 
L 145.497477 116.819014 
z
" clip-path="url(#pde9ac3ef8d)" style="fill: #e61a1a; stroke: #262626; stroke-width: 1.5"/>
    <path d="M 237.378273 135.332219 
L 236.843906 131.273303 
L 235.277223 127.490995 
L 232.78499 124.243053 
L 229.537048 121.75082 
L 225.75474 120.184137 
L 221.695824 119.64977 
L 217.636907 120.184137 
L 213.854599 121.75082 
L 210.606658 124.243053 
L 208.114424 127.490995 
L 206.547741 131.273303 
L 206.013375 135.332219 
L 206.547741 139.391135 
L 208.114424 143.173444 
L 210.606658 146.421385 
L 213.854599 148.913618 
L 217.636907 150.480301 
L 221.695824 151.014668 
L 225.75474 150.480301 
L 229.537048 148.913618 
L 232.78499 146.421385 
L 235.277223 143.173444 
L 236.843906 139.391135 
L 237.378273 135.332219 
z
" clip-path="url(#pde9ac3ef8d)" style="fill: #e61a1a; stroke: #262626; stroke-width: 1.5"/>
    <path d="M 106.009547 132.994718 
L 105.074406 125.891614 
L 102.33271 119.272575 
L 97.971302 113.588677 
L 92.287404 109.227269 
L 85.668365 106.485573 
L 78.565261 105.550432 
L 71.462158 106.485573 
L 64.843118 109.227269 
L 59.159221 113.588677 
L 54.797813 119.272575 
L 52.056117 125.891614 
L 51.120976 132.994718 
L 52.056117 140.097822 
L 54.797813 146.716861 
L 59.159221 152.400758 
L 64.843118 156.762166 
L 71.462158 159.503862 
L 78.565261 160.439004 
L 85.668365 159.503862 
L 92.287404 156.762166 
L 97.971302 152.400758 
L 102.33271 146.716861 
L 105.074406 140.097822 
L 106.009547 132.994718 
z
" clip-path="url(#pde9ac3ef8d)" style="fill: #00cc33; stroke: #262626; stroke-width: 1.5"/>
    <path d="M 186.128506 151.507923 
L 185.594139 147.449007 
L 184.027456 143.666699 
L 181.535223 140.418757 
L 178.287281 137.926524 
L 174.504973 136.359841 
L 170.446057 135.825474 
L 166.38714 136.359841 
L 162.604832 137.926524 
L 159.356891 140.418757 
L 156.864657 143.666699 
L 155.297974 147.449007 
L 154.763608 151.507923 
L 155.297974 155.56684 
L 156.864657 159.349148 
L 159.356891 162.597089 
L 162.604832 165.089322 
L 166.38714 166.656006 
L 170.446057 167.190372 
L 174.504973 166.656006 
L 178.287281 165.089322 
L 181.535223 162.597089 
L 184.027456 159.349148 
L 185.594139 155.56684 
L 186.128506 151.507923 
z
" clip-path="url(#pde9ac3ef8d)" style="fill: #e61a1a; stroke: #262626; stroke-width: 1.5"/>
    <path d="M 140.140087 82.130104 
L 139.472129 77.056458 
L 137.513774 72.328573 
L 134.398483 68.268646 
L 130.338556 65.153355 
L 125.610671 63.195001 
L 120.537025 62.527043 
L 115.46338 63.195001 
L 110.735495 65.153355 
L 106.675568 68.268646 
L 103.560276 72.328573 
L 101.601922 77.056458 
L 100.933964 82.130104 
L 101.601922 87.203749 
L 103.560276 91.931634 
L 106.675568 95.991561 
L 110.735495 99.106853 
L 115.46338 101.065207 
L 120.537025 101.733165 
L 125.610671 101.065207 
L 130.338556 99.106853 
L 134.398483 95.991561 
L 137.513774 91.931634 
L 139.472129 87.203749 
L 140.140087 82.130104 
z
" clip-path="url(#pde9ac3ef8d)" style="fill: #3366e6; stroke: #262626; stroke-width: 1.5"/>
    <path d="M 134.878739 167.683628 
L 134.344372 163.624711 
L 132.777689 159.842403 
L 130.285456 156.594462 
L 127.037514 154.102228 
L 123.255206 152.535545 
L 119.19629 152.001179 
L 115.137373 152.535545 
L 111.355065 154.102228 
L 108.107124 156.594462 
L 105.614891 159.842403 
L 104.048207 163.624711 
L 103.513841 167.683628 
L 104.048207 171.742544 
L 105.614891 175.524852 
L 108.107124 178.772794 
L 111.355065 181.265027 
L 115.137373 182.83171 
L 119.19629 183.366076 
L 123.255206 182.83171 
L 127.037514 181.265027 
L 130.285456 178.772794 
L 132.777689 175.524852 
L 134.344372 171.742544 
L 134.878739 167.683628 
z
" clip-path="url(#pde9ac3ef8d)" style="fill: #e61a1a; stroke: #262626; stroke-width: 1.5"/>
    <path d="M 226.759534 186.196833 
L 226.225168 182.137917 
L 224.658484 178.355609 
L 222.166251 175.107667 
L 218.91831 172.615434 
L 215.136002 171.048751 
L 211.077085 170.514384 
L 207.018169 171.048751 
L 203.235861 172.615434 
L 199.987919 175.107667 
L 197.495686 178.355609 
L 195.929003 182.137917 
L 195.394636 186.196833 
L 195.929003 190.255749 
L 197.495686 194.038057 
L 199.987919 197.285999 
L 203.235861 199.778232 
L 207.018169 201.344915 
L 211.077085 201.879282 
L 215.136002 201.344915 
L 218.91831 199.778232 
L 222.166251 197.285999 
L 224.658484 194.038057 
L 226.225168 190.255749 
L 226.759534 186.196833 
z
" clip-path="url(#pde9ac3ef8d)" style="fill: #e61a1a; stroke: #262626; stroke-width: 1.5"/>
    <path d="M 83.628972 183.859332 
L 83.094605 179.800415 
L 81.527922 176.018107 
L 79.035689 172.770166 
L 75.787747 170.277933 
L 72.005439 168.711249 
L 67.946523 168.176883 
L 63.887606 168.711249 
L 60.105298 170.277933 
L 56.857357 172.770166 
L 54.365124 176.018107 
L 52.79844 179.800415 
L 52.264074 183.859332 
L 52.79844 187.918248 
L 54.365124 191.700556 
L 56.857357 194.948498 
L 60.105298 197.440731 
L 63.887606 199.007414 
L 67.946523 199.541781 
L 72.005439 199.007414 
L 75.787747 197.440731 
L 79.035689 194.948498 
L 81.527922 191.700556 
L 83.094605 187.918248 
L 83.628972 183.859332 
z
" clip-path="url(#pde9ac3ef8d)" style="fill: #e61a1a; stroke: #262626; stroke-width: 1.5"/>
    <path d="M 187.271604 202.372537 
L 186.336463 195.269433 
L 183.594767 188.650394 
L 179.233359 182.966497 
L 173.549461 178.605089 
L 166.930422 175.863393 
L 159.827318 174.928252 
L 152.724214 175.863393 
L 146.105175 178.605089 
L 140.421278 182.966497 
L 136.05987 188.650394 
L 133.318174 195.269433 
L 132.383033 202.372537 
L 133.318174 209.475641 
L 136.05987 216.09468 
L 140.421278 221.778578 
L 146.105175 226.139986 
L 152.724214 228.881682 
L 159.827318 229.816823 
L 166.930422 228.881682 
L 173.549461 226.139986 
L 179.233359 221.778578 
L 183.594767 216.09468 
L 186.336463 209.475641 
L 187.271604 202.372537 
z
" clip-path="url(#pde9ac3ef8d)" style="fill: #00cc33; stroke: #262626; stroke-width: 1.5"/>
    <path d="M 218.822267 65.9544 
L 218.2879 61.895483 
L 216.721217 58.113175 
L 214.228984 54.865234 
L 210.981042 52.373 
L 207.198734 50.806317 
L 203.139818 50.271951 
L 199.080901 50.806317 
L 195.298593 52.373 
L 192.050652 54.865234 
L 189.558419 58.113175 
L 187.991735 61.895483 
L 187.457369 65.9544 
L 187.991735 70.013316 
L 189.558419 73.795624 
L 192.050652 77.043566 
L 195.298593 79.535799 
L 199.080901 81.102482 
L 203.139818 81.636849 
L 207.198734 81.102482 
L 210.981042 79.535799 
L 214.228984 77.043566 
L 216.721217 73.795624 
L 218.2879 70.013316 
L 218.822267 65.9544 
z
" clip-path="url(#pde9ac3ef8d)" style="fill: #e61a1a; stroke: #262626; stroke-width: 1.5"/>
    <path d="M 124.26 218.548241 
L 123.725634 214.489325 
L 122.158951 210.707017 
L 119.666717 207.459075 
L 116.418776 204.966842 
L 112.636468 203.400159 
L 108.577551 202.865793 
L 104.518635 203.400159 
L 100.736327 204.966842 
L 97.488385 207.459075 
L 94.996152 210.707017 
L 93.429469 214.489325 
L 92.895102 218.548241 
L 93.429469 222.607158 
L 94.996152 226.389466 
L 97.488385 229.637407 
L 100.736327 232.129641 
L 104.518635 233.696324 
L 108.577551 234.23069 
L 112.636468 233.696324 
L 116.418776 232.129641 
L 119.666717 229.637407 
L 122.158951 226.389466 
L 123.725634 222.607158 
L 124.26 218.548241 
z
" clip-path="url(#pde9ac3ef8d)" style="fill: #e61a1a; stroke: #262626; stroke-width: 1.5"/>
    <path d="M 221.402144 151.507923 
L 220.734185 146.434278 
L 218.775831 141.706393 
L 215.66054 137.646466 
L 211.600613 134.531174 
L 206.872728 132.57282 
L 201.799082 131.904862 
L 196.725437 132.57282 
L 191.997552 134.531174 
L 187.937625 137.646466 
L 184.822333 141.706393 
L 182.863979 146.434278 
L 182.196021 151.507923 
L 182.863979 156.581569 
L 184.822333 161.309454 
L 187.937625 165.369381 
L 191.997552 168.484672 
L 196.725437 170.443026 
L 201.799082 171.110984 
L 206.872728 170.443026 
L 211.600613 168.484672 
L 215.66054 165.369381 
L 218.775831 161.309454 
L 220.734185 156.581569 
L 221.402144 151.507923 
z
" clip-path="url(#pde9ac3ef8d)" style="fill: #3366e6; stroke: #262626; stroke-width: 1.5"/>
    <path d="M 167.5725 82.130104 
L 167.038134 78.071187 
L 165.47145 74.288879 
L 162.979217 71.040938 
L 159.731276 68.548705 
L 155.948968 66.982021 
L 151.890051 66.447655 
L 147.831135 66.982021 
L 144.048827 68.548705 
L 140.800885 71.040938 
L 138.308652 74.288879 
L 136.741969 78.071187 
L 136.207602 82.130104 
L 136.741969 86.18902 
L 138.308652 89.971328 
L 140.800885 93.21927 
L 144.048827 95.711503 
L 147.831135 97.278186 
L 151.890051 97.812553 
L 155.948968 97.278186 
L 159.731276 95.711503 
L 162.979217 93.21927 
L 165.47145 89.971328 
L 167.038134 86.18902 
L 167.5725 82.130104 
z
" clip-path="url(#pde9ac3ef8d)" style="fill: #e61a1a; stroke: #262626; stroke-width: 1.5"/>
    <path d="M 116.322733 98.305808 
L 115.788367 94.246892 
L 114.221683 90.464584 
L 111.72945 87.216642 
L 108.481509 84.724409 
L 104.699201 83.157726 
L 100.640284 82.623359 
L 96.581368 83.157726 
L 92.79906 84.724409 
L 89.551118 87.216642 
L 87.058885 90.464584 
L 85.492202 94.246892 
L 84.957835 98.305808 
L 85.492202 102.364725 
L 87.058885 106.147033 
L 89.551118 109.394974 
L 92.79906 111.887207 
L 96.581368 113.453891 
L 100.640284 113.988257 
L 104.699201 113.453891 
L 108.481509 111.887207 
L 111.72945 109.394974 
L 114.221683 106.147033 
L 115.788367 102.364725 
L 116.322733 98.305808 
z
" clip-path="url(#pde9ac3ef8d)" style="fill: #e61a1a; stroke: #262626; stroke-width: 1.5"/>
    <path d="M 118.90261 183.859332 
L 118.234652 178.785686 
L 116.276298 174.057801 
L 113.161006 169.997874 
L 109.101079 166.882583 
L 104.373194 164.924229 
L 99.299549 164.256271 
L 94.225903 164.924229 
L 89.498018 166.882583 
L 85.438091 169.997874 
L 82.3228 174.057801 
L 80.364445 178.785686 
L 79.696487 183.859332 
L 80.364445 188.932977 
L 82.3228 193.660862 
L 85.438091 197.720789 
L 89.498018 200.836081 
L 94.225903 202.794435 
L 99.299549 203.462393 
L 104.373194 202.794435 
L 109.101079 200.836081 
L 113.161006 197.720789 
L 116.276298 193.660862 
L 118.234652 188.932977 
L 118.90261 183.859332 
z
" clip-path="url(#pde9ac3ef8d)" style="fill: #3366e6; stroke: #262626; stroke-width: 1.5"/>
    <path d="M 208.203528 116.819014 
L 207.669162 112.760097 
L 206.102479 108.977789 
L 203.610246 105.729848 
L 200.362304 103.237614 
L 196.579996 101.670931 
L 192.52108 101.136565 
L 188.462163 101.670931 
L 184.679855 103.237614 
L 181.431914 105.729848 
L 178.93968 108.977789 
L 177.372997 112.760097 
L 176.838631 116.819014 
L 177.372997 120.87793 
L 178.93968 124.660238 
L 181.431914 127.90818 
L 184.679855 130.400413 
L 188.462163 131.967096 
L 192.52108 132.501463 
L 196.579996 131.967096 
L 200.362304 130.400413 
L 203.610246 127.90818 
L 206.102479 124.660238 
L 207.669162 120.87793 
L 208.203528 116.819014 
z
" clip-path="url(#pde9ac3ef8d)" style="fill: #e61a1a; stroke: #262626; stroke-width: 1.5"/>
    <path d="M 65.072966 114.481512 
L 64.5386 110.422596 
L 62.971917 106.640288 
L 60.479683 103.392346 
L 57.231742 100.900113 
L 53.449434 99.33343 
L 49.390517 98.799063 
L 45.331601 99.33343 
L 41.549293 100.900113 
L 38.301351 103.392346 
L 35.809118 106.640288 
L 34.242435 110.422596 
L 33.708068 114.481512 
L 34.242435 118.540429 
L 35.809118 122.322737 
L 38.301351 125.570678 
L 41.549293 128.062912 
L 45.331601 129.629595 
L 49.390517 130.163961 
L 53.449434 129.629595 
L 57.231742 128.062912 
L 60.479683 125.570678 
L 62.971917 122.322737 
L 64.5386 118.540429 
L 65.072966 114.481512 
z
" clip-path="url(#pde9ac3ef8d)" style="fill: #e61a1a; stroke: #262626; stroke-width: 1.5"/>
    <path d="M 168.715598 132.994718 
L 167.780457 125.891614 
L 165.038761 119.272575 
L 160.677353 113.588677 
L 154.993456 109.227269 
L 148.374416 106.485573 
L 141.271313 105.550432 
L 134.168209 106.485573 
L 127.54917 109.227269 
L 121.865272 113.588677 
L 117.503864 119.272575 
L 114.762168 125.891614 
L 113.827027 132.994718 
L 114.762168 140.097822 
L 117.503864 146.716861 
L 121.865272 152.400758 
L 127.54917 156.762166 
L 134.168209 159.503862 
L 141.271313 160.439004 
L 148.374416 159.503862 
L 154.993456 156.762166 
L 160.677353 152.400758 
L 165.038761 146.716861 
L 167.780457 140.097822 
L 168.715598 132.994718 
z
" clip-path="url(#pde9ac3ef8d)" style="fill: #00cc33; stroke: #262626; stroke-width: 1.5"/>
    <path d="M 105.703995 149.170422 
L 105.169628 145.111506 
L 103.602945 141.329198 
L 101.110712 138.081256 
L 97.86277 135.589023 
L 94.080462 134.02234 
L 90.021546 133.487973 
L 85.962629 134.02234 
L 82.180321 135.589023 
L 78.93238 138.081256 
L 76.440147 141.329198 
L 74.873463 145.111506 
L 74.339097 149.170422 
L 74.873463 153.229339 
L 76.440147 157.011647 
L 78.93238 160.259588 
L 82.180321 162.751821 
L 85.962629 164.318505 
L 90.021546 164.852871 
L 94.080462 164.318505 
L 97.86277 162.751821 
L 101.110712 160.259588 
L 103.602945 157.011647 
L 105.169628 153.229339 
L 105.703995 149.170422 
z
" clip-path="url(#pde9ac3ef8d)" style="fill: #e61a1a; stroke: #262626; stroke-width: 1.5"/>
    <path d="M 202.846138 82.130104 
L 202.17818 77.056458 
L 200.219826 72.328573 
L 197.104534 68.268646 
L 193.044607 65.153355 
L 188.316722 63.195001 
L 183.243077 62.527043 
L 178.169431 63.195001 
L 173.441546 65.153355 
L 169.381619 68.268646 
L 166.266328 72.328573 
L 164.307974 77.056458 
L 163.640016 82.130104 
L 164.307974 87.203749 
L 166.266328 91.931634 
L 169.381619 95.991561 
L 173.441546 99.106853 
L 178.169431 101.065207 
L 183.243077 101.733165 
L 188.316722 101.065207 
L 193.044607 99.106853 
L 197.104534 95.991561 
L 200.219826 91.931634 
L 202.17818 87.203749 
L 202.846138 82.130104 
z
" clip-path="url(#pde9ac3ef8d)" style="fill: #3366e6; stroke: #262626; stroke-width: 1.5"/>
    <path d="M 197.58479 167.683628 
L 197.050424 163.624711 
L 195.48374 159.842403 
L 192.991507 156.594462 
L 189.743566 154.102228 
L 185.961258 152.535545 
L 181.902341 152.001179 
L 177.843425 152.535545 
L 174.061117 154.102228 
L 170.813175 156.594462 
L 168.320942 159.842403 
L 166.754259 163.624711 
L 166.219892 167.683628 
L 166.754259 171.742544 
L 168.320942 175.524852 
L 170.813175 178.772794 
L 174.061117 181.265027 
L 177.843425 182.83171 
L 181.902341 183.366076 
L 185.961258 182.83171 
L 189.743566 181.265027 
L 192.991507 178.772794 
L 195.48374 175.524852 
L 197.050424 171.742544 
L 197.58479 167.683628 
z
" clip-path="url(#pde9ac3ef8d)" style="fill: #e61a1a; stroke: #262626; stroke-width: 1.5"/>
    <path d="M 146.335023 183.859332 
L 145.800657 179.800415 
L 144.233973 176.018107 
L 141.74174 172.770166 
L 138.493799 170.277933 
L 134.711491 168.711249 
L 130.652574 168.176883 
L 126.593658 168.711249 
L 122.81135 170.277933 
L 119.563408 172.770166 
L 117.071175 176.018107 
L 115.504492 179.800415 
L 114.970125 183.859332 
L 115.504492 187.918248 
L 117.071175 191.700556 
L 119.563408 194.948498 
L 122.81135 197.440731 
L 126.593658 199.007414 
L 130.652574 199.541781 
L 134.711491 199.007414 
L 138.493799 197.440731 
L 141.74174 194.948498 
L 144.233973 191.700556 
L 145.800657 187.918248 
L 146.335023 183.859332 
z
" clip-path="url(#pde9ac3ef8d)" style="fill: #e61a1a; stroke: #262626; stroke-width: 1.5"/>
    <path d="M 100.346604 114.481512 
L 99.678646 109.407867 
L 97.720292 104.679982 
L 94.605001 100.620055 
L 90.545074 97.504763 
L 85.817189 95.546409 
L 80.743543 94.878451 
L 75.669897 95.546409 
L 70.942012 97.504763 
L 66.882085 100.620055 
L 63.766794 104.679982 
L 61.80844 109.407867 
L 61.140482 114.481512 
L 61.80844 119.555158 
L 63.766794 124.283043 
L 66.882085 128.34297 
L 70.942012 131.458261 
L 75.669897 133.416615 
L 80.743543 134.084574 
L 85.817189 133.416615 
L 90.545074 131.458261 
L 94.605001 128.34297 
L 97.720292 124.283043 
L 99.678646 119.555158 
L 100.346604 114.481512 
z
" clip-path="url(#pde9ac3ef8d)" style="fill: #3366e6; stroke: #262626; stroke-width: 1.5"/>
    <path d="M 186.966052 218.548241 
L 186.431685 214.489325 
L 184.865002 210.707017 
L 182.372769 207.459075 
L 179.124827 204.966842 
L 175.342519 203.400159 
L 171.283603 202.865793 
L 167.224686 203.400159 
L 163.442378 204.966842 
L 160.194437 207.459075 
L 157.702204 210.707017 
L 156.13552 214.489325 
L 155.601154 218.548241 
L 156.13552 222.607158 
L 157.702204 226.389466 
L 160.194437 229.637407 
L 163.442378 232.129641 
L 167.224686 233.696324 
L 171.283603 234.23069 
L 175.342519 233.696324 
L 179.124827 232.129641 
L 182.372769 229.637407 
L 184.865002 226.389466 
L 186.431685 222.607158 
L 186.966052 218.548241 
z
" clip-path="url(#pde9ac3ef8d)" style="fill: #e61a1a; stroke: #262626; stroke-width: 1.5"/>
    <path d="M 179.028784 98.305808 
L 178.494418 94.246892 
L 176.927735 90.464584 
L 174.435502 87.216642 
L 171.18756 84.724409 
L 167.405252 83.157726 
L 163.346336 82.623359 
L 159.287419 83.157726 
L 155.505111 84.724409 
L 152.25717 87.216642 
L 149.764936 90.464584 
L 148.198253 94.246892 
L 147.663887 98.305808 
L 148.198253 102.364725 
L 149.764936 106.147033 
L 152.25717 109.394974 
L 155.505111 111.887207 
L 159.287419 113.453891 
L 163.346336 113.988257 
L 167.405252 113.453891 
L 171.18756 111.887207 
L 174.435502 109.394974 
L 176.927735 106.147033 
L 178.494418 102.364725 
L 179.028784 98.305808 
z
" clip-path="url(#pde9ac3ef8d)" style="fill: #e61a1a; stroke: #262626; stroke-width: 1.5"/>
    <path d="M 181.608661 183.859332 
L 180.940703 178.785686 
L 178.982349 174.057801 
L 175.867057 169.997874 
L 171.807131 166.882583 
L 167.079245 164.924229 
L 162.0056 164.256271 
L 156.931954 164.924229 
L 152.204069 166.882583 
L 148.144142 169.997874 
L 145.028851 174.057801 
L 143.070497 178.785686 
L 142.402539 183.859332 
L 143.070497 188.932977 
L 145.028851 193.660862 
L 148.144142 197.720789 
L 152.204069 200.836081 
L 156.931954 202.794435 
L 162.0056 203.462393 
L 167.079245 202.794435 
L 171.807131 200.836081 
L 175.867057 197.720789 
L 178.982349 193.660862 
L 180.940703 188.932977 
L 181.608661 183.859332 
z
" clip-path="url(#pde9ac3ef8d)" style="fill: #3366e6; stroke: #262626; stroke-width: 1.5"/>
    <path d="M 127.779018 114.481512 
L 127.244651 110.422596 
L 125.677968 106.640288 
L 123.185735 103.392346 
L 119.937793 100.900113 
L 116.155485 99.33343 
L 112.096569 98.799063 
L 108.037652 99.33343 
L 104.255344 100.900113 
L 101.007403 103.392346 
L 98.515169 106.640288 
L 96.948486 110.422596 
L 96.41412 114.481512 
L 96.948486 118.540429 
L 98.515169 122.322737 
L 101.007403 125.570678 
L 104.255344 128.062912 
L 108.037652 129.629595 
L 112.096569 130.163961 
L 116.155485 129.629595 
L 119.937793 128.062912 
L 123.185735 125.570678 
L 125.677968 122.322737 
L 127.244651 118.540429 
L 127.779018 114.481512 
z
" clip-path="url(#pde9ac3ef8d)" style="fill: #e61a1a; stroke: #262626; stroke-width: 1.5"/>
    <path d="M 168.410046 149.170422 
L 167.87568 145.111506 
L 166.308996 141.329198 
L 163.816763 138.081256 
L 160.568822 135.589023 
L 156.786514 134.02234 
L 152.727597 133.487973 
L 148.668681 134.02234 
L 144.886373 135.589023 
L 141.638431 138.081256 
L 139.146198 141.329198 
L 137.579515 145.111506 
L 137.045148 149.170422 
L 137.579515 153.229339 
L 139.146198 157.011647 
L 141.638431 160.259588 
L 144.886373 162.751821 
L 148.668681 164.318505 
L 152.727597 164.852871 
L 156.786514 164.318505 
L 160.568822 162.751821 
L 163.816763 160.259588 
L 166.308996 157.011647 
L 167.87568 153.229339 
L 168.410046 149.170422 
z
" clip-path="url(#pde9ac3ef8d)" style="fill: #e61a1a; stroke: #262626; stroke-width: 1.5"/>
    <path d="M 163.052656 114.481512 
L 162.384697 109.407867 
L 160.426343 104.679982 
L 157.311052 100.620055 
L 153.251125 97.504763 
L 148.52324 95.546409 
L 143.449594 94.878451 
L 138.375949 95.546409 
L 133.648064 97.504763 
L 129.588137 100.620055 
L 126.472845 104.679982 
L 124.514491 109.407867 
L 123.846533 114.481512 
L 124.514491 119.555158 
L 126.472845 124.283043 
L 129.588137 128.34297 
L 133.648064 131.458261 
L 138.375949 133.416615 
L 143.449594 134.084574 
L 148.52324 133.416615 
L 153.251125 131.458261 
L 157.311052 128.34297 
L 160.426343 124.283043 
L 162.384697 119.555158 
L 163.052656 114.481512 
z
" clip-path="url(#pde9ac3ef8d)" style="fill: #3366e6; stroke: #262626; stroke-width: 1.5"/>
   </g>
  </g>
 </g>
 <defs>
  <clipPath id="pde9ac3ef8d">
   <rect x="7.2" y="7.2" width="266.4" height="266.4"/>
  </clipPath>
 </defs>
</svg>
