<?xml version="1.0" encoding="utf-8" standalone="no"?>
<!DOCTYPE svg PUBLIC "-//W3C//DTD SVG 1.1//EN"
  "http://www.w3.org/Graphics/SVG/1.1/DTD/svg11.dtd">
<svg xmlns:xlink="http://www.w3.org/1999/xlink" width="280.8pt" height="280.8pt" viewBox="0 0 280.8 280.8" xmlns="http://www.w3.org/2000/svg" version="1.1">
 <metadata>
  <rdf:RDF xmlns:dc="http://purl.org/dc/elements/1.1/" xmlns:cc="http://creativecommons.org/ns#" xmlns:rdf="http://www.w3.org/1999/02/22-rdf-syntax-ns#">
   <cc:Work>
    <dc:type rdf:resource="http://purl.org/dc/dcmitype/StillImage"/>
    <dc:date>2026-02-16T06:48:36.796236</dc:date>
    <dc:format>image/svg+xml</dc:format>
    <dc:creator>
     <cc:Agent>
      <dc:title>Matplotlib v3.10.7, https://matplotlib.org/</dc:title>
     </cc:Agent>
    </dc:creator>
   </cc:Work>
  </rdf:RDF>
 </metadata>
 <defs>
  <style type="text/css">*{stroke-linejoin: round; stroke-linecap: butt}</style>
 </defs>
 <g id="figure_1">
  <g id="patch_1">
   <path d="M 0 280.8 
L 280.8 280.8 
L 280.8 0 
L 0 0 
z
" style="fill: #ffffff"/>
  </g>
  <g id="axes_1">
   <g id="PolyCollection_1">
    <path d="M 179.46355 164.266974 
L 178.917125 160.116462 
L 177.315087 156.248799 
L 174.766612 152.927563 
L 171.445376 150.379088 
L 167.577714 148.77705 
L 163.427201 148.230625 
L 159.276688 148.77705 
L 155.409026 150.379088 
L 152.087789 152.927563 
L 149.539315 156.248799 
L 147.937277 160.116462 
L 147.390851 164.266974 
L 147.937277 168.417487 
L 149.539315 172.285149 
L 152.087789 175.606386 
L 155.409026 178.15486 
L 159.276688 179.756898 
L 163.427201 180.303324 
L 167.577714 179.756898 
L 171.445376 178.15486 
L 174.766612 175.606386 
L 177.315087 172.285149 
L 178.917125 168.417487 
L 179.46355 164.266974 
z
" clip-path="url(#p8e3dcd3d41)" style="fill: #e61a1a; stroke: #262626; stroke-width: 1.5"/>
    <path d="M 179.46355 87.181095 
L 178.917125 83.030582 
L 177.315087 79.16292 
L 174.766612 75.841683 
L 171.445376 73.293209 
L 167.577714 71.691171 
L 163.427201 71.144745 
L 159.276688 71.691171 
L 155.409026 73.293209 
L 152.087789 75.841683 
L 149.539315 79.16292 
L 147.937277 83.030582 
L 147.390851 87.181095 
L 147.937277 91.331607 
L 149.539315 95.19927 
L 152.087789 98.520506 
L 155.409026 101.068981 
L 159.276688 102.671019 
L 163.427201 103.217444 
L 167.577714 102.671019 
L 171.445376 101.068981 
L 174.766612 98.520506 
L 177.315087 95.19927 
L 178.917125 91.331607 
L 179.46355 87.181095 
z
" clip-path="url(#p8e3dcd3d41)" style="fill: #e61a1a; stroke: #262626; stroke-width: 1.5"/>
    <path d="M 102.706214 166.935332 
L 102.159789 162.784819 
L 100.557751 158.917157 
L 98.009276 155.59592 
L 94.688039 153.047446 
L 90.820377 151.445407 
L 86.669865 150.898982 
L 82.519352 151.445407 
L 78.65169 153.047446 
L 75.330453 155.59592 
L 72.781979 158.917157 
L 71.179941 162.784819 
L 70.633515 166.935332 
L 71.179941 171.085844 
L 72.781979 174.953506 
L 75.330453 178.274743 
L 78.65169 180.823218 
L 82.519352 182.425256 
L 86.669865 182.971681 
L 90.820377 182.425256 
L 94.688039 180.823218 
L 98.009276 178.274743 
L 100.557751 174.953506 
L 102.159789 171.085844 
L 102.706214 166.935332 
z
" clip-path="url(#p8e3dcd3d41)" style="fill: #e61a1a; stroke: #262626; stroke-width: 1.5"/>
    <path d="M 102.706214 89.849452 
L 102.159789 85.69894 
L 100.557751 81.831277 
L 98.009276 78.510041 
L 94.688039 75.961566 
L 90.820377 74.359528 
L 86.669865 73.813103 
L 82.519352 74.359528 
L 78.65169 75.961566 
L 75.330453 78.510041 
L 72.781979 81.831277 
L 71.179941 85.69894 
L 70.633515 89.849452 
L 71.179941 93.999965 
L 72.781979 97.867627 
L 75.330453 101.188864 
L 78.65169 103.737338 
L 82.519352 105.339376 
L 86.669865 105.885802 
L 90.820377 105.339376 
L 94.688039 103.737338 
L 98.009276 101.188864 
L 100.557751 97.867627 
L 102.159789 93.999965 
L 102.706214 89.849452 
z
" clip-path="url(#p8e3dcd3d41)" style="fill: #e61a1a; stroke: #262626; stroke-width: 1.5"/>
    <path d="M 225.517952 169.603689 
L 224.971527 165.453176 
L 223.369489 161.585514 
L 220.821014 158.264277 
L 217.499777 155.715803 
L 213.632115 154.113765 
L 209.481603 153.567339 
L 205.33109 154.113765 
L 201.463428 155.715803 
L 198.142191 158.264277 
L 195.593717 161.585514 
L 193.991678 165.453176 
L 193.445253 169.603689 
L 193.991678 173.754202 
L 195.593717 177.621864 
L 198.142191 180.9431 
L 201.463428 183.491575 
L 205.33109 185.093613 
L 209.481603 185.640038 
L 213.632115 185.093613 
L 217.499777 183.491575 
L 220.821014 180.9431 
L 223.369489 177.621864 
L 224.971527 173.754202 
L 225.517952 169.603689 
z
" clip-path="url(#p8e3dcd3d41)" style="fill: #e61a1a; stroke: #262626; stroke-width: 1.5"/>
    <path d="M 187.139284 209.480807 
L 186.592859 205.330295 
L 184.990821 201.462633 
L 182.442346 198.141396 
L 179.121109 195.592921 
L 175.253447 193.990883 
L 171.102934 193.444458 
L 166.952422 193.990883 
L 163.08476 195.592921 
L 159.763523 198.141396 
L 157.215048 201.462633 
L 155.61301 205.330295 
L 155.066585 209.480807 
L 155.61301 213.63132 
L 157.215048 217.498982 
L 159.763523 220.820219 
L 163.08476 223.368693 
L 166.952422 224.970731 
L 171.102934 225.517157 
L 175.253447 224.970731 
L 179.121109 223.368693 
L 182.442346 220.820219 
L 184.990821 217.498982 
L 186.592859 213.63132 
L 187.139284 209.480807 
z
" clip-path="url(#p8e3dcd3d41)" style="fill: #e61a1a; stroke: #262626; stroke-width: 1.5"/>
    <path d="M 191.148371 170.937868 
L 190.46534 165.749727 
L 188.462792 160.915149 
L 185.277199 156.763603 
L 181.125653 153.57801 
L 176.291075 151.575462 
L 171.102934 150.892431 
L 165.914794 151.575462 
L 161.080216 153.57801 
L 156.92867 156.763603 
L 153.743077 160.915149 
L 151.740529 165.749727 
L 151.057498 170.937868 
L 151.740529 176.126008 
L 153.743077 180.960586 
L 156.92867 185.112132 
L 161.080216 188.297725 
L 165.914794 190.300273 
L 171.102934 190.983304 
L 176.291075 190.300273 
L 181.125653 188.297725 
L 185.277199 185.112132 
L 188.462792 180.960586 
L 190.46534 176.126008 
L 191.148371 170.937868 
z
" clip-path="url(#p8e3dcd3d41)" style="fill: #3366e6; stroke: #262626; stroke-width: 1.5"/>
    <path d="M 225.517952 92.51781 
L 224.971527 88.367297 
L 223.369489 84.499635 
L 220.821014 81.178398 
L 217.499777 78.629923 
L 213.632115 77.027885 
L 209.481603 76.48146 
L 205.33109 77.027885 
L 201.463428 78.629923 
L 198.142191 81.178398 
L 195.593717 84.499635 
L 193.991678 88.367297 
L 193.445253 92.51781 
L 193.991678 96.668322 
L 195.593717 100.535984 
L 198.142191 103.857221 
L 201.463428 106.405696 
L 205.33109 108.007734 
L 209.481603 108.554159 
L 213.632115 108.007734 
L 217.499777 106.405696 
L 220.821014 103.857221 
L 223.369489 100.535984 
L 224.971527 96.668322 
L 225.517952 92.51781 
z
" clip-path="url(#p8e3dcd3d41)" style="fill: #e61a1a; stroke: #262626; stroke-width: 1.5"/>
    <path d="M 187.139284 132.394928 
L 186.592859 128.244415 
L 184.990821 124.376753 
L 182.442346 121.055516 
L 179.121109 118.507042 
L 175.253447 116.905004 
L 171.102934 116.358578 
L 166.952422 116.905004 
L 163.08476 118.507042 
L 159.763523 121.055516 
L 157.215048 124.376753 
L 155.61301 128.244415 
L 155.066585 132.394928 
L 155.61301 136.545441 
L 157.215048 140.413103 
L 159.763523 143.734339 
L 163.08476 146.282814 
L 166.952422 147.884852 
L 171.102934 148.431277 
L 175.253447 147.884852 
L 179.121109 146.282814 
L 182.442346 143.734339 
L 184.990821 140.413103 
L 186.592859 136.545441 
L 187.139284 132.394928 
z
" clip-path="url(#p8e3dcd3d41)" style="fill: #e61a1a; stroke: #262626; stroke-width: 1.5"/>
    <path d="M 148.760616 172.272046 
L 148.214191 168.121534 
L 146.612152 164.253872 
L 144.063678 160.932635 
L 140.742441 158.38416 
L 136.874779 156.782122 
L 132.724266 156.235697 
L 128.573754 156.782122 
L 124.706092 158.38416 
L 121.384855 160.932635 
L 118.83638 164.253872 
L 117.234342 168.121534 
L 116.687917 172.272046 
L 117.234342 176.422559 
L 118.83638 180.290221 
L 121.384855 183.611458 
L 124.706092 186.159932 
L 128.573754 187.76197 
L 132.724266 188.308396 
L 136.874779 187.76197 
L 140.742441 186.159932 
L 144.063678 183.611458 
L 146.612152 180.290221 
L 148.214191 176.422559 
L 148.760616 172.272046 
z
" clip-path="url(#p8e3dcd3d41)" style="fill: #e61a1a; stroke: #262626; stroke-width: 1.5"/>
    <path d="M 110.381948 212.149165 
L 109.835522 207.998652 
L 108.233484 204.13099 
L 105.68501 200.809753 
L 102.363773 198.261279 
L 98.496111 196.659241 
L 94.345598 196.112815 
L 90.195086 196.659241 
L 86.327424 198.261279 
L 83.006187 200.809753 
L 80.457712 204.13099 
L 78.855674 207.998652 
L 78.309249 212.149165 
L 78.855674 216.299677 
L 80.457712 220.167339 
L 83.006187 223.488576 
L 86.327424 226.037051 
L 90.195086 227.639089 
L 94.345598 228.185514 
L 98.496111 227.639089 
L 102.363773 226.037051 
L 105.68501 223.488576 
L 108.233484 220.167339 
L 109.835522 216.299677 
L 110.381948 212.149165 
z
" clip-path="url(#p8e3dcd3d41)" style="fill: #e61a1a; stroke: #262626; stroke-width: 1.5"/>
    <path d="M 191.148371 93.851988 
L 190.46534 88.663847 
L 188.462792 83.82927 
L 185.277199 79.677724 
L 181.125653 76.492131 
L 176.291075 74.489583 
L 171.102934 73.806551 
L 165.914794 74.489583 
L 161.080216 76.492131 
L 156.92867 79.677724 
L 153.743077 83.82927 
L 151.740529 88.663847 
L 151.057498 93.851988 
L 151.740529 99.040129 
L 153.743077 103.874707 
L 156.92867 108.026253 
L 161.080216 111.211846 
L 165.914794 113.214393 
L 171.102934 113.897425 
L 176.291075 113.214393 
L 181.125653 111.211846 
L 185.277199 108.026253 
L 188.462792 103.874707 
L 190.46534 99.040129 
L 191.148371 93.851988 
z
" clip-path="url(#p8e3dcd3d41)" style="fill: #3366e6; stroke: #262626; stroke-width: 1.5"/>
    <path d="M 114.391035 173.606225 
L 113.708003 168.418084 
L 111.705456 163.583507 
L 108.519863 159.431961 
L 104.368317 156.246367 
L 99.533739 154.24382 
L 94.345598 153.560788 
L 89.157457 154.24382 
L 84.32288 156.246367 
L 80.171334 159.431961 
L 76.985741 163.583507 
L 74.983193 168.418084 
L 74.300161 173.606225 
L 74.983193 178.794366 
L 76.985741 183.628943 
L 80.171334 187.780489 
L 84.32288 190.966083 
L 89.157457 192.96863 
L 94.345598 193.651662 
L 99.533739 192.96863 
L 104.368317 190.966083 
L 108.519863 187.780489 
L 111.705456 183.628943 
L 113.708003 178.794366 
L 114.391035 173.606225 
z
" clip-path="url(#p8e3dcd3d41)" style="fill: #3366e6; stroke: #262626; stroke-width: 1.5"/>
    <path d="M 187.139284 55.309049 
L 186.592859 51.158536 
L 184.990821 47.290874 
L 182.442346 43.969637 
L 179.121109 41.421162 
L 175.253447 39.819124 
L 171.102934 39.272699 
L 166.952422 39.819124 
L 163.08476 41.421162 
L 159.763523 43.969637 
L 157.215048 47.290874 
L 155.61301 51.158536 
L 155.066585 55.309049 
L 155.61301 59.459561 
L 157.215048 63.327223 
L 159.763523 66.64846 
L 163.08476 69.196935 
L 166.952422 70.798973 
L 171.102934 71.345398 
L 175.253447 70.798973 
L 179.121109 69.196935 
L 182.442346 66.64846 
L 184.990821 63.327223 
L 186.592859 59.459561 
L 187.139284 55.309049 
z
" clip-path="url(#p8e3dcd3d41)" style="fill: #e61a1a; stroke: #262626; stroke-width: 1.5"/>
    <path d="M 148.760616 95.186167 
L 148.214191 91.035654 
L 146.612152 87.167992 
L 144.063678 83.846755 
L 140.742441 81.298281 
L 136.874779 79.696243 
L 132.724266 79.149817 
L 128.573754 79.696243 
L 124.706092 81.298281 
L 121.384855 83.846755 
L 118.83638 87.167992 
L 117.234342 91.035654 
L 116.687917 95.186167 
L 117.234342 99.33668 
L 118.83638 103.204342 
L 121.384855 106.525578 
L 124.706092 109.074053 
L 128.573754 110.676091 
L 132.724266 111.222516 
L 136.874779 110.676091 
L 140.742441 109.074053 
L 144.063678 106.525578 
L 146.612152 103.204342 
L 148.214191 99.33668 
L 148.760616 95.186167 
z
" clip-path="url(#p8e3dcd3d41)" style="fill: #e61a1a; stroke: #262626; stroke-width: 1.5"/>
    <path d="M 110.381948 135.063285 
L 109.835522 130.912773 
L 108.233484 127.045111 
L 105.68501 123.723874 
L 102.363773 121.175399 
L 98.496111 119.573361 
L 94.345598 119.026936 
L 90.195086 119.573361 
L 86.327424 121.175399 
L 83.006187 123.723874 
L 80.457712 127.045111 
L 78.855674 130.912773 
L 78.309249 135.063285 
L 78.855674 139.213798 
L 80.457712 143.08146 
L 83.006187 146.402697 
L 86.327424 148.951171 
L 90.195086 150.553209 
L 94.345598 151.099635 
L 98.496111 150.553209 
L 102.363773 148.951171 
L 105.68501 146.402697 
L 108.233484 143.08146 
L 109.835522 139.213798 
L 110.381948 135.063285 
z
" clip-path="url(#p8e3dcd3d41)" style="fill: #e61a1a; stroke: #262626; stroke-width: 1.5"/>
    <path d="M 72.00328 174.940404 
L 71.456854 170.789891 
L 69.854816 166.922229 
L 67.306342 163.600992 
L 63.985105 161.052518 
L 60.117443 159.45048 
L 55.96693 158.904054 
L 51.816418 159.45048 
L 47.948755 161.052518 
L 44.627519 163.600992 
L 42.079044 166.922229 
L 40.477006 170.789891 
L 39.930581 174.940404 
L 40.477006 179.090916 
L 42.079044 182.958578 
L 44.627519 186.279815 
L 47.948755 188.82829 
L 51.816418 190.430328 
L 55.96693 190.976753 
L 60.117443 190.430328 
L 63.985105 188.82829 
L 67.306342 186.279815 
L 69.854816 182.958578 
L 71.456854 179.090916 
L 72.00328 174.940404 
z
" clip-path="url(#p8e3dcd3d41)" style="fill: #e61a1a; stroke: #262626; stroke-width: 1.5"/>
    <path d="M 114.391035 96.520346 
L 113.708003 91.332205 
L 111.705456 86.497627 
L 108.519863 82.346081 
L 104.368317 79.160488 
L 99.533739 77.15794 
L 94.345598 76.474909 
L 89.157457 77.15794 
L 84.32288 79.160488 
L 80.171334 82.346081 
L 76.985741 86.497627 
L 74.983193 91.332205 
L 74.300161 96.520346 
L 74.983193 101.708486 
L 76.985741 106.543064 
L 80.171334 110.69461 
L 84.32288 113.880203 
L 89.157457 115.882751 
L 94.345598 116.565782 
L 99.533739 115.882751 
L 104.368317 113.880203 
L 108.519863 110.69461 
L 111.705456 106.543064 
L 113.708003 101.708486 
L 114.391035 96.520346 
z
" clip-path="url(#p8e3dcd3d41)" style="fill: #3366e6; stroke: #262626; stroke-width: 1.5"/>
    <path d="M 110.381948 57.977406 
L 109.835522 53.826893 
L 108.233484 49.959231 
L 105.68501 46.637994 
L 102.363773 44.08952 
L 98.496111 42.487482 
L 94.345598 41.941056 
L 90.195086 42.487482 
L 86.327424 44.08952 
L 83.006187 46.637994 
L 80.457712 49.959231 
L 78.855674 53.826893 
L 78.309249 57.977406 
L 78.855674 62.127919 
L 80.457712 65.995581 
L 83.006187 69.316817 
L 86.327424 71.865292 
L 90.195086 73.46733 
L 94.345598 74.013755 
L 98.496111 73.46733 
L 102.363773 71.865292 
L 105.68501 69.316817 
L 108.233484 65.995581 
L 109.835522 62.127919 
L 110.381948 57.977406 
z
" clip-path="url(#p8e3dcd3d41)" style="fill: #e61a1a; stroke: #262626; stroke-width: 1.5"/>
    <path d="M 72.00328 97.854524 
L 71.456854 93.704012 
L 69.854816 89.83635 
L 67.306342 86.515113 
L 63.985105 83.966638 
L 60.117443 82.3646 
L 55.96693 81.818175 
L 51.816418 82.3646 
L 47.948755 83.966638 
L 44.627519 86.515113 
L 42.079044 89.83635 
L 40.477006 93.704012 
L 39.930581 97.854524 
L 40.477006 102.005037 
L 42.079044 105.872699 
L 44.627519 109.193936 
L 47.948755 111.74241 
L 51.816418 113.344448 
L 55.96693 113.890874 
L 60.117443 113.344448 
L 63.985105 111.74241 
L 67.306342 109.193936 
L 69.854816 105.872699 
L 71.456854 102.005037 
L 72.00328 97.854524 
z
" clip-path="url(#p8e3dcd3d41)" style="fill: #e61a1a; stroke: #262626; stroke-width: 1.5"/>
    <path d="M 194.815018 177.608761 
L 194.268592 173.458248 
L 192.666554 169.590586 
L 190.11808 166.26935 
L 186.796843 163.720875 
L 182.929181 162.118837 
L 178.778668 161.572412 
L 174.628155 162.118837 
L 170.760493 163.720875 
L 167.439257 166.26935 
L 164.890782 169.590586 
L 163.288744 173.458248 
L 162.742319 177.608761 
L 163.288744 181.759274 
L 164.890782 185.626936 
L 167.439257 188.948172 
L 170.760493 191.496647 
L 174.628155 193.098685 
L 178.778668 193.645111 
L 182.929181 193.098685 
L 186.796843 191.496647 
L 190.11808 188.948172 
L 192.666554 185.626936 
L 194.268592 181.759274 
L 194.815018 177.608761 
z
" clip-path="url(#p8e3dcd3d41)" style="fill: #e61a1a; stroke: #262626; stroke-width: 1.5"/>
    <path d="M 194.815018 100.522882 
L 194.268592 96.372369 
L 192.666554 92.504707 
L 190.11808 89.18347 
L 186.796843 86.634996 
L 182.929181 85.032957 
L 178.778668 84.486532 
L 174.628155 85.032957 
L 170.760493 86.634996 
L 167.439257 89.18347 
L 164.890782 92.504707 
L 163.288744 96.372369 
L 162.742319 100.522882 
L 163.288744 104.673394 
L 164.890782 108.541056 
L 167.439257 111.862293 
L 170.760493 114.410768 
L 174.628155 116.012806 
L 178.778668 116.559231 
L 182.929181 116.012806 
L 186.796843 114.410768 
L 190.11808 111.862293 
L 192.666554 108.541056 
L 194.268592 104.673394 
L 194.815018 100.522882 
z
" clip-path="url(#p8e3dcd3d41)" style="fill: #e61a1a; stroke: #262626; stroke-width: 1.5"/>
    <path d="M 168.463612 140.4 
L 167.507367 133.136603 
L 164.703801 126.368194 
L 160.24397 120.55603 
L 154.431806 116.096199 
L 147.663397 113.292633 
L 140.4 112.336388 
L 133.136603 113.292633 
L 126.368194 116.096199 
L 120.55603 120.55603 
L 116.096199 126.368194 
L 113.292633 133.136603 
L 112.336388 140.4 
L 113.292633 147.663397 
L 116.096199 154.431806 
L 120.55603 160.24397 
L 126.368194 164.703801 
L 133.136603 167.507367 
L 140.4 168.463612 
L 147.663397 167.507367 
L 154.431806 164.703801 
L 160.24397 160.24397 
L 164.703801 154.431806 
L 167.507367 147.663397 
L 168.463612 140.4 
z
" clip-path="url(#p8e3dcd3d41)" style="fill: #00cc33; stroke: #262626; stroke-width: 1.5"/>
    <path d="M 118.057681 180.277118 
L 117.511256 176.126606 
L 115.909218 172.258944 
L 113.360743 168.937707 
L 110.039507 166.389232 
L 106.171845 164.787194 
L 102.021332 164.240769 
L 97.870819 164.787194 
L 94.003157 166.389232 
L 90.68192 168.937707 
L 88.133446 172.258944 
L 86.531408 176.126606 
L 85.984982 180.277118 
L 86.531408 184.427631 
L 88.133446 188.295293 
L 90.68192 191.61653 
L 94.003157 194.165004 
L 97.870819 195.767043 
L 102.021332 196.313468 
L 106.171845 195.767043 
L 110.039507 194.165004 
L 113.360743 191.61653 
L 115.909218 188.295293 
L 117.511256 184.427631 
L 118.057681 180.277118 
z
" clip-path="url(#p8e3dcd3d41)" style="fill: #e61a1a; stroke: #262626; stroke-width: 1.5"/>
    <path d="M 118.057681 103.191239 
L 117.511256 99.040726 
L 115.909218 95.173064 
L 113.360743 91.851828 
L 110.039507 89.303353 
L 106.171845 87.701315 
L 102.021332 87.154889 
L 97.870819 87.701315 
L 94.003157 89.303353 
L 90.68192 91.851828 
L 88.133446 95.173064 
L 86.531408 99.040726 
L 85.984982 103.191239 
L 86.531408 107.341752 
L 88.133446 111.209414 
L 90.68192 114.53065 
L 94.003157 117.079125 
L 97.870819 118.681163 
L 102.021332 119.227588 
L 106.171845 118.681163 
L 110.039507 117.079125 
L 113.360743 114.53065 
L 115.909218 111.209414 
L 117.511256 107.341752 
L 118.057681 103.191239 
z
" clip-path="url(#p8e3dcd3d41)" style="fill: #e61a1a; stroke: #262626; stroke-width: 1.5"/>
    <path d="M 240.869419 182.945476 
L 240.322994 178.794963 
L 238.720956 174.927301 
L 236.172481 171.606064 
L 232.851245 169.05759 
L 228.983582 167.455552 
L 224.83307 166.909126 
L 220.682557 167.455552 
L 216.814895 169.05759 
L 213.493658 171.606064 
L 210.945184 174.927301 
L 209.343146 178.794963 
L 208.79672 182.945476 
L 209.343146 187.095988 
L 210.945184 190.96365 
L 213.493658 194.284887 
L 216.814895 196.833362 
L 220.682557 198.4354 
L 224.83307 198.981825 
L 228.983582 198.4354 
L 232.851245 196.833362 
L 236.172481 194.284887 
L 238.720956 190.96365 
L 240.322994 187.095988 
L 240.869419 182.945476 
z
" clip-path="url(#p8e3dcd3d41)" style="fill: #e61a1a; stroke: #262626; stroke-width: 1.5"/>
    <path d="M 202.490751 222.822594 
L 201.944326 218.672081 
L 200.342288 214.804419 
L 197.793813 211.483183 
L 194.472576 208.934708 
L 190.604914 207.33267 
L 186.454402 206.786245 
L 182.303889 207.33267 
L 178.436227 208.934708 
L 175.11499 211.483183 
L 172.566516 214.804419 
L 170.964478 218.672081 
L 170.418052 222.822594 
L 170.964478 226.973107 
L 172.566516 230.840769 
L 175.11499 234.162006 
L 178.436227 236.71048 
L 182.303889 238.312518 
L 186.454402 238.858944 
L 190.604914 238.312518 
L 194.472576 236.71048 
L 197.793813 234.162006 
L 200.342288 230.840769 
L 201.944326 226.973107 
L 202.490751 222.822594 
z
" clip-path="url(#p8e3dcd3d41)" style="fill: #e61a1a; stroke: #262626; stroke-width: 1.5"/>
    <path d="M 206.499839 184.279654 
L 205.816807 179.091514 
L 203.814259 174.256936 
L 200.628666 170.10539 
L 196.47712 166.919797 
L 191.642543 164.917249 
L 186.454402 164.234218 
L 181.266261 164.917249 
L 176.431683 166.919797 
L 172.280137 170.10539 
L 169.094544 174.256936 
L 167.091997 179.091514 
L 166.408965 184.279654 
L 167.091997 189.467795 
L 169.094544 194.302373 
L 172.280137 198.453919 
L 176.431683 201.639512 
L 181.266261 203.64206 
L 186.454402 204.325091 
L 191.642543 203.64206 
L 196.47712 201.639512 
L 200.628666 198.453919 
L 203.814259 194.302373 
L 205.816807 189.467795 
L 206.499839 184.279654 
z
" clip-path="url(#p8e3dcd3d41)" style="fill: #3366e6; stroke: #262626; stroke-width: 1.5"/>
    <path d="M 240.869419 105.859596 
L 240.322994 101.709084 
L 238.720956 97.841422 
L 236.172481 94.520185 
L 232.851245 91.97171 
L 228.983582 90.369672 
L 224.83307 89.823247 
L 220.682557 90.369672 
L 216.814895 91.97171 
L 213.493658 94.520185 
L 210.945184 97.841422 
L 209.343146 101.709084 
L 208.79672 105.859596 
L 209.343146 110.010109 
L 210.945184 113.877771 
L 213.493658 117.199008 
L 216.814895 119.747482 
L 220.682557 121.34952 
L 224.83307 121.895946 
L 228.983582 121.34952 
L 232.851245 119.747482 
L 236.172481 117.199008 
L 238.720956 113.877771 
L 240.322994 110.010109 
L 240.869419 105.859596 
z
" clip-path="url(#p8e3dcd3d41)" style="fill: #e61a1a; stroke: #262626; stroke-width: 1.5"/>
    <path d="M 202.490751 145.736715 
L 201.944326 141.586202 
L 200.342288 137.71854 
L 197.793813 134.397303 
L 194.472576 131.848829 
L 190.604914 130.246791 
L 186.454402 129.700365 
L 182.303889 130.246791 
L 178.436227 131.848829 
L 175.11499 134.397303 
L 172.566516 137.71854 
L 170.964478 141.586202 
L 170.418052 145.736715 
L 170.964478 149.887227 
L 172.566516 153.754889 
L 175.11499 157.076126 
L 178.436227 159.624601 
L 182.303889 161.226639 
L 186.454402 161.773064 
L 190.604914 161.226639 
L 194.472576 159.624601 
L 197.793813 157.076126 
L 200.342288 153.754889 
L 201.944326 149.887227 
L 202.490751 145.736715 
z
" clip-path="url(#p8e3dcd3d41)" style="fill: #e61a1a; stroke: #262626; stroke-width: 1.5"/>
    <path d="M 164.112083 185.613833 
L 163.565658 181.46332 
L 161.96362 177.595658 
L 159.415145 174.274422 
L 156.093908 171.725947 
L 152.226246 170.123909 
L 148.075734 169.577484 
L 143.925221 170.123909 
L 140.057559 171.725947 
L 136.736322 174.274422 
L 134.187848 177.595658 
L 132.585809 181.46332 
L 132.039384 185.613833 
L 132.585809 189.764346 
L 134.187848 193.632008 
L 136.736322 196.953245 
L 140.057559 199.501719 
L 143.925221 201.103757 
L 148.075734 201.650183 
L 152.226246 201.103757 
L 156.093908 199.501719 
L 159.415145 196.953245 
L 161.96362 193.632008 
L 163.565658 189.764346 
L 164.112083 185.613833 
z
" clip-path="url(#p8e3dcd3d41)" style="fill: #e61a1a; stroke: #262626; stroke-width: 1.5"/>
    <path d="M 125.733415 225.490951 
L 125.18699 221.340439 
L 123.584952 217.472777 
L 121.036477 214.15154 
L 117.71524 211.603065 
L 113.847578 210.001027 
L 109.697066 209.454602 
L 105.546553 210.001027 
L 101.678891 211.603065 
L 98.357654 214.15154 
L 95.809179 217.472777 
L 94.207141 221.340439 
L 93.660716 225.490951 
L 94.207141 229.641464 
L 95.809179 233.509126 
L 98.357654 236.830363 
L 101.678891 239.378838 
L 105.546553 240.980876 
L 109.697066 241.527301 
L 113.847578 240.980876 
L 117.71524 239.378838 
L 121.036477 236.830363 
L 123.584952 233.509126 
L 125.18699 229.641464 
L 125.733415 225.490951 
z
" clip-path="url(#p8e3dcd3d41)" style="fill: #e61a1a; stroke: #262626; stroke-width: 1.5"/>
    <path d="M 206.499839 107.193775 
L 205.816807 102.005634 
L 203.814259 97.171057 
L 200.628666 93.019511 
L 196.47712 89.833917 
L 191.642543 87.83137 
L 186.454402 87.148338 
L 181.266261 87.83137 
L 176.431683 89.833917 
L 172.280137 93.019511 
L 169.094544 97.171057 
L 167.091997 102.005634 
L 166.408965 107.193775 
L 167.091997 112.381916 
L 169.094544 117.216493 
L 172.280137 121.368039 
L 176.431683 124.553633 
L 181.266261 126.55618 
L 186.454402 127.239212 
L 191.642543 126.55618 
L 196.47712 124.553633 
L 200.628666 121.368039 
L 203.814259 117.216493 
L 205.816807 112.381916 
L 206.499839 107.193775 
z
" clip-path="url(#p8e3dcd3d41)" style="fill: #3366e6; stroke: #262626; stroke-width: 1.5"/>
    <path d="M 129.742502 186.948012 
L 129.059471 181.759871 
L 127.056923 176.925293 
L 123.87133 172.773747 
L 119.719784 169.588154 
L 114.885206 167.585607 
L 109.697066 166.902575 
L 104.508925 167.585607 
L 99.674347 169.588154 
L 95.522801 172.773747 
L 92.337208 176.925293 
L 90.33466 181.759871 
L 89.651629 186.948012 
L 90.33466 192.136153 
L 92.337208 196.97073 
L 95.522801 201.122276 
L 99.674347 204.307869 
L 104.508925 206.310417 
L 109.697066 206.993449 
L 114.885206 206.310417 
L 119.719784 204.307869 
L 123.87133 201.122276 
L 127.056923 196.97073 
L 129.059471 192.136153 
L 129.742502 186.948012 
z
" clip-path="url(#p8e3dcd3d41)" style="fill: #3366e6; stroke: #262626; stroke-width: 1.5"/>
    <path d="M 202.490751 68.650835 
L 201.944326 64.500323 
L 200.342288 60.632661 
L 197.793813 57.311424 
L 194.472576 54.762949 
L 190.604914 53.160911 
L 186.454402 52.614486 
L 182.303889 53.160911 
L 178.436227 54.762949 
L 175.11499 57.311424 
L 172.566516 60.632661 
L 170.964478 64.500323 
L 170.418052 68.650835 
L 170.964478 72.801348 
L 172.566516 76.66901 
L 175.11499 79.990247 
L 178.436227 82.538721 
L 182.303889 84.140759 
L 186.454402 84.687185 
L 190.604914 84.140759 
L 194.472576 82.538721 
L 197.793813 79.990247 
L 200.342288 76.66901 
L 201.944326 72.801348 
L 202.490751 68.650835 
z
" clip-path="url(#p8e3dcd3d41)" style="fill: #e61a1a; stroke: #262626; stroke-width: 1.5"/>
    <path d="M 164.112083 108.527954 
L 163.565658 104.377441 
L 161.96362 100.509779 
L 159.415145 97.188542 
L 156.093908 94.640068 
L 152.226246 93.03803 
L 148.075734 92.491604 
L 143.925221 93.03803 
L 140.057559 94.640068 
L 136.736322 97.188542 
L 134.187848 100.509779 
L 132.585809 104.377441 
L 132.039384 108.527954 
L 132.585809 112.678466 
L 134.187848 116.546128 
L 136.736322 119.867365 
L 140.057559 122.41584 
L 143.925221 124.017878 
L 148.075734 124.564303 
L 152.226246 124.017878 
L 156.093908 122.41584 
L 159.415145 119.867365 
L 161.96362 116.546128 
L 163.565658 112.678466 
L 164.112083 108.527954 
z
" clip-path="url(#p8e3dcd3d41)" style="fill: #e61a1a; stroke: #262626; stroke-width: 1.5"/>
    <path d="M 125.733415 148.405072 
L 125.18699 144.254559 
L 123.584952 140.386897 
L 121.036477 137.065661 
L 117.71524 134.517186 
L 113.847578 132.915148 
L 109.697066 132.368723 
L 105.546553 132.915148 
L 101.678891 134.517186 
L 98.357654 137.065661 
L 95.809179 140.386897 
L 94.207141 144.254559 
L 93.660716 148.405072 
L 94.207141 152.555585 
L 95.809179 156.423247 
L 98.357654 159.744484 
L 101.678891 162.292958 
L 105.546553 163.894996 
L 109.697066 164.441422 
L 113.847578 163.894996 
L 117.71524 162.292958 
L 121.036477 159.744484 
L 123.584952 156.423247 
L 125.18699 152.555585 
L 125.733415 148.405072 
z
" clip-path="url(#p8e3dcd3d41)" style="fill: #e61a1a; stroke: #262626; stroke-width: 1.5"/>
    <path d="M 87.354747 188.28219 
L 86.808322 184.131678 
L 85.206283 180.264016 
L 82.657809 176.942779 
L 79.336572 174.394304 
L 75.46891 172.792266 
L 71.318397 172.245841 
L 67.167885 172.792266 
L 63.300223 174.394304 
L 59.978986 176.942779 
L 57.430511 180.264016 
L 55.828473 184.131678 
L 55.282048 188.28219 
L 55.828473 192.432703 
L 57.430511 196.300365 
L 59.978986 199.621602 
L 63.300223 202.170077 
L 67.167885 203.772115 
L 71.318397 204.31854 
L 75.46891 203.772115 
L 79.336572 202.170077 
L 82.657809 199.621602 
L 85.206283 196.300365 
L 86.808322 192.432703 
L 87.354747 188.28219 
z
" clip-path="url(#p8e3dcd3d41)" style="fill: #e61a1a; stroke: #262626; stroke-width: 1.5"/>
    <path d="M 129.742502 109.862132 
L 129.059471 104.673992 
L 127.056923 99.839414 
L 123.87133 95.687868 
L 119.719784 92.502275 
L 114.885206 90.499727 
L 109.697066 89.816696 
L 104.508925 90.499727 
L 99.674347 92.502275 
L 95.522801 95.687868 
L 92.337208 99.839414 
L 90.33466 104.673992 
L 89.651629 109.862132 
L 90.33466 115.050273 
L 92.337208 119.884851 
L 95.522801 124.036397 
L 99.674347 127.22199 
L 104.508925 129.224538 
L 109.697066 129.907569 
L 114.885206 129.224538 
L 119.719784 127.22199 
L 123.87133 124.036397 
L 127.056923 119.884851 
L 129.059471 115.050273 
L 129.742502 109.862132 
z
" clip-path="url(#p8e3dcd3d41)" style="fill: #3366e6; stroke: #262626; stroke-width: 1.5"/>
    <path d="M 125.733415 71.319193 
L 125.18699 67.16868 
L 123.584952 63.301018 
L 121.036477 59.979781 
L 117.71524 57.431307 
L 113.847578 55.829269 
L 109.697066 55.282843 
L 105.546553 55.829269 
L 101.678891 57.431307 
L 98.357654 59.979781 
L 95.809179 63.301018 
L 94.207141 67.16868 
L 93.660716 71.319193 
L 94.207141 75.469705 
L 95.809179 79.337367 
L 98.357654 82.658604 
L 101.678891 85.207079 
L 105.546553 86.809117 
L 109.697066 87.355542 
L 113.847578 86.809117 
L 117.71524 85.207079 
L 121.036477 82.658604 
L 123.584952 79.337367 
L 125.18699 75.469705 
L 125.733415 71.319193 
z
" clip-path="url(#p8e3dcd3d41)" style="fill: #e61a1a; stroke: #262626; stroke-width: 1.5"/>
    <path d="M 87.354747 111.196311 
L 86.808322 107.045798 
L 85.206283 103.178136 
L 82.657809 99.8569 
L 79.336572 97.308425 
L 75.46891 95.706387 
L 71.318397 95.159962 
L 67.167885 95.706387 
L 63.300223 97.308425 
L 59.978986 99.8569 
L 57.430511 103.178136 
L 55.828473 107.045798 
L 55.282048 111.196311 
L 55.828473 115.346824 
L 57.430511 119.214486 
L 59.978986 122.535723 
L 63.300223 125.084197 
L 67.167885 126.686235 
L 71.318397 127.232661 
L 75.46891 126.686235 
L 79.336572 125.084197 
L 82.657809 122.535723 
L 85.206283 119.214486 
L 86.808322 115.346824 
L 87.354747 111.196311 
z
" clip-path="url(#p8e3dcd3d41)" style="fill: #e61a1a; stroke: #262626; stroke-width: 1.5"/>
    <path d="M 210.166485 190.950548 
L 209.620059 186.800035 
L 208.018021 182.932373 
L 205.469547 179.611136 
L 202.14831 177.062662 
L 198.280648 175.460624 
L 194.130135 174.914198 
L 189.979623 175.460624 
L 186.111961 177.062662 
L 182.790724 179.611136 
L 180.242249 182.932373 
L 178.640211 186.800035 
L 178.093786 190.950548 
L 178.640211 195.10106 
L 180.242249 198.968723 
L 182.790724 202.289959 
L 186.111961 204.838434 
L 189.979623 206.440472 
L 194.130135 206.986897 
L 198.280648 206.440472 
L 202.14831 204.838434 
L 205.469547 202.289959 
L 208.018021 198.968723 
L 209.620059 195.10106 
L 210.166485 190.950548 
z
" clip-path="url(#p8e3dcd3d41)" style="fill: #e61a1a; stroke: #262626; stroke-width: 1.5"/>
    <path d="M 210.166485 113.864668 
L 209.620059 109.714156 
L 208.018021 105.846494 
L 205.469547 102.525257 
L 202.14831 99.976782 
L 198.280648 98.374744 
L 194.130135 97.828319 
L 189.979623 98.374744 
L 186.111961 99.976782 
L 182.790724 102.525257 
L 180.242249 105.846494 
L 178.640211 109.714156 
L 178.093786 113.864668 
L 178.640211 118.015181 
L 180.242249 121.882843 
L 182.790724 125.20408 
L 186.111961 127.752554 
L 189.979623 129.354593 
L 194.130135 129.901018 
L 198.280648 129.354593 
L 202.14831 127.752554 
L 205.469547 125.20408 
L 208.018021 121.882843 
L 209.620059 118.015181 
L 210.166485 113.864668 
z
" clip-path="url(#p8e3dcd3d41)" style="fill: #e61a1a; stroke: #262626; stroke-width: 1.5"/>
    <path d="M 133.409149 193.618905 
L 132.862723 189.468393 
L 131.260685 185.60073 
L 128.712211 182.279494 
L 125.390974 179.731019 
L 121.523312 178.128981 
L 117.372799 177.582556 
L 113.222286 178.128981 
L 109.354624 179.731019 
L 106.033388 182.279494 
L 103.484913 185.60073 
L 101.882875 189.468393 
L 101.33645 193.618905 
L 101.882875 197.769418 
L 103.484913 201.63708 
L 106.033388 204.958317 
L 109.354624 207.506791 
L 113.222286 209.108829 
L 117.372799 209.655255 
L 121.523312 209.108829 
L 125.390974 207.506791 
L 128.712211 204.958317 
L 131.260685 201.63708 
L 132.862723 197.769418 
L 133.409149 193.618905 
z
" clip-path="url(#p8e3dcd3d41)" style="fill: #e61a1a; stroke: #262626; stroke-width: 1.5"/>
    <path d="M 133.409149 116.533026 
L 132.862723 112.382513 
L 131.260685 108.514851 
L 128.712211 105.193614 
L 125.390974 102.64514 
L 121.523312 101.043102 
L 117.372799 100.496676 
L 113.222286 101.043102 
L 109.354624 102.64514 
L 106.033388 105.193614 
L 103.484913 108.514851 
L 101.882875 112.382513 
L 101.33645 116.533026 
L 101.882875 120.683538 
L 103.484913 124.551201 
L 106.033388 127.872437 
L 109.354624 130.420912 
L 113.222286 132.02295 
L 117.372799 132.569375 
L 121.523312 132.02295 
L 125.390974 130.420912 
L 128.712211 127.872437 
L 131.260685 124.551201 
L 132.862723 120.683538 
L 133.409149 116.533026 
z
" clip-path="url(#p8e3dcd3d41)" style="fill: #e61a1a; stroke: #262626; stroke-width: 1.5"/>
   </g>
  </g>
 </g>
 <defs>
  <clipPath id="p8e3dcd3d41">
   <rect x="7.2" y="7.2" width="266.4" height="266.4"/>
  </clipPath>
 </defs>
</svg>
