<?xml version="1.0" encoding="utf-8" standalone="no"?>
<!DOCTYPE svg PUBLIC "-//W3C//DTD SVG 1.1//EN"
  "http://www.w3.org/Graphics/SVG/1.1/DTD/svg11.dtd">
<svg xmlns:xlink="http://www.w3.org/1999/xlink" width="280.8pt" height="280.8pt" viewBox="0 0 280.8 280.8" xmlns="http://www.w3.org/2000/svg" version="1.1">
 <metadata>
  <rdf:RDF xmlns:dc="http://purl.org/dc/elements/1.1/" xmlns:cc="http://creativecommons.org/ns#" xmlns:rdf="http://www.w3.org/1999/02/22-rdf-syntax-ns#">
   <cc:Work>
    <dc:type rdf:resource="http://purl.org/dc/dcmitype/StillImage"/>
    <dc:date>2026-02-15T20:54:03.534043</dc:date>
    <dc:format>image/svg+xml</dc:format>
    <dc:creator>
     <cc:Agent>
      <dc:title>Matplotlib v3.10.7, https://matplotlib.org/</dc:title>
     </cc:Agent>
    </dc:creator>
   </cc:Work>
  </rdf:RDF>
 </metadata>
 <defs>
  <style type="text/css">*{stroke-linejoin: round; stroke-linecap: butt}</style>
 </defs>
 <g id="figure_1">
  <g id="patch_1">
   <path d="M 0 280.8 
L 280.8 280.8 
L 280.8 0 
L 0 0 
z
" style="fill: #ffffff"/>
  </g>
  <g id="axes_1">
   <g id="PolyCollection_1">
    <path d="M 192.117194 163.837738 
L 191.333081 157.881808 
L 189.034178 152.331766 
L 185.377152 147.565836 
L 180.611222 143.908809 
L 175.061179 141.609906 
L 169.105249 140.825793 
L 163.14932 141.609906 
L 157.599277 143.908809 
L 152.833347 147.565836 
L 149.176321 152.331766 
L 146.877418 157.881808 
L 146.093305 163.837738 
L 146.877418 169.793668 
L 149.176321 175.34371 
L 152.833347 180.10964 
L 157.599277 183.766667 
L 163.14932 186.06557 
L 169.105249 186.849683 
L 175.061179 186.06557 
L 180.611222 183.766667 
L 185.377152 180.10964 
L 189.034178 175.34371 
L 191.333081 169.793668 
L 192.117194 163.837738 
z
" clip-path="url(#p2db5108421)" style="fill: #00cc33; stroke: #262626; stroke-width: 1.5"/>
    <path d="M 134.706695 175.556607 
L 133.922582 169.600677 
L 131.623679 164.050635 
L 127.966653 159.284705 
L 123.200723 155.627678 
L 117.65068 153.328775 
L 111.694751 152.544662 
L 105.738821 153.328775 
L 100.188778 155.627678 
L 95.422848 159.284705 
L 91.765822 164.050635 
L 89.466919 169.600677 
L 88.682806 175.556607 
L 89.466919 181.512536 
L 91.765822 187.062579 
L 95.422848 191.828509 
L 100.188778 195.485536 
L 105.738821 197.784439 
L 111.694751 198.568552 
L 117.65068 197.784439 
L 123.200723 195.485536 
L 127.966653 191.828509 
L 131.623679 187.062579 
L 133.922582 181.512536 
L 134.706695 175.556607 
z
" clip-path="url(#p2db5108421)" style="fill: #00cc33; stroke: #262626; stroke-width: 1.5"/>
    <path d="M 192.117194 105.243393 
L 191.333081 99.287464 
L 189.034178 93.737421 
L 185.377152 88.971491 
L 180.611222 85.314464 
L 175.061179 83.015561 
L 169.105249 82.231448 
L 163.14932 83.015561 
L 157.599277 85.314464 
L 152.833347 88.971491 
L 149.176321 93.737421 
L 146.877418 99.287464 
L 146.093305 105.243393 
L 146.877418 111.199323 
L 149.176321 116.749365 
L 152.833347 121.515295 
L 157.599277 125.172322 
L 163.14932 127.471225 
L 169.105249 128.255338 
L 175.061179 127.471225 
L 180.611222 125.172322 
L 185.377152 121.515295 
L 189.034178 116.749365 
L 191.333081 111.199323 
L 192.117194 105.243393 
z
" clip-path="url(#p2db5108421)" style="fill: #00cc33; stroke: #262626; stroke-width: 1.5"/>
    <path d="M 153.549683 140.4 
L 153.101618 136.996612 
L 151.787959 133.825159 
L 149.69823 131.10177 
L 146.974841 129.012041 
L 143.803388 127.698382 
L 140.4 127.250317 
L 136.996612 127.698382 
L 133.825159 129.012041 
L 131.10177 131.10177 
L 129.012041 133.825159 
L 127.698382 136.996612 
L 127.250317 140.4 
L 127.698382 143.803388 
L 129.012041 146.974841 
L 131.10177 149.69823 
L 133.825159 151.787959 
L 136.996612 153.101618 
L 140.4 153.549683 
L 143.803388 153.101618 
L 146.974841 151.787959 
L 149.69823 149.69823 
L 151.787959 146.974841 
L 153.101618 143.803388 
L 153.549683 140.4 
z
" clip-path="url(#p2db5108421)" style="fill: #e61a1a; stroke: #262626; stroke-width: 1.5"/>
    <path d="M 196.607557 146.259434 
L 196.159492 142.856046 
L 194.845833 139.684593 
L 192.756104 136.961205 
L 190.032715 134.871475 
L 186.861262 133.557816 
L 183.457874 133.109752 
L 180.054486 133.557816 
L 176.883033 134.871475 
L 174.159644 136.961205 
L 172.069915 139.684593 
L 170.756256 142.856046 
L 170.308191 146.259434 
L 170.756256 149.662823 
L 172.069915 152.834276 
L 174.159644 155.557664 
L 176.883033 157.647394 
L 180.054486 158.961053 
L 183.457874 159.409117 
L 186.861262 158.961053 
L 190.032715 157.647394 
L 192.756104 155.557664 
L 194.845833 152.834276 
L 196.159492 149.662823 
L 196.607557 146.259434 
z
" clip-path="url(#p2db5108421)" style="fill: #e61a1a; stroke: #262626; stroke-width: 1.5"/>
    <path d="M 167.902307 181.416041 
L 167.454243 178.012653 
L 166.140584 174.8412 
L 164.050855 172.117812 
L 161.327466 170.028082 
L 158.156013 168.714423 
L 154.752625 168.266359 
L 151.349236 168.714423 
L 148.177783 170.028082 
L 145.454395 172.117812 
L 143.364665 174.8412 
L 142.051007 178.012653 
L 141.602942 181.416041 
L 142.051007 184.81943 
L 143.364665 187.990883 
L 145.454395 190.714271 
L 148.177783 192.804001 
L 151.349236 194.11766 
L 154.752625 194.565724 
L 158.156013 194.11766 
L 161.327466 192.804001 
L 164.050855 190.714271 
L 166.140584 187.990883 
L 167.454243 184.81943 
L 167.902307 181.416041 
z
" clip-path="url(#p2db5108421)" style="fill: #e61a1a; stroke: #262626; stroke-width: 1.5"/>
    <path d="M 77.296197 187.275476 
L 76.512084 181.319546 
L 74.213181 175.769504 
L 70.556154 171.003574 
L 65.790224 167.346547 
L 60.240182 165.047644 
L 54.284252 164.263531 
L 48.328322 165.047644 
L 42.77828 167.346547 
L 38.01235 171.003574 
L 34.355323 175.769504 
L 32.05642 181.319546 
L 31.272307 187.275476 
L 32.05642 193.231405 
L 34.355323 198.781448 
L 38.01235 203.547378 
L 42.77828 207.204405 
L 48.328322 209.503308 
L 54.284252 210.287421 
L 60.240182 209.503308 
L 65.790224 207.204405 
L 70.556154 203.547378 
L 74.213181 198.781448 
L 76.512084 193.231405 
L 77.296197 187.275476 
z
" clip-path="url(#p2db5108421)" style="fill: #00cc33; stroke: #262626; stroke-width: 1.5"/>
    <path d="M 134.706695 116.962262 
L 133.922582 111.006332 
L 131.623679 105.45629 
L 127.966653 100.69036 
L 123.200723 97.033333 
L 117.65068 94.73443 
L 111.694751 93.950317 
L 105.738821 94.73443 
L 100.188778 97.033333 
L 95.422848 100.69036 
L 91.765822 105.45629 
L 89.466919 111.006332 
L 88.682806 116.962262 
L 89.466919 122.918192 
L 91.765822 128.468234 
L 95.422848 133.234164 
L 100.188778 136.891191 
L 105.738821 139.190094 
L 111.694751 139.974207 
L 117.65068 139.190094 
L 123.200723 136.891191 
L 127.966653 133.234164 
L 131.623679 128.468234 
L 133.922582 122.918192 
L 134.706695 116.962262 
z
" clip-path="url(#p2db5108421)" style="fill: #00cc33; stroke: #262626; stroke-width: 1.5"/>
    <path d="M 192.117194 46.649048 
L 191.333081 40.693119 
L 189.034178 35.143076 
L 185.377152 30.377146 
L 180.611222 26.720119 
L 175.061179 24.421216 
L 169.105249 23.637103 
L 163.14932 24.421216 
L 157.599277 26.720119 
L 152.833347 30.377146 
L 149.176321 35.143076 
L 146.877418 40.693119 
L 146.093305 46.649048 
L 146.877418 52.604978 
L 149.176321 58.155021 
L 152.833347 62.92095 
L 157.599277 66.577977 
L 163.14932 68.87688 
L 169.105249 69.660993 
L 175.061179 68.87688 
L 180.611222 66.577977 
L 185.377152 62.92095 
L 189.034178 58.155021 
L 191.333081 52.604978 
L 192.117194 46.649048 
z
" clip-path="url(#p2db5108421)" style="fill: #00cc33; stroke: #262626; stroke-width: 1.5"/>
    <path d="M 153.549683 81.805655 
L 153.101618 78.402267 
L 151.787959 75.230814 
L 149.69823 72.507425 
L 146.974841 70.417696 
L 143.803388 69.104037 
L 140.4 68.655972 
L 136.996612 69.104037 
L 133.825159 70.417696 
L 131.10177 72.507425 
L 129.012041 75.230814 
L 127.698382 78.402267 
L 127.250317 81.805655 
L 127.698382 85.209043 
L 129.012041 88.380496 
L 131.10177 91.103885 
L 133.825159 93.193614 
L 136.996612 94.507273 
L 140.4 94.955338 
L 143.803388 94.507273 
L 146.974841 93.193614 
L 149.69823 91.103885 
L 151.787959 88.380496 
L 153.101618 85.209043 
L 153.549683 81.805655 
z
" clip-path="url(#p2db5108421)" style="fill: #e61a1a; stroke: #262626; stroke-width: 1.5"/>
    <path d="M 96.139184 152.118869 
L 95.691119 148.715481 
L 94.377461 145.544028 
L 92.287731 142.820639 
L 89.564343 140.73091 
L 86.39289 139.417251 
L 82.989501 138.969186 
L 79.586113 139.417251 
L 76.41466 140.73091 
L 73.691271 142.820639 
L 71.601542 145.544028 
L 70.287883 148.715481 
L 69.839819 152.118869 
L 70.287883 155.522257 
L 71.601542 158.69371 
L 73.691271 161.417099 
L 76.41466 163.506828 
L 79.586113 164.820487 
L 82.989501 165.268552 
L 86.39289 164.820487 
L 89.564343 163.506828 
L 92.287731 161.417099 
L 94.377461 158.69371 
L 95.691119 155.522257 
L 96.139184 152.118869 
z
" clip-path="url(#p2db5108421)" style="fill: #e61a1a; stroke: #262626; stroke-width: 1.5"/>
    <path d="M 171.189728 152.118869 
L 170.629647 147.864634 
L 168.987574 143.900317 
L 166.375412 140.496082 
L 162.971176 137.88392 
L 159.00686 136.241846 
L 154.752625 135.681766 
L 150.498389 136.241846 
L 146.534073 137.88392 
L 143.129837 140.496082 
L 140.517676 143.900317 
L 138.875602 147.864634 
L 138.315521 152.118869 
L 138.875602 156.373104 
L 140.517676 160.337421 
L 143.129837 163.741656 
L 146.534073 166.353818 
L 150.498389 167.995892 
L 154.752625 168.555972 
L 159.00686 167.995892 
L 162.971176 166.353818 
L 166.375412 163.741656 
L 168.987574 160.337421 
L 170.629647 156.373104 
L 171.189728 152.118869 
z
" clip-path="url(#p2db5108421)" style="fill: #3366e6; stroke: #262626; stroke-width: 1.5"/>
    <path d="M 220.822443 187.275476 
L 220.03833 181.319546 
L 217.739427 175.769504 
L 214.082401 171.003574 
L 209.316471 167.346547 
L 203.766428 165.047644 
L 197.810499 164.263531 
L 191.854569 165.047644 
L 186.304526 167.346547 
L 181.538596 171.003574 
L 177.88157 175.769504 
L 175.582667 181.319546 
L 174.798554 187.275476 
L 175.582667 193.231405 
L 177.88157 198.781448 
L 181.538596 203.547378 
L 186.304526 207.204405 
L 191.854569 209.503308 
L 197.810499 210.287421 
L 203.766428 209.503308 
L 209.316471 207.204405 
L 214.082401 203.547378 
L 217.739427 198.781448 
L 220.03833 193.231405 
L 220.822443 187.275476 
z
" clip-path="url(#p2db5108421)" style="fill: #00cc33; stroke: #262626; stroke-width: 1.5"/>
    <path d="M 110.491809 193.13491 
L 110.043744 189.731522 
L 108.730085 186.560069 
L 106.640356 183.836681 
L 103.916967 181.746951 
L 100.745514 180.433292 
L 97.342126 179.985228 
L 93.938738 180.433292 
L 90.767285 181.746951 
L 88.043896 183.836681 
L 85.954167 186.560069 
L 84.640508 189.731522 
L 84.192443 193.13491 
L 84.640508 196.538299 
L 85.954167 199.709752 
L 88.043896 202.43314 
L 90.767285 204.52287 
L 93.938738 205.836529 
L 97.342126 206.284593 
L 100.745514 205.836529 
L 103.916967 204.52287 
L 106.640356 202.43314 
L 108.730085 199.709752 
L 110.043744 196.538299 
L 110.491809 193.13491 
z
" clip-path="url(#p2db5108421)" style="fill: #e61a1a; stroke: #262626; stroke-width: 1.5"/>
    <path d="M 196.607557 87.66509 
L 196.159492 84.261701 
L 194.845833 81.090248 
L 192.756104 78.36686 
L 190.032715 76.27713 
L 186.861262 74.963471 
L 183.457874 74.515407 
L 180.054486 74.963471 
L 176.883033 76.27713 
L 174.159644 78.36686 
L 172.069915 81.090248 
L 170.756256 84.261701 
L 170.308191 87.66509 
L 170.756256 91.068478 
L 172.069915 94.239931 
L 174.159644 96.963319 
L 176.883033 99.053049 
L 180.054486 100.366708 
L 183.457874 100.814772 
L 186.861262 100.366708 
L 190.032715 99.053049 
L 192.756104 96.963319 
L 194.845833 94.239931 
L 196.159492 91.068478 
L 196.607557 87.66509 
z
" clip-path="url(#p2db5108421)" style="fill: #e61a1a; stroke: #262626; stroke-width: 1.5"/>
    <path d="M 167.902307 122.821697 
L 167.454243 119.418308 
L 166.140584 116.246855 
L 164.050855 113.523467 
L 161.327466 111.433737 
L 158.156013 110.120078 
L 154.752625 109.672014 
L 151.349236 110.120078 
L 148.177783 111.433737 
L 145.454395 113.523467 
L 143.364665 116.246855 
L 142.051007 119.418308 
L 141.602942 122.821697 
L 142.051007 126.225085 
L 143.364665 129.396538 
L 145.454395 132.119926 
L 148.177783 134.209656 
L 151.349236 135.523315 
L 154.752625 135.971379 
L 158.156013 135.523315 
L 161.327466 134.209656 
L 164.050855 132.119926 
L 166.140584 129.396538 
L 167.454243 126.225085 
L 167.902307 122.821697 
z
" clip-path="url(#p2db5108421)" style="fill: #e61a1a; stroke: #262626; stroke-width: 1.5"/>
    <path d="M 139.197058 157.978303 
L 138.748993 154.574915 
L 137.435335 151.403462 
L 135.345605 148.680074 
L 132.622217 146.590344 
L 129.450764 145.276685 
L 126.047375 144.828621 
L 122.643987 145.276685 
L 119.472534 146.590344 
L 116.749145 148.680074 
L 114.659416 151.403462 
L 113.345757 154.574915 
L 112.897693 157.978303 
L 113.345757 161.381692 
L 114.659416 164.553145 
L 116.749145 167.276533 
L 119.472534 169.366263 
L 122.643987 170.679922 
L 126.047375 171.127986 
L 129.450764 170.679922 
L 132.622217 169.366263 
L 135.345605 167.276533 
L 137.435335 164.553145 
L 138.748993 161.381692 
L 139.197058 157.978303 
z
" clip-path="url(#p2db5108421)" style="fill: #e61a1a; stroke: #262626; stroke-width: 1.5"/>
    <path d="M 113.779229 163.837738 
L 113.219149 159.583503 
L 111.577075 155.619186 
L 108.964913 152.214951 
L 105.560678 149.602789 
L 101.596361 147.960715 
L 97.342126 147.400635 
L 93.087891 147.960715 
L 89.123574 149.602789 
L 85.719339 152.214951 
L 83.107177 155.619186 
L 81.465103 159.583503 
L 80.905023 163.837738 
L 81.465103 168.091973 
L 83.107177 172.05629 
L 85.719339 175.460525 
L 89.123574 178.072687 
L 93.087891 179.714761 
L 97.342126 180.274841 
L 101.596361 179.714761 
L 105.560678 178.072687 
L 108.964913 175.460525 
L 111.577075 172.05629 
L 113.219149 168.091973 
L 113.779229 163.837738 
z
" clip-path="url(#p2db5108421)" style="fill: #3366e6; stroke: #262626; stroke-width: 1.5"/>
    <path d="M 77.296197 128.681131 
L 76.512084 122.725201 
L 74.213181 117.175159 
L 70.556154 112.409229 
L 65.790224 108.752202 
L 60.240182 106.453299 
L 54.284252 105.669186 
L 48.328322 106.453299 
L 42.77828 108.752202 
L 38.01235 112.409229 
L 34.355323 117.175159 
L 32.05642 122.725201 
L 31.272307 128.681131 
L 32.05642 134.637061 
L 34.355323 140.187103 
L 38.01235 144.953033 
L 42.77828 148.61006 
L 48.328322 150.908963 
L 54.284252 151.693076 
L 60.240182 150.908963 
L 65.790224 148.61006 
L 70.556154 144.953033 
L 74.213181 140.187103 
L 76.512084 134.637061 
L 77.296197 128.681131 
z
" clip-path="url(#p2db5108421)" style="fill: #00cc33; stroke: #262626; stroke-width: 1.5"/>
    <path d="M 163.411945 198.994345 
L 162.627832 193.038415 
L 160.328929 187.488372 
L 156.671902 182.722443 
L 151.905972 179.065416 
L 146.35593 176.766513 
L 140.4 175.9824 
L 134.44407 176.766513 
L 128.894028 179.065416 
L 124.128098 182.722443 
L 120.471071 187.488372 
L 118.172168 193.038415 
L 117.388055 198.994345 
L 118.172168 204.950274 
L 120.471071 210.500317 
L 124.128098 215.266247 
L 128.894028 218.923274 
L 134.44407 221.222177 
L 140.4 222.00629 
L 146.35593 221.222177 
L 151.905972 218.923274 
L 156.671902 215.266247 
L 160.328929 210.500317 
L 162.627832 204.950274 
L 163.411945 198.994345 
z
" clip-path="url(#p2db5108421)" style="fill: #00cc33; stroke: #262626; stroke-width: 1.5"/>
    <path d="M 171.189728 93.524524 
L 170.629647 89.270289 
L 168.987574 85.305972 
L 166.375412 81.901737 
L 162.971176 79.289575 
L 159.00686 77.647501 
L 154.752625 77.087421 
L 150.498389 77.647501 
L 146.534073 79.289575 
L 143.129837 81.901737 
L 140.517676 85.305972 
L 138.875602 89.270289 
L 138.315521 93.524524 
L 138.875602 97.77876 
L 140.517676 101.743076 
L 143.129837 105.147311 
L 146.534073 107.759473 
L 150.498389 109.401547 
L 154.752625 109.961628 
L 159.00686 109.401547 
L 162.971176 107.759473 
L 166.375412 105.147311 
L 168.987574 101.743076 
L 170.629647 97.77876 
L 171.189728 93.524524 
z
" clip-path="url(#p2db5108421)" style="fill: #3366e6; stroke: #262626; stroke-width: 1.5"/>
    <path d="M 220.822443 128.681131 
L 220.03833 122.725201 
L 217.739427 117.175159 
L 214.082401 112.409229 
L 209.316471 108.752202 
L 203.766428 106.453299 
L 197.810499 105.669186 
L 191.854569 106.453299 
L 186.304526 108.752202 
L 181.538596 112.409229 
L 177.88157 117.175159 
L 175.582667 122.725201 
L 174.798554 128.681131 
L 175.582667 134.637061 
L 177.88157 140.187103 
L 181.538596 144.953033 
L 186.304526 148.61006 
L 191.854569 150.908963 
L 197.810499 151.693076 
L 203.766428 150.908963 
L 209.316471 148.61006 
L 214.082401 144.953033 
L 217.739427 140.187103 
L 220.03833 134.637061 
L 220.822443 128.681131 
z
" clip-path="url(#p2db5108421)" style="fill: #00cc33; stroke: #262626; stroke-width: 1.5"/>
    <path d="M 96.139184 93.524524 
L 95.691119 90.121136 
L 94.377461 86.949683 
L 92.287731 84.226294 
L 89.564343 82.136565 
L 86.39289 80.822906 
L 82.989501 80.374841 
L 79.586113 80.822906 
L 76.41466 82.136565 
L 73.691271 84.226294 
L 71.601542 86.949683 
L 70.287883 90.121136 
L 69.839819 93.524524 
L 70.287883 96.927912 
L 71.601542 100.099365 
L 73.691271 102.822754 
L 76.41466 104.912483 
L 79.586113 106.226142 
L 82.989501 106.674207 
L 86.39289 106.226142 
L 89.564343 104.912483 
L 92.287731 102.822754 
L 94.377461 100.099365 
L 95.691119 96.927912 
L 96.139184 93.524524 
z
" clip-path="url(#p2db5108421)" style="fill: #e61a1a; stroke: #262626; stroke-width: 1.5"/>
    <path d="M 182.254932 163.837738 
L 181.806868 160.43435 
L 180.493209 157.262897 
L 178.403479 154.539508 
L 175.680091 152.449779 
L 172.508638 151.13612 
L 169.105249 150.688055 
L 165.701861 151.13612 
L 162.530408 152.449779 
L 159.80702 154.539508 
L 157.71729 157.262897 
L 156.403631 160.43435 
L 155.955567 163.837738 
L 156.403631 167.241126 
L 157.71729 170.412579 
L 159.80702 173.135968 
L 162.530408 175.225697 
L 165.701861 176.539356 
L 169.105249 176.987421 
L 172.508638 176.539356 
L 175.680091 175.225697 
L 178.403479 173.135968 
L 180.493209 170.412579 
L 181.806868 167.241126 
L 182.254932 163.837738 
z
" clip-path="url(#p2db5108421)" style="fill: #e61a1a; stroke: #262626; stroke-width: 1.5"/>
    <path d="M 134.706695 58.367917 
L 133.922582 52.411988 
L 131.623679 46.861945 
L 127.966653 42.096015 
L 123.200723 38.438988 
L 117.65068 36.140085 
L 111.694751 35.355972 
L 105.738821 36.140085 
L 100.188778 38.438988 
L 95.422848 42.096015 
L 91.765822 46.861945 
L 89.466919 52.411988 
L 88.682806 58.367917 
L 89.466919 64.323847 
L 91.765822 69.87389 
L 95.422848 74.639819 
L 100.188778 78.296846 
L 105.738821 80.595749 
L 111.694751 81.379862 
L 117.65068 80.595749 
L 123.200723 78.296846 
L 127.966653 74.639819 
L 131.623679 69.87389 
L 133.922582 64.323847 
L 134.706695 58.367917 
z
" clip-path="url(#p2db5108421)" style="fill: #00cc33; stroke: #262626; stroke-width: 1.5"/>
    <path d="M 139.197058 99.383959 
L 138.748993 95.98057 
L 137.435335 92.809117 
L 135.345605 90.085729 
L 132.622217 87.995999 
L 129.450764 86.68234 
L 126.047375 86.234276 
L 122.643987 86.68234 
L 119.472534 87.995999 
L 116.749145 90.085729 
L 114.659416 92.809117 
L 113.345757 95.98057 
L 112.897693 99.383959 
L 113.345757 102.787347 
L 114.659416 105.9588 
L 116.749145 108.682188 
L 119.472534 110.771918 
L 122.643987 112.085577 
L 126.047375 112.533641 
L 129.450764 112.085577 
L 132.622217 110.771918 
L 135.345605 108.682188 
L 137.435335 105.9588 
L 138.748993 102.787347 
L 139.197058 99.383959 
z
" clip-path="url(#p2db5108421)" style="fill: #e61a1a; stroke: #262626; stroke-width: 1.5"/>
    <path d="M 110.491809 134.540566 
L 110.043744 131.137177 
L 108.730085 127.965724 
L 106.640356 125.242336 
L 103.916967 123.152606 
L 100.745514 121.838947 
L 97.342126 121.390883 
L 93.938738 121.838947 
L 90.767285 123.152606 
L 88.043896 125.242336 
L 85.954167 127.965724 
L 84.640508 131.137177 
L 84.192443 134.540566 
L 84.640508 137.943954 
L 85.954167 141.115407 
L 88.043896 143.838795 
L 90.767285 145.928525 
L 93.938738 147.242184 
L 97.342126 147.690248 
L 100.745514 147.242184 
L 103.916967 145.928525 
L 106.640356 143.838795 
L 108.730085 141.115407 
L 110.043744 137.943954 
L 110.491809 134.540566 
z
" clip-path="url(#p2db5108421)" style="fill: #e61a1a; stroke: #262626; stroke-width: 1.5"/>
    <path d="M 196.607557 204.853779 
L 196.159492 201.450391 
L 194.845833 198.278938 
L 192.756104 195.55555 
L 190.032715 193.46582 
L 186.861262 192.152161 
L 183.457874 191.704097 
L 180.054486 192.152161 
L 176.883033 193.46582 
L 174.159644 195.55555 
L 172.069915 198.278938 
L 170.756256 201.450391 
L 170.308191 204.853779 
L 170.756256 208.257168 
L 172.069915 211.428621 
L 174.159644 214.152009 
L 176.883033 216.241739 
L 180.054486 217.555398 
L 183.457874 218.003462 
L 186.861262 217.555398 
L 190.032715 216.241739 
L 192.756104 214.152009 
L 194.845833 211.428621 
L 196.159492 208.257168 
L 196.607557 204.853779 
z
" clip-path="url(#p2db5108421)" style="fill: #e61a1a; stroke: #262626; stroke-width: 1.5"/>
    <path d="M 81.786559 169.697172 
L 81.338495 166.293784 
L 80.024836 163.122331 
L 77.935106 160.398943 
L 75.211718 158.309213 
L 72.040265 156.995554 
L 68.636877 156.54749 
L 65.233488 156.995554 
L 62.062035 158.309213 
L 59.338647 160.398943 
L 57.248917 163.122331 
L 55.935258 166.293784 
L 55.487194 169.697172 
L 55.935258 173.100561 
L 57.248917 176.272014 
L 59.338647 178.995402 
L 62.062035 181.085132 
L 65.233488 182.398791 
L 68.636877 182.846855 
L 72.040265 182.398791 
L 75.211718 181.085132 
L 77.935106 178.995402 
L 80.024836 176.272014 
L 81.338495 173.100561 
L 81.786559 169.697172 
z
" clip-path="url(#p2db5108421)" style="fill: #e61a1a; stroke: #262626; stroke-width: 1.5"/>
    <path d="M 167.902307 64.227352 
L 167.454243 60.823963 
L 166.140584 57.65251 
L 164.050855 54.929122 
L 161.327466 52.839392 
L 158.156013 51.525734 
L 154.752625 51.077669 
L 151.349236 51.525734 
L 148.177783 52.839392 
L 145.454395 54.929122 
L 143.364665 57.65251 
L 142.051007 60.823963 
L 141.602942 64.227352 
L 142.051007 67.63074 
L 143.364665 70.802193 
L 145.454395 73.525582 
L 148.177783 75.615311 
L 151.349236 76.92897 
L 154.752625 77.377034 
L 158.156013 76.92897 
L 161.327466 75.615311 
L 164.050855 73.525582 
L 166.140584 70.802193 
L 167.454243 67.63074 
L 167.902307 64.227352 
z
" clip-path="url(#p2db5108421)" style="fill: #e61a1a; stroke: #262626; stroke-width: 1.5"/>
    <path d="M 225.312806 169.697172 
L 224.864742 166.293784 
L 223.551083 163.122331 
L 221.461353 160.398943 
L 218.737965 158.309213 
L 215.566512 156.995554 
L 212.163123 156.54749 
L 208.759735 156.995554 
L 205.588282 158.309213 
L 202.864894 160.398943 
L 200.775164 163.122331 
L 199.461505 166.293784 
L 199.013441 169.697172 
L 199.461505 173.100561 
L 200.775164 176.272014 
L 202.864894 178.995402 
L 205.588282 181.085132 
L 208.759735 182.398791 
L 212.163123 182.846855 
L 215.566512 182.398791 
L 218.737965 181.085132 
L 221.461353 178.995402 
L 223.551083 176.272014 
L 224.864742 173.100561 
L 225.312806 169.697172 
z
" clip-path="url(#p2db5108421)" style="fill: #e61a1a; stroke: #262626; stroke-width: 1.5"/>
    <path d="M 113.779229 105.243393 
L 113.219149 100.989158 
L 111.577075 97.024841 
L 108.964913 93.620606 
L 105.560678 91.008444 
L 101.596361 89.36637 
L 97.342126 88.80629 
L 93.087891 89.36637 
L 89.123574 91.008444 
L 85.719339 93.620606 
L 83.107177 97.024841 
L 81.465103 100.989158 
L 80.905023 105.243393 
L 81.465103 109.497628 
L 83.107177 113.461945 
L 85.719339 116.86618 
L 89.123574 119.478342 
L 93.087891 121.120416 
L 97.342126 121.680496 
L 101.596361 121.120416 
L 105.560678 119.478342 
L 108.964913 116.86618 
L 111.577075 113.461945 
L 113.219149 109.497628 
L 113.779229 105.243393 
z
" clip-path="url(#p2db5108421)" style="fill: #3366e6; stroke: #262626; stroke-width: 1.5"/>
    <path d="M 163.411945 140.4 
L 162.627832 134.44407 
L 160.328929 128.894028 
L 156.671902 124.128098 
L 151.905972 120.471071 
L 146.35593 118.172168 
L 140.4 117.388055 
L 134.44407 118.172168 
L 128.894028 120.471071 
L 124.128098 124.128098 
L 120.471071 128.894028 
L 118.172168 134.44407 
L 117.388055 140.4 
L 118.172168 146.35593 
L 120.471071 151.905972 
L 124.128098 156.671902 
L 128.894028 160.328929 
L 134.44407 162.627832 
L 140.4 163.411945 
L 146.35593 162.627832 
L 151.905972 160.328929 
L 156.671902 156.671902 
L 160.328929 151.905972 
L 162.627832 146.35593 
L 163.411945 140.4 
z
" clip-path="url(#p2db5108421)" style="fill: #00cc33; stroke: #262626; stroke-width: 1.5"/>
    <path d="M 124.844433 175.556607 
L 124.396369 172.153219 
L 123.08271 168.981766 
L 120.99298 166.258377 
L 118.269592 164.168648 
L 115.098139 162.854989 
L 111.694751 162.406924 
L 108.291362 162.854989 
L 105.119909 164.168648 
L 102.396521 166.258377 
L 100.306791 168.981766 
L 98.993132 172.153219 
L 98.545068 175.556607 
L 98.993132 178.959995 
L 100.306791 182.131448 
L 102.396521 184.854837 
L 105.119909 186.944566 
L 108.291362 188.258225 
L 111.694751 188.70629 
L 115.098139 188.258225 
L 118.269592 186.944566 
L 120.99298 184.854837 
L 123.08271 182.131448 
L 124.396369 178.959995 
L 124.844433 175.556607 
z
" clip-path="url(#p2db5108421)" style="fill: #e61a1a; stroke: #262626; stroke-width: 1.5"/>
    <path d="M 199.894977 175.556607 
L 199.334897 171.302372 
L 197.692823 167.338055 
L 195.080661 163.93382 
L 191.676426 161.321658 
L 187.712109 159.679584 
L 183.457874 159.119504 
L 179.203639 159.679584 
L 175.239322 161.321658 
L 171.835087 163.93382 
L 169.222925 167.338055 
L 167.580851 171.302372 
L 167.020771 175.556607 
L 167.580851 179.810842 
L 169.222925 183.775159 
L 171.835087 187.179394 
L 175.239322 189.791556 
L 179.203639 191.43363 
L 183.457874 191.99371 
L 187.712109 191.43363 
L 191.676426 189.791556 
L 195.080661 187.179394 
L 197.692823 183.775159 
L 199.334897 179.810842 
L 199.894977 175.556607 
z
" clip-path="url(#p2db5108421)" style="fill: #3366e6; stroke: #262626; stroke-width: 1.5"/>
    <path d="M 182.254932 105.243393 
L 181.806868 101.840005 
L 180.493209 98.668552 
L 178.403479 95.945163 
L 175.680091 93.855434 
L 172.508638 92.541775 
L 169.105249 92.09371 
L 165.701861 92.541775 
L 162.530408 93.855434 
L 159.80702 95.945163 
L 157.71729 98.668552 
L 156.403631 101.840005 
L 155.955567 105.243393 
L 156.403631 108.646781 
L 157.71729 111.818234 
L 159.80702 114.541623 
L 162.530408 116.631352 
L 165.701861 117.945011 
L 169.105249 118.393076 
L 172.508638 117.945011 
L 175.680091 116.631352 
L 178.403479 114.541623 
L 180.493209 111.818234 
L 181.806868 108.646781 
L 182.254932 105.243393 
z
" clip-path="url(#p2db5108421)" style="fill: #e61a1a; stroke: #262626; stroke-width: 1.5"/>
    <path d="M 77.296197 70.086786 
L 76.512084 64.130857 
L 74.213181 58.580814 
L 70.556154 53.814884 
L 65.790224 50.157857 
L 60.240182 47.858954 
L 54.284252 47.074841 
L 48.328322 47.858954 
L 42.77828 50.157857 
L 38.01235 53.814884 
L 34.355323 58.580814 
L 32.05642 64.130857 
L 31.272307 70.086786 
L 32.05642 76.042716 
L 34.355323 81.592759 
L 38.01235 86.358688 
L 42.77828 90.015715 
L 48.328322 92.314618 
L 54.284252 93.098731 
L 60.240182 92.314618 
L 65.790224 90.015715 
L 70.556154 86.358688 
L 74.213181 81.592759 
L 76.512084 76.042716 
L 77.296197 70.086786 
z
" clip-path="url(#p2db5108421)" style="fill: #00cc33; stroke: #262626; stroke-width: 1.5"/>
    <path d="M 106.001446 210.713214 
L 105.217333 204.757284 
L 102.91843 199.207241 
L 99.261404 194.441312 
L 94.495474 190.784285 
L 88.945431 188.485382 
L 82.989501 187.701269 
L 77.033572 188.485382 
L 71.483529 190.784285 
L 66.717599 194.441312 
L 63.060573 199.207241 
L 60.76167 204.757284 
L 59.977557 210.713214 
L 60.76167 216.669143 
L 63.060573 222.219186 
L 66.717599 226.985116 
L 71.483529 230.642143 
L 77.033572 232.941046 
L 82.989501 233.725159 
L 88.945431 232.941046 
L 94.495474 230.642143 
L 99.261404 226.985116 
L 102.91843 222.219186 
L 105.217333 216.669143 
L 106.001446 210.713214 
z
" clip-path="url(#p2db5108421)" style="fill: #00cc33; stroke: #262626; stroke-width: 1.5"/>
    <path d="M 249.527693 210.713214 
L 248.74358 204.757284 
L 246.444677 199.207241 
L 242.78765 194.441312 
L 238.02172 190.784285 
L 232.471678 188.485382 
L 226.515748 187.701269 
L 220.559818 188.485382 
L 215.009776 190.784285 
L 210.243846 194.441312 
L 206.586819 199.207241 
L 204.287916 204.757284 
L 203.503803 210.713214 
L 204.287916 216.669143 
L 206.586819 222.219186 
L 210.243846 226.985116 
L 215.009776 230.642143 
L 220.559818 232.941046 
L 226.515748 233.725159 
L 232.471678 232.941046 
L 238.02172 230.642143 
L 242.78765 226.985116 
L 246.444677 222.219186 
L 248.74358 216.669143 
L 249.527693 210.713214 
z
" clip-path="url(#p2db5108421)" style="fill: #00cc33; stroke: #262626; stroke-width: 1.5"/>
    <path d="M 220.822443 70.086786 
L 220.03833 64.130857 
L 217.739427 58.580814 
L 214.082401 53.814884 
L 209.316471 50.157857 
L 203.766428 47.858954 
L 197.810499 47.074841 
L 191.854569 47.858954 
L 186.304526 50.157857 
L 181.538596 53.814884 
L 177.88157 58.580814 
L 175.582667 64.130857 
L 174.798554 70.086786 
L 175.582667 76.042716 
L 177.88157 81.592759 
L 181.538596 86.358688 
L 186.304526 90.015715 
L 191.854569 92.314618 
L 197.810499 93.098731 
L 203.766428 92.314618 
L 209.316471 90.015715 
L 214.082401 86.358688 
L 217.739427 81.592759 
L 220.03833 76.042716 
L 220.822443 70.086786 
z
" clip-path="url(#p2db5108421)" style="fill: #00cc33; stroke: #262626; stroke-width: 1.5"/>
    <path d="M 110.491809 75.946221 
L 110.043744 72.542832 
L 108.730085 69.371379 
L 106.640356 66.647991 
L 103.916967 64.558261 
L 100.745514 63.244602 
L 97.342126 62.796538 
L 93.938738 63.244602 
L 90.767285 64.558261 
L 88.043896 66.647991 
L 85.954167 69.371379 
L 84.640508 72.542832 
L 84.192443 75.946221 
L 84.640508 79.349609 
L 85.954167 82.521062 
L 88.043896 85.24445 
L 90.767285 87.33418 
L 93.938738 88.647839 
L 97.342126 89.095903 
L 100.745514 88.647839 
L 103.916967 87.33418 
L 106.640356 85.24445 
L 108.730085 82.521062 
L 110.043744 79.349609 
L 110.491809 75.946221 
z
" clip-path="url(#p2db5108421)" style="fill: #e61a1a; stroke: #262626; stroke-width: 1.5"/>
    <path d="M 196.607557 146.259434 
L 196.159492 142.856046 
L 194.845833 139.684593 
L 192.756104 136.961205 
L 190.032715 134.871475 
L 186.861262 133.557816 
L 183.457874 133.109752 
L 180.054486 133.557816 
L 176.883033 134.871475 
L 174.159644 136.961205 
L 172.069915 139.684593 
L 170.756256 142.856046 
L 170.308191 146.259434 
L 170.756256 149.662823 
L 172.069915 152.834276 
L 174.159644 155.557664 
L 176.883033 157.647394 
L 180.054486 158.961053 
L 183.457874 159.409117 
L 186.861262 158.961053 
L 190.032715 157.647394 
L 192.756104 155.557664 
L 194.845833 152.834276 
L 196.159492 149.662823 
L 196.607557 146.259434 
z
" clip-path="url(#p2db5108421)" style="fill: #e61a1a; stroke: #262626; stroke-width: 1.5"/>
    <path d="M 167.902307 181.416041 
L 167.454243 178.012653 
L 166.140584 174.8412 
L 164.050855 172.117812 
L 161.327466 170.028082 
L 158.156013 168.714423 
L 154.752625 168.266359 
L 151.349236 168.714423 
L 148.177783 170.028082 
L 145.454395 172.117812 
L 143.364665 174.8412 
L 142.051007 178.012653 
L 141.602942 181.416041 
L 142.051007 184.81943 
L 143.364665 187.990883 
L 145.454395 190.714271 
L 148.177783 192.804001 
L 151.349236 194.11766 
L 154.752625 194.565724 
L 158.156013 194.11766 
L 161.327466 192.804001 
L 164.050855 190.714271 
L 166.140584 187.990883 
L 167.454243 184.81943 
L 167.902307 181.416041 
z
" clip-path="url(#p2db5108421)" style="fill: #e61a1a; stroke: #262626; stroke-width: 1.5"/>
    <path d="M 139.197058 216.572648 
L 138.748993 213.16926 
L 137.435335 209.997807 
L 135.345605 207.274418 
L 132.622217 205.184689 
L 129.450764 203.87103 
L 126.047375 203.422966 
L 122.643987 203.87103 
L 119.472534 205.184689 
L 116.749145 207.274418 
L 114.659416 209.997807 
L 113.345757 213.16926 
L 112.897693 216.572648 
L 113.345757 219.976037 
L 114.659416 223.14749 
L 116.749145 225.870878 
L 119.472534 227.960608 
L 122.643987 229.274266 
L 126.047375 229.722331 
L 129.450764 229.274266 
L 132.622217 227.960608 
L 135.345605 225.870878 
L 137.435335 223.14749 
L 138.748993 219.976037 
L 139.197058 216.572648 
z
" clip-path="url(#p2db5108421)" style="fill: #e61a1a; stroke: #262626; stroke-width: 1.5"/>
    <path d="M 81.786559 111.102828 
L 81.338495 107.699439 
L 80.024836 104.527986 
L 77.935106 101.804598 
L 75.211718 99.714868 
L 72.040265 98.401209 
L 68.636877 97.953145 
L 65.233488 98.401209 
L 62.062035 99.714868 
L 59.338647 101.804598 
L 57.248917 104.527986 
L 55.935258 107.699439 
L 55.487194 111.102828 
L 55.935258 114.506216 
L 57.248917 117.677669 
L 59.338647 120.401057 
L 62.062035 122.490787 
L 65.233488 123.804446 
L 68.636877 124.25251 
L 72.040265 123.804446 
L 75.211718 122.490787 
L 77.935106 120.401057 
L 80.024836 117.677669 
L 81.338495 114.506216 
L 81.786559 111.102828 
z
" clip-path="url(#p2db5108421)" style="fill: #e61a1a; stroke: #262626; stroke-width: 1.5"/>
    <path d="M 225.312806 111.102828 
L 224.864742 107.699439 
L 223.551083 104.527986 
L 221.461353 101.804598 
L 218.737965 99.714868 
L 215.566512 98.401209 
L 212.163123 97.953145 
L 208.759735 98.401209 
L 205.588282 99.714868 
L 202.864894 101.804598 
L 200.775164 104.527986 
L 199.461505 107.699439 
L 199.013441 111.102828 
L 199.461505 114.506216 
L 200.775164 117.677669 
L 202.864894 120.401057 
L 205.588282 122.490787 
L 208.759735 123.804446 
L 212.163123 124.25251 
L 215.566512 123.804446 
L 218.737965 122.490787 
L 221.461353 120.401057 
L 223.551083 117.677669 
L 224.864742 114.506216 
L 225.312806 111.102828 
z
" clip-path="url(#p2db5108421)" style="fill: #e61a1a; stroke: #262626; stroke-width: 1.5"/>
    <path d="M 124.844433 116.962262 
L 124.396369 113.558874 
L 123.08271 110.387421 
L 120.99298 107.664032 
L 118.269592 105.574303 
L 115.098139 104.260644 
L 111.694751 103.812579 
L 108.291362 104.260644 
L 105.119909 105.574303 
L 102.396521 107.664032 
L 100.306791 110.387421 
L 98.993132 113.558874 
L 98.545068 116.962262 
L 98.993132 120.36565 
L 100.306791 123.537103 
L 102.396521 126.260492 
L 105.119909 128.350221 
L 108.291362 129.66388 
L 111.694751 130.111945 
L 115.098139 129.66388 
L 118.269592 128.350221 
L 120.99298 126.260492 
L 123.08271 123.537103 
L 124.396369 120.36565 
L 124.844433 116.962262 
z
" clip-path="url(#p2db5108421)" style="fill: #e61a1a; stroke: #262626; stroke-width: 1.5"/>
    <path d="M 210.960181 187.275476 
L 210.512117 183.872088 
L 209.198458 180.700635 
L 207.108729 177.977246 
L 204.38534 175.887517 
L 201.213887 174.573858 
L 197.810499 174.125793 
L 194.40711 174.573858 
L 191.235657 175.887517 
L 188.512269 177.977246 
L 186.422539 180.700635 
L 185.108881 183.872088 
L 184.660816 187.275476 
L 185.108881 190.678864 
L 186.422539 193.850317 
L 188.512269 196.573706 
L 191.235657 198.663435 
L 194.40711 199.977094 
L 197.810499 200.425159 
L 201.213887 199.977094 
L 204.38534 198.663435 
L 207.108729 196.573706 
L 209.198458 193.850317 
L 210.512117 190.678864 
L 210.960181 187.275476 
z
" clip-path="url(#p2db5108421)" style="fill: #e61a1a; stroke: #262626; stroke-width: 1.5"/>
    <path d="M 192.117194 222.432083 
L 191.333081 216.476153 
L 189.034178 210.92611 
L 185.377152 206.160181 
L 180.611222 202.503154 
L 175.061179 200.204251 
L 169.105249 199.420138 
L 163.14932 200.204251 
L 157.599277 202.503154 
L 152.833347 206.160181 
L 149.176321 210.92611 
L 146.877418 216.476153 
L 146.093305 222.432083 
L 146.877418 228.388012 
L 149.176321 233.938055 
L 152.833347 238.703985 
L 157.599277 242.361012 
L 163.14932 244.659915 
L 169.105249 245.444028 
L 175.061179 244.659915 
L 180.611222 242.361012 
L 185.377152 238.703985 
L 189.034178 233.938055 
L 191.333081 228.388012 
L 192.117194 222.432083 
z
" clip-path="url(#p2db5108421)" style="fill: #00cc33; stroke: #262626; stroke-width: 1.5"/>
    <path d="M 249.527693 152.118869 
L 248.74358 146.162939 
L 246.444677 140.612897 
L 242.78765 135.846967 
L 238.02172 132.18994 
L 232.471678 129.891037 
L 226.515748 129.106924 
L 220.559818 129.891037 
L 215.009776 132.18994 
L 210.243846 135.846967 
L 206.586819 140.612897 
L 204.287916 146.162939 
L 203.503803 152.118869 
L 204.287916 158.074799 
L 206.586819 163.624841 
L 210.243846 168.390771 
L 215.009776 172.047798 
L 220.559818 174.346701 
L 226.515748 175.130814 
L 232.471678 174.346701 
L 238.02172 172.047798 
L 242.78765 168.390771 
L 246.444677 163.624841 
L 248.74358 158.074799 
L 249.527693 152.118869 
z
" clip-path="url(#p2db5108421)" style="fill: #00cc33; stroke: #262626; stroke-width: 1.5"/>
    <path d="M 106.001446 152.118869 
L 105.217333 146.162939 
L 102.91843 140.612897 
L 99.261404 135.846967 
L 94.495474 132.18994 
L 88.945431 129.891037 
L 82.989501 129.106924 
L 77.033572 129.891037 
L 71.483529 132.18994 
L 66.717599 135.846967 
L 63.060573 140.612897 
L 60.76167 146.162939 
L 59.977557 152.118869 
L 60.76167 158.074799 
L 63.060573 163.624841 
L 66.717599 168.390771 
L 71.483529 172.047798 
L 77.033572 174.346701 
L 82.989501 175.130814 
L 88.945431 174.346701 
L 94.495474 172.047798 
L 99.261404 168.390771 
L 102.91843 163.624841 
L 105.217333 158.074799 
L 106.001446 152.118869 
z
" clip-path="url(#p2db5108421)" style="fill: #00cc33; stroke: #262626; stroke-width: 1.5"/>
    <path d="M 142.484479 187.275476 
L 141.924398 183.02124 
L 140.282324 179.056924 
L 137.670163 175.652689 
L 134.265927 173.040527 
L 130.301611 171.398453 
L 126.047375 170.838372 
L 121.79314 171.398453 
L 117.828824 173.040527 
L 114.424588 175.652689 
L 111.812426 179.056924 
L 110.170353 183.02124 
L 109.610272 187.275476 
L 110.170353 191.529711 
L 111.812426 195.494028 
L 114.424588 198.898263 
L 117.828824 201.510425 
L 121.79314 203.152499 
L 126.047375 203.712579 
L 130.301611 203.152499 
L 134.265927 201.510425 
L 137.670163 198.898263 
L 140.282324 195.494028 
L 141.924398 191.529711 
L 142.484479 187.275476 
z
" clip-path="url(#p2db5108421)" style="fill: #3366e6; stroke: #262626; stroke-width: 1.5"/>
    <path d="M 163.411945 81.805655 
L 162.627832 75.849726 
L 160.328929 70.299683 
L 156.671902 65.533753 
L 151.905972 61.876726 
L 146.35593 59.577823 
L 140.4 58.79371 
L 134.44407 59.577823 
L 128.894028 61.876726 
L 124.128098 65.533753 
L 120.471071 70.299683 
L 118.172168 75.849726 
L 117.388055 81.805655 
L 118.172168 87.761585 
L 120.471071 93.311628 
L 124.128098 98.077557 
L 128.894028 101.734584 
L 134.44407 104.033487 
L 140.4 104.8176 
L 146.35593 104.033487 
L 151.905972 101.734584 
L 156.671902 98.077557 
L 160.328929 93.311628 
L 162.627832 87.761585 
L 163.411945 81.805655 
z
" clip-path="url(#p2db5108421)" style="fill: #00cc33; stroke: #262626; stroke-width: 1.5"/>
    <path d="M 199.894977 116.962262 
L 199.334897 112.708027 
L 197.692823 108.74371 
L 195.080661 105.339475 
L 191.676426 102.727313 
L 187.712109 101.085239 
L 183.457874 100.525159 
L 179.203639 101.085239 
L 175.239322 102.727313 
L 171.835087 105.339475 
L 169.222925 108.74371 
L 167.580851 112.708027 
L 167.020771 116.962262 
L 167.580851 121.216497 
L 169.222925 125.180814 
L 171.835087 128.585049 
L 175.239322 131.197211 
L 179.203639 132.839285 
L 183.457874 133.399365 
L 187.712109 132.839285 
L 191.676426 131.197211 
L 195.080661 128.585049 
L 197.692823 125.180814 
L 199.334897 121.216497 
L 199.894977 116.962262 
z
" clip-path="url(#p2db5108421)" style="fill: #3366e6; stroke: #262626; stroke-width: 1.5"/>
    <path d="M 139.197058 157.978303 
L 138.748993 154.574915 
L 137.435335 151.403462 
L 135.345605 148.680074 
L 132.622217 146.590344 
L 129.450764 145.276685 
L 126.047375 144.828621 
L 122.643987 145.276685 
L 119.472534 146.590344 
L 116.749145 148.680074 
L 114.659416 151.403462 
L 113.345757 154.574915 
L 112.897693 157.978303 
L 113.345757 161.381692 
L 114.659416 164.553145 
L 116.749145 167.276533 
L 119.472534 169.366263 
L 122.643987 170.679922 
L 126.047375 171.127986 
L 129.450764 170.679922 
L 132.622217 169.366263 
L 135.345605 167.276533 
L 137.435335 164.553145 
L 138.748993 161.381692 
L 139.197058 157.978303 
z
" clip-path="url(#p2db5108421)" style="fill: #e61a1a; stroke: #262626; stroke-width: 1.5"/>
    <path d="M 196.607557 87.66509 
L 196.159492 84.261701 
L 194.845833 81.090248 
L 192.756104 78.36686 
L 190.032715 76.27713 
L 186.861262 74.963471 
L 183.457874 74.515407 
L 180.054486 74.963471 
L 176.883033 76.27713 
L 174.159644 78.36686 
L 172.069915 81.090248 
L 170.756256 84.261701 
L 170.308191 87.66509 
L 170.756256 91.068478 
L 172.069915 94.239931 
L 174.159644 96.963319 
L 176.883033 99.053049 
L 180.054486 100.366708 
L 183.457874 100.814772 
L 186.861262 100.366708 
L 190.032715 99.053049 
L 192.756104 96.963319 
L 194.845833 94.239931 
L 196.159492 91.068478 
L 196.607557 87.66509 
z
" clip-path="url(#p2db5108421)" style="fill: #e61a1a; stroke: #262626; stroke-width: 1.5"/>
    <path d="M 110.491809 193.13491 
L 110.043744 189.731522 
L 108.730085 186.560069 
L 106.640356 183.836681 
L 103.916967 181.746951 
L 100.745514 180.433292 
L 97.342126 179.985228 
L 93.938738 180.433292 
L 90.767285 181.746951 
L 88.043896 183.836681 
L 85.954167 186.560069 
L 84.640508 189.731522 
L 84.192443 193.13491 
L 84.640508 196.538299 
L 85.954167 199.709752 
L 88.043896 202.43314 
L 90.767285 204.52287 
L 93.938738 205.836529 
L 97.342126 206.284593 
L 100.745514 205.836529 
L 103.916967 204.52287 
L 106.640356 202.43314 
L 108.730085 199.709752 
L 110.043744 196.538299 
L 110.491809 193.13491 
z
" clip-path="url(#p2db5108421)" style="fill: #e61a1a; stroke: #262626; stroke-width: 1.5"/>
    <path d="M 167.902307 122.821697 
L 167.454243 119.418308 
L 166.140584 116.246855 
L 164.050855 113.523467 
L 161.327466 111.433737 
L 158.156013 110.120078 
L 154.752625 109.672014 
L 151.349236 110.120078 
L 148.177783 111.433737 
L 145.454395 113.523467 
L 143.364665 116.246855 
L 142.051007 119.418308 
L 141.602942 122.821697 
L 142.051007 126.225085 
L 143.364665 129.396538 
L 145.454395 132.119926 
L 148.177783 134.209656 
L 151.349236 135.523315 
L 154.752625 135.971379 
L 158.156013 135.523315 
L 161.327466 134.209656 
L 164.050855 132.119926 
L 166.140584 129.396538 
L 167.454243 126.225085 
L 167.902307 122.821697 
z
" clip-path="url(#p2db5108421)" style="fill: #e61a1a; stroke: #262626; stroke-width: 1.5"/>
    <path d="M 192.117194 163.837738 
L 191.333081 157.881808 
L 189.034178 152.331766 
L 185.377152 147.565836 
L 180.611222 143.908809 
L 175.061179 141.609906 
L 169.105249 140.825793 
L 163.14932 141.609906 
L 157.599277 143.908809 
L 152.833347 147.565836 
L 149.176321 152.331766 
L 146.877418 157.881808 
L 146.093305 163.837738 
L 146.877418 169.793668 
L 149.176321 175.34371 
L 152.833347 180.10964 
L 157.599277 183.766667 
L 163.14932 186.06557 
L 169.105249 186.849683 
L 175.061179 186.06557 
L 180.611222 183.766667 
L 185.377152 180.10964 
L 189.034178 175.34371 
L 191.333081 169.793668 
L 192.117194 163.837738 
z
" clip-path="url(#p2db5108421)" style="fill: #00cc33; stroke: #262626; stroke-width: 1.5"/>
    <path d="M 249.527693 93.524524 
L 248.74358 87.568595 
L 246.444677 82.018552 
L 242.78765 77.252622 
L 238.02172 73.595595 
L 232.471678 71.296692 
L 226.515748 70.512579 
L 220.559818 71.296692 
L 215.009776 73.595595 
L 210.243846 77.252622 
L 206.586819 82.018552 
L 204.287916 87.568595 
L 203.503803 93.524524 
L 204.287916 99.480454 
L 206.586819 105.030496 
L 210.243846 109.796426 
L 215.009776 113.453453 
L 220.559818 115.752356 
L 226.515748 116.536469 
L 232.471678 115.752356 
L 238.02172 113.453453 
L 242.78765 109.796426 
L 246.444677 105.030496 
L 248.74358 99.480454 
L 249.527693 93.524524 
z
" clip-path="url(#p2db5108421)" style="fill: #00cc33; stroke: #262626; stroke-width: 1.5"/>
    <path d="M 134.706695 234.150952 
L 133.922582 228.195022 
L 131.623679 222.644979 
L 127.966653 217.87905 
L 123.200723 214.222023 
L 117.65068 211.92312 
L 111.694751 211.139007 
L 105.738821 211.92312 
L 100.188778 214.222023 
L 95.422848 217.87905 
L 91.765822 222.644979 
L 89.466919 228.195022 
L 88.682806 234.150952 
L 89.466919 240.106881 
L 91.765822 245.656924 
L 95.422848 250.422854 
L 100.188778 254.079881 
L 105.738821 256.378784 
L 111.694751 257.162897 
L 117.65068 256.378784 
L 123.200723 254.079881 
L 127.966653 250.422854 
L 131.623679 245.656924 
L 133.922582 240.106881 
L 134.706695 234.150952 
z
" clip-path="url(#p2db5108421)" style="fill: #00cc33; stroke: #262626; stroke-width: 1.5"/>
    <path d="M 153.549683 198.994345 
L 153.101618 195.590957 
L 151.787959 192.419504 
L 149.69823 189.696115 
L 146.974841 187.606386 
L 143.803388 186.292727 
L 140.4 185.844662 
L 136.996612 186.292727 
L 133.825159 187.606386 
L 131.10177 189.696115 
L 129.012041 192.419504 
L 127.698382 195.590957 
L 127.250317 198.994345 
L 127.698382 202.397733 
L 129.012041 205.569186 
L 131.10177 208.292575 
L 133.825159 210.382304 
L 136.996612 211.695963 
L 140.4 212.144028 
L 143.803388 211.695963 
L 146.974841 210.382304 
L 149.69823 208.292575 
L 151.787959 205.569186 
L 153.101618 202.397733 
L 153.549683 198.994345 
z
" clip-path="url(#p2db5108421)" style="fill: #e61a1a; stroke: #262626; stroke-width: 1.5"/>
    <path d="M 210.960181 128.681131 
L 210.512117 125.277743 
L 209.198458 122.10629 
L 207.108729 119.382901 
L 204.38534 117.293172 
L 201.213887 115.979513 
L 197.810499 115.531448 
L 194.40711 115.979513 
L 191.235657 117.293172 
L 188.512269 119.382901 
L 186.422539 122.10629 
L 185.108881 125.277743 
L 184.660816 128.681131 
L 185.108881 132.084519 
L 186.422539 135.255972 
L 188.512269 137.979361 
L 191.235657 140.06909 
L 194.40711 141.382749 
L 197.810499 141.830814 
L 201.213887 141.382749 
L 204.38534 140.06909 
L 207.108729 137.979361 
L 209.198458 135.255972 
L 210.512117 132.084519 
L 210.960181 128.681131 
z
" clip-path="url(#p2db5108421)" style="fill: #e61a1a; stroke: #262626; stroke-width: 1.5"/>
    <path d="M 142.484479 128.681131 
L 141.924398 124.426896 
L 140.282324 120.462579 
L 137.670163 117.058344 
L 134.265927 114.446182 
L 130.301611 112.804108 
L 126.047375 112.244028 
L 121.79314 112.804108 
L 117.828824 114.446182 
L 114.424588 117.058344 
L 111.812426 120.462579 
L 110.170353 124.426896 
L 109.610272 128.681131 
L 110.170353 132.935366 
L 111.812426 136.899683 
L 114.424588 140.303918 
L 117.828824 142.91608 
L 121.79314 144.558154 
L 126.047375 145.118234 
L 130.301611 144.558154 
L 134.265927 142.91608 
L 137.670163 140.303918 
L 140.282324 136.899683 
L 141.924398 132.935366 
L 142.484479 128.681131 
z
" clip-path="url(#p2db5108421)" style="fill: #3366e6; stroke: #262626; stroke-width: 1.5"/>
    <path d="M 106.001446 93.524524 
L 105.217333 87.568595 
L 102.91843 82.018552 
L 99.261404 77.252622 
L 94.495474 73.595595 
L 88.945431 71.296692 
L 82.989501 70.512579 
L 77.033572 71.296692 
L 71.483529 73.595595 
L 66.717599 77.252622 
L 63.060573 82.018552 
L 60.76167 87.568595 
L 59.977557 93.524524 
L 60.76167 99.480454 
L 63.060573 105.030496 
L 66.717599 109.796426 
L 71.483529 113.453453 
L 77.033572 115.752356 
L 82.989501 116.536469 
L 88.945431 115.752356 
L 94.495474 113.453453 
L 99.261404 109.796426 
L 102.91843 105.030496 
L 105.217333 99.480454 
L 106.001446 93.524524 
z
" clip-path="url(#p2db5108421)" style="fill: #00cc33; stroke: #262626; stroke-width: 1.5"/>
    <path d="M 139.197058 99.383959 
L 138.748993 95.98057 
L 137.435335 92.809117 
L 135.345605 90.085729 
L 132.622217 87.995999 
L 129.450764 86.68234 
L 126.047375 86.234276 
L 122.643987 86.68234 
L 119.472534 87.995999 
L 116.749145 90.085729 
L 114.659416 92.809117 
L 113.345757 95.98057 
L 112.897693 99.383959 
L 113.345757 102.787347 
L 114.659416 105.9588 
L 116.749145 108.682188 
L 119.472534 110.771918 
L 122.643987 112.085577 
L 126.047375 112.533641 
L 129.450764 112.085577 
L 132.622217 110.771918 
L 135.345605 108.682188 
L 137.435335 105.9588 
L 138.748993 102.787347 
L 139.197058 99.383959 
z
" clip-path="url(#p2db5108421)" style="fill: #e61a1a; stroke: #262626; stroke-width: 1.5"/>
    <path d="M 110.491809 134.540566 
L 110.043744 131.137177 
L 108.730085 127.965724 
L 106.640356 125.242336 
L 103.916967 123.152606 
L 100.745514 121.838947 
L 97.342126 121.390883 
L 93.938738 121.838947 
L 90.767285 123.152606 
L 88.043896 125.242336 
L 85.954167 127.965724 
L 84.640508 131.137177 
L 84.192443 134.540566 
L 84.640508 137.943954 
L 85.954167 141.115407 
L 88.043896 143.838795 
L 90.767285 145.928525 
L 93.938738 147.242184 
L 97.342126 147.690248 
L 100.745514 147.242184 
L 103.916967 145.928525 
L 106.640356 143.838795 
L 108.730085 141.115407 
L 110.043744 137.943954 
L 110.491809 134.540566 
z
" clip-path="url(#p2db5108421)" style="fill: #e61a1a; stroke: #262626; stroke-width: 1.5"/>
    <path d="M 192.117194 105.243393 
L 191.333081 99.287464 
L 189.034178 93.737421 
L 185.377152 88.971491 
L 180.611222 85.314464 
L 175.061179 83.015561 
L 169.105249 82.231448 
L 163.14932 83.015561 
L 157.599277 85.314464 
L 152.833347 88.971491 
L 149.176321 93.737421 
L 146.877418 99.287464 
L 146.093305 105.243393 
L 146.877418 111.199323 
L 149.176321 116.749365 
L 152.833347 121.515295 
L 157.599277 125.172322 
L 163.14932 127.471225 
L 169.105249 128.255338 
L 175.061179 127.471225 
L 180.611222 125.172322 
L 185.377152 121.515295 
L 189.034178 116.749365 
L 191.333081 111.199323 
L 192.117194 105.243393 
z
" clip-path="url(#p2db5108421)" style="fill: #00cc33; stroke: #262626; stroke-width: 1.5"/>
    <path d="M 153.549683 140.4 
L 153.101618 136.996612 
L 151.787959 133.825159 
L 149.69823 131.10177 
L 146.974841 129.012041 
L 143.803388 127.698382 
L 140.4 127.250317 
L 136.996612 127.698382 
L 133.825159 129.012041 
L 131.10177 131.10177 
L 129.012041 133.825159 
L 127.698382 136.996612 
L 127.250317 140.4 
L 127.698382 143.803388 
L 129.012041 146.974841 
L 131.10177 149.69823 
L 133.825159 151.787959 
L 136.996612 153.101618 
L 140.4 153.549683 
L 143.803388 153.101618 
L 146.974841 151.787959 
L 149.69823 149.69823 
L 151.787959 146.974841 
L 153.101618 143.803388 
L 153.549683 140.4 
z
" clip-path="url(#p2db5108421)" style="fill: #e61a1a; stroke: #262626; stroke-width: 1.5"/>
    <path d="M 134.706695 175.556607 
L 133.922582 169.600677 
L 131.623679 164.050635 
L 127.966653 159.284705 
L 123.200723 155.627678 
L 117.65068 153.328775 
L 111.694751 152.544662 
L 105.738821 153.328775 
L 100.188778 155.627678 
L 95.422848 159.284705 
L 91.765822 164.050635 
L 89.466919 169.600677 
L 88.682806 175.556607 
L 89.466919 181.512536 
L 91.765822 187.062579 
L 95.422848 191.828509 
L 100.188778 195.485536 
L 105.738821 197.784439 
L 111.694751 198.568552 
L 117.65068 197.784439 
L 123.200723 195.485536 
L 127.966653 191.828509 
L 131.623679 187.062579 
L 133.922582 181.512536 
L 134.706695 175.556607 
z
" clip-path="url(#p2db5108421)" style="fill: #00cc33; stroke: #262626; stroke-width: 1.5"/>
    <path d="M 134.706695 116.962262 
L 133.922582 111.006332 
L 131.623679 105.45629 
L 127.966653 100.69036 
L 123.200723 97.033333 
L 117.65068 94.73443 
L 111.694751 93.950317 
L 105.738821 94.73443 
L 100.188778 97.033333 
L 95.422848 100.69036 
L 91.765822 105.45629 
L 89.466919 111.006332 
L 88.682806 116.962262 
L 89.466919 122.918192 
L 91.765822 128.468234 
L 95.422848 133.234164 
L 100.188778 136.891191 
L 105.738821 139.190094 
L 111.694751 139.974207 
L 117.65068 139.190094 
L 123.200723 136.891191 
L 127.966653 133.234164 
L 131.623679 128.468234 
L 133.922582 122.918192 
L 134.706695 116.962262 
z
" clip-path="url(#p2db5108421)" style="fill: #00cc33; stroke: #262626; stroke-width: 1.5"/>
   </g>
  </g>
 </g>
 <defs>
  <clipPath id="p2db5108421">
   <rect x="7.2" y="7.2" width="266.4" height="266.4"/>
  </clipPath>
 </defs>
</svg>
