<?xml version="1.0" encoding="utf-8" standalone="no"?>
<!DOCTYPE svg PUBLIC "-//W3C//DTD SVG 1.1//EN"
  "http://www.w3.org/Graphics/SVG/1.1/DTD/svg11.dtd">
<svg xmlns:xlink="http://www.w3.org/1999/xlink" width="280.8pt" height="280.8pt" viewBox="0 0 280.8 280.8" xmlns="http://www.w3.org/2000/svg" version="1.1">
 <metadata>
  <rdf:RDF xmlns:dc="http://purl.org/dc/elements/1.1/" xmlns:cc="http://creativecommons.org/ns#" xmlns:rdf="http://www.w3.org/1999/02/22-rdf-syntax-ns#">
   <cc:Work>
    <dc:type rdf:resource="http://purl.org/dc/dcmitype/StillImage"/>
    <dc:date>2026-02-15T20:54:03.564839</dc:date>
    <dc:format>image/svg+xml</dc:format>
    <dc:creator>
     <cc:Agent>
      <dc:title>Matplotlib v3.10.7, https://matplotlib.org/</dc:title>
     </cc:Agent>
    </dc:creator>
   </cc:Work>
  </rdf:RDF>
 </metadata>
 <defs>
  <style type="text/css">*{stroke-linejoin: round; stroke-linecap: butt}</style>
 </defs>
 <g id="figure_1">
  <g id="patch_1">
   <path d="M 0 280.8 
L 280.8 280.8 
L 280.8 0 
L 0 0 
z
" style="fill: #ffffff"/>
  </g>
  <g id="axes_1">
   <g id="PolyCollection_1">
    <path d="M 184.413127 166.053738 
L 183.984003 162.794211 
L 182.725872 159.756816 
L 180.724476 157.148546 
L 178.116206 155.14715 
L 175.078811 153.889019 
L 171.819284 153.459895 
L 168.559757 153.889019 
L 165.522362 155.14715 
L 162.914092 157.148546 
L 160.912696 159.756816 
L 159.654565 162.794211 
L 159.225441 166.053738 
L 159.654565 169.313264 
L 160.912696 172.35066 
L 162.914092 174.95893 
L 165.522362 176.960326 
L 168.559757 178.218457 
L 171.819284 178.647581 
L 175.078811 178.218457 
L 178.116206 176.960326 
L 180.724476 174.95893 
L 182.725872 172.35066 
L 183.984003 169.313264 
L 184.413127 166.053738 
z
" clip-path="url(#pabbb7cabde)" style="fill: #00cc33"/>
    <path d="M 121.574559 178.880607 
L 121.145435 175.62108 
L 119.887304 172.583685 
L 117.885908 169.975415 
L 115.277638 167.974019 
L 112.240243 166.715888 
L 108.980716 166.286764 
L 105.721189 166.715888 
L 102.683794 167.974019 
L 100.075524 169.975415 
L 98.074128 172.583685 
L 96.815997 175.62108 
L 96.386873 178.880607 
L 96.815997 182.140133 
L 98.074128 185.177529 
L 100.075524 187.785799 
L 102.683794 189.787195 
L 105.721189 191.045325 
L 108.980716 191.47445 
L 112.240243 191.045325 
L 115.277638 189.787195 
L 117.885908 187.785799 
L 119.887304 185.177529 
L 121.145435 182.140133 
L 121.574559 178.880607 
z
" clip-path="url(#pabbb7cabde)" style="fill: #00cc33"/>
    <path d="M 184.413127 101.919393 
L 183.984003 98.659867 
L 182.725872 95.622471 
L 180.724476 93.014201 
L 178.116206 91.012805 
L 175.078811 89.754675 
L 171.819284 89.32555 
L 168.559757 89.754675 
L 165.522362 91.012805 
L 162.914092 93.014201 
L 160.912696 95.622471 
L 159.654565 98.659867 
L 159.225441 101.919393 
L 159.654565 105.17892 
L 160.912696 108.216315 
L 162.914092 110.824585 
L 165.522362 112.825981 
L 168.559757 114.084112 
L 171.819284 114.513236 
L 175.078811 114.084112 
L 178.116206 112.825981 
L 180.724476 110.824585 
L 182.725872 108.216315 
L 183.984003 105.17892 
L 184.413127 101.919393 
z
" clip-path="url(#pabbb7cabde)" style="fill: #00cc33"/>
    <path d="M 147.596482 140.4 
L 147.351268 138.537413 
L 146.632336 136.801759 
L 145.488681 135.311319 
L 143.998241 134.167664 
L 142.262587 133.448732 
L 140.4 133.203518 
L 138.537413 133.448732 
L 136.801759 134.167664 
L 135.311319 135.311319 
L 134.167664 136.801759 
L 133.448732 138.537413 
L 133.203518 140.4 
L 133.448732 142.262587 
L 134.167664 143.998241 
L 135.311319 145.488681 
L 136.801759 146.632336 
L 138.537413 147.351268 
L 140.4 147.596482 
L 142.262587 147.351268 
L 143.998241 146.632336 
L 145.488681 145.488681 
L 146.632336 143.998241 
L 147.351268 142.262587 
L 147.596482 140.4 
z
" clip-path="url(#pabbb7cabde)" style="fill: #e61a1a"/>
    <path d="M 187.528926 146.813434 
L 156.109642 185.294041 
L 140.4 140.4 
z
" clip-path="url(#pabbb7cabde)" style="fill: #7bacf6; fill-opacity: 0.25; stroke: #4c4c4c; stroke-width: 0.8"/>
    <path d="M 194.725408 146.813434 
L 194.480194 144.950848 
L 193.761262 143.215194 
L 192.617607 141.724753 
L 191.127167 140.581098 
L 189.391513 139.862167 
L 187.528926 139.616953 
L 185.666339 139.862167 
L 183.930685 140.581098 
L 182.440245 141.724753 
L 181.29659 143.215194 
L 180.577658 144.950848 
L 180.332444 146.813434 
L 180.577658 148.676021 
L 181.29659 150.411675 
L 182.440245 151.902116 
L 183.930685 153.045771 
L 185.666339 153.764702 
L 187.528926 154.009916 
L 189.391513 153.764702 
L 191.127167 153.045771 
L 192.617607 151.902116 
L 193.761262 150.411675 
L 194.480194 148.676021 
L 194.725408 146.813434 
z
" clip-path="url(#pabbb7cabde)" style="fill: #e61a1a"/>
    <path d="M 163.306124 185.294041 
L 163.06091 183.431455 
L 162.341978 181.6958 
L 161.198323 180.20536 
L 159.707883 179.061705 
L 157.972229 178.342774 
L 156.109642 178.097559 
L 154.247055 178.342774 
L 152.511401 179.061705 
L 151.020961 180.20536 
L 149.877306 181.6958 
L 149.158374 183.431455 
L 148.91316 185.294041 
L 149.158374 187.156628 
L 149.877306 188.892282 
L 151.020961 190.382723 
L 152.511401 191.526378 
L 154.247055 192.245309 
L 156.109642 192.490523 
L 157.972229 192.245309 
L 159.707883 191.526378 
L 161.198323 190.382723 
L 162.341978 188.892282 
L 163.06091 187.156628 
L 163.306124 185.294041 
z
" clip-path="url(#pabbb7cabde)" style="fill: #e61a1a"/>
    <path d="M 124.690358 159.640303 
L 156.109642 185.294041 
L 140.4 140.4 
z
" clip-path="url(#pabbb7cabde)" style="fill: #577aae; fill-opacity: 0.25; stroke: #4c4c4c; stroke-width: 0.8"/>
    <path d="M 156.109642 121.159697 
L 187.528926 146.813434 
L 140.4 140.4 
z
" clip-path="url(#pabbb7cabde)" style="fill: #577aae; fill-opacity: 0.25; stroke: #4c4c4c; stroke-width: 0.8"/>
    <path d="M 187.528926 146.813434 
L 156.109642 185.294041 
L 171.819284 166.053738 
z
" clip-path="url(#pabbb7cabde)" style="fill: #334766; fill-opacity: 0.25; stroke: #4c4c4c; stroke-width: 0.8"/>
    <path d="M 156.109642 121.159697 
L 124.690358 159.640303 
L 140.4 140.4 
z
" clip-path="url(#pabbb7cabde)" style="fill: #334766; fill-opacity: 0.25; stroke: #4c4c4c; stroke-width: 0.8"/>
    <path d="M 58.735991 191.707476 
L 58.306867 188.447949 
L 57.048736 185.410554 
L 55.04734 182.802284 
L 52.43907 180.800888 
L 49.401675 179.542757 
L 46.142148 179.113633 
L 42.882622 179.542757 
L 39.845226 180.800888 
L 37.236956 182.802284 
L 35.23556 185.410554 
L 33.977429 188.447949 
L 33.548305 191.707476 
L 33.977429 194.967002 
L 35.23556 198.004398 
L 37.236956 200.612668 
L 39.845226 202.614064 
L 42.882622 203.872194 
L 46.142148 204.301319 
L 49.401675 203.872194 
L 52.43907 202.614064 
L 55.04734 200.612668 
L 57.048736 198.004398 
L 58.306867 194.967002 
L 58.735991 191.707476 
z
" clip-path="url(#pabbb7cabde)" style="fill: #00cc33"/>
    <path d="M 121.574559 114.746262 
L 121.145435 111.486736 
L 119.887304 108.44934 
L 117.885908 105.84107 
L 115.277638 103.839674 
L 112.240243 102.581543 
L 108.980716 102.152419 
L 105.721189 102.581543 
L 102.683794 103.839674 
L 100.075524 105.84107 
L 98.074128 108.44934 
L 96.815997 111.486736 
L 96.386873 114.746262 
L 96.815997 118.005789 
L 98.074128 121.043184 
L 100.075524 123.651454 
L 102.683794 125.65285 
L 105.721189 126.910981 
L 108.980716 127.340105 
L 112.240243 126.910981 
L 115.277638 125.65285 
L 117.885908 123.651454 
L 119.887304 121.043184 
L 121.145435 118.005789 
L 121.574559 114.746262 
z
" clip-path="url(#pabbb7cabde)" style="fill: #00cc33"/>
    <path d="M 184.413127 37.785048 
L 183.984003 34.525522 
L 182.725872 31.488127 
L 180.724476 28.879856 
L 178.116206 26.87846 
L 175.078811 25.62033 
L 171.819284 25.191205 
L 168.559757 25.62033 
L 165.522362 26.87846 
L 162.914092 28.879856 
L 160.912696 31.488127 
L 159.654565 34.525522 
L 159.225441 37.785048 
L 159.654565 41.044575 
L 160.912696 44.08197 
L 162.914092 46.69024 
L 165.522362 48.691636 
L 168.559757 49.949767 
L 171.819284 50.378892 
L 175.078811 49.949767 
L 178.116206 48.691636 
L 180.724476 46.69024 
L 182.725872 44.08197 
L 183.984003 41.044575 
L 184.413127 37.785048 
z
" clip-path="url(#pabbb7cabde)" style="fill: #00cc33"/>
    <path d="M 147.596482 76.265655 
L 147.351268 74.403069 
L 146.632336 72.667414 
L 145.488681 71.176974 
L 143.998241 70.033319 
L 142.262587 69.314387 
L 140.4 69.069173 
L 138.537413 69.314387 
L 136.801759 70.033319 
L 135.311319 71.176974 
L 134.167664 72.667414 
L 133.448732 74.403069 
L 133.203518 76.265655 
L 133.448732 78.128242 
L 134.167664 79.863896 
L 135.311319 81.354336 
L 136.801759 82.497991 
L 138.537413 83.216923 
L 140.4 83.462137 
L 142.262587 83.216923 
L 143.998241 82.497991 
L 145.488681 81.354336 
L 146.632336 79.863896 
L 147.351268 78.128242 
L 147.596482 76.265655 
z
" clip-path="url(#pabbb7cabde)" style="fill: #e61a1a"/>
    <path d="M 84.757914 153.226869 
L 84.5127 151.364282 
L 83.793768 149.628628 
L 82.650113 148.138188 
L 81.159673 146.994533 
L 79.424019 146.275601 
L 77.561432 146.030387 
L 75.698845 146.275601 
L 73.963191 146.994533 
L 72.472751 148.138188 
L 71.329096 149.628628 
L 70.610164 151.364282 
L 70.36495 153.226869 
L 70.610164 155.089456 
L 71.329096 156.82511 
L 72.472751 158.31555 
L 73.963191 159.459205 
L 75.698845 160.178137 
L 77.561432 160.423351 
L 79.424019 160.178137 
L 81.159673 159.459205 
L 82.650113 158.31555 
L 83.793768 156.82511 
L 84.5127 155.089456 
L 84.757914 153.226869 
z
" clip-path="url(#pabbb7cabde)" style="fill: #e61a1a"/>
    <path d="M 150.838823 151.710449 
L 152.204259 152.008975 
L 153.569695 151.153011 
L 154.135277 149.643969 
L 153.569696 148.365826 
L 144.835561 141.234435 
L 143.470124 140.935908 
L 142.104688 141.791872 
L 141.539105 143.300913 
L 142.104688 144.579057 
z
" clip-path="url(#pabbb7cabde)" style="fill: #666666"/>
    <path d="M 163.488603 149.517181 
L 163.004429 150.261393 
L 163.056813 151.808784 
L 163.61507 153.252914 
L 164.352181 153.747831 
L 181.820474 150.182131 
L 182.304651 149.437919 
L 182.252267 147.890528 
L 181.694009 146.446398 
L 180.956896 145.951481 
z
" clip-path="url(#pabbb7cabde)" style="fill: #666666"/>
    <path d="M 158.268587 161.198682 
L 157.636246 160.575448 
L 156.109642 160.317296 
L 154.583038 160.575448 
L 153.950697 161.198682 
L 153.950697 179.027184 
L 154.583038 179.650421 
L 156.109642 179.908574 
L 157.636246 179.650421 
L 158.268587 179.027184 
z
" clip-path="url(#pabbb7cabde)" style="fill: #666666"/>
    <path d="M 165.105244 153.226869 
L 164.798727 150.898636 
L 163.900062 148.729068 
L 162.470493 146.866018 
L 160.607443 145.436449 
L 158.437875 144.537784 
L 156.109642 144.231267 
L 153.781409 144.537784 
L 151.611841 145.436449 
L 149.748791 146.866018 
L 148.319222 148.729068 
L 147.420557 150.898636 
L 147.11404 153.226869 
L 147.420557 155.555102 
L 148.319222 157.72467 
L 149.748791 159.58772 
L 151.611841 161.017289 
L 153.781409 161.915954 
L 156.109642 162.222471 
L 158.437875 161.915954 
L 160.607443 161.017289 
L 162.470493 159.58772 
L 163.900062 157.72467 
L 164.798727 155.555102 
L 165.105244 153.226869 
z
" clip-path="url(#pabbb7cabde)" style="fill: #3366e6"/>
    <path d="M 215.832411 191.707476 
L 215.403287 188.447949 
L 214.145156 185.410554 
L 212.14376 182.802284 
L 209.53549 180.800888 
L 206.498094 179.542757 
L 203.238568 179.113633 
L 199.979041 179.542757 
L 196.941646 180.800888 
L 194.333376 182.802284 
L 192.33198 185.410554 
L 191.073849 188.447949 
L 190.644725 191.707476 
L 191.073849 194.967002 
L 192.33198 198.004398 
L 194.333376 200.612668 
L 196.941646 202.614064 
L 199.979041 203.872194 
L 203.238568 204.301319 
L 206.498094 203.872194 
L 209.53549 202.614064 
L 212.14376 200.612668 
L 214.145156 198.004398 
L 215.403287 194.967002 
L 215.832411 191.707476 
z
" clip-path="url(#pabbb7cabde)" style="fill: #00cc33"/>
    <path d="M 124.690358 159.640303 
L 156.109642 185.294041 
L 171.819284 166.053738 
z
" clip-path="url(#pabbb7cabde)" style="fill: #577aae; fill-opacity: 0.25; stroke: #4c4c4c; stroke-width: 0.8"/>
    <path d="M 156.109642 121.159697 
L 187.528926 146.813434 
L 171.819284 166.053738 
z
" clip-path="url(#pabbb7cabde)" style="fill: #577aae; fill-opacity: 0.25; stroke: #4c4c4c; stroke-width: 0.8"/>
    <path d="M 100.467556 198.12091 
L 100.222342 196.258324 
L 99.50341 194.522669 
L 98.359755 193.032229 
L 96.869315 191.888574 
L 95.133661 191.169643 
L 93.271074 190.924428 
L 91.408487 191.169643 
L 89.672833 191.888574 
L 88.182393 193.032229 
L 87.038738 194.522669 
L 86.319806 196.258324 
L 86.074592 198.12091 
L 86.319806 199.983497 
L 87.038738 201.719151 
L 88.182393 203.209592 
L 89.672833 204.353247 
L 91.408487 205.072178 
L 93.271074 205.317392 
L 95.133661 205.072178 
L 96.869315 204.353247 
L 98.359755 203.209592 
L 99.50341 201.719151 
L 100.222342 199.983497 
L 100.467556 198.12091 
z
" clip-path="url(#pabbb7cabde)" style="fill: #e61a1a"/>
    <path d="M 194.725408 82.67909 
L 194.480194 80.816503 
L 193.761262 79.080849 
L 192.617607 77.590408 
L 191.127167 76.446753 
L 189.391513 75.727822 
L 187.528926 75.482608 
L 185.666339 75.727822 
L 183.930685 76.446753 
L 182.440245 77.590408 
L 181.29659 79.080849 
L 180.577658 80.816503 
L 180.332444 82.67909 
L 180.577658 84.541676 
L 181.29659 86.277331 
L 182.440245 87.767771 
L 183.930685 88.911426 
L 185.666339 89.630357 
L 187.528926 89.875572 
L 189.391513 89.630357 
L 191.127167 88.911426 
L 192.617607 87.767771 
L 193.761262 86.277331 
L 194.480194 84.541676 
L 194.725408 82.67909 
z
" clip-path="url(#pabbb7cabde)" style="fill: #e61a1a"/>
    <path d="M 153.950697 145.255055 
L 154.583038 145.87829 
L 156.109642 146.136442 
L 157.636246 145.87829 
L 158.268587 145.255055 
L 158.268587 127.426564 
L 157.636246 126.803332 
L 156.109642 126.545181 
L 154.583038 126.803332 
L 153.950697 127.426564 
z
" clip-path="url(#pabbb7cabde)" style="fill: #666666"/>
    <path d="M 163.306124 121.159697 
L 163.06091 119.29711 
L 162.341978 117.561456 
L 161.198323 116.071015 
L 159.707883 114.92736 
L 157.972229 114.208429 
L 156.109642 113.963215 
L 154.247055 114.208429 
L 152.511401 114.92736 
L 151.020961 116.071015 
L 149.877306 117.561456 
L 149.158374 119.29711 
L 148.91316 121.159697 
L 149.158374 123.022283 
L 149.877306 124.757937 
L 151.020961 126.248378 
L 152.511401 127.392033 
L 154.247055 128.110964 
L 156.109642 128.356178 
L 157.972229 128.110964 
L 159.707883 127.392033 
L 161.198323 126.248378 
L 162.341978 124.757937 
L 163.06091 123.022283 
L 163.306124 121.159697 
z
" clip-path="url(#pabbb7cabde)" style="fill: #e61a1a"/>
    <path d="M 148.730681 156.936557 
L 149.214855 156.192345 
L 149.162471 154.644954 
L 148.604214 153.200824 
L 147.867103 152.705907 
L 130.39882 156.271605 
L 129.914648 157.015816 
L 129.967033 158.563207 
L 130.52529 160.007337 
L 131.262398 160.502255 
z
" clip-path="url(#pabbb7cabde)" style="fill: #666666"/>
    <path d="M 131.88684 159.640303 
L 131.641626 157.777717 
L 130.922694 156.042063 
L 129.779039 154.551622 
L 128.288599 153.407967 
L 126.552945 152.689036 
L 124.690358 152.443822 
L 122.827771 152.689036 
L 121.092117 153.407967 
L 119.601677 154.551622 
L 118.458022 156.042063 
L 117.73909 157.777717 
L 117.493876 159.640303 
L 117.73909 161.50289 
L 118.458022 163.238544 
L 119.601677 164.728985 
L 121.092117 165.87264 
L 122.827771 166.591571 
L 124.690358 166.836785 
L 126.552945 166.591571 
L 128.288599 165.87264 
L 129.779039 164.728985 
L 130.922694 163.238544 
L 131.641626 161.50289 
L 131.88684 159.640303 
z
" clip-path="url(#pabbb7cabde)" style="fill: #e61a1a"/>
    <path d="M 88.000267 164.537328 
L 89.365705 164.835855 
L 90.731141 163.979892 
L 91.296723 162.47085 
L 90.73114 161.192705 
L 81.996983 154.061296 
L 80.631545 153.762768 
L 79.266108 154.618731 
L 78.700526 156.127773 
L 79.26611 157.405918 
z
" clip-path="url(#pabbb7cabde)" style="fill: #666666"/>
    <path d="M 118.981896 163.009002 
L 119.466068 162.264791 
L 119.413683 160.7174 
L 118.855426 159.27327 
L 118.118318 158.778352 
L 100.650048 162.344048 
L 100.165878 163.088258 
L 100.218264 164.635649 
L 100.77652 166.079779 
L 101.513626 166.574698 
z
" clip-path="url(#pabbb7cabde)" style="fill: #666666"/>
    <path d="M 95.430019 174.025549 
L 94.797678 173.402313 
L 93.271074 173.144161 
L 91.74447 173.402313 
L 91.112129 174.025549 
L 91.112129 191.854055 
L 91.74447 192.477293 
L 93.271074 192.735447 
L 94.797678 192.477293 
L 95.430019 191.854055 
z
" clip-path="url(#pabbb7cabde)" style="fill: #666666"/>
    <path d="M 156.109642 121.159697 
L 124.690358 159.640303 
L 171.819284 166.053738 
z
" clip-path="url(#pabbb7cabde)" style="fill: #7bacf6; fill-opacity: 0.25; stroke: #4c4c4c; stroke-width: 0.8"/>
    <path d="M 102.266676 166.053738 
L 101.960159 163.725505 
L 101.061494 161.555937 
L 99.631925 159.692886 
L 97.768875 158.263318 
L 95.599307 157.364653 
L 93.271074 157.058136 
L 90.942841 157.364653 
L 88.773273 158.263318 
L 86.910223 159.692886 
L 85.480654 161.555937 
L 84.581989 163.725505 
L 84.275472 166.053738 
L 84.581989 168.381971 
L 85.480654 170.551539 
L 86.910223 172.414589 
L 88.773273 173.844158 
L 90.942841 174.742823 
L 93.271074 175.04934 
L 95.599307 174.742823 
L 97.768875 173.844158 
L 99.631925 172.414589 
L 101.061494 170.551539 
L 101.960159 168.381971 
L 102.266676 166.053738 
z
" clip-path="url(#pabbb7cabde)" style="fill: #3366e6"/>
    <path d="M 58.735991 127.573131 
L 58.306867 124.313605 
L 57.048736 121.276209 
L 55.04734 118.667939 
L 52.43907 116.666543 
L 49.401675 115.408412 
L 46.142148 114.979288 
L 42.882622 115.408412 
L 39.845226 116.666543 
L 37.236956 118.667939 
L 35.23556 121.276209 
L 33.977429 124.313605 
L 33.548305 127.573131 
L 33.977429 130.832658 
L 35.23556 133.870053 
L 37.236956 136.478323 
L 39.845226 138.479719 
L 42.882622 139.73785 
L 46.142148 140.166974 
L 49.401675 139.73785 
L 52.43907 138.479719 
L 55.04734 136.478323 
L 57.048736 133.870053 
L 58.306867 130.832658 
L 58.735991 127.573131 
z
" clip-path="url(#pabbb7cabde)" style="fill: #00cc33"/>
    <path d="M 152.993843 204.534345 
L 152.564719 201.274818 
L 151.306588 198.237423 
L 149.305192 195.629153 
L 146.696922 193.627757 
L 143.659527 192.369626 
L 140.4 191.940502 
L 137.140473 192.369626 
L 134.103078 193.627757 
L 131.494808 195.629153 
L 129.493412 198.237423 
L 128.235281 201.274818 
L 127.806157 204.534345 
L 128.235281 207.793871 
L 129.493412 210.831267 
L 131.494808 213.439537 
L 134.103078 215.440933 
L 137.140473 216.699063 
L 140.4 217.128188 
L 143.659527 216.699063 
L 146.696922 215.440933 
L 149.305192 213.439537 
L 151.306588 210.831267 
L 152.564719 207.793871 
L 152.993843 204.534345 
z
" clip-path="url(#pabbb7cabde)" style="fill: #00cc33"/>
    <path d="M 150.838835 87.576114 
L 152.204273 87.874641 
L 153.569709 87.018678 
L 154.135291 85.509636 
L 153.569708 84.231491 
L 144.835551 77.100082 
L 143.470113 76.801554 
L 142.104676 77.657517 
L 141.539094 79.166559 
L 142.104678 80.444704 
z
" clip-path="url(#pabbb7cabde)" style="fill: #666666"/>
    <path d="M 153.950697 114.892829 
L 154.583038 115.516061 
L 156.109642 115.774212 
L 157.636246 115.516061 
L 158.268587 114.892829 
L 158.268587 97.06435 
L 157.636246 96.441121 
L 156.109642 96.18297 
L 154.583038 96.441121 
L 153.950697 97.06435 
z
" clip-path="url(#pabbb7cabde)" style="fill: #666666"/>
    <path d="M 163.488601 85.382837 
L 163.004425 86.127048 
L 163.056809 87.67444 
L 163.615067 89.11857 
L 164.352179 89.613487 
L 181.820475 86.047786 
L 182.304654 85.303574 
L 182.252271 83.756182 
L 181.694012 82.312052 
L 180.956898 81.817136 
z
" clip-path="url(#pabbb7cabde)" style="fill: #666666"/>
    <path d="M 165.105244 89.092524 
L 164.798727 86.764291 
L 163.900062 84.594723 
L 162.470493 82.731673 
L 160.607443 81.302104 
L 158.437875 80.403439 
L 156.109642 80.096922 
L 153.781409 80.403439 
L 151.611841 81.302104 
L 149.748791 82.731673 
L 148.319222 84.594723 
L 147.420557 86.764291 
L 147.11404 89.092524 
L 147.420557 91.420757 
L 148.319222 93.590325 
L 149.748791 95.453376 
L 151.611841 96.882944 
L 153.781409 97.781609 
L 156.109642 98.088127 
L 158.437875 97.781609 
L 160.607443 96.882944 
L 162.470493 95.453376 
L 163.900062 93.590325 
L 164.798727 91.420757 
L 165.105244 89.092524 
z
" clip-path="url(#pabbb7cabde)" style="fill: #3366e6"/>
    <path d="M 215.832411 127.573131 
L 215.403287 124.313605 
L 214.145156 121.276209 
L 212.14376 118.667939 
L 209.53549 116.666543 
L 206.498094 115.408412 
L 203.238568 114.979288 
L 199.979041 115.408412 
L 196.941646 116.666543 
L 194.333376 118.667939 
L 192.33198 121.276209 
L 191.073849 124.313605 
L 190.644725 127.573131 
L 191.073849 130.832658 
L 192.33198 133.870053 
L 194.333376 136.478323 
L 196.941646 138.479719 
L 199.979041 139.73785 
L 203.238568 140.166974 
L 206.498094 139.73785 
L 209.53549 138.479719 
L 212.14376 136.478323 
L 214.145156 133.870053 
L 215.403287 130.832658 
L 215.832411 127.573131 
z
" clip-path="url(#pabbb7cabde)" style="fill: #00cc33"/>
    <path d="M 84.757914 89.092524 
L 84.5127 87.229938 
L 83.793768 85.494283 
L 82.650113 84.003843 
L 81.159673 82.860188 
L 79.424019 82.141256 
L 77.561432 81.896042 
L 75.698845 82.141256 
L 73.963191 82.860188 
L 72.472751 84.003843 
L 71.329096 85.494283 
L 70.610164 87.229938 
L 70.36495 89.092524 
L 70.610164 90.955111 
L 71.329096 92.690765 
L 72.472751 94.181205 
L 73.963191 95.32486 
L 75.698845 96.043792 
L 77.561432 96.289006 
L 79.424019 96.043792 
L 81.159673 95.32486 
L 82.650113 94.181205 
L 83.793768 92.690765 
L 84.5127 90.955111 
L 84.757914 89.092524 
z
" clip-path="url(#pabbb7cabde)" style="fill: #e61a1a"/>
    <path d="M 161.380461 154.743289 
L 160.015025 154.444763 
L 158.649589 155.300727 
L 158.084007 156.809769 
L 158.649588 158.087912 
L 167.383714 165.219295 
L 168.749149 165.517821 
L 170.114584 164.661857 
L 170.680167 163.152815 
L 170.114587 161.874673 
z
" clip-path="url(#pabbb7cabde)" style="fill: #666666"/>
    <path d="M 179.015766 166.053738 
L 178.770552 164.191151 
L 178.05162 162.455497 
L 176.907965 160.965057 
L 175.417525 159.821402 
L 173.681871 159.10247 
L 171.819284 158.857256 
L 169.956697 159.10247 
L 168.221043 159.821402 
L 166.730603 160.965057 
L 165.586948 162.455497 
L 164.868016 164.191151 
L 164.622802 166.053738 
L 164.868016 167.916325 
L 165.586948 169.651979 
L 166.730603 171.142419 
L 168.221043 172.286074 
L 169.956697 173.005006 
L 171.819284 173.25022 
L 173.681871 173.005006 
L 175.417525 172.286074 
L 176.907965 171.142419 
L 178.05162 169.651979 
L 178.770552 167.916325 
L 179.015766 166.053738 
z
" clip-path="url(#pabbb7cabde)" style="fill: #e61a1a"/>
    <path d="M 121.574559 50.611917 
L 121.145435 47.352391 
L 119.887304 44.314995 
L 117.885908 41.706725 
L 115.277638 39.705329 
L 112.240243 38.447199 
L 108.980716 38.018074 
L 105.721189 38.447199 
L 102.683794 39.705329 
L 100.075524 41.706725 
L 98.074128 44.314995 
L 96.815997 47.352391 
L 96.386873 50.611917 
L 96.815997 53.871444 
L 98.074128 56.908839 
L 100.075524 59.517109 
L 102.683794 61.518505 
L 105.721189 62.776636 
L 108.980716 63.205761 
L 112.240243 62.776636 
L 115.277638 61.518505 
L 117.885908 59.517109 
L 119.887304 56.908839 
L 121.145435 53.871444 
L 121.574559 50.611917 
z
" clip-path="url(#pabbb7cabde)" style="fill: #00cc33"/>
    <path d="M 148.730683 92.802211 
L 149.214859 92.058 
L 149.162475 90.510609 
L 148.604217 89.066478 
L 147.867105 88.571561 
L 130.398818 92.13726 
L 129.914645 92.881471 
L 129.96703 94.428862 
L 130.525287 95.872993 
L 131.262396 96.36791 
z
" clip-path="url(#pabbb7cabde)" style="fill: #666666"/>
    <path d="M 131.88684 95.505959 
L 131.641626 93.643372 
L 130.922694 91.907718 
L 129.779039 90.417277 
L 128.288599 89.273622 
L 126.552945 88.554691 
L 124.690358 88.309477 
L 122.827771 88.554691 
L 121.092117 89.273622 
L 119.601677 90.417277 
L 118.458022 91.907718 
L 117.73909 93.643372 
L 117.493876 95.505959 
L 117.73909 97.368545 
L 118.458022 99.1042 
L 119.601677 100.59464 
L 121.092117 101.738295 
L 122.827771 102.457226 
L 124.690358 102.702441 
L 126.552945 102.457226 
L 128.288599 101.738295 
L 129.779039 100.59464 
L 130.922694 99.1042 
L 131.641626 97.368545 
L 131.88684 95.505959 
z
" clip-path="url(#pabbb7cabde)" style="fill: #e61a1a"/>
    <path d="M 91.112129 158.081927 
L 91.74447 158.705163 
L 93.271074 158.963315 
L 94.797678 158.705163 
L 95.430019 158.081927 
L 95.430019 140.253431 
L 94.797678 139.630198 
L 93.271074 139.372046 
L 91.74447 139.630198 
L 91.112129 140.253431 
z
" clip-path="url(#pabbb7cabde)" style="fill: #666666"/>
    <path d="M 100.467556 133.986566 
L 100.222342 132.123979 
L 99.50341 130.388325 
L 98.359755 128.897884 
L 96.869315 127.754229 
L 95.133661 127.035298 
L 93.271074 126.790084 
L 91.408487 127.035298 
L 89.672833 127.754229 
L 88.182393 128.897884 
L 87.038738 130.388325 
L 86.319806 132.123979 
L 86.074592 133.986566 
L 86.319806 135.849152 
L 87.038738 137.584806 
L 88.182393 139.075247 
L 89.672833 140.218902 
L 91.408487 140.937833 
L 93.271074 141.183047 
L 95.133661 140.937833 
L 96.869315 140.218902 
L 98.359755 139.075247 
L 99.50341 137.584806 
L 100.222342 135.849152 
L 100.467556 133.986566 
z
" clip-path="url(#pabbb7cabde)" style="fill: #e61a1a"/>
    <path d="M 194.725408 210.947779 
L 194.480194 209.085193 
L 193.761262 207.349538 
L 192.617607 205.859098 
L 191.127167 204.715443 
L 189.391513 203.996512 
L 187.528926 203.751297 
L 185.666339 203.996512 
L 183.930685 204.715443 
L 182.440245 205.859098 
L 181.29659 207.349538 
L 180.577658 209.085193 
L 180.332444 210.947779 
L 180.577658 212.810366 
L 181.29659 214.54602 
L 182.440245 216.036461 
L 183.930685 217.180116 
L 185.666339 217.899047 
L 187.528926 218.144261 
L 189.391513 217.899047 
L 191.127167 217.180116 
L 192.617607 216.036461 
L 193.761262 214.54602 
L 194.480194 212.810366 
L 194.725408 210.947779 
z
" clip-path="url(#pabbb7cabde)" style="fill: #e61a1a"/>
    <path d="M 85.8921 169.763428 
L 86.37627 169.019218 
L 86.323884 167.471827 
L 85.765628 166.027697 
L 85.028522 165.532778 
L 67.560262 169.098472 
L 67.076095 169.842682 
L 67.128482 171.390072 
L 67.686736 172.834203 
L 68.42384 173.329122 
z
" clip-path="url(#pabbb7cabde)" style="fill: #666666"/>
    <path d="M 69.048272 172.467172 
L 68.803058 170.604586 
L 68.084126 168.868931 
L 66.940471 167.378491 
L 65.450031 166.234836 
L 63.714377 165.515905 
L 61.85179 165.270691 
L 59.989203 165.515905 
L 58.253549 166.234836 
L 56.763109 167.378491 
L 55.619454 168.868931 
L 54.900522 170.604586 
L 54.655308 172.467172 
L 54.900522 174.329759 
L 55.619454 176.065413 
L 56.763109 177.555854 
L 58.253549 178.699509 
L 59.989203 179.41844 
L 61.85179 179.663654 
L 63.714377 179.41844 
L 65.450031 178.699509 
L 66.940471 177.555854 
L 68.084126 176.065413 
L 68.803058 174.329759 
L 69.048272 172.467172 
z
" clip-path="url(#pabbb7cabde)" style="fill: #e61a1a"/>
    <path d="M 153.950697 81.120698 
L 154.583038 81.743928 
L 156.109642 82.002078 
L 157.636246 81.743928 
L 158.268587 81.120698 
L 158.268587 63.292229 
L 157.636246 62.669002 
L 156.109642 62.410853 
L 154.583038 62.669002 
L 153.950697 63.292229 
z
" clip-path="url(#pabbb7cabde)" style="fill: #666666"/>
    <path d="M 163.306124 57.025352 
L 163.06091 55.162765 
L 162.341978 53.427111 
L 161.198323 51.93667 
L 159.707883 50.793015 
L 157.972229 50.074084 
L 156.109642 49.82887 
L 154.247055 50.074084 
L 152.511401 50.793015 
L 151.020961 51.93667 
L 149.877306 53.427111 
L 149.158374 55.162765 
L 148.91316 57.025352 
L 149.158374 58.887938 
L 149.877306 60.623593 
L 151.020961 62.114033 
L 152.511401 63.257688 
L 154.247055 63.976619 
L 156.109642 64.221834 
L 157.972229 63.976619 
L 159.707883 63.257688 
L 161.198323 62.114033 
L 162.341978 60.623593 
L 163.06091 58.887938 
L 163.306124 57.025352 
z
" clip-path="url(#pabbb7cabde)" style="fill: #e61a1a"/>
    <path d="M 226.144692 172.467172 
L 225.899478 170.604586 
L 225.180546 168.868931 
L 224.036891 167.378491 
L 222.546451 166.234836 
L 220.810797 165.515905 
L 218.94821 165.270691 
L 217.085623 165.515905 
L 215.349969 166.234836 
L 213.859529 167.378491 
L 212.715874 168.868931 
L 211.996942 170.604586 
L 211.751728 172.467172 
L 211.996942 174.329759 
L 212.715874 176.065413 
L 213.859529 177.555854 
L 215.349969 178.699509 
L 217.085623 179.41844 
L 218.94821 179.663654 
L 220.810797 179.41844 
L 222.546451 178.699509 
L 224.036891 177.555854 
L 225.180546 176.065413 
L 225.899478 174.329759 
L 226.144692 172.467172 
z
" clip-path="url(#pabbb7cabde)" style="fill: #e61a1a"/>
    <path d="M 88.00028 100.402993 
L 89.365719 100.701522 
L 90.731156 99.845559 
L 91.296737 98.336516 
L 90.731153 97.058371 
L 81.996973 89.926943 
L 80.631533 89.628414 
L 79.266096 90.484376 
L 78.700515 91.993419 
L 79.2661 93.271565 
z
" clip-path="url(#pabbb7cabde)" style="fill: #666666"/>
    <path d="M 100.650045 98.209703 
L 100.165874 98.953914 
L 100.21826 100.501305 
L 100.776516 101.945435 
L 101.513623 102.440353 
L 118.981898 98.874657 
L 119.466071 98.130446 
L 119.413686 96.583055 
L 118.855429 95.138924 
L 118.11832 94.644007 
z
" clip-path="url(#pabbb7cabde)" style="fill: #666666"/>
    <path d="M 95.430019 109.891217 
L 94.797678 109.267986 
L 93.271074 109.009836 
L 91.74447 109.267986 
L 91.112129 109.891217 
L 91.112129 127.7197 
L 91.74447 128.342933 
L 93.271074 128.601085 
L 94.797678 128.342933 
L 95.430019 127.7197 
z
" clip-path="url(#pabbb7cabde)" style="fill: #666666"/>
    <path d="M 102.266676 101.919393 
L 101.960159 99.59116 
L 101.061494 97.421592 
L 99.631925 95.558542 
L 97.768875 94.128973 
L 95.599307 93.230308 
L 93.271074 92.923791 
L 90.942841 93.230308 
L 88.773273 94.128973 
L 86.910223 95.558542 
L 85.480654 97.421592 
L 84.581989 99.59116 
L 84.275472 101.919393 
L 84.581989 104.247626 
L 85.480654 106.417194 
L 86.910223 108.280245 
L 88.773273 109.709813 
L 90.942841 110.608478 
L 93.271074 110.914995 
L 95.599307 110.608478 
L 97.768875 109.709813 
L 99.631925 108.280245 
L 101.061494 106.417194 
L 101.960159 104.247626 
L 102.266676 101.919393 
z
" clip-path="url(#pabbb7cabde)" style="fill: #3366e6"/>
    <path d="M 152.993843 140.4 
L 152.564719 137.140473 
L 151.306588 134.103078 
L 149.305192 131.494808 
L 146.696922 129.493412 
L 143.659527 128.235281 
L 140.4 127.806157 
L 137.140473 128.235281 
L 134.103078 129.493412 
L 131.494808 131.494808 
L 129.493412 134.103078 
L 128.235281 137.140473 
L 127.806157 140.4 
L 128.235281 143.659527 
L 129.493412 146.696922 
L 131.494808 149.305192 
L 134.103078 151.306588 
L 137.140473 152.564719 
L 140.4 152.993843 
L 143.659527 152.564719 
L 146.696922 151.306588 
L 149.305192 149.305192 
L 151.306588 146.696922 
L 152.564719 143.659527 
L 152.993843 140.4 
z
" clip-path="url(#pabbb7cabde)" style="fill: #00cc33"/>
    <path d="M 98.541881 167.570148 
L 97.176443 167.271621 
L 95.811007 168.127584 
L 95.245425 169.636626 
L 95.811008 170.914771 
L 104.545155 178.046172 
L 105.910592 178.344699 
L 107.276028 177.488735 
L 107.841611 175.979694 
L 107.276028 174.70155 
z
" clip-path="url(#pabbb7cabde)" style="fill: #666666"/>
    <path d="M 116.177198 178.880607 
L 115.931984 177.01802 
L 115.213052 175.282366 
L 114.069397 173.791926 
L 112.578957 172.648271 
L 110.843303 171.929339 
L 108.980716 171.684125 
L 107.118129 171.929339 
L 105.382475 172.648271 
L 103.892035 173.791926 
L 102.74838 175.282366 
L 102.029448 177.01802 
L 101.784234 178.880607 
L 102.029448 180.743194 
L 102.74838 182.478848 
L 103.892035 183.969288 
L 105.382475 185.112943 
L 107.118129 185.831875 
L 108.980716 186.077089 
L 110.843303 185.831875 
L 112.578957 185.112943 
L 114.069397 183.969288 
L 115.213052 182.478848 
L 115.931984 180.743194 
L 116.177198 178.880607 
z
" clip-path="url(#pabbb7cabde)" style="fill: #e61a1a"/>
    <path d="M 176.254854 166.888181 
L 174.889419 166.589655 
L 173.523984 167.445619 
L 172.958401 168.954661 
L 173.523981 170.232803 
L 182.258095 177.364177 
L 183.623529 177.662701 
L 184.988964 176.806737 
L 185.554547 175.297696 
L 184.988967 174.019554 
z
" clip-path="url(#pabbb7cabde)" style="fill: #666666"/>
    <path d="M 194.907882 175.17092 
L 194.423706 175.915132 
L 194.476089 177.462523 
L 195.034347 178.906653 
L 195.77146 179.40157 
L 213.239761 175.835868 
L 213.72394 175.091656 
L 213.671558 173.544265 
L 213.113299 172.100135 
L 212.376184 171.605218 
z
" clip-path="url(#pabbb7cabde)" style="fill: #666666"/>
    <path d="M 189.687871 186.852415 
L 189.05553 186.229179 
L 187.528926 185.971026 
L 186.002322 186.229179 
L 185.369981 186.852415 
L 185.369981 204.680926 
L 186.002322 205.304165 
L 187.528926 205.562319 
L 189.05553 205.304165 
L 189.687871 204.680926 
z
" clip-path="url(#pabbb7cabde)" style="fill: #666666"/>
    <path d="M 196.524528 178.880607 
L 196.218011 176.552374 
L 195.319346 174.382806 
L 193.889777 172.519755 
L 192.026727 171.090187 
L 189.857159 170.191522 
L 187.528926 169.885005 
L 185.200693 170.191522 
L 183.031125 171.090187 
L 181.168075 172.519755 
L 179.738506 174.382806 
L 178.839841 176.552374 
L 178.533324 178.880607 
L 178.839841 181.20884 
L 179.738506 183.378408 
L 181.168075 185.241458 
L 183.031125 186.671027 
L 185.200693 187.569692 
L 187.528926 187.876209 
L 189.857159 187.569692 
L 192.026727 186.671027 
L 193.889777 185.241458 
L 195.319346 183.378408 
L 196.218011 181.20884 
L 196.524528 178.880607 
z
" clip-path="url(#pabbb7cabde)" style="fill: #3366e6"/>
    <path d="M 161.380449 90.608934 
L 160.015011 90.310407 
L 158.649575 91.16637 
L 158.083993 92.675412 
L 158.649576 93.953557 
L 167.383723 101.084959 
L 168.74916 101.383485 
L 170.114596 100.527521 
L 170.680179 99.01848 
L 170.114596 97.740336 
z
" clip-path="url(#pabbb7cabde)" style="fill: #666666"/>
    <path d="M 179.015766 101.919393 
L 178.770552 100.056806 
L 178.05162 98.321152 
L 176.907965 96.830712 
L 175.417525 95.687057 
L 173.681871 94.968125 
L 171.819284 94.722911 
L 169.956697 94.968125 
L 168.221043 95.687057 
L 166.730603 96.830712 
L 165.586948 98.321152 
L 164.868016 100.056806 
L 164.622802 101.919393 
L 164.868016 103.78198 
L 165.586948 105.517634 
L 166.730603 107.008074 
L 168.221043 108.151729 
L 169.956697 108.870661 
L 171.819284 109.115875 
L 173.681871 108.870661 
L 175.417525 108.151729 
L 176.907965 107.008074 
L 178.05162 105.517634 
L 178.770552 103.78198 
L 179.015766 101.919393 
z
" clip-path="url(#pabbb7cabde)" style="fill: #e61a1a"/>
    <path d="M 58.735991 63.438786 
L 58.306867 60.17926 
L 57.048736 57.141864 
L 55.04734 54.533594 
L 52.43907 52.532198 
L 49.401675 51.274068 
L 46.142148 50.844943 
L 42.882622 51.274068 
L 39.845226 52.532198 
L 37.236956 54.533594 
L 35.23556 57.141864 
L 33.977429 60.17926 
L 33.548305 63.438786 
L 33.977429 66.698313 
L 35.23556 69.735708 
L 37.236956 72.343978 
L 39.845226 74.345374 
L 42.882622 75.603505 
L 46.142148 76.03263 
L 49.401675 75.603505 
L 52.43907 74.345374 
L 55.04734 72.343978 
L 57.048736 69.735708 
L 58.306867 66.698313 
L 58.735991 63.438786 
z
" clip-path="url(#pabbb7cabde)" style="fill: #00cc33"/>
    <path d="M 90.155275 217.361214 
L 89.726151 214.101687 
L 88.46802 211.064292 
L 86.466624 208.456022 
L 83.858354 206.454626 
L 80.820959 205.196495 
L 77.561432 204.76737 
L 74.301906 205.196495 
L 71.26451 206.454626 
L 68.65624 208.456022 
L 66.654844 211.064292 
L 65.396713 214.101687 
L 64.967589 217.361214 
L 65.396713 220.62074 
L 66.654844 223.658136 
L 68.65624 226.266406 
L 71.26451 228.267802 
L 74.301906 229.525932 
L 77.561432 229.955057 
L 80.820959 229.525932 
L 83.858354 228.267802 
L 86.466624 226.266406 
L 88.46802 223.658136 
L 89.726151 220.62074 
L 90.155275 217.361214 
z
" clip-path="url(#pabbb7cabde)" style="fill: #00cc33"/>
    <path d="M 247.251695 217.361214 
L 246.822571 214.101687 
L 245.56444 211.064292 
L 243.563044 208.456022 
L 240.954774 206.454626 
L 237.917378 205.196495 
L 234.657852 204.76737 
L 231.398325 205.196495 
L 228.36093 206.454626 
L 225.75266 208.456022 
L 223.751264 211.064292 
L 222.493133 214.101687 
L 222.064009 217.361214 
L 222.493133 220.62074 
L 223.751264 223.658136 
L 225.75266 226.266406 
L 228.36093 228.267802 
L 231.398325 229.525932 
L 234.657852 229.955057 
L 237.917378 229.525932 
L 240.954774 228.267802 
L 243.563044 226.266406 
L 245.56444 223.658136 
L 246.822571 220.62074 
L 247.251695 217.361214 
z
" clip-path="url(#pabbb7cabde)" style="fill: #00cc33"/>
    <path d="M 215.832411 63.438786 
L 215.403287 60.17926 
L 214.145156 57.141864 
L 212.14376 54.533594 
L 209.53549 52.532198 
L 206.498094 51.274068 
L 203.238568 50.844943 
L 199.979041 51.274068 
L 196.941646 52.532198 
L 194.333376 54.533594 
L 192.33198 57.141864 
L 191.073849 60.17926 
L 190.644725 63.438786 
L 191.073849 66.698313 
L 192.33198 69.735708 
L 194.333376 72.343978 
L 196.941646 74.345374 
L 199.979041 75.603505 
L 203.238568 76.03263 
L 206.498094 75.603505 
L 209.53549 74.345374 
L 212.14376 72.343978 
L 214.145156 69.735708 
L 215.403287 66.698313 
L 215.832411 63.438786 
z
" clip-path="url(#pabbb7cabde)" style="fill: #00cc33"/>
    <path d="M 91.112129 93.947569 
L 91.74447 94.5708 
L 93.271074 94.828951 
L 94.797678 94.5708 
L 95.430019 93.947569 
L 95.430019 76.119096 
L 94.797678 75.495868 
L 93.271074 75.237719 
L 91.74447 75.495868 
L 91.112129 76.119096 
z
" clip-path="url(#pabbb7cabde)" style="fill: #666666"/>
    <path d="M 100.467556 69.852221 
L 100.222342 67.989634 
L 99.50341 66.25398 
L 98.359755 64.763539 
L 96.869315 63.619884 
L 95.133661 62.900953 
L 93.271074 62.655739 
L 91.408487 62.900953 
L 89.672833 63.619884 
L 88.182393 64.763539 
L 87.038738 66.25398 
L 86.319806 67.989634 
L 86.074592 69.852221 
L 86.319806 71.714807 
L 87.038738 73.450462 
L 88.182393 74.940902 
L 89.672833 76.084557 
L 91.408487 76.803488 
L 93.271074 77.048703 
L 95.133661 76.803488 
L 96.869315 76.084557 
L 98.359755 74.940902 
L 99.50341 73.450462 
L 100.222342 71.714807 
L 100.467556 69.852221 
z
" clip-path="url(#pabbb7cabde)" style="fill: #e61a1a"/>
    <path d="M 185.369981 170.908799 
L 186.002322 171.532035 
L 187.528926 171.790188 
L 189.05553 171.532035 
L 189.687871 170.908799 
L 189.687871 153.080298 
L 189.05553 152.457064 
L 187.528926 152.198912 
L 186.002322 152.457064 
L 185.369981 153.080298 
z
" clip-path="url(#pabbb7cabde)" style="fill: #666666"/>
    <path d="M 194.725408 146.813434 
L 194.480194 144.950848 
L 193.761262 143.215194 
L 192.617607 141.724753 
L 191.127167 140.581098 
L 189.391513 139.862167 
L 187.528926 139.616953 
L 185.666339 139.862167 
L 183.930685 140.581098 
L 182.440245 141.724753 
L 181.29659 143.215194 
L 180.577658 144.950848 
L 180.332444 146.813434 
L 180.577658 148.676021 
L 181.29659 150.411675 
L 182.440245 151.902116 
L 183.930685 153.045771 
L 185.666339 153.764702 
L 187.528926 154.009916 
L 189.391513 153.764702 
L 191.127167 153.045771 
L 192.617607 151.902116 
L 193.761262 150.411675 
L 194.480194 148.676021 
L 194.725408 146.813434 
z
" clip-path="url(#pabbb7cabde)" style="fill: #e61a1a"/>
    <path d="M 180.14997 182.590294 
L 180.634146 181.846082 
L 180.581763 180.298691 
L 180.023505 178.854561 
L 179.286392 178.359644 
L 161.8181 181.925344 
L 161.333926 182.669555 
L 161.386311 184.216946 
L 161.944568 185.661076 
L 162.681678 186.155994 
z
" clip-path="url(#pabbb7cabde)" style="fill: #666666"/>
    <path d="M 163.306124 185.294041 
L 163.06091 183.431455 
L 162.341978 181.6958 
L 161.198323 180.20536 
L 159.707883 179.061705 
L 157.972229 178.342774 
L 156.109642 178.097559 
L 154.247055 178.342774 
L 152.511401 179.061705 
L 151.020961 180.20536 
L 149.877306 181.6958 
L 149.158374 183.431455 
L 148.91316 185.294041 
L 149.158374 187.156628 
L 149.877306 188.892282 
L 151.020961 190.382723 
L 152.511401 191.526378 
L 154.247055 192.245309 
L 156.109642 192.490523 
L 157.972229 192.245309 
L 159.707883 191.526378 
L 161.198323 190.382723 
L 162.341978 188.892282 
L 163.06091 187.156628 
L 163.306124 185.294041 
z
" clip-path="url(#pabbb7cabde)" style="fill: #e61a1a"/>
    <path d="M 131.88684 223.774648 
L 131.641626 221.912062 
L 130.922694 220.176407 
L 129.779039 218.685967 
L 128.288599 217.542312 
L 126.552945 216.823381 
L 124.690358 216.578166 
L 122.827771 216.823381 
L 121.092117 217.542312 
L 119.601677 218.685967 
L 118.458022 220.176407 
L 117.73909 221.912062 
L 117.493876 223.774648 
L 117.73909 225.637235 
L 118.458022 227.372889 
L 119.601677 228.86333 
L 121.092117 230.006985 
L 122.827771 230.725916 
L 124.690358 230.97113 
L 126.552945 230.725916 
L 128.288599 230.006985 
L 129.779039 228.86333 
L 130.922694 227.372889 
L 131.641626 225.637235 
L 131.88684 223.774648 
z
" clip-path="url(#pabbb7cabde)" style="fill: #e61a1a"/>
    <path d="M 85.892103 105.629083 
L 86.376274 104.884872 
L 86.323888 103.337482 
L 85.765632 101.893351 
L 85.028525 101.398433 
L 67.56026 104.964127 
L 67.076092 105.708337 
L 67.128479 107.255728 
L 67.686734 108.699859 
L 68.423838 109.194777 
z
" clip-path="url(#pabbb7cabde)" style="fill: #666666"/>
    <path d="M 69.048272 108.332828 
L 68.803058 106.470241 
L 68.084126 104.734587 
L 66.940471 103.244146 
L 65.450031 102.100491 
L 63.714377 101.38156 
L 61.85179 101.136346 
L 59.989203 101.38156 
L 58.253549 102.100491 
L 56.763109 103.244146 
L 55.619454 104.734587 
L 54.900522 106.470241 
L 54.655308 108.332828 
L 54.900522 110.195414 
L 55.619454 111.931069 
L 56.763109 113.421509 
L 58.253549 114.565164 
L 59.989203 115.284095 
L 61.85179 115.529309 
L 63.714377 115.284095 
L 65.450031 114.565164 
L 66.940471 113.421509 
L 68.084126 111.931069 
L 68.803058 110.195414 
L 69.048272 108.332828 
z
" clip-path="url(#pabbb7cabde)" style="fill: #e61a1a"/>
    <path d="M 226.144692 108.332828 
L 225.899478 106.470241 
L 225.180546 104.734587 
L 224.036891 103.244146 
L 222.546451 102.100491 
L 220.810797 101.38156 
L 218.94821 101.136346 
L 217.085623 101.38156 
L 215.349969 102.100491 
L 213.859529 103.244146 
L 212.715874 104.734587 
L 211.996942 106.470241 
L 211.751728 108.332828 
L 211.996942 110.195414 
L 212.715874 111.931069 
L 213.859529 113.421509 
L 215.349969 114.565164 
L 217.085623 115.284095 
L 218.94821 115.529309 
L 220.810797 115.284095 
L 222.546451 114.565164 
L 224.036891 113.421509 
L 225.180546 111.931069 
L 225.899478 110.195414 
L 226.144692 108.332828 
z
" clip-path="url(#pabbb7cabde)" style="fill: #e61a1a"/>
    <path d="M 98.541868 103.435793 
L 97.176429 103.137265 
L 95.810992 103.993227 
L 95.245411 105.50227 
L 95.810995 106.780416 
L 104.545165 113.911835 
L 105.910603 114.210363 
L 107.27604 113.3544 
L 107.841622 111.845358 
L 107.276038 110.567213 
z
" clip-path="url(#pabbb7cabde)" style="fill: #666666"/>
    <path d="M 116.177198 114.746262 
L 115.931984 112.883675 
L 115.213052 111.148021 
L 114.069397 109.657581 
L 112.578957 108.513926 
L 110.843303 107.794994 
L 108.980716 107.54978 
L 107.118129 107.794994 
L 105.382475 108.513926 
L 103.892035 109.657581 
L 102.74838 111.148021 
L 102.029448 112.883675 
L 101.784234 114.746262 
L 102.029448 116.608849 
L 102.74838 118.344503 
L 103.892035 119.834943 
L 105.382475 120.978598 
L 107.118129 121.69753 
L 108.980716 121.942744 
L 110.843303 121.69753 
L 112.578957 120.978598 
L 114.069397 119.834943 
L 115.213052 118.344503 
L 115.931984 116.608849 
L 116.177198 114.746262 
z
" clip-path="url(#pabbb7cabde)" style="fill: #e61a1a"/>
    <path d="M 192.799757 180.397037 
L 191.434323 180.098513 
L 190.068888 180.954477 
L 189.503305 182.463518 
L 190.068885 183.74166 
L 198.802988 190.873025 
L 200.168421 191.171549 
L 201.533856 190.315585 
L 202.09944 188.806544 
L 201.533861 187.528403 
z
" clip-path="url(#pabbb7cabde)" style="fill: #666666"/>
    <path d="M 210.43505 191.707476 
L 210.189836 189.844889 
L 209.470904 188.109235 
L 208.327249 186.618795 
L 206.836809 185.47514 
L 205.101155 184.756208 
L 203.238568 184.510994 
L 201.375981 184.756208 
L 199.640327 185.47514 
L 198.149887 186.618795 
L 197.006232 188.109235 
L 196.2873 189.844889 
L 196.042086 191.707476 
L 196.2873 193.570062 
L 197.006232 195.305717 
L 198.149887 196.796157 
L 199.640327 197.939812 
L 201.375981 198.658744 
L 203.238568 198.903958 
L 205.101155 198.658744 
L 206.836809 197.939812 
L 208.327249 196.796157 
L 209.470904 195.305717 
L 210.189836 193.570062 
L 210.43505 191.707476 
z
" clip-path="url(#pabbb7cabde)" style="fill: #e61a1a"/>
    <path d="M 184.413127 230.188083 
L 183.984003 226.928556 
L 182.725872 223.891161 
L 180.724476 221.282891 
L 178.116206 219.281495 
L 175.078811 218.023364 
L 171.819284 217.594239 
L 168.559757 218.023364 
L 165.522362 219.281495 
L 162.914092 221.282891 
L 160.912696 223.891161 
L 159.654565 226.928556 
L 159.225441 230.188083 
L 159.654565 233.447609 
L 160.912696 236.485005 
L 162.914092 239.093275 
L 165.522362 241.094671 
L 168.559757 242.352801 
L 171.819284 242.781926 
L 175.078811 242.352801 
L 178.116206 241.094671 
L 180.724476 239.093275 
L 182.725872 236.485005 
L 183.984003 233.447609 
L 184.413127 230.188083 
z
" clip-path="url(#pabbb7cabde)" style="fill: #00cc33"/>
    <path d="M 247.251695 153.226869 
L 246.822571 149.967342 
L 245.56444 146.929947 
L 243.563044 144.321677 
L 240.954774 142.320281 
L 237.917378 141.06215 
L 234.657852 140.633026 
L 231.398325 141.06215 
L 228.36093 142.320281 
L 225.75266 144.321677 
L 223.751264 146.929947 
L 222.493133 149.967342 
L 222.064009 153.226869 
L 222.493133 156.486395 
L 223.751264 159.523791 
L 225.75266 162.132061 
L 228.36093 164.133457 
L 231.398325 165.391588 
L 234.657852 165.820712 
L 237.917378 165.391588 
L 240.954774 164.133457 
L 243.563044 162.132061 
L 245.56444 159.523791 
L 246.822571 156.486395 
L 247.251695 153.226869 
z
" clip-path="url(#pabbb7cabde)" style="fill: #00cc33"/>
    <path d="M 90.155275 153.226869 
L 89.726151 149.967342 
L 88.46802 146.929947 
L 86.466624 144.321677 
L 83.858354 142.320281 
L 80.820959 141.06215 
L 77.561432 140.633026 
L 74.301906 141.06215 
L 71.26451 142.320281 
L 68.65624 144.321677 
L 66.654844 146.929947 
L 65.396713 149.967342 
L 64.967589 153.226869 
L 65.396713 156.486395 
L 66.654844 159.523791 
L 68.65624 162.132061 
L 71.26451 164.133457 
L 74.301906 165.391588 
L 77.561432 165.820712 
L 80.820959 165.391588 
L 83.858354 164.133457 
L 86.466624 162.132061 
L 88.46802 159.523791 
L 89.726151 156.486395 
L 90.155275 153.226869 
z
" clip-path="url(#pabbb7cabde)" style="fill: #00cc33"/>
    <path d="M 119.419539 190.191056 
L 120.784975 190.489582 
L 122.150411 189.633618 
L 122.715993 188.124576 
L 122.150412 186.846433 
L 113.416277 179.715041 
L 112.05084 179.416515 
L 110.685404 180.272479 
L 110.119821 181.78152 
L 110.685404 183.059664 
z
" clip-path="url(#pabbb7cabde)" style="fill: #666666"/>
    <path d="M 132.069327 187.997787 
L 131.585155 188.741997 
L 131.637541 190.289388 
L 132.195797 191.733519 
L 132.932905 192.228437 
L 150.401184 188.662739 
L 150.885358 187.918528 
L 150.832973 186.371137 
L 150.274716 184.927007 
L 149.537606 184.432089 
z
" clip-path="url(#pabbb7cabde)" style="fill: #666666"/>
    <path d="M 126.849303 199.679282 
L 126.216962 199.056044 
L 124.690358 198.797891 
L 123.163754 199.056044 
L 122.531413 199.679282 
L 122.531413 217.507797 
L 123.163754 218.131037 
L 124.690358 218.389191 
L 126.216962 218.131037 
L 126.849303 217.507797 
z
" clip-path="url(#pabbb7cabde)" style="fill: #666666"/>
    <path d="M 133.68596 191.707476 
L 133.379443 189.379243 
L 132.480778 187.209675 
L 131.051209 185.346624 
L 129.188159 183.917056 
L 127.018591 183.018391 
L 124.690358 182.711873 
L 122.362125 183.018391 
L 120.192557 183.917056 
L 118.329507 185.346624 
L 116.899938 187.209675 
L 116.001273 189.379243 
L 115.694756 191.707476 
L 116.001273 194.035709 
L 116.899938 196.205277 
L 118.329507 198.068327 
L 120.192557 199.497896 
L 122.362125 200.396561 
L 124.690358 200.703078 
L 127.018591 200.396561 
L 129.188159 199.497896 
L 131.051209 198.068327 
L 132.480778 196.205277 
L 133.379443 194.035709 
L 133.68596 191.707476 
z
" clip-path="url(#pabbb7cabde)" style="fill: #3366e6"/>
    <path d="M 152.993843 76.265655 
L 152.564719 73.006129 
L 151.306588 69.968733 
L 149.305192 67.360463 
L 146.696922 65.359067 
L 143.659527 64.100937 
L 140.4 63.671812 
L 137.140473 64.100937 
L 134.103078 65.359067 
L 131.494808 67.360463 
L 129.493412 69.968733 
L 128.235281 73.006129 
L 127.806157 76.265655 
L 128.235281 79.525182 
L 129.493412 82.562577 
L 131.494808 85.170847 
L 134.103078 87.172243 
L 137.140473 88.430374 
L 140.4 88.859498 
L 143.659527 88.430374 
L 146.696922 87.172243 
L 149.305192 85.170847 
L 151.306588 82.562577 
L 152.564719 79.525182 
L 152.993843 76.265655 
z
" clip-path="url(#pabbb7cabde)" style="fill: #00cc33"/>
    <path d="M 182.258107 113.229842 
L 183.623543 113.528368 
L 184.988979 112.672404 
L 185.554561 111.163362 
L 184.98898 109.885219 
L 176.254845 102.753828 
L 174.889408 102.455301 
L 173.523972 103.311265 
L 172.958389 104.820306 
L 173.523972 106.09845 
z
" clip-path="url(#pabbb7cabde)" style="fill: #666666"/>
    <path d="M 189.687871 122.718083 
L 189.05553 122.094852 
L 187.528926 121.836701 
L 186.002322 122.094852 
L 185.369981 122.718083 
L 185.369981 140.546571 
L 186.002322 141.169805 
L 187.528926 141.427957 
L 189.05553 141.169805 
L 189.687871 140.546571 
z
" clip-path="url(#pabbb7cabde)" style="fill: #666666"/>
    <path d="M 194.90788 111.036576 
L 194.423702 111.780788 
L 194.476085 113.328179 
L 195.034344 114.772309 
L 195.771458 115.267226 
L 213.239763 111.701523 
L 213.723943 110.957311 
L 213.671561 109.409919 
L 213.113302 107.965789 
L 212.376186 107.470873 
z
" clip-path="url(#pabbb7cabde)" style="fill: #666666"/>
    <path d="M 196.524528 114.746262 
L 196.218011 112.418029 
L 195.319346 110.248461 
L 193.889777 108.385411 
L 192.026727 106.955842 
L 189.857159 106.057177 
L 187.528926 105.75066 
L 185.200693 106.057177 
L 183.031125 106.955842 
L 181.168075 108.385411 
L 179.738506 110.248461 
L 178.839841 112.418029 
L 178.533324 114.746262 
L 178.839841 117.074495 
L 179.738506 119.244063 
L 181.168075 121.107114 
L 183.031125 122.536682 
L 185.200693 123.435347 
L 187.528926 123.741864 
L 189.857159 123.435347 
L 192.026727 122.536682 
L 193.889777 121.107114 
L 195.319346 119.244063 
L 196.218011 117.074495 
L 196.524528 114.746262 
z
" clip-path="url(#pabbb7cabde)" style="fill: #3366e6"/>
    <path d="M 122.531413 183.73567 
L 123.163754 184.358908 
L 124.690358 184.617061 
L 126.216962 184.358908 
L 126.849303 183.73567 
L 126.849303 165.907165 
L 126.216962 165.28393 
L 124.690358 165.025778 
L 123.163754 165.28393 
L 122.531413 165.907165 
z
" clip-path="url(#pabbb7cabde)" style="fill: #666666"/>
    <path d="M 131.88684 159.640303 
L 131.641626 157.777717 
L 130.922694 156.042063 
L 129.779039 154.551622 
L 128.288599 153.407967 
L 126.552945 152.689036 
L 124.690358 152.443822 
L 122.827771 152.689036 
L 121.092117 153.407967 
L 119.601677 154.551622 
L 118.458022 156.042063 
L 117.73909 157.777717 
L 117.493876 159.640303 
L 117.73909 161.50289 
L 118.458022 163.238544 
L 119.601677 164.728985 
L 121.092117 165.87264 
L 122.827771 166.591571 
L 124.690358 166.836785 
L 126.552945 166.591571 
L 128.288599 165.87264 
L 129.779039 164.728985 
L 130.922694 163.238544 
L 131.641626 161.50289 
L 131.88684 159.640303 
z
" clip-path="url(#pabbb7cabde)" style="fill: #e61a1a"/>
    <path d="M 185.369981 106.774441 
L 186.002322 107.397673 
L 187.528926 107.655824 
L 189.05553 107.397673 
L 189.687871 106.774441 
L 189.687871 88.945963 
L 189.05553 88.322734 
L 187.528926 88.064584 
L 186.002322 88.322734 
L 185.369981 88.945963 
z
" clip-path="url(#pabbb7cabde)" style="fill: #666666"/>
    <path d="M 194.725408 82.67909 
L 194.480194 80.816503 
L 193.761262 79.080849 
L 192.617607 77.590408 
L 191.127167 76.446753 
L 189.391513 75.727822 
L 187.528926 75.482608 
L 185.666339 75.727822 
L 183.930685 76.446753 
L 182.440245 77.590408 
L 181.29659 79.080849 
L 180.577658 80.816503 
L 180.332444 82.67909 
L 180.577658 84.541676 
L 181.29659 86.277331 
L 182.440245 87.767771 
L 183.930685 88.911426 
L 185.666339 89.630357 
L 187.528926 89.875572 
L 189.391513 89.630357 
L 191.127167 88.911426 
L 192.617607 87.767771 
L 193.761262 86.277331 
L 194.480194 84.541676 
L 194.725408 82.67909 
z
" clip-path="url(#pabbb7cabde)" style="fill: #e61a1a"/>
    <path d="M 117.311389 195.417165 
L 117.795561 194.672954 
L 117.743175 193.125564 
L 117.184919 191.681433 
L 116.447811 191.186515 
L 98.979542 194.752211 
L 98.495373 195.496421 
L 98.547759 197.043811 
L 99.106015 198.487942 
L 99.84312 198.982861 
z
" clip-path="url(#pabbb7cabde)" style="fill: #666666"/>
    <path d="M 100.467556 198.12091 
L 100.222342 196.258324 
L 99.50341 194.522669 
L 98.359755 193.032229 
L 96.869315 191.888574 
L 95.133661 191.169643 
L 93.271074 190.924428 
L 91.408487 191.169643 
L 89.672833 191.888574 
L 88.182393 193.032229 
L 87.038738 194.522669 
L 86.319806 196.258324 
L 86.074592 198.12091 
L 86.319806 199.983497 
L 87.038738 201.719151 
L 88.182393 203.209592 
L 89.672833 204.353247 
L 91.408487 205.072178 
L 93.271074 205.317392 
L 95.133661 205.072178 
L 96.869315 204.353247 
L 98.359755 203.209592 
L 99.50341 201.719151 
L 100.222342 199.983497 
L 100.467556 198.12091 
z
" clip-path="url(#pabbb7cabde)" style="fill: #e61a1a"/>
    <path d="M 180.149972 118.455948 
L 180.63415 117.711736 
L 180.581767 116.164345 
L 180.023508 114.720215 
L 179.286394 114.225298 
L 161.818098 117.790999 
L 161.333923 118.535211 
L 161.386307 120.082602 
L 161.944565 121.526732 
L 162.681676 122.021649 
z
" clip-path="url(#pabbb7cabde)" style="fill: #666666"/>
    <path d="M 163.306124 121.159697 
L 163.06091 119.29711 
L 162.341978 117.561456 
L 161.198323 116.071015 
L 159.707883 114.92736 
L 157.972229 114.208429 
L 156.109642 113.963215 
L 154.247055 114.208429 
L 152.511401 114.92736 
L 151.020961 116.071015 
L 149.877306 117.561456 
L 149.158374 119.29711 
L 148.91316 121.159697 
L 149.158374 123.022283 
L 149.877306 124.757937 
L 151.020961 126.248378 
L 152.511401 127.392033 
L 154.247055 128.110964 
L 156.109642 128.356178 
L 157.972229 128.110964 
L 159.707883 127.392033 
L 161.198323 126.248378 
L 162.341978 124.757937 
L 163.06091 123.022283 
L 163.306124 121.159697 
z
" clip-path="url(#pabbb7cabde)" style="fill: #e61a1a"/>
    <path d="M 184.413127 166.053738 
L 183.984003 162.794211 
L 182.725872 159.756816 
L 180.724476 157.148546 
L 178.116206 155.14715 
L 175.078811 153.889019 
L 171.819284 153.459895 
L 168.559757 153.889019 
L 165.522362 155.14715 
L 162.914092 157.148546 
L 160.912696 159.756816 
L 159.654565 162.794211 
L 159.225441 166.053738 
L 159.654565 169.313264 
L 160.912696 172.35066 
L 162.914092 174.95893 
L 165.522362 176.960326 
L 168.559757 178.218457 
L 171.819284 178.647581 
L 175.078811 178.218457 
L 178.116206 176.960326 
L 180.724476 174.95893 
L 182.725872 172.35066 
L 183.984003 169.313264 
L 184.413127 166.053738 
z
" clip-path="url(#pabbb7cabde)" style="fill: #00cc33"/>
    <path d="M 247.251695 89.092524 
L 246.822571 85.832998 
L 245.56444 82.795602 
L 243.563044 80.187332 
L 240.954774 78.185936 
L 237.917378 76.927806 
L 234.657852 76.498681 
L 231.398325 76.927806 
L 228.36093 78.185936 
L 225.75266 80.187332 
L 223.751264 82.795602 
L 222.493133 85.832998 
L 222.064009 89.092524 
L 222.493133 92.352051 
L 223.751264 95.389446 
L 225.75266 97.997716 
L 228.36093 99.999112 
L 231.398325 101.257243 
L 234.657852 101.686367 
L 237.917378 101.257243 
L 240.954774 99.999112 
L 243.563044 97.997716 
L 245.56444 95.389446 
L 246.822571 92.352051 
L 247.251695 89.092524 
z
" clip-path="url(#pabbb7cabde)" style="fill: #00cc33"/>
    <path d="M 121.574559 243.014952 
L 121.145435 239.755425 
L 119.887304 236.71803 
L 117.885908 234.10976 
L 115.277638 232.108364 
L 112.240243 230.850233 
L 108.980716 230.421108 
L 105.721189 230.850233 
L 102.683794 232.108364 
L 100.075524 234.10976 
L 98.074128 236.71803 
L 96.815997 239.755425 
L 96.386873 243.014952 
L 96.815997 246.274478 
L 98.074128 249.311873 
L 100.075524 251.920144 
L 102.683794 253.92154 
L 105.721189 255.17967 
L 108.980716 255.608795 
L 112.240243 255.17967 
L 115.277638 253.92154 
L 117.885908 251.920144 
L 119.887304 249.311873 
L 121.145435 246.274478 
L 121.574559 243.014952 
z
" clip-path="url(#pabbb7cabde)" style="fill: #00cc33"/>
    <path d="M 129.961177 193.223896 
L 128.595741 192.92537 
L 127.230305 193.781334 
L 126.664723 195.290376 
L 127.230304 196.568519 
L 135.96443 203.699902 
L 137.329865 203.998428 
L 138.6953 203.142463 
L 139.260883 201.633422 
L 138.695303 200.35528 
z
" clip-path="url(#pabbb7cabde)" style="fill: #666666"/>
    <path d="M 147.596482 204.534345 
L 147.351268 202.671758 
L 146.632336 200.936104 
L 145.488681 199.445664 
L 143.998241 198.302009 
L 142.262587 197.583077 
L 140.4 197.337863 
L 138.537413 197.583077 
L 136.801759 198.302009 
L 135.311319 199.445664 
L 134.167664 200.936104 
L 133.448732 202.671758 
L 133.203518 204.534345 
L 133.448732 206.396931 
L 134.167664 208.132586 
L 135.311319 209.623026 
L 136.801759 210.766681 
L 138.537413 211.485613 
L 140.4 211.730827 
L 142.262587 211.485613 
L 143.998241 210.766681 
L 145.488681 209.623026 
L 146.632336 208.132586 
L 147.351268 206.396931 
L 147.596482 204.534345 
z
" clip-path="url(#pabbb7cabde)" style="fill: #e61a1a"/>
    <path d="M 192.799745 116.262682 
L 191.434309 115.964156 
L 190.068873 116.82012 
L 189.503291 118.329162 
L 190.068872 119.607305 
L 198.802998 126.738688 
L 200.168433 127.037214 
L 201.533868 126.18125 
L 202.099451 124.672208 
L 201.533871 123.394066 
z
" clip-path="url(#pabbb7cabde)" style="fill: #666666"/>
    <path d="M 210.43505 127.573131 
L 210.189836 125.710544 
L 209.470904 123.97489 
L 208.327249 122.48445 
L 206.836809 121.340795 
L 205.101155 120.621863 
L 203.238568 120.376649 
L 201.375981 120.621863 
L 199.640327 121.340795 
L 198.149887 122.48445 
L 197.006232 123.97489 
L 196.2873 125.710544 
L 196.042086 127.573131 
L 196.2873 129.435718 
L 197.006232 131.171372 
L 198.149887 132.661812 
L 199.640327 133.805467 
L 201.375981 134.524399 
L 203.238568 134.769613 
L 205.101155 134.524399 
L 206.836809 133.805467 
L 208.327249 132.661812 
L 209.470904 131.171372 
L 210.189836 129.435718 
L 210.43505 127.573131 
z
" clip-path="url(#pabbb7cabde)" style="fill: #e61a1a"/>
    <path d="M 119.419551 126.056721 
L 120.784989 126.355248 
L 122.150425 125.499285 
L 122.716007 123.990243 
L 122.150424 122.712098 
L 113.416267 115.580689 
L 112.050829 115.282161 
L 110.685392 116.138124 
L 110.11981 117.647166 
L 110.685394 118.925311 
z
" clip-path="url(#pabbb7cabde)" style="fill: #666666"/>
    <path d="M 132.069324 123.863442 
L 131.585151 124.607653 
L 131.637537 126.155044 
L 132.195793 127.599175 
L 132.932902 128.094092 
L 150.401186 124.528394 
L 150.885361 123.784183 
L 150.832977 122.236791 
L 150.274719 120.792661 
L 149.537608 120.297744 
z
" clip-path="url(#pabbb7cabde)" style="fill: #666666"/>
    <path d="M 126.849303 135.54495 
L 126.216962 134.921717 
L 124.690358 134.663566 
L 123.163754 134.921717 
L 122.531413 135.54495 
L 122.531413 153.373442 
L 123.163754 153.996677 
L 124.690358 154.254829 
L 126.216962 153.996677 
L 126.849303 153.373442 
z
" clip-path="url(#pabbb7cabde)" style="fill: #666666"/>
    <path d="M 133.68596 127.573131 
L 133.379443 125.244898 
L 132.480778 123.07533 
L 131.051209 121.21228 
L 129.188159 119.782711 
L 127.018591 118.884046 
L 124.690358 118.577529 
L 122.362125 118.884046 
L 120.192557 119.782711 
L 118.329507 121.21228 
L 116.899938 123.07533 
L 116.001273 125.244898 
L 115.694756 127.573131 
L 116.001273 129.901364 
L 116.899938 132.070932 
L 118.329507 133.933982 
L 120.192557 135.363551 
L 122.362125 136.262216 
L 124.690358 136.568733 
L 127.018591 136.262216 
L 129.188159 135.363551 
L 131.051209 133.933982 
L 132.480778 132.070932 
L 133.379443 129.901364 
L 133.68596 127.573131 
z
" clip-path="url(#pabbb7cabde)" style="fill: #3366e6"/>
    <path d="M 90.155275 89.092524 
L 89.726151 85.832998 
L 88.46802 82.795602 
L 86.466624 80.187332 
L 83.858354 78.185936 
L 80.820959 76.927806 
L 77.561432 76.498681 
L 74.301906 76.927806 
L 71.26451 78.185936 
L 68.65624 80.187332 
L 66.654844 82.795602 
L 65.396713 85.832998 
L 64.967589 89.092524 
L 65.396713 92.352051 
L 66.654844 95.389446 
L 68.65624 97.997716 
L 71.26451 99.999112 
L 74.301906 101.257243 
L 77.561432 101.686367 
L 80.820959 101.257243 
L 83.858354 99.999112 
L 86.466624 97.997716 
L 88.46802 95.389446 
L 89.726151 92.352051 
L 90.155275 89.092524 
z
" clip-path="url(#pabbb7cabde)" style="fill: #00cc33"/>
    <path d="M 122.531413 119.601312 
L 123.163754 120.224545 
L 124.690358 120.482696 
L 126.216962 120.224545 
L 126.849303 119.601312 
L 126.849303 101.77283 
L 126.216962 101.1496 
L 124.690358 100.89145 
L 123.163754 101.1496 
L 122.531413 101.77283 
z
" clip-path="url(#pabbb7cabde)" style="fill: #666666"/>
    <path d="M 131.88684 95.505959 
L 131.641626 93.643372 
L 130.922694 91.907718 
L 129.779039 90.417277 
L 128.288599 89.273622 
L 126.552945 88.554691 
L 124.690358 88.309477 
L 122.827771 88.554691 
L 121.092117 89.273622 
L 119.601677 90.417277 
L 118.458022 91.907718 
L 117.73909 93.643372 
L 117.493876 95.505959 
L 117.73909 97.368545 
L 118.458022 99.1042 
L 119.601677 100.59464 
L 121.092117 101.738295 
L 122.827771 102.457226 
L 124.690358 102.702441 
L 126.552945 102.457226 
L 128.288599 101.738295 
L 129.779039 100.59464 
L 130.922694 99.1042 
L 131.641626 97.368545 
L 131.88684 95.505959 
z
" clip-path="url(#pabbb7cabde)" style="fill: #e61a1a"/>
    <path d="M 117.311392 131.28282 
L 117.795565 130.538609 
L 117.743179 128.991218 
L 117.184923 127.547088 
L 116.447814 127.05217 
L 98.97954 130.617866 
L 98.49537 131.362077 
L 98.547756 132.909467 
L 99.106012 134.353598 
L 99.843118 134.848516 
z
" clip-path="url(#pabbb7cabde)" style="fill: #666666"/>
    <path d="M 100.467556 133.986566 
L 100.222342 132.123979 
L 99.50341 130.388325 
L 98.359755 128.897884 
L 96.869315 127.754229 
L 95.133661 127.035298 
L 93.271074 126.790084 
L 91.408487 127.035298 
L 89.672833 127.754229 
L 88.182393 128.897884 
L 87.038738 130.388325 
L 86.319806 132.123979 
L 86.074592 133.986566 
L 86.319806 135.849152 
L 87.038738 137.584806 
L 88.182393 139.075247 
L 89.672833 140.218902 
L 91.408487 140.937833 
L 93.271074 141.183047 
L 95.133661 140.937833 
L 96.869315 140.218902 
L 98.359755 139.075247 
L 99.50341 137.584806 
L 100.222342 135.849152 
L 100.467556 133.986566 
z
" clip-path="url(#pabbb7cabde)" style="fill: #e61a1a"/>
    <path d="M 184.413127 101.919393 
L 183.984003 98.659867 
L 182.725872 95.622471 
L 180.724476 93.014201 
L 178.116206 91.012805 
L 175.078811 89.754675 
L 171.819284 89.32555 
L 168.559757 89.754675 
L 165.522362 91.012805 
L 162.914092 93.014201 
L 160.912696 95.622471 
L 159.654565 98.659867 
L 159.225441 101.919393 
L 159.654565 105.17892 
L 160.912696 108.216315 
L 162.914092 110.824585 
L 165.522362 112.825981 
L 168.559757 114.084112 
L 171.819284 114.513236 
L 175.078811 114.084112 
L 178.116206 112.825981 
L 180.724476 110.824585 
L 182.725872 108.216315 
L 183.984003 105.17892 
L 184.413127 101.919393 
z
" clip-path="url(#pabbb7cabde)" style="fill: #00cc33"/>
    <path d="M 129.961165 129.089541 
L 128.595727 128.791014 
L 127.230291 129.646977 
L 126.664709 131.156019 
L 127.230292 132.434164 
L 135.964439 139.565565 
L 137.329876 139.864092 
L 138.695312 139.008128 
L 139.260895 137.499087 
L 138.695312 136.220943 
z
" clip-path="url(#pabbb7cabde)" style="fill: #666666"/>
    <path d="M 147.596482 140.4 
L 147.351268 138.537413 
L 146.632336 136.801759 
L 145.488681 135.311319 
L 143.998241 134.167664 
L 142.262587 133.448732 
L 140.4 133.203518 
L 138.537413 133.448732 
L 136.801759 134.167664 
L 135.311319 135.311319 
L 134.167664 136.801759 
L 133.448732 138.537413 
L 133.203518 140.4 
L 133.448732 142.262587 
L 134.167664 143.998241 
L 135.311319 145.488681 
L 136.801759 146.632336 
L 138.537413 147.351268 
L 140.4 147.596482 
L 142.262587 147.351268 
L 143.998241 146.632336 
L 145.488681 145.488681 
L 146.632336 143.998241 
L 147.351268 142.262587 
L 147.596482 140.4 
z
" clip-path="url(#pabbb7cabde)" style="fill: #e61a1a"/>
    <path d="M 121.574559 178.880607 
L 121.145435 175.62108 
L 119.887304 172.583685 
L 117.885908 169.975415 
L 115.277638 167.974019 
L 112.240243 166.715888 
L 108.980716 166.286764 
L 105.721189 166.715888 
L 102.683794 167.974019 
L 100.075524 169.975415 
L 98.074128 172.583685 
L 96.815997 175.62108 
L 96.386873 178.880607 
L 96.815997 182.140133 
L 98.074128 185.177529 
L 100.075524 187.785799 
L 102.683794 189.787195 
L 105.721189 191.045325 
L 108.980716 191.47445 
L 112.240243 191.045325 
L 115.277638 189.787195 
L 117.885908 187.785799 
L 119.887304 185.177529 
L 121.145435 182.140133 
L 121.574559 178.880607 
z
" clip-path="url(#pabbb7cabde)" style="fill: #00cc33"/>
    <path d="M 121.574559 114.746262 
L 121.145435 111.486736 
L 119.887304 108.44934 
L 117.885908 105.84107 
L 115.277638 103.839674 
L 112.240243 102.581543 
L 108.980716 102.152419 
L 105.721189 102.581543 
L 102.683794 103.839674 
L 100.075524 105.84107 
L 98.074128 108.44934 
L 96.815997 111.486736 
L 96.386873 114.746262 
L 96.815997 118.005789 
L 98.074128 121.043184 
L 100.075524 123.651454 
L 102.683794 125.65285 
L 105.721189 126.910981 
L 108.980716 127.340105 
L 112.240243 126.910981 
L 115.277638 125.65285 
L 117.885908 123.651454 
L 119.887304 121.043184 
L 121.145435 118.005789 
L 121.574559 114.746262 
z
" clip-path="url(#pabbb7cabde)" style="fill: #00cc33"/>
   </g>
  </g>
 </g>
 <defs>
  <clipPath id="pabbb7cabde">
   <rect x="7.2" y="7.2" width="266.4" height="266.4"/>
  </clipPath>
 </defs>
</svg>
