<?xml version="1.0" encoding="utf-8" standalone="no"?>
<!DOCTYPE svg PUBLIC "-//W3C//DTD SVG 1.1//EN"
  "http://www.w3.org/Graphics/SVG/1.1/DTD/svg11.dtd">
<svg xmlns:xlink="http://www.w3.org/1999/xlink" width="280.8pt" height="280.8pt" viewBox="0 0 280.8 280.8" xmlns="http://www.w3.org/2000/svg" version="1.1">
 <metadata>
  <rdf:RDF xmlns:dc="http://purl.org/dc/elements/1.1/" xmlns:cc="http://creativecommons.org/ns#" xmlns:rdf="http://www.w3.org/1999/02/22-rdf-syntax-ns#">
   <cc:Work>
    <dc:type rdf:resource="http://purl.org/dc/dcmitype/StillImage"/>
    <dc:date>2026-02-16T06:27:52.824319</dc:date>
    <dc:format>image/svg+xml</dc:format>
    <dc:creator>
     <cc:Agent>
      <dc:title>Matplotlib v3.10.7, https://matplotlib.org/</dc:title>
     </cc:Agent>
    </dc:creator>
   </cc:Work>
  </rdf:RDF>
 </metadata>
 <defs>
  <style type="text/css">*{stroke-linejoin: round; stroke-linecap: butt}</style>
 </defs>
 <g id="figure_1">
  <g id="patch_1">
   <path d="M 0 280.8 
L 280.8 280.8 
L 280.8 0 
L 0 0 
z
" style="fill: #ffffff"/>
  </g>
  <g id="axes_1">
   <g id="PolyCollection_1">
    <path d="M 219.412662 204.370111 
L 218.911881 200.566306 
L 217.443668 197.021725 
L 215.108077 193.977923 
L 212.064276 191.642333 
L 208.519694 190.174119 
L 204.71589 189.673338 
L 200.912085 190.174119 
L 197.367503 191.642333 
L 194.323702 193.977923 
L 191.988111 197.021725 
L 190.519898 200.566306 
L 190.019117 204.370111 
L 190.519898 208.173915 
L 191.988111 211.718497 
L 194.323702 214.762298 
L 197.367503 217.097889 
L 200.912085 218.566103 
L 204.71589 219.066883 
L 208.519694 218.566103 
L 212.064276 217.097889 
L 215.108077 214.762298 
L 217.443668 211.718497 
L 218.911881 208.173915 
L 219.412662 204.370111 
z
" clip-path="url(#p03a1358abd)" style="fill: #00cc33"/>
    <path d="M 219.412662 123.631136 
L 218.911881 119.827331 
L 217.443668 116.28275 
L 215.108077 113.238949 
L 212.064276 110.903358 
L 208.519694 109.435144 
L 204.71589 108.934364 
L 200.912085 109.435144 
L 197.367503 110.903358 
L 194.323702 113.238949 
L 191.988111 116.28275 
L 190.519898 119.827331 
L 190.019117 123.631136 
L 190.519898 127.434941 
L 191.988111 130.979522 
L 194.323702 134.023323 
L 197.367503 136.358914 
L 200.912085 137.827128 
L 204.71589 138.327908 
L 208.519694 137.827128 
L 212.064276 136.358914 
L 215.108077 134.023323 
L 217.443668 130.979522 
L 218.911881 127.434941 
L 219.412662 123.631136 
z
" clip-path="url(#p03a1358abd)" style="fill: #00cc33"/>
    <path d="M 172.916614 165.398029 
L 172.630454 163.224426 
L 171.791475 161.198951 
L 170.456851 159.459636 
L 168.717536 158.125013 
L 166.692061 157.286033 
L 164.518459 156.999873 
L 162.344856 157.286033 
L 160.319381 158.125013 
L 158.580066 159.459636 
L 157.245442 161.198951 
L 156.406463 163.224426 
L 156.120303 165.398029 
L 156.406463 167.571631 
L 157.245442 169.597107 
L 158.580066 171.336421 
L 160.319381 172.671045 
L 162.344856 173.510024 
L 164.518459 173.796184 
L 166.692061 173.510024 
L 168.717536 172.671045 
L 170.456851 171.336421 
L 171.791475 169.597107 
L 172.630454 167.571631 
L 172.916614 165.398029 
z
" clip-path="url(#p03a1358abd)" style="fill: #e61a1a"/>
    <path d="M 139.0178 207.164921 
L 138.51702 203.361117 
L 137.048806 199.816535 
L 134.713215 196.772734 
L 131.669414 194.437143 
L 128.124832 192.96893 
L 124.321028 192.468149 
L 120.517223 192.96893 
L 116.972641 194.437143 
L 113.92884 196.772734 
L 111.593249 199.816535 
L 110.125036 203.361117 
L 109.624255 207.164921 
L 110.125036 210.968726 
L 111.593249 214.513308 
L 113.92884 217.557109 
L 116.972641 219.8927 
L 120.517223 221.360913 
L 124.321028 221.861694 
L 128.124832 221.360913 
L 131.669414 219.8927 
L 134.713215 217.557109 
L 137.048806 214.513308 
L 138.51702 210.968726 
L 139.0178 207.164921 
z
" clip-path="url(#p03a1358abd)" style="fill: #00cc33"/>
    <path d="M 219.412662 42.892161 
L 218.911881 39.088357 
L 217.443668 35.543775 
L 215.108077 32.499974 
L 212.064276 30.164383 
L 208.519694 28.696169 
L 204.71589 28.195389 
L 200.912085 28.696169 
L 197.367503 30.164383 
L 194.323702 32.499974 
L 191.988111 35.543775 
L 190.519898 39.088357 
L 190.019117 42.892161 
L 190.519898 46.695966 
L 191.988111 50.240547 
L 194.323702 53.284349 
L 197.367503 55.619939 
L 200.912085 57.088153 
L 204.71589 57.588934 
L 208.519694 57.088153 
L 212.064276 55.619939 
L 215.108077 53.284349 
L 217.443668 50.240547 
L 218.911881 46.695966 
L 219.412662 42.892161 
z
" clip-path="url(#p03a1358abd)" style="fill: #00cc33"/>
    <path d="M 172.916614 84.659054 
L 172.630454 82.485451 
L 171.791475 80.459976 
L 170.456851 78.720661 
L 168.717536 77.386038 
L 166.692061 76.547059 
L 164.518459 76.260898 
L 162.344856 76.547059 
L 160.319381 77.386038 
L 158.580066 78.720661 
L 157.245442 80.459976 
L 156.406463 82.485451 
L 156.120303 84.659054 
L 156.406463 86.832657 
L 157.245442 88.858132 
L 158.580066 90.597447 
L 160.319381 91.93207 
L 162.344856 92.771049 
L 164.518459 93.05721 
L 166.692061 92.771049 
L 168.717536 91.93207 
L 170.456851 90.597447 
L 171.791475 88.858132 
L 172.630454 86.832657 
L 172.916614 84.659054 
z
" clip-path="url(#p03a1358abd)" style="fill: #e61a1a"/>
    <path d="M 139.0178 126.425947 
L 138.51702 122.622142 
L 137.048806 119.077561 
L 134.713215 116.033759 
L 131.669414 113.698169 
L 128.124832 112.229955 
L 124.321028 111.729174 
L 120.517223 112.229955 
L 116.972641 113.698169 
L 113.92884 116.033759 
L 111.593249 119.077561 
L 110.125036 122.622142 
L 109.624255 126.425947 
L 110.125036 130.229751 
L 111.593249 133.774333 
L 113.92884 136.818134 
L 116.972641 139.153725 
L 120.517223 140.621939 
L 124.321028 141.122719 
L 128.124832 140.621939 
L 131.669414 139.153725 
L 134.713215 136.818134 
L 137.048806 133.774333 
L 138.51702 130.229751 
L 139.0178 126.425947 
z
" clip-path="url(#p03a1358abd)" style="fill: #00cc33"/>
    <path d="M 92.521752 168.192839 
L 92.235592 166.019237 
L 91.396613 163.993762 
L 90.061989 162.254447 
L 88.322674 160.919823 
L 86.297199 160.080844 
L 84.123597 159.794684 
L 81.949994 160.080844 
L 79.924519 160.919823 
L 78.185204 162.254447 
L 76.850581 163.993762 
L 76.011601 166.019237 
L 75.725441 168.192839 
L 76.011601 170.366442 
L 76.850581 172.391917 
L 78.185204 174.131232 
L 79.924519 175.465855 
L 81.949994 176.304835 
L 84.123597 176.590995 
L 86.297199 176.304835 
L 88.322674 175.465855 
L 90.061989 174.131232 
L 91.396613 172.391917 
L 92.235592 170.366442 
L 92.521752 168.192839 
z
" clip-path="url(#p03a1358abd)" style="fill: #e61a1a"/>
    <path d="M 58.622938 209.959732 
L 58.122158 206.155928 
L 56.653944 202.611346 
L 54.318353 199.567545 
L 51.274552 197.231954 
L 47.72997 195.76374 
L 43.926166 195.26296 
L 40.122361 195.76374 
L 36.57778 197.231954 
L 33.533978 199.567545 
L 31.198388 202.611346 
L 29.730174 206.155928 
L 29.229393 209.959732 
L 29.730174 213.763537 
L 31.198388 217.308118 
L 33.533978 220.351919 
L 36.57778 222.68751 
L 40.122361 224.155724 
L 43.926166 224.656504 
L 47.72997 224.155724 
L 51.274552 222.68751 
L 54.318353 220.351919 
L 56.653944 217.308118 
L 58.122158 213.763537 
L 58.622938 209.959732 
z
" clip-path="url(#p03a1358abd)" style="fill: #00cc33"/>
    <path d="M 212.755376 170.98765 
L 172.557945 212.754543 
L 164.518459 165.398029 
z
" clip-path="url(#p03a1358abd)" style="fill: #6e9adc; fill-opacity: 0.25; stroke: #4c4c4c; stroke-width: 0.8"/>
    <path d="M 172.557945 132.015568 
L 212.755376 170.98765 
L 164.518459 165.398029 
z
" clip-path="url(#p03a1358abd)" style="fill: #5f84bd; fill-opacity: 0.25; stroke: #4c4c4c; stroke-width: 0.8"/>
    <path d="M 132.360514 173.782461 
L 172.557945 212.754543 
L 164.518459 165.398029 
z
" clip-path="url(#p03a1358abd)" style="fill: #5d82ba; fill-opacity: 0.25; stroke: #4c4c4c; stroke-width: 0.8"/>
    <path d="M 139.0178 45.686972 
L 138.51702 41.883167 
L 137.048806 38.338586 
L 134.713215 35.294785 
L 131.669414 32.959194 
L 128.124832 31.49098 
L 124.321028 30.9902 
L 120.517223 31.49098 
L 116.972641 32.959194 
L 113.92884 35.294785 
L 111.593249 38.338586 
L 110.125036 41.883167 
L 109.624255 45.686972 
L 110.125036 49.490776 
L 111.593249 53.035358 
L 113.92884 56.079159 
L 116.972641 58.41475 
L 120.517223 59.882964 
L 124.321028 60.383744 
L 128.124832 59.882964 
L 131.669414 58.41475 
L 134.713215 56.079159 
L 137.048806 53.035358 
L 138.51702 49.490776 
L 139.0178 45.686972 
z
" clip-path="url(#p03a1358abd)" style="fill: #00cc33"/>
    <path d="M 92.521752 87.453865 
L 92.235592 85.280262 
L 91.396613 83.254787 
L 90.061989 81.515472 
L 88.322674 80.180849 
L 86.297199 79.341869 
L 84.123597 79.055709 
L 81.949994 79.341869 
L 79.924519 80.180849 
L 78.185204 81.515472 
L 76.850581 83.254787 
L 76.011601 85.280262 
L 75.725441 87.453865 
L 76.011601 89.627467 
L 76.850581 91.652942 
L 78.185204 93.392257 
L 79.924519 94.726881 
L 81.949994 95.56586 
L 84.123597 95.85202 
L 86.297199 95.56586 
L 88.322674 94.726881 
L 90.061989 93.392257 
L 91.396613 91.652942 
L 92.235592 89.627467 
L 92.521752 87.453865 
z
" clip-path="url(#p03a1358abd)" style="fill: #e61a1a"/>
    <path d="M 58.622938 129.220757 
L 58.122158 125.416953 
L 56.653944 121.872371 
L 54.318353 118.82857 
L 51.274552 116.492979 
L 47.72997 115.024765 
L 43.926166 114.523985 
L 40.122361 115.024765 
L 36.57778 116.492979 
L 33.533978 118.82857 
L 31.198388 121.872371 
L 29.730174 125.416953 
L 29.229393 129.220757 
L 29.730174 133.024562 
L 31.198388 136.569143 
L 33.533978 139.612945 
L 36.57778 141.948535 
L 40.122361 143.416749 
L 43.926166 143.91753 
L 47.72997 143.416749 
L 51.274552 141.948535 
L 54.318353 139.612945 
L 56.653944 136.569143 
L 58.122158 133.024562 
L 58.622938 129.220757 
z
" clip-path="url(#p03a1358abd)" style="fill: #00cc33"/>
    <path d="M 172.557945 132.015568 
L 132.360514 173.782461 
L 164.518459 165.398029 
z
" clip-path="url(#p03a1358abd)" style="fill: #4d6c9b; fill-opacity: 0.25; stroke: #4c4c4c; stroke-width: 0.8"/>
    <path d="M 221.153531 170.98765 
L 220.867371 168.814047 
L 220.028392 166.788572 
L 218.693769 165.049257 
L 216.954454 163.714634 
L 214.928978 162.875655 
L 212.755376 162.589494 
L 210.581773 162.875655 
L 208.556298 163.714634 
L 206.816983 165.049257 
L 205.48236 166.788572 
L 204.64338 168.814047 
L 204.35722 170.98765 
L 204.64338 173.161253 
L 205.48236 175.186728 
L 206.816983 176.926043 
L 208.556298 178.260666 
L 210.581773 179.099645 
L 212.755376 179.385806 
L 214.928978 179.099645 
L 216.954454 178.260666 
L 218.693769 176.926043 
L 220.028392 175.186728 
L 220.867371 173.161253 
L 221.153531 170.98765 
z
" clip-path="url(#p03a1358abd)" style="fill: #e61a1a"/>
    <path d="M 180.9561 212.754543 
L 180.66994 210.58094 
L 179.830961 208.555465 
L 178.496338 206.81615 
L 176.757023 205.481527 
L 174.731547 204.642547 
L 172.557945 204.356387 
L 170.384342 204.642547 
L 168.358867 205.481527 
L 166.619552 206.81615 
L 165.284929 208.555465 
L 164.445949 210.58094 
L 164.159789 212.754543 
L 164.445949 214.928145 
L 165.284929 216.953621 
L 166.619552 218.692936 
L 168.358867 220.027559 
L 170.384342 220.866538 
L 172.557945 221.152698 
L 174.731547 220.866538 
L 176.757023 220.027559 
L 178.496338 218.692936 
L 179.830961 216.953621 
L 180.66994 214.928145 
L 180.9561 212.754543 
z
" clip-path="url(#p03a1358abd)" style="fill: #e61a1a"/>
    <path d="M 168.906642 172.549722 
L 170.68918 173.121236 
L 172.395656 172.244012 
L 173.026439 170.431915 
L 172.212025 168.746448 
L 167.74231 164.86187 
L 165.959772 164.290355 
L 164.253296 165.167579 
L 163.622514 166.979676 
L 164.436928 168.665144 
z
" clip-path="url(#p03a1358abd)" style="fill: #666666"/>
    <path d="M 182.463387 169.519738 
L 182.145164 170.269176 
L 182.064626 172.054569 
L 182.268953 173.83006 
L 182.638451 174.55559 
L 204.987158 173.778669 
L 205.305384 173.029232 
L 205.385923 171.243838 
L 205.181595 169.468348 
L 204.812094 168.742818 
z
" clip-path="url(#p03a1358abd)" style="fill: #666666"/>
    <path d="M 175.077391 182.420803 
L 174.339463 182.111141 
L 172.557945 181.982874 
L 170.776427 182.111141 
L 170.038498 182.420803 
L 170.038498 204.865167 
L 170.776427 205.174833 
L 172.557945 205.303101 
L 174.339463 205.174833 
L 175.077391 204.865167 
z
" clip-path="url(#p03a1358abd)" style="fill: #666666"/>
    <path d="M 172.557945 132.015568 
L 212.755376 90.248675 
L 164.518459 84.659054 
z
" clip-path="url(#p03a1358abd)" style="fill: #6e9adc; fill-opacity: 0.25; stroke: #4c4c4c; stroke-width: 0.8"/>
    <path d="M 132.360514 173.782461 
L 92.163083 215.549353 
L 84.123597 168.192839 
z
" clip-path="url(#p03a1358abd)" style="fill: #6e9adc; fill-opacity: 0.25; stroke: #4c4c4c; stroke-width: 0.8"/>
    <path d="M 183.055639 172.385055 
L 182.697939 169.668052 
L 181.649215 167.136208 
L 179.980936 164.962064 
L 177.806792 163.293785 
L 175.274948 162.245061 
L 172.557945 161.887361 
L 169.840942 162.245061 
L 167.309098 163.293785 
L 165.134954 164.962064 
L 163.466675 167.136208 
L 162.417951 169.668052 
L 162.06025 172.385055 
L 162.417951 175.102059 
L 163.466675 177.633903 
L 165.134954 179.808046 
L 167.309098 181.476325 
L 169.840942 182.52505 
L 172.557945 182.88275 
L 175.274948 182.52505 
L 177.806792 181.476325 
L 179.980936 179.808046 
L 181.649215 177.633903 
L 182.697939 175.102059 
L 183.055639 172.385055 
z
" clip-path="url(#p03a1358abd)" style="fill: #3366e6"/>
    <path d="M 212.755376 90.248675 
L 172.557945 51.276593 
L 164.518459 84.659054 
z
" clip-path="url(#p03a1358abd)" style="fill: #5f84bd; fill-opacity: 0.25; stroke: #4c4c4c; stroke-width: 0.8"/>
    <path d="M 172.557945 132.015568 
L 132.360514 93.043486 
L 164.518459 84.659054 
z
" clip-path="url(#p03a1358abd)" style="fill: #5d82ba; fill-opacity: 0.25; stroke: #4c4c4c; stroke-width: 0.8"/>
    <path d="M 92.163083 134.810379 
L 132.360514 173.782461 
L 84.123597 168.192839 
z
" clip-path="url(#p03a1358abd)" style="fill: #5f84bd; fill-opacity: 0.25; stroke: #4c4c4c; stroke-width: 0.8"/>
    <path d="M 51.965652 176.577271 
L 92.163083 215.549353 
L 84.123597 168.192839 
z
" clip-path="url(#p03a1358abd)" style="fill: #5d82ba; fill-opacity: 0.25; stroke: #4c4c4c; stroke-width: 0.8"/>
    <path d="M 58.622938 48.481783 
L 58.122158 44.677978 
L 56.653944 41.133396 
L 54.318353 38.089595 
L 51.274552 35.754004 
L 47.72997 34.285791 
L 43.926166 33.78501 
L 40.122361 34.285791 
L 36.57778 35.754004 
L 33.533978 38.089595 
L 31.198388 41.133396 
L 29.730174 44.677978 
L 29.229393 48.481783 
L 29.730174 52.285587 
L 31.198388 55.830169 
L 33.533978 58.87397 
L 36.57778 61.209561 
L 40.122361 62.677774 
L 43.926166 63.178555 
L 47.72997 62.677774 
L 51.274552 61.209561 
L 54.318353 58.87397 
L 56.653944 55.830169 
L 58.122158 52.285587 
L 58.622938 48.481783 
z
" clip-path="url(#p03a1358abd)" style="fill: #00cc33"/>
    <path d="M 132.360514 93.043486 
L 172.557945 51.276593 
L 164.518459 84.659054 
z
" clip-path="url(#p03a1358abd)" style="fill: #4d6c9b; fill-opacity: 0.25; stroke: #4c4c4c; stroke-width: 0.8"/>
    <path d="M 221.153531 90.248675 
L 220.867371 88.075073 
L 220.028392 86.049598 
L 218.693769 84.310283 
L 216.954454 82.975659 
L 214.928978 82.13668 
L 212.755376 81.85052 
L 210.581773 82.13668 
L 208.556298 82.975659 
L 206.816983 84.310283 
L 205.48236 86.049598 
L 204.64338 88.075073 
L 204.35722 90.248675 
L 204.64338 92.422278 
L 205.48236 94.447753 
L 206.816983 96.187068 
L 208.556298 97.521691 
L 210.581773 98.360671 
L 212.755376 98.646831 
L 214.928978 98.360671 
L 216.954454 97.521691 
L 218.693769 96.187068 
L 220.028392 94.447753 
L 220.867371 92.422278 
L 221.153531 90.248675 
z
" clip-path="url(#p03a1358abd)" style="fill: #e61a1a"/>
    <path d="M 170.038498 162.349308 
L 170.776427 162.65897 
L 172.557945 162.787236 
L 174.339463 162.65897 
L 175.077391 162.349308 
L 175.077391 139.904949 
L 174.339463 139.59529 
L 172.557945 139.467025 
L 170.776427 139.59529 
L 170.038498 139.904949 
z
" clip-path="url(#p03a1358abd)" style="fill: #666666"/>
    <path d="M 180.9561 132.015568 
L 180.66994 129.841965 
L 179.830961 127.81649 
L 178.496338 126.077175 
L 176.757023 124.742552 
L 174.731547 123.903573 
L 172.557945 123.617412 
L 170.384342 123.903573 
L 168.358867 124.742552 
L 166.619552 126.077175 
L 165.284929 127.81649 
L 164.445949 129.841965 
L 164.159789 132.015568 
L 164.445949 134.189171 
L 165.284929 136.214646 
L 166.619552 137.953961 
L 168.358867 139.288584 
L 170.384342 140.127563 
L 172.557945 140.413724 
L 174.731547 140.127563 
L 176.757023 139.288584 
L 178.496338 137.953961 
L 179.830961 136.214646 
L 180.66994 134.189171 
L 180.9561 132.015568 
z
" clip-path="url(#p03a1358abd)" style="fill: #e61a1a"/>
    <path d="M 162.652502 175.250372 
L 162.970726 174.500935 
L 163.051263 172.715541 
L 162.846937 170.94005 
L 162.477438 170.214521 
L 140.128738 170.991441 
L 139.810518 171.740878 
L 139.729982 173.526272 
L 139.934307 175.301763 
L 140.303802 176.027292 
z
" clip-path="url(#p03a1358abd)" style="fill: #666666"/>
    <path d="M 92.163083 134.810379 
L 51.965652 176.577271 
L 84.123597 168.192839 
z
" clip-path="url(#p03a1358abd)" style="fill: #4d6c9b; fill-opacity: 0.25; stroke: #4c4c4c; stroke-width: 0.8"/>
    <path d="M 140.758669 173.782461 
L 140.472509 171.608858 
L 139.63353 169.583383 
L 138.298907 167.844068 
L 136.559592 166.509445 
L 134.534116 165.670465 
L 132.360514 165.384305 
L 130.186911 165.670465 
L 128.161436 166.509445 
L 126.422121 167.844068 
L 125.087498 169.583383 
L 124.248518 171.608858 
L 123.962358 173.782461 
L 124.248518 175.956063 
L 125.087498 177.981539 
L 126.422121 179.720853 
L 128.161436 181.055477 
L 130.186911 181.894456 
L 132.360514 182.180616 
L 134.534116 181.894456 
L 136.559592 181.055477 
L 138.298907 179.720853 
L 139.63353 177.981539 
L 140.472509 175.956063 
L 140.758669 173.782461 
z
" clip-path="url(#p03a1358abd)" style="fill: #e61a1a"/>
    <path d="M 212.755376 170.98765 
L 172.557945 212.754543 
L 180.597431 179.372082 
z
" clip-path="url(#p03a1358abd)" style="fill: #4d6c9b; fill-opacity: 0.25; stroke: #4c4c4c; stroke-width: 0.8"/>
    <path d="M 100.561238 215.549353 
L 100.275078 213.375751 
L 99.436099 211.350276 
L 98.101476 209.610961 
L 96.362161 208.276337 
L 94.336685 207.437358 
L 92.163083 207.151198 
L 89.98948 207.437358 
L 87.964005 208.276337 
L 86.22469 209.610961 
L 84.890067 211.350276 
L 84.051087 213.375751 
L 83.764927 215.549353 
L 84.051087 217.722956 
L 84.890067 219.748431 
L 86.22469 221.487746 
L 87.964005 222.82237 
L 89.98948 223.661349 
L 92.163083 223.947509 
L 94.336685 223.661349 
L 96.362161 222.82237 
L 98.101476 221.487746 
L 99.436099 219.748431 
L 100.275078 217.722956 
L 100.561238 215.549353 
z
" clip-path="url(#p03a1358abd)" style="fill: #e61a1a"/>
    <path d="M 168.906661 91.810763 
L 170.6892 92.382278 
L 172.395676 91.505055 
L 173.026458 89.692958 
L 172.212043 88.007489 
L 167.742296 84.122882 
L 165.959757 83.551367 
L 164.25328 84.428591 
L 163.622498 86.240688 
L 164.436913 87.926156 
z
" clip-path="url(#p03a1358abd)" style="fill: #666666"/>
    <path d="M 182.463387 88.780764 
L 182.145163 89.530201 
L 182.064626 91.315595 
L 182.268952 93.091086 
L 182.638451 93.816615 
L 204.987158 93.039695 
L 205.305385 92.290257 
L 205.385924 90.504864 
L 205.181596 88.729373 
L 204.812094 88.003843 
z
" clip-path="url(#p03a1358abd)" style="fill: #666666"/>
    <path d="M 170.038498 124.126187 
L 170.776427 124.435846 
L 172.557945 124.564111 
L 174.339463 124.435846 
L 175.077391 124.126187 
L 175.077391 101.681835 
L 174.339463 101.372179 
L 172.557945 101.243916 
L 170.776427 101.372179 
L 170.038498 101.681835 
z
" clip-path="url(#p03a1358abd)" style="fill: #666666"/>
    <path d="M 92.163083 134.810379 
L 132.360514 93.043486 
L 84.123597 87.453865 
z
" clip-path="url(#p03a1358abd)" style="fill: #6e9adc; fill-opacity: 0.25; stroke: #4c4c4c; stroke-width: 0.8"/>
    <path d="M 172.557945 132.015568 
L 212.755376 170.98765 
L 180.597431 179.372082 
z
" clip-path="url(#p03a1358abd)" style="fill: #5d82ba; fill-opacity: 0.25; stroke: #4c4c4c; stroke-width: 0.8"/>
    <path d="M 132.360514 173.782461 
L 172.557945 212.754543 
L 180.597431 179.372082 
z
" clip-path="url(#p03a1358abd)" style="fill: #5f84bd; fill-opacity: 0.25; stroke: #4c4c4c; stroke-width: 0.8"/>
    <path d="M 183.055639 91.646081 
L 182.697939 88.929077 
L 181.649215 86.397233 
L 179.980936 84.22309 
L 177.806792 82.554811 
L 175.274948 81.506086 
L 172.557945 81.148386 
L 169.840942 81.506086 
L 167.309098 82.554811 
L 165.134954 84.22309 
L 163.466675 86.397233 
L 162.417951 88.929077 
L 162.06025 91.646081 
L 162.417951 94.363084 
L 163.466675 96.894928 
L 165.134954 99.069072 
L 167.309098 100.737351 
L 169.840942 101.786075 
L 172.557945 102.143775 
L 175.274948 101.786075 
L 177.806792 100.737351 
L 179.980936 99.069072 
L 181.649215 96.894928 
L 182.697939 94.363084 
L 183.055639 91.646081 
z
" clip-path="url(#p03a1358abd)" style="fill: #3366e6"/>
    <path d="M 88.511801 175.34455 
L 90.29434 175.916066 
L 92.000816 175.038842 
L 92.631598 173.226745 
L 91.817183 171.541277 
L 87.347432 167.656666 
L 85.564893 167.085151 
L 83.858417 167.962375 
L 83.227635 169.774472 
L 84.04205 171.45994 
z
" clip-path="url(#p03a1358abd)" style="fill: #666666"/>
    <path d="M 124.59229 176.57348 
L 124.91051 175.824043 
L 124.991046 174.03865 
L 124.786721 172.263159 
L 124.417226 171.537629 
L 102.068533 172.314549 
L 101.750316 173.063986 
L 101.669781 174.849379 
L 101.874105 176.62487 
L 102.243597 177.3504 
z
" clip-path="url(#p03a1358abd)" style="fill: #666666"/>
    <path d="M 94.68253 185.215613 
L 93.944601 184.905951 
L 92.163083 184.777684 
L 90.381565 184.905951 
L 89.643636 185.215613 
L 89.643636 207.659978 
L 90.381565 207.969644 
L 92.163083 208.097912 
L 93.944601 207.969644 
L 94.68253 207.659978 
z
" clip-path="url(#p03a1358abd)" style="fill: #666666"/>
    <path d="M 102.660777 175.179866 
L 102.303077 172.462863 
L 101.254353 169.931019 
L 99.586074 167.756875 
L 97.41193 166.088596 
L 94.880086 165.039872 
L 92.163083 164.682172 
L 89.44608 165.039872 
L 86.914236 166.088596 
L 84.740092 167.756875 
L 83.071813 169.931019 
L 82.023089 172.462863 
L 81.665388 175.179866 
L 82.023089 177.896869 
L 83.071813 180.428713 
L 84.740092 182.602857 
L 86.914236 184.271136 
L 89.44608 185.31986 
L 92.163083 185.677561 
L 94.880086 185.31986 
L 97.41193 184.271136 
L 99.586074 182.602857 
L 101.254353 180.428713 
L 102.303077 177.896869 
L 102.660777 175.179866 
z
" clip-path="url(#p03a1358abd)" style="fill: #3366e6"/>
    <path d="M 170.038498 81.610326 
L 170.776427 81.919982 
L 172.557945 82.048245 
L 174.339463 81.919982 
L 175.077391 81.610326 
L 175.077391 59.165979 
L 174.339463 58.856327 
L 172.557945 58.728065 
L 170.776427 58.856327 
L 170.038498 59.165979 
z
" clip-path="url(#p03a1358abd)" style="fill: #666666"/>
    <path d="M 132.360514 93.043486 
L 92.163083 54.071404 
L 84.123597 87.453865 
z
" clip-path="url(#p03a1358abd)" style="fill: #5f84bd; fill-opacity: 0.25; stroke: #4c4c4c; stroke-width: 0.8"/>
    <path d="M 92.163083 134.810379 
L 51.965652 95.838297 
L 84.123597 87.453865 
z
" clip-path="url(#p03a1358abd)" style="fill: #5d82ba; fill-opacity: 0.25; stroke: #4c4c4c; stroke-width: 0.8"/>
    <path d="M 172.557945 132.015568 
L 132.360514 173.782461 
L 180.597431 179.372082 
z
" clip-path="url(#p03a1358abd)" style="fill: #6e9adc; fill-opacity: 0.25; stroke: #4c4c4c; stroke-width: 0.8"/>
    <path d="M 180.9561 51.276593 
L 180.66994 49.102991 
L 179.830961 47.077515 
L 178.496338 45.3382 
L 176.757023 44.003577 
L 174.731547 43.164598 
L 172.557945 42.878438 
L 170.384342 43.164598 
L 168.358867 44.003577 
L 166.619552 45.3382 
L 165.284929 47.077515 
L 164.445949 49.102991 
L 164.159789 51.276593 
L 164.445949 53.450196 
L 165.284929 55.475671 
L 166.619552 57.214986 
L 168.358867 58.549609 
L 170.384342 59.388589 
L 172.557945 59.674749 
L 174.731547 59.388589 
L 176.757023 58.549609 
L 178.496338 57.214986 
L 179.830961 55.475671 
L 180.66994 53.450196 
L 180.9561 51.276593 
z
" clip-path="url(#p03a1358abd)" style="fill: #e61a1a"/>
    <path d="M 162.652503 94.511398 
L 162.970726 93.76196 
L 163.051264 91.976567 
L 162.846937 90.201076 
L 162.477439 89.475546 
L 140.128737 90.252466 
L 139.810517 91.001903 
L 139.729981 92.787297 
L 139.934306 94.562788 
L 140.303802 95.288318 
z
" clip-path="url(#p03a1358abd)" style="fill: #666666"/>
    <path d="M 51.965652 95.838297 
L 92.163083 54.071404 
L 84.123597 87.453865 
z
" clip-path="url(#p03a1358abd)" style="fill: #4d6c9b; fill-opacity: 0.25; stroke: #4c4c4c; stroke-width: 0.8"/>
    <path d="M 140.758669 93.043486 
L 140.472509 90.869883 
L 139.63353 88.844408 
L 138.298907 87.105093 
L 136.559592 85.77047 
L 134.534116 84.931491 
L 132.360514 84.64533 
L 130.186911 84.931491 
L 128.161436 85.77047 
L 126.422121 87.105093 
L 125.087498 88.844408 
L 124.248518 90.869883 
L 123.962358 93.043486 
L 124.248518 95.217089 
L 125.087498 97.242564 
L 126.422121 98.981879 
L 128.161436 100.316502 
L 130.186911 101.155481 
L 132.360514 101.441642 
L 134.534116 101.155481 
L 136.559592 100.316502 
L 138.298907 98.981879 
L 139.63353 97.242564 
L 140.472509 95.217089 
L 140.758669 93.043486 
z
" clip-path="url(#p03a1358abd)" style="fill: #e61a1a"/>
    <path d="M 89.643636 165.144119 
L 90.381565 165.453781 
L 92.163083 165.582048 
L 93.944601 165.453781 
L 94.68253 165.144119 
L 94.68253 142.699759 
L 93.944601 142.3901 
L 92.163083 142.261835 
L 90.381565 142.3901 
L 89.643636 142.699759 
z
" clip-path="url(#p03a1358abd)" style="fill: #666666"/>
    <path d="M 172.557945 132.015568 
L 212.755376 90.248675 
L 180.597431 98.633107 
z
" clip-path="url(#p03a1358abd)" style="fill: #4d6c9b; fill-opacity: 0.25; stroke: #4c4c4c; stroke-width: 0.8"/>
    <path d="M 100.561238 134.810379 
L 100.275078 132.636776 
L 99.436099 130.611301 
L 98.101476 128.871986 
L 96.362161 127.537363 
L 94.336685 126.698383 
L 92.163083 126.412223 
L 89.98948 126.698383 
L 87.964005 127.537363 
L 86.22469 128.871986 
L 84.890067 130.611301 
L 84.051087 132.636776 
L 83.764927 134.810379 
L 84.051087 136.983981 
L 84.890067 139.009456 
L 86.22469 140.748771 
L 87.964005 142.083395 
L 89.98948 142.922374 
L 92.163083 143.208534 
L 94.336685 142.922374 
L 96.362161 142.083395 
L 98.101476 140.748771 
L 99.436099 139.009456 
L 100.275078 136.983981 
L 100.561238 134.810379 
z
" clip-path="url(#p03a1358abd)" style="fill: #e61a1a"/>
    <path d="M 82.257633 178.045183 
L 82.57585 177.295746 
L 82.656384 175.510353 
L 82.452061 173.734862 
L 82.082569 173.009332 
L 59.733882 173.786252 
L 59.415668 174.535688 
L 59.335135 176.321082 
L 59.539457 178.096573 
L 59.908946 178.822103 
z
" clip-path="url(#p03a1358abd)" style="fill: #666666"/>
    <path d="M 60.363807 176.577271 
L 60.077647 174.403669 
L 59.238668 172.378194 
L 57.904045 170.638879 
L 56.16473 169.304255 
L 54.139254 168.465276 
L 51.965652 168.179116 
L 49.792049 168.465276 
L 47.766574 169.304255 
L 46.027259 170.638879 
L 44.692636 172.378194 
L 43.853657 174.403669 
L 43.567496 176.577271 
L 43.853657 178.750874 
L 44.692636 180.776349 
L 46.027259 182.515664 
L 47.766574 183.850287 
L 49.792049 184.689267 
L 51.965652 184.975427 
L 54.139254 184.689267 
L 56.16473 183.850287 
L 57.904045 182.515664 
L 59.238668 180.776349 
L 60.077647 178.750874 
L 60.363807 176.577271 
z
" clip-path="url(#p03a1358abd)" style="fill: #e61a1a"/>
    <path d="M 132.360514 173.782461 
L 92.163083 215.549353 
L 100.202569 182.166893 
z
" clip-path="url(#p03a1358abd)" style="fill: #4d6c9b; fill-opacity: 0.25; stroke: #4c4c4c; stroke-width: 0.8"/>
    <path d="M 235.491634 218.344164 
L 234.990854 214.54036 
L 233.52264 210.995778 
L 231.187049 207.951977 
L 228.143248 205.616386 
L 224.598666 204.148172 
L 220.794862 203.647392 
L 216.991057 204.148172 
L 213.446476 205.616386 
L 210.402675 207.951977 
L 208.067084 210.995778 
L 206.59887 214.54036 
L 206.09809 218.344164 
L 206.59887 222.147969 
L 208.067084 225.69255 
L 210.402675 228.736351 
L 213.446476 231.071942 
L 216.991057 232.540156 
L 220.794862 233.040936 
L 224.598666 232.540156 
L 228.143248 231.071942 
L 231.187049 228.736351 
L 233.52264 225.69255 
L 234.990854 222.147969 
L 235.491634 218.344164 
z
" clip-path="url(#p03a1358abd)" style="fill: #00cc33"/>
    <path d="M 88.51182 94.605592 
L 90.29436 95.177108 
L 92.000836 94.299884 
L 92.631618 92.487787 
L 91.817202 90.802318 
L 87.347417 86.917679 
L 85.564877 86.346162 
L 83.858401 87.223386 
L 83.227619 89.035483 
L 84.042035 90.720953 
z
" clip-path="url(#p03a1358abd)" style="fill: #666666"/>
    <path d="M 102.068532 91.575574 
L 101.750316 92.325011 
L 101.669781 94.110405 
L 101.874105 95.885896 
L 102.243596 96.611425 
L 124.59229 95.834506 
L 124.91051 95.085069 
L 124.991046 93.299675 
L 124.786721 91.524184 
L 124.417226 90.798654 
z
" clip-path="url(#p03a1358abd)" style="fill: #666666"/>
    <path d="M 94.68253 104.476645 
L 93.944601 104.16699 
L 92.163083 104.038726 
L 90.381565 104.16699 
L 89.643636 104.476645 
L 89.643636 126.920998 
L 90.381565 127.230657 
L 92.163083 127.358922 
L 93.944601 127.230657 
L 94.68253 126.920998 
z
" clip-path="url(#p03a1358abd)" style="fill: #666666"/>
    <path d="M 212.755376 90.248675 
L 172.557945 51.276593 
L 180.597431 98.633107 
z
" clip-path="url(#p03a1358abd)" style="fill: #5d82ba; fill-opacity: 0.25; stroke: #4c4c4c; stroke-width: 0.8"/>
    <path d="M 172.557945 132.015568 
L 132.360514 93.043486 
L 180.597431 98.633107 
z
" clip-path="url(#p03a1358abd)" style="fill: #5f84bd; fill-opacity: 0.25; stroke: #4c4c4c; stroke-width: 0.8"/>
    <path d="M 92.163083 134.810379 
L 132.360514 173.782461 
L 100.202569 182.166893 
z
" clip-path="url(#p03a1358abd)" style="fill: #5d82ba; fill-opacity: 0.25; stroke: #4c4c4c; stroke-width: 0.8"/>
    <path d="M 51.965652 176.577271 
L 92.163083 215.549353 
L 100.202569 182.166893 
z
" clip-path="url(#p03a1358abd)" style="fill: #5f84bd; fill-opacity: 0.25; stroke: #4c4c4c; stroke-width: 0.8"/>
    <path d="M 102.660777 94.440891 
L 102.303077 91.723888 
L 101.254353 89.192044 
L 99.586074 87.0179 
L 97.41193 85.349621 
L 94.880086 84.300897 
L 92.163083 83.943197 
L 89.44608 84.300897 
L 86.914236 85.349621 
L 84.740092 87.0179 
L 83.071813 89.192044 
L 82.023089 91.723888 
L 81.665388 94.440891 
L 82.023089 97.157895 
L 83.071813 99.689739 
L 84.740092 101.863882 
L 86.914236 103.532161 
L 89.44608 104.580886 
L 92.163083 104.938586 
L 94.880086 104.580886 
L 97.41193 103.532161 
L 99.586074 101.863882 
L 101.254353 99.689739 
L 102.303077 97.157895 
L 102.660777 94.440891 
z
" clip-path="url(#p03a1358abd)" style="fill: #3366e6"/>
    <path d="M 89.643636 84.405137 
L 90.381565 84.714793 
L 92.163083 84.843056 
L 93.944601 84.714793 
L 94.68253 84.405137 
L 94.68253 61.96079 
L 93.944601 61.651138 
L 92.163083 61.522875 
L 90.381565 61.651138 
L 89.643636 61.96079 
z
" clip-path="url(#p03a1358abd)" style="fill: #666666"/>
    <path d="M 132.360514 93.043486 
L 172.557945 51.276593 
L 180.597431 98.633107 
z
" clip-path="url(#p03a1358abd)" style="fill: #6e9adc; fill-opacity: 0.25; stroke: #4c4c4c; stroke-width: 0.8"/>
    <path d="M 92.163083 134.810379 
L 51.965652 176.577271 
L 100.202569 182.166893 
z
" clip-path="url(#p03a1358abd)" style="fill: #6e9adc; fill-opacity: 0.25; stroke: #4c4c4c; stroke-width: 0.8"/>
    <path d="M 100.561238 54.071404 
L 100.275078 51.897801 
L 99.436099 49.872326 
L 98.101476 48.133011 
L 96.362161 46.798388 
L 94.336685 45.959409 
L 92.163083 45.673248 
L 89.98948 45.959409 
L 87.964005 46.798388 
L 86.22469 48.133011 
L 84.890067 49.872326 
L 84.051087 51.897801 
L 83.764927 54.071404 
L 84.051087 56.245007 
L 84.890067 58.270482 
L 86.22469 60.009797 
L 87.964005 61.34442 
L 89.98948 62.183399 
L 92.163083 62.46956 
L 94.336685 62.183399 
L 96.362161 61.34442 
L 98.101476 60.009797 
L 99.436099 58.270482 
L 100.275078 56.245007 
L 100.561238 54.071404 
z
" clip-path="url(#p03a1358abd)" style="fill: #e61a1a"/>
    <path d="M 82.257633 97.306208 
L 82.57585 96.556772 
L 82.656385 94.771378 
L 82.452061 92.995887 
L 82.082569 92.270357 
L 59.733881 93.047277 
L 59.415668 93.796714 
L 59.335135 95.582107 
L 59.539457 97.357598 
L 59.908946 98.083128 
z
" clip-path="url(#p03a1358abd)" style="fill: #666666"/>
    <path d="M 60.363807 95.838297 
L 60.077647 93.664694 
L 59.238668 91.639219 
L 57.904045 89.899904 
L 56.16473 88.565281 
L 54.139254 87.726301 
L 51.965652 87.440141 
L 49.792049 87.726301 
L 47.766574 88.565281 
L 46.027259 89.899904 
L 44.692636 91.639219 
L 43.853657 93.664694 
L 43.567496 95.838297 
L 43.853657 98.011899 
L 44.692636 100.037374 
L 46.027259 101.776689 
L 47.766574 103.111313 
L 49.792049 103.950292 
L 51.965652 104.236452 
L 54.139254 103.950292 
L 56.16473 103.111313 
L 57.904045 101.776689 
L 59.238668 100.037374 
L 60.077647 98.011899 
L 60.363807 95.838297 
z
" clip-path="url(#p03a1358abd)" style="fill: #e61a1a"/>
    <path d="M 92.163083 134.810379 
L 132.360514 93.043486 
L 100.202569 101.427918 
z
" clip-path="url(#p03a1358abd)" style="fill: #4d6c9b; fill-opacity: 0.25; stroke: #4c4c4c; stroke-width: 0.8"/>
    <path d="M 235.491634 137.605189 
L 234.990854 133.801385 
L 233.52264 130.256803 
L 231.187049 127.213002 
L 228.143248 124.877411 
L 224.598666 123.409197 
L 220.794862 122.908417 
L 216.991057 123.409197 
L 213.446476 124.877411 
L 210.402675 127.213002 
L 208.067084 130.256803 
L 206.59887 133.801385 
L 206.09809 137.605189 
L 206.59887 141.408994 
L 208.067084 144.953575 
L 210.402675 147.997377 
L 213.446476 150.332967 
L 216.991057 151.801181 
L 220.794862 152.301962 
L 224.598666 151.801181 
L 228.143248 150.332967 
L 231.187049 147.997377 
L 233.52264 144.953575 
L 234.990854 141.408994 
L 235.491634 137.605189 
z
" clip-path="url(#p03a1358abd)" style="fill: #00cc33"/>
    <path d="M 176.209247 172.220389 
L 174.426709 171.648875 
L 172.720234 172.526099 
L 172.089451 174.338196 
L 172.903865 176.023663 
L 177.373573 179.908236 
L 179.156111 180.47975 
L 180.862587 179.602526 
L 181.493369 177.790429 
L 180.678956 176.104962 
z
" clip-path="url(#p03a1358abd)" style="fill: #666666"/>
    <path d="M 188.995587 179.372082 
L 188.709426 177.198479 
L 187.870447 175.173004 
L 186.535824 173.433689 
L 184.796509 172.099066 
L 182.771034 171.260087 
L 180.597431 170.973926 
L 178.423828 171.260087 
L 176.398353 172.099066 
L 174.659038 173.433689 
L 173.324415 175.173004 
L 172.485436 177.198479 
L 172.199275 179.372082 
L 172.485436 181.545685 
L 173.324415 183.57116 
L 174.659038 185.310475 
L 176.398353 186.645098 
L 178.423828 187.484077 
L 180.597431 187.770238 
L 182.771034 187.484077 
L 184.796509 186.645098 
L 186.535824 185.310475 
L 187.870447 183.57116 
L 188.709426 181.545685 
L 188.995587 179.372082 
z
" clip-path="url(#p03a1358abd)" style="fill: #e61a1a"/>
    <path d="M 155.096772 221.138975 
L 154.595992 217.33517 
L 153.127778 213.790589 
L 150.792187 210.746787 
L 147.748386 208.411197 
L 144.203805 206.942983 
L 140.4 206.442202 
L 136.596195 206.942983 
L 133.051614 208.411197 
L 130.007813 210.746787 
L 127.672222 213.790589 
L 126.204008 217.33517 
L 125.703228 221.138975 
L 126.204008 224.942779 
L 127.672222 228.487361 
L 130.007813 231.531162 
L 133.051614 233.866753 
L 136.596195 235.334967 
L 140.4 235.835747 
L 144.203805 235.334967 
L 147.748386 233.866753 
L 150.792187 231.531162 
L 153.127778 228.487361 
L 154.595992 224.942779 
L 155.096772 221.138975 
z
" clip-path="url(#p03a1358abd)" style="fill: #00cc33"/>
    <path d="M 132.360514 93.043486 
L 92.163083 54.071404 
L 100.202569 101.427918 
z
" clip-path="url(#p03a1358abd)" style="fill: #5d82ba; fill-opacity: 0.25; stroke: #4c4c4c; stroke-width: 0.8"/>
    <path d="M 92.163083 134.810379 
L 51.965652 95.838297 
L 100.202569 101.427918 
z
" clip-path="url(#p03a1358abd)" style="fill: #5f84bd; fill-opacity: 0.25; stroke: #4c4c4c; stroke-width: 0.8"/>
    <path d="M 51.965652 95.838297 
L 92.163083 54.071404 
L 100.202569 101.427918 
z
" clip-path="url(#p03a1358abd)" style="fill: #6e9adc; fill-opacity: 0.25; stroke: #4c4c4c; stroke-width: 0.8"/>
    <path d="M 235.491634 56.866215 
L 234.990854 53.06241 
L 233.52264 49.517828 
L 231.187049 46.474027 
L 228.143248 44.138436 
L 224.598666 42.670223 
L 220.794862 42.169442 
L 216.991057 42.670223 
L 213.446476 44.138436 
L 210.402675 46.474027 
L 208.067084 49.517828 
L 206.59887 53.06241 
L 206.09809 56.866215 
L 206.59887 60.670019 
L 208.067084 64.214601 
L 210.402675 67.258402 
L 213.446476 69.593993 
L 216.991057 71.062206 
L 220.794862 71.562987 
L 224.598666 71.062206 
L 228.143248 69.593993 
L 231.187049 67.258402 
L 233.52264 64.214601 
L 234.990854 60.670019 
L 235.491634 56.866215 
z
" clip-path="url(#p03a1358abd)" style="fill: #00cc33"/>
    <path d="M 176.209229 91.481398 
L 174.42669 90.909883 
L 172.720214 91.787107 
L 172.089431 93.599204 
L 172.903846 95.284672 
L 177.373588 99.169274 
L 179.156127 99.740789 
L 180.862603 98.863565 
L 181.493385 97.051468 
L 180.67897 95.366 
z
" clip-path="url(#p03a1358abd)" style="fill: #666666"/>
    <path d="M 188.995587 98.633107 
L 188.709426 96.459505 
L 187.870447 94.434029 
L 186.535824 92.694715 
L 184.796509 91.360091 
L 182.771034 90.521112 
L 180.597431 90.234952 
L 178.423828 90.521112 
L 176.398353 91.360091 
L 174.659038 92.694715 
L 173.324415 94.434029 
L 172.485436 96.459505 
L 172.199275 98.633107 
L 172.485436 100.80671 
L 173.324415 102.832185 
L 174.659038 104.5715 
L 176.398353 105.906123 
L 178.423828 106.745103 
L 180.597431 107.031263 
L 182.771034 106.745103 
L 184.796509 105.906123 
L 186.535824 104.5715 
L 187.870447 102.832185 
L 188.709426 100.80671 
L 188.995587 98.633107 
z
" clip-path="url(#p03a1358abd)" style="fill: #e61a1a"/>
    <path d="M 155.096772 140.4 
L 154.595992 136.596195 
L 153.127778 133.051614 
L 150.792187 130.007813 
L 147.748386 127.672222 
L 144.203805 126.204008 
L 140.4 125.703228 
L 136.596195 126.204008 
L 133.051614 127.672222 
L 130.007813 130.007813 
L 127.672222 133.051614 
L 126.204008 136.596195 
L 125.703228 140.4 
L 126.204008 144.203805 
L 127.672222 147.748386 
L 130.007813 150.792187 
L 133.051614 153.127778 
L 136.596195 154.595992 
L 140.4 155.096772 
L 144.203805 154.595992 
L 147.748386 153.127778 
L 150.792187 150.792187 
L 153.127778 147.748386 
L 154.595992 144.203805 
L 155.096772 140.4 
z
" clip-path="url(#p03a1358abd)" style="fill: #00cc33"/>
    <path d="M 95.814365 175.015182 
L 94.031826 174.443666 
L 92.32535 175.32089 
L 91.694567 177.132987 
L 92.508982 178.818456 
L 96.978728 182.703061 
L 98.761267 183.274576 
L 100.467742 182.397352 
L 101.098525 180.585255 
L 100.28411 178.899787 
z
" clip-path="url(#p03a1358abd)" style="fill: #666666"/>
    <path d="M 108.600725 182.166893 
L 108.314564 179.99329 
L 107.475585 177.967815 
L 106.140962 176.2285 
L 104.401647 174.893877 
L 102.376172 174.054897 
L 100.202569 173.768737 
L 98.028966 174.054897 
L 96.003491 174.893877 
L 94.264176 176.2285 
L 92.929553 177.967815 
L 92.090574 179.99329 
L 91.804413 182.166893 
L 92.090574 184.340495 
L 92.929553 186.365971 
L 94.264176 188.105285 
L 96.003491 189.439909 
L 98.028966 190.278888 
L 100.202569 190.565048 
L 102.376172 190.278888 
L 104.401647 189.439909 
L 106.140962 188.105285 
L 107.475585 186.365971 
L 108.314564 184.340495 
L 108.600725 182.166893 
z
" clip-path="url(#p03a1358abd)" style="fill: #e61a1a"/>
    <path d="M 74.70191 223.933785 
L 74.20113 220.129981 
L 72.732916 216.585399 
L 70.397325 213.541598 
L 67.353524 211.206007 
L 63.808943 209.737794 
L 60.005138 209.237013 
L 56.201334 209.737794 
L 52.656752 211.206007 
L 49.612951 213.541598 
L 47.27736 216.585399 
L 45.809146 220.129981 
L 45.308366 223.933785 
L 45.809146 227.73759 
L 47.27736 231.282172 
L 49.612951 234.325973 
L 52.656752 236.661564 
L 56.201334 238.129777 
L 60.005138 238.630558 
L 63.808943 238.129777 
L 67.353524 236.661564 
L 70.397325 234.325973 
L 72.732916 231.282172 
L 74.20113 227.73759 
L 74.70191 223.933785 
z
" clip-path="url(#p03a1358abd)" style="fill: #00cc33"/>
    <path d="M 228.834348 184.961703 
L 188.636917 226.728596 
L 180.597431 179.372082 
z
" clip-path="url(#p03a1358abd)" style="fill: #6e9adc; fill-opacity: 0.25; stroke: #4c4c4c; stroke-width: 0.8"/>
    <path d="M 188.636917 145.989621 
L 228.834348 184.961703 
L 180.597431 179.372082 
z
" clip-path="url(#p03a1358abd)" style="fill: #5f84bd; fill-opacity: 0.25; stroke: #4c4c4c; stroke-width: 0.8"/>
    <path d="M 148.439486 187.756514 
L 188.636917 226.728596 
L 180.597431 179.372082 
z
" clip-path="url(#p03a1358abd)" style="fill: #5d82ba; fill-opacity: 0.25; stroke: #4c4c4c; stroke-width: 0.8"/>
    <path d="M 155.096772 59.661025 
L 154.595992 55.857221 
L 153.127778 52.312639 
L 150.792187 49.268838 
L 147.748386 46.933247 
L 144.203805 45.465033 
L 140.4 44.964253 
L 136.596195 45.465033 
L 133.051614 46.933247 
L 130.007813 49.268838 
L 127.672222 52.312639 
L 126.204008 55.857221 
L 125.703228 59.661025 
L 126.204008 63.46483 
L 127.672222 67.009411 
L 130.007813 70.053213 
L 133.051614 72.388803 
L 136.596195 73.857017 
L 140.4 74.357798 
L 144.203805 73.857017 
L 147.748386 72.388803 
L 150.792187 70.053213 
L 153.127778 67.009411 
L 154.595992 63.46483 
L 155.096772 59.661025 
z
" clip-path="url(#p03a1358abd)" style="fill: #00cc33"/>
    <path d="M 95.814346 94.276191 
L 94.031806 93.704675 
L 92.32533 94.581898 
L 91.694548 96.393995 
L 92.508964 98.079465 
L 96.978742 101.964099 
L 98.761282 102.535615 
L 100.467758 101.658391 
L 101.098541 99.846294 
L 100.284125 98.160825 
z
" clip-path="url(#p03a1358abd)" style="fill: #666666"/>
    <path d="M 108.600725 101.427918 
L 108.314564 99.254315 
L 107.475585 97.22884 
L 106.140962 95.489525 
L 104.401647 94.154902 
L 102.376172 93.315923 
L 100.202569 93.029762 
L 98.028966 93.315923 
L 96.003491 94.154902 
L 94.264176 95.489525 
L 92.929553 97.22884 
L 92.090574 99.254315 
L 91.804413 101.427918 
L 92.090574 103.601521 
L 92.929553 105.626996 
L 94.264176 107.366311 
L 96.003491 108.700934 
L 98.028966 109.539913 
L 100.202569 109.826074 
L 102.376172 109.539913 
L 104.401647 108.700934 
L 106.140962 107.366311 
L 107.475585 105.626996 
L 108.314564 103.601521 
L 108.600725 101.427918 
z
" clip-path="url(#p03a1358abd)" style="fill: #e61a1a"/>
    <path d="M 74.70191 143.194811 
L 74.20113 139.391006 
L 72.732916 135.846425 
L 70.397325 132.802623 
L 67.353524 130.467033 
L 63.808943 128.998819 
L 60.005138 128.498038 
L 56.201334 128.998819 
L 52.656752 130.467033 
L 49.612951 132.802623 
L 47.27736 135.846425 
L 45.809146 139.391006 
L 45.308366 143.194811 
L 45.809146 146.998615 
L 47.27736 150.543197 
L 49.612951 153.586998 
L 52.656752 155.922589 
L 56.201334 157.390803 
L 60.005138 157.891583 
L 63.808943 157.390803 
L 67.353524 155.922589 
L 70.397325 153.586998 
L 72.732916 150.543197 
L 74.20113 146.998615 
L 74.70191 143.194811 
z
" clip-path="url(#p03a1358abd)" style="fill: #00cc33"/>
    <path d="M 188.636917 145.989621 
L 148.439486 187.756514 
L 180.597431 179.372082 
z
" clip-path="url(#p03a1358abd)" style="fill: #4d6c9b; fill-opacity: 0.25; stroke: #4c4c4c; stroke-width: 0.8"/>
    <path d="M 237.232504 184.961703 
L 236.946343 182.788101 
L 236.107364 180.762626 
L 234.772741 179.023311 
L 233.033426 177.688687 
L 231.007951 176.849708 
L 228.834348 176.563548 
L 226.660746 176.849708 
L 224.63527 177.688687 
L 222.895955 179.023311 
L 221.561332 180.762626 
L 220.722353 182.788101 
L 220.436193 184.961703 
L 220.722353 187.135306 
L 221.561332 189.160781 
L 222.895955 190.900096 
L 224.63527 192.234719 
L 226.660746 193.073699 
L 228.834348 193.359859 
L 231.007951 193.073699 
L 233.033426 192.234719 
L 234.772741 190.900096 
L 236.107364 189.160781 
L 236.946343 187.135306 
L 237.232504 184.961703 
z
" clip-path="url(#p03a1358abd)" style="fill: #e61a1a"/>
    <path d="M 197.035073 226.728596 
L 196.748913 224.554993 
L 195.909933 222.529518 
L 194.57531 220.790203 
L 192.835995 219.45558 
L 190.81052 218.616601 
L 188.636917 218.33044 
L 186.463315 218.616601 
L 184.437839 219.45558 
L 182.698524 220.790203 
L 181.363901 222.529518 
L 180.524922 224.554993 
L 180.238762 226.728596 
L 180.524922 228.902199 
L 181.363901 230.927674 
L 182.698524 232.666989 
L 184.437839 234.001612 
L 186.463315 234.840591 
L 188.636917 235.126752 
L 190.81052 234.840591 
L 192.835995 234.001612 
L 194.57531 232.666989 
L 195.909933 230.927674 
L 196.748913 228.902199 
L 197.035073 226.728596 
z
" clip-path="url(#p03a1358abd)" style="fill: #e61a1a"/>
    <path d="M 183.821289 178.835928 
L 182.038751 178.264414 
L 180.332275 179.141638 
L 179.701492 180.953735 
L 180.515906 182.639202 
L 184.985607 186.523768 
L 186.768145 187.095283 
L 188.47462 186.218058 
L 189.105403 184.405962 
L 188.290989 182.720495 
z
" clip-path="url(#p03a1358abd)" style="fill: #666666"/>
    <path d="M 198.542358 183.493792 
L 198.224133 184.243229 
L 198.143595 186.028623 
L 198.347922 187.804114 
L 198.717422 188.529643 
L 221.066131 187.752723 
L 221.384359 187.003285 
L 221.464899 185.217892 
L 221.26057 183.442401 
L 220.891067 182.716871 
z
" clip-path="url(#p03a1358abd)" style="fill: #666666"/>
    <path d="M 191.156364 196.394855 
L 190.418435 196.085192 
L 188.636917 195.956925 
L 186.855399 196.085192 
L 186.11747 196.394855 
L 186.11747 218.839222 
L 186.855399 219.148888 
L 188.636917 219.277156 
L 190.418435 219.148888 
L 191.156364 218.839222 
z
" clip-path="url(#p03a1358abd)" style="fill: #666666"/>
    <path d="M 188.636917 145.989621 
L 228.834348 104.222729 
L 180.597431 98.633107 
z
" clip-path="url(#p03a1358abd)" style="fill: #6e9adc; fill-opacity: 0.25; stroke: #4c4c4c; stroke-width: 0.8"/>
    <path d="M 148.439486 187.756514 
L 108.242055 229.523407 
L 100.202569 182.166893 
z
" clip-path="url(#p03a1358abd)" style="fill: #6e9adc; fill-opacity: 0.25; stroke: #4c4c4c; stroke-width: 0.8"/>
    <path d="M 199.134612 186.359109 
L 198.776911 183.642105 
L 197.728187 181.110261 
L 196.059908 178.936118 
L 193.885764 177.267839 
L 191.35392 176.219114 
L 188.636917 175.861414 
L 185.919914 176.219114 
L 183.38807 177.267839 
L 181.213926 178.936118 
L 179.545647 181.110261 
L 178.496923 183.642105 
L 178.139223 186.359109 
L 178.496923 189.076112 
L 179.545647 191.607956 
L 181.213926 193.7821 
L 183.38807 195.450379 
L 185.919914 196.499103 
L 188.636917 196.856803 
L 191.35392 196.499103 
L 193.885764 195.450379 
L 196.059908 193.7821 
L 197.728187 191.607956 
L 198.776911 189.076112 
L 199.134612 186.359109 
z
" clip-path="url(#p03a1358abd)" style="fill: #3366e6"/>
    <path d="M 228.834348 104.222729 
L 188.636917 65.250647 
L 180.597431 98.633107 
z
" clip-path="url(#p03a1358abd)" style="fill: #5f84bd; fill-opacity: 0.25; stroke: #4c4c4c; stroke-width: 0.8"/>
    <path d="M 188.636917 145.989621 
L 148.439486 107.017539 
L 180.597431 98.633107 
z
" clip-path="url(#p03a1358abd)" style="fill: #5d82ba; fill-opacity: 0.25; stroke: #4c4c4c; stroke-width: 0.8"/>
    <path d="M 108.242055 148.784432 
L 148.439486 187.756514 
L 100.202569 182.166893 
z
" clip-path="url(#p03a1358abd)" style="fill: #5f84bd; fill-opacity: 0.25; stroke: #4c4c4c; stroke-width: 0.8"/>
    <path d="M 68.044624 190.551325 
L 108.242055 229.523407 
L 100.202569 182.166893 
z
" clip-path="url(#p03a1358abd)" style="fill: #5d82ba; fill-opacity: 0.25; stroke: #4c4c4c; stroke-width: 0.8"/>
    <path d="M 74.70191 62.455836 
L 74.20113 58.652031 
L 72.732916 55.10745 
L 70.397325 52.063649 
L 67.353524 49.728058 
L 63.808943 48.259844 
L 60.005138 47.759064 
L 56.201334 48.259844 
L 52.656752 49.728058 
L 49.612951 52.063649 
L 47.27736 55.10745 
L 45.809146 58.652031 
L 45.308366 62.455836 
L 45.809146 66.25964 
L 47.27736 69.804222 
L 49.612951 72.848023 
L 52.656752 75.183614 
L 56.201334 76.651828 
L 60.005138 77.152608 
L 63.808943 76.651828 
L 67.353524 75.183614 
L 70.397325 72.848023 
L 72.732916 69.804222 
L 74.20113 66.25964 
L 74.70191 62.455836 
z
" clip-path="url(#p03a1358abd)" style="fill: #00cc33"/>
    <path d="M 148.439486 107.017539 
L 188.636917 65.250647 
L 180.597431 98.633107 
z
" clip-path="url(#p03a1358abd)" style="fill: #4d6c9b; fill-opacity: 0.25; stroke: #4c4c4c; stroke-width: 0.8"/>
    <path d="M 237.232504 104.222729 
L 236.946343 102.049126 
L 236.107364 100.023651 
L 234.772741 98.284336 
L 233.033426 96.949713 
L 231.007951 96.110733 
L 228.834348 95.824573 
L 226.660746 96.110733 
L 224.63527 96.949713 
L 222.895955 98.284336 
L 221.561332 100.023651 
L 220.722353 102.049126 
L 220.436193 104.222729 
L 220.722353 106.396331 
L 221.561332 108.421806 
L 222.895955 110.161121 
L 224.63527 111.495745 
L 226.660746 112.334724 
L 228.834348 112.620884 
L 231.007951 112.334724 
L 233.033426 111.495745 
L 234.772741 110.161121 
L 236.107364 108.421806 
L 236.946343 106.396331 
L 237.232504 104.222729 
z
" clip-path="url(#p03a1358abd)" style="fill: #e61a1a"/>
    <path d="M 186.11747 176.323363 
L 186.855399 176.633026 
L 188.636917 176.761293 
L 190.418435 176.633026 
L 191.156364 176.323363 
L 191.156364 153.879001 
L 190.418435 153.569341 
L 188.636917 153.441076 
L 186.855399 153.569341 
L 186.11747 153.879001 
z
" clip-path="url(#p03a1358abd)" style="fill: #666666"/>
    <path d="M 197.035073 145.989621 
L 196.748913 143.816019 
L 195.909933 141.790544 
L 194.57531 140.051229 
L 192.835995 138.716605 
L 190.81052 137.877626 
L 188.636917 137.591466 
L 186.463315 137.877626 
L 184.437839 138.716605 
L 182.698524 140.051229 
L 181.363901 141.790544 
L 180.524922 143.816019 
L 180.238762 145.989621 
L 180.524922 148.163224 
L 181.363901 150.188699 
L 182.698524 151.928014 
L 184.437839 153.262637 
L 186.463315 154.101617 
L 188.636917 154.387777 
L 190.81052 154.101617 
L 192.835995 153.262637 
L 194.57531 151.928014 
L 195.909933 150.188699 
L 196.748913 148.163224 
L 197.035073 145.989621 
z
" clip-path="url(#p03a1358abd)" style="fill: #e61a1a"/>
    <path d="M 178.731476 189.224426 
L 179.049701 188.474988 
L 179.130239 186.689595 
L 178.925912 184.914104 
L 178.556412 184.188574 
L 156.207709 184.965494 
L 155.889488 185.714932 
L 155.808951 187.500325 
L 156.013277 189.275816 
L 156.382773 190.001346 
z
" clip-path="url(#p03a1358abd)" style="fill: #666666"/>
    <path d="M 108.242055 148.784432 
L 68.044624 190.551325 
L 100.202569 182.166893 
z
" clip-path="url(#p03a1358abd)" style="fill: #4d6c9b; fill-opacity: 0.25; stroke: #4c4c4c; stroke-width: 0.8"/>
    <path d="M 156.837642 187.756514 
L 156.551482 185.582911 
L 155.712502 183.557436 
L 154.377879 181.818121 
L 152.638564 180.483498 
L 150.613089 179.644519 
L 148.439486 179.358358 
L 146.265884 179.644519 
L 144.240408 180.483498 
L 142.501093 181.818121 
L 141.16647 183.557436 
L 140.327491 185.582911 
L 140.041331 187.756514 
L 140.327491 189.930117 
L 141.16647 191.955592 
L 142.501093 193.694907 
L 144.240408 195.02953 
L 146.265884 195.868509 
L 148.439486 196.15467 
L 150.613089 195.868509 
L 152.638564 195.02953 
L 154.377879 193.694907 
L 155.712502 191.955592 
L 156.551482 189.930117 
L 156.837642 187.756514 
z
" clip-path="url(#p03a1358abd)" style="fill: #e61a1a"/>
    <path d="M 228.834348 184.961703 
L 188.636917 226.728596 
L 196.676403 193.346135 
z
" clip-path="url(#p03a1358abd)" style="fill: #4d6c9b; fill-opacity: 0.25; stroke: #4c4c4c; stroke-width: 0.8"/>
    <path d="M 116.640211 229.523407 
L 116.354051 227.349804 
L 115.515071 225.324329 
L 114.180448 223.585014 
L 112.441133 222.250391 
L 110.415658 221.411411 
L 108.242055 221.125251 
L 106.068453 221.411411 
L 104.042977 222.250391 
L 102.303662 223.585014 
L 100.969039 225.324329 
L 100.13006 227.349804 
L 99.8439 229.523407 
L 100.13006 231.697009 
L 100.969039 233.722485 
L 102.303662 235.4618 
L 104.042977 236.796423 
L 106.068453 237.635402 
L 108.242055 237.921562 
L 110.415658 237.635402 
L 112.441133 236.796423 
L 114.180448 235.4618 
L 115.515071 233.722485 
L 116.354051 231.697009 
L 116.640211 229.523407 
z
" clip-path="url(#p03a1358abd)" style="fill: #e61a1a"/>
    <path d="M 184.985626 105.78481 
L 186.768164 106.356325 
L 188.47464 105.479101 
L 189.105423 103.667004 
L 188.291008 101.981536 
L 183.821274 98.096941 
L 182.038735 97.525426 
L 180.332259 98.40265 
L 179.701477 100.214747 
L 180.515892 101.900215 
z
" clip-path="url(#p03a1358abd)" style="fill: #666666"/>
    <path d="M 198.542358 102.754817 
L 198.224133 103.504254 
L 198.143595 105.289648 
L 198.347922 107.065139 
L 198.717422 107.790668 
L 221.066132 107.013748 
L 221.38436 106.264311 
L 221.464899 104.478917 
L 221.260571 102.703426 
L 220.891067 101.977897 
z
" clip-path="url(#p03a1358abd)" style="fill: #666666"/>
    <path d="M 191.156364 115.655887 
L 190.418435 115.34623 
L 188.636917 115.217966 
L 186.855399 115.34623 
L 186.11747 115.655887 
L 186.11747 138.100242 
L 186.855399 138.409901 
L 188.636917 138.538167 
L 190.418435 138.409901 
L 191.156364 138.100242 
z
" clip-path="url(#p03a1358abd)" style="fill: #666666"/>
    <path d="M 108.242055 148.784432 
L 148.439486 107.017539 
L 100.202569 101.427918 
z
" clip-path="url(#p03a1358abd)" style="fill: #6e9adc; fill-opacity: 0.25; stroke: #4c4c4c; stroke-width: 0.8"/>
    <path d="M 188.636917 145.989621 
L 228.834348 184.961703 
L 196.676403 193.346135 
z
" clip-path="url(#p03a1358abd)" style="fill: #5d82ba; fill-opacity: 0.25; stroke: #4c4c4c; stroke-width: 0.8"/>
    <path d="M 148.439486 187.756514 
L 188.636917 226.728596 
L 196.676403 193.346135 
z
" clip-path="url(#p03a1358abd)" style="fill: #5f84bd; fill-opacity: 0.25; stroke: #4c4c4c; stroke-width: 0.8"/>
    <path d="M 199.134612 105.620134 
L 198.776911 102.903131 
L 197.728187 100.371287 
L 196.059908 98.197143 
L 193.885764 96.528864 
L 191.35392 95.48014 
L 188.636917 95.122439 
L 185.919914 95.48014 
L 183.38807 96.528864 
L 181.213926 98.197143 
L 179.545647 100.371287 
L 178.496923 102.903131 
L 178.139223 105.620134 
L 178.496923 108.337137 
L 179.545647 110.868981 
L 181.213926 113.043125 
L 183.38807 114.711404 
L 185.919914 115.760128 
L 188.636917 116.117828 
L 191.35392 115.760128 
L 193.885764 114.711404 
L 196.059908 113.043125 
L 197.728187 110.868981 
L 198.776911 108.337137 
L 199.134612 105.620134 
z
" clip-path="url(#p03a1358abd)" style="fill: #3366e6"/>
    <path d="M 104.590766 189.318597 
L 106.373305 189.890112 
L 108.07978 189.012888 
L 108.710563 187.200791 
L 107.896148 185.515323 
L 103.42641 181.630725 
L 101.643872 181.05921 
L 99.937396 181.936433 
L 99.306613 183.74853 
L 100.121028 185.433999 
z
" clip-path="url(#p03a1358abd)" style="fill: #666666"/>
    <path d="M 118.147504 186.288602 
L 117.829286 187.038039 
L 117.748751 188.823433 
L 117.953075 190.598924 
L 118.322568 191.324454 
L 140.671263 190.547534 
L 140.989485 189.798097 
L 141.070021 188.012703 
L 140.865696 186.237212 
L 140.496199 185.511682 
z
" clip-path="url(#p03a1358abd)" style="fill: #666666"/>
    <path d="M 110.761502 199.189665 
L 110.023573 198.880002 
L 108.242055 198.751735 
L 106.460537 198.880002 
L 105.722609 199.189665 
L 105.722609 221.634033 
L 106.460537 221.943699 
L 108.242055 222.071968 
L 110.023573 221.943699 
L 110.761502 221.634033 
z
" clip-path="url(#p03a1358abd)" style="fill: #666666"/>
    <path d="M 118.73975 189.153919 
L 118.382049 186.436916 
L 117.333325 183.905072 
L 115.665046 181.730928 
L 113.490902 180.062649 
L 110.959058 179.013925 
L 108.242055 178.656225 
L 105.525052 179.013925 
L 102.993208 180.062649 
L 100.819064 181.730928 
L 99.150785 183.905072 
L 98.102061 186.436916 
L 97.744361 189.153919 
L 98.102061 191.870923 
L 99.150785 194.402767 
L 100.819064 196.57691 
L 102.993208 198.245189 
L 105.525052 199.293914 
L 108.242055 199.651614 
L 110.959058 199.293914 
L 113.490902 198.245189 
L 115.665046 196.57691 
L 117.333325 194.402767 
L 118.382049 191.870923 
L 118.73975 189.153919 
z
" clip-path="url(#p03a1358abd)" style="fill: #3366e6"/>
    <path d="M 186.11747 95.584381 
L 186.855399 95.894037 
L 188.636917 96.022301 
L 190.418435 95.894037 
L 191.156364 95.584381 
L 191.156364 73.140032 
L 190.418435 72.830379 
L 188.636917 72.702116 
L 186.855399 72.830379 
L 186.11747 73.140032 
z
" clip-path="url(#p03a1358abd)" style="fill: #666666"/>
    <path d="M 148.439486 107.017539 
L 108.242055 68.045457 
L 100.202569 101.427918 
z
" clip-path="url(#p03a1358abd)" style="fill: #5f84bd; fill-opacity: 0.25; stroke: #4c4c4c; stroke-width: 0.8"/>
    <path d="M 108.242055 148.784432 
L 68.044624 109.81235 
L 100.202569 101.427918 
z
" clip-path="url(#p03a1358abd)" style="fill: #5d82ba; fill-opacity: 0.25; stroke: #4c4c4c; stroke-width: 0.8"/>
    <path d="M 188.636917 145.989621 
L 148.439486 187.756514 
L 196.676403 193.346135 
z
" clip-path="url(#p03a1358abd)" style="fill: #6e9adc; fill-opacity: 0.25; stroke: #4c4c4c; stroke-width: 0.8"/>
    <path d="M 197.035073 65.250647 
L 196.748913 63.077044 
L 195.909933 61.051569 
L 194.57531 59.312254 
L 192.835995 57.97763 
L 190.81052 57.138651 
L 188.636917 56.852491 
L 186.463315 57.138651 
L 184.437839 57.97763 
L 182.698524 59.312254 
L 181.363901 61.051569 
L 180.524922 63.077044 
L 180.238762 65.250647 
L 180.524922 67.424249 
L 181.363901 69.449724 
L 182.698524 71.189039 
L 184.437839 72.523663 
L 186.463315 73.362642 
L 188.636917 73.648802 
L 190.81052 73.362642 
L 192.835995 72.523663 
L 194.57531 71.189039 
L 195.909933 69.449724 
L 196.748913 67.424249 
L 197.035073 65.250647 
z
" clip-path="url(#p03a1358abd)" style="fill: #e61a1a"/>
    <path d="M 178.731477 108.485451 
L 179.049701 107.736014 
L 179.130239 105.95062 
L 178.925912 104.175129 
L 178.556413 103.449599 
L 156.207709 104.22652 
L 155.889487 104.975957 
L 155.808951 106.761351 
L 156.013276 108.536841 
L 156.382773 109.262371 
z
" clip-path="url(#p03a1358abd)" style="fill: #666666"/>
    <path d="M 68.044624 109.81235 
L 108.242055 68.045457 
L 100.202569 101.427918 
z
" clip-path="url(#p03a1358abd)" style="fill: #4d6c9b; fill-opacity: 0.25; stroke: #4c4c4c; stroke-width: 0.8"/>
    <path d="M 156.837642 107.017539 
L 156.551482 104.843937 
L 155.712502 102.818461 
L 154.377879 101.079147 
L 152.638564 99.744523 
L 150.613089 98.905544 
L 148.439486 98.619384 
L 146.265884 98.905544 
L 144.240408 99.744523 
L 142.501093 101.079147 
L 141.16647 102.818461 
L 140.327491 104.843937 
L 140.041331 107.017539 
L 140.327491 109.191142 
L 141.16647 111.216617 
L 142.501093 112.955932 
L 144.240408 114.290555 
L 146.265884 115.129535 
L 148.439486 115.415695 
L 150.613089 115.129535 
L 152.638564 114.290555 
L 154.377879 112.955932 
L 155.712502 111.216617 
L 156.551482 109.191142 
L 156.837642 107.017539 
z
" clip-path="url(#p03a1358abd)" style="fill: #e61a1a"/>
    <path d="M 105.722609 179.118173 
L 106.460537 179.427837 
L 108.242055 179.556104 
L 110.023573 179.427837 
L 110.761502 179.118173 
L 110.761502 156.673812 
L 110.023573 156.364151 
L 108.242055 156.235886 
L 106.460537 156.364151 
L 105.722609 156.673812 
z
" clip-path="url(#p03a1358abd)" style="fill: #666666"/>
    <path d="M 188.636917 145.989621 
L 228.834348 104.222729 
L 196.676403 112.607161 
z
" clip-path="url(#p03a1358abd)" style="fill: #4d6c9b; fill-opacity: 0.25; stroke: #4c4c4c; stroke-width: 0.8"/>
    <path d="M 116.640211 148.784432 
L 116.354051 146.610829 
L 115.515071 144.585354 
L 114.180448 142.846039 
L 112.441133 141.511416 
L 110.415658 140.672437 
L 108.242055 140.386276 
L 106.068453 140.672437 
L 104.042977 141.511416 
L 102.303662 142.846039 
L 100.969039 144.585354 
L 100.13006 146.610829 
L 99.8439 148.784432 
L 100.13006 150.958035 
L 100.969039 152.98351 
L 102.303662 154.722825 
L 104.042977 156.057448 
L 106.068453 156.896427 
L 108.242055 157.182588 
L 110.415658 156.896427 
L 112.441133 156.057448 
L 114.180448 154.722825 
L 115.515071 152.98351 
L 116.354051 150.958035 
L 116.640211 148.784432 
z
" clip-path="url(#p03a1358abd)" style="fill: #e61a1a"/>
    <path d="M 98.336607 192.019237 
L 98.654825 191.2698 
L 98.73536 189.484406 
L 98.531036 187.708915 
L 98.161543 186.983385 
L 75.812853 187.760305 
L 75.494638 188.509742 
L 75.414105 190.295135 
L 75.618427 192.070626 
L 75.987917 192.796156 
z
" clip-path="url(#p03a1358abd)" style="fill: #666666"/>
    <path d="M 76.44278 190.551325 
L 76.15662 188.377722 
L 75.31764 186.352247 
L 73.983017 184.612932 
L 72.243702 183.278309 
L 70.218227 182.439329 
L 68.044624 182.153169 
L 65.871022 182.439329 
L 63.845546 183.278309 
L 62.106231 184.612932 
L 60.771608 186.352247 
L 59.932629 188.377722 
L 59.646469 190.551325 
L 59.932629 192.724927 
L 60.771608 194.750402 
L 62.106231 196.489717 
L 63.845546 197.824341 
L 65.871022 198.66332 
L 68.044624 198.94948 
L 70.218227 198.66332 
L 72.243702 197.824341 
L 73.983017 196.489717 
L 75.31764 194.750402 
L 76.15662 192.724927 
L 76.44278 190.551325 
z
" clip-path="url(#p03a1358abd)" style="fill: #e61a1a"/>
    <path d="M 148.439486 187.756514 
L 108.242055 229.523407 
L 116.281541 196.140946 
z
" clip-path="url(#p03a1358abd)" style="fill: #4d6c9b; fill-opacity: 0.25; stroke: #4c4c4c; stroke-width: 0.8"/>
    <path d="M 251.570607 232.318217 
L 251.069826 228.514413 
L 249.601612 224.969831 
L 247.266022 221.92603 
L 244.22222 219.590439 
L 240.677639 218.122226 
L 236.873834 217.621445 
L 233.07003 218.122226 
L 229.525448 219.590439 
L 226.481647 221.92603 
L 224.146056 224.969831 
L 222.677842 228.514413 
L 222.177062 232.318217 
L 222.677842 236.122022 
L 224.146056 239.666604 
L 226.481647 242.710405 
L 229.525448 245.045996 
L 233.07003 246.514209 
L 236.873834 247.01499 
L 240.677639 246.514209 
L 244.22222 245.045996 
L 247.266022 242.710405 
L 249.601612 239.666604 
L 251.069826 236.122022 
L 251.570607 232.318217 
z
" clip-path="url(#p03a1358abd)" style="fill: #00cc33"/>
    <path d="M 104.590785 108.579639 
L 106.373324 109.151154 
L 108.0798 108.273931 
L 108.710583 106.461834 
L 107.896167 104.776365 
L 103.426396 100.891737 
L 101.643856 100.320221 
L 99.93738 101.197445 
L 99.306598 103.009542 
L 100.121013 104.695011 
z
" clip-path="url(#p03a1358abd)" style="fill: #666666"/>
    <path d="M 118.147503 105.549627 
L 117.829285 106.299064 
L 117.74875 108.084458 
L 117.953074 109.859949 
L 118.322567 110.585479 
L 140.671264 109.808559 
L 140.989485 109.059122 
L 141.070022 107.273728 
L 140.865696 105.498237 
L 140.4962 104.772708 
z
" clip-path="url(#p03a1358abd)" style="fill: #666666"/>
    <path d="M 110.761502 118.450697 
L 110.023573 118.141041 
L 108.242055 118.012777 
L 106.460537 118.141041 
L 105.722609 118.450697 
L 105.722609 140.895052 
L 106.460537 141.204713 
L 108.242055 141.332978 
L 110.023573 141.204713 
L 110.761502 140.895052 
z
" clip-path="url(#p03a1358abd)" style="fill: #666666"/>
    <path d="M 228.834348 104.222729 
L 188.636917 65.250647 
L 196.676403 112.607161 
z
" clip-path="url(#p03a1358abd)" style="fill: #5d82ba; fill-opacity: 0.25; stroke: #4c4c4c; stroke-width: 0.8"/>
    <path d="M 188.636917 145.989621 
L 148.439486 107.017539 
L 196.676403 112.607161 
z
" clip-path="url(#p03a1358abd)" style="fill: #5f84bd; fill-opacity: 0.25; stroke: #4c4c4c; stroke-width: 0.8"/>
    <path d="M 108.242055 148.784432 
L 148.439486 187.756514 
L 116.281541 196.140946 
z
" clip-path="url(#p03a1358abd)" style="fill: #5d82ba; fill-opacity: 0.25; stroke: #4c4c4c; stroke-width: 0.8"/>
    <path d="M 68.044624 190.551325 
L 108.242055 229.523407 
L 116.281541 196.140946 
z
" clip-path="url(#p03a1358abd)" style="fill: #5f84bd; fill-opacity: 0.25; stroke: #4c4c4c; stroke-width: 0.8"/>
    <path d="M 118.73975 108.414945 
L 118.382049 105.697941 
L 117.333325 103.166097 
L 115.665046 100.991954 
L 113.490902 99.323675 
L 110.959058 98.27495 
L 108.242055 97.91725 
L 105.525052 98.27495 
L 102.993208 99.323675 
L 100.819064 100.991954 
L 99.150785 103.166097 
L 98.102061 105.697941 
L 97.744361 108.414945 
L 98.102061 111.131948 
L 99.150785 113.663792 
L 100.819064 115.837936 
L 102.993208 117.506215 
L 105.525052 118.554939 
L 108.242055 118.912639 
L 110.959058 118.554939 
L 113.490902 117.506215 
L 115.665046 115.837936 
L 117.333325 113.663792 
L 118.382049 111.131948 
L 118.73975 108.414945 
z
" clip-path="url(#p03a1358abd)" style="fill: #3366e6"/>
    <path d="M 105.722609 98.379192 
L 106.460537 98.688849 
L 108.242055 98.817113 
L 110.023573 98.688849 
L 110.761502 98.379192 
L 110.761502 75.934842 
L 110.023573 75.625189 
L 108.242055 75.496926 
L 106.460537 75.625189 
L 105.722609 75.934842 
z
" clip-path="url(#p03a1358abd)" style="fill: #666666"/>
    <path d="M 148.439486 107.017539 
L 188.636917 65.250647 
L 196.676403 112.607161 
z
" clip-path="url(#p03a1358abd)" style="fill: #6e9adc; fill-opacity: 0.25; stroke: #4c4c4c; stroke-width: 0.8"/>
    <path d="M 108.242055 148.784432 
L 68.044624 190.551325 
L 116.281541 196.140946 
z
" clip-path="url(#p03a1358abd)" style="fill: #6e9adc; fill-opacity: 0.25; stroke: #4c4c4c; stroke-width: 0.8"/>
    <path d="M 116.640211 68.045457 
L 116.354051 65.871855 
L 115.515071 63.846379 
L 114.180448 62.107064 
L 112.441133 60.772441 
L 110.415658 59.933462 
L 108.242055 59.647302 
L 106.068453 59.933462 
L 104.042977 60.772441 
L 102.303662 62.107064 
L 100.969039 63.846379 
L 100.13006 65.871855 
L 99.8439 68.045457 
L 100.13006 70.21906 
L 100.969039 72.244535 
L 102.303662 73.98385 
L 104.042977 75.318473 
L 106.068453 76.157453 
L 108.242055 76.443613 
L 110.415658 76.157453 
L 112.441133 75.318473 
L 114.180448 73.98385 
L 115.515071 72.244535 
L 116.354051 70.21906 
L 116.640211 68.045457 
z
" clip-path="url(#p03a1358abd)" style="fill: #e61a1a"/>
    <path d="M 98.336607 111.280262 
L 98.654825 110.530825 
L 98.73536 108.745431 
L 98.531036 106.96994 
L 98.161543 106.24441 
L 75.812853 107.02133 
L 75.494638 107.770767 
L 75.414104 109.556161 
L 75.618427 111.331652 
L 75.987917 112.057182 
z
" clip-path="url(#p03a1358abd)" style="fill: #666666"/>
    <path d="M 76.44278 109.81235 
L 76.15662 107.638747 
L 75.31764 105.613272 
L 73.983017 103.873957 
L 72.243702 102.539334 
L 70.218227 101.700355 
L 68.044624 101.414194 
L 65.871022 101.700355 
L 63.845546 102.539334 
L 62.106231 103.873957 
L 60.771608 105.613272 
L 59.932629 107.638747 
L 59.646469 109.81235 
L 59.932629 111.985953 
L 60.771608 114.011428 
L 62.106231 115.750743 
L 63.845546 117.085366 
L 65.871022 117.924345 
L 68.044624 118.210506 
L 70.218227 117.924345 
L 72.243702 117.085366 
L 73.983017 115.750743 
L 75.31764 114.011428 
L 76.15662 111.985953 
L 76.44278 109.81235 
z
" clip-path="url(#p03a1358abd)" style="fill: #e61a1a"/>
    <path d="M 108.242055 148.784432 
L 148.439486 107.017539 
L 116.281541 115.401971 
z
" clip-path="url(#p03a1358abd)" style="fill: #4d6c9b; fill-opacity: 0.25; stroke: #4c4c4c; stroke-width: 0.8"/>
    <path d="M 251.570607 151.579243 
L 251.069826 147.775438 
L 249.601612 144.230857 
L 247.266022 141.187055 
L 244.22222 138.851465 
L 240.677639 137.383251 
L 236.873834 136.88247 
L 233.07003 137.383251 
L 229.525448 138.851465 
L 226.481647 141.187055 
L 224.146056 144.230857 
L 222.677842 147.775438 
L 222.177062 151.579243 
L 222.677842 155.383047 
L 224.146056 158.927629 
L 226.481647 161.97143 
L 229.525448 164.307021 
L 233.07003 165.775235 
L 236.873834 166.276015 
L 240.677639 165.775235 
L 244.22222 164.307021 
L 247.266022 161.97143 
L 249.601612 158.927629 
L 251.069826 155.383047 
L 251.570607 151.579243 
z
" clip-path="url(#p03a1358abd)" style="fill: #00cc33"/>
    <path d="M 192.288227 186.194449 
L 190.50569 185.622935 
L 188.799214 186.500159 
L 188.168431 188.312256 
L 188.982845 189.997723 
L 193.45254 193.882284 
L 195.235077 194.453798 
L 196.941553 193.576574 
L 197.572336 191.764477 
L 196.757922 190.07901 
z
" clip-path="url(#p03a1358abd)" style="fill: #666666"/>
    <path d="M 205.074559 193.346135 
L 204.788399 191.172533 
L 203.949419 189.147058 
L 202.614796 187.407743 
L 200.875481 186.073119 
L 198.850006 185.23414 
L 196.676403 184.94798 
L 194.502801 185.23414 
L 192.477326 186.073119 
L 190.738011 187.407743 
L 189.403387 189.147058 
L 188.564408 191.172533 
L 188.278248 193.346135 
L 188.564408 195.519738 
L 189.403387 197.545213 
L 190.738011 199.284528 
L 192.477326 200.619151 
L 194.502801 201.458131 
L 196.676403 201.744291 
L 198.850006 201.458131 
L 200.875481 200.619151 
L 202.614796 199.284528 
L 203.949419 197.545213 
L 204.788399 195.519738 
L 205.074559 193.346135 
z
" clip-path="url(#p03a1358abd)" style="fill: #e61a1a"/>
    <path d="M 171.175745 235.113028 
L 170.674964 231.309224 
L 169.206751 227.764642 
L 166.87116 224.720841 
L 163.827359 222.38525 
L 160.282777 220.917036 
L 156.478972 220.416256 
L 152.675168 220.917036 
L 149.130586 222.38525 
L 146.086785 224.720841 
L 143.751194 227.764642 
L 142.28298 231.309224 
L 141.7822 235.113028 
L 142.28298 238.916833 
L 143.751194 242.461414 
L 146.086785 245.505215 
L 149.130586 247.840806 
L 152.675168 249.30902 
L 156.478972 249.8098 
L 160.282777 249.30902 
L 163.827359 247.840806 
L 166.87116 245.505215 
L 169.206751 242.461414 
L 170.674964 238.916833 
L 171.175745 235.113028 
z
" clip-path="url(#p03a1358abd)" style="fill: #00cc33"/>
    <path d="M 148.439486 107.017539 
L 108.242055 68.045457 
L 116.281541 115.401971 
z
" clip-path="url(#p03a1358abd)" style="fill: #5d82ba; fill-opacity: 0.25; stroke: #4c4c4c; stroke-width: 0.8"/>
    <path d="M 108.242055 148.784432 
L 68.044624 109.81235 
L 116.281541 115.401971 
z
" clip-path="url(#p03a1358abd)" style="fill: #5f84bd; fill-opacity: 0.25; stroke: #4c4c4c; stroke-width: 0.8"/>
    <path d="M 68.044624 109.81235 
L 108.242055 68.045457 
L 116.281541 115.401971 
z
" clip-path="url(#p03a1358abd)" style="fill: #6e9adc; fill-opacity: 0.25; stroke: #4c4c4c; stroke-width: 0.8"/>
    <path d="M 251.570607 70.840268 
L 251.069826 67.036463 
L 249.601612 63.491882 
L 247.266022 60.448081 
L 244.22222 58.11249 
L 240.677639 56.644276 
L 236.873834 56.143496 
L 233.07003 56.644276 
L 229.525448 58.11249 
L 226.481647 60.448081 
L 224.146056 63.491882 
L 222.677842 67.036463 
L 222.177062 70.840268 
L 222.677842 74.644072 
L 224.146056 78.188654 
L 226.481647 81.232455 
L 229.525448 83.568046 
L 233.07003 85.03626 
L 236.873834 85.53704 
L 240.677639 85.03626 
L 244.22222 83.568046 
L 247.266022 81.232455 
L 249.601612 78.188654 
L 251.069826 74.644072 
L 251.570607 70.840268 
z
" clip-path="url(#p03a1358abd)" style="fill: #00cc33"/>
    <path d="M 192.288209 105.455458 
L 190.50567 104.883943 
L 188.799194 105.761167 
L 188.168412 107.573264 
L 188.982826 109.258732 
L 193.452554 113.143322 
L 195.235093 113.714837 
L 196.941569 112.837613 
L 197.572351 111.025516 
L 196.757937 109.340048 
z
" clip-path="url(#p03a1358abd)" style="fill: #666666"/>
    <path d="M 205.074559 112.607161 
L 204.788399 110.433558 
L 203.949419 108.408083 
L 202.614796 106.668768 
L 200.875481 105.334145 
L 198.850006 104.495165 
L 196.676403 104.209005 
L 194.502801 104.495165 
L 192.477326 105.334145 
L 190.738011 106.668768 
L 189.403387 108.408083 
L 188.564408 110.433558 
L 188.278248 112.607161 
L 188.564408 114.780763 
L 189.403387 116.806238 
L 190.738011 118.545553 
L 192.477326 119.880177 
L 194.502801 120.719156 
L 196.676403 121.005316 
L 198.850006 120.719156 
L 200.875481 119.880177 
L 202.614796 118.545553 
L 203.949419 116.806238 
L 204.788399 114.780763 
L 205.074559 112.607161 
z
" clip-path="url(#p03a1358abd)" style="fill: #e61a1a"/>
    <path d="M 171.175745 154.374053 
L 170.674964 150.570249 
L 169.206751 147.025667 
L 166.87116 143.981866 
L 163.827359 141.646275 
L 160.282777 140.178061 
L 156.478972 139.677281 
L 152.675168 140.178061 
L 149.130586 141.646275 
L 146.086785 143.981866 
L 143.751194 147.025667 
L 142.28298 150.570249 
L 141.7822 154.374053 
L 142.28298 158.177858 
L 143.751194 161.722439 
L 146.086785 164.766241 
L 149.130586 167.101831 
L 152.675168 168.570045 
L 156.478972 169.070826 
L 160.282777 168.570045 
L 163.827359 167.101831 
L 166.87116 164.766241 
L 169.206751 161.722439 
L 170.674964 158.177858 
L 171.175745 154.374053 
z
" clip-path="url(#p03a1358abd)" style="fill: #00cc33"/>
    <path d="M 111.893345 188.989241 
L 110.110806 188.417727 
L 108.40433 189.294951 
L 107.773547 191.107047 
L 108.587962 192.792515 
L 113.057694 196.677109 
L 114.840233 197.248624 
L 116.546708 196.3714 
L 117.177491 194.559303 
L 116.363077 192.873835 
z
" clip-path="url(#p03a1358abd)" style="fill: #666666"/>
    <path d="M 124.679697 196.140946 
L 124.393537 193.967343 
L 123.554558 191.941868 
L 122.219934 190.202553 
L 120.480619 188.86793 
L 118.455144 188.028951 
L 116.281541 187.74279 
L 114.107939 188.028951 
L 112.082464 188.86793 
L 110.343149 190.202553 
L 109.008525 191.941868 
L 108.169546 193.967343 
L 107.883386 196.140946 
L 108.169546 198.314549 
L 109.008525 200.340024 
L 110.343149 202.079339 
L 112.082464 203.413962 
L 114.107939 204.252941 
L 116.281541 204.539102 
L 118.455144 204.252941 
L 120.480619 203.413962 
L 122.219934 202.079339 
L 123.554558 200.340024 
L 124.393537 198.314549 
L 124.679697 196.140946 
z
" clip-path="url(#p03a1358abd)" style="fill: #e61a1a"/>
    <path d="M 90.780883 237.907839 
L 90.280102 234.104034 
L 88.811889 230.559453 
L 86.476298 227.515651 
L 83.432497 225.180061 
L 79.887915 223.711847 
L 76.08411 223.211066 
L 72.280306 223.711847 
L 68.735724 225.180061 
L 65.691923 227.515651 
L 63.356332 230.559453 
L 61.888119 234.104034 
L 61.387338 237.907839 
L 61.888119 241.711643 
L 63.356332 245.256225 
L 65.691923 248.300026 
L 68.735724 250.635617 
L 72.280306 252.103831 
L 76.08411 252.604611 
L 79.887915 252.103831 
L 83.432497 250.635617 
L 86.476298 248.300026 
L 88.811889 245.256225 
L 90.280102 241.711643 
L 90.780883 237.907839 
z
" clip-path="url(#p03a1358abd)" style="fill: #00cc33"/>
    <path d="M 171.175745 73.635079 
L 170.674964 69.831274 
L 169.206751 66.286692 
L 166.87116 63.242891 
L 163.827359 60.9073 
L 160.282777 59.439087 
L 156.478972 58.938306 
L 152.675168 59.439087 
L 149.130586 60.9073 
L 146.086785 63.242891 
L 143.751194 66.286692 
L 142.28298 69.831274 
L 141.7822 73.635079 
L 142.28298 77.438883 
L 143.751194 80.983465 
L 146.086785 84.027266 
L 149.130586 86.362857 
L 152.675168 87.83107 
L 156.478972 88.331851 
L 160.282777 87.83107 
L 163.827359 86.362857 
L 166.87116 84.027266 
L 169.206751 80.983465 
L 170.674964 77.438883 
L 171.175745 73.635079 
z
" clip-path="url(#p03a1358abd)" style="fill: #00cc33"/>
    <path d="M 111.893326 108.25025 
L 110.110786 107.678735 
L 108.40431 108.555958 
L 107.773528 110.368056 
L 108.587943 112.053524 
L 113.057709 115.938147 
L 114.840248 116.509663 
L 116.546724 115.632439 
L 117.177507 113.820342 
L 116.363091 112.134873 
z
" clip-path="url(#p03a1358abd)" style="fill: #666666"/>
    <path d="M 124.679697 115.401971 
L 124.393537 113.228369 
L 123.554558 111.202893 
L 122.219934 109.463579 
L 120.480619 108.128955 
L 118.455144 107.289976 
L 116.281541 107.003816 
L 114.107939 107.289976 
L 112.082464 108.128955 
L 110.343149 109.463579 
L 109.008525 111.202893 
L 108.169546 113.228369 
L 107.883386 115.401971 
L 108.169546 117.575574 
L 109.008525 119.601049 
L 110.343149 121.340364 
L 112.082464 122.674987 
L 114.107939 123.513967 
L 116.281541 123.800127 
L 118.455144 123.513967 
L 120.480619 122.674987 
L 122.219934 121.340364 
L 123.554558 119.601049 
L 124.393537 117.575574 
L 124.679697 115.401971 
z
" clip-path="url(#p03a1358abd)" style="fill: #e61a1a"/>
    <path d="M 90.780883 157.168864 
L 90.280102 153.365059 
L 88.811889 149.820478 
L 86.476298 146.776677 
L 83.432497 144.441086 
L 79.887915 142.972872 
L 76.08411 142.472092 
L 72.280306 142.972872 
L 68.735724 144.441086 
L 65.691923 146.776677 
L 63.356332 149.820478 
L 61.888119 153.365059 
L 61.387338 157.168864 
L 61.888119 160.972669 
L 63.356332 164.51725 
L 65.691923 167.561051 
L 68.735724 169.896642 
L 72.280306 171.364856 
L 76.08411 171.865636 
L 79.887915 171.364856 
L 83.432497 169.896642 
L 86.476298 167.561051 
L 88.811889 164.51725 
L 90.280102 160.972669 
L 90.780883 157.168864 
z
" clip-path="url(#p03a1358abd)" style="fill: #00cc33"/>
    <path d="M 90.780883 76.429889 
L 90.280102 72.626085 
L 88.811889 69.081503 
L 86.476298 66.037702 
L 83.432497 63.702111 
L 79.887915 62.233897 
L 76.08411 61.733117 
L 72.280306 62.233897 
L 68.735724 63.702111 
L 65.691923 66.037702 
L 63.356332 69.081503 
L 61.888119 72.626085 
L 61.387338 76.429889 
L 61.888119 80.233694 
L 63.356332 83.778275 
L 65.691923 86.822077 
L 68.735724 89.157667 
L 72.280306 90.625881 
L 76.08411 91.126662 
L 79.887915 90.625881 
L 83.432497 89.157667 
L 86.476298 86.822077 
L 88.811889 83.778275 
L 90.280102 80.233694 
L 90.780883 76.429889 
z
" clip-path="url(#p03a1358abd)" style="fill: #00cc33"/>
   </g>
  </g>
 </g>
 <defs>
  <clipPath id="p03a1358abd">
   <rect x="7.2" y="7.2" width="266.4" height="266.4"/>
  </clipPath>
 </defs>
</svg>
