<?xml version="1.0" encoding="utf-8" standalone="no"?>
<!DOCTYPE svg PUBLIC "-//W3C//DTD SVG 1.1//EN"
  "http://www.w3.org/Graphics/SVG/1.1/DTD/svg11.dtd">
<svg xmlns:xlink="http://www.w3.org/1999/xlink" width="280.8pt" height="280.8pt" viewBox="0 0 280.8 280.8" xmlns="http://www.w3.org/2000/svg" version="1.1">
 <metadata>
  <rdf:RDF xmlns:dc="http://purl.org/dc/elements/1.1/" xmlns:cc="http://creativecommons.org/ns#" xmlns:rdf="http://www.w3.org/1999/02/22-rdf-syntax-ns#">
   <cc:Work>
    <dc:type rdf:resource="http://purl.org/dc/dcmitype/StillImage"/>
    <dc:date>2026-02-16T06:27:52.790226</dc:date>
    <dc:format>image/svg+xml</dc:format>
    <dc:creator>
     <cc:Agent>
      <dc:title>Matplotlib v3.10.7, https://matplotlib.org/</dc:title>
     </cc:Agent>
    </dc:creator>
   </cc:Work>
  </rdf:RDF>
 </metadata>
 <defs>
  <style type="text/css">*{stroke-linejoin: round; stroke-linecap: butt}</style>
 </defs>
 <g id="figure_1">
  <g id="patch_1">
   <path d="M 0 280.8 
L 280.8 280.8 
L 280.8 0 
L 0 0 
z
" style="fill: #ffffff"/>
  </g>
  <g id="axes_1">
   <g id="PolyCollection_1">
    <path d="M 224.797357 198.013284 
L 223.895323 191.161657 
L 221.250693 184.776957 
L 217.043696 179.294291 
L 211.561029 175.087293 
L 205.176329 172.442664 
L 198.324702 171.54063 
L 191.473075 172.442664 
L 185.088375 175.087293 
L 179.605709 179.294291 
L 175.398711 184.776957 
L 172.754082 191.161657 
L 171.852048 198.013284 
L 172.754082 204.864911 
L 175.398711 211.249611 
L 179.605709 216.732277 
L 185.088375 220.939275 
L 191.473075 223.583905 
L 198.324702 224.485938 
L 205.176329 223.583905 
L 211.561029 220.939275 
L 217.043696 216.732277 
L 221.250693 211.249611 
L 223.895323 204.864911 
L 224.797357 198.013284 
z
" clip-path="url(#pfeb8429c03)" style="fill: #00cc33; stroke: #262626; stroke-width: 1.5"/>
    <path d="M 224.797357 125.297489 
L 223.895323 118.445862 
L 221.250693 112.061161 
L 217.043696 106.578495 
L 211.561029 102.371497 
L 205.176329 99.726868 
L 198.324702 98.824834 
L 191.473075 99.726868 
L 185.088375 102.371497 
L 179.605709 106.578495 
L 175.398711 112.061161 
L 172.754082 118.445862 
L 171.852048 125.297489 
L 172.754082 132.149116 
L 175.398711 138.533816 
L 179.605709 144.016482 
L 185.088375 148.22348 
L 191.473075 150.868109 
L 198.324702 151.770143 
L 205.176329 150.868109 
L 211.561029 148.22348 
L 217.043696 144.016482 
L 221.250693 138.533816 
L 223.895323 132.149116 
L 224.797357 125.297489 
z
" clip-path="url(#pfeb8429c03)" style="fill: #00cc33; stroke: #262626; stroke-width: 1.5"/>
    <path d="M 177.248994 162.913929 
L 176.733546 158.998713 
L 175.22233 155.350313 
L 172.818331 152.217361 
L 169.685379 149.813363 
L 166.036979 148.302146 
L 162.121763 147.786698 
L 158.206548 148.302146 
L 154.558148 149.813363 
L 151.425196 152.217361 
L 149.021197 155.350313 
L 147.50998 158.998713 
L 146.994532 162.913929 
L 147.50998 166.829144 
L 149.021197 170.477545 
L 151.425196 173.610497 
L 154.558148 176.014495 
L 158.206548 177.525712 
L 162.121763 178.04116 
L 166.036979 177.525712 
L 169.685379 176.014495 
L 172.818331 173.610497 
L 175.22233 170.477545 
L 176.733546 166.829144 
L 177.248994 162.913929 
z
" clip-path="url(#pfeb8429c03)" style="fill: #e61a1a; stroke: #262626; stroke-width: 1.5"/>
    <path d="M 152.391479 200.530369 
L 151.489445 193.678742 
L 148.844816 187.294042 
L 144.637818 181.811376 
L 139.155152 177.604378 
L 132.770452 174.959749 
L 125.918824 174.057715 
L 119.067197 174.959749 
L 112.682497 177.604378 
L 107.199831 181.811376 
L 102.992833 187.294042 
L 100.348204 193.678742 
L 99.44617 200.530369 
L 100.348204 207.381996 
L 102.992833 213.766696 
L 107.199831 219.249363 
L 112.682497 223.45636 
L 119.067197 226.10099 
L 125.918824 227.003024 
L 132.770452 226.10099 
L 139.155152 223.45636 
L 144.637818 219.249363 
L 148.844816 213.766696 
L 151.489445 207.381996 
L 152.391479 200.530369 
z
" clip-path="url(#pfeb8429c03)" style="fill: #00cc33; stroke: #262626; stroke-width: 1.5"/>
    <path d="M 224.797357 52.581693 
L 223.895323 45.730066 
L 221.250693 39.345366 
L 217.043696 33.8627 
L 211.561029 29.655702 
L 205.176329 27.011073 
L 198.324702 26.109039 
L 191.473075 27.011073 
L 185.088375 29.655702 
L 179.605709 33.8627 
L 175.398711 39.345366 
L 172.754082 45.730066 
L 171.852048 52.581693 
L 172.754082 59.43332 
L 175.398711 65.81802 
L 179.605709 71.300687 
L 185.088375 75.507684 
L 191.473075 78.152314 
L 198.324702 79.054348 
L 205.176329 78.152314 
L 211.561029 75.507684 
L 217.043696 71.300687 
L 221.250693 65.81802 
L 223.895323 59.43332 
L 224.797357 52.581693 
z
" clip-path="url(#pfeb8429c03)" style="fill: #00cc33; stroke: #262626; stroke-width: 1.5"/>
    <path d="M 177.248994 90.198134 
L 176.733546 86.282918 
L 175.22233 82.634518 
L 172.818331 79.501566 
L 169.685379 77.097567 
L 166.036979 75.58635 
L 162.121763 75.070902 
L 158.206548 75.58635 
L 154.558148 77.097567 
L 151.425196 79.501566 
L 149.021197 82.634518 
L 147.50998 86.282918 
L 146.994532 90.198134 
L 147.50998 94.113349 
L 149.021197 97.761749 
L 151.425196 100.894701 
L 154.558148 103.2987 
L 158.206548 104.809917 
L 162.121763 105.325365 
L 166.036979 104.809917 
L 169.685379 103.2987 
L 172.818331 100.894701 
L 175.22233 97.761749 
L 176.733546 94.113349 
L 177.248994 90.198134 
z
" clip-path="url(#pfeb8429c03)" style="fill: #e61a1a; stroke: #262626; stroke-width: 1.5"/>
    <path d="M 152.391479 127.814574 
L 151.489445 120.962947 
L 148.844816 114.578247 
L 144.637818 109.09558 
L 139.155152 104.888583 
L 132.770452 102.243953 
L 125.918824 101.341919 
L 119.067197 102.243953 
L 112.682497 104.888583 
L 107.199831 109.09558 
L 102.992833 114.578247 
L 100.348204 120.962947 
L 99.44617 127.814574 
L 100.348204 134.666201 
L 102.992833 141.050901 
L 107.199831 146.533567 
L 112.682497 150.740565 
L 119.067197 153.385194 
L 125.918824 154.287228 
L 132.770452 153.385194 
L 139.155152 150.740565 
L 144.637818 146.533567 
L 148.844816 141.050901 
L 151.489445 134.666201 
L 152.391479 127.814574 
z
" clip-path="url(#pfeb8429c03)" style="fill: #00cc33; stroke: #262626; stroke-width: 1.5"/>
    <path d="M 104.843117 165.431014 
L 104.327669 161.515799 
L 102.816452 157.867399 
L 100.412453 154.734447 
L 97.279501 152.330448 
L 93.631101 150.819231 
L 89.715886 150.303783 
L 85.80067 150.819231 
L 82.15227 152.330448 
L 79.019318 154.734447 
L 76.615319 157.867399 
L 75.104102 161.515799 
L 74.588655 165.431014 
L 75.104102 169.34623 
L 76.615319 172.99463 
L 79.019318 176.127582 
L 82.15227 178.531581 
L 85.80067 180.042797 
L 89.715886 180.558245 
L 93.631101 180.042797 
L 97.279501 178.531581 
L 100.412453 176.127582 
L 102.816452 172.99463 
L 104.327669 169.34623 
L 104.843117 165.431014 
z
" clip-path="url(#pfeb8429c03)" style="fill: #e61a1a; stroke: #262626; stroke-width: 1.5"/>
    <path d="M 79.985601 203.047455 
L 79.083567 196.195827 
L 76.438938 189.811127 
L 72.23194 184.328461 
L 66.749274 180.121463 
L 60.364574 177.476834 
L 53.512947 176.5748 
L 46.66132 177.476834 
L 40.27662 180.121463 
L 34.793953 184.328461 
L 30.586956 189.811127 
L 27.942326 196.195827 
L 27.040292 203.047455 
L 27.942326 209.899082 
L 30.586956 216.283782 
L 34.793953 221.766448 
L 40.27662 225.973446 
L 46.66132 228.618075 
L 53.512947 229.520109 
L 60.364574 228.618075 
L 66.749274 225.973446 
L 72.23194 221.766448 
L 76.438938 216.283782 
L 79.083567 209.899082 
L 79.985601 203.047455 
z
" clip-path="url(#pfeb8429c03)" style="fill: #00cc33; stroke: #262626; stroke-width: 1.5"/>
    <path d="M 152.391479 55.098778 
L 151.489445 48.247151 
L 148.844816 41.862451 
L 144.637818 36.379785 
L 139.155152 32.172787 
L 132.770452 29.528158 
L 125.918824 28.626124 
L 119.067197 29.528158 
L 112.682497 32.172787 
L 107.199831 36.379785 
L 102.992833 41.862451 
L 100.348204 48.247151 
L 99.44617 55.098778 
L 100.348204 61.950406 
L 102.992833 68.335106 
L 107.199831 73.817772 
L 112.682497 78.02477 
L 119.067197 80.669399 
L 125.918824 81.571433 
L 132.770452 80.669399 
L 139.155152 78.02477 
L 144.637818 73.817772 
L 148.844816 68.335106 
L 151.489445 61.950406 
L 152.391479 55.098778 
z
" clip-path="url(#pfeb8429c03)" style="fill: #00cc33; stroke: #262626; stroke-width: 1.5"/>
    <path d="M 104.843117 92.715219 
L 104.327669 88.800003 
L 102.816452 85.151603 
L 100.412453 82.018651 
L 97.279501 79.614652 
L 93.631101 78.103436 
L 89.715886 77.587988 
L 85.80067 78.103436 
L 82.15227 79.614652 
L 79.019318 82.018651 
L 76.615319 85.151603 
L 75.104102 88.800003 
L 74.588655 92.715219 
L 75.104102 96.630434 
L 76.615319 100.278834 
L 79.019318 103.411786 
L 82.15227 105.815785 
L 85.80067 107.327002 
L 89.715886 107.84245 
L 93.631101 107.327002 
L 97.279501 105.815785 
L 100.412453 103.411786 
L 102.816452 100.278834 
L 104.327669 96.630434 
L 104.843117 92.715219 
z
" clip-path="url(#pfeb8429c03)" style="fill: #e61a1a; stroke: #262626; stroke-width: 1.5"/>
    <path d="M 79.985601 130.331659 
L 79.083567 123.480032 
L 76.438938 117.095332 
L 72.23194 111.612666 
L 66.749274 107.405668 
L 60.364574 104.761039 
L 53.512947 103.859005 
L 46.66132 104.761039 
L 40.27662 107.405668 
L 34.793953 111.612666 
L 30.586956 117.095332 
L 27.942326 123.480032 
L 27.040292 130.331659 
L 27.942326 137.183286 
L 30.586956 143.567986 
L 34.793953 149.050653 
L 40.27662 153.25765 
L 46.66132 155.90228 
L 53.512947 156.804313 
L 60.364574 155.90228 
L 66.749274 153.25765 
L 72.23194 149.050653 
L 76.438938 143.567986 
L 79.083567 137.183286 
L 79.985601 130.331659 
z
" clip-path="url(#pfeb8429c03)" style="fill: #00cc33; stroke: #262626; stroke-width: 1.5"/>
    <path d="M 220.692521 167.948099 
L 220.177073 164.032884 
L 218.665856 160.384484 
L 216.261858 157.251532 
L 213.128905 154.847533 
L 209.480505 153.336316 
L 205.56529 152.820868 
L 201.650074 153.336316 
L 198.001674 154.847533 
L 194.868722 157.251532 
L 192.464724 160.384484 
L 190.953507 164.032884 
L 190.438059 167.948099 
L 190.953507 171.863315 
L 192.464724 175.511715 
L 194.868722 178.644667 
L 198.001674 181.048666 
L 201.650074 182.559883 
L 205.56529 183.07533 
L 209.480505 182.559883 
L 213.128905 181.048666 
L 216.261858 178.644667 
L 218.665856 175.511715 
L 220.177073 171.863315 
L 220.692521 167.948099 
z
" clip-path="url(#pfeb8429c03)" style="fill: #e61a1a; stroke: #262626; stroke-width: 1.5"/>
    <path d="M 184.489582 205.56454 
L 183.974134 201.649324 
L 182.462917 198.000924 
L 180.058919 194.867972 
L 176.925967 192.463973 
L 173.277567 190.952757 
L 169.362351 190.437309 
L 165.447136 190.952757 
L 161.798736 192.463973 
L 158.665783 194.867972 
L 156.261785 198.000924 
L 154.750568 201.649324 
L 154.23512 205.56454 
L 154.750568 209.479755 
L 156.261785 213.128155 
L 158.665783 216.261107 
L 161.798736 218.665106 
L 165.447136 220.176323 
L 169.362351 220.691771 
L 173.277567 220.176323 
L 176.925967 218.665106 
L 180.058919 216.261107 
L 182.462917 213.128155 
L 183.974134 209.479755 
L 184.489582 205.56454 
z
" clip-path="url(#pfeb8429c03)" style="fill: #e61a1a; stroke: #262626; stroke-width: 1.5"/>
    <path d="M 188.27139 169.206642 
L 187.62708 164.312623 
L 185.738059 159.752123 
L 182.733061 155.835932 
L 178.816871 152.830934 
L 174.25637 150.941913 
L 169.362351 150.297603 
L 164.468332 150.941913 
L 159.907832 152.830934 
L 155.991641 155.835932 
L 152.986643 159.752123 
L 151.097622 164.312623 
L 150.453312 169.206642 
L 151.097622 174.100661 
L 152.986643 178.661161 
L 155.991641 182.577352 
L 159.907832 185.58235 
L 164.468332 187.471371 
L 169.362351 188.115681 
L 174.25637 187.471371 
L 178.816871 185.58235 
L 182.733061 182.577352 
L 185.738059 178.661161 
L 187.62708 174.100661 
L 188.27139 169.206642 
z
" clip-path="url(#pfeb8429c03)" style="fill: #3366e6; stroke: #262626; stroke-width: 1.5"/>
    <path d="M 79.985601 57.615864 
L 79.083567 50.764237 
L 76.438938 44.379536 
L 72.23194 38.89687 
L 66.749274 34.689872 
L 60.364574 32.045243 
L 53.512947 31.143209 
L 46.66132 32.045243 
L 40.27662 34.689872 
L 34.793953 38.89687 
L 30.586956 44.379536 
L 27.942326 50.764237 
L 27.040292 57.615864 
L 27.942326 64.467491 
L 30.586956 70.852191 
L 34.793953 76.334857 
L 40.27662 80.541855 
L 46.66132 83.186484 
L 53.512947 84.088518 
L 60.364574 83.186484 
L 66.749274 80.541855 
L 72.23194 76.334857 
L 76.438938 70.852191 
L 79.083567 64.467491 
L 79.985601 57.615864 
z
" clip-path="url(#pfeb8429c03)" style="fill: #00cc33; stroke: #262626; stroke-width: 1.5"/>
    <path d="M 220.692521 95.232304 
L 220.177073 91.317088 
L 218.665856 87.668688 
L 216.261858 84.535736 
L 213.128905 82.131738 
L 209.480505 80.620521 
L 205.56529 80.105073 
L 201.650074 80.620521 
L 198.001674 82.131738 
L 194.868722 84.535736 
L 192.464724 87.668688 
L 190.953507 91.317088 
L 190.438059 95.232304 
L 190.953507 99.147519 
L 192.464724 102.79592 
L 194.868722 105.928872 
L 198.001674 108.33287 
L 201.650074 109.844087 
L 205.56529 110.359535 
L 209.480505 109.844087 
L 213.128905 108.33287 
L 216.261858 105.928872 
L 218.665856 102.79592 
L 220.177073 99.147519 
L 220.692521 95.232304 
z
" clip-path="url(#pfeb8429c03)" style="fill: #e61a1a; stroke: #262626; stroke-width: 1.5"/>
    <path d="M 184.489582 132.848744 
L 183.974134 128.933529 
L 182.462917 125.285129 
L 180.058919 122.152177 
L 176.925967 119.748178 
L 173.277567 118.236961 
L 169.362351 117.721513 
L 165.447136 118.236961 
L 161.798736 119.748178 
L 158.665783 122.152177 
L 156.261785 125.285129 
L 154.750568 128.933529 
L 154.23512 132.848744 
L 154.750568 136.76396 
L 156.261785 140.41236 
L 158.665783 143.545312 
L 161.798736 145.949311 
L 165.447136 147.460527 
L 169.362351 147.975975 
L 173.277567 147.460527 
L 176.925967 145.949311 
L 180.058919 143.545312 
L 182.462917 140.41236 
L 183.974134 136.76396 
L 184.489582 132.848744 
z
" clip-path="url(#pfeb8429c03)" style="fill: #e61a1a; stroke: #262626; stroke-width: 1.5"/>
    <path d="M 148.286643 170.465185 
L 147.771195 166.549969 
L 146.259979 162.901569 
L 143.85598 159.768617 
L 140.723028 157.364618 
L 137.074628 155.853401 
L 133.159412 155.337954 
L 129.244197 155.853401 
L 125.595797 157.364618 
L 122.462845 159.768617 
L 120.058846 162.901569 
L 118.547629 166.549969 
L 118.032181 170.465185 
L 118.547629 174.3804 
L 120.058846 178.0288 
L 122.462845 181.161752 
L 125.595797 183.565751 
L 129.244197 185.076968 
L 133.159412 185.592416 
L 137.074628 185.076968 
L 140.723028 183.565751 
L 143.85598 181.161752 
L 146.259979 178.0288 
L 147.771195 174.3804 
L 148.286643 170.465185 
z
" clip-path="url(#pfeb8429c03)" style="fill: #e61a1a; stroke: #262626; stroke-width: 1.5"/>
    <path d="M 112.083704 208.081625 
L 111.568257 204.166409 
L 110.05704 200.518009 
L 107.653041 197.385057 
L 104.520089 194.981059 
L 100.871689 193.469842 
L 96.956473 192.954394 
L 93.041258 193.469842 
L 89.392858 194.981059 
L 86.259906 197.385057 
L 83.855907 200.518009 
L 82.34469 204.166409 
L 81.829242 208.081625 
L 82.34469 211.99684 
L 83.855907 215.645241 
L 86.259906 218.778193 
L 89.392858 221.182191 
L 93.041258 222.693408 
L 96.956473 223.208856 
L 100.871689 222.693408 
L 104.520089 221.182191 
L 107.653041 218.778193 
L 110.05704 215.645241 
L 111.568257 211.99684 
L 112.083704 208.081625 
z
" clip-path="url(#pfeb8429c03)" style="fill: #e61a1a; stroke: #262626; stroke-width: 1.5"/>
    <path d="M 188.27139 96.490847 
L 187.62708 91.596827 
L 185.738059 87.036327 
L 182.733061 83.120137 
L 178.816871 80.115139 
L 174.25637 78.226118 
L 169.362351 77.581808 
L 164.468332 78.226118 
L 159.907832 80.115139 
L 155.991641 83.120137 
L 152.986643 87.036327 
L 151.097622 91.596827 
L 150.453312 96.490847 
L 151.097622 101.384866 
L 152.986643 105.945366 
L 155.991641 109.861556 
L 159.907832 112.866555 
L 164.468332 114.755576 
L 169.362351 115.399885 
L 174.25637 114.755576 
L 178.816871 112.866555 
L 182.733061 109.861556 
L 185.738059 105.945366 
L 187.62708 101.384866 
L 188.27139 96.490847 
z
" clip-path="url(#pfeb8429c03)" style="fill: #3366e6; stroke: #262626; stroke-width: 1.5"/>
    <path d="M 115.865512 171.723727 
L 115.221202 166.829708 
L 113.332181 162.269208 
L 110.327183 158.353018 
L 106.410993 155.348019 
L 101.850493 153.458998 
L 96.956473 152.814688 
L 92.062454 153.458998 
L 87.501954 155.348019 
L 83.585764 158.353018 
L 80.580765 162.269208 
L 78.691744 166.829708 
L 78.047435 171.723727 
L 78.691744 176.617747 
L 80.580765 181.178247 
L 83.585764 185.094437 
L 87.501954 188.099435 
L 92.062454 189.988456 
L 96.956473 190.632766 
L 101.850493 189.988456 
L 106.410993 188.099435 
L 110.327183 185.094437 
L 113.332181 181.178247 
L 115.221202 176.617747 
L 115.865512 171.723727 
z
" clip-path="url(#pfeb8429c03)" style="fill: #3366e6; stroke: #262626; stroke-width: 1.5"/>
    <path d="M 184.489582 60.132949 
L 183.974134 56.217733 
L 182.462917 52.569333 
L 180.058919 49.436381 
L 176.925967 47.032382 
L 173.277567 45.521166 
L 169.362351 45.005718 
L 165.447136 45.521166 
L 161.798736 47.032382 
L 158.665783 49.436381 
L 156.261785 52.569333 
L 154.750568 56.217733 
L 154.23512 60.132949 
L 154.750568 64.048164 
L 156.261785 67.696564 
L 158.665783 70.829517 
L 161.798736 73.233515 
L 165.447136 74.744732 
L 169.362351 75.26018 
L 173.277567 74.744732 
L 176.925967 73.233515 
L 180.058919 70.829517 
L 182.462917 67.696564 
L 183.974134 64.048164 
L 184.489582 60.132949 
z
" clip-path="url(#pfeb8429c03)" style="fill: #e61a1a; stroke: #262626; stroke-width: 1.5"/>
    <path d="M 148.286643 97.749389 
L 147.771195 93.834174 
L 146.259979 90.185774 
L 143.85598 87.052822 
L 140.723028 84.648823 
L 137.074628 83.137606 
L 133.159412 82.622158 
L 129.244197 83.137606 
L 125.595797 84.648823 
L 122.462845 87.052822 
L 120.058846 90.185774 
L 118.547629 93.834174 
L 118.032181 97.749389 
L 118.547629 101.664605 
L 120.058846 105.313005 
L 122.462845 108.445957 
L 125.595797 110.849956 
L 129.244197 112.361172 
L 133.159412 112.87662 
L 137.074628 112.361172 
L 140.723028 110.849956 
L 143.85598 108.445957 
L 146.259979 105.313005 
L 147.771195 101.664605 
L 148.286643 97.749389 
z
" clip-path="url(#pfeb8429c03)" style="fill: #e61a1a; stroke: #262626; stroke-width: 1.5"/>
    <path d="M 112.083704 135.36583 
L 111.568257 131.450614 
L 110.05704 127.802214 
L 107.653041 124.669262 
L 104.520089 122.265263 
L 100.871689 120.754046 
L 96.956473 120.238598 
L 93.041258 120.754046 
L 89.392858 122.265263 
L 86.259906 124.669262 
L 83.855907 127.802214 
L 82.34469 131.450614 
L 81.829242 135.36583 
L 82.34469 139.281045 
L 83.855907 142.929445 
L 86.259906 146.062397 
L 89.392858 148.466396 
L 93.041258 149.977613 
L 96.956473 150.493061 
L 100.871689 149.977613 
L 104.520089 148.466396 
L 107.653041 146.062397 
L 110.05704 142.929445 
L 111.568257 139.281045 
L 112.083704 135.36583 
z
" clip-path="url(#pfeb8429c03)" style="fill: #e61a1a; stroke: #262626; stroke-width: 1.5"/>
    <path d="M 75.880766 172.98227 
L 75.365318 169.067054 
L 73.854101 165.418654 
L 71.450102 162.285702 
L 68.31715 159.881703 
L 64.66875 158.370487 
L 60.753535 157.855039 
L 56.838319 158.370487 
L 53.189919 159.881703 
L 50.056967 162.285702 
L 47.652968 165.418654 
L 46.141751 169.067054 
L 45.626303 172.98227 
L 46.141751 176.897485 
L 47.652968 180.545885 
L 50.056967 183.678838 
L 53.189919 186.082836 
L 56.838319 187.594053 
L 60.753535 188.109501 
L 64.66875 187.594053 
L 68.31715 186.082836 
L 71.450102 183.678838 
L 73.854101 180.545885 
L 75.365318 176.897485 
L 75.880766 172.98227 
z
" clip-path="url(#pfeb8429c03)" style="fill: #e61a1a; stroke: #262626; stroke-width: 1.5"/>
    <path d="M 239.278532 210.59871 
L 238.376498 203.747083 
L 235.731869 197.362383 
L 231.524871 191.879717 
L 226.042205 187.672719 
L 219.657505 185.02809 
L 212.805878 184.126056 
L 205.954251 185.02809 
L 199.569551 187.672719 
L 194.086884 191.879717 
L 189.879887 197.362383 
L 187.235257 203.747083 
L 186.333223 210.59871 
L 187.235257 217.450337 
L 189.879887 223.835037 
L 194.086884 229.317704 
L 199.569551 233.524701 
L 205.954251 236.169331 
L 212.805878 237.071365 
L 219.657505 236.169331 
L 226.042205 233.524701 
L 231.524871 229.317704 
L 235.731869 223.835037 
L 238.376498 217.450337 
L 239.278532 210.59871 
z
" clip-path="url(#pfeb8429c03)" style="fill: #00cc33; stroke: #262626; stroke-width: 1.5"/>
    <path d="M 115.865512 99.007932 
L 115.221202 94.113912 
L 113.332181 89.553412 
L 110.327183 85.637222 
L 106.410993 82.632224 
L 101.850493 80.743203 
L 96.956473 80.098893 
L 92.062454 80.743203 
L 87.501954 82.632224 
L 83.585764 85.637222 
L 80.580765 89.553412 
L 78.691744 94.113912 
L 78.047435 99.007932 
L 78.691744 103.901951 
L 80.580765 108.462451 
L 83.585764 112.378641 
L 87.501954 115.38364 
L 92.062454 117.272661 
L 96.956473 117.916971 
L 101.850493 117.272661 
L 106.410993 115.38364 
L 110.327183 112.378641 
L 113.332181 108.462451 
L 115.221202 103.901951 
L 115.865512 99.007932 
z
" clip-path="url(#pfeb8429c03)" style="fill: #3366e6; stroke: #262626; stroke-width: 1.5"/>
    <path d="M 112.083704 62.650034 
L 111.568257 58.734819 
L 110.05704 55.086419 
L 107.653041 51.953466 
L 104.520089 49.549468 
L 100.871689 48.038251 
L 96.956473 47.522803 
L 93.041258 48.038251 
L 89.392858 49.549468 
L 86.259906 51.953466 
L 83.855907 55.086419 
L 82.34469 58.734819 
L 81.829242 62.650034 
L 82.34469 66.56525 
L 83.855907 70.21365 
L 86.259906 73.346602 
L 89.392858 75.750601 
L 93.041258 77.261817 
L 96.956473 77.777265 
L 100.871689 77.261817 
L 104.520089 75.750601 
L 107.653041 73.346602 
L 110.05704 70.21365 
L 111.568257 66.56525 
L 112.083704 62.650034 
z
" clip-path="url(#pfeb8429c03)" style="fill: #e61a1a; stroke: #262626; stroke-width: 1.5"/>
    <path d="M 75.880766 100.266474 
L 75.365318 96.351259 
L 73.854101 92.702859 
L 71.450102 89.569907 
L 68.31715 87.165908 
L 64.66875 85.654691 
L 60.753535 85.139243 
L 56.838319 85.654691 
L 53.189919 87.165908 
L 50.056967 89.569907 
L 47.652968 92.702859 
L 46.141751 96.351259 
L 45.626303 100.266474 
L 46.141751 104.18169 
L 47.652968 107.83009 
L 50.056967 110.963042 
L 53.189919 113.367041 
L 56.838319 114.878258 
L 60.753535 115.393706 
L 64.66875 114.878258 
L 68.31715 113.367041 
L 71.450102 110.963042 
L 73.854101 107.83009 
L 75.365318 104.18169 
L 75.880766 100.266474 
z
" clip-path="url(#pfeb8429c03)" style="fill: #e61a1a; stroke: #262626; stroke-width: 1.5"/>
    <path d="M 239.278532 137.882915 
L 238.376498 131.031288 
L 235.731869 124.646588 
L 231.524871 119.163921 
L 226.042205 114.956924 
L 219.657505 112.312294 
L 212.805878 111.41026 
L 205.954251 112.312294 
L 199.569551 114.956924 
L 194.086884 119.163921 
L 189.879887 124.646588 
L 187.235257 131.031288 
L 186.333223 137.882915 
L 187.235257 144.734542 
L 189.879887 151.119242 
L 194.086884 156.601908 
L 199.569551 160.808906 
L 205.954251 163.453535 
L 212.805878 164.355569 
L 219.657505 163.453535 
L 226.042205 160.808906 
L 231.524871 156.601908 
L 235.731869 151.119242 
L 238.376498 144.734542 
L 239.278532 137.882915 
z
" clip-path="url(#pfeb8429c03)" style="fill: #00cc33; stroke: #262626; stroke-width: 1.5"/>
    <path d="M 191.73017 175.499355 
L 191.214722 171.58414 
L 189.703505 167.93574 
L 187.299507 164.802787 
L 184.166554 162.398789 
L 180.518154 160.887572 
L 176.602939 160.372124 
L 172.687723 160.887572 
L 169.039323 162.398789 
L 165.906371 164.802787 
L 163.502372 167.93574 
L 161.991156 171.58414 
L 161.475708 175.499355 
L 161.991156 179.414571 
L 163.502372 183.062971 
L 165.906371 186.195923 
L 169.039323 188.599921 
L 172.687723 190.111138 
L 176.602939 190.626586 
L 180.518154 190.111138 
L 184.166554 188.599921 
L 187.299507 186.195923 
L 189.703505 183.062971 
L 191.214722 179.414571 
L 191.73017 175.499355 
z
" clip-path="url(#pfeb8429c03)" style="fill: #e61a1a; stroke: #262626; stroke-width: 1.5"/>
    <path d="M 166.872654 213.115795 
L 165.970621 206.264168 
L 163.325991 199.879468 
L 159.118993 194.396802 
L 153.636327 190.189804 
L 147.251627 187.545175 
L 140.4 186.643141 
L 133.548373 187.545175 
L 127.163673 190.189804 
L 121.681007 194.396802 
L 117.474009 199.879468 
L 114.829379 206.264168 
L 113.927346 213.115795 
L 114.829379 219.967423 
L 117.474009 226.352123 
L 121.681007 231.834789 
L 127.163673 236.041787 
L 133.548373 238.686416 
L 140.4 239.58845 
L 147.251627 238.686416 
L 153.636327 236.041787 
L 159.118993 231.834789 
L 163.325991 226.352123 
L 165.970621 219.967423 
L 166.872654 213.115795 
z
" clip-path="url(#pfeb8429c03)" style="fill: #00cc33; stroke: #262626; stroke-width: 1.5"/>
    <path d="M 239.278532 65.167119 
L 238.376498 58.315492 
L 235.731869 51.930792 
L 231.524871 46.448126 
L 226.042205 42.241128 
L 219.657505 39.596499 
L 212.805878 38.694465 
L 205.954251 39.596499 
L 199.569551 42.241128 
L 194.086884 46.448126 
L 189.879887 51.930792 
L 187.235257 58.315492 
L 186.333223 65.167119 
L 187.235257 72.018746 
L 189.879887 78.403447 
L 194.086884 83.886113 
L 199.569551 88.093111 
L 205.954251 90.73774 
L 212.805878 91.639774 
L 219.657505 90.73774 
L 226.042205 88.093111 
L 231.524871 83.886113 
L 235.731869 78.403447 
L 238.376498 72.018746 
L 239.278532 65.167119 
z
" clip-path="url(#pfeb8429c03)" style="fill: #00cc33; stroke: #262626; stroke-width: 1.5"/>
    <path d="M 191.73017 102.78356 
L 191.214722 98.868344 
L 189.703505 95.219944 
L 187.299507 92.086992 
L 184.166554 89.682993 
L 180.518154 88.171777 
L 176.602939 87.656329 
L 172.687723 88.171777 
L 169.039323 89.682993 
L 165.906371 92.086992 
L 163.502372 95.219944 
L 161.991156 98.868344 
L 161.475708 102.78356 
L 161.991156 106.698775 
L 163.502372 110.347175 
L 165.906371 113.480127 
L 169.039323 115.884126 
L 172.687723 117.395343 
L 176.602939 117.910791 
L 180.518154 117.395343 
L 184.166554 115.884126 
L 187.299507 113.480127 
L 189.703505 110.347175 
L 191.214722 106.698775 
L 191.73017 102.78356 
z
" clip-path="url(#pfeb8429c03)" style="fill: #e61a1a; stroke: #262626; stroke-width: 1.5"/>
    <path d="M 166.872654 140.4 
L 165.970621 133.548373 
L 163.325991 127.163673 
L 159.118993 121.681007 
L 153.636327 117.474009 
L 147.251627 114.829379 
L 140.4 113.927346 
L 133.548373 114.829379 
L 127.163673 117.474009 
L 121.681007 121.681007 
L 117.474009 127.163673 
L 114.829379 133.548373 
L 113.927346 140.4 
L 114.829379 147.251627 
L 117.474009 153.636327 
L 121.681007 159.118993 
L 127.163673 163.325991 
L 133.548373 165.970621 
L 140.4 166.872654 
L 147.251627 165.970621 
L 153.636327 163.325991 
L 159.118993 159.118993 
L 163.325991 153.636327 
L 165.970621 147.251627 
L 166.872654 140.4 
z
" clip-path="url(#pfeb8429c03)" style="fill: #00cc33; stroke: #262626; stroke-width: 1.5"/>
    <path d="M 119.324292 178.01644 
L 118.808844 174.101225 
L 117.297628 170.452825 
L 114.893629 167.319873 
L 111.760677 164.915874 
L 108.112277 163.404657 
L 104.197061 162.889209 
L 100.281846 163.404657 
L 96.633446 164.915874 
L 93.500493 167.319873 
L 91.096495 170.452825 
L 89.585278 174.101225 
L 89.06983 178.01644 
L 89.585278 181.931656 
L 91.096495 185.580056 
L 93.500493 188.713008 
L 96.633446 191.117007 
L 100.281846 192.628223 
L 104.197061 193.143671 
L 108.112277 192.628223 
L 111.760677 191.117007 
L 114.893629 188.713008 
L 117.297628 185.580056 
L 118.808844 181.931656 
L 119.324292 178.01644 
z
" clip-path="url(#pfeb8429c03)" style="fill: #e61a1a; stroke: #262626; stroke-width: 1.5"/>
    <path d="M 94.466777 215.632881 
L 93.564743 208.781254 
L 90.920113 202.396553 
L 86.713116 196.913887 
L 81.230449 192.706889 
L 74.845749 190.06226 
L 67.994122 189.160226 
L 61.142495 190.06226 
L 54.757795 192.706889 
L 49.275129 196.913887 
L 45.068131 202.396553 
L 42.423502 208.781254 
L 41.521468 215.632881 
L 42.423502 222.484508 
L 45.068131 228.869208 
L 49.275129 234.351874 
L 54.757795 238.558872 
L 61.142495 241.203501 
L 67.994122 242.105535 
L 74.845749 241.203501 
L 81.230449 238.558872 
L 86.713116 234.351874 
L 90.920113 228.869208 
L 93.564743 222.484508 
L 94.466777 215.632881 
z
" clip-path="url(#pfeb8429c03)" style="fill: #00cc33; stroke: #262626; stroke-width: 1.5"/>
    <path d="M 166.872654 67.684205 
L 165.970621 60.832577 
L 163.325991 54.447877 
L 159.118993 48.965211 
L 153.636327 44.758213 
L 147.251627 42.113584 
L 140.4 41.21155 
L 133.548373 42.113584 
L 127.163673 44.758213 
L 121.681007 48.965211 
L 117.474009 54.447877 
L 114.829379 60.832577 
L 113.927346 67.684205 
L 114.829379 74.535832 
L 117.474009 80.920532 
L 121.681007 86.403198 
L 127.163673 90.610196 
L 133.548373 93.254825 
L 140.4 94.156859 
L 147.251627 93.254825 
L 153.636327 90.610196 
L 159.118993 86.403198 
L 163.325991 80.920532 
L 165.970621 74.535832 
L 166.872654 67.684205 
z
" clip-path="url(#pfeb8429c03)" style="fill: #00cc33; stroke: #262626; stroke-width: 1.5"/>
    <path d="M 119.324292 105.300645 
L 118.808844 101.385429 
L 117.297628 97.737029 
L 114.893629 94.604077 
L 111.760677 92.200079 
L 108.112277 90.688862 
L 104.197061 90.173414 
L 100.281846 90.688862 
L 96.633446 92.200079 
L 93.500493 94.604077 
L 91.096495 97.737029 
L 89.585278 101.385429 
L 89.06983 105.300645 
L 89.585278 109.21586 
L 91.096495 112.86426 
L 93.500493 115.997213 
L 96.633446 118.401211 
L 100.281846 119.912428 
L 104.197061 120.427876 
L 108.112277 119.912428 
L 111.760677 118.401211 
L 114.893629 115.997213 
L 117.297628 112.86426 
L 118.808844 109.21586 
L 119.324292 105.300645 
z
" clip-path="url(#pfeb8429c03)" style="fill: #e61a1a; stroke: #262626; stroke-width: 1.5"/>
    <path d="M 94.466777 142.917085 
L 93.564743 136.065458 
L 90.920113 129.680758 
L 86.713116 124.198092 
L 81.230449 119.991094 
L 74.845749 117.346465 
L 67.994122 116.444431 
L 61.142495 117.346465 
L 54.757795 119.991094 
L 49.275129 124.198092 
L 45.068131 129.680758 
L 42.423502 136.065458 
L 41.521468 142.917085 
L 42.423502 149.768712 
L 45.068131 156.153412 
L 49.275129 161.636079 
L 54.757795 165.843076 
L 61.142495 168.487706 
L 67.994122 169.38974 
L 74.845749 168.487706 
L 81.230449 165.843076 
L 86.713116 161.636079 
L 90.920113 156.153412 
L 93.564743 149.768712 
L 94.466777 142.917085 
z
" clip-path="url(#pfeb8429c03)" style="fill: #00cc33; stroke: #262626; stroke-width: 1.5"/>
    <path d="M 235.173697 180.533526 
L 234.658249 176.61831 
L 233.147032 172.96991 
L 230.743033 169.836958 
L 227.610081 167.432959 
L 223.961681 165.921742 
L 220.046465 165.406294 
L 216.13125 165.921742 
L 212.48285 167.432959 
L 209.349898 169.836958 
L 206.945899 172.96991 
L 205.434682 176.61831 
L 204.919234 180.533526 
L 205.434682 184.448741 
L 206.945899 188.097141 
L 209.349898 191.230093 
L 212.48285 193.634092 
L 216.13125 195.145309 
L 220.046465 195.660757 
L 223.961681 195.145309 
L 227.610081 193.634092 
L 230.743033 191.230093 
L 233.147032 188.097141 
L 234.658249 184.448741 
L 235.173697 180.533526 
z
" clip-path="url(#pfeb8429c03)" style="fill: #e61a1a; stroke: #262626; stroke-width: 1.5"/>
    <path d="M 198.970758 218.149966 
L 198.45531 214.23475 
L 196.944093 210.58635 
L 194.540094 207.453398 
L 191.407142 205.049399 
L 187.758742 203.538183 
L 183.843527 203.022735 
L 179.928311 203.538183 
L 176.279911 205.049399 
L 173.146959 207.453398 
L 170.74296 210.58635 
L 169.231743 214.23475 
L 168.716296 218.149966 
L 169.231743 222.065181 
L 170.74296 225.713581 
L 173.146959 228.846534 
L 176.279911 231.250532 
L 179.928311 232.761749 
L 183.843527 233.277197 
L 187.758742 232.761749 
L 191.407142 231.250532 
L 194.540094 228.846534 
L 196.944093 225.713581 
L 198.45531 222.065181 
L 198.970758 218.149966 
z
" clip-path="url(#pfeb8429c03)" style="fill: #e61a1a; stroke: #262626; stroke-width: 1.5"/>
    <path d="M 202.752565 181.792068 
L 202.108256 176.898049 
L 200.219235 172.337549 
L 197.214236 168.421359 
L 193.298046 165.41636 
L 188.737546 163.527339 
L 183.843527 162.883029 
L 178.949507 163.527339 
L 174.389007 165.41636 
L 170.472817 168.421359 
L 167.467819 172.337549 
L 165.578798 176.898049 
L 164.934488 181.792068 
L 165.578798 186.686088 
L 167.467819 191.246588 
L 170.472817 195.162778 
L 174.389007 198.167776 
L 178.949507 200.056797 
L 183.843527 200.701107 
L 188.737546 200.056797 
L 193.298046 198.167776 
L 197.214236 195.162778 
L 200.219235 191.246588 
L 202.108256 186.686088 
L 202.752565 181.792068 
z
" clip-path="url(#pfeb8429c03)" style="fill: #3366e6; stroke: #262626; stroke-width: 1.5"/>
    <path d="M 94.466777 70.20129 
L 93.564743 63.349663 
L 90.920113 56.964963 
L 86.713116 51.482296 
L 81.230449 47.275299 
L 74.845749 44.630669 
L 67.994122 43.728635 
L 61.142495 44.630669 
L 54.757795 47.275299 
L 49.275129 51.482296 
L 45.068131 56.964963 
L 42.423502 63.349663 
L 41.521468 70.20129 
L 42.423502 77.052917 
L 45.068131 83.437617 
L 49.275129 88.920283 
L 54.757795 93.127281 
L 61.142495 95.77191 
L 67.994122 96.673944 
L 74.845749 95.77191 
L 81.230449 93.127281 
L 86.713116 88.920283 
L 90.920113 83.437617 
L 93.564743 77.052917 
L 94.466777 70.20129 
z
" clip-path="url(#pfeb8429c03)" style="fill: #00cc33; stroke: #262626; stroke-width: 1.5"/>
    <path d="M 235.173697 107.81773 
L 234.658249 103.902515 
L 233.147032 100.254115 
L 230.743033 97.121162 
L 227.610081 94.717164 
L 223.961681 93.205947 
L 220.046465 92.690499 
L 216.13125 93.205947 
L 212.48285 94.717164 
L 209.349898 97.121162 
L 206.945899 100.254115 
L 205.434682 103.902515 
L 204.919234 107.81773 
L 205.434682 111.732946 
L 206.945899 115.381346 
L 209.349898 118.514298 
L 212.48285 120.918297 
L 216.13125 122.429513 
L 220.046465 122.944961 
L 223.961681 122.429513 
L 227.610081 120.918297 
L 230.743033 118.514298 
L 233.147032 115.381346 
L 234.658249 111.732946 
L 235.173697 107.81773 
z
" clip-path="url(#pfeb8429c03)" style="fill: #e61a1a; stroke: #262626; stroke-width: 1.5"/>
    <path d="M 198.970758 145.43417 
L 198.45531 141.518955 
L 196.944093 137.870555 
L 194.540094 134.737603 
L 191.407142 132.333604 
L 187.758742 130.822387 
L 183.843527 130.306939 
L 179.928311 130.822387 
L 176.279911 132.333604 
L 173.146959 134.737603 
L 170.74296 137.870555 
L 169.231743 141.518955 
L 168.716296 145.43417 
L 169.231743 149.349386 
L 170.74296 152.997786 
L 173.146959 156.130738 
L 176.279911 158.534737 
L 179.928311 160.045954 
L 183.843527 160.561402 
L 187.758742 160.045954 
L 191.407142 158.534737 
L 194.540094 156.130738 
L 196.944093 152.997786 
L 198.45531 149.349386 
L 198.970758 145.43417 
z
" clip-path="url(#pfeb8429c03)" style="fill: #e61a1a; stroke: #262626; stroke-width: 1.5"/>
    <path d="M 162.767819 183.050611 
L 162.252371 179.135395 
L 160.741154 175.486995 
L 158.337155 172.354043 
L 155.204203 169.950044 
L 151.555803 168.438828 
L 147.640588 167.92338 
L 143.725372 168.438828 
L 140.076972 169.950044 
L 136.94402 172.354043 
L 134.540021 175.486995 
L 133.028805 179.135395 
L 132.513357 183.050611 
L 133.028805 186.965826 
L 134.540021 190.614226 
L 136.94402 193.747178 
L 140.076972 196.151177 
L 143.725372 197.662394 
L 147.640588 198.177842 
L 151.555803 197.662394 
L 155.204203 196.151177 
L 158.337155 193.747178 
L 160.741154 190.614226 
L 162.252371 186.965826 
L 162.767819 183.050611 
z
" clip-path="url(#pfeb8429c03)" style="fill: #e61a1a; stroke: #262626; stroke-width: 1.5"/>
    <path d="M 126.56488 220.667051 
L 126.049432 216.751836 
L 124.538215 213.103436 
L 122.134217 209.970483 
L 119.001264 207.566485 
L 115.352864 206.055268 
L 111.437649 205.53982 
L 107.522433 206.055268 
L 103.874033 207.566485 
L 100.741081 209.970483 
L 98.337083 213.103436 
L 96.825866 216.751836 
L 96.310418 220.667051 
L 96.825866 224.582267 
L 98.337083 228.230667 
L 100.741081 231.363619 
L 103.874033 233.767618 
L 107.522433 235.278834 
L 111.437649 235.794282 
L 115.352864 235.278834 
L 119.001264 233.767618 
L 122.134217 231.363619 
L 124.538215 228.230667 
L 126.049432 224.582267 
L 126.56488 220.667051 
z
" clip-path="url(#pfeb8429c03)" style="fill: #e61a1a; stroke: #262626; stroke-width: 1.5"/>
    <path d="M 202.752565 109.076273 
L 202.108256 104.182253 
L 200.219235 99.621753 
L 197.214236 95.705563 
L 193.298046 92.700565 
L 188.737546 90.811544 
L 183.843527 90.167234 
L 178.949507 90.811544 
L 174.389007 92.700565 
L 170.472817 95.705563 
L 167.467819 99.621753 
L 165.578798 104.182253 
L 164.934488 109.076273 
L 165.578798 113.970292 
L 167.467819 118.530792 
L 170.472817 122.446982 
L 174.389007 125.451981 
L 178.949507 127.341002 
L 183.843527 127.985312 
L 188.737546 127.341002 
L 193.298046 125.451981 
L 197.214236 122.446982 
L 200.219235 118.530792 
L 202.108256 113.970292 
L 202.752565 109.076273 
z
" clip-path="url(#pfeb8429c03)" style="fill: #3366e6; stroke: #262626; stroke-width: 1.5"/>
    <path d="M 130.346688 184.309153 
L 129.702378 179.415134 
L 127.813357 174.854634 
L 124.808359 170.938444 
L 120.892168 167.933445 
L 116.331668 166.044424 
L 111.437649 165.400115 
L 106.54363 166.044424 
L 101.983129 167.933445 
L 98.066939 170.938444 
L 95.061941 174.854634 
L 93.17292 179.415134 
L 92.52861 184.309153 
L 93.17292 189.203173 
L 95.061941 193.763673 
L 98.066939 197.679863 
L 101.983129 200.684861 
L 106.54363 202.573882 
L 111.437649 203.218192 
L 116.331668 202.573882 
L 120.892168 200.684861 
L 124.808359 197.679863 
L 127.813357 193.763673 
L 129.702378 189.203173 
L 130.346688 184.309153 
z
" clip-path="url(#pfeb8429c03)" style="fill: #3366e6; stroke: #262626; stroke-width: 1.5"/>
    <path d="M 198.970758 72.718375 
L 198.45531 68.80316 
L 196.944093 65.154759 
L 194.540094 62.021807 
L 191.407142 59.617809 
L 187.758742 58.106592 
L 183.843527 57.591144 
L 179.928311 58.106592 
L 176.279911 59.617809 
L 173.146959 62.021807 
L 170.74296 65.154759 
L 169.231743 68.80316 
L 168.716296 72.718375 
L 169.231743 76.633591 
L 170.74296 80.281991 
L 173.146959 83.414943 
L 176.279911 85.818941 
L 179.928311 87.330158 
L 183.843527 87.845606 
L 187.758742 87.330158 
L 191.407142 85.818941 
L 194.540094 83.414943 
L 196.944093 80.281991 
L 198.45531 76.633591 
L 198.970758 72.718375 
z
" clip-path="url(#pfeb8429c03)" style="fill: #e61a1a; stroke: #262626; stroke-width: 1.5"/>
    <path d="M 162.767819 110.334815 
L 162.252371 106.4196 
L 160.741154 102.7712 
L 158.337155 99.638248 
L 155.204203 97.234249 
L 151.555803 95.723032 
L 147.640588 95.207584 
L 143.725372 95.723032 
L 140.076972 97.234249 
L 136.94402 99.638248 
L 134.540021 102.7712 
L 133.028805 106.4196 
L 132.513357 110.334815 
L 133.028805 114.250031 
L 134.540021 117.898431 
L 136.94402 121.031383 
L 140.076972 123.435382 
L 143.725372 124.946599 
L 147.640588 125.462046 
L 151.555803 124.946599 
L 155.204203 123.435382 
L 158.337155 121.031383 
L 160.741154 117.898431 
L 162.252371 114.250031 
L 162.767819 110.334815 
z
" clip-path="url(#pfeb8429c03)" style="fill: #e61a1a; stroke: #262626; stroke-width: 1.5"/>
    <path d="M 126.56488 147.951256 
L 126.049432 144.03604 
L 124.538215 140.38764 
L 122.134217 137.254688 
L 119.001264 134.850689 
L 115.352864 133.339473 
L 111.437649 132.824025 
L 107.522433 133.339473 
L 103.874033 134.850689 
L 100.741081 137.254688 
L 98.337083 140.38764 
L 96.825866 144.03604 
L 96.310418 147.951256 
L 96.825866 151.866471 
L 98.337083 155.514871 
L 100.741081 158.647823 
L 103.874033 161.051822 
L 107.522433 162.563039 
L 111.437649 163.078487 
L 115.352864 162.563039 
L 119.001264 161.051822 
L 122.134217 158.647823 
L 124.538215 155.514871 
L 126.049432 151.866471 
L 126.56488 147.951256 
z
" clip-path="url(#pfeb8429c03)" style="fill: #e61a1a; stroke: #262626; stroke-width: 1.5"/>
    <path d="M 90.361941 185.567696 
L 89.846493 181.652481 
L 88.335276 178.00408 
L 85.931278 174.871128 
L 82.798326 172.46713 
L 79.149926 170.955913 
L 75.23471 170.440465 
L 71.319495 170.955913 
L 67.671095 172.46713 
L 64.538142 174.871128 
L 62.134144 178.00408 
L 60.622927 181.652481 
L 60.107479 185.567696 
L 60.622927 189.482912 
L 62.134144 193.131312 
L 64.538142 196.264264 
L 67.671095 198.668262 
L 71.319495 200.179479 
L 75.23471 200.694927 
L 79.149926 200.179479 
L 82.798326 198.668262 
L 85.931278 196.264264 
L 88.335276 193.131312 
L 89.846493 189.482912 
L 90.361941 185.567696 
z
" clip-path="url(#pfeb8429c03)" style="fill: #e61a1a; stroke: #262626; stroke-width: 1.5"/>
    <path d="M 253.759708 223.184136 
L 252.857674 216.332509 
L 250.213044 209.947809 
L 246.006047 204.465143 
L 240.52338 200.258145 
L 234.13868 197.613516 
L 227.287053 196.711482 
L 220.435426 197.613516 
L 214.050726 200.258145 
L 208.56806 204.465143 
L 204.361062 209.947809 
L 201.716433 216.332509 
L 200.814399 223.184136 
L 201.716433 230.035763 
L 204.361062 236.420464 
L 208.56806 241.90313 
L 214.050726 246.110128 
L 220.435426 248.754757 
L 227.287053 249.656791 
L 234.13868 248.754757 
L 240.52338 246.110128 
L 246.006047 241.90313 
L 250.213044 236.420464 
L 252.857674 230.035763 
L 253.759708 223.184136 
z
" clip-path="url(#pfeb8429c03)" style="fill: #00cc33; stroke: #262626; stroke-width: 1.5"/>
    <path d="M 130.346688 111.593358 
L 129.702378 106.699339 
L 127.813357 102.138839 
L 124.808359 98.222648 
L 120.892168 95.21765 
L 116.331668 93.328629 
L 111.437649 92.684319 
L 106.54363 93.328629 
L 101.983129 95.21765 
L 98.066939 98.222648 
L 95.061941 102.138839 
L 93.17292 106.699339 
L 92.52861 111.593358 
L 93.17292 116.487377 
L 95.061941 121.047877 
L 98.066939 124.964068 
L 101.983129 127.969066 
L 106.54363 129.858087 
L 111.437649 130.502397 
L 116.331668 129.858087 
L 120.892168 127.969066 
L 124.808359 124.964068 
L 127.813357 121.047877 
L 129.702378 116.487377 
L 130.346688 111.593358 
z
" clip-path="url(#pfeb8429c03)" style="fill: #3366e6; stroke: #262626; stroke-width: 1.5"/>
    <path d="M 126.56488 75.23546 
L 126.049432 71.320245 
L 124.538215 67.671845 
L 122.134217 64.538893 
L 119.001264 62.134894 
L 115.352864 60.623677 
L 111.437649 60.108229 
L 107.522433 60.623677 
L 103.874033 62.134894 
L 100.741081 64.538893 
L 98.337083 67.671845 
L 96.825866 71.320245 
L 96.310418 75.23546 
L 96.825866 79.150676 
L 98.337083 82.799076 
L 100.741081 85.932028 
L 103.874033 88.336027 
L 107.522433 89.847243 
L 111.437649 90.362691 
L 115.352864 89.847243 
L 119.001264 88.336027 
L 122.134217 85.932028 
L 124.538215 82.799076 
L 126.049432 79.150676 
L 126.56488 75.23546 
z
" clip-path="url(#pfeb8429c03)" style="fill: #e61a1a; stroke: #262626; stroke-width: 1.5"/>
    <path d="M 90.361941 112.851901 
L 89.846493 108.936685 
L 88.335276 105.288285 
L 85.931278 102.155333 
L 82.798326 99.751334 
L 79.149926 98.240117 
L 75.23471 97.72467 
L 71.319495 98.240117 
L 67.671095 99.751334 
L 64.538142 102.155333 
L 62.134144 105.288285 
L 60.622927 108.936685 
L 60.107479 112.851901 
L 60.622927 116.767116 
L 62.134144 120.415516 
L 64.538142 123.548468 
L 67.671095 125.952467 
L 71.319495 127.463684 
L 75.23471 127.979132 
L 79.149926 127.463684 
L 82.798326 125.952467 
L 85.931278 123.548468 
L 88.335276 120.415516 
L 89.846493 116.767116 
L 90.361941 112.851901 
z
" clip-path="url(#pfeb8429c03)" style="fill: #e61a1a; stroke: #262626; stroke-width: 1.5"/>
    <path d="M 253.759708 150.468341 
L 252.857674 143.616714 
L 250.213044 137.232014 
L 246.006047 131.749347 
L 240.52338 127.54235 
L 234.13868 124.89772 
L 227.287053 123.995687 
L 220.435426 124.89772 
L 214.050726 127.54235 
L 208.56806 131.749347 
L 204.361062 137.232014 
L 201.716433 143.616714 
L 200.814399 150.468341 
L 201.716433 157.319968 
L 204.361062 163.704668 
L 208.56806 169.187334 
L 214.050726 173.394332 
L 220.435426 176.038961 
L 227.287053 176.940995 
L 234.13868 176.038961 
L 240.52338 173.394332 
L 246.006047 169.187334 
L 250.213044 163.704668 
L 252.857674 157.319968 
L 253.759708 150.468341 
z
" clip-path="url(#pfeb8429c03)" style="fill: #00cc33; stroke: #262626; stroke-width: 1.5"/>
    <path d="M 206.211345 188.084781 
L 205.695898 184.169566 
L 204.184681 180.521166 
L 201.780682 177.388214 
L 198.64773 174.984215 
L 194.99933 173.472998 
L 191.084114 172.95755 
L 187.168899 173.472998 
L 183.520499 174.984215 
L 180.387547 177.388214 
L 177.983548 180.521166 
L 176.472331 184.169566 
L 175.956883 188.084781 
L 176.472331 191.999997 
L 177.983548 195.648397 
L 180.387547 198.781349 
L 183.520499 201.185348 
L 187.168899 202.696564 
L 191.084114 203.212012 
L 194.99933 202.696564 
L 198.64773 201.185348 
L 201.780682 198.781349 
L 204.184681 195.648397 
L 205.695898 191.999997 
L 206.211345 188.084781 
z
" clip-path="url(#pfeb8429c03)" style="fill: #e61a1a; stroke: #262626; stroke-width: 1.5"/>
    <path d="M 181.35383 225.701222 
L 180.451796 218.849594 
L 177.807167 212.464894 
L 173.600169 206.982228 
L 168.117503 202.77523 
L 161.732803 200.130601 
L 154.881176 199.228567 
L 148.029548 200.130601 
L 141.644848 202.77523 
L 136.162182 206.982228 
L 131.955184 212.464894 
L 129.310555 218.849594 
L 128.408521 225.701222 
L 129.310555 232.552849 
L 131.955184 238.937549 
L 136.162182 244.420215 
L 141.644848 248.627213 
L 148.029548 251.271842 
L 154.881176 252.173876 
L 161.732803 251.271842 
L 168.117503 248.627213 
L 173.600169 244.420215 
L 177.807167 238.937549 
L 180.451796 232.552849 
L 181.35383 225.701222 
z
" clip-path="url(#pfeb8429c03)" style="fill: #00cc33; stroke: #262626; stroke-width: 1.5"/>
    <path d="M 253.759708 77.752545 
L 252.857674 70.900918 
L 250.213044 64.516218 
L 246.006047 59.033552 
L 240.52338 54.826554 
L 234.13868 52.181925 
L 227.287053 51.279891 
L 220.435426 52.181925 
L 214.050726 54.826554 
L 208.56806 59.033552 
L 204.361062 64.516218 
L 201.716433 70.900918 
L 200.814399 77.752545 
L 201.716433 84.604173 
L 204.361062 90.988873 
L 208.56806 96.471539 
L 214.050726 100.678537 
L 220.435426 103.323166 
L 227.287053 104.2252 
L 234.13868 103.323166 
L 240.52338 100.678537 
L 246.006047 96.471539 
L 250.213044 90.988873 
L 252.857674 84.604173 
L 253.759708 77.752545 
z
" clip-path="url(#pfeb8429c03)" style="fill: #00cc33; stroke: #262626; stroke-width: 1.5"/>
    <path d="M 206.211345 115.368986 
L 205.695898 111.45377 
L 204.184681 107.80537 
L 201.780682 104.672418 
L 198.64773 102.268419 
L 194.99933 100.757203 
L 191.084114 100.241755 
L 187.168899 100.757203 
L 183.520499 102.268419 
L 180.387547 104.672418 
L 177.983548 107.80537 
L 176.472331 111.45377 
L 175.956883 115.368986 
L 176.472331 119.284201 
L 177.983548 122.932601 
L 180.387547 126.065553 
L 183.520499 128.469552 
L 187.168899 129.980769 
L 191.084114 130.496217 
L 194.99933 129.980769 
L 198.64773 128.469552 
L 201.780682 126.065553 
L 204.184681 122.932601 
L 205.695898 119.284201 
L 206.211345 115.368986 
z
" clip-path="url(#pfeb8429c03)" style="fill: #e61a1a; stroke: #262626; stroke-width: 1.5"/>
    <path d="M 181.35383 152.985426 
L 180.451796 146.133799 
L 177.807167 139.749099 
L 173.600169 134.266433 
L 168.117503 130.059435 
L 161.732803 127.414806 
L 154.881176 126.512772 
L 148.029548 127.414806 
L 141.644848 130.059435 
L 136.162182 134.266433 
L 131.955184 139.749099 
L 129.310555 146.133799 
L 128.408521 152.985426 
L 129.310555 159.837053 
L 131.955184 166.221753 
L 136.162182 171.70442 
L 141.644848 175.911417 
L 148.029548 178.556047 
L 154.881176 179.458081 
L 161.732803 178.556047 
L 168.117503 175.911417 
L 173.600169 171.70442 
L 177.807167 166.221753 
L 180.451796 159.837053 
L 181.35383 152.985426 
z
" clip-path="url(#pfeb8429c03)" style="fill: #00cc33; stroke: #262626; stroke-width: 1.5"/>
    <path d="M 133.805468 190.601866 
L 133.29002 186.686651 
L 131.778803 183.038251 
L 129.374804 179.905299 
L 126.241852 177.5013 
L 122.593452 175.990083 
L 118.678237 175.474635 
L 114.763021 175.990083 
L 111.114621 177.5013 
L 107.981669 179.905299 
L 105.57767 183.038251 
L 104.066454 186.686651 
L 103.551006 190.601866 
L 104.066454 194.517082 
L 105.57767 198.165482 
L 107.981669 201.298434 
L 111.114621 203.702433 
L 114.763021 205.21365 
L 118.678237 205.729098 
L 122.593452 205.21365 
L 126.241852 203.702433 
L 129.374804 201.298434 
L 131.778803 198.165482 
L 133.29002 194.517082 
L 133.805468 190.601866 
z
" clip-path="url(#pfeb8429c03)" style="fill: #e61a1a; stroke: #262626; stroke-width: 1.5"/>
    <path d="M 108.947952 228.218307 
L 108.045918 221.36668 
L 105.401289 214.98198 
L 101.194291 209.499313 
L 95.711625 205.292316 
L 89.326925 202.647686 
L 82.475298 201.745652 
L 75.623671 202.647686 
L 69.238971 205.292316 
L 63.756304 209.499313 
L 59.549307 214.98198 
L 56.904677 221.36668 
L 56.002643 228.218307 
L 56.904677 235.069934 
L 59.549307 241.454634 
L 63.756304 246.9373 
L 69.238971 251.144298 
L 75.623671 253.788927 
L 82.475298 254.690961 
L 89.326925 253.788927 
L 95.711625 251.144298 
L 101.194291 246.9373 
L 105.401289 241.454634 
L 108.045918 235.069934 
L 108.947952 228.218307 
z
" clip-path="url(#pfeb8429c03)" style="fill: #00cc33; stroke: #262626; stroke-width: 1.5"/>
    <path d="M 181.35383 80.269631 
L 180.451796 73.418004 
L 177.807167 67.033304 
L 173.600169 61.550637 
L 168.117503 57.34364 
L 161.732803 54.69901 
L 154.881176 53.796976 
L 148.029548 54.69901 
L 141.644848 57.34364 
L 136.162182 61.550637 
L 131.955184 67.033304 
L 129.310555 73.418004 
L 128.408521 80.269631 
L 129.310555 87.121258 
L 131.955184 93.505958 
L 136.162182 98.988624 
L 141.644848 103.195622 
L 148.029548 105.840251 
L 154.881176 106.742285 
L 161.732803 105.840251 
L 168.117503 103.195622 
L 173.600169 98.988624 
L 177.807167 93.505958 
L 180.451796 87.121258 
L 181.35383 80.269631 
z
" clip-path="url(#pfeb8429c03)" style="fill: #00cc33; stroke: #262626; stroke-width: 1.5"/>
    <path d="M 133.805468 117.886071 
L 133.29002 113.970856 
L 131.778803 110.322455 
L 129.374804 107.189503 
L 126.241852 104.785505 
L 122.593452 103.274288 
L 118.678237 102.75884 
L 114.763021 103.274288 
L 111.114621 104.785505 
L 107.981669 107.189503 
L 105.57767 110.322455 
L 104.066454 113.970856 
L 103.551006 117.886071 
L 104.066454 121.801287 
L 105.57767 125.449687 
L 107.981669 128.582639 
L 111.114621 130.986637 
L 114.763021 132.497854 
L 118.678237 133.013302 
L 122.593452 132.497854 
L 126.241852 130.986637 
L 129.374804 128.582639 
L 131.778803 125.449687 
L 133.29002 121.801287 
L 133.805468 117.886071 
z
" clip-path="url(#pfeb8429c03)" style="fill: #e61a1a; stroke: #262626; stroke-width: 1.5"/>
    <path d="M 108.947952 155.502511 
L 108.045918 148.650884 
L 105.401289 142.266184 
L 101.194291 136.783518 
L 95.711625 132.57652 
L 89.326925 129.931891 
L 82.475298 129.029857 
L 75.623671 129.931891 
L 69.238971 132.57652 
L 63.756304 136.783518 
L 59.549307 142.266184 
L 56.904677 148.650884 
L 56.002643 155.502511 
L 56.904677 162.354138 
L 59.549307 168.738839 
L 63.756304 174.221505 
L 69.238971 178.428503 
L 75.623671 181.073132 
L 82.475298 181.975166 
L 89.326925 181.073132 
L 95.711625 178.428503 
L 101.194291 174.221505 
L 105.401289 168.738839 
L 108.045918 162.354138 
L 108.947952 155.502511 
z
" clip-path="url(#pfeb8429c03)" style="fill: #00cc33; stroke: #262626; stroke-width: 1.5"/>
    <path d="M 108.947952 82.786716 
L 108.045918 75.935089 
L 105.401289 69.550389 
L 101.194291 64.067723 
L 95.711625 59.860725 
L 89.326925 57.216095 
L 82.475298 56.314062 
L 75.623671 57.216095 
L 69.238971 59.860725 
L 63.756304 64.067723 
L 59.549307 69.550389 
L 56.904677 75.935089 
L 56.002643 82.786716 
L 56.904677 89.638343 
L 59.549307 96.023043 
L 63.756304 101.505709 
L 69.238971 105.712707 
L 75.623671 108.357336 
L 82.475298 109.25937 
L 89.326925 108.357336 
L 95.711625 105.712707 
L 101.194291 101.505709 
L 105.401289 96.023043 
L 108.045918 89.638343 
L 108.947952 82.786716 
z
" clip-path="url(#pfeb8429c03)" style="fill: #00cc33; stroke: #262626; stroke-width: 1.5"/>
   </g>
  </g>
 </g>
 <defs>
  <clipPath id="pfeb8429c03">
   <rect x="7.2" y="7.2" width="266.4" height="266.4"/>
  </clipPath>
 </defs>
</svg>
