<?xml version="1.0" encoding="utf-8" standalone="no"?>
<!DOCTYPE svg PUBLIC "-//W3C//DTD SVG 1.1//EN"
  "http://www.w3.org/Graphics/SVG/1.1/DTD/svg11.dtd">
<svg xmlns:xlink="http://www.w3.org/1999/xlink" width="280.8pt" height="280.8pt" viewBox="0 0 280.8 280.8" xmlns="http://www.w3.org/2000/svg" version="1.1">
 <metadata>
  <rdf:RDF xmlns:dc="http://purl.org/dc/elements/1.1/" xmlns:cc="http://creativecommons.org/ns#" xmlns:rdf="http://www.w3.org/1999/02/22-rdf-syntax-ns#">
   <cc:Work>
    <dc:type rdf:resource="http://purl.org/dc/dcmitype/StillImage"/>
    <dc:date>2026-02-16T14:30:30.739296</dc:date>
    <dc:format>image/svg+xml</dc:format>
    <dc:creator>
     <cc:Agent>
      <dc:title>Matplotlib v3.10.7, https://matplotlib.org/</dc:title>
     </cc:Agent>
    </dc:creator>
   </cc:Work>
  </rdf:RDF>
 </metadata>
 <defs>
  <style type="text/css">*{stroke-linejoin: round; stroke-linecap: butt}</style>
 </defs>
 <g id="figure_1">
  <g id="patch_1">
   <path d="M 0 280.8 
L 280.8 280.8 
L 280.8 0 
L 0 0 
z
" style="fill: #ffffff"/>
  </g>
  <g id="axes_1">
   <g id="PolyCollection_1">
    <path d="M 174.451741 163.501297 
L 174.451741 140.27822 
L 174.984541 140.27822 
L 174.984541 163.501297 
z
" clip-path="url(#p36172fdec9)" style="fill: #4c4c4c"/>
    <path d="M 163.742076 175.181766 
L 140.617977 175.985641 
L 140.599466 175.453163 
L 163.723565 174.649287 
z
" clip-path="url(#p36172fdec9)" style="fill: #4c4c4c"/>
    <path d="M 174.451741 122.626475 
L 174.451741 121.878727 
L 174.984541 121.878727 
L 174.984541 122.626475 
z
" clip-path="url(#p36172fdec9)" style="fill: #4c4c4c"/>
    <path d="M 217.615817 173.042362 
L 174.718141 217.614928 
L 183.297676 181.990015 
z
" clip-path="url(#p36172fdec9)" style="fill: #4d6c9b"/>
    <path d="M 174.451741 121.878727 
L 174.451741 99.403398 
L 174.984541 99.403398 
L 174.984541 121.878727 
z
" clip-path="url(#p36172fdec9)" style="fill: #4c4c4c"/>
    <path d="M 123.041464 176.596663 
L 99.917365 177.400539 
L 99.898854 176.868061 
L 123.022953 176.064185 
z
" clip-path="url(#p36172fdec9)" style="fill: #4c4c4c"/>
    <path d="M 177.089956 176.242007 
L 177.981525 177.016859 
L 177.632022 177.419008 
L 176.740453 176.644156 
z
" clip-path="url(#p36172fdec9)" style="fill: #4c4c4c"/>
    <path d="M 174.718141 131.452347 
L 217.615817 173.042362 
L 183.297676 181.990015 
z
" clip-path="url(#p36172fdec9)" style="fill: #5d82ba"/>
    <path d="M 131.820465 176.024913 
L 174.718141 217.614928 
L 183.297676 181.990015 
z
" clip-path="url(#p36172fdec9)" style="fill: #5f84bd"/>
    <path d="M 177.981525 177.016859 
L 178.324706 177.315114 
L 177.975203 177.717263 
L 177.632022 177.419008 
z
" clip-path="url(#p36172fdec9)" style="fill: #4c4c4c"/>
    <path d="M 163.742076 89.019185 
L 140.617977 89.823061 
L 140.599466 89.290582 
L 163.723565 88.486707 
z
" clip-path="url(#p36172fdec9)" style="fill: #4c4c4c"/>
    <path d="M 178.324706 177.315114 
L 179.525841 178.359007 
L 179.176338 178.761156 
L 177.975203 177.717263 
z
" clip-path="url(#p36172fdec9)" style="fill: #4c4c4c"/>
    <path d="M 88.656389 166.483848 
L 88.656389 144.008518 
L 89.189189 144.008518 
L 89.189189 166.483848 
z
" clip-path="url(#p36172fdec9)" style="fill: #4c4c4c"/>
    <path d="M 174.718141 131.452347 
L 131.820465 176.024913 
L 183.297676 181.990015 
z
" clip-path="url(#p36172fdec9)" style="fill: #6e9adc"/>
    <path d="M 88.656389 144.008518 
L 88.656389 143.260771 
L 89.189189 143.260771 
L 89.189189 144.008518 
z
" clip-path="url(#p36172fdec9)" style="fill: #4c4c4c"/>
    <path d="M 179.525841 178.359007 
L 179.697432 178.508135 
L 179.347929 178.910283 
L 179.176338 178.761156 
z
" clip-path="url(#p36172fdec9)" style="fill: #4c4c4c"/>
    <path d="M 179.697432 178.508135 
L 179.869023 178.657262 
L 179.51952 179.059411 
L 179.347929 178.910283 
z
" clip-path="url(#p36172fdec9)" style="fill: #4c4c4c"/>
    <path d="M 174.718141 131.452347 
L 217.615817 86.879782 
L 183.297676 95.827434 
z
" clip-path="url(#p36172fdec9)" style="fill: #4d6c9b"/>
    <path d="M 179.869023 178.657262 
L 180.040613 178.80639 
L 179.691111 179.208538 
L 179.51952 179.059411 
z
" clip-path="url(#p36172fdec9)" style="fill: #4c4c4c"/>
    <path d="M 123.041464 90.434083 
L 99.917365 91.237958 
L 99.898854 90.70548 
L 123.022953 89.901604 
z
" clip-path="url(#p36172fdec9)" style="fill: #4c4c4c"/>
    <path d="M 88.656389 125.609026 
L 88.656389 102.385949 
L 89.189189 102.385949 
L 89.189189 125.609026 
z
" clip-path="url(#p36172fdec9)" style="fill: #4c4c4c"/>
    <path d="M 180.040613 178.80639 
L 181.413339 179.99941 
L 181.063836 180.401559 
L 179.691111 179.208538 
z
" clip-path="url(#p36172fdec9)" style="fill: #4c4c4c"/>
    <path d="M 177.089956 90.079426 
L 178.324706 91.152534 
L 177.975203 91.554682 
L 176.740453 90.481575 
z
" clip-path="url(#p36172fdec9)" style="fill: #4c4c4c"/>
    <path d="M 91.294604 179.224558 
L 92.186173 179.99941 
L 91.83667 180.401559 
L 90.945101 179.626706 
z
" clip-path="url(#p36172fdec9)" style="fill: #4c4c4c"/>
    <path d="M 131.820465 176.024913 
L 88.922789 220.597479 
L 97.502324 184.972566 
z
" clip-path="url(#p36172fdec9)" style="fill: #4d6c9b"/>
    <path d="M 217.615817 86.879782 
L 174.718141 45.289767 
L 183.297676 95.827434 
z
" clip-path="url(#p36172fdec9)" style="fill: #5d82ba"/>
    <path d="M 174.718141 131.452347 
L 131.820465 89.862333 
L 183.297676 95.827434 
z
" clip-path="url(#p36172fdec9)" style="fill: #5f84bd"/>
    <path d="M 88.922789 134.434898 
L 131.820465 176.024913 
L 97.502324 184.972566 
z
" clip-path="url(#p36172fdec9)" style="fill: #5d82ba"/>
    <path d="M 46.025113 179.007464 
L 88.922789 220.597479 
L 97.502324 184.972566 
z
" clip-path="url(#p36172fdec9)" style="fill: #5f84bd"/>
    <path d="M 181.413339 179.99941 
L 181.714776 180.261386 
L 181.365273 180.663534 
L 181.063836 180.401559 
z
" clip-path="url(#p36172fdec9)" style="fill: #4c4c4c"/>
    <path d="M 178.324706 91.152534 
L 179.869023 92.494682 
L 179.51952 92.89683 
L 177.975203 91.554682 
z
" clip-path="url(#p36172fdec9)" style="fill: #4c4c4c"/>
    <path d="M 92.186173 179.99941 
L 93.730489 181.341558 
L 93.380986 181.743707 
L 91.83667 180.401559 
z
" clip-path="url(#p36172fdec9)" style="fill: #4c4c4c"/>
    <path d="M 131.820465 89.862333 
L 174.718141 45.289767 
L 183.297676 95.827434 
z
" clip-path="url(#p36172fdec9)" style="fill: #6e9adc"/>
    <path d="M 88.922789 134.434898 
L 46.025113 179.007464 
L 97.502324 184.972566 
z
" clip-path="url(#p36172fdec9)" style="fill: #6e9adc"/>
    <path d="M 179.869023 92.494682 
L 180.040613 92.643809 
L 179.691111 93.045958 
L 179.51952 92.89683 
z
" clip-path="url(#p36172fdec9)" style="fill: #4c4c4c"/>
    <path d="M 93.730489 181.341558 
L 93.90208 181.490685 
L 93.552577 181.892834 
L 93.380986 181.743707 
z
" clip-path="url(#p36172fdec9)" style="fill: #4c4c4c"/>
    <path d="M 180.040613 92.643809 
L 180.383795 92.942064 
L 180.034292 93.344213 
L 179.691111 93.045958 
z
" clip-path="url(#p36172fdec9)" style="fill: #4c4c4c"/>
    <path d="M 93.90208 181.490685 
L 94.245261 181.788941 
L 93.895758 182.191089 
L 93.552577 181.892834 
z
" clip-path="url(#p36172fdec9)" style="fill: #4c4c4c"/>
    <path d="M 88.922789 134.434898 
L 131.820465 89.862333 
L 97.502324 98.809985 
z
" clip-path="url(#p36172fdec9)" style="fill: #4d6c9b"/>
    <path d="M 180.383795 92.942064 
L 181.714776 94.098805 
L 181.365273 94.500954 
L 180.034292 93.344213 
z
" clip-path="url(#p36172fdec9)" style="fill: #4c4c4c"/>
    <path d="M 94.245261 181.788941 
L 95.919424 183.243937 
L 95.569921 183.646085 
L 93.895758 182.191089 
z
" clip-path="url(#p36172fdec9)" style="fill: #4c4c4c"/>
    <path d="M 91.294604 93.061977 
L 94.245261 95.62636 
L 93.895758 96.028509 
L 90.945101 93.464126 
z
" clip-path="url(#p36172fdec9)" style="fill: #4c4c4c"/>
    <path d="M 185.230079 183.316495 
L 186.56106 184.473236 
L 186.211557 184.875385 
L 184.880576 183.718644 
z
" clip-path="url(#p36172fdec9)" style="fill: #4c4c4c"/>
    <path d="M 131.820465 89.862333 
L 88.922789 48.272318 
L 97.502324 98.809985 
z
" clip-path="url(#p36172fdec9)" style="fill: #5d82ba"/>
    <path d="M 88.922789 134.434898 
L 46.025113 92.844883 
L 97.502324 98.809985 
z
" clip-path="url(#p36172fdec9)" style="fill: #5f84bd"/>
    <path d="M 46.025113 92.844883 
L 88.922789 48.272318 
L 97.502324 98.809985 
z
" clip-path="url(#p36172fdec9)" style="fill: #6e9adc"/>
    <path d="M 94.245261 95.62636 
L 94.416852 95.775487 
L 94.067349 96.177636 
L 93.895758 96.028509 
z
" clip-path="url(#p36172fdec9)" style="fill: #4c4c4c"/>
    <path d="M 186.56106 184.473236 
L 186.732651 184.622364 
L 186.383148 185.024513 
L 186.211557 184.875385 
z
" clip-path="url(#p36172fdec9)" style="fill: #4c4c4c"/>
    <path d="M 156.084022 140.4 
L 156.024339 139.033047 
L 155.845746 137.676498 
L 155.549602 136.340676 
L 155.138159 135.035749 
L 154.614551 133.771646 
L 153.982761 132.557989 
L 153.247598 131.404015 
L 152.414658 130.318505 
L 151.490278 129.309722 
L 150.481495 128.385342 
L 149.395985 127.552402 
L 148.242011 126.817239 
L 147.028354 126.185449 
L 145.764251 125.661841 
L 144.459324 125.250398 
L 143.123502 124.954254 
L 141.766953 124.775661 
L 140.4 124.715978 
L 139.033047 124.775661 
L 137.676498 124.954254 
L 136.340676 125.250398 
L 135.035749 125.661841 
L 133.771646 126.185449 
L 132.557989 126.817239 
L 131.404015 127.552402 
L 130.318505 128.385342 
L 129.309722 129.309722 
L 128.385342 130.318505 
L 127.552402 131.404015 
L 126.817239 132.557989 
L 126.185449 133.771646 
L 125.661841 135.035749 
L 125.250398 136.340676 
L 124.954254 137.676498 
L 124.775661 139.033047 
L 124.715978 140.4 
L 124.775661 141.766953 
L 124.954254 143.123502 
L 125.250398 144.459324 
L 125.661841 145.764251 
L 126.185449 147.028354 
L 126.817239 148.242011 
L 127.552402 149.395985 
L 128.385342 150.481495 
L 129.309722 151.490278 
L 130.318505 152.414658 
L 131.404015 153.247598 
L 132.557989 153.982761 
L 133.771646 154.614551 
L 135.035749 155.138159 
L 136.340676 155.549602 
L 137.676498 155.845746 
L 139.033047 156.024339 
L 140.4 156.084022 
L 141.766953 156.024339 
L 143.123502 155.845746 
L 144.459324 155.549602 
L 145.764251 155.138159 
L 147.028354 154.614551 
L 148.242011 153.982761 
L 149.395985 153.247598 
L 150.481495 152.414658 
L 151.490278 151.490278 
L 152.414658 150.481495 
L 153.247598 149.395985 
L 153.982761 148.242011 
L 154.614551 147.028354 
L 155.138159 145.764251 
L 155.549602 144.459324 
L 155.845746 143.123502 
L 156.024339 141.766953 
L 156.084022 140.4 
z
" clip-path="url(#p36172fdec9)" style="fill: #00cc33"/>
    <path d="M 186.732651 184.622364 
L 186.904242 184.771491 
L 186.554739 185.17364 
L 186.383148 185.024513 
z
" clip-path="url(#p36172fdec9)" style="fill: #4c4c4c"/>
    <path d="M 94.416852 95.775487 
L 94.588443 95.924615 
L 94.23894 96.326764 
L 94.067349 96.177636 
z
" clip-path="url(#p36172fdec9)" style="fill: #4c4c4c"/>
    <path d="M 94.588443 95.924615 
L 95.919424 97.081356 
L 95.569921 97.483505 
L 94.23894 96.326764 
z
" clip-path="url(#p36172fdec9)" style="fill: #4c4c4c"/>
    <path d="M 186.904242 184.771491 
L 189.854899 187.335874 
L 189.505396 187.738023 
L 186.554739 185.17364 
z
" clip-path="url(#p36172fdec9)" style="fill: #4c4c4c"/>
    <path d="M 185.230079 97.153915 
L 186.904242 98.608911 
L 186.554739 99.011059 
L 184.880576 97.556063 
z
" clip-path="url(#p36172fdec9)" style="fill: #4c4c4c"/>
    <path d="M 99.434727 186.299046 
L 100.765708 187.455787 
L 100.416205 187.857936 
L 99.085224 186.701195 
z
" clip-path="url(#p36172fdec9)" style="fill: #4c4c4c"/>
    <path d="M 186.904242 98.608911 
L 187.247423 98.907166 
L 186.89792 99.309315 
L 186.554739 99.011059 
z
" clip-path="url(#p36172fdec9)" style="fill: #4c4c4c"/>
    <path d="M 100.765708 187.455787 
L 101.108889 187.754042 
L 100.759387 188.156191 
L 100.416205 187.857936 
z
" clip-path="url(#p36172fdec9)" style="fill: #4c4c4c"/>
    <path d="M 187.247423 98.907166 
L 187.419014 99.056293 
L 187.069511 99.458442 
L 186.89792 99.309315 
z
" clip-path="url(#p36172fdec9)" style="fill: #4c4c4c"/>
    <path d="M 101.108889 187.754042 
L 101.28048 187.90317 
L 100.930977 188.305318 
L 100.759387 188.156191 
z
" clip-path="url(#p36172fdec9)" style="fill: #4c4c4c"/>
    <path d="M 187.419014 99.056293 
L 188.96333 100.398441 
L 188.613827 100.80059 
L 187.069511 99.458442 
z
" clip-path="url(#p36172fdec9)" style="fill: #4c4c4c"/>
    <path d="M 101.28048 187.90317 
L 102.824797 189.245318 
L 102.475294 189.647466 
L 100.930977 188.305318 
z
" clip-path="url(#p36172fdec9)" style="fill: #4c4c4c"/>
    <path d="M 99.434727 100.136466 
L 99.736164 100.398441 
L 99.386661 100.80059 
L 99.085224 100.538614 
z
" clip-path="url(#p36172fdec9)" style="fill: #4c4c4c"/>
    <path d="M 188.96333 100.398441 
L 189.854899 101.173294 
L 189.505396 101.575442 
L 188.613827 100.80059 
z
" clip-path="url(#p36172fdec9)" style="fill: #4c4c4c"/>
    <path d="M 102.824797 189.245318 
L 104.059547 190.318425 
L 103.710044 190.720574 
L 102.475294 189.647466 
z
" clip-path="url(#p36172fdec9)" style="fill: #4c4c4c"/>
    <path d="M 99.736164 100.398441 
L 101.108889 101.591462 
L 100.759387 101.99361 
L 99.386661 100.80059 
z
" clip-path="url(#p36172fdec9)" style="fill: #4c4c4c"/>
    <path d="M 191.610811 178.414051 
L 191.610811 155.190974 
L 192.143611 155.190974 
L 192.143611 178.414051 
z
" clip-path="url(#p36172fdec9)" style="fill: #4c4c4c"/>
    <path d="M 180.901146 190.09452 
L 157.777047 190.898396 
L 157.758536 190.365917 
L 180.882635 189.562042 
z
" clip-path="url(#p36172fdec9)" style="fill: #4c4c4c"/>
    <path d="M 101.108889 101.591462 
L 101.28048 101.740589 
L 100.930977 102.142738 
L 100.759387 101.99361 
z
" clip-path="url(#p36172fdec9)" style="fill: #4c4c4c"/>
    <path d="M 101.28048 101.740589 
L 101.452071 101.889717 
L 101.102568 102.291865 
L 100.930977 102.142738 
z
" clip-path="url(#p36172fdec9)" style="fill: #4c4c4c"/>
    <path d="M 101.452071 101.889717 
L 101.623662 102.038844 
L 101.274159 102.440993 
L 101.102568 102.291865 
z
" clip-path="url(#p36172fdec9)" style="fill: #4c4c4c"/>
    <path d="M 191.610811 137.539229 
L 191.610811 136.791482 
L 192.143611 136.791482 
L 192.143611 137.539229 
z
" clip-path="url(#p36172fdec9)" style="fill: #4c4c4c"/>
    <path d="M 234.774887 187.955117 
L 191.877211 232.527682 
L 200.456746 196.902769 
z
" clip-path="url(#p36172fdec9)" style="fill: #4d6c9b"/>
    <path d="M 191.610811 136.791482 
L 191.610811 114.316152 
L 192.143611 114.316152 
L 192.143611 136.791482 
z
" clip-path="url(#p36172fdec9)" style="fill: #4c4c4c"/>
    <path d="M 101.623662 102.038844 
L 102.824797 103.082737 
L 102.475294 103.484886 
L 101.274159 102.440993 
z
" clip-path="url(#p36172fdec9)" style="fill: #4c4c4c"/>
    <path d="M 140.200534 191.509418 
L 117.076435 192.313293 
L 117.057924 191.780815 
L 140.182023 190.976939 
z
" clip-path="url(#p36172fdec9)" style="fill: #4c4c4c"/>
    <path d="M 191.877211 146.365102 
L 234.774887 187.955117 
L 200.456746 196.902769 
z
" clip-path="url(#p36172fdec9)" style="fill: #5d82ba"/>
    <path d="M 148.979535 190.937667 
L 191.877211 232.527682 
L 200.456746 196.902769 
z
" clip-path="url(#p36172fdec9)" style="fill: #5f84bd"/>
    <path d="M 102.824797 103.082737 
L 103.167978 103.380992 
L 102.818475 103.783141 
L 102.475294 103.484886 
z
" clip-path="url(#p36172fdec9)" style="fill: #4c4c4c"/>
    <path d="M 103.167978 103.380992 
L 104.059547 104.155844 
L 103.710044 104.557993 
L 102.818475 103.783141 
z
" clip-path="url(#p36172fdec9)" style="fill: #4c4c4c"/>
    <path d="M 180.901146 103.931939 
L 157.777047 104.735815 
L 157.758536 104.203337 
L 180.882635 103.399461 
z
" clip-path="url(#p36172fdec9)" style="fill: #4c4c4c"/>
    <path d="M 105.815459 181.396602 
L 105.815459 158.921273 
L 106.348259 158.921273 
L 106.348259 181.396602 
z
" clip-path="url(#p36172fdec9)" style="fill: #4c4c4c"/>
    <path d="M 191.877211 146.365102 
L 148.979535 190.937667 
L 200.456746 196.902769 
z
" clip-path="url(#p36172fdec9)" style="fill: #6e9adc"/>
    <path d="M 105.815459 158.921273 
L 105.815459 158.173525 
L 106.348259 158.173525 
L 106.348259 158.921273 
z
" clip-path="url(#p36172fdec9)" style="fill: #4c4c4c"/>
    <path d="M 191.877211 146.365102 
L 234.774887 101.792536 
L 200.456746 110.740189 
z
" clip-path="url(#p36172fdec9)" style="fill: #4d6c9b"/>
    <path d="M 140.200534 105.346837 
L 117.076435 106.150713 
L 117.057924 105.618234 
L 140.182023 104.814359 
z
" clip-path="url(#p36172fdec9)" style="fill: #4c4c4c"/>
    <path d="M 105.815459 140.52178 
L 105.815459 117.298703 
L 106.348259 117.298703 
L 106.348259 140.52178 
z
" clip-path="url(#p36172fdec9)" style="fill: #4c4c4c"/>
    <path d="M 148.979535 190.937667 
L 106.081859 235.510233 
L 114.661394 199.88532 
z
" clip-path="url(#p36172fdec9)" style="fill: #4d6c9b"/>
    <path d="M 234.774887 101.792536 
L 191.877211 60.202521 
L 200.456746 110.740189 
z
" clip-path="url(#p36172fdec9)" style="fill: #5d82ba"/>
    <path d="M 191.877211 146.365102 
L 148.979535 104.775087 
L 200.456746 110.740189 
z
" clip-path="url(#p36172fdec9)" style="fill: #5f84bd"/>
    <path d="M 106.081859 149.347653 
L 148.979535 190.937667 
L 114.661394 199.88532 
z
" clip-path="url(#p36172fdec9)" style="fill: #5d82ba"/>
    <path d="M 63.184183 193.920218 
L 106.081859 235.510233 
L 114.661394 199.88532 
z
" clip-path="url(#p36172fdec9)" style="fill: #5f84bd"/>
    <path d="M 148.979535 104.775087 
L 191.877211 60.202521 
L 200.456746 110.740189 
z
" clip-path="url(#p36172fdec9)" style="fill: #6e9adc"/>
    <path d="M 106.081859 149.347653 
L 63.184183 193.920218 
L 114.661394 199.88532 
z
" clip-path="url(#p36172fdec9)" style="fill: #6e9adc"/>
    <path d="M 106.081859 149.347653 
L 148.979535 104.775087 
L 114.661394 113.722739 
z
" clip-path="url(#p36172fdec9)" style="fill: #4d6c9b"/>
    <path d="M 148.979535 104.775087 
L 106.081859 63.185072 
L 114.661394 113.722739 
z
" clip-path="url(#p36172fdec9)" style="fill: #5d82ba"/>
    <path d="M 106.081859 149.347653 
L 63.184183 107.757638 
L 114.661394 113.722739 
z
" clip-path="url(#p36172fdec9)" style="fill: #5f84bd"/>
    <path d="M 63.184183 107.757638 
L 106.081859 63.185072 
L 114.661394 113.722739 
z
" clip-path="url(#p36172fdec9)" style="fill: #6e9adc"/>
   </g>
   <g id="line2d_1">
    <path d="M 37.836 242.964 
L 37.836 232.470207 
" clip-path="url(#p36172fdec9)" style="fill: none; stroke: #4c4c4c; stroke-width: 1; stroke-linecap: round"/>
   </g>
   <g id="line2d_2">
    <path d="M 37.836 242.964 
L 27.386932 243.327247 
" clip-path="url(#p36172fdec9)" style="fill: none; stroke: #4c4c4c; stroke-width: 1; stroke-linecap: round"/>
   </g>
   <g id="line2d_3">
    <path d="M 37.836 242.964 
L 39.925814 244.780233 
" clip-path="url(#p36172fdec9)" style="fill: none; stroke: #4c4c4c; stroke-width: 1; stroke-linecap: round"/>
   </g>
   <g id="text_1">
    <path d="M 35.541469 224.766601 
L 35.541469 231.907226 
L 36.391469 231.907226 
L 36.391469 231.216601 
L 36.411781 231.216601 
Q 36.550844 231.447851 36.755531 231.602538 
Q 36.961781 231.757226 37.191469 231.847851 
Q 37.421156 231.936913 37.655531 231.975976 
Q 37.891469 232.016601 38.080531 232.016601 
Q 38.671156 232.016601 39.116469 231.807226 
Q 39.561781 231.597851 39.855531 231.232226 
Q 40.150844 230.866601 40.296156 230.377538 
Q 40.441469 229.886913 40.441469 229.336913 
Q 40.441469 228.786913 40.291469 228.297851 
Q 40.141469 227.807226 39.846156 227.432226 
Q 39.550844 227.057226 39.105531 226.836913 
Q 38.661781 226.616601 38.061781 226.616601 
Q 37.521156 226.616601 37.071156 226.811913 
Q 36.621156 227.007226 36.411781 227.436913 
L 36.391469 227.436913 
L 36.391469 224.766601 
L 35.541469 224.766601 
z
M 39.541469 229.277538 
Q 39.541469 229.657226 39.460219 230.018163 
Q 39.380531 230.377538 39.200844 230.657226 
Q 39.021156 230.936913 38.725844 231.107226 
Q 38.430531 231.277538 37.991469 231.277538 
Q 37.550844 231.277538 37.239906 231.113476 
Q 36.930531 230.947851 36.735219 230.677538 
Q 36.541469 230.407226 36.450844 230.052538 
Q 36.361781 229.697851 36.361781 229.316601 
Q 36.361781 228.957226 36.446156 228.607226 
Q 36.530531 228.257226 36.721156 227.982226 
Q 36.911781 227.707226 37.211781 227.536913 
Q 37.511781 227.366601 37.941469 227.366601 
Q 38.350844 227.366601 38.655531 227.527538 
Q 38.961781 227.686913 39.155531 227.957226 
Q 39.350844 228.227538 39.446156 228.572851 
Q 39.541469 228.916601 39.541469 229.277538 
z
" style="fill: #4c4c4c; stroke: #ffffff; stroke-width: 3"/>
    <path d="M 35.541469 224.766601 
L 35.541469 231.907226 
L 36.391469 231.907226 
L 36.391469 231.216601 
L 36.411781 231.216601 
Q 36.550844 231.447851 36.755531 231.602538 
Q 36.961781 231.757226 37.191469 231.847851 
Q 37.421156 231.936913 37.655531 231.975976 
Q 37.891469 232.016601 38.080531 232.016601 
Q 38.671156 232.016601 39.116469 231.807226 
Q 39.561781 231.597851 39.855531 231.232226 
Q 40.150844 230.866601 40.296156 230.377538 
Q 40.441469 229.886913 40.441469 229.336913 
Q 40.441469 228.786913 40.291469 228.297851 
Q 40.141469 227.807226 39.846156 227.432226 
Q 39.550844 227.057226 39.105531 226.836913 
Q 38.661781 226.616601 38.061781 226.616601 
Q 37.521156 226.616601 37.071156 226.811913 
Q 36.621156 227.007226 36.411781 227.436913 
L 36.391469 227.436913 
L 36.391469 224.766601 
L 35.541469 224.766601 
z
M 39.541469 229.277538 
Q 39.541469 229.657226 39.460219 230.018163 
Q 39.380531 230.377538 39.200844 230.657226 
Q 39.021156 230.936913 38.725844 231.107226 
Q 38.430531 231.277538 37.991469 231.277538 
Q 37.550844 231.277538 37.239906 231.113476 
Q 36.930531 230.947851 36.735219 230.677538 
Q 36.541469 230.407226 36.450844 230.052538 
Q 36.361781 229.697851 36.361781 229.316601 
Q 36.361781 228.957226 36.446156 228.607226 
Q 36.530531 228.257226 36.721156 227.982226 
Q 36.911781 227.707226 37.211781 227.536913 
Q 37.511781 227.366601 37.941469 227.366601 
Q 38.350844 227.366601 38.655531 227.527538 
Q 38.961781 227.686913 39.155531 227.957226 
Q 39.350844 228.227538 39.446156 228.572851 
Q 39.541469 228.916601 39.541469 229.277538 
z
" style="fill: #4c4c4c"/>
   </g>
   <g id="text_2">
    <path d="M 25.717056 242.512002 
L 26.596743 242.512002 
Q 26.546743 242.051064 26.356118 241.716689 
Q 26.167056 241.380752 25.871743 241.162002 
Q 25.576431 240.941689 25.192056 240.837002 
Q 24.807681 240.730752 24.367056 240.730752 
Q 23.757681 240.730752 23.296743 240.946377 
Q 22.837368 241.162002 22.531118 241.537002 
Q 22.226431 241.912002 22.076431 242.416689 
Q 21.926431 242.921377 21.926431 243.501064 
Q 21.926431 244.080752 22.081118 244.566689 
Q 22.237368 245.051064 22.542056 245.401064 
Q 22.846743 245.751064 23.301431 245.941689 
Q 23.757681 246.130752 24.346743 246.130752 
Q 25.337368 246.130752 25.912368 245.612002 
Q 26.487368 245.091689 26.626431 244.130752 
L 25.757681 244.130752 
Q 25.676431 244.730752 25.321743 245.062002 
Q 24.967056 245.391689 24.337368 245.391689 
Q 23.937368 245.391689 23.646743 245.232314 
Q 23.357681 245.071377 23.176431 244.807314 
Q 22.996743 244.541689 22.910806 244.202627 
Q 22.826431 243.862002 22.826431 243.501064 
Q 22.826431 243.112002 22.906118 242.746377 
Q 22.987368 242.380752 23.171743 242.101064 
Q 23.357681 241.821377 23.667056 241.651064 
Q 23.976431 241.480752 24.437368 241.480752 
Q 24.976431 241.480752 25.296743 241.751064 
Q 25.617056 242.021377 25.717056 242.512002 
z
" style="fill: #4c4c4c; stroke: #ffffff; stroke-width: 3"/>
    <path d="M 25.717056 242.512002 
L 26.596743 242.512002 
Q 26.546743 242.051064 26.356118 241.716689 
Q 26.167056 241.380752 25.871743 241.162002 
Q 25.576431 240.941689 25.192056 240.837002 
Q 24.807681 240.730752 24.367056 240.730752 
Q 23.757681 240.730752 23.296743 240.946377 
Q 22.837368 241.162002 22.531118 241.537002 
Q 22.226431 241.912002 22.076431 242.416689 
Q 21.926431 242.921377 21.926431 243.501064 
Q 21.926431 244.080752 22.081118 244.566689 
Q 22.237368 245.051064 22.542056 245.401064 
Q 22.846743 245.751064 23.301431 245.941689 
Q 23.757681 246.130752 24.346743 246.130752 
Q 25.337368 246.130752 25.912368 245.612002 
Q 26.487368 245.091689 26.626431 244.130752 
L 25.757681 244.130752 
Q 25.676431 244.730752 25.321743 245.062002 
Q 24.967056 245.391689 24.337368 245.391689 
Q 23.937368 245.391689 23.646743 245.232314 
Q 23.357681 245.071377 23.176431 244.807314 
Q 22.996743 244.541689 22.910806 244.202627 
Q 22.826431 243.862002 22.826431 243.501064 
Q 22.826431 243.112002 22.906118 242.746377 
Q 22.987368 242.380752 23.171743 242.101064 
Q 23.357681 241.821377 23.667056 241.651064 
Q 23.976431 241.480752 24.437368 241.480752 
Q 24.976431 241.480752 25.296743 241.751064 
Q 25.617056 242.021377 25.717056 242.512002 
z
" style="fill: #4c4c4c"/>
   </g>
   <g id="text_3">
    <path d="M 43.431411 248.495811 
Q 43.211098 248.625499 42.820473 248.625499 
Q 42.490786 248.625499 42.295473 248.441124 
Q 42.101723 248.256749 42.101723 247.836436 
Q 41.751723 248.256749 41.286098 248.441124 
Q 40.820473 248.625499 40.281411 248.625499 
Q 39.931411 248.625499 39.615786 248.545811 
Q 39.301723 248.466124 39.070473 248.295811 
Q 38.840786 248.125499 38.704848 247.850499 
Q 38.570473 247.575499 38.570473 247.186436 
Q 38.570473 246.745811 38.720473 246.466124 
Q 38.870473 246.186436 39.115786 246.011436 
Q 39.361098 245.836436 39.675161 245.747374 
Q 39.990786 245.656749 40.320473 245.595811 
Q 40.670473 245.525499 40.986098 245.491124 
Q 41.301723 245.456749 41.540786 245.391124 
Q 41.781411 245.325499 41.920473 245.200499 
Q 42.061098 245.075499 42.061098 244.836436 
Q 42.061098 244.556749 41.956411 244.386436 
Q 41.851723 244.216124 41.686098 244.127061 
Q 41.520473 244.036436 41.315786 244.006749 
Q 41.111098 243.975499 40.911098 243.975499 
Q 40.370473 243.975499 40.011098 244.181749 
Q 39.651723 244.386436 39.620473 244.956749 
L 38.770473 244.956749 
Q 38.790786 244.475499 38.970473 244.145811 
Q 39.151723 243.816124 39.451723 243.611436 
Q 39.751723 243.406749 40.136098 243.316124 
Q 40.520473 243.225499 40.961098 243.225499 
Q 41.311098 243.225499 41.656411 243.275499 
Q 42.001723 243.325499 42.281411 243.481749 
Q 42.561098 243.636436 42.731411 243.916124 
Q 42.901723 244.195811 42.901723 244.645811 
L 42.901723 247.306749 
Q 42.901723 247.606749 42.936098 247.747374 
Q 42.970473 247.886436 43.170473 247.886436 
Q 43.281411 247.886436 43.431411 247.836436 
L 43.431411 248.495811 
z
M 42.051723 245.845811 
Q 41.890786 245.966124 41.629848 246.020811 
Q 41.370473 246.075499 41.086098 246.111436 
Q 40.801723 246.145811 40.511098 246.191124 
Q 40.220473 246.236436 39.990786 246.336436 
Q 39.761098 246.436436 39.615786 246.622374 
Q 39.470473 246.806749 39.470473 247.125499 
Q 39.470473 247.336436 39.554848 247.481749 
Q 39.640786 247.625499 39.775161 247.716124 
Q 39.911098 247.806749 40.090786 247.847374 
Q 40.270473 247.886436 40.470473 247.886436 
Q 40.890786 247.886436 41.190786 247.772374 
Q 41.490786 247.656749 41.679848 247.481749 
Q 41.870473 247.306749 41.961098 247.102061 
Q 42.051723 246.895811 42.051723 246.716124 
L 42.051723 245.845811 
z
" style="fill: #4c4c4c; stroke: #ffffff; stroke-width: 3"/>
    <path d="M 43.431411 248.495811 
Q 43.211098 248.625499 42.820473 248.625499 
Q 42.490786 248.625499 42.295473 248.441124 
Q 42.101723 248.256749 42.101723 247.836436 
Q 41.751723 248.256749 41.286098 248.441124 
Q 40.820473 248.625499 40.281411 248.625499 
Q 39.931411 248.625499 39.615786 248.545811 
Q 39.301723 248.466124 39.070473 248.295811 
Q 38.840786 248.125499 38.704848 247.850499 
Q 38.570473 247.575499 38.570473 247.186436 
Q 38.570473 246.745811 38.720473 246.466124 
Q 38.870473 246.186436 39.115786 246.011436 
Q 39.361098 245.836436 39.675161 245.747374 
Q 39.990786 245.656749 40.320473 245.595811 
Q 40.670473 245.525499 40.986098 245.491124 
Q 41.301723 245.456749 41.540786 245.391124 
Q 41.781411 245.325499 41.920473 245.200499 
Q 42.061098 245.075499 42.061098 244.836436 
Q 42.061098 244.556749 41.956411 244.386436 
Q 41.851723 244.216124 41.686098 244.127061 
Q 41.520473 244.036436 41.315786 244.006749 
Q 41.111098 243.975499 40.911098 243.975499 
Q 40.370473 243.975499 40.011098 244.181749 
Q 39.651723 244.386436 39.620473 244.956749 
L 38.770473 244.956749 
Q 38.790786 244.475499 38.970473 244.145811 
Q 39.151723 243.816124 39.451723 243.611436 
Q 39.751723 243.406749 40.136098 243.316124 
Q 40.520473 243.225499 40.961098 243.225499 
Q 41.311098 243.225499 41.656411 243.275499 
Q 42.001723 243.325499 42.281411 243.481749 
Q 42.561098 243.636436 42.731411 243.916124 
Q 42.901723 244.195811 42.901723 244.645811 
L 42.901723 247.306749 
Q 42.901723 247.606749 42.936098 247.747374 
Q 42.970473 247.886436 43.170473 247.886436 
Q 43.281411 247.886436 43.431411 247.836436 
L 43.431411 248.495811 
z
M 42.051723 245.845811 
Q 41.890786 245.966124 41.629848 246.020811 
Q 41.370473 246.075499 41.086098 246.111436 
Q 40.801723 246.145811 40.511098 246.191124 
Q 40.220473 246.236436 39.990786 246.336436 
Q 39.761098 246.436436 39.615786 246.622374 
Q 39.470473 246.806749 39.470473 247.125499 
Q 39.470473 247.336436 39.554848 247.481749 
Q 39.640786 247.625499 39.775161 247.716124 
Q 39.911098 247.806749 40.090786 247.847374 
Q 40.270473 247.886436 40.470473 247.886436 
Q 40.890786 247.886436 41.190786 247.772374 
Q 41.490786 247.656749 41.679848 247.481749 
Q 41.870473 247.306749 41.961098 247.102061 
Q 42.051723 246.895811 42.051723 246.716124 
L 42.051723 245.845811 
z
" style="fill: #4c4c4c"/>
   </g>
  </g>
 </g>
 <defs>
  <clipPath id="p36172fdec9">
   <rect x="7.2" y="7.2" width="266.4" height="266.4"/>
  </clipPath>
 </defs>
</svg>
