<?xml version="1.0" encoding="utf-8" standalone="no"?>
<!DOCTYPE svg PUBLIC "-//W3C//DTD SVG 1.1//EN"
  "http://www.w3.org/Graphics/SVG/1.1/DTD/svg11.dtd">
<svg xmlns:xlink="http://www.w3.org/1999/xlink" width="424.8pt" height="424.8pt" viewBox="0 0 424.8 424.8" xmlns="http://www.w3.org/2000/svg" version="1.1">
 <metadata>
  <rdf:RDF xmlns:dc="http://purl.org/dc/elements/1.1/" xmlns:cc="http://creativecommons.org/ns#" xmlns:rdf="http://www.w3.org/1999/02/22-rdf-syntax-ns#">
   <cc:Work>
    <dc:type rdf:resource="http://purl.org/dc/dcmitype/StillImage"/>
    <dc:date>2026-02-16T06:27:52.754429</dc:date>
    <dc:format>image/svg+xml</dc:format>
    <dc:creator>
     <cc:Agent>
      <dc:title>Matplotlib v3.10.7, https://matplotlib.org/</dc:title>
     </cc:Agent>
    </dc:creator>
   </cc:Work>
  </rdf:RDF>
 </metadata>
 <defs>
  <style type="text/css">*{stroke-linejoin: round; stroke-linecap: butt}</style>
 </defs>
 <g id="figure_1">
  <g id="patch_1">
   <path d="M 0 424.8 
L 424.8 424.8 
L 424.8 0 
L 0 0 
z
" style="fill: #ffffff"/>
  </g>
  <g id="axes_1">
   <g id="PolyCollection_1">
    <path d="M 334.122209 310.948549 
L 333.350736 305.088634 
L 331.088893 299.628062 
L 327.490821 294.938963 
L 322.801722 291.340891 
L 317.34115 289.079048 
L 311.481235 288.307576 
L 305.62132 289.079048 
L 300.160748 291.340891 
L 295.471649 294.938963 
L 291.873577 299.628062 
L 289.611734 305.088634 
L 288.840262 310.948549 
L 289.611734 316.808464 
L 291.873577 322.269036 
L 295.471649 326.958135 
L 300.160748 330.556207 
L 305.62132 332.81805 
L 311.481235 333.589523 
L 317.34115 332.81805 
L 322.801722 330.556207 
L 327.490821 326.958135 
L 331.088893 322.269036 
L 333.350736 316.808464 
L 334.122209 310.948549 
z
" clip-path="url(#p45b8be679f)" style="fill: #00cc33; stroke: #262626; stroke-width: 1.5"/>
    <path d="M 334.122209 186.566885 
L 333.350736 180.70697 
L 331.088893 175.246398 
L 327.490821 170.557299 
L 322.801722 166.959227 
L 317.34115 164.697384 
L 311.481235 163.925912 
L 305.62132 164.697384 
L 300.160748 166.959227 
L 295.471649 170.557299 
L 291.873577 175.246398 
L 289.611734 180.70697 
L 288.840262 186.566885 
L 289.611734 192.4268 
L 291.873577 197.887372 
L 295.471649 202.576471 
L 300.160748 206.174543 
L 305.62132 208.436386 
L 311.481235 209.207859 
L 317.34115 208.436386 
L 322.801722 206.174543 
L 327.490821 202.576471 
L 331.088893 197.887372 
L 333.350736 192.4268 
L 334.122209 186.566885 
z
" clip-path="url(#p45b8be679f)" style="fill: #00cc33; stroke: #262626; stroke-width: 1.5"/>
    <path d="M 262.493162 250.910477 
L 262.052321 247.561954 
L 260.759839 244.441627 
L 258.703798 241.762142 
L 256.024313 239.706101 
L 252.903986 238.413619 
L 249.555463 237.972778 
L 246.20694 238.413619 
L 243.086614 239.706101 
L 240.407128 241.762142 
L 238.351087 244.441627 
L 237.058605 247.561954 
L 236.617764 250.910477 
L 237.058605 254.259 
L 238.351087 257.379326 
L 240.407128 260.058811 
L 243.086614 262.114853 
L 246.20694 263.407334 
L 249.555463 263.848176 
L 252.903986 263.407334 
L 256.024313 262.114853 
L 258.703798 260.058811 
L 260.759839 257.379326 
L 262.052321 254.259 
L 262.493162 250.910477 
z
" clip-path="url(#p45b8be679f)" style="fill: #e61a1a; stroke: #262626; stroke-width: 1.5"/>
    <path d="M 210.270665 315.254068 
L 209.499192 309.394153 
L 207.237349 303.933581 
L 203.639277 299.244482 
L 198.950178 295.64641 
L 193.489606 293.384567 
L 187.629691 292.613095 
L 181.769776 293.384567 
L 176.309204 295.64641 
L 171.620105 299.244482 
L 168.022033 303.933581 
L 165.76019 309.394153 
L 164.988718 315.254068 
L 165.76019 321.113983 
L 168.022033 326.574555 
L 171.620105 331.263654 
L 176.309204 334.861726 
L 181.769776 337.123569 
L 187.629691 337.895042 
L 193.489606 337.123569 
L 198.950178 334.861726 
L 203.639277 331.263654 
L 207.237349 326.574555 
L 209.499192 321.113983 
L 210.270665 315.254068 
z
" clip-path="url(#p45b8be679f)" style="fill: #00cc33; stroke: #262626; stroke-width: 1.5"/>
    <path d="M 334.122209 62.185221 
L 333.350736 56.325306 
L 331.088893 50.864735 
L 327.490821 46.175635 
L 322.801722 42.577563 
L 317.34115 40.31572 
L 311.481235 39.544248 
L 305.62132 40.31572 
L 300.160748 42.577563 
L 295.471649 46.175635 
L 291.873577 50.864735 
L 289.611734 56.325306 
L 288.840262 62.185221 
L 289.611734 68.045137 
L 291.873577 73.505708 
L 295.471649 78.194807 
L 300.160748 81.79288 
L 305.62132 84.054722 
L 311.481235 84.826195 
L 317.34115 84.054722 
L 322.801722 81.79288 
L 327.490821 78.194807 
L 331.088893 73.505708 
L 333.350736 68.045137 
L 334.122209 62.185221 
z
" clip-path="url(#p45b8be679f)" style="fill: #00cc33; stroke: #262626; stroke-width: 1.5"/>
    <path d="M 262.493162 126.528813 
L 262.052321 123.18029 
L 260.759839 120.059963 
L 258.703798 117.380478 
L 256.024313 115.324437 
L 252.903986 114.031955 
L 249.555463 113.591114 
L 246.20694 114.031955 
L 243.086614 115.324437 
L 240.407128 117.380478 
L 238.351087 120.059963 
L 237.058605 123.18029 
L 236.617764 126.528813 
L 237.058605 129.877336 
L 238.351087 132.997662 
L 240.407128 135.677148 
L 243.086614 137.733189 
L 246.20694 139.025671 
L 249.555463 139.466512 
L 252.903986 139.025671 
L 256.024313 137.733189 
L 258.703798 135.677148 
L 260.759839 132.997662 
L 262.052321 129.877336 
L 262.493162 126.528813 
z
" clip-path="url(#p45b8be679f)" style="fill: #e61a1a; stroke: #262626; stroke-width: 1.5"/>
    <path d="M 210.270665 190.872404 
L 209.499192 185.012489 
L 207.237349 179.551918 
L 203.639277 174.862818 
L 198.950178 171.264746 
L 193.489606 169.002903 
L 187.629691 168.231431 
L 181.769776 169.002903 
L 176.309204 171.264746 
L 171.620105 174.862818 
L 168.022033 179.551918 
L 165.76019 185.012489 
L 164.988718 190.872404 
L 165.76019 196.732319 
L 168.022033 202.192891 
L 171.620105 206.88199 
L 176.309204 210.480063 
L 181.769776 212.741905 
L 187.629691 213.513378 
L 193.489606 212.741905 
L 198.950178 210.480063 
L 203.639277 206.88199 
L 207.237349 202.192891 
L 209.499192 196.732319 
L 210.270665 190.872404 
z
" clip-path="url(#p45b8be679f)" style="fill: #00cc33; stroke: #262626; stroke-width: 1.5"/>
    <path d="M 138.641618 255.215996 
L 138.200777 251.867473 
L 136.908295 248.747146 
L 134.852254 246.067661 
L 132.172769 244.01162 
L 129.052442 242.719138 
L 125.703919 242.278297 
L 122.355396 242.719138 
L 119.23507 244.01162 
L 116.555584 246.067661 
L 114.499543 248.747146 
L 113.207061 251.867473 
L 112.76622 255.215996 
L 113.207061 258.564519 
L 114.499543 261.684845 
L 116.555584 264.364331 
L 119.23507 266.420372 
L 122.355396 267.712854 
L 125.703919 268.153695 
L 129.052442 267.712854 
L 132.172769 266.420372 
L 134.852254 264.364331 
L 136.908295 261.684845 
L 138.200777 258.564519 
L 138.641618 255.215996 
z
" clip-path="url(#p45b8be679f)" style="fill: #e61a1a; stroke: #262626; stroke-width: 1.5"/>
    <path d="M 86.419121 319.559587 
L 85.647648 313.699672 
L 83.385805 308.239101 
L 79.787733 303.550001 
L 75.098634 299.951929 
L 69.638062 297.690086 
L 63.778147 296.918614 
L 57.918232 297.690086 
L 52.45766 299.951929 
L 47.768561 303.550001 
L 44.170489 308.239101 
L 41.908646 313.699672 
L 41.137174 319.559587 
L 41.908646 325.419502 
L 44.170489 330.880074 
L 47.768561 335.569173 
L 52.45766 339.167246 
L 57.918232 341.429088 
L 63.778147 342.200561 
L 69.638062 341.429088 
L 75.098634 339.167246 
L 79.787733 335.569173 
L 83.385805 330.880074 
L 85.647648 325.419502 
L 86.419121 319.559587 
z
" clip-path="url(#p45b8be679f)" style="fill: #00cc33; stroke: #262626; stroke-width: 1.5"/>
    <path d="M 323.86639 259.521515 
L 261.940618 323.865106 
L 249.555463 250.910477 
z
" clip-path="url(#p45b8be679f)" style="fill: #6e9adc; fill-opacity: 0.25; stroke: #4c4c4c; stroke-width: 0.8"/>
    <path d="M 261.940618 199.483443 
L 323.86639 259.521515 
L 249.555463 250.910477 
z
" clip-path="url(#p45b8be679f)" style="fill: #5f84bd; fill-opacity: 0.25; stroke: #4c4c4c; stroke-width: 0.8"/>
    <path d="M 200.014846 263.827034 
L 261.940618 323.865106 
L 249.555463 250.910477 
z
" clip-path="url(#p45b8be679f)" style="fill: #5d82ba; fill-opacity: 0.25; stroke: #4c4c4c; stroke-width: 0.8"/>
    <path d="M 210.270665 66.490741 
L 209.499192 60.630825 
L 207.237349 55.170254 
L 203.639277 50.481155 
L 198.950178 46.883082 
L 193.489606 44.621239 
L 187.629691 43.849767 
L 181.769776 44.621239 
L 176.309204 46.883082 
L 171.620105 50.481155 
L 168.022033 55.170254 
L 165.76019 60.630825 
L 164.988718 66.490741 
L 165.76019 72.350656 
L 168.022033 77.811227 
L 171.620105 82.500326 
L 176.309204 86.098399 
L 181.769776 88.360242 
L 187.629691 89.131714 
L 193.489606 88.360242 
L 198.950178 86.098399 
L 203.639277 82.500326 
L 207.237349 77.811227 
L 209.499192 72.350656 
L 210.270665 66.490741 
z
" clip-path="url(#p45b8be679f)" style="fill: #00cc33; stroke: #262626; stroke-width: 1.5"/>
    <path d="M 138.641618 130.834332 
L 138.200777 127.485809 
L 136.908295 124.365482 
L 134.852254 121.685997 
L 132.172769 119.629956 
L 129.052442 118.337474 
L 125.703919 117.896633 
L 122.355396 118.337474 
L 119.23507 119.629956 
L 116.555584 121.685997 
L 114.499543 124.365482 
L 113.207061 127.485809 
L 112.76622 130.834332 
L 113.207061 134.182855 
L 114.499543 137.303182 
L 116.555584 139.982667 
L 119.23507 142.038708 
L 122.355396 143.33119 
L 125.703919 143.772031 
L 129.052442 143.33119 
L 132.172769 142.038708 
L 134.852254 139.982667 
L 136.908295 137.303182 
L 138.200777 134.182855 
L 138.641618 130.834332 
z
" clip-path="url(#p45b8be679f)" style="fill: #e61a1a; stroke: #262626; stroke-width: 1.5"/>
    <path d="M 86.419121 195.177923 
L 85.647648 189.318008 
L 83.385805 183.857437 
L 79.787733 179.168338 
L 75.098634 175.570265 
L 69.638062 173.308422 
L 63.778147 172.53695 
L 57.918232 173.308422 
L 52.45766 175.570265 
L 47.768561 179.168338 
L 44.170489 183.857437 
L 41.908646 189.318008 
L 41.137174 195.177923 
L 41.908646 201.037839 
L 44.170489 206.49841 
L 47.768561 211.187509 
L 52.45766 214.785582 
L 57.918232 217.047425 
L 63.778147 217.818897 
L 69.638062 217.047425 
L 75.098634 214.785582 
L 79.787733 211.187509 
L 83.385805 206.49841 
L 85.647648 201.037839 
L 86.419121 195.177923 
z
" clip-path="url(#p45b8be679f)" style="fill: #00cc33; stroke: #262626; stroke-width: 1.5"/>
    <path d="M 261.940618 199.483443 
L 200.014846 263.827034 
L 249.555463 250.910477 
z
" clip-path="url(#p45b8be679f)" style="fill: #4d6c9b; fill-opacity: 0.25; stroke: #4c4c4c; stroke-width: 0.8"/>
    <path d="M 336.804089 259.521515 
L 336.363247 256.172992 
L 335.070766 253.052665 
L 333.014724 250.37318 
L 330.335239 248.317139 
L 327.214913 247.024657 
L 323.86639 246.583816 
L 320.517867 247.024657 
L 317.39754 248.317139 
L 314.718055 250.37318 
L 312.662014 253.052665 
L 311.369532 256.172992 
L 310.92869 259.521515 
L 311.369532 262.870038 
L 312.662014 265.990365 
L 314.718055 268.66985 
L 317.39754 270.725891 
L 320.517867 272.018373 
L 323.86639 272.459214 
L 327.214913 272.018373 
L 330.335239 270.725891 
L 333.014724 268.66985 
L 335.070766 265.990365 
L 336.363247 262.870038 
L 336.804089 259.521515 
z
" clip-path="url(#p45b8be679f)" style="fill: #e61a1a; stroke: #262626; stroke-width: 1.5"/>
    <path d="M 274.878317 323.865106 
L 274.437475 320.516583 
L 273.144994 317.396257 
L 271.088952 314.716772 
L 268.409467 312.66073 
L 265.289141 311.368249 
L 261.940618 310.927407 
L 258.592095 311.368249 
L 255.471768 312.66073 
L 252.792283 314.716772 
L 250.736241 317.396257 
L 249.44376 320.516583 
L 249.002918 323.865106 
L 249.44376 327.213629 
L 250.736241 330.333956 
L 252.792283 333.013441 
L 255.471768 335.069483 
L 258.592095 336.361964 
L 261.940618 336.802806 
L 265.289141 336.361964 
L 268.409467 335.069483 
L 271.088952 333.013441 
L 273.144994 330.333956 
L 274.437475 327.213629 
L 274.878317 323.865106 
z
" clip-path="url(#p45b8be679f)" style="fill: #e61a1a; stroke: #262626; stroke-width: 1.5"/>
    <path d="M 256.315638 261.92795 
L 259.06171 262.808391 
L 261.690605 261.456991 
L 262.662351 258.665383 
L 261.407713 256.068852 
L 254.521938 250.084502 
L 251.775865 249.204061 
L 249.14697 250.55546 
L 248.175224 253.347069 
L 249.429862 255.9436 
z
" clip-path="url(#p45b8be679f)" style="fill: #666666; stroke: #262626"/>
    <path d="M 277.200353 257.260138 
L 276.710117 258.414676 
L 276.586046 261.165147 
L 276.900819 263.900363 
L 277.470046 265.018071 
L 311.899135 263.821194 
L 312.389376 262.666655 
L 312.513449 259.916183 
L 312.198674 257.180968 
L 311.629442 256.06326 
z
" clip-path="url(#p45b8be679f)" style="fill: #666666; stroke: #262626"/>
    <path d="M 265.821927 277.13475 
L 264.685118 276.657703 
L 261.940618 276.460104 
L 259.196117 276.657703 
L 258.059308 277.13475 
L 258.059308 311.711204 
L 259.196117 312.188256 
L 261.940618 312.385858 
L 264.685118 312.188256 
L 265.821927 311.711204 
z
" clip-path="url(#p45b8be679f)" style="fill: #666666; stroke: #262626"/>
    <path d="M 261.940618 199.483443 
L 323.86639 135.139851 
L 249.555463 126.528813 
z
" clip-path="url(#p45b8be679f)" style="fill: #6e9adc; fill-opacity: 0.25; stroke: #4c4c4c; stroke-width: 0.8"/>
    <path d="M 200.014846 263.827034 
L 138.089074 328.170626 
L 125.703919 255.215996 
z
" clip-path="url(#p45b8be679f)" style="fill: #6e9adc; fill-opacity: 0.25; stroke: #4c4c4c; stroke-width: 0.8"/>
    <path d="M 278.112742 261.674275 
L 277.56169 257.488621 
L 275.946088 253.588213 
L 273.376036 250.238856 
L 270.02668 247.668804 
L 266.126271 246.053202 
L 261.940618 245.502151 
L 257.754964 246.053202 
L 253.854556 247.668804 
L 250.505199 250.238856 
L 247.935147 253.588213 
L 246.319545 257.488621 
L 245.768494 261.674275 
L 246.319545 265.859928 
L 247.935147 269.760336 
L 250.505199 273.109693 
L 253.854556 275.679745 
L 257.754964 277.295347 
L 261.940618 277.846398 
L 266.126271 277.295347 
L 270.02668 275.679745 
L 273.376036 273.109693 
L 275.946088 269.760336 
L 277.56169 265.859928 
L 278.112742 261.674275 
z
" clip-path="url(#p45b8be679f)" style="fill: #3366e6; stroke: #262626; stroke-width: 1.5"/>
    <path d="M 323.86639 135.139851 
L 261.940618 75.101779 
L 249.555463 126.528813 
z
" clip-path="url(#p45b8be679f)" style="fill: #5f84bd; fill-opacity: 0.25; stroke: #4c4c4c; stroke-width: 0.8"/>
    <path d="M 261.940618 199.483443 
L 200.014846 139.44537 
L 249.555463 126.528813 
z
" clip-path="url(#p45b8be679f)" style="fill: #5d82ba; fill-opacity: 0.25; stroke: #4c4c4c; stroke-width: 0.8"/>
    <path d="M 138.089074 203.788962 
L 200.014846 263.827034 
L 125.703919 255.215996 
z
" clip-path="url(#p45b8be679f)" style="fill: #5f84bd; fill-opacity: 0.25; stroke: #4c4c4c; stroke-width: 0.8"/>
    <path d="M 76.163302 268.132553 
L 138.089074 328.170626 
L 125.703919 255.215996 
z
" clip-path="url(#p45b8be679f)" style="fill: #5d82ba; fill-opacity: 0.25; stroke: #4c4c4c; stroke-width: 0.8"/>
    <path d="M 86.419121 70.79626 
L 85.647648 64.936345 
L 83.385805 59.475773 
L 79.787733 54.786674 
L 75.098634 51.188601 
L 69.638062 48.926759 
L 63.778147 48.155286 
L 57.918232 48.926759 
L 52.45766 51.188601 
L 47.768561 54.786674 
L 44.170489 59.475773 
L 41.908646 64.936345 
L 41.137174 70.79626 
L 41.908646 76.656175 
L 44.170489 82.116746 
L 47.768561 86.805846 
L 52.45766 90.403918 
L 57.918232 92.665761 
L 63.778147 93.437233 
L 69.638062 92.665761 
L 75.098634 90.403918 
L 79.787733 86.805846 
L 83.385805 82.116746 
L 85.647648 76.656175 
L 86.419121 70.79626 
z
" clip-path="url(#p45b8be679f)" style="fill: #00cc33; stroke: #262626; stroke-width: 1.5"/>
    <path d="M 200.014846 139.44537 
L 261.940618 75.101779 
L 249.555463 126.528813 
z
" clip-path="url(#p45b8be679f)" style="fill: #4d6c9b; fill-opacity: 0.25; stroke: #4c4c4c; stroke-width: 0.8"/>
    <path d="M 336.804089 135.139851 
L 336.363247 131.791328 
L 335.070766 128.671002 
L 333.014724 125.991516 
L 330.335239 123.935475 
L 327.214913 122.642993 
L 323.86639 122.202152 
L 320.517867 122.642993 
L 317.39754 123.935475 
L 314.718055 125.991516 
L 312.662014 128.671002 
L 311.369532 131.791328 
L 310.92869 135.139851 
L 311.369532 138.488374 
L 312.662014 141.608701 
L 314.718055 144.288186 
L 317.39754 146.344227 
L 320.517867 147.636709 
L 323.86639 148.07755 
L 327.214913 147.636709 
L 330.335239 146.344227 
L 333.014724 144.288186 
L 335.070766 141.608701 
L 336.363247 138.488374 
L 336.804089 135.139851 
z
" clip-path="url(#p45b8be679f)" style="fill: #e61a1a; stroke: #262626; stroke-width: 1.5"/>
    <path d="M 258.059308 246.213799 
L 259.196117 246.690846 
L 261.940618 246.888445 
L 264.685118 246.690846 
L 265.821927 246.213799 
L 265.821927 211.637353 
L 264.685118 211.160312 
L 261.940618 210.962714 
L 259.196117 211.160312 
L 258.059308 211.637353 
z
" clip-path="url(#p45b8be679f)" style="fill: #666666; stroke: #262626"/>
    <path d="M 274.878317 199.483443 
L 274.437475 196.13492 
L 273.144994 193.014593 
L 271.088952 190.335108 
L 268.409467 188.279066 
L 265.289141 186.986585 
L 261.940618 186.545743 
L 258.592095 186.986585 
L 255.471768 188.279066 
L 252.792283 190.335108 
L 250.736241 193.014593 
L 249.44376 196.13492 
L 249.002918 199.483443 
L 249.44376 202.831966 
L 250.736241 205.952292 
L 252.792283 208.631777 
L 255.471768 210.687819 
L 258.592095 211.9803 
L 261.940618 212.421142 
L 265.289141 211.9803 
L 268.409467 210.687819 
L 271.088952 208.631777 
L 273.144994 205.952292 
L 274.437475 202.831966 
L 274.878317 199.483443 
z
" clip-path="url(#p45b8be679f)" style="fill: #e61a1a; stroke: #262626; stroke-width: 1.5"/>
    <path d="M 246.680882 266.088411 
L 247.171118 264.933873 
L 247.295189 262.183402 
L 246.980416 259.448186 
L 246.411189 258.330478 
L 211.982109 259.527355 
L 211.491879 260.681893 
L 211.36781 263.432365 
L 211.682581 266.167581 
L 212.251803 267.285288 
z
" clip-path="url(#p45b8be679f)" style="fill: #666666; stroke: #262626"/>
    <path d="M 138.089074 203.788962 
L 76.163302 268.132553 
L 125.703919 255.215996 
z
" clip-path="url(#p45b8be679f)" style="fill: #4d6c9b; fill-opacity: 0.25; stroke: #4c4c4c; stroke-width: 0.8"/>
    <path d="M 212.952545 263.827034 
L 212.511703 260.478511 
L 211.219222 257.358184 
L 209.16318 254.678699 
L 206.483695 252.622658 
L 203.363369 251.330176 
L 200.014846 250.889335 
L 196.666323 251.330176 
L 193.545996 252.622658 
L 190.866511 254.678699 
L 188.810469 257.358184 
L 187.517988 260.478511 
L 187.077146 263.827034 
L 187.517988 267.175557 
L 188.810469 270.295884 
L 190.866511 272.975369 
L 193.545996 275.03141 
L 196.666323 276.323892 
L 200.014846 276.764733 
L 203.363369 276.323892 
L 206.483695 275.03141 
L 209.16318 272.975369 
L 211.219222 270.295884 
L 212.511703 267.175557 
L 212.952545 263.827034 
z
" clip-path="url(#p45b8be679f)" style="fill: #e61a1a; stroke: #262626; stroke-width: 1.5"/>
    <path d="M 323.86639 259.521515 
L 261.940618 323.865106 
L 274.325772 272.438072 
z
" clip-path="url(#p45b8be679f)" style="fill: #4d6c9b; fill-opacity: 0.25; stroke: #4c4c4c; stroke-width: 0.8"/>
    <path d="M 151.026773 328.170626 
L 150.585931 324.822103 
L 149.29345 321.701776 
L 147.237408 319.022291 
L 144.557923 316.966249 
L 141.437597 315.673768 
L 138.089074 315.232926 
L 134.740551 315.673768 
L 131.620224 316.966249 
L 128.940739 319.022291 
L 126.884697 321.701776 
L 125.592216 324.822103 
L 125.151374 328.170626 
L 125.592216 331.519148 
L 126.884697 334.639475 
L 128.940739 337.31896 
L 131.620224 339.375002 
L 134.740551 340.667483 
L 138.089074 341.108325 
L 141.437597 340.667483 
L 144.557923 339.375002 
L 147.237408 337.31896 
L 149.29345 334.639475 
L 150.585931 331.519148 
L 151.026773 328.170626 
z
" clip-path="url(#p45b8be679f)" style="fill: #e61a1a; stroke: #262626; stroke-width: 1.5"/>
    <path d="M 256.315667 137.546311 
L 259.06174 138.426753 
L 261.690636 137.075354 
L 262.662382 134.283745 
L 261.407742 131.687213 
L 254.521915 125.702818 
L 251.775841 124.822376 
L 249.146946 126.173775 
L 248.1752 128.965384 
L 249.429839 131.561916 
z
" clip-path="url(#p45b8be679f)" style="fill: #666666; stroke: #262626"/>
    <path d="M 277.200353 132.878474 
L 276.710116 134.033012 
L 276.586045 136.783484 
L 276.900818 139.518699 
L 277.470046 140.636407 
L 311.899135 139.43953 
L 312.389377 138.284991 
L 312.51345 135.53452 
L 312.198675 132.799304 
L 311.629442 131.681597 
z
" clip-path="url(#p45b8be679f)" style="fill: #666666; stroke: #262626"/>
    <path d="M 258.059308 187.329532 
L 259.196117 187.806574 
L 261.940618 188.004171 
L 264.685118 187.806574 
L 265.821927 187.329532 
L 265.821927 152.753097 
L 264.685118 152.27606 
L 261.940618 152.078465 
L 259.196117 152.27606 
L 258.059308 152.753097 
z
" clip-path="url(#p45b8be679f)" style="fill: #666666; stroke: #262626"/>
    <path d="M 138.089074 203.788962 
L 200.014846 139.44537 
L 125.703919 130.834332 
z
" clip-path="url(#p45b8be679f)" style="fill: #6e9adc; fill-opacity: 0.25; stroke: #4c4c4c; stroke-width: 0.8"/>
    <path d="M 261.940618 199.483443 
L 323.86639 259.521515 
L 274.325772 272.438072 
z
" clip-path="url(#p45b8be679f)" style="fill: #5d82ba; fill-opacity: 0.25; stroke: #4c4c4c; stroke-width: 0.8"/>
    <path d="M 200.014846 263.827034 
L 261.940618 323.865106 
L 274.325772 272.438072 
z
" clip-path="url(#p45b8be679f)" style="fill: #5f84bd; fill-opacity: 0.25; stroke: #4c4c4c; stroke-width: 0.8"/>
    <path d="M 278.112742 137.292611 
L 277.56169 133.106957 
L 275.946088 129.206549 
L 273.376036 125.857192 
L 270.02668 123.287141 
L 266.126271 121.671539 
L 261.940618 121.120487 
L 257.754964 121.671539 
L 253.854556 123.287141 
L 250.505199 125.857192 
L 247.935147 129.206549 
L 246.319545 133.106957 
L 245.768494 137.292611 
L 246.319545 141.478264 
L 247.935147 145.378673 
L 250.505199 148.728029 
L 253.854556 151.298081 
L 257.754964 152.913683 
L 261.940618 153.464735 
L 266.126271 152.913683 
L 270.02668 151.298081 
L 273.376036 148.728029 
L 275.946088 145.378673 
L 277.56169 141.478264 
L 278.112742 137.292611 
z
" clip-path="url(#p45b8be679f)" style="fill: #3366e6; stroke: #262626; stroke-width: 1.5"/>
    <path d="M 132.464126 266.233497 
L 135.2102 267.113939 
L 137.839095 265.76254 
L 138.810841 262.970931 
L 137.556202 260.374399 
L 130.670369 254.389999 
L 127.924294 253.509557 
L 125.295399 254.860955 
L 124.323653 257.652564 
L 125.578293 260.249097 
z
" clip-path="url(#p45b8be679f)" style="fill: #666666; stroke: #262626"/>
    <path d="M 188.047582 268.126713 
L 188.537813 266.972175 
L 188.661881 264.221703 
L 188.347111 261.486488 
L 187.777889 260.36878 
L 153.348821 261.565656 
L 152.858595 262.720194 
L 152.734528 265.470666 
L 153.049297 268.205882 
L 153.618514 269.32359 
z
" clip-path="url(#p45b8be679f)" style="fill: #666666; stroke: #262626"/>
    <path d="M 141.970383 281.440269 
L 140.833574 280.963222 
L 138.089074 280.765622 
L 135.344573 280.963222 
L 134.207764 281.440269 
L 134.207764 316.016723 
L 135.344573 316.493776 
L 138.089074 316.691378 
L 140.833574 316.493776 
L 141.970383 316.016723 
z
" clip-path="url(#p45b8be679f)" style="fill: #666666; stroke: #262626"/>
    <path d="M 154.261198 265.979794 
L 153.710146 261.79414 
L 152.094544 257.893732 
L 149.524492 254.544375 
L 146.175136 251.974323 
L 142.274727 250.358721 
L 138.089074 249.80767 
L 133.90342 250.358721 
L 130.003012 251.974323 
L 126.653655 254.544375 
L 124.083603 257.893732 
L 122.468001 261.79414 
L 121.91695 265.979794 
L 122.468001 270.165447 
L 124.083603 274.065856 
L 126.653655 277.415212 
L 130.003012 279.985264 
L 133.90342 281.600866 
L 138.089074 282.151918 
L 142.274727 281.600866 
L 146.175136 279.985264 
L 149.524492 277.415212 
L 152.094544 274.065856 
L 153.710146 270.165447 
L 154.261198 265.979794 
z
" clip-path="url(#p45b8be679f)" style="fill: #3366e6; stroke: #262626; stroke-width: 1.5"/>
    <path d="M 258.059308 121.832125 
L 259.196117 122.309161 
L 261.940618 122.506756 
L 264.685118 122.309161 
L 265.821927 121.832125 
L 265.821927 87.255698 
L 264.685118 86.778666 
L 261.940618 86.581073 
L 259.196117 86.778666 
L 258.059308 87.255698 
z
" clip-path="url(#p45b8be679f)" style="fill: #666666; stroke: #262626"/>
    <path d="M 200.014846 139.44537 
L 138.089074 79.407298 
L 125.703919 130.834332 
z
" clip-path="url(#p45b8be679f)" style="fill: #5f84bd; fill-opacity: 0.25; stroke: #4c4c4c; stroke-width: 0.8"/>
    <path d="M 138.089074 203.788962 
L 76.163302 143.750889 
L 125.703919 130.834332 
z
" clip-path="url(#p45b8be679f)" style="fill: #5d82ba; fill-opacity: 0.25; stroke: #4c4c4c; stroke-width: 0.8"/>
    <path d="M 261.940618 199.483443 
L 200.014846 263.827034 
L 274.325772 272.438072 
z
" clip-path="url(#p45b8be679f)" style="fill: #6e9adc; fill-opacity: 0.25; stroke: #4c4c4c; stroke-width: 0.8"/>
    <path d="M 274.878317 75.101779 
L 274.437475 71.753256 
L 273.144994 68.632929 
L 271.088952 65.953444 
L 268.409467 63.897403 
L 265.289141 62.604921 
L 261.940618 62.16408 
L 258.592095 62.604921 
L 255.471768 63.897403 
L 252.792283 65.953444 
L 250.736241 68.632929 
L 249.44376 71.753256 
L 249.002918 75.101779 
L 249.44376 78.450302 
L 250.736241 81.570628 
L 252.792283 84.250114 
L 255.471768 86.306155 
L 258.592095 87.598637 
L 261.940618 88.039478 
L 265.289141 87.598637 
L 268.409467 86.306155 
L 271.088952 84.250114 
L 273.144994 81.570628 
L 274.437475 78.450302 
L 274.878317 75.101779 
z
" clip-path="url(#p45b8be679f)" style="fill: #e61a1a; stroke: #262626; stroke-width: 1.5"/>
    <path d="M 246.680883 141.706748 
L 247.171119 140.552209 
L 247.29519 137.801738 
L 246.980417 135.066522 
L 246.411189 133.948814 
L 211.982109 135.145691 
L 211.491878 136.30023 
L 211.367809 139.050701 
L 211.68258 141.785917 
L 212.251802 142.903625 
z
" clip-path="url(#p45b8be679f)" style="fill: #666666; stroke: #262626"/>
    <path d="M 76.163302 143.750889 
L 138.089074 79.407298 
L 125.703919 130.834332 
z
" clip-path="url(#p45b8be679f)" style="fill: #4d6c9b; fill-opacity: 0.25; stroke: #4c4c4c; stroke-width: 0.8"/>
    <path d="M 212.952545 139.44537 
L 212.511703 136.096847 
L 211.219222 132.976521 
L 209.16318 130.297035 
L 206.483695 128.240994 
L 203.363369 126.948513 
L 200.014846 126.507671 
L 196.666323 126.948513 
L 193.545996 128.240994 
L 190.866511 130.297035 
L 188.810469 132.976521 
L 187.517988 136.096847 
L 187.077146 139.44537 
L 187.517988 142.793893 
L 188.810469 145.91422 
L 190.866511 148.593705 
L 193.545996 150.649746 
L 196.666323 151.942228 
L 200.014846 152.383069 
L 203.363369 151.942228 
L 206.483695 150.649746 
L 209.16318 148.593705 
L 211.219222 145.91422 
L 212.511703 142.793893 
L 212.952545 139.44537 
z
" clip-path="url(#p45b8be679f)" style="fill: #e61a1a; stroke: #262626; stroke-width: 1.5"/>
    <path d="M 134.207764 250.519318 
L 135.344573 250.996366 
L 138.089074 251.193965 
L 140.833574 250.996366 
L 141.970383 250.519318 
L 141.970383 215.942872 
L 140.833574 215.46583 
L 138.089074 215.268233 
L 135.344573 215.46583 
L 134.207764 215.942872 
z
" clip-path="url(#p45b8be679f)" style="fill: #666666; stroke: #262626"/>
    <path d="M 261.940618 199.483443 
L 323.86639 135.139851 
L 274.325772 148.056409 
z
" clip-path="url(#p45b8be679f)" style="fill: #4d6c9b; fill-opacity: 0.25; stroke: #4c4c4c; stroke-width: 0.8"/>
    <path d="M 151.026773 203.788962 
L 150.585931 200.440439 
L 149.29345 197.320112 
L 147.237408 194.640627 
L 144.557923 192.584586 
L 141.437597 191.292104 
L 138.089074 190.851263 
L 134.740551 191.292104 
L 131.620224 192.584586 
L 128.940739 194.640627 
L 126.884697 197.320112 
L 125.592216 200.440439 
L 125.151374 203.788962 
L 125.592216 207.137485 
L 126.884697 210.257811 
L 128.940739 212.937297 
L 131.620224 214.993338 
L 134.740551 216.285819 
L 138.089074 216.726661 
L 141.437597 216.285819 
L 144.557923 214.993338 
L 147.237408 212.937297 
L 149.29345 210.257811 
L 150.585931 207.137485 
L 151.026773 203.788962 
z
" clip-path="url(#p45b8be679f)" style="fill: #e61a1a; stroke: #262626; stroke-width: 1.5"/>
    <path d="M 122.829327 270.393931 
L 123.319552 269.239393 
L 123.443619 266.488922 
L 123.12885 263.753706 
L 122.559633 262.635998 
L 88.130574 263.832874 
L 87.640354 264.987412 
L 87.516289 267.737883 
L 87.831056 270.473099 
L 88.400268 271.590807 
z
" clip-path="url(#p45b8be679f)" style="fill: #666666; stroke: #262626"/>
    <path d="M 89.101001 268.132553 
L 88.660159 264.78403 
L 87.367678 261.663704 
L 85.311636 258.984218 
L 82.632151 256.928177 
L 79.511824 255.635695 
L 76.163302 255.194854 
L 72.814779 255.635695 
L 69.694452 256.928177 
L 67.014967 258.984218 
L 64.958925 261.663704 
L 63.666444 264.78403 
L 63.225602 268.132553 
L 63.666444 271.481076 
L 64.958925 274.601403 
L 67.014967 277.280888 
L 69.694452 279.336929 
L 72.814779 280.629411 
L 76.163302 281.070252 
L 79.511824 280.629411 
L 82.632151 279.336929 
L 85.311636 277.280888 
L 87.367678 274.601403 
L 88.660159 271.481076 
L 89.101001 268.132553 
z
" clip-path="url(#p45b8be679f)" style="fill: #e61a1a; stroke: #262626; stroke-width: 1.5"/>
    <path d="M 200.014846 263.827034 
L 138.089074 328.170626 
L 150.474228 276.743591 
z
" clip-path="url(#p45b8be679f)" style="fill: #4d6c9b; fill-opacity: 0.25; stroke: #4c4c4c; stroke-width: 0.8"/>
    <path d="M 358.892518 332.476145 
L 358.121045 326.61623 
L 355.859202 321.155658 
L 352.26113 316.466559 
L 347.572031 312.868486 
L 342.111459 310.606644 
L 336.251544 309.835171 
L 330.391629 310.606644 
L 324.931057 312.868486 
L 320.241958 316.466559 
L 316.643886 321.155658 
L 314.382043 326.61623 
L 313.610571 332.476145 
L 314.382043 338.33606 
L 316.643886 343.796631 
L 320.241958 348.485731 
L 324.931057 352.083803 
L 330.391629 354.345646 
L 336.251544 355.117118 
L 342.111459 354.345646 
L 347.572031 352.083803 
L 352.26113 348.485731 
L 355.859202 343.796631 
L 358.121045 338.33606 
L 358.892518 332.476145 
z
" clip-path="url(#p45b8be679f)" style="fill: #00cc33; stroke: #262626; stroke-width: 1.5"/>
    <path d="M 132.464155 141.851858 
L 135.21023 142.732301 
L 137.839126 141.380903 
L 138.810871 138.589294 
L 137.55623 135.99276 
L 130.670346 130.008316 
L 127.92427 129.127872 
L 125.295374 130.47927 
L 124.323629 133.27088 
L 125.57827 135.867413 
z
" clip-path="url(#p45b8be679f)" style="fill: #666666; stroke: #262626"/>
    <path d="M 153.34882 137.183993 
L 152.858594 138.338531 
L 152.734527 141.089002 
L 153.049296 143.824218 
L 153.618514 144.941926 
L 188.047582 143.745049 
L 188.537813 142.590511 
L 188.661882 139.84004 
L 188.347111 137.104824 
L 187.777889 135.987116 
z
" clip-path="url(#p45b8be679f)" style="fill: #666666; stroke: #262626"/>
    <path d="M 141.970383 157.058616 
L 140.833574 156.581579 
L 138.089074 156.383983 
L 135.344573 156.581579 
L 134.207764 157.058616 
L 134.207764 191.635051 
L 135.344573 192.112093 
L 138.089074 192.309691 
L 140.833574 192.112093 
L 141.970383 191.635051 
z
" clip-path="url(#p45b8be679f)" style="fill: #666666; stroke: #262626"/>
    <path d="M 323.86639 135.139851 
L 261.940618 75.101779 
L 274.325772 148.056409 
z
" clip-path="url(#p45b8be679f)" style="fill: #5d82ba; fill-opacity: 0.25; stroke: #4c4c4c; stroke-width: 0.8"/>
    <path d="M 261.940618 199.483443 
L 200.014846 139.44537 
L 274.325772 148.056409 
z
" clip-path="url(#p45b8be679f)" style="fill: #5f84bd; fill-opacity: 0.25; stroke: #4c4c4c; stroke-width: 0.8"/>
    <path d="M 138.089074 203.788962 
L 200.014846 263.827034 
L 150.474228 276.743591 
z
" clip-path="url(#p45b8be679f)" style="fill: #5d82ba; fill-opacity: 0.25; stroke: #4c4c4c; stroke-width: 0.8"/>
    <path d="M 76.163302 268.132553 
L 138.089074 328.170626 
L 150.474228 276.743591 
z
" clip-path="url(#p45b8be679f)" style="fill: #5f84bd; fill-opacity: 0.25; stroke: #4c4c4c; stroke-width: 0.8"/>
    <path d="M 154.261198 141.59813 
L 153.710146 137.412476 
L 152.094544 133.512068 
L 149.524492 130.162711 
L 146.175136 127.59266 
L 142.274727 125.977058 
L 138.089074 125.426006 
L 133.90342 125.977058 
L 130.003012 127.59266 
L 126.653655 130.162711 
L 124.083603 133.512068 
L 122.468001 137.412476 
L 121.91695 141.59813 
L 122.468001 145.783784 
L 124.083603 149.684192 
L 126.653655 153.033548 
L 130.003012 155.6036 
L 133.90342 157.219202 
L 138.089074 157.770254 
L 142.274727 157.219202 
L 146.175136 155.6036 
L 149.524492 153.033548 
L 152.094544 149.684192 
L 153.710146 145.783784 
L 154.261198 141.59813 
z
" clip-path="url(#p45b8be679f)" style="fill: #3366e6; stroke: #262626; stroke-width: 1.5"/>
    <path d="M 134.207764 126.137644 
L 135.344573 126.614681 
L 138.089074 126.812276 
L 140.833574 126.614681 
L 141.970383 126.137644 
L 141.970383 91.561217 
L 140.833574 91.084185 
L 138.089074 90.886592 
L 135.344573 91.084185 
L 134.207764 91.561217 
z
" clip-path="url(#p45b8be679f)" style="fill: #666666; stroke: #262626"/>
    <path d="M 200.014846 139.44537 
L 261.940618 75.101779 
L 274.325772 148.056409 
z
" clip-path="url(#p45b8be679f)" style="fill: #6e9adc; fill-opacity: 0.25; stroke: #4c4c4c; stroke-width: 0.8"/>
    <path d="M 138.089074 203.788962 
L 76.163302 268.132553 
L 150.474228 276.743591 
z
" clip-path="url(#p45b8be679f)" style="fill: #6e9adc; fill-opacity: 0.25; stroke: #4c4c4c; stroke-width: 0.8"/>
    <path d="M 151.026773 79.407298 
L 150.585931 76.058775 
L 149.29345 72.938448 
L 147.237408 70.258963 
L 144.557923 68.202922 
L 141.437597 66.91044 
L 138.089074 66.469599 
L 134.740551 66.91044 
L 131.620224 68.202922 
L 128.940739 70.258963 
L 126.884697 72.938448 
L 125.592216 76.058775 
L 125.151374 79.407298 
L 125.592216 82.755821 
L 126.884697 85.876148 
L 128.940739 88.555633 
L 131.620224 90.611674 
L 134.740551 91.904156 
L 138.089074 92.344997 
L 141.437597 91.904156 
L 144.557923 90.611674 
L 147.237408 88.555633 
L 149.29345 85.876148 
L 150.585931 82.755821 
L 151.026773 79.407298 
z
" clip-path="url(#p45b8be679f)" style="fill: #e61a1a; stroke: #262626; stroke-width: 1.5"/>
    <path d="M 122.829327 146.012267 
L 123.319553 144.857729 
L 123.44362 142.107258 
L 123.128851 139.372042 
L 122.559634 138.254334 
L 88.130574 139.45121 
L 87.640353 140.605748 
L 87.516289 143.356219 
L 87.831055 146.091435 
L 88.400267 147.209143 
z
" clip-path="url(#p45b8be679f)" style="fill: #666666; stroke: #262626"/>
    <path d="M 89.101001 143.750889 
L 88.660159 140.402366 
L 87.367678 137.28204 
L 85.311636 134.602555 
L 82.632151 132.546513 
L 79.511824 131.254032 
L 76.163302 130.81319 
L 72.814779 131.254032 
L 69.694452 132.546513 
L 67.014967 134.602555 
L 64.958925 137.28204 
L 63.666444 140.402366 
L 63.225602 143.750889 
L 63.666444 147.099412 
L 64.958925 150.219739 
L 67.014967 152.899224 
L 69.694452 154.955266 
L 72.814779 156.247747 
L 76.163302 156.688589 
L 79.511824 156.247747 
L 82.632151 154.955266 
L 85.311636 152.899224 
L 87.367678 150.219739 
L 88.660159 147.099412 
L 89.101001 143.750889 
z
" clip-path="url(#p45b8be679f)" style="fill: #e61a1a; stroke: #262626; stroke-width: 1.5"/>
    <path d="M 138.089074 203.788962 
L 200.014846 139.44537 
L 150.474228 152.361928 
z
" clip-path="url(#p45b8be679f)" style="fill: #4d6c9b; fill-opacity: 0.25; stroke: #4c4c4c; stroke-width: 0.8"/>
    <path d="M 358.892518 208.094481 
L 358.121045 202.234566 
L 355.859202 196.773994 
L 352.26113 192.084895 
L 347.572031 188.486823 
L 342.111459 186.22498 
L 336.251544 185.453507 
L 330.391629 186.22498 
L 324.931057 188.486823 
L 320.241958 192.084895 
L 316.643886 196.773994 
L 314.382043 202.234566 
L 313.610571 208.094481 
L 314.382043 213.954396 
L 316.643886 219.414968 
L 320.241958 224.104067 
L 324.931057 227.702139 
L 330.391629 229.963982 
L 336.251544 230.735454 
L 342.111459 229.963982 
L 347.572031 227.702139 
L 352.26113 224.104067 
L 355.859202 219.414968 
L 358.121045 213.954396 
L 358.892518 208.094481 
z
" clip-path="url(#p45b8be679f)" style="fill: #00cc33; stroke: #262626; stroke-width: 1.5"/>
    <path d="M 267.565597 261.420599 
L 264.819525 260.540158 
L 262.19063 261.891558 
L 261.218884 264.683166 
L 262.473522 267.279697 
L 269.359288 273.264039 
L 272.10536 274.14448 
L 274.734255 272.79308 
L 275.706002 270.001472 
L 274.451364 267.404941 
z
" clip-path="url(#p45b8be679f)" style="fill: #666666; stroke: #262626"/>
    <path d="M 287.263471 272.438072 
L 286.82263 269.089549 
L 285.530148 265.969223 
L 283.474107 263.289738 
L 280.794622 261.233696 
L 277.674295 259.941215 
L 274.325772 259.500373 
L 270.977249 259.941215 
L 267.856922 261.233696 
L 265.177437 263.289738 
L 263.121396 265.969223 
L 261.828914 269.089549 
L 261.388073 272.438072 
L 261.828914 275.786595 
L 263.121396 278.906922 
L 265.177437 281.586407 
L 267.856922 283.642448 
L 270.977249 284.93493 
L 274.325772 285.375771 
L 277.674295 284.93493 
L 280.794622 283.642448 
L 283.474107 281.586407 
L 285.530148 278.906922 
L 286.82263 275.786595 
L 287.263471 272.438072 
z
" clip-path="url(#p45b8be679f)" style="fill: #e61a1a; stroke: #262626; stroke-width: 1.5"/>
    <path d="M 235.040974 336.781664 
L 234.269501 330.921749 
L 232.007658 325.461177 
L 228.409586 320.772078 
L 223.720487 317.174006 
L 218.259915 314.912163 
L 212.4 314.14069 
L 206.540085 314.912163 
L 201.079513 317.174006 
L 196.390414 320.772078 
L 192.792342 325.461177 
L 190.530499 330.921749 
L 189.759026 336.781664 
L 190.530499 342.641579 
L 192.792342 348.102151 
L 196.390414 352.79125 
L 201.079513 356.389322 
L 206.540085 358.651165 
L 212.4 359.422637 
L 218.259915 358.651165 
L 223.720487 356.389322 
L 228.409586 352.79125 
L 232.007658 348.102151 
L 234.269501 342.641579 
L 235.040974 336.781664 
z
" clip-path="url(#p45b8be679f)" style="fill: #00cc33; stroke: #262626; stroke-width: 1.5"/>
    <path d="M 200.014846 139.44537 
L 138.089074 79.407298 
L 150.474228 152.361928 
z
" clip-path="url(#p45b8be679f)" style="fill: #5d82ba; fill-opacity: 0.25; stroke: #4c4c4c; stroke-width: 0.8"/>
    <path d="M 138.089074 203.788962 
L 76.163302 143.750889 
L 150.474228 152.361928 
z
" clip-path="url(#p45b8be679f)" style="fill: #5f84bd; fill-opacity: 0.25; stroke: #4c4c4c; stroke-width: 0.8"/>
    <path d="M 76.163302 143.750889 
L 138.089074 79.407298 
L 150.474228 152.361928 
z
" clip-path="url(#p45b8be679f)" style="fill: #6e9adc; fill-opacity: 0.25; stroke: #4c4c4c; stroke-width: 0.8"/>
    <path d="M 358.892518 83.712817 
L 358.121045 77.852902 
L 355.859202 72.39233 
L 352.26113 67.703231 
L 347.572031 64.105159 
L 342.111459 61.843316 
L 336.251544 61.071844 
L 330.391629 61.843316 
L 324.931057 64.105159 
L 320.241958 67.703231 
L 316.643886 72.39233 
L 314.382043 77.852902 
L 313.610571 83.712817 
L 314.382043 89.572732 
L 316.643886 95.033304 
L 320.241958 99.722403 
L 324.931057 103.320475 
L 330.391629 105.582318 
L 336.251544 106.353791 
L 342.111459 105.582318 
L 347.572031 103.320475 
L 352.26113 99.722403 
L 355.859202 95.033304 
L 358.121045 89.572732 
L 358.892518 83.712817 
z
" clip-path="url(#p45b8be679f)" style="fill: #00cc33; stroke: #262626; stroke-width: 1.5"/>
    <path d="M 267.565569 137.03891 
L 264.819495 136.158468 
L 262.1906 137.509867 
L 261.218854 140.301476 
L 262.473493 142.898008 
L 269.359311 148.882395 
L 272.105384 149.762837 
L 274.73428 148.411438 
L 275.706026 145.619829 
L 274.451387 143.023297 
z
" clip-path="url(#p45b8be679f)" style="fill: #666666; stroke: #262626"/>
    <path d="M 287.263471 148.056409 
L 286.82263 144.707886 
L 285.530148 141.587559 
L 283.474107 138.908074 
L 280.794622 136.852032 
L 277.674295 135.559551 
L 274.325772 135.118709 
L 270.977249 135.559551 
L 267.856922 136.852032 
L 265.177437 138.908074 
L 263.121396 141.587559 
L 261.828914 144.707886 
L 261.388073 148.056409 
L 261.828914 151.404931 
L 263.121396 154.525258 
L 265.177437 157.204743 
L 267.856922 159.260785 
L 270.977249 160.553266 
L 274.325772 160.994108 
L 277.674295 160.553266 
L 280.794622 159.260785 
L 283.474107 157.204743 
L 285.530148 154.525258 
L 286.82263 151.404931 
L 287.263471 148.056409 
z
" clip-path="url(#p45b8be679f)" style="fill: #e61a1a; stroke: #262626; stroke-width: 1.5"/>
    <path d="M 235.040974 212.4 
L 234.269501 206.540085 
L 232.007658 201.079513 
L 228.409586 196.390414 
L 223.720487 192.792342 
L 218.259915 190.530499 
L 212.4 189.759026 
L 206.540085 190.530499 
L 201.079513 192.792342 
L 196.390414 196.390414 
L 192.792342 201.079513 
L 190.530499 206.540085 
L 189.759026 212.4 
L 190.530499 218.259915 
L 192.792342 223.720487 
L 196.390414 228.409586 
L 201.079513 232.007658 
L 206.540085 234.269501 
L 212.4 235.040974 
L 218.259915 234.269501 
L 223.720487 232.007658 
L 228.409586 228.409586 
L 232.007658 223.720487 
L 234.269501 218.259915 
L 235.040974 212.4 
z
" clip-path="url(#p45b8be679f)" style="fill: #00cc33; stroke: #262626; stroke-width: 1.5"/>
    <path d="M 143.714021 265.726091 
L 140.967948 264.845648 
L 138.339052 266.197047 
L 137.367306 268.988656 
L 138.621946 271.585188 
L 145.50777 277.56958 
L 148.253843 278.450022 
L 150.882738 277.098623 
L 151.854484 274.307014 
L 150.599845 271.710482 
z
" clip-path="url(#p45b8be679f)" style="fill: #666666; stroke: #262626"/>
    <path d="M 163.411927 276.743591 
L 162.971086 273.395069 
L 161.678604 270.274742 
L 159.622563 267.595257 
L 156.943078 265.539215 
L 153.822751 264.246734 
L 150.474228 263.805892 
L 147.125705 264.246734 
L 144.005378 265.539215 
L 141.325893 267.595257 
L 139.269852 270.274742 
L 137.97737 273.395069 
L 137.536529 276.743591 
L 137.97737 280.092114 
L 139.269852 283.212441 
L 141.325893 285.891926 
L 144.005378 287.947968 
L 147.125705 289.240449 
L 150.474228 289.681291 
L 153.822751 289.240449 
L 156.943078 287.947968 
L 159.622563 285.891926 
L 161.678604 283.212441 
L 162.971086 280.092114 
L 163.411927 276.743591 
z
" clip-path="url(#p45b8be679f)" style="fill: #e61a1a; stroke: #262626; stroke-width: 1.5"/>
    <path d="M 111.189429 341.087183 
L 110.417957 335.227268 
L 108.156114 329.766696 
L 104.558042 325.077597 
L 99.868943 321.479525 
L 94.408371 319.217682 
L 88.548456 318.446209 
L 82.688541 319.217682 
L 77.227969 321.479525 
L 72.53887 325.077597 
L 68.940798 329.766696 
L 66.678955 335.227268 
L 65.907482 341.087183 
L 66.678955 346.947098 
L 68.940798 352.40767 
L 72.53887 357.096769 
L 77.227969 360.694841 
L 82.688541 362.956684 
L 88.548456 363.728156 
L 94.408371 362.956684 
L 99.868943 360.694841 
L 104.558042 357.096769 
L 108.156114 352.40767 
L 110.417957 346.947098 
L 111.189429 341.087183 
z
" clip-path="url(#p45b8be679f)" style="fill: #00cc33; stroke: #262626; stroke-width: 1.5"/>
    <path d="M 348.636698 281.049111 
L 286.710926 345.392702 
L 274.325772 272.438072 
z
" clip-path="url(#p45b8be679f)" style="fill: #6e9adc; fill-opacity: 0.25; stroke: #4c4c4c; stroke-width: 0.8"/>
    <path d="M 286.710926 221.011038 
L 348.636698 281.049111 
L 274.325772 272.438072 
z
" clip-path="url(#p45b8be679f)" style="fill: #5f84bd; fill-opacity: 0.25; stroke: #4c4c4c; stroke-width: 0.8"/>
    <path d="M 224.785154 285.35463 
L 286.710926 345.392702 
L 274.325772 272.438072 
z
" clip-path="url(#p45b8be679f)" style="fill: #5d82ba; fill-opacity: 0.25; stroke: #4c4c4c; stroke-width: 0.8"/>
    <path d="M 235.040974 88.018336 
L 234.269501 82.158421 
L 232.007658 76.697849 
L 228.409586 72.00875 
L 223.720487 68.410678 
L 218.259915 66.148835 
L 212.4 65.377363 
L 206.540085 66.148835 
L 201.079513 68.410678 
L 196.390414 72.00875 
L 192.792342 76.697849 
L 190.530499 82.158421 
L 189.759026 88.018336 
L 190.530499 93.878251 
L 192.792342 99.338823 
L 196.390414 104.027922 
L 201.079513 107.625994 
L 206.540085 109.887837 
L 212.4 110.65931 
L 218.259915 109.887837 
L 223.720487 107.625994 
L 228.409586 104.027922 
L 232.007658 99.338823 
L 234.269501 93.878251 
L 235.040974 88.018336 
z
" clip-path="url(#p45b8be679f)" style="fill: #00cc33; stroke: #262626; stroke-width: 1.5"/>
    <path d="M 143.713992 141.344402 
L 140.967917 140.463958 
L 138.339021 141.815357 
L 137.367276 144.606966 
L 138.621917 147.203499 
L 145.507792 153.187936 
L 148.253867 154.068379 
L 150.882763 152.716981 
L 151.854508 149.925372 
L 150.599868 147.328838 
z
" clip-path="url(#p45b8be679f)" style="fill: #666666; stroke: #262626"/>
    <path d="M 163.411927 152.361928 
L 162.971086 149.013405 
L 161.678604 145.893078 
L 159.622563 143.213593 
L 156.943078 141.157552 
L 153.822751 139.86507 
L 150.474228 139.424229 
L 147.125705 139.86507 
L 144.005378 141.157552 
L 141.325893 143.213593 
L 139.269852 145.893078 
L 137.97737 149.013405 
L 137.536529 152.361928 
L 137.97737 155.710451 
L 139.269852 158.830777 
L 141.325893 161.510262 
L 144.005378 163.566304 
L 147.125705 164.858785 
L 150.474228 165.299627 
L 153.822751 164.858785 
L 156.943078 163.566304 
L 159.622563 161.510262 
L 161.678604 158.830777 
L 162.971086 155.710451 
L 163.411927 152.361928 
z
" clip-path="url(#p45b8be679f)" style="fill: #e61a1a; stroke: #262626; stroke-width: 1.5"/>
    <path d="M 111.189429 216.705519 
L 110.417957 210.845604 
L 108.156114 205.385032 
L 104.558042 200.695933 
L 99.868943 197.097861 
L 94.408371 194.836018 
L 88.548456 194.064546 
L 82.688541 194.836018 
L 77.227969 197.097861 
L 72.53887 200.695933 
L 68.940798 205.385032 
L 66.678955 210.845604 
L 65.907482 216.705519 
L 66.678955 222.565434 
L 68.940798 228.026006 
L 72.53887 232.715105 
L 77.227969 236.313177 
L 82.688541 238.57502 
L 88.548456 239.346493 
L 94.408371 238.57502 
L 99.868943 236.313177 
L 104.558042 232.715105 
L 108.156114 228.026006 
L 110.417957 222.565434 
L 111.189429 216.705519 
z
" clip-path="url(#p45b8be679f)" style="fill: #00cc33; stroke: #262626; stroke-width: 1.5"/>
    <path d="M 286.710926 221.011038 
L 224.785154 285.35463 
L 274.325772 272.438072 
z
" clip-path="url(#p45b8be679f)" style="fill: #4d6c9b; fill-opacity: 0.25; stroke: #4c4c4c; stroke-width: 0.8"/>
    <path d="M 361.574398 281.049111 
L 361.133556 277.700588 
L 359.841075 274.580261 
L 357.785033 271.900776 
L 355.105548 269.844734 
L 351.985221 268.552253 
L 348.636698 268.111411 
L 345.288176 268.552253 
L 342.167849 269.844734 
L 339.488364 271.900776 
L 337.432322 274.580261 
L 336.139841 277.700588 
L 335.698999 281.049111 
L 336.139841 284.397634 
L 337.432322 287.51796 
L 339.488364 290.197445 
L 342.167849 292.253487 
L 345.288176 293.545968 
L 348.636698 293.98681 
L 351.985221 293.545968 
L 355.105548 292.253487 
L 357.785033 290.197445 
L 359.841075 287.51796 
L 361.133556 284.397634 
L 361.574398 281.049111 
z
" clip-path="url(#p45b8be679f)" style="fill: #e61a1a; stroke: #262626; stroke-width: 1.5"/>
    <path d="M 299.648626 345.392702 
L 299.207784 342.044179 
L 297.915303 338.923852 
L 295.859261 336.244367 
L 293.179776 334.188326 
L 290.059449 332.895844 
L 286.710926 332.455003 
L 283.362403 332.895844 
L 280.242077 334.188326 
L 277.562592 336.244367 
L 275.50655 338.923852 
L 274.214069 342.044179 
L 273.773227 345.392702 
L 274.214069 348.741225 
L 275.50655 351.861552 
L 277.562592 354.541037 
L 280.242077 356.597078 
L 283.362403 357.88956 
L 286.710926 358.330401 
L 290.059449 357.88956 
L 293.179776 356.597078 
L 295.859261 354.541037 
L 297.915303 351.861552 
L 299.207784 348.741225 
L 299.648626 345.392702 
z
" clip-path="url(#p45b8be679f)" style="fill: #e61a1a; stroke: #262626; stroke-width: 1.5"/>
    <path d="M 279.292256 271.612106 
L 276.546184 270.731665 
L 273.917289 272.083064 
L 272.945542 274.874673 
L 274.20018 277.471203 
L 281.085935 283.455535 
L 283.832007 284.335976 
L 286.460901 282.984576 
L 287.432648 280.192968 
L 286.178011 277.596437 
z
" clip-path="url(#p45b8be679f)" style="fill: #666666; stroke: #262626"/>
    <path d="M 301.97066 278.787733 
L 301.480422 279.942272 
L 301.35635 282.692743 
L 301.671124 285.427959 
L 302.240353 286.545667 
L 336.669446 285.348789 
L 337.159689 284.19425 
L 337.283763 281.443779 
L 336.968987 278.708563 
L 336.399752 277.590856 
z
" clip-path="url(#p45b8be679f)" style="fill: #666666; stroke: #262626"/>
    <path d="M 290.592236 298.662344 
L 289.455427 298.185295 
L 286.710926 297.987695 
L 283.966426 298.185295 
L 282.829617 298.662344 
L 282.829617 333.238801 
L 283.966426 333.715855 
L 286.710926 333.913457 
L 289.455427 333.715855 
L 290.592236 333.238801 
z
" clip-path="url(#p45b8be679f)" style="fill: #666666; stroke: #262626"/>
    <path d="M 286.710926 221.011038 
L 348.636698 156.667447 
L 274.325772 148.056409 
z
" clip-path="url(#p45b8be679f)" style="fill: #6e9adc; fill-opacity: 0.25; stroke: #4c4c4c; stroke-width: 0.8"/>
    <path d="M 224.785154 285.35463 
L 162.859382 349.698221 
L 150.474228 276.743591 
z
" clip-path="url(#p45b8be679f)" style="fill: #6e9adc; fill-opacity: 0.25; stroke: #4c4c4c; stroke-width: 0.8"/>
    <path d="M 302.88305 283.20187 
L 302.331999 279.016216 
L 300.716397 275.115808 
L 298.146345 271.766452 
L 294.796988 269.1964 
L 290.89658 267.580798 
L 286.710926 267.029746 
L 282.525273 267.580798 
L 278.624864 269.1964 
L 275.275508 271.766452 
L 272.705456 275.115808 
L 271.089854 279.016216 
L 270.538802 283.20187 
L 271.089854 287.387524 
L 272.705456 291.287932 
L 275.275508 294.637289 
L 278.624864 297.20734 
L 282.525273 298.822942 
L 286.710926 299.373994 
L 290.89658 298.822942 
L 294.796988 297.20734 
L 298.146345 294.637289 
L 300.716397 291.287932 
L 302.331999 287.387524 
L 302.88305 283.20187 
z
" clip-path="url(#p45b8be679f)" style="fill: #3366e6; stroke: #262626; stroke-width: 1.5"/>
    <path d="M 348.636698 156.667447 
L 286.710926 96.629374 
L 274.325772 148.056409 
z
" clip-path="url(#p45b8be679f)" style="fill: #5f84bd; fill-opacity: 0.25; stroke: #4c4c4c; stroke-width: 0.8"/>
    <path d="M 286.710926 221.011038 
L 224.785154 160.972966 
L 274.325772 148.056409 
z
" clip-path="url(#p45b8be679f)" style="fill: #5d82ba; fill-opacity: 0.25; stroke: #4c4c4c; stroke-width: 0.8"/>
    <path d="M 162.859382 225.316557 
L 224.785154 285.35463 
L 150.474228 276.743591 
z
" clip-path="url(#p45b8be679f)" style="fill: #5f84bd; fill-opacity: 0.25; stroke: #4c4c4c; stroke-width: 0.8"/>
    <path d="M 100.93361 289.660149 
L 162.859382 349.698221 
L 150.474228 276.743591 
z
" clip-path="url(#p45b8be679f)" style="fill: #5d82ba; fill-opacity: 0.25; stroke: #4c4c4c; stroke-width: 0.8"/>
    <path d="M 111.189429 92.323855 
L 110.417957 86.46394 
L 108.156114 81.003369 
L 104.558042 76.314269 
L 99.868943 72.716197 
L 94.408371 70.454354 
L 88.548456 69.682882 
L 82.688541 70.454354 
L 77.227969 72.716197 
L 72.53887 76.314269 
L 68.940798 81.003369 
L 66.678955 86.46394 
L 65.907482 92.323855 
L 66.678955 98.18377 
L 68.940798 103.644342 
L 72.53887 108.333441 
L 77.227969 111.931514 
L 82.688541 114.193356 
L 88.548456 114.964829 
L 94.408371 114.193356 
L 99.868943 111.931514 
L 104.558042 108.333441 
L 108.156114 103.644342 
L 110.417957 98.18377 
L 111.189429 92.323855 
z
" clip-path="url(#p45b8be679f)" style="fill: #00cc33; stroke: #262626; stroke-width: 1.5"/>
    <path d="M 224.785154 160.972966 
L 286.710926 96.629374 
L 274.325772 148.056409 
z
" clip-path="url(#p45b8be679f)" style="fill: #4d6c9b; fill-opacity: 0.25; stroke: #4c4c4c; stroke-width: 0.8"/>
    <path d="M 361.574398 156.667447 
L 361.133556 153.318924 
L 359.841075 150.198597 
L 357.785033 147.519112 
L 355.105548 145.463071 
L 351.985221 144.170589 
L 348.636698 143.729748 
L 345.288176 144.170589 
L 342.167849 145.463071 
L 339.488364 147.519112 
L 337.432322 150.198597 
L 336.139841 153.318924 
L 335.698999 156.667447 
L 336.139841 160.01597 
L 337.432322 163.136296 
L 339.488364 165.815782 
L 342.167849 167.871823 
L 345.288176 169.164305 
L 348.636698 169.605146 
L 351.985221 169.164305 
L 355.105548 167.871823 
L 357.785033 165.815782 
L 359.841075 163.136296 
L 361.133556 160.01597 
L 361.574398 156.667447 
z
" clip-path="url(#p45b8be679f)" style="fill: #e61a1a; stroke: #262626; stroke-width: 1.5"/>
    <path d="M 282.829617 267.741396 
L 283.966426 268.218445 
L 286.710926 268.416045 
L 289.455427 268.218445 
L 290.592236 267.741396 
L 290.592236 233.164948 
L 289.455427 232.687904 
L 286.710926 232.490306 
L 283.966426 232.687904 
L 282.829617 233.164948 
z
" clip-path="url(#p45b8be679f)" style="fill: #666666; stroke: #262626"/>
    <path d="M 299.648626 221.011038 
L 299.207784 217.662515 
L 297.915303 214.542189 
L 295.859261 211.862703 
L 293.179776 209.806662 
L 290.059449 208.514181 
L 286.710926 208.073339 
L 283.362403 208.514181 
L 280.242077 209.806662 
L 277.562592 211.862703 
L 275.50655 214.542189 
L 274.214069 217.662515 
L 273.773227 221.011038 
L 274.214069 224.359561 
L 275.50655 227.479888 
L 277.562592 230.159373 
L 280.242077 232.215414 
L 283.362403 233.507896 
L 286.710926 233.948737 
L 290.059449 233.507896 
L 293.179776 232.215414 
L 295.859261 230.159373 
L 297.915303 227.479888 
L 299.207784 224.359561 
L 299.648626 221.011038 
z
" clip-path="url(#p45b8be679f)" style="fill: #e61a1a; stroke: #262626; stroke-width: 1.5"/>
    <path d="M 271.451193 287.616007 
L 271.941431 286.461469 
L 272.065503 283.710997 
L 271.750729 280.975781 
L 271.1815 279.858074 
L 236.752416 281.054951 
L 236.262184 282.209489 
L 236.138114 284.959961 
L 236.452886 287.695176 
L 237.02211 288.812884 
z
" clip-path="url(#p45b8be679f)" style="fill: #666666; stroke: #262626"/>
    <path d="M 162.859382 225.316557 
L 100.93361 289.660149 
L 150.474228 276.743591 
z
" clip-path="url(#p45b8be679f)" style="fill: #4d6c9b; fill-opacity: 0.25; stroke: #4c4c4c; stroke-width: 0.8"/>
    <path d="M 237.722854 285.35463 
L 237.282012 282.006107 
L 235.989531 278.88578 
L 233.933489 276.206295 
L 231.254004 274.150254 
L 228.133677 272.857772 
L 224.785154 272.416931 
L 221.436631 272.857772 
L 218.316305 274.150254 
L 215.63682 276.206295 
L 213.580778 278.88578 
L 212.288297 282.006107 
L 211.847455 285.35463 
L 212.288297 288.703153 
L 213.580778 291.823479 
L 215.63682 294.502965 
L 218.316305 296.559006 
L 221.436631 297.851487 
L 224.785154 298.292329 
L 228.133677 297.851487 
L 231.254004 296.559006 
L 233.933489 294.502965 
L 235.989531 291.823479 
L 237.282012 288.703153 
L 237.722854 285.35463 
z
" clip-path="url(#p45b8be679f)" style="fill: #e61a1a; stroke: #262626; stroke-width: 1.5"/>
    <path d="M 348.636698 281.049111 
L 286.710926 345.392702 
L 299.096081 293.965668 
z
" clip-path="url(#p45b8be679f)" style="fill: #4d6c9b; fill-opacity: 0.25; stroke: #4c4c4c; stroke-width: 0.8"/>
    <path d="M 175.797082 349.698221 
L 175.35624 346.349698 
L 174.063759 343.229372 
L 172.007717 340.549886 
L 169.328232 338.493845 
L 166.207905 337.201363 
L 162.859382 336.760522 
L 159.510859 337.201363 
L 156.390533 338.493845 
L 153.711048 340.549886 
L 151.655006 343.229372 
L 150.362525 346.349698 
L 149.921683 349.698221 
L 150.362525 353.046744 
L 151.655006 356.167071 
L 153.711048 358.846556 
L 156.390533 360.902597 
L 159.510859 362.195079 
L 162.859382 362.63592 
L 166.207905 362.195079 
L 169.328232 360.902597 
L 172.007717 358.846556 
L 174.063759 356.167071 
L 175.35624 353.046744 
L 175.797082 349.698221 
z
" clip-path="url(#p45b8be679f)" style="fill: #e61a1a; stroke: #262626; stroke-width: 1.5"/>
    <path d="M 281.085964 159.073897 
L 283.832037 159.954338 
L 286.460932 158.602939 
L 287.432678 155.811331 
L 286.17804 153.214799 
L 279.292233 147.230422 
L 276.54616 146.34998 
L 273.917264 147.701379 
L 272.945518 150.492988 
L 274.200157 153.08952 
z
" clip-path="url(#p45b8be679f)" style="fill: #666666; stroke: #262626"/>
    <path d="M 301.970659 154.40607 
L 301.480421 155.560608 
L 301.356349 158.31108 
L 301.671123 161.046295 
L 302.240353 162.164003 
L 336.669446 160.967125 
L 337.159689 159.812587 
L 337.283763 157.062115 
L 336.968987 154.3269 
L 336.399753 153.209192 
z
" clip-path="url(#p45b8be679f)" style="fill: #666666; stroke: #262626"/>
    <path d="M 290.592236 174.280691 
L 289.455427 173.803652 
L 286.710926 173.606056 
L 283.966426 173.803652 
L 282.829617 174.280691 
L 282.829617 208.857129 
L 283.966426 209.334173 
L 286.710926 209.53177 
L 289.455427 209.334173 
L 290.592236 208.857129 
z
" clip-path="url(#p45b8be679f)" style="fill: #666666; stroke: #262626"/>
    <path d="M 162.859382 225.316557 
L 224.785154 160.972966 
L 150.474228 152.361928 
z
" clip-path="url(#p45b8be679f)" style="fill: #6e9adc; fill-opacity: 0.25; stroke: #4c4c4c; stroke-width: 0.8"/>
    <path d="M 286.710926 221.011038 
L 348.636698 281.049111 
L 299.096081 293.965668 
z
" clip-path="url(#p45b8be679f)" style="fill: #5d82ba; fill-opacity: 0.25; stroke: #4c4c4c; stroke-width: 0.8"/>
    <path d="M 224.785154 285.35463 
L 286.710926 345.392702 
L 299.096081 293.965668 
z
" clip-path="url(#p45b8be679f)" style="fill: #5f84bd; fill-opacity: 0.25; stroke: #4c4c4c; stroke-width: 0.8"/>
    <path d="M 302.88305 158.820206 
L 302.331999 154.634553 
L 300.716397 150.734144 
L 298.146345 147.384788 
L 294.796988 144.814736 
L 290.89658 143.199134 
L 286.710926 142.648082 
L 282.525273 143.199134 
L 278.624864 144.814736 
L 275.275508 147.384788 
L 272.705456 150.734144 
L 271.089854 154.634553 
L 270.538802 158.820206 
L 271.089854 163.00586 
L 272.705456 166.906268 
L 275.275508 170.255625 
L 278.624864 172.825677 
L 282.525273 174.441279 
L 286.710926 174.99233 
L 290.89658 174.441279 
L 294.796988 172.825677 
L 298.146345 170.255625 
L 300.716397 166.906268 
L 302.331999 163.00586 
L 302.88305 158.820206 
z
" clip-path="url(#p45b8be679f)" style="fill: #3366e6; stroke: #262626; stroke-width: 1.5"/>
    <path d="M 157.234423 287.761082 
L 159.980496 288.641524 
L 162.609392 287.290125 
L 163.581138 284.498516 
L 162.326499 281.901985 
L 155.440686 275.917603 
L 152.694613 275.037161 
L 150.065718 276.38856 
L 149.093972 279.180168 
L 150.348611 281.776701 
z
" clip-path="url(#p45b8be679f)" style="fill: #666666; stroke: #262626"/>
    <path d="M 178.119127 283.093252 
L 177.6289 284.24779 
L 177.504832 286.998262 
L 177.819602 289.733477 
L 178.38882 290.851185 
L 212.817892 289.654309 
L 213.308125 288.49977 
L 213.432195 285.749299 
L 213.117423 283.014083 
L 212.548199 281.896375 
z
" clip-path="url(#p45b8be679f)" style="fill: #666666; stroke: #262626"/>
    <path d="M 166.740692 302.967863 
L 165.603883 302.490814 
L 162.859382 302.293213 
L 160.114882 302.490814 
L 158.978073 302.967863 
L 158.978073 337.54432 
L 160.114882 338.021375 
L 162.859382 338.218977 
L 165.603883 338.021375 
L 166.740692 337.54432 
z
" clip-path="url(#p45b8be679f)" style="fill: #666666; stroke: #262626"/>
    <path d="M 179.031506 287.507389 
L 178.480455 283.321736 
L 176.864853 279.421327 
L 174.294801 276.071971 
L 170.945444 273.501919 
L 167.045036 271.886317 
L 162.859382 271.335265 
L 158.673729 271.886317 
L 154.77332 273.501919 
L 151.423964 276.071971 
L 148.853912 279.421327 
L 147.23831 283.321736 
L 146.687258 287.507389 
L 147.23831 291.693043 
L 148.853912 295.593451 
L 151.423964 298.942808 
L 154.77332 301.512859 
L 158.673729 303.128461 
L 162.859382 303.679513 
L 167.045036 303.128461 
L 170.945444 301.512859 
L 174.294801 298.942808 
L 176.864853 295.593451 
L 178.480455 291.693043 
L 179.031506 287.507389 
z
" clip-path="url(#p45b8be679f)" style="fill: #3366e6; stroke: #262626; stroke-width: 1.5"/>
    <path d="M 282.829617 143.359722 
L 283.966426 143.83676 
L 286.710926 144.034356 
L 289.455427 143.83676 
L 290.592236 143.359722 
L 290.592236 108.783292 
L 289.455427 108.306259 
L 286.710926 108.108665 
L 283.966426 108.306259 
L 282.829617 108.783292 
z
" clip-path="url(#p45b8be679f)" style="fill: #666666; stroke: #262626"/>
    <path d="M 224.785154 160.972966 
L 162.859382 100.934894 
L 150.474228 152.361928 
z
" clip-path="url(#p45b8be679f)" style="fill: #5f84bd; fill-opacity: 0.25; stroke: #4c4c4c; stroke-width: 0.8"/>
    <path d="M 162.859382 225.316557 
L 100.93361 165.278485 
L 150.474228 152.361928 
z
" clip-path="url(#p45b8be679f)" style="fill: #5d82ba; fill-opacity: 0.25; stroke: #4c4c4c; stroke-width: 0.8"/>
    <path d="M 286.710926 221.011038 
L 224.785154 285.35463 
L 299.096081 293.965668 
z
" clip-path="url(#p45b8be679f)" style="fill: #6e9adc; fill-opacity: 0.25; stroke: #4c4c4c; stroke-width: 0.8"/>
    <path d="M 299.648626 96.629374 
L 299.207784 93.280852 
L 297.915303 90.160525 
L 295.859261 87.48104 
L 293.179776 85.424998 
L 290.059449 84.132517 
L 286.710926 83.691675 
L 283.362403 84.132517 
L 280.242077 85.424998 
L 277.562592 87.48104 
L 275.50655 90.160525 
L 274.214069 93.280852 
L 273.773227 96.629374 
L 274.214069 99.977897 
L 275.50655 103.098224 
L 277.562592 105.777709 
L 280.242077 107.833751 
L 283.362403 109.126232 
L 286.710926 109.567074 
L 290.059449 109.126232 
L 293.179776 107.833751 
L 295.859261 105.777709 
L 297.915303 103.098224 
L 299.207784 99.977897 
L 299.648626 96.629374 
z
" clip-path="url(#p45b8be679f)" style="fill: #e61a1a; stroke: #262626; stroke-width: 1.5"/>
    <path d="M 271.451194 163.234343 
L 271.941432 162.079805 
L 272.065504 159.329333 
L 271.75073 156.594118 
L 271.1815 155.47641 
L 236.752416 156.673287 
L 236.262183 157.827825 
L 236.138113 160.578297 
L 236.452885 163.313513 
L 237.022109 164.43122 
z
" clip-path="url(#p45b8be679f)" style="fill: #666666; stroke: #262626"/>
    <path d="M 100.93361 165.278485 
L 162.859382 100.934894 
L 150.474228 152.361928 
z
" clip-path="url(#p45b8be679f)" style="fill: #4d6c9b; fill-opacity: 0.25; stroke: #4c4c4c; stroke-width: 0.8"/>
    <path d="M 237.722854 160.972966 
L 237.282012 157.624443 
L 235.989531 154.504116 
L 233.933489 151.824631 
L 231.254004 149.76859 
L 228.133677 148.476108 
L 224.785154 148.035267 
L 221.436631 148.476108 
L 218.316305 149.76859 
L 215.63682 151.824631 
L 213.580778 154.504116 
L 212.288297 157.624443 
L 211.847455 160.972966 
L 212.288297 164.321489 
L 213.580778 167.441816 
L 215.63682 170.121301 
L 218.316305 172.177342 
L 221.436631 173.469824 
L 224.785154 173.910665 
L 228.133677 173.469824 
L 231.254004 172.177342 
L 233.933489 170.121301 
L 235.989531 167.441816 
L 237.282012 164.321489 
L 237.722854 160.972966 
z
" clip-path="url(#p45b8be679f)" style="fill: #e61a1a; stroke: #262626; stroke-width: 1.5"/>
    <path d="M 158.978073 272.046916 
L 160.114882 272.523965 
L 162.859382 272.721565 
L 165.603883 272.523965 
L 166.740692 272.046916 
L 166.740692 237.470466 
L 165.603883 236.993422 
L 162.859382 236.795824 
L 160.114882 236.993422 
L 158.978073 237.470466 
z
" clip-path="url(#p45b8be679f)" style="fill: #666666; stroke: #262626"/>
    <path d="M 286.710926 221.011038 
L 348.636698 156.667447 
L 299.096081 169.584004 
z
" clip-path="url(#p45b8be679f)" style="fill: #4d6c9b; fill-opacity: 0.25; stroke: #4c4c4c; stroke-width: 0.8"/>
    <path d="M 175.797082 225.316557 
L 175.35624 221.968034 
L 174.063759 218.847708 
L 172.007717 216.168223 
L 169.328232 214.112181 
L 166.207905 212.8197 
L 162.859382 212.378858 
L 159.510859 212.8197 
L 156.390533 214.112181 
L 153.711048 216.168223 
L 151.655006 218.847708 
L 150.362525 221.968034 
L 149.921683 225.316557 
L 150.362525 228.66508 
L 151.655006 231.785407 
L 153.711048 234.464892 
L 156.390533 236.520934 
L 159.510859 237.813415 
L 162.859382 238.254257 
L 166.207905 237.813415 
L 169.328232 236.520934 
L 172.007717 234.464892 
L 174.063759 231.785407 
L 175.35624 228.66508 
L 175.797082 225.316557 
z
" clip-path="url(#p45b8be679f)" style="fill: #e61a1a; stroke: #262626; stroke-width: 1.5"/>
    <path d="M 147.599638 291.921527 
L 148.089865 290.766988 
L 148.213933 288.016517 
L 147.899163 285.281301 
L 147.329944 284.163593 
L 112.900882 285.36047 
L 112.410659 286.515008 
L 112.286594 289.265479 
L 112.601361 292.000695 
L 113.170575 293.118403 
z
" clip-path="url(#p45b8be679f)" style="fill: #666666; stroke: #262626"/>
    <path d="M 113.87131 289.660149 
L 113.430468 286.311626 
L 112.137986 283.191299 
L 110.081945 280.511814 
L 107.40246 278.455773 
L 104.282133 277.163291 
L 100.93361 276.72245 
L 97.585087 277.163291 
L 94.464761 278.455773 
L 91.785276 280.511814 
L 89.729234 283.191299 
L 88.436753 286.311626 
L 87.995911 289.660149 
L 88.436753 293.008672 
L 89.729234 296.128998 
L 91.785276 298.808484 
L 94.464761 300.864525 
L 97.585087 302.157007 
L 100.93361 302.597848 
L 104.282133 302.157007 
L 107.40246 300.864525 
L 110.081945 298.808484 
L 112.137986 296.128998 
L 113.430468 293.008672 
L 113.87131 289.660149 
z
" clip-path="url(#p45b8be679f)" style="fill: #e61a1a; stroke: #262626; stroke-width: 1.5"/>
    <path d="M 224.785154 285.35463 
L 162.859382 349.698221 
L 175.244537 298.271187 
z
" clip-path="url(#p45b8be679f)" style="fill: #4d6c9b; fill-opacity: 0.25; stroke: #4c4c4c; stroke-width: 0.8"/>
    <path d="M 383.662826 354.00374 
L 382.891354 348.143825 
L 380.629511 342.683254 
L 377.031439 337.994154 
L 372.34234 334.396082 
L 366.881768 332.134239 
L 361.021853 331.362767 
L 355.161938 332.134239 
L 349.701366 334.396082 
L 345.012267 337.994154 
L 341.414195 342.683254 
L 339.152352 348.143825 
L 338.380879 354.00374 
L 339.152352 359.863655 
L 341.414195 365.324227 
L 345.012267 370.013326 
L 349.701366 373.611399 
L 355.161938 375.873241 
L 361.021853 376.644714 
L 366.881768 375.873241 
L 372.34234 373.611399 
L 377.031439 370.013326 
L 380.629511 365.324227 
L 382.891354 359.863655 
L 383.662826 354.00374 
z
" clip-path="url(#p45b8be679f)" style="fill: #00cc33; stroke: #262626; stroke-width: 1.5"/>
    <path d="M 157.234452 163.379444 
L 159.980527 164.259887 
L 162.609422 162.908488 
L 163.581168 160.116879 
L 162.326528 157.520346 
L 155.440664 151.535919 
L 152.694589 150.655476 
L 150.065693 152.006874 
L 149.093948 154.798484 
L 150.348588 157.395017 
z
" clip-path="url(#p45b8be679f)" style="fill: #666666; stroke: #262626"/>
    <path d="M 178.119127 158.711588 
L 177.628899 159.866126 
L 177.504831 162.616598 
L 177.819601 165.351814 
L 178.38882 166.469521 
L 212.817893 165.272645 
L 213.308126 164.118106 
L 213.432196 161.367635 
L 213.117424 158.632419 
L 212.548199 157.514712 
z
" clip-path="url(#p45b8be679f)" style="fill: #666666; stroke: #262626"/>
    <path d="M 166.740692 178.586209 
L 165.603883 178.109171 
L 162.859382 177.911575 
L 160.114882 178.109171 
L 158.978073 178.586209 
L 158.978073 213.162648 
L 160.114882 213.639692 
L 162.859382 213.83729 
L 165.603883 213.639692 
L 166.740692 213.162648 
z
" clip-path="url(#p45b8be679f)" style="fill: #666666; stroke: #262626"/>
    <path d="M 348.636698 156.667447 
L 286.710926 96.629374 
L 299.096081 169.584004 
z
" clip-path="url(#p45b8be679f)" style="fill: #5d82ba; fill-opacity: 0.25; stroke: #4c4c4c; stroke-width: 0.8"/>
    <path d="M 286.710926 221.011038 
L 224.785154 160.972966 
L 299.096081 169.584004 
z
" clip-path="url(#p45b8be679f)" style="fill: #5f84bd; fill-opacity: 0.25; stroke: #4c4c4c; stroke-width: 0.8"/>
    <path d="M 162.859382 225.316557 
L 224.785154 285.35463 
L 175.244537 298.271187 
z
" clip-path="url(#p45b8be679f)" style="fill: #5d82ba; fill-opacity: 0.25; stroke: #4c4c4c; stroke-width: 0.8"/>
    <path d="M 100.93361 289.660149 
L 162.859382 349.698221 
L 175.244537 298.271187 
z
" clip-path="url(#p45b8be679f)" style="fill: #5f84bd; fill-opacity: 0.25; stroke: #4c4c4c; stroke-width: 0.8"/>
    <path d="M 179.031506 163.125725 
L 178.480455 158.940072 
L 176.864853 155.039664 
L 174.294801 151.690307 
L 170.945444 149.120255 
L 167.045036 147.504653 
L 162.859382 146.953602 
L 158.673729 147.504653 
L 154.77332 149.120255 
L 151.423964 151.690307 
L 148.853912 155.039664 
L 147.23831 158.940072 
L 146.687258 163.125725 
L 147.23831 167.311379 
L 148.853912 171.211787 
L 151.423964 174.561144 
L 154.77332 177.131196 
L 158.673729 178.746798 
L 162.859382 179.297849 
L 167.045036 178.746798 
L 170.945444 177.131196 
L 174.294801 174.561144 
L 176.864853 171.211787 
L 178.480455 167.311379 
L 179.031506 163.125725 
z
" clip-path="url(#p45b8be679f)" style="fill: #3366e6; stroke: #262626; stroke-width: 1.5"/>
    <path d="M 158.978073 147.665242 
L 160.114882 148.14228 
L 162.859382 148.339876 
L 165.603883 148.14228 
L 166.740692 147.665242 
L 166.740692 113.088811 
L 165.603883 112.611777 
L 162.859382 112.414184 
L 160.114882 112.611777 
L 158.978073 113.088811 
z
" clip-path="url(#p45b8be679f)" style="fill: #666666; stroke: #262626"/>
    <path d="M 224.785154 160.972966 
L 286.710926 96.629374 
L 299.096081 169.584004 
z
" clip-path="url(#p45b8be679f)" style="fill: #6e9adc; fill-opacity: 0.25; stroke: #4c4c4c; stroke-width: 0.8"/>
    <path d="M 162.859382 225.316557 
L 100.93361 289.660149 
L 175.244537 298.271187 
z
" clip-path="url(#p45b8be679f)" style="fill: #6e9adc; fill-opacity: 0.25; stroke: #4c4c4c; stroke-width: 0.8"/>
    <path d="M 175.797082 100.934894 
L 175.35624 97.586371 
L 174.063759 94.466044 
L 172.007717 91.786559 
L 169.328232 89.730517 
L 166.207905 88.438036 
L 162.859382 87.997194 
L 159.510859 88.438036 
L 156.390533 89.730517 
L 153.711048 91.786559 
L 151.655006 94.466044 
L 150.362525 97.586371 
L 149.921683 100.934894 
L 150.362525 104.283417 
L 151.655006 107.403743 
L 153.711048 110.083228 
L 156.390533 112.13927 
L 159.510859 113.431751 
L 162.859382 113.872593 
L 166.207905 113.431751 
L 169.328232 112.13927 
L 172.007717 110.083228 
L 174.063759 107.403743 
L 175.35624 104.283417 
L 175.797082 100.934894 
z
" clip-path="url(#p45b8be679f)" style="fill: #e61a1a; stroke: #262626; stroke-width: 1.5"/>
    <path d="M 147.599638 167.539863 
L 148.089866 166.385325 
L 148.213934 163.634853 
L 147.899164 160.899637 
L 147.329945 159.78193 
L 112.900881 160.978806 
L 112.410658 162.133344 
L 112.286593 164.883815 
L 112.60136 167.619031 
L 113.170574 168.736739 
z
" clip-path="url(#p45b8be679f)" style="fill: #666666; stroke: #262626"/>
    <path d="M 113.87131 165.278485 
L 113.430468 161.929962 
L 112.137986 158.809635 
L 110.081945 156.13015 
L 107.40246 154.074109 
L 104.282133 152.781627 
L 100.93361 152.340786 
L 97.585087 152.781627 
L 94.464761 154.074109 
L 91.785276 156.13015 
L 89.729234 158.809635 
L 88.436753 161.929962 
L 87.995911 165.278485 
L 88.436753 168.627008 
L 89.729234 171.747335 
L 91.785276 174.42682 
L 94.464761 176.482861 
L 97.585087 177.775343 
L 100.93361 178.216184 
L 104.282133 177.775343 
L 107.40246 176.482861 
L 110.081945 174.42682 
L 112.137986 171.747335 
L 113.430468 168.627008 
L 113.87131 165.278485 
z
" clip-path="url(#p45b8be679f)" style="fill: #e61a1a; stroke: #262626; stroke-width: 1.5"/>
    <path d="M 162.859382 225.316557 
L 224.785154 160.972966 
L 175.244537 173.889523 
z
" clip-path="url(#p45b8be679f)" style="fill: #4d6c9b; fill-opacity: 0.25; stroke: #4c4c4c; stroke-width: 0.8"/>
    <path d="M 383.662826 229.622077 
L 382.891354 223.762161 
L 380.629511 218.30159 
L 377.031439 213.612491 
L 372.34234 210.014418 
L 366.881768 207.752575 
L 361.021853 206.981103 
L 355.161938 207.752575 
L 349.701366 210.014418 
L 345.012267 213.612491 
L 341.414195 218.30159 
L 339.152352 223.762161 
L 338.380879 229.622077 
L 339.152352 235.481992 
L 341.414195 240.942563 
L 345.012267 245.631662 
L 349.701366 249.229735 
L 355.161938 251.491578 
L 361.021853 252.26305 
L 366.881768 251.491578 
L 372.34234 249.229735 
L 377.031439 245.631662 
L 380.629511 240.942563 
L 382.891354 235.481992 
L 383.662826 229.622077 
z
" clip-path="url(#p45b8be679f)" style="fill: #00cc33; stroke: #262626; stroke-width: 1.5"/>
    <path d="M 292.335918 282.948205 
L 289.589846 282.067765 
L 286.960951 283.419164 
L 285.989205 286.210772 
L 287.243842 288.807303 
L 294.129588 294.791627 
L 296.87566 295.672067 
L 299.504554 294.320667 
L 300.476301 291.529059 
L 299.221664 288.932529 
z
" clip-path="url(#p45b8be679f)" style="fill: #666666; stroke: #262626"/>
    <path d="M 312.03378 293.965668 
L 311.592939 290.617145 
L 310.300457 287.496818 
L 308.244416 284.817333 
L 305.56493 282.761292 
L 302.444604 281.46881 
L 299.096081 281.027969 
L 295.747558 281.46881 
L 292.627231 282.761292 
L 289.947746 284.817333 
L 287.891705 287.496818 
L 286.599223 290.617145 
L 286.158382 293.965668 
L 286.599223 297.314191 
L 287.891705 300.434518 
L 289.947746 303.114003 
L 292.627231 305.170044 
L 295.747558 306.462526 
L 299.096081 306.903367 
L 302.444604 306.462526 
L 305.56493 305.170044 
L 308.244416 303.114003 
L 310.300457 300.434518 
L 311.592939 297.314191 
L 312.03378 293.965668 
z
" clip-path="url(#p45b8be679f)" style="fill: #e61a1a; stroke: #262626; stroke-width: 1.5"/>
    <path d="M 259.811282 358.309259 
L 259.03981 352.449344 
L 256.777967 346.988773 
L 253.179895 342.299674 
L 248.490796 338.701601 
L 243.030224 336.439758 
L 237.170309 335.668286 
L 231.310394 336.439758 
L 225.849822 338.701601 
L 221.160723 342.299674 
L 217.562651 346.988773 
L 215.300808 352.449344 
L 214.529335 358.309259 
L 215.300808 364.169175 
L 217.562651 369.629746 
L 221.160723 374.318845 
L 225.849822 377.916918 
L 231.310394 380.178761 
L 237.170309 380.950233 
L 243.030224 380.178761 
L 248.490796 377.916918 
L 253.179895 374.318845 
L 256.777967 369.629746 
L 259.03981 364.169175 
L 259.811282 358.309259 
z
" clip-path="url(#p45b8be679f)" style="fill: #00cc33; stroke: #262626; stroke-width: 1.5"/>
    <path d="M 224.785154 160.972966 
L 162.859382 100.934894 
L 175.244537 173.889523 
z
" clip-path="url(#p45b8be679f)" style="fill: #5d82ba; fill-opacity: 0.25; stroke: #4c4c4c; stroke-width: 0.8"/>
    <path d="M 162.859382 225.316557 
L 100.93361 165.278485 
L 175.244537 173.889523 
z
" clip-path="url(#p45b8be679f)" style="fill: #5f84bd; fill-opacity: 0.25; stroke: #4c4c4c; stroke-width: 0.8"/>
    <path d="M 100.93361 165.278485 
L 162.859382 100.934894 
L 175.244537 173.889523 
z
" clip-path="url(#p45b8be679f)" style="fill: #6e9adc; fill-opacity: 0.25; stroke: #4c4c4c; stroke-width: 0.8"/>
    <path d="M 383.662826 105.240413 
L 382.891354 99.380498 
L 380.629511 93.919926 
L 377.031439 89.230827 
L 372.34234 85.632754 
L 366.881768 83.370912 
L 361.021853 82.599439 
L 355.161938 83.370912 
L 349.701366 85.632754 
L 345.012267 89.230827 
L 341.414195 93.919926 
L 339.152352 99.380498 
L 338.380879 105.240413 
L 339.152352 111.100328 
L 341.414195 116.560899 
L 345.012267 121.249999 
L 349.701366 124.848071 
L 355.161938 127.109914 
L 361.021853 127.881386 
L 366.881768 127.109914 
L 372.34234 124.848071 
L 377.031439 121.249999 
L 380.629511 116.560899 
L 382.891354 111.100328 
L 383.662826 105.240413 
z
" clip-path="url(#p45b8be679f)" style="fill: #00cc33; stroke: #262626; stroke-width: 1.5"/>
    <path d="M 292.335889 158.566516 
L 289.589816 157.686074 
L 286.960921 159.037474 
L 285.989175 161.829082 
L 287.243813 164.425614 
L 294.129611 170.409983 
L 296.875684 171.290424 
L 299.504579 169.939025 
L 300.476325 167.147416 
L 299.221686 164.550885 
z
" clip-path="url(#p45b8be679f)" style="fill: #666666; stroke: #262626"/>
    <path d="M 312.03378 169.584004 
L 311.592939 166.235481 
L 310.300457 163.115155 
L 308.244416 160.435669 
L 305.56493 158.379628 
L 302.444604 157.087146 
L 299.096081 156.646305 
L 295.747558 157.087146 
L 292.627231 158.379628 
L 289.947746 160.435669 
L 287.891705 163.115155 
L 286.599223 166.235481 
L 286.158382 169.584004 
L 286.599223 172.932527 
L 287.891705 176.052854 
L 289.947746 178.732339 
L 292.627231 180.78838 
L 295.747558 182.080862 
L 299.096081 182.521703 
L 302.444604 182.080862 
L 305.56493 180.78838 
L 308.244416 178.732339 
L 310.300457 176.052854 
L 311.592939 172.932527 
L 312.03378 169.584004 
z
" clip-path="url(#p45b8be679f)" style="fill: #e61a1a; stroke: #262626; stroke-width: 1.5"/>
    <path d="M 259.811282 233.927596 
L 259.03981 228.067681 
L 256.777967 222.607109 
L 253.179895 217.91801 
L 248.490796 214.319937 
L 243.030224 212.058095 
L 237.170309 211.286622 
L 231.310394 212.058095 
L 225.849822 214.319937 
L 221.160723 217.91801 
L 217.562651 222.607109 
L 215.300808 228.067681 
L 214.529335 233.927596 
L 215.300808 239.787511 
L 217.562651 245.248082 
L 221.160723 249.937182 
L 225.849822 253.535254 
L 231.310394 255.797097 
L 237.170309 256.568569 
L 243.030224 255.797097 
L 248.490796 253.535254 
L 253.179895 249.937182 
L 256.777967 245.248082 
L 259.03981 239.787511 
L 259.811282 233.927596 
z
" clip-path="url(#p45b8be679f)" style="fill: #00cc33; stroke: #262626; stroke-width: 1.5"/>
    <path d="M 168.484342 287.253696 
L 165.738268 286.373254 
L 163.109373 287.724654 
L 162.137627 290.516262 
L 163.392266 293.112794 
L 170.278069 299.097168 
L 173.024142 299.977609 
L 175.653037 298.62621 
L 176.624783 295.834602 
L 175.370145 293.23807 
z
" clip-path="url(#p45b8be679f)" style="fill: #666666; stroke: #262626"/>
    <path d="M 188.182236 298.271187 
L 187.741395 294.922664 
L 186.448913 291.802338 
L 184.392872 289.122852 
L 181.713386 287.066811 
L 178.59306 285.774329 
L 175.244537 285.333488 
L 171.896014 285.774329 
L 168.775687 287.066811 
L 166.096202 289.122852 
L 164.040161 291.802338 
L 162.747679 294.922664 
L 162.306838 298.271187 
L 162.747679 301.61971 
L 164.040161 304.740037 
L 166.096202 307.419522 
L 168.775687 309.475563 
L 171.896014 310.768045 
L 175.244537 311.208886 
L 178.59306 310.768045 
L 181.713386 309.475563 
L 184.392872 307.419522 
L 186.448913 304.740037 
L 187.741395 301.61971 
L 188.182236 298.271187 
z
" clip-path="url(#p45b8be679f)" style="fill: #e61a1a; stroke: #262626; stroke-width: 1.5"/>
    <path d="M 135.959738 362.614779 
L 135.188266 356.754863 
L 132.926423 351.294292 
L 129.328351 346.605193 
L 124.639252 343.00712 
L 119.17868 340.745278 
L 113.318765 339.973805 
L 107.45885 340.745278 
L 101.998278 343.00712 
L 97.309179 346.605193 
L 93.711107 351.294292 
L 91.449264 356.754863 
L 90.677791 362.614779 
L 91.449264 368.474694 
L 93.711107 373.935265 
L 97.309179 378.624365 
L 101.998278 382.222437 
L 107.45885 384.48428 
L 113.318765 385.255752 
L 119.17868 384.48428 
L 124.639252 382.222437 
L 129.328351 378.624365 
L 132.926423 373.935265 
L 135.188266 368.474694 
L 135.959738 362.614779 
z
" clip-path="url(#p45b8be679f)" style="fill: #00cc33; stroke: #262626; stroke-width: 1.5"/>
    <path d="M 259.811282 109.545932 
L 259.03981 103.686017 
L 256.777967 98.225445 
L 253.179895 93.536346 
L 248.490796 89.938274 
L 243.030224 87.676431 
L 237.170309 86.904958 
L 231.310394 87.676431 
L 225.849822 89.938274 
L 221.160723 93.536346 
L 217.562651 98.225445 
L 215.300808 103.686017 
L 214.529335 109.545932 
L 215.300808 115.405847 
L 217.562651 120.866419 
L 221.160723 125.555518 
L 225.849822 129.15359 
L 231.310394 131.415433 
L 237.170309 132.186905 
L 243.030224 131.415433 
L 248.490796 129.15359 
L 253.179895 125.555518 
L 256.777967 120.866419 
L 259.03981 115.405847 
L 259.811282 109.545932 
z
" clip-path="url(#p45b8be679f)" style="fill: #00cc33; stroke: #262626; stroke-width: 1.5"/>
    <path d="M 168.484313 162.872007 
L 165.738238 161.991564 
L 163.109342 163.342963 
L 162.137597 166.134572 
L 163.392237 168.731105 
L 170.278092 174.715524 
L 173.024166 175.595967 
L 175.653062 174.244568 
L 176.624807 171.452959 
L 175.370168 168.856426 
z
" clip-path="url(#p45b8be679f)" style="fill: #666666; stroke: #262626"/>
    <path d="M 188.182236 173.889523 
L 187.741395 170.541 
L 186.448913 167.420674 
L 184.392872 164.741189 
L 181.713386 162.685147 
L 178.59306 161.392666 
L 175.244537 160.951824 
L 171.896014 161.392666 
L 168.775687 162.685147 
L 166.096202 164.741189 
L 164.040161 167.420674 
L 162.747679 170.541 
L 162.306838 173.889523 
L 162.747679 177.238046 
L 164.040161 180.358373 
L 166.096202 183.037858 
L 168.775687 185.093899 
L 171.896014 186.386381 
L 175.244537 186.827222 
L 178.59306 186.386381 
L 181.713386 185.093899 
L 184.392872 183.037858 
L 186.448913 180.358373 
L 187.741395 177.238046 
L 188.182236 173.889523 
z
" clip-path="url(#p45b8be679f)" style="fill: #e61a1a; stroke: #262626; stroke-width: 1.5"/>
    <path d="M 135.959738 238.233115 
L 135.188266 232.3732 
L 132.926423 226.912628 
L 129.328351 222.223529 
L 124.639252 218.625457 
L 119.17868 216.363614 
L 113.318765 215.592141 
L 107.45885 216.363614 
L 101.998278 218.625457 
L 97.309179 222.223529 
L 93.711107 226.912628 
L 91.449264 232.3732 
L 90.677791 238.233115 
L 91.449264 244.09303 
L 93.711107 249.553602 
L 97.309179 254.242701 
L 101.998278 257.840773 
L 107.45885 260.102616 
L 113.318765 260.874088 
L 119.17868 260.102616 
L 124.639252 257.840773 
L 129.328351 254.242701 
L 132.926423 249.553602 
L 135.188266 244.09303 
L 135.959738 238.233115 
z
" clip-path="url(#p45b8be679f)" style="fill: #00cc33; stroke: #262626; stroke-width: 1.5"/>
    <path d="M 135.959738 113.851451 
L 135.188266 107.991536 
L 132.926423 102.530964 
L 129.328351 97.841865 
L 124.639252 94.243793 
L 119.17868 91.98195 
L 113.318765 91.210477 
L 107.45885 91.98195 
L 101.998278 94.243793 
L 97.309179 97.841865 
L 93.711107 102.530964 
L 91.449264 107.991536 
L 90.677791 113.851451 
L 91.449264 119.711366 
L 93.711107 125.171938 
L 97.309179 129.861037 
L 101.998278 133.459109 
L 107.45885 135.720952 
L 113.318765 136.492424 
L 119.17868 135.720952 
L 124.639252 133.459109 
L 129.328351 129.861037 
L 132.926423 125.171938 
L 135.188266 119.711366 
L 135.959738 113.851451 
z
" clip-path="url(#p45b8be679f)" style="fill: #00cc33; stroke: #262626; stroke-width: 1.5"/>
   </g>
  </g>
 </g>
 <defs>
  <clipPath id="p45b8be679f">
   <rect x="7.2" y="7.2" width="410.4" height="410.4"/>
  </clipPath>
 </defs>
</svg>
