<?xml version="1.0" encoding="utf-8" standalone="no"?>
<!DOCTYPE svg PUBLIC "-//W3C//DTD SVG 1.1//EN"
  "http://www.w3.org/Graphics/SVG/1.1/DTD/svg11.dtd">
<svg xmlns:xlink="http://www.w3.org/1999/xlink" width="280.8pt" height="280.8pt" viewBox="0 0 280.8 280.8" xmlns="http://www.w3.org/2000/svg" version="1.1">
 <metadata>
  <rdf:RDF xmlns:dc="http://purl.org/dc/elements/1.1/" xmlns:cc="http://creativecommons.org/ns#" xmlns:rdf="http://www.w3.org/1999/02/22-rdf-syntax-ns#">
   <cc:Work>
    <dc:type rdf:resource="http://purl.org/dc/dcmitype/StillImage"/>
    <dc:date>2026-02-16T10:36:41.179461</dc:date>
    <dc:format>image/svg+xml</dc:format>
    <dc:creator>
     <cc:Agent>
      <dc:title>Matplotlib v3.10.7, https://matplotlib.org/</dc:title>
     </cc:Agent>
    </dc:creator>
   </cc:Work>
  </rdf:RDF>
 </metadata>
 <defs>
  <style type="text/css">*{stroke-linejoin: round; stroke-linecap: butt}</style>
 </defs>
 <g id="figure_1">
  <g id="patch_1">
   <path d="M 0 280.8 
L 280.8 280.8 
L 280.8 0 
L 0 0 
z
" style="fill: #ffffff"/>
  </g>
  <g id="axes_1">
   <g id="PolyCollection_1">
    <path d="M 175.100904 167.077261 
L 174.795521 164.757647 
L 173.900183 162.596111 
L 172.475907 160.739959 
L 170.619755 159.315683 
L 168.458219 158.420345 
L 166.138606 158.114962 
L 163.818992 158.420345 
L 161.657457 159.315683 
L 159.801304 160.739959 
L 158.377028 162.596111 
L 157.48169 164.757647 
L 157.176308 167.077261 
L 157.48169 169.396874 
L 158.377028 171.55841 
L 159.801304 173.414562 
L 161.657457 174.838838 
L 163.818992 175.734176 
L 166.138606 176.039559 
L 168.458219 175.734176 
L 170.619755 174.838838 
L 172.475907 173.414562 
L 173.900183 171.55841 
L 174.795521 169.396874 
L 175.100904 167.077261 
z
" clip-path="url(#pb83df7a2cd)" style="fill: #e61a1a"/>
    <path d="M 175.100904 80.91468 
L 174.795521 78.595067 
L 173.900183 76.433531 
L 172.475907 74.577378 
L 170.619755 73.153102 
L 168.458219 72.257765 
L 166.138606 71.952382 
L 163.818992 72.257765 
L 161.657457 73.153102 
L 159.801304 74.577378 
L 158.377028 76.433531 
L 157.48169 78.595067 
L 157.176308 80.91468 
L 157.48169 83.234293 
L 158.377028 85.395829 
L 159.801304 87.251982 
L 161.657457 88.676258 
L 163.818992 89.571595 
L 166.138606 89.876978 
L 168.458219 89.571595 
L 170.619755 88.676258 
L 172.475907 87.251982 
L 173.900183 85.395829 
L 174.795521 83.234293 
L 175.100904 80.91468 
z
" clip-path="url(#pb83df7a2cd)" style="fill: #e61a1a"/>
    <path d="M 89.305552 170.059811 
L 89.000169 167.740198 
L 88.104831 165.578662 
L 86.680555 163.72251 
L 84.824403 162.298234 
L 82.662867 161.402896 
L 80.343254 161.097513 
L 78.02364 161.402896 
L 75.862104 162.298234 
L 74.005952 163.72251 
L 72.581676 165.578662 
L 71.686338 167.740198 
L 71.380955 170.059811 
L 71.686338 172.379425 
L 72.581676 174.54096 
L 74.005952 176.397113 
L 75.862104 177.821389 
L 78.02364 178.716727 
L 80.343254 179.022109 
L 82.662867 178.716727 
L 84.824403 177.821389 
L 86.680555 176.397113 
L 88.104831 174.54096 
L 89.000169 172.379425 
L 89.305552 170.059811 
z
" clip-path="url(#pb83df7a2cd)" style="fill: #e61a1a"/>
    <path d="M 217.615817 173.042362 
L 174.718141 217.614928 
L 166.138606 167.077261 
z
" clip-path="url(#pb83df7a2cd)" style="fill: #6e9adc; fill-opacity: 0.25"/>
    <path d="M 174.718141 131.452347 
L 217.615817 173.042362 
L 166.138606 167.077261 
z
" clip-path="url(#pb83df7a2cd)" style="fill: #5f84bd; fill-opacity: 0.25"/>
    <path d="M 131.820465 176.024913 
L 174.718141 217.614928 
L 166.138606 167.077261 
z
" clip-path="url(#pb83df7a2cd)" style="fill: #5d82ba; fill-opacity: 0.25"/>
    <path d="M 89.305552 83.897231 
L 89.000169 81.577617 
L 88.104831 79.416082 
L 86.680555 77.559929 
L 84.824403 76.135653 
L 82.662867 75.240316 
L 80.343254 74.934933 
L 78.02364 75.240316 
L 75.862104 76.135653 
L 74.005952 77.559929 
L 72.581676 79.416082 
L 71.686338 81.577617 
L 71.380955 83.897231 
L 71.686338 86.216844 
L 72.581676 88.37838 
L 74.005952 90.234533 
L 75.862104 91.658809 
L 78.02364 92.554146 
L 80.343254 92.859529 
L 82.662867 92.554146 
L 84.824403 91.658809 
L 86.680555 90.234533 
L 88.104831 88.37838 
L 89.000169 86.216844 
L 89.305552 83.897231 
z
" clip-path="url(#pb83df7a2cd)" style="fill: #e61a1a"/>
    <path d="M 174.718141 131.452347 
L 131.820465 176.024913 
L 166.138606 167.077261 
z
" clip-path="url(#pb83df7a2cd)" style="fill: #4d6c9b; fill-opacity: 0.25"/>
    <path d="M 226.578115 173.042362 
L 226.272732 170.722749 
L 225.377395 168.561213 
L 223.953119 166.705061 
L 222.096966 165.280784 
L 219.93543 164.385447 
L 217.615817 164.080064 
L 215.296203 164.385447 
L 213.134668 165.280784 
L 211.278515 166.705061 
L 209.854239 168.561213 
L 208.958902 170.722749 
L 208.653519 173.042362 
L 208.958902 175.361976 
L 209.854239 177.523511 
L 211.278515 179.379664 
L 213.134668 180.80394 
L 215.296203 181.699277 
L 217.615817 182.00466 
L 219.93543 181.699277 
L 222.096966 180.80394 
L 223.953119 179.379664 
L 225.377395 177.523511 
L 226.272732 175.361976 
L 226.578115 173.042362 
z
" clip-path="url(#pb83df7a2cd)" style="fill: #e61a1a"/>
    <path d="M 183.680439 217.614928 
L 183.375056 215.295315 
L 182.479719 213.133779 
L 181.055443 211.277626 
L 179.19929 209.85335 
L 177.037754 208.958013 
L 174.718141 208.65263 
L 172.398527 208.958013 
L 170.236992 209.85335 
L 168.380839 211.277626 
L 166.956563 213.133779 
L 166.061226 215.295315 
L 165.755843 217.614928 
L 166.061226 219.934541 
L 166.956563 222.096077 
L 168.380839 223.95223 
L 170.236992 225.376506 
L 172.398527 226.271843 
L 174.718141 226.577226 
L 177.037754 226.271843 
L 179.19929 225.376506 
L 181.055443 223.95223 
L 182.479719 222.096077 
L 183.375056 219.934541 
L 183.680439 217.614928 
z
" clip-path="url(#pb83df7a2cd)" style="fill: #e61a1a"/>
    <path d="M 170.821563 174.709365 
L 172.723843 175.319271 
L 174.54495 174.38312 
L 175.218106 172.449296 
L 174.348984 170.650608 
L 169.579018 166.505085 
L 167.676739 165.89518 
L 165.855631 166.831331 
L 165.182476 168.765154 
L 166.051598 170.563843 
z
" clip-path="url(#pb83df7a2cd)" style="fill: #666666"/>
    <path d="M 185.288977 171.475844 
L 184.949377 172.275625 
L 184.86343 174.180951 
L 185.081482 176.07571 
L 185.475801 176.849977 
L 209.325772 176.020867 
L 209.665376 175.221087 
L 209.751325 173.31576 
L 209.533271 171.421001 
L 209.138948 170.646735 
z
" clip-path="url(#pb83df7a2cd)" style="fill: #666666"/>
    <path d="M 177.40683 185.243532 
L 176.619331 184.913069 
L 174.718141 184.776186 
L 172.81695 184.913069 
L 172.029451 185.243532 
L 172.029451 209.195587 
L 172.81695 209.526054 
L 174.718141 209.662938 
L 176.619331 209.526054 
L 177.40683 209.195587 
z
" clip-path="url(#pb83df7a2cd)" style="fill: #666666"/>
    <path d="M 174.718141 131.452347 
L 217.615817 86.879782 
L 166.138606 80.91468 
z
" clip-path="url(#pb83df7a2cd)" style="fill: #6e9adc; fill-opacity: 0.25"/>
    <path d="M 131.820465 176.024913 
L 88.922789 220.597479 
L 80.343254 170.059811 
z
" clip-path="url(#pb83df7a2cd)" style="fill: #6e9adc; fill-opacity: 0.25"/>
    <path d="M 185.921013 174.533638 
L 185.539285 171.634121 
L 184.420113 168.932201 
L 182.639768 166.612011 
L 180.319577 164.831665 
L 177.617658 163.712494 
L 174.718141 163.330765 
L 171.818624 163.712494 
L 169.116705 164.831665 
L 166.796514 166.612011 
L 165.016169 168.932201 
L 163.896997 171.634121 
L 163.515268 174.533638 
L 163.896997 177.433154 
L 165.016169 180.135074 
L 166.796514 182.455265 
L 169.116705 184.23561 
L 171.818624 185.354782 
L 174.718141 185.73651 
L 177.617658 185.354782 
L 180.319577 184.23561 
L 182.639768 182.455265 
L 184.420113 180.135074 
L 185.539285 177.433154 
L 185.921013 174.533638 
z
" clip-path="url(#pb83df7a2cd)" style="fill: #3366e6"/>
    <path d="M 174.451741 163.501297 
L 174.451741 140.27822 
L 174.984541 140.27822 
L 174.984541 163.501297 
z
" clip-path="url(#pb83df7a2cd)" style="fill: #4c4c4c"/>
    <path d="M 163.742076 175.181766 
L 140.617977 175.985641 
L 140.599466 175.453163 
L 163.723565 174.649287 
z
" clip-path="url(#pb83df7a2cd)" style="fill: #4c4c4c"/>
    <path d="M 217.615817 86.879782 
L 174.718141 45.289767 
L 166.138606 80.91468 
z
" clip-path="url(#pb83df7a2cd)" style="fill: #5f84bd; fill-opacity: 0.25"/>
    <path d="M 174.718141 131.452347 
L 131.820465 89.862333 
L 166.138606 80.91468 
z
" clip-path="url(#pb83df7a2cd)" style="fill: #5d82ba; fill-opacity: 0.25"/>
    <path d="M 88.922789 134.434898 
L 131.820465 176.024913 
L 80.343254 170.059811 
z
" clip-path="url(#pb83df7a2cd)" style="fill: #5f84bd; fill-opacity: 0.25"/>
    <path d="M 46.025113 179.007464 
L 88.922789 220.597479 
L 80.343254 170.059811 
z
" clip-path="url(#pb83df7a2cd)" style="fill: #5d82ba; fill-opacity: 0.25"/>
    <path d="M 131.820465 89.862333 
L 174.718141 45.289767 
L 166.138606 80.91468 
z
" clip-path="url(#pb83df7a2cd)" style="fill: #4d6c9b; fill-opacity: 0.25"/>
    <path d="M 226.578115 86.879782 
L 226.272732 84.560168 
L 225.377395 82.398633 
L 223.953119 80.54248 
L 222.096966 79.118204 
L 219.93543 78.222867 
L 217.615817 77.917484 
L 215.296203 78.222867 
L 213.134668 79.118204 
L 211.278515 80.54248 
L 209.854239 82.398633 
L 208.958902 84.560168 
L 208.653519 86.879782 
L 208.958902 89.199395 
L 209.854239 91.360931 
L 211.278515 93.217083 
L 213.134668 94.641359 
L 215.296203 95.536697 
L 217.615817 95.84208 
L 219.93543 95.536697 
L 222.096966 94.641359 
L 223.953119 93.217083 
L 225.377395 91.360931 
L 226.272732 89.199395 
L 226.578115 86.879782 
z
" clip-path="url(#pb83df7a2cd)" style="fill: #e61a1a"/>
    <path d="M 172.029451 163.823743 
L 172.81695 164.154207 
L 174.718141 164.291089 
L 176.619331 164.154207 
L 177.40683 163.823743 
L 177.40683 139.871694 
L 176.619331 139.541234 
L 174.718141 139.404353 
L 172.81695 139.541234 
L 172.029451 139.871694 
z
" clip-path="url(#pb83df7a2cd)" style="fill: #666666"/>
    <path d="M 183.680439 131.452347 
L 183.375056 129.132734 
L 182.479719 126.971198 
L 181.055443 125.115046 
L 179.19929 123.69077 
L 177.037754 122.795432 
L 174.718141 122.490049 
L 172.398527 122.795432 
L 170.236992 123.69077 
L 168.380839 125.115046 
L 166.956563 126.971198 
L 166.061226 129.132734 
L 165.755843 131.452347 
L 166.061226 133.771961 
L 166.956563 135.933496 
L 168.380839 137.789649 
L 170.236992 139.213925 
L 172.398527 140.109263 
L 174.718141 140.414645 
L 177.037754 140.109263 
L 179.19929 139.213925 
L 181.055443 137.789649 
L 182.479719 135.933496 
L 183.375056 133.771961 
L 183.680439 131.452347 
z
" clip-path="url(#pb83df7a2cd)" style="fill: #e61a1a"/>
    <path d="M 164.147305 177.591431 
L 164.486905 176.791651 
L 164.572852 174.886324 
L 164.3548 172.991565 
L 163.960481 172.217299 
L 140.110516 173.046408 
L 139.770919 173.846188 
L 139.684974 175.751515 
L 139.903024 177.646274 
L 140.29734 178.42054 
z
" clip-path="url(#pb83df7a2cd)" style="fill: #666666"/>
    <path d="M 88.922789 134.434898 
L 46.025113 179.007464 
L 80.343254 170.059811 
z
" clip-path="url(#pb83df7a2cd)" style="fill: #4d6c9b; fill-opacity: 0.25"/>
    <path d="M 140.782763 176.024913 
L 140.47738 173.7053 
L 139.582043 171.543764 
L 138.157767 169.687611 
L 136.301614 168.263335 
L 134.140078 167.367998 
L 131.820465 167.062615 
L 129.500851 167.367998 
L 127.339316 168.263335 
L 125.483163 169.687611 
L 124.058887 171.543764 
L 123.16355 173.7053 
L 122.858167 176.024913 
L 123.16355 178.344527 
L 124.058887 180.506062 
L 125.483163 182.362215 
L 127.339316 183.786491 
L 129.500851 184.681828 
L 131.820465 184.987211 
L 134.140078 184.681828 
L 136.301614 183.786491 
L 138.157767 182.362215 
L 139.582043 180.506062 
L 140.47738 178.344527 
L 140.782763 176.024913 
z
" clip-path="url(#pb83df7a2cd)" style="fill: #e61a1a"/>
    <path d="M 174.451741 122.626475 
L 174.451741 121.878727 
L 174.984541 121.878727 
L 174.984541 122.626475 
z
" clip-path="url(#pb83df7a2cd)" style="fill: #4c4c4c"/>
    <path d="M 217.615817 173.042362 
L 174.718141 217.614928 
L 183.297676 181.990015 
z
" clip-path="url(#pb83df7a2cd)" style="fill: #4d6c9b; fill-opacity: 0.25"/>
    <path d="M 97.885087 220.597479 
L 97.579704 218.277865 
L 96.684367 216.11633 
L 95.26009 214.260177 
L 93.403938 212.835901 
L 91.242402 211.940564 
L 88.922789 211.635181 
L 86.603175 211.940564 
L 84.44164 212.835901 
L 82.585487 214.260177 
L 81.161211 216.11633 
L 80.265874 218.277865 
L 79.960491 220.597479 
L 80.265874 222.917092 
L 81.161211 225.078628 
L 82.585487 226.934781 
L 84.44164 228.359057 
L 86.603175 229.254394 
L 88.922789 229.559777 
L 91.242402 229.254394 
L 93.403938 228.359057 
L 95.26009 226.934781 
L 96.684367 225.078628 
L 97.579704 222.917092 
L 97.885087 220.597479 
z
" clip-path="url(#pb83df7a2cd)" style="fill: #e61a1a"/>
    <path d="M 174.451741 121.878727 
L 174.451741 99.403398 
L 174.984541 99.403398 
L 174.984541 121.878727 
z
" clip-path="url(#pb83df7a2cd)" style="fill: #4c4c4c"/>
    <path d="M 123.041464 176.596663 
L 99.917365 177.400539 
L 99.898854 176.868061 
L 123.022953 176.064185 
z
" clip-path="url(#pb83df7a2cd)" style="fill: #4c4c4c"/>
    <path d="M 177.089956 176.242007 
L 177.981525 177.016859 
L 177.632022 177.419008 
L 176.740453 176.644156 
z
" clip-path="url(#pb83df7a2cd)" style="fill: #4c4c4c"/>
    <path d="M 170.821583 88.546802 
L 172.723864 89.156709 
L 174.544972 88.220558 
L 175.218126 86.286734 
L 174.349004 84.488045 
L 169.579003 80.342491 
L 167.676722 79.732584 
L 165.855614 80.668735 
L 165.182459 82.602559 
L 166.051583 84.401248 
z
" clip-path="url(#pb83df7a2cd)" style="fill: #666666"/>
    <path d="M 185.288977 85.313264 
L 184.949377 86.113044 
L 184.863429 88.018371 
L 185.081481 89.91313 
L 185.475801 90.687396 
L 209.325772 89.858287 
L 209.665376 89.058506 
L 209.751325 87.153179 
L 209.533272 85.258421 
L 209.138949 84.484154 
z
" clip-path="url(#pb83df7a2cd)" style="fill: #666666"/>
    <path d="M 172.029451 123.033001 
L 172.81695 123.363461 
L 174.718141 123.500342 
L 176.619331 123.363461 
L 177.40683 123.033001 
L 177.40683 99.080959 
L 176.619331 98.750502 
L 174.718141 98.613623 
L 172.81695 98.750502 
L 172.029451 99.080959 
z
" clip-path="url(#pb83df7a2cd)" style="fill: #666666"/>
    <path d="M 88.922789 134.434898 
L 131.820465 89.862333 
L 80.343254 83.897231 
z
" clip-path="url(#pb83df7a2cd)" style="fill: #6e9adc; fill-opacity: 0.25"/>
    <path d="M 174.718141 131.452347 
L 217.615817 173.042362 
L 183.297676 181.990015 
z
" clip-path="url(#pb83df7a2cd)" style="fill: #5d82ba; fill-opacity: 0.25"/>
    <path d="M 131.820465 176.024913 
L 174.718141 217.614928 
L 183.297676 181.990015 
z
" clip-path="url(#pb83df7a2cd)" style="fill: #5f84bd; fill-opacity: 0.25"/>
    <path d="M 185.921013 88.371057 
L 185.539285 85.47154 
L 184.420113 82.769621 
L 182.639768 80.44943 
L 180.319577 78.669085 
L 177.617658 77.549913 
L 174.718141 77.168185 
L 171.818624 77.549913 
L 169.116705 78.669085 
L 166.796514 80.44943 
L 165.016169 82.769621 
L 163.896997 85.47154 
L 163.515268 88.371057 
L 163.896997 91.270574 
L 165.016169 93.972493 
L 166.796514 96.292684 
L 169.116705 98.073029 
L 171.818624 99.192201 
L 174.718141 99.57393 
L 177.617658 99.192201 
L 180.319577 98.073029 
L 182.639768 96.292684 
L 184.420113 93.972493 
L 185.539285 91.270574 
L 185.921013 88.371057 
z
" clip-path="url(#pb83df7a2cd)" style="fill: #3366e6"/>
    <path d="M 177.981525 177.016859 
L 178.324706 177.315114 
L 177.975203 177.717263 
L 177.632022 177.419008 
z
" clip-path="url(#pb83df7a2cd)" style="fill: #4c4c4c"/>
    <path d="M 85.026234 177.691936 
L 86.928514 178.301842 
L 88.749622 177.365691 
L 89.422777 175.431867 
L 88.553654 173.633178 
L 83.783649 169.487621 
L 81.881368 168.877714 
L 80.06026 169.813865 
L 79.387105 171.747689 
L 80.256229 173.546378 
z
" clip-path="url(#pb83df7a2cd)" style="fill: #666666"/>
    <path d="M 123.530414 179.003418 
L 123.87001 178.203638 
L 123.955956 176.298311 
L 123.737906 174.403553 
L 123.34359 173.629286 
L 99.493633 174.458395 
L 99.15404 175.258175 
L 99.068096 177.163502 
L 99.286145 179.058261 
L 99.680457 179.832527 
z
" clip-path="url(#pb83df7a2cd)" style="fill: #666666"/>
    <path d="M 91.611478 188.226083 
L 90.823979 187.895619 
L 88.922789 187.758736 
L 87.021598 187.895619 
L 86.234099 188.226083 
L 86.234099 212.178138 
L 87.021598 212.508606 
L 88.922789 212.64549 
L 90.823979 212.508606 
L 91.611478 212.178138 
z
" clip-path="url(#pb83df7a2cd)" style="fill: #666666"/>
    <path d="M 100.125661 177.516189 
L 99.743933 174.616672 
L 98.624761 171.914752 
L 96.844416 169.594561 
L 94.524225 167.814216 
L 91.822306 166.695045 
L 88.922789 166.313316 
L 86.023272 166.695045 
L 83.321352 167.814216 
L 81.001162 169.594561 
L 79.220816 171.914752 
L 78.101645 174.616672 
L 77.719916 177.516189 
L 78.101645 180.415705 
L 79.220816 183.117625 
L 81.001162 185.437816 
L 83.321352 187.218161 
L 86.023272 188.337333 
L 88.922789 188.719061 
L 91.822306 188.337333 
L 94.524225 187.218161 
L 96.844416 185.437816 
L 98.624761 183.117625 
L 99.743933 180.415705 
L 100.125661 177.516189 
z
" clip-path="url(#pb83df7a2cd)" style="fill: #3366e6"/>
    <path d="M 163.742076 89.019185 
L 140.617977 89.823061 
L 140.599466 89.290582 
L 163.723565 88.486707 
z
" clip-path="url(#pb83df7a2cd)" style="fill: #4c4c4c"/>
    <path d="M 178.324706 177.315114 
L 179.525841 178.359007 
L 179.176338 178.761156 
L 177.975203 177.717263 
z
" clip-path="url(#pb83df7a2cd)" style="fill: #4c4c4c"/>
    <path d="M 88.656389 166.483848 
L 88.656389 144.008518 
L 89.189189 144.008518 
L 89.189189 166.483848 
z
" clip-path="url(#pb83df7a2cd)" style="fill: #4c4c4c"/>
    <path d="M 172.029451 77.661156 
L 172.81695 77.991612 
L 174.718141 78.128491 
L 176.619331 77.991612 
L 177.40683 77.661156 
L 177.40683 53.709119 
L 176.619331 53.378666 
L 174.718141 53.241788 
L 172.81695 53.378666 
L 172.029451 53.709119 
z
" clip-path="url(#pb83df7a2cd)" style="fill: #666666"/>
    <path d="M 131.820465 89.862333 
L 88.922789 48.272318 
L 80.343254 83.897231 
z
" clip-path="url(#pb83df7a2cd)" style="fill: #5f84bd; fill-opacity: 0.25"/>
    <path d="M 88.922789 134.434898 
L 46.025113 92.844883 
L 80.343254 83.897231 
z
" clip-path="url(#pb83df7a2cd)" style="fill: #5d82ba; fill-opacity: 0.25"/>
    <path d="M 174.718141 131.452347 
L 131.820465 176.024913 
L 183.297676 181.990015 
z
" clip-path="url(#pb83df7a2cd)" style="fill: #6e9adc; fill-opacity: 0.25"/>
    <path d="M 183.680439 45.289767 
L 183.375056 42.970153 
L 182.479719 40.808618 
L 181.055443 38.952465 
L 179.19929 37.528189 
L 177.037754 36.632852 
L 174.718141 36.327469 
L 172.398527 36.632852 
L 170.236992 37.528189 
L 168.380839 38.952465 
L 166.956563 40.808618 
L 166.061226 42.970153 
L 165.755843 45.289767 
L 166.061226 47.60938 
L 166.956563 49.770916 
L 168.380839 51.627069 
L 170.236992 53.051345 
L 172.398527 53.946682 
L 174.718141 54.252065 
L 177.037754 53.946682 
L 179.19929 53.051345 
L 181.055443 51.627069 
L 182.479719 49.770916 
L 183.375056 47.60938 
L 183.680439 45.289767 
z
" clip-path="url(#pb83df7a2cd)" style="fill: #e61a1a"/>
    <path d="M 88.656389 144.008518 
L 88.656389 143.260771 
L 89.189189 143.260771 
L 89.189189 144.008518 
z
" clip-path="url(#pb83df7a2cd)" style="fill: #4c4c4c"/>
    <path d="M 179.525841 178.359007 
L 179.697432 178.508135 
L 179.347929 178.910283 
L 179.176338 178.761156 
z
" clip-path="url(#pb83df7a2cd)" style="fill: #4c4c4c"/>
    <path d="M 164.147305 91.42885 
L 164.486905 90.62907 
L 164.572853 88.723743 
L 164.354801 86.828985 
L 163.960481 86.054718 
L 140.110516 86.883827 
L 139.770919 87.683608 
L 139.684973 89.588934 
L 139.903023 91.483693 
L 140.297339 92.25796 
z
" clip-path="url(#pb83df7a2cd)" style="fill: #666666"/>
    <path d="M 46.025113 92.844883 
L 88.922789 48.272318 
L 80.343254 83.897231 
z
" clip-path="url(#pb83df7a2cd)" style="fill: #4d6c9b; fill-opacity: 0.25"/>
    <path d="M 140.782763 89.862333 
L 140.47738 87.542719 
L 139.582043 85.381184 
L 138.157767 83.525031 
L 136.301614 82.100755 
L 134.140078 81.205417 
L 131.820465 80.900034 
L 129.500851 81.205417 
L 127.339316 82.100755 
L 125.483163 83.525031 
L 124.058887 85.381184 
L 123.16355 87.542719 
L 122.858167 89.862333 
L 123.16355 92.181946 
L 124.058887 94.343482 
L 125.483163 96.199634 
L 127.339316 97.62391 
L 129.500851 98.519248 
L 131.820465 98.824631 
L 134.140078 98.519248 
L 136.301614 97.62391 
L 138.157767 96.199634 
L 139.582043 94.343482 
L 140.47738 92.181946 
L 140.782763 89.862333 
z
" clip-path="url(#pb83df7a2cd)" style="fill: #e61a1a"/>
    <path d="M 179.697432 178.508135 
L 179.869023 178.657262 
L 179.51952 179.059411 
L 179.347929 178.910283 
z
" clip-path="url(#pb83df7a2cd)" style="fill: #4c4c4c"/>
    <path d="M 86.234099 166.806294 
L 87.021598 167.136758 
L 88.922789 167.273641 
L 90.823979 167.136758 
L 91.611478 166.806294 
L 91.611478 142.854244 
L 90.823979 142.523784 
L 88.922789 142.386903 
L 87.021598 142.523784 
L 86.234099 142.854244 
z
" clip-path="url(#pb83df7a2cd)" style="fill: #666666"/>
    <path d="M 174.718141 131.452347 
L 217.615817 86.879782 
L 183.297676 95.827434 
z
" clip-path="url(#pb83df7a2cd)" style="fill: #4d6c9b; fill-opacity: 0.25"/>
    <path d="M 97.885087 134.434898 
L 97.579704 132.115285 
L 96.684367 129.953749 
L 95.26009 128.097597 
L 93.403938 126.67332 
L 91.242402 125.777983 
L 88.922789 125.4726 
L 86.603175 125.777983 
L 84.44164 126.67332 
L 82.585487 128.097597 
L 81.161211 129.953749 
L 80.265874 132.115285 
L 79.960491 134.434898 
L 80.265874 136.754512 
L 81.161211 138.916047 
L 82.585487 140.7722 
L 84.44164 142.196476 
L 86.603175 143.091813 
L 88.922789 143.397196 
L 91.242402 143.091813 
L 93.403938 142.196476 
L 95.26009 140.7722 
L 96.684367 138.916047 
L 97.579704 136.754512 
L 97.885087 134.434898 
z
" clip-path="url(#pb83df7a2cd)" style="fill: #e61a1a"/>
    <path d="M 179.869023 178.657262 
L 180.040613 178.80639 
L 179.691111 179.208538 
L 179.51952 179.059411 
z
" clip-path="url(#pb83df7a2cd)" style="fill: #4c4c4c"/>
    <path d="M 78.351945 180.573982 
L 78.691537 179.774202 
L 78.777482 177.868875 
L 78.559433 175.974117 
L 78.165121 175.19985 
L 54.31517 176.028959 
L 53.975581 176.828739 
L 53.889638 178.734065 
L 54.107685 180.628824 
L 54.501994 181.403091 
z
" clip-path="url(#pb83df7a2cd)" style="fill: #666666"/>
    <path d="M 54.987411 179.007464 
L 54.682028 176.687851 
L 53.78669 174.526315 
L 52.362414 172.670162 
L 50.506262 171.245886 
L 48.344726 170.350549 
L 46.025113 170.045166 
L 43.705499 170.350549 
L 41.543964 171.245886 
L 39.687811 172.670162 
L 38.263535 174.526315 
L 37.368197 176.687851 
L 37.062815 179.007464 
L 37.368197 181.327077 
L 38.263535 183.488613 
L 39.687811 185.344766 
L 41.543964 186.769042 
L 43.705499 187.664379 
L 46.025113 187.969762 
L 48.344726 187.664379 
L 50.506262 186.769042 
L 52.362414 185.344766 
L 53.78669 183.488613 
L 54.682028 181.327077 
L 54.987411 179.007464 
z
" clip-path="url(#pb83df7a2cd)" style="fill: #e61a1a"/>
    <path d="M 123.041464 90.434083 
L 99.917365 91.237958 
L 99.898854 90.70548 
L 123.022953 89.901604 
z
" clip-path="url(#pb83df7a2cd)" style="fill: #4c4c4c"/>
    <path d="M 88.656389 125.609026 
L 88.656389 102.385949 
L 89.189189 102.385949 
L 89.189189 125.609026 
z
" clip-path="url(#pb83df7a2cd)" style="fill: #4c4c4c"/>
    <path d="M 180.040613 178.80639 
L 181.413339 179.99941 
L 181.063836 180.401559 
L 179.691111 179.208538 
z
" clip-path="url(#pb83df7a2cd)" style="fill: #4c4c4c"/>
    <path d="M 177.089956 90.079426 
L 178.324706 91.152534 
L 177.975203 91.554682 
L 176.740453 90.481575 
z
" clip-path="url(#pb83df7a2cd)" style="fill: #4c4c4c"/>
    <path d="M 91.294604 179.224558 
L 92.186173 179.99941 
L 91.83667 180.401559 
L 90.945101 179.626706 
z
" clip-path="url(#pb83df7a2cd)" style="fill: #4c4c4c"/>
    <path d="M 85.026254 91.529372 
L 86.928535 92.13928 
L 88.749643 91.203129 
L 89.422798 89.269305 
L 88.553674 87.470615 
L 83.783633 83.325027 
L 81.881352 82.715119 
L 80.060243 83.65127 
L 79.387089 85.585094 
L 80.256213 87.383784 
z
" clip-path="url(#pb83df7a2cd)" style="fill: #666666"/>
    <path d="M 99.493633 88.295814 
L 99.15404 89.095594 
L 99.068095 91.000921 
L 99.286144 92.89568 
L 99.680457 93.669947 
L 123.530414 92.840838 
L 123.870011 92.041058 
L 123.955957 90.135731 
L 123.737906 88.240972 
L 123.34359 87.466705 
z
" clip-path="url(#pb83df7a2cd)" style="fill: #666666"/>
    <path d="M 91.611478 102.063509 
L 90.823979 101.733053 
L 88.922789 101.596173 
L 87.021598 101.733053 
L 86.234099 102.063509 
L 86.234099 126.015552 
L 87.021598 126.346012 
L 88.922789 126.482893 
L 90.823979 126.346012 
L 91.611478 126.015552 
z
" clip-path="url(#pb83df7a2cd)" style="fill: #666666"/>
    <path d="M 131.820465 176.024913 
L 88.922789 220.597479 
L 97.502324 184.972566 
z
" clip-path="url(#pb83df7a2cd)" style="fill: #4d6c9b; fill-opacity: 0.25"/>
    <path d="M 217.615817 86.879782 
L 174.718141 45.289767 
L 183.297676 95.827434 
z
" clip-path="url(#pb83df7a2cd)" style="fill: #5d82ba; fill-opacity: 0.25"/>
    <path d="M 174.718141 131.452347 
L 131.820465 89.862333 
L 183.297676 95.827434 
z
" clip-path="url(#pb83df7a2cd)" style="fill: #5f84bd; fill-opacity: 0.25"/>
    <path d="M 88.922789 134.434898 
L 131.820465 176.024913 
L 97.502324 184.972566 
z
" clip-path="url(#pb83df7a2cd)" style="fill: #5d82ba; fill-opacity: 0.25"/>
    <path d="M 46.025113 179.007464 
L 88.922789 220.597479 
L 97.502324 184.972566 
z
" clip-path="url(#pb83df7a2cd)" style="fill: #5f84bd; fill-opacity: 0.25"/>
    <path d="M 100.125661 91.353608 
L 99.743933 88.454091 
L 98.624761 85.752172 
L 96.844416 83.431981 
L 94.524225 81.651636 
L 91.822306 80.532464 
L 88.922789 80.150735 
L 86.023272 80.532464 
L 83.321352 81.651636 
L 81.001162 83.431981 
L 79.220816 85.752172 
L 78.101645 88.454091 
L 77.719916 91.353608 
L 78.101645 94.253125 
L 79.220816 96.955044 
L 81.001162 99.275235 
L 83.321352 101.05558 
L 86.023272 102.174752 
L 88.922789 102.556481 
L 91.822306 102.174752 
L 94.524225 101.05558 
L 96.844416 99.275235 
L 98.624761 96.955044 
L 99.743933 94.253125 
L 100.125661 91.353608 
z
" clip-path="url(#pb83df7a2cd)" style="fill: #3366e6"/>
    <path d="M 181.413339 179.99941 
L 181.714776 180.261386 
L 181.365273 180.663534 
L 181.063836 180.401559 
z
" clip-path="url(#pb83df7a2cd)" style="fill: #4c4c4c"/>
    <path d="M 178.324706 91.152534 
L 179.869023 92.494682 
L 179.51952 92.89683 
L 177.975203 91.554682 
z
" clip-path="url(#pb83df7a2cd)" style="fill: #4c4c4c"/>
    <path d="M 92.186173 179.99941 
L 93.730489 181.341558 
L 93.380986 181.743707 
L 91.83667 180.401559 
z
" clip-path="url(#pb83df7a2cd)" style="fill: #4c4c4c"/>
    <path d="M 86.234099 80.643707 
L 87.021598 80.974163 
L 88.922789 81.111043 
L 90.823979 80.974163 
L 91.611478 80.643707 
L 91.611478 56.69167 
L 90.823979 56.361217 
L 88.922789 56.224339 
L 87.021598 56.361217 
L 86.234099 56.69167 
z
" clip-path="url(#pb83df7a2cd)" style="fill: #666666"/>
    <path d="M 131.820465 89.862333 
L 174.718141 45.289767 
L 183.297676 95.827434 
z
" clip-path="url(#pb83df7a2cd)" style="fill: #6e9adc; fill-opacity: 0.25"/>
    <path d="M 88.922789 134.434898 
L 46.025113 179.007464 
L 97.502324 184.972566 
z
" clip-path="url(#pb83df7a2cd)" style="fill: #6e9adc; fill-opacity: 0.25"/>
    <path d="M 97.885087 48.272318 
L 97.579704 45.952704 
L 96.684367 43.791169 
L 95.26009 41.935016 
L 93.403938 40.51074 
L 91.242402 39.615403 
L 88.922789 39.31002 
L 86.603175 39.615403 
L 84.44164 40.51074 
L 82.585487 41.935016 
L 81.161211 43.791169 
L 80.265874 45.952704 
L 79.960491 48.272318 
L 80.265874 50.591931 
L 81.161211 52.753467 
L 82.585487 54.609619 
L 84.44164 56.033895 
L 86.603175 56.929233 
L 88.922789 57.234616 
L 91.242402 56.929233 
L 93.403938 56.033895 
L 95.26009 54.609619 
L 96.684367 52.753467 
L 97.579704 50.591931 
L 97.885087 48.272318 
z
" clip-path="url(#pb83df7a2cd)" style="fill: #e61a1a"/>
    <path d="M 179.869023 92.494682 
L 180.040613 92.643809 
L 179.691111 93.045958 
L 179.51952 92.89683 
z
" clip-path="url(#pb83df7a2cd)" style="fill: #4c4c4c"/>
    <path d="M 93.730489 181.341558 
L 93.90208 181.490685 
L 93.552577 181.892834 
L 93.380986 181.743707 
z
" clip-path="url(#pb83df7a2cd)" style="fill: #4c4c4c"/>
    <path d="M 78.351945 94.411402 
L 78.691538 93.611622 
L 78.777482 91.706295 
L 78.559433 89.811536 
L 78.165121 89.037269 
L 54.31517 89.866378 
L 53.97558 90.666158 
L 53.889637 92.571485 
L 54.107685 94.466243 
L 54.501994 95.240511 
z
" clip-path="url(#pb83df7a2cd)" style="fill: #666666"/>
    <path d="M 54.987411 92.844883 
L 54.682028 90.52527 
L 53.78669 88.363734 
L 52.362414 86.507582 
L 50.506262 85.083306 
L 48.344726 84.187968 
L 46.025113 83.882585 
L 43.705499 84.187968 
L 41.543964 85.083306 
L 39.687811 86.507582 
L 38.263535 88.363734 
L 37.368197 90.52527 
L 37.062815 92.844883 
L 37.368197 95.164497 
L 38.263535 97.326032 
L 39.687811 99.182185 
L 41.543964 100.606461 
L 43.705499 101.501799 
L 46.025113 101.807181 
L 48.344726 101.501799 
L 50.506262 100.606461 
L 52.362414 99.182185 
L 53.78669 97.326032 
L 54.682028 95.164497 
L 54.987411 92.844883 
z
" clip-path="url(#pb83df7a2cd)" style="fill: #e61a1a"/>
    <path d="M 180.040613 92.643809 
L 180.383795 92.942064 
L 180.034292 93.344213 
L 179.691111 93.045958 
z
" clip-path="url(#pb83df7a2cd)" style="fill: #4c4c4c"/>
    <path d="M 93.90208 181.490685 
L 94.245261 181.788941 
L 93.895758 182.191089 
L 93.552577 181.892834 
z
" clip-path="url(#pb83df7a2cd)" style="fill: #4c4c4c"/>
    <path d="M 178.614718 174.35791 
L 176.712439 173.748004 
L 174.891331 174.684156 
L 174.218176 176.617979 
L 175.087298 178.416667 
L 179.857257 182.562185 
L 181.759536 183.17209 
L 183.580643 182.235939 
L 184.253799 180.302115 
L 183.384677 178.503427 
z
" clip-path="url(#pb83df7a2cd)" style="fill: #666666"/>
    <path d="M 88.922789 134.434898 
L 131.820465 89.862333 
L 97.502324 98.809985 
z
" clip-path="url(#pb83df7a2cd)" style="fill: #4d6c9b; fill-opacity: 0.25"/>
    <path d="M 192.259974 181.990015 
L 191.954591 179.670401 
L 191.059254 177.508866 
L 189.634978 175.652713 
L 187.778825 174.228437 
L 185.617289 173.3331 
L 183.297676 173.027717 
L 180.978063 173.3331 
L 178.816527 174.228437 
L 176.960374 175.652713 
L 175.536098 177.508866 
L 174.640761 179.670401 
L 174.335378 181.990015 
L 174.640761 184.309628 
L 175.536098 186.471164 
L 176.960374 188.327317 
L 178.816527 189.751593 
L 180.978063 190.64693 
L 183.297676 190.952313 
L 185.617289 190.64693 
L 187.778825 189.751593 
L 189.634978 188.327317 
L 191.059254 186.471164 
L 191.954591 184.309628 
L 192.259974 181.990015 
z
" clip-path="url(#pb83df7a2cd)" style="fill: #e61a1a"/>
    <path d="M 180.383795 92.942064 
L 181.714776 94.098805 
L 181.365273 94.500954 
L 180.034292 93.344213 
z
" clip-path="url(#pb83df7a2cd)" style="fill: #4c4c4c"/>
    <path d="M 94.245261 181.788941 
L 95.919424 183.243937 
L 95.569921 183.646085 
L 93.895758 182.191089 
z
" clip-path="url(#pb83df7a2cd)" style="fill: #4c4c4c"/>
    <path d="M 91.294604 93.061977 
L 94.245261 95.62636 
L 93.895758 96.028509 
L 90.945101 93.464126 
z
" clip-path="url(#pb83df7a2cd)" style="fill: #4c4c4c"/>
    <path d="M 185.230079 183.316495 
L 186.56106 184.473236 
L 186.211557 184.875385 
L 184.880576 183.718644 
z
" clip-path="url(#pb83df7a2cd)" style="fill: #4c4c4c"/>
    <path d="M 178.614698 88.195312 
L 176.712418 87.585406 
L 174.89131 88.521557 
L 174.218155 90.45538 
L 175.087278 92.254069 
L 179.857273 96.399618 
L 181.759553 97.009524 
L 183.580661 96.073373 
L 184.253816 94.139549 
L 183.384693 92.34086 
z
" clip-path="url(#pb83df7a2cd)" style="fill: #666666"/>
    <path d="M 131.820465 89.862333 
L 88.922789 48.272318 
L 97.502324 98.809985 
z
" clip-path="url(#pb83df7a2cd)" style="fill: #5d82ba; fill-opacity: 0.25"/>
    <path d="M 88.922789 134.434898 
L 46.025113 92.844883 
L 97.502324 98.809985 
z
" clip-path="url(#pb83df7a2cd)" style="fill: #5f84bd; fill-opacity: 0.25"/>
    <path d="M 46.025113 92.844883 
L 88.922789 48.272318 
L 97.502324 98.809985 
z
" clip-path="url(#pb83df7a2cd)" style="fill: #6e9adc; fill-opacity: 0.25"/>
    <path d="M 192.259974 95.827434 
L 191.954591 93.507821 
L 191.059254 91.346285 
L 189.634978 89.490133 
L 187.778825 88.065856 
L 185.617289 87.170519 
L 183.297676 86.865136 
L 180.978063 87.170519 
L 178.816527 88.065856 
L 176.960374 89.490133 
L 175.536098 91.346285 
L 174.640761 93.507821 
L 174.335378 95.827434 
L 174.640761 98.147048 
L 175.536098 100.308583 
L 176.960374 102.164736 
L 178.816527 103.589012 
L 180.978063 104.484349 
L 183.297676 104.789732 
L 185.617289 104.484349 
L 187.778825 103.589012 
L 189.634978 102.164736 
L 191.059254 100.308583 
L 191.954591 98.147048 
L 192.259974 95.827434 
z
" clip-path="url(#pb83df7a2cd)" style="fill: #e61a1a"/>
    <path d="M 94.245261 95.62636 
L 94.416852 95.775487 
L 94.067349 96.177636 
L 93.895758 96.028509 
z
" clip-path="url(#pb83df7a2cd)" style="fill: #4c4c4c"/>
    <path d="M 186.56106 184.473236 
L 186.732651 184.622364 
L 186.383148 185.024513 
L 186.211557 184.875385 
z
" clip-path="url(#pb83df7a2cd)" style="fill: #4c4c4c"/>
    <path d="M 156.084022 140.4 
L 155.549602 136.340676 
L 153.982761 132.557989 
L 151.490278 129.309722 
L 148.242011 126.817239 
L 144.459324 125.250398 
L 140.4 124.715978 
L 136.340676 125.250398 
L 132.557989 126.817239 
L 129.309722 129.309722 
L 126.817239 132.557989 
L 125.250398 136.340676 
L 124.715978 140.4 
L 125.250398 144.459324 
L 126.817239 148.242011 
L 129.309722 151.490278 
L 132.557989 153.982761 
L 136.340676 155.549602 
L 140.4 156.084022 
L 144.459324 155.549602 
L 148.242011 153.982761 
L 151.490278 151.490278 
L 153.982761 148.242011 
L 155.549602 144.459324 
L 156.084022 140.4 
z
" clip-path="url(#pb83df7a2cd)" style="fill: #00cc33"/>
    <path d="M 186.732651 184.622364 
L 186.904242 184.771491 
L 186.554739 185.17364 
L 186.383148 185.024513 
z
" clip-path="url(#pb83df7a2cd)" style="fill: #4c4c4c"/>
    <path d="M 94.416852 95.775487 
L 94.588443 95.924615 
L 94.23894 96.326764 
L 94.067349 96.177636 
z
" clip-path="url(#pb83df7a2cd)" style="fill: #4c4c4c"/>
    <path d="M 92.819344 177.340442 
L 90.917063 176.730535 
L 89.095956 177.666686 
L 88.422801 179.60051 
L 89.291924 181.399199 
L 94.061922 185.544751 
L 95.964203 186.154657 
L 97.78531 185.218506 
L 98.458465 183.284682 
L 97.589342 181.485993 
z
" clip-path="url(#pb83df7a2cd)" style="fill: #666666"/>
    <path d="M 106.464622 184.972566 
L 106.159239 182.652952 
L 105.263902 180.491417 
L 103.839626 178.635264 
L 101.983473 177.210988 
L 99.821937 176.315651 
L 97.502324 176.010268 
L 95.182711 176.315651 
L 93.021175 177.210988 
L 91.165022 178.635264 
L 89.740746 180.491417 
L 88.845409 182.652952 
L 88.540026 184.972566 
L 88.845409 187.292179 
L 89.740746 189.453715 
L 91.165022 191.309867 
L 93.021175 192.734144 
L 95.182711 193.629481 
L 97.502324 193.934864 
L 99.821937 193.629481 
L 101.983473 192.734144 
L 103.839626 191.309867 
L 105.263902 189.453715 
L 106.159239 187.292179 
L 106.464622 184.972566 
z
" clip-path="url(#pb83df7a2cd)" style="fill: #e61a1a"/>
    <path d="M 94.588443 95.924615 
L 95.919424 97.081356 
L 95.569921 97.483505 
L 94.23894 96.326764 
z
" clip-path="url(#pb83df7a2cd)" style="fill: #4c4c4c"/>
    <path d="M 186.904242 184.771491 
L 189.854899 187.335874 
L 189.505396 187.738023 
L 186.554739 185.17364 
z
" clip-path="url(#pb83df7a2cd)" style="fill: #4c4c4c"/>
    <path d="M 185.230079 97.153915 
L 186.904242 98.608911 
L 186.554739 99.011059 
L 184.880576 97.556063 
z
" clip-path="url(#pb83df7a2cd)" style="fill: #4c4c4c"/>
    <path d="M 99.434727 186.299046 
L 100.765708 187.455787 
L 100.416205 187.857936 
L 99.085224 186.701195 
z
" clip-path="url(#pb83df7a2cd)" style="fill: #4c4c4c"/>
    <path d="M 92.819324 91.177844 
L 90.917042 90.567936 
L 89.095934 91.504087 
L 88.42278 93.437911 
L 89.291904 95.236601 
L 94.061938 99.382184 
L 95.964219 99.992091 
L 97.785327 99.05594 
L 98.458482 97.122116 
L 97.589358 95.323426 
z
" clip-path="url(#pb83df7a2cd)" style="fill: #666666"/>
    <path d="M 234.774887 187.955117 
L 191.877211 232.527682 
L 183.297676 181.990015 
z
" clip-path="url(#pb83df7a2cd)" style="fill: #6e9adc; fill-opacity: 0.25"/>
    <path d="M 191.877211 146.365102 
L 234.774887 187.955117 
L 183.297676 181.990015 
z
" clip-path="url(#pb83df7a2cd)" style="fill: #5f84bd; fill-opacity: 0.25"/>
    <path d="M 148.979535 190.937667 
L 191.877211 232.527682 
L 183.297676 181.990015 
z
" clip-path="url(#pb83df7a2cd)" style="fill: #5d82ba; fill-opacity: 0.25"/>
    <path d="M 106.464622 98.809985 
L 106.159239 96.490372 
L 105.263902 94.328836 
L 103.839626 92.472683 
L 101.983473 91.048407 
L 99.821937 90.15307 
L 97.502324 89.847687 
L 95.182711 90.15307 
L 93.021175 91.048407 
L 91.165022 92.472683 
L 89.740746 94.328836 
L 88.845409 96.490372 
L 88.540026 98.809985 
L 88.845409 101.129599 
L 89.740746 103.291134 
L 91.165022 105.147287 
L 93.021175 106.571563 
L 95.182711 107.4669 
L 97.502324 107.772283 
L 99.821937 107.4669 
L 101.983473 106.571563 
L 103.839626 105.147287 
L 105.263902 103.291134 
L 106.159239 101.129599 
L 106.464622 98.809985 
z
" clip-path="url(#pb83df7a2cd)" style="fill: #e61a1a"/>
    <path d="M 186.904242 98.608911 
L 187.247423 98.907166 
L 186.89792 99.309315 
L 186.554739 99.011059 
z
" clip-path="url(#pb83df7a2cd)" style="fill: #4c4c4c"/>
    <path d="M 100.765708 187.455787 
L 101.108889 187.754042 
L 100.759387 188.156191 
L 100.416205 187.857936 
z
" clip-path="url(#pb83df7a2cd)" style="fill: #4c4c4c"/>
    <path d="M 191.877211 146.365102 
L 148.979535 190.937667 
L 183.297676 181.990015 
z
" clip-path="url(#pb83df7a2cd)" style="fill: #4d6c9b; fill-opacity: 0.25"/>
    <path d="M 243.737185 187.955117 
L 243.431803 185.635503 
L 242.536465 183.473968 
L 241.112189 181.617815 
L 239.256036 180.193539 
L 237.094501 179.298201 
L 234.774887 178.992819 
L 232.455274 179.298201 
L 230.293738 180.193539 
L 228.437586 181.617815 
L 227.01331 183.473968 
L 226.117972 185.635503 
L 225.812589 187.955117 
L 226.117972 190.27473 
L 227.01331 192.436266 
L 228.437586 194.292418 
L 230.293738 195.716694 
L 232.455274 196.612032 
L 234.774887 196.917415 
L 237.094501 196.612032 
L 239.256036 195.716694 
L 241.112189 194.292418 
L 242.536465 192.436266 
L 243.431803 190.27473 
L 243.737185 187.955117 
z
" clip-path="url(#pb83df7a2cd)" style="fill: #e61a1a"/>
    <path d="M 187.247423 98.907166 
L 187.419014 99.056293 
L 187.069511 99.458442 
L 186.89792 99.309315 
z
" clip-path="url(#pb83df7a2cd)" style="fill: #4c4c4c"/>
    <path d="M 101.108889 187.754042 
L 101.28048 187.90317 
L 100.930977 188.305318 
L 100.759387 188.156191 
z
" clip-path="url(#pb83df7a2cd)" style="fill: #4c4c4c"/>
    <path d="M 200.839509 232.527682 
L 200.534126 230.208069 
L 199.638789 228.046533 
L 198.214513 226.190381 
L 196.35836 224.766105 
L 194.196825 223.870767 
L 191.877211 223.565384 
L 189.557598 223.870767 
L 187.396062 224.766105 
L 185.53991 226.190381 
L 184.115633 228.046533 
L 183.220296 230.208069 
L 182.914913 232.527682 
L 183.220296 234.847296 
L 184.115633 237.008831 
L 185.53991 238.864984 
L 187.396062 240.28926 
L 189.557598 241.184597 
L 191.877211 241.48998 
L 194.196825 241.184597 
L 196.35836 240.28926 
L 198.214513 238.864984 
L 199.638789 237.008831 
L 200.534126 234.847296 
L 200.839509 232.527682 
z
" clip-path="url(#pb83df7a2cd)" style="fill: #e61a1a"/>
    <path d="M 187.419014 99.056293 
L 188.96333 100.398441 
L 188.613827 100.80059 
L 187.069511 99.458442 
z
" clip-path="url(#pb83df7a2cd)" style="fill: #4c4c4c"/>
    <path d="M 101.28048 187.90317 
L 102.824797 189.245318 
L 102.475294 189.647466 
L 100.930977 188.305318 
z
" clip-path="url(#pb83df7a2cd)" style="fill: #4c4c4c"/>
    <path d="M 99.434727 100.136466 
L 99.736164 100.398441 
L 99.386661 100.80059 
L 99.085224 100.538614 
z
" clip-path="url(#pb83df7a2cd)" style="fill: #4c4c4c"/>
    <path d="M 186.738095 181.417845 
L 184.835816 180.80794 
L 183.014709 181.744091 
L 182.341553 183.677914 
L 183.210675 185.476602 
L 187.980626 189.622113 
L 189.882905 190.232018 
L 191.704012 189.295867 
L 192.377168 187.362043 
L 191.508046 185.563355 
z
" clip-path="url(#pb83df7a2cd)" style="fill: #666666"/>
    <path d="M 202.448046 186.388599 
L 202.108445 187.188379 
L 202.022497 189.093706 
L 202.240549 190.988465 
L 202.63487 191.762731 
L 226.484844 190.933621 
L 226.824449 190.133841 
L 226.910398 188.228514 
L 226.692344 186.333755 
L 226.29802 185.559489 
z
" clip-path="url(#pb83df7a2cd)" style="fill: #666666"/>
    <path d="M 194.565901 200.156285 
L 193.778402 199.82582 
L 191.877211 199.688937 
L 189.976021 199.82582 
L 189.188522 200.156285 
L 189.188522 224.108343 
L 189.976021 224.438811 
L 191.877211 224.575695 
L 193.778402 224.438811 
L 194.565901 224.108343 
z
" clip-path="url(#pb83df7a2cd)" style="fill: #666666"/>
    <path d="M 191.877211 146.365102 
L 234.774887 101.792536 
L 183.297676 95.827434 
z
" clip-path="url(#pb83df7a2cd)" style="fill: #6e9adc; fill-opacity: 0.25"/>
    <path d="M 148.979535 190.937667 
L 106.081859 235.510233 
L 97.502324 184.972566 
z
" clip-path="url(#pb83df7a2cd)" style="fill: #6e9adc; fill-opacity: 0.25"/>
    <path d="M 203.080084 189.446392 
L 202.698355 186.546875 
L 201.579184 183.844956 
L 199.798838 181.524765 
L 197.478648 179.74442 
L 194.776728 178.625248 
L 191.877211 178.243519 
L 188.977694 178.625248 
L 186.275775 179.74442 
L 183.955584 181.524765 
L 182.175239 183.844956 
L 181.056067 186.546875 
L 180.674339 189.446392 
L 181.056067 192.345909 
L 182.175239 195.047828 
L 183.955584 197.368019 
L 186.275775 199.148364 
L 188.977694 200.267536 
L 191.877211 200.649265 
L 194.776728 200.267536 
L 197.478648 199.148364 
L 199.798838 197.368019 
L 201.579184 195.047828 
L 202.698355 192.345909 
L 203.080084 189.446392 
z
" clip-path="url(#pb83df7a2cd)" style="fill: #3366e6"/>
    <path d="M 188.96333 100.398441 
L 189.854899 101.173294 
L 189.505396 101.575442 
L 188.613827 100.80059 
z
" clip-path="url(#pb83df7a2cd)" style="fill: #4c4c4c"/>
    <path d="M 102.824797 189.245318 
L 104.059547 190.318425 
L 103.710044 190.720574 
L 102.475294 189.647466 
z
" clip-path="url(#pb83df7a2cd)" style="fill: #4c4c4c"/>
    <path d="M 99.736164 100.398441 
L 101.108889 101.591462 
L 100.759387 101.99361 
L 99.386661 100.80059 
z
" clip-path="url(#pb83df7a2cd)" style="fill: #4c4c4c"/>
    <path d="M 191.610811 178.414051 
L 191.610811 155.190974 
L 192.143611 155.190974 
L 192.143611 178.414051 
z
" clip-path="url(#pb83df7a2cd)" style="fill: #4c4c4c"/>
    <path d="M 180.901146 190.09452 
L 157.777047 190.898396 
L 157.758536 190.365917 
L 180.882635 189.562042 
z
" clip-path="url(#pb83df7a2cd)" style="fill: #4c4c4c"/>
    <path d="M 234.774887 101.792536 
L 191.877211 60.202521 
L 183.297676 95.827434 
z
" clip-path="url(#pb83df7a2cd)" style="fill: #5f84bd; fill-opacity: 0.25"/>
    <path d="M 191.877211 146.365102 
L 148.979535 104.775087 
L 183.297676 95.827434 
z
" clip-path="url(#pb83df7a2cd)" style="fill: #5d82ba; fill-opacity: 0.25"/>
    <path d="M 106.081859 149.347653 
L 148.979535 190.937667 
L 97.502324 184.972566 
z
" clip-path="url(#pb83df7a2cd)" style="fill: #5f84bd; fill-opacity: 0.25"/>
    <path d="M 63.184183 193.920218 
L 106.081859 235.510233 
L 97.502324 184.972566 
z
" clip-path="url(#pb83df7a2cd)" style="fill: #5d82ba; fill-opacity: 0.25"/>
    <path d="M 148.979535 104.775087 
L 191.877211 60.202521 
L 183.297676 95.827434 
z
" clip-path="url(#pb83df7a2cd)" style="fill: #4d6c9b; fill-opacity: 0.25"/>
    <path d="M 243.737185 101.792536 
L 243.431803 99.472923 
L 242.536465 97.311387 
L 241.112189 95.455234 
L 239.256036 94.030958 
L 237.094501 93.135621 
L 234.774887 92.830238 
L 232.455274 93.135621 
L 230.293738 94.030958 
L 228.437586 95.455234 
L 227.01331 97.311387 
L 226.117972 99.472923 
L 225.812589 101.792536 
L 226.117972 104.112149 
L 227.01331 106.273685 
L 228.437586 108.129838 
L 230.293738 109.554114 
L 232.455274 110.449451 
L 234.774887 110.754834 
L 237.094501 110.449451 
L 239.256036 109.554114 
L 241.112189 108.129838 
L 242.536465 106.273685 
L 243.431803 104.112149 
L 243.737185 101.792536 
z
" clip-path="url(#pb83df7a2cd)" style="fill: #e61a1a"/>
    <path d="M 101.108889 101.591462 
L 101.28048 101.740589 
L 100.930977 102.142738 
L 100.759387 101.99361 
z
" clip-path="url(#pb83df7a2cd)" style="fill: #4c4c4c"/>
    <path d="M 189.188522 178.736499 
L 189.976021 179.066964 
L 191.877211 179.203847 
L 193.778402 179.066964 
L 194.565901 178.736499 
L 194.565901 154.784447 
L 193.778402 154.453986 
L 191.877211 154.317105 
L 189.976021 154.453986 
L 189.188522 154.784447 
z
" clip-path="url(#pb83df7a2cd)" style="fill: #666666"/>
    <path d="M 200.839509 146.365102 
L 200.534126 144.045488 
L 199.638789 141.883953 
L 198.214513 140.0278 
L 196.35836 138.603524 
L 194.196825 137.708187 
L 191.877211 137.402804 
L 189.557598 137.708187 
L 187.396062 138.603524 
L 185.53991 140.0278 
L 184.115633 141.883953 
L 183.220296 144.045488 
L 182.914913 146.365102 
L 183.220296 148.684715 
L 184.115633 150.846251 
L 185.53991 152.702403 
L 187.396062 154.12668 
L 189.557598 155.022017 
L 191.877211 155.3274 
L 194.196825 155.022017 
L 196.35836 154.12668 
L 198.214513 152.702403 
L 199.638789 150.846251 
L 200.534126 148.684715 
L 200.839509 146.365102 
z
" clip-path="url(#pb83df7a2cd)" style="fill: #e61a1a"/>
    <path d="M 101.28048 101.740589 
L 101.452071 101.889717 
L 101.102568 102.291865 
L 100.930977 102.142738 
z
" clip-path="url(#pb83df7a2cd)" style="fill: #4c4c4c"/>
    <path d="M 181.306377 192.504185 
L 181.645978 191.704405 
L 181.731926 189.799078 
L 181.513873 187.904319 
L 181.119553 187.130053 
L 157.269585 187.959162 
L 156.929987 188.758943 
L 156.844041 190.664269 
L 157.062092 192.559028 
L 157.456409 193.333295 
z
" clip-path="url(#pb83df7a2cd)" style="fill: #666666"/>
    <path d="M 106.081859 149.347653 
L 63.184183 193.920218 
L 97.502324 184.972566 
z
" clip-path="url(#pb83df7a2cd)" style="fill: #4d6c9b; fill-opacity: 0.25"/>
    <path d="M 157.941833 190.937667 
L 157.63645 188.618054 
L 156.741113 186.456518 
L 155.316837 184.600366 
L 153.460684 183.17609 
L 151.299149 182.280752 
L 148.979535 181.975369 
L 146.659922 182.280752 
L 144.498386 183.17609 
L 142.642233 184.600366 
L 141.217957 186.456518 
L 140.32262 188.618054 
L 140.017237 190.937667 
L 140.32262 193.257281 
L 141.217957 195.418816 
L 142.642233 197.274969 
L 144.498386 198.699245 
L 146.659922 199.594583 
L 148.979535 199.899966 
L 151.299149 199.594583 
L 153.460684 198.699245 
L 155.316837 197.274969 
L 156.741113 195.418816 
L 157.63645 193.257281 
L 157.941833 190.937667 
z
" clip-path="url(#pb83df7a2cd)" style="fill: #e61a1a"/>
    <path d="M 101.452071 101.889717 
L 101.623662 102.038844 
L 101.274159 102.440993 
L 101.102568 102.291865 
z
" clip-path="url(#pb83df7a2cd)" style="fill: #4c4c4c"/>
    <path d="M 191.610811 137.539229 
L 191.610811 136.791482 
L 192.143611 136.791482 
L 192.143611 137.539229 
z
" clip-path="url(#pb83df7a2cd)" style="fill: #4c4c4c"/>
    <path d="M 234.774887 187.955117 
L 191.877211 232.527682 
L 200.456746 196.902769 
z
" clip-path="url(#pb83df7a2cd)" style="fill: #4d6c9b; fill-opacity: 0.25"/>
    <path d="M 115.044157 235.510233 
L 114.738774 233.19062 
L 113.843437 231.029084 
L 112.419161 229.172931 
L 110.563008 227.748655 
L 108.401473 226.853318 
L 106.081859 226.547935 
L 103.762246 226.853318 
L 101.60071 227.748655 
L 99.744557 229.172931 
L 98.320281 231.029084 
L 97.424944 233.19062 
L 97.119561 235.510233 
L 97.424944 237.829847 
L 98.320281 239.991382 
L 99.744557 241.847535 
L 101.60071 243.271811 
L 103.762246 244.167148 
L 106.081859 244.472531 
L 108.401473 244.167148 
L 110.563008 243.271811 
L 112.419161 241.847535 
L 113.843437 239.991382 
L 114.738774 237.829847 
L 115.044157 235.510233 
z
" clip-path="url(#pb83df7a2cd)" style="fill: #e61a1a"/>
    <path d="M 191.610811 136.791482 
L 191.610811 114.316152 
L 192.143611 114.316152 
L 192.143611 136.791482 
z
" clip-path="url(#pb83df7a2cd)" style="fill: #4c4c4c"/>
    <path d="M 101.623662 102.038844 
L 102.824797 103.082737 
L 102.475294 103.484886 
L 101.274159 102.440993 
z
" clip-path="url(#pb83df7a2cd)" style="fill: #4c4c4c"/>
    <path d="M 140.200534 191.509418 
L 117.076435 192.313293 
L 117.057924 191.780815 
L 140.182023 190.976939 
z
" clip-path="url(#pb83df7a2cd)" style="fill: #4c4c4c"/>
    <path d="M 187.980646 103.45955 
L 189.882926 104.069456 
L 191.704033 103.133305 
L 192.377188 101.199481 
L 191.508066 99.400792 
L 186.738079 95.255251 
L 184.835799 94.645345 
L 183.014692 95.581496 
L 182.341537 97.515319 
L 183.210659 99.314008 
z
" clip-path="url(#pb83df7a2cd)" style="fill: #666666"/>
    <path d="M 202.448046 100.226018 
L 202.108444 101.025799 
L 202.022496 102.931125 
L 202.240549 104.825884 
L 202.634869 105.600151 
L 226.484844 104.771041 
L 226.824449 103.97126 
L 226.910399 102.065934 
L 226.692345 100.171175 
L 226.29802 99.396908 
z
" clip-path="url(#pb83df7a2cd)" style="fill: #666666"/>
    <path d="M 194.565901 113.993712 
L 193.778402 113.663254 
L 191.877211 113.526374 
L 189.976021 113.663254 
L 189.188522 113.993712 
L 189.188522 137.945756 
L 189.976021 138.276217 
L 191.877211 138.413099 
L 193.778402 138.276217 
L 194.565901 137.945756 
z
" clip-path="url(#pb83df7a2cd)" style="fill: #666666"/>
    <path d="M 106.081859 149.347653 
L 148.979535 104.775087 
L 97.502324 98.809985 
z
" clip-path="url(#pb83df7a2cd)" style="fill: #6e9adc; fill-opacity: 0.25"/>
    <path d="M 191.877211 146.365102 
L 234.774887 187.955117 
L 200.456746 196.902769 
z
" clip-path="url(#pb83df7a2cd)" style="fill: #5d82ba; fill-opacity: 0.25"/>
    <path d="M 148.979535 190.937667 
L 191.877211 232.527682 
L 200.456746 196.902769 
z
" clip-path="url(#pb83df7a2cd)" style="fill: #5f84bd; fill-opacity: 0.25"/>
    <path d="M 203.080084 103.283811 
L 202.698355 100.384295 
L 201.579184 97.682375 
L 199.798838 95.362184 
L 197.478648 93.581839 
L 194.776728 92.462667 
L 191.877211 92.080939 
L 188.977694 92.462667 
L 186.275775 93.581839 
L 183.955584 95.362184 
L 182.175239 97.682375 
L 181.056067 100.384295 
L 180.674339 103.283811 
L 181.056067 106.183328 
L 182.175239 108.885248 
L 183.955584 111.205439 
L 186.275775 112.985784 
L 188.977694 114.104955 
L 191.877211 114.486684 
L 194.776728 114.104955 
L 197.478648 112.985784 
L 199.798838 111.205439 
L 201.579184 108.885248 
L 202.698355 106.183328 
L 203.080084 103.283811 
z
" clip-path="url(#pb83df7a2cd)" style="fill: #3366e6"/>
    <path d="M 102.824797 103.082737 
L 103.167978 103.380992 
L 102.818475 103.783141 
L 102.475294 103.484886 
z
" clip-path="url(#pb83df7a2cd)" style="fill: #4c4c4c"/>
    <path d="M 102.185296 192.604683 
L 104.087576 193.214589 
L 105.908684 192.278438 
L 106.581839 190.344614 
L 105.712716 188.545926 
L 100.942726 184.400381 
L 99.040445 183.790474 
L 97.219338 184.726625 
L 96.546183 186.660449 
L 97.415305 188.459138 
z
" clip-path="url(#pb83df7a2cd)" style="fill: #666666"/>
    <path d="M 116.652702 189.371149 
L 116.313108 190.170929 
L 116.227163 192.076256 
L 116.445212 193.971015 
L 116.839526 194.745282 
L 140.689485 193.916173 
L 141.029083 193.116392 
L 141.11503 191.211066 
L 140.896979 189.316307 
L 140.502662 188.54204 
z
" clip-path="url(#pb83df7a2cd)" style="fill: #666666"/>
    <path d="M 108.770549 203.138836 
L 107.98305 202.808371 
L 106.081859 202.671488 
L 104.180669 202.808371 
L 103.39317 203.138836 
L 103.39317 227.090894 
L 104.180669 227.421362 
L 106.081859 227.558247 
L 107.98305 227.421362 
L 108.770549 227.090894 
z
" clip-path="url(#pb83df7a2cd)" style="fill: #666666"/>
    <path d="M 117.284732 192.428943 
L 116.903003 189.529426 
L 115.783831 186.827507 
L 114.003486 184.507316 
L 111.683295 182.726971 
L 108.981376 181.607799 
L 106.081859 181.22607 
L 103.182342 181.607799 
L 100.480423 182.726971 
L 98.160232 184.507316 
L 96.379887 186.827507 
L 95.260715 189.529426 
L 94.878987 192.428943 
L 95.260715 195.32846 
L 96.379887 198.030379 
L 98.160232 200.35057 
L 100.480423 202.130915 
L 103.182342 203.250087 
L 106.081859 203.631815 
L 108.981376 203.250087 
L 111.683295 202.130915 
L 114.003486 200.35057 
L 115.783831 198.030379 
L 116.903003 195.32846 
L 117.284732 192.428943 
z
" clip-path="url(#pb83df7a2cd)" style="fill: #3366e6"/>
    <path d="M 103.167978 103.380992 
L 104.059547 104.155844 
L 103.710044 104.557993 
L 102.818475 103.783141 
z
" clip-path="url(#pb83df7a2cd)" style="fill: #4c4c4c"/>
    <path d="M 180.901146 103.931939 
L 157.777047 104.735815 
L 157.758536 104.203337 
L 180.882635 103.399461 
z
" clip-path="url(#pb83df7a2cd)" style="fill: #4c4c4c"/>
    <path d="M 105.815459 181.396602 
L 105.815459 158.921273 
L 106.348259 158.921273 
L 106.348259 181.396602 
z
" clip-path="url(#pb83df7a2cd)" style="fill: #4c4c4c"/>
    <path d="M 189.188522 92.573911 
L 189.976021 92.904369 
L 191.877211 93.041249 
L 193.778402 92.904369 
L 194.565901 92.573911 
L 194.565901 68.621872 
L 193.778402 68.291418 
L 191.877211 68.15454 
L 189.976021 68.291418 
L 189.188522 68.621872 
z
" clip-path="url(#pb83df7a2cd)" style="fill: #666666"/>
    <path d="M 148.979535 104.775087 
L 106.081859 63.185072 
L 97.502324 98.809985 
z
" clip-path="url(#pb83df7a2cd)" style="fill: #5f84bd; fill-opacity: 0.25"/>
    <path d="M 106.081859 149.347653 
L 63.184183 107.757638 
L 97.502324 98.809985 
z
" clip-path="url(#pb83df7a2cd)" style="fill: #5d82ba; fill-opacity: 0.25"/>
    <path d="M 191.877211 146.365102 
L 148.979535 190.937667 
L 200.456746 196.902769 
z
" clip-path="url(#pb83df7a2cd)" style="fill: #6e9adc; fill-opacity: 0.25"/>
    <path d="M 200.839509 60.202521 
L 200.534126 57.882908 
L 199.638789 55.721372 
L 198.214513 53.865219 
L 196.35836 52.440943 
L 194.196825 51.545606 
L 191.877211 51.240223 
L 189.557598 51.545606 
L 187.396062 52.440943 
L 185.53991 53.865219 
L 184.115633 55.721372 
L 183.220296 57.882908 
L 182.914913 60.202521 
L 183.220296 62.522135 
L 184.115633 64.68367 
L 185.53991 66.539823 
L 187.396062 67.964099 
L 189.557598 68.859436 
L 191.877211 69.164819 
L 194.196825 68.859436 
L 196.35836 67.964099 
L 198.214513 66.539823 
L 199.638789 64.68367 
L 200.534126 62.522135 
L 200.839509 60.202521 
z
" clip-path="url(#pb83df7a2cd)" style="fill: #e61a1a"/>
    <path d="M 105.815459 158.921273 
L 105.815459 158.173525 
L 106.348259 158.173525 
L 106.348259 158.921273 
z
" clip-path="url(#pb83df7a2cd)" style="fill: #4c4c4c"/>
    <path d="M 181.306377 106.341605 
L 181.645978 105.541824 
L 181.731927 103.636498 
L 181.513874 101.741739 
L 181.119553 100.967472 
L 157.269585 101.796582 
L 156.929987 102.596362 
L 156.84404 104.501689 
L 157.062091 106.396448 
L 157.456409 107.170714 
z
" clip-path="url(#pb83df7a2cd)" style="fill: #666666"/>
    <path d="M 63.184183 107.757638 
L 106.081859 63.185072 
L 97.502324 98.809985 
z
" clip-path="url(#pb83df7a2cd)" style="fill: #4d6c9b; fill-opacity: 0.25"/>
    <path d="M 157.941833 104.775087 
L 157.63645 102.455473 
L 156.741113 100.293938 
L 155.316837 98.437785 
L 153.460684 97.013509 
L 151.299149 96.118172 
L 148.979535 95.812789 
L 146.659922 96.118172 
L 144.498386 97.013509 
L 142.642233 98.437785 
L 141.217957 100.293938 
L 140.32262 102.455473 
L 140.017237 104.775087 
L 140.32262 107.0947 
L 141.217957 109.256236 
L 142.642233 111.112389 
L 144.498386 112.536665 
L 146.659922 113.432002 
L 148.979535 113.737385 
L 151.299149 113.432002 
L 153.460684 112.536665 
L 155.316837 111.112389 
L 156.741113 109.256236 
L 157.63645 107.0947 
L 157.941833 104.775087 
z
" clip-path="url(#pb83df7a2cd)" style="fill: #e61a1a"/>
    <path d="M 103.39317 181.71905 
L 104.180669 182.049515 
L 106.081859 182.186398 
L 107.98305 182.049515 
L 108.770549 181.71905 
L 108.770549 157.766998 
L 107.98305 157.436536 
L 106.081859 157.299655 
L 104.180669 157.436536 
L 103.39317 157.766998 
z
" clip-path="url(#pb83df7a2cd)" style="fill: #666666"/>
    <path d="M 191.877211 146.365102 
L 234.774887 101.792536 
L 200.456746 110.740189 
z
" clip-path="url(#pb83df7a2cd)" style="fill: #4d6c9b; fill-opacity: 0.25"/>
    <path d="M 115.044157 149.347653 
L 114.738774 147.028039 
L 113.843437 144.866504 
L 112.419161 143.010351 
L 110.563008 141.586075 
L 108.401473 140.690737 
L 106.081859 140.385355 
L 103.762246 140.690737 
L 101.60071 141.586075 
L 99.744557 143.010351 
L 98.320281 144.866504 
L 97.424944 147.028039 
L 97.119561 149.347653 
L 97.424944 151.667266 
L 98.320281 153.828802 
L 99.744557 155.684954 
L 101.60071 157.10923 
L 103.762246 158.004568 
L 106.081859 158.309951 
L 108.401473 158.004568 
L 110.563008 157.10923 
L 112.419161 155.684954 
L 113.843437 153.828802 
L 114.738774 151.667266 
L 115.044157 149.347653 
z
" clip-path="url(#pb83df7a2cd)" style="fill: #e61a1a"/>
    <path d="M 95.511017 195.486736 
L 95.850611 194.686956 
L 95.936556 192.78163 
L 95.718506 190.886871 
L 95.324193 190.112604 
L 71.474239 190.941713 
L 71.134649 191.741493 
L 71.048705 193.64682 
L 71.266753 195.541578 
L 71.661063 196.315845 
z
" clip-path="url(#pb83df7a2cd)" style="fill: #666666"/>
    <path d="M 72.146481 193.920218 
L 71.841098 191.600605 
L 70.945761 189.439069 
L 69.521485 187.582917 
L 67.665332 186.158641 
L 65.503797 185.263303 
L 63.184183 184.95792 
L 60.86457 185.263303 
L 58.703034 186.158641 
L 56.846881 187.582917 
L 55.422605 189.439069 
L 54.527268 191.600605 
L 54.221885 193.920218 
L 54.527268 196.239832 
L 55.422605 198.401367 
L 56.846881 200.25752 
L 58.703034 201.681796 
L 60.86457 202.577133 
L 63.184183 202.882516 
L 65.503797 202.577133 
L 67.665332 201.681796 
L 69.521485 200.25752 
L 70.945761 198.401367 
L 71.841098 196.239832 
L 72.146481 193.920218 
z
" clip-path="url(#pb83df7a2cd)" style="fill: #e61a1a"/>
    <path d="M 140.200534 105.346837 
L 117.076435 106.150713 
L 117.057924 105.618234 
L 140.182023 104.814359 
z
" clip-path="url(#pb83df7a2cd)" style="fill: #4c4c4c"/>
    <path d="M 105.815459 140.52178 
L 105.815459 117.298703 
L 106.348259 117.298703 
L 106.348259 140.52178 
z
" clip-path="url(#pb83df7a2cd)" style="fill: #4c4c4c"/>
    <path d="M 102.185316 106.44212 
L 104.087597 107.052027 
L 105.908705 106.115876 
L 106.58186 104.182052 
L 105.712736 102.383362 
L 100.94271 98.237787 
L 99.040429 97.627879 
L 97.219321 98.56403 
L 96.546166 100.497854 
L 97.41529 102.296544 
z
" clip-path="url(#pb83df7a2cd)" style="fill: #666666"/>
    <path d="M 116.652701 103.208569 
L 116.313107 104.008349 
L 116.227162 105.913676 
L 116.445212 107.808434 
L 116.839525 108.582701 
L 140.689486 107.753592 
L 141.029084 106.953812 
L 141.11503 105.048485 
L 140.896979 103.153726 
L 140.502662 102.379459 
z
" clip-path="url(#pb83df7a2cd)" style="fill: #666666"/>
    <path d="M 108.770549 116.976262 
L 107.98305 116.645805 
L 106.081859 116.508925 
L 104.180669 116.645805 
L 103.39317 116.976262 
L 103.39317 140.928307 
L 104.180669 141.258769 
L 106.081859 141.39565 
L 107.98305 141.258769 
L 108.770549 140.928307 
z
" clip-path="url(#pb83df7a2cd)" style="fill: #666666"/>
    <path d="M 148.979535 190.937667 
L 106.081859 235.510233 
L 114.661394 199.88532 
z
" clip-path="url(#pb83df7a2cd)" style="fill: #4d6c9b; fill-opacity: 0.25"/>
    <path d="M 234.774887 101.792536 
L 191.877211 60.202521 
L 200.456746 110.740189 
z
" clip-path="url(#pb83df7a2cd)" style="fill: #5d82ba; fill-opacity: 0.25"/>
    <path d="M 191.877211 146.365102 
L 148.979535 104.775087 
L 200.456746 110.740189 
z
" clip-path="url(#pb83df7a2cd)" style="fill: #5f84bd; fill-opacity: 0.25"/>
    <path d="M 106.081859 149.347653 
L 148.979535 190.937667 
L 114.661394 199.88532 
z
" clip-path="url(#pb83df7a2cd)" style="fill: #5d82ba; fill-opacity: 0.25"/>
    <path d="M 63.184183 193.920218 
L 106.081859 235.510233 
L 114.661394 199.88532 
z
" clip-path="url(#pb83df7a2cd)" style="fill: #5f84bd; fill-opacity: 0.25"/>
    <path d="M 117.284732 106.266362 
L 116.903003 103.366846 
L 115.783831 100.664926 
L 114.003486 98.344735 
L 111.683295 96.56439 
L 108.981376 95.445218 
L 106.081859 95.06349 
L 103.182342 95.445218 
L 100.480423 96.56439 
L 98.160232 98.344735 
L 96.379887 100.664926 
L 95.260715 103.366846 
L 94.878987 106.266362 
L 95.260715 109.165879 
L 96.379887 111.867799 
L 98.160232 114.187989 
L 100.480423 115.968335 
L 103.182342 117.087506 
L 106.081859 117.469235 
L 108.981376 117.087506 
L 111.683295 115.968335 
L 114.003486 114.187989 
L 115.783831 111.867799 
L 116.903003 109.165879 
L 117.284732 106.266362 
z
" clip-path="url(#pb83df7a2cd)" style="fill: #3366e6"/>
    <path d="M 103.39317 95.556462 
L 104.180669 95.88692 
L 106.081859 96.0238 
L 107.98305 95.88692 
L 108.770549 95.556462 
L 108.770549 71.604423 
L 107.98305 71.273969 
L 106.081859 71.13709 
L 104.180669 71.273969 
L 103.39317 71.604423 
z
" clip-path="url(#pb83df7a2cd)" style="fill: #666666"/>
    <path d="M 148.979535 104.775087 
L 191.877211 60.202521 
L 200.456746 110.740189 
z
" clip-path="url(#pb83df7a2cd)" style="fill: #6e9adc; fill-opacity: 0.25"/>
    <path d="M 106.081859 149.347653 
L 63.184183 193.920218 
L 114.661394 199.88532 
z
" clip-path="url(#pb83df7a2cd)" style="fill: #6e9adc; fill-opacity: 0.25"/>
    <path d="M 115.044157 63.185072 
L 114.738774 60.865459 
L 113.843437 58.703923 
L 112.419161 56.84777 
L 110.563008 55.423494 
L 108.401473 54.528157 
L 106.081859 54.222774 
L 103.762246 54.528157 
L 101.60071 55.423494 
L 99.744557 56.84777 
L 98.320281 58.703923 
L 97.424944 60.865459 
L 97.119561 63.185072 
L 97.424944 65.504685 
L 98.320281 67.666221 
L 99.744557 69.522374 
L 101.60071 70.94665 
L 103.762246 71.841987 
L 106.081859 72.14737 
L 108.401473 71.841987 
L 110.563008 70.94665 
L 112.419161 69.522374 
L 113.843437 67.666221 
L 114.738774 65.504685 
L 115.044157 63.185072 
z
" clip-path="url(#pb83df7a2cd)" style="fill: #e61a1a"/>
    <path d="M 95.511017 109.324156 
L 95.850611 108.524376 
L 95.936556 106.619049 
L 95.718507 104.72429 
L 95.324193 103.950023 
L 71.474239 104.779132 
L 71.134648 105.578912 
L 71.048705 107.484239 
L 71.266753 109.378998 
L 71.661063 110.153265 
z
" clip-path="url(#pb83df7a2cd)" style="fill: #666666"/>
    <path d="M 72.146481 107.757638 
L 71.841098 105.438024 
L 70.945761 103.276489 
L 69.521485 101.420336 
L 67.665332 99.99606 
L 65.503797 99.100723 
L 63.184183 98.79534 
L 60.86457 99.100723 
L 58.703034 99.99606 
L 56.846881 101.420336 
L 55.422605 103.276489 
L 54.527268 105.438024 
L 54.221885 107.757638 
L 54.527268 110.077251 
L 55.422605 112.238787 
L 56.846881 114.094939 
L 58.703034 115.519216 
L 60.86457 116.414553 
L 63.184183 116.719936 
L 65.503797 116.414553 
L 67.665332 115.519216 
L 69.521485 114.094939 
L 70.945761 112.238787 
L 71.841098 110.077251 
L 72.146481 107.757638 
z
" clip-path="url(#pb83df7a2cd)" style="fill: #e61a1a"/>
    <path d="M 195.773797 189.270671 
L 193.871518 188.660766 
L 192.05041 189.596917 
L 191.377255 191.530741 
L 192.246377 193.329429 
L 197.016321 197.474933 
L 198.9186 198.084839 
L 200.739707 197.148687 
L 201.412863 195.214864 
L 200.543741 193.416176 
z
" clip-path="url(#pb83df7a2cd)" style="fill: #666666"/>
    <path d="M 106.081859 149.347653 
L 148.979535 104.775087 
L 114.661394 113.722739 
z
" clip-path="url(#pb83df7a2cd)" style="fill: #4d6c9b; fill-opacity: 0.25"/>
    <path d="M 209.419045 196.902769 
L 209.113662 194.583156 
L 208.218324 192.42162 
L 206.794048 190.565467 
L 204.937896 189.141191 
L 202.77636 188.245854 
L 200.456746 187.940471 
L 198.137133 188.245854 
L 195.975597 189.141191 
L 194.119445 190.565467 
L 192.695169 192.42162 
L 191.799831 194.583156 
L 191.494448 196.902769 
L 191.799831 199.222383 
L 192.695169 201.383918 
L 194.119445 203.240071 
L 195.975597 204.664347 
L 198.137133 205.559684 
L 200.456746 205.865067 
L 202.77636 205.559684 
L 204.937896 204.664347 
L 206.794048 203.240071 
L 208.218324 201.383918 
L 209.113662 199.222383 
L 209.419045 196.902769 
z
" clip-path="url(#pb83df7a2cd)" style="fill: #e61a1a"/>
    <path d="M 195.773777 103.108073 
L 193.871497 102.498167 
L 192.050389 103.434318 
L 191.377234 105.368142 
L 192.246357 107.166831 
L 197.016337 111.312367 
L 198.918617 111.922272 
L 200.739724 110.986121 
L 201.412879 109.052298 
L 200.543757 107.253609 
z
" clip-path="url(#pb83df7a2cd)" style="fill: #666666"/>
    <path d="M 148.979535 104.775087 
L 106.081859 63.185072 
L 114.661394 113.722739 
z
" clip-path="url(#pb83df7a2cd)" style="fill: #5d82ba; fill-opacity: 0.25"/>
    <path d="M 106.081859 149.347653 
L 63.184183 107.757638 
L 114.661394 113.722739 
z
" clip-path="url(#pb83df7a2cd)" style="fill: #5f84bd; fill-opacity: 0.25"/>
    <path d="M 63.184183 107.757638 
L 106.081859 63.185072 
L 114.661394 113.722739 
z
" clip-path="url(#pb83df7a2cd)" style="fill: #6e9adc; fill-opacity: 0.25"/>
    <path d="M 209.419045 110.740189 
L 209.113662 108.420575 
L 208.218324 106.25904 
L 206.794048 104.402887 
L 204.937896 102.978611 
L 202.77636 102.083273 
L 200.456746 101.777891 
L 198.137133 102.083273 
L 195.975597 102.978611 
L 194.119445 104.402887 
L 192.695169 106.25904 
L 191.799831 108.420575 
L 191.494448 110.740189 
L 191.799831 113.059802 
L 192.695169 115.221338 
L 194.119445 117.07749 
L 195.975597 118.501766 
L 198.137133 119.397104 
L 200.456746 119.702487 
L 202.77636 119.397104 
L 204.937896 118.501766 
L 206.794048 117.07749 
L 208.218324 115.221338 
L 209.113662 113.059802 
L 209.419045 110.740189 
z
" clip-path="url(#pb83df7a2cd)" style="fill: #e61a1a"/>
    <path d="M 109.978422 192.253203 
L 108.076142 191.643297 
L 106.255035 192.579448 
L 105.58188 194.513271 
L 106.451002 196.31196 
L 111.220986 200.457499 
L 113.123266 201.067405 
L 114.944374 200.131254 
L 115.617529 198.197431 
L 114.748407 196.398742 
z
" clip-path="url(#pb83df7a2cd)" style="fill: #666666"/>
    <path d="M 123.623692 199.88532 
L 123.31831 197.565707 
L 122.422972 195.404171 
L 120.998696 193.548018 
L 119.142543 192.123742 
L 116.981008 191.228405 
L 114.661394 190.923022 
L 112.341781 191.228405 
L 110.180245 192.123742 
L 108.324093 193.548018 
L 106.899817 195.404171 
L 106.004479 197.565707 
L 105.699096 199.88532 
L 106.004479 202.204933 
L 106.899817 204.366469 
L 108.324093 206.222622 
L 110.180245 207.646898 
L 112.341781 208.542235 
L 114.661394 208.847618 
L 116.981008 208.542235 
L 119.142543 207.646898 
L 120.998696 206.222622 
L 122.422972 204.366469 
L 123.31831 202.204933 
L 123.623692 199.88532 
z
" clip-path="url(#pb83df7a2cd)" style="fill: #e61a1a"/>
    <path d="M 109.978402 106.090605 
L 108.076121 105.480698 
L 106.255013 106.416849 
L 105.581859 108.350673 
L 106.450982 110.149362 
L 111.221002 114.294933 
L 113.123283 114.904839 
L 114.944391 113.968689 
L 115.617546 112.034865 
L 114.748422 110.236175 
z
" clip-path="url(#pb83df7a2cd)" style="fill: #666666"/>
    <path d="M 123.623692 113.722739 
L 123.31831 111.403126 
L 122.422972 109.24159 
L 120.998696 107.385438 
L 119.142543 105.961162 
L 116.981008 105.065824 
L 114.661394 104.760441 
L 112.341781 105.065824 
L 110.180245 105.961162 
L 108.324093 107.385438 
L 106.899817 109.24159 
L 106.004479 111.403126 
L 105.699096 113.722739 
L 106.004479 116.042353 
L 106.899817 118.203889 
L 108.324093 120.060041 
L 110.180245 121.484317 
L 112.341781 122.379655 
L 114.661394 122.685038 
L 116.981008 122.379655 
L 119.142543 121.484317 
L 120.998696 120.060041 
L 122.422972 118.203889 
L 123.31831 116.042353 
L 123.623692 113.722739 
z
" clip-path="url(#pb83df7a2cd)" style="fill: #e61a1a"/>
   </g>
  </g>
 </g>
 <defs>
  <clipPath id="pb83df7a2cd">
   <rect x="7.2" y="7.2" width="266.4" height="266.4"/>
  </clipPath>
 </defs>
</svg>
