<?xml version="1.0" encoding="utf-8" standalone="no"?>
<!DOCTYPE svg PUBLIC "-//W3C//DTD SVG 1.1//EN"
  "http://www.w3.org/Graphics/SVG/1.1/DTD/svg11.dtd">
<svg xmlns:xlink="http://www.w3.org/1999/xlink" width="208.8pt" height="208.8pt" viewBox="0 0 208.8 208.8" xmlns="http://www.w3.org/2000/svg" version="1.1">
 <metadata>
  <rdf:RDF xmlns:dc="http://purl.org/dc/elements/1.1/" xmlns:cc="http://creativecommons.org/ns#" xmlns:rdf="http://www.w3.org/1999/02/22-rdf-syntax-ns#">
   <cc:Work>
    <dc:type rdf:resource="http://purl.org/dc/dcmitype/StillImage"/>
    <dc:date>2026-02-16T17:45:26.358226</dc:date>
    <dc:format>image/svg+xml</dc:format>
    <dc:creator>
     <cc:Agent>
      <dc:title>Matplotlib v3.10.7, https://matplotlib.org/</dc:title>
     </cc:Agent>
    </dc:creator>
   </cc:Work>
  </rdf:RDF>
 </metadata>
 <defs>
  <style type="text/css">*{stroke-linejoin: round; stroke-linecap: butt}</style>
 </defs>
 <g id="figure_1">
  <g id="patch_1">
   <path d="M 0 208.8 
L 208.8 208.8 
L 208.8 0 
L 0 0 
z
" style="fill: #ffffff"/>
  </g>
  <g id="axes_1">
   <g id="PolyCollection_1">
    <path d="M 153.497935 141.215769 
L 153.451954 140.162652 
L 153.314364 139.117549 
L 153.086211 138.088416 
L 152.769231 137.083083 
L 152.365836 136.109203 
L 151.879097 135.174186 
L 151.312719 134.28515 
L 150.671011 133.44886 
L 149.958857 132.671681 
L 149.181678 131.959528 
L 148.345388 131.31782 
L 147.456352 130.751441 
L 146.521336 130.264703 
L 145.547455 129.861308 
L 144.542123 129.544328 
L 143.512989 129.316175 
L 142.467887 129.178584 
L 141.41477 129.132604 
L 140.361653 129.178584 
L 139.31655 129.316175 
L 138.287417 129.544328 
L 137.282084 129.861308 
L 136.308204 130.264703 
L 135.373187 130.751441 
L 134.484151 131.31782 
L 133.647861 131.959528 
L 132.870682 132.671681 
L 132.158529 133.44886 
L 131.516821 134.28515 
L 130.950442 135.174186 
L 130.463703 136.109203 
L 130.060309 137.083083 
L 129.743329 138.088416 
L 129.515175 139.117549 
L 129.377585 140.162652 
L 129.331605 141.215769 
L 129.377585 142.268886 
L 129.515175 143.313988 
L 129.743329 144.343122 
L 130.060309 145.348455 
L 130.463703 146.322335 
L 130.950442 147.257351 
L 131.516821 148.146387 
L 132.158529 148.982677 
L 132.870682 149.759857 
L 133.647861 150.47201 
L 134.484151 151.113718 
L 135.373187 151.680096 
L 136.308204 152.166835 
L 137.282084 152.57023 
L 138.287417 152.88721 
L 139.31655 153.115363 
L 140.361653 153.252953 
L 141.41477 153.298934 
L 142.467887 153.252953 
L 143.512989 153.115363 
L 144.542123 152.88721 
L 145.547455 152.57023 
L 146.521336 152.166835 
L 147.456352 151.680096 
L 148.345388 151.113718 
L 149.181678 150.47201 
L 149.958857 149.759857 
L 150.671011 148.982677 
L 151.312719 148.146387 
L 151.879097 147.257351 
L 152.365836 146.322335 
L 152.769231 145.348455 
L 153.086211 144.343122 
L 153.314364 143.313988 
L 153.451954 142.268886 
L 153.497935 141.215769 
z
" clip-path="url(#pe2433629a8)" style="fill: #3366e6; stroke: #262626"/>
    <path d="M 141.22037 129.316536 
L 141.22037 104.268651 
L 141.60917 104.268651 
L 141.60917 129.316536 
z
" clip-path="url(#pe2433629a8)" style="fill: #4c4c4c"/>
    <path d="M 129.573006 141.821948 
L 104.631876 142.68899 
L 104.618368 142.300425 
L 129.559498 141.433383 
z
" clip-path="url(#pe2433629a8)" style="fill: #4c4c4c"/>
    <path d="M 138.51481 129.664319 
L 138.632279 129.806332 
L 138.975169 129.936839 
L 139.5157 130.045269 
L 140.210083 130.122836 
L 141.002062 130.163257 
L 141.827477 130.163257 
L 142.619456 130.122836 
L 143.313839 130.045269 
L 143.854371 129.936839 
L 144.197261 129.806332 
L 144.314729 129.664319 
L 144.314729 116.74725 
L 138.51481 116.74725 
z
" clip-path="url(#pe2433629a8)" style="fill: #3366e6; stroke: #262626"/>
    <path d="M 138.51481 116.74725 
L 144.314729 116.74725 
L 144.314729 103.830181 
L 144.197261 103.68817 
L 143.854371 103.557664 
L 143.313839 103.449235 
L 142.619456 103.371669 
L 141.827477 103.331248 
L 141.002062 103.331248 
L 140.210083 103.371669 
L 139.5157 103.449235 
L 138.975169 103.557664 
L 138.632279 103.68817 
L 138.51481 103.830181 
z
" clip-path="url(#pe2433629a8)" style="fill: #e61a1a; stroke: #262626"/>
    <path d="M 151.081302 94.749264 
L 151.044517 93.906771 
L 150.934445 93.070689 
L 150.751922 92.247382 
L 150.498338 91.443116 
L 150.175623 90.664012 
L 149.786232 89.915999 
L 149.333129 89.20477 
L 148.819763 88.535738 
L 148.25004 87.913994 
L 147.628297 87.344272 
L 146.959265 86.830905 
L 146.248036 86.377802 
L 145.500023 85.988411 
L 144.720918 85.665696 
L 143.916652 85.412112 
L 143.093345 85.229589 
L 142.257264 85.119517 
L 141.41477 85.082733 
L 140.572276 85.119517 
L 139.736194 85.229589 
L 138.912887 85.412112 
L 138.108621 85.665696 
L 137.329517 85.988411 
L 136.581504 86.377802 
L 135.870275 86.830905 
L 135.201243 87.344272 
L 134.5795 87.913994 
L 134.009777 88.535738 
L 133.49641 89.20477 
L 133.043308 89.915999 
L 132.653917 90.664012 
L 132.331201 91.443116 
L 132.077617 92.247382 
L 131.895094 93.070689 
L 131.785022 93.906771 
L 131.748238 94.749264 
L 131.785022 95.591758 
L 131.895094 96.42784 
L 132.077617 97.251147 
L 132.331201 98.055413 
L 132.653917 98.834517 
L 133.043308 99.58253 
L 133.49641 100.293759 
L 134.009777 100.962791 
L 134.5795 101.584535 
L 135.201243 102.154257 
L 135.870275 102.667624 
L 136.581504 103.120727 
L 137.329517 103.510118 
L 138.108621 103.832833 
L 138.912887 104.086417 
L 139.736194 104.26894 
L 140.572276 104.379012 
L 141.41477 104.415796 
L 142.257264 104.379012 
L 143.093345 104.26894 
L 143.916652 104.086417 
L 144.720918 103.832833 
L 145.500023 103.510118 
L 146.248036 103.120727 
L 146.959265 102.667624 
L 147.628297 102.154257 
L 148.25004 101.584535 
L 148.819763 100.962791 
L 149.333129 100.293759 
L 149.786232 99.58253 
L 150.175623 98.834517 
L 150.498338 98.055413 
L 150.751922 97.251147 
L 150.934445 96.42784 
L 151.044517 95.591758 
L 151.081302 94.749264 
z
" clip-path="url(#pe2433629a8)" style="fill: #e61a1a; stroke: #262626"/>
    <path d="M 130.013305 144.513836 
L 130.16692 144.390956 
L 130.299928 144.043235 
L 130.401553 143.498844 
L 130.463562 142.801886 
L 130.480932 142.008824 
L 130.452255 141.183908 
L 130.379855 140.393967 
L 130.269596 139.702998 
L 130.130412 139.166978 
L 129.973579 138.829334 
L 129.811801 138.717418 
L 116.949785 139.164547 
L 117.151289 144.960965 
z
" clip-path="url(#pe2433629a8)" style="fill: #3366e6; stroke: #262626"/>
    <path d="M 117.151289 144.960965 
L 116.949785 139.164547 
L 104.087769 139.611677 
L 103.934155 139.734556 
L 103.801149 140.082277 
L 103.699525 140.626668 
L 103.637517 141.323626 
L 103.620147 142.116687 
L 103.648824 142.941604 
L 103.721224 143.731545 
L 103.831482 144.422514 
L 103.970665 144.958534 
L 104.127497 145.296178 
L 104.289273 145.408094 
z
" clip-path="url(#pe2433629a8)" style="fill: #e61a1a; stroke: #262626"/>
    <path d="M 104.812839 142.824225 
L 104.776055 141.981731 
L 104.665983 141.145649 
L 104.48346 140.322342 
L 104.229876 139.518076 
L 103.907161 138.738972 
L 103.51777 137.990959 
L 103.064667 137.27973 
L 102.551301 136.610698 
L 101.981578 135.988955 
L 101.359834 135.419232 
L 100.690802 134.905865 
L 99.979573 134.452763 
L 99.23156 134.063372 
L 98.452456 133.740656 
L 97.64819 133.487072 
L 96.824883 133.304549 
L 95.988801 133.194477 
L 95.146308 133.157693 
L 94.303814 133.194477 
L 93.467732 133.304549 
L 92.644425 133.487072 
L 91.840159 133.740656 
L 91.061055 134.063372 
L 90.313042 134.452763 
L 89.601813 134.905865 
L 88.932781 135.419232 
L 88.311037 135.988955 
L 87.741315 136.610698 
L 87.227948 137.27973 
L 86.774845 137.990959 
L 86.385455 138.738972 
L 86.062739 139.518076 
L 85.809155 140.322342 
L 85.626632 141.145649 
L 85.51656 141.981731 
L 85.479776 142.824225 
L 85.51656 143.666719 
L 85.626632 144.5028 
L 85.809155 145.326107 
L 86.062739 146.130373 
L 86.385455 146.909478 
L 86.774845 147.657491 
L 87.227948 148.36872 
L 87.741315 149.037752 
L 88.311037 149.659495 
L 88.932781 150.229218 
L 89.601813 150.742584 
L 90.313042 151.195687 
L 91.061055 151.585078 
L 91.840159 151.907793 
L 92.644425 152.161377 
L 93.467732 152.3439 
L 94.303814 152.453972 
L 95.146308 152.490757 
L 95.988801 152.453972 
L 96.824883 152.3439 
L 97.64819 152.161377 
L 98.452456 151.907793 
L 99.23156 151.585078 
L 99.979573 151.195687 
L 100.690802 150.742584 
L 101.359834 150.229218 
L 101.981578 149.659495 
L 102.551301 149.037752 
L 103.064667 148.36872 
L 103.51777 147.657491 
L 103.907161 146.909478 
L 104.229876 146.130373 
L 104.48346 145.326107 
L 104.665983 144.5028 
L 104.776055 143.666719 
L 104.812839 142.824225 
z
" clip-path="url(#pe2433629a8)" style="fill: #e61a1a; stroke: #262626"/>
    <path d="M 141.22037 85.229878 
L 141.22037 60.181993 
L 141.60917 60.181993 
L 141.60917 85.229878 
z
" clip-path="url(#pe2433629a8)" style="fill: #4c4c4c"/>
    <path d="M 85.674247 143.348025 
L 60.733117 144.215067 
L 60.719609 143.826502 
L 85.660739 142.959459 
z
" clip-path="url(#pe2433629a8)" style="fill: #4c4c4c"/>
    <path d="M 143.911995 143.128522 
L 144.87362 143.96426 
L 144.618578 144.257719 
L 143.656952 143.421981 
z
" clip-path="url(#pe2433629a8)" style="fill: #4c4c4c"/>
    <path d="M 138.51481 85.668348 
L 138.632279 85.810359 
L 138.975169 85.940865 
L 139.5157 86.049294 
L 140.210083 86.12686 
L 141.002062 86.167281 
L 141.827477 86.167281 
L 142.619456 86.12686 
L 143.313839 86.049294 
L 143.854371 85.940865 
L 144.197261 85.810359 
L 144.314729 85.668348 
L 144.314729 72.751283 
L 138.51481 72.751283 
z
" clip-path="url(#pe2433629a8)" style="fill: #e61a1a; stroke: #262626"/>
    <path d="M 138.51481 72.751283 
L 144.314729 72.751283 
L 144.314729 59.834218 
L 144.197261 59.692208 
L 143.854371 59.561703 
L 143.313839 59.453276 
L 142.619456 59.37571 
L 141.827477 59.33529 
L 141.002062 59.33529 
L 140.210083 59.37571 
L 139.5157 59.453276 
L 138.975169 59.561703 
L 138.632279 59.692208 
L 138.51481 59.834218 
z
" clip-path="url(#pe2433629a8)" style="fill: #3366e6; stroke: #262626"/>
    <path d="M 153.497935 48.28276 
L 153.451954 47.229643 
L 153.314364 46.184541 
L 153.086211 45.155407 
L 152.769231 44.150074 
L 152.365836 43.176194 
L 151.879097 42.241178 
L 151.312719 41.352142 
L 150.671011 40.515852 
L 149.958857 39.738672 
L 149.181678 39.026519 
L 148.345388 38.384811 
L 147.456352 37.818433 
L 146.521336 37.331694 
L 145.547455 36.928299 
L 144.542123 36.611319 
L 143.512989 36.383166 
L 142.467887 36.245575 
L 141.41477 36.199595 
L 140.361653 36.245575 
L 139.31655 36.383166 
L 138.287417 36.611319 
L 137.282084 36.928299 
L 136.308204 37.331694 
L 135.373187 37.818433 
L 134.484151 38.384811 
L 133.647861 39.026519 
L 132.870682 39.738672 
L 132.158529 40.515852 
L 131.516821 41.352142 
L 130.950442 42.241178 
L 130.463703 43.176194 
L 130.060309 44.150074 
L 129.743329 45.155407 
L 129.515175 46.184541 
L 129.377585 47.229643 
L 129.331605 48.28276 
L 129.377585 49.335877 
L 129.515175 50.38098 
L 129.743329 51.410113 
L 130.060309 52.415446 
L 130.463703 53.389326 
L 130.950442 54.324343 
L 131.516821 55.213379 
L 132.158529 56.049669 
L 132.870682 56.826848 
L 133.647861 57.539001 
L 134.484151 58.180709 
L 135.373187 58.747088 
L 136.308204 59.233826 
L 137.282084 59.637221 
L 138.287417 59.954201 
L 139.31655 60.182354 
L 140.361653 60.319945 
L 141.41477 60.365925 
L 142.467887 60.319945 
L 143.512989 60.182354 
L 144.542123 59.954201 
L 145.547455 59.637221 
L 146.521336 59.233826 
L 147.456352 58.747088 
L 148.345388 58.180709 
L 149.181678 57.539001 
L 149.958857 56.826848 
L 150.671011 56.049669 
L 151.312719 55.213379 
L 151.879097 54.324343 
L 152.365836 53.389326 
L 152.769231 52.415446 
L 153.086211 51.410113 
L 153.314364 50.38098 
L 153.451954 49.335877 
L 153.497935 48.28276 
z
" clip-path="url(#pe2433629a8)" style="fill: #3366e6; stroke: #262626"/>
    <path d="M 144.87362 143.96426 
L 145.243768 144.285951 
L 144.988725 144.579411 
L 144.618578 144.257719 
z
" clip-path="url(#pe2433629a8)" style="fill: #4c4c4c"/>
    <path d="M 86.204846 146.036773 
L 86.35846 145.913893 
L 86.491466 145.566173 
L 86.59309 145.021782 
L 86.655098 144.324824 
L 86.672468 143.531762 
L 86.643791 142.706846 
L 86.571391 141.916905 
L 86.461133 141.225935 
L 86.32195 140.689916 
L 86.165118 140.352271 
L 86.003342 140.240355 
L 73.14133 140.687485 
L 73.342834 146.483902 
z
" clip-path="url(#pe2433629a8)" style="fill: #e61a1a; stroke: #262626"/>
    <path d="M 73.342834 146.483902 
L 73.14133 140.687485 
L 60.279319 141.134614 
L 60.125706 141.257493 
L 59.992701 141.605214 
L 59.891079 142.149605 
L 59.829071 142.846563 
L 59.811703 143.639624 
L 59.84038 144.464541 
L 59.912779 145.254482 
L 60.023036 145.945451 
L 60.162217 146.481471 
L 60.319048 146.819115 
L 60.480823 146.931031 
z
" clip-path="url(#pe2433629a8)" style="fill: #3366e6; stroke: #262626"/>
    <path d="M 60.96101 144.432681 
L 60.91503 143.379563 
L 60.77744 142.334461 
L 60.549286 141.305328 
L 60.232306 140.299995 
L 59.828912 139.326115 
L 59.342173 138.391098 
L 58.775794 137.502062 
L 58.134087 136.665772 
L 57.421933 135.888593 
L 56.644754 135.176439 
L 55.808464 134.534732 
L 54.919428 133.968353 
L 53.984411 133.481614 
L 53.010531 133.07822 
L 52.005199 132.76124 
L 50.976065 132.533086 
L 49.930963 132.395496 
L 48.877845 132.349516 
L 47.824728 132.395496 
L 46.779626 132.533086 
L 45.750492 132.76124 
L 44.74516 133.07822 
L 43.771279 133.481614 
L 42.836263 133.968353 
L 41.947227 134.534732 
L 41.110937 135.176439 
L 40.333758 135.888593 
L 39.621604 136.665772 
L 38.979896 137.502062 
L 38.413518 138.391098 
L 37.926779 139.326115 
L 37.523385 140.299995 
L 37.206404 141.305328 
L 36.978251 142.334461 
L 36.840661 143.379563 
L 36.794681 144.432681 
L 36.840661 145.485798 
L 36.978251 146.5309 
L 37.206404 147.560034 
L 37.523385 148.565366 
L 37.926779 149.539247 
L 38.413518 150.474263 
L 38.979896 151.363299 
L 39.621604 152.199589 
L 40.333758 152.976768 
L 41.110937 153.688922 
L 41.947227 154.33063 
L 42.836263 154.897008 
L 43.771279 155.383747 
L 44.74516 155.787141 
L 45.750492 156.104122 
L 46.779626 156.332275 
L 47.824728 156.469865 
L 48.877845 156.515845 
L 49.930963 156.469865 
L 50.976065 156.332275 
L 52.005199 156.104122 
L 53.010531 155.787141 
L 53.984411 155.383747 
L 54.919428 154.897008 
L 55.808464 154.33063 
L 56.644754 153.688922 
L 57.421933 152.976768 
L 58.134087 152.199589 
L 58.775794 151.363299 
L 59.342173 150.474263 
L 59.828912 149.539247 
L 60.232306 148.565366 
L 60.549286 147.560034 
L 60.77744 146.5309 
L 60.91503 145.485798 
L 60.96101 144.432681 
z
" clip-path="url(#pe2433629a8)" style="fill: #3366e6; stroke: #262626"/>
    <path d="M 129.573006 48.888939 
L 104.631876 49.755981 
L 104.618368 49.367416 
L 129.559498 48.500374 
z
" clip-path="url(#pe2433629a8)" style="fill: #4c4c4c"/>
    <path d="M 145.243768 144.285951 
L 146.724359 145.572715 
L 146.469316 145.866175 
L 144.988725 144.579411 
z
" clip-path="url(#pe2433629a8)" style="fill: #4c4c4c"/>
    <path d="M 48.683445 132.533448 
L 48.683445 107.485563 
L 49.072245 107.485563 
L 49.072245 132.533448 
z
" clip-path="url(#pe2433629a8)" style="fill: #4c4c4c"/>
    <path d="M 130.013306 51.580827 
L 130.166921 51.457947 
L 130.299929 51.110226 
L 130.401554 50.565835 
L 130.463563 49.868877 
L 130.480933 49.075816 
L 130.452256 48.250899 
L 130.379855 47.460958 
L 130.269597 46.769989 
L 130.130413 46.23397 
L 129.973579 45.896325 
L 129.811801 45.784409 
L 116.949785 46.231538 
L 117.151289 52.027956 
z
" clip-path="url(#pe2433629a8)" style="fill: #3366e6; stroke: #262626"/>
    <path d="M 117.151289 52.027956 
L 116.949785 46.231538 
L 104.087769 46.678668 
L 103.934155 46.801548 
L 103.801148 47.149268 
L 103.699524 47.693659 
L 103.637516 48.390617 
L 103.620147 49.183679 
L 103.648824 50.008595 
L 103.721224 50.798536 
L 103.831482 51.489505 
L 103.970664 52.025525 
L 104.127497 52.36317 
L 104.289273 52.475085 
z
" clip-path="url(#pe2433629a8)" style="fill: #e61a1a; stroke: #262626"/>
    <path d="M 104.812839 49.891216 
L 104.776055 49.048722 
L 104.665983 48.21264 
L 104.48346 47.389334 
L 104.229876 46.585067 
L 103.907161 45.805963 
L 103.51777 45.05795 
L 103.064667 44.346721 
L 102.551301 43.677689 
L 101.981578 43.055946 
L 101.359834 42.486223 
L 100.690802 41.972857 
L 99.979573 41.519754 
L 99.23156 41.130363 
L 98.452456 40.807647 
L 97.64819 40.554063 
L 96.824883 40.371541 
L 95.988801 40.261468 
L 95.146308 40.224684 
L 94.303814 40.261468 
L 93.467732 40.371541 
L 92.644425 40.554063 
L 91.840159 40.807647 
L 91.061055 41.130363 
L 90.313042 41.519754 
L 89.601813 41.972857 
L 88.932781 42.486223 
L 88.311037 43.055946 
L 87.741315 43.677689 
L 87.227948 44.346721 
L 86.774845 45.05795 
L 86.385455 45.805963 
L 86.062739 46.585067 
L 85.809155 47.389334 
L 85.626632 48.21264 
L 85.51656 49.048722 
L 85.479776 49.891216 
L 85.51656 50.73371 
L 85.626632 51.569792 
L 85.809155 52.393099 
L 86.062739 53.197365 
L 86.385455 53.976469 
L 86.774845 54.724482 
L 87.227948 55.435711 
L 87.741315 56.104743 
L 88.311037 56.726486 
L 88.932781 57.296209 
L 89.601813 57.809575 
L 90.313042 58.262678 
L 91.061055 58.652069 
L 91.840159 58.974785 
L 92.644425 59.228369 
L 93.467732 59.410892 
L 94.303814 59.520964 
L 95.146308 59.557748 
L 95.988801 59.520964 
L 96.824883 59.410892 
L 97.64819 59.228369 
L 98.452456 58.974785 
L 99.23156 58.652069 
L 99.979573 58.262678 
L 100.690802 57.809575 
L 101.359834 57.296209 
L 101.981578 56.726486 
L 102.551301 56.104743 
L 103.064667 55.435711 
L 103.51777 54.724482 
L 103.907161 53.976469 
L 104.229876 53.197365 
L 104.48346 52.393099 
L 104.665983 51.569792 
L 104.776055 50.73371 
L 104.812839 49.891216 
z
" clip-path="url(#pe2433629a8)" style="fill: #e61a1a; stroke: #262626"/>
    <path d="M 146.724359 145.572715 
L 146.909433 145.733561 
L 146.65439 146.027021 
L 146.469316 145.866175 
z
" clip-path="url(#pe2433629a8)" style="fill: #4c4c4c"/>
    <path d="M 45.977886 132.881231 
L 46.095355 133.023244 
L 46.438244 133.153752 
L 46.978776 133.262181 
L 47.673159 133.339749 
L 48.465138 133.38017 
L 49.290553 133.38017 
L 50.082532 133.339749 
L 50.776915 133.262181 
L 51.317447 133.153752 
L 51.660336 133.023244 
L 51.777805 132.881231 
L 51.777805 119.964162 
L 45.977886 119.964162 
z
" clip-path="url(#pe2433629a8)" style="fill: #3366e6; stroke: #262626"/>
    <path d="M 45.977886 119.964162 
L 51.777805 119.964162 
L 51.777805 107.047093 
L 51.660336 106.905081 
L 51.317447 106.774575 
L 50.776915 106.666147 
L 50.082532 106.58858 
L 49.290553 106.548159 
L 48.465138 106.548159 
L 47.673159 106.58858 
L 46.978776 106.666147 
L 46.438244 106.774575 
L 46.095355 106.905081 
L 45.977886 107.047093 
z
" clip-path="url(#pe2433629a8)" style="fill: #e61a1a; stroke: #262626"/>
    <path d="M 58.544377 97.966176 
L 58.507593 97.123683 
L 58.397521 96.287601 
L 58.214998 95.464294 
L 57.961414 94.660028 
L 57.638698 93.880923 
L 57.249307 93.13291 
L 56.796205 92.421681 
L 56.282838 91.752649 
L 55.713116 91.130906 
L 55.091372 90.561183 
L 54.42234 90.047817 
L 53.711111 89.594714 
L 52.963098 89.205323 
L 52.183994 88.882608 
L 51.379728 88.629024 
L 50.556421 88.446501 
L 49.720339 88.336429 
L 48.877845 88.299645 
L 48.035352 88.336429 
L 47.19927 88.446501 
L 46.375963 88.629024 
L 45.571697 88.882608 
L 44.792592 89.205323 
L 44.044579 89.594714 
L 43.33335 90.047817 
L 42.664318 90.561183 
L 42.042575 91.130906 
L 41.472852 91.752649 
L 40.959486 92.421681 
L 40.506383 93.13291 
L 40.116992 93.880923 
L 39.794277 94.660028 
L 39.540693 95.464294 
L 39.35817 96.287601 
L 39.248098 97.123683 
L 39.211314 97.966176 
L 39.248098 98.80867 
L 39.35817 99.644752 
L 39.540693 100.468059 
L 39.794277 101.272325 
L 40.116992 102.051429 
L 40.506383 102.799442 
L 40.959486 103.510671 
L 41.472852 104.179703 
L 42.042575 104.801447 
L 42.664318 105.371169 
L 43.33335 105.884536 
L 44.044579 106.337638 
L 44.792592 106.727029 
L 45.571697 107.049745 
L 46.375963 107.303329 
L 47.19927 107.485852 
L 48.035352 107.595924 
L 48.877845 107.632708 
L 49.720339 107.595924 
L 50.556421 107.485852 
L 51.379728 107.303329 
L 52.183994 107.049745 
L 52.963098 106.727029 
L 53.711111 106.337638 
L 54.42234 105.884536 
L 55.091372 105.371169 
L 55.713116 104.801447 
L 56.282838 104.179703 
L 56.796205 103.510671 
L 57.249307 102.799442 
L 57.638698 102.051429 
L 57.961414 101.272325 
L 58.214998 100.468059 
L 58.397521 99.644752 
L 58.507593 98.80867 
L 58.544377 97.966176 
z
" clip-path="url(#pe2433629a8)" style="fill: #e61a1a; stroke: #262626"/>
    <path d="M 85.674247 50.415016 
L 60.733117 51.282058 
L 60.719609 50.893493 
L 85.660739 50.026451 
z
" clip-path="url(#pe2433629a8)" style="fill: #4c4c4c"/>
    <path d="M 48.683445 88.44679 
L 48.683445 63.398905 
L 49.072245 63.398905 
L 49.072245 88.44679 
z
" clip-path="url(#pe2433629a8)" style="fill: #4c4c4c"/>
    <path d="M 146.909433 145.733561 
L 148.575097 147.181171 
L 148.320055 147.474631 
L 146.65439 146.027021 
z
" clip-path="url(#pe2433629a8)" style="fill: #4c4c4c"/>
    <path d="M 143.911995 50.195513 
L 145.243768 51.352942 
L 144.988725 51.646402 
L 143.656952 50.488973 
z
" clip-path="url(#pe2433629a8)" style="fill: #4c4c4c"/>
    <path d="M 51.37507 146.345433 
L 52.336696 147.181171 
L 52.081653 147.474631 
L 51.120028 146.638893 
z
" clip-path="url(#pe2433629a8)" style="fill: #4c4c4c"/>
    <path d="M 60.279318 48.201605 
L 60.125706 48.324485 
L 59.992701 48.672205 
L 59.891078 49.216596 
L 59.829071 49.913554 
L 59.811702 50.706616 
L 59.840379 51.531532 
L 59.912778 52.321473 
L 60.023035 53.012442 
L 60.162217 53.548462 
L 60.319048 53.886107 
L 60.480822 53.998023 
L 73.342834 53.550893 
L 73.14133 47.754476 
z
" clip-path="url(#pe2433629a8)" style="fill: #3366e6; stroke: #262626"/>
    <path d="M 73.14133 47.754476 
L 73.342834 53.550893 
L 86.204847 53.103764 
L 86.35846 52.980884 
L 86.491467 52.633164 
L 86.593091 52.088773 
L 86.655099 51.391815 
L 86.672468 50.598753 
L 86.643791 49.773837 
L 86.571391 48.983896 
L 86.461134 48.292927 
L 86.321951 47.756907 
L 86.165119 47.419262 
L 86.003342 47.307347 
z
" clip-path="url(#pe2433629a8)" style="fill: #e61a1a; stroke: #262626"/>
    <path d="M 51.777805 63.051129 
L 51.660336 62.909119 
L 51.317447 62.778615 
L 50.776915 62.670187 
L 50.082532 62.592622 
L 49.290553 62.552202 
L 48.465138 62.552202 
L 47.673159 62.592622 
L 46.978776 62.670187 
L 46.438244 62.778615 
L 46.095355 62.909119 
L 45.977886 63.051129 
L 45.977886 75.968195 
L 51.777805 75.968195 
z
" clip-path="url(#pe2433629a8)" style="fill: #3366e6; stroke: #262626"/>
    <path d="M 51.777805 75.968195 
L 45.977886 75.968195 
L 45.977886 88.88526 
L 46.095355 89.027271 
L 46.438244 89.157778 
L 46.978776 89.266206 
L 47.673159 89.343773 
L 48.465138 89.384193 
L 49.290553 89.384193 
L 50.082532 89.343773 
L 50.776915 89.266206 
L 51.317447 89.157778 
L 51.660336 89.027271 
L 51.777805 88.88526 
z
" clip-path="url(#pe2433629a8)" style="fill: #e61a1a; stroke: #262626"/>
    <path d="M 60.96101 51.499672 
L 60.91503 50.446555 
L 60.77744 49.401452 
L 60.549286 48.372319 
L 60.232306 47.366986 
L 59.828912 46.393106 
L 59.342173 45.45809 
L 58.775794 44.569053 
L 58.134087 43.732763 
L 57.421933 42.955584 
L 56.644754 42.243431 
L 55.808464 41.601723 
L 54.919428 41.035344 
L 53.984411 40.548606 
L 53.010531 40.145211 
L 52.005199 39.828231 
L 50.976065 39.600078 
L 49.930963 39.462487 
L 48.877845 39.416507 
L 47.824728 39.462487 
L 46.779626 39.600078 
L 45.750492 39.828231 
L 44.74516 40.145211 
L 43.771279 40.548606 
L 42.836263 41.035344 
L 41.947227 41.601723 
L 41.110937 42.243431 
L 40.333758 42.955584 
L 39.621604 43.732763 
L 38.979896 44.569053 
L 38.413518 45.45809 
L 37.926779 46.393106 
L 37.523385 47.366986 
L 37.206404 48.372319 
L 36.978251 49.401452 
L 36.840661 50.446555 
L 36.794681 51.499672 
L 36.840661 52.552789 
L 36.978251 53.597892 
L 37.206404 54.627025 
L 37.523385 55.632358 
L 37.926779 56.606238 
L 38.413518 57.541254 
L 38.979896 58.430291 
L 39.621604 59.266581 
L 40.333758 60.04376 
L 41.110937 60.755913 
L 41.947227 61.397621 
L 42.836263 61.964 
L 43.771279 62.450738 
L 44.74516 62.854133 
L 45.750492 63.171113 
L 46.779626 63.399266 
L 47.824728 63.536857 
L 48.877845 63.582837 
L 49.930963 63.536857 
L 50.976065 63.399266 
L 52.005199 63.171113 
L 53.010531 62.854133 
L 53.984411 62.450738 
L 54.919428 61.964 
L 55.808464 61.397621 
L 56.644754 60.755913 
L 57.421933 60.04376 
L 58.134087 59.266581 
L 58.775794 58.430291 
L 59.342173 57.541254 
L 59.828912 56.606238 
L 60.232306 55.632358 
L 60.549286 54.627025 
L 60.77744 53.597892 
L 60.91503 52.552789 
L 60.96101 51.499672 
z
" clip-path="url(#pe2433629a8)" style="fill: #3366e6; stroke: #262626"/>
    <path d="M 148.575097 147.181171 
L 148.900221 147.463732 
L 148.645178 147.757192 
L 148.320055 147.474631 
z
" clip-path="url(#pe2433629a8)" style="fill: #4c4c4c"/>
    <path d="M 145.243768 51.352942 
L 147.464654 53.283089 
L 147.209612 53.576549 
L 144.988725 51.646402 
z
" clip-path="url(#pe2433629a8)" style="fill: #4c4c4c"/>
    <path d="M 52.336696 147.181171 
L 54.557582 149.111319 
L 54.302539 149.404778 
L 52.081653 147.474631 
z
" clip-path="url(#pe2433629a8)" style="fill: #4c4c4c"/>
    <path d="M 145.61753 141.026233 
L 144.944986 140.597365 
L 144.172814 140.380568 
L 143.363572 140.393406 
L 142.58282 140.634839 
L 141.893808 141.085307 
L 141.352358 141.708316 
L 141.002334 142.453394 
L 140.872092 143.260179 
L 140.972185 144.06331 
L 141.294503 144.797722 
L 141.812934 145.403917 
L 144.385319 147.639547 
L 148.189915 143.261863 
z
" clip-path="url(#pe2433629a8)" style="fill: #3366e6; stroke: #262626"/>
    <path d="M 148.189915 143.261863 
L 144.385319 147.639547 
L 146.957704 149.875178 
L 147.630248 150.304046 
L 148.402419 150.520843 
L 149.211661 150.508004 
L 149.992414 150.266572 
L 150.681425 149.816103 
L 151.222876 149.193094 
L 151.5729 148.448016 
L 151.703142 147.641231 
L 151.603049 146.838101 
L 151.280731 146.103689 
L 150.7623 145.497494 
z
" clip-path="url(#pe2433629a8)" style="fill: #e61a1a; stroke: #262626"/>
    <path d="M 160.334994 149.258048 
L 160.29821 148.415555 
L 160.188138 147.579473 
L 160.005615 146.756166 
L 159.752031 145.9519 
L 159.429315 145.172796 
L 159.039924 144.424783 
L 158.586821 143.713554 
L 158.073455 143.044522 
L 157.503732 142.422778 
L 156.881989 141.853055 
L 156.212957 141.339689 
L 155.501728 140.886586 
L 154.753715 140.497195 
L 153.974611 140.17448 
L 153.170345 139.920896 
L 152.347038 139.738373 
L 151.510956 139.628301 
L 150.668462 139.591517 
L 149.825968 139.628301 
L 148.989887 139.738373 
L 148.16658 139.920896 
L 147.362314 140.17448 
L 146.583209 140.497195 
L 145.835196 140.886586 
L 145.123967 141.339689 
L 144.454935 141.853055 
L 143.833192 142.422778 
L 143.263469 143.044522 
L 142.750103 143.713554 
L 142.297 144.424783 
L 141.907609 145.172796 
L 141.584894 145.9519 
L 141.331309 146.756166 
L 141.148787 147.579473 
L 141.038714 148.415555 
L 141.00193 149.258048 
L 141.038714 150.100542 
L 141.148787 150.936624 
L 141.331309 151.759931 
L 141.584894 152.564197 
L 141.907609 153.343301 
L 142.297 154.091314 
L 142.750103 154.802543 
L 143.263469 155.471575 
L 143.833192 156.093319 
L 144.454935 156.663041 
L 145.123967 157.176408 
L 145.835196 157.629511 
L 146.583209 158.018901 
L 147.362314 158.341617 
L 148.16658 158.595201 
L 148.989887 158.777724 
L 149.825968 158.887796 
L 150.668462 158.92458 
L 151.510956 158.887796 
L 152.347038 158.777724 
L 153.170345 158.595201 
L 153.974611 158.341617 
L 154.753715 158.018901 
L 155.501728 157.629511 
L 156.212957 157.176408 
L 156.881989 156.663041 
L 157.503732 156.093319 
L 158.073455 155.471575 
L 158.586821 154.802543 
L 159.039924 154.091314 
L 159.429315 153.343301 
L 159.752031 152.564197 
L 160.005615 151.759931 
L 160.188138 150.936624 
L 160.29821 150.100542 
L 160.334994 149.258048 
z
" clip-path="url(#pe2433629a8)" style="fill: #e61a1a; stroke: #262626"/>
    <path d="M 147.464654 53.283089 
L 148.900221 54.530724 
L 148.645178 54.824184 
L 147.209612 53.576549 
z
" clip-path="url(#pe2433629a8)" style="fill: #4c4c4c"/>
    <path d="M 54.557582 149.111319 
L 56.363296 150.680644 
L 56.108254 150.974104 
L 54.302539 149.404778 
z
" clip-path="url(#pe2433629a8)" style="fill: #4c4c4c"/>
    <path d="M 51.37507 53.412425 
L 54.557582 56.17831 
L 54.302539 56.47177 
L 51.120028 53.705885 
z
" clip-path="url(#pe2433629a8)" style="fill: #4c4c4c"/>
    <path d="M 152.691746 150.758905 
L 154.127313 152.006539 
L 153.87227 152.299999 
L 152.436704 151.052364 
z
" clip-path="url(#pe2433629a8)" style="fill: #4c4c4c"/>
    <path d="M 145.617508 48.093205 
L 144.944964 47.664337 
L 144.172792 47.44754 
L 143.36355 47.460378 
L 142.582797 47.70181 
L 141.893785 48.152278 
L 141.352335 48.775288 
L 141.002311 49.520366 
L 140.87207 50.327151 
L 140.972163 51.130282 
L 141.294481 51.864694 
L 141.812913 52.470889 
L 144.385317 54.706536 
L 148.189912 50.328853 
z
" clip-path="url(#pe2433629a8)" style="fill: #3366e6; stroke: #262626"/>
    <path d="M 148.189912 50.328853 
L 144.385317 54.706536 
L 146.957721 56.942184 
L 147.630265 57.371052 
L 148.402437 57.587849 
L 149.211679 57.575011 
L 149.992432 57.333579 
L 150.681444 56.883111 
L 151.222894 56.260101 
L 151.572918 55.515023 
L 151.70316 54.708238 
L 151.603067 53.905107 
L 151.280748 53.170695 
L 150.762316 52.5645 
z
" clip-path="url(#pe2433629a8)" style="fill: #e61a1a; stroke: #262626"/>
    <path d="M 160.334994 56.32504 
L 160.29821 55.482546 
L 160.188138 54.646464 
L 160.005615 53.823157 
L 159.752031 53.018891 
L 159.429315 52.239787 
L 159.039924 51.491774 
L 158.586821 50.780545 
L 158.073455 50.111513 
L 157.503732 49.48977 
L 156.881989 48.920047 
L 156.212957 48.40668 
L 155.501728 47.953578 
L 154.753715 47.564187 
L 153.974611 47.241471 
L 153.170345 46.987887 
L 152.347038 46.805364 
L 151.510956 46.695292 
L 150.668462 46.658508 
L 149.825968 46.695292 
L 148.989887 46.805364 
L 148.16658 46.987887 
L 147.362314 47.241471 
L 146.583209 47.564187 
L 145.835196 47.953578 
L 145.123967 48.40668 
L 144.454935 48.920047 
L 143.833192 49.48977 
L 143.263469 50.111513 
L 142.750103 50.780545 
L 142.297 51.491774 
L 141.907609 52.239787 
L 141.584894 53.018891 
L 141.331309 53.823157 
L 141.148787 54.646464 
L 141.038714 55.482546 
L 141.00193 56.32504 
L 141.038714 57.167533 
L 141.148787 58.003615 
L 141.331309 58.826922 
L 141.584894 59.631188 
L 141.907609 60.410293 
L 142.297 61.158306 
L 142.750103 61.869535 
L 143.263469 62.538567 
L 143.833192 63.16031 
L 144.454935 63.730033 
L 145.123967 64.243399 
L 145.835196 64.696502 
L 146.583209 65.085893 
L 147.362314 65.408608 
L 148.16658 65.662192 
L 148.989887 65.844715 
L 149.825968 65.954787 
L 150.668462 65.991572 
L 151.510956 65.954787 
L 152.347038 65.844715 
L 153.170345 65.662192 
L 153.974611 65.408608 
L 154.753715 65.085893 
L 155.501728 64.696502 
L 156.212957 64.243399 
L 156.881989 63.730033 
L 157.503732 63.16031 
L 158.073455 62.538567 
L 158.586821 61.869535 
L 159.039924 61.158306 
L 159.429315 60.410293 
L 159.752031 59.631188 
L 160.005615 58.826922 
L 160.188138 58.003615 
L 160.29821 57.167533 
L 160.334994 56.32504 
z
" clip-path="url(#pe2433629a8)" style="fill: #e61a1a; stroke: #262626"/>
    <path d="M 54.557582 56.17831 
L 54.742656 56.339155 
L 54.487613 56.632615 
L 54.302539 56.47177 
z
" clip-path="url(#pe2433629a8)" style="fill: #4c4c4c"/>
    <path d="M 154.127313 152.006539 
L 154.312387 152.167385 
L 154.057344 152.460845 
L 153.87227 152.299999 
z
" clip-path="url(#pe2433629a8)" style="fill: #4c4c4c"/>
    <path d="M 121.316431 104.4 
L 121.252059 102.925636 
L 121.059432 101.462493 
L 120.740017 100.021706 
L 120.296245 98.61424 
L 119.731493 97.250807 
L 119.050059 95.941785 
L 118.257129 94.697134 
L 117.358738 93.526328 
L 116.361723 92.438277 
L 115.273672 91.441262 
L 114.102866 90.542871 
L 112.858215 89.749941 
L 111.549193 89.068507 
L 110.18576 88.503755 
L 108.778294 88.059983 
L 107.337507 87.740568 
L 105.874364 87.547941 
L 104.4 87.483569 
L 102.925636 87.547941 
L 101.462493 87.740568 
L 100.021706 88.059983 
L 98.61424 88.503755 
L 97.250807 89.068507 
L 95.941785 89.749941 
L 94.697134 90.542871 
L 93.526328 91.441262 
L 92.438277 92.438277 
L 91.441262 93.526328 
L 90.542871 94.697134 
L 89.749941 95.941785 
L 89.068507 97.250807 
L 88.503755 98.61424 
L 88.059983 100.021706 
L 87.740568 101.462493 
L 87.547941 102.925636 
L 87.483569 104.4 
L 87.547941 105.874364 
L 87.740568 107.337507 
L 88.059983 108.778294 
L 88.503755 110.18576 
L 89.068507 111.549193 
L 89.749941 112.858215 
L 90.542871 114.102866 
L 91.441262 115.273672 
L 92.438277 116.361723 
L 93.526328 117.358738 
L 94.697134 118.257129 
L 95.941785 119.050059 
L 97.250807 119.731493 
L 98.61424 120.296245 
L 100.021706 120.740017 
L 101.462493 121.059432 
L 102.925636 121.252059 
L 104.4 121.316431 
L 105.874364 121.252059 
L 107.337507 121.059432 
L 108.778294 120.740017 
L 110.18576 120.296245 
L 111.549193 119.731493 
L 112.858215 119.050059 
L 114.102866 118.257129 
L 115.273672 117.358738 
L 116.361723 116.361723 
L 117.358738 115.273672 
L 118.257129 114.102866 
L 119.050059 112.858215 
L 119.731493 111.549193 
L 120.296245 110.18576 
L 120.740017 108.778294 
L 121.059432 107.337507 
L 121.252059 105.874364 
L 121.316431 104.4 
z
" clip-path="url(#pe2433629a8)" style="fill: #00cc33; stroke: #262626"/>
    <path d="M 154.312387 152.167385 
L 154.497461 152.32823 
L 154.242418 152.62169 
L 154.057344 152.460845 
z
" clip-path="url(#pe2433629a8)" style="fill: #4c4c4c"/>
    <path d="M 54.742656 56.339155 
L 54.92773 56.500001 
L 54.672687 56.793461 
L 54.487613 56.632615 
z
" clip-path="url(#pe2433629a8)" style="fill: #4c4c4c"/>
    <path d="M 53.080582 144.243124 
L 52.408037 143.814255 
L 51.635865 143.597458 
L 50.826623 143.610296 
L 50.04587 143.851729 
L 49.356859 144.302197 
L 48.815408 144.925206 
L 48.465384 145.670284 
L 48.335143 146.477069 
L 48.435236 147.2802 
L 48.757554 148.014612 
L 49.275986 148.620808 
L 51.848392 150.856457 
L 55.652988 146.478773 
z
" clip-path="url(#pe2433629a8)" style="fill: #3366e6; stroke: #262626"/>
    <path d="M 55.652988 146.478773 
L 51.848392 150.856457 
L 54.420799 153.092106 
L 55.093343 153.520974 
L 55.865515 153.737772 
L 56.674757 153.724934 
L 57.45551 153.483501 
L 58.144521 153.033033 
L 58.685972 152.410024 
L 59.035996 151.664946 
L 59.166237 150.858161 
L 59.066144 150.05503 
L 58.743826 149.320618 
L 58.225394 148.714422 
z
" clip-path="url(#pe2433629a8)" style="fill: #e61a1a; stroke: #262626"/>
    <path d="M 67.79807 152.47496 
L 67.761286 151.632467 
L 67.651213 150.796385 
L 67.468691 149.973078 
L 67.215106 149.168812 
L 66.892391 148.389707 
L 66.503 147.641694 
L 66.049897 146.930465 
L 65.536531 146.261433 
L 64.966808 145.63969 
L 64.345065 145.069967 
L 63.676033 144.556601 
L 62.964804 144.103498 
L 62.216791 143.714107 
L 61.437686 143.391392 
L 60.63342 143.137808 
L 59.810113 142.955285 
L 58.974032 142.845213 
L 58.131538 142.808428 
L 57.289044 142.845213 
L 56.452962 142.955285 
L 55.629655 143.137808 
L 54.825389 143.391392 
L 54.046285 143.714107 
L 53.298272 144.103498 
L 52.587043 144.556601 
L 51.918011 145.069967 
L 51.296268 145.63969 
L 50.726545 146.261433 
L 50.213179 146.930465 
L 49.760076 147.641694 
L 49.370685 148.389707 
L 49.047969 149.168812 
L 48.794385 149.973078 
L 48.611862 150.796385 
L 48.50179 151.632467 
L 48.465006 152.47496 
L 48.50179 153.317454 
L 48.611862 154.153536 
L 48.794385 154.976843 
L 49.047969 155.781109 
L 49.370685 156.560213 
L 49.760076 157.308226 
L 50.213179 158.019455 
L 50.726545 158.688487 
L 51.296268 159.31023 
L 51.918011 159.879953 
L 52.587043 160.39332 
L 53.298272 160.846422 
L 54.046285 161.235813 
L 54.825389 161.558529 
L 55.629655 161.812113 
L 56.452962 161.994636 
L 57.289044 162.104708 
L 58.131538 162.141492 
L 58.974032 162.104708 
L 59.810113 161.994636 
L 60.63342 161.812113 
L 61.437686 161.558529 
L 62.216791 161.235813 
L 62.964804 160.846422 
L 63.676033 160.39332 
L 64.345065 159.879953 
L 64.966808 159.31023 
L 65.536531 158.688487 
L 66.049897 158.019455 
L 66.503 157.308226 
L 66.892391 156.560213 
L 67.215106 155.781109 
L 67.468691 154.976843 
L 67.651213 154.153536 
L 67.761286 153.317454 
L 67.79807 152.47496 
z
" clip-path="url(#pe2433629a8)" style="fill: #e61a1a; stroke: #262626"/>
    <path d="M 54.92773 56.500001 
L 56.363296 57.747636 
L 56.108254 58.041095 
L 54.672687 56.793461 
z
" clip-path="url(#pe2433629a8)" style="fill: #4c4c4c"/>
    <path d="M 154.497461 152.32823 
L 157.679972 155.094115 
L 157.42493 155.387575 
L 154.242418 152.62169 
z
" clip-path="url(#pe2433629a8)" style="fill: #4c4c4c"/>
    <path d="M 152.691746 57.825896 
L 154.497461 59.395222 
L 154.242418 59.688681 
L 152.436704 58.119356 
z
" clip-path="url(#pe2433629a8)" style="fill: #4c4c4c"/>
    <path d="M 60.154822 153.975816 
L 61.590388 155.223451 
L 61.335346 155.516911 
L 59.899779 154.269276 
z
" clip-path="url(#pe2433629a8)" style="fill: #4c4c4c"/>
    <path d="M 53.08056 51.310096 
L 52.408015 50.881228 
L 51.635843 50.66443 
L 50.8266 50.677268 
L 50.045847 50.9187 
L 49.356836 51.369168 
L 48.815385 51.992177 
L 48.465361 52.737256 
L 48.33512 53.544041 
L 48.435213 54.347172 
L 48.757532 55.081584 
L 49.275964 55.68778 
L 51.84839 57.923446 
L 55.652985 53.545762 
z
" clip-path="url(#pe2433629a8)" style="fill: #3366e6; stroke: #262626"/>
    <path d="M 55.652985 53.545762 
L 51.84839 57.923446 
L 54.420815 60.159112 
L 55.09336 60.587981 
L 55.865532 60.804778 
L 56.674775 60.791941 
L 57.455528 60.550508 
L 58.14454 60.10004 
L 58.68599 59.477031 
L 59.036014 58.731953 
L 59.166255 57.925168 
L 59.066162 57.122036 
L 58.743843 56.387624 
L 58.225411 55.781428 
z
" clip-path="url(#pe2433629a8)" style="fill: #e61a1a; stroke: #262626"/>
    <path d="M 67.79807 59.541952 
L 67.761286 58.699458 
L 67.651213 57.863376 
L 67.468691 57.040069 
L 67.215106 56.235803 
L 66.892391 55.456699 
L 66.503 54.708686 
L 66.049897 53.997457 
L 65.536531 53.328425 
L 64.966808 52.706681 
L 64.345065 52.136959 
L 63.676033 51.623592 
L 62.964804 51.170489 
L 62.216791 50.781099 
L 61.437686 50.458383 
L 60.63342 50.204799 
L 59.810113 50.022276 
L 58.974032 49.912204 
L 58.131538 49.87542 
L 57.289044 49.912204 
L 56.452962 50.022276 
L 55.629655 50.204799 
L 54.825389 50.458383 
L 54.046285 50.781099 
L 53.298272 51.170489 
L 52.587043 51.623592 
L 51.918011 52.136959 
L 51.296268 52.706681 
L 50.726545 53.328425 
L 50.213179 53.997457 
L 49.760076 54.708686 
L 49.370685 55.456699 
L 49.047969 56.235803 
L 48.794385 57.040069 
L 48.611862 57.863376 
L 48.50179 58.699458 
L 48.465006 59.541952 
L 48.50179 60.384445 
L 48.611862 61.220527 
L 48.794385 62.043834 
L 49.047969 62.8481 
L 49.370685 63.627204 
L 49.760076 64.375217 
L 50.213179 65.086446 
L 50.726545 65.755478 
L 51.296268 66.377222 
L 51.918011 66.946945 
L 52.587043 67.460311 
L 53.298272 67.913414 
L 54.046285 68.302805 
L 54.825389 68.62552 
L 55.629655 68.879104 
L 56.452962 69.061627 
L 57.289044 69.171699 
L 58.131538 69.208483 
L 58.974032 69.171699 
L 59.810113 69.061627 
L 60.63342 68.879104 
L 61.437686 68.62552 
L 62.216791 68.302805 
L 62.964804 67.913414 
L 63.676033 67.460311 
L 64.345065 66.946945 
L 64.966808 66.377222 
L 65.536531 65.755478 
L 66.049897 65.086446 
L 66.503 64.375217 
L 66.892391 63.627204 
L 67.215106 62.8481 
L 67.468691 62.043834 
L 67.651213 61.220527 
L 67.761286 60.384445 
L 67.79807 59.541952 
z
" clip-path="url(#pe2433629a8)" style="fill: #e61a1a; stroke: #262626"/>
    <path d="M 154.497461 59.395222 
L 156.718347 61.325369 
L 156.463304 61.618829 
L 154.242418 59.688681 
z
" clip-path="url(#pe2433629a8)" style="fill: #4c4c4c"/>
    <path d="M 61.590388 155.223451 
L 63.811275 157.153598 
L 63.556232 157.447058 
L 61.335346 155.516911 
z
" clip-path="url(#pe2433629a8)" style="fill: #4c4c4c"/>
    <path d="M 60.154822 61.042808 
L 60.479945 61.325369 
L 60.224903 61.618829 
L 59.899779 61.336268 
z
" clip-path="url(#pe2433629a8)" style="fill: #4c4c4c"/>
    <path d="M 154.37922 148.640919 
L 153.706676 148.212051 
L 152.934505 147.995254 
L 152.125263 148.008092 
L 151.34451 148.249525 
L 150.655499 148.699994 
L 150.114049 149.323003 
L 149.764024 150.068081 
L 149.633783 150.874866 
L 149.733876 151.677996 
L 150.056194 152.412408 
L 150.574625 153.018603 
L 153.147005 155.25423 
L 156.951601 150.876546 
z
" clip-path="url(#pe2433629a8)" style="fill: #e61a1a; stroke: #262626"/>
    <path d="M 156.951601 150.876546 
L 153.147005 155.25423 
L 155.719386 157.489856 
L 156.39193 157.918724 
L 157.164101 158.135521 
L 157.973343 158.122683 
L 158.754095 157.88125 
L 159.443107 157.430782 
L 159.984557 156.807772 
L 160.334581 156.062694 
L 160.464823 155.25591 
L 160.36473 154.452779 
L 160.042412 153.718368 
L 159.523981 153.112173 
z
" clip-path="url(#pe2433629a8)" style="fill: #3366e6; stroke: #262626"/>
    <path d="M 172.005319 157.300328 
L 171.959339 156.247211 
L 171.821749 155.202108 
L 171.593596 154.172975 
L 171.276615 153.167642 
L 170.873221 152.193762 
L 170.386482 151.258746 
L 169.820104 150.369709 
L 169.178396 149.533419 
L 168.466242 148.75624 
L 167.689063 148.044087 
L 166.852773 147.402379 
L 165.963737 146.836 
L 165.028721 146.349262 
L 164.05484 145.945867 
L 163.049508 145.628887 
L 162.020374 145.400734 
L 160.975272 145.263143 
L 159.922155 145.217163 
L 158.869037 145.263143 
L 157.823935 145.400734 
L 156.794801 145.628887 
L 155.789469 145.945867 
L 154.815589 146.349262 
L 153.880572 146.836 
L 152.991536 147.402379 
L 152.155246 148.044087 
L 151.378067 148.75624 
L 150.665913 149.533419 
L 150.024206 150.369709 
L 149.457827 151.258746 
L 148.971088 152.193762 
L 148.567694 153.167642 
L 148.250714 154.172975 
L 148.02256 155.202108 
L 147.88497 156.247211 
L 147.83899 157.300328 
L 147.88497 158.353445 
L 148.02256 159.398548 
L 148.250714 160.427681 
L 148.567694 161.433014 
L 148.971088 162.406894 
L 149.457827 163.34191 
L 150.024206 164.230947 
L 150.665913 165.067237 
L 151.378067 165.844416 
L 152.155246 166.556569 
L 152.991536 167.198277 
L 153.880572 167.764656 
L 154.815589 168.251394 
L 155.789469 168.654789 
L 156.794801 168.971769 
L 157.823935 169.199922 
L 158.869037 169.337513 
L 159.922155 169.383493 
L 160.975272 169.337513 
L 162.020374 169.199922 
L 163.049508 168.971769 
L 164.05484 168.654789 
L 165.028721 168.251394 
L 165.963737 167.764656 
L 166.852773 167.198277 
L 167.689063 166.556569 
L 168.466242 165.844416 
L 169.178396 165.067237 
L 169.820104 164.230947 
L 170.386482 163.34191 
L 170.873221 162.406894 
L 171.276615 161.433014 
L 171.593596 160.427681 
L 171.821749 159.398548 
L 171.959339 158.353445 
L 172.005319 157.300328 
z
" clip-path="url(#pe2433629a8)" style="fill: #3366e6; stroke: #262626"/>
    <path d="M 156.718347 61.325369 
L 157.679972 62.161107 
L 157.42493 62.454567 
L 156.463304 61.618829 
z
" clip-path="url(#pe2433629a8)" style="fill: #4c4c4c"/>
    <path d="M 63.811275 157.153598 
L 65.143048 158.311027 
L 64.888005 158.604487 
L 63.556232 157.447058 
z
" clip-path="url(#pe2433629a8)" style="fill: #4c4c4c"/>
    <path d="M 60.479945 61.325369 
L 62.14561 62.772979 
L 61.890567 63.066439 
L 60.224903 61.618829 
z
" clip-path="url(#pe2433629a8)" style="fill: #4c4c4c"/>
    <path d="M 159.727755 145.401095 
L 159.727755 120.35321 
L 160.116555 120.35321 
L 160.116555 145.401095 
z
" clip-path="url(#pe2433629a8)" style="fill: #4c4c4c"/>
    <path d="M 148.080391 157.906507 
L 123.139261 158.773549 
L 123.125753 158.384984 
L 148.066883 157.517942 
z
" clip-path="url(#pe2433629a8)" style="fill: #4c4c4c"/>
    <path d="M 157.022195 145.74888 
L 157.139664 145.890893 
L 157.482553 146.021401 
L 158.023085 146.129831 
L 158.717468 146.207399 
L 159.509447 146.24782 
L 160.334862 146.24782 
L 161.126841 146.207399 
L 161.821224 146.129831 
L 162.361756 146.021401 
L 162.704645 145.890893 
L 162.822114 145.74888 
L 162.822114 132.831809 
L 157.022195 132.831809 
z
" clip-path="url(#pe2433629a8)" style="fill: #3366e6; stroke: #262626"/>
    <path d="M 157.022195 132.831809 
L 162.822114 132.831809 
L 162.822114 119.914739 
L 162.704645 119.772727 
L 162.361756 119.642221 
L 161.821224 119.533792 
L 161.126841 119.456225 
L 160.334862 119.415804 
L 159.509447 119.415804 
L 158.717468 119.456225 
L 158.023085 119.533792 
L 157.482553 119.642221 
L 157.139664 119.772727 
L 157.022195 119.914739 
z
" clip-path="url(#pe2433629a8)" style="fill: #e61a1a; stroke: #262626"/>
    <path d="M 169.588686 110.833824 
L 169.551902 109.99133 
L 169.44183 109.155248 
L 169.259307 108.331941 
L 169.005723 107.527675 
L 168.683008 106.748571 
L 168.293617 106.000558 
L 167.840514 105.289329 
L 167.327148 104.620297 
L 166.757425 103.998553 
L 166.135682 103.428831 
L 165.46665 102.915464 
L 164.755421 102.462362 
L 164.007408 102.072971 
L 163.228303 101.750255 
L 162.424037 101.496671 
L 161.60073 101.314148 
L 160.764648 101.204076 
L 159.922155 101.167292 
L 159.079661 101.204076 
L 158.243579 101.314148 
L 157.420272 101.496671 
L 156.616006 101.750255 
L 155.836902 102.072971 
L 155.088889 102.462362 
L 154.37766 102.915464 
L 153.708628 103.428831 
L 153.086884 103.998553 
L 152.517162 104.620297 
L 152.003795 105.289329 
L 151.550693 106.000558 
L 151.161302 106.748571 
L 150.838586 107.527675 
L 150.585002 108.331941 
L 150.402479 109.155248 
L 150.292407 109.99133 
L 150.255623 110.833824 
L 150.292407 111.676317 
L 150.402479 112.512399 
L 150.585002 113.335706 
L 150.838586 114.139972 
L 151.161302 114.919077 
L 151.550693 115.66709 
L 152.003795 116.378319 
L 152.517162 117.047351 
L 153.086884 117.669094 
L 153.708628 118.238817 
L 154.37766 118.752183 
L 155.088889 119.205286 
L 155.836902 119.594677 
L 156.616006 119.917392 
L 157.420272 120.170976 
L 158.243579 120.353499 
L 159.079661 120.463571 
L 159.922155 120.500355 
L 160.764648 120.463571 
L 161.60073 120.353499 
L 162.424037 120.170976 
L 163.228303 119.917392 
L 164.007408 119.594677 
L 164.755421 119.205286 
L 165.46665 118.752183 
L 166.135682 118.238817 
L 166.757425 117.669094 
L 167.327148 117.047351 
L 167.840514 116.378319 
L 168.293617 115.66709 
L 168.683008 114.919077 
L 169.005723 114.139972 
L 169.259307 113.335706 
L 169.44183 112.512399 
L 169.551902 111.676317 
L 169.588686 110.833824 
z
" clip-path="url(#pe2433629a8)" style="fill: #e61a1a; stroke: #262626"/>
    <path d="M 62.14561 62.772979 
L 62.330684 62.933825 
L 62.075641 63.227285 
L 61.890567 63.066439 
z
" clip-path="url(#pe2433629a8)" style="fill: #4c4c4c"/>
    <path d="M 148.520692 160.598395 
L 148.674308 160.475515 
L 148.807316 160.127794 
L 148.908941 159.583403 
L 148.970951 158.886445 
L 148.988321 158.093383 
L 148.959644 157.268467 
L 148.887243 156.478526 
L 148.776984 155.787557 
L 148.6378 155.251537 
L 148.480966 154.913893 
L 148.319188 154.801977 
L 135.45717 155.249106 
L 135.658674 161.045524 
z
" clip-path="url(#pe2433629a8)" style="fill: #3366e6; stroke: #262626"/>
    <path d="M 135.658674 161.045524 
L 135.45717 155.249106 
L 122.595152 155.696236 
L 122.441538 155.819116 
L 122.308531 156.166836 
L 122.206907 156.711227 
L 122.144898 157.408185 
L 122.127529 158.201247 
L 122.156206 159.026163 
L 122.228606 159.816104 
L 122.338864 160.507073 
L 122.478047 161.043093 
L 122.63488 161.380738 
L 122.796656 161.492653 
z
" clip-path="url(#pe2433629a8)" style="fill: #e61a1a; stroke: #262626"/>
    <path d="M 123.320224 158.908784 
L 123.28344 158.06629 
L 123.173368 157.230208 
L 122.990845 156.406901 
L 122.737261 155.602635 
L 122.414545 154.823531 
L 122.025155 154.075518 
L 121.572052 153.364289 
L 121.058685 152.695257 
L 120.488963 152.073514 
L 119.867219 151.503791 
L 119.198187 150.990425 
L 118.486958 150.537322 
L 117.738945 150.147931 
L 116.959841 149.825215 
L 116.155575 149.571631 
L 115.332268 149.389108 
L 114.496186 149.279036 
L 113.653692 149.242252 
L 112.811199 149.279036 
L 111.975117 149.389108 
L 111.15181 149.571631 
L 110.347544 149.825215 
L 109.56844 150.147931 
L 108.820427 150.537322 
L 108.109198 150.990425 
L 107.440166 151.503791 
L 106.818422 152.073514 
L 106.248699 152.695257 
L 105.735333 153.364289 
L 105.28223 154.075518 
L 104.892839 154.823531 
L 104.570124 155.602635 
L 104.31654 156.406901 
L 104.134017 157.230208 
L 104.023945 158.06629 
L 103.987161 158.908784 
L 104.023945 159.751278 
L 104.134017 160.58736 
L 104.31654 161.410666 
L 104.570124 162.214933 
L 104.892839 162.994037 
L 105.28223 163.74205 
L 105.735333 164.453279 
L 106.248699 165.122311 
L 106.818422 165.744054 
L 107.440166 166.313777 
L 108.109198 166.827143 
L 108.820427 167.280246 
L 109.56844 167.669637 
L 110.347544 167.992353 
L 111.15181 168.245937 
L 111.975117 168.428459 
L 112.811199 168.538532 
L 113.653692 168.575316 
L 114.496186 168.538532 
L 115.332268 168.428459 
L 116.155575 168.245937 
L 116.959841 167.992353 
L 117.738945 167.669637 
L 118.486958 167.280246 
L 119.198187 166.827143 
L 119.867219 166.313777 
L 120.488963 165.744054 
L 121.058685 165.122311 
L 121.572052 164.453279 
L 122.025155 163.74205 
L 122.414545 162.994037 
L 122.737261 162.214933 
L 122.990845 161.410666 
L 123.173368 160.58736 
L 123.28344 159.751278 
L 123.320224 158.908784 
z
" clip-path="url(#pe2433629a8)" style="fill: #e61a1a; stroke: #262626"/>
    <path d="M 159.727755 101.314437 
L 159.727755 76.266552 
L 160.116555 76.266552 
L 160.116555 101.314437 
z
" clip-path="url(#pe2433629a8)" style="fill: #4c4c4c"/>
    <path d="M 62.330684 62.933825 
L 63.811275 64.220589 
L 63.556232 64.514049 
L 62.075641 63.227285 
z
" clip-path="url(#pe2433629a8)" style="fill: #4c4c4c"/>
    <path d="M 104.181632 159.432584 
L 79.240502 160.299626 
L 79.226994 159.911061 
L 104.168124 159.044019 
z
" clip-path="url(#pe2433629a8)" style="fill: #4c4c4c"/>
    <path d="M 155.719407 64.556866 
L 156.391952 64.985735 
L 157.164123 65.202532 
L 157.973366 65.189694 
L 158.754118 64.948261 
L 159.44313 64.497793 
L 159.98458 63.874784 
L 160.334604 63.129706 
L 160.464846 62.322921 
L 160.364753 61.51979 
L 160.042434 60.785378 
L 159.524003 60.179183 
L 156.951603 57.943539 
L 153.147008 62.321223 
z
" clip-path="url(#pe2433629a8)" style="fill: #3366e6; stroke: #262626"/>
    <path d="M 153.147008 62.321223 
L 156.951603 57.943539 
L 154.379203 55.707896 
L 153.706659 55.279027 
L 152.934487 55.06223 
L 152.125245 55.075068 
L 151.344492 55.316501 
L 150.655481 55.766969 
L 150.11403 56.389978 
L 149.764006 57.135056 
L 149.633765 57.941841 
L 149.733858 58.744972 
L 150.056176 59.479384 
L 150.574608 60.085579 
z
" clip-path="url(#pe2433629a8)" style="fill: #e61a1a; stroke: #262626"/>
    <path d="M 162.822114 75.918775 
L 162.704645 75.776765 
L 162.361756 75.64626 
L 161.821224 75.537832 
L 161.126841 75.460267 
L 160.334862 75.419846 
L 159.509447 75.419846 
L 158.717468 75.460267 
L 158.023085 75.537832 
L 157.482553 75.64626 
L 157.139664 75.776765 
L 157.022195 75.918775 
L 157.022195 88.835842 
L 162.822114 88.835842 
z
" clip-path="url(#pe2433629a8)" style="fill: #3366e6; stroke: #262626"/>
    <path d="M 162.822114 88.835842 
L 157.022195 88.835842 
L 157.022195 101.752908 
L 157.139664 101.89492 
L 157.482553 102.025427 
L 158.023085 102.133855 
L 158.717468 102.211422 
L 159.509447 102.251843 
L 160.334862 102.251843 
L 161.126841 102.211422 
L 161.821224 102.133855 
L 162.361756 102.025427 
L 162.704645 101.89492 
L 162.822114 101.752908 
z
" clip-path="url(#pe2433629a8)" style="fill: #e61a1a; stroke: #262626"/>
    <path d="M 172.005319 64.367319 
L 171.959339 63.314202 
L 171.821749 62.2691 
L 171.593596 61.239966 
L 171.276615 60.234634 
L 170.873221 59.260753 
L 170.386482 58.325737 
L 169.820104 57.436701 
L 169.178396 56.600411 
L 168.466242 55.823232 
L 167.689063 55.111078 
L 166.852773 54.46937 
L 165.963737 53.902992 
L 165.028721 53.416253 
L 164.05484 53.012859 
L 163.049508 52.695878 
L 162.020374 52.467725 
L 160.975272 52.330135 
L 159.922155 52.284155 
L 158.869037 52.330135 
L 157.823935 52.467725 
L 156.794801 52.695878 
L 155.789469 53.012859 
L 154.815589 53.416253 
L 153.880572 53.902992 
L 152.991536 54.46937 
L 152.155246 55.111078 
L 151.378067 55.823232 
L 150.665913 56.600411 
L 150.024206 57.436701 
L 149.457827 58.325737 
L 148.971088 59.260753 
L 148.567694 60.234634 
L 148.250714 61.239966 
L 148.02256 62.2691 
L 147.88497 63.314202 
L 147.83899 64.367319 
L 147.88497 65.420437 
L 148.02256 66.465539 
L 148.250714 67.494672 
L 148.567694 68.500005 
L 148.971088 69.473885 
L 149.457827 70.408902 
L 150.024206 71.297938 
L 150.665913 72.134228 
L 151.378067 72.911407 
L 152.155246 73.623561 
L 152.991536 74.265268 
L 153.880572 74.831647 
L 154.815589 75.318386 
L 155.789469 75.72178 
L 156.794801 76.03876 
L 157.823935 76.266914 
L 158.869037 76.404504 
L 159.922155 76.450484 
L 160.975272 76.404504 
L 162.020374 76.266914 
L 163.049508 76.03876 
L 164.05484 75.72178 
L 165.028721 75.318386 
L 165.963737 74.831647 
L 166.852773 74.265268 
L 167.689063 73.623561 
L 168.466242 72.911407 
L 169.178396 72.134228 
L 169.820104 71.297938 
L 170.386482 70.408902 
L 170.873221 69.473885 
L 171.276615 68.500005 
L 171.593596 67.494672 
L 171.821749 66.465539 
L 171.959339 65.420437 
L 172.005319 64.367319 
z
" clip-path="url(#pe2433629a8)" style="fill: #3366e6; stroke: #262626"/>
    <path d="M 63.811275 64.220589 
L 64.181422 64.542281 
L 63.92638 64.83574 
L 63.556232 64.514049 
z
" clip-path="url(#pe2433629a8)" style="fill: #4c4c4c"/>
    <path d="M 63.182485 160.706789 
L 63.85503 161.135657 
L 64.627201 161.352455 
L 65.436444 161.339617 
L 66.217196 161.098184 
L 66.906208 160.647716 
L 67.447658 160.024706 
L 67.797683 159.279628 
L 67.927924 158.472844 
L 67.827831 157.669713 
L 67.505512 156.935301 
L 66.987081 156.329105 
L 64.414679 154.09346 
L 60.610084 158.471144 
z
" clip-path="url(#pe2433629a8)" style="fill: #3366e6; stroke: #262626"/>
    <path d="M 60.610084 158.471144 
L 64.414679 154.09346 
L 61.842277 151.857815 
L 61.169733 151.428946 
L 60.397561 151.212149 
L 59.588319 151.224987 
L 58.807566 151.466419 
L 58.118554 151.916888 
L 57.577104 152.539897 
L 57.22708 153.284975 
L 57.096838 154.09176 
L 57.196932 154.894891 
L 57.51925 155.629303 
L 58.037682 156.235498 
z
" clip-path="url(#pe2433629a8)" style="fill: #e61a1a; stroke: #262626"/>
    <path d="M 78.786702 157.219173 
L 78.633089 157.342053 
L 78.500084 157.689773 
L 78.39846 158.234164 
L 78.336453 158.931122 
L 78.319084 159.724184 
L 78.347761 160.5491 
L 78.42016 161.339041 
L 78.530417 162.03001 
L 78.669599 162.56603 
L 78.826431 162.903675 
L 78.988206 163.015591 
L 91.850219 162.568461 
L 91.648715 156.772044 
z
" clip-path="url(#pe2433629a8)" style="fill: #3366e6; stroke: #262626"/>
    <path d="M 91.648715 156.772044 
L 91.850219 162.568461 
L 104.712232 162.121332 
L 104.865847 161.998452 
L 104.998854 161.650732 
L 105.100478 161.106341 
L 105.162487 160.409383 
L 105.179856 159.616321 
L 105.151179 158.791405 
L 105.078779 158.001464 
L 104.968521 157.310495 
L 104.829338 156.774475 
L 104.672505 156.43683 
L 104.510728 156.324915 
z
" clip-path="url(#pe2433629a8)" style="fill: #e61a1a; stroke: #262626"/>
    <path d="M 79.468395 160.51724 
L 79.422415 159.464123 
L 79.284825 158.41902 
L 79.056671 157.389887 
L 78.739691 156.384554 
L 78.336297 155.410674 
L 77.849558 154.475657 
L 77.283179 153.586621 
L 76.641471 152.750331 
L 75.929318 151.973152 
L 75.152139 151.260999 
L 74.315849 150.619291 
L 73.426813 150.052912 
L 72.491796 149.566174 
L 71.517916 149.162779 
L 70.512583 148.845799 
L 69.48345 148.617646 
L 68.438347 148.480055 
L 67.38523 148.434075 
L 66.332113 148.480055 
L 65.287011 148.617646 
L 64.257877 148.845799 
L 63.252545 149.162779 
L 62.278664 149.566174 
L 61.343648 150.052912 
L 60.454612 150.619291 
L 59.618322 151.260999 
L 58.841143 151.973152 
L 58.128989 152.750331 
L 57.487281 153.586621 
L 56.920903 154.475657 
L 56.434164 155.410674 
L 56.030769 156.384554 
L 55.713789 157.389887 
L 55.485636 158.41902 
L 55.348046 159.464123 
L 55.302065 160.51724 
L 55.348046 161.570357 
L 55.485636 162.615459 
L 55.713789 163.644593 
L 56.030769 164.649926 
L 56.434164 165.623806 
L 56.920903 166.558822 
L 57.487281 167.447858 
L 58.128989 168.284148 
L 58.841143 169.061328 
L 59.618322 169.773481 
L 60.454612 170.415189 
L 61.343648 170.981567 
L 62.278664 171.468306 
L 63.252545 171.871701 
L 64.257877 172.188681 
L 65.287011 172.416834 
L 66.332113 172.554425 
L 67.38523 172.600405 
L 68.438347 172.554425 
L 69.48345 172.416834 
L 70.512583 172.188681 
L 71.517916 171.871701 
L 72.491796 171.468306 
L 73.426813 170.981567 
L 74.315849 170.415189 
L 75.152139 169.773481 
L 75.929318 169.061328 
L 76.641471 168.284148 
L 77.283179 167.447858 
L 77.849558 166.558822 
L 78.336297 165.623806 
L 78.739691 164.649926 
L 79.056671 163.644593 
L 79.284825 162.615459 
L 79.422415 161.570357 
L 79.468395 160.51724 
z
" clip-path="url(#pe2433629a8)" style="fill: #3366e6; stroke: #262626"/>
    <path d="M 64.181422 64.542281 
L 65.143048 65.378019 
L 64.888005 65.671478 
L 63.92638 64.83574 
z
" clip-path="url(#pe2433629a8)" style="fill: #4c4c4c"/>
    <path d="M 148.080391 64.973498 
L 123.139261 65.840541 
L 123.125753 65.451975 
L 148.066883 64.584933 
z
" clip-path="url(#pe2433629a8)" style="fill: #4c4c4c"/>
    <path d="M 67.19083 148.618007 
L 67.19083 123.570122 
L 67.57963 123.570122 
L 67.57963 148.618007 
z
" clip-path="url(#pe2433629a8)" style="fill: #4c4c4c"/>
    <path d="M 148.520692 67.665386 
L 148.674308 67.542506 
L 148.807316 67.194785 
L 148.908942 66.650394 
L 148.970952 65.953436 
L 148.988321 65.160375 
L 148.959644 64.335459 
L 148.887244 63.545518 
L 148.776985 62.854548 
L 148.6378 62.318529 
L 148.480966 61.980884 
L 148.319188 61.868968 
L 135.45717 62.316098 
L 135.658674 68.112515 
z
" clip-path="url(#pe2433629a8)" style="fill: #3366e6; stroke: #262626"/>
    <path d="M 135.658674 68.112515 
L 135.45717 62.316098 
L 122.595152 62.763227 
L 122.441538 62.886107 
L 122.308531 63.233827 
L 122.206906 63.778218 
L 122.144898 64.475176 
L 122.127528 65.268238 
L 122.156205 66.093154 
L 122.228605 66.883095 
L 122.338863 67.574065 
L 122.478047 68.110084 
L 122.63488 68.447729 
L 122.796656 68.559645 
z
" clip-path="url(#pe2433629a8)" style="fill: #e61a1a; stroke: #262626"/>
    <path d="M 123.320224 65.975775 
L 123.28344 65.133281 
L 123.173368 64.2972 
L 122.990845 63.473893 
L 122.737261 62.669627 
L 122.414545 61.890522 
L 122.025155 61.142509 
L 121.572052 60.43128 
L 121.058685 59.762248 
L 120.488963 59.140505 
L 119.867219 58.570782 
L 119.198187 58.057416 
L 118.486958 57.604313 
L 117.738945 57.214922 
L 116.959841 56.892207 
L 116.155575 56.638623 
L 115.332268 56.4561 
L 114.496186 56.346028 
L 113.653692 56.309243 
L 112.811199 56.346028 
L 111.975117 56.4561 
L 111.15181 56.638623 
L 110.347544 56.892207 
L 109.56844 57.214922 
L 108.820427 57.604313 
L 108.109198 58.057416 
L 107.440166 58.570782 
L 106.818422 59.140505 
L 106.248699 59.762248 
L 105.735333 60.43128 
L 105.28223 61.142509 
L 104.892839 61.890522 
L 104.570124 62.669627 
L 104.31654 63.473893 
L 104.134017 64.2972 
L 104.023945 65.133281 
L 103.987161 65.975775 
L 104.023945 66.818269 
L 104.134017 67.654351 
L 104.31654 68.477658 
L 104.570124 69.281924 
L 104.892839 70.061028 
L 105.28223 70.809041 
L 105.735333 71.52027 
L 106.248699 72.189302 
L 106.818422 72.811045 
L 107.440166 73.380768 
L 108.109198 73.894135 
L 108.820427 74.347237 
L 109.56844 74.736628 
L 110.347544 75.059344 
L 111.15181 75.312928 
L 111.975117 75.495451 
L 112.811199 75.605523 
L 113.653692 75.642307 
L 114.496186 75.605523 
L 115.332268 75.495451 
L 116.155575 75.312928 
L 116.959841 75.059344 
L 117.738945 74.736628 
L 118.486958 74.347237 
L 119.198187 73.894135 
L 119.867219 73.380768 
L 120.488963 72.811045 
L 121.058685 72.189302 
L 121.572052 71.52027 
L 122.025155 70.809041 
L 122.414545 70.061028 
L 122.737261 69.281924 
L 122.990845 68.477658 
L 123.173368 67.654351 
L 123.28344 66.818269 
L 123.320224 65.975775 
z
" clip-path="url(#pe2433629a8)" style="fill: #e61a1a; stroke: #262626"/>
    <path d="M 64.485271 148.965792 
L 64.602739 149.107805 
L 64.945629 149.238313 
L 65.486161 149.346743 
L 66.180544 149.424311 
L 66.972523 149.464732 
L 67.797938 149.464732 
L 68.589917 149.424311 
L 69.2843 149.346743 
L 69.824831 149.238313 
L 70.167721 149.107805 
L 70.28519 148.965792 
L 70.28519 136.048721 
L 64.485271 136.048721 
z
" clip-path="url(#pe2433629a8)" style="fill: #3366e6; stroke: #262626"/>
    <path d="M 64.485271 136.048721 
L 70.28519 136.048721 
L 70.28519 123.131651 
L 70.167721 122.989639 
L 69.824831 122.859132 
L 69.2843 122.750703 
L 68.589917 122.673136 
L 67.797938 122.632716 
L 66.972523 122.632716 
L 66.180544 122.673136 
L 65.486161 122.750703 
L 64.945629 122.859132 
L 64.602739 122.989639 
L 64.485271 123.131651 
z
" clip-path="url(#pe2433629a8)" style="fill: #e61a1a; stroke: #262626"/>
    <path d="M 77.051762 114.050736 
L 77.014978 113.208242 
L 76.904906 112.37216 
L 76.722383 111.548853 
L 76.468799 110.744587 
L 76.146083 109.965483 
L 75.756692 109.21747 
L 75.30359 108.506241 
L 74.790223 107.837209 
L 74.2205 107.215465 
L 73.598757 106.645743 
L 72.929725 106.132376 
L 72.218496 105.679273 
L 71.470483 105.289882 
L 70.691379 104.967167 
L 69.887113 104.713583 
L 69.063806 104.53106 
L 68.227724 104.420988 
L 67.38523 104.384204 
L 66.542736 104.420988 
L 65.706655 104.53106 
L 64.883348 104.713583 
L 64.079082 104.967167 
L 63.299977 105.289882 
L 62.551964 105.679273 
L 61.840735 106.132376 
L 61.171703 106.645743 
L 60.54996 107.215465 
L 59.980237 107.837209 
L 59.466871 108.506241 
L 59.013768 109.21747 
L 58.624377 109.965483 
L 58.301662 110.744587 
L 58.048078 111.548853 
L 57.865555 112.37216 
L 57.755483 113.208242 
L 57.718698 114.050736 
L 57.755483 114.893229 
L 57.865555 115.729311 
L 58.048078 116.552618 
L 58.301662 117.356884 
L 58.624377 118.135988 
L 59.013768 118.884001 
L 59.466871 119.59523 
L 59.980237 120.264262 
L 60.54996 120.886006 
L 61.171703 121.455728 
L 61.840735 121.969095 
L 62.551964 122.422198 
L 63.299977 122.811589 
L 64.079082 123.134304 
L 64.883348 123.387888 
L 65.706655 123.570411 
L 66.542736 123.680483 
L 67.38523 123.717267 
L 68.227724 123.680483 
L 69.063806 123.570411 
L 69.887113 123.387888 
L 70.691379 123.134304 
L 71.470483 122.811589 
L 72.218496 122.422198 
L 72.929725 121.969095 
L 73.598757 121.455728 
L 74.2205 120.886006 
L 74.790223 120.264262 
L 75.30359 119.59523 
L 75.756692 118.884001 
L 76.146083 118.135988 
L 76.468799 117.356884 
L 76.722383 116.552618 
L 76.904906 115.729311 
L 77.014978 114.893229 
L 77.051762 114.050736 
z
" clip-path="url(#pe2433629a8)" style="fill: #e61a1a; stroke: #262626"/>
    <path d="M 104.181632 66.499575 
L 79.240502 67.366617 
L 79.226994 66.978052 
L 104.168124 66.11101 
z
" clip-path="url(#pe2433629a8)" style="fill: #4c4c4c"/>
    <path d="M 67.19083 104.531349 
L 67.19083 79.483464 
L 67.57963 79.483464 
L 67.57963 104.531349 
z
" clip-path="url(#pe2433629a8)" style="fill: #4c4c4c"/>
    <path d="M 63.182507 67.773799 
L 63.855052 68.202668 
L 64.627224 68.419465 
L 65.436466 68.406628 
L 66.217219 68.165195 
L 66.906231 67.714727 
L 67.447681 67.091718 
L 67.797705 66.34664 
L 67.927946 65.539855 
L 67.827853 64.736723 
L 67.505534 64.002311 
L 66.987102 63.396115 
L 64.414681 61.160453 
L 60.610086 65.538137 
z
" clip-path="url(#pe2433629a8)" style="fill: #3366e6; stroke: #262626"/>
    <path d="M 60.610086 65.538137 
L 64.414681 61.160453 
L 61.84226 58.924791 
L 61.169715 58.495922 
L 60.397543 58.279125 
L 59.588301 58.291962 
L 58.807548 58.533395 
L 58.118536 58.983863 
L 57.577086 59.606872 
L 57.227061 60.35195 
L 57.09682 61.158736 
L 57.196914 61.961867 
L 57.519233 62.696279 
L 58.037665 63.302475 
z
" clip-path="url(#pe2433629a8)" style="fill: #e61a1a; stroke: #262626"/>
    <path d="M 78.786701 64.286164 
L 78.633089 64.409044 
L 78.500083 64.756765 
L 78.39846 65.301155 
L 78.336452 65.998113 
L 78.319083 66.791175 
L 78.34776 67.616091 
L 78.42016 68.406032 
L 78.530417 69.097002 
L 78.669599 69.633021 
L 78.82643 69.970666 
L 78.988205 70.082582 
L 91.850219 69.635453 
L 91.648715 63.839035 
z
" clip-path="url(#pe2433629a8)" style="fill: #3366e6; stroke: #262626"/>
    <path d="M 91.648715 63.839035 
L 91.850219 69.635453 
L 104.712233 69.188323 
L 104.865847 69.065444 
L 104.998854 68.717723 
L 105.100479 68.173332 
L 105.162487 67.476374 
L 105.179857 66.683312 
L 105.15118 65.858396 
L 105.078779 65.068455 
L 104.968521 64.377486 
L 104.829338 63.841466 
L 104.672505 63.503822 
L 104.510729 63.391906 
z
" clip-path="url(#pe2433629a8)" style="fill: #e61a1a; stroke: #262626"/>
    <path d="M 70.28519 79.135687 
L 70.167721 78.993677 
L 69.824831 78.863171 
L 69.2843 78.754744 
L 68.589917 78.677178 
L 67.797938 78.636757 
L 66.972523 78.636757 
L 66.180544 78.677178 
L 65.486161 78.754744 
L 64.945629 78.863171 
L 64.602739 78.993677 
L 64.485271 79.135687 
L 64.485271 92.052754 
L 70.28519 92.052754 
z
" clip-path="url(#pe2433629a8)" style="fill: #3366e6; stroke: #262626"/>
    <path d="M 70.28519 92.052754 
L 64.485271 92.052754 
L 64.485271 104.96982 
L 64.602739 105.111832 
L 64.945629 105.242339 
L 65.486161 105.350768 
L 66.180544 105.428335 
L 66.972523 105.468755 
L 67.797938 105.468755 
L 68.589917 105.428335 
L 69.2843 105.350768 
L 69.824831 105.242339 
L 70.167721 105.111832 
L 70.28519 104.96982 
z
" clip-path="url(#pe2433629a8)" style="fill: #e61a1a; stroke: #262626"/>
    <path d="M 79.468395 67.584231 
L 79.422415 66.531114 
L 79.284825 65.486012 
L 79.056671 64.456878 
L 78.739691 63.451545 
L 78.336297 62.477665 
L 77.849558 61.542649 
L 77.283179 60.653613 
L 76.641471 59.817323 
L 75.929318 59.040143 
L 75.152139 58.32799 
L 74.315849 57.686282 
L 73.426813 57.119904 
L 72.491796 56.633165 
L 71.517916 56.22977 
L 70.512583 55.91279 
L 69.48345 55.684637 
L 68.438347 55.547047 
L 67.38523 55.501066 
L 66.332113 55.547047 
L 65.287011 55.684637 
L 64.257877 55.91279 
L 63.252545 56.22977 
L 62.278664 56.633165 
L 61.343648 57.119904 
L 60.454612 57.686282 
L 59.618322 58.32799 
L 58.841143 59.040143 
L 58.128989 59.817323 
L 57.487281 60.653613 
L 56.920903 61.542649 
L 56.434164 62.477665 
L 56.030769 63.451545 
L 55.713789 64.456878 
L 55.485636 65.486012 
L 55.348046 66.531114 
L 55.302065 67.584231 
L 55.348046 68.637348 
L 55.485636 69.682451 
L 55.713789 70.711584 
L 56.030769 71.716917 
L 56.434164 72.690797 
L 56.920903 73.625814 
L 57.487281 74.51485 
L 58.128989 75.35114 
L 58.841143 76.128319 
L 59.618322 76.840472 
L 60.454612 77.48218 
L 61.343648 78.048559 
L 62.278664 78.535297 
L 63.252545 78.938692 
L 64.257877 79.255672 
L 65.287011 79.483825 
L 66.332113 79.621416 
L 67.38523 79.667396 
L 68.438347 79.621416 
L 69.48345 79.483825 
L 70.512583 79.255672 
L 71.517916 78.938692 
L 72.491796 78.535297 
L 73.426813 78.048559 
L 74.315849 77.48218 
L 75.152139 76.840472 
L 75.929318 76.128319 
L 76.641471 75.35114 
L 77.283179 74.51485 
L 77.849558 73.625814 
L 78.336297 72.690797 
L 78.739691 71.716917 
L 79.056671 70.711584 
L 79.284825 69.682451 
L 79.422415 68.637348 
L 79.468395 67.584231 
z
" clip-path="url(#pe2433629a8)" style="fill: #3366e6; stroke: #262626"/>
   </g>
   <g id="line2d_1">
    <path d="M 29.556 179.244 
L 29.556 171.586368 
" clip-path="url(#pe2433629a8)" style="fill: none; stroke: #4c4c4c; stroke-width: 0.75; stroke-linecap: round"/>
   </g>
   <g id="line2d_2">
    <path d="M 29.556 179.244 
L 21.931005 179.509072 
" clip-path="url(#pe2433629a8)" style="fill: none; stroke: #4c4c4c; stroke-width: 0.75; stroke-linecap: round"/>
   </g>
   <g id="line2d_3">
    <path d="M 29.556 179.244 
L 31.080999 180.569359 
" clip-path="url(#pe2433629a8)" style="fill: none; stroke: #4c4c4c; stroke-width: 0.75; stroke-linecap: round"/>
   </g>
   <g id="text_1">
    <path d="M 27.835102 165.872476 
L 27.835102 171.227945 
L 28.472602 171.227945 
L 28.472602 170.709976 
L 28.487836 170.709976 
Q 28.592133 170.883414 28.745648 170.999429 
Q 28.900336 171.115445 29.072602 171.183414 
Q 29.244867 171.250211 29.420648 171.279507 
Q 29.597602 171.309976 29.739398 171.309976 
Q 30.182367 171.309976 30.516352 171.152945 
Q 30.850336 170.995914 31.070648 170.721695 
Q 31.292133 170.447476 31.401117 170.080679 
Q 31.510102 169.712711 31.510102 169.300211 
Q 31.510102 168.887711 31.397602 168.520914 
Q 31.285102 168.152945 31.063617 167.871695 
Q 30.842133 167.590445 30.508148 167.425211 
Q 30.175336 167.259976 29.725336 167.259976 
Q 29.319867 167.259976 28.982367 167.406461 
Q 28.644867 167.552945 28.487836 167.875211 
L 28.472602 167.875211 
L 28.472602 165.872476 
L 27.835102 165.872476 
z
M 30.835102 169.255679 
Q 30.835102 169.540445 30.774164 169.811148 
Q 30.714398 170.080679 30.579633 170.290445 
Q 30.444867 170.500211 30.223383 170.627945 
Q 30.001898 170.755679 29.672602 170.755679 
Q 29.342133 170.755679 29.10893 170.632632 
Q 28.876898 170.508414 28.730414 170.305679 
Q 28.585102 170.102945 28.517133 169.836929 
Q 28.450336 169.570914 28.450336 169.284976 
Q 28.450336 169.015445 28.513617 168.752945 
Q 28.576898 168.490445 28.719867 168.284195 
Q 28.862836 168.077945 29.087836 167.950211 
Q 29.312836 167.822476 29.635102 167.822476 
Q 29.942133 167.822476 30.170648 167.943179 
Q 30.400336 168.062711 30.545648 168.265445 
Q 30.692133 168.468179 30.763617 168.727164 
Q 30.835102 168.984976 30.835102 169.255679 
z
" style="fill: #4c4c4c; stroke: #ffffff; stroke-width: 2.25"/>
    <path d="M 27.835102 165.872476 
L 27.835102 171.227945 
L 28.472602 171.227945 
L 28.472602 170.709976 
L 28.487836 170.709976 
Q 28.592133 170.883414 28.745648 170.999429 
Q 28.900336 171.115445 29.072602 171.183414 
Q 29.244867 171.250211 29.420648 171.279507 
Q 29.597602 171.309976 29.739398 171.309976 
Q 30.182367 171.309976 30.516352 171.152945 
Q 30.850336 170.995914 31.070648 170.721695 
Q 31.292133 170.447476 31.401117 170.080679 
Q 31.510102 169.712711 31.510102 169.300211 
Q 31.510102 168.887711 31.397602 168.520914 
Q 31.285102 168.152945 31.063617 167.871695 
Q 30.842133 167.590445 30.508148 167.425211 
Q 30.175336 167.259976 29.725336 167.259976 
Q 29.319867 167.259976 28.982367 167.406461 
Q 28.644867 167.552945 28.487836 167.875211 
L 28.472602 167.875211 
L 28.472602 165.872476 
L 27.835102 165.872476 
z
M 30.835102 169.255679 
Q 30.835102 169.540445 30.774164 169.811148 
Q 30.714398 170.080679 30.579633 170.290445 
Q 30.444867 170.500211 30.223383 170.627945 
Q 30.001898 170.755679 29.672602 170.755679 
Q 29.342133 170.755679 29.10893 170.632632 
Q 28.876898 170.508414 28.730414 170.305679 
Q 28.585102 170.102945 28.517133 169.836929 
Q 28.450336 169.570914 28.450336 169.284976 
Q 28.450336 169.015445 28.513617 168.752945 
Q 28.576898 168.490445 28.719867 168.284195 
Q 28.862836 168.077945 29.087836 167.950211 
Q 29.312836 167.822476 29.635102 167.822476 
Q 29.942133 167.822476 30.170648 167.943179 
Q 30.400336 168.062711 30.545648 168.265445 
Q 30.692133 168.468179 30.763617 168.727164 
Q 30.835102 168.984976 30.835102 169.255679 
z
" style="fill: #4c4c4c"/>
   </g>
   <g id="text_2">
    <path d="M 20.742139 178.895429 
L 21.401905 178.895429 
Q 21.364405 178.549726 21.221436 178.298945 
Q 21.079639 178.046992 20.858155 177.882929 
Q 20.63667 177.717695 20.348389 177.639179 
Q 20.060108 177.559492 19.729639 177.559492 
Q 19.272608 177.559492 18.926905 177.721211 
Q 18.582373 177.882929 18.352686 178.164179 
Q 18.12417 178.445429 18.01167 178.823945 
Q 17.89917 179.202461 17.89917 179.637226 
Q 17.89917 180.071992 18.015186 180.436445 
Q 18.132373 180.799726 18.360889 181.062226 
Q 18.589405 181.324726 18.93042 181.467695 
Q 19.272608 181.609492 19.714405 181.609492 
Q 20.457373 181.609492 20.888623 181.220429 
Q 21.319873 180.830195 21.42417 180.109492 
L 20.772608 180.109492 
Q 20.71167 180.559492 20.445655 180.807929 
Q 20.179639 181.055195 19.707373 181.055195 
Q 19.407373 181.055195 19.189405 180.935664 
Q 18.972608 180.814961 18.83667 180.616914 
Q 18.701905 180.417695 18.637451 180.163398 
Q 18.57417 179.907929 18.57417 179.637226 
Q 18.57417 179.345429 18.633936 179.071211 
Q 18.694873 178.796992 18.833155 178.587226 
Q 18.972608 178.377461 19.204639 178.249726 
Q 19.43667 178.121992 19.782373 178.121992 
Q 20.18667 178.121992 20.426905 178.324726 
Q 20.667139 178.527461 20.742139 178.895429 
z
" style="fill: #4c4c4c; stroke: #ffffff; stroke-width: 2.25"/>
    <path d="M 20.742139 178.895429 
L 21.401905 178.895429 
Q 21.364405 178.549726 21.221436 178.298945 
Q 21.079639 178.046992 20.858155 177.882929 
Q 20.63667 177.717695 20.348389 177.639179 
Q 20.060108 177.559492 19.729639 177.559492 
Q 19.272608 177.559492 18.926905 177.721211 
Q 18.582373 177.882929 18.352686 178.164179 
Q 18.12417 178.445429 18.01167 178.823945 
Q 17.89917 179.202461 17.89917 179.637226 
Q 17.89917 180.071992 18.015186 180.436445 
Q 18.132373 180.799726 18.360889 181.062226 
Q 18.589405 181.324726 18.93042 181.467695 
Q 19.272608 181.609492 19.714405 181.609492 
Q 20.457373 181.609492 20.888623 181.220429 
Q 21.319873 180.830195 21.42417 180.109492 
L 20.772608 180.109492 
Q 20.71167 180.559492 20.445655 180.807929 
Q 20.179639 181.055195 19.707373 181.055195 
Q 19.407373 181.055195 19.189405 180.935664 
Q 18.972608 180.814961 18.83667 180.616914 
Q 18.701905 180.417695 18.637451 180.163398 
Q 18.57417 179.907929 18.57417 179.637226 
Q 18.57417 179.345429 18.633936 179.071211 
Q 18.694873 178.796992 18.833155 178.587226 
Q 18.972608 178.377461 19.204639 178.249726 
Q 19.43667 178.121992 19.782373 178.121992 
Q 20.18667 178.121992 20.426905 178.324726 
Q 20.667139 178.527461 20.742139 178.895429 
z
" style="fill: #4c4c4c"/>
   </g>
   <g id="text_3">
    <path d="M 33.690526 183.332717 
Q 33.525291 183.429983 33.232323 183.429983 
Q 32.985057 183.429983 32.838573 183.291702 
Q 32.69326 183.153421 32.69326 182.838186 
Q 32.43076 183.153421 32.081541 183.291702 
Q 31.732323 183.429983 31.328026 183.429983 
Q 31.065526 183.429983 30.828807 183.370217 
Q 30.59326 183.310452 30.419823 183.182717 
Q 30.247557 183.054983 30.145604 182.848733 
Q 30.044823 182.642483 30.044823 182.350686 
Q 30.044823 182.020217 30.157323 181.810452 
Q 30.269823 181.600686 30.453807 181.469436 
Q 30.637791 181.338186 30.873338 181.271389 
Q 31.110057 181.203421 31.357323 181.157717 
Q 31.619823 181.104983 31.856541 181.079202 
Q 32.09326 181.053421 32.272557 181.004202 
Q 32.453026 180.954983 32.557323 180.861233 
Q 32.662791 180.767483 32.662791 180.588186 
Q 32.662791 180.378421 32.584276 180.250686 
Q 32.50576 180.122952 32.381541 180.056155 
Q 32.257323 179.988186 32.103807 179.965921 
Q 31.950291 179.942483 31.800291 179.942483 
Q 31.394823 179.942483 31.125291 180.097171 
Q 30.85576 180.250686 30.832323 180.678421 
L 30.194823 180.678421 
Q 30.210057 180.317483 30.344823 180.070217 
Q 30.48076 179.822952 30.70576 179.669436 
Q 30.93076 179.515921 31.219041 179.447952 
Q 31.507323 179.379983 31.837791 179.379983 
Q 32.100291 179.379983 32.359276 179.417483 
Q 32.61826 179.454983 32.828026 179.572171 
Q 33.037791 179.688186 33.165526 179.897952 
Q 33.29326 180.107717 33.29326 180.445217 
L 33.29326 182.440921 
Q 33.29326 182.665921 33.319041 182.771389 
Q 33.344823 182.875686 33.494823 182.875686 
Q 33.578026 182.875686 33.690526 182.838186 
L 33.690526 183.332717 
z
M 32.65576 181.345217 
Q 32.535057 181.435452 32.339354 181.476467 
Q 32.144823 181.517483 31.931541 181.544436 
Q 31.71826 181.570217 31.500291 181.604202 
Q 31.282323 181.638186 31.110057 181.713186 
Q 30.937791 181.788186 30.828807 181.927639 
Q 30.719823 182.065921 30.719823 182.304983 
Q 30.719823 182.463186 30.783104 182.572171 
Q 30.847557 182.679983 30.948338 182.747952 
Q 31.050291 182.815921 31.185057 182.846389 
Q 31.319823 182.875686 31.469823 182.875686 
Q 31.785057 182.875686 32.010057 182.790139 
Q 32.235057 182.703421 32.376854 182.572171 
Q 32.519823 182.440921 32.587791 182.287405 
Q 32.65576 182.132717 32.65576 181.997952 
L 32.65576 181.345217 
z
" style="fill: #4c4c4c; stroke: #ffffff; stroke-width: 2.25"/>
    <path d="M 33.690526 183.332717 
Q 33.525291 183.429983 33.232323 183.429983 
Q 32.985057 183.429983 32.838573 183.291702 
Q 32.69326 183.153421 32.69326 182.838186 
Q 32.43076 183.153421 32.081541 183.291702 
Q 31.732323 183.429983 31.328026 183.429983 
Q 31.065526 183.429983 30.828807 183.370217 
Q 30.59326 183.310452 30.419823 183.182717 
Q 30.247557 183.054983 30.145604 182.848733 
Q 30.044823 182.642483 30.044823 182.350686 
Q 30.044823 182.020217 30.157323 181.810452 
Q 30.269823 181.600686 30.453807 181.469436 
Q 30.637791 181.338186 30.873338 181.271389 
Q 31.110057 181.203421 31.357323 181.157717 
Q 31.619823 181.104983 31.856541 181.079202 
Q 32.09326 181.053421 32.272557 181.004202 
Q 32.453026 180.954983 32.557323 180.861233 
Q 32.662791 180.767483 32.662791 180.588186 
Q 32.662791 180.378421 32.584276 180.250686 
Q 32.50576 180.122952 32.381541 180.056155 
Q 32.257323 179.988186 32.103807 179.965921 
Q 31.950291 179.942483 31.800291 179.942483 
Q 31.394823 179.942483 31.125291 180.097171 
Q 30.85576 180.250686 30.832323 180.678421 
L 30.194823 180.678421 
Q 30.210057 180.317483 30.344823 180.070217 
Q 30.48076 179.822952 30.70576 179.669436 
Q 30.93076 179.515921 31.219041 179.447952 
Q 31.507323 179.379983 31.837791 179.379983 
Q 32.100291 179.379983 32.359276 179.417483 
Q 32.61826 179.454983 32.828026 179.572171 
Q 33.037791 179.688186 33.165526 179.897952 
Q 33.29326 180.107717 33.29326 180.445217 
L 33.29326 182.440921 
Q 33.29326 182.665921 33.319041 182.771389 
Q 33.344823 182.875686 33.494823 182.875686 
Q 33.578026 182.875686 33.690526 182.838186 
L 33.690526 183.332717 
z
M 32.65576 181.345217 
Q 32.535057 181.435452 32.339354 181.476467 
Q 32.144823 181.517483 31.931541 181.544436 
Q 31.71826 181.570217 31.500291 181.604202 
Q 31.282323 181.638186 31.110057 181.713186 
Q 30.937791 181.788186 30.828807 181.927639 
Q 30.719823 182.065921 30.719823 182.304983 
Q 30.719823 182.463186 30.783104 182.572171 
Q 30.847557 182.679983 30.948338 182.747952 
Q 31.050291 182.815921 31.185057 182.846389 
Q 31.319823 182.875686 31.469823 182.875686 
Q 31.785057 182.875686 32.010057 182.790139 
Q 32.235057 182.703421 32.376854 182.572171 
Q 32.519823 182.440921 32.587791 182.287405 
Q 32.65576 182.132717 32.65576 181.997952 
L 32.65576 181.345217 
z
" style="fill: #4c4c4c"/>
   </g>
  </g>
 </g>
 <defs>
  <clipPath id="pe2433629a8">
   <rect x="7.2" y="7.2" width="194.4" height="194.4"/>
  </clipPath>
 </defs>
</svg>
