<?xml version="1.0" encoding="utf-8" standalone="no"?>
<!DOCTYPE svg PUBLIC "-//W3C//DTD SVG 1.1//EN"
  "http://www.w3.org/Graphics/SVG/1.1/DTD/svg11.dtd">
<svg xmlns:xlink="http://www.w3.org/1999/xlink" width="280.8pt" height="280.8pt" viewBox="0 0 280.8 280.8" xmlns="http://www.w3.org/2000/svg" version="1.1">
 <metadata>
  <rdf:RDF xmlns:dc="http://purl.org/dc/elements/1.1/" xmlns:cc="http://creativecommons.org/ns#" xmlns:rdf="http://www.w3.org/1999/02/22-rdf-syntax-ns#">
   <cc:Work>
    <dc:type rdf:resource="http://purl.org/dc/dcmitype/StillImage"/>
    <dc:date>2026-02-16T13:57:29.261361</dc:date>
    <dc:format>image/svg+xml</dc:format>
    <dc:creator>
     <cc:Agent>
      <dc:title>Matplotlib v3.10.7, https://matplotlib.org/</dc:title>
     </cc:Agent>
    </dc:creator>
   </cc:Work>
  </rdf:RDF>
 </metadata>
 <defs>
  <style type="text/css">*{stroke-linejoin: round; stroke-linecap: butt}</style>
 </defs>
 <g id="figure_1">
  <g id="patch_1">
   <path d="M 0 280.8 
L 280.8 280.8 
L 280.8 0 
L 0 0 
z
" style="fill: #ffffff"/>
  </g>
  <g id="axes_1">
   <g id="PolyCollection_1">
    <path d="M 152.744503 140.4 
L 152.323874 137.205008 
L 151.090653 134.227748 
L 149.128882 131.671118 
L 146.572252 129.709347 
L 143.594992 128.476126 
L 140.4 128.055497 
L 137.205008 128.476126 
L 134.227748 129.709347 
L 131.671118 131.671118 
L 129.709347 134.227748 
L 128.476126 137.205008 
L 128.055497 140.4 
L 128.476126 143.594992 
L 129.709347 146.572252 
L 131.671118 149.128882 
L 134.227748 151.090653 
L 137.205008 152.323874 
L 140.4 152.744503 
L 143.594992 152.323874 
L 146.572252 151.090653 
L 149.128882 149.128882 
L 151.090653 146.572252 
L 152.323874 143.594992 
L 152.744503 140.4 
z
" clip-path="url(#p1b652e3ab5)" style="fill: #da7b22; stroke: #262626"/>
    <path d="M 149.262082 145.208913 
L 204.584319 177.149222 
L 204.317919 177.61064 
L 148.995682 145.670331 
z
" clip-path="url(#p1b652e3ab5)" style="fill: #4c4c4c"/>
    <path d="M 140.1336 130.320755 
L 140.1336 66.440138 
L 140.6664 66.440138 
L 140.6664 130.320755 
z
" clip-path="url(#p1b652e3ab5)" style="fill: #4c4c4c"/>
    <path d="M 131.804318 145.670331 
L 76.482081 177.61064 
L 76.215681 177.149222 
L 131.537918 145.208913 
z
" clip-path="url(#p1b652e3ab5)" style="fill: #4c4c4c"/>
    <path d="M 152.744503 140.4 
L 152.323874 137.205008 
L 151.090653 134.227748 
L 149.128882 131.671118 
L 146.572252 129.709347 
L 143.594992 128.476126 
L 140.4 128.055497 
L 137.205008 128.476126 
L 134.227748 129.709347 
L 131.671118 131.671118 
L 129.709347 134.227748 
L 128.476126 137.205008 
L 128.055497 140.4 
L 128.476126 143.594992 
L 129.709347 146.572252 
L 131.671118 149.128882 
L 134.227748 151.090653 
L 137.205008 152.323874 
L 140.4 152.744503 
L 143.594992 152.323874 
L 146.572252 151.090653 
L 149.128882 149.128882 
L 151.090653 146.572252 
L 152.323874 143.594992 
L 152.744503 140.4 
z
" clip-path="url(#p1b652e3ab5)" style="fill: #da7b22; stroke: #262626"/>
    <path d="M 204.584319 177.149222 
L 217.20581 184.436243 
L 216.93941 184.897661 
L 204.317919 177.61064 
z
" clip-path="url(#p1b652e3ab5)" style="fill: #4c4c4c"/>
    <path d="M 140.1336 66.440138 
L 140.1336 51.866095 
L 140.6664 51.866095 
L 140.6664 66.440138 
z
" clip-path="url(#p1b652e3ab5)" style="fill: #4c4c4c"/>
    <path d="M 76.482081 177.61064 
L 63.86059 184.897661 
L 63.59419 184.436243 
L 76.215681 177.149222 
z
" clip-path="url(#p1b652e3ab5)" style="fill: #4c4c4c"/>
    <path d="M 174.298572 123.396975 
L 174.426858 122.570665 
L 173.828532 121.100028 
L 172.854086 119.846545 
L 172.074337 119.544488 
L 149.202166 132.749742 
L 149.073878 133.576054 
L 149.672203 135.046691 
L 150.64665 136.300174 
L 151.426401 136.602229 
z
" clip-path="url(#p1b652e3ab5)" style="fill: #da7b22; stroke: #262626"/>
    <path d="M 195.445249 115.746713 
L 195.02462 112.55172 
L 193.791399 109.574461 
L 191.829628 107.017831 
L 189.272998 105.056059 
L 186.295739 103.822838 
L 183.100746 103.40221 
L 179.905754 103.822838 
L 176.928495 105.056059 
L 174.371864 107.017831 
L 172.410093 109.574461 
L 171.176872 112.55172 
L 170.756243 115.746713 
L 171.176872 118.941705 
L 172.410093 121.918964 
L 174.371864 124.475595 
L 176.928495 126.437366 
L 179.905754 127.670587 
L 183.100746 128.091216 
L 186.295739 127.670587 
L 189.272998 126.437366 
L 191.829628 124.475595 
L 193.791399 121.918964 
L 195.02462 118.941705 
L 195.445249 115.746713 
z
" clip-path="url(#p1b652e3ab5)" style="fill: #da7b22; stroke: #262626"/>
    <path d="M 108.725663 119.544488 
L 107.945914 119.846545 
L 106.971468 121.100028 
L 106.373142 122.570665 
L 106.501428 123.396975 
L 129.373599 136.602229 
L 130.15335 136.300174 
L 131.127797 135.046691 
L 131.726122 133.576054 
L 131.597834 132.749742 
z
" clip-path="url(#p1b652e3ab5)" style="fill: #da7b22; stroke: #262626"/>
    <path d="M 110.043757 115.746713 
L 109.623128 112.55172 
L 108.389907 109.574461 
L 106.428136 107.017831 
L 103.871505 105.056059 
L 100.894246 103.822838 
L 97.699254 103.40221 
L 94.504261 103.822838 
L 91.527002 105.056059 
L 88.970372 107.017831 
L 87.008601 109.574461 
L 85.77538 112.55172 
L 85.354751 115.746713 
L 85.77538 118.941705 
L 87.008601 121.918964 
L 88.970372 124.475595 
L 91.527002 126.437366 
L 94.504261 127.670587 
L 97.699254 128.091216 
L 100.894246 127.670587 
L 103.871505 126.437366 
L 106.428136 124.475595 
L 108.389907 121.918964 
L 109.623128 118.941705 
L 110.043757 115.746713 
z
" clip-path="url(#p1b652e3ab5)" style="fill: #da7b22; stroke: #262626"/>
    <path d="M 67.343011 189.706575 
L 66.922382 186.511582 
L 65.689161 183.534323 
L 63.72739 180.977693 
L 61.170759 179.015921 
L 58.1935 177.7827 
L 54.998508 177.362072 
L 51.803515 177.7827 
L 48.826256 179.015921 
L 46.269626 180.977693 
L 44.307854 183.534323 
L 43.074633 186.511582 
L 42.654005 189.706575 
L 43.074633 192.901567 
L 44.307854 195.878826 
L 46.269626 198.435456 
L 48.826256 200.397228 
L 51.803515 201.630449 
L 54.998508 202.051078 
L 58.1935 201.630449 
L 61.170759 200.397228 
L 63.72739 198.435456 
L 65.689161 195.878826 
L 66.922382 192.901567 
L 67.343011 189.706575 
z
" clip-path="url(#p1b652e3ab5)" style="fill: #da7b22; stroke: #262626"/>
    <path d="M 152.744503 41.786851 
L 152.323874 38.591858 
L 151.090653 35.614599 
L 149.128882 33.057969 
L 146.572252 31.096198 
L 143.594992 29.862977 
L 140.4 29.442348 
L 137.205008 29.862977 
L 134.227748 31.096198 
L 131.671118 33.057969 
L 129.709347 35.614599 
L 128.476126 38.591858 
L 128.055497 41.786851 
L 128.476126 44.981843 
L 129.709347 47.959102 
L 131.671118 50.515733 
L 134.227748 52.477504 
L 137.205008 53.710725 
L 140.4 54.131354 
L 143.594992 53.710725 
L 146.572252 52.477504 
L 149.128882 50.515733 
L 151.090653 47.959102 
L 152.323874 44.981843 
L 152.744503 41.786851 
z
" clip-path="url(#p1b652e3ab5)" style="fill: #da7b22; stroke: #262626"/>
    <path d="M 138.175765 178.258537 
L 138.827229 178.782791 
L 140.4 178.999944 
L 141.972771 178.782791 
L 142.624235 178.258537 
L 142.624235 151.848029 
L 141.972771 151.323772 
L 140.4 151.106617 
L 138.827229 151.323772 
L 138.175765 151.848029 
z
" clip-path="url(#p1b652e3ab5)" style="fill: #da7b22; stroke: #262626"/>
    <path d="M 152.744503 189.706575 
L 152.323874 186.511582 
L 151.090653 183.534323 
L 149.128882 180.977693 
L 146.572252 179.015921 
L 143.594992 177.7827 
L 140.4 177.362072 
L 137.205008 177.7827 
L 134.227748 179.015921 
L 131.671118 180.977693 
L 129.709347 183.534323 
L 128.476126 186.511582 
L 128.055497 189.706575 
L 128.476126 192.901567 
L 129.709347 195.878826 
L 131.671118 198.435456 
L 134.227748 200.397228 
L 137.205008 201.630449 
L 140.4 202.051078 
L 143.594992 201.630449 
L 146.572252 200.397228 
L 149.128882 198.435456 
L 151.090653 195.878826 
L 152.323874 192.901567 
L 152.744503 189.706575 
z
" clip-path="url(#p1b652e3ab5)" style="fill: #da7b22; stroke: #262626"/>
    <path d="M 238.145995 189.706575 
L 237.725367 186.511582 
L 236.492146 183.534323 
L 234.530374 180.977693 
L 231.973744 179.015921 
L 228.996485 177.7827 
L 225.801492 177.362072 
L 222.6065 177.7827 
L 219.629241 179.015921 
L 217.07261 180.977693 
L 215.110839 183.534323 
L 213.877618 186.511582 
L 213.456989 189.706575 
L 213.877618 192.901567 
L 215.110839 195.878826 
L 217.07261 198.435456 
L 219.629241 200.397228 
L 222.6065 201.630449 
L 225.801492 202.051078 
L 228.996485 201.630449 
L 231.973744 200.397228 
L 234.530374 198.435456 
L 236.492146 195.878826 
L 237.725367 192.901567 
L 238.145995 189.706575 
z
" clip-path="url(#p1b652e3ab5)" style="fill: #da7b22; stroke: #262626"/>
    <path d="M 225.535092 179.62733 
L 225.535092 115.746713 
L 226.067892 115.746713 
L 226.067892 179.62733 
z
" clip-path="url(#p1b652e3ab5)" style="fill: #4c4c4c"/>
    <path d="M 149.262082 46.595764 
L 204.584319 78.536073 
L 204.317919 78.997491 
L 148.995682 47.057182 
z
" clip-path="url(#p1b652e3ab5)" style="fill: #4c4c4c"/>
    <path d="M 131.804318 47.057182 
L 76.482081 78.997491 
L 76.215681 78.536073 
L 131.537918 46.595764 
z
" clip-path="url(#p1b652e3ab5)" style="fill: #4c4c4c"/>
    <path d="M 63.86059 194.515488 
L 119.182827 226.455796 
L 118.916427 226.917215 
L 63.59419 194.976906 
z
" clip-path="url(#p1b652e3ab5)" style="fill: #4c4c4c"/>
    <path d="M 54.732108 179.62733 
L 54.732108 115.746713 
L 55.264908 115.746713 
L 55.264908 179.62733 
z
" clip-path="url(#p1b652e3ab5)" style="fill: #4c4c4c"/>
    <path d="M 217.20581 194.976906 
L 161.883573 226.917215 
L 161.617173 226.455796 
L 216.93941 194.515488 
z
" clip-path="url(#p1b652e3ab5)" style="fill: #4c4c4c"/>
    <path d="M 110.043757 115.746713 
L 109.623128 112.55172 
L 108.389907 109.574461 
L 106.428136 107.017831 
L 103.871505 105.056059 
L 100.894246 103.822838 
L 97.699254 103.40221 
L 94.504261 103.822838 
L 91.527002 105.056059 
L 88.970372 107.017831 
L 87.008601 109.574461 
L 85.77538 112.55172 
L 85.354751 115.746713 
L 85.77538 118.941705 
L 87.008601 121.918964 
L 88.970372 124.475595 
L 91.527002 126.437366 
L 94.504261 127.670587 
L 97.699254 128.091216 
L 100.894246 127.670587 
L 103.871505 126.437366 
L 106.428136 124.475595 
L 108.389907 121.918964 
L 109.623128 118.941705 
L 110.043757 115.746713 
z
" clip-path="url(#p1b652e3ab5)" style="fill: #da7b22; stroke: #262626"/>
    <path d="M 195.445249 115.746713 
L 195.02462 112.55172 
L 193.791399 109.574461 
L 191.829628 107.017831 
L 189.272998 105.056059 
L 186.295739 103.822838 
L 183.100746 103.40221 
L 179.905754 103.822838 
L 176.928495 105.056059 
L 174.371864 107.017831 
L 172.410093 109.574461 
L 171.176872 112.55172 
L 170.756243 115.746713 
L 171.176872 118.941705 
L 172.410093 121.918964 
L 174.371864 124.475595 
L 176.928495 126.437366 
L 179.905754 127.670587 
L 183.100746 128.091216 
L 186.295739 127.670587 
L 189.272998 126.437366 
L 191.829628 124.475595 
L 193.791399 121.918964 
L 195.02462 118.941705 
L 195.445249 115.746713 
z
" clip-path="url(#p1b652e3ab5)" style="fill: #da7b22; stroke: #262626"/>
    <path d="M 152.744503 189.706575 
L 152.323874 186.511582 
L 151.090653 183.534323 
L 149.128882 180.977693 
L 146.572252 179.015921 
L 143.594992 177.7827 
L 140.4 177.362072 
L 137.205008 177.7827 
L 134.227748 179.015921 
L 131.671118 180.977693 
L 129.709347 183.534323 
L 128.476126 186.511582 
L 128.055497 189.706575 
L 128.476126 192.901567 
L 129.709347 195.878826 
L 131.671118 198.435456 
L 134.227748 200.397228 
L 137.205008 201.630449 
L 140.4 202.051078 
L 143.594992 201.630449 
L 146.572252 200.397228 
L 149.128882 198.435456 
L 151.090653 195.878826 
L 152.323874 192.901567 
L 152.744503 189.706575 
z
" clip-path="url(#p1b652e3ab5)" style="fill: #da7b22; stroke: #262626"/>
    <path d="M 54.732108 115.746713 
L 54.732108 101.17267 
L 55.264908 101.17267 
L 55.264908 115.746713 
z
" clip-path="url(#p1b652e3ab5)" style="fill: #4c4c4c"/>
    <path d="M 225.535092 115.746713 
L 225.535092 101.17267 
L 226.067892 101.17267 
L 226.067892 115.746713 
z
" clip-path="url(#p1b652e3ab5)" style="fill: #4c4c4c"/>
    <path d="M 161.883573 226.917215 
L 149.262082 234.204236 
L 148.995682 233.742818 
L 161.617173 226.455796 
z
" clip-path="url(#p1b652e3ab5)" style="fill: #4c4c4c"/>
    <path d="M 204.584319 78.536073 
L 217.20581 85.823094 
L 216.93941 86.284512 
L 204.317919 78.997491 
z
" clip-path="url(#p1b652e3ab5)" style="fill: #4c4c4c"/>
    <path d="M 76.482081 78.997491 
L 63.86059 86.284512 
L 63.59419 85.823094 
L 76.215681 78.536073 
z
" clip-path="url(#p1b652e3ab5)" style="fill: #4c4c4c"/>
    <path d="M 119.182827 226.455796 
L 131.804318 233.742818 
L 131.537918 234.204236 
L 118.916427 226.917215 
z
" clip-path="url(#p1b652e3ab5)" style="fill: #4c4c4c"/>
    <path d="M 191.90292 108.09645 
L 191.774635 108.922761 
L 192.37296 110.393397 
L 193.347406 111.646881 
L 194.127155 111.948938 
L 216.99931 98.743693 
L 217.127593 97.917384 
L 216.529266 96.446748 
L 215.554822 95.193263 
L 214.775076 94.891205 
z
" clip-path="url(#p1b652e3ab5)" style="fill: #da7b22; stroke: #262626"/>
    <path d="M 238.145995 91.093425 
L 237.725367 87.898433 
L 236.492146 84.921174 
L 234.530374 82.364544 
L 231.973744 80.402772 
L 228.996485 79.169551 
L 225.801492 78.748922 
L 222.6065 79.169551 
L 219.629241 80.402772 
L 217.07261 82.364544 
L 215.110839 84.921174 
L 213.877618 87.898433 
L 213.456989 91.093425 
L 213.877618 94.288418 
L 215.110839 97.265677 
L 217.07261 99.822307 
L 219.629241 101.784079 
L 222.6065 103.0173 
L 225.801492 103.437928 
L 228.996485 103.0173 
L 231.973744 101.784079 
L 234.530374 99.822307 
L 236.492146 97.265677 
L 237.725367 94.288418 
L 238.145995 91.093425 
z
" clip-path="url(#p1b652e3ab5)" style="fill: #da7b22; stroke: #262626"/>
    <path d="M 86.672845 111.948938 
L 87.452594 111.646881 
L 88.42704 110.393397 
L 89.025365 108.922761 
L 88.89708 108.09645 
L 66.024924 94.891205 
L 65.245178 95.193263 
L 64.270734 96.446748 
L 63.672407 97.917384 
L 63.80069 98.743693 
z
" clip-path="url(#p1b652e3ab5)" style="fill: #da7b22; stroke: #262626"/>
    <path d="M 67.343011 91.093425 
L 66.922382 87.898433 
L 65.689161 84.921174 
L 63.72739 82.364544 
L 61.170759 80.402772 
L 58.1935 79.169551 
L 54.998508 78.748922 
L 51.803515 79.169551 
L 48.826256 80.402772 
L 46.269626 82.364544 
L 44.307854 84.921174 
L 43.074633 87.898433 
L 42.654005 91.093425 
L 43.074633 94.288418 
L 44.307854 97.265677 
L 46.269626 99.822307 
L 48.826256 101.784079 
L 51.803515 103.0173 
L 54.998508 103.437928 
L 58.1935 103.0173 
L 61.170759 101.784079 
L 63.72739 99.822307 
L 65.689161 97.265677 
L 66.922382 94.288418 
L 67.343011 91.093425 
z
" clip-path="url(#p1b652e3ab5)" style="fill: #da7b22; stroke: #262626"/>
    <path d="M 99.923489 127.194737 
L 99.272025 126.670478 
L 97.699254 126.453323 
L 96.126482 126.670478 
L 95.475019 127.194737 
L 95.475019 153.605254 
L 96.126482 154.129509 
L 97.699254 154.346663 
L 99.272025 154.129509 
L 99.923489 153.605254 
z
" clip-path="url(#p1b652e3ab5)" style="fill: #da7b22; stroke: #262626"/>
    <path d="M 129.373603 185.908806 
L 130.153356 185.606752 
L 131.127803 184.353269 
L 131.726127 182.882632 
L 131.597837 182.056319 
L 108.725659 168.85106 
L 107.945909 169.153116 
L 106.971462 170.406599 
L 106.373137 171.877236 
L 106.501424 172.703548 
z
" clip-path="url(#p1b652e3ab5)" style="fill: #da7b22; stroke: #262626"/>
    <path d="M 110.043757 165.053287 
L 109.623128 161.858295 
L 108.389907 158.881036 
L 106.428136 156.324405 
L 103.871505 154.362634 
L 100.894246 153.129413 
L 97.699254 152.708784 
L 94.504261 153.129413 
L 91.527002 154.362634 
L 88.970372 156.324405 
L 87.008601 158.881036 
L 85.77538 161.858295 
L 85.354751 165.053287 
L 85.77538 168.24828 
L 87.008601 171.225539 
L 88.970372 173.782169 
L 91.527002 175.743941 
L 94.504261 176.977162 
L 97.699254 177.39779 
L 100.894246 176.977162 
L 103.871505 175.743941 
L 106.428136 173.782169 
L 108.389907 171.225539 
L 109.623128 168.24828 
L 110.043757 165.053287 
z
" clip-path="url(#p1b652e3ab5)" style="fill: #da7b22; stroke: #262626"/>
    <path d="M 185.324981 127.194737 
L 184.673518 126.670478 
L 183.100746 126.453323 
L 181.527975 126.670478 
L 180.876511 127.194737 
L 180.876511 153.605254 
L 181.527975 154.129509 
L 183.100746 154.346663 
L 184.673518 154.129509 
L 185.324981 153.605254 
z
" clip-path="url(#p1b652e3ab5)" style="fill: #da7b22; stroke: #262626"/>
    <path d="M 149.202163 182.056319 
L 149.073873 182.882632 
L 149.672197 184.353269 
L 150.646644 185.606752 
L 151.426397 185.908806 
L 174.298576 172.703548 
L 174.426863 171.877236 
L 173.828538 170.406599 
L 172.854091 169.153116 
L 172.074341 168.85106 
z
" clip-path="url(#p1b652e3ab5)" style="fill: #da7b22; stroke: #262626"/>
    <path d="M 195.445249 165.053287 
L 195.02462 161.858295 
L 193.791399 158.881036 
L 191.829628 156.324405 
L 189.272998 154.362634 
L 186.295739 153.129413 
L 183.100746 152.708784 
L 179.905754 153.129413 
L 176.928495 154.362634 
L 174.371864 156.324405 
L 172.410093 158.881036 
L 171.176872 161.858295 
L 170.756243 165.053287 
L 171.176872 168.24828 
L 172.410093 171.225539 
L 174.371864 173.782169 
L 176.928495 175.743941 
L 179.905754 176.977162 
L 183.100746 177.39779 
L 186.295739 176.977162 
L 189.272998 175.743941 
L 191.829628 173.782169 
L 193.791399 171.225539 
L 195.02462 168.24828 
L 195.445249 165.053287 
z
" clip-path="url(#p1b652e3ab5)" style="fill: #da7b22; stroke: #262626"/>
    <path d="M 106.501416 108.096457 
L 106.373127 108.92277 
L 106.97145 110.393407 
L 107.945898 111.64689 
L 108.725651 111.948944 
L 131.59783 98.743686 
L 131.726117 97.917374 
L 131.127792 96.446737 
L 130.153345 95.193254 
L 129.373595 94.891198 
z
" clip-path="url(#p1b652e3ab5)" style="fill: #da7b22; stroke: #262626"/>
    <path d="M 172.074349 111.948944 
L 172.854102 111.64689 
L 173.82855 110.393407 
L 174.426873 108.92277 
L 174.298584 108.096457 
L 151.426405 94.891198 
L 150.646655 95.193254 
L 149.672208 96.446737 
L 149.073883 97.917374 
L 149.20217 98.743686 
z
" clip-path="url(#p1b652e3ab5)" style="fill: #da7b22; stroke: #262626"/>
    <path d="M 152.744503 91.093425 
L 152.323874 87.898433 
L 151.090653 84.921174 
L 149.128882 82.364544 
L 146.572252 80.402772 
L 143.594992 79.169551 
L 140.4 78.748922 
L 137.205008 79.169551 
L 134.227748 80.402772 
L 131.671118 82.364544 
L 129.709347 84.921174 
L 128.476126 87.898433 
L 128.055497 91.093425 
L 128.476126 94.288418 
L 129.709347 97.265677 
L 131.671118 99.822307 
L 134.227748 101.784079 
L 137.205008 103.0173 
L 140.4 103.437928 
L 143.594992 103.0173 
L 146.572252 101.784079 
L 149.128882 99.822307 
L 151.090653 97.265677 
L 152.323874 94.288418 
L 152.744503 91.093425 
z
" clip-path="url(#p1b652e3ab5)" style="fill: #da7b22; stroke: #262626"/>
    <path d="M 142.624235 201.154612 
L 141.972771 200.630359 
L 140.4 200.413205 
L 138.827229 200.630359 
L 138.175765 201.154612 
L 138.175765 227.565102 
L 138.827229 228.089353 
L 140.4 228.306505 
L 141.972771 228.089353 
L 142.624235 227.565102 
z
" clip-path="url(#p1b652e3ab5)" style="fill: #da7b22; stroke: #262626"/>
    <path d="M 152.744503 239.013149 
L 152.323874 235.818157 
L 151.090653 232.840898 
L 149.128882 230.284267 
L 146.572252 228.322496 
L 143.594992 227.089275 
L 140.4 226.668646 
L 137.205008 227.089275 
L 134.227748 228.322496 
L 131.671118 230.284267 
L 129.709347 232.840898 
L 128.476126 235.818157 
L 128.055497 239.013149 
L 128.476126 242.208142 
L 129.709347 245.185401 
L 131.671118 247.742031 
L 134.227748 249.703802 
L 137.205008 250.937023 
L 140.4 251.357652 
L 143.594992 250.937023 
L 146.572252 249.703802 
L 149.128882 247.742031 
L 151.090653 245.185401 
L 152.323874 242.208142 
L 152.744503 239.013149 
z
" clip-path="url(#p1b652e3ab5)" style="fill: #da7b22; stroke: #262626"/>
    <path d="M 140.1336 228.933905 
L 140.1336 150.479245 
L 140.6664 150.479245 
L 140.6664 228.933905 
z
" clip-path="url(#p1b652e3ab5)" style="fill: #4c4c4c"/>
    <path d="M 63.86059 95.902339 
L 131.804318 135.129669 
L 131.537918 135.591087 
L 63.59419 96.363757 
z
" clip-path="url(#p1b652e3ab5)" style="fill: #4c4c4c"/>
    <path d="M 217.20581 96.363757 
L 149.262082 135.591087 
L 148.995682 135.129669 
L 216.93941 95.902339 
z
" clip-path="url(#p1b652e3ab5)" style="fill: #4c4c4c"/>
    <path d="M 152.744503 140.4 
L 152.323874 137.205008 
L 151.090653 134.227748 
L 149.128882 131.671118 
L 146.572252 129.709347 
L 143.594992 128.476126 
L 140.4 128.055497 
L 137.205008 128.476126 
L 134.227748 129.709347 
L 131.671118 131.671118 
L 129.709347 134.227748 
L 128.476126 137.205008 
L 128.055497 140.4 
L 128.476126 143.594992 
L 129.709347 146.572252 
L 131.671118 149.128882 
L 134.227748 151.090653 
L 137.205008 152.323874 
L 140.4 152.744503 
L 143.594992 152.323874 
L 146.572252 151.090653 
L 149.128882 149.128882 
L 151.090653 146.572252 
L 152.323874 143.594992 
L 152.744503 140.4 
z
" clip-path="url(#p1b652e3ab5)" style="fill: #da7b22; stroke: #262626"/>
   </g>
   <g id="line2d_1">
    <path d="M 37.836 242.964 
L 45.37093 247.314294 
" clip-path="url(#p1b652e3ab5)" style="fill: none; stroke: #4c4c4c; stroke-width: 1; stroke-linecap: round"/>
   </g>
   <g id="line2d_2">
    <path d="M 37.836 242.964 
L 37.836 234.263412 
" clip-path="url(#p1b652e3ab5)" style="fill: none; stroke: #4c4c4c; stroke-width: 1; stroke-linecap: round"/>
   </g>
   <g id="line2d_3">
    <path d="M 37.836 242.964 
L 30.30107 247.314294 
" clip-path="url(#p1b652e3ab5)" style="fill: none; stroke: #4c4c4c; stroke-width: 1; stroke-linecap: round"/>
   </g>
   <g id="text_1">
    <path d="M 50.166565 251.184226 
Q 49.946253 251.313913 49.555628 251.313913 
Q 49.22594 251.313913 49.030628 251.129538 
Q 48.836878 250.945163 48.836878 250.524851 
Q 48.486878 250.945163 48.021253 251.129538 
Q 47.555628 251.313913 47.016565 251.313913 
Q 46.666565 251.313913 46.35094 251.234226 
Q 46.036878 251.154538 45.805628 250.984226 
Q 45.57594 250.813913 45.440003 250.538913 
Q 45.305628 250.263913 45.305628 249.874851 
Q 45.305628 249.434226 45.455628 249.154538 
Q 45.605628 248.874851 45.85094 248.699851 
Q 46.096253 248.524851 46.410315 248.435788 
Q 46.72594 248.345163 47.055628 248.284226 
Q 47.405628 248.213913 47.721253 248.179538 
Q 48.036878 248.145163 48.27594 248.079538 
Q 48.516565 248.013913 48.655628 247.888913 
Q 48.796253 247.763913 48.796253 247.524851 
Q 48.796253 247.245163 48.691565 247.074851 
Q 48.586878 246.904538 48.421253 246.815476 
Q 48.255628 246.724851 48.05094 246.695163 
Q 47.846253 246.663913 47.646253 246.663913 
Q 47.105628 246.663913 46.746253 246.870163 
Q 46.386878 247.074851 46.355628 247.645163 
L 45.505628 247.645163 
Q 45.52594 247.163913 45.705628 246.834226 
Q 45.886878 246.504538 46.186878 246.299851 
Q 46.486878 246.095163 46.871253 246.004538 
Q 47.255628 245.913913 47.696253 245.913913 
Q 48.046253 245.913913 48.391565 245.963913 
Q 48.736878 246.013913 49.016565 246.170163 
Q 49.296253 246.324851 49.466565 246.604538 
Q 49.636878 246.884226 49.636878 247.334226 
L 49.636878 249.995163 
Q 49.636878 250.295163 49.671253 250.435788 
Q 49.705628 250.574851 49.905628 250.574851 
Q 50.016565 250.574851 50.166565 250.524851 
L 50.166565 251.184226 
z
M 48.786878 248.534226 
Q 48.62594 248.654538 48.365003 248.709226 
Q 48.105628 248.763913 47.821253 248.799851 
Q 47.536878 248.834226 47.246253 248.879538 
Q 46.955628 248.924851 46.72594 249.024851 
Q 46.496253 249.124851 46.35094 249.310788 
Q 46.205628 249.495163 46.205628 249.813913 
Q 46.205628 250.024851 46.290003 250.170163 
Q 46.37594 250.313913 46.510315 250.404538 
Q 46.646253 250.495163 46.82594 250.535788 
Q 47.005628 250.574851 47.205628 250.574851 
Q 47.62594 250.574851 47.92594 250.460788 
Q 48.22594 250.345163 48.415003 250.170163 
Q 48.605628 249.995163 48.696253 249.790476 
Q 48.786878 249.584226 48.786878 249.404538 
L 48.786878 248.534226 
z
" style="fill: #4c4c4c; stroke: #ffffff; stroke-width: 3"/>
    <path d="M 50.166565 251.184226 
Q 49.946253 251.313913 49.555628 251.313913 
Q 49.22594 251.313913 49.030628 251.129538 
Q 48.836878 250.945163 48.836878 250.524851 
Q 48.486878 250.945163 48.021253 251.129538 
Q 47.555628 251.313913 47.016565 251.313913 
Q 46.666565 251.313913 46.35094 251.234226 
Q 46.036878 251.154538 45.805628 250.984226 
Q 45.57594 250.813913 45.440003 250.538913 
Q 45.305628 250.263913 45.305628 249.874851 
Q 45.305628 249.434226 45.455628 249.154538 
Q 45.605628 248.874851 45.85094 248.699851 
Q 46.096253 248.524851 46.410315 248.435788 
Q 46.72594 248.345163 47.055628 248.284226 
Q 47.405628 248.213913 47.721253 248.179538 
Q 48.036878 248.145163 48.27594 248.079538 
Q 48.516565 248.013913 48.655628 247.888913 
Q 48.796253 247.763913 48.796253 247.524851 
Q 48.796253 247.245163 48.691565 247.074851 
Q 48.586878 246.904538 48.421253 246.815476 
Q 48.255628 246.724851 48.05094 246.695163 
Q 47.846253 246.663913 47.646253 246.663913 
Q 47.105628 246.663913 46.746253 246.870163 
Q 46.386878 247.074851 46.355628 247.645163 
L 45.505628 247.645163 
Q 45.52594 247.163913 45.705628 246.834226 
Q 45.886878 246.504538 46.186878 246.299851 
Q 46.486878 246.095163 46.871253 246.004538 
Q 47.255628 245.913913 47.696253 245.913913 
Q 48.046253 245.913913 48.391565 245.963913 
Q 48.736878 246.013913 49.016565 246.170163 
Q 49.296253 246.324851 49.466565 246.604538 
Q 49.636878 246.884226 49.636878 247.334226 
L 49.636878 249.995163 
Q 49.636878 250.295163 49.671253 250.435788 
Q 49.705628 250.574851 49.905628 250.574851 
Q 50.016565 250.574851 50.166565 250.524851 
L 50.166565 251.184226 
z
M 48.786878 248.534226 
Q 48.62594 248.654538 48.365003 248.709226 
Q 48.105628 248.763913 47.821253 248.799851 
Q 47.536878 248.834226 47.246253 248.879538 
Q 46.955628 248.924851 46.72594 249.024851 
Q 46.496253 249.124851 46.35094 249.310788 
Q 46.205628 249.495163 46.205628 249.813913 
Q 46.205628 250.024851 46.290003 250.170163 
Q 46.37594 250.313913 46.510315 250.404538 
Q 46.646253 250.495163 46.82594 250.535788 
Q 47.005628 250.574851 47.205628 250.574851 
Q 47.62594 250.574851 47.92594 250.460788 
Q 48.22594 250.345163 48.415003 250.170163 
Q 48.605628 249.995163 48.696253 249.790476 
Q 48.786878 249.584226 48.786878 249.404538 
L 48.786878 248.534226 
z
" style="fill: #4c4c4c"/>
   </g>
   <g id="text_2">
    <path d="M 35.541469 227.097767 
L 35.541469 234.238392 
L 36.391469 234.238392 
L 36.391469 233.547767 
L 36.411781 233.547767 
Q 36.550844 233.779017 36.755531 233.933705 
Q 36.961781 234.088392 37.191469 234.179017 
Q 37.421156 234.26808 37.655531 234.307142 
Q 37.891469 234.347767 38.080531 234.347767 
Q 38.671156 234.347767 39.116469 234.138392 
Q 39.561781 233.929017 39.855531 233.563392 
Q 40.150844 233.197767 40.296156 232.708705 
Q 40.441469 232.21808 40.441469 231.66808 
Q 40.441469 231.11808 40.291469 230.629017 
Q 40.141469 230.138392 39.846156 229.763392 
Q 39.550844 229.388392 39.105531 229.16808 
Q 38.661781 228.947767 38.061781 228.947767 
Q 37.521156 228.947767 37.071156 229.14308 
Q 36.621156 229.338392 36.411781 229.76808 
L 36.391469 229.76808 
L 36.391469 227.097767 
L 35.541469 227.097767 
z
M 39.541469 231.608705 
Q 39.541469 231.988392 39.460219 232.34933 
Q 39.380531 232.708705 39.200844 232.988392 
Q 39.021156 233.26808 38.725844 233.438392 
Q 38.430531 233.608705 37.991469 233.608705 
Q 37.550844 233.608705 37.239906 233.444642 
Q 36.930531 233.279017 36.735219 233.008705 
Q 36.541469 232.738392 36.450844 232.383705 
Q 36.361781 232.029017 36.361781 231.647767 
Q 36.361781 231.288392 36.446156 230.938392 
Q 36.530531 230.588392 36.721156 230.313392 
Q 36.911781 230.038392 37.211781 229.86808 
Q 37.511781 229.697767 37.941469 229.697767 
Q 38.350844 229.697767 38.655531 229.858705 
Q 38.961781 230.01808 39.155531 230.288392 
Q 39.350844 230.558705 39.446156 230.904017 
Q 39.541469 231.247767 39.541469 231.608705 
z
" style="fill: #4c4c4c; stroke: #ffffff; stroke-width: 3"/>
    <path d="M 35.541469 227.097767 
L 35.541469 234.238392 
L 36.391469 234.238392 
L 36.391469 233.547767 
L 36.411781 233.547767 
Q 36.550844 233.779017 36.755531 233.933705 
Q 36.961781 234.088392 37.191469 234.179017 
Q 37.421156 234.26808 37.655531 234.307142 
Q 37.891469 234.347767 38.080531 234.347767 
Q 38.671156 234.347767 39.116469 234.138392 
Q 39.561781 233.929017 39.855531 233.563392 
Q 40.150844 233.197767 40.296156 232.708705 
Q 40.441469 232.21808 40.441469 231.66808 
Q 40.441469 231.11808 40.291469 230.629017 
Q 40.141469 230.138392 39.846156 229.763392 
Q 39.550844 229.388392 39.105531 229.16808 
Q 38.661781 228.947767 38.061781 228.947767 
Q 37.521156 228.947767 37.071156 229.14308 
Q 36.621156 229.338392 36.411781 229.76808 
L 36.391469 229.76808 
L 36.391469 227.097767 
L 35.541469 227.097767 
z
M 39.541469 231.608705 
Q 39.541469 231.988392 39.460219 232.34933 
Q 39.380531 232.708705 39.200844 232.988392 
Q 39.021156 233.26808 38.725844 233.438392 
Q 38.430531 233.608705 37.991469 233.608705 
Q 37.550844 233.608705 37.239906 233.444642 
Q 36.930531 233.279017 36.735219 233.008705 
Q 36.541469 232.738392 36.450844 232.383705 
Q 36.361781 232.029017 36.361781 231.647767 
Q 36.361781 231.288392 36.446156 230.938392 
Q 36.530531 230.588392 36.721156 230.313392 
Q 36.911781 230.038392 37.211781 229.86808 
Q 37.511781 229.697767 37.941469 229.697767 
Q 38.350844 229.697767 38.655531 229.858705 
Q 38.961781 230.01808 39.155531 230.288392 
Q 39.350844 230.558705 39.446156 230.904017 
Q 39.541469 231.247767 39.541469 231.608705 
z
" style="fill: #4c4c4c"/>
   </g>
   <g id="text_3">
    <path d="M 29.505435 247.695163 
L 30.385122 247.695163 
Q 30.335122 247.234226 30.144497 246.899851 
Q 29.955435 246.563913 29.660122 246.345163 
Q 29.36481 246.124851 28.980435 246.020163 
Q 28.59606 245.913913 28.155435 245.913913 
Q 27.54606 245.913913 27.085122 246.129538 
Q 26.625747 246.345163 26.319497 246.720163 
Q 26.01481 247.095163 25.86481 247.599851 
Q 25.71481 248.104538 25.71481 248.684226 
Q 25.71481 249.263913 25.869497 249.749851 
Q 26.025747 250.234226 26.330435 250.584226 
Q 26.635122 250.934226 27.08981 251.124851 
Q 27.54606 251.313913 28.135122 251.313913 
Q 29.125747 251.313913 29.700747 250.795163 
Q 30.275747 250.274851 30.41481 249.313913 
L 29.54606 249.313913 
Q 29.46481 249.913913 29.110122 250.245163 
Q 28.755435 250.574851 28.125747 250.574851 
Q 27.725747 250.574851 27.435122 250.415476 
Q 27.14606 250.254538 26.96481 249.990476 
Q 26.785122 249.724851 26.699185 249.385788 
Q 26.61481 249.045163 26.61481 248.684226 
Q 26.61481 248.295163 26.694497 247.929538 
Q 26.775747 247.563913 26.960122 247.284226 
Q 27.14606 247.004538 27.455435 246.834226 
Q 27.76481 246.663913 28.225747 246.663913 
Q 28.76481 246.663913 29.085122 246.934226 
Q 29.405435 247.204538 29.505435 247.695163 
z
" style="fill: #4c4c4c; stroke: #ffffff; stroke-width: 3"/>
    <path d="M 29.505435 247.695163 
L 30.385122 247.695163 
Q 30.335122 247.234226 30.144497 246.899851 
Q 29.955435 246.563913 29.660122 246.345163 
Q 29.36481 246.124851 28.980435 246.020163 
Q 28.59606 245.913913 28.155435 245.913913 
Q 27.54606 245.913913 27.085122 246.129538 
Q 26.625747 246.345163 26.319497 246.720163 
Q 26.01481 247.095163 25.86481 247.599851 
Q 25.71481 248.104538 25.71481 248.684226 
Q 25.71481 249.263913 25.869497 249.749851 
Q 26.025747 250.234226 26.330435 250.584226 
Q 26.635122 250.934226 27.08981 251.124851 
Q 27.54606 251.313913 28.135122 251.313913 
Q 29.125747 251.313913 29.700747 250.795163 
Q 30.275747 250.274851 30.41481 249.313913 
L 29.54606 249.313913 
Q 29.46481 249.913913 29.110122 250.245163 
Q 28.755435 250.574851 28.125747 250.574851 
Q 27.725747 250.574851 27.435122 250.415476 
Q 27.14606 250.254538 26.96481 249.990476 
Q 26.785122 249.724851 26.699185 249.385788 
Q 26.61481 249.045163 26.61481 248.684226 
Q 26.61481 248.295163 26.694497 247.929538 
Q 26.775747 247.563913 26.960122 247.284226 
Q 27.14606 247.004538 27.455435 246.834226 
Q 27.76481 246.663913 28.225747 246.663913 
Q 28.76481 246.663913 29.085122 246.934226 
Q 29.405435 247.204538 29.505435 247.695163 
z
" style="fill: #4c4c4c"/>
   </g>
  </g>
 </g>
 <defs>
  <clipPath id="p1b652e3ab5">
   <rect x="7.2" y="7.2" width="266.4" height="266.4"/>
  </clipPath>
 </defs>
</svg>
