<?xml version="1.0" encoding="utf-8" standalone="no"?>
<!DOCTYPE svg PUBLIC "-//W3C//DTD SVG 1.1//EN"
  "http://www.w3.org/Graphics/SVG/1.1/DTD/svg11.dtd">
<svg xmlns:xlink="http://www.w3.org/1999/xlink" width="280.8pt" height="280.8pt" viewBox="0 0 280.8 280.8" xmlns="http://www.w3.org/2000/svg" version="1.1">
 <metadata>
  <rdf:RDF xmlns:dc="http://purl.org/dc/elements/1.1/" xmlns:cc="http://creativecommons.org/ns#" xmlns:rdf="http://www.w3.org/1999/02/22-rdf-syntax-ns#">
   <cc:Work>
    <dc:type rdf:resource="http://purl.org/dc/dcmitype/StillImage"/>
    <dc:date>2026-02-16T14:30:30.555550</dc:date>
    <dc:format>image/svg+xml</dc:format>
    <dc:creator>
     <cc:Agent>
      <dc:title>Matplotlib v3.10.7, https://matplotlib.org/</dc:title>
     </cc:Agent>
    </dc:creator>
   </cc:Work>
  </rdf:RDF>
 </metadata>
 <defs>
  <style type="text/css">*{stroke-linejoin: round; stroke-linecap: butt}</style>
 </defs>
 <g id="figure_1">
  <g id="patch_1">
   <path d="M 0 280.8 
L 280.8 280.8 
L 280.8 0 
L 0 0 
z
" style="fill: #ffffff"/>
  </g>
  <g id="axes_1">
   <g id="PolyCollection_1">
    <path d="M 152.744503 140.4 
L 152.697528 139.324106 
L 152.556962 138.2564 
L 152.323874 137.205008 
L 152.000038 136.177931 
L 151.587919 135.182988 
L 151.090653 134.227748 
L 150.512025 133.319484 
L 149.856438 132.465106 
L 149.128882 131.671118 
L 148.334894 130.943562 
L 147.480516 130.287975 
L 146.572252 129.709347 
L 145.617012 129.212081 
L 144.622069 128.799962 
L 143.594992 128.476126 
L 142.5436 128.243038 
L 141.475894 128.102472 
L 140.4 128.055497 
L 139.324106 128.102472 
L 138.2564 128.243038 
L 137.205008 128.476126 
L 136.177931 128.799962 
L 135.182988 129.212081 
L 134.227748 129.709347 
L 133.319484 130.287975 
L 132.465106 130.943562 
L 131.671118 131.671118 
L 130.943562 132.465106 
L 130.287975 133.319484 
L 129.709347 134.227748 
L 129.212081 135.182988 
L 128.799962 136.177931 
L 128.476126 137.205008 
L 128.243038 138.2564 
L 128.102472 139.324106 
L 128.055497 140.4 
L 128.102472 141.475894 
L 128.243038 142.5436 
L 128.476126 143.594992 
L 128.799962 144.622069 
L 129.212081 145.617012 
L 129.709347 146.572252 
L 130.287975 147.480516 
L 130.943562 148.334894 
L 131.671118 149.128882 
L 132.465106 149.856438 
L 133.319484 150.512025 
L 134.227748 151.090653 
L 135.182988 151.587919 
L 136.177931 152.000038 
L 137.205008 152.323874 
L 138.2564 152.556962 
L 139.324106 152.697528 
L 140.4 152.744503 
L 141.475894 152.697528 
L 142.5436 152.556962 
L 143.594992 152.323874 
L 144.622069 152.000038 
L 145.617012 151.587919 
L 146.572252 151.090653 
L 147.480516 150.512025 
L 148.334894 149.856438 
L 149.128882 149.128882 
L 149.856438 148.334894 
L 150.512025 147.480516 
L 151.090653 146.572252 
L 151.587919 145.617012 
L 152.000038 144.622069 
L 152.323874 143.594992 
L 152.556962 142.5436 
L 152.697528 141.475894 
L 152.744503 140.4 
z
" clip-path="url(#p641bf02e84)" style="fill: #da7b22; stroke: #262626"/>
    <path d="M 149.262082 145.208913 
L 204.584319 177.149222 
L 204.317919 177.61064 
L 148.995682 145.670331 
z
" clip-path="url(#p641bf02e84)" style="fill: #4c4c4c"/>
    <path d="M 140.1336 130.320755 
L 140.1336 66.440138 
L 140.6664 66.440138 
L 140.6664 130.320755 
z
" clip-path="url(#p641bf02e84)" style="fill: #4c4c4c"/>
    <path d="M 131.804318 145.670331 
L 76.482081 177.61064 
L 76.215681 177.149222 
L 131.537918 145.208913 
z
" clip-path="url(#p641bf02e84)" style="fill: #4c4c4c"/>
    <path d="M 152.744503 140.4 
L 152.697528 139.324106 
L 152.556962 138.2564 
L 152.323874 137.205008 
L 152.000038 136.177931 
L 151.587919 135.182988 
L 151.090653 134.227748 
L 150.512025 133.319484 
L 149.856438 132.465106 
L 149.128882 131.671118 
L 148.334894 130.943562 
L 147.480516 130.287975 
L 146.572252 129.709347 
L 145.617012 129.212081 
L 144.622069 128.799962 
L 143.594992 128.476126 
L 142.5436 128.243038 
L 141.475894 128.102472 
L 140.4 128.055497 
L 139.324106 128.102472 
L 138.2564 128.243038 
L 137.205008 128.476126 
L 136.177931 128.799962 
L 135.182988 129.212081 
L 134.227748 129.709347 
L 133.319484 130.287975 
L 132.465106 130.943562 
L 131.671118 131.671118 
L 130.943562 132.465106 
L 130.287975 133.319484 
L 129.709347 134.227748 
L 129.212081 135.182988 
L 128.799962 136.177931 
L 128.476126 137.205008 
L 128.243038 138.2564 
L 128.102472 139.324106 
L 128.055497 140.4 
L 128.102472 141.475894 
L 128.243038 142.5436 
L 128.476126 143.594992 
L 128.799962 144.622069 
L 129.212081 145.617012 
L 129.709347 146.572252 
L 130.287975 147.480516 
L 130.943562 148.334894 
L 131.671118 149.128882 
L 132.465106 149.856438 
L 133.319484 150.512025 
L 134.227748 151.090653 
L 135.182988 151.587919 
L 136.177931 152.000038 
L 137.205008 152.323874 
L 138.2564 152.556962 
L 139.324106 152.697528 
L 140.4 152.744503 
L 141.475894 152.697528 
L 142.5436 152.556962 
L 143.594992 152.323874 
L 144.622069 152.000038 
L 145.617012 151.587919 
L 146.572252 151.090653 
L 147.480516 150.512025 
L 148.334894 149.856438 
L 149.128882 149.128882 
L 149.856438 148.334894 
L 150.512025 147.480516 
L 151.090653 146.572252 
L 151.587919 145.617012 
L 152.000038 144.622069 
L 152.323874 143.594992 
L 152.556962 142.5436 
L 152.697528 141.475894 
L 152.744503 140.4 
z
" clip-path="url(#p641bf02e84)" style="fill: #da7b22; stroke: #262626"/>
    <path d="M 204.584319 177.149222 
L 217.20581 184.436243 
L 216.93941 184.897661 
L 204.317919 177.61064 
z
" clip-path="url(#p641bf02e84)" style="fill: #4c4c4c"/>
    <path d="M 140.1336 66.440138 
L 140.1336 51.866095 
L 140.6664 51.866095 
L 140.6664 66.440138 
z
" clip-path="url(#p641bf02e84)" style="fill: #4c4c4c"/>
    <path d="M 76.482081 177.61064 
L 63.86059 184.897661 
L 63.59419 184.436243 
L 76.215681 177.149222 
z
" clip-path="url(#p641bf02e84)" style="fill: #4c4c4c"/>
    <path d="M 174.298572 123.396975 
L 174.434417 123.21451 
L 174.46916 122.890774 
L 174.399986 122.451994 
L 174.232499 121.933718 
L 173.980267 121.377934 
L 173.663726 120.829668 
L 173.308518 120.333337 
L 172.943422 119.929151 
L 172.598015 119.649855 
L 172.30028 119.518075 
L 172.074337 119.544488 
L 149.202166 132.749742 
L 149.06632 132.932208 
L 149.031576 133.255945 
L 149.100749 133.694725 
L 149.268236 134.213001 
L 149.520467 134.768785 
L 149.837009 135.317051 
L 150.192216 135.813382 
L 150.557313 136.217568 
L 150.902721 136.496864 
L 151.200457 136.628643 
L 151.426401 136.602229 
z
" clip-path="url(#p641bf02e84)" style="fill: #da7b22; stroke: #262626"/>
    <path d="M 195.445249 115.746713 
L 195.398275 114.670818 
L 195.257708 113.603112 
L 195.02462 112.55172 
L 194.700785 111.524644 
L 194.288665 110.5297 
L 193.791399 109.574461 
L 193.212771 108.666197 
L 192.557184 107.811819 
L 191.829628 107.017831 
L 191.03564 106.290275 
L 190.181262 105.634688 
L 189.272998 105.056059 
L 188.317759 104.558793 
L 187.322815 104.146674 
L 186.295739 103.822838 
L 185.244347 103.58975 
L 184.17664 103.449184 
L 183.100746 103.40221 
L 182.024852 103.449184 
L 180.957146 103.58975 
L 179.905754 103.822838 
L 178.878677 104.146674 
L 177.883734 104.558793 
L 176.928495 105.056059 
L 176.02023 105.634688 
L 175.165853 106.290275 
L 174.371864 107.017831 
L 173.644308 107.811819 
L 172.988721 108.666197 
L 172.410093 109.574461 
L 171.912827 110.5297 
L 171.500708 111.524644 
L 171.176872 112.55172 
L 170.943784 113.603112 
L 170.803218 114.670818 
L 170.756243 115.746713 
L 170.803218 116.822607 
L 170.943784 117.890313 
L 171.176872 118.941705 
L 171.500708 119.968781 
L 171.912827 120.963725 
L 172.410093 121.918964 
L 172.988721 122.827229 
L 173.644308 123.681606 
L 174.371864 124.475595 
L 175.165853 125.203151 
L 176.02023 125.858738 
L 176.928495 126.437366 
L 177.883734 126.934632 
L 178.878677 127.346751 
L 179.905754 127.670587 
L 180.957146 127.903675 
L 182.024852 128.044241 
L 183.100746 128.091216 
L 184.17664 128.044241 
L 185.244347 127.903675 
L 186.295739 127.670587 
L 187.322815 127.346751 
L 188.317759 126.934632 
L 189.272998 126.437366 
L 190.181262 125.858738 
L 191.03564 125.203151 
L 191.829628 124.475595 
L 192.557184 123.681606 
L 193.212771 122.827229 
L 193.791399 121.918964 
L 194.288665 120.963725 
L 194.700785 119.968781 
L 195.02462 118.941705 
L 195.257708 117.890313 
L 195.398275 116.822607 
L 195.445249 115.746713 
z
" clip-path="url(#p641bf02e84)" style="fill: #da7b22; stroke: #262626"/>
    <path d="M 108.725663 119.544488 
L 108.49972 119.518075 
L 108.201985 119.649855 
L 107.856578 119.929151 
L 107.491482 120.333337 
L 107.136274 120.829668 
L 106.819733 121.377934 
L 106.567501 121.933718 
L 106.400014 122.451994 
L 106.33084 122.890774 
L 106.365583 123.21451 
L 106.501428 123.396975 
L 129.373599 136.602229 
L 129.599543 136.628643 
L 129.897279 136.496864 
L 130.242687 136.217568 
L 130.607784 135.813382 
L 130.962991 135.317051 
L 131.279533 134.768785 
L 131.531764 134.213001 
L 131.699251 133.694725 
L 131.768424 133.255945 
L 131.73368 132.932208 
L 131.597834 132.749742 
z
" clip-path="url(#p641bf02e84)" style="fill: #da7b22; stroke: #262626"/>
    <path d="M 110.043757 115.746713 
L 109.996782 114.670818 
L 109.856216 113.603112 
L 109.623128 112.55172 
L 109.299292 111.524644 
L 108.887173 110.5297 
L 108.389907 109.574461 
L 107.811279 108.666197 
L 107.155692 107.811819 
L 106.428136 107.017831 
L 105.634147 106.290275 
L 104.77977 105.634688 
L 103.871505 105.056059 
L 102.916266 104.558793 
L 101.921323 104.146674 
L 100.894246 103.822838 
L 99.842854 103.58975 
L 98.775148 103.449184 
L 97.699254 103.40221 
L 96.62336 103.449184 
L 95.555653 103.58975 
L 94.504261 103.822838 
L 93.477185 104.146674 
L 92.482241 104.558793 
L 91.527002 105.056059 
L 90.618738 105.634688 
L 89.76436 106.290275 
L 88.970372 107.017831 
L 88.242816 107.811819 
L 87.587229 108.666197 
L 87.008601 109.574461 
L 86.511335 110.5297 
L 86.099215 111.524644 
L 85.77538 112.55172 
L 85.542292 113.603112 
L 85.401725 114.670818 
L 85.354751 115.746713 
L 85.401725 116.822607 
L 85.542292 117.890313 
L 85.77538 118.941705 
L 86.099215 119.968781 
L 86.511335 120.963725 
L 87.008601 121.918964 
L 87.587229 122.827229 
L 88.242816 123.681606 
L 88.970372 124.475595 
L 89.76436 125.203151 
L 90.618738 125.858738 
L 91.527002 126.437366 
L 92.482241 126.934632 
L 93.477185 127.346751 
L 94.504261 127.670587 
L 95.555653 127.903675 
L 96.62336 128.044241 
L 97.699254 128.091216 
L 98.775148 128.044241 
L 99.842854 127.903675 
L 100.894246 127.670587 
L 101.921323 127.346751 
L 102.916266 126.934632 
L 103.871505 126.437366 
L 104.77977 125.858738 
L 105.634147 125.203151 
L 106.428136 124.475595 
L 107.155692 123.681606 
L 107.811279 122.827229 
L 108.389907 121.918964 
L 108.887173 120.963725 
L 109.299292 119.968781 
L 109.623128 118.941705 
L 109.856216 117.890313 
L 109.996782 116.822607 
L 110.043757 115.746713 
z
" clip-path="url(#p641bf02e84)" style="fill: #da7b22; stroke: #262626"/>
    <path d="M 67.343011 189.706575 
L 67.296036 188.63068 
L 67.15547 187.562974 
L 66.922382 186.511582 
L 66.598546 185.484506 
L 66.186427 184.489562 
L 65.689161 183.534323 
L 65.110533 182.626059 
L 64.454946 181.771681 
L 63.72739 180.977693 
L 62.933401 180.250137 
L 62.079024 179.59455 
L 61.170759 179.015921 
L 60.21552 178.518655 
L 59.220576 178.106536 
L 58.1935 177.7827 
L 57.142108 177.549612 
L 56.074402 177.409046 
L 54.998508 177.362072 
L 53.922613 177.409046 
L 52.854907 177.549612 
L 51.803515 177.7827 
L 50.776439 178.106536 
L 49.781495 178.518655 
L 48.826256 179.015921 
L 47.917992 179.59455 
L 47.063614 180.250137 
L 46.269626 180.977693 
L 45.54207 181.771681 
L 44.886483 182.626059 
L 44.307854 183.534323 
L 43.810588 184.489562 
L 43.398469 185.484506 
L 43.074633 186.511582 
L 42.841545 187.562974 
L 42.700979 188.63068 
L 42.654005 189.706575 
L 42.700979 190.782469 
L 42.841545 191.850175 
L 43.074633 192.901567 
L 43.398469 193.928643 
L 43.810588 194.923587 
L 44.307854 195.878826 
L 44.886483 196.787091 
L 45.54207 197.641468 
L 46.269626 198.435456 
L 47.063614 199.163013 
L 47.917992 199.818599 
L 48.826256 200.397228 
L 49.781495 200.894494 
L 50.776439 201.306613 
L 51.803515 201.630449 
L 52.854907 201.863537 
L 53.922613 202.004103 
L 54.998508 202.051078 
L 56.074402 202.004103 
L 57.142108 201.863537 
L 58.1935 201.630449 
L 59.220576 201.306613 
L 60.21552 200.894494 
L 61.170759 200.397228 
L 62.079024 199.818599 
L 62.933401 199.163013 
L 63.72739 198.435456 
L 64.454946 197.641468 
L 65.110533 196.787091 
L 65.689161 195.878826 
L 66.186427 194.923587 
L 66.598546 193.928643 
L 66.922382 192.901567 
L 67.15547 191.850175 
L 67.296036 190.782469 
L 67.343011 189.706575 
z
" clip-path="url(#p641bf02e84)" style="fill: #da7b22; stroke: #262626"/>
    <path d="M 152.744503 41.786851 
L 152.697528 40.710957 
L 152.556962 39.64325 
L 152.323874 38.591858 
L 152.000038 37.564782 
L 151.587919 36.569838 
L 151.090653 35.614599 
L 150.512025 34.706335 
L 149.856438 33.851957 
L 149.128882 33.057969 
L 148.334894 32.330413 
L 147.480516 31.674826 
L 146.572252 31.096198 
L 145.617012 30.598932 
L 144.622069 30.186812 
L 143.594992 29.862977 
L 142.5436 29.629889 
L 141.475894 29.489322 
L 140.4 29.442348 
L 139.324106 29.489322 
L 138.2564 29.629889 
L 137.205008 29.862977 
L 136.177931 30.186812 
L 135.182988 30.598932 
L 134.227748 31.096198 
L 133.319484 31.674826 
L 132.465106 32.330413 
L 131.671118 33.057969 
L 130.943562 33.851957 
L 130.287975 34.706335 
L 129.709347 35.614599 
L 129.212081 36.569838 
L 128.799962 37.564782 
L 128.476126 38.591858 
L 128.243038 39.64325 
L 128.102472 40.710957 
L 128.055497 41.786851 
L 128.102472 42.862745 
L 128.243038 43.930451 
L 128.476126 44.981843 
L 128.799962 46.00892 
L 129.212081 47.003863 
L 129.709347 47.959102 
L 130.287975 48.867367 
L 130.943562 49.721744 
L 131.671118 50.515733 
L 132.465106 51.243289 
L 133.319484 51.898876 
L 134.227748 52.477504 
L 135.182988 52.97477 
L 136.177931 53.386889 
L 137.205008 53.710725 
L 138.2564 53.943813 
L 139.324106 54.084379 
L 140.4 54.131354 
L 141.475894 54.084379 
L 142.5436 53.943813 
L 143.594992 53.710725 
L 144.622069 53.386889 
L 145.617012 52.97477 
L 146.572252 52.477504 
L 147.480516 51.898876 
L 148.334894 51.243289 
L 149.128882 50.515733 
L 149.856438 49.721744 
L 150.512025 48.867367 
L 151.090653 47.959102 
L 151.587919 47.003863 
L 152.000038 46.00892 
L 152.323874 44.981843 
L 152.556962 43.930451 
L 152.697528 42.862745 
L 152.744503 41.786851 
z
" clip-path="url(#p641bf02e84)" style="fill: #da7b22; stroke: #262626"/>
    <path d="M 138.175765 178.258537 
L 138.265862 178.467415 
L 138.528855 178.659372 
L 138.943436 178.818855 
L 139.476019 178.932944 
L 140.083458 178.992397 
L 140.716542 178.992397 
L 141.323981 178.932944 
L 141.856564 178.818855 
L 142.271145 178.659372 
L 142.534138 178.467415 
L 142.624235 178.258537 
L 142.624235 151.848029 
L 142.534138 151.639149 
L 142.271145 151.447191 
L 141.856564 151.287707 
L 141.323981 151.173617 
L 140.716542 151.114164 
L 140.083458 151.114164 
L 139.476019 151.173617 
L 138.943436 151.287707 
L 138.528855 151.447191 
L 138.265862 151.639149 
L 138.175765 151.848029 
z
" clip-path="url(#p641bf02e84)" style="fill: #da7b22; stroke: #262626"/>
    <path d="M 152.744503 189.706575 
L 152.697528 188.63068 
L 152.556962 187.562974 
L 152.323874 186.511582 
L 152.000038 185.484506 
L 151.587919 184.489562 
L 151.090653 183.534323 
L 150.512025 182.626059 
L 149.856438 181.771681 
L 149.128882 180.977693 
L 148.334894 180.250137 
L 147.480516 179.59455 
L 146.572252 179.015921 
L 145.617012 178.518655 
L 144.622069 178.106536 
L 143.594992 177.7827 
L 142.5436 177.549612 
L 141.475894 177.409046 
L 140.4 177.362072 
L 139.324106 177.409046 
L 138.2564 177.549612 
L 137.205008 177.7827 
L 136.177931 178.106536 
L 135.182988 178.518655 
L 134.227748 179.015921 
L 133.319484 179.59455 
L 132.465106 180.250137 
L 131.671118 180.977693 
L 130.943562 181.771681 
L 130.287975 182.626059 
L 129.709347 183.534323 
L 129.212081 184.489562 
L 128.799962 185.484506 
L 128.476126 186.511582 
L 128.243038 187.562974 
L 128.102472 188.63068 
L 128.055497 189.706575 
L 128.102472 190.782469 
L 128.243038 191.850175 
L 128.476126 192.901567 
L 128.799962 193.928643 
L 129.212081 194.923587 
L 129.709347 195.878826 
L 130.287975 196.787091 
L 130.943562 197.641468 
L 131.671118 198.435456 
L 132.465106 199.163013 
L 133.319484 199.818599 
L 134.227748 200.397228 
L 135.182988 200.894494 
L 136.177931 201.306613 
L 137.205008 201.630449 
L 138.2564 201.863537 
L 139.324106 202.004103 
L 140.4 202.051078 
L 141.475894 202.004103 
L 142.5436 201.863537 
L 143.594992 201.630449 
L 144.622069 201.306613 
L 145.617012 200.894494 
L 146.572252 200.397228 
L 147.480516 199.818599 
L 148.334894 199.163013 
L 149.128882 198.435456 
L 149.856438 197.641468 
L 150.512025 196.787091 
L 151.090653 195.878826 
L 151.587919 194.923587 
L 152.000038 193.928643 
L 152.323874 192.901567 
L 152.556962 191.850175 
L 152.697528 190.782469 
L 152.744503 189.706575 
z
" clip-path="url(#p641bf02e84)" style="fill: #da7b22; stroke: #262626"/>
    <path d="M 238.145995 189.706575 
L 238.099021 188.63068 
L 237.958455 187.562974 
L 237.725367 186.511582 
L 237.401531 185.484506 
L 236.989412 184.489562 
L 236.492146 183.534323 
L 235.913517 182.626059 
L 235.25793 181.771681 
L 234.530374 180.977693 
L 233.736386 180.250137 
L 232.882008 179.59455 
L 231.973744 179.015921 
L 231.018505 178.518655 
L 230.023561 178.106536 
L 228.996485 177.7827 
L 227.945093 177.549612 
L 226.877387 177.409046 
L 225.801492 177.362072 
L 224.725598 177.409046 
L 223.657892 177.549612 
L 222.6065 177.7827 
L 221.579424 178.106536 
L 220.58448 178.518655 
L 219.629241 179.015921 
L 218.720976 179.59455 
L 217.866599 180.250137 
L 217.07261 180.977693 
L 216.345054 181.771681 
L 215.689467 182.626059 
L 215.110839 183.534323 
L 214.613573 184.489562 
L 214.201454 185.484506 
L 213.877618 186.511582 
L 213.64453 187.562974 
L 213.503964 188.63068 
L 213.456989 189.706575 
L 213.503964 190.782469 
L 213.64453 191.850175 
L 213.877618 192.901567 
L 214.201454 193.928643 
L 214.613573 194.923587 
L 215.110839 195.878826 
L 215.689467 196.787091 
L 216.345054 197.641468 
L 217.07261 198.435456 
L 217.866599 199.163013 
L 218.720976 199.818599 
L 219.629241 200.397228 
L 220.58448 200.894494 
L 221.579424 201.306613 
L 222.6065 201.630449 
L 223.657892 201.863537 
L 224.725598 202.004103 
L 225.801492 202.051078 
L 226.877387 202.004103 
L 227.945093 201.863537 
L 228.996485 201.630449 
L 230.023561 201.306613 
L 231.018505 200.894494 
L 231.973744 200.397228 
L 232.882008 199.818599 
L 233.736386 199.163013 
L 234.530374 198.435456 
L 235.25793 197.641468 
L 235.913517 196.787091 
L 236.492146 195.878826 
L 236.989412 194.923587 
L 237.401531 193.928643 
L 237.725367 192.901567 
L 237.958455 191.850175 
L 238.099021 190.782469 
L 238.145995 189.706575 
z
" clip-path="url(#p641bf02e84)" style="fill: #da7b22; stroke: #262626"/>
    <path d="M 225.535092 179.62733 
L 225.535092 115.746713 
L 226.067892 115.746713 
L 226.067892 179.62733 
z
" clip-path="url(#p641bf02e84)" style="fill: #4c4c4c"/>
    <path d="M 149.262082 46.595764 
L 204.584319 78.536073 
L 204.317919 78.997491 
L 148.995682 47.057182 
z
" clip-path="url(#p641bf02e84)" style="fill: #4c4c4c"/>
    <path d="M 131.804318 47.057182 
L 76.482081 78.997491 
L 76.215681 78.536073 
L 131.537918 46.595764 
z
" clip-path="url(#p641bf02e84)" style="fill: #4c4c4c"/>
    <path d="M 63.86059 194.515488 
L 119.182827 226.455796 
L 118.916427 226.917215 
L 63.59419 194.976906 
z
" clip-path="url(#p641bf02e84)" style="fill: #4c4c4c"/>
    <path d="M 54.732108 179.62733 
L 54.732108 115.746713 
L 55.264908 115.746713 
L 55.264908 179.62733 
z
" clip-path="url(#p641bf02e84)" style="fill: #4c4c4c"/>
    <path d="M 217.20581 194.976906 
L 161.883573 226.917215 
L 161.617173 226.455796 
L 216.93941 194.515488 
z
" clip-path="url(#p641bf02e84)" style="fill: #4c4c4c"/>
    <path d="M 110.043757 115.746713 
L 109.996782 114.670818 
L 109.856216 113.603112 
L 109.623128 112.55172 
L 109.299292 111.524644 
L 108.887173 110.5297 
L 108.389907 109.574461 
L 107.811279 108.666197 
L 107.155692 107.811819 
L 106.428136 107.017831 
L 105.634147 106.290275 
L 104.77977 105.634688 
L 103.871505 105.056059 
L 102.916266 104.558793 
L 101.921323 104.146674 
L 100.894246 103.822838 
L 99.842854 103.58975 
L 98.775148 103.449184 
L 97.699254 103.40221 
L 96.62336 103.449184 
L 95.555653 103.58975 
L 94.504261 103.822838 
L 93.477185 104.146674 
L 92.482241 104.558793 
L 91.527002 105.056059 
L 90.618738 105.634688 
L 89.76436 106.290275 
L 88.970372 107.017831 
L 88.242816 107.811819 
L 87.587229 108.666197 
L 87.008601 109.574461 
L 86.511335 110.5297 
L 86.099215 111.524644 
L 85.77538 112.55172 
L 85.542292 113.603112 
L 85.401725 114.670818 
L 85.354751 115.746713 
L 85.401725 116.822607 
L 85.542292 117.890313 
L 85.77538 118.941705 
L 86.099215 119.968781 
L 86.511335 120.963725 
L 87.008601 121.918964 
L 87.587229 122.827229 
L 88.242816 123.681606 
L 88.970372 124.475595 
L 89.76436 125.203151 
L 90.618738 125.858738 
L 91.527002 126.437366 
L 92.482241 126.934632 
L 93.477185 127.346751 
L 94.504261 127.670587 
L 95.555653 127.903675 
L 96.62336 128.044241 
L 97.699254 128.091216 
L 98.775148 128.044241 
L 99.842854 127.903675 
L 100.894246 127.670587 
L 101.921323 127.346751 
L 102.916266 126.934632 
L 103.871505 126.437366 
L 104.77977 125.858738 
L 105.634147 125.203151 
L 106.428136 124.475595 
L 107.155692 123.681606 
L 107.811279 122.827229 
L 108.389907 121.918964 
L 108.887173 120.963725 
L 109.299292 119.968781 
L 109.623128 118.941705 
L 109.856216 117.890313 
L 109.996782 116.822607 
L 110.043757 115.746713 
z
" clip-path="url(#p641bf02e84)" style="fill: #da7b22; stroke: #262626"/>
    <path d="M 195.445249 115.746713 
L 195.398275 114.670818 
L 195.257708 113.603112 
L 195.02462 112.55172 
L 194.700785 111.524644 
L 194.288665 110.5297 
L 193.791399 109.574461 
L 193.212771 108.666197 
L 192.557184 107.811819 
L 191.829628 107.017831 
L 191.03564 106.290275 
L 190.181262 105.634688 
L 189.272998 105.056059 
L 188.317759 104.558793 
L 187.322815 104.146674 
L 186.295739 103.822838 
L 185.244347 103.58975 
L 184.17664 103.449184 
L 183.100746 103.40221 
L 182.024852 103.449184 
L 180.957146 103.58975 
L 179.905754 103.822838 
L 178.878677 104.146674 
L 177.883734 104.558793 
L 176.928495 105.056059 
L 176.02023 105.634688 
L 175.165853 106.290275 
L 174.371864 107.017831 
L 173.644308 107.811819 
L 172.988721 108.666197 
L 172.410093 109.574461 
L 171.912827 110.5297 
L 171.500708 111.524644 
L 171.176872 112.55172 
L 170.943784 113.603112 
L 170.803218 114.670818 
L 170.756243 115.746713 
L 170.803218 116.822607 
L 170.943784 117.890313 
L 171.176872 118.941705 
L 171.500708 119.968781 
L 171.912827 120.963725 
L 172.410093 121.918964 
L 172.988721 122.827229 
L 173.644308 123.681606 
L 174.371864 124.475595 
L 175.165853 125.203151 
L 176.02023 125.858738 
L 176.928495 126.437366 
L 177.883734 126.934632 
L 178.878677 127.346751 
L 179.905754 127.670587 
L 180.957146 127.903675 
L 182.024852 128.044241 
L 183.100746 128.091216 
L 184.17664 128.044241 
L 185.244347 127.903675 
L 186.295739 127.670587 
L 187.322815 127.346751 
L 188.317759 126.934632 
L 189.272998 126.437366 
L 190.181262 125.858738 
L 191.03564 125.203151 
L 191.829628 124.475595 
L 192.557184 123.681606 
L 193.212771 122.827229 
L 193.791399 121.918964 
L 194.288665 120.963725 
L 194.700785 119.968781 
L 195.02462 118.941705 
L 195.257708 117.890313 
L 195.398275 116.822607 
L 195.445249 115.746713 
z
" clip-path="url(#p641bf02e84)" style="fill: #da7b22; stroke: #262626"/>
    <path d="M 152.744503 189.706575 
L 152.697528 188.63068 
L 152.556962 187.562974 
L 152.323874 186.511582 
L 152.000038 185.484506 
L 151.587919 184.489562 
L 151.090653 183.534323 
L 150.512025 182.626059 
L 149.856438 181.771681 
L 149.128882 180.977693 
L 148.334894 180.250137 
L 147.480516 179.59455 
L 146.572252 179.015921 
L 145.617012 178.518655 
L 144.622069 178.106536 
L 143.594992 177.7827 
L 142.5436 177.549612 
L 141.475894 177.409046 
L 140.4 177.362072 
L 139.324106 177.409046 
L 138.2564 177.549612 
L 137.205008 177.7827 
L 136.177931 178.106536 
L 135.182988 178.518655 
L 134.227748 179.015921 
L 133.319484 179.59455 
L 132.465106 180.250137 
L 131.671118 180.977693 
L 130.943562 181.771681 
L 130.287975 182.626059 
L 129.709347 183.534323 
L 129.212081 184.489562 
L 128.799962 185.484506 
L 128.476126 186.511582 
L 128.243038 187.562974 
L 128.102472 188.63068 
L 128.055497 189.706575 
L 128.102472 190.782469 
L 128.243038 191.850175 
L 128.476126 192.901567 
L 128.799962 193.928643 
L 129.212081 194.923587 
L 129.709347 195.878826 
L 130.287975 196.787091 
L 130.943562 197.641468 
L 131.671118 198.435456 
L 132.465106 199.163013 
L 133.319484 199.818599 
L 134.227748 200.397228 
L 135.182988 200.894494 
L 136.177931 201.306613 
L 137.205008 201.630449 
L 138.2564 201.863537 
L 139.324106 202.004103 
L 140.4 202.051078 
L 141.475894 202.004103 
L 142.5436 201.863537 
L 143.594992 201.630449 
L 144.622069 201.306613 
L 145.617012 200.894494 
L 146.572252 200.397228 
L 147.480516 199.818599 
L 148.334894 199.163013 
L 149.128882 198.435456 
L 149.856438 197.641468 
L 150.512025 196.787091 
L 151.090653 195.878826 
L 151.587919 194.923587 
L 152.000038 193.928643 
L 152.323874 192.901567 
L 152.556962 191.850175 
L 152.697528 190.782469 
L 152.744503 189.706575 
z
" clip-path="url(#p641bf02e84)" style="fill: #da7b22; stroke: #262626"/>
    <path d="M 54.732108 115.746713 
L 54.732108 101.17267 
L 55.264908 101.17267 
L 55.264908 115.746713 
z
" clip-path="url(#p641bf02e84)" style="fill: #4c4c4c"/>
    <path d="M 225.535092 115.746713 
L 225.535092 101.17267 
L 226.067892 101.17267 
L 226.067892 115.746713 
z
" clip-path="url(#p641bf02e84)" style="fill: #4c4c4c"/>
    <path d="M 161.883573 226.917215 
L 149.262082 234.204236 
L 148.995682 233.742818 
L 161.617173 226.455796 
z
" clip-path="url(#p641bf02e84)" style="fill: #4c4c4c"/>
    <path d="M 204.584319 78.536073 
L 217.20581 85.823094 
L 216.93941 86.284512 
L 204.317919 78.997491 
z
" clip-path="url(#p641bf02e84)" style="fill: #4c4c4c"/>
    <path d="M 76.482081 78.997491 
L 63.86059 86.284512 
L 63.59419 85.823094 
L 76.215681 78.536073 
z
" clip-path="url(#p641bf02e84)" style="fill: #4c4c4c"/>
    <path d="M 119.182827 226.455796 
L 131.804318 233.742818 
L 131.537918 234.204236 
L 118.916427 226.917215 
z
" clip-path="url(#p641bf02e84)" style="fill: #4c4c4c"/>
    <path d="M 191.90292 108.09645 
L 191.767075 108.278916 
L 191.732332 108.602652 
L 191.801506 109.041431 
L 191.968993 109.559707 
L 192.221225 110.115491 
L 192.537767 110.663757 
L 192.892974 111.160088 
L 193.25807 111.564274 
L 193.603477 111.843571 
L 193.901212 111.97535 
L 194.127155 111.948938 
L 216.99931 98.743693 
L 217.135155 98.561228 
L 217.169897 98.237492 
L 217.100722 97.798713 
L 216.933234 97.280438 
L 216.681002 96.724654 
L 216.36446 96.176388 
L 216.009253 95.680057 
L 215.644158 95.27587 
L 215.298751 94.996573 
L 215.001017 94.864793 
L 214.775076 94.891205 
z
" clip-path="url(#p641bf02e84)" style="fill: #da7b22; stroke: #262626"/>
    <path d="M 238.145995 91.093425 
L 238.099021 90.017531 
L 237.958455 88.949825 
L 237.725367 87.898433 
L 237.401531 86.871357 
L 236.989412 85.876413 
L 236.492146 84.921174 
L 235.913517 84.012909 
L 235.25793 83.158532 
L 234.530374 82.364544 
L 233.736386 81.636987 
L 232.882008 80.981401 
L 231.973744 80.402772 
L 231.018505 79.905506 
L 230.023561 79.493387 
L 228.996485 79.169551 
L 227.945093 78.936463 
L 226.877387 78.795897 
L 225.801492 78.748922 
L 224.725598 78.795897 
L 223.657892 78.936463 
L 222.6065 79.169551 
L 221.579424 79.493387 
L 220.58448 79.905506 
L 219.629241 80.402772 
L 218.720976 80.981401 
L 217.866599 81.636987 
L 217.07261 82.364544 
L 216.345054 83.158532 
L 215.689467 84.012909 
L 215.110839 84.921174 
L 214.613573 85.876413 
L 214.201454 86.871357 
L 213.877618 87.898433 
L 213.64453 88.949825 
L 213.503964 90.017531 
L 213.456989 91.093425 
L 213.503964 92.16932 
L 213.64453 93.237026 
L 213.877618 94.288418 
L 214.201454 95.315494 
L 214.613573 96.310438 
L 215.110839 97.265677 
L 215.689467 98.173941 
L 216.345054 99.028319 
L 217.07261 99.822307 
L 217.866599 100.549863 
L 218.720976 101.20545 
L 219.629241 101.784079 
L 220.58448 102.281345 
L 221.579424 102.693464 
L 222.6065 103.0173 
L 223.657892 103.250388 
L 224.725598 103.390954 
L 225.801492 103.437928 
L 226.877387 103.390954 
L 227.945093 103.250388 
L 228.996485 103.0173 
L 230.023561 102.693464 
L 231.018505 102.281345 
L 231.973744 101.784079 
L 232.882008 101.20545 
L 233.736386 100.549863 
L 234.530374 99.822307 
L 235.25793 99.028319 
L 235.913517 98.173941 
L 236.492146 97.265677 
L 236.989412 96.310438 
L 237.401531 95.315494 
L 237.725367 94.288418 
L 237.958455 93.237026 
L 238.099021 92.16932 
L 238.145995 91.093425 
z
" clip-path="url(#p641bf02e84)" style="fill: #da7b22; stroke: #262626"/>
    <path d="M 86.672845 111.948938 
L 86.898788 111.97535 
L 87.196523 111.843571 
L 87.54193 111.564274 
L 87.907026 111.160088 
L 88.262233 110.663757 
L 88.578775 110.115491 
L 88.831007 109.559707 
L 88.998494 109.041431 
L 89.067668 108.602652 
L 89.032925 108.278916 
L 88.89708 108.09645 
L 66.024924 94.891205 
L 65.798983 94.864793 
L 65.501249 94.996573 
L 65.155842 95.27587 
L 64.790747 95.680057 
L 64.43554 96.176388 
L 64.118998 96.724654 
L 63.866766 97.280438 
L 63.699278 97.798713 
L 63.630103 98.237492 
L 63.664845 98.561228 
L 63.80069 98.743693 
z
" clip-path="url(#p641bf02e84)" style="fill: #da7b22; stroke: #262626"/>
    <path d="M 67.343011 91.093425 
L 67.296036 90.017531 
L 67.15547 88.949825 
L 66.922382 87.898433 
L 66.598546 86.871357 
L 66.186427 85.876413 
L 65.689161 84.921174 
L 65.110533 84.012909 
L 64.454946 83.158532 
L 63.72739 82.364544 
L 62.933401 81.636987 
L 62.079024 80.981401 
L 61.170759 80.402772 
L 60.21552 79.905506 
L 59.220576 79.493387 
L 58.1935 79.169551 
L 57.142108 78.936463 
L 56.074402 78.795897 
L 54.998508 78.748922 
L 53.922613 78.795897 
L 52.854907 78.936463 
L 51.803515 79.169551 
L 50.776439 79.493387 
L 49.781495 79.905506 
L 48.826256 80.402772 
L 47.917992 80.981401 
L 47.063614 81.636987 
L 46.269626 82.364544 
L 45.54207 83.158532 
L 44.886483 84.012909 
L 44.307854 84.921174 
L 43.810588 85.876413 
L 43.398469 86.871357 
L 43.074633 87.898433 
L 42.841545 88.949825 
L 42.700979 90.017531 
L 42.654005 91.093425 
L 42.700979 92.16932 
L 42.841545 93.237026 
L 43.074633 94.288418 
L 43.398469 95.315494 
L 43.810588 96.310438 
L 44.307854 97.265677 
L 44.886483 98.173941 
L 45.54207 99.028319 
L 46.269626 99.822307 
L 47.063614 100.549863 
L 47.917992 101.20545 
L 48.826256 101.784079 
L 49.781495 102.281345 
L 50.776439 102.693464 
L 51.803515 103.0173 
L 52.854907 103.250388 
L 53.922613 103.390954 
L 54.998508 103.437928 
L 56.074402 103.390954 
L 57.142108 103.250388 
L 58.1935 103.0173 
L 59.220576 102.693464 
L 60.21552 102.281345 
L 61.170759 101.784079 
L 62.079024 101.20545 
L 62.933401 100.549863 
L 63.72739 99.822307 
L 64.454946 99.028319 
L 65.110533 98.173941 
L 65.689161 97.265677 
L 66.186427 96.310438 
L 66.598546 95.315494 
L 66.922382 94.288418 
L 67.15547 93.237026 
L 67.296036 92.16932 
L 67.343011 91.093425 
z
" clip-path="url(#p641bf02e84)" style="fill: #da7b22; stroke: #262626"/>
    <path d="M 99.923489 127.194737 
L 99.833391 126.985857 
L 99.570399 126.793898 
L 99.155818 126.634414 
L 98.623234 126.520323 
L 98.015795 126.46087 
L 97.382712 126.46087 
L 96.775273 126.520323 
L 96.24269 126.634414 
L 95.828108 126.793898 
L 95.565116 126.985857 
L 95.475019 127.194737 
L 95.475019 153.605254 
L 95.565116 153.814133 
L 95.828108 154.00609 
L 96.24269 154.165574 
L 96.775273 154.279664 
L 97.382712 154.339117 
L 98.015795 154.339117 
L 98.623234 154.279664 
L 99.155818 154.165574 
L 99.570399 154.00609 
L 99.833391 153.814133 
L 99.923489 153.605254 
z
" clip-path="url(#p641bf02e84)" style="fill: #da7b22; stroke: #262626"/>
    <path d="M 129.373603 185.908806 
L 129.599547 185.93522 
L 129.897284 185.803441 
L 130.242692 185.524145 
L 130.607789 185.11996 
L 130.962997 184.623629 
L 131.279539 184.075363 
L 131.53177 183.519579 
L 131.699256 183.001303 
L 131.768429 182.562522 
L 131.733685 182.238785 
L 131.597837 182.056319 
L 108.725659 168.85106 
L 108.499716 168.824647 
L 108.20198 168.956426 
L 107.856572 169.235723 
L 107.491476 169.639909 
L 107.136269 170.136239 
L 106.819727 170.684506 
L 106.567495 171.24029 
L 106.400008 171.758566 
L 106.330835 172.197345 
L 106.365578 172.521082 
L 106.501424 172.703548 
z
" clip-path="url(#p641bf02e84)" style="fill: #da7b22; stroke: #262626"/>
    <path d="M 110.043757 165.053287 
L 109.996782 163.977393 
L 109.856216 162.909687 
L 109.623128 161.858295 
L 109.299292 160.831219 
L 108.887173 159.836275 
L 108.389907 158.881036 
L 107.811279 157.972771 
L 107.155692 157.118394 
L 106.428136 156.324405 
L 105.634147 155.596849 
L 104.77977 154.941262 
L 103.871505 154.362634 
L 102.916266 153.865368 
L 101.921323 153.453249 
L 100.894246 153.129413 
L 99.842854 152.896325 
L 98.775148 152.755759 
L 97.699254 152.708784 
L 96.62336 152.755759 
L 95.555653 152.896325 
L 94.504261 153.129413 
L 93.477185 153.453249 
L 92.482241 153.865368 
L 91.527002 154.362634 
L 90.618738 154.941262 
L 89.76436 155.596849 
L 88.970372 156.324405 
L 88.242816 157.118394 
L 87.587229 157.972771 
L 87.008601 158.881036 
L 86.511335 159.836275 
L 86.099215 160.831219 
L 85.77538 161.858295 
L 85.542292 162.909687 
L 85.401725 163.977393 
L 85.354751 165.053287 
L 85.401725 166.129182 
L 85.542292 167.196888 
L 85.77538 168.24828 
L 86.099215 169.275356 
L 86.511335 170.2703 
L 87.008601 171.225539 
L 87.587229 172.133803 
L 88.242816 172.988181 
L 88.970372 173.782169 
L 89.76436 174.509725 
L 90.618738 175.165312 
L 91.527002 175.743941 
L 92.482241 176.241207 
L 93.477185 176.653326 
L 94.504261 176.977162 
L 95.555653 177.21025 
L 96.62336 177.350816 
L 97.699254 177.39779 
L 98.775148 177.350816 
L 99.842854 177.21025 
L 100.894246 176.977162 
L 101.921323 176.653326 
L 102.916266 176.241207 
L 103.871505 175.743941 
L 104.77977 175.165312 
L 105.634147 174.509725 
L 106.428136 173.782169 
L 107.155692 172.988181 
L 107.811279 172.133803 
L 108.389907 171.225539 
L 108.887173 170.2703 
L 109.299292 169.275356 
L 109.623128 168.24828 
L 109.856216 167.196888 
L 109.996782 166.129182 
L 110.043757 165.053287 
z
" clip-path="url(#p641bf02e84)" style="fill: #da7b22; stroke: #262626"/>
    <path d="M 185.324981 127.194737 
L 185.234884 126.985857 
L 184.971892 126.793898 
L 184.55731 126.634414 
L 184.024727 126.520323 
L 183.417288 126.46087 
L 182.784205 126.46087 
L 182.176766 126.520323 
L 181.644182 126.634414 
L 181.229601 126.793898 
L 180.966609 126.985857 
L 180.876511 127.194737 
L 180.876511 153.605254 
L 180.966609 153.814133 
L 181.229601 154.00609 
L 181.644182 154.165574 
L 182.176766 154.279664 
L 182.784205 154.339117 
L 183.417288 154.339117 
L 184.024727 154.279664 
L 184.55731 154.165574 
L 184.971892 154.00609 
L 185.234884 153.814133 
L 185.324981 153.605254 
z
" clip-path="url(#p641bf02e84)" style="fill: #da7b22; stroke: #262626"/>
    <path d="M 149.202163 182.056319 
L 149.066315 182.238785 
L 149.031571 182.562522 
L 149.100744 183.001303 
L 149.26823 183.519579 
L 149.520461 184.075363 
L 149.837003 184.623629 
L 150.192211 185.11996 
L 150.557308 185.524145 
L 150.902716 185.803441 
L 151.200453 185.93522 
L 151.426397 185.908806 
L 174.298576 172.703548 
L 174.434422 172.521082 
L 174.469165 172.197345 
L 174.399992 171.758566 
L 174.232505 171.24029 
L 173.980273 170.684506 
L 173.663731 170.136239 
L 173.308524 169.639909 
L 172.943428 169.235723 
L 172.59802 168.956426 
L 172.300284 168.824647 
L 172.074341 168.85106 
z
" clip-path="url(#p641bf02e84)" style="fill: #da7b22; stroke: #262626"/>
    <path d="M 195.445249 165.053287 
L 195.398275 163.977393 
L 195.257708 162.909687 
L 195.02462 161.858295 
L 194.700785 160.831219 
L 194.288665 159.836275 
L 193.791399 158.881036 
L 193.212771 157.972771 
L 192.557184 157.118394 
L 191.829628 156.324405 
L 191.03564 155.596849 
L 190.181262 154.941262 
L 189.272998 154.362634 
L 188.317759 153.865368 
L 187.322815 153.453249 
L 186.295739 153.129413 
L 185.244347 152.896325 
L 184.17664 152.755759 
L 183.100746 152.708784 
L 182.024852 152.755759 
L 180.957146 152.896325 
L 179.905754 153.129413 
L 178.878677 153.453249 
L 177.883734 153.865368 
L 176.928495 154.362634 
L 176.02023 154.941262 
L 175.165853 155.596849 
L 174.371864 156.324405 
L 173.644308 157.118394 
L 172.988721 157.972771 
L 172.410093 158.881036 
L 171.912827 159.836275 
L 171.500708 160.831219 
L 171.176872 161.858295 
L 170.943784 162.909687 
L 170.803218 163.977393 
L 170.756243 165.053287 
L 170.803218 166.129182 
L 170.943784 167.196888 
L 171.176872 168.24828 
L 171.500708 169.275356 
L 171.912827 170.2703 
L 172.410093 171.225539 
L 172.988721 172.133803 
L 173.644308 172.988181 
L 174.371864 173.782169 
L 175.165853 174.509725 
L 176.02023 175.165312 
L 176.928495 175.743941 
L 177.883734 176.241207 
L 178.878677 176.653326 
L 179.905754 176.977162 
L 180.957146 177.21025 
L 182.024852 177.350816 
L 183.100746 177.39779 
L 184.17664 177.350816 
L 185.244347 177.21025 
L 186.295739 176.977162 
L 187.322815 176.653326 
L 188.317759 176.241207 
L 189.272998 175.743941 
L 190.181262 175.165312 
L 191.03564 174.509725 
L 191.829628 173.782169 
L 192.557184 172.988181 
L 193.212771 172.133803 
L 193.791399 171.225539 
L 194.288665 170.2703 
L 194.700785 169.275356 
L 195.02462 168.24828 
L 195.257708 167.196888 
L 195.398275 166.129182 
L 195.445249 165.053287 
z
" clip-path="url(#p641bf02e84)" style="fill: #da7b22; stroke: #262626"/>
    <path d="M 106.501416 108.096457 
L 106.365569 108.278923 
L 106.330825 108.60266 
L 106.399998 109.041441 
L 106.567484 109.559717 
L 106.819715 110.115501 
L 107.136257 110.663767 
L 107.491465 111.160098 
L 107.856562 111.564284 
L 108.20197 111.843579 
L 108.499707 111.975358 
L 108.725651 111.948944 
L 131.59783 98.743686 
L 131.733676 98.56122 
L 131.768419 98.237483 
L 131.699245 97.798704 
L 131.531758 97.280428 
L 131.279527 96.724644 
L 130.962985 96.176378 
L 130.607778 95.680047 
L 130.242681 95.275861 
L 129.897274 94.996565 
L 129.599538 94.864785 
L 129.373595 94.891198 
z
" clip-path="url(#p641bf02e84)" style="fill: #da7b22; stroke: #262626"/>
    <path d="M 172.074349 111.948944 
L 172.300293 111.975358 
L 172.59803 111.843579 
L 172.943438 111.564284 
L 173.308535 111.160098 
L 173.663743 110.663767 
L 173.980285 110.115501 
L 174.232516 109.559717 
L 174.400002 109.041441 
L 174.469175 108.60266 
L 174.434431 108.278923 
L 174.298584 108.096457 
L 151.426405 94.891198 
L 151.200462 94.864785 
L 150.902726 94.996565 
L 150.557319 95.275861 
L 150.192222 95.680047 
L 149.837015 96.176378 
L 149.520473 96.724644 
L 149.268242 97.280428 
L 149.100755 97.798704 
L 149.031581 98.237483 
L 149.066324 98.56122 
L 149.20217 98.743686 
z
" clip-path="url(#p641bf02e84)" style="fill: #da7b22; stroke: #262626"/>
    <path d="M 152.744503 91.093425 
L 152.697528 90.017531 
L 152.556962 88.949825 
L 152.323874 87.898433 
L 152.000038 86.871357 
L 151.587919 85.876413 
L 151.090653 84.921174 
L 150.512025 84.012909 
L 149.856438 83.158532 
L 149.128882 82.364544 
L 148.334894 81.636987 
L 147.480516 80.981401 
L 146.572252 80.402772 
L 145.617012 79.905506 
L 144.622069 79.493387 
L 143.594992 79.169551 
L 142.5436 78.936463 
L 141.475894 78.795897 
L 140.4 78.748922 
L 139.324106 78.795897 
L 138.2564 78.936463 
L 137.205008 79.169551 
L 136.177931 79.493387 
L 135.182988 79.905506 
L 134.227748 80.402772 
L 133.319484 80.981401 
L 132.465106 81.636987 
L 131.671118 82.364544 
L 130.943562 83.158532 
L 130.287975 84.012909 
L 129.709347 84.921174 
L 129.212081 85.876413 
L 128.799962 86.871357 
L 128.476126 87.898433 
L 128.243038 88.949825 
L 128.102472 90.017531 
L 128.055497 91.093425 
L 128.102472 92.16932 
L 128.243038 93.237026 
L 128.476126 94.288418 
L 128.799962 95.315494 
L 129.212081 96.310438 
L 129.709347 97.265677 
L 130.287975 98.173941 
L 130.943562 99.028319 
L 131.671118 99.822307 
L 132.465106 100.549863 
L 133.319484 101.20545 
L 134.227748 101.784079 
L 135.182988 102.281345 
L 136.177931 102.693464 
L 137.205008 103.0173 
L 138.2564 103.250388 
L 139.324106 103.390954 
L 140.4 103.437928 
L 141.475894 103.390954 
L 142.5436 103.250388 
L 143.594992 103.0173 
L 144.622069 102.693464 
L 145.617012 102.281345 
L 146.572252 101.784079 
L 147.480516 101.20545 
L 148.334894 100.549863 
L 149.128882 99.822307 
L 149.856438 99.028319 
L 150.512025 98.173941 
L 151.090653 97.265677 
L 151.587919 96.310438 
L 152.000038 95.315494 
L 152.323874 94.288418 
L 152.556962 93.237026 
L 152.697528 92.16932 
L 152.744503 91.093425 
z
" clip-path="url(#p641bf02e84)" style="fill: #da7b22; stroke: #262626"/>
    <path d="M 142.624235 201.154612 
L 142.534138 200.945734 
L 142.271145 200.753778 
L 141.856564 200.594294 
L 141.323981 200.480205 
L 140.716542 200.420752 
L 140.083458 200.420752 
L 139.476019 200.480205 
L 138.943436 200.594294 
L 138.528855 200.753778 
L 138.265862 200.945734 
L 138.175765 201.154612 
L 138.175765 227.565102 
L 138.265862 227.77398 
L 138.528855 227.965935 
L 138.943436 228.125417 
L 139.476019 228.239506 
L 140.083458 228.298958 
L 140.716542 228.298958 
L 141.323981 228.239506 
L 141.856564 228.125417 
L 142.271145 227.965935 
L 142.534138 227.77398 
L 142.624235 227.565102 
z
" clip-path="url(#p641bf02e84)" style="fill: #da7b22; stroke: #262626"/>
    <path d="M 152.744503 239.013149 
L 152.697528 237.937255 
L 152.556962 236.869549 
L 152.323874 235.818157 
L 152.000038 234.79108 
L 151.587919 233.796137 
L 151.090653 232.840898 
L 150.512025 231.932633 
L 149.856438 231.078256 
L 149.128882 230.284267 
L 148.334894 229.556711 
L 147.480516 228.901124 
L 146.572252 228.322496 
L 145.617012 227.82523 
L 144.622069 227.413111 
L 143.594992 227.089275 
L 142.5436 226.856187 
L 141.475894 226.715621 
L 140.4 226.668646 
L 139.324106 226.715621 
L 138.2564 226.856187 
L 137.205008 227.089275 
L 136.177931 227.413111 
L 135.182988 227.82523 
L 134.227748 228.322496 
L 133.319484 228.901124 
L 132.465106 229.556711 
L 131.671118 230.284267 
L 130.943562 231.078256 
L 130.287975 231.932633 
L 129.709347 232.840898 
L 129.212081 233.796137 
L 128.799962 234.79108 
L 128.476126 235.818157 
L 128.243038 236.869549 
L 128.102472 237.937255 
L 128.055497 239.013149 
L 128.102472 240.089043 
L 128.243038 241.15675 
L 128.476126 242.208142 
L 128.799962 243.235218 
L 129.212081 244.230162 
L 129.709347 245.185401 
L 130.287975 246.093665 
L 130.943562 246.948043 
L 131.671118 247.742031 
L 132.465106 248.469587 
L 133.319484 249.125174 
L 134.227748 249.703802 
L 135.182988 250.201068 
L 136.177931 250.613188 
L 137.205008 250.937023 
L 138.2564 251.170111 
L 139.324106 251.310678 
L 140.4 251.357652 
L 141.475894 251.310678 
L 142.5436 251.170111 
L 143.594992 250.937023 
L 144.622069 250.613188 
L 145.617012 250.201068 
L 146.572252 249.703802 
L 147.480516 249.125174 
L 148.334894 248.469587 
L 149.128882 247.742031 
L 149.856438 246.948043 
L 150.512025 246.093665 
L 151.090653 245.185401 
L 151.587919 244.230162 
L 152.000038 243.235218 
L 152.323874 242.208142 
L 152.556962 241.15675 
L 152.697528 240.089043 
L 152.744503 239.013149 
z
" clip-path="url(#p641bf02e84)" style="fill: #da7b22; stroke: #262626"/>
    <path d="M 140.1336 228.933905 
L 140.1336 150.479245 
L 140.6664 150.479245 
L 140.6664 228.933905 
z
" clip-path="url(#p641bf02e84)" style="fill: #4c4c4c"/>
    <path d="M 63.86059 95.902339 
L 131.804318 135.129669 
L 131.537918 135.591087 
L 63.59419 96.363757 
z
" clip-path="url(#p641bf02e84)" style="fill: #4c4c4c"/>
    <path d="M 217.20581 96.363757 
L 149.262082 135.591087 
L 148.995682 135.129669 
L 216.93941 95.902339 
z
" clip-path="url(#p641bf02e84)" style="fill: #4c4c4c"/>
    <path d="M 152.744503 140.4 
L 152.697528 139.324106 
L 152.556962 138.2564 
L 152.323874 137.205008 
L 152.000038 136.177931 
L 151.587919 135.182988 
L 151.090653 134.227748 
L 150.512025 133.319484 
L 149.856438 132.465106 
L 149.128882 131.671118 
L 148.334894 130.943562 
L 147.480516 130.287975 
L 146.572252 129.709347 
L 145.617012 129.212081 
L 144.622069 128.799962 
L 143.594992 128.476126 
L 142.5436 128.243038 
L 141.475894 128.102472 
L 140.4 128.055497 
L 139.324106 128.102472 
L 138.2564 128.243038 
L 137.205008 128.476126 
L 136.177931 128.799962 
L 135.182988 129.212081 
L 134.227748 129.709347 
L 133.319484 130.287975 
L 132.465106 130.943562 
L 131.671118 131.671118 
L 130.943562 132.465106 
L 130.287975 133.319484 
L 129.709347 134.227748 
L 129.212081 135.182988 
L 128.799962 136.177931 
L 128.476126 137.205008 
L 128.243038 138.2564 
L 128.102472 139.324106 
L 128.055497 140.4 
L 128.102472 141.475894 
L 128.243038 142.5436 
L 128.476126 143.594992 
L 128.799962 144.622069 
L 129.212081 145.617012 
L 129.709347 146.572252 
L 130.287975 147.480516 
L 130.943562 148.334894 
L 131.671118 149.128882 
L 132.465106 149.856438 
L 133.319484 150.512025 
L 134.227748 151.090653 
L 135.182988 151.587919 
L 136.177931 152.000038 
L 137.205008 152.323874 
L 138.2564 152.556962 
L 139.324106 152.697528 
L 140.4 152.744503 
L 141.475894 152.697528 
L 142.5436 152.556962 
L 143.594992 152.323874 
L 144.622069 152.000038 
L 145.617012 151.587919 
L 146.572252 151.090653 
L 147.480516 150.512025 
L 148.334894 149.856438 
L 149.128882 149.128882 
L 149.856438 148.334894 
L 150.512025 147.480516 
L 151.090653 146.572252 
L 151.587919 145.617012 
L 152.000038 144.622069 
L 152.323874 143.594992 
L 152.556962 142.5436 
L 152.697528 141.475894 
L 152.744503 140.4 
z
" clip-path="url(#p641bf02e84)" style="fill: #da7b22; stroke: #262626"/>
   </g>
   <g id="line2d_1">
    <path d="M 37.836 242.964 
L 45.37093 247.314294 
" clip-path="url(#p641bf02e84)" style="fill: none; stroke: #4c4c4c; stroke-width: 1; stroke-linecap: round"/>
   </g>
   <g id="line2d_2">
    <path d="M 37.836 242.964 
L 37.836 234.263412 
" clip-path="url(#p641bf02e84)" style="fill: none; stroke: #4c4c4c; stroke-width: 1; stroke-linecap: round"/>
   </g>
   <g id="line2d_3">
    <path d="M 37.836 242.964 
L 30.30107 247.314294 
" clip-path="url(#p641bf02e84)" style="fill: none; stroke: #4c4c4c; stroke-width: 1; stroke-linecap: round"/>
   </g>
   <g id="text_1">
    <path d="M 50.166565 251.184226 
Q 49.946253 251.313913 49.555628 251.313913 
Q 49.22594 251.313913 49.030628 251.129538 
Q 48.836878 250.945163 48.836878 250.524851 
Q 48.486878 250.945163 48.021253 251.129538 
Q 47.555628 251.313913 47.016565 251.313913 
Q 46.666565 251.313913 46.35094 251.234226 
Q 46.036878 251.154538 45.805628 250.984226 
Q 45.57594 250.813913 45.440003 250.538913 
Q 45.305628 250.263913 45.305628 249.874851 
Q 45.305628 249.434226 45.455628 249.154538 
Q 45.605628 248.874851 45.85094 248.699851 
Q 46.096253 248.524851 46.410315 248.435788 
Q 46.72594 248.345163 47.055628 248.284226 
Q 47.405628 248.213913 47.721253 248.179538 
Q 48.036878 248.145163 48.27594 248.079538 
Q 48.516565 248.013913 48.655628 247.888913 
Q 48.796253 247.763913 48.796253 247.524851 
Q 48.796253 247.245163 48.691565 247.074851 
Q 48.586878 246.904538 48.421253 246.815476 
Q 48.255628 246.724851 48.05094 246.695163 
Q 47.846253 246.663913 47.646253 246.663913 
Q 47.105628 246.663913 46.746253 246.870163 
Q 46.386878 247.074851 46.355628 247.645163 
L 45.505628 247.645163 
Q 45.52594 247.163913 45.705628 246.834226 
Q 45.886878 246.504538 46.186878 246.299851 
Q 46.486878 246.095163 46.871253 246.004538 
Q 47.255628 245.913913 47.696253 245.913913 
Q 48.046253 245.913913 48.391565 245.963913 
Q 48.736878 246.013913 49.016565 246.170163 
Q 49.296253 246.324851 49.466565 246.604538 
Q 49.636878 246.884226 49.636878 247.334226 
L 49.636878 249.995163 
Q 49.636878 250.295163 49.671253 250.435788 
Q 49.705628 250.574851 49.905628 250.574851 
Q 50.016565 250.574851 50.166565 250.524851 
L 50.166565 251.184226 
z
M 48.786878 248.534226 
Q 48.62594 248.654538 48.365003 248.709226 
Q 48.105628 248.763913 47.821253 248.799851 
Q 47.536878 248.834226 47.246253 248.879538 
Q 46.955628 248.924851 46.72594 249.024851 
Q 46.496253 249.124851 46.35094 249.310788 
Q 46.205628 249.495163 46.205628 249.813913 
Q 46.205628 250.024851 46.290003 250.170163 
Q 46.37594 250.313913 46.510315 250.404538 
Q 46.646253 250.495163 46.82594 250.535788 
Q 47.005628 250.574851 47.205628 250.574851 
Q 47.62594 250.574851 47.92594 250.460788 
Q 48.22594 250.345163 48.415003 250.170163 
Q 48.605628 249.995163 48.696253 249.790476 
Q 48.786878 249.584226 48.786878 249.404538 
L 48.786878 248.534226 
z
" style="fill: #4c4c4c; stroke: #ffffff; stroke-width: 3"/>
    <path d="M 50.166565 251.184226 
Q 49.946253 251.313913 49.555628 251.313913 
Q 49.22594 251.313913 49.030628 251.129538 
Q 48.836878 250.945163 48.836878 250.524851 
Q 48.486878 250.945163 48.021253 251.129538 
Q 47.555628 251.313913 47.016565 251.313913 
Q 46.666565 251.313913 46.35094 251.234226 
Q 46.036878 251.154538 45.805628 250.984226 
Q 45.57594 250.813913 45.440003 250.538913 
Q 45.305628 250.263913 45.305628 249.874851 
Q 45.305628 249.434226 45.455628 249.154538 
Q 45.605628 248.874851 45.85094 248.699851 
Q 46.096253 248.524851 46.410315 248.435788 
Q 46.72594 248.345163 47.055628 248.284226 
Q 47.405628 248.213913 47.721253 248.179538 
Q 48.036878 248.145163 48.27594 248.079538 
Q 48.516565 248.013913 48.655628 247.888913 
Q 48.796253 247.763913 48.796253 247.524851 
Q 48.796253 247.245163 48.691565 247.074851 
Q 48.586878 246.904538 48.421253 246.815476 
Q 48.255628 246.724851 48.05094 246.695163 
Q 47.846253 246.663913 47.646253 246.663913 
Q 47.105628 246.663913 46.746253 246.870163 
Q 46.386878 247.074851 46.355628 247.645163 
L 45.505628 247.645163 
Q 45.52594 247.163913 45.705628 246.834226 
Q 45.886878 246.504538 46.186878 246.299851 
Q 46.486878 246.095163 46.871253 246.004538 
Q 47.255628 245.913913 47.696253 245.913913 
Q 48.046253 245.913913 48.391565 245.963913 
Q 48.736878 246.013913 49.016565 246.170163 
Q 49.296253 246.324851 49.466565 246.604538 
Q 49.636878 246.884226 49.636878 247.334226 
L 49.636878 249.995163 
Q 49.636878 250.295163 49.671253 250.435788 
Q 49.705628 250.574851 49.905628 250.574851 
Q 50.016565 250.574851 50.166565 250.524851 
L 50.166565 251.184226 
z
M 48.786878 248.534226 
Q 48.62594 248.654538 48.365003 248.709226 
Q 48.105628 248.763913 47.821253 248.799851 
Q 47.536878 248.834226 47.246253 248.879538 
Q 46.955628 248.924851 46.72594 249.024851 
Q 46.496253 249.124851 46.35094 249.310788 
Q 46.205628 249.495163 46.205628 249.813913 
Q 46.205628 250.024851 46.290003 250.170163 
Q 46.37594 250.313913 46.510315 250.404538 
Q 46.646253 250.495163 46.82594 250.535788 
Q 47.005628 250.574851 47.205628 250.574851 
Q 47.62594 250.574851 47.92594 250.460788 
Q 48.22594 250.345163 48.415003 250.170163 
Q 48.605628 249.995163 48.696253 249.790476 
Q 48.786878 249.584226 48.786878 249.404538 
L 48.786878 248.534226 
z
" style="fill: #4c4c4c"/>
   </g>
   <g id="text_2">
    <path d="M 35.541469 227.097767 
L 35.541469 234.238392 
L 36.391469 234.238392 
L 36.391469 233.547767 
L 36.411781 233.547767 
Q 36.550844 233.779017 36.755531 233.933705 
Q 36.961781 234.088392 37.191469 234.179017 
Q 37.421156 234.26808 37.655531 234.307142 
Q 37.891469 234.347767 38.080531 234.347767 
Q 38.671156 234.347767 39.116469 234.138392 
Q 39.561781 233.929017 39.855531 233.563392 
Q 40.150844 233.197767 40.296156 232.708705 
Q 40.441469 232.21808 40.441469 231.66808 
Q 40.441469 231.11808 40.291469 230.629017 
Q 40.141469 230.138392 39.846156 229.763392 
Q 39.550844 229.388392 39.105531 229.16808 
Q 38.661781 228.947767 38.061781 228.947767 
Q 37.521156 228.947767 37.071156 229.14308 
Q 36.621156 229.338392 36.411781 229.76808 
L 36.391469 229.76808 
L 36.391469 227.097767 
L 35.541469 227.097767 
z
M 39.541469 231.608705 
Q 39.541469 231.988392 39.460219 232.34933 
Q 39.380531 232.708705 39.200844 232.988392 
Q 39.021156 233.26808 38.725844 233.438392 
Q 38.430531 233.608705 37.991469 233.608705 
Q 37.550844 233.608705 37.239906 233.444642 
Q 36.930531 233.279017 36.735219 233.008705 
Q 36.541469 232.738392 36.450844 232.383705 
Q 36.361781 232.029017 36.361781 231.647767 
Q 36.361781 231.288392 36.446156 230.938392 
Q 36.530531 230.588392 36.721156 230.313392 
Q 36.911781 230.038392 37.211781 229.86808 
Q 37.511781 229.697767 37.941469 229.697767 
Q 38.350844 229.697767 38.655531 229.858705 
Q 38.961781 230.01808 39.155531 230.288392 
Q 39.350844 230.558705 39.446156 230.904017 
Q 39.541469 231.247767 39.541469 231.608705 
z
" style="fill: #4c4c4c; stroke: #ffffff; stroke-width: 3"/>
    <path d="M 35.541469 227.097767 
L 35.541469 234.238392 
L 36.391469 234.238392 
L 36.391469 233.547767 
L 36.411781 233.547767 
Q 36.550844 233.779017 36.755531 233.933705 
Q 36.961781 234.088392 37.191469 234.179017 
Q 37.421156 234.26808 37.655531 234.307142 
Q 37.891469 234.347767 38.080531 234.347767 
Q 38.671156 234.347767 39.116469 234.138392 
Q 39.561781 233.929017 39.855531 233.563392 
Q 40.150844 233.197767 40.296156 232.708705 
Q 40.441469 232.21808 40.441469 231.66808 
Q 40.441469 231.11808 40.291469 230.629017 
Q 40.141469 230.138392 39.846156 229.763392 
Q 39.550844 229.388392 39.105531 229.16808 
Q 38.661781 228.947767 38.061781 228.947767 
Q 37.521156 228.947767 37.071156 229.14308 
Q 36.621156 229.338392 36.411781 229.76808 
L 36.391469 229.76808 
L 36.391469 227.097767 
L 35.541469 227.097767 
z
M 39.541469 231.608705 
Q 39.541469 231.988392 39.460219 232.34933 
Q 39.380531 232.708705 39.200844 232.988392 
Q 39.021156 233.26808 38.725844 233.438392 
Q 38.430531 233.608705 37.991469 233.608705 
Q 37.550844 233.608705 37.239906 233.444642 
Q 36.930531 233.279017 36.735219 233.008705 
Q 36.541469 232.738392 36.450844 232.383705 
Q 36.361781 232.029017 36.361781 231.647767 
Q 36.361781 231.288392 36.446156 230.938392 
Q 36.530531 230.588392 36.721156 230.313392 
Q 36.911781 230.038392 37.211781 229.86808 
Q 37.511781 229.697767 37.941469 229.697767 
Q 38.350844 229.697767 38.655531 229.858705 
Q 38.961781 230.01808 39.155531 230.288392 
Q 39.350844 230.558705 39.446156 230.904017 
Q 39.541469 231.247767 39.541469 231.608705 
z
" style="fill: #4c4c4c"/>
   </g>
   <g id="text_3">
    <path d="M 29.505435 247.695163 
L 30.385122 247.695163 
Q 30.335122 247.234226 30.144497 246.899851 
Q 29.955435 246.563913 29.660122 246.345163 
Q 29.36481 246.124851 28.980435 246.020163 
Q 28.59606 245.913913 28.155435 245.913913 
Q 27.54606 245.913913 27.085122 246.129538 
Q 26.625747 246.345163 26.319497 246.720163 
Q 26.01481 247.095163 25.86481 247.599851 
Q 25.71481 248.104538 25.71481 248.684226 
Q 25.71481 249.263913 25.869497 249.749851 
Q 26.025747 250.234226 26.330435 250.584226 
Q 26.635122 250.934226 27.08981 251.124851 
Q 27.54606 251.313913 28.135122 251.313913 
Q 29.125747 251.313913 29.700747 250.795163 
Q 30.275747 250.274851 30.41481 249.313913 
L 29.54606 249.313913 
Q 29.46481 249.913913 29.110122 250.245163 
Q 28.755435 250.574851 28.125747 250.574851 
Q 27.725747 250.574851 27.435122 250.415476 
Q 27.14606 250.254538 26.96481 249.990476 
Q 26.785122 249.724851 26.699185 249.385788 
Q 26.61481 249.045163 26.61481 248.684226 
Q 26.61481 248.295163 26.694497 247.929538 
Q 26.775747 247.563913 26.960122 247.284226 
Q 27.14606 247.004538 27.455435 246.834226 
Q 27.76481 246.663913 28.225747 246.663913 
Q 28.76481 246.663913 29.085122 246.934226 
Q 29.405435 247.204538 29.505435 247.695163 
z
" style="fill: #4c4c4c; stroke: #ffffff; stroke-width: 3"/>
    <path d="M 29.505435 247.695163 
L 30.385122 247.695163 
Q 30.335122 247.234226 30.144497 246.899851 
Q 29.955435 246.563913 29.660122 246.345163 
Q 29.36481 246.124851 28.980435 246.020163 
Q 28.59606 245.913913 28.155435 245.913913 
Q 27.54606 245.913913 27.085122 246.129538 
Q 26.625747 246.345163 26.319497 246.720163 
Q 26.01481 247.095163 25.86481 247.599851 
Q 25.71481 248.104538 25.71481 248.684226 
Q 25.71481 249.263913 25.869497 249.749851 
Q 26.025747 250.234226 26.330435 250.584226 
Q 26.635122 250.934226 27.08981 251.124851 
Q 27.54606 251.313913 28.135122 251.313913 
Q 29.125747 251.313913 29.700747 250.795163 
Q 30.275747 250.274851 30.41481 249.313913 
L 29.54606 249.313913 
Q 29.46481 249.913913 29.110122 250.245163 
Q 28.755435 250.574851 28.125747 250.574851 
Q 27.725747 250.574851 27.435122 250.415476 
Q 27.14606 250.254538 26.96481 249.990476 
Q 26.785122 249.724851 26.699185 249.385788 
Q 26.61481 249.045163 26.61481 248.684226 
Q 26.61481 248.295163 26.694497 247.929538 
Q 26.775747 247.563913 26.960122 247.284226 
Q 27.14606 247.004538 27.455435 246.834226 
Q 27.76481 246.663913 28.225747 246.663913 
Q 28.76481 246.663913 29.085122 246.934226 
Q 29.405435 247.204538 29.505435 247.695163 
z
" style="fill: #4c4c4c"/>
   </g>
  </g>
 </g>
 <defs>
  <clipPath id="p641bf02e84">
   <rect x="7.2" y="7.2" width="266.4" height="266.4"/>
  </clipPath>
 </defs>
</svg>
