<?xml version="1.0" encoding="utf-8" standalone="no"?>
<!DOCTYPE svg PUBLIC "-//W3C//DTD SVG 1.1//EN"
  "http://www.w3.org/Graphics/SVG/1.1/DTD/svg11.dtd">
<svg xmlns:xlink="http://www.w3.org/1999/xlink" width="280.8pt" height="280.8pt" viewBox="0 0 280.8 280.8" xmlns="http://www.w3.org/2000/svg" version="1.1">
 <metadata>
  <rdf:RDF xmlns:dc="http://purl.org/dc/elements/1.1/" xmlns:cc="http://creativecommons.org/ns#" xmlns:rdf="http://www.w3.org/1999/02/22-rdf-syntax-ns#">
   <cc:Work>
    <dc:type rdf:resource="http://purl.org/dc/dcmitype/StillImage"/>
    <dc:date>2026-02-16T09:15:37.099535</dc:date>
    <dc:format>image/svg+xml</dc:format>
    <dc:creator>
     <cc:Agent>
      <dc:title>Matplotlib v3.10.7, https://matplotlib.org/</dc:title>
     </cc:Agent>
    </dc:creator>
   </cc:Work>
  </rdf:RDF>
 </metadata>
 <defs>
  <style type="text/css">*{stroke-linejoin: round; stroke-linecap: butt}</style>
 </defs>
 <g id="figure_1">
  <g id="patch_1">
   <path d="M 0 280.8 
L 280.8 280.8 
L 280.8 0 
L 0 0 
z
" style="fill: #ffffff"/>
  </g>
  <g id="axes_1">
   <g id="PolyCollection_1">
    <path d="M 195.445249 165.053287 
L 195.02462 161.858295 
L 193.791399 158.881036 
L 191.829628 156.324405 
L 189.272998 154.362634 
L 186.295739 153.129413 
L 183.100746 152.708784 
L 179.905754 153.129413 
L 176.928495 154.362634 
L 174.371864 156.324405 
L 172.410093 158.881036 
L 171.176872 161.858295 
L 170.756243 165.053287 
L 171.176872 168.24828 
L 172.410093 171.225539 
L 174.371864 173.782169 
L 176.928495 175.743941 
L 179.905754 176.977162 
L 183.100746 177.39779 
L 186.295739 176.977162 
L 189.272998 175.743941 
L 191.829628 173.782169 
L 193.791399 171.225539 
L 195.02462 168.24828 
L 195.445249 165.053287 
z
" clip-path="url(#p8be26ae5e8)" style="fill: #da7b22; stroke: #262626; stroke-width: 1.5"/>
    <path d="M 152.744503 91.093425 
L 152.323874 87.898433 
L 151.090653 84.921174 
L 149.128882 82.364544 
L 146.572252 80.402772 
L 143.594992 79.169551 
L 140.4 78.748922 
L 137.205008 79.169551 
L 134.227748 80.402772 
L 131.671118 82.364544 
L 129.709347 84.921174 
L 128.476126 87.898433 
L 128.055497 91.093425 
L 128.476126 94.288418 
L 129.709347 97.265677 
L 131.671118 99.822307 
L 134.227748 101.784079 
L 137.205008 103.0173 
L 140.4 103.437928 
L 143.594992 103.0173 
L 146.572252 101.784079 
L 149.128882 99.822307 
L 151.090653 97.265677 
L 152.323874 94.288418 
L 152.744503 91.093425 
z
" clip-path="url(#p8be26ae5e8)" style="fill: #da7b22; stroke: #262626; stroke-width: 1.5"/>
    <path d="M 110.043757 165.053287 
L 109.623128 161.858295 
L 108.389907 158.881036 
L 106.428136 156.324405 
L 103.871505 154.362634 
L 100.894246 153.129413 
L 97.699254 152.708784 
L 94.504261 153.129413 
L 91.527002 154.362634 
L 88.970372 156.324405 
L 87.008601 158.881036 
L 85.77538 161.858295 
L 85.354751 165.053287 
L 85.77538 168.24828 
L 87.008601 171.225539 
L 88.970372 173.782169 
L 91.527002 175.743941 
L 94.504261 176.977162 
L 97.699254 177.39779 
L 100.894246 176.977162 
L 103.871505 175.743941 
L 106.428136 173.782169 
L 108.389907 171.225539 
L 109.623128 168.24828 
L 110.043757 165.053287 
z
" clip-path="url(#p8be26ae5e8)" style="fill: #da7b22; stroke: #262626; stroke-width: 1.5"/>
    <path d="M 131.597834 148.050258 
L 131.726122 147.223946 
L 131.127797 145.753309 
L 130.15335 144.499826 
L 129.373599 144.197771 
L 106.501412 157.403034 
L 106.373121 158.229348 
L 106.971445 159.699985 
L 107.945893 160.953468 
L 108.725647 161.255521 
z
" clip-path="url(#p8be26ae5e8)" style="fill: #da7b22; stroke: #262626"/>
    <path d="M 138.175765 128.951971 
L 138.827229 129.476228 
L 140.4 129.693383 
L 141.972771 129.476228 
L 142.624235 128.951971 
L 142.624235 102.541445 
L 141.972771 102.017185 
L 140.4 101.800029 
L 138.827229 102.017185 
L 138.175765 102.541445 
z
" clip-path="url(#p8be26ae5e8)" style="fill: #da7b22; stroke: #262626"/>
    <path d="M 151.426401 144.197771 
L 150.64665 144.499826 
L 149.672203 145.753309 
L 149.073878 147.223946 
L 149.202166 148.050258 
L 172.074353 161.255521 
L 172.854107 160.953468 
L 173.828555 159.699985 
L 174.426879 158.229348 
L 174.298588 157.403034 
z
" clip-path="url(#p8be26ae5e8)" style="fill: #da7b22; stroke: #262626"/>
    <path d="M 152.744503 140.4 
L 152.323874 137.205008 
L 151.090653 134.227748 
L 149.128882 131.671118 
L 146.572252 129.709347 
L 143.594992 128.476126 
L 140.4 128.055497 
L 137.205008 128.476126 
L 134.227748 129.709347 
L 131.671118 131.671118 
L 129.709347 134.227748 
L 128.476126 137.205008 
L 128.055497 140.4 
L 128.476126 143.594992 
L 129.709347 146.572252 
L 131.671118 149.128882 
L 134.227748 151.090653 
L 137.205008 152.323874 
L 140.4 152.744503 
L 143.594992 152.323874 
L 146.572252 151.090653 
L 149.128882 149.128882 
L 151.090653 146.572252 
L 152.323874 143.594992 
L 152.744503 140.4 
z
" clip-path="url(#p8be26ae5e8)" style="fill: #da7b22; stroke: #262626; stroke-width: 1.5"/>
    <path d="M 195.445249 214.359862 
L 195.02462 211.164869 
L 193.791399 208.18761 
L 191.829628 205.63098 
L 189.272998 203.669209 
L 186.295739 202.435988 
L 183.100746 202.015359 
L 179.905754 202.435988 
L 176.928495 203.669209 
L 174.371864 205.63098 
L 172.410093 208.18761 
L 171.176872 211.164869 
L 170.756243 214.359862 
L 171.176872 217.554854 
L 172.410093 220.532113 
L 174.371864 223.088744 
L 176.928495 225.050515 
L 179.905754 226.283736 
L 183.100746 226.704365 
L 186.295739 226.283736 
L 189.272998 225.050515 
L 191.829628 223.088744 
L 193.791399 220.532113 
L 195.02462 217.554854 
L 195.445249 214.359862 
z
" clip-path="url(#p8be26ae5e8)" style="fill: #da7b22; stroke: #262626; stroke-width: 1.5"/>
    <path d="M 110.043757 214.359862 
L 109.623128 211.164869 
L 108.389907 208.18761 
L 106.428136 205.63098 
L 103.871505 203.669209 
L 100.894246 202.435988 
L 97.699254 202.015359 
L 94.504261 202.435988 
L 91.527002 203.669209 
L 88.970372 205.63098 
L 87.008601 208.18761 
L 85.77538 211.164869 
L 85.354751 214.359862 
L 85.77538 217.554854 
L 87.008601 220.532113 
L 88.970372 223.088744 
L 91.527002 225.050515 
L 94.504261 226.283736 
L 97.699254 226.704365 
L 100.894246 226.283736 
L 103.871505 225.050515 
L 106.428136 223.088744 
L 108.389907 220.532113 
L 109.623128 217.554854 
L 110.043757 214.359862 
z
" clip-path="url(#p8be26ae5e8)" style="fill: #da7b22; stroke: #262626; stroke-width: 1.5"/>
    <path d="M 238.145995 140.4 
L 237.725367 137.205008 
L 236.492146 134.227748 
L 234.530374 131.671118 
L 231.973744 129.709347 
L 228.996485 128.476126 
L 225.801492 128.055497 
L 222.6065 128.476126 
L 219.629241 129.709347 
L 217.07261 131.671118 
L 215.110839 134.227748 
L 213.877618 137.205008 
L 213.456989 140.4 
L 213.877618 143.594992 
L 215.110839 146.572252 
L 217.07261 149.128882 
L 219.629241 151.090653 
L 222.6065 152.323874 
L 225.801492 152.744503 
L 228.996485 152.323874 
L 231.973744 151.090653 
L 234.530374 149.128882 
L 236.492146 146.572252 
L 237.725367 143.594992 
L 238.145995 140.4 
z
" clip-path="url(#p8be26ae5e8)" style="fill: #da7b22; stroke: #262626; stroke-width: 1.5"/>
    <path d="M 152.744503 140.4 
L 152.323874 137.205008 
L 151.090653 134.227748 
L 149.128882 131.671118 
L 146.572252 129.709347 
L 143.594992 128.476126 
L 140.4 128.055497 
L 137.205008 128.476126 
L 134.227748 129.709347 
L 131.671118 131.671118 
L 129.709347 134.227748 
L 128.476126 137.205008 
L 128.055497 140.4 
L 128.476126 143.594992 
L 129.709347 146.572252 
L 131.671118 149.128882 
L 134.227748 151.090653 
L 137.205008 152.323874 
L 140.4 152.744503 
L 143.594992 152.323874 
L 146.572252 151.090653 
L 149.128882 149.128882 
L 151.090653 146.572252 
L 152.323874 143.594992 
L 152.744503 140.4 
z
" clip-path="url(#p8be26ae5e8)" style="fill: #da7b22; stroke: #262626; stroke-width: 1.5"/>
    <path d="M 67.343011 140.4 
L 66.922382 137.205008 
L 65.689161 134.227748 
L 63.72739 131.671118 
L 61.170759 129.709347 
L 58.1935 128.476126 
L 54.998508 128.055497 
L 51.803515 128.476126 
L 48.826256 129.709347 
L 46.269626 131.671118 
L 44.307854 134.227748 
L 43.074633 137.205008 
L 42.654005 140.4 
L 43.074633 143.594992 
L 44.307854 146.572252 
L 46.269626 149.128882 
L 48.826256 151.090653 
L 51.803515 152.323874 
L 54.998508 152.744503 
L 58.1935 152.323874 
L 61.170759 151.090653 
L 63.72739 149.128882 
L 65.689161 146.572252 
L 66.922382 143.594992 
L 67.343011 140.4 
z
" clip-path="url(#p8be26ae5e8)" style="fill: #da7b22; stroke: #262626; stroke-width: 1.5"/>
    <path d="M 195.445249 66.440138 
L 195.02462 63.245146 
L 193.791399 60.267887 
L 191.829628 57.711256 
L 189.272998 55.749485 
L 186.295739 54.516264 
L 183.100746 54.095635 
L 179.905754 54.516264 
L 176.928495 55.749485 
L 174.371864 57.711256 
L 172.410093 60.267887 
L 171.176872 63.245146 
L 170.756243 66.440138 
L 171.176872 69.635131 
L 172.410093 72.61239 
L 174.371864 75.16902 
L 176.928495 77.130791 
L 179.905754 78.364012 
L 183.100746 78.784641 
L 186.295739 78.364012 
L 189.272998 77.130791 
L 191.829628 75.16902 
L 193.791399 72.61239 
L 195.02462 69.635131 
L 195.445249 66.440138 
z
" clip-path="url(#p8be26ae5e8)" style="fill: #da7b22; stroke: #262626; stroke-width: 1.5"/>
    <path d="M 110.043757 66.440138 
L 109.623128 63.245146 
L 108.389907 60.267887 
L 106.428136 57.711256 
L 103.871505 55.749485 
L 100.894246 54.516264 
L 97.699254 54.095635 
L 94.504261 54.516264 
L 91.527002 55.749485 
L 88.970372 57.711256 
L 87.008601 60.267887 
L 85.77538 63.245146 
L 85.354751 66.440138 
L 85.77538 69.635131 
L 87.008601 72.61239 
L 88.970372 75.16902 
L 91.527002 77.130791 
L 94.504261 78.364012 
L 97.699254 78.784641 
L 100.894246 78.364012 
L 103.871505 77.130791 
L 106.428136 75.16902 
L 108.389907 72.61239 
L 109.623128 69.635131 
L 110.043757 66.440138 
z
" clip-path="url(#p8be26ae5e8)" style="fill: #da7b22; stroke: #262626; stroke-width: 1.5"/>
    <path d="M 108.725663 119.544488 
L 107.945914 119.846545 
L 106.971468 121.100028 
L 106.373142 122.570665 
L 106.501428 123.396975 
L 129.373599 136.602229 
L 130.15335 136.300174 
L 131.127797 135.046691 
L 131.726122 133.576054 
L 131.597834 132.749742 
z
" clip-path="url(#p8be26ae5e8)" style="fill: #da7b22; stroke: #262626"/>
    <path d="M 88.897091 123.396969 
L 89.025381 122.570656 
L 88.427057 121.100018 
L 87.45261 119.846535 
L 86.672857 119.544481 
L 63.800662 132.749748 
L 63.67237 133.576063 
L 64.270693 135.046702 
L 65.245141 136.300183 
L 66.024897 136.602236 
z
" clip-path="url(#p8be26ae5e8)" style="fill: #da7b22; stroke: #262626"/>
    <path d="M 95.475019 104.298688 
L 96.126482 104.822947 
L 97.699254 105.040102 
L 99.272025 104.822947 
L 99.923489 104.298688 
L 99.923489 77.888154 
L 99.272025 77.363891 
L 97.699254 77.146735 
L 96.126482 77.363891 
L 95.475019 77.888154 
z
" clip-path="url(#p8be26ae5e8)" style="fill: #da7b22; stroke: #262626"/>
    <path d="M 110.043757 115.746713 
L 109.623128 112.55172 
L 108.389907 109.574461 
L 106.428136 107.017831 
L 103.871505 105.056059 
L 100.894246 103.822838 
L 97.699254 103.40221 
L 94.504261 103.822838 
L 91.527002 105.056059 
L 88.970372 107.017831 
L 87.008601 109.574461 
L 85.77538 112.55172 
L 85.354751 115.746713 
L 85.77538 118.941705 
L 87.008601 121.918964 
L 88.970372 124.475595 
L 91.527002 126.437366 
L 94.504261 127.670587 
L 97.699254 128.091216 
L 100.894246 127.670587 
L 103.871505 126.437366 
L 106.428136 124.475595 
L 108.389907 121.918964 
L 109.623128 118.941705 
L 110.043757 115.746713 
z
" clip-path="url(#p8be26ae5e8)" style="fill: #da7b22; stroke: #262626; stroke-width: 1.5"/>
    <path d="M 138.175765 178.258537 
L 138.827229 178.782791 
L 140.4 178.999944 
L 141.972771 178.782791 
L 142.624235 178.258537 
L 142.624235 151.848029 
L 141.972771 151.323772 
L 140.4 151.106617 
L 138.827229 151.323772 
L 138.175765 151.848029 
z
" clip-path="url(#p8be26ae5e8)" style="fill: #da7b22; stroke: #262626"/>
    <path d="M 131.597837 197.356831 
L 131.726127 196.530517 
L 131.127803 195.05988 
L 130.153356 193.806397 
L 129.373603 193.504343 
L 106.501409 206.70961 
L 106.373116 207.535925 
L 106.971439 209.006563 
L 107.945887 210.260045 
L 108.725643 210.562098 
z
" clip-path="url(#p8be26ae5e8)" style="fill: #da7b22; stroke: #262626"/>
    <path d="M 151.426397 193.504343 
L 150.646644 193.806397 
L 149.672197 195.05988 
L 149.073873 196.530517 
L 149.202163 197.356831 
L 172.074357 210.562098 
L 172.854113 210.260045 
L 173.828561 209.006563 
L 174.426884 207.535925 
L 174.298591 206.70961 
z
" clip-path="url(#p8be26ae5e8)" style="fill: #da7b22; stroke: #262626"/>
    <path d="M 152.744503 189.706575 
L 152.323874 186.511582 
L 151.090653 183.534323 
L 149.128882 180.977693 
L 146.572252 179.015921 
L 143.594992 177.7827 
L 140.4 177.362072 
L 137.205008 177.7827 
L 134.227748 179.015921 
L 131.671118 180.977693 
L 129.709347 183.534323 
L 128.476126 186.511582 
L 128.055497 189.706575 
L 128.476126 192.901567 
L 129.709347 195.878826 
L 131.671118 198.435456 
L 134.227748 200.397228 
L 137.205008 201.630449 
L 140.4 202.051078 
L 143.594992 201.630449 
L 146.572252 200.397228 
L 149.128882 198.435456 
L 151.090653 195.878826 
L 152.323874 192.901567 
L 152.744503 189.706575 
z
" clip-path="url(#p8be26ae5e8)" style="fill: #da7b22; stroke: #262626; stroke-width: 1.5"/>
    <path d="M 174.298572 123.396975 
L 174.426858 122.570665 
L 173.828532 121.100028 
L 172.854086 119.846545 
L 172.074337 119.544488 
L 149.202166 132.749742 
L 149.073878 133.576054 
L 149.672203 135.046691 
L 150.64665 136.300174 
L 151.426401 136.602229 
z
" clip-path="url(#p8be26ae5e8)" style="fill: #da7b22; stroke: #262626"/>
    <path d="M 194.127143 119.544481 
L 193.34739 119.846535 
L 192.372943 121.100018 
L 191.774619 122.570656 
L 191.902909 123.396969 
L 214.775103 136.602236 
L 215.554859 136.300183 
L 216.529307 135.046702 
L 217.12763 133.576063 
L 216.999338 132.749748 
z
" clip-path="url(#p8be26ae5e8)" style="fill: #da7b22; stroke: #262626"/>
    <path d="M 180.876511 104.298688 
L 181.527975 104.822947 
L 183.100746 105.040102 
L 184.673518 104.822947 
L 185.324981 104.298688 
L 185.324981 77.888154 
L 184.673518 77.363891 
L 183.100746 77.146735 
L 181.527975 77.363891 
L 180.876511 77.888154 
z
" clip-path="url(#p8be26ae5e8)" style="fill: #da7b22; stroke: #262626"/>
    <path d="M 195.445249 115.746713 
L 195.02462 112.55172 
L 193.791399 109.574461 
L 191.829628 107.017831 
L 189.272998 105.056059 
L 186.295739 103.822838 
L 183.100746 103.40221 
L 179.905754 103.822838 
L 176.928495 105.056059 
L 174.371864 107.017831 
L 172.410093 109.574461 
L 171.176872 112.55172 
L 170.756243 115.746713 
L 171.176872 118.941705 
L 172.410093 121.918964 
L 174.371864 124.475595 
L 176.928495 126.437366 
L 179.905754 127.670587 
L 183.100746 128.091216 
L 186.295739 127.670587 
L 189.272998 126.437366 
L 191.829628 124.475595 
L 193.791399 121.918964 
L 195.02462 118.941705 
L 195.445249 115.746713 
z
" clip-path="url(#p8be26ae5e8)" style="fill: #da7b22; stroke: #262626; stroke-width: 1.5"/>
    <path d="M 151.426409 45.584626 
L 150.64666 45.886683 
L 149.672214 47.140166 
L 149.073889 48.610803 
L 149.202174 49.437114 
L 172.074345 62.642368 
L 172.854097 62.340312 
L 173.828544 61.08683 
L 174.426868 59.616192 
L 174.29858 58.78988 
z
" clip-path="url(#p8be26ae5e8)" style="fill: #da7b22; stroke: #262626"/>
    <path d="M 131.597826 49.437114 
L 131.726111 48.610803 
L 131.127786 47.140166 
L 130.15334 45.886683 
L 129.373591 45.584626 
L 106.50142 58.78988 
L 106.373132 59.616192 
L 106.971456 61.08683 
L 107.945903 62.340312 
L 108.725655 62.642368 
z
" clip-path="url(#p8be26ae5e8)" style="fill: #da7b22; stroke: #262626"/>
    <path d="M 152.744503 41.786851 
L 152.323874 38.591858 
L 151.090653 35.614599 
L 149.128882 33.057969 
L 146.572252 31.096198 
L 143.594992 29.862977 
L 140.4 29.442348 
L 137.205008 29.862977 
L 134.227748 31.096198 
L 131.671118 33.057969 
L 129.709347 35.614599 
L 128.476126 38.591858 
L 128.055497 41.786851 
L 128.476126 44.981843 
L 129.709347 47.959102 
L 131.671118 50.515733 
L 134.227748 52.477504 
L 137.205008 53.710725 
L 140.4 54.131354 
L 143.594992 53.710725 
L 146.572252 52.477504 
L 149.128882 50.515733 
L 151.090653 47.959102 
L 152.323874 44.981843 
L 152.744503 41.786851 
z
" clip-path="url(#p8be26ae5e8)" style="fill: #da7b22; stroke: #262626; stroke-width: 1.5"/>
    <path d="M 66.024917 193.50435 
L 65.245168 193.806406 
L 64.270722 195.05989 
L 63.672396 196.530527 
L 63.800682 197.356837 
L 86.672853 210.562091 
L 87.452604 210.260036 
L 88.427051 209.006553 
L 89.025376 207.535916 
L 88.897087 206.709604 
z
" clip-path="url(#p8be26ae5e8)" style="fill: #da7b22; stroke: #262626"/>
    <path d="M 52.774273 178.258537 
L 53.425736 178.782791 
L 54.998508 178.999944 
L 56.571279 178.782791 
L 57.222742 178.258537 
L 57.222742 151.848029 
L 56.571279 151.323772 
L 54.998508 151.106617 
L 53.425736 151.323772 
L 52.774273 151.848029 
z
" clip-path="url(#p8be26ae5e8)" style="fill: #da7b22; stroke: #262626"/>
    <path d="M 67.343011 189.706575 
L 66.922382 186.511582 
L 65.689161 183.534323 
L 63.72739 180.977693 
L 61.170759 179.015921 
L 58.1935 177.7827 
L 54.998508 177.362072 
L 51.803515 177.7827 
L 48.826256 179.015921 
L 46.269626 180.977693 
L 44.307854 183.534323 
L 43.074633 186.511582 
L 42.654005 189.706575 
L 43.074633 192.901567 
L 44.307854 195.878826 
L 46.269626 198.435456 
L 48.826256 200.397228 
L 51.803515 201.630449 
L 54.998508 202.051078 
L 58.1935 201.630449 
L 61.170759 200.397228 
L 63.72739 198.435456 
L 65.689161 195.878826 
L 66.922382 192.901567 
L 67.343011 189.706575 
z
" clip-path="url(#p8be26ae5e8)" style="fill: #da7b22; stroke: #262626; stroke-width: 1.5"/>
    <path d="M 223.577258 178.258537 
L 224.228721 178.782791 
L 225.801492 178.999944 
L 227.374264 178.782791 
L 228.025727 178.258537 
L 228.025727 151.848029 
L 227.374264 151.323772 
L 225.801492 151.106617 
L 224.228721 151.323772 
L 223.577258 151.848029 
z
" clip-path="url(#p8be26ae5e8)" style="fill: #da7b22; stroke: #262626"/>
    <path d="M 216.999318 197.356837 
L 217.127604 196.530527 
L 216.529278 195.05989 
L 215.554832 193.806406 
L 214.775083 193.50435 
L 191.902913 206.709604 
L 191.774624 207.535916 
L 192.372949 209.006553 
L 193.347396 210.260036 
L 194.127147 210.562091 
z
" clip-path="url(#p8be26ae5e8)" style="fill: #da7b22; stroke: #262626"/>
    <path d="M 238.145995 189.706575 
L 237.725367 186.511582 
L 236.492146 183.534323 
L 234.530374 180.977693 
L 231.973744 179.015921 
L 228.996485 177.7827 
L 225.801492 177.362072 
L 222.6065 177.7827 
L 219.629241 179.015921 
L 217.07261 180.977693 
L 215.110839 183.534323 
L 213.877618 186.511582 
L 213.456989 189.706575 
L 213.877618 192.901567 
L 215.110839 195.878826 
L 217.07261 198.435456 
L 219.629241 200.397228 
L 222.6065 201.630449 
L 225.801492 202.051078 
L 228.996485 201.630449 
L 231.973744 200.397228 
L 234.530374 198.435456 
L 236.492146 195.878826 
L 237.725367 192.901567 
L 238.145995 189.706575 
z
" clip-path="url(#p8be26ae5e8)" style="fill: #da7b22; stroke: #262626; stroke-width: 1.5"/>
    <path d="M 152.744503 189.706575 
L 152.323874 186.511582 
L 151.090653 183.534323 
L 149.128882 180.977693 
L 146.572252 179.015921 
L 143.594992 177.7827 
L 140.4 177.362072 
L 137.205008 177.7827 
L 134.227748 179.015921 
L 131.671118 180.977693 
L 129.709347 183.534323 
L 128.476126 186.511582 
L 128.055497 189.706575 
L 128.476126 192.901567 
L 129.709347 195.878826 
L 131.671118 198.435456 
L 134.227748 200.397228 
L 137.205008 201.630449 
L 140.4 202.051078 
L 143.594992 201.630449 
L 146.572252 200.397228 
L 149.128882 198.435456 
L 151.090653 195.878826 
L 152.323874 192.901567 
L 152.744503 189.706575 
z
" clip-path="url(#p8be26ae5e8)" style="fill: #da7b22; stroke: #262626; stroke-width: 1.5"/>
    <path d="M 110.043757 115.746713 
L 109.623128 112.55172 
L 108.389907 109.574461 
L 106.428136 107.017831 
L 103.871505 105.056059 
L 100.894246 103.822838 
L 97.699254 103.40221 
L 94.504261 103.822838 
L 91.527002 105.056059 
L 88.970372 107.017831 
L 87.008601 109.574461 
L 85.77538 112.55172 
L 85.354751 115.746713 
L 85.77538 118.941705 
L 87.008601 121.918964 
L 88.970372 124.475595 
L 91.527002 126.437366 
L 94.504261 127.670587 
L 97.699254 128.091216 
L 100.894246 127.670587 
L 103.871505 126.437366 
L 106.428136 124.475595 
L 108.389907 121.918964 
L 109.623128 118.941705 
L 110.043757 115.746713 
z
" clip-path="url(#p8be26ae5e8)" style="fill: #da7b22; stroke: #262626; stroke-width: 1.5"/>
    <path d="M 195.445249 115.746713 
L 195.02462 112.55172 
L 193.791399 109.574461 
L 191.829628 107.017831 
L 189.272998 105.056059 
L 186.295739 103.822838 
L 183.100746 103.40221 
L 179.905754 103.822838 
L 176.928495 105.056059 
L 174.371864 107.017831 
L 172.410093 109.574461 
L 171.176872 112.55172 
L 170.756243 115.746713 
L 171.176872 118.941705 
L 172.410093 121.918964 
L 174.371864 124.475595 
L 176.928495 126.437366 
L 179.905754 127.670587 
L 183.100746 128.091216 
L 186.295739 127.670587 
L 189.272998 126.437366 
L 191.829628 124.475595 
L 193.791399 121.918964 
L 195.02462 118.941705 
L 195.445249 115.746713 
z
" clip-path="url(#p8be26ae5e8)" style="fill: #da7b22; stroke: #262626; stroke-width: 1.5"/>
    <path d="M 86.672845 111.948938 
L 87.452594 111.646881 
L 88.42704 110.393397 
L 89.025365 108.922761 
L 88.89708 108.09645 
L 66.024924 94.891205 
L 65.245178 95.193263 
L 64.270734 96.446748 
L 63.672407 97.917384 
L 63.80069 98.743693 
z
" clip-path="url(#p8be26ae5e8)" style="fill: #da7b22; stroke: #262626"/>
    <path d="M 67.343011 91.093425 
L 66.922382 87.898433 
L 65.689161 84.921174 
L 63.72739 82.364544 
L 61.170759 80.402772 
L 58.1935 79.169551 
L 54.998508 78.748922 
L 51.803515 79.169551 
L 48.826256 80.402772 
L 46.269626 82.364544 
L 44.307854 84.921174 
L 43.074633 87.898433 
L 42.654005 91.093425 
L 43.074633 94.288418 
L 44.307854 97.265677 
L 46.269626 99.822307 
L 48.826256 101.784079 
L 51.803515 103.0173 
L 54.998508 103.437928 
L 58.1935 103.0173 
L 61.170759 101.784079 
L 63.72739 99.822307 
L 65.689161 97.265677 
L 66.922382 94.288418 
L 67.343011 91.093425 
z
" clip-path="url(#p8be26ae5e8)" style="fill: #da7b22; stroke: #262626; stroke-width: 1.5"/>
    <path d="M 191.90292 108.09645 
L 191.774635 108.922761 
L 192.37296 110.393397 
L 193.347406 111.646881 
L 194.127155 111.948938 
L 216.99931 98.743693 
L 217.127593 97.917384 
L 216.529266 96.446748 
L 215.554822 95.193263 
L 214.775076 94.891205 
z
" clip-path="url(#p8be26ae5e8)" style="fill: #da7b22; stroke: #262626"/>
    <path d="M 238.145995 91.093425 
L 237.725367 87.898433 
L 236.492146 84.921174 
L 234.530374 82.364544 
L 231.973744 80.402772 
L 228.996485 79.169551 
L 225.801492 78.748922 
L 222.6065 79.169551 
L 219.629241 80.402772 
L 217.07261 82.364544 
L 215.110839 84.921174 
L 213.877618 87.898433 
L 213.456989 91.093425 
L 213.877618 94.288418 
L 215.110839 97.265677 
L 217.07261 99.822307 
L 219.629241 101.784079 
L 222.6065 103.0173 
L 225.801492 103.437928 
L 228.996485 103.0173 
L 231.973744 101.784079 
L 234.530374 99.822307 
L 236.492146 97.265677 
L 237.725367 94.288418 
L 238.145995 91.093425 
z
" clip-path="url(#p8be26ae5e8)" style="fill: #da7b22; stroke: #262626; stroke-width: 1.5"/>
    <path d="M 129.373603 185.908806 
L 130.153356 185.606752 
L 131.127803 184.353269 
L 131.726127 182.882632 
L 131.597837 182.056319 
L 108.725659 168.85106 
L 107.945909 169.153116 
L 106.971462 170.406599 
L 106.373137 171.877236 
L 106.501424 172.703548 
z
" clip-path="url(#p8be26ae5e8)" style="fill: #da7b22; stroke: #262626"/>
    <path d="M 99.923489 127.194737 
L 99.272025 126.670478 
L 97.699254 126.453323 
L 96.126482 126.670478 
L 95.475019 127.194737 
L 95.475019 153.605254 
L 96.126482 154.129509 
L 97.699254 154.346663 
L 99.272025 154.129509 
L 99.923489 153.605254 
z
" clip-path="url(#p8be26ae5e8)" style="fill: #da7b22; stroke: #262626"/>
    <path d="M 110.043757 165.053287 
L 109.623128 161.858295 
L 108.389907 158.881036 
L 106.428136 156.324405 
L 103.871505 154.362634 
L 100.894246 153.129413 
L 97.699254 152.708784 
L 94.504261 153.129413 
L 91.527002 154.362634 
L 88.970372 156.324405 
L 87.008601 158.881036 
L 85.77538 161.858295 
L 85.354751 165.053287 
L 85.77538 168.24828 
L 87.008601 171.225539 
L 88.970372 173.782169 
L 91.527002 175.743941 
L 94.504261 176.977162 
L 97.699254 177.39779 
L 100.894246 176.977162 
L 103.871505 175.743941 
L 106.428136 173.782169 
L 108.389907 171.225539 
L 109.623128 168.24828 
L 110.043757 165.053287 
z
" clip-path="url(#p8be26ae5e8)" style="fill: #da7b22; stroke: #262626; stroke-width: 1.5"/>
    <path d="M 172.074349 111.948944 
L 172.854102 111.64689 
L 173.82855 110.393407 
L 174.426873 108.92277 
L 174.298584 108.096457 
L 151.426405 94.891198 
L 150.646655 95.193254 
L 149.672208 96.446737 
L 149.073883 97.917374 
L 149.20217 98.743686 
z
" clip-path="url(#p8be26ae5e8)" style="fill: #da7b22; stroke: #262626"/>
    <path d="M 106.501416 108.096457 
L 106.373127 108.92277 
L 106.97145 110.393407 
L 107.945898 111.64689 
L 108.725651 111.948944 
L 131.59783 98.743686 
L 131.726117 97.917374 
L 131.127792 96.446737 
L 130.153345 95.193254 
L 129.373595 94.891198 
z
" clip-path="url(#p8be26ae5e8)" style="fill: #da7b22; stroke: #262626"/>
    <path d="M 152.744503 91.093425 
L 152.323874 87.898433 
L 151.090653 84.921174 
L 149.128882 82.364544 
L 146.572252 80.402772 
L 143.594992 79.169551 
L 140.4 78.748922 
L 137.205008 79.169551 
L 134.227748 80.402772 
L 131.671118 82.364544 
L 129.709347 84.921174 
L 128.476126 87.898433 
L 128.055497 91.093425 
L 128.476126 94.288418 
L 129.709347 97.265677 
L 131.671118 99.822307 
L 134.227748 101.784079 
L 137.205008 103.0173 
L 140.4 103.437928 
L 143.594992 103.0173 
L 146.572252 101.784079 
L 149.128882 99.822307 
L 151.090653 97.265677 
L 152.323874 94.288418 
L 152.744503 91.093425 
z
" clip-path="url(#p8be26ae5e8)" style="fill: #da7b22; stroke: #262626; stroke-width: 1.5"/>
    <path d="M 149.202163 182.056319 
L 149.073873 182.882632 
L 149.672197 184.353269 
L 150.646644 185.606752 
L 151.426397 185.908806 
L 174.298576 172.703548 
L 174.426863 171.877236 
L 173.828538 170.406599 
L 172.854091 169.153116 
L 172.074341 168.85106 
z
" clip-path="url(#p8be26ae5e8)" style="fill: #da7b22; stroke: #262626"/>
    <path d="M 185.324981 127.194737 
L 184.673518 126.670478 
L 183.100746 126.453323 
L 181.527975 126.670478 
L 180.876511 127.194737 
L 180.876511 153.605254 
L 181.527975 154.129509 
L 183.100746 154.346663 
L 184.673518 154.129509 
L 185.324981 153.605254 
z
" clip-path="url(#p8be26ae5e8)" style="fill: #da7b22; stroke: #262626"/>
    <path d="M 195.445249 165.053287 
L 195.02462 161.858295 
L 193.791399 158.881036 
L 191.829628 156.324405 
L 189.272998 154.362634 
L 186.295739 153.129413 
L 183.100746 152.708784 
L 179.905754 153.129413 
L 176.928495 154.362634 
L 174.371864 156.324405 
L 172.410093 158.881036 
L 171.176872 161.858295 
L 170.756243 165.053287 
L 171.176872 168.24828 
L 172.410093 171.225539 
L 174.371864 173.782169 
L 176.928495 175.743941 
L 179.905754 176.977162 
L 183.100746 177.39779 
L 186.295739 176.977162 
L 189.272998 175.743941 
L 191.829628 173.782169 
L 193.791399 171.225539 
L 195.02462 168.24828 
L 195.445249 165.053287 
z
" clip-path="url(#p8be26ae5e8)" style="fill: #da7b22; stroke: #262626; stroke-width: 1.5"/>
    <path d="M 142.624235 201.154612 
L 141.972771 200.630359 
L 140.4 200.413205 
L 138.827229 200.630359 
L 138.175765 201.154612 
L 138.175765 227.565102 
L 138.827229 228.089353 
L 140.4 228.306505 
L 141.972771 228.089353 
L 142.624235 227.565102 
z
" clip-path="url(#p8be26ae5e8)" style="fill: #da7b22; stroke: #262626"/>
    <path d="M 152.744503 239.013149 
L 152.323874 235.818157 
L 151.090653 232.840898 
L 149.128882 230.284267 
L 146.572252 228.322496 
L 143.594992 227.089275 
L 140.4 226.668646 
L 137.205008 227.089275 
L 134.227748 228.322496 
L 131.671118 230.284267 
L 129.709347 232.840898 
L 128.476126 235.818157 
L 128.055497 239.013149 
L 128.476126 242.208142 
L 129.709347 245.185401 
L 131.671118 247.742031 
L 134.227748 249.703802 
L 137.205008 250.937023 
L 140.4 251.357652 
L 143.594992 250.937023 
L 146.572252 249.703802 
L 149.128882 247.742031 
L 151.090653 245.185401 
L 152.323874 242.208142 
L 152.744503 239.013149 
z
" clip-path="url(#p8be26ae5e8)" style="fill: #da7b22; stroke: #262626; stroke-width: 1.5"/>
    <path d="M 152.744503 140.4 
L 152.323874 137.205008 
L 151.090653 134.227748 
L 149.128882 131.671118 
L 146.572252 129.709347 
L 143.594992 128.476126 
L 140.4 128.055497 
L 137.205008 128.476126 
L 134.227748 129.709347 
L 131.671118 131.671118 
L 129.709347 134.227748 
L 128.476126 137.205008 
L 128.055497 140.4 
L 128.476126 143.594992 
L 129.709347 146.572252 
L 131.671118 149.128882 
L 134.227748 151.090653 
L 137.205008 152.323874 
L 140.4 152.744503 
L 143.594992 152.323874 
L 146.572252 151.090653 
L 149.128882 149.128882 
L 151.090653 146.572252 
L 152.323874 143.594992 
L 152.744503 140.4 
z
" clip-path="url(#p8be26ae5e8)" style="fill: #da7b22; stroke: #262626; stroke-width: 1.5"/>
   </g>
  </g>
 </g>
 <defs>
  <clipPath id="p8be26ae5e8">
   <rect x="7.2" y="7.2" width="266.4" height="266.4"/>
  </clipPath>
 </defs>
</svg>
