<?xml version="1.0" encoding="utf-8" standalone="no"?>
<!DOCTYPE svg PUBLIC "-//W3C//DTD SVG 1.1//EN"
  "http://www.w3.org/Graphics/SVG/1.1/DTD/svg11.dtd">
<svg xmlns:xlink="http://www.w3.org/1999/xlink" width="280.8pt" height="280.8pt" viewBox="0 0 280.8 280.8" xmlns="http://www.w3.org/2000/svg" version="1.1">
 <metadata>
  <rdf:RDF xmlns:dc="http://purl.org/dc/elements/1.1/" xmlns:cc="http://creativecommons.org/ns#" xmlns:rdf="http://www.w3.org/1999/02/22-rdf-syntax-ns#">
   <cc:Work>
    <dc:type rdf:resource="http://purl.org/dc/dcmitype/StillImage"/>
    <dc:date>2026-02-16T10:36:41.048636</dc:date>
    <dc:format>image/svg+xml</dc:format>
    <dc:creator>
     <cc:Agent>
      <dc:title>Matplotlib v3.10.7, https://matplotlib.org/</dc:title>
     </cc:Agent>
    </dc:creator>
   </cc:Work>
  </rdf:RDF>
 </metadata>
 <defs>
  <style type="text/css">*{stroke-linejoin: round; stroke-linecap: butt}</style>
 </defs>
 <g id="figure_1">
  <g id="patch_1">
   <path d="M 0 280.8 
L 280.8 280.8 
L 280.8 0 
L 0 0 
z
" style="fill: #ffffff"/>
  </g>
  <g id="axes_1">
   <g id="PolyCollection_1">
    <path d="M 152.744503 140.4 
L 152.323874 137.205008 
L 151.090653 134.227748 
L 149.128882 131.671118 
L 146.572252 129.709347 
L 143.594992 128.476126 
L 140.4 128.055497 
L 137.205008 128.476126 
L 134.227748 129.709347 
L 131.671118 131.671118 
L 129.709347 134.227748 
L 128.476126 137.205008 
L 128.055497 140.4 
L 128.476126 143.594992 
L 129.709347 146.572252 
L 131.671118 149.128882 
L 134.227748 151.090653 
L 137.205008 152.323874 
L 140.4 152.744503 
L 143.594992 152.323874 
L 146.572252 151.090653 
L 149.128882 149.128882 
L 151.090653 146.572252 
L 152.323874 143.594992 
L 152.744503 140.4 
z
" clip-path="url(#p7fe5f70226)" style="fill: #da7b22; stroke: #262626; stroke-width: 1.5"/>
    <path d="M 149.262082 145.208913 
L 204.584319 177.149222 
L 204.317919 177.61064 
L 148.995682 145.670331 
z
" clip-path="url(#p7fe5f70226)" style="fill: #4c4c4c"/>
    <path d="M 140.1336 130.320755 
L 140.1336 66.440138 
L 140.6664 66.440138 
L 140.6664 130.320755 
z
" clip-path="url(#p7fe5f70226)" style="fill: #4c4c4c"/>
    <path d="M 131.804318 145.670331 
L 76.482081 177.61064 
L 76.215681 177.149222 
L 131.537918 145.208913 
z
" clip-path="url(#p7fe5f70226)" style="fill: #4c4c4c"/>
    <path d="M 152.744503 140.4 
L 152.323874 137.205008 
L 151.090653 134.227748 
L 149.128882 131.671118 
L 146.572252 129.709347 
L 143.594992 128.476126 
L 140.4 128.055497 
L 137.205008 128.476126 
L 134.227748 129.709347 
L 131.671118 131.671118 
L 129.709347 134.227748 
L 128.476126 137.205008 
L 128.055497 140.4 
L 128.476126 143.594992 
L 129.709347 146.572252 
L 131.671118 149.128882 
L 134.227748 151.090653 
L 137.205008 152.323874 
L 140.4 152.744503 
L 143.594992 152.323874 
L 146.572252 151.090653 
L 149.128882 149.128882 
L 151.090653 146.572252 
L 152.323874 143.594992 
L 152.744503 140.4 
z
" clip-path="url(#p7fe5f70226)" style="fill: #da7b22; stroke: #262626; stroke-width: 1.5"/>
    <path d="M 204.584319 177.149222 
L 217.20581 184.436243 
L 216.93941 184.897661 
L 204.317919 177.61064 
z
" clip-path="url(#p7fe5f70226)" style="fill: #4c4c4c"/>
    <path d="M 140.1336 66.440138 
L 140.1336 51.866095 
L 140.6664 51.866095 
L 140.6664 66.440138 
z
" clip-path="url(#p7fe5f70226)" style="fill: #4c4c4c"/>
    <path d="M 76.482081 177.61064 
L 63.86059 184.897661 
L 63.59419 184.436243 
L 76.215681 177.149222 
z
" clip-path="url(#p7fe5f70226)" style="fill: #4c4c4c"/>
    <path d="M 174.298572 123.396975 
L 174.426858 122.570665 
L 173.828532 121.100028 
L 172.854086 119.846545 
L 172.074337 119.544488 
L 149.202166 132.749742 
L 149.073878 133.576054 
L 149.672203 135.046691 
L 150.64665 136.300174 
L 151.426401 136.602229 
z
" clip-path="url(#p7fe5f70226)" style="fill: #da7b22; stroke: #262626"/>
    <path d="M 195.445249 115.746713 
L 195.02462 112.55172 
L 193.791399 109.574461 
L 191.829628 107.017831 
L 189.272998 105.056059 
L 186.295739 103.822838 
L 183.100746 103.40221 
L 179.905754 103.822838 
L 176.928495 105.056059 
L 174.371864 107.017831 
L 172.410093 109.574461 
L 171.176872 112.55172 
L 170.756243 115.746713 
L 171.176872 118.941705 
L 172.410093 121.918964 
L 174.371864 124.475595 
L 176.928495 126.437366 
L 179.905754 127.670587 
L 183.100746 128.091216 
L 186.295739 127.670587 
L 189.272998 126.437366 
L 191.829628 124.475595 
L 193.791399 121.918964 
L 195.02462 118.941705 
L 195.445249 115.746713 
z
" clip-path="url(#p7fe5f70226)" style="fill: #da7b22; stroke: #262626; stroke-width: 1.5"/>
    <path d="M 108.725663 119.544488 
L 107.945914 119.846545 
L 106.971468 121.100028 
L 106.373142 122.570665 
L 106.501428 123.396975 
L 129.373599 136.602229 
L 130.15335 136.300174 
L 131.127797 135.046691 
L 131.726122 133.576054 
L 131.597834 132.749742 
z
" clip-path="url(#p7fe5f70226)" style="fill: #da7b22; stroke: #262626"/>
    <path d="M 110.043757 115.746713 
L 109.623128 112.55172 
L 108.389907 109.574461 
L 106.428136 107.017831 
L 103.871505 105.056059 
L 100.894246 103.822838 
L 97.699254 103.40221 
L 94.504261 103.822838 
L 91.527002 105.056059 
L 88.970372 107.017831 
L 87.008601 109.574461 
L 85.77538 112.55172 
L 85.354751 115.746713 
L 85.77538 118.941705 
L 87.008601 121.918964 
L 88.970372 124.475595 
L 91.527002 126.437366 
L 94.504261 127.670587 
L 97.699254 128.091216 
L 100.894246 127.670587 
L 103.871505 126.437366 
L 106.428136 124.475595 
L 108.389907 121.918964 
L 109.623128 118.941705 
L 110.043757 115.746713 
z
" clip-path="url(#p7fe5f70226)" style="fill: #da7b22; stroke: #262626; stroke-width: 1.5"/>
    <path d="M 67.343011 189.706575 
L 66.922382 186.511582 
L 65.689161 183.534323 
L 63.72739 180.977693 
L 61.170759 179.015921 
L 58.1935 177.7827 
L 54.998508 177.362072 
L 51.803515 177.7827 
L 48.826256 179.015921 
L 46.269626 180.977693 
L 44.307854 183.534323 
L 43.074633 186.511582 
L 42.654005 189.706575 
L 43.074633 192.901567 
L 44.307854 195.878826 
L 46.269626 198.435456 
L 48.826256 200.397228 
L 51.803515 201.630449 
L 54.998508 202.051078 
L 58.1935 201.630449 
L 61.170759 200.397228 
L 63.72739 198.435456 
L 65.689161 195.878826 
L 66.922382 192.901567 
L 67.343011 189.706575 
z
" clip-path="url(#p7fe5f70226)" style="fill: #da7b22; stroke: #262626; stroke-width: 1.5"/>
    <path d="M 152.744503 41.786851 
L 152.323874 38.591858 
L 151.090653 35.614599 
L 149.128882 33.057969 
L 146.572252 31.096198 
L 143.594992 29.862977 
L 140.4 29.442348 
L 137.205008 29.862977 
L 134.227748 31.096198 
L 131.671118 33.057969 
L 129.709347 35.614599 
L 128.476126 38.591858 
L 128.055497 41.786851 
L 128.476126 44.981843 
L 129.709347 47.959102 
L 131.671118 50.515733 
L 134.227748 52.477504 
L 137.205008 53.710725 
L 140.4 54.131354 
L 143.594992 53.710725 
L 146.572252 52.477504 
L 149.128882 50.515733 
L 151.090653 47.959102 
L 152.323874 44.981843 
L 152.744503 41.786851 
z
" clip-path="url(#p7fe5f70226)" style="fill: #da7b22; stroke: #262626; stroke-width: 1.5"/>
    <path d="M 138.175765 178.258537 
L 138.827229 178.782791 
L 140.4 178.999944 
L 141.972771 178.782791 
L 142.624235 178.258537 
L 142.624235 151.848029 
L 141.972771 151.323772 
L 140.4 151.106617 
L 138.827229 151.323772 
L 138.175765 151.848029 
z
" clip-path="url(#p7fe5f70226)" style="fill: #da7b22; stroke: #262626"/>
    <path d="M 152.744503 189.706575 
L 152.323874 186.511582 
L 151.090653 183.534323 
L 149.128882 180.977693 
L 146.572252 179.015921 
L 143.594992 177.7827 
L 140.4 177.362072 
L 137.205008 177.7827 
L 134.227748 179.015921 
L 131.671118 180.977693 
L 129.709347 183.534323 
L 128.476126 186.511582 
L 128.055497 189.706575 
L 128.476126 192.901567 
L 129.709347 195.878826 
L 131.671118 198.435456 
L 134.227748 200.397228 
L 137.205008 201.630449 
L 140.4 202.051078 
L 143.594992 201.630449 
L 146.572252 200.397228 
L 149.128882 198.435456 
L 151.090653 195.878826 
L 152.323874 192.901567 
L 152.744503 189.706575 
z
" clip-path="url(#p7fe5f70226)" style="fill: #da7b22; stroke: #262626; stroke-width: 1.5"/>
    <path d="M 238.145995 189.706575 
L 237.725367 186.511582 
L 236.492146 183.534323 
L 234.530374 180.977693 
L 231.973744 179.015921 
L 228.996485 177.7827 
L 225.801492 177.362072 
L 222.6065 177.7827 
L 219.629241 179.015921 
L 217.07261 180.977693 
L 215.110839 183.534323 
L 213.877618 186.511582 
L 213.456989 189.706575 
L 213.877618 192.901567 
L 215.110839 195.878826 
L 217.07261 198.435456 
L 219.629241 200.397228 
L 222.6065 201.630449 
L 225.801492 202.051078 
L 228.996485 201.630449 
L 231.973744 200.397228 
L 234.530374 198.435456 
L 236.492146 195.878826 
L 237.725367 192.901567 
L 238.145995 189.706575 
z
" clip-path="url(#p7fe5f70226)" style="fill: #da7b22; stroke: #262626; stroke-width: 1.5"/>
    <path d="M 225.535092 179.62733 
L 225.535092 115.746713 
L 226.067892 115.746713 
L 226.067892 179.62733 
z
" clip-path="url(#p7fe5f70226)" style="fill: #4c4c4c"/>
    <path d="M 149.262082 46.595764 
L 204.584319 78.536073 
L 204.317919 78.997491 
L 148.995682 47.057182 
z
" clip-path="url(#p7fe5f70226)" style="fill: #4c4c4c"/>
    <path d="M 131.804318 47.057182 
L 76.482081 78.997491 
L 76.215681 78.536073 
L 131.537918 46.595764 
z
" clip-path="url(#p7fe5f70226)" style="fill: #4c4c4c"/>
    <path d="M 63.86059 194.515488 
L 119.182827 226.455796 
L 118.916427 226.917215 
L 63.59419 194.976906 
z
" clip-path="url(#p7fe5f70226)" style="fill: #4c4c4c"/>
    <path d="M 54.732108 179.62733 
L 54.732108 115.746713 
L 55.264908 115.746713 
L 55.264908 179.62733 
z
" clip-path="url(#p7fe5f70226)" style="fill: #4c4c4c"/>
    <path d="M 217.20581 194.976906 
L 161.883573 226.917215 
L 161.617173 226.455796 
L 216.93941 194.515488 
z
" clip-path="url(#p7fe5f70226)" style="fill: #4c4c4c"/>
    <path d="M 110.043757 115.746713 
L 109.623128 112.55172 
L 108.389907 109.574461 
L 106.428136 107.017831 
L 103.871505 105.056059 
L 100.894246 103.822838 
L 97.699254 103.40221 
L 94.504261 103.822838 
L 91.527002 105.056059 
L 88.970372 107.017831 
L 87.008601 109.574461 
L 85.77538 112.55172 
L 85.354751 115.746713 
L 85.77538 118.941705 
L 87.008601 121.918964 
L 88.970372 124.475595 
L 91.527002 126.437366 
L 94.504261 127.670587 
L 97.699254 128.091216 
L 100.894246 127.670587 
L 103.871505 126.437366 
L 106.428136 124.475595 
L 108.389907 121.918964 
L 109.623128 118.941705 
L 110.043757 115.746713 
z
" clip-path="url(#p7fe5f70226)" style="fill: #da7b22; stroke: #262626; stroke-width: 1.5"/>
    <path d="M 195.445249 115.746713 
L 195.02462 112.55172 
L 193.791399 109.574461 
L 191.829628 107.017831 
L 189.272998 105.056059 
L 186.295739 103.822838 
L 183.100746 103.40221 
L 179.905754 103.822838 
L 176.928495 105.056059 
L 174.371864 107.017831 
L 172.410093 109.574461 
L 171.176872 112.55172 
L 170.756243 115.746713 
L 171.176872 118.941705 
L 172.410093 121.918964 
L 174.371864 124.475595 
L 176.928495 126.437366 
L 179.905754 127.670587 
L 183.100746 128.091216 
L 186.295739 127.670587 
L 189.272998 126.437366 
L 191.829628 124.475595 
L 193.791399 121.918964 
L 195.02462 118.941705 
L 195.445249 115.746713 
z
" clip-path="url(#p7fe5f70226)" style="fill: #da7b22; stroke: #262626; stroke-width: 1.5"/>
    <path d="M 152.744503 189.706575 
L 152.323874 186.511582 
L 151.090653 183.534323 
L 149.128882 180.977693 
L 146.572252 179.015921 
L 143.594992 177.7827 
L 140.4 177.362072 
L 137.205008 177.7827 
L 134.227748 179.015921 
L 131.671118 180.977693 
L 129.709347 183.534323 
L 128.476126 186.511582 
L 128.055497 189.706575 
L 128.476126 192.901567 
L 129.709347 195.878826 
L 131.671118 198.435456 
L 134.227748 200.397228 
L 137.205008 201.630449 
L 140.4 202.051078 
L 143.594992 201.630449 
L 146.572252 200.397228 
L 149.128882 198.435456 
L 151.090653 195.878826 
L 152.323874 192.901567 
L 152.744503 189.706575 
z
" clip-path="url(#p7fe5f70226)" style="fill: #da7b22; stroke: #262626; stroke-width: 1.5"/>
    <path d="M 54.732108 115.746713 
L 54.732108 101.17267 
L 55.264908 101.17267 
L 55.264908 115.746713 
z
" clip-path="url(#p7fe5f70226)" style="fill: #4c4c4c"/>
    <path d="M 225.535092 115.746713 
L 225.535092 101.17267 
L 226.067892 101.17267 
L 226.067892 115.746713 
z
" clip-path="url(#p7fe5f70226)" style="fill: #4c4c4c"/>
    <path d="M 161.883573 226.917215 
L 149.262082 234.204236 
L 148.995682 233.742818 
L 161.617173 226.455796 
z
" clip-path="url(#p7fe5f70226)" style="fill: #4c4c4c"/>
    <path d="M 204.584319 78.536073 
L 217.20581 85.823094 
L 216.93941 86.284512 
L 204.317919 78.997491 
z
" clip-path="url(#p7fe5f70226)" style="fill: #4c4c4c"/>
    <path d="M 76.482081 78.997491 
L 63.86059 86.284512 
L 63.59419 85.823094 
L 76.215681 78.536073 
z
" clip-path="url(#p7fe5f70226)" style="fill: #4c4c4c"/>
    <path d="M 119.182827 226.455796 
L 131.804318 233.742818 
L 131.537918 234.204236 
L 118.916427 226.917215 
z
" clip-path="url(#p7fe5f70226)" style="fill: #4c4c4c"/>
    <path d="M 191.90292 108.09645 
L 191.774635 108.922761 
L 192.37296 110.393397 
L 193.347406 111.646881 
L 194.127155 111.948938 
L 216.99931 98.743693 
L 217.127593 97.917384 
L 216.529266 96.446748 
L 215.554822 95.193263 
L 214.775076 94.891205 
z
" clip-path="url(#p7fe5f70226)" style="fill: #da7b22; stroke: #262626"/>
    <path d="M 238.145995 91.093425 
L 237.725367 87.898433 
L 236.492146 84.921174 
L 234.530374 82.364544 
L 231.973744 80.402772 
L 228.996485 79.169551 
L 225.801492 78.748922 
L 222.6065 79.169551 
L 219.629241 80.402772 
L 217.07261 82.364544 
L 215.110839 84.921174 
L 213.877618 87.898433 
L 213.456989 91.093425 
L 213.877618 94.288418 
L 215.110839 97.265677 
L 217.07261 99.822307 
L 219.629241 101.784079 
L 222.6065 103.0173 
L 225.801492 103.437928 
L 228.996485 103.0173 
L 231.973744 101.784079 
L 234.530374 99.822307 
L 236.492146 97.265677 
L 237.725367 94.288418 
L 238.145995 91.093425 
z
" clip-path="url(#p7fe5f70226)" style="fill: #da7b22; stroke: #262626; stroke-width: 1.5"/>
    <path d="M 86.672845 111.948938 
L 87.452594 111.646881 
L 88.42704 110.393397 
L 89.025365 108.922761 
L 88.89708 108.09645 
L 66.024924 94.891205 
L 65.245178 95.193263 
L 64.270734 96.446748 
L 63.672407 97.917384 
L 63.80069 98.743693 
z
" clip-path="url(#p7fe5f70226)" style="fill: #da7b22; stroke: #262626"/>
    <path d="M 67.343011 91.093425 
L 66.922382 87.898433 
L 65.689161 84.921174 
L 63.72739 82.364544 
L 61.170759 80.402772 
L 58.1935 79.169551 
L 54.998508 78.748922 
L 51.803515 79.169551 
L 48.826256 80.402772 
L 46.269626 82.364544 
L 44.307854 84.921174 
L 43.074633 87.898433 
L 42.654005 91.093425 
L 43.074633 94.288418 
L 44.307854 97.265677 
L 46.269626 99.822307 
L 48.826256 101.784079 
L 51.803515 103.0173 
L 54.998508 103.437928 
L 58.1935 103.0173 
L 61.170759 101.784079 
L 63.72739 99.822307 
L 65.689161 97.265677 
L 66.922382 94.288418 
L 67.343011 91.093425 
z
" clip-path="url(#p7fe5f70226)" style="fill: #da7b22; stroke: #262626; stroke-width: 1.5"/>
    <path d="M 99.923489 127.194737 
L 99.272025 126.670478 
L 97.699254 126.453323 
L 96.126482 126.670478 
L 95.475019 127.194737 
L 95.475019 153.605254 
L 96.126482 154.129509 
L 97.699254 154.346663 
L 99.272025 154.129509 
L 99.923489 153.605254 
z
" clip-path="url(#p7fe5f70226)" style="fill: #da7b22; stroke: #262626"/>
    <path d="M 129.373603 185.908806 
L 130.153356 185.606752 
L 131.127803 184.353269 
L 131.726127 182.882632 
L 131.597837 182.056319 
L 108.725659 168.85106 
L 107.945909 169.153116 
L 106.971462 170.406599 
L 106.373137 171.877236 
L 106.501424 172.703548 
z
" clip-path="url(#p7fe5f70226)" style="fill: #da7b22; stroke: #262626"/>
    <path d="M 110.043757 165.053287 
L 109.623128 161.858295 
L 108.389907 158.881036 
L 106.428136 156.324405 
L 103.871505 154.362634 
L 100.894246 153.129413 
L 97.699254 152.708784 
L 94.504261 153.129413 
L 91.527002 154.362634 
L 88.970372 156.324405 
L 87.008601 158.881036 
L 85.77538 161.858295 
L 85.354751 165.053287 
L 85.77538 168.24828 
L 87.008601 171.225539 
L 88.970372 173.782169 
L 91.527002 175.743941 
L 94.504261 176.977162 
L 97.699254 177.39779 
L 100.894246 176.977162 
L 103.871505 175.743941 
L 106.428136 173.782169 
L 108.389907 171.225539 
L 109.623128 168.24828 
L 110.043757 165.053287 
z
" clip-path="url(#p7fe5f70226)" style="fill: #da7b22; stroke: #262626; stroke-width: 1.5"/>
    <path d="M 185.324981 127.194737 
L 184.673518 126.670478 
L 183.100746 126.453323 
L 181.527975 126.670478 
L 180.876511 127.194737 
L 180.876511 153.605254 
L 181.527975 154.129509 
L 183.100746 154.346663 
L 184.673518 154.129509 
L 185.324981 153.605254 
z
" clip-path="url(#p7fe5f70226)" style="fill: #da7b22; stroke: #262626"/>
    <path d="M 149.202163 182.056319 
L 149.073873 182.882632 
L 149.672197 184.353269 
L 150.646644 185.606752 
L 151.426397 185.908806 
L 174.298576 172.703548 
L 174.426863 171.877236 
L 173.828538 170.406599 
L 172.854091 169.153116 
L 172.074341 168.85106 
z
" clip-path="url(#p7fe5f70226)" style="fill: #da7b22; stroke: #262626"/>
    <path d="M 195.445249 165.053287 
L 195.02462 161.858295 
L 193.791399 158.881036 
L 191.829628 156.324405 
L 189.272998 154.362634 
L 186.295739 153.129413 
L 183.100746 152.708784 
L 179.905754 153.129413 
L 176.928495 154.362634 
L 174.371864 156.324405 
L 172.410093 158.881036 
L 171.176872 161.858295 
L 170.756243 165.053287 
L 171.176872 168.24828 
L 172.410093 171.225539 
L 174.371864 173.782169 
L 176.928495 175.743941 
L 179.905754 176.977162 
L 183.100746 177.39779 
L 186.295739 176.977162 
L 189.272998 175.743941 
L 191.829628 173.782169 
L 193.791399 171.225539 
L 195.02462 168.24828 
L 195.445249 165.053287 
z
" clip-path="url(#p7fe5f70226)" style="fill: #da7b22; stroke: #262626; stroke-width: 1.5"/>
    <path d="M 106.501416 108.096457 
L 106.373127 108.92277 
L 106.97145 110.393407 
L 107.945898 111.64689 
L 108.725651 111.948944 
L 131.59783 98.743686 
L 131.726117 97.917374 
L 131.127792 96.446737 
L 130.153345 95.193254 
L 129.373595 94.891198 
z
" clip-path="url(#p7fe5f70226)" style="fill: #da7b22; stroke: #262626"/>
    <path d="M 172.074349 111.948944 
L 172.854102 111.64689 
L 173.82855 110.393407 
L 174.426873 108.92277 
L 174.298584 108.096457 
L 151.426405 94.891198 
L 150.646655 95.193254 
L 149.672208 96.446737 
L 149.073883 97.917374 
L 149.20217 98.743686 
z
" clip-path="url(#p7fe5f70226)" style="fill: #da7b22; stroke: #262626"/>
    <path d="M 152.744503 91.093425 
L 152.323874 87.898433 
L 151.090653 84.921174 
L 149.128882 82.364544 
L 146.572252 80.402772 
L 143.594992 79.169551 
L 140.4 78.748922 
L 137.205008 79.169551 
L 134.227748 80.402772 
L 131.671118 82.364544 
L 129.709347 84.921174 
L 128.476126 87.898433 
L 128.055497 91.093425 
L 128.476126 94.288418 
L 129.709347 97.265677 
L 131.671118 99.822307 
L 134.227748 101.784079 
L 137.205008 103.0173 
L 140.4 103.437928 
L 143.594992 103.0173 
L 146.572252 101.784079 
L 149.128882 99.822307 
L 151.090653 97.265677 
L 152.323874 94.288418 
L 152.744503 91.093425 
z
" clip-path="url(#p7fe5f70226)" style="fill: #da7b22; stroke: #262626; stroke-width: 1.5"/>
    <path d="M 142.624235 201.154612 
L 141.972771 200.630359 
L 140.4 200.413205 
L 138.827229 200.630359 
L 138.175765 201.154612 
L 138.175765 227.565102 
L 138.827229 228.089353 
L 140.4 228.306505 
L 141.972771 228.089353 
L 142.624235 227.565102 
z
" clip-path="url(#p7fe5f70226)" style="fill: #da7b22; stroke: #262626"/>
    <path d="M 152.744503 239.013149 
L 152.323874 235.818157 
L 151.090653 232.840898 
L 149.128882 230.284267 
L 146.572252 228.322496 
L 143.594992 227.089275 
L 140.4 226.668646 
L 137.205008 227.089275 
L 134.227748 228.322496 
L 131.671118 230.284267 
L 129.709347 232.840898 
L 128.476126 235.818157 
L 128.055497 239.013149 
L 128.476126 242.208142 
L 129.709347 245.185401 
L 131.671118 247.742031 
L 134.227748 249.703802 
L 137.205008 250.937023 
L 140.4 251.357652 
L 143.594992 250.937023 
L 146.572252 249.703802 
L 149.128882 247.742031 
L 151.090653 245.185401 
L 152.323874 242.208142 
L 152.744503 239.013149 
z
" clip-path="url(#p7fe5f70226)" style="fill: #da7b22; stroke: #262626; stroke-width: 1.5"/>
    <path d="M 140.1336 228.933905 
L 140.1336 150.479245 
L 140.6664 150.479245 
L 140.6664 228.933905 
z
" clip-path="url(#p7fe5f70226)" style="fill: #4c4c4c"/>
    <path d="M 63.86059 95.902339 
L 131.804318 135.129669 
L 131.537918 135.591087 
L 63.59419 96.363757 
z
" clip-path="url(#p7fe5f70226)" style="fill: #4c4c4c"/>
    <path d="M 217.20581 96.363757 
L 149.262082 135.591087 
L 148.995682 135.129669 
L 216.93941 95.902339 
z
" clip-path="url(#p7fe5f70226)" style="fill: #4c4c4c"/>
    <path d="M 152.744503 140.4 
L 152.323874 137.205008 
L 151.090653 134.227748 
L 149.128882 131.671118 
L 146.572252 129.709347 
L 143.594992 128.476126 
L 140.4 128.055497 
L 137.205008 128.476126 
L 134.227748 129.709347 
L 131.671118 131.671118 
L 129.709347 134.227748 
L 128.476126 137.205008 
L 128.055497 140.4 
L 128.476126 143.594992 
L 129.709347 146.572252 
L 131.671118 149.128882 
L 134.227748 151.090653 
L 137.205008 152.323874 
L 140.4 152.744503 
L 143.594992 152.323874 
L 146.572252 151.090653 
L 149.128882 149.128882 
L 151.090653 146.572252 
L 152.323874 143.594992 
L 152.744503 140.4 
z
" clip-path="url(#p7fe5f70226)" style="fill: #da7b22; stroke: #262626; stroke-width: 1.5"/>
   </g>
  </g>
 </g>
 <defs>
  <clipPath id="p7fe5f70226">
   <rect x="7.2" y="7.2" width="266.4" height="266.4"/>
  </clipPath>
 </defs>
</svg>
