<?xml version="1.0" encoding="utf-8" standalone="no"?>
<!DOCTYPE svg PUBLIC "-//W3C//DTD SVG 1.1//EN"
  "http://www.w3.org/Graphics/SVG/1.1/DTD/svg11.dtd">
<svg xmlns:xlink="http://www.w3.org/1999/xlink" width="280.8pt" height="280.8pt" viewBox="0 0 280.8 280.8" xmlns="http://www.w3.org/2000/svg" version="1.1">
 <metadata>
  <rdf:RDF xmlns:dc="http://purl.org/dc/elements/1.1/" xmlns:cc="http://creativecommons.org/ns#" xmlns:rdf="http://www.w3.org/1999/02/22-rdf-syntax-ns#">
   <cc:Work>
    <dc:type rdf:resource="http://purl.org/dc/dcmitype/StillImage"/>
    <dc:date>2026-02-15T20:54:03.471626</dc:date>
    <dc:format>image/svg+xml</dc:format>
    <dc:creator>
     <cc:Agent>
      <dc:title>Matplotlib v3.10.7, https://matplotlib.org/</dc:title>
     </cc:Agent>
    </dc:creator>
   </cc:Work>
  </rdf:RDF>
 </metadata>
 <defs>
  <style type="text/css">*{stroke-linejoin: round; stroke-linecap: butt}</style>
 </defs>
 <g id="figure_1">
  <g id="patch_1">
   <path d="M 0 280.8 
L 280.8 280.8 
L 280.8 0 
L 0 0 
z
" style="fill: #ffffff"/>
  </g>
  <g id="axes_1">
   <g id="PolyCollection_1">
    <path d="M 152.744503 140.4 
L 152.323874 137.205008 
L 151.090653 134.227748 
L 149.128882 131.671118 
L 146.572252 129.709347 
L 143.594992 128.476126 
L 140.4 128.055497 
L 137.205008 128.476126 
L 134.227748 129.709347 
L 131.671118 131.671118 
L 129.709347 134.227748 
L 128.476126 137.205008 
L 128.055497 140.4 
L 128.476126 143.594992 
L 129.709347 146.572252 
L 131.671118 149.128882 
L 134.227748 151.090653 
L 137.205008 152.323874 
L 140.4 152.744503 
L 143.594992 152.323874 
L 146.572252 151.090653 
L 149.128882 149.128882 
L 151.090653 146.572252 
L 152.323874 143.594992 
L 152.744503 140.4 
z
" clip-path="url(#pe1f8f26160)" style="fill: #da7b22; stroke: #262626; stroke-width: 1.5"/>
    <path d="M 152.744503 140.4 
L 152.323874 137.205008 
L 151.090653 134.227748 
L 149.128882 131.671118 
L 146.572252 129.709347 
L 143.594992 128.476126 
L 140.4 128.055497 
L 137.205008 128.476126 
L 134.227748 129.709347 
L 131.671118 131.671118 
L 129.709347 134.227748 
L 128.476126 137.205008 
L 128.055497 140.4 
L 128.476126 143.594992 
L 129.709347 146.572252 
L 131.671118 149.128882 
L 134.227748 151.090653 
L 137.205008 152.323874 
L 140.4 152.744503 
L 143.594992 152.323874 
L 146.572252 151.090653 
L 149.128882 149.128882 
L 151.090653 146.572252 
L 152.323874 143.594992 
L 152.744503 140.4 
z
" clip-path="url(#pe1f8f26160)" style="fill: #da7b22; stroke: #262626; stroke-width: 1.5"/>
    <path d="M 238.145995 189.706575 
L 237.725367 186.511582 
L 236.492146 183.534323 
L 234.530374 180.977693 
L 231.973744 179.015921 
L 228.996485 177.7827 
L 225.801492 177.362072 
L 222.6065 177.7827 
L 219.629241 179.015921 
L 217.07261 180.977693 
L 215.110839 183.534323 
L 213.877618 186.511582 
L 213.456989 189.706575 
L 213.877618 192.901567 
L 215.110839 195.878826 
L 217.07261 198.435456 
L 219.629241 200.397228 
L 222.6065 201.630449 
L 225.801492 202.051078 
L 228.996485 201.630449 
L 231.973744 200.397228 
L 234.530374 198.435456 
L 236.492146 195.878826 
L 237.725367 192.901567 
L 238.145995 189.706575 
z
" clip-path="url(#pe1f8f26160)" style="fill: #da7b22; stroke: #262626; stroke-width: 1.5"/>
    <path d="M 152.744503 41.786851 
L 152.323874 38.591858 
L 151.090653 35.614599 
L 149.128882 33.057969 
L 146.572252 31.096198 
L 143.594992 29.862977 
L 140.4 29.442348 
L 137.205008 29.862977 
L 134.227748 31.096198 
L 131.671118 33.057969 
L 129.709347 35.614599 
L 128.476126 38.591858 
L 128.055497 41.786851 
L 128.476126 44.981843 
L 129.709347 47.959102 
L 131.671118 50.515733 
L 134.227748 52.477504 
L 137.205008 53.710725 
L 140.4 54.131354 
L 143.594992 53.710725 
L 146.572252 52.477504 
L 149.128882 50.515733 
L 151.090653 47.959102 
L 152.323874 44.981843 
L 152.744503 41.786851 
z
" clip-path="url(#pe1f8f26160)" style="fill: #da7b22; stroke: #262626; stroke-width: 1.5"/>
    <path d="M 67.343011 189.706575 
L 66.922382 186.511582 
L 65.689161 183.534323 
L 63.72739 180.977693 
L 61.170759 179.015921 
L 58.1935 177.7827 
L 54.998508 177.362072 
L 51.803515 177.7827 
L 48.826256 179.015921 
L 46.269626 180.977693 
L 44.307854 183.534323 
L 43.074633 186.511582 
L 42.654005 189.706575 
L 43.074633 192.901567 
L 44.307854 195.878826 
L 46.269626 198.435456 
L 48.826256 200.397228 
L 51.803515 201.630449 
L 54.998508 202.051078 
L 58.1935 201.630449 
L 61.170759 200.397228 
L 63.72739 198.435456 
L 65.689161 195.878826 
L 66.922382 192.901567 
L 67.343011 189.706575 
z
" clip-path="url(#pe1f8f26160)" style="fill: #da7b22; stroke: #262626; stroke-width: 1.5"/>
    <path d="M 238.145995 189.706575 
L 237.725367 186.511582 
L 236.492146 183.534323 
L 234.530374 180.977693 
L 231.973744 179.015921 
L 228.996485 177.7827 
L 225.801492 177.362072 
L 222.6065 177.7827 
L 219.629241 179.015921 
L 217.07261 180.977693 
L 215.110839 183.534323 
L 213.877618 186.511582 
L 213.456989 189.706575 
L 213.877618 192.901567 
L 215.110839 195.878826 
L 217.07261 198.435456 
L 219.629241 200.397228 
L 222.6065 201.630449 
L 225.801492 202.051078 
L 228.996485 201.630449 
L 231.973744 200.397228 
L 234.530374 198.435456 
L 236.492146 195.878826 
L 237.725367 192.901567 
L 238.145995 189.706575 
z
" clip-path="url(#pe1f8f26160)" style="fill: #da7b22; stroke: #262626; stroke-width: 1.5"/>
    <path d="M 67.343011 189.706575 
L 66.922382 186.511582 
L 65.689161 183.534323 
L 63.72739 180.977693 
L 61.170759 179.015921 
L 58.1935 177.7827 
L 54.998508 177.362072 
L 51.803515 177.7827 
L 48.826256 179.015921 
L 46.269626 180.977693 
L 44.307854 183.534323 
L 43.074633 186.511582 
L 42.654005 189.706575 
L 43.074633 192.901567 
L 44.307854 195.878826 
L 46.269626 198.435456 
L 48.826256 200.397228 
L 51.803515 201.630449 
L 54.998508 202.051078 
L 58.1935 201.630449 
L 61.170759 200.397228 
L 63.72739 198.435456 
L 65.689161 195.878826 
L 66.922382 192.901567 
L 67.343011 189.706575 
z
" clip-path="url(#pe1f8f26160)" style="fill: #da7b22; stroke: #262626; stroke-width: 1.5"/>
    <path d="M 152.744503 41.786851 
L 152.323874 38.591858 
L 151.090653 35.614599 
L 149.128882 33.057969 
L 146.572252 31.096198 
L 143.594992 29.862977 
L 140.4 29.442348 
L 137.205008 29.862977 
L 134.227748 31.096198 
L 131.671118 33.057969 
L 129.709347 35.614599 
L 128.476126 38.591858 
L 128.055497 41.786851 
L 128.476126 44.981843 
L 129.709347 47.959102 
L 131.671118 50.515733 
L 134.227748 52.477504 
L 137.205008 53.710725 
L 140.4 54.131354 
L 143.594992 53.710725 
L 146.572252 52.477504 
L 149.128882 50.515733 
L 151.090653 47.959102 
L 152.323874 44.981843 
L 152.744503 41.786851 
z
" clip-path="url(#pe1f8f26160)" style="fill: #da7b22; stroke: #262626; stroke-width: 1.5"/>
    <path d="M 238.145995 91.093425 
L 237.725367 87.898433 
L 236.492146 84.921174 
L 234.530374 82.364544 
L 231.973744 80.402772 
L 228.996485 79.169551 
L 225.801492 78.748922 
L 222.6065 79.169551 
L 219.629241 80.402772 
L 217.07261 82.364544 
L 215.110839 84.921174 
L 213.877618 87.898433 
L 213.456989 91.093425 
L 213.877618 94.288418 
L 215.110839 97.265677 
L 217.07261 99.822307 
L 219.629241 101.784079 
L 222.6065 103.0173 
L 225.801492 103.437928 
L 228.996485 103.0173 
L 231.973744 101.784079 
L 234.530374 99.822307 
L 236.492146 97.265677 
L 237.725367 94.288418 
L 238.145995 91.093425 
z
" clip-path="url(#pe1f8f26160)" style="fill: #da7b22; stroke: #262626; stroke-width: 1.5"/>
    <path d="M 152.744503 239.013149 
L 152.323874 235.818157 
L 151.090653 232.840898 
L 149.128882 230.284267 
L 146.572252 228.322496 
L 143.594992 227.089275 
L 140.4 226.668646 
L 137.205008 227.089275 
L 134.227748 228.322496 
L 131.671118 230.284267 
L 129.709347 232.840898 
L 128.476126 235.818157 
L 128.055497 239.013149 
L 128.476126 242.208142 
L 129.709347 245.185401 
L 131.671118 247.742031 
L 134.227748 249.703802 
L 137.205008 250.937023 
L 140.4 251.357652 
L 143.594992 250.937023 
L 146.572252 249.703802 
L 149.128882 247.742031 
L 151.090653 245.185401 
L 152.323874 242.208142 
L 152.744503 239.013149 
z
" clip-path="url(#pe1f8f26160)" style="fill: #da7b22; stroke: #262626; stroke-width: 1.5"/>
    <path d="M 67.343011 91.093425 
L 66.922382 87.898433 
L 65.689161 84.921174 
L 63.72739 82.364544 
L 61.170759 80.402772 
L 58.1935 79.169551 
L 54.998508 78.748922 
L 51.803515 79.169551 
L 48.826256 80.402772 
L 46.269626 82.364544 
L 44.307854 84.921174 
L 43.074633 87.898433 
L 42.654005 91.093425 
L 43.074633 94.288418 
L 44.307854 97.265677 
L 46.269626 99.822307 
L 48.826256 101.784079 
L 51.803515 103.0173 
L 54.998508 103.437928 
L 58.1935 103.0173 
L 61.170759 101.784079 
L 63.72739 99.822307 
L 65.689161 97.265677 
L 66.922382 94.288418 
L 67.343011 91.093425 
z
" clip-path="url(#pe1f8f26160)" style="fill: #da7b22; stroke: #262626; stroke-width: 1.5"/>
    <path d="M 238.145995 91.093425 
L 237.725367 87.898433 
L 236.492146 84.921174 
L 234.530374 82.364544 
L 231.973744 80.402772 
L 228.996485 79.169551 
L 225.801492 78.748922 
L 222.6065 79.169551 
L 219.629241 80.402772 
L 217.07261 82.364544 
L 215.110839 84.921174 
L 213.877618 87.898433 
L 213.456989 91.093425 
L 213.877618 94.288418 
L 215.110839 97.265677 
L 217.07261 99.822307 
L 219.629241 101.784079 
L 222.6065 103.0173 
L 225.801492 103.437928 
L 228.996485 103.0173 
L 231.973744 101.784079 
L 234.530374 99.822307 
L 236.492146 97.265677 
L 237.725367 94.288418 
L 238.145995 91.093425 
z
" clip-path="url(#pe1f8f26160)" style="fill: #da7b22; stroke: #262626; stroke-width: 1.5"/>
    <path d="M 152.744503 239.013149 
L 152.323874 235.818157 
L 151.090653 232.840898 
L 149.128882 230.284267 
L 146.572252 228.322496 
L 143.594992 227.089275 
L 140.4 226.668646 
L 137.205008 227.089275 
L 134.227748 228.322496 
L 131.671118 230.284267 
L 129.709347 232.840898 
L 128.476126 235.818157 
L 128.055497 239.013149 
L 128.476126 242.208142 
L 129.709347 245.185401 
L 131.671118 247.742031 
L 134.227748 249.703802 
L 137.205008 250.937023 
L 140.4 251.357652 
L 143.594992 250.937023 
L 146.572252 249.703802 
L 149.128882 247.742031 
L 151.090653 245.185401 
L 152.323874 242.208142 
L 152.744503 239.013149 
z
" clip-path="url(#pe1f8f26160)" style="fill: #da7b22; stroke: #262626; stroke-width: 1.5"/>
    <path d="M 67.343011 91.093425 
L 66.922382 87.898433 
L 65.689161 84.921174 
L 63.72739 82.364544 
L 61.170759 80.402772 
L 58.1935 79.169551 
L 54.998508 78.748922 
L 51.803515 79.169551 
L 48.826256 80.402772 
L 46.269626 82.364544 
L 44.307854 84.921174 
L 43.074633 87.898433 
L 42.654005 91.093425 
L 43.074633 94.288418 
L 44.307854 97.265677 
L 46.269626 99.822307 
L 48.826256 101.784079 
L 51.803515 103.0173 
L 54.998508 103.437928 
L 58.1935 103.0173 
L 61.170759 101.784079 
L 63.72739 99.822307 
L 65.689161 97.265677 
L 66.922382 94.288418 
L 67.343011 91.093425 
z
" clip-path="url(#pe1f8f26160)" style="fill: #da7b22; stroke: #262626; stroke-width: 1.5"/>
    <path d="M 152.744503 140.4 
L 152.323874 137.205008 
L 151.090653 134.227748 
L 149.128882 131.671118 
L 146.572252 129.709347 
L 143.594992 128.476126 
L 140.4 128.055497 
L 137.205008 128.476126 
L 134.227748 129.709347 
L 131.671118 131.671118 
L 129.709347 134.227748 
L 128.476126 137.205008 
L 128.055497 140.4 
L 128.476126 143.594992 
L 129.709347 146.572252 
L 131.671118 149.128882 
L 134.227748 151.090653 
L 137.205008 152.323874 
L 140.4 152.744503 
L 143.594992 152.323874 
L 146.572252 151.090653 
L 149.128882 149.128882 
L 151.090653 146.572252 
L 152.323874 143.594992 
L 152.744503 140.4 
z
" clip-path="url(#pe1f8f26160)" style="fill: #da7b22; stroke: #262626; stroke-width: 1.5"/>
    <path d="M 152.744503 140.4 
L 152.323874 137.205008 
L 151.090653 134.227748 
L 149.128882 131.671118 
L 146.572252 129.709347 
L 143.594992 128.476126 
L 140.4 128.055497 
L 137.205008 128.476126 
L 134.227748 129.709347 
L 131.671118 131.671118 
L 129.709347 134.227748 
L 128.476126 137.205008 
L 128.055497 140.4 
L 128.476126 143.594992 
L 129.709347 146.572252 
L 131.671118 149.128882 
L 134.227748 151.090653 
L 137.205008 152.323874 
L 140.4 152.744503 
L 143.594992 152.323874 
L 146.572252 151.090653 
L 149.128882 149.128882 
L 151.090653 146.572252 
L 152.323874 143.594992 
L 152.744503 140.4 
z
" clip-path="url(#pe1f8f26160)" style="fill: #da7b22; stroke: #262626; stroke-width: 1.5"/>
   </g>
  </g>
 </g>
 <defs>
  <clipPath id="pe1f8f26160">
   <rect x="7.2" y="7.2" width="266.4" height="266.4"/>
  </clipPath>
 </defs>
</svg>
