<?xml version="1.0" encoding="utf-8" standalone="no"?>
<!DOCTYPE svg PUBLIC "-//W3C//DTD SVG 1.1//EN"
  "http://www.w3.org/Graphics/SVG/1.1/DTD/svg11.dtd">
<svg xmlns:xlink="http://www.w3.org/1999/xlink" width="254.376686pt" height="280.8pt" viewBox="0 0 254.376686 280.8" xmlns="http://www.w3.org/2000/svg" version="1.1">
 <metadata>
  <rdf:RDF xmlns:dc="http://purl.org/dc/elements/1.1/" xmlns:cc="http://creativecommons.org/ns#" xmlns:rdf="http://www.w3.org/1999/02/22-rdf-syntax-ns#">
   <cc:Work>
    <dc:type rdf:resource="http://purl.org/dc/dcmitype/StillImage"/>
    <dc:date>2026-02-21T07:58:37.596660</dc:date>
    <dc:format>image/svg+xml</dc:format>
    <dc:creator>
     <cc:Agent>
      <dc:title>Matplotlib v3.10.7, https://matplotlib.org/</dc:title>
     </cc:Agent>
    </dc:creator>
   </cc:Work>
  </rdf:RDF>
 </metadata>
 <defs>
  <style type="text/css">*{stroke-linejoin: round; stroke-linecap: butt}</style>
 </defs>
 <g id="figure_1">
  <g id="patch_1">
   <path d="M 0 280.8 
L 254.376686 280.8 
L 254.376686 0 
L 0 0 
z
" style="fill: #ffffff"/>
  </g>
  <g id="axes_1">
   <g id="PolyCollection_1">
    <path d="M 137.518471 140.4 
L 137.479162 139.49967 
L 137.361533 138.606192 
L 137.166481 137.726366 
L 136.895488 136.866888 
L 136.550619 136.034299 
L 136.134496 135.234936 
L 135.650289 134.474882 
L 135.10168 133.759922 
L 134.492847 133.095496 
L 133.828421 132.486663 
L 133.113461 131.938054 
L 132.353407 131.453847 
L 131.554044 131.037724 
L 130.721455 130.692855 
L 129.861977 130.421863 
L 128.982151 130.22681 
L 128.088673 130.109181 
L 127.188343 130.069872 
L 126.288013 130.109181 
L 125.394535 130.22681 
L 124.514709 130.421863 
L 123.655231 130.692855 
L 122.822642 131.037724 
L 122.023279 131.453847 
L 121.263225 131.938054 
L 120.548265 132.486663 
L 119.88384 133.095496 
L 119.275006 133.759922 
L 118.726398 134.474882 
L 118.24219 135.234936 
L 117.826068 136.034299 
L 117.481198 136.866888 
L 117.210206 137.726366 
L 117.015153 138.606192 
L 116.897524 139.49967 
L 116.858215 140.4 
L 116.897524 141.30033 
L 117.015153 142.193808 
L 117.210206 143.073634 
L 117.481198 143.933112 
L 117.826068 144.765701 
L 118.24219 145.565064 
L 118.726398 146.325118 
L 119.275006 147.040078 
L 119.88384 147.704504 
L 120.548265 148.313337 
L 121.263225 148.861946 
L 122.023279 149.346153 
L 122.822642 149.762276 
L 123.655231 150.107145 
L 124.514709 150.378137 
L 125.394535 150.57319 
L 126.288013 150.690819 
L 127.188343 150.730128 
L 128.088673 150.690819 
L 128.982151 150.57319 
L 129.861977 150.378137 
L 130.721455 150.107145 
L 131.554044 149.762276 
L 132.353407 149.346153 
L 133.113461 148.861946 
L 133.828421 148.313337 
L 134.492847 147.704504 
L 135.10168 147.040078 
L 135.650289 146.325118 
L 136.134496 145.565064 
L 136.550619 144.765701 
L 136.895488 143.933112 
L 137.166481 143.073634 
L 137.361533 142.193808 
L 137.479162 141.30033 
L 137.518471 140.4 
z
" clip-path="url(#p9ad9cd109e)" style="fill: #da7b22; stroke: #262626"/>
    <path d="M 134.604311 144.424195 
L 180.899071 171.152487 
L 180.676142 171.538611 
L 134.381382 144.810319 
z
" clip-path="url(#p9ad9cd109e)" style="fill: #4c4c4c"/>
    <path d="M 126.965414 131.965486 
L 126.965414 78.508902 
L 127.411272 78.508902 
L 127.411272 131.965486 
z
" clip-path="url(#p9ad9cd109e)" style="fill: #4c4c4c"/>
    <path d="M 119.995304 144.810319 
L 73.700545 171.538611 
L 73.477616 171.152487 
L 119.772375 144.424195 
z
" clip-path="url(#p9ad9cd109e)" style="fill: #4c4c4c"/>
    <path d="M 137.518471 140.4 
L 137.479162 139.49967 
L 137.361533 138.606192 
L 137.166481 137.726366 
L 136.895488 136.866888 
L 136.550619 136.034299 
L 136.134496 135.234936 
L 135.650289 134.474882 
L 135.10168 133.759922 
L 134.492847 133.095496 
L 133.828421 132.486663 
L 133.113461 131.938054 
L 132.353407 131.453847 
L 131.554044 131.037724 
L 130.721455 130.692855 
L 129.861977 130.421863 
L 128.982151 130.22681 
L 128.088673 130.109181 
L 127.188343 130.069872 
L 126.288013 130.109181 
L 125.394535 130.22681 
L 124.514709 130.421863 
L 123.655231 130.692855 
L 122.822642 131.037724 
L 122.023279 131.453847 
L 121.263225 131.938054 
L 120.548265 132.486663 
L 119.88384 133.095496 
L 119.275006 133.759922 
L 118.726398 134.474882 
L 118.24219 135.234936 
L 117.826068 136.034299 
L 117.481198 136.866888 
L 117.210206 137.726366 
L 117.015153 138.606192 
L 116.897524 139.49967 
L 116.858215 140.4 
L 116.897524 141.30033 
L 117.015153 142.193808 
L 117.210206 143.073634 
L 117.481198 143.933112 
L 117.826068 144.765701 
L 118.24219 145.565064 
L 118.726398 146.325118 
L 119.275006 147.040078 
L 119.88384 147.704504 
L 120.548265 148.313337 
L 121.263225 148.861946 
L 122.023279 149.346153 
L 122.822642 149.762276 
L 123.655231 150.107145 
L 124.514709 150.378137 
L 125.394535 150.57319 
L 126.288013 150.690819 
L 127.188343 150.730128 
L 128.088673 150.690819 
L 128.982151 150.57319 
L 129.861977 150.378137 
L 130.721455 150.107145 
L 131.554044 149.762276 
L 132.353407 149.346153 
L 133.113461 148.861946 
L 133.828421 148.313337 
L 134.492847 147.704504 
L 135.10168 147.040078 
L 135.650289 146.325118 
L 136.134496 145.565064 
L 136.550619 144.765701 
L 136.895488 143.933112 
L 137.166481 143.073634 
L 137.361533 142.193808 
L 137.479162 141.30033 
L 137.518471 140.4 
z
" clip-path="url(#p9ad9cd109e)" style="fill: #da7b22; stroke: #262626"/>
    <path d="M 180.899071 171.152487 
L 191.460988 177.250413 
L 191.238059 177.636537 
L 180.676142 171.538611 
z
" clip-path="url(#p9ad9cd109e)" style="fill: #4c4c4c"/>
    <path d="M 126.965414 78.508902 
L 126.965414 66.313051 
L 127.411272 66.313051 
L 127.411272 78.508902 
z
" clip-path="url(#p9ad9cd109e)" style="fill: #4c4c4c"/>
    <path d="M 73.700545 171.538611 
L 63.138627 177.636537 
L 62.915698 177.250413 
L 73.477616 171.152487 
z
" clip-path="url(#p9ad9cd109e)" style="fill: #4c4c4c"/>
    <path d="M 155.555349 126.171528 
L 155.669027 126.018837 
L 155.698101 125.747928 
L 155.640214 125.380748 
L 155.500058 124.947045 
L 155.288985 124.481954 
L 155.024097 124.023153 
L 154.726852 123.607814 
L 154.421332 123.269583 
L 154.132289 123.035862 
L 153.883138 122.925586 
L 153.694065 122.947689 
L 134.554173 133.99811 
L 134.440494 134.150802 
L 134.411419 134.421711 
L 134.469305 134.788891 
L 134.609461 135.222595 
L 134.820533 135.687686 
L 135.085422 136.146486 
L 135.382667 136.561826 
L 135.688187 136.900057 
L 135.977231 137.133777 
L 136.226383 137.244053 
L 136.415457 137.221949 
z
" clip-path="url(#p9ad9cd109e)" style="fill: #da7b22; stroke: #262626"/>
    <path d="M 173.251313 119.769634 
L 173.212004 118.869304 
L 173.094375 117.975826 
L 172.899323 117.096 
L 172.62833 116.236522 
L 172.283461 115.403933 
L 171.867338 114.60457 
L 171.383131 113.844516 
L 170.834522 113.129556 
L 170.225689 112.46513 
L 169.561263 111.856297 
L 168.846303 111.307689 
L 168.086249 110.823481 
L 167.286886 110.407359 
L 166.454297 110.062489 
L 165.594819 109.791497 
L 164.714993 109.596444 
L 163.821515 109.478815 
L 162.921185 109.439506 
L 162.020855 109.478815 
L 161.127377 109.596444 
L 160.247551 109.791497 
L 159.388073 110.062489 
L 158.555484 110.407359 
L 157.756121 110.823481 
L 156.996067 111.307689 
L 156.281107 111.856297 
L 155.616682 112.46513 
L 155.007848 113.129556 
L 154.45924 113.844516 
L 153.975032 114.60457 
L 153.55891 115.403933 
L 153.21404 116.236522 
L 152.943048 117.096 
L 152.747995 117.975826 
L 152.630366 118.869304 
L 152.591057 119.769634 
L 152.630366 120.669964 
L 152.747995 121.563442 
L 152.943048 122.443268 
L 153.21404 123.302746 
L 153.55891 124.135335 
L 153.975032 124.934698 
L 154.45924 125.694752 
L 155.007848 126.409712 
L 155.616682 127.074138 
L 156.281107 127.682971 
L 156.996067 128.23158 
L 157.756121 128.715787 
L 158.555484 129.13191 
L 159.388073 129.476779 
L 160.247551 129.747772 
L 161.127377 129.942824 
L 162.020855 130.060453 
L 162.921185 130.099762 
L 163.821515 130.060453 
L 164.714993 129.942824 
L 165.594819 129.747772 
L 166.454297 129.476779 
L 167.286886 129.13191 
L 168.086249 128.715787 
L 168.846303 128.23158 
L 169.561263 127.682971 
L 170.225689 127.074138 
L 170.834522 126.409712 
L 171.383131 125.694752 
L 171.867338 124.934698 
L 172.283461 124.135335 
L 172.62833 123.302746 
L 172.899323 122.443268 
L 173.094375 121.563442 
L 173.212004 120.669964 
L 173.251313 119.769634 
z
" clip-path="url(#p9ad9cd109e)" style="fill: #da7b22; stroke: #262626"/>
    <path d="M 208.984155 181.660732 
L 208.944846 180.760402 
L 208.827217 179.866924 
L 208.632165 178.987098 
L 208.361172 178.12762 
L 208.016303 177.295031 
L 207.60018 176.495668 
L 207.115973 175.735614 
L 206.567364 175.020654 
L 205.958531 174.356228 
L 205.294105 173.747395 
L 204.579145 173.198786 
L 203.819091 172.714579 
L 203.019728 172.298456 
L 202.187139 171.953587 
L 201.327661 171.682594 
L 200.447835 171.487542 
L 199.554357 171.369913 
L 198.654027 171.330604 
L 197.753697 171.369913 
L 196.860219 171.487542 
L 195.980393 171.682594 
L 195.120915 171.953587 
L 194.288326 172.298456 
L 193.488963 172.714579 
L 192.728909 173.198786 
L 192.013949 173.747395 
L 191.349523 174.356228 
L 190.74069 175.020654 
L 190.192082 175.735614 
L 189.707874 176.495668 
L 189.291752 177.295031 
L 188.946882 178.12762 
L 188.67589 178.987098 
L 188.480837 179.866924 
L 188.363208 180.760402 
L 188.323899 181.660732 
L 188.363208 182.561062 
L 188.480837 183.45454 
L 188.67589 184.334366 
L 188.946882 185.193844 
L 189.291752 186.026433 
L 189.707874 186.825796 
L 190.192082 187.58585 
L 190.74069 188.30081 
L 191.349523 188.965235 
L 192.013949 189.574069 
L 192.728909 190.122677 
L 193.488963 190.606885 
L 194.288326 191.023007 
L 195.120915 191.367877 
L 195.980393 191.638869 
L 196.860219 191.833922 
L 197.753697 191.951551 
L 198.654027 191.99086 
L 199.554357 191.951551 
L 200.447835 191.833922 
L 201.327661 191.638869 
L 202.187139 191.367877 
L 203.019728 191.023007 
L 203.819091 190.606885 
L 204.579145 190.122677 
L 205.294105 189.574069 
L 205.958531 188.965235 
L 206.567364 188.30081 
L 207.115973 187.58585 
L 207.60018 186.825796 
L 208.016303 186.026433 
L 208.361172 185.193844 
L 208.632165 184.334366 
L 208.827217 183.45454 
L 208.944846 182.561062 
L 208.984155 181.660732 
z
" clip-path="url(#p9ad9cd109e)" style="fill: #da7b22; stroke: #262626"/>
    <path d="M 137.518471 57.878536 
L 137.479162 56.978206 
L 137.361533 56.084728 
L 137.166481 55.204902 
L 136.895488 54.345424 
L 136.550619 53.512836 
L 136.134496 52.713472 
L 135.650289 51.953418 
L 135.10168 51.238458 
L 134.492847 50.574033 
L 133.828421 49.965199 
L 133.113461 49.416591 
L 132.353407 48.932383 
L 131.554044 48.516261 
L 130.721455 48.171391 
L 129.861977 47.900399 
L 128.982151 47.705346 
L 128.088673 47.587717 
L 127.188343 47.548408 
L 126.288013 47.587717 
L 125.394535 47.705346 
L 124.514709 47.900399 
L 123.655231 48.171391 
L 122.822642 48.516261 
L 122.023279 48.932383 
L 121.263225 49.416591 
L 120.548265 49.965199 
L 119.88384 50.574033 
L 119.275006 51.238458 
L 118.726398 51.953418 
L 118.24219 52.713472 
L 117.826068 53.512836 
L 117.481198 54.345424 
L 117.210206 55.204902 
L 117.015153 56.084728 
L 116.897524 56.978206 
L 116.858215 57.878536 
L 116.897524 58.778866 
L 117.015153 59.672344 
L 117.210206 60.55217 
L 117.481198 61.411648 
L 117.826068 62.244237 
L 118.24219 63.0436 
L 118.726398 63.803654 
L 119.275006 64.518615 
L 119.88384 65.18304 
L 120.548265 65.791873 
L 121.263225 66.340482 
L 122.023279 66.82469 
L 122.822642 67.240812 
L 123.655231 67.585681 
L 124.514709 67.856674 
L 125.394535 68.051726 
L 126.288013 68.169355 
L 127.188343 68.208664 
L 128.088673 68.169355 
L 128.982151 68.051726 
L 129.861977 67.856674 
L 130.721455 67.585681 
L 131.554044 67.240812 
L 132.353407 66.82469 
L 133.113461 66.340482 
L 133.828421 65.791873 
L 134.492847 65.18304 
L 135.10168 64.518615 
L 135.650289 63.803654 
L 136.134496 63.0436 
L 136.550619 62.244237 
L 136.895488 61.411648 
L 137.166481 60.55217 
L 137.361533 59.672344 
L 137.479162 58.778866 
L 137.518471 57.878536 
z
" clip-path="url(#p9ad9cd109e)" style="fill: #da7b22; stroke: #262626"/>
    <path d="M 125.327059 172.080784 
L 125.402454 172.255578 
L 125.622531 172.416211 
L 125.969461 172.549669 
L 126.415138 172.645142 
L 126.923455 172.694893 
L 127.453232 172.694893 
L 127.961549 172.645142 
L 128.407225 172.549669 
L 128.754155 172.416211 
L 128.974232 172.255578 
L 129.049627 172.080784 
L 129.049627 149.97994 
L 128.974232 149.805146 
L 128.754155 149.644512 
L 128.407225 149.511052 
L 127.961549 149.415579 
L 127.453232 149.365827 
L 126.923455 149.365827 
L 126.415138 149.415579 
L 125.969461 149.511052 
L 125.622531 149.644512 
L 125.402454 149.805146 
L 125.327059 149.97994 
z
" clip-path="url(#p9ad9cd109e)" style="fill: #da7b22; stroke: #262626"/>
    <path d="M 137.518471 181.660732 
L 137.479162 180.760402 
L 137.361533 179.866924 
L 137.166481 178.987098 
L 136.895488 178.12762 
L 136.550619 177.295031 
L 136.134496 176.495668 
L 135.650289 175.735614 
L 135.10168 175.020654 
L 134.492847 174.356228 
L 133.828421 173.747395 
L 133.113461 173.198786 
L 132.353407 172.714579 
L 131.554044 172.298456 
L 130.721455 171.953587 
L 129.861977 171.682594 
L 128.982151 171.487542 
L 128.088673 171.369913 
L 127.188343 171.330604 
L 126.288013 171.369913 
L 125.394535 171.487542 
L 124.514709 171.682594 
L 123.655231 171.953587 
L 122.822642 172.298456 
L 122.023279 172.714579 
L 121.263225 173.198786 
L 120.548265 173.747395 
L 119.88384 174.356228 
L 119.275006 175.020654 
L 118.726398 175.735614 
L 118.24219 176.495668 
L 117.826068 177.295031 
L 117.481198 178.12762 
L 117.210206 178.987098 
L 117.015153 179.866924 
L 116.897524 180.760402 
L 116.858215 181.660732 
L 116.897524 182.561062 
L 117.015153 183.45454 
L 117.210206 184.334366 
L 117.481198 185.193844 
L 117.826068 186.026433 
L 118.24219 186.825796 
L 118.726398 187.58585 
L 119.275006 188.30081 
L 119.88384 188.965235 
L 120.548265 189.574069 
L 121.263225 190.122677 
L 122.023279 190.606885 
L 122.822642 191.023007 
L 123.655231 191.367877 
L 124.514709 191.638869 
L 125.394535 191.833922 
L 126.288013 191.951551 
L 127.188343 191.99086 
L 128.088673 191.951551 
L 128.982151 191.833922 
L 129.861977 191.638869 
L 130.721455 191.367877 
L 131.554044 191.023007 
L 132.353407 190.606885 
L 133.113461 190.122677 
L 133.828421 189.574069 
L 134.492847 188.965235 
L 135.10168 188.30081 
L 135.650289 187.58585 
L 136.134496 186.825796 
L 136.550619 186.026433 
L 136.895488 185.193844 
L 137.166481 184.334366 
L 137.361533 183.45454 
L 137.479162 182.561062 
L 137.518471 181.660732 
z
" clip-path="url(#p9ad9cd109e)" style="fill: #da7b22; stroke: #262626"/>
    <path d="M 100.682622 122.947689 
L 100.493548 122.925586 
L 100.244398 123.035862 
L 99.955354 123.269583 
L 99.649834 123.607814 
L 99.35259 124.023153 
L 99.087701 124.481954 
L 98.876629 124.947045 
L 98.736472 125.380748 
L 98.678585 125.747928 
L 98.707659 126.018837 
L 98.821337 126.171528 
L 117.961229 137.221949 
L 118.150303 137.244053 
L 118.399455 137.133777 
L 118.6885 136.900057 
L 118.99402 136.561826 
L 119.291265 136.146486 
L 119.556153 135.687686 
L 119.767225 135.222595 
L 119.907382 134.788891 
L 119.965267 134.421711 
L 119.936193 134.150802 
L 119.822514 133.99811 
z
" clip-path="url(#p9ad9cd109e)" style="fill: #da7b22; stroke: #262626"/>
    <path d="M 101.785629 119.769634 
L 101.74632 118.869304 
L 101.628691 117.975826 
L 101.433639 117.096 
L 101.162646 116.236522 
L 100.817777 115.403933 
L 100.401655 114.60457 
L 99.917447 113.844516 
L 99.368838 113.129556 
L 98.760005 112.46513 
L 98.09558 111.856297 
L 97.380619 111.307689 
L 96.620565 110.823481 
L 95.821202 110.407359 
L 94.988613 110.062489 
L 94.129135 109.791497 
L 93.249309 109.596444 
L 92.355831 109.478815 
L 91.455501 109.439506 
L 90.555171 109.478815 
L 89.661693 109.596444 
L 88.781867 109.791497 
L 87.922389 110.062489 
L 87.0898 110.407359 
L 86.290437 110.823481 
L 85.530383 111.307689 
L 84.815423 111.856297 
L 84.150998 112.46513 
L 83.542164 113.129556 
L 82.993556 113.844516 
L 82.509348 114.60457 
L 82.093226 115.403933 
L 81.748356 116.236522 
L 81.477364 117.096 
L 81.282311 117.975826 
L 81.164682 118.869304 
L 81.125373 119.769634 
L 81.164682 120.669964 
L 81.282311 121.563442 
L 81.477364 122.443268 
L 81.748356 123.302746 
L 82.093226 124.135335 
L 82.509348 124.934698 
L 82.993556 125.694752 
L 83.542164 126.409712 
L 84.150998 127.074138 
L 84.815423 127.682971 
L 85.530383 128.23158 
L 86.290437 128.715787 
L 87.0898 129.13191 
L 87.922389 129.476779 
L 88.781867 129.747772 
L 89.661693 129.942824 
L 90.555171 130.060453 
L 91.455501 130.099762 
L 92.355831 130.060453 
L 93.249309 129.942824 
L 94.129135 129.747772 
L 94.988613 129.476779 
L 95.821202 129.13191 
L 96.620565 128.715787 
L 97.380619 128.23158 
L 98.09558 127.682971 
L 98.760005 127.074138 
L 99.368838 126.409712 
L 99.917447 125.694752 
L 100.401655 124.934698 
L 100.817777 124.135335 
L 101.162646 123.302746 
L 101.433639 122.443268 
L 101.628691 121.563442 
L 101.74632 120.669964 
L 101.785629 119.769634 
z
" clip-path="url(#p9ad9cd109e)" style="fill: #da7b22; stroke: #262626"/>
    <path d="M 66.052787 181.660732 
L 66.013478 180.760402 
L 65.895849 179.866924 
L 65.700797 178.987098 
L 65.429804 178.12762 
L 65.084935 177.295031 
L 64.668813 176.495668 
L 64.184605 175.735614 
L 63.635996 175.020654 
L 63.027163 174.356228 
L 62.362738 173.747395 
L 61.647777 173.198786 
L 60.887723 172.714579 
L 60.08836 172.298456 
L 59.255771 171.953587 
L 58.396293 171.682594 
L 57.516467 171.487542 
L 56.622989 171.369913 
L 55.722659 171.330604 
L 54.822329 171.369913 
L 53.928851 171.487542 
L 53.049025 171.682594 
L 52.189547 171.953587 
L 51.356958 172.298456 
L 50.557595 172.714579 
L 49.797541 173.198786 
L 49.082581 173.747395 
L 48.418156 174.356228 
L 47.809322 175.020654 
L 47.260714 175.735614 
L 46.776506 176.495668 
L 46.360384 177.295031 
L 46.015514 178.12762 
L 45.744522 178.987098 
L 45.549469 179.866924 
L 45.43184 180.760402 
L 45.392531 181.660732 
L 45.43184 182.561062 
L 45.549469 183.45454 
L 45.744522 184.334366 
L 46.015514 185.193844 
L 46.360384 186.026433 
L 46.776506 186.825796 
L 47.260714 187.58585 
L 47.809322 188.30081 
L 48.418156 188.965235 
L 49.082581 189.574069 
L 49.797541 190.122677 
L 50.557595 190.606885 
L 51.356958 191.023007 
L 52.189547 191.367877 
L 53.049025 191.638869 
L 53.928851 191.833922 
L 54.822329 191.951551 
L 55.722659 191.99086 
L 56.622989 191.951551 
L 57.516467 191.833922 
L 58.396293 191.638869 
L 59.255771 191.367877 
L 60.08836 191.023007 
L 60.887723 190.606885 
L 61.647777 190.122677 
L 62.362738 189.574069 
L 63.027163 188.965235 
L 63.635996 188.30081 
L 64.184605 187.58585 
L 64.668813 186.825796 
L 65.084935 186.026433 
L 65.429804 185.193844 
L 65.700797 184.334366 
L 65.895849 183.45454 
L 66.013478 182.561062 
L 66.052787 181.660732 
z
" clip-path="url(#p9ad9cd109e)" style="fill: #da7b22; stroke: #262626"/>
    <path d="M 198.431098 173.226218 
L 198.431098 119.769634 
L 198.876956 119.769634 
L 198.876956 173.226218 
z
" clip-path="url(#p9ad9cd109e)" style="fill: #4c4c4c"/>
    <path d="M 191.460988 186.071051 
L 145.166229 212.799343 
L 144.9433 212.413219 
L 191.238059 185.684927 
z
" clip-path="url(#p9ad9cd109e)" style="fill: #4c4c4c"/>
    <path d="M 134.604311 61.902731 
L 180.899071 88.631023 
L 180.676142 89.017147 
L 134.381382 62.288855 
z
" clip-path="url(#p9ad9cd109e)" style="fill: #4c4c4c"/>
    <path d="M 119.995304 62.288855 
L 73.700545 89.017147 
L 73.477616 88.631023 
L 119.772375 61.902731 
z
" clip-path="url(#p9ad9cd109e)" style="fill: #4c4c4c"/>
    <path d="M 63.138627 185.684927 
L 109.433387 212.413219 
L 109.210458 212.799343 
L 62.915698 186.071051 
z
" clip-path="url(#p9ad9cd109e)" style="fill: #4c4c4c"/>
    <path d="M 55.49973 173.226218 
L 55.49973 119.769634 
L 55.945588 119.769634 
L 55.945588 173.226218 
z
" clip-path="url(#p9ad9cd109e)" style="fill: #4c4c4c"/>
    <path d="M 137.518471 181.660732 
L 137.479162 180.760402 
L 137.361533 179.866924 
L 137.166481 178.987098 
L 136.895488 178.12762 
L 136.550619 177.295031 
L 136.134496 176.495668 
L 135.650289 175.735614 
L 135.10168 175.020654 
L 134.492847 174.356228 
L 133.828421 173.747395 
L 133.113461 173.198786 
L 132.353407 172.714579 
L 131.554044 172.298456 
L 130.721455 171.953587 
L 129.861977 171.682594 
L 128.982151 171.487542 
L 128.088673 171.369913 
L 127.188343 171.330604 
L 126.288013 171.369913 
L 125.394535 171.487542 
L 124.514709 171.682594 
L 123.655231 171.953587 
L 122.822642 172.298456 
L 122.023279 172.714579 
L 121.263225 173.198786 
L 120.548265 173.747395 
L 119.88384 174.356228 
L 119.275006 175.020654 
L 118.726398 175.735614 
L 118.24219 176.495668 
L 117.826068 177.295031 
L 117.481198 178.12762 
L 117.210206 178.987098 
L 117.015153 179.866924 
L 116.897524 180.760402 
L 116.858215 181.660732 
L 116.897524 182.561062 
L 117.015153 183.45454 
L 117.210206 184.334366 
L 117.481198 185.193844 
L 117.826068 186.026433 
L 118.24219 186.825796 
L 118.726398 187.58585 
L 119.275006 188.30081 
L 119.88384 188.965235 
L 120.548265 189.574069 
L 121.263225 190.122677 
L 122.023279 190.606885 
L 122.822642 191.023007 
L 123.655231 191.367877 
L 124.514709 191.638869 
L 125.394535 191.833922 
L 126.288013 191.951551 
L 127.188343 191.99086 
L 128.088673 191.951551 
L 128.982151 191.833922 
L 129.861977 191.638869 
L 130.721455 191.367877 
L 131.554044 191.023007 
L 132.353407 190.606885 
L 133.113461 190.122677 
L 133.828421 189.574069 
L 134.492847 188.965235 
L 135.10168 188.30081 
L 135.650289 187.58585 
L 136.134496 186.825796 
L 136.550619 186.026433 
L 136.895488 185.193844 
L 137.166481 184.334366 
L 137.361533 183.45454 
L 137.479162 182.561062 
L 137.518471 181.660732 
z
" clip-path="url(#p9ad9cd109e)" style="fill: #da7b22; stroke: #262626"/>
    <path d="M 173.251313 119.769634 
L 173.212004 118.869304 
L 173.094375 117.975826 
L 172.899323 117.096 
L 172.62833 116.236522 
L 172.283461 115.403933 
L 171.867338 114.60457 
L 171.383131 113.844516 
L 170.834522 113.129556 
L 170.225689 112.46513 
L 169.561263 111.856297 
L 168.846303 111.307689 
L 168.086249 110.823481 
L 167.286886 110.407359 
L 166.454297 110.062489 
L 165.594819 109.791497 
L 164.714993 109.596444 
L 163.821515 109.478815 
L 162.921185 109.439506 
L 162.020855 109.478815 
L 161.127377 109.596444 
L 160.247551 109.791497 
L 159.388073 110.062489 
L 158.555484 110.407359 
L 157.756121 110.823481 
L 156.996067 111.307689 
L 156.281107 111.856297 
L 155.616682 112.46513 
L 155.007848 113.129556 
L 154.45924 113.844516 
L 153.975032 114.60457 
L 153.55891 115.403933 
L 153.21404 116.236522 
L 152.943048 117.096 
L 152.747995 117.975826 
L 152.630366 118.869304 
L 152.591057 119.769634 
L 152.630366 120.669964 
L 152.747995 121.563442 
L 152.943048 122.443268 
L 153.21404 123.302746 
L 153.55891 124.135335 
L 153.975032 124.934698 
L 154.45924 125.694752 
L 155.007848 126.409712 
L 155.616682 127.074138 
L 156.281107 127.682971 
L 156.996067 128.23158 
L 157.756121 128.715787 
L 158.555484 129.13191 
L 159.388073 129.476779 
L 160.247551 129.747772 
L 161.127377 129.942824 
L 162.020855 130.060453 
L 162.921185 130.099762 
L 163.821515 130.060453 
L 164.714993 129.942824 
L 165.594819 129.747772 
L 166.454297 129.476779 
L 167.286886 129.13191 
L 168.086249 128.715787 
L 168.846303 128.23158 
L 169.561263 127.682971 
L 170.225689 127.074138 
L 170.834522 126.409712 
L 171.383131 125.694752 
L 171.867338 124.934698 
L 172.283461 124.135335 
L 172.62833 123.302746 
L 172.899323 122.443268 
L 173.094375 121.563442 
L 173.212004 120.669964 
L 173.251313 119.769634 
z
" clip-path="url(#p9ad9cd109e)" style="fill: #da7b22; stroke: #262626"/>
    <path d="M 101.785629 119.769634 
L 101.74632 118.869304 
L 101.628691 117.975826 
L 101.433639 117.096 
L 101.162646 116.236522 
L 100.817777 115.403933 
L 100.401655 114.60457 
L 99.917447 113.844516 
L 99.368838 113.129556 
L 98.760005 112.46513 
L 98.09558 111.856297 
L 97.380619 111.307689 
L 96.620565 110.823481 
L 95.821202 110.407359 
L 94.988613 110.062489 
L 94.129135 109.791497 
L 93.249309 109.596444 
L 92.355831 109.478815 
L 91.455501 109.439506 
L 90.555171 109.478815 
L 89.661693 109.596444 
L 88.781867 109.791497 
L 87.922389 110.062489 
L 87.0898 110.407359 
L 86.290437 110.823481 
L 85.530383 111.307689 
L 84.815423 111.856297 
L 84.150998 112.46513 
L 83.542164 113.129556 
L 82.993556 113.844516 
L 82.509348 114.60457 
L 82.093226 115.403933 
L 81.748356 116.236522 
L 81.477364 117.096 
L 81.282311 117.975826 
L 81.164682 118.869304 
L 81.125373 119.769634 
L 81.164682 120.669964 
L 81.282311 121.563442 
L 81.477364 122.443268 
L 81.748356 123.302746 
L 82.093226 124.135335 
L 82.509348 124.934698 
L 82.993556 125.694752 
L 83.542164 126.409712 
L 84.150998 127.074138 
L 84.815423 127.682971 
L 85.530383 128.23158 
L 86.290437 128.715787 
L 87.0898 129.13191 
L 87.922389 129.476779 
L 88.781867 129.747772 
L 89.661693 129.942824 
L 90.555171 130.060453 
L 91.455501 130.099762 
L 92.355831 130.060453 
L 93.249309 129.942824 
L 94.129135 129.747772 
L 94.988613 129.476779 
L 95.821202 129.13191 
L 96.620565 128.715787 
L 97.380619 128.23158 
L 98.09558 127.682971 
L 98.760005 127.074138 
L 99.368838 126.409712 
L 99.917447 125.694752 
L 100.401655 124.934698 
L 100.817777 124.135335 
L 101.162646 123.302746 
L 101.433639 122.443268 
L 101.628691 121.563442 
L 101.74632 120.669964 
L 101.785629 119.769634 
z
" clip-path="url(#p9ad9cd109e)" style="fill: #da7b22; stroke: #262626"/>
    <path d="M 198.431098 119.769634 
L 198.431098 107.573782 
L 198.876956 107.573782 
L 198.876956 119.769634 
z
" clip-path="url(#p9ad9cd109e)" style="fill: #4c4c4c"/>
    <path d="M 145.166229 212.799343 
L 134.604311 218.897269 
L 134.381382 218.511145 
L 144.9433 212.413219 
z
" clip-path="url(#p9ad9cd109e)" style="fill: #4c4c4c"/>
    <path d="M 180.899071 88.631023 
L 191.460988 94.728949 
L 191.238059 95.115073 
L 180.676142 89.017147 
z
" clip-path="url(#p9ad9cd109e)" style="fill: #4c4c4c"/>
    <path d="M 73.700545 89.017147 
L 63.138627 95.115073 
L 62.915698 94.728949 
L 73.477616 88.631023 
z
" clip-path="url(#p9ad9cd109e)" style="fill: #4c4c4c"/>
    <path d="M 109.433387 212.413219 
L 119.995304 218.511145 
L 119.772375 218.897269 
L 109.210458 212.799343 
z
" clip-path="url(#p9ad9cd109e)" style="fill: #4c4c4c"/>
    <path d="M 55.49973 119.769634 
L 55.49973 107.573782 
L 55.945588 107.573782 
L 55.945588 119.769634 
z
" clip-path="url(#p9ad9cd109e)" style="fill: #4c4c4c"/>
    <path d="M 136.41546 102.317321 
L 136.226387 102.295218 
L 135.977235 102.405493 
L 135.688191 102.639214 
L 135.382671 102.977445 
L 135.085427 103.392785 
L 134.820538 103.851585 
L 134.609466 104.316676 
L 134.469309 104.75038 
L 134.411423 105.117559 
L 134.440497 105.388469 
L 134.554176 105.54116 
L 153.694074 116.591585 
L 153.883149 116.613689 
L 154.132301 116.503414 
L 154.421346 116.269693 
L 154.726867 115.931463 
L 155.024112 115.516123 
L 155.289 115.057323 
L 155.500072 114.592232 
L 155.640228 114.158528 
L 155.698113 113.791348 
L 155.669038 113.520438 
L 155.555359 113.367746 
z
" clip-path="url(#p9ad9cd109e)" style="fill: #da7b22; stroke: #262626"/>
    <path d="M 119.82251 105.54116 
L 119.936189 105.388469 
L 119.965263 105.117559 
L 119.907377 104.75038 
L 119.76722 104.316676 
L 119.556148 103.851585 
L 119.29126 103.392785 
L 118.994015 102.977445 
L 118.688495 102.639214 
L 118.399451 102.405493 
L 118.1503 102.295218 
L 117.961226 102.317321 
L 98.821328 113.367746 
L 98.707648 113.520438 
L 98.678573 113.791348 
L 98.736458 114.158528 
L 98.876614 114.592232 
L 99.087686 115.057323 
L 99.352575 115.516123 
L 99.64982 115.931463 
L 99.95534 116.269693 
L 100.244385 116.503414 
L 100.493537 116.613689 
L 100.682612 116.591585 
z
" clip-path="url(#p9ad9cd109e)" style="fill: #da7b22; stroke: #262626"/>
    <path d="M 137.518471 99.139268 
L 137.479162 98.238938 
L 137.361533 97.34546 
L 137.166481 96.465634 
L 136.895488 95.606156 
L 136.550619 94.773567 
L 136.134496 93.974204 
L 135.650289 93.21415 
L 135.10168 92.49919 
L 134.492847 91.834765 
L 133.828421 91.225931 
L 133.113461 90.677323 
L 132.353407 90.193115 
L 131.554044 89.776993 
L 130.721455 89.432123 
L 129.861977 89.161131 
L 128.982151 88.966078 
L 128.088673 88.848449 
L 127.188343 88.80914 
L 126.288013 88.848449 
L 125.394535 88.966078 
L 124.514709 89.161131 
L 123.655231 89.432123 
L 122.822642 89.776993 
L 122.023279 90.193115 
L 121.263225 90.677323 
L 120.548265 91.225931 
L 119.88384 91.834765 
L 119.275006 92.49919 
L 118.726398 93.21415 
L 118.24219 93.974204 
L 117.826068 94.773567 
L 117.481198 95.606156 
L 117.210206 96.465634 
L 117.015153 97.34546 
L 116.897524 98.238938 
L 116.858215 99.139268 
L 116.897524 100.039598 
L 117.015153 100.933076 
L 117.210206 101.812902 
L 117.481198 102.67238 
L 117.826068 103.504969 
L 118.24219 104.304332 
L 118.726398 105.064386 
L 119.275006 105.779346 
L 119.88384 106.443772 
L 120.548265 107.052605 
L 121.263225 107.601214 
L 122.023279 108.085421 
L 122.822642 108.501544 
L 123.655231 108.846413 
L 124.514709 109.117406 
L 125.394535 109.312458 
L 126.288013 109.430087 
L 127.188343 109.469396 
L 128.088673 109.430087 
L 128.982151 109.312458 
L 129.861977 109.117406 
L 130.721455 108.846413 
L 131.554044 108.501544 
L 132.353407 108.085421 
L 133.113461 107.601214 
L 133.828421 107.052605 
L 134.492847 106.443772 
L 135.10168 105.779346 
L 135.650289 105.064386 
L 136.134496 104.304332 
L 136.550619 103.504969 
L 136.895488 102.67238 
L 137.166481 101.812902 
L 137.361533 100.933076 
L 137.479162 100.039598 
L 137.518471 99.139268 
z
" clip-path="url(#p9ad9cd109e)" style="fill: #da7b22; stroke: #262626"/>
    <path d="M 64.949786 102.317326 
L 64.760714 102.295224 
L 64.511564 102.405501 
L 64.222521 102.639222 
L 63.917002 102.977453 
L 63.619757 103.392793 
L 63.354869 103.851593 
L 63.143796 104.316684 
L 63.003639 104.750387 
L 62.945752 105.117567 
L 62.974825 105.388475 
L 63.088502 105.541165 
L 82.228381 116.59158 
L 82.417454 116.613682 
L 82.666605 116.503406 
L 82.955648 116.269686 
L 83.261168 115.931455 
L 83.558413 115.516115 
L 83.823301 115.057315 
L 84.034374 114.592223 
L 84.174531 114.15852 
L 84.232417 113.79134 
L 84.203343 113.520431 
L 84.089665 113.367741 
z
" clip-path="url(#p9ad9cd109e)" style="fill: #da7b22; stroke: #262626"/>
    <path d="M 66.052787 99.139268 
L 66.013478 98.238938 
L 65.895849 97.34546 
L 65.700797 96.465634 
L 65.429804 95.606156 
L 65.084935 94.773567 
L 64.668813 93.974204 
L 64.184605 93.21415 
L 63.635996 92.49919 
L 63.027163 91.834765 
L 62.362738 91.225931 
L 61.647777 90.677323 
L 60.887723 90.193115 
L 60.08836 89.776993 
L 59.255771 89.432123 
L 58.396293 89.161131 
L 57.516467 88.966078 
L 56.622989 88.848449 
L 55.722659 88.80914 
L 54.822329 88.848449 
L 53.928851 88.966078 
L 53.049025 89.161131 
L 52.189547 89.432123 
L 51.356958 89.776993 
L 50.557595 90.193115 
L 49.797541 90.677323 
L 49.082581 91.225931 
L 48.418156 91.834765 
L 47.809322 92.49919 
L 47.260714 93.21415 
L 46.776506 93.974204 
L 46.360384 94.773567 
L 46.015514 95.606156 
L 45.744522 96.465634 
L 45.549469 97.34546 
L 45.43184 98.238938 
L 45.392531 99.139268 
L 45.43184 100.039598 
L 45.549469 100.933076 
L 45.744522 101.812902 
L 46.015514 102.67238 
L 46.360384 103.504969 
L 46.776506 104.304332 
L 47.260714 105.064386 
L 47.809322 105.779346 
L 48.418156 106.443772 
L 49.082581 107.052605 
L 49.797541 107.601214 
L 50.557595 108.085421 
L 51.356958 108.501544 
L 52.189547 108.846413 
L 53.049025 109.117406 
L 53.928851 109.312458 
L 54.822329 109.430087 
L 55.722659 109.469396 
L 56.622989 109.430087 
L 57.516467 109.312458 
L 58.396293 109.117406 
L 59.255771 108.846413 
L 60.08836 108.501544 
L 60.887723 108.085421 
L 61.647777 107.601214 
L 62.362738 107.052605 
L 63.027163 106.443772 
L 63.635996 105.779346 
L 64.184605 105.064386 
L 64.668813 104.304332 
L 65.084935 103.504969 
L 65.429804 102.67238 
L 65.700797 101.812902 
L 65.895849 100.933076 
L 66.013478 100.039598 
L 66.052787 99.139268 
z
" clip-path="url(#p9ad9cd109e)" style="fill: #da7b22; stroke: #262626"/>
    <path d="M 125.327059 213.341508 
L 125.402454 213.516301 
L 125.622531 213.676933 
L 125.969461 213.810391 
L 126.415138 213.905862 
L 126.923455 213.955614 
L 127.453232 213.955614 
L 127.961549 213.905862 
L 128.407225 213.810391 
L 128.754155 213.676933 
L 128.974232 213.516301 
L 129.049627 213.341508 
L 129.049627 191.24068 
L 128.974232 191.065886 
L 128.754155 190.905253 
L 128.407225 190.771794 
L 127.961549 190.676322 
L 127.453232 190.626571 
L 126.923455 190.626571 
L 126.415138 190.676322 
L 125.969461 190.771794 
L 125.622531 190.905253 
L 125.402454 191.065886 
L 125.327059 191.24068 
z
" clip-path="url(#p9ad9cd109e)" style="fill: #da7b22; stroke: #262626"/>
    <path d="M 137.518471 222.921464 
L 137.479162 222.021134 
L 137.361533 221.127656 
L 137.166481 220.24783 
L 136.895488 219.388352 
L 136.550619 218.555763 
L 136.134496 217.7564 
L 135.650289 216.996346 
L 135.10168 216.281385 
L 134.492847 215.61696 
L 133.828421 215.008127 
L 133.113461 214.459518 
L 132.353407 213.97531 
L 131.554044 213.559188 
L 130.721455 213.214319 
L 129.861977 212.943326 
L 128.982151 212.748274 
L 128.088673 212.630645 
L 127.188343 212.591336 
L 126.288013 212.630645 
L 125.394535 212.748274 
L 124.514709 212.943326 
L 123.655231 213.214319 
L 122.822642 213.559188 
L 122.023279 213.97531 
L 121.263225 214.459518 
L 120.548265 215.008127 
L 119.88384 215.61696 
L 119.275006 216.281385 
L 118.726398 216.996346 
L 118.24219 217.7564 
L 117.826068 218.555763 
L 117.481198 219.388352 
L 117.210206 220.24783 
L 117.015153 221.127656 
L 116.897524 222.021134 
L 116.858215 222.921464 
L 116.897524 223.821794 
L 117.015153 224.715272 
L 117.210206 225.595098 
L 117.481198 226.454576 
L 117.826068 227.287164 
L 118.24219 228.086528 
L 118.726398 228.846582 
L 119.275006 229.561542 
L 119.88384 230.225967 
L 120.548265 230.834801 
L 121.263225 231.383409 
L 122.023279 231.867617 
L 122.822642 232.283739 
L 123.655231 232.628609 
L 124.514709 232.899601 
L 125.394535 233.094654 
L 126.288013 233.212283 
L 127.188343 233.251592 
L 128.088673 233.212283 
L 128.982151 233.094654 
L 129.861977 232.899601 
L 130.721455 232.628609 
L 131.554044 232.283739 
L 132.353407 231.867617 
L 133.113461 231.383409 
L 133.828421 230.834801 
L 134.492847 230.225967 
L 135.10168 229.561542 
L 135.650289 228.846582 
L 136.134496 228.086528 
L 136.550619 227.287164 
L 136.895488 226.454576 
L 137.166481 225.595098 
L 137.361533 224.715272 
L 137.479162 223.821794 
L 137.518471 222.921464 
z
" clip-path="url(#p9ad9cd109e)" style="fill: #da7b22; stroke: #262626"/>
    <path d="M 191.288184 105.541165 
L 191.401862 105.388475 
L 191.430934 105.117567 
L 191.373047 104.750387 
L 191.23289 104.316684 
L 191.021817 103.851593 
L 190.756929 103.392793 
L 190.459685 102.977453 
L 190.154165 102.639222 
L 189.865122 102.405501 
L 189.615973 102.295224 
L 189.4269 102.317326 
L 170.287021 113.367741 
L 170.173343 113.520431 
L 170.144269 113.79134 
L 170.202156 114.15852 
L 170.342313 114.592223 
L 170.553385 115.057315 
L 170.818273 115.516115 
L 171.115518 115.931455 
L 171.421038 116.269686 
L 171.710081 116.503406 
L 171.959232 116.613682 
L 172.148306 116.59158 
z
" clip-path="url(#p9ad9cd109e)" style="fill: #da7b22; stroke: #262626"/>
    <path d="M 208.984155 99.139268 
L 208.944846 98.238938 
L 208.827217 97.34546 
L 208.632165 96.465634 
L 208.361172 95.606156 
L 208.016303 94.773567 
L 207.60018 93.974204 
L 207.115973 93.21415 
L 206.567364 92.49919 
L 205.958531 91.834765 
L 205.294105 91.225931 
L 204.579145 90.677323 
L 203.819091 90.193115 
L 203.019728 89.776993 
L 202.187139 89.432123 
L 201.327661 89.161131 
L 200.447835 88.966078 
L 199.554357 88.848449 
L 198.654027 88.80914 
L 197.753697 88.848449 
L 196.860219 88.966078 
L 195.980393 89.161131 
L 195.120915 89.432123 
L 194.288326 89.776993 
L 193.488963 90.193115 
L 192.728909 90.677323 
L 192.013949 91.225931 
L 191.349523 91.834765 
L 190.74069 92.49919 
L 190.192082 93.21415 
L 189.707874 93.974204 
L 189.291752 94.773567 
L 188.946882 95.606156 
L 188.67589 96.465634 
L 188.480837 97.34546 
L 188.363208 98.238938 
L 188.323899 99.139268 
L 188.363208 100.039598 
L 188.480837 100.933076 
L 188.67589 101.812902 
L 188.946882 102.67238 
L 189.291752 103.504969 
L 189.707874 104.304332 
L 190.192082 105.064386 
L 190.74069 105.779346 
L 191.349523 106.443772 
L 192.013949 107.052605 
L 192.728909 107.601214 
L 193.488963 108.085421 
L 194.288326 108.501544 
L 195.120915 108.846413 
L 195.980393 109.117406 
L 196.860219 109.312458 
L 197.753697 109.430087 
L 198.654027 109.469396 
L 199.554357 109.430087 
L 200.447835 109.312458 
L 201.327661 109.117406 
L 202.187139 108.846413 
L 203.019728 108.501544 
L 203.819091 108.085421 
L 204.579145 107.601214 
L 205.294105 107.052605 
L 205.958531 106.443772 
L 206.567364 105.779346 
L 207.115973 105.064386 
L 207.60018 104.304332 
L 208.016303 103.504969 
L 208.361172 102.67238 
L 208.632165 101.812902 
L 208.827217 100.933076 
L 208.944846 100.039598 
L 208.984155 99.139268 
z
" clip-path="url(#p9ad9cd109e)" style="fill: #da7b22; stroke: #262626"/>
    <path d="M 100.682618 164.208419 
L 100.493545 164.186315 
L 100.244393 164.296591 
L 99.955349 164.530312 
L 99.649829 164.868543 
L 99.352585 165.283882 
L 99.087696 165.742683 
L 98.876624 166.207774 
L 98.736467 166.641477 
L 98.678581 167.008657 
L 98.707655 167.279566 
L 98.821334 167.432258 
L 117.961232 178.482683 
L 118.150307 178.504787 
L 118.399459 178.394511 
L 118.688504 178.160791 
L 118.994025 177.822561 
L 119.29127 177.407221 
L 119.556158 176.948421 
L 119.76723 176.483329 
L 119.907386 176.049626 
L 119.965271 175.682445 
L 119.936196 175.411536 
L 119.822517 175.258844 
z
" clip-path="url(#p9ad9cd109e)" style="fill: #da7b22; stroke: #262626"/>
    <path d="M 89.594217 151.450422 
L 89.669612 151.625216 
L 89.889689 151.785849 
L 90.236619 151.919309 
L 90.682296 152.014781 
L 91.190613 152.064533 
L 91.72039 152.064533 
L 92.228707 152.014781 
L 92.674383 151.919309 
L 93.021313 151.785849 
L 93.24139 151.625216 
L 93.316786 151.450422 
L 93.316786 129.349571 
L 93.24139 129.174775 
L 93.021313 129.014141 
L 92.674383 128.880681 
L 92.228707 128.785208 
L 91.72039 128.735456 
L 91.190613 128.735456 
L 90.682296 128.785208 
L 90.236619 128.880681 
L 89.889689 129.014141 
L 89.669612 129.174775 
L 89.594217 129.349571 
z
" clip-path="url(#p9ad9cd109e)" style="fill: #da7b22; stroke: #262626"/>
    <path d="M 101.785629 161.030366 
L 101.74632 160.130036 
L 101.628691 159.236558 
L 101.433639 158.356732 
L 101.162646 157.497254 
L 100.817777 156.664665 
L 100.401655 155.865302 
L 99.917447 155.105248 
L 99.368838 154.390288 
L 98.760005 153.725862 
L 98.09558 153.117029 
L 97.380619 152.56842 
L 96.620565 152.084213 
L 95.821202 151.66809 
L 94.988613 151.323221 
L 94.129135 151.052228 
L 93.249309 150.857176 
L 92.355831 150.739547 
L 91.455501 150.700238 
L 90.555171 150.739547 
L 89.661693 150.857176 
L 88.781867 151.052228 
L 87.922389 151.323221 
L 87.0898 151.66809 
L 86.290437 152.084213 
L 85.530383 152.56842 
L 84.815423 153.117029 
L 84.150998 153.725862 
L 83.542164 154.390288 
L 82.993556 155.105248 
L 82.509348 155.865302 
L 82.093226 156.664665 
L 81.748356 157.497254 
L 81.477364 158.356732 
L 81.282311 159.236558 
L 81.164682 160.130036 
L 81.125373 161.030366 
L 81.164682 161.930696 
L 81.282311 162.824174 
L 81.477364 163.704 
L 81.748356 164.563478 
L 82.093226 165.396067 
L 82.509348 166.19543 
L 82.993556 166.955484 
L 83.542164 167.670444 
L 84.150998 168.33487 
L 84.815423 168.943703 
L 85.530383 169.492311 
L 86.290437 169.976519 
L 87.0898 170.392641 
L 87.922389 170.737511 
L 88.781867 171.008503 
L 89.661693 171.203556 
L 90.555171 171.321185 
L 91.455501 171.360494 
L 92.355831 171.321185 
L 93.249309 171.203556 
L 94.129135 171.008503 
L 94.988613 170.737511 
L 95.821202 170.392641 
L 96.620565 169.976519 
L 97.380619 169.492311 
L 98.09558 168.943703 
L 98.760005 168.33487 
L 99.368838 167.670444 
L 99.917447 166.955484 
L 100.401655 166.19543 
L 100.817777 165.396067 
L 101.162646 164.563478 
L 101.433639 163.704 
L 101.628691 162.824174 
L 101.74632 161.930696 
L 101.785629 161.030366 
z
" clip-path="url(#p9ad9cd109e)" style="fill: #da7b22; stroke: #262626"/>
    <path d="M 161.059901 151.450422 
L 161.135296 151.625216 
L 161.355373 151.785849 
L 161.702303 151.919309 
L 162.14798 152.014781 
L 162.656297 152.064533 
L 163.186074 152.064533 
L 163.694391 152.014781 
L 164.140067 151.919309 
L 164.486997 151.785849 
L 164.707074 151.625216 
L 164.782469 151.450422 
L 164.782469 129.349571 
L 164.707074 129.174775 
L 164.486997 129.014141 
L 164.140067 128.880681 
L 163.694391 128.785208 
L 163.186074 128.735456 
L 162.656297 128.735456 
L 162.14798 128.785208 
L 161.702303 128.880681 
L 161.355373 129.014141 
L 161.135296 129.174775 
L 161.059901 129.349571 
z
" clip-path="url(#p9ad9cd109e)" style="fill: #da7b22; stroke: #262626"/>
    <path d="M 155.555352 167.432258 
L 155.669031 167.279566 
L 155.698105 167.008657 
L 155.640219 166.641477 
L 155.500062 166.207774 
L 155.28899 165.742683 
L 155.024102 165.283882 
L 154.726857 164.868543 
L 154.421337 164.530312 
L 154.132293 164.296591 
L 153.883142 164.186315 
L 153.694068 164.208419 
L 134.55417 175.258844 
L 134.44049 175.411536 
L 134.411415 175.682445 
L 134.4693 176.049626 
L 134.609456 176.483329 
L 134.820528 176.948421 
L 135.085417 177.407221 
L 135.382662 177.822561 
L 135.688182 178.160791 
L 135.977227 178.394511 
L 136.226379 178.504787 
L 136.415454 178.482683 
z
" clip-path="url(#p9ad9cd109e)" style="fill: #da7b22; stroke: #262626"/>
    <path d="M 173.251313 161.030366 
L 173.212004 160.130036 
L 173.094375 159.236558 
L 172.899323 158.356732 
L 172.62833 157.497254 
L 172.283461 156.664665 
L 171.867338 155.865302 
L 171.383131 155.105248 
L 170.834522 154.390288 
L 170.225689 153.725862 
L 169.561263 153.117029 
L 168.846303 152.56842 
L 168.086249 152.084213 
L 167.286886 151.66809 
L 166.454297 151.323221 
L 165.594819 151.052228 
L 164.714993 150.857176 
L 163.821515 150.739547 
L 162.921185 150.700238 
L 162.020855 150.739547 
L 161.127377 150.857176 
L 160.247551 151.052228 
L 159.388073 151.323221 
L 158.555484 151.66809 
L 157.756121 152.084213 
L 156.996067 152.56842 
L 156.281107 153.117029 
L 155.616682 153.725862 
L 155.007848 154.390288 
L 154.45924 155.105248 
L 153.975032 155.865302 
L 153.55891 156.664665 
L 153.21404 157.497254 
L 152.943048 158.356732 
L 152.747995 159.236558 
L 152.630366 160.130036 
L 152.591057 161.030366 
L 152.630366 161.930696 
L 152.747995 162.824174 
L 152.943048 163.704 
L 153.21404 164.563478 
L 153.55891 165.396067 
L 153.975032 166.19543 
L 154.45924 166.955484 
L 155.007848 167.670444 
L 155.616682 168.33487 
L 156.281107 168.943703 
L 156.996067 169.492311 
L 157.756121 169.976519 
L 158.555484 170.392641 
L 159.388073 170.737511 
L 160.247551 171.008503 
L 161.127377 171.203556 
L 162.020855 171.321185 
L 162.921185 171.360494 
L 163.821515 171.321185 
L 164.714993 171.203556 
L 165.594819 171.008503 
L 166.454297 170.737511 
L 167.286886 170.392641 
L 168.086249 169.976519 
L 168.846303 169.492311 
L 169.561263 168.943703 
L 170.225689 168.33487 
L 170.834522 167.670444 
L 171.383131 166.955484 
L 171.867338 166.19543 
L 172.283461 165.396067 
L 172.62833 164.563478 
L 172.899323 163.704 
L 173.094375 162.824174 
L 173.212004 161.930696 
L 173.251313 161.030366 
z
" clip-path="url(#p9ad9cd109e)" style="fill: #da7b22; stroke: #262626"/>
    <path d="M 191.460988 103.549587 
L 134.604311 136.375805 
L 134.381382 135.989681 
L 191.238059 103.163463 
z
" clip-path="url(#p9ad9cd109e)" style="fill: #4c4c4c"/>
    <path d="M 126.965414 214.486949 
L 126.965414 148.834514 
L 127.411272 148.834514 
L 127.411272 214.486949 
z
" clip-path="url(#p9ad9cd109e)" style="fill: #4c4c4c"/>
    <path d="M 63.138627 103.163463 
L 119.995304 135.989681 
L 119.772375 136.375805 
L 62.915698 103.549587 
z
" clip-path="url(#p9ad9cd109e)" style="fill: #4c4c4c"/>
    <path d="M 137.518471 140.4 
L 137.479162 139.49967 
L 137.361533 138.606192 
L 137.166481 137.726366 
L 136.895488 136.866888 
L 136.550619 136.034299 
L 136.134496 135.234936 
L 135.650289 134.474882 
L 135.10168 133.759922 
L 134.492847 133.095496 
L 133.828421 132.486663 
L 133.113461 131.938054 
L 132.353407 131.453847 
L 131.554044 131.037724 
L 130.721455 130.692855 
L 129.861977 130.421863 
L 128.982151 130.22681 
L 128.088673 130.109181 
L 127.188343 130.069872 
L 126.288013 130.109181 
L 125.394535 130.22681 
L 124.514709 130.421863 
L 123.655231 130.692855 
L 122.822642 131.037724 
L 122.023279 131.453847 
L 121.263225 131.938054 
L 120.548265 132.486663 
L 119.88384 133.095496 
L 119.275006 133.759922 
L 118.726398 134.474882 
L 118.24219 135.234936 
L 117.826068 136.034299 
L 117.481198 136.866888 
L 117.210206 137.726366 
L 117.015153 138.606192 
L 116.897524 139.49967 
L 116.858215 140.4 
L 116.897524 141.30033 
L 117.015153 142.193808 
L 117.210206 143.073634 
L 117.481198 143.933112 
L 117.826068 144.765701 
L 118.24219 145.565064 
L 118.726398 146.325118 
L 119.275006 147.040078 
L 119.88384 147.704504 
L 120.548265 148.313337 
L 121.263225 148.861946 
L 122.023279 149.346153 
L 122.822642 149.762276 
L 123.655231 150.107145 
L 124.514709 150.378137 
L 125.394535 150.57319 
L 126.288013 150.690819 
L 127.188343 150.730128 
L 128.088673 150.690819 
L 128.982151 150.57319 
L 129.861977 150.378137 
L 130.721455 150.107145 
L 131.554044 149.762276 
L 132.353407 149.346153 
L 133.113461 148.861946 
L 133.828421 148.313337 
L 134.492847 147.704504 
L 135.10168 147.040078 
L 135.650289 146.325118 
L 136.134496 145.565064 
L 136.550619 144.765701 
L 136.895488 143.933112 
L 137.166481 143.073634 
L 137.361533 142.193808 
L 137.479162 141.30033 
L 137.518471 140.4 
z
" clip-path="url(#p9ad9cd109e)" style="fill: #da7b22; stroke: #262626"/>
   </g>
   <g id="line2d_1">
    <path d="M 41.182251 237.636 
L 52.484646 244.161441 
" clip-path="url(#p9ad9cd109e)" style="fill: none; stroke: #4c4c4c; stroke-width: 0.993548; stroke-linecap: round"/>
   </g>
   <g id="line2d_2">
    <path d="M 41.182251 237.636 
L 41.182251 224.585119 
" clip-path="url(#p9ad9cd109e)" style="fill: none; stroke: #4c4c4c; stroke-width: 0.993548; stroke-linecap: round"/>
   </g>
   <g id="line2d_3">
    <path d="M 41.182251 237.636 
L 29.879857 244.161441 
" clip-path="url(#p9ad9cd109e)" style="fill: none; stroke: #4c4c4c; stroke-width: 0.993548; stroke-linecap: round"/>
   </g>
   <g id="text_1">
    <path d="M 58.394165 248.667369 
Q 58.175274 248.79622 57.787169 248.79622 
Q 57.459609 248.79622 57.265556 248.613035 
Q 57.073056 248.429849 57.073056 248.012248 
Q 56.725314 248.429849 56.262693 248.613035 
Q 55.800072 248.79622 55.264488 248.79622 
Q 54.916746 248.79622 54.603157 248.717047 
Q 54.291121 248.637873 54.061363 248.46866 
Q 53.833157 248.299446 53.698097 248.02622 
Q 53.564588 247.752994 53.564588 247.366442 
Q 53.564588 246.92866 53.713621 246.650777 
Q 53.862653 246.372893 54.106383 246.199022 
Q 54.350113 246.025152 54.662149 245.936664 
Q 54.975738 245.846623 55.303298 245.786079 
Q 55.65104 245.71622 55.964629 245.682067 
Q 56.278218 245.647914 56.515738 245.582712 
Q 56.75481 245.51751 56.892976 245.393317 
Q 57.032693 245.269123 57.032693 245.031603 
Q 57.032693 244.75372 56.928681 244.584506 
Q 56.824669 244.415293 56.660113 244.326805 
Q 56.495556 244.236764 56.292189 244.207268 
Q 56.088822 244.17622 55.890113 244.17622 
Q 55.352976 244.17622 54.995919 244.381139 
Q 54.638863 244.584506 54.607814 245.151139 
L 53.763298 245.151139 
Q 53.78348 244.672994 53.962008 244.345434 
Q 54.142088 244.017873 54.440153 243.814506 
Q 54.738218 243.611139 55.120113 243.521099 
Q 55.502008 243.431059 55.93979 243.431059 
Q 56.287532 243.431059 56.630617 243.480736 
Q 56.973701 243.530414 57.251584 243.685656 
Q 57.529468 243.839345 57.698681 244.117228 
Q 57.867895 244.395111 57.867895 244.842208 
L 57.867895 247.485978 
Q 57.867895 247.784043 57.902048 247.92376 
Q 57.936201 248.061926 58.134911 248.061926 
Q 58.245133 248.061926 58.394165 248.012248 
L 58.394165 248.667369 
z
M 57.023379 246.034466 
Q 56.86348 246.154002 56.604226 246.208337 
Q 56.346524 246.262672 56.063984 246.298377 
Q 55.781443 246.332531 55.492693 246.377551 
Q 55.203943 246.422571 54.975738 246.521926 
Q 54.747532 246.621281 54.603157 246.806018 
Q 54.458782 246.989204 54.458782 247.305897 
Q 54.458782 247.515474 54.542613 247.659849 
Q 54.627996 247.802672 54.761504 247.892712 
Q 54.896564 247.982752 55.075093 248.023115 
Q 55.253621 248.061926 55.45233 248.061926 
Q 55.869931 248.061926 56.167996 247.948599 
Q 56.46606 247.83372 56.653903 247.659849 
Q 56.843298 247.485978 56.933338 247.282611 
Q 57.023379 247.077692 57.023379 246.899164 
L 57.023379 246.034466 
z
" style="fill: #4c4c4c; stroke: #ffffff; stroke-width: 2.980645"/>
    <path d="M 58.394165 248.667369 
Q 58.175274 248.79622 57.787169 248.79622 
Q 57.459609 248.79622 57.265556 248.613035 
Q 57.073056 248.429849 57.073056 248.012248 
Q 56.725314 248.429849 56.262693 248.613035 
Q 55.800072 248.79622 55.264488 248.79622 
Q 54.916746 248.79622 54.603157 248.717047 
Q 54.291121 248.637873 54.061363 248.46866 
Q 53.833157 248.299446 53.698097 248.02622 
Q 53.564588 247.752994 53.564588 247.366442 
Q 53.564588 246.92866 53.713621 246.650777 
Q 53.862653 246.372893 54.106383 246.199022 
Q 54.350113 246.025152 54.662149 245.936664 
Q 54.975738 245.846623 55.303298 245.786079 
Q 55.65104 245.71622 55.964629 245.682067 
Q 56.278218 245.647914 56.515738 245.582712 
Q 56.75481 245.51751 56.892976 245.393317 
Q 57.032693 245.269123 57.032693 245.031603 
Q 57.032693 244.75372 56.928681 244.584506 
Q 56.824669 244.415293 56.660113 244.326805 
Q 56.495556 244.236764 56.292189 244.207268 
Q 56.088822 244.17622 55.890113 244.17622 
Q 55.352976 244.17622 54.995919 244.381139 
Q 54.638863 244.584506 54.607814 245.151139 
L 53.763298 245.151139 
Q 53.78348 244.672994 53.962008 244.345434 
Q 54.142088 244.017873 54.440153 243.814506 
Q 54.738218 243.611139 55.120113 243.521099 
Q 55.502008 243.431059 55.93979 243.431059 
Q 56.287532 243.431059 56.630617 243.480736 
Q 56.973701 243.530414 57.251584 243.685656 
Q 57.529468 243.839345 57.698681 244.117228 
Q 57.867895 244.395111 57.867895 244.842208 
L 57.867895 247.485978 
Q 57.867895 247.784043 57.902048 247.92376 
Q 57.936201 248.061926 58.134911 248.061926 
Q 58.245133 248.061926 58.394165 248.012248 
L 58.394165 248.667369 
z
M 57.023379 246.034466 
Q 56.86348 246.154002 56.604226 246.208337 
Q 56.346524 246.262672 56.063984 246.298377 
Q 55.781443 246.332531 55.492693 246.377551 
Q 55.203943 246.422571 54.975738 246.521926 
Q 54.747532 246.621281 54.603157 246.806018 
Q 54.458782 246.989204 54.458782 247.305897 
Q 54.458782 247.515474 54.542613 247.659849 
Q 54.627996 247.802672 54.761504 247.892712 
Q 54.896564 247.982752 55.075093 248.023115 
Q 55.253621 248.061926 55.45233 248.061926 
Q 55.869931 248.061926 56.167996 247.948599 
Q 56.46606 247.83372 56.653903 247.659849 
Q 56.843298 247.485978 56.933338 247.282611 
Q 57.023379 247.077692 57.023379 246.899164 
L 57.023379 246.034466 
z
" style="fill: #4c4c4c"/>
   </g>
   <g id="text_2">
    <path d="M 38.902524 216.143776 
L 38.902524 223.238332 
L 39.74704 223.238332 
L 39.74704 222.552163 
L 39.767221 222.552163 
Q 39.905387 222.781921 40.108753 222.93561 
Q 40.313673 223.0893 40.541878 223.17934 
Q 40.770084 223.267828 41.002947 223.306639 
Q 41.237362 223.347001 41.425205 223.347001 
Q 42.01202 223.347001 42.454459 223.138977 
Q 42.896899 222.930953 43.188753 222.567687 
Q 43.482161 222.204421 43.626536 221.718514 
Q 43.770911 221.231054 43.770911 220.684602 
Q 43.770911 220.138151 43.621878 219.652243 
Q 43.472846 219.164784 43.179439 218.792203 
Q 42.886032 218.419622 42.443592 218.200731 
Q 42.002705 217.98184 41.406576 217.98184 
Q 40.869439 217.98184 40.422342 218.175893 
Q 39.975245 218.369945 39.767221 218.79686 
L 39.74704 218.79686 
L 39.74704 216.143776 
L 38.902524 216.143776 
z
M 42.876717 220.62561 
Q 42.876717 221.002848 42.795991 221.361457 
Q 42.716818 221.718514 42.53829 221.996397 
Q 42.359762 222.27428 42.066354 222.443493 
Q 41.772947 222.612707 41.336717 222.612707 
Q 40.898935 222.612707 40.590003 222.449703 
Q 40.282624 222.285147 40.088572 222.016578 
Q 39.896072 221.748009 39.806032 221.39561 
Q 39.717544 221.043211 39.717544 220.664421 
Q 39.717544 220.307364 39.801374 219.959622 
Q 39.885205 219.61188 40.0746 219.338655 
Q 40.263995 219.065429 40.56206 218.896215 
Q 40.860124 218.727001 41.28704 218.727001 
Q 41.693774 218.727001 41.996495 218.886901 
Q 42.30077 219.045247 42.49327 219.313816 
Q 42.687322 219.582384 42.78202 219.925469 
Q 42.876717 220.267001 42.876717 220.62561 
z
" style="fill: #4c4c4c; stroke: #ffffff; stroke-width: 2.980645"/>
    <path d="M 38.902524 216.143776 
L 38.902524 223.238332 
L 39.74704 223.238332 
L 39.74704 222.552163 
L 39.767221 222.552163 
Q 39.905387 222.781921 40.108753 222.93561 
Q 40.313673 223.0893 40.541878 223.17934 
Q 40.770084 223.267828 41.002947 223.306639 
Q 41.237362 223.347001 41.425205 223.347001 
Q 42.01202 223.347001 42.454459 223.138977 
Q 42.896899 222.930953 43.188753 222.567687 
Q 43.482161 222.204421 43.626536 221.718514 
Q 43.770911 221.231054 43.770911 220.684602 
Q 43.770911 220.138151 43.621878 219.652243 
Q 43.472846 219.164784 43.179439 218.792203 
Q 42.886032 218.419622 42.443592 218.200731 
Q 42.002705 217.98184 41.406576 217.98184 
Q 40.869439 217.98184 40.422342 218.175893 
Q 39.975245 218.369945 39.767221 218.79686 
L 39.74704 218.79686 
L 39.74704 216.143776 
L 38.902524 216.143776 
z
M 42.876717 220.62561 
Q 42.876717 221.002848 42.795991 221.361457 
Q 42.716818 221.718514 42.53829 221.996397 
Q 42.359762 222.27428 42.066354 222.443493 
Q 41.772947 222.612707 41.336717 222.612707 
Q 40.898935 222.612707 40.590003 222.449703 
Q 40.282624 222.285147 40.088572 222.016578 
Q 39.896072 221.748009 39.806032 221.39561 
Q 39.717544 221.043211 39.717544 220.664421 
Q 39.717544 220.307364 39.801374 219.959622 
Q 39.885205 219.61188 40.0746 219.338655 
Q 40.263995 219.065429 40.56206 218.896215 
Q 40.860124 218.727001 41.28704 218.727001 
Q 41.693774 218.727001 41.996495 218.886901 
Q 42.30077 219.045247 42.49327 219.313816 
Q 42.687322 219.582384 42.78202 219.925469 
Q 42.876717 220.267001 42.876717 220.62561 
z
" style="fill: #4c4c4c"/>
   </g>
   <g id="text_3">
    <path d="M 27.944531 245.200817 
L 28.818543 245.200817 
Q 28.768866 244.742853 28.579471 244.410635 
Q 28.391628 244.076865 28.098221 243.859527 
Q 27.804814 243.640635 27.422918 243.536623 
Q 27.041023 243.431059 26.603241 243.431059 
Q 25.997798 243.431059 25.539834 243.645293 
Q 25.083423 243.859527 24.779148 244.232107 
Q 24.476427 244.604688 24.327394 245.106119 
Q 24.178362 245.607551 24.178362 246.183498 
Q 24.178362 246.759446 24.332052 247.242248 
Q 24.487293 247.723498 24.790015 248.07124 
Q 25.092737 248.418982 25.544491 248.608377 
Q 25.997798 248.79622 26.58306 248.79622 
Q 27.567293 248.79622 28.138584 248.280817 
Q 28.709874 247.763861 28.848039 246.809123 
L 27.984894 246.809123 
Q 27.904168 247.405252 27.551769 247.734365 
Q 27.19937 248.061926 26.573745 248.061926 
Q 26.176326 248.061926 25.887576 247.903579 
Q 25.600378 247.74368 25.420298 247.481321 
Q 25.241769 247.21741 25.156386 246.880535 
Q 25.072556 246.542107 25.072556 246.183498 
Q 25.072556 245.796946 25.151729 245.43368 
Q 25.232455 245.070414 25.41564 244.792531 
Q 25.600378 244.514647 25.907757 244.345434 
Q 26.215136 244.17622 26.6731 244.17622 
Q 27.208685 244.17622 27.526931 244.444789 
Q 27.845177 244.713357 27.944531 245.200817 
z
" style="fill: #4c4c4c; stroke: #ffffff; stroke-width: 2.980645"/>
    <path d="M 27.944531 245.200817 
L 28.818543 245.200817 
Q 28.768866 244.742853 28.579471 244.410635 
Q 28.391628 244.076865 28.098221 243.859527 
Q 27.804814 243.640635 27.422918 243.536623 
Q 27.041023 243.431059 26.603241 243.431059 
Q 25.997798 243.431059 25.539834 243.645293 
Q 25.083423 243.859527 24.779148 244.232107 
Q 24.476427 244.604688 24.327394 245.106119 
Q 24.178362 245.607551 24.178362 246.183498 
Q 24.178362 246.759446 24.332052 247.242248 
Q 24.487293 247.723498 24.790015 248.07124 
Q 25.092737 248.418982 25.544491 248.608377 
Q 25.997798 248.79622 26.58306 248.79622 
Q 27.567293 248.79622 28.138584 248.280817 
Q 28.709874 247.763861 28.848039 246.809123 
L 27.984894 246.809123 
Q 27.904168 247.405252 27.551769 247.734365 
Q 27.19937 248.061926 26.573745 248.061926 
Q 26.176326 248.061926 25.887576 247.903579 
Q 25.600378 247.74368 25.420298 247.481321 
Q 25.241769 247.21741 25.156386 246.880535 
Q 25.072556 246.542107 25.072556 246.183498 
Q 25.072556 245.796946 25.151729 245.43368 
Q 25.232455 245.070414 25.41564 244.792531 
Q 25.600378 244.514647 25.907757 244.345434 
Q 26.215136 244.17622 26.6731 244.17622 
Q 27.208685 244.17622 27.526931 244.444789 
Q 27.845177 244.713357 27.944531 245.200817 
z
" style="fill: #4c4c4c"/>
   </g>
  </g>
 </g>
 <defs>
  <clipPath id="p9ad9cd109e">
   <rect x="7.2" y="7.2" width="239.976686" height="266.4"/>
  </clipPath>
 </defs>
</svg>
